<svg xmlns="http://www.w3.org/2000/svg" xmlns:xlink="http://www.w3.org/1999/xlink" width="1200" height="600" baseProfile="full" viewBox="-15 -7.5 30 15"><defs><clipPath id="a"><path d="M-15-7.5h30v15h-30z"/></clipPath></defs><g clip-path="url(#a)"><circle r="20" fill="#012169"/><path stroke="#fff" stroke-width="3" d="m-20-10 40 20m-40 0 40-20"/><path stroke="#c8102e" stroke-width="2" d="m-20-10 40 20m-40 0 40-20"/><path fill="#fff" d="m0 0 20 10h-3L-3 0m3 0 20-10h3L3 0M0 0l-20 10h-3L-3 0m3 0-20-10h3L3 0"/><path stroke="#fff" stroke-width="5" d="M-20 0h40M0-10v20"/><path stroke="#c8102e" stroke-width="3" d="M-20 0h40M0-10v20"/></g><path fill="#f7e017" stroke="#000" stroke-width=".987" d="M764.506 450c0 90.854-73.652 164.506-164.506 164.506S435.494 540.854 435.494 450 509.146 285.494 600 285.494 764.506 359.146 764.506 450z"/><path fill="#fff" stroke="#000" stroke-linecap="square" stroke-linejoin="round" d="M750.96 450c0 83.373-67.587 150.96-150.96 150.96S449.04 533.373 449.04 450 516.627 299.04 600 299.04 750.96 366.627 750.96 450z"/><path fill="#f7e017" d="M583.369 600.094h33.262v16.462h-33.262z"/><use xlink:href="#b" width="744.094" height="1052.362" transform="matrix(-1 0 0 1 1200.633 .319)"/><g id="b" transform="matrix(.6494 0 0 .6494 1106.57 246.46)"><rect width="33.926" height="2.283" x="-862.823" y="451.586" fill="#5c3021" rx=".262" ry=".262" transform="rotate(-8.528)"/><g id="d" transform="rotate(71.318 -470.723 -9.746)"><path fill="#5c3021" d="M-12.048 375.879h3.118v42.813h-3.118z"/><path fill="#5c3021" d="m-24.848 388.057 16.88 3.996-.822 3.468-16.879-3.996z"/><path fill="#c8102e" stroke="#5c3021" stroke-width=".672" d="M298.205 555.112a3.872 3.872 0 0 1-1.937 3.358 3.88 3.88 0 0 1-5.816-3.358 3.872 3.872 0 0 1 1.936-3.358 3.88 3.88 0 0 1 5.817 3.358z" transform="matrix(.29332 -1.23894 1.23894 .29332 -795.734 591.67)"/><path fill="#5c3021" d="m5.94 388.161-19.067 4.414.69 2.98L6.63 391.14z"/><path fill="#c8102e" stroke="#5c3021" stroke-width=".669" d="M297.726 553.707a3.826 3.826 0 0 1-1.907 3.341 3.832 3.832 0 0 1-3.849-.018 3.91 3.91 0 0 1-1.937-3.359 3.826 3.826 0 0 1 1.906-3.341 3.832 3.832 0 0 1 3.85.018 3.91 3.91 0 0 1 1.937 3.359z" transform="matrix(-.28715 -1.24038 -1.24038 .28715 773.521 595.618)"/><g id="e" transform="matrix(1.0276 0 0 .94819 -126.192 -121.54)"><use xlink:href="#c" width="1500" height="750" transform="matrix(-.99465 -.11197 -.09533 .99465 279.53 16.067)"/><g id="c" stroke="#1a472b"><path fill="#3d6221" d="M200.132 508.26c-3.727 38.233 1.073 43.036 12.634 51.706 1.27-22.928 1.365-37.243-12.634-51.706z" transform="matrix(.99973 .01026 -.00055 1.00026 -101.684 35.871)"/><path fill="none" fill-opacity=".75" fill-rule="evenodd" stroke-width="1.027" d="M204.097 522.11c-.96 11.155 8.913 37.673 8.913 37.673" transform="matrix(.99973 .01026 -.00055 1.00026 -101.684 35.871)"/></g><g stroke="#1a472b"><path fill="#3d6221" stroke-width="1.059" d="M208.624 535.57c0 7.78 5.859 26.066 6.189 25.555.334.518 7.062-19.348 7.062-27.143 0-7.795-.463-15.024-7.048-23.371-6.615 8.406-6.203 17.134-6.203 24.958z" transform="matrix(.99933 .0398 -.03389 .99933 -84.048 29.177)"/><path fill="none" fill-opacity=".75" fill-rule="evenodd" d="M214.828 562.028v-38.384" transform="matrix(.99933 .0398 -.03389 .99933 -84.048 29.177)"/></g></g></g><use xlink:href="#d" width="744.094" height="1052.362" transform="rotate(-7.32 -870.368 119.03)"/><use xlink:href="#d" width="744.094" height="1052.362" transform="rotate(-21.063 -818.135 250.03)"/><use xlink:href="#d" width="744.094" height="1052.362" transform="rotate(-33.607 -811.546 270.038)"/><use xlink:href="#d" width="744.094" height="1052.362" transform="rotate(-48.02 -801.807 288.698)"/><use xlink:href="#d" width="744.094" height="1052.362" transform="rotate(-59.983 -803.431 291.871)"/><use xlink:href="#d" width="744.094" height="1052.362" transform="rotate(-74.449 -798.635 299.469)"/><use xlink:href="#d" width="744.094" height="1052.362" transform="rotate(-87.753 -797.148 303.48)"/><use xlink:href="#d" width="744.094" height="1052.362" transform="rotate(-101.171 -795.629 306.695)"/><use xlink:href="#d" width="744.094" height="1052.362" transform="rotate(-115.87 -792.295 310.324)"/><use xlink:href="#d" width="744.094" height="1052.362" transform="rotate(-129.012 -793.047 311.858)"/><use xlink:href="#d" width="744.094" height="1052.362" transform="rotate(-142.751 -792.416 313.721)"/><use xlink:href="#e" width="744.094" height="1052.362" transform="rotate(-83.57 -579.156 654.505)"/></g><g transform="matrix(.64342 0 0 .64342 1587.977 -366.179)"><g id="f"><path fill="#2e87cf" stroke="#000" stroke-width=".439076" d="M-1543.335 1522.823c-14.512 13.263-27.35 20.071-28.57 20.524-1.22.454 7.122 2.723 7.122 2.723l.364 7.456c12.953-4.258 33.01-34.488 33.01-34.488l-11.926 3.785z"/><path fill="#0033ab" d="M-1541.75 1526.827c-16.041 12.05-22.886 15.638-22.886 15.638l4.872.373-1.554 3.846s-4.87 1.606 0 0c4.868-1.606 20.025-19.173 19.568-19.857z"/></g><g stroke="#000"><path fill="#0033ab" stroke-width=".439076" d="M-1548.998 1497.164c-4.117 12.349 1.646 29.089 1.646 29.089l-7.41-6.587-5.488-17.837.824-8.233 10.428 3.568zM-1523.343 1530.287c8.926-.97 9.605-4.851 10.187-6.598.583-1.746 4.27-13.195 5.046-14.65.776-1.456 2.425-9.702 2.425-9.702l-7.762 9.023-9.896 21.927z"/><path fill="#2e87cf" stroke-width=".658614" d="M-1552.772 1487.107c-2.662.07-5.465.535-6.311 1.715-.021.031-.051.105-.069.137-6.86 12.35 1.647 30.736 4.665 35.675 3.019 4.94 11.8 4.94 11.8 4.94s16.965 2.703 21.08.13c4.392-2.744 10.205-21.81 15.967-29.768 1.77-2.445-5.488-13.995-11.25-12.349-5.764 1.647-12.624 4.116-16.192 4.116-3.567 0-12.623-4.116-15.368-4.39-1.029-.103-2.662-.25-4.322-.206zm44.8 10.36c-12.745 13.177-6.843 29.911-27.305 29.911-20.737 0-22.97-22.756-23.875-30.255 6.23 3.479 12.864 8.182 25.727 8.405 12.864.223 18.439-4.225 25.453-8.062z"/></g><use xlink:href="#f" width="744.094" height="1052.362" transform="matrix(-1 0 0 1 -3071.031 0)"/><path fill="#2e87cf" stroke="#000" stroke-width=".439076" d="M-1549.411 1528.075c12.623 6.861 22.914 2.333 24.149-.548 1.235-2.882 2.607-7.684.137-10.566-2.47-2.881-10.016-4.253-12.898-2.332-2.881 1.92-7.684 10.153-7.684 10.153s-3.842-2.058 0 0c3.842 2.059 7.959 2.47 7.959 2.47s3.156-6.174 3.704-5.214c.55.96.96 4.528 0 4.94-.96.411-3.704.137-3.704.137"/><path fill="none" stroke="#0033ab" stroke-width="1.09769" d="M-1547.079 1526.703c10.977 4.117 14.956 2.882 16.328 1.647 1.373-1.235 2.47-3.705 1.921-6.175-.548-2.47-2.881-5.488-4.802-5.763-1.921-.274-8.919 9.468-8.919 9.468"/><path fill="#2e87cf" stroke="#000" stroke-width=".433" d="M-1543.438 1525.88c-3.065-1.784-1.737-5.288-1.2-6.175 1.334-2.195 1.867-2.88 2.533-3.704.667-.823 3.866-1.098 3.866-1.098s-2 1.235-2 2.607 5.065 3.842 5.065 3.842 3.572.055 3.332 3.43c-.137 1.936-2.932 2.607-4.531 2.882-.8.137-4.399-.275-7.065-1.784z"/><path fill="none" stroke="#0033ab" stroke-width="1.098" d="M-1533.224 1526.456c-11.251-2.058-9.88-8.644-9.88-8.644"/></g><path fill="#f7e017" stroke="#000" stroke-width=".025" d="M4.113 0a4.113 4.113 0 1 1-8.226 0 4.113 4.113 0 0 1 8.226 0z"/><path fill="#fff" stroke="#000" stroke-linecap="square" stroke-linejoin="round" stroke-width=".025" d="M3.774 0a3.774 3.774 0 1 1-7.548 0 3.774 3.774 0 0 1 7.548 0z"/><g transform="matrix(.025 0 0 .025 -15 -11.25)"><path fill="#f7e017" d="M583.369 600.094h33.262v16.462h-33.262z"/><use xlink:href="#b" width="744.094" height="1052.362" transform="matrix(-1 0 0 1 1200.633 .319)"/><g transform="matrix(.6494 0 0 .6494 1106.57 246.46)"><rect width="33.926" height="2.283" x="-862.823" y="451.586" fill="#5c3021" rx=".262" ry=".262" transform="rotate(-8.528)"/><path fill="#5c3021" d="m-689.104 548.285.999 2.953-40.558 13.715-.998-2.954z"/><path fill="#5c3021" d="m-705.263 540.044 1.737 17.562-3.093.306-1.737-17.562z"/><path fill="#c8102e" stroke="#5c3021" stroke-width=".672" d="M298.422 554.733a3.872 3.872 0 0 1-1.937 3.357 3.88 3.88 0 0 1-5.816-3.358 3.872 3.872 0 0 1 1.937-3.358 3.88 3.88 0 0 1 5.816 3.359z" transform="matrix(1.267 -.1253 .1253 1.267 -1147.901 -122.55)"/><path fill="#5c3021" d="m-696.17 567.35-9.106-14.733-2.592 1.602 9.105 14.732z"/><path fill="#c8102e" stroke="#5c3021" stroke-width=".669" d="M297.719 553.694a3.826 3.826 0 0 1-1.907 3.342 3.832 3.832 0 0 1-3.85-.018 3.91 3.91 0 0 1-1.937-3.359 3.826 3.826 0 0 1 1.907-3.341 3.832 3.832 0 0 1 3.85.017 3.91 3.91 0 0 1 1.937 3.36z" transform="matrix(1.08304 -.66934 -.66934 -1.08304 -645.629 1362.848)"/><g transform="matrix(.32916 .97346 -.89822 .30373 -254.458 280.82)"><use xlink:href="#c" width="1500" height="750" transform="matrix(-.99465 -.11197 -.09533 .99465 279.53 16.067)"/><g stroke="#1a472b"><path fill="#3d6221" d="M200.132 508.26c-3.727 38.233 1.073 43.036 12.634 51.706 1.27-22.928 1.365-37.243-12.634-51.706z" transform="matrix(.99973 .01026 -.00055 1.00026 -101.684 35.871)"/><path fill="none" stroke-width="1.027" d="M204.097 522.11c-.96 11.155 8.913 37.673 8.913 37.673" transform="matrix(.99973 .01026 -.00055 1.00026 -101.684 35.871)"/></g><g stroke="#1a472b"><path fill="#3d6221" stroke-width="1.059" d="M208.624 535.57c0 7.78 5.859 26.066 6.189 25.555.334.518 7.062-19.348 7.062-27.143 0-7.795-.463-15.024-7.048-23.371-6.615 8.406-6.203 17.134-6.203 24.958z" transform="matrix(.99933 .0398 -.03389 .99933 -84.048 29.177)"/><path fill="none" d="M214.828 562.028v-38.384" transform="matrix(.99933 .0398 -.03389 .99933 -84.048 29.177)"/></g></g><use xlink:href="#d" width="744.094" height="1052.362" transform="rotate(-7.32 -870.368 119.03)"/><use xlink:href="#d" width="744.094" height="1052.362" transform="rotate(-21.063 -818.135 250.03)"/><use xlink:href="#d" width="744.094" height="1052.362" transform="rotate(-33.607 -811.546 270.038)"/><use xlink:href="#d" width="744.094" height="1052.362" transform="rotate(-48.02 -801.807 288.698)"/><use xlink:href="#d" width="744.094" height="1052.362" transform="rotate(-59.983 -803.431 291.871)"/><use xlink:href="#d" width="744.094" height="1052.362" transform="rotate(-74.449 -798.635 299.469)"/><use xlink:href="#d" width="744.094" height="1052.362" transform="rotate(-87.753 -797.148 303.48)"/><use xlink:href="#d" width="744.094" height="1052.362" transform="rotate(-101.171 -795.629 306.695)"/><use xlink:href="#d" width="744.094" height="1052.362" transform="rotate(-115.87 -792.295 310.324)"/><use xlink:href="#d" width="744.094" height="1052.362" transform="rotate(-129.012 -793.047 311.858)"/><use xlink:href="#d" width="744.094" height="1052.362" transform="rotate(-142.751 -792.416 313.721)"/><use xlink:href="#e" width="744.094" height="1052.362" transform="rotate(-83.57 -579.156 654.505)"/></g><g transform="matrix(.64342 0 0 .64342 1587.977 -366.179)"><path fill="#2e87cf" stroke="#000" stroke-width=".439076" d="M-1543.335 1522.823c-14.512 13.263-27.35 20.071-28.57 20.524-1.22.454 7.122 2.723 7.122 2.723l.364 7.456c12.953-4.258 33.01-34.488 33.01-34.488l-11.926 3.785z"/><path fill="#0033ab" d="M-1541.75 1526.827c-16.041 12.05-22.886 15.638-22.886 15.638l4.872.373-1.554 3.846s-4.87 1.606 0 0c4.868-1.606 20.025-19.173 19.568-19.857z"/><g stroke="#000"><path fill="#0033ab" stroke-width=".439076" d="M-1548.998 1497.164c-4.117 12.349 1.646 29.089 1.646 29.089l-7.41-6.587-5.488-17.837.824-8.233 10.428 3.568zM-1523.343 1530.287c8.926-.97 9.605-4.851 10.187-6.598.583-1.746 4.27-13.195 5.046-14.65.776-1.456 2.425-9.702 2.425-9.702l-7.762 9.023-9.896 21.927z"/><path fill="#2e87cf" stroke-width=".658614" d="M-1552.772 1487.107c-2.662.07-5.465.535-6.311 1.715-.021.031-.051.105-.069.137-6.86 12.35 1.647 30.736 4.665 35.675 3.019 4.94 11.8 4.94 11.8 4.94s16.965 2.703 21.08.13c4.392-2.744 10.205-21.81 15.967-29.768 1.77-2.445-5.488-13.995-11.25-12.349-5.764 1.647-12.624 4.116-16.192 4.116-3.567 0-12.623-4.116-15.368-4.39-1.029-.103-2.662-.25-4.322-.206zm44.8 10.36c-12.745 13.177-6.843 29.911-27.305 29.911-20.737 0-22.97-22.756-23.875-30.255 6.23 3.479 12.864 8.182 25.727 8.405 12.864.223 18.439-4.225 25.453-8.062z"/></g><use xlink:href="#f" width="744.094" height="1052.362" transform="matrix(-1 0 0 1 -3071.031 0)"/><path fill="#2e87cf" stroke="#000" stroke-width=".439076" d="M-1549.411 1528.075c12.623 6.861 22.914 2.333 24.149-.548 1.235-2.882 2.607-7.684.137-10.566-2.47-2.881-10.016-4.253-12.898-2.332-2.881 1.92-7.684 10.153-7.684 10.153s-3.842-2.058 0 0c3.842 2.059 7.959 2.47 7.959 2.47s3.156-6.174 3.704-5.214c.55.96.96 4.528 0 4.94-.96.411-3.704.137-3.704.137"/><path fill="none" stroke="#0033ab" stroke-width="1.09769" d="M-1547.079 1526.703c10.977 4.117 14.956 2.882 16.328 1.647 1.373-1.235 2.47-3.705 1.921-6.175-.548-2.47-2.881-5.488-4.802-5.763-1.921-.274-8.919 9.468-8.919 9.468"/><path fill="#2e87cf" stroke="#000" stroke-width=".433" d="M-1543.438 1525.88c-3.065-1.784-1.737-5.288-1.2-6.175 1.334-2.195 1.867-2.88 2.533-3.704.667-.823 3.866-1.098 3.866-1.098s-2 1.235-2 2.607 5.065 3.842 5.065 3.842 3.572.055 3.332 3.43c-.137 1.936-2.932 2.607-4.531 2.882-.8.137-4.399-.275-7.065-1.784z"/><path fill="none" stroke="#0033ab" stroke-width="1.098" d="M-1533.224 1526.456c-11.251-2.058-9.88-8.644-9.88-8.644"/></g></g><g transform="matrix(.1354 0 0 .1354 .572 -5.462)"><path fill="#fff" d="m-20.328 19.407 32.265-.12-.06 28.733s1.138 4.37-13.528 11.015c5.267-.539 11.014-6.166 11.014-6.166s2.335-2.993 3.472-1.317 2.215 2.514 3.053 3.173c.838.658 1.497 2.454.24 3.771-1.258 1.317-3.233 1.497-3.772-.12-.838.42-5.986 6.645-16.522 6.944-10.715-.18-16.581-7.003-16.581-7.003s-1.437 2.274-3.472.479c-1.976-2.335-.48-3.832-.48-3.832s1.677-.957 2.156-1.616c.778-.898 1.018-2.095 2.334-2.095a2.665 2.665 0 0 1 2.155 1.377s5.388 5.687 11.195 6.405c-13.11-6.285-13.589-10.176-13.53-11.134l.06-28.494z"/><path fill="#144d29" fill-rule="evenodd" stroke="#000" stroke-width=".259" d="m-19.55 20.185 30.769-.18v27.656c.06 3.592-5.986 7.244-15.444 11.913-9.758-5.029-15.385-8.082-15.445-11.973l.12-27.416z"/><g id="g" fill-rule="evenodd"><path fill="none" stroke="#fcc917" stroke-width=".19455pt" d="m-15.363 24.272 1.816-2.667 1.825 2.673"/><path fill="#fcc917" stroke="#000" stroke-width=".575" d="M80.922 156.724a1.706 1.706 0 1 1-3.411.001 1.706 1.706 0 0 1 3.411-.001z" transform="matrix(.21147 0 0 .21148 -30.295 -9.868)"/><path fill="#fcc917" stroke="#000" stroke-width=".12159375" d="m-15.021 26.242 2.815.008s.044-.365-.294-.587c1.475-.203 1.092-1.504 2.327-1.577.24.036-.645.553-.645.553s-.745.525-.406.792c.27.212.387-.129.424-.387.037-.258 1.198-.424 1.032-1.161-.276-.609-1.898.405-1.898.405l-1.158-.006c-.072-.13-.39-.65-.72-.653-.391.014-.666.66-.666.66h-2.618s-.09.671 1.237.8c.3.39.531.5.79.6-.172.145-.221.32-.22.553z"/><path fill="none" stroke="#000" stroke-width=".12159375" d="m-14.819 25.671 2.346-.008M-15.893 24.288s.188 1.097 1.054 1.357"/><path fill="#c8102e" stroke="#000" stroke-width=".12159375" d="M-16.037 24.274c.086-.419.245-.49.418-1.025.03-.52-.418-.462-.288-.794.23-.36.115-.707-.318-.981.087.476-.563.924-.563 1.313 0 .39.332.303.289.895.029.346-.087.26-.115.592h.577z"/><path fill="#fcc917" stroke="#000" stroke-width=".12159375" d="M-13.21 21.673a.332.332 0 1 1-.664 0 .332.332 0 0 1 .663 0z"/></g><use xlink:href="#g" width="30" height="15" transform="translate(3.302 16.248)"/><path fill="#fcc917" fill-rule="evenodd" stroke="#000" stroke-width=".12159375" d="M-2.342 53.198s.734 1.694 1.571.653c.837-1.04.531-1.49.531-1.49l-1.878-1.02-.55 1.163.326.694z"/><path fill="#ffc6b5" fill-rule="evenodd" stroke="#000" stroke-width=".12159375" d="M-.73 52.974s.123.02.225-.163c.102-.184-.225-.266-.368-.47l-.163.327.306.306zM-4.975 52.525l-1.654.898s-.816.163-.877 0c-.061-.163.02-.306.449-.327.428-.02 1.592-1.082 1.592-1.082l.49.51zM-4.955 23.154s.041.388.061.592c.02.204-.326.632-.347.612-.02-.02-.183.02-.163.143.02.122.265.163.265.163s-.102.429 0 .45c.103.02-.265.55 0 .693.266.143.715.327.919.286.204-.04 0 .796 0 .796l-.572 1.225 3.144-.327-.653-1.04s-.307-.205-.225-.797c.082-.592-.04-3.266-.04-3.266l-2.246-.306-.143.776zM-5.526 27.807s-1.02.47-.98 1.735c-.265 1.225-.408 2.45-.408 2.45s-1.204 1.367-1.572 1.857c-.367.49-.918 1.49-1.122 1.755-.205.266-1 1.143-.98 1.47.02.326-.184 1.776.612 1.939.204.082.857-1.674.857-1.674s.041-.755-.183-.898c-.225-.143.49-.633.49-.633s1.367-1 1.673-1.245c.306-.245 1.143-1.183 1.143-1.183l.47-5.573z"/><path fill="#fff" fill-rule="evenodd" stroke="#000" stroke-width=".12159375" d="M-4.363 26.848s.265.715.857.592c.592-.122 1.286-.673 1.286-.673s.551-.02.633.06c.082.082 1.49 1.45 1.45 1.879-.042.428-.654.306-.879.591-.224.286-.592 1-.49 1.531.103.531.409 1.225.368 1.49-.04.266-.265.347-.265.49 0 .143.183.388.183.653 0 .266-.245.653-.204.919.041.265.061 1.04.061 1.04l-.06 3.593s.203.122.224.327c.02.204 1.388 6.143 1.388 6.143s-.062.184-.204.163c-.143-.02.55.919.571 1.184.02.266.714 2.347.694 2.633-.02.286-.122.919-.184.94-.06.02.45 1.305.368 1.51-.082.204-.919.183-.919.183l-.224-.04s.02.265-.143.285c-.163.02-1.368-.061-1.368-.061s-.347.53-.55.51c-.205-.02-.47-.388-.531-.326-.062.06.183.408.122.51-.061.102-1.102.326-1.306-.163-.204-.49.122-.368.061-.47-.061-.102-.53-.367-.674-.286-.142.082.368.204.347.409-.02.204-.449.51-.612.51-.163 0-.551-.755-1.123-.674-.571.082-.938.225-.938.225s-.674.286-.96.224c-.285-.06-.408-.285-.408-.408 0-.122.204-.653.184-.816-.02-.164-.184-.327-.184-.572 0-.245.47-1.082.47-1.082l-.02-3.755s-.43 0-.45-.266c-.02-.265.653-5.939.755-6.306.102-.368.368-1.674.368-1.674s-.306.143-.327 0c-.02-.143.919-3.388.919-3.388s.163-1.613.163-2.041a9.23 9.23 0 0 0-.082-1.02s-.838-.356-.857-.899c-.077-.864.796-1.347.898-1.633l.408-1.143s.45-.775 1.184-.898z"/><path fill="#fcc917" fill-rule="evenodd" stroke="#000" stroke-width=".12159375" d="M-4.67 52.77s-1.979 1.04-2.265 1.122c-.285.082-.47-.347-.183-.428.285-.082.734-.123.734-.123s-.673-.53-.653-.55c.02-.021.919-.348.94-.348.02 0 .285.53.469.49.183-.04.714-.449.714-.449s.286.327.245.286z"/><path fill="#ffc6b5" fill-rule="evenodd" stroke="#000" stroke-width=".12159375" d="M-1.88 53.341c.187.242.26.66.69.415.428-.244-.22-.7-.22-.7l-.47.285z"/><path fill="#ffc6b5" fill-rule="evenodd" stroke="#000" stroke-width=".12159375" d="M-1.097 53.3s.204.164.388-.02c.183-.184-.368-.572-.368-.572l-.265.307.245.285z"/><path fill="none" stroke="#000" stroke-width=".12159375" d="M-1.71 27.644s-1.816 1.164-1.775 1.572M-1.301 27.848s-.409.45-.429.45M-.75 28.338s-.898.735-.755 1.204M-4.996 27.542s-.265.551-.204.735c.061.184.51.878.572 1.306.061.429 0 .735 0 .735M-5.465 28.563s.082.653.204.775c.122.123.449.674.49.898M-5.628 31.277s.53.266 1.02-.755M-3.812 29.808c-.02 0-.388 1 .265 1.367.654.368 1.143.327 1.43.225.285-.102.591-.286.591-.286M-4.098 31.032s.041 1.347 2.021 2.674M-4.016 32.298s-.02 1.184.755 1.714M-4.424 30.91s-.592 1.755-1.062 1.939M-4.608 32.196s-.02 1.265-.184 1.714M-4.955 34.216s.408.51.857.47c.45-.04.633-.572.94-.49.305.082.591.327 1.306.265M-2.873 34.992s0 1.041.184 1.143c.183.102.102 1.061.102 1.061M-5.363 34.502s-.02.98-.143 1.327c-.122.347-.367.939-.326 1.449M-6.608 37.85c.102-.041.449-.347.449-.347M-5.975 37.727s-.878 3.756-.633 6M-5.771 37.91s-.45 2.817-.245 3.348"/><path fill="none" stroke="#000" stroke-width=".12159375" d="M-5.996 37.83c.02 0 1.715.122 1.715.122M-4.036 37.727s.47.245 1.122.204M-4.24 39.095s-.082 4.816-.205 5.878M-1.73 40.197s.53 4.225.837 4.613M-2.75 40.727s.326 3.736.51 4.062M-7.384 46.095s.633-.204 1.205-.816c.653.878 1.653.04 1.653.04s1.551 1.062 2.245-.122c1.061.694 1.592-.102 1.592-.102s.388.592.674.531M-1.71 46.034s.796 3.735 1.98 4.797"/><path fill="none" stroke="#000" stroke-width=".12159375" d="M-5.812 45.646s.102 3.123.286 5.328M-5.955 49.177s-.102 2.041-.224 2.184M-7.16 51.565s.225.878 1.348.062c1.122-.817 1.143.306 1.184.428.04.123.224 1 .653.266M-3.077 51.116s-.184 1.817 1.429.49c1.612-1.326 1.877-.02 1.918.388"/><path fill="#5c3021" fill-rule="evenodd" stroke="#000" stroke-width=".12159375" d="M-5.016 23.031s.449.062.694-.081c.245-.143.53-.204.735.081.204.286.347.266.347.266s-.307.755 0 .837c.306.081.449.081.47.183.02.102-.266.327-.185.429.082.102.225.224.245.306.02.082-.183.429-.122.51.061.082.245.409.367.409.123 0 .041.51.408.387.368-.122.347-.449.347-.449s.388-.06.49-.408c.102-.347.347-.429.347-.429s.49-.265-.163-.673c0-2.858-1.878-2.551-1.878-2.551s-.224-.51-.592-.45c-.367.062-.387.49-.653.45-.265-.041-.326-.225-.347-.205-.02.02-.245.43-.245.531 0 .102-.714-.143-.653.388.061.53.408.51.388.47z"/><path fill="none" stroke="#000" stroke-width=".12159375" d="M-3.057 22.337s-.143.899.817.817c-.123.49.245.653.245.653M-1.28 24.358c.02 0 .428.265-.021.592M-2.669 25.072s.204.245.429.184c.224-.061.592.225.592.225s.306.102.347.04M-3.914 25.848s.694.265 1.143-.837M-5.2 24.685l.408.02"/><path fill="none" stroke="#000" stroke-linejoin="round" stroke-width=".12159375" d="M-5.139 25.093h.368l-.327.143"/><path fill="none" stroke="#000" stroke-linejoin="round" stroke-width=".21886875" d="M-4.628 23.95c.061 0 .285-.082.326-.02.041.06-.245.102-.326.02z"/><path fill="#ffc6b5" fill-rule="evenodd" stroke="#000" stroke-width=".12159375" d="M-.22 28.8c.02 0 .674 2.02.756 2.53.081.51.347 2.551.245 2.837-.103.286-1.143 1.653-1.266 2-.122.347-.857 1.674-.857 1.674s-.184 1.306-.266 1.368c-.081.06.211.381.184.49-.04.12-.592.693-.837.632-.245-.061-.632-.347-.653-.612-.02-.265.02-1.143.204-1.368.184-.224 1.143-2.49 1.205-2.633.06-.143.877-1.918.898-2.224.02-.307-.254-1.015-.543-1.274-.642-1.891-.39-3.031.93-3.42z"/><path fill="none" stroke="#000" stroke-width=".12159375" d="m-9.728 37.557.032.894M-10.567 37.49s.573.96.525 1.47"/><path fill="none" stroke="#000" stroke-linejoin="round" stroke-width=".12159375" d="M-2.88 39.494s.428-.045.415.671c.273-.89.83-.91.83-.91"/><path fill="#f7e017" fill-rule="evenodd" stroke="#000" stroke-width=".259" d="M-4.345 59.933c8.62-.24 14.187-6.465 14.127-6.525-.06-.06 1.137-1.736 2.095-1.497.958.24 2.335 3.053 4.011 3.652.838 1.317-.24 2.514-.599 2.754-.359.24-1.975.898-2.214-.06-.24-.958-.719-.778-.719-.778S4.694 64.96-4.166 64.662c-9.158.06-16.701-7.183-16.701-7.183l-.658.718s-.719.778-1.078.718c-.36-.06-1.916-1.077-2.035-2.095-.12-1.018.958-1.676.958-1.676s2.633-2.035 2.933-3.113c.598-.598 1.736.42 1.736.42s6.944 7.96 14.666 7.482z"/><path fill="none" stroke="#000" stroke-width=".259" d="M-23.86 55.303s.713-.19.974.107c.261.296 2.054 2.053 2.054 2.053"/><path fill="none" stroke="#000" stroke-width=".259" d="m-22.233 56.134-.712.534s1.792.356 1.389 1.531M15.246 55.243s-.357-.19-.915.226c-.558.415-1.97 1.994-1.97 1.994"/><path fill="none" stroke="#000" stroke-width=".259" d="m13.643 56.086.772.594s-1.615.107-1.259 1.638"/><path d="m-14.735 57.203-.052.073a.532.532 0 0 0-.37-.03c-.103.027-.294.122-.576.287l-2.372 1.383-.065-.046.597-2.773c.073-.334.106-.537.1-.61-.005-.07-.056-.148-.15-.234l.051-.073 1.279.912-.052.073-.043-.03c-.116-.083-.205-.125-.267-.126a.119.119 0 0 0-.107.054.35.35 0 0 0-.045.096c-.012.04-.038.15-.077.334l-.379 1.733 1.37-.806c.165-.098.272-.167.321-.205a.55.55 0 0 0 .11-.108.219.219 0 0 0 0-.262.764.764 0 0 0-.2-.193l.051-.073.876.624m.851 4.122-.042.078-1.503-.822.043-.078.095.052a.453.453 0 0 0 .226.066.22.22 0 0 0 .14-.056c.034-.025.09-.11.17-.254l1.034-1.89c.08-.148.122-.244.127-.29a.235.235 0 0 0-.043-.147.418.418 0 0 0-.168-.146l-.095-.053.043-.078 1.502.822-.042.078-.096-.052a.453.453 0 0 0-.226-.065.231.231 0 0 0-.142.054c-.034.025-.09.11-.17.254l-1.034 1.89c-.08.148-.122.244-.127.29a.265.265 0 0 0 .042.149.45.45 0 0 0 .171.146l.095.052m5.49-1.288-.387 1.088-.084-.03c.004-.334-.068-.614-.216-.841a1.144 1.144 0 0 0-.584-.47.91.91 0 0 0-.645-.01c-.2.075-.372.217-.519.427-.146.209-.263.436-.35.68a2.773 2.773 0 0 0-.173.816c-.01.248.045.452.162.611.12.16.286.28.5.355.074.027.153.046.235.059.085.011.174.016.267.015l.228-.642a.714.714 0 0 0 .059-.243.242.242 0 0 0-.07-.135.406.406 0 0 0-.174-.11l-.08-.03.03-.083 1.5.534-.03.084a.686.686 0 0 0-.255-.037.243.243 0 0 0-.144.08.683.683 0 0 0-.096.204l-.229.641a3.347 3.347 0 0 1-1.374-.19c-.292-.103-.522-.23-.688-.377a1.995 1.995 0 0 1-.4-.497c-.1-.183-.164-.37-.19-.562-.031-.248 0-.501.092-.76.165-.465.468-.799.908-1.003.44-.204.908-.218 1.402-.041.154.054.287.115.402.183.062.036.157.11.285.22.13.11.21.17.237.18a.192.192 0 0 0 .134-.004.452.452 0 0 0 .164-.142l.084.03m2.313 3.713-.013.088-1.694-.256.013-.089.108.017a.453.453 0 0 0 .234-.016.22.22 0 0 0 .113-.1c.024-.036.048-.135.072-.297l.323-2.131c.025-.166.032-.27.02-.315a.235.235 0 0 0-.09-.123.418.418 0 0 0-.208-.08l-.108-.017.014-.089 1.693.257-.013.088-.108-.016a.453.453 0 0 0-.234.016.231.231 0 0 0-.115.1c-.024.035-.048.134-.072.297l-.323 2.13c-.025.166-.032.271-.02.315a.265.265 0 0 0 .09.126.45.45 0 0 0 .21.079l.108.016m4.396-1.068-.064 1.155-2.905.148-.005-.09.109-.005a.453.453 0 0 0 .226-.062.22.22 0 0 0 .091-.12c.016-.04.02-.142.011-.306l-.11-2.153c-.008-.167-.023-.271-.042-.312a.235.235 0 0 0-.114-.103.418.418 0 0 0-.22-.037l-.109.005-.004-.089 1.744-.089.005.09-.143.007a.453.453 0 0 0-.226.062.231.231 0 0 0-.093.12c-.016.04-.02.142-.011.306l.106 2.085c.009.167.024.274.045.32a.193.193 0 0 0 .12.095c.04.012.138.015.292.007l.273-.014a.925.925 0 0 0 .43-.114.802.802 0 0 0 .284-.305c.078-.136.149-.335.211-.596l.1-.005m3.177-.551-1.109.33-.04.346a.71.71 0 0 0 .01.272.219.219 0 0 0 .165.162c.049.012.157 0 .324-.036l.026.085-1.044.312-.026-.085a.49.49 0 0 0 .237-.222c.049-.1.091-.284.126-.555l.375-2.84.044-.013 1.9 2.236c.182.211.316.338.405.38a.38.38 0 0 0 .247.018l.025.085-1.518.454-.026-.086.063-.018c.122-.037.202-.08.241-.128a.13.13 0 0 0 .02-.122.296.296 0 0 0-.04-.081 2.26 2.26 0 0 0-.121-.153l-.284-.341m-.13-.148-.79-.942-.159 1.225.95-.283m4.186-4.266.42.78-.077.042c-.142-.156-.262-.258-.36-.306a.656.656 0 0 0-.329-.067c-.067.003-.168.041-.303.114l-.215.115 1.197 2.226c.079.148.136.236.172.264a.265.265 0 0 0 .148.046.457.457 0 0 0 .218-.064l.095-.052.043.079-1.511.812-.042-.079.095-.051a.453.453 0 0 0 .178-.153.23.23 0 0 0 .033-.15c-.003-.042-.043-.135-.121-.28l-1.197-2.226-.208.112c-.195.105-.314.222-.357.351-.062.181-.052.387.03.618l-.081.043-.42-.78 2.592-1.394m1.965-1.165.803 1.064.052-.04c.166-.124.247-.267.243-.427-.004-.16-.072-.35-.205-.569l.073-.055 1.033 1.37-.073.054a1.267 1.267 0 0 0-.375-.292.512.512 0 0 0-.315-.061.808.808 0 0 0-.324.165l.556.737c.109.144.181.227.217.25.037.023.08.032.129.028a.403.403 0 0 0 .185-.092l.156-.118c.245-.184.398-.388.459-.612.062-.224.038-.477-.072-.757l.072-.054.509.92-2.26 1.706-.054-.072.086-.065a.453.453 0 0 0 .153-.179.22.22 0 0 0 .007-.15c-.009-.042-.063-.128-.162-.26l-1.298-1.72a1.718 1.718 0 0 0-.174-.21.231.231 0 0 0-.15-.051.416.416 0 0 0-.24.097l-.088.066-.054-.072 2.19-1.651.583.773-.073.056c-.18-.161-.335-.257-.465-.288a.724.724 0 0 0-.423.034c-.09.031-.233.121-.43.27l-.27.205" font-family="Times New Roman" font-size="32" font-weight="700" style="text-align:center;line-height:100%" text-anchor="middle"/><path fill="none" d="M-20.025 57.45c10.707 8.684 21.201 8.843 31.47 0"/><use xlink:href="#g" width="30" height="15" transform="translate(0 5.277)"/><use xlink:href="#g" width="30" height="15" transform="translate(0 10.554)"/><use xlink:href="#g" width="30" height="15" transform="translate(0 21.109)"/><use xlink:href="#g" width="30" height="15" transform="translate(0 26.386)"/><use xlink:href="#g" width="30" height="15" transform="translate(18.849)"/><use xlink:href="#g" width="30" height="15" transform="translate(18.849 5.277)"/><use xlink:href="#g" width="30" height="15" transform="translate(18.849 10.554)"/><use xlink:href="#g" width="30" height="15" transform="translate(18.849 15.832)"/><use xlink:href="#g" width="30" height="15" transform="translate(18.849 21.109)"/><use xlink:href="#g" width="30" height="15" transform="translate(18.849 26.386)"/></g></svg>