<?xml version="1.0" encoding="UTF-8" standalone="no"?>
<!-- Generator: Adobe Illustrator 21.1.0, SVG Export Plug-In . SVG Version: 6.00 Build 0)  -->

<svg
   xmlns:dc="http://purl.org/dc/elements/1.1/"
   xmlns:cc="http://creativecommons.org/ns#"
   xmlns:rdf="http://www.w3.org/1999/02/22-rdf-syntax-ns#"
   xmlns:svg="http://www.w3.org/2000/svg"
   xmlns="http://www.w3.org/2000/svg"
   xmlns:sodipodi="http://sodipodi.sourceforge.net/DTD/sodipodi-0.dtd"
   xmlns:inkscape="http://www.inkscape.org/namespaces/inkscape"
   version="1.1"
   id="Layer_1"
   x="0px"
   y="0px"
   viewBox="0 0 166.27838 99.767025"
   width="275"
   height="165"
   xml:space="preserve"
   sodipodi:docname="INTERPOL_Logo.svg"
   inkscape:version="0.92.0 r15299"><metadata
     id="metadata27"><rdf:RDF><cc:Work
         rdf:about=""><dc:format>image/svg+xml</dc:format><dc:type
           rdf:resource="http://purl.org/dc/dcmitype/StillImage" /></cc:Work></rdf:RDF></metadata><defs
     id="defs25" /><sodipodi:namedview
     pagecolor="#ffffff"
     bordercolor="#666666"
     borderopacity="1"
     objecttolerance="10"
     gridtolerance="10"
     guidetolerance="10"
     inkscape:pageopacity="0"
     inkscape:pageshadow="2"
     inkscape:window-width="1920"
     inkscape:window-height="1017"
     id="namedview23"
     showgrid="false"
     inkscape:snap-bbox="true"
     inkscape:snap-bbox-midpoints="true"
     inkscape:zoom="0.78061859"
     inkscape:cx="153.75804"
     inkscape:cy="59.949624"
     inkscape:window-x="-8"
     inkscape:window-y="-8"
     inkscape:window-maximized="1"
     inkscape:current-layer="Layer_1" /><style
     type="text/css"
     id="style2">

	.st0{fill:#00467F;}

</style><g
     id="g4496"
     transform="scale(0.5)"><rect
       y="0"
       x="1.4210855e-014"
       height="199.53406"
       width="332.55676"
       id="rect4526"
       style="opacity:1;fill:#7fb1e4;fill-opacity:1;fill-rule:nonzero;stroke:none;stroke-width:0.60464865;stroke-linecap:square;stroke-linejoin:miter;stroke-miterlimit:10;stroke-dasharray:none;stroke-dashoffset:0;stroke-opacity:1;paint-order:normal" /><ellipse
       ry="81.627571"
       rx="81.627579"
       cy="99.767029"
       cx="166.27838"
       id="path4528"
       style="opacity:1;fill:#ffffff;fill-opacity:1;fill-rule:nonzero;stroke:none;stroke-width:0.60464865;stroke-linecap:square;stroke-linejoin:miter;stroke-miterlimit:10;stroke-dasharray:none;stroke-dashoffset:0;stroke-opacity:1;paint-order:normal" /><path
       style="fill:#00467f"
       inkscape:connector-curvature="0"
       id="path4"
       d="m 219.77838,157.21703 h -43 v -0.9 h 43 z m -21.5,6.6 v 0 c -7.8,0 -14.3,-3 -18.3,-5.4 h 36.6 c -4,2.5 -10.6,5.4 -18.3,5.4 m -32,-11.5 c -11.2,0 -21.8,-2.9 -30.9,-8.4 l 5.3,-9 c 7.1,4.7 15.9,7.6 25.5,7.6 9.6,0 18.5,-2.8 25.5,-7.6 l 5.3,9 c -8.9,5.5 -19.5,8.4 -30.7,8.4 m 2.5,12.7 -1.8,2.8 v -14.2 c 0.7,0 1.5,0 2.2,-0.1 z m -3.1,2.8 -1.8,-2.8 -0.4,-11.5 c 0.7,0 1.5,0.1 2.2,0.1 z m -9.8,-10.6 h -43 v -0.9 h 43 z m -21.5,6.6 v 0 c -7.8,0 -14.3,-3 -18.3,-5.4 h 36.6 c -4,2.5 -10.6,5.4 -18.3,5.4 m -10.7,-24.1 c 0.2,0.2 0.4,0.3 0.7,0.5 1.3,0.9 3.1,1.6 5.1,2 -0.2,0.1 -0.4,0.2 -0.5,0.3 -0.4,0.3 -0.8,0.5 -1.1,0.7 -1.2,0.6 -2.5,0.9 -2.5,0.9 l -1.4,0.3 1.1,0.9 c 3.2,2.5 6.1,3.4 8.6,3.7 v 6 h -15.6 z m -5.8,-7.6 c 1.8,-0.1 5.7,0 10.3,1.6 2.8,1 5.1,2.2 6.7,3.4 -0.6,0.3 -1,0.9 -1,1.6 -0.1,-0.1 -0.2,-0.1 -0.3,-0.2 -1.1,-0.6 -2.3,-1.1 -3.5,-1.6 -1.2,-0.4 -2.5,-0.8 -3.7,-0.9 l 3.3,1.8 3.3,1.8 0.9,0.5 c -1,0.3 -1.9,0.7 -2.8,1.1 -2.6,-0.4 -4.6,-1.2 -6.1,-2.1 -3.2,-2.2 -5.7,-5.1 -7.1,-7 m -0.5,-12.4 c 0.8,0.4 1.9,0.9 3.4,1.3 0.7,0.2 1.3,0.4 1.9,0.7 0.3,0.5 0.9,0.9 1.6,0.9 0.1,0 0.1,0 0.1,0 0.2,0.1 0.4,0.3 0.6,0.4 0.1,0.8 0.8,1.4 1.6,1.5 0.4,0.4 0.8,0.9 1.2,1.5 0.2,0.3 0.4,0.6 0.5,0.9 0.6,2.3 2,4.5 3.7,6.3 -0.3,-0.3 -0.6,-0.5 -0.9,-0.8 l -3.6,-3.1 c -1.2,-1.1 -2.4,-2.1 -3.6,-3.2 0.8,1.4 1.8,2.7 2.9,3.9 1,1.1 2,2.1 3.1,3.1 -0.4,-0.2 -0.8,-0.3 -1.2,-0.5 -1.7,-0.6 -3.4,-1 -4.8,-1.3 -2.7,-2.6 -5.8,-6.6 -6.5,-11.6 m 7.4,1.1 c 0,0.4 -0.3,0.7 -0.7,0.7 -0.4,0 -0.7,-0.3 -0.7,-0.7 0,-0.4 0.3,-0.7 0.7,-0.7 0.4,-0.1 0.7,0.3 0.7,0.7 m 2.6,1.8 c 0,0.4 -0.3,0.7 -0.7,0.7 -0.4,0 -0.7,-0.3 -0.7,-0.7 0,-0.4 0.3,-0.7 0.7,-0.7 0.3,-0.1 0.7,0.3 0.7,0.7 m 0.6,1.5 c 0,0 0,0 0,0 0,0 -0.1,0 0,0 -0.1,0 0,0 0,0 m -11.1,-20.5 c 0.7,0.9 1.7,2.1 2.9,3.4 0,0.1 0,0.2 0,0.2 0,1 0.8,1.8 1.8,1.8 0.1,0 0.1,0 0.2,0 1.1,1.1 2.3,2.1 3.5,3.1 0.6,3.2 1.6,6.3 3.1,9.1 0,0.1 -0.1,0.3 -0.1,0.4 -0.3,-0.5 -0.9,-0.8 -1.5,-0.8 -0.2,0 -0.4,0 -0.6,0.1 -0.1,-0.1 -0.1,-0.1 -0.1,-0.2 0,0 0,0 0,0 0,-0.9 -0.6,-1.6 -1.4,-1.8 -0.8,-1 -1.5,-2.1 -2.3,-3.2 -0.8,-1.3 -1.6,-2.6 -2.3,-4.1 0,0.8 0.2,1.6 0.5,2.4 0.2,0.8 0.6,1.5 0.9,2.2 0.5,1 1.1,2 1.8,3 -0.3,0.2 -0.6,0.6 -0.7,1 -0.1,0 -0.2,-0.1 -0.3,-0.1 -3.9,-5.3 -5.7,-10.7 -5.4,-16.5 m 5.1,3.4 c 0,0.4 -0.3,0.7 -0.7,0.7 -0.4,0 -0.7,-0.3 -0.7,-0.7 0,-0.4 0.3,-0.7 0.7,-0.7 0.4,-0.1 0.7,0.3 0.7,0.7 m 0.9,-20.499998 c 0.4,0.5 0.9,1.2 1.6,2.4 -0.5,1.1 -0.9,2.3 -0.9,3.6 -0.1,2.9 0.5,5.3 1.9,7.599998 -0.3,1.2 -0.4,2.4 -0.6,3.6 -0.1,-0.2 -0.2,-0.4 -0.3,-0.6 -0.5,-1.2 -0.9,-2.4 -1.2,-3.699998 -0.4,-1.3 -0.7,-2.5 -1,-3.8 -0.2,1.3 -0.1,2.7 0,4 0.2,1.299998 0.5,2.699998 1,3.899998 0.3,0.9 0.8,1.7 1.3,2.5 0,0.2 0,0.4 0,0.6 0,1.2 0.1,2.4 0.2,3.6 -0.7,-0.6 -1.4,-1.2 -2,-1.8 0.3,-0.3 0.4,-0.7 0.4,-1.2 0,-1 -0.8,-1.8 -1.8,-1.8 -0.1,0 -0.2,0 -0.2,0 -1.4,-3.7 -3.8,-12.499998 1.6,-18.899998 m 1.9,6.1 c 0.1,-3.2 2.4,-5.9 3.7,-7.4 0.2,-0.2 0.3,-0.4 0.5,-0.6 0.2,-0.3 0.4,-0.5 0.6,-0.8 0.4,-0.5 0.9,-1 1.2,-1.5 0.3,0.9 0.7,2.3 0.9,4.5 -0.9,1.1 -1.7,2.3 -2.4,3.4 0,-0.3 0,-0.6 0.1,-0.9 0,-0.6 0,-1.2 0,-1.8 -0.5,0.5 -0.8,1 -1,1.6 -0.2,0.6 -0.4,1.2 -0.4,1.8 -0.1,0.6 -0.1,1.2 0,1.8 -0.9,1.8 -1.6,3.6 -2.1,5.5 -0.8,-1.6 -1.1,-3.5 -1.1,-5.6 m 10,45.599998 c 0,-0.4 0.3,-0.7 0.7,-0.7 0.4,0 0.7,0.3 0.7,0.7 0,0.4 -0.3,0.7 -0.7,0.7 -0.3,0 -0.7,-0.3 -0.7,-0.7 m 3.8,10.4 c 0,-0.4 0.3,-0.7 0.7,-0.7 0.4,0 0.7,0.3 0.7,0.7 0,0.4 -0.3,0.7 -0.7,0.7 -0.4,0 -0.7,-0.3 -0.7,-0.7 m 0.6,1.8 c 1,0 1.8,-0.8 1.8,-1.8 0,-0.1 0,-0.2 0,-0.3 2.7,1.2 5.5,2.2 8.3,3 l 1.4,3.7 h -15.7 v -5.9 c 0.1,0 0.1,0 0.2,0 0.8,0 1.6,-0.1 2.3,-0.2 0.1,0.8 0.8,1.5 1.7,1.5 m -5.2,-5.9 -0.9,0.1 c -0.8,0.1 -1.6,0.1 -2.5,0.2 0.8,0.4 1.6,0.6 2.4,0.8 0.8,0.1 1.7,0.2 2.6,0.1 0.1,0 0.2,0 0.3,-0.1 0.8,0.5 1.6,0.9 2.5,1.3 -0.2,0.1 -0.4,0.3 -0.6,0.5 -2.6,0.6 -6.4,0.6 -10.8,-2.5 0.5,-0.2 1,-0.4 1.5,-0.6 0.3,-0.2 0.7,-0.4 1.2,-0.7 1.4,-1 3.5,-2.3 5.8,-2.5 l -1.9,3.2 z m 4.2,-8.4 c 0,0.4 -0.3,0.7 -0.7,0.7 -0.4,0 -0.7,-0.3 -0.7,-0.7 0,-0.4 0.3,-0.7 0.7,-0.7 0.3,-0.1 0.7,0.3 0.7,0.7 m -0.8,-1.9 c -0.7,0 -1.3,0.4 -1.6,0.9 -2.5,-2.1 -5.3,-5.1 -6.3,-8.6 v 0 c 0,0 0,0 0,0 -0.2,-1.2 -0.3,-2.3 -0.2,-3.5 2.6,4.3 6.1,8.1 10.4,11.1 l -0.6,1.1 c -0.3,-0.6 -0.9,-1 -1.7,-1 m 28.9,-61.899998 c 22.2,0 40.3,15.4 40.3,34.399998 0,1.2 -0.1,2.4 -0.2,3.5 -0.2,0.5 -1.2,0.7 -0.9,1.4 0.2,-0.4 0.7,-0.8 0.8,-1.1 -1.5,11.9 -10.2,22 -22.2,27.1 0,0 0,0 0,0 0,0 0,0 0,0 -0.1,0 -0.1,0.1 -0.2,0.1 -0.3,0 -0.7,0 -0.7,-0.3 l -0.5,-0.3 c -0.2,-0.4 -1,-0.4 -1,-0.9 -1,-0.3 -0.9,-0.4 -1.8,-0.5 -0.7,-0.1 -1.3,-0.4 -2.1,-0.4 -0.8,-0.1 -2.6,1 -3.5,1.1 -0.3,0.1 -0.3,-0.1 -0.5,-0.4 -1.1,-1.1 -3.2,-0.4 -5.5,0.5 -0.6,0.3 -1.5,0.8 -2.2,0.8 -1.6,0 -2.7,-1.1 -4.8,-1.2 -0.7,0 -0.1,1.6 -0.4,2.3 -0.3,-0.1 -1.3,-0.5 -1.3,-0.5 0,0 -1,-0.1 -1.3,-0.2 -0.4,-0.1 -0.7,-0.2 -0.8,-0.1 -0.6,0.7 -1.1,-1.2 -2.3,-1.3 -0.5,-0.7 -1.5,-1.5 -2.3,-2.3 -0.4,-0.5 -1.4,-2.8 -1.4,-2.1 -0.1,1.8 1.6,2.6 1.5,3.9 0,-0.2 -0.4,-0.1 -0.3,-0.1 0,0.2 -0.5,0.3 -0.4,0.7 -0.5,0.1 -1.7,0.1 -1.9,0.4 -0.3,0.6 -1.3,0.8 -2,0.9 -13.3,-5.6 -22.4,-17.3 -22.4,-30.9 0,-19.099998 18.1,-34.499998 40.3,-34.499998 m -33.3,-0.3 c 8.2,-5.8 18,-9.2 28.5,-10.1 0.2,2 0.3,4.7 0.3,8.4 v 0.8 c -8.9,0.8 -16.9,4 -23.2,8.9 z m 29,-15 c 1.1,0 2.3,0 3.6,0 v 14 c -0.9,0 -1.7,0 -2.5,0.1 v -0.7 c 0,-6.7 -0.4,-11.3 -1.1,-13.4 m 8.6,0 c -0.7,2.1 -1.1,6.7 -1.1,13.4 v 0.7 c -0.9,-0.1 -1.7,-0.1 -2.6,-0.1 v -14 c 1.4,0 2.6,0 3.7,0 m -15.9,-1.6 v -0.9 c 1.3,-0.1 4.7,-0.3 9.6,-0.3 h 3.9 c 4.9,0 8.3,0.2 9.6,0.3 v 0.9 c -1.4,0.1 -5.5,0.3 -11.6,0.3 -6,0.1 -10,-0.2 -11.5,-0.3 m 14.8,-2.5 h -1.2 c -1.3,0 -2.7,0 -3.9,0 h -1.3 c 0.3,-1 0.5,-3 0.5,-6.6 v -11 c 1,0.1 2,0.1 2.8,0.1 0.7,0 1.8,-0.1 2.8,-0.1 v 11 c -0.1,3.7 0.1,5.6 0.3,6.6 m -7.2,-19 v -0.8 c 0.9,-0.1 2.6,-0.2 4,-0.2 1.4,0 3.2,0.1 4,0.2 v 0.8 c -1,0.1 -3,0.2 -4,0.2 -1,0 -3,-0.1 -4,-0.2 m 4,-4 c 0.6,0 1.2,0.4 1.2,0.9 0,0.5 -0.5,0.9 -1.2,0.9 -0.6,0 -1.2,-0.4 -1.2,-0.9 0.1,-0.5 0.6,-0.9 1.2,-0.9 m 33.3,41.9 -5.7,8.2 c -6.3,-4.8 -14.3,-8 -23.1,-8.8 v -0.9 c 0,-3.7 0.1,-6.4 0.3,-8.4 10.5,0.8 20.3,4.2 28.5,9.9 m 2.2,10.6 c 0.3,0.5 0.8,1 1.2,1.5 0.2,0.3 0.4,0.5 0.6,0.8 0.1,0.2 0.3,0.3 0.5,0.6 1.3,1.5 3.6,4.2 3.7,7.4 0.1,2.2 -0.2,4 -1.1,5.7 -0.5,-1.9 -1.2,-3.7 -2.1,-5.5 0.1,-0.6 0.1,-1.2 0,-1.8 -0.1,-0.6 -0.2,-1.2 -0.4,-1.8 -0.2,-0.6 -0.5,-1.1 -1,-1.6 0,0.6 0,1.2 0,1.8 0,0.3 0,0.6 0.1,0.9 -0.7,-1.2 -1.5,-2.3 -2.4,-3.4 0.1,-2.3 0.5,-3.8 0.9,-4.6 m 7.9,4.1 c 5.4,6.4 3,15.199998 1.6,18.999998 -0.1,0 -0.2,0 -0.2,0 -1,0 -1.8,0.8 -1.8,1.8 0,0.4 0.2,0.9 0.4,1.2 -0.6,0.6 -1.3,1.2 -2,1.8 0.1,-1.2 0.2,-2.4 0.2,-3.6 0,-0.2 0,-0.4 0,-0.6 0.5,-0.8 1,-1.6 1.3,-2.5 0.5,-1.3 0.8,-2.6 1,-3.899998 0.2,-1.3 0.2,-2.7 0,-4 -0.4,1.3 -0.7,2.6 -1,3.8 -0.3,1.299998 -0.7,2.499998 -1.2,3.699998 -0.1,0.2 -0.2,0.4 -0.3,0.6 -0.1,-1.2 -0.3,-2.4 -0.6,-3.6 1.4,-2.299998 2,-4.699998 1.9,-7.599998 0,-1.3 -0.4,-2.5 -0.9,-3.6 0.6,-1.3 1.2,-2.1 1.6,-2.5 m 0.9,20.499998 c 0,-0.4 0.3,-0.7 0.7,-0.7 0.4,0 0.7,0.3 0.7,0.7 0,0.4 -0.3,0.7 -0.7,0.7 -0.4,0 -0.7,-0.3 -0.7,-0.7 m 2.2,0 c 1.2,-1.3 2.2,-2.5 2.9,-3.4 0.3,5.8 -1.5,11.2 -5.3,16.5 -0.1,0 -0.2,0.1 -0.3,0.1 -0.1,-0.4 -0.4,-0.7 -0.7,-1 0.7,-0.9 1.2,-1.9 1.8,-3 0.4,-0.7 0.7,-1.5 0.9,-2.2 0.2,-0.8 0.4,-1.6 0.5,-2.4 -0.6,1.5 -1.4,2.8 -2.3,4.1 -0.7,1.1 -1.5,2.1 -2.3,3.2 -0.8,0.2 -1.4,0.9 -1.4,1.8 0,0 0,0 0,0 0,0.1 -0.1,0.1 -0.1,0.2 -0.2,-0.1 -0.4,-0.1 -0.6,-0.1 -0.6,0 -1.1,0.3 -1.5,0.8 0,-0.1 -0.1,-0.3 -0.1,-0.4 1.5,-2.9 2.6,-5.9 3.1,-9.1 1.2,-1 2.4,-2 3.5,-3.1 0.1,0 0.1,0 0.2,0 1,0 1.8,-0.8 1.8,-1.8 -0.1,0 -0.1,-0.1 -0.1,-0.2 m -5,13.8 c 0,-0.4 0.3,-0.7 0.7,-0.7 0.4,0 0.7,0.3 0.7,0.7 0,0.4 -0.3,0.7 -0.7,0.7 -0.4,0 -0.7,-0.3 -0.7,-0.7 m -2.6,1.8 c 0,-0.4 0.3,-0.7 0.7,-0.7 0.4,0 0.7,0.3 0.7,0.7 0,0.4 -0.3,0.7 -0.7,0.7 -0.3,0 -0.7,-0.3 -0.7,-0.7 m -0.6,1.5 c 0,0 0.1,0 0,0 0.1,0 0,0 0,0 0,0 0,0 0,0 m 10.6,-4.4 c -0.8,5 -3.8,9 -6.4,11.6 -1.5,0.3 -3.1,0.7 -4.8,1.3 -0.4,0.2 -0.8,0.3 -1.2,0.5 1.1,-1 2.1,-2 3.1,-3.1 1.1,-1.2 2.1,-2.5 2.9,-3.9 -1.2,1.1 -2.4,2.2 -3.6,3.2 l -3.6,3.1 c -0.3,0.3 -0.6,0.5 -0.9,0.8 1.6,-1.8 3,-4 3.7,-6.3 0.2,-0.3 0.4,-0.6 0.5,-0.9 0.4,-0.5 0.8,-1 1.2,-1.5 0.8,-0.1 1.4,-0.7 1.6,-1.5 0.2,-0.2 0.4,-0.3 0.6,-0.4 0,0 0.1,0 0.2,0 0.7,0 1.3,-0.4 1.6,-0.9 0.6,-0.2 1.2,-0.5 1.9,-0.7 1.4,-0.4 2.5,-0.9 3.2,-1.3 m -0.5,12.4 c -1.4,1.9 -3.8,4.8 -7.2,7 -1.5,1 -3.5,1.7 -6.1,2.1 -0.8,-0.4 -1.8,-0.9 -2.8,-1.1 l 0.9,-0.5 3.3,-1.8 3.3,-1.8 c -1.3,0.1 -2.5,0.5 -3.7,0.9 -1.2,0.4 -2.4,1 -3.5,1.6 -0.1,0.1 -0.2,0.1 -0.3,0.2 0,-0.7 -0.4,-1.3 -1,-1.6 1.7,-1.1 3.9,-2.4 6.7,-3.4 4.7,-1.6 8.6,-1.7 10.4,-1.6 m -17.7,5.4 c 0.4,0 0.7,0.3 0.7,0.7 0,0.4 -0.3,0.7 -0.7,0.7 -0.4,0 -0.7,-0.3 -0.7,-0.7 0,-0.4 0.3,-0.7 0.7,-0.7 m -1.1,-1.4 c 0,0.4 -0.3,0.7 -0.7,0.7 -0.4,0 -0.7,-0.3 -0.7,-0.7 0,-0.4 0.3,-0.7 0.7,-0.7 0.4,-0.1 0.7,0.3 0.7,0.7 m -0.7,-1.9 c -0.7,0 -1.3,0.4 -1.6,1 l -0.6,-1.1 c 4.3,-3.1 7.8,-6.9 10.4,-11.1 0.1,1.2 0,2.3 -0.3,3.5 0,0 0,0 0,0 v 0 c -1,3.5 -3.8,6.5 -6.3,8.6 -0.4,-0.6 -1,-0.9 -1.6,-0.9 m -0.4,13.3 c -0.2,-0.2 -0.4,-0.4 -0.6,-0.5 0.8,-0.4 1.7,-0.9 2.5,-1.3 0.1,0 0.2,0.1 0.3,0.1 0.9,0.1 1.7,0 2.6,-0.1 0.8,-0.1 1.7,-0.4 2.4,-0.8 -0.9,-0.1 -1.7,-0.2 -2.5,-0.2 l -0.9,-0.1 0.3,-0.2 -1.9,-3.2 c 2.3,0.1 4.4,1.5 5.8,2.5 0.5,0.3 0.9,0.6 1.2,0.7 0.5,0.3 1.1,0.5 1.5,0.6 -4.3,3.1 -8.1,3 -10.7,2.5 m -2.3,1.1 c 0,-0.4 0.3,-0.7 0.7,-0.7 0.4,0 0.7,0.3 0.7,0.7 0,0.4 -0.3,0.7 -0.7,0.7 -0.3,0 -0.7,-0.3 -0.7,-0.7 m 0.9,1.8 c 0.9,0 1.7,-0.7 1.8,-1.5 0.7,0.1 1.5,0.2 2.3,0.2 0.1,0 0.1,0 0.2,0 v 5.9 h -15.7 l 1.4,-3.7 c 2.9,-0.8 5.6,-1.8 8.3,-3 0,0.1 0,0.2 0,0.3 -0.1,1 0.7,1.8 1.7,1.8 m 21.1,4.6 h -15.6 v -6 c 2.5,-0.3 5.4,-1.2 8.6,-3.7 l 1.1,-0.9 -1.4,-0.3 c 0,0 -1.3,-0.3 -2.5,-0.9 -0.3,-0.1 -0.6,-0.4 -1.1,-0.7 -0.2,-0.1 -0.3,-0.2 -0.5,-0.3 2.1,-0.5 3.8,-1.2 5.1,-2 0.2,-0.2 0.5,-0.3 0.7,-0.5 z m -61.2,-97.199998 h -0.9 c -0.1,-0.7 -0.1,-1.8 -0.1,-2.8 0,-1 0.1,-2.1 0.1,-2.8 h 0.9 c 0.1,0.8 0.2,2.1 0.2,2.8 0,0.7 -0.1,2 -0.2,2.8 m -3.1,-1.7 c -0.4,0 -0.8,-0.5 -0.8,-1.1 0,-0.6 0.3,-1.1 0.8,-1.1 0.4,0 0.8,0.5 0.8,1.1 0,0.6 -0.3,1.1 -0.8,1.1 m 29.1,-3.9 h 0.9 c 0.1,0.7 0.1,1.8 0.1,2.8 0,1 -0.1,2.1 -0.1,2.8 h -0.9 c -0.1,-0.8 -0.1,-2.1 -0.1,-2.8 0,-0.7 0.1,-2 0.1,-2.8 m 3.1,1.7 c 0.4,0 0.8,0.5 0.8,1.1 0,0.6 -0.3,1.1 -0.8,1.1 -0.4,0 -0.8,-0.5 -0.8,-1.1 0.1,-0.6 0.4,-1.1 0.8,-1.1 m 33.5,101.099998 -5.9,-16.1 c 3.2,-2.5 5.3,-5.4 6.4,-7 l 0.6,-0.8 -1,-0.1 c -0.1,0 -2.1,-0.3 -5.1,0 3.5,-3.8 5.5,-8.1 5.8,-12.5 l 0.1,-1.4 -1.1,0.9 c 0,0 -1.1,0.8 -3.3,1.5 3.7,-5.6 5.2,-11.4 4.5,-17.6 l -0.2,-1.6 -1,1.3 c 0,0 -1.2,1.6 -2.9,3.6 1.6,-4.5 3.5,-13.599998 -2.6,-20.099998 l -0.4,-0.5 -0.5,0.4 c 0,0 -0.8,0.8 -1.8,2.5 -0.8,-1.4 -1.7,-2.4 -2.4,-3.2 -0.2,-0.2 -0.3,-0.4 -0.4,-0.5 -0.2,-0.3 -0.4,-0.5 -0.7,-0.8 -0.7,-0.8 -1.4,-1.6 -1.6,-2.3 l -0.4,-1.1 -0.7,1 c -0.1,0.1 -1.1,1.4 -1.5,4.9 -1.4,-1.7 -3.1,-3.2 -4.8,-4.7 l 6.5,-9.3 -0.5,-0.4 c -8.5,-6 -18.7,-9.6 -29.6,-10.5 0.3,-2.5 0.6,-3.4 0.8,-3.7 3,-0.1 5,-0.2 6,-0.3 0.1,0.9 0.1,1.7 0.1,1.8 v 0.6 h 3.2 l 0.1,-0.6 c 0,0 0.1,-0.6 0.1,-1.3 0.3,0.1 0.5,0.2 0.8,0.2 1.1,0 2,-1.1 2,-2.4 0,-1.3 -0.9,-2.4 -2,-2.4 -0.3,0 -0.6,0.1 -0.8,0.2 0,-0.7 -0.1,-1.3 -0.1,-1.3 l -0.1,-0.6 h -3.2 v 0.6 c 0,0.1 -0.1,0.9 -0.1,1.8 -1.1,-0.1 -3.6,-0.2 -7.1,-0.3 -0.2,-0.4 -0.5,-2 -0.5,-6.6 v -11.1 c 0.4,0 0.7,-0.1 0.7,-0.1 h 0.6 v -3.2 l -0.6,-0.1 c -0.1,0 -1.2,-0.1 -2.5,-0.2 0.2,-0.3 0.2,-0.6 0.2,-0.9 0,-1.2 -1.1,-2.1 -2.4,-2.1 -1.3,0 -2.4,1 -2.4,2.1 0,0.3 0.1,0.6 0.2,0.9 -1.4,0.1 -2.5,0.2 -2.5,0.2 l -0.6,0.1 v 3.2 h 0.6 c 0,0 0.3,0 0.7,0.1 v 11.1 c 0,4.7 -0.4,6.2 -0.5,6.6 -3.5,0.1 -6,0.2 -7.1,0.3 -0.1,-0.9 -0.1,-1.7 -0.1,-1.8 v -0.6 h -3.2 l -0.1,0.6 c 0,0 -0.1,0.6 -0.1,1.3 -0.3,-0.1 -0.5,-0.2 -0.8,-0.2 -1.1,0 -2,1.1 -2,2.4 0,1.3 0.9,2.4 2,2.4 0.3,0 0.6,-0.1 0.8,-0.2 0,0.7 0.1,1.3 0.1,1.3 l 0.1,0.6 h 3.2 v -0.6 c 0,-0.1 0.1,-0.9 0.1,-1.8 1,0.1 3,0.2 6,0.3 0.2,0.3 0.5,1.2 0.8,3.7 -11,0.9 -21.2,4.6 -29.7,10.7 l -0.8,0.4 6.4,9.1 c -1.7,1.4 -3.3,3 -4.7,4.6 -0.5,-3.5 -1.5,-4.8 -1.5,-4.9 l -0.7,-1 -0.4,1.1 c -0.2,0.7 -0.9,1.5 -1.6,2.3 -0.2,0.3 -0.4,0.5 -0.7,0.8 -0.1,0.1 -0.3,0.3 -0.4,0.5 -0.6,0.7 -1.5,1.8 -2.4,3.2 -1,-1.7 -1.8,-2.5 -1.8,-2.5 l -0.5,-0.4 -0.4,0.5 c -6.3,6.6 -4.3,15.699998 -2.7,20.199998 -1.8,-2 -2.9,-3.6 -2.9,-3.6 l -1,-1.3 -0.2,1.6 c -0.7,6.2 0.7,12 4.5,17.6 -2.2,-0.7 -3.3,-1.5 -3.3,-1.5 l -1.1,-0.9 0.1,1.4 c 0.3,4.3 2.3,8.6 5.8,12.5 -3,-0.3 -4.9,0 -5.1,0 l -1,0.1 0.6,0.8 c 1.1,1.6 3.2,4.5 6.4,7 l -5.9,16.1 h -5.2 v 3.5 h 2.1 c 3.8,2.5 11.3,6.6 20.7,6.6 v 0 c 9.4,0 16.9,-4.1 20.7,-6.6 h 2.1 v -3.5 h -5.1 l -1.2,-3.3 c 3.7,0.9 7.5,1.5 11.3,1.8 l 0.4,11.9 3.7,5.5 3.7,-5.5 0.4,-11.9 c 3.9,-0.2 7.7,-0.8 11.3,-1.8 l -1.2,3.3 h -5.1 v 3.5 h 2.1 c 3.8,2.5 11.3,6.6 20.7,6.6 v 0 c 9.4,0 16.9,-4.1 20.7,-6.6 h 2.1 v -3.5 z m -17.1,-28.4 c -0.1,0 -0.3,0.1 -0.6,0 -0.2,-0.1 -0.3,-0.4 -0.3,-0.3 0,0 0.1,0.5 0,0.6 -0.1,0.4 -0.2,0.6 -0.7,0.7 0.2,0.4 0.2,0.7 0.1,0.9 0.8,-0.8 1.5,-1.6 1.5,-1.9 m -48.2,-46.299998 c 0.5,0.1 1.4,-0.1 1.6,-0.3 -0.2,0.2 -1.1,0.4 -1.6,0.3 v 0 m -15.3,16.8 c -0.7,1.7 0.9,2.6 1,4.199998 0.4,0.2 0.2,-0.3 0.5,-0.2 0.1,0.4 0.4,0.6 0.4,1.1 0.2,0.2 0.8,0 1,0.3 0,0.6 -0.2,0.9 0,1.4 0.3,0.2 0.8,0.2 1.2,0.3 0,0.3 0.2,0.5 0.3,0.8 -0.3,0.6 -0.5,1.3 -0.9,1.8 0.4,0.9 -0.1,2.2 0.1,3.2 0.2,1.2 1.5,2.2 1.5,3.9 1.7,0.5 1.7,2.9 2.6,4.2 -0.1,2.1 1.1,3.2 0.8,5.3 0.6,1 0.7,2.4 1.6,3.1 1,0.8 3,3.2 2.6,2.3 -0.2,-0.3 -1.4,-3.1 -1.3,-4.9 0,-1.1 0.7,-2.3 1.2,-3.5 0.8,-2.1 0.2,-3.3 1.9,-3.9 0,0 0.3,0 0.3,-0.1 0,-0.1 -0.1,-0.1 -0.1,-0.2 -0.9,-2.3 1.3,-4 1,-5.7 -0.2,-1 -1,-2.1 -1.2,-2.3 -0.2,-0.2 -0.8,0 -1.7,-0.1 -0.6,-1.1 -2,-1.4 -2,-3.1 -0.5,-0.4 -1.3,-0.5 -1.3,-1.4 -0.9,0.2 -1.1,-0.9 -1.8,-1.2 -0.5,0.1 -0.8,0.4 -1.1,0.7 -0.7,-0.4 -1.4,-0.1 -2.1,0.3 -0.4,-0.1 -0.6,-0.3 -0.9,-0.5 0,-1 0.3,-1.8 -0.3,-2.4 0.2,-0.799998 0.6,-1.499998 0,-1.999998 -0.6,-0.1 -0.4,0.7 -1.1,0.4 -0.5,-1.2 1.2,-2.1 1.1,-3.5 0.7,-0.2 1.5,-0.1 2.2,-0.3 0.4,0.2 0.4,1.3 0,1.5 0.1,0.2 0.2,0.3 0.4,0.3 0.7,-0.5 0.4,-1.3 0.6,-2.1 0.3,-0.7 1.3,-1.3 1.8,-2.1 0.2,-0.2 0.1,-0.6 0.2,-0.8 0.1,-0.1 0.4,-0.1 0.6,-0.3 0.1,-0.1 0.1,-0.5 0.2,-0.5 0.5,-0.4 1.5,-0.7 2.2,-1.1 0.4,-0.2 0.7,-0.5 1.4,-0.6 0.4,-0.7 0.2,-2 1.2,-2.1 -0.1,0.5 0,0.7 -0.1,1.2 1.4,-0.4 0.7,-2.2 1.8,-2.9 -0.3,-1.3 0.6,-1.7 1.1,-2.5 -0.4,-0.3 -1.5,-0.3 -1,-1.1 0.6,-0.2 0.4,0.4 0.8,0.4 0.7,-0.1 0.7,-0.9 1.2,-1.2 0.4,-0.1 0.3,0.4 0.6,0.3 0.2,-0.6 0.1,-1.5 0.4,-2.1 -1.3,-0.2 -1.2,1.9 -2.8,1.8 -1.9,1.2 -2.4,3.9 -4.1,5.3 -0.1,-0.8 -0.6,-1.7 -0.5,-2.3 0,-0.4 0.6,-1.4 1,-1.7 0.3,-0.3 0.9,-0.2 1.2,-0.4 0.6,-0.4 0.8,-1 1.3,-1.2 2,0.1 2.6,-1.2 3.6,-2.5 -0.7,-0.5 -1.4,0.1 -2,0.4 0.1,-0.3 -0.2,-0.2 -0.3,-0.3 -0.4,-0.3 0.4,-0.6 0.1,-0.9 -0.5,0.8 -1.7,0.7 -2.4,1.3 -0.2,0.4 0.2,1.2 -0.5,1.2 -0.3,-0.3 0.2,-0.5 0.3,-0.8 -0.8,-0.7 -1.7,-0.7 -2.6,-0.1 0,-0.4 0.5,-0.3 0.4,-0.8 -0.3,-0.1 -0.6,-0.2 -0.8,-0.4 -0.6,0.3 -1.1,1 -1.8,0.8 0,-0.1 -0.5,-0.3 -0.8,-0.5 -0.2,0.1 -0.4,0.2 -0.6,0.3 -0.1,0.5 -0.3,1.2 -0.2,1.6 -1.9,-0.1 -2.1,1.5 -3.7,1.7 0.5,0.9 1.9,-0.8 2.7,0 -1.2,1.7 -2,3.8 -3.8,4.9 -0.4,1.6 -1.7,2.4 -2.6,3.5 -0.2,1.8 -0.5,3 -1.1,4.2 0.5,1.3 0.6,2.2 1.1,2.6 m 58.5,33.199998 c 0.1,0.1 0.5,0.3 0.8,0.2 0.6,-0.1 0.9,-0.6 1.3,-1 0.1,-0.1 0.5,-0.1 0.6,-0.2 0.1,-0.1 0,-0.1 0.1,-0.2 0.2,-0.2 0.3,-0.1 0.2,-0.6 -1.1,0.5 -2.1,1.1 -3,1.8 m -21.8,-40.799998 c 0.5,0 0.4,0.6 0.9,0.8 0.4,0 0.4,-0.5 1,-0.4 0.2,0.5 0.4,1.1 1.1,1.2 0,0.4 -0.2,0.5 -0.3,0.8 -1,-0.6 -1.9,0.1 -2.8,-0.1 0.5,-0.6 -0.1,-1.7 0.1,-2.3 m 5.6,0.2 c 0.2,0.3 0,1.1 0.2,1.4 0,0.4 0.7,0.1 0.9,0.3 0,0.6 0.1,1.3 0.1,2.2 -1,0.2 -1.5,-0.4 -1.8,-1.3 -0.7,-1.5 -1.2,-3.2 0.6,-2.6 m -15.6,-1.3 c 0,0.5 0.8,0.3 1,0.6 0.1,0.8 -0.3,1 -0.7,1.3 -0.4,-0.1 -0.8,-0.2 -1.2,-0.4 -0.8,0.7 -0.9,2.2 -0.1,2.9 0.5,-0.2 1.6,-0.4 2,-0.1 0.2,-0.3 0.2,-0.7 0.2,-1.1 1.1,-0.3 1.8,-1.7 3,-1.6 0.9,0.1 1.5,1 2.1,1.7 0.1,0.4 -0.2,0.5 -0.1,0.9 0.4,-0.1 0.6,-0.5 0.8,-0.8 -0.2,-0.9 -0.9,-1.3 -1.2,-2.2 0.6,0.2 0.9,0.6 1.5,0.5 -0.3,1.6 1.3,1.6 1.2,2.6 0.6,-0.2 0.3,-1.4 1.3,-1.2 0,0.8 0.3,1.3 0.8,1.6 0.6,0 0.6,-0.5 1.3,-0.4 0.4,0.4 0.1,1.4 0.2,2.2 -0.4,0.6 -1.1,0.1 -1.5,0.7 -0.6,0 -0.7,-0.5 -1.2,-0.7 -1.6,1 -2.4,-0.6 -4.1,-0.7 -0.3,-0.4 -0.2,-1 -0.6,-1.2 -0.8,0.1 -1.6,0.4 -2.2,-0.1 -0.8,0.5 -2.2,0.7 -3.2,0.5 -1.4,0.7 -1.6,2.5 -3.2,2.9 -0.3,1.7 -2.7,4.399998 -1.4,6.199998 0.3,0.4 0.7,0.5 0.9,1 0.2,0.5 -0.1,1 0.3,1.5 1.3,0.9 4.1,1.2 5.6,0.2 1.2,0.4 2.1,0.2 3.5,0.4 -0.1,0.5 0.2,0.7 0.3,1.1 -0.2,0.4 -0.5,0.7 -0.5,1.1 -0.2,1.5 1.5,2 1.6,3.8 0.1,1.5 -0.9,3.1 -0.9,4.1 0,0.4 0.4,0.8 0.4,1.3 0.1,1.1 -0.5,2.6 0.5,3.3 0.1,0.9 0.3,1.5 0.8,2.1 0.9,-0.6 1.8,-0.4 2.6,-0.8 1.5,-0.6 1.8,-2.4 2.9,-3.4 -0.3,-2.7 2.5,-3.5 2.3,-5.8 0,-0.5 -0.4,-0.8 -0.5,-1.4 1.1,-2.6 3,-4.4 4,-7 -0.5,-0.5 -1.4,0.1 -2.3,-0.1 -1.9,-1.6 -2.7,-4.399998 -3.7,-6.899998 0.9,0 1.2,1.2 1.1,1.8 0.7,1.299998 1.7,2.399998 2.2,3.999998 1.3,-0.3 3.7,-1.1 3.9,-2.4 0,-0.2 0,-1.099998 -0.1,-1.299998 -0.1,-0.4 -0.4,-0.6 -0.8,-1 -0.2,0.3 -0.3,0.6 -0.7,0.6 -0.7,-0.6 -1.5,-1.5 -1.3,-2.6 1,-0.2 0.8,0.9 1.2,1.3 0.5,0.1 0.5,-0.4 1.1,-0.3 0.2,0.4 0.4,0.7 0.5,1.1 1.3,-0.8 2.6,-0.2 2.6,1.4 0.1,0.2 0.3,0.399998 0.7,0.399998 0.6,1.9 1.6,3.3 2.5,4.9 0.4,-0.3 0.3,-1 0.6,-1.3 -0.9,-1.5 0.5,-2.9 1.3,-3.899998 0.6,0.299998 0.7,1.199998 1.5,1.299998 0,0.2 0,0.4 -0.1,0.5 0.2,0.2 0.5,0.3 0.9,0.3 0.2,1.1 0.2,2.4 1,2.9 -0.1,0.9 0.1,1.5 0.2,2.4 -0.3,0 -0.3,-0.2 -0.6,-0.2 0.5,1.6 0.7,3.4 1.7,4.4 0.4,-1.7 -0.6,-2.6 -1,-4 0.6,0.2 0.5,-0.9 0.4,-1.2 -0.1,-0.9 -1.3,-2.1 -0.9,-2.9 0.6,0 0.3,1 0.7,1.2 2.2,-0.9 0,-3 -0.8,-4 0.2,-1.099998 1.8,-0.799998 2.2,-1.699998 -0.1,-1 -0.3,-1.1 0,-1.9 -0.1,-0.4 -0.5,-0.5 -0.7,-0.9 0.3,-1.9 -0.9,-2.9 -1.4,-3.7 1,-0.5 0.9,1.2 1.7,1.5 0.5,-0.4 0,-1.5 -0.5,-1.5 -0.1,-1.4 -1.1,-3.4 -1.4,-5.3 -0.9,-0.2 -1.5,-0.7 -1.8,-1.4 -1.3,0.2 -1.4,-0.9 -2.1,-1.4 -0.1,-0.4 0.1,-1.2 -0.1,-1.7 0.9,0.3 1.3,1.2 1.6,2.1 1,0.7 2.3,1.3 3.2,2.1 -0.1,-0.4 -0.7,-1.2 -1,-1.8 -1.1,-0.1 -1.1,-1.5 -2.4,-1.4 -0.3,-0.5 0.4,-1.5 -0.2,-2.3 -0.6,-0.8 0.1,-1.6 0,-2 -0.1,-0.7 -1.2,-0.6 -2.1,-1.3 -0.3,-0.2 -2.3,-0.2 -2.2,-0.1 -0.5,-0.1 -0.7,0.7 -1,0.7 -0.2,-0.2 -0.3,-0.5 -0.6,-0.6 -0.7,0.2 -1,0.8 -1.4,1.3 -1,-0.7 -2.1,-0.5 -2.5,0.5 -1.2,0 -2.2,-1.1 -3.2,-0.3 -0.4,-0.7 -1.3,-1.4 -2.1,-0.9 0,0.5 0.2,0.8 0.1,1.3 -0.2,0.2 -0.5,0.3 -0.9,0.2 -0.1,0.5 -0.1,1.1 -0.5,1.2 -0.2,-0.2 -0.2,-0.1 -0.1,-0.4 -0.2,-0.1 -0.6,0.1 -0.9,-0.1 -0.2,-0.4 0.5,0 0.3,-0.4 -0.1,-0.2 -0.5,-0.3 -0.7,-0.1 0.4,1.2 -0.9,1.9 -1.3,2.9 -0.3,-0.6 0.2,-1.1 0.4,-1.5 -0.5,-0.7 -1.9,-0.1 -2.4,-1 -2.5,-0.2 -1.9,2.7 -3.5,3.5 0.2,0.2 0,0.7 0.2,0.9 0.6,0 0.8,-0.4 1.4,-0.4 0.3,0.3 0.2,1 0.5,1.2 0.2,-0.1 0.4,-0.3 0.9,-0.2 -0.2,-0.5 -0.4,-1.1 -0.7,-1.5 0.4,-0.3 0.4,-1 0.9,-1.2 0.9,1 1.1,3.9 -1,4.1 -0.3,-0.5 -0.6,-0.5 -1.1,-1 -0.1,0.3 -0.2,0.7 -0.4,1 -0.8,0.2 -1.6,0.5 -1.9,1.2 -0.6,-0.7 -0.9,0.2 -1.6,0.3 m 32.9,38.399998 c -0.3,0.1 -0.4,-0.1 -0.7,-0.1 -0.1,0.5 -0.7,0.5 -0.7,1.2 0.9,0 0.9,-0.7 1.4,-1.1 m -63.6,-8.5 v -0.4 c -0.3,0.1 -0.4,-0.3 -0.5,0.1 0.2,0.1 0.1,0.4 0.5,0.3 m 48.7,-1.7 c 0,0.2 -0.1,0.2 -0.1,0.4 0.3,0 0.5,0 0.4,-0.3 -0.1,0 -0.1,-0.2 -0.3,-0.1 m 13.2,2.2 c -0.4,0.7 -1,2 -1.1,2.6 -0.2,1.1 -0.3,0.5 -0.3,1.7 1.1,0.5 1.1,-0.4 2.4,-0.2 1.1,0.7 0.8,2 0.5,3.1 1.4,-0.2 1.9,-1.2 2.7,-1.8 1.1,-1.1 3,-3.8 2.2,-6.2 0.7,-1.2 0.7,-3.3 0.3,-3.3 0,0 -0.6,1.8 -1,2.3 0,0 -0.4,-0.6 -0.9,-0.6 0.2,-0.7 0.8,-0.9 0.4,-1.8 -0.3,0 -0.5,0.1 -0.8,0.1 -0.8,1.5 -1,1 -2,1.4 0,1.4 -1.5,1.9 -2.4,2.7 m -13.2,-3.8 c -0.3,-0.5 0.1,-1.6 -0.5,-1.6 -0.3,1.1 -1.3,1.6 -2.2,2.2 -0.1,1.4 -0.5,2.6 0,3.8 1.1,-0.9 1.7,-2.3 1.9,-4 0.3,-0.2 0.7,-0.1 0.8,-0.4 m 22.7,-1.7 c -0.3,0 -0.2,0.2 -0.5,0.1 0.2,0.5 0.1,0.8 0,1.3 0.5,-0.3 0.2,-0.8 0.5,-1.4 m -6.7,0 v 0.4 c 0.3,0.1 1.7,0.2 1.4,-0.4 -0.4,0.2 -1,-0.1 -1.4,0 m 0.6,-0.2 c 0.3,0.1 0.4,-0.2 0.7,-0.2 0,-0.3 -0.3,-0.3 -0.4,-0.5 -0.2,0.1 -0.4,0.3 -0.3,0.7 m -1,0 c -0.6,-0.5 -1.2,-1.8 -2.2,-1.3 0.2,1 1.2,1.4 2.2,1.3 m 2.5,-1.5 c -0.1,-0.1 -0.2,-0.2 -0.4,-0.2 -0.4,0.3 0.5,0.8 0.4,0.2 m 2.6,0.4 c 0.2,0.1 0.4,0.2 0.6,0.2 -0.2,-0.5 0.1,-1 0.1,-2 -0.2,0 -0.3,-0.2 -0.5,-0.2 -0.2,1 0.2,1.3 -0.2,2 m -1.7,1.7 c 0.6,0 0.4,-0.8 1.1,-0.8 0.4,0.2 0.2,1.1 0.7,1.2 0.3,-1.1 -0.6,-2.2 -0.4,-3.8 -0.7,-0.1 -1.2,-0.2 -1.7,-0.7 0.1,1.5 0.8,2.7 0.3,4.1 m 1.8,-4 c -0.1,-0.4 -0.3,-0.8 -0.6,-1 0.1,0.6 0.1,0.9 0.6,1 m -2.7,0.5 c -0.1,-0.7 0.3,-1.2 -0.3,-1.7 -0.3,0.6 -0.1,1 -0.2,1.6 0.2,-0.1 0.2,0.2 0.5,0.1 m -1.4,-1.9 c -0.9,0.6 -0.9,2 -1.1,3.4 0.5,0.1 0.7,-0.2 1,-0.3 -0.2,-1.4 0.1,-1.7 0.3,-2.9 0,-0.1 -0.1,-0.2 -0.2,-0.2 m -1.6,2.3 c 0.2,0 0.2,-0.1 0.4,-0.1 -0.3,-1.3 1,-2.3 0.4,-3.8 h -0.3 c -0.1,0.7 -1,0.7 -1.2,1.5 -0.1,0.8 0.3,1.8 0.7,2.4 m -7.3,-6 c 0.1,0.5 -0.5,1.1 0,1.3 0.3,-0.2 0.4,-0.5 0.5,-0.9 -0.2,0.1 -0.1,-0.4 -0.5,-0.4 m 8.8,1.7 c 0.7,0 0.9,-1.4 0.4,-1.8 -0.2,0.4 -0.8,0.9 -0.4,1.8 m -1.1,-4.9 c 0.1,1 0.5,2 1.1,2.8 0.1,-0.8 0.2,-2.9 -1.1,-2.8 m -2.7,-0.5 h 0.6 c 0.1,-0.6 -0.2,-0.8 -0.6,-0.8 -0.2,0.2 0,0.5 0,0.8 m -51.5,-0.8 c -0.1,0.4 0.2,0.5 0.5,0.4 0,-0.3 -0.2,-0.4 -0.5,-0.4 m 1,0.4 c 0.5,0.2 0.6,-0.2 1.2,-0.2 0,-0.599998 -0.6,-0.799998 -1.1,-0.499998 -0.6,-0.3 -0.8,-0.9 -1.2,-1.4 -0.4,0 -0.8,0 -1.1,0.2 0.6,0.1 1.1,0.4 1.3,1.2 0.3,-0.1 0.6,-0.2 0.8,0.1 -0.1,0.199998 -0.1,0.499998 0.1,0.599998 m 53,-0.799998 c 0.2,-0.5 -0.1,-0.8 0.2,-1.5 -0.3,0.1 -0.2,-0.2 -0.4,-0.2 -0.1,0.3 -0.2,0.8 -0.3,1.1 0.2,0.1 0.2,0.5 0.5,0.6 m -22,-6 c 0.1,-0.4 -0.4,-0.4 -0.5,-0.2 0,0.4 0.3,0.3 0.5,0.2 m -1.5,-0.4 c -0.4,0.1 -0.7,-0.3 -1,0 0.2,0.1 0.9,0.4 1,0 m 24.1,2.4 c 0.1,-0.6 -0.3,-0.7 -0.3,-1.2 0.8,-0.7 0.2,-2 -0.4,-2.5 0.7,1.2 -1.4,3.3 0.7,3.7 m -1.3,-4.9 c -0.5,-0.3 0.1,-1 -0.3,-1.3 0,0.3 -0.7,-0.1 -0.8,0.2 0.4,0.2 0.5,1.3 1.1,1.1 m -33.1,-4.6 h -0.5 c -0.1,0.2 -0.2,0.6 0,0.8 h 0.4 c -0.1,-0.5 0.4,-0.5 0.1,-0.8 m 1.2,-0.7 c -0.1,-0.3 0.4,-0.8 -0.1,-0.9 -1.3,0.7 0.5,1.9 -0.2,2.9 0.5,-0.1 0.9,-0.3 1.3,-0.4 0,-0.9 -0.9,-0.9 -1,-1.6 m -2.5,-4 c -0.2,0.2 -0.4,0.4 -0.3,0.9 0.7,0.1 1.5,0.1 1.5,-0.8 -0.5,-0.4 -0.8,0.3 -1.2,-0.1 m 11.5,-2 c 0,-0.4 -0.1,-0.5 -0.4,-0.5 0,0.2 0.1,0.5 0.4,0.5 m 6.9,-0.4 c 0.4,0.1 0.5,-0.1 0.9,-0.1 v -0.4 c -0.3,0 -0.4,0.2 -0.8,0.1 0.1,0.2 -0.1,0.2 -0.1,0.4 m -23,-1.1 c -0.5,-0.4 -1,-0.1 -0.9,0.6 0.6,0.1 0.6,-0.4 0.9,-0.6 m 22,0.4 c 0.7,0.1 1.1,-0.2 1.3,-0.6 -0.4,-0.2 -1,0.2 -1.4,0.1 -0.1,0.3 0.1,0.3 0.1,0.5 m -24.2,-0.9 c -0.4,0.1 -0.5,0.4 -0.7,0.8 0.4,-0.2 0.7,-0.4 0.7,-0.8 m -0.4,-0.3 c 0,-0.2 -0.1,-0.3 -0.2,-0.3 0,0.2 -0.4,0.1 -0.4,0.3 0.1,0.2 0.4,0.2 0.6,0 m 3.3,-0.6 c -0.3,-0.1 -0.9,0.4 -0.9,1 0.6,-0.1 0.9,-0.4 0.9,-1 m -2.6,1.8 c 0.4,0 0.5,-0.2 0.8,-0.3 0.1,-0.3 -0.2,-0.2 -0.2,-0.4 0.6,-0.2 0.8,-0.8 1.2,-1.2 -0.8,0.1 -1.1,0.7 -1.6,1.1 0.3,0.2 -0.2,0.6 -0.2,0.8 m 0.5,-1.9 c -0.4,0 -0.6,0.3 -0.8,0.5 0.2,0 0.2,0.2 0.3,0.2 0.1,-0.3 0.7,-0.4 0.5,-0.7 m 5.7,0.4 c -1.2,0.3 -2.7,0.2 -2.7,1.6 0.3,0 0.6,-0.3 0.8,-0.1 -0.4,1 -1.4,1.4 -2.1,2.2 -0.1,1.3 -1.5,1.9 -1.1,3.4 0.9,-0.2 1.2,-1.1 2.3,-1.2 0.3,-1.9 3.2,-1.2 4,-2.6 0,-0.3 -0.5,0.1 -0.3,-0.3 0.4,0 0.4,-0.3 0.9,-0.2 0.4,-1.1 1.5,-1.6 1.7,-2.8 h -0.8 c 0,-0.3 0.5,-0.1 0.4,-0.5 -1,-0.4 -2.5,-0.2 -3.1,0.5 m -3,1 c 0.8,-1 2.7,-0.9 3.4,-2.1 -1.8,0.3 -3,1 -4.1,1.9 0.1,0.2 0.4,0.2 0.7,0.2 m 36.5,-7.3 c -1.2,-0.7 -2.5,0.1 -3.4,1.6 -1.1,1.8 -0.6,2.9 0.4,3.5 1,0.6 2.4,0.3 3.5,-1.6 0.8,-1.6 0.6,-2.9 -0.5,-3.5 m 0.3,-0.5 c 1.8,1 2.6,2.9 1.5,4.9 -1,1.7 -3.1,2.3 -5,1.2 -1.8,-1 -2.7,-2.8 -1.5,-4.9 1,-1.7 3,-2.3 5,-1.2 m -7.4,-2.8 c -0.1,-0.1 -0.3,-0.1 -0.4,-0.1 -0.3,0.9 -0.7,1.7 -1,2.6 0.6,0.2 1.4,0.4 1.9,-0.8 0.4,-1 0,-1.5 -0.5,-1.7 m -2.5,1.3 c 0.4,-1 0.7,-1.7 0.9,-2.6 0.2,0.1 0.4,0.2 0.7,0.3 0.4,0.2 0.9,0.3 1.4,0.5 0.9,0.3 1.3,0.7 1.4,1 0.3,0.5 0.3,0.9 0.1,1.5 -0.5,1.4 -1.8,1.6 -3.1,1 l -0.5,-0.2 c -0.4,0.9 -0.7,1.8 -1,2.8 -0.2,-0.1 -0.4,-0.2 -0.7,-0.3 -0.3,-0.1 -0.6,-0.2 -0.8,-0.2 0.4,-0.8 0.7,-1.5 1.1,-2.5 z m -2.3,2.3 c -0.2,0.2 -0.3,0.5 -0.4,0.8 -0.6,0.1 -1.3,0.1 -2,-0.1 -2.2,-0.6 -3.2,-2.3 -2.7,-4.1 0.7,-2.6 2.7,-3.2 4.7,-2.7 0.7,0.2 1.5,0.6 1.8,1 -0.2,0.3 -0.4,0.6 -0.5,0.9 h -0.1 c -0.3,-0.7 -0.8,-1.1 -1.4,-1.3 -1,-0.3 -2.4,0.3 -2.9,2.4 -0.5,2 0.5,3 1.6,3.3 0.6,0.2 1.4,0 1.9,-0.3 z m -8,-4.7 c 0.2,-1.1 0.2,-1.8 0.3,-2.7 0.2,0.1 0.5,0.1 0.8,0.2 0.3,0 0.6,0.1 0.8,0.1 -0.2,0.8 -0.3,1.6 -0.5,2.7 l -0.2,1.3 c -0.2,1.1 -0.3,1.8 -0.3,2.7 -0.2,-0.1 -0.5,-0.1 -0.8,-0.2 -0.3,0 -0.6,-0.1 -0.8,-0.1 0.2,-0.8 0.3,-1.6 0.5,-2.7 z m -13.6,2.8 c -0.1,0.3 -0.1,0.6 -0.1,0.9 -0.5,0.4 -1.1,0.6 -1.9,0.8 -2.2,0.4 -3.8,-0.7 -4.2,-2.6 -0.5,-2.7 1.1,-4 3.1,-4.4 0.7,-0.1 1.6,-0.1 2.1,0.1 -0.1,0.3 -0.1,0.7 0,1 h -0.1 c -0.6,-0.5 -1.1,-0.7 -1.8,-0.5 -1,0.2 -2,1.3 -1.7,3.4 0.4,2 1.7,2.6 2.8,2.3 0.6,-0.1 1.3,-0.5 1.6,-1.1 z m -10.4,-2.8 c -0.2,0 -0.3,0.1 -0.4,0.1 0.3,0.9 0.5,1.8 0.8,2.6 0.6,-0.2 1.4,-0.6 1,-1.8 -0.3,-0.9 -0.9,-1.1 -1.4,-0.9 m -1.2,2.6 c -0.3,-1 -0.6,-1.8 -0.9,-2.6 0.2,0 0.5,-0.1 0.8,-0.2 0.4,-0.1 0.9,-0.3 1.4,-0.5 0.9,-0.3 1.4,-0.3 1.7,-0.1 0.5,0.2 0.8,0.5 1,1.1 0.5,1.4 -0.4,2.3 -1.8,2.8 l -0.5,0.2 c 0.3,0.9 0.6,1.9 1,2.8 -0.2,0 -0.5,0.1 -0.8,0.2 -0.3,0.1 -0.6,0.2 -0.8,0.3 -0.2,-0.8 -0.4,-1.6 -0.8,-2.6 z m -3.2,1.4 c -0.4,-1 -0.8,-1.7 -1.1,-2.5 0.2,-0.1 0.5,-0.1 0.8,-0.3 0.3,-0.1 0.5,-0.3 0.7,-0.4 0.3,0.8 0.6,1.5 1,2.5 l 0.5,1.2 c 0.4,1 0.7,1.7 1.1,2.5 -0.2,0.1 -0.5,0.1 -0.8,0.3 -0.3,0.1 -0.5,0.3 -0.7,0.4 -0.3,-0.8 -0.6,-1.5 -1,-2.5 z m -6.1,0.5 c -1.2,0.7 -1.2,2.2 -0.3,3.7 1.1,1.8 2.3,1.9 3.2,1.4 1,-0.6 1.4,-2 0.3,-3.8 -0.8,-1.5 -2.1,-1.9 -3.2,-1.3 m -0.3,-0.5 c 1.8,-1.1 3.8,-0.9 5,1.1 1,1.7 0.4,3.8 -1.4,4.9 -1.8,1.1 -3.8,1 -5,-1.1 -1,-1.6 -0.5,-3.7 1.4,-4.9 m 50,71.799998 c -0.5,-1.1 -0.9,-1.8 -1.4,-2.6 0.2,-0.1 0.5,-0.2 0.8,-0.3 0.3,-0.2 0.6,-0.3 0.8,-0.4 0.4,0.9 0.7,1.6 1.2,2.7 l 0.6,1.3 c 0.3,0.7 0.7,1.4 1,1.9 0.7,-0.3 1.4,-0.7 2.1,-1.2 0,0.1 0.1,0.2 0.2,0.4 0.1,0.2 0.2,0.3 0.2,0.4 -0.3,0.2 -0.8,0.3 -1.7,0.8 -1.5,0.8 -1.8,0.9 -2,1 -0.4,-0.9 -0.7,-1.6 -1.2,-2.7 z m -6.5,-0.2 c -1.4,0.4 -1.7,2.1 -1.2,3.8 0.7,2.1 1.9,2.6 3,2.2 1.2,-0.4 1.9,-1.7 1.3,-3.9 -0.6,-1.7 -1.8,-2.5 -3.1,-2.1 m -0.1,-0.6 c 2.1,-0.7 4.2,0 4.9,2.4 0.6,2 -0.5,4.1 -2.7,4.8 -2.1,0.7 -4.2,0.1 -4.9,-2.4 -0.7,-2 0.3,-4.1 2.7,-4.8 m -7.4,2.5 c -0.2,0 -0.3,0.1 -0.4,0.1 0.1,1 0.3,2 0.4,2.9 0.7,-0.1 1.5,-0.4 1.3,-1.8 -0.2,-1 -0.7,-1.3 -1.3,-1.2 m -1.7,2.6 c -0.2,-1.2 -0.3,-2 -0.5,-2.9 0.2,0 0.5,0 0.9,-0.1 0.5,-0.1 1,-0.2 1.5,-0.3 1,-0.2 1.5,-0.1 1.9,0.1 0.5,0.3 0.8,0.7 0.9,1.3 0.2,1.6 -0.8,2.4 -2.3,2.6 l -0.5,0.1 c 0.2,1 0.3,2.1 0.6,3.1 -0.2,0 -0.5,0 -0.9,0.1 -0.3,0.1 -0.6,0.1 -0.8,0.2 -0.1,-0.9 -0.2,-1.7 -0.4,-2.9 z m -5.6,-2 c 0,1 0,1.9 0.1,2.9 0.1,0 0.2,0 0.2,0 0.9,0 1.4,-0.6 1.4,-1.5 -0.1,-1.3 -0.5,-1.4 -1.7,-1.4 m 0.2,3.3 v 0 l -0.1,0.4 c 0,1.2 0.1,2 0.2,2.9 -0.2,0 -0.5,0 -0.9,0 -0.3,0 -0.6,0.1 -0.9,0.1 0,-0.9 0,-1.7 0,-2.9 v -1.4 c 0,-1.2 -0.1,-2 -0.2,-2.9 0.2,0 0.5,0 0.9,0 0.4,0 0.8,-0.1 1.5,-0.1 1.1,0 1.5,0 1.8,0.3 0.4,0.3 0.7,0.7 0.7,1.4 0,1 -0.5,1.7 -1.6,2 0.7,1.2 1.5,2.3 2.4,3.5 -0.3,0 -0.6,0 -0.9,0 -0.3,0 -0.6,0.1 -1,0.1 z m -7.9,-1.3 c 0.1,-1.2 0.1,-2 0.2,-2.9 0.6,0.1 1.2,0.2 1.9,0.2 1,0.1 1.9,0.1 2.2,0.1 0,0.1 -0.1,0.2 -0.1,0.4 0,0.2 0,0.3 0,0.5 -0.8,-0.1 -2,-0.3 -2.4,-0.3 -0.1,0.8 -0.2,1.5 -0.2,2.3 0.9,0.1 1.6,0.1 2.4,0.1 -0.1,0.2 -0.1,0.3 -0.1,0.5 0,0.1 0,0.2 0,0.4 -0.8,-0.1 -1.6,-0.2 -2.4,-0.3 0,0.4 -0.1,0.9 -0.1,1.3 0,0.4 -0.1,0.9 -0.1,1.3 0.8,0.1 1.6,0.1 2.4,0.1 0,0.1 -0.1,0.2 -0.1,0.5 0,0.3 0,0.3 0,0.5 -0.4,0 -0.9,-0.1 -1.8,-0.2 -1.7,-0.1 -2,-0.1 -2.2,-0.1 0.1,-0.9 0.2,-1.7 0.3,-2.9 z m -5,-2.1 c 0.1,-0.4 0.2,-0.8 0.2,-0.9 -0.4,-0.1 -1.3,-0.2 -1.9,-0.2 0.1,-0.1 0.1,-0.3 0.1,-0.4 0,-0.2 0,-0.3 0,-0.5 0.9,0.2 1.4,0.3 2.7,0.6 1.3,0.3 1.7,0.3 2.6,0.5 -0.1,0.2 -0.1,0.3 -0.1,0.4 0,0.2 0,0.3 0,0.5 -0.5,-0.2 -1.4,-0.4 -1.8,-0.5 -0.1,0.1 -0.1,0.5 -0.2,0.9 l -0.5,2.6 c -0.2,1.2 -0.4,2 -0.5,2.9 -0.2,-0.1 -0.5,-0.2 -0.8,-0.2 -0.3,-0.1 -0.6,-0.1 -0.9,-0.1 0.2,-0.9 0.4,-1.7 0.7,-2.8 z m -8.9,-4.5 c 0.1,0.1 0.3,0.2 0.4,0.2 0.1,0.1 0.3,0.1 0.5,0.1 0.9,2.1 1.7,4.2 2.6,6.2 0.6,-1.6 1.5,-4.3 1.6,-4.7 0.1,0.1 0.3,0.2 0.4,0.2 0.1,0.1 0.3,0.1 0.5,0.1 -1.2,2.8 -1.7,4.1 -2.6,6.8 -0.1,-0.1 -0.2,-0.1 -0.4,-0.2 -0.1,0 -0.3,-0.1 -0.4,-0.1 -0.8,-2.1 -1.7,-4.2 -2.6,-6.4 -0.3,0.7 -0.6,1.6 -0.8,2.3 -0.6,1.6 -0.7,2.1 -0.8,2.5 -0.1,-0.1 -0.3,-0.2 -0.4,-0.2 -0.2,-0.1 -0.3,-0.1 -0.5,-0.1 0.2,-0.3 1.2,-2.8 1.9,-4.8 0.2,-0.9 0.4,-1.5 0.6,-1.9 m -4.9,0.8 c 0.5,-1 0.9,-1.8 1.3,-2.6 0.2,0.1 0.4,0.3 0.7,0.4 0.3,0.2 0.6,0.3 0.8,0.3 -0.5,0.8 -0.9,1.5 -1.4,2.6 l -0.7,1.3 c -0.5,1 -0.9,1.8 -1.3,2.6 -0.2,-0.1 -0.4,-0.3 -0.7,-0.4 -0.3,-0.2 -0.6,-0.3 -0.8,-0.3 0.5,-0.8 0.9,-1.5 1.4,-2.6 z"
       class="st0" /><path
       sodipodi:nodetypes="ccccccc"
       inkscape:connector-curvature="0"
       id="path4532"
       d="m 12.092982,12.092972 50.799931,13.898095 -10.406451,1.300806 30.055484,14.651196 -50.799933,-13.898097 9.24258,-1.16388 z"
       style="fill:#ffffff;stroke:none;stroke-width:0.60464865px;stroke-linecap:butt;stroke-linejoin:miter;stroke-opacity:1" /><path
       sodipodi:nodetypes="ccccccc"
       inkscape:connector-curvature="0"
       id="path4532-3"
       d="m 320.46379,12.092971 -50.79993,13.898094 10.40645,1.300806 -30.05548,14.651196 50.79993,-13.898097 -9.24258,-1.163879 z"
       style="fill:#ffffff;stroke:none;stroke-width:0.60464865px;stroke-linecap:butt;stroke-linejoin:miter;stroke-opacity:1" /><path
       sodipodi:nodetypes="ccccccc"
       inkscape:connector-curvature="0"
       id="path4532-5"
       d="m 12.092992,187.44109 50.79992,-13.8981 -10.40644,-1.3008 30.05548,-14.6512 -50.79993,13.8981 9.24258,1.16388 z"
       style="fill:#ffffff;stroke:none;stroke-width:0.60464865px;stroke-linecap:butt;stroke-linejoin:miter;stroke-opacity:1" /><path
       sodipodi:nodetypes="ccccccc"
       inkscape:connector-curvature="0"
       id="path4532-2"
       d="m 320.46377,187.44108 -50.79993,-13.89809 10.40645,-1.30081 -30.05549,-14.65119 50.79994,13.8981 -9.24258,1.16387 z"
       style="fill:#ffffff;stroke:none;stroke-width:0.60464865px;stroke-linecap:butt;stroke-linejoin:miter;stroke-opacity:1" /></g></svg>