<?xml version="1.0" encoding="utf-8"?>
<svg xmlns="http://www.w3.org/2000/svg" viewBox="0 0 2400 1600">
  <rect width="2400" height="1600" style="fill:#fff"/>
  <path d="M637.4279,421.0184V160.7168H1188.65" style="fill:none;stroke:#195980;stroke-width:3px"/>
  <path d="M711.6576,818.3275h620.1593V198.1407H711.6576Z" style="fill:#195980"/>
  <path d="M537.5729,1183.0829q0,45.37,22.9792,74.848,22.9791,29.6058,58.91,29.6059c15.8765,0,29.107-4.3576,39.6913-13.2009,10.7237-8.7152,17.687-20.25,21.0295-34.6044.6963,2.0507,1.8105,6.28,3.3424,12.8165-3.3424,16.5331-10.8629,29.2214-22.7006,37.9366q-17.5477,13.0726-44.705,13.0727c-30.7782,0-56.682-11.5348-77.7114-34.348q-31.5441-34.4121-31.6138-85.3574,0-49.4073,32.8672-84.7165c22.0043-23.5823,48.0474-35.5015,78.547-35.5015,10.0273,0,21.0294,2.3069,33.1457,6.7926,5.9886,2.6915,12.1163,5.383,18.1048,8.0744,2.9247,0,5.153-2.0506,6.6849-6.4082h4.0388c0,24.3512-.9749,41.5252-3.0639,51.65-14.3446-29.35-33.7028-43.96-58.3532-43.96-25.2075,0-45.1228,9.3559-59.4674,28.0679Q537.5729,1135.7262,537.5729,1183.0829Z" style="fill:none;stroke:#195980;stroke-width:0.00570000009611249px"/>
  <path d="M849.1149,1283.5637c0,4.87,2.5068,7.3054,7.3812,7.3054h4.3173v5.7673c-16.1551,1.0254-28.55,2.1788-37.3238,3.46V1186.6715c0-26.4018-11.5592-39.6027-34.8169-39.6027-12.3949,0-23.1185,5.1265-31.7531,15.2515s-13.0912,22.4288-13.0912,36.655v84.5884c0,4.87,2.7854,7.3054,8.0776,7.3054H756.92l-.2785,5.7673c-2.7854.2564-8.9132.8972-18.8012,1.7944-8.0775.6408-14.3446,1.0253-19.08,1.0253-.9748,0-5.0136.2563-12.1163.6408V1294.33h4.3173c4.8744,0,7.242-2.4351,7.242-7.3054v-208.395c0-4.4858-1.8105-6.7927-5.5707-6.7927-4.0388-1.7943-5.9886-3.7168-5.9886-5.7674,8.3561-.8972,20.7509-2.4351,37.1845-4.3576v101.25c11.42-20.8907,28.2714-31.272,50.6935-31.272,17.4085,0,30.9174,5.3829,40.3876,15.8923,9.47,10.6377,14.2054,25.6329,14.2054,45.1139Z" style="fill:none;stroke:#195980;stroke-width:0.00570000009611249px"/>
  <path d="M976.4056,1241.1413v-14.4825c-1.3927-6.9209-4.4566-12.0475-9.3309-15.38-4.7351-3.3323-9.47-4.87-13.9268-4.3576l-4.0388.2563c-13.37,1.1535-24.5111,6.1519-33.5635,14.9952q-13.37,13.2651-13.37,30.7594,0,14.4186,9.1916,23.8386c6.2671,6.28,14.4839,9.356,25.0682,9.356,11.42,0,20.89-4.3576,28.55-13.0728C972.5061,1264.3391,976.4056,1253.7014,976.4056,1241.1413Zm1.3927,33.1946q-13.37,28.4525-47.63,28.4524-25.486,0-40.5269-13.8417t-15.041-35.7578q0-21.5316,17.9656-37.68c12.1163-10.894,26.8787-17.8148,44.2872-20.6345a51.9138,51.9138,0,0,1,11.42-.3845l6.6849.3845c6.267.1282,13.37,1.7943,21.4472,4.614v-26.7864c0-8.4588-3.4817-14.7389-10.3058-19.2246s-15.3195-6.7927-25.6253-6.7927c-7.3812,0-15.4587,1.41-24.3718,4.1012-7.3812,2.4352-12.8127,4.87-16.1551,7.0491,5.0136,1.1534,7.3812,4.2294,7.3812,9.1,0,2.9478-1.3927,4.4858-4.3173,4.4858a25.1728,25.1728,0,0,1-4.3173-.769c-5.8492-1.7943-8.7739-4.9984-8.7739-9.7405,0-6.6645,4.8744-13.2009,14.7624-19.4809,10.7236-6.6646,23.5363-10.125,38.5772-10.125q58.7013,0,58.771,47.6771v102.275c0,6.28,1.6712,9.4842,4.8743,9.4842,4.5959,0,6.8242-3.9731,6.8242-11.7911h4.5958c0,6.0237-2.7854,11.15-8.2168,15.636a29.2933,29.2933,0,0,1-18.94,6.5364C983.7868,1301.1222,979.33,1292.2789,977.7983,1274.3359Z" style="fill:none;stroke:#195980;stroke-width:0.00570000009611249px"/>
  <path d="M1069.715,1283.6919c0,3.9731,1.95,6.4082,5.71,7.049.4178.2563,3.8995.3845,10.3058.3845v5.6392c-5.9885.2563-15.0409.769-27.018,1.6662-12.1162.8971-21.1686,1.5379-27.2964,1.6661v-5.6392c5.0136,0,7.799-.1282,8.7738-.3845,2.6461-.8972,3.8995-3.076,3.8995-6.6646V1149.5039c0-4.4857-1.95-6.7927-5.9885-6.7927-3.8995-2.1788-5.9885-4.2294-5.9885-5.8956,14.7624-.8971,27.018-2.1788,36.6274-3.7167v43.32q13.37-44.7935,51.5291-44.7293c10.7236,0,16.1551,3.9731,16.1551,11.7911,0,3.5886-1.81,6.9208-5.5707,9.9968-3.621,2.9478-7.242,4.4857-10.8629,4.4857-3.3424,0-5.0137-1.2816-5.0137-3.7167,0-2.82,1.2534-4.9984,4.0388-6.7927a12.891,12.891,0,0,1-2.3675-.3845h-2.6462c-15.4587,0-27.1572,11.0221-35.2347,32.9382a150.28,150.28,0,0,0-9.0524,52.291Z" style="fill:none;stroke:#195980;stroke-width:0.00570000009611249px"/>
  <path d="M1163.9993,1218.9689q29.873-11.3426,89.6884-34.6043c-4.0388-24.8639-16.2943-37.2958-36.906-37.2958-16.8513,0-29.8032,5.8955-38.9949,17.8148s-13.7875,28.3243-13.7875,49.3432Zm118.9347,53.9572c-15.8765,19.9936-37.7416,29.8622-65.7345,29.8622q-33.8419,0-57.239-24.7357-23.188-24.8-23.2577-60.75c0-24.4794,7.66-44.7293,22.9792-61.1344,15.3194-16.2768,34.5384-24.4793,57.5175-24.4793,18.5227,0,34.26,5.8955,47.2118,17.8148,12.3949,11.15,19.6368,25.3765,21.8651,42.6787l-120.7452,41.2689c2.7854,13.8417,7.5205,25.12,14.4839,33.8353,10.7236,13.4573,24.65,20.25,41.78,20.25,21.308,0,40.2484-9.7405,57.1-28.9651a31.58,31.58,0,0,1,1.95,7.1772A39.0617,39.0617,0,0,0,1282.934,1272.9261Z" style="fill:none;stroke:#195980;stroke-width:0.00570000009611249px"/>
  <path d="M1443.7882,1283.6919c0,4.87,2.5068,7.3053,7.3812,7.3053h4.3173l.4178,5.7674c-16.4336.8972-28.9677,2.0506-37.7415,3.3323V1186.8q0-39.6027-34.6777-39.6028c-12.5341,0-23.1185,5.1266-31.8923,15.2516-8.6346,10.2531-12.9519,22.4287-12.9519,36.7831v84.46q0,7.3053,7.9382,7.3053h5.0137v5.7674c-5.5707.2563-13.9268.769-25.0682,1.6662s-19.6368,1.5379-25.2075,1.6661V1294.33h4.3173c4.8744,0,7.3812-2.307,7.3812-7.049V1149.5039c0-4.4857-1.95-6.7927-5.71-6.7927-3.8995-1.9225-5.9885-3.9731-5.9885-5.8956,2.089-.2563,5.0136-.6408,9.0524-1.0253a78.8273,78.8273,0,0,1,8.7739-.769c5.8492-.3845,11.8377-1.0253,18.1048-1.9224v29.8622c13.6482-20.8907,30.9175-31.272,51.9469-31.272,17.4085,0,30.9174,5.3829,40.3876,15.8923,9.47,10.6377,14.2053,25.7611,14.2053,45.1139Z" style="fill:none;stroke:#195980;stroke-width:0.00570000009611249px"/>
  <path d="M1512.3079,1260.4941c0,9.8687,1.95,16.79,5.71,20.6345,3.8995,3.9731,10.4451,5.8955,19.776,5.8955,7.3813,0,13.7876-7.4335,19.219-22.4287l4.5959,8.9715a64.4778,64.4778,0,0,1-6.9634,13.2009c-6.2671,8.9715-13.9268,13.97-22.84,15.1234-2.5068.1281-4.735.2563-6.9634.2563-12.1162,0-21.4472-4.1012-27.9928-12.1756-6.6848-8.2025-9.888-19.0965-9.888-32.81V1150.9137h-23.2577l2.3676-15.38c11.42,0,19.776-3.5886,24.79-10.7658,3.621-2.6915,6.9634-9.4841,10.1666-20.5063,3.3424-12.6882,5.2921-19.6091,5.9885-20.7626h5.2921v51.9065h46.3763v15.5079h-46.3763Z" style="fill:none;stroke:#195980;stroke-width:0.00570000009611249px"/>
  <path d="M1596.1472,1218.9689q29.8728-11.3426,89.6884-34.6043c-4.0387-24.8639-16.2943-37.2958-36.906-37.2958-16.8514,0-29.8033,5.8955-38.995,17.8148s-13.7874,28.3243-13.7874,49.3432Zm118.9346,53.9572c-15.8765,19.9936-37.7415,29.8622-65.7344,29.8622q-33.8419,0-57.239-24.7357-23.1881-24.8-23.2578-60.75c0-24.4794,7.66-44.7293,22.9792-61.1344,15.32-16.2768,34.3992-24.4793,57.5176-24.4793,18.5226,0,34.26,5.8955,47.2118,17.8148,12.2556,11.15,19.4975,25.3765,21.865,42.6787l-120.7451,41.2689c2.646,13.8417,7.52,25.12,14.4839,33.8353,10.5843,13.4573,24.65,20.25,41.78,20.25,21.308,0,40.2484-9.7405,56.9605-28.9651a39.0606,39.0606,0,0,1,2.089,7.1772A39.0631,39.0631,0,0,0,1715.0818,1272.9261Z" style="fill:none;stroke:#195980;stroke-width:0.00570000009611249px"/>
  <path d="M1851.2857,1250.4973c0,15.6361-5.5707,28.3243-16.7121,37.9366s-25.9038,14.3544-44.148,14.3544c-19.2189,0-36.3488-6.4082-51.39-19.4809q-3.9692,0-4.5959,5.3829h-4.735v-28.837a56.1818,56.1818,0,0,1,5.9885-3.3323c2.7853-1.41,4.735-2.3069,6.1278-3.0759,9.47,22.6851,26.043,34.0917,49.44,34.0917,10.3058,0,19.08-2.82,26.3216-8.3307,7.242-5.3829,10.8628-12.1756,10.8628-20.25,0-9.2279-3.4816-16.2769-10.3057-21.1471-6.9634-4.9984-17.9656-8.9715-33.1458-12.1756q-52.4343-10.5736-52.5039-47.2927c0-13.4572,5.4314-24.4793,16.1551-33.3226,10.8628-8.8434,23.954-13.3291,39.1342-13.3291a84.9061,84.9061,0,0,1,29.8033,5.7674c8.0775,3.0759,14.2053,6.5363,18.3833,10.1249,2.089,0,3.3425-1.41,3.76-4.3576h5.2921v24.4794c-3.4817,2.6915-7.2419,5.2548-11.0021,7.69-8.7739-18.84-23.8148-28.3243-45.5406-28.3243q-16.0854,0-24.65,6.9209c-5.5707,4.4857-8.4954,10.6376-8.4954,18.3274a21.0972,21.0972,0,0,0,8.7739,17.43c5.71,4.4857,16.1551,8.3307,31.0567,11.6629,20.89,4.7421,35.5133,11.0221,43.8693,18.712C1847.2469,1227.8122,1851.2857,1237.9372,1851.2857,1250.4973Z" style="fill:none;stroke:#195980;stroke-width:0.00570000009611249px"/>
  <path d="M744.107,964.6911h28.9677c18.244-.5127,31.6138-4.87,39.97-13.201,8.4953-8.4588,12.6734-21.9161,12.6734-40.5,0-16.2768-4.3173-29.2214-13.0912-38.7056s-20.89-14.2262-36.4881-14.2262c-17.2693,0-27.9929,4.2294-32.0316,12.6883Zm0,16.405v73.8226c0,7.049,3.2031,10.6376,9.7487,10.6376H760.68v7.8181H701.0732v-5.7674H707.34c6.267,0,9.47-3.7168,9.47-11.0222V858.6992c0-7.3053-2.9246-11.0221-8.7739-11.0221h-5.9885v-5.6392h73.6727c25.7645,0,45.68,5.8955,59.8851,17.943C849.8112,871.9,856.7746,888.946,856.7746,910.99c0,22.1725-6.9634,39.3465-20.89,51.65-14.066,12.3038-33.1457,18.4557-57.5176,18.4557Z" style="fill:none;stroke:#195980;stroke-width:0.00570000009611249px"/>
  <path d="M1006.9052,991.0929q0-32.2974-15.0409-51.1375c-10.0272-12.6883-23.8148-19.0965-41.2233-19.0965-17.5477,0-31.1959,6.4082-41.0839,19.0965q-15.0409,18.84-15.0409,51.1375c0,21.5316,5.0136,38.5775,15.0409,51.2657,9.888,12.6882,23.5362,18.9683,41.0839,18.9683,17.4085,0,31.1961-6.28,41.2233-18.9683S1006.9052,1012.6245,1006.9052,991.0929Zm27.7143,0c0,23.9667-8.0775,44.2167-24.5111,60.75-16.1551,16.6614-36.07,24.8639-59.4674,24.8639-23.5362,0-43.3122-8.2025-59.4673-24.8639-16.155-16.5331-24.3718-36.7831-24.3718-60.75,0-23.8385,8.2168-44.2167,24.3718-60.75s35.9311-24.7356,59.4673-24.7356,43.5909,8.2025,59.746,24.7356S1034.62,967.2544,1034.62,991.0929Z" style="fill:none;stroke:#195980;stroke-width:0.00570000009611249px"/>
  <path d="M1061.08,854.7262c0-2.307,2.3675-5.8956,6.9634-10.7659,4.5958-4.9984,7.9382-7.4335,10.1665-7.4335s5.5707,2.4351,10.1666,7.4335c4.5958,4.87,6.9634,8.4589,6.9634,10.7659,0,2.1787-2.3676,5.7674-6.9634,10.6376-4.5959,4.9984-7.9383,7.4335-10.1666,7.4335s-5.5707-2.4351-10.1665-7.4335C1063.4479,860.4936,1061.08,856.9049,1061.08,854.7262Zm32.5887,202.7558c0,4.9984,2.646,7.4335,8.0775,7.4335h4.5958l.4178,5.7674c-5.71.1282-14.2053.769-25.486,1.6661-11.42.8972-20.0545,1.41-25.9038,1.6662v-5.7674h4.7351c5.2922,0,7.9383-2.307,7.9383-7.049V924.832c0-4.3576-2.089-6.6646-6.2671-6.6646-4.3173-1.7942-6.4063-3.8449-6.4063-6.1518,8.4954-.8972,21.308-2.5633,38.2987-5.1266Z" style="fill:none;stroke:#195980;stroke-width:0.00570000009611249px"/>
  <path d="M1168.1773,1034.4124c0,9.8687,1.8105,16.6614,5.5707,20.6344,3.8995,3.845,10.4451,5.7674,19.9153,5.7674,7.2419,0,13.6482-7.4335,19.08-22.4287l4.5958,9.1a63.3464,63.3464,0,0,1-6.9634,13.0727c-6.267,8.9715-13.9267,14.0981-22.84,15.1234a67.3737,67.3737,0,0,1-6.9634.3845q-18.1743,0-27.9928-12.3038c-6.6848-8.0743-9.888-19.0965-9.888-32.6819V924.7038h-23.2577l2.3675-15.38c11.42,0,19.7761-3.5886,24.929-10.6376,3.4817-2.6915,6.8241-9.6124,10.0272-20.5063,3.3425-12.8164,5.2922-19.6091,5.9886-20.7626h5.4314v51.9065h46.2369v15.38h-46.2369Z" style="fill:none;stroke:#195980;stroke-width:0.00570000009611249px"/>
  <path d="M1364.6842,991.0929c0-21.5316-5.0137-38.5774-15.18-51.1375-10.0273-12.6883-23.8149-19.0965-41.2233-19.0965s-31.196,6.4082-41.084,19.0965c-10.0273,12.56-14.9017,29.6059-14.9017,51.1375s4.8744,38.5775,14.9017,51.2657c9.888,12.6882,23.6755,18.9683,41.084,18.9683s31.196-6.28,41.2233-18.9683C1359.6705,1029.67,1364.6842,1012.6245,1364.6842,991.0929Zm27.7142,0q0,35.95-24.5111,60.75c-16.2943,16.6614-36.21,24.8639-59.6066,24.8639s-43.173-8.2025-59.4674-24.8639q-24.2325-24.8-24.2325-60.75c0-23.8385,8.0775-44.2167,24.2325-60.75q24.4416-24.8,59.4674-24.7356,35.5133,0,59.7459,24.7356C1384.1817,946.8762,1392.3984,967.2544,1392.3984,991.0929Z" style="fill:none;stroke:#195980;stroke-width:0.00570000009611249px"/>
  <path d="M1550.7459,1058.2509c0,4.614,3.9,7.0491,11.42,7.0491v5.6392c-8.0775.6408-20.0545,1.41-35.7918,2.4352v-29.606c-13.23,22.0443-31.0567,32.9382-53.4788,32.9382-17.13,0-30.36-5.3829-39.5521-16.0205q-13.7874-16.1487-13.7875-46.1392V924.832c0-4.87-2.5068-7.049-7.66-6.6646h-3.8995v-6.1518c4.1781-.2564,10.4451-.6409,18.6619-1.2817,8.0776-.769,14.3446-1.1535,18.5226-1.41v110.0931c0,14.4825,2.7854,25.12,8.0775,31.9129,5.2922,6.6645,14.066,9.9968,26.0431,9.9968,14.3446,0,25.0682-4.87,32.31-14.7389s11.8378-24.992,13.509-45.6265V924.832c0-4.3576-2.7854-6.6646-8.4953-6.6646H1511.89v-6.1518q13.161-.9614,38.8558-2.6915Z" style="fill:none;stroke:#195980;stroke-width:0.00570000009611249px"/>
  <path d="M620.9943,1007.7543V973.2781c0-10.894-2.6461-22.4288-18.5226-22.4288-16.5729,0-17.8263,12.432-17.8263,19.7373v37.1677Zm58.2139,0v14.867H572.2506V971.74c0-18.0712,6.1277-36.27,28.8284-36.27,15.7372,0,21.5865,8.3307,25.6252,15.38,2.5069-6.28,5.153-12.56,20.0546-13.2009l19.3582-.8972c5.9885-.1281,8.2168-.8971,10.7236-5.511h2.3676V949.44c-6.5456,2.1788-22.7006,2.5633-26.7394,2.5633-8.7739,0-19.08,1.9225-19.08,19.7373v36.0142Z" style="fill:none;stroke:#e78519;stroke-width:0.0003000000142492354px"/>
  <path d="M679.2082,833.1945v81.2562H572.2506V834.348h12.8126v65.3638h32.7279V839.3464H630.743v60.3654h35.6526V833.1945Z" style="fill:none;stroke:#e78519;stroke-width:0.0003000000142492354px"/>
  <path d="M622.1084,768.0871V719.7692h57.1v9.6123L665.4207,732.97c10.0273,7.5617,16.7121,21.2753,16.7121,36.27,0,18.9683-6.6848,28.068-12.1163,33.8354-15.4587,16.7895-33.842,17.3021-45.1227,17.3021-26.0431,0-55.4286-16.2768-55.4286-52.1628,0-20.5063,11.2807-43.4477,35.374-46.5236v14.3544c-18.6619,4.742-22.5614,20.8907-22.5614,32.9382,0,19.7372,15.32,36.0141,43.3123,36.0141,21.7258,0,44.1479-7.3053,44.1479-36.655,0-5.511-.5571-14.3543-6.8241-22.5569-7.52-9.6123-16.9907-12.0474-28.55-12.0474v34.348Z" style="fill:none;stroke:#e78519;stroke-width:0.0003000000142492354px"/>
  <path d="M572.2506,696.7H679.2082v-14.867H572.2506Z" style="fill:none;stroke:#e78519;stroke-width:0.0003000000142492354px"/>
  <path d="M582.2778,610.7014c0,23.9668,18.2441,38.3212,43.4516,38.3212S669.32,634.6682,669.32,610.7014c0-23.8385-18.3834-38.3211-43.5908-38.3211S582.2778,586.8629,582.2778,610.7014Zm99.855,0c0,41.1407-33.285,53.7008-56.4034,53.7008-22.9792,0-56.2642-12.56-56.2642-53.7008,0-41.0125,33.285-53.7008,56.2642-53.7008C648.8478,557.0006,682.1328,569.6889,682.1328,610.7014Z" style="fill:none;stroke:#e78519;stroke-width:0.0003000000142492354px"/>
  <path d="M572.2506,468.6954V454.3411H679.2082v16.6613L592.8622,527.01v.3845h86.346v14.3544H572.2506V524.0624L658.7358,469.08v-.3845Z" style="fill:none;stroke:#e78519;stroke-width:0.0003000000142492354px"/>
  <path d="M533.1163,1328.4212H1892.6482V908.2988" style="fill:none;stroke:#195980;stroke-width:3px"/>
  <path d="M1020.9713,484.5878l11.5592,14.2263,3.2032,24.4793L987.547,566.4848l-3.4817,4.1012L872.094,719.2565l-40.9447,9.8687-91.36-13.201,10.8629,82.5378,53.7573,3.5886h75.3439l373.2376-10.7657,7.1027,14.3543,8.9131-38.5774,39.97-12.56V215.4429l-36.07.769-5.0137,34.348L1194.36,297.8525l-37.6024-12.9445-3.2031-57.1613-49.1615.769-1.532,24.7356-20.4723,45.37,7.66,47.8053L1057.1809,303.62h-62.949l-2.5068-22.6851h-108.49l-7.52,10.125-15.18,20.1218,7.52,52.9318H920.977l15.18,22.6851,37.8809,4.9984,7.52,32.6819h40.3876l-30.221,17.6867,29.2462,42.4223-9.47-30.1186" style="fill:#fff"/>
  <path d="M1043.95,478.0514l11.42,14.2263,3.2032,24.4793-48.1866,43.1914-3.4818,4.2294L894.934,712.72l-40.8055,9.8687L711.379,689.2661l.2786,129.0614h565.7056l2.0891-7.818,12.3948-49.8559,39.97-12.6882V208.9066l-36.07.7689-4.8744,34.348L1217.2,291.4443l-37.6022-13.0727,9.3309-57.29-61.5563.8972-1.6712,24.7357-20.4724,45.37,7.66,47.8053-32.8672-42.8069h-62.949l-2.5068-22.6851h-108.49l-7.52,10.125-15.18,20.1218,7.5205,52.9319h53.061l15.18,22.685,37.7416,4.9985,7.66,32.6818h40.2484l-30.2211,17.6867,29.3855,42.4223-9.61-30.1186" style="fill:#abc92c"/>
  <path d="M1026.4028,568.92c-33.8421,71.0029-85.5105,164.1784-155.5622,249.4076H934.486a1706.8652,1706.8652,0,0,0,121.72-211.2146" style="fill:#dde48d"/>
  <path d="M1181.9648,265.427l-20.3331-65.7483-11.42,42.0378c-23.1185,86.3828-44.705,145.21-65.3166,194.4252l5.8492-1.41,26.6,30.7594a1865.3856,1865.3856,0,0,0,59.4673-180.9679" style="fill:#dde48d"/>
  <path d="M1150.2118,241.7165l11.1414-43.5758H1198.12s-18.5226,81.2562-21.308,86.3827l-18.2441,5.7674-6.1277-22.0442" style="fill:#dde48d"/>
  <path d="M965.1249,197.3718l21.5865,30.2467h53.8967l47.0725-30.2467" style="fill:#fff"/>
  <path d="M706.6439,434.0911S909.6963,538.4168,1126.2577,556.488a704.3369,704.3369,0,0,0,105.2865,1.2816" style="fill:none;stroke:#fff;stroke-width:3px"/>
  <path d="M1328.6138,519.1922c42.4767-9.4842,83.4214-23.5823,121.3022-43.8322" style="fill:#eea413;stroke:#abc92c;stroke-width:0.25px"/>
  <path d="M1328.6138,519.1922c42.4767-9.4842,83.4214-23.5823,121.3022-43.8322" style="fill:none;stroke:#abc92c"/>
  <path d="M912.0639,485.3568c121.3022,37.9366,278.5355,67.9271,416.4106,33.4508" style="fill:none;stroke:#fff;stroke-width:3px"/>
  <path d="M995.4853,198.1407l14.4838,23.3259h54.0359l54.0359-23.3259" style="fill:#abc92c"/>
  <path d="M1086.4272,436.1417l-59.05,11.7911,9.61,30.1186,8.6346,27.0427L1015.54,499.583l-12.5341,59.8527.5571.5127,8.7739,8.9715,37.6023,38.193,4.0387,3.973h22.2829l62.81-67.6707-12.5341-18.84,9.7488-50.8813-9.0524-8.2025-33.5635-30.7594" style="fill:#e78519"/>
</svg>