<svg xmlns="http://www.w3.org/2000/svg" viewBox="0 0 2400 1600"><rect width="2400" height="1600" style="fill:#fff"/><path d="M637.4279,421.0184V160.7168H1188.65" style="fill:none;stroke:#195980;stroke-width:3px"/><path d="M711.6576,818.3275h620.1593V198.1407H711.6576Z" style="fill:#195980"/><path d="M537.5729,1183.0829q0,45.37,22.9792,74.848,22.9791,29.6058,58.91,29.6059c15.8765,0,29.107-4.3576,39.6913-13.2009,10.7237-8.7152,17.687-20.25,21.0295-34.6044.6963,2.0507,1.8105,6.28,3.3424,12.8165-3.3424,16.5331-10.8629,29.2214-22.7006,37.9366q-17.5477,13.0726-44.705,13.0727c-30.7782,0-56.682-11.5348-77.7114-34.348q-31.5441-34.4121-31.6138-85.3574,0-49.4073,32.8672-84.7165c22.0043-23.5823,48.0474-35.5015,78.547-35.5015,10.0273,0,21.0294,2.3069,33.1457,6.7926,5.9886,2.6915,12.1163,5.383,18.1048,8.0744,2.9247,0,5.153-2.0506,6.6849-6.4082h4.0388c0,24.3512-.9749,41.5252-3.0639,51.65-14.3446-29.35-33.7028-43.96-58.3532-43.96-25.2075,0-45.1228,9.3559-59.4674,28.0679q-21.7257,27.8757-21.7257,75.2324" style="fill:#195980"/><path d="M537.5729,1183.0829q0,45.37,22.9792,74.848,22.9791,29.6058,58.91,29.6059c15.8765,0,29.107-4.3576,39.6913-13.2009,10.7237-8.7152,17.687-20.25,21.0295-34.6044.6963,2.0507,1.8105,6.28,3.3424,12.8165-3.3424,16.5331-10.8629,29.2214-22.7006,37.9366q-17.5477,13.0726-44.705,13.0727c-30.7782,0-56.682-11.5348-77.7114-34.348q-31.5441-34.4121-31.6138-85.3574,0-49.4073,32.8672-84.7165c22.0043-23.5823,48.0474-35.5015,78.547-35.5015,10.0273,0,21.0294,2.3069,33.1457,6.7926,5.9886,2.6915,12.1163,5.383,18.1048,8.0744,2.9247,0,5.153-2.0506,6.6849-6.4082h4.0388c0,24.3512-.9749,41.5252-3.0639,51.65-14.3446-29.35-33.7028-43.96-58.3532-43.96-25.2075,0-45.1228,9.3559-59.4674,28.0679Q537.5729,1135.7262,537.5729,1183.0829Z" style="fill:none;stroke:#195980;stroke-width:0.00570000009611249px"/><path d="M849.1149,1283.5637c0,4.87,2.5068,7.3054,7.3812,7.3054h4.3173v5.7673c-16.1551,1.0254-28.55,2.1788-37.3238,3.46V1186.6715c0-26.4018-11.5592-39.6027-34.8169-39.6027-12.3949,0-23.1185,5.1265-31.7531,15.2515s-13.0912,22.4288-13.0912,36.655v84.5884c0,4.87,2.7854,7.3054,8.0776,7.3054H756.92l-.2785,5.7673c-2.7854.2564-8.9132.8972-18.8012,1.7944-8.0775.6408-14.3446,1.0253-19.08,1.0253-.9748,0-5.0136.2563-12.1163.6408V1294.33h4.3173c4.8744,0,7.242-2.4351,7.242-7.3054v-208.395c0-4.4858-1.8105-6.7927-5.5707-6.7927-4.0388-1.7943-5.9886-3.7168-5.9886-5.7674,8.3561-.8972,20.7509-2.4351,37.1845-4.3576v101.25c11.42-20.8907,28.2714-31.272,50.6935-31.272,17.4085,0,30.9174,5.3829,40.3876,15.8923,9.47,10.6377,14.2054,25.6329,14.2054,45.1139" style="fill:#195980"/><path d="M849.1149,1283.5637c0,4.87,2.5068,7.3054,7.3812,7.3054h4.3173v5.7673c-16.1551,1.0254-28.55,2.1788-37.3238,3.46V1186.6715c0-26.4018-11.5592-39.6027-34.8169-39.6027-12.3949,0-23.1185,5.1265-31.7531,15.2515s-13.0912,22.4288-13.0912,36.655v84.5884c0,4.87,2.7854,7.3054,8.0776,7.3054H756.92l-.2785,5.7673c-2.7854.2564-8.9132.8972-18.8012,1.7944-8.0775.6408-14.3446,1.0253-19.08,1.0253-.9748,0-5.0136.2563-12.1163.6408V1294.33h4.3173c4.8744,0,7.242-2.4351,7.242-7.3054v-208.395c0-4.4858-1.8105-6.7927-5.5707-6.7927-4.0388-1.7943-5.9886-3.7168-5.9886-5.7674,8.3561-.8972,20.7509-2.4351,37.1845-4.3576v101.25c11.42-20.8907,28.2714-31.272,50.6935-31.272,17.4085,0,30.9174,5.3829,40.3876,15.8923,9.47,10.6377,14.2054,25.6329,14.2054,45.1139Z" style="fill:none;stroke:#195980;stroke-width:0.00570000009611249px"/><path d="M976.4056,1241.1413v-14.4825c-1.3927-6.9209-4.4566-12.0475-9.3309-15.38-4.7351-3.3323-9.47-4.87-13.9268-4.3576l-4.0388.2563c-13.37,1.1535-24.5111,6.1519-33.5635,14.9952q-13.37,13.2651-13.37,30.7594,0,14.4186,9.1916,23.8386c6.2671,6.28,14.4839,9.356,25.0682,9.356,11.42,0,20.89-4.3576,28.55-13.0728C972.5061,1264.3391,976.4056,1253.7014,976.4056,1241.1413Zm1.3927,33.1946q-13.37,28.4525-47.63,28.4524-25.486,0-40.5269-13.8417t-15.041-35.7578q0-21.5316,17.9656-37.68c12.1163-10.894,26.8787-17.8148,44.2872-20.6345a51.9138,51.9138,0,0,1,11.42-.3845l6.6849.3845c6.267.1282,13.37,1.7943,21.4472,4.614v-26.7864c0-8.4588-3.4817-14.7389-10.3058-19.2246s-15.3195-6.7927-25.6253-6.7927c-7.3812,0-15.4587,1.41-24.3718,4.1012-7.3812,2.4352-12.8127,4.87-16.1551,7.0491,5.0136,1.1534,7.3812,4.2294,7.3812,9.1,0,2.9478-1.3927,4.4858-4.3173,4.4858a25.1728,25.1728,0,0,1-4.3173-.769c-5.8492-1.7943-8.7739-4.9984-8.7739-9.7405,0-6.6645,4.8744-13.2009,14.7624-19.4809,10.7236-6.6646,23.5363-10.125,38.5772-10.125q58.7013,0,58.771,47.6771v102.275c0,6.28,1.6712,9.4842,4.8743,9.4842,4.5959,0,6.8242-3.9731,6.8242-11.7911h4.5958c0,6.0237-2.7854,11.15-8.2168,15.636a29.2933,29.2933,0,0,1-18.94,6.5364c-7.3812,0-11.8378-8.8433-13.37-26.7863" style="fill:#195980"/><path d="M976.4056,1241.1413v-14.4825c-1.3927-6.9209-4.4566-12.0475-9.3309-15.38-4.7351-3.3323-9.47-4.87-13.9268-4.3576l-4.0388.2563c-13.37,1.1535-24.5111,6.1519-33.5635,14.9952q-13.37,13.2651-13.37,30.7594,0,14.4186,9.1916,23.8386c6.2671,6.28,14.4839,9.356,25.0682,9.356,11.42,0,20.89-4.3576,28.55-13.0728C972.5061,1264.3391,976.4056,1253.7014,976.4056,1241.1413Zm1.3927,33.1946q-13.37,28.4525-47.63,28.4524-25.486,0-40.5269-13.8417t-15.041-35.7578q0-21.5316,17.9656-37.68c12.1163-10.894,26.8787-17.8148,44.2872-20.6345a51.9138,51.9138,0,0,1,11.42-.3845l6.6849.3845c6.267.1282,13.37,1.7943,21.4472,4.614v-26.7864c0-8.4588-3.4817-14.7389-10.3058-19.2246s-15.3195-6.7927-25.6253-6.7927c-7.3812,0-15.4587,1.41-24.3718,4.1012-7.3812,2.4352-12.8127,4.87-16.1551,7.0491,5.0136,1.1534,7.3812,4.2294,7.3812,9.1,0,2.9478-1.3927,4.4858-4.3173,4.4858a25.1728,25.1728,0,0,1-4.3173-.769c-5.8492-1.7943-8.7739-4.9984-8.7739-9.7405,0-6.6645,4.8744-13.2009,14.7624-19.4809,10.7236-6.6646,23.5363-10.125,38.5772-10.125q58.7013,0,58.771,47.6771v102.275c0,6.28,1.6712,9.4842,4.8743,9.4842,4.5959,0,6.8242-3.9731,6.8242-11.7911h4.5958c0,6.0237-2.7854,11.15-8.2168,15.636a29.2933,29.2933,0,0,1-18.94,6.5364C983.7868,1301.1222,979.33,1292.2789,977.7983,1274.3359Z" style="fill:none;stroke:#195980;stroke-width:0.00570000009611249px"/><path d="M1069.715,1283.6919c0,3.9731,1.95,6.4082,5.71,7.049.4178.2563,3.8995.3845,10.3058.3845v5.6392c-5.9885.2563-15.0409.769-27.018,1.6662-12.1162.8971-21.1686,1.5379-27.2964,1.6661v-5.6392c5.0136,0,7.799-.1282,8.7738-.3845,2.6461-.8972,3.8995-3.076,3.8995-6.6646V1149.5039c0-4.4857-1.95-6.7927-5.9885-6.7927-3.8995-2.1788-5.9885-4.2294-5.9885-5.8956,14.7624-.8971,27.018-2.1788,36.6274-3.7167v43.32q13.37-44.7935,51.5291-44.7293c10.7236,0,16.1551,3.9731,16.1551,11.7911,0,3.5886-1.81,6.9208-5.5707,9.9968-3.621,2.9478-7.242,4.4857-10.8629,4.4857-3.3424,0-5.0137-1.2816-5.0137-3.7167,0-2.82,1.2534-4.9984,4.0388-6.7927a12.891,12.891,0,0,1-2.3675-.3845h-2.6462c-15.4587,0-27.1572,11.0221-35.2347,32.9382a150.28,150.28,0,0,0-9.0524,52.291" style="fill:#195980"/><path d="M1069.715,1283.6919c0,3.9731,1.95,6.4082,5.71,7.049.4178.2563,3.8995.3845,10.3058.3845v5.6392c-5.9885.2563-15.0409.769-27.018,1.6662-12.1162.8971-21.1686,1.5379-27.2964,1.6661v-5.6392c5.0136,0,7.799-.1282,8.7738-.3845,2.6461-.8972,3.8995-3.076,3.8995-6.6646V1149.5039c0-4.4857-1.95-6.7927-5.9885-6.7927-3.8995-2.1788-5.9885-4.2294-5.9885-5.8956,14.7624-.8971,27.018-2.1788,36.6274-3.7167v43.32q13.37-44.7935,51.5291-44.7293c10.7236,0,16.1551,3.9731,16.1551,11.7911,0,3.5886-1.81,6.9208-5.5707,9.9968-3.621,2.9478-7.242,4.4857-10.8629,4.4857-3.3424,0-5.0137-1.2816-5.0137-3.7167,0-2.82,1.2534-4.9984,4.0388-6.7927a12.891,12.891,0,0,1-2.3675-.3845h-2.6462c-15.4587,0-27.1572,11.0221-35.2347,32.9382a150.28,150.28,0,0,0-9.0524,52.291Z" style="fill:none;stroke:#195980;stroke-width:0.00570000009611249px"/><path d="M1163.9993,1218.9689q29.873-11.3426,89.6884-34.6043c-4.0388-24.8639-16.2943-37.2958-36.906-37.2958-16.8513,0-29.8032,5.8955-38.9949,17.8148s-13.7875,28.3243-13.7875,49.3432Zm118.9347,53.9572c-15.8765,19.9936-37.7416,29.8622-65.7345,29.8622q-33.8419,0-57.239-24.7357-23.188-24.8-23.2577-60.75c0-24.4794,7.66-44.7293,22.9792-61.1344,15.3194-16.2768,34.5384-24.4793,57.5175-24.4793,18.5227,0,34.26,5.8955,47.2118,17.8148,12.3949,11.15,19.6368,25.3765,21.8651,42.6787l-120.7452,41.2689c2.7854,13.8417,7.5205,25.12,14.4839,33.8353,10.7236,13.4573,24.65,20.25,41.78,20.25,21.308,0,40.2484-9.7405,57.1-28.9651a31.58,31.58,0,0,1,1.95,7.1772,39.0617,39.0617,0,0,0,2.0891,7.1772" style="fill:#195980"/><path d="M1163.9993,1218.9689q29.873-11.3426,89.6884-34.6043c-4.0388-24.8639-16.2943-37.2958-36.906-37.2958-16.8513,0-29.8032,5.8955-38.9949,17.8148s-13.7875,28.3243-13.7875,49.3432Zm118.9347,53.9572c-15.8765,19.9936-37.7416,29.8622-65.7345,29.8622q-33.8419,0-57.239-24.7357-23.188-24.8-23.2577-60.75c0-24.4794,7.66-44.7293,22.9792-61.1344,15.3194-16.2768,34.5384-24.4793,57.5175-24.4793,18.5227,0,34.26,5.8955,47.2118,17.8148,12.3949,11.15,19.6368,25.3765,21.8651,42.6787l-120.7452,41.2689c2.7854,13.8417,7.5205,25.12,14.4839,33.8353,10.7236,13.4573,24.65,20.25,41.78,20.25,21.308,0,40.2484-9.7405,57.1-28.9651a31.58,31.58,0,0,1,1.95,7.1772A39.0617,39.0617,0,0,0,1282.934,1272.9261Z" style="fill:none;stroke:#195980;stroke-width:0.00570000009611249px"/><path d="M1443.7882,1283.6919c0,4.87,2.5068,7.3053,7.3812,7.3053h4.3173l.4178,5.7674c-16.4336.8972-28.9677,2.0506-37.7415,3.3323V1186.8q0-39.6027-34.6777-39.6028c-12.5341,0-23.1185,5.1266-31.8923,15.2516-8.6346,10.2531-12.9519,22.4287-12.9519,36.7831v84.46q0,7.3053,7.9382,7.3053h5.0137v5.7674c-5.5707.2563-13.9268.769-25.0682,1.6662s-19.6368,1.5379-25.2075,1.6661V1294.33h4.3173c4.8744,0,7.3812-2.307,7.3812-7.049V1149.5039c0-4.4857-1.95-6.7927-5.71-6.7927-3.8995-1.9225-5.9885-3.9731-5.9885-5.8956,2.089-.2563,5.0136-.6408,9.0524-1.0253a78.8273,78.8273,0,0,1,8.7739-.769c5.8492-.3845,11.8377-1.0253,18.1048-1.9224v29.8622c13.6482-20.8907,30.9175-31.272,51.9469-31.272,17.4085,0,30.9174,5.3829,40.3876,15.8923,9.47,10.6377,14.2053,25.7611,14.2053,45.1139" style="fill:#195980"/><path d="M1443.7882,1283.6919c0,4.87,2.5068,7.3053,7.3812,7.3053h4.3173l.4178,5.7674c-16.4336.8972-28.9677,2.0506-37.7415,3.3323V1186.8q0-39.6027-34.6777-39.6028c-12.5341,0-23.1185,5.1266-31.8923,15.2516-8.6346,10.2531-12.9519,22.4287-12.9519,36.7831v84.46q0,7.3053,7.9382,7.3053h5.0137v5.7674c-5.5707.2563-13.9268.769-25.0682,1.6662s-19.6368,1.5379-25.2075,1.6661V1294.33h4.3173c4.8744,0,7.3812-2.307,7.3812-7.049V1149.5039c0-4.4857-1.95-6.7927-5.71-6.7927-3.8995-1.9225-5.9885-3.9731-5.9885-5.8956,2.089-.2563,5.0136-.6408,9.0524-1.0253a78.8273,78.8273,0,0,1,8.7739-.769c5.8492-.3845,11.8377-1.0253,18.1048-1.9224v29.8622c13.6482-20.8907,30.9175-31.272,51.9469-31.272,17.4085,0,30.9174,5.3829,40.3876,15.8923,9.47,10.6377,14.2053,25.7611,14.2053,45.1139Z" style="fill:none;stroke:#195980;stroke-width:0.00570000009611249px"/><path d="M1512.3079,1260.4941c0,9.8687,1.95,16.79,5.71,20.6345,3.8995,3.9731,10.4451,5.8955,19.776,5.8955,7.3813,0,13.7876-7.4335,19.219-22.4287l4.5959,8.9715a64.4778,64.4778,0,0,1-6.9634,13.2009c-6.2671,8.9715-13.9268,13.97-22.84,15.1234-2.5068.1281-4.735.2563-6.9634.2563-12.1162,0-21.4472-4.1012-27.9928-12.1756-6.6848-8.2025-9.888-19.0965-9.888-32.81V1150.9137h-23.2577l2.3676-15.38c11.42,0,19.776-3.5886,24.79-10.7658,3.621-2.6915,6.9634-9.4841,10.1666-20.5063,3.3424-12.6882,5.2921-19.6091,5.9885-20.7626h5.2921v51.9065h46.3763v15.5079h-46.3763" style="fill:#195980"/><path d="M1512.3079,1260.4941c0,9.8687,1.95,16.79,5.71,20.6345,3.8995,3.9731,10.4451,5.8955,19.776,5.8955,7.3813,0,13.7876-7.4335,19.219-22.4287l4.5959,8.9715a64.4778,64.4778,0,0,1-6.9634,13.2009c-6.2671,8.9715-13.9268,13.97-22.84,15.1234-2.5068.1281-4.735.2563-6.9634.2563-12.1162,0-21.4472-4.1012-27.9928-12.1756-6.6848-8.2025-9.888-19.0965-9.888-32.81V1150.9137h-23.2577l2.3676-15.38c11.42,0,19.776-3.5886,24.79-10.7658,3.621-2.6915,6.9634-9.4841,10.1666-20.5063,3.3424-12.6882,5.2921-19.6091,5.9885-20.7626h5.2921v51.9065h46.3763v15.5079h-46.3763Z" style="fill:none;stroke:#195980;stroke-width:0.00570000009611249px"/><path d="M1596.1472,1218.9689q29.8728-11.3426,89.6884-34.6043c-4.0387-24.8639-16.2943-37.2958-36.906-37.2958-16.8514,0-29.8033,5.8955-38.995,17.8148s-13.7874,28.3243-13.7874,49.3432Zm118.9346,53.9572c-15.8765,19.9936-37.7415,29.8622-65.7344,29.8622q-33.8419,0-57.239-24.7357-23.1881-24.8-23.2578-60.75c0-24.4794,7.66-44.7293,22.9792-61.1344,15.32-16.2768,34.3992-24.4793,57.5176-24.4793,18.5226,0,34.26,5.8955,47.2118,17.8148,12.2556,11.15,19.4975,25.3765,21.865,42.6787l-120.7451,41.2689c2.646,13.8417,7.52,25.12,14.4839,33.8353,10.5843,13.4573,24.65,20.25,41.78,20.25,21.308,0,40.2484-9.7405,56.9605-28.9651a39.0606,39.0606,0,0,1,2.089,7.1772,39.0631,39.0631,0,0,0,2.089,7.1772" style="fill:#195980"/><path d="M1596.1472,1218.9689q29.8728-11.3426,89.6884-34.6043c-4.0387-24.8639-16.2943-37.2958-36.906-37.2958-16.8514,0-29.8033,5.8955-38.995,17.8148s-13.7874,28.3243-13.7874,49.3432Zm118.9346,53.9572c-15.8765,19.9936-37.7415,29.8622-65.7344,29.8622q-33.8419,0-57.239-24.7357-23.1881-24.8-23.2578-60.75c0-24.4794,7.66-44.7293,22.9792-61.1344,15.32-16.2768,34.3992-24.4793,57.5176-24.4793,18.5226,0,34.26,5.8955,47.2118,17.8148,12.2556,11.15,19.4975,25.3765,21.865,42.6787l-120.7451,41.2689c2.646,13.8417,7.52,25.12,14.4839,33.8353,10.5843,13.4573,24.65,20.25,41.78,20.25,21.308,0,40.2484-9.7405,56.9605-28.9651a39.0606,39.0606,0,0,1,2.089,7.1772A39.0631,39.0631,0,0,0,1715.0818,1272.9261Z" style="fill:none;stroke:#195980;stroke-width:0.00570000009611249px"/><path d="M1851.2857,1250.4973c0,15.6361-5.5707,28.3243-16.7121,37.9366s-25.9038,14.3544-44.148,14.3544c-19.2189,0-36.3488-6.4082-51.39-19.4809q-3.9692,0-4.5959,5.3829h-4.735v-28.837a56.1818,56.1818,0,0,1,5.9885-3.3323c2.7853-1.41,4.735-2.3069,6.1278-3.0759,9.47,22.6851,26.043,34.0917,49.44,34.0917,10.3058,0,19.08-2.82,26.3216-8.3307,7.242-5.3829,10.8628-12.1756,10.8628-20.25,0-9.2279-3.4816-16.2769-10.3057-21.1471-6.9634-4.9984-17.9656-8.9715-33.1458-12.1756q-52.4343-10.5736-52.5039-47.2927c0-13.4572,5.4314-24.4793,16.1551-33.3226,10.8628-8.8434,23.954-13.3291,39.1342-13.3291a84.9061,84.9061,0,0,1,29.8033,5.7674c8.0775,3.0759,14.2053,6.5363,18.3833,10.1249,2.089,0,3.3425-1.41,3.76-4.3576h5.2921v24.4794c-3.4817,2.6915-7.2419,5.2548-11.0021,7.69-8.7739-18.84-23.8148-28.3243-45.5406-28.3243q-16.0854,0-24.65,6.9209c-5.5707,4.4857-8.4954,10.6376-8.4954,18.3274a21.0972,21.0972,0,0,0,8.7739,17.43c5.71,4.4857,16.1551,8.3307,31.0567,11.6629,20.89,4.7421,35.5133,11.0221,43.8693,18.712,8.2168,7.69,12.2556,17.8148,12.2556,30.3749" style="fill:#195980"/><path d="M1851.2857,1250.4973c0,15.6361-5.5707,28.3243-16.7121,37.9366s-25.9038,14.3544-44.148,14.3544c-19.2189,0-36.3488-6.4082-51.39-19.4809q-3.9692,0-4.5959,5.3829h-4.735v-28.837a56.1818,56.1818,0,0,1,5.9885-3.3323c2.7853-1.41,4.735-2.3069,6.1278-3.0759,9.47,22.6851,26.043,34.0917,49.44,34.0917,10.3058,0,19.08-2.82,26.3216-8.3307,7.242-5.3829,10.8628-12.1756,10.8628-20.25,0-9.2279-3.4816-16.2769-10.3057-21.1471-6.9634-4.9984-17.9656-8.9715-33.1458-12.1756q-52.4343-10.5736-52.5039-47.2927c0-13.4572,5.4314-24.4793,16.1551-33.3226,10.8628-8.8434,23.954-13.3291,39.1342-13.3291a84.9061,84.9061,0,0,1,29.8033,5.7674c8.0775,3.0759,14.2053,6.5363,18.3833,10.1249,2.089,0,3.3425-1.41,3.76-4.3576h5.2921v24.4794c-3.4817,2.6915-7.2419,5.2548-11.0021,7.69-8.7739-18.84-23.8148-28.3243-45.5406-28.3243q-16.0854,0-24.65,6.9209c-5.5707,4.4857-8.4954,10.6376-8.4954,18.3274a21.0972,21.0972,0,0,0,8.7739,17.43c5.71,4.4857,16.1551,8.3307,31.0567,11.6629,20.89,4.7421,35.5133,11.0221,43.8693,18.712C1847.2469,1227.8122,1851.2857,1237.9372,1851.2857,1250.4973Z" style="fill:none;stroke:#195980;stroke-width:0.00570000009611249px"/><path d="M744.107,964.6911h28.9677c18.244-.5127,31.6138-4.87,39.97-13.201,8.4953-8.4588,12.6734-21.9161,12.6734-40.5,0-16.2768-4.3173-29.2214-13.0912-38.7056s-20.89-14.2262-36.4881-14.2262c-17.2693,0-27.9929,4.2294-32.0316,12.6883Zm0,16.405v73.8226c0,7.049,3.2031,10.6376,9.7487,10.6376H760.68v7.8181H701.0732v-5.7674H707.34c6.267,0,9.47-3.7168,9.47-11.0222V858.6992c0-7.3053-2.9246-11.0221-8.7739-11.0221h-5.9885v-5.6392h73.6727c25.7645,0,45.68,5.8955,59.8851,17.943C849.8112,871.9,856.7746,888.946,856.7746,910.99c0,22.1725-6.9634,39.3465-20.89,51.65-14.066,12.3038-33.1457,18.4557-57.5176,18.4557" style="fill:#195980"/><path d="M744.107,964.6911h28.9677c18.244-.5127,31.6138-4.87,39.97-13.201,8.4953-8.4588,12.6734-21.9161,12.6734-40.5,0-16.2768-4.3173-29.2214-13.0912-38.7056s-20.89-14.2262-36.4881-14.2262c-17.2693,0-27.9929,4.2294-32.0316,12.6883Zm0,16.405v73.8226c0,7.049,3.2031,10.6376,9.7487,10.6376H760.68v7.8181H701.0732v-5.7674H707.34c6.267,0,9.47-3.7168,9.47-11.0222V858.6992c0-7.3053-2.9246-11.0221-8.7739-11.0221h-5.9885v-5.6392h73.6727c25.7645,0,45.68,5.8955,59.8851,17.943C849.8112,871.9,856.7746,888.946,856.7746,910.99c0,22.1725-6.9634,39.3465-20.89,51.65-14.066,12.3038-33.1457,18.4557-57.5176,18.4557Z" style="fill:none;stroke:#195980;stroke-width:0.00570000009611249px"/><path d="M1006.9052,991.0929q0-32.2974-15.0409-51.1375c-10.0272-12.6883-23.8148-19.0965-41.2233-19.0965-17.5477,0-31.1959,6.4082-41.0839,19.0965q-15.0409,18.84-15.0409,51.1375c0,21.5316,5.0136,38.5775,15.0409,51.2657,9.888,12.6882,23.5362,18.9683,41.0839,18.9683,17.4085,0,31.1961-6.28,41.2233-18.9683S1006.9052,1012.6245,1006.9052,991.0929Zm27.7143,0c0,23.9667-8.0775,44.2167-24.5111,60.75-16.1551,16.6614-36.07,24.8639-59.4674,24.8639-23.5362,0-43.3122-8.2025-59.4673-24.8639-16.155-16.5331-24.3718-36.7831-24.3718-60.75,0-23.8385,8.2168-44.2167,24.3718-60.75s35.9311-24.7356,59.4673-24.7356,43.5909,8.2025,59.746,24.7356,24.2325,36.9114,24.2325,60.75" style="fill:#195980"/><path d="M1006.9052,991.0929q0-32.2974-15.0409-51.1375c-10.0272-12.6883-23.8148-19.0965-41.2233-19.0965-17.5477,0-31.1959,6.4082-41.0839,19.0965q-15.0409,18.84-15.0409,51.1375c0,21.5316,5.0136,38.5775,15.0409,51.2657,9.888,12.6882,23.5362,18.9683,41.0839,18.9683,17.4085,0,31.1961-6.28,41.2233-18.9683S1006.9052,1012.6245,1006.9052,991.0929Zm27.7143,0c0,23.9667-8.0775,44.2167-24.5111,60.75-16.1551,16.6614-36.07,24.8639-59.4674,24.8639-23.5362,0-43.3122-8.2025-59.4673-24.8639-16.155-16.5331-24.3718-36.7831-24.3718-60.75,0-23.8385,8.2168-44.2167,24.3718-60.75s35.9311-24.7356,59.4673-24.7356,43.5909,8.2025,59.746,24.7356S1034.62,967.2544,1034.62,991.0929Z" style="fill:none;stroke:#195980;stroke-width:0.00570000009611249px"/><path d="M1061.08,854.7262c0-2.307,2.3675-5.8956,6.9634-10.7659,4.5958-4.9984,7.9382-7.4335,10.1665-7.4335s5.5707,2.4351,10.1666,7.4335c4.5958,4.87,6.9634,8.4589,6.9634,10.7659,0,2.1787-2.3676,5.7674-6.9634,10.6376-4.5959,4.9984-7.9383,7.4335-10.1666,7.4335s-5.5707-2.4351-10.1665-7.4335C1063.4479,860.4936,1061.08,856.9049,1061.08,854.7262Zm32.5887,202.7558c0,4.9984,2.646,7.4335,8.0775,7.4335h4.5958l.4178,5.7674c-5.71.1282-14.2053.769-25.486,1.6661-11.42.8972-20.0545,1.41-25.9038,1.6662v-5.7674h4.7351c5.2922,0,7.9383-2.307,7.9383-7.049V924.832c0-4.3576-2.089-6.6646-6.2671-6.6646-4.3173-1.7942-6.4063-3.8449-6.4063-6.1518,8.4954-.8972,21.308-2.5633,38.2987-5.1266" style="fill:#195980"/><path d="M1061.08,854.7262c0-2.307,2.3675-5.8956,6.9634-10.7659,4.5958-4.9984,7.9382-7.4335,10.1665-7.4335s5.5707,2.4351,10.1666,7.4335c4.5958,4.87,6.9634,8.4589,6.9634,10.7659,0,2.1787-2.3676,5.7674-6.9634,10.6376-4.5959,4.9984-7.9383,7.4335-10.1666,7.4335s-5.5707-2.4351-10.1665-7.4335C1063.4479,860.4936,1061.08,856.9049,1061.08,854.7262Zm32.5887,202.7558c0,4.9984,2.646,7.4335,8.0775,7.4335h4.5958l.4178,5.7674c-5.71.1282-14.2053.769-25.486,1.6661-11.42.8972-20.0545,1.41-25.9038,1.6662v-5.7674h4.7351c5.2922,0,7.9383-2.307,7.9383-7.049V924.832c0-4.3576-2.089-6.6646-6.2671-6.6646-4.3173-1.7942-6.4063-3.8449-6.4063-6.1518,8.4954-.8972,21.308-2.5633,38.2987-5.1266Z" style="fill:none;stroke:#195980;stroke-width:0.00570000009611249px"/><path d="M1168.1773,1034.4124c0,9.8687,1.8105,16.6614,5.5707,20.6344,3.8995,3.845,10.4451,5.7674,19.9153,5.7674,7.2419,0,13.6482-7.4335,19.08-22.4287l4.5958,9.1a63.3464,63.3464,0,0,1-6.9634,13.0727c-6.267,8.9715-13.9267,14.0981-22.84,15.1234a67.3737,67.3737,0,0,1-6.9634.3845q-18.1743,0-27.9928-12.3038c-6.6848-8.0743-9.888-19.0965-9.888-32.6819V924.7038h-23.2577l2.3675-15.38c11.42,0,19.7761-3.5886,24.929-10.6376,3.4817-2.6915,6.8241-9.6124,10.0272-20.5063,3.3425-12.8164,5.2922-19.6091,5.9886-20.7626h5.4314v51.9065h46.2369v15.38h-46.2369" style="fill:#195980"/><path d="M1168.1773,1034.4124c0,9.8687,1.8105,16.6614,5.5707,20.6344,3.8995,3.845,10.4451,5.7674,19.9153,5.7674,7.2419,0,13.6482-7.4335,19.08-22.4287l4.5958,9.1a63.3464,63.3464,0,0,1-6.9634,13.0727c-6.267,8.9715-13.9267,14.0981-22.84,15.1234a67.3737,67.3737,0,0,1-6.9634.3845q-18.1743,0-27.9928-12.3038c-6.6848-8.0743-9.888-19.0965-9.888-32.6819V924.7038h-23.2577l2.3675-15.38c11.42,0,19.7761-3.5886,24.929-10.6376,3.4817-2.6915,6.8241-9.6124,10.0272-20.5063,3.3425-12.8164,5.2922-19.6091,5.9886-20.7626h5.4314v51.9065h46.2369v15.38h-46.2369Z" style="fill:none;stroke:#195980;stroke-width:0.00570000009611249px"/><path d="M1364.6842,991.0929c0-21.5316-5.0137-38.5774-15.18-51.1375-10.0273-12.6883-23.8149-19.0965-41.2233-19.0965s-31.196,6.4082-41.084,19.0965c-10.0273,12.56-14.9017,29.6059-14.9017,51.1375s4.8744,38.5775,14.9017,51.2657c9.888,12.6882,23.6755,18.9683,41.084,18.9683s31.196-6.28,41.2233-18.9683C1359.6705,1029.67,1364.6842,1012.6245,1364.6842,991.0929Zm27.7142,0q0,35.95-24.5111,60.75c-16.2943,16.6614-36.21,24.8639-59.6066,24.8639s-43.173-8.2025-59.4674-24.8639q-24.2325-24.8-24.2325-60.75c0-23.8385,8.0775-44.2167,24.2325-60.75q24.4416-24.8,59.4674-24.7356,35.5133,0,59.7459,24.7356c16.1551,16.5332,24.3718,36.9114,24.3718,60.75" style="fill:#195980"/><path d="M1364.6842,991.0929c0-21.5316-5.0137-38.5774-15.18-51.1375-10.0273-12.6883-23.8149-19.0965-41.2233-19.0965s-31.196,6.4082-41.084,19.0965c-10.0273,12.56-14.9017,29.6059-14.9017,51.1375s4.8744,38.5775,14.9017,51.2657c9.888,12.6882,23.6755,18.9683,41.084,18.9683s31.196-6.28,41.2233-18.9683C1359.6705,1029.67,1364.6842,1012.6245,1364.6842,991.0929Zm27.7142,0q0,35.95-24.5111,60.75c-16.2943,16.6614-36.21,24.8639-59.6066,24.8639s-43.173-8.2025-59.4674-24.8639q-24.2325-24.8-24.2325-60.75c0-23.8385,8.0775-44.2167,24.2325-60.75q24.4416-24.8,59.4674-24.7356,35.5133,0,59.7459,24.7356C1384.1817,946.8762,1392.3984,967.2544,1392.3984,991.0929Z" style="fill:none;stroke:#195980;stroke-width:0.00570000009611249px"/><path d="M1550.7459,1058.2509c0,4.614,3.9,7.0491,11.42,7.0491v5.6392c-8.0775.6408-20.0545,1.41-35.7918,2.4352v-29.606c-13.23,22.0443-31.0567,32.9382-53.4788,32.9382-17.13,0-30.36-5.3829-39.5521-16.0205q-13.7874-16.1487-13.7875-46.1392V924.832c0-4.87-2.5068-7.049-7.66-6.6646h-3.8995v-6.1518c4.1781-.2564,10.4451-.6409,18.6619-1.2817,8.0776-.769,14.3446-1.1535,18.5226-1.41v110.0931c0,14.4825,2.7854,25.12,8.0775,31.9129,5.2922,6.6645,14.066,9.9968,26.0431,9.9968,14.3446,0,25.0682-4.87,32.31-14.7389s11.8378-24.992,13.509-45.6265V924.832c0-4.3576-2.7854-6.6646-8.4953-6.6646H1511.89v-6.1518q13.161-.9614,38.8558-2.6915" style="fill:#195980"/><path d="M1550.7459,1058.2509c0,4.614,3.9,7.0491,11.42,7.0491v5.6392c-8.0775.6408-20.0545,1.41-35.7918,2.4352v-29.606c-13.23,22.0443-31.0567,32.9382-53.4788,32.9382-17.13,0-30.36-5.3829-39.5521-16.0205q-13.7874-16.1487-13.7875-46.1392V924.832c0-4.87-2.5068-7.049-7.66-6.6646h-3.8995v-6.1518c4.1781-.2564,10.4451-.6409,18.6619-1.2817,8.0776-.769,14.3446-1.1535,18.5226-1.41v110.0931c0,14.4825,2.7854,25.12,8.0775,31.9129,5.2922,6.6645,14.066,9.9968,26.0431,9.9968,14.3446,0,25.0682-4.87,32.31-14.7389s11.8378-24.992,13.509-45.6265V924.832c0-4.3576-2.7854-6.6646-8.4953-6.6646H1511.89v-6.1518q13.161-.9614,38.8558-2.6915Z" style="fill:none;stroke:#195980;stroke-width:0.00570000009611249px"/><path d="M620.9943,1007.7543V973.2781c0-10.894-2.6461-22.4288-18.5226-22.4288-16.5729,0-17.8263,12.432-17.8263,19.7373v37.1677Zm58.2139,0v14.867H572.2506V971.74c0-18.0712,6.1277-36.27,28.8284-36.27,15.7372,0,21.5865,8.3307,25.6252,15.38,2.5069-6.28,5.153-12.56,20.0546-13.2009l19.3582-.8972c5.9885-.1281,8.2168-.8971,10.7236-5.511h2.3676V949.44c-6.5456,2.1788-22.7006,2.5633-26.7394,2.5633-8.7739,0-19.08,1.9225-19.08,19.7373v36.0142" style="fill:#e78519"/><path d="M620.9943,1007.7543V973.2781c0-10.894-2.6461-22.4288-18.5226-22.4288-16.5729,0-17.8263,12.432-17.8263,19.7373v37.1677Zm58.2139,0v14.867H572.2506V971.74c0-18.0712,6.1277-36.27,28.8284-36.27,15.7372,0,21.5865,8.3307,25.6252,15.38,2.5069-6.28,5.153-12.56,20.0546-13.2009l19.3582-.8972c5.9885-.1281,8.2168-.8971,10.7236-5.511h2.3676V949.44c-6.5456,2.1788-22.7006,2.5633-26.7394,2.5633-8.7739,0-19.08,1.9225-19.08,19.7373v36.0142Z" style="fill:none;stroke:#e78519;stroke-width:0.0003000000142492354px"/><path d="M679.2082,833.1945v81.2562H572.2506V834.348h12.8126v65.3638h32.7279V839.3464H630.743v60.3654h35.6526V833.1945" style="fill:#e78519"/><path d="M679.2082,833.1945v81.2562H572.2506V834.348h12.8126v65.3638h32.7279V839.3464H630.743v60.3654h35.6526V833.1945Z" style="fill:none;stroke:#e78519;stroke-width:0.0003000000142492354px"/><path d="M622.1084,768.0871V719.7692h57.1v9.6123L665.4207,732.97c10.0273,7.5617,16.7121,21.2753,16.7121,36.27,0,18.9683-6.6848,28.068-12.1163,33.8354-15.4587,16.7895-33.842,17.3021-45.1227,17.3021-26.0431,0-55.4286-16.2768-55.4286-52.1628,0-20.5063,11.2807-43.4477,35.374-46.5236v14.3544c-18.6619,4.742-22.5614,20.8907-22.5614,32.9382,0,19.7372,15.32,36.0141,43.3123,36.0141,21.7258,0,44.1479-7.3053,44.1479-36.655,0-5.511-.5571-14.3543-6.8241-22.5569-7.52-9.6123-16.9907-12.0474-28.55-12.0474v34.348" style="fill:#e78519"/><path d="M622.1084,768.0871V719.7692h57.1v9.6123L665.4207,732.97c10.0273,7.5617,16.7121,21.2753,16.7121,36.27,0,18.9683-6.6848,28.068-12.1163,33.8354-15.4587,16.7895-33.842,17.3021-45.1227,17.3021-26.0431,0-55.4286-16.2768-55.4286-52.1628,0-20.5063,11.2807-43.4477,35.374-46.5236v14.3544c-18.6619,4.742-22.5614,20.8907-22.5614,32.9382,0,19.7372,15.32,36.0141,43.3123,36.0141,21.7258,0,44.1479-7.3053,44.1479-36.655,0-5.511-.5571-14.3543-6.8241-22.5569-7.52-9.6123-16.9907-12.0474-28.55-12.0474v34.348Z" style="fill:none;stroke:#e78519;stroke-width:0.0003000000142492354px"/><path d="M572.2506,696.7H679.2082v-14.867H572.2506Z" style="fill:#e78519"/><path d="M572.2506,696.7H679.2082v-14.867H572.2506Z" style="fill:none;stroke:#e78519;stroke-width:0.0003000000142492354px"/><path d="M582.2778,610.7014c0,23.9668,18.2441,38.3212,43.4516,38.3212S669.32,634.6682,669.32,610.7014c0-23.8385-18.3834-38.3211-43.5908-38.3211S582.2778,586.8629,582.2778,610.7014Zm99.855,0c0,41.1407-33.285,53.7008-56.4034,53.7008-22.9792,0-56.2642-12.56-56.2642-53.7008,0-41.0125,33.285-53.7008,56.2642-53.7008,23.1184,0,56.4034,12.6883,56.4034,53.7008" style="fill:#e78519"/><path d="M582.2778,610.7014c0,23.9668,18.2441,38.3212,43.4516,38.3212S669.32,634.6682,669.32,610.7014c0-23.8385-18.3834-38.3211-43.5908-38.3211S582.2778,586.8629,582.2778,610.7014Zm99.855,0c0,41.1407-33.285,53.7008-56.4034,53.7008-22.9792,0-56.2642-12.56-56.2642-53.7008,0-41.0125,33.285-53.7008,56.2642-53.7008C648.8478,557.0006,682.1328,569.6889,682.1328,610.7014Z" style="fill:none;stroke:#e78519;stroke-width:0.0003000000142492354px"/><path d="M572.2506,468.6954V454.3411H679.2082v16.6613L592.8622,527.01v.3845h86.346v14.3544H572.2506V524.0624L658.7358,469.08v-.3845" style="fill:#e78519"/><path d="M572.2506,468.6954V454.3411H679.2082v16.6613L592.8622,527.01v.3845h86.346v14.3544H572.2506V524.0624L658.7358,469.08v-.3845Z" style="fill:none;stroke:#e78519;stroke-width:0.0003000000142492354px"/><path d="M533.1163,1328.4212H1892.6482V908.2988" style="fill:none;stroke:#195980;stroke-width:3px"/><path d="M1020.9713,484.5878l11.5592,14.2263,3.2032,24.4793L987.547,566.4848l-3.4817,4.1012L872.094,719.2565l-40.9447,9.8687-91.36-13.201,10.8629,82.5378,53.7573,3.5886h75.3439l373.2376-10.7657,7.1027,14.3543,8.9131-38.5774,39.97-12.56V215.4429l-36.07.769-5.0137,34.348L1194.36,297.8525l-37.6024-12.9445-3.2031-57.1613-49.1615.769-1.532,24.7356-20.4723,45.37,7.66,47.8053L1057.1809,303.62h-62.949l-2.5068-22.6851h-108.49l-7.52,10.125-15.18,20.1218,7.52,52.9318H920.977l15.18,22.6851,37.8809,4.9984,7.52,32.6819h40.3876l-30.221,17.6867,29.2462,42.4223-9.47-30.1186" style="fill:#fff"/><path d="M1043.95,478.0514l11.42,14.2263,3.2032,24.4793-48.1866,43.1914-3.4818,4.2294L894.934,712.72l-40.8055,9.8687L711.379,689.2661l.2786,129.0614h565.7056l2.0891-7.818,12.3948-49.8559,39.97-12.6882V208.9066l-36.07.7689-4.8744,34.348L1217.2,291.4443l-37.6022-13.0727,9.3309-57.29-61.5563.8972-1.6712,24.7357-20.4724,45.37,7.66,47.8053-32.8672-42.8069h-62.949l-2.5068-22.6851h-108.49l-7.52,10.125-15.18,20.1218,7.5205,52.9319h53.061l15.18,22.685,37.7416,4.9985,7.66,32.6818h40.2484l-30.2211,17.6867,29.3855,42.4223-9.61-30.1186" style="fill:#abc92c"/><path d="M1026.4028,568.92c-33.8421,71.0029-85.5105,164.1784-155.5622,249.4076H934.486a1706.8652,1706.8652,0,0,0,121.72-211.2146" style="fill:#dde48d"/><path d="M1181.9648,265.427l-20.3331-65.7483-11.42,42.0378c-23.1185,86.3828-44.705,145.21-65.3166,194.4252l5.8492-1.41,26.6,30.7594a1865.3856,1865.3856,0,0,0,59.4673-180.9679" style="fill:#dde48d"/><path d="M1150.2118,241.7165l11.1414-43.5758H1198.12s-18.5226,81.2562-21.308,86.3827l-18.2441,5.7674-6.1277-22.0442" style="fill:#dde48d"/><path d="M965.1249,197.3718l21.5865,30.2467h53.8967l47.0725-30.2467" style="fill:#fff"/><path d="M706.6439,434.0911S909.6963,538.4168,1126.2577,556.488a704.3369,704.3369,0,0,0,105.2865,1.2816" style="fill:none;stroke:#fff;stroke-width:3px"/><path d="M1328.6138,519.1922c42.4767-9.4842,83.4214-23.5823,121.3022-43.8322" style="fill:#eea413;stroke:#abc92c;stroke-width:0.25px"/><path d="M1328.6138,519.1922c42.4767-9.4842,83.4214-23.5823,121.3022-43.8322" style="fill:none;stroke:#abc92c"/><path d="M912.0639,485.3568c121.3022,37.9366,278.5355,67.9271,416.4106,33.4508" style="fill:none;stroke:#fff;stroke-width:3px"/><path d="M706.0869,1343.9291v-.5127c2.7853-.1282,6.9634-.6408,12.5341-1.2816v72.2846c0,1.6661.8356,2.4351,2.5068,2.4351h1.6712v1.9225c-1.81,0-4.5958.2563-8.2168.5126-3.76.2564-6.5456.3845-8.4953.5127v-1.7943h1.5319a2.327,2.327,0,0,0,2.6461-2.4351v-68.0552a1.9081,1.9081,0,0,0-2.089-2.1788c-1.3927-.6409-2.089-1.0254-2.089-1.41" style="fill:#195980"/><path d="M762.0725,1400.5776v-4.742a7.6515,7.6515,0,0,0-3.0639-4.9984,6.496,6.496,0,0,0-4.5958-1.41l-1.2534.1281a17.681,17.681,0,0,0-11.0022,4.7421,13.84,13.84,0,0,0-4.3173,10.125,10.7217,10.7217,0,0,0,2.9246,7.69,11.08,11.08,0,0,0,8.2168,3.076,11.9167,11.9167,0,0,0,9.331-4.2294A15.2906,15.2906,0,0,0,762.0725,1400.5776Zm.4178,10.894c-2.9246,6.1519-8.0775,9.2278-15.598,9.2278-5.5707,0-9.888-1.5379-13.23-4.6139a14.72,14.72,0,0,1-4.8744-11.5348,15.9451,15.9451,0,0,1,5.8493-12.3037,27.1994,27.1994,0,0,1,14.4838-6.7927,31.7153,31.7153,0,0,1,3.76-.1282l2.089.1282a27.7521,27.7521,0,0,1,7.1027,1.5379v-8.8433a6.84,6.84,0,0,0-3.3424-6.1519,14.5263,14.5263,0,0,0-8.4954-2.3069,27.5981,27.5981,0,0,0-7.9382,1.41,21.7858,21.7858,0,0,0-5.2922,2.3069,2.7666,2.7666,0,0,1,2.5068,2.9478c0,1.0253-.557,1.41-1.5319,1.41a7.75,7.75,0,0,1-1.3927-.1281c-1.8105-.6409-2.7853-1.6662-2.7853-3.2042,0-2.1787,1.5319-4.3575,4.7351-6.4082A23.96,23.96,0,0,1,751.21,1364.82c12.8127,0,19.219,5.1266,19.219,15.5079V1413.65q0,3.0759,1.6712,3.0759c1.3927,0,2.089-1.2816,2.089-3.7167h1.532a6.4741,6.4741,0,0,1-2.7854,4.9984,9.3174,9.3174,0,0,1-6.1278,2.1788c-2.3675,0-3.8995-2.9478-4.3173-8.7152" style="fill:#195980"/><path d="M850.3683,1392.76c0-6.9208-1.532-12.4319-4.8744-16.6613a15.576,15.576,0,0,0-12.9519-6.1519,14.7474,14.7474,0,0,0-12.5341,6.4082c-3.2032,4.3576-4.7351,9.8687-4.7351,16.405q0,10.189,4.5958,16.5332c3.2032,4.2294,7.242,6.4082,12.3949,6.4082a15.856,15.856,0,0,0,13.0911-6.5363C848.6971,1404.9352,850.3683,1399.4242,850.3683,1392.76Zm0,16.7895a17.5938,17.5938,0,0,1-6.9634,7.5617,21.8152,21.8152,0,0,1-12.1163,3.5886c-7.1027,0-12.9519-2.82-17.8263-8.2025a29.0744,29.0744,0,0,1-7.2419-19.9936,26.8658,26.8658,0,0,1,7.66-19.3528,25.2221,25.2221,0,0,1,18.94-8.2025c7.52,0,13.2305,3.46,17.4085,10.2531v-27.6834c0-1.538-.6963-2.1788-2.089-2.1788-1.5319-.6409-2.2283-1.2817-2.2283-1.9225,2.7854-.1282,6.9634-.6408,12.5341-1.2816v73.1817q0,2.307,3.76,2.307v1.538c-4.8743.5126-8.7738.7689-11.8377,1.1534" style="fill:#195980"/><path d="M876.69,1393.4005c6.4063-2.5633,16.1551-6.28,29.107-11.4067-1.2535-8.0743-5.2922-12.0474-11.9771-12.0474-5.4314,0-9.7487,1.9225-12.6734,5.7674-3.0638,3.8449-4.4565,9.2278-4.4565,16.1487Zm38.7164,17.5585c-5.1529,6.4082-12.2556,9.74-21.4472,9.74a25.0494,25.0494,0,0,1-18.8012-8.0743,29.9979,29.9979,0,0,1,0-39.7309,24.6646,24.6646,0,0,1,18.6619-7.9462,22.1473,22.1473,0,0,1,22.5614,19.7373l-39.4128,13.4572a27.5178,27.5178,0,0,0,4.7351,11.0222,16.7806,16.7806,0,0,0,13.7875,6.5363c6.8242,0,13.0912-3.2041,18.5227-9.4841a6.7562,6.7562,0,0,1,.6963,2.4351c.2785,1.0253.5571,1.7943.6963,2.307" style="fill:#195980"/><path d="M997.1565,1414.4194c0,1.6661.8356,2.4351,2.6461,2.4351h1.5319v1.9225c-4.8743.2563-8.9131.6408-12.5341,1.0253v-37.2958c0-8.4589-3.4817-12.56-10.3058-12.56a11.2721,11.2721,0,0,0-9.3309,4.3576c-2.2283,2.9478-3.3424,6.6645-3.3424,11.4066v28.7088a2.1243,2.1243,0,0,0,2.3675,2.4351h1.5319v1.9225a102.8867,102.8867,0,0,0-12.2555,1.0253v-37.2958c0-8.4589-3.621-12.56-10.4451-12.56a11.1255,11.1255,0,0,0-9.47,4.4857c-2.2283,2.9478-3.3424,7.0491-3.3424,12.1756v27.8117c0,1.6661.8356,2.4351,2.5068,2.4351h1.6712l.1393,1.9225c-1.95,0-4.7351.2563-8.3561.5126-3.76.2564-6.5456.3845-8.4953.5127v-1.7943h1.5319c1.8105,0,2.6461-.769,2.6461-2.307v-44.8575c0-1.5379-.6963-2.1787-1.95-2.1787-1.2534-.6409-1.95-1.2817-1.95-2.0507,1.2534-.1281,3.2032-.2563,5.8493-.5126,2.089-.1282,4.0387-.3845,5.8492-.6409v9.2279c3.621-6.4082,8.7739-9.74,15.4587-9.74,7.799,0,12.9519,3.46,15.3195,10.3813,3.3424-6.9209,8.7738-10.3813,16.155-10.3813,11.1415,0,16.5729,6.28,16.5729,18.9683" style="fill:#195980"/><path d="M1053.0029,1392.76c0-6.9208-1.6712-12.56-4.8744-16.6613-3.3424-4.1013-7.799-6.1519-13.509-6.1519s-10.1665,2.0506-13.37,6.1519c-3.3424,4.1012-4.8743,9.74-4.8743,16.6613,0,7.0491,1.5319,12.56,4.8743,16.7895q4.8048,6.152,13.37,6.1519c5.71,0,10.1666-2.0506,13.509-6.1519C1051.3317,1405.32,1053.0029,1399.8087,1053.0029,1392.76Zm9.0524,0a27.518,27.518,0,0,1-7.9383,19.8655,26.3518,26.3518,0,0,1-19.4975,8.0743,25.8273,25.8273,0,0,1-19.3582-8.0743,27.5179,27.5179,0,0,1-7.9382-19.8655,27.2231,27.2231,0,0,1,7.9382-19.7373,25.8273,25.8273,0,0,1,19.3582-8.0743,26.3518,26.3518,0,0,1,19.4975,8.0743,27.2232,27.2232,0,0,1,7.9383,19.7373" style="fill:#195980"/><path d="M1111.3561,1408.0112a8.8539,8.8539,0,0,1,1.6712,1.5379l1.6712,1.538c-5.1529,6.4082-12.1163,9.6123-20.6116,9.6123-7.9383,0-14.4839-2.6914-19.6368-7.9461a27.3386,27.3386,0,0,1-7.799-19.8655,26.1521,26.1521,0,0,1,8.4954-19.7373,28.1623,28.1623,0,0,1,20.4723-8.2025,24.1461,24.1461,0,0,1,13.0912,3.7168c3.4817,2.1787,5.2921,4.4857,5.2921,6.9208q0,2.6914-4.178,3.46a13.4079,13.4079,0,0,1-1.5319.2563,2.7884,2.7884,0,0,1-2.9246-1.7943c0-1.1535.4178-1.9225,1.2534-2.1788a4.65,4.65,0,0,1,1.6712-.5127l.9748.1282c-2.7853-3.3323-7.3811-4.9984-13.5089-4.9984s-11.0022,2.0506-14.6231,6.1519c-3.621,3.9731-5.4315,9.4841-5.4315,16.2768s1.81,12.432,5.4315,16.79a17.5017,17.5017,0,0,0,14.066,6.5363,21.7455,21.7455,0,0,0,10.7236-2.9477,15.7148,15.7148,0,0,0,5.4315-4.7421" style="fill:#195980"/><path d="M1132.5248,1414.4194a2.1817,2.1817,0,0,0,1.95,2.3069,14.951,14.951,0,0,0,3.3424.1282v1.9225c-1.95,0-4.8743.1281-8.9131.5126-3.8995.2564-6.8241.3845-8.9131.5127v-1.7943c1.6712,0,2.6461-.1282,2.9246-.1282a2.1,2.1,0,0,0,1.2534-2.1788v-44.8575c0-1.5379-.6964-2.1787-1.95-2.1787-1.2534-.769-1.95-1.41-1.95-2.0507a115.0324,115.0324,0,0,0,11.977-1.1535v13.97c2.9247-9.6123,8.4953-14.4825,16.8514-14.4825,3.4817,0,5.2922,1.2816,5.2922,3.8449a4.5321,4.5321,0,0,1-1.81,3.2041,6.507,6.507,0,0,1-3.6209,1.41q-1.6713,0-1.6713-1.1534a2.3539,2.3539,0,0,1,1.3927-2.1788,5.3109,5.3109,0,0,0-.8356-.1282h-.8356c-5.0136,0-8.9131,3.5886-11.5592,10.6376a49.4863,49.4863,0,0,0-2.9246,17.0459" style="fill:#195980"/><path d="M1186.9785,1400.5776v-4.742a7.6519,7.6519,0,0,0-3.0639-4.9984,6.4963,6.4963,0,0,0-4.5959-1.41l-1.2534.1281a17.3523,17.3523,0,0,0-11.0021,4.7421,13.9888,13.9888,0,0,0-4.4566,10.125,10.8324,10.8324,0,0,0,3.0639,7.69,11.0794,11.0794,0,0,0,8.2168,3.076,11.917,11.917,0,0,0,9.331-4.2294A15.2906,15.2906,0,0,0,1186.9785,1400.5776Zm.2785,10.894q-4.3869,9.2278-15.4587,9.2278c-5.5707,0-10.0273-1.5379-13.23-4.6139a14.8358,14.8358,0,0,1-5.0136-11.5348c0-4.742,2.089-8.8433,5.9885-12.3037a27.2,27.2,0,0,1,14.4838-6.7927,31.7162,31.7162,0,0,1,3.76-.1282l2.089.1282a27.753,27.753,0,0,1,7.1027,1.5379v-8.8433a6.84,6.84,0,0,0-3.3425-6.1519,14.83,14.83,0,0,0-8.4953-2.3069,27.5975,27.5975,0,0,0-7.9382,1.41,21.784,21.784,0,0,0-5.2922,2.3069,2.7666,2.7666,0,0,1,2.5068,2.9478c0,1.0253-.5571,1.41-1.532,1.41a7.7508,7.7508,0,0,1-1.3927-.1281c-1.95-.6409-2.7853-1.6662-2.7853-3.2042,0-2.1787,1.5319-4.3575,4.7351-6.4082a23.6253,23.6253,0,0,1,12.6734-3.2041c12.8126,0,19.2189,5.1266,19.2189,15.5079V1413.65c0,2.0506.5571,3.0759,1.532,3.0759,1.5319,0,2.2283-1.2816,2.2283-3.7167h1.5319a6.4741,6.4741,0,0,1-2.7854,4.9984,9.59,9.59,0,0,1-6.1277,2.1788c-2.3676,0-3.8995-2.9478-4.4566-8.7152" style="fill:#195980"/><path d="M1217.7566,1406.8577c0,3.2041.6964,5.5111,1.95,6.7927s3.3424,1.9225,6.4063,1.9225q3.5514,0,6.2671-7.3054l1.5319,2.9478a21.3352,21.3352,0,0,1-2.3675,4.2294,10.2188,10.2188,0,0,1-7.3813,4.87,14.6612,14.6612,0,0,1-2.3675.1282c-3.8995,0-6.9634-1.2816-9.0524-3.9731-2.2283-2.6914-3.2031-6.1519-3.2031-10.6376V1371.1h-7.66l.8356-4.9984c3.76,0,6.4064-1.1535,8.0775-3.5886,1.1142-.769,2.2284-3.076,3.3424-6.6646a39.3769,39.3769,0,0,1,1.95-6.7927h1.6711v17.174h15.18v4.87h-15.18" style="fill:#195980"/><path d="M1240.4573,1348.2866c0-.7689.6963-1.9224,2.2282-3.46,1.3928-1.6661,2.6461-2.4351,3.3425-2.4351s1.8105.769,3.3424,2.4351c1.532,1.538,2.2283,2.6915,2.2283,3.46s-.6963,1.9225-2.2283,3.4605c-1.5319,1.6661-2.6461,2.4351-3.3424,2.4351s-1.95-.769-3.3425-2.4351C1241.1536,1350.2091,1240.4573,1349.0556,1240.4573,1348.2866Zm10.5844,66.1328c0,1.6661.8355,2.4351,2.646,2.4351h1.5319v1.9225c-1.81,0-4.4565.2563-8.2167.5126s-6.5456.3845-8.4953.5127v-1.7943h1.5319c1.81,0,2.646-.769,2.646-2.307V1371.1a1.9043,1.9043,0,0,0-2.0889-2.1788c-1.3928-.6408-2.089-1.2817-2.089-2.0506,2.7853-.2564,6.9633-.769,12.5341-1.41" style="fill:#195980"/><path d="M1271.0962,1393.4005c6.5456-2.5633,16.155-6.28,29.1069-11.4067-1.2533-8.0743-5.2921-12.0474-11.977-12.0474-5.4314,0-9.6094,1.9225-12.6733,5.7674-2.9246,3.8449-4.4566,9.2278-4.4566,16.1487Zm38.8557,17.5585c-5.2921,6.4082-12.3948,9.74-21.5865,9.74a24.54,24.54,0,0,1-18.6619-8.0743,29.7922,29.7922,0,0,1-.1392-39.7309,24.9657,24.9657,0,0,1,18.8011-7.9462,21.8732,21.8732,0,0,1,15.3194,5.7674,22.8322,22.8322,0,0,1,7.242,13.97l-39.4128,13.4572a24.1291,24.1291,0,0,0,4.7351,11.0222,16.5186,16.5186,0,0,0,13.6482,6.5363c6.9634,0,13.0912-3.2041,18.6619-9.4841.1393.5126.4178,1.2816.6963,2.4351a6.7987,6.7987,0,0,0,.6964,2.307" style="fill:#195980"/><path d="M1353.2641,1394.9384q0,9.2279,5.0137,14.9952a15.8953,15.8953,0,0,0,12.8127,5.7674,15.4193,15.4193,0,0,0,12.6733-6.1519c3.2032-4.2294,4.7351-9.4841,4.7351-16.1486,0-7.0491-1.5319-12.6883-4.7351-17.0459a14.6534,14.6534,0,0,0-12.6733-6.4082c-5.153,0-9.331,2.1788-12.8127,6.5364-3.3424,4.4857-5.0137,10.1249-5.0137,17.0458Zm0,15.5079V1433.9c0,1.6661,1.1142,2.4351,3.2032,2.4351h1.8105v1.7943c-1.95.2563-5.0137.3845-8.9131.6408s-6.8241.3845-8.9132.5126v-1.7942h1.6713c1.95,0,2.7853-.8972,2.7853-2.4352v-64.21c0-1.5379-.6964-2.1787-1.95-2.1787-1.3927-.769-2.0891-1.41-2.0891-2.0507,1.2535-.1281,3.3424-.2563,5.9885-.5126a32.9548,32.9548,0,0,0,5.9886-.6409v11.5348c4.0387-8.0743,10.1665-12.0474,18.5226-12.0474a24.2459,24.2459,0,0,1,18.5226,8.0743c4.8743,5.3829,7.3812,12.0475,7.3812,20.1218a27.4188,27.4188,0,0,1-7.52,19.481,23.793,23.793,0,0,1-18.1047,8.0743c-8.3562,0-14.4839-3.46-18.3835-10.2531" style="fill:#195980"/><path d="M1435.5714,1400.5776v-4.742a7.1565,7.1565,0,0,0-3.0639-4.9984,6.3531,6.3531,0,0,0-4.4565-1.41l-1.3927.1281a18.0205,18.0205,0,0,0-11.0021,4.7421,14.4007,14.4007,0,0,0-4.3174,10.125,10.277,10.277,0,0,0,3.0639,7.69,10.7535,10.7535,0,0,0,8.0776,3.076,11.72,11.72,0,0,0,9.3309-4.2294A15.2906,15.2906,0,0,0,1435.5714,1400.5776Zm.4178,10.894c-2.9246,6.1519-8.0775,9.2278-15.598,9.2278-5.4314,0-9.888-1.5379-13.23-4.6139a15.1939,15.1939,0,0,1-4.8744-11.5348,15.9447,15.9447,0,0,1,5.8493-12.3037,27.6945,27.6945,0,0,1,14.4838-6.7927,31.7153,31.7153,0,0,1,3.76-.1282l2.2284.1282a28.1088,28.1088,0,0,1,6.9633,1.5379v-8.8433a6.84,6.84,0,0,0-3.3424-6.1519,14.37,14.37,0,0,0-8.3561-2.3069,28.4706,28.4706,0,0,0-8.0775,1.41,18.2508,18.2508,0,0,0-5.1529,2.3069,2.76,2.76,0,0,1,2.3676,2.9478c0,1.0253-.4178,1.41-1.3927,1.41a6.9356,6.9356,0,0,1-1.3927-.1281c-1.95-.6409-2.9247-1.6662-2.9247-3.2042,0-2.1787,1.6713-4.3575,4.8745-6.4082a23.1294,23.1294,0,0,1,12.5341-3.2041c12.8126,0,19.2189,5.1266,19.2189,15.5079V1413.65q0,3.0759,1.6712,3.0759c1.3927,0,2.0891-1.2816,2.0891-3.7167h1.5319a6.3,6.3,0,0,1-2.6461,4.9984,9.9725,9.9725,0,0,1-6.2671,2.1788c-2.3675,0-3.76-2.9478-4.3173-8.7152" style="fill:#195980"/><path d="M1466.21,1414.4194a2.074,2.074,0,0,0,1.81,2.3069,14.951,14.951,0,0,0,3.3424.1282v1.9225c-1.95,0-4.8743.1281-8.7738.5126-4.0388.2564-6.9634.3845-8.9131.5127v-1.7943c1.5319,0,2.5068-.1282,2.7853-.1282a2.1,2.1,0,0,0,1.2534-2.1788v-44.8575c0-1.5379-.557-2.1787-1.95-2.1787-1.2534-.769-1.95-1.41-1.95-2.0507a111.248,111.248,0,0,0,11.977-1.1535v13.97c2.9247-9.6123,8.4953-14.4825,16.8515-14.4825,3.4816,0,5.2921,1.2816,5.2921,3.8449a4.0906,4.0906,0,0,1-1.81,3.2041,6.1539,6.1539,0,0,1-3.6209,1.41c-.9749,0-1.532-.3845-1.532-1.1534a2.4694,2.4694,0,0,1,1.2535-2.1788,6.4974,6.4974,0,0,0-.6964-.1282h-.9749c-5.0136,0-8.7739,3.5886-11.42,10.6376a46.4026,46.4026,0,0,0-2.9246,17.0459" style="fill:#195980"/><path d="M1501.3058,1406.8577c0,3.2041.6963,5.5111,1.95,6.7927s3.3424,1.9225,6.4063,1.9225q3.5512,0,6.267-7.3054l1.532,2.9478a31.4055,31.4055,0,0,1-2.2283,4.2294,10.7263,10.7263,0,0,1-7.52,4.87,13.83,13.83,0,0,1-2.2284.1282c-4.0387,0-7.1026-1.2816-9.1917-3.9731-2.2282-2.6914-3.2031-6.1519-3.2031-10.6376V1371.1h-7.52l.6962-4.9984c3.76,0,6.4064-1.1535,8.0776-3.5886,1.2534-.769,2.2283-3.076,3.3425-6.6646a62.74,62.74,0,0,1,1.95-6.7927h1.6712v17.174h15.18v4.87h-15.18" style="fill:#195980"/><path d="M1524.0065,1348.2866c0-.7689.6963-1.9224,2.2283-3.46,1.5319-1.6661,2.646-2.4351,3.3424-2.4351s1.81.769,3.3424,2.4351c1.5319,1.538,2.2283,2.6915,2.2283,3.46s-.6964,1.9225-2.2283,3.4605c-1.532,1.6661-2.6461,2.4351-3.3424,2.4351s-1.8105-.769-3.3424-2.4351C1524.7028,1350.2091,1524.0065,1349.0556,1524.0065,1348.2866Zm10.5843,66.1328c0,1.6661.8356,2.4351,2.6461,2.4351h1.532l.1392,1.9225c-1.8105,0-4.5959.2563-8.3561.5126s-6.5455.3845-8.4953.5127v-1.7943h1.532c1.81,0,2.6461-.769,2.6461-2.307V1371.1a1.9044,1.9044,0,0,0-2.0891-2.1788c-1.3926-.6408-2.089-1.2817-2.089-2.0506,2.9246-.2564,6.9634-.769,12.5341-1.41" style="fill:#195980"/><path d="M1590.4372,1408.0112a8.7242,8.7242,0,0,1,1.81,1.5379l1.6711,1.538c-5.2921,6.4082-12.1162,9.6123-20.7508,9.6123a26.6029,26.6029,0,0,1-19.6368-7.9461c-5.1529-5.2548-7.66-11.9193-7.66-19.8655a26.5277,26.5277,0,0,1,8.3561-19.7373,28.4819,28.4819,0,0,1,20.6116-8.2025,23.6762,23.6762,0,0,1,12.9519,3.7168q5.4314,3.268,5.4315,6.9208,0,2.6914-4.1781,3.46c-.8356.1281-1.3927.2563-1.6712.2563a2.72,2.72,0,0,1-2.7854-1.7943c0-1.1535.4178-1.9225,1.2534-2.1788a5.2935,5.2935,0,0,1,1.532-.5127l1.1141.1282c-2.7853-3.3323-7.3812-4.9984-13.6482-4.9984-6.1278,0-10.8629,2.0506-14.6231,6.1519-3.4817,3.9731-5.4314,9.4841-5.4314,16.2768s1.95,12.432,5.4314,16.79a17.7741,17.7741,0,0,0,14.2053,6.5363,22.1486,22.1486,0,0,0,10.7236-2.9477,15.0871,15.0871,0,0,0,5.2922-4.7421" style="fill:#195980"/><path d="M1602.832,1348.2866c0-.7689.6963-1.9224,2.2283-3.46,1.5319-1.6661,2.6461-2.4351,3.3424-2.4351s1.81.769,3.3425,2.4351c1.5319,1.538,2.2282,2.6915,2.2282,3.46s-.6963,1.9225-2.2282,3.4605c-1.532,1.6661-2.6461,2.4351-3.3425,2.4351s-1.8105-.769-3.3424-2.4351C1603.5283,1350.2091,1602.832,1349.0556,1602.832,1348.2866Zm10.5843,66.1328c0,1.6661.8357,2.4351,2.6461,2.4351h1.532l.1393,1.9225c-1.8105,0-4.5959.2563-8.3561.5126s-6.5456.3845-8.4954.5127v-1.7943h1.532c1.8105,0,2.6461-.769,2.6461-2.307V1371.1a1.9044,1.9044,0,0,0-2.089-2.1788c-1.3927-.6408-2.0891-1.2817-2.0891-2.0506,2.7854-.2564,6.9634-.769,12.5341-1.41" style="fill:#195980"/><path d="M1636.9526,1394.9384c0,6.1519,1.5319,11.15,4.8744,14.9952a16.0872,16.0872,0,0,0,12.8126,5.7674,15.4194,15.4194,0,0,0,12.6734-6.1519c3.2031-4.2294,4.7351-9.4841,4.7351-16.1486,0-7.0491-1.532-12.6883-4.5959-17.0459a14.8954,14.8954,0,0,0-12.8126-6.4082c-5.1529,0-9.3309,2.1788-12.6734,6.5364-3.3424,4.4857-5.0136,10.1249-5.0136,17.0458Zm0,15.5079V1433.9c0,1.6661.9749,2.4351,3.0639,2.4351h1.8105v1.7943c-1.95.2563-4.8744.3845-8.9132.6408-3.8995.2563-6.8241.3845-8.7738.5126v-1.7942h1.5319c1.95,0,2.9246-.8972,2.9246-2.4352v-64.21c0-1.5379-.6963-2.1787-2.089-2.1787-1.3926-.769-2.089-1.41-2.089-2.0507,1.2534-.1281,3.3425-.2563,5.9885-.5126a35.8139,35.8139,0,0,0,6.1278-.6409v11.5348c3.8995-8.0743,10.1666-12.0474,18.3833-12.0474a24.0383,24.0383,0,0,1,18.5226,8.0743c4.8745,5.3829,7.3813,12.0475,7.3813,20.1218a27.4184,27.4184,0,0,1-7.52,19.481,23.584,23.584,0,0,1-18.1048,8.0743c-8.356,0-14.4838-3.46-18.2441-10.2531" style="fill:#195980"/><path d="M1719.1206,1400.5776v-4.742a7.508,7.508,0,0,0-2.9246-4.9984,6.6872,6.6872,0,0,0-4.5959-1.41l-1.2533.1281a17.3521,17.3521,0,0,0-11.0022,4.7421,13.9884,13.9884,0,0,0-4.4566,10.125,10.277,10.277,0,0,0,3.0639,7.69c1.95,2.0507,4.7351,3.076,8.2168,3.076a12.12,12.12,0,0,0,9.3309-4.2294A15.8907,15.8907,0,0,0,1719.1206,1400.5776Zm.4178,10.894q-4.3869,9.2278-15.4587,9.2278c-5.5708,0-10.0273-1.5379-13.23-4.6139a14.8355,14.8355,0,0,1-5.0137-11.5348c0-4.742,1.95-8.8433,5.9885-12.3037a27.2,27.2,0,0,1,14.4839-6.7927,28.0877,28.0877,0,0,1,3.6209-.1282l2.2283.1282a26.8442,26.8442,0,0,1,6.9634,1.5379v-8.8433a6.84,6.84,0,0,0-3.3424-6.1519,14.37,14.37,0,0,0-8.3561-2.3069,27.5981,27.5981,0,0,0-7.9383,1.41,19.5233,19.5233,0,0,0-5.2921,2.3069,2.76,2.76,0,0,1,2.3675,2.9478c0,1.0253-.4178,1.41-1.3927,1.41a7.7493,7.7493,0,0,1-1.3926-.1281c-1.95-.6409-2.9246-1.6662-2.9246-3.2042,0-2.1787,1.6711-4.3575,4.8743-6.4082a23.6251,23.6251,0,0,1,12.6733-3.2041c12.8127,0,19.08,5.1266,19.08,15.5079V1413.65q0,3.0759,1.6713,3.0759c1.3926,0,2.089-1.2816,2.089-3.7167h1.532a6.3,6.3,0,0,1-2.6462,4.9984,9.8764,9.8764,0,0,1-6.1278,2.1788c-2.5068,0-3.8994-2.9478-4.4565-8.7152" style="fill:#195980"/><path d="M1750.038,1406.8577c0,3.2041.5571,5.5111,1.8106,6.7927s3.4816,1.9225,6.5455,1.9225c2.3676,0,4.4566-2.4352,6.1278-7.3054l1.5319,2.9478a20.8821,20.8821,0,0,1-2.2282,4.2294,10.7582,10.7582,0,0,1-7.3813,4.87,15.5418,15.5418,0,0,1-2.3675.1282c-3.8995,0-6.9634-1.2816-9.1916-3.9731-2.0891-2.6914-3.2032-6.1519-3.2032-10.6376V1371.1h-7.5205l.8356-4.9984c3.621,0,6.4063-1.1535,8.0775-3.5886,1.1142-.769,2.2284-3.076,3.2032-6.6646a48.1409,48.1409,0,0,1,2.0891-6.7927h1.6711v17.174h15.18v4.87h-15.18" style="fill:#195980"/><path d="M1772.7387,1348.2866c0-.7689.6963-1.9224,2.2282-3.46,1.3928-1.6661,2.5069-2.4351,3.3425-2.4351.6963,0,1.81.769,3.3424,2.4351,1.3927,1.538,2.2283,2.6915,2.2283,3.46s-.8356,1.9225-2.2283,3.4605c-1.5319,1.6661-2.6461,2.4351-3.3424,2.4351-.8356,0-1.95-.769-3.3425-2.4351C1773.435,1350.2091,1772.7387,1349.0556,1772.7387,1348.2866Zm10.5844,66.1328c0,1.6661.8355,2.4351,2.646,2.4351h1.5319v1.9225c-1.81,0-4.5957.2563-8.2167.5126-3.76.2564-6.5456.3845-8.4953.5127v-1.7943h1.5319c1.6712,0,2.646-.769,2.646-2.307V1371.1a1.9043,1.9043,0,0,0-2.0889-2.1788c-1.3928-.6408-2.089-1.2817-2.089-2.0506,2.7853-.2564,6.9633-.769,12.5341-1.41" style="fill:#195980"/><path d="M1840.1443,1371.228l-21.865,48.7024h-2.6462l-22.2828-49.7277a4.5826,4.5826,0,0,0-1.3927-1.7943,6.5817,6.5817,0,0,0-2.646-.3845v-1.9224c5.4314-.1282,10.8628-.3845,16.155-.6409v1.9225c-2.089,0-3.2031.1282-3.4817.6408a2.1351,2.1351,0,0,0-.4178.8972,2.3181,2.3181,0,0,0,.4178,1.538l16.4336,36.3986,15.8766-35.2452a5.8747,5.8747,0,0,0,.557-2.3069,3.3332,3.3332,0,0,0-.1393-1.0253c-.4177-.6409-1.6712-.8972-3.6209-.8972v-1.9225c4.5958.2564,9.1917.5127,13.7875.6409v1.9224a4.6994,4.6994,0,0,0-4.7351,3.2041" style="fill:#195980"/><path d="M1853.3747,1393.4005c6.5456-2.5633,16.155-6.28,29.1069-11.4067-1.2533-8.0743-5.2921-12.0474-11.977-12.0474-5.4314,0-9.6094,1.9225-12.6733,5.7674-2.9246,3.8449-4.4566,9.2278-4.4566,16.1487Zm38.7164,17.5585c-5.1528,6.4082-12.2555,9.74-21.4472,9.74a24.54,24.54,0,0,1-18.6619-8.0743,29.7922,29.7922,0,0,1-.1392-39.7309,24.9657,24.9657,0,0,1,18.8011-7.9462,21.8731,21.8731,0,0,1,15.3194,5.7674,22.8322,22.8322,0,0,1,7.242,13.97l-39.4128,13.4572a25.5978,25.5978,0,0,0,4.5959,11.0222,16.9656,16.9656,0,0,0,13.7875,6.5363c6.9633,0,13.0911-3.2041,18.6619-9.4841.1392.5126.4178,1.2816.6963,2.4351a15.2429,15.2429,0,0,0,.557,2.307" style="fill:#195980"/><path d="M907.05,1352.26l-9.61,2.307-18.3833,3.5886a3.1668,3.1668,0,0,1-1.8105-2.1788,2.8586,2.8586,0,0,1,.557-2.82l27.7143-7.69a3.8654,3.8654,0,0,1,2.9246,2.9478,4.0168,4.0168,0,0,1-1.3926,3.8449" style="fill:#195980"/><path d="M995.4853,198.1407l14.4838,23.3259h54.0359l54.0359-23.3259" style="fill:#abc92c"/><path d="M1086.4272,436.1417l-59.05,11.7911,9.61,30.1186,8.6346,27.0427L1015.54,499.583l-12.5341,59.8527.5571.5127,8.7739,8.9715,37.6023,38.193,4.0387,3.973h22.2829l62.81-67.6707-12.5341-18.84,9.7488-50.8813-9.0524-8.2025-33.5635-30.7594" style="fill:#e78519"/></svg>