<?xml version="1.0" encoding="utf-8"?>
<!-- Generator: Adobe Illustrator 21.1.0, SVG Export Plug-In . SVG Version: 6.00 Build 0)  -->
<svg version="1.1" id="Layer_1" xmlns="http://www.w3.org/2000/svg" xmlns:xlink="http://www.w3.org/1999/xlink" x="0px" y="0px"
	 viewBox="0 0 988.5 595.3" style="enable-background:new 0 0 988.5 595.3;" xml:space="preserve">
<style type="text/css">
	.st0{fill:#EEEBC8;}
	.st1{fill:#1D338D;}
	.st2{fill:#49803E;}
	.st3{fill:#FFFFFF;stroke:#222221;stroke-width:1.9768;stroke-linecap:round;stroke-linejoin:round;stroke-miterlimit:10;}
	.st4{fill:none;stroke:#222221;stroke-width:1.9768;stroke-linecap:round;stroke-linejoin:round;stroke-miterlimit:10;}
	.st5{fill:#222221;}
	.st6{fill:#CFB748;}
	.st7{fill:none;stroke:#7F6618;stroke-width:1.6073;}
	.st8{fill:#F4DE78;}
	.st9{fill:#F6EA9A;}
	.st10{fill:none;stroke:#7F6618;stroke-width:1.6066;stroke-miterlimit:3.8637;}
	.st11{fill:none;stroke:#7F6618;stroke-width:1.5369;stroke-miterlimit:3.8637;}
	.st12{fill:none;stroke:#7F6618;stroke-width:1.0246;stroke-miterlimit:3.8637;}
	.st13{fill:none;stroke:#7F6618;stroke-width:1.071;stroke-miterlimit:3.8637;}
	.st14{fill:none;stroke:#7F6618;stroke-width:1.2945;stroke-miterlimit:3.8637;}
	.st15{fill:#E9D05D;}
	.st16{fill:#F6EDC1;}
	.st17{fill:none;stroke:#7F6618;stroke-width:1.3212;stroke-miterlimit:3.8637;}
	.st18{fill:none;stroke:#7F6618;stroke-width:1.417;stroke-miterlimit:3.8637;}
	.st19{fill:none;stroke:#7F6618;stroke-width:1.3428;stroke-miterlimit:3.8637;}
	.st20{fill:none;stroke:#7F6618;stroke-width:2.6096;stroke-linecap:round;stroke-linejoin:round;stroke-miterlimit:1;}
</style>
<g>
	<rect x="-0.6" y="-0.6" class="st0" width="372" height="594.9"/>
	<g>
		<rect x="370.2" y="296.2" class="st1" width="618.7" height="298.1"/>
		<rect x="370.2" y="-0.6" class="st2" width="618.7" height="296.8"/>
	</g>
	<g>
		<g>
			<polygon class="st3" points="273.9,437.1 249.2,233.2 266.4,205 266.4,205 266.4,137.4 242.2,137.4 242.2,159.9 221.5,159.9 
				221.5,137.4 197.3,137.4 197.3,159.9 176.6,159.9 176.6,137.4 152.4,137.4 152.4,159.9 131.7,159.9 131.7,137.4 107.5,137.4 
				107.5,159.9 107.5,165.8 107.5,205 107.5,205 124.7,233.2 100.6,436.6 186.7,423.1 			"/>
			<line class="st4" x1="107.5" y1="159.8" x2="266.4" y2="159.8"/>
			<line class="st4" x1="107.5" y1="182" x2="266.4" y2="182"/>
			<line class="st4" x1="107.5" y1="204.7" x2="266.4" y2="204.7"/>
			<line class="st4" x1="124.7" y1="233.2" x2="249.3" y2="233.2"/>
			<line class="st4" x1="121.8" y1="257.6" x2="252.1" y2="257.6"/>
			<line class="st4" x1="119.1" y1="282" x2="255.1" y2="282"/>
			<line class="st4" x1="116.1" y1="306.4" x2="257.9" y2="306.4"/>
			<line class="st4" x1="113.3" y1="330.8" x2="260.8" y2="330.8"/>
			<line class="st4" x1="110.2" y1="355.1" x2="264" y2="355.1"/>
			<line class="st4" x1="107.5" y1="379.5" x2="266.4" y2="379.5"/>
			<line class="st4" x1="104.3" y1="403.9" x2="269.5" y2="403.9"/>
			<line class="st4" x1="121.7" y1="160.4" x2="121.7" y2="181.8"/>
			<line class="st4" x1="164.6" y1="160.4" x2="164.6" y2="181.6"/>
			<line class="st4" x1="142.8" y1="182.3" x2="142.8" y2="204.6"/>
			<line class="st4" x1="187" y1="182.3" x2="187" y2="204.6"/>
			<line class="st4" x1="164.6" y1="205.3" x2="166.9" y2="233.3"/>
			<line class="st4" x1="120.1" y1="205.3" x2="130" y2="233.3"/>
			<line class="st4" x1="142.8" y1="233.7" x2="142.8" y2="257.6"/>
			<line class="st4" x1="142.8" y1="282.5" x2="142.8" y2="306.4"/>
			<line class="st4" x1="142.8" y1="331.2" x2="142.8" y2="355.2"/>
			<line class="st4" x1="142.8" y1="379.7" x2="142.8" y2="403.6"/>
			<line class="st4" x1="187.3" y1="282.5" x2="187.3" y2="306.4"/>
			<line class="st4" x1="187.3" y1="331.2" x2="187.3" y2="355.2"/>
			<line class="st4" x1="187.3" y1="379.7" x2="187.3" y2="403.6"/>
			<line class="st4" x1="166.2" y1="257.8" x2="166.2" y2="281.7"/>
			<line class="st4" x1="166.2" y1="306.5" x2="166.2" y2="330.5"/>
			<line class="st4" x1="166.2" y1="355.3" x2="166.2" y2="379.2"/>
			<line class="st4" x1="118.9" y1="306.5" x2="118.9" y2="330.5"/>
			<line class="st4" x1="118.9" y1="355.3" x2="118.9" y2="379.2"/>
			<g>
				<line class="st4" x1="253" y1="160.4" x2="253" y2="181.8"/>
				<line class="st4" x1="210.2" y1="160.4" x2="210.2" y2="181.6"/>
				<line class="st4" x1="231.9" y1="182.3" x2="231.9" y2="204.6"/>
				<line class="st4" x1="210.2" y1="205.3" x2="207.9" y2="233.3"/>
				<line class="st4" x1="254.7" y1="205.3" x2="244.8" y2="233.3"/>
				<line class="st4" x1="231.9" y1="233.7" x2="231.9" y2="257.6"/>
				<line class="st4" x1="231.9" y1="282.5" x2="231.9" y2="306.4"/>
				<line class="st4" x1="231.9" y1="379.7" x2="231.9" y2="403.6"/>
				<line class="st4" x1="208.6" y1="257.8" x2="208.6" y2="281.7"/>
				<line class="st4" x1="208.6" y1="306.5" x2="208.6" y2="330.5"/>
				<line class="st4" x1="208.6" y1="355.3" x2="208.6" y2="379.2"/>
				<line class="st4" x1="255.8" y1="306.5" x2="255.8" y2="330.5"/>
				<line class="st4" x1="255.8" y1="355.3" x2="255.8" y2="379.2"/>
			</g>
			<line class="st4" x1="187.3" y1="233.7" x2="187.3" y2="257.6"/>
			<polygon class="st5" points="205.5,254.3 194.5,254.3 194.5,243.5 180.4,243.5 180.4,254.3 170,254.3 170,268.5 180.4,268.5 
				180.4,292.2 194.5,292.2 194.5,268.5 205.5,268.5 			"/>
		</g>
		<g>
			<path class="st6" d="M112.6,326.1c0,0,0.3-2.9,4-2.9s4.6,2.9,4.6,2.9l0.4,3.8L113,330L112.6,326.1z"/>
			<path class="st7" d="M112.6,326.1c0,0,0.3-2.9,4-2.9s4.6,2.9,4.6,2.9l0.4,3.8L113,330L112.6,326.1z"/>
			<path class="st6" d="M114.7,328.9c1-1.7,4.5-0.8,5.2,0.4l10.5,98.4l-5.2-0.4L114.7,328.9z"/>
			<path class="st7" d="M114.7,328.9c1-1.7,4.5-0.8,5.2,0.4l10.5,98.4l-5.2-0.4L114.7,328.9z"/>
			<path class="st6" d="M92.4,363.1c-1.7-1.3-2.1-5.6-1.4-6.4l56.9-9.5c1.3,1.1,2.4,4.2,1.4,6.4L92.4,363.1z"/>
			<path class="st7" d="M92.4,363.1c-1.7-1.3-2.1-5.6-1.4-6.4l56.9-9.5c1.3,1.1,2.4,4.2,1.4,6.4L92.4,363.1z"/>
			<path class="st8" d="M98.2,354.8c-0.6,0.1-1.3,0.3-1.8,0.6c-0.7,1.8,0.1,5.3,0.3,8.1c-1.5,0.1-2.9,0.3-4.3,0.4
				c-3.6,16.2-3.8,36.4,10.6,64.3c11.3-30.4,46.6-20.9,57.4-8.8c-15.6-24-12.8-48.8-11.2-65c-1.5,0.3-3.1,0.7-4.5,1
				c-1.8-2-2.5-5.6-1.7-7.5c-0.7-0.1-1.7-0.3-2.6-0.1c-0.6,0.1-1.3,0.3-1.8,0.6c-0.7,1.8,0.1,5.4,0.3,8.2c-2.4,0.6-4.6,1-6.8,1.4
				c-2.1-1.8-3.1-5.9-2.1-7.9c-0.7-0.1-1.7-0.3-2.6-0.1c-0.6,0.1-1.1,0.3-1.8,0.6c-0.7,2,0.3,5.9,0.3,8.6c-2.8,0.6-5.4,1-7.9,1.4
				c-2.2-1.8-3.3-6-2.4-8.2c-0.7-0.1-1.7-0.3-2.6-0.1c-0.6,0.1-1.1,0.3-1.8,0.6c-0.7,2,0.3,5.9,0.3,8.6c-2.9,0.4-5.7,0.8-8.4,1.1
				c-2.1-2-2.9-5.9-2.1-7.9C100.2,354.7,99.2,354.6,98.2,354.8z"/>
			<path class="st9" d="M91.1,392.6c0.4,3.1,1,6.3,1.8,9.6c13,8.6,38.5-0.1,39-8.4c1.5-21.6-24.1-36.7-36.2-24.7
				C92.6,372.3,91.8,384,91.1,392.6z"/>
			<path class="st6" d="M141.9,347.6c-0.4,0-1,0-1.4,0.1c-0.6,0.1-1.3,0.3-1.8,0.6c-0.3,0.6-0.3,1.5-0.3,2.5l4.3-0.7
				c0-0.8,0-1.7,0.3-2.2C142.7,347.7,142.3,347.6,141.9,347.6z M128.1,349.8c-0.3,0-0.4,0-0.7,0.1c-0.6,0.1-1.1,0.3-1.7,0.7
				c-0.3,0.7-0.3,1.5-0.3,2.5l4.3-0.7c0-0.8,0-1.7,0.3-2.2C129.5,349.8,128.8,349.8,128.1,349.8z M138.5,351.5
				c0,0.6,0.1,1.1,0.1,1.7C138.5,352.6,138.5,352,138.5,351.5z M113.6,352.3c-0.3,0-0.4,0-0.7,0.1c-0.6,0.1-1.1,0.3-1.7,0.6
				c-0.3,0.7-0.3,1.5-0.3,2.5l4.2-0.7c0-0.8,0.1-1.7,0.4-2.2C115,352.3,114.3,352.2,113.6,352.3z M130,354.3c0.1,0.3,0.1,0.7,0.3,1
				l-4.6,0.7c0.1,1.1,0.3,2.2,0.3,3.2c3.2,1.3,4.5-0.3,6.3-1.3C131.1,357.1,130.3,355.7,130,354.3z M99.1,354.7
				c-0.3,0-0.4,0-0.7,0.1c-0.6,0.1-1.3,0.3-1.8,0.7c-0.3,0.7-0.3,1.5-0.3,2.5l4.3-0.7c0-0.8,0-1.7,0.3-2.2
				C100.3,354.7,99.8,354.7,99.1,354.7z M115.8,357.6l-4.7,0.7c0.1,1.1,0.3,2.2,0.3,3.2c2.2,0.7,4.5,0.3,6.6-1
				C116.9,359.9,116.2,358.9,115.8,357.6z M100.7,358.2c0,0.3,0.1,0.4,0.1,0.7C100.7,358.6,100.7,358.5,100.7,358.2z M101.2,360
				l-4.6,0.8c0.1,0.8,0.1,1.8,0.1,2.6c2.5,1.8,5.6-0.1,6.3-0.7C102.1,362.1,101.6,361.1,101.2,360z M134.6,403.1
				c-2.8,0-5.9,0.3-9.2,1c-22.3,5-23.4,22.2-22.4,24c11.3-30.4,47.1-20.4,57.4-8.8C157.1,414.1,149.8,403.5,134.6,403.1z"/>
			<path class="st10" d="M98.2,354.8c-0.6,0.1-1.3,0.3-1.8,0.6c-0.7,1.8,0.1,5.3,0.3,8.1c-1.5,0.1-2.9,0.3-4.3,0.4
				c-3.6,16.2-3.8,36.4,10.6,64.3c11.3-30.4,46.6-20.9,57.4-8.8c-15.6-24-12.8-48.8-11.2-65c-1.5,0.3-3.1,0.7-4.5,1
				c-1.8-2-2.5-5.6-1.7-7.5c-0.7-0.1-1.7-0.3-2.6-0.1c-0.6,0.1-1.3,0.3-1.8,0.6c-0.7,1.8,0.1,5.4,0.3,8.2c-2.4,0.6-4.6,1-6.8,1.4
				c-2.1-1.8-3.1-5.9-2.1-7.9c-0.7-0.1-1.7-0.3-2.6-0.1c-0.6,0.1-1.1,0.3-1.8,0.6c-0.7,2,0.3,5.9,0.3,8.6c-2.8,0.6-5.4,1-7.9,1.4
				c-2.2-1.8-3.3-6-2.4-8.2c-0.7-0.1-1.7-0.3-2.6-0.1c-0.6,0.1-1.1,0.3-1.8,0.6c-0.7,2,0.3,5.9,0.3,8.6c-2.9,0.4-5.7,0.8-8.4,1.1
				c-2.1-2-2.9-5.9-2.1-7.9C100.2,354.7,99.2,354.6,98.2,354.8z"/>
			<path class="st8" d="M108,339.5c0.3,3.6,1.4,8.9,1.1,10.7c-0.6,1-1.7-1.3-3.1-2c-1.1-0.6-2.2-0.8-3.6-1c-2.1-0.1-4.9-0.6-7.4-0.4
				c-2.2,0.1-4.7,0.1-4.7,0.1s1-1.5,3.2-3.2c1.7-1.3,3.9-2.5,5.9-3.1C102.3,339.9,108,339.5,108,339.5z"/>
			<path class="st7" d="M108,339.5c0.3,3.6,1.4,8.9,1.1,10.7c-0.6,1-1.7-1.3-3.1-2c-1.1-0.6-2.2-0.8-3.6-1c-2.1-0.1-4.9-0.6-7.4-0.4
				c-2.2,0.1-4.7,0.1-4.7,0.1s1-1.5,3.2-3.2c1.7-1.3,3.9-2.5,5.9-3.1C102.3,339.9,108,339.5,108,339.5z"/>
			<path class="st8" d="M108.7,350.1c-0.7-2.5-1.1-4.3-3.9-5.9c-1.8-1.3-1.1-2.1-1.5-3.2l5.2-1.8c0.3,3.6,1.1,8.8,0.7,10.6
				L108.7,350.1z"/>
			<path class="st7" d="M108.7,350.1c-0.7-2.5-1.1-4.3-3.9-5.9c-1.8-1.3-1.1-2.1-1.5-3.2l5.2-1.8c0.3,3.6,1.1,8.8,0.7,10.6
				L108.7,350.1z"/>
			<path class="st8" d="M102.3,334.9c0.4-1.1,1.7-1.5,2.8-2c2-0.6,4.3-0.1,6.4,0.3c2.9,0.6,8.6,2.9,8.6,2.9l1,10.5
				c-2.2-2.6-4.9-4-8.9-5.2c-2-0.6-8.2-1.8-6.8,3.1c-0.7,0.1-1.8-0.3-2.4-1.8L102.3,334.9z"/>
			<path class="st7" d="M102.3,334.9c0.4-1.1,1.7-1.5,2.8-2c2-0.6,4.3-0.1,6.4,0.3c2.9,0.6,8.6,2.9,8.6,2.9l1,10.5
				c-2.2-2.6-4.9-4-8.9-5.2c-2-0.6-8.2-1.8-6.8,3.1c-0.7,0.1-1.8-0.3-2.4-1.8L102.3,334.9z"/>
			<path class="st6" d="M261.9,326.1c0,0-0.3-2.9-4-2.9c-3.8,0-4.6,2.9-4.6,2.9l-0.4,3.8l8.6,0.1L261.9,326.1z"/>
			<path class="st7" d="M261.9,326.1c0,0-0.3-2.9-4-2.9c-3.8,0-4.6,2.9-4.6,2.9l-0.4,3.8l8.6,0.1L261.9,326.1z"/>
			<path class="st6" d="M259.6,328.9c-1-1.7-4.5-0.8-5.2,0.4L244,427.7l5.2-0.4L259.6,328.9z"/>
			<path class="st7" d="M259.6,328.9c-1-1.7-4.5-0.8-5.2,0.4L244,427.7l5.2-0.4L259.6,328.9z"/>
			<path class="st6" d="M282,363.1c1.7-1.3,2.1-5.6,1.4-6.4l-56.9-9.5c-1.3,1.1-2.4,4.2-1.4,6.4L282,363.1z"/>
			<path class="st7" d="M282,363.1c1.7-1.3,2.1-5.6,1.4-6.4l-56.9-9.5c-1.3,1.1-2.4,4.2-1.4,6.4L282,363.1z"/>
			<path class="st8" d="M276.1,354.8c0.6,0.1,1.3,0.3,1.8,0.6c0.7,1.8-0.1,5.3-0.3,8.1c1.5,0.1,2.9,0.3,4.3,0.4
				c3.6,16.2,3.8,36.4-10.6,64.3c-11.3-30.4-46.6-20.9-57.4-8.8c15.6-24,12.8-48.8,11.2-65c1.5,0.3,3.1,0.7,4.5,1
				c1.8-2,2.5-5.6,1.7-7.5c0.7-0.1,1.7-0.3,2.6-0.1c0.6,0.1,1.3,0.3,1.8,0.6c0.7,1.8-0.1,5.4-0.3,8.2c2.4,0.6,4.6,1,6.8,1.4
				c2.1-1.8,3.1-5.9,2.1-7.9c0.7-0.1,1.7-0.3,2.6-0.1c0.6,0.1,1.1,0.3,1.8,0.6c0.7,2-0.3,5.9-0.3,8.6c2.8,0.6,5.4,1,7.9,1.4
				c2.2-1.8,3.3-6,2.4-8.2c0.7-0.1,1.7-0.3,2.6-0.1c0.6,0.1,1.1,0.3,1.8,0.6c0.7,2-0.3,5.9-0.3,8.6c2.9,0.4,5.7,0.8,8.4,1.1
				c2.1-2,2.9-5.9,2.1-7.9C274.1,354.7,275.1,354.6,276.1,354.8z"/>
			<path class="st9" d="M226.6,387.6c0.4,3.1,1,6.3,1.8,9.6c13,8.6,38.5-0.1,39-8.4c1.5-21.6-24.1-36.7-36.2-24.7
				C228.1,367.1,227.3,378.8,226.6,387.6z"/>
			<path class="st6" d="M232.6,347.6c0.4,0,1,0,1.4,0.1c0.6,0.1,1.3,0.3,1.8,0.6c0.3,0.6,0.3,1.5,0.3,2.5l-4.3-0.7
				c0-0.8,0-1.7-0.3-2.2C231.6,347.7,232,347.6,232.6,347.6z M246.4,349.8c0.3,0,0.4,0,0.7,0.1c0.6,0.1,1.1,0.3,1.7,0.7
				c0.3,0.7,0.3,1.5,0.3,2.5l-4.3-0.7c0-0.8,0-1.7-0.3-2.2C245,349.8,245.6,349.8,246.4,349.8z M236,351.5c0,0.6-0.1,1.1-0.1,1.7
				C235.8,352.6,236,352,236,351.5z M260.9,352.3c0.3,0,0.4,0,0.7,0.1c0.6,0.1,1.1,0.3,1.7,0.6c0.3,0.7,0.3,1.5,0.3,2.5l-4.2-0.7
				c0-0.8-0.1-1.7-0.4-2.2C259.5,352.3,260.2,352.2,260.9,352.3z M244.5,354.3c-0.1,0.3-0.1,0.7-0.3,1l4.6,0.7
				c-0.1,1.1-0.3,2.2-0.3,3.2c-3.2,1.3-4.5-0.3-6.3-1.3C243.3,357.1,244,355.7,244.5,354.3z M275.4,354.7c0.3,0,0.4,0,0.7,0.1
				c0.6,0.1,1.3,0.3,1.8,0.7c0.3,0.7,0.3,1.5,0.3,2.5l-4.3-0.7c0-0.8,0-1.7-0.3-2.2C274,354.7,274.7,354.7,275.4,354.7z
				 M258.7,357.6l4.7,0.7c-0.1,1.1-0.3,2.2-0.3,3.2c-2.2,0.7-4.5,0.3-6.6-1C257.4,359.9,258.3,358.9,258.7,357.6z M273.7,358.2
				c0,0.3-0.1,0.4-0.1,0.7C273.6,358.6,273.6,358.5,273.7,358.2z M273.2,360l4.6,0.8c-0.1,0.8-0.1,1.8-0.1,2.6
				c-2.5,1.8-5.6-0.1-6.3-0.7C272.2,362.1,272.8,361.1,273.2,360z M239.7,403.1c2.8,0,5.9,0.3,9.2,1c22.3,5,23.4,22.2,22.4,24
				c-11.3-30.4-47.1-20.4-57.4-8.8C217.3,414.1,224.7,403.5,239.7,403.1z"/>
			<path class="st10" d="M276.1,354.8c0.6,0.1,1.3,0.3,1.8,0.6c0.7,1.8-0.1,5.3-0.3,8.1c1.5,0.1,2.9,0.3,4.3,0.4
				c3.6,16.2,3.8,36.4-10.6,64.3c-11.3-30.4-46.6-20.9-57.4-8.8c15.6-24,12.8-48.8,11.2-65c1.5,0.3,3.1,0.7,4.5,1
				c1.8-2,2.5-5.6,1.7-7.5c0.7-0.1,1.7-0.3,2.6-0.1c0.6,0.1,1.3,0.3,1.8,0.6c0.7,1.8-0.1,5.4-0.3,8.2c2.4,0.6,4.6,1,6.8,1.4
				c2.1-1.8,3.1-5.9,2.1-7.9c0.7-0.1,1.7-0.3,2.6-0.1c0.6,0.1,1.1,0.3,1.8,0.6c0.7,2-0.3,5.9-0.3,8.6c2.8,0.6,5.4,1,7.9,1.4
				c2.2-1.8,3.3-6,2.4-8.2c0.7-0.1,1.7-0.3,2.6-0.1c0.6,0.1,1.1,0.3,1.8,0.6c0.7,2-0.3,5.9-0.3,8.6c2.9,0.4,5.7,0.8,8.4,1.1
				c2.1-2,2.9-5.9,2.1-7.9C274.1,354.7,275.1,354.6,276.1,354.8z"/>
			<path class="st8" d="M266.8,338.2c-0.4,4.2-1.7,10.3-1.4,12.3c0.6,1,1.8-1.7,3.2-2.5c1.3-0.7,2.4-1.1,3.8-1.4
				c2.1-0.4,5-1.1,7.5-1.1c2.4,0,4.9-0.3,4.9-0.3s-1-1.7-3.2-3.3c-1.7-1.3-3.9-2.5-5.9-3.1C272.6,338.2,266.8,338.2,266.8,338.2z"/>
			<path class="st7" d="M266.8,338.2c-0.4,4.2-1.7,10.3-1.4,12.3c0.6,1,1.8-1.7,3.2-2.5c1.3-0.7,2.4-1.1,3.8-1.4
				c2.1-0.4,5-1.1,7.5-1.1c2.4,0,4.9-0.3,4.9-0.3s-1-1.7-3.2-3.3c-1.7-1.3-3.9-2.5-5.9-3.1C272.6,338.2,266.8,338.2,266.8,338.2z"/>
			<path class="st8" d="M265.8,350.5c0.8-2.9,1.1-5.2,4-7c1.8-1.5,1.1-2.5,1.7-3.8l-5.2-1.5c-0.4,4.2-1.3,10.2-1,12.1L265.8,350.5z"
				/>
			<path class="st7" d="M265.8,350.5c0.8-2.9,1.1-5.2,4-7c1.8-1.5,1.1-2.5,1.7-3.8l-5.2-1.5c-0.4,4.2-1.3,10.2-1,12.1L265.8,350.5z"
				/>
			<path class="st8" d="M272.8,332.5c-0.4-1.3-1.7-1.7-2.8-2c-2.1-0.4-4.3,0.3-6.6,1c-2.9,0.8-8.9,4.2-8.9,4.2l-1.4,12.1
				c2.4-3.2,5-5.2,9.3-6.7c2.1-0.8,8.5-2.8,6.8,2.9c0.7,0,1.8-0.6,2.4-2.2L272.8,332.5z"/>
			<path class="st7" d="M272.8,332.5c-0.4-1.3-1.7-1.7-2.8-2c-2.1-0.4-4.3,0.3-6.6,1c-2.9,0.8-8.9,4.2-8.9,4.2l-1.4,12.1
				c2.4-3.2,5-5.2,9.3-6.7c2.1-0.8,8.5-2.8,6.8,2.9c0.7,0,1.8-0.6,2.4-2.2L272.8,332.5z"/>
			<path class="st6" d="M164.4,365.6c3.1-6,11.8-10.3,22.9-10.3c11,0,19.8,4.3,22.9,10.3H164.4z"/>
			<path class="st11" d="M164.4,365.6c3.1-6,11.8-10.3,22.9-10.3c11,0,19.8,4.3,22.9,10.3H164.4z"/>
			<polygon class="st6" points="158.3,367.8 154.7,383.7 219.8,383.7 216.2,367.8 			"/>
			<polygon class="st11" points="158.3,367.8 154.7,383.7 219.8,383.7 216.2,367.8 			"/>
			<polygon class="st8" points="163.7,370.4 160,383.7 214.3,383.7 210.7,370.4 			"/>
			<polygon class="st8" points="213,350.8 213.8,352.2 208.1,355.5 210.2,356.9 211.1,362.4 213.6,363.8 213.6,365.6 217.1,365.6 
				217.1,363.8 219.6,362.4 220.6,356.9 222.7,355.5 217.1,352.2 217.8,350.8 215.5,349.5 			"/>
			<polygon class="st11" points="213,350.8 213.8,352.2 208.1,355.5 210.2,356.9 211.1,362.4 213.6,363.8 213.6,365.6 217.1,365.6 
				217.1,363.8 219.6,362.4 220.6,356.9 222.7,355.5 217.1,352.2 217.8,350.8 215.5,349.5 			"/>
			<path class="st12" d="M217.6,356.1l-0.4,4.6L217.6,356.1z M213.4,356.1l0.4,4.6L213.4,356.1z"/>
			<path class="st12" d="M220.1,362.6l-2.6-1.5h-3.9l-2.6,1.5 M220.3,357.3l-2.5-1.5H213l-2.5,1.5"/>
			<path class="st6" d="M218,384.9c2.5,7.5,4.9,17-3.1,24.4c-8.2,7.8-23.1,3.5-27.6,9.1c-4.5-5.6-19.4-1.3-27.6-9.1
				c-7.9-7.5-5.7-16.9-3.1-24.4H218z"/>
			<path class="st11" d="M218,384.9c2.5,7.5,4.9,17-3.1,24.4c-8.2,7.8-23.1,3.5-27.6,9.1c-4.5-5.6-19.4-1.3-27.6-9.1
				c-7.9-7.5-5.7-16.9-3.1-24.4H218z"/>
			<path class="st8" d="M211.7,388.4c2.1,5.3,3.9,12-2.5,17.3c-6.6,5.4-18.4,2.4-22,6.4c-3.5-3.9-15.5-0.8-22-6.4
				c-6.3-5.3-4.5-11.8-2.5-17.3H211.7z"/>
			<path class="st9" d="M204.2,389.3c1.4,3.8,2.6,8.4-1.7,12c-4.6,3.8-12.8,1.7-15.2,4.5c-2.5-2.8-10.7-0.6-15.2-4.5
				c-4.3-3.6-3.1-8.2-1.7-12H204.2z"/>
			<path class="st12" d="M189.7,390.2c0.3,5.6,0.3,21.2,6.1,25 M189.7,390.2c3.2,4.3,21,7.7,30.5,8.8 M189.7,390.2
				c1.7,4.6,11.3,21.2,20.6,22.2 M189.7,390.2c1.7,4.6,17.8,15.6,27.2,16.6"/>
			<rect x="200.1" y="368.8" class="st12" width="5.7" height="14.8"/>
			<rect x="190.1" y="368.8" class="st12" width="5.7" height="14.8"/>
			<polygon class="st12" points="213.1,368.9 213.1,368.9 216,383.4 210.2,383.4 210.2,368.9 			"/>
			<polygon class="st8" points="184.8,340.2 185.5,341.7 179.9,345.1 182,346.5 183,351.9 185.5,353.3 185.5,355.1 189,355.1 
				189,353.3 191.5,351.9 192.3,346.5 194.6,345.1 188.8,341.7 189.5,340.2 187.2,339.1 			"/>
			<polygon class="st11" points="184.8,340.2 185.5,341.7 179.9,345.1 182,346.5 183,351.9 185.5,353.3 185.5,355.1 189,355.1 
				189,353.3 191.5,351.9 192.3,346.5 194.6,345.1 188.8,341.7 189.5,340.2 187.2,339.1 			"/>
			<path class="st12" d="M189.3,345.5l-0.4,4.6L189.3,345.5z M185.1,345.5l0.4,4.6L185.1,345.5z"/>
			<path class="st12" d="M191.8,352l-2.6-1.5h-3.9l-2.6,1.5 M192.2,346.9l-2.5-1.5h-4.9l-2.5,1.5"/>
			<polygon class="st8" points="161.4,350.8 160.7,352.2 166.3,355.5 164.2,356.9 163.2,362.4 160.7,363.8 160.7,365.6 157.2,365.6 
				157.2,363.8 154.7,362.4 153.8,356.9 151.6,355.5 157.3,352.2 156.6,350.8 159,349.5 			"/>
			<polygon class="st11" points="161.4,350.8 160.7,352.2 166.3,355.5 164.2,356.9 163.2,362.4 160.7,363.8 160.7,365.6 
				157.2,365.6 157.2,363.8 154.7,362.4 153.8,356.9 151.6,355.5 157.3,352.2 156.6,350.8 159,349.5 			"/>
			<path class="st12" d="M156.9,356.1l0.4,4.6L156.9,356.1z M161.1,356.1l-0.4,4.6L161.1,356.1z"/>
			<path class="st12" d="M154.4,362.6l2.6-1.5h3.9l2.6,1.5 M154,357.3l2.5-1.5h4.9l2.5,1.5"/>
			<path class="st12" d="M184.8,390.2c-0.3,5.6-0.3,21.2-6.1,25 M184.8,390.2c-3.2,4.3-21,7.7-30.5,8.8 M184.8,390.2
				c-1.7,4.6-11.3,21.2-20.6,22.2 M184.8,390.2c-1.7,4.6-17.8,15.6-27.2,16.6"/>
			<rect x="168.5" y="368.8" class="st12" width="5.7" height="14.8"/>
			<path class="st8" d="M165.3,390.4c-4.9-0.1-9.3-0.3-10.9,3.6c0.3-3.1,0.1-4.5-1.7-7.1h34.4h34.6c-1.8,2.6-2,4-1.7,7.1
				c-1.5-3.8-6.1-3.8-10.9-3.6c-7.7,0.3-17.3,3.3-21.9-1.8C182.7,393.6,173.1,390.5,165.3,390.4z"/>
			<path class="st11" d="M165.3,390.4c-4.9-0.1-9.3-0.3-10.9,3.6c0.3-3.1,0.1-4.5-1.7-7.1h34.4h34.6c-1.8,2.6-2,4-1.7,7.1
				c-1.5-3.8-6.1-3.8-10.9-3.6c-7.7,0.3-17.3,3.3-21.9-1.8C182.7,393.6,173.1,390.5,165.3,390.4z"/>
			<rect x="178.7" y="368.8" class="st12" width="5.7" height="14.8"/>
			<polygon class="st12" points="164.2,383.4 164.2,368.9 161.4,368.9 158.3,383.4 			"/>
			<path class="st8" d="M169.7,363.1c3.6-3.2,9.6-5.4,17.4-5.4s13.8,2.2,17.4,5.4H169.7z"/>
			<rect x="184.5" y="386.8" class="st8" width="5.4" height="37.5"/>
			<rect x="184.5" y="386.8" class="st11" width="5.4" height="37.5"/>
			<path class="st8" d="M218.5,365.4c0,0,1.5,0,1.5,1.5c0,1.5-1.5,1.7-1.5,1.7h-62.7c0,0-1.5-0.1-1.5-1.7c0-1.5,1.5-1.5,1.5-1.5
				H218.5z"/>
			<path class="st11" d="M218.5,365.4c0,0,1.5,0,1.5,1.5c0,1.5-1.5,1.7-1.5,1.7h-62.7c0,0-1.5-0.1-1.5-1.7c0-1.5,1.5-1.5,1.5-1.5
				H218.5z"/>
			<path class="st8" d="M152.9,383.4c0,0-2.4-0.1-2.5,1.5c0,1.8,2.5,1.7,2.5,1.7h68.7c0,0,2.5,0,2.5-1.7s-2.5-1.5-2.5-1.5H152.9z"/>
			<path class="st11" d="M152.9,383.4c0,0-2.4-0.1-2.5,1.5c0,1.8,2.5,1.7,2.5,1.7h68.7c0,0,2.5,0,2.5-1.7s-2.5-1.5-2.5-1.5H152.9z"
				/>
			<path class="st8" d="M153.7,374.5c0,0-1,0.4-1,1.5s1,1.7,1,1.7h66.9c0,0,1-0.6,1-1.7s-1-1.5-1-1.5H153.7z"/>
			<path class="st11" d="M153.7,374.5c0,0-1,0.4-1,1.5s1,1.7,1,1.7h66.9c0,0,1-0.6,1-1.7s-1-1.5-1-1.5H153.7z"/>
			<path class="st8" d="M69,438.1c0,0-8.8-3.9-13.4-5.3c5.3-8.8,5.2-23.3,5.2-23.3L69,438.1z"/>
			<path class="st10" d="M69,438.1c0,0-8.8-3.9-13.4-5.3c5.3-8.8,5.2-23.3,5.2-23.3L69,438.1z"/>
			<path class="st6" d="M51.2,377.4c9.1-3.1,17.8-1.4,22.2,3.8l-19,6.6L51.2,377.4z"/>
			<path class="st10" d="M51.2,377.4c9.1-3.1,17.8-1.4,22.2,3.8l-19,6.6L51.2,377.4z"/>
			<polygon class="st6" points="60.3,405.7 87.2,396.5 79.1,381.7 55.3,390 			"/>
			<polygon class="st10" points="60.3,405.7 87.2,396.5 79.1,381.7 55.3,390 			"/>
			<polygon class="st8" points="58.2,391.9 62.5,405 82.8,398.1 75.5,385.9 			"/>
			<polygon class="st8" points="71.2,365.6 72.3,366.8 68.7,371.8 70.9,372.7 73.4,377.7 75.9,378.4 76.5,380.2 79.4,379.2 
				78.7,377.4 80.4,375.3 79.4,369.6 80.8,367.7 75.1,365.8 75.2,364.3 72.7,363.8 			"/>
			<polygon class="st10" points="71.2,365.6 72.3,366.8 68.7,371.8 70.9,372.7 73.4,377.7 75.9,378.4 76.5,380.2 79.4,379.2 
				78.7,377.4 80.4,375.3 79.4,369.6 80.8,367.7 75.1,365.8 75.2,364.3 72.7,363.8 			"/>
			<path class="st13" d="M76.6,369.6l1.1,4.7L76.6,369.6z M73.1,370.9l1.8,4.5L73.1,370.9z"/>
			<path class="st13" d="M80.8,375.3l-2.6-0.8l-3.2,1.1l-1.7,2.2 M79.4,370l-2.6-0.8l-4,1.4l-1.7,2.2"/>
			<path class="st6" d="M60.7,407.1l25.4-8.8c4.6,6.8,9.5,15.5,5.3,25.2c-4.3,10-18.1,10-19.9,16.9L60.7,407.1z"/>
			<path class="st10" d="M60.7,407.1l25.4-8.8c4.6,6.8,9.5,15.5,5.3,25.2c-4.3,10-18.1,10-19.9,16.9L60.7,407.1z"/>
			<path class="st8" d="M61.8,410.5l20.2-7c3.3,4.7,7,10.9,3.5,17.8C81.8,428.7,71,429,69.4,434L61.8,410.5z"/>
			<path class="st9" d="M62.1,411.3l14.1-4.9c2.4,3.3,4.9,7.5,2.4,12.4c-2.5,5-10,5.3-11.2,8.8"/>
			<path class="st13" d="M64.5,411.6c2,5.4,7,21,13.1,23.1 M64.5,411.6c3.9,3.3,19.9,1.7,28,0 M64.5,411.6c2.9,4,16,17.8,24.3,16.2
				 M64.5,411.6c2.9,4,19.7,10.5,27.9,8.8"/>
			<polygon class="st13" points="66.3,387.2 71,385.5 75.8,400.3 71,401.8 			"/>
			<polygon class="st13" points="57.9,390.1 62.7,388.4 67.4,403.1 62.5,404.7 			"/>
			<polygon class="st13" points="74.7,384.4 77,383.7 84.1,397.2 79.3,398.9 			"/>
			<polygon class="st8" points="46,362.9 46.9,364 43.4,369.1 45.7,369.9 48.2,375.1 50.7,375.6 51.2,377.4 54,376.4 53.5,374.6 
				55.2,372.5 54.2,366.8 55.6,364.9 49.9,363.1 49.9,361.5 47.5,361 			"/>
			<polygon class="st10" points="46,362.9 46.9,364 43.4,369.1 45.7,369.9 48.2,375.1 50.7,375.6 51.2,377.4 54,376.4 53.5,374.6 
				55.2,372.5 54.2,366.8 55.6,364.9 49.9,363.1 49.9,361.5 47.5,361 			"/>
			<path class="st13" d="M51.4,366.8l1.1,4.7L51.4,366.8z M47.9,368.1l1.8,4.5L47.9,368.1z"/>
			<path class="st13" d="M55.6,372.7l-2.6-0.8l-3.2,1.1l-1.7,2.2 M54.2,367.4l-2.6-0.8l-4,1.4l-1.7,2.2"/>
			<path class="st8" d="M61.3,408.9l28.6-9.9c-0.7,3.2-0.3,4.6,0.8,7.5c-2.5-3.3-6.3-2-10.2-0.4c-6.3,2.4-13.2,8.2-18.7,4.5
				L61.3,408.9z"/>
			<path class="st10" d="M61.3,408.9l28.6-9.9c-0.7,3.2-0.3,4.6,0.8,7.5c-2.5-3.3-6.3-2-10.2-0.4c-6.3,2.4-13.2,8.2-18.7,4.5
				L61.3,408.9z"/>
			<path class="st8" d="M54,379.1c6.4-2.2,10-1,14.1,1.1l-12.3,4.2L54,379.1z"/>
			<polygon class="st8" points="69.5,440.8 59.5,409.5 63.5,408.1 73.6,439.5 			"/>
			<polygon class="st10" points="69.5,440.8 59.5,409.5 63.5,408.1 73.6,439.5 			"/>
			<path class="st8" d="M80.5,378.7c0,0,1.3-0.4,1.8,1.1c0.4,1.5-0.7,2.1-0.7,2.1l-26.8,9.2c0,0-1.4,0.3-1.8-1.3
				c-0.4-1.5,0.8-2,0.8-2L80.5,378.7z"/>
			<path class="st10" d="M80.5,378.7c0,0,1.3-0.4,1.8,1.1c0.4,1.5-0.7,2.1-0.7,2.1l-26.8,9.2c0,0-1.4,0.3-1.8-1.3
				c-0.4-1.5,0.8-2,0.8-2L80.5,378.7z"/>
			<path class="st8" d="M59.5,405.7c0,0-1.4,0.3-0.8,2c0.6,1.8,1.8,1.3,1.8,1.3l29.1-10c0,0,2.1-0.7,1.5-2.4s-2.5-0.8-2.5-0.8
				L59.5,405.7z"/>
			<path class="st10" d="M59.5,405.7c0,0-1.4,0.3-0.8,2c0.6,1.8,1.8,1.3,1.8,1.3l29.1-10c0,0,2.1-0.7,1.5-2.4s-2.5-0.8-2.5-0.8
				L59.5,405.7z"/>
			<path class="st8" d="M56.7,396.9c0,0-1.1,0.8-0.8,2c0.3,1.1,1.8,1.3,1.8,1.3l28.4-9.8c0,0,0.7-0.8,0.3-2
				c-0.4-1.1-1.4-1.3-1.4-1.3L56.7,396.9z"/>
			<path class="st10" d="M56.7,396.9c0,0-1.1,0.8-0.8,2c0.3,1.1,1.8,1.3,1.8,1.3l28.4-9.8c0,0,0.7-0.8,0.3-2
				c-0.4-1.1-1.4-1.3-1.4-1.3L56.7,396.9z"/>
			<path class="st8" d="M305.5,438.1c0,0,8.8-3.9,13.4-5.3c-5.3-8.8-5.2-23.3-5.2-23.3L305.5,438.1z"/>
			<path class="st10" d="M305.5,438.1c0,0,8.8-3.9,13.4-5.3c-5.3-8.8-5.2-23.3-5.2-23.3L305.5,438.1z"/>
			<path class="st6" d="M323.2,377.4c-9.1-3.1-17.8-1.4-22.2,3.8l19,6.6L323.2,377.4z"/>
			<path class="st10" d="M323.2,377.4c-9.1-3.1-17.8-1.4-22.2,3.8l19,6.6L323.2,377.4z"/>
			<polygon class="st6" points="314,405.7 287.1,396.5 295.2,381.7 319.2,390 			"/>
			<polygon class="st10" points="314,405.7 287.1,396.5 295.2,381.7 319.2,390 			"/>
			<polygon class="st8" points="316.1,391.9 311.9,405 291.6,398.1 298.8,385.9 			"/>
			<polygon class="st8" points="303.1,365.6 302.2,366.8 305.8,371.8 303.6,372.7 301.1,377.7 298.5,378.4 297.8,380.2 295.1,379.2 
				295.6,377.4 293.9,375.3 294.9,369.6 293.7,367.7 299.4,365.8 299.2,364.3 301.6,363.8 			"/>
			<polygon class="st10" points="303.1,365.6 302.2,366.8 305.8,371.8 303.6,372.7 301.1,377.7 298.5,378.4 297.8,380.2 
				295.1,379.2 295.6,377.4 293.9,375.3 294.9,369.6 293.7,367.7 299.4,365.8 299.2,364.3 301.6,363.8 			"/>
			<path class="st13" d="M297.8,369.6l-1.1,4.7L297.8,369.6z M301.2,370.9l-1.8,4.5L301.2,370.9z"/>
			<path class="st13" d="M293.7,375.3l2.6-0.8l3.2,1.1l1.7,2.2 M294.9,370l2.6-0.8l4,1.4l1.7,2.2"/>
			<path class="st6" d="M313.6,407.1l-25.4-8.8c-4.6,6.8-9.5,15.5-5.3,25.2c4.3,10,18.1,10,19.9,16.9L313.6,407.1z"/>
			<path class="st10" d="M313.6,407.1l-25.4-8.8c-4.6,6.8-9.5,15.5-5.3,25.2c4.3,10,18.1,10,19.9,16.9L313.6,407.1z"/>
			<path class="st8" d="M312.6,410.5l-20.2-7c-3.3,4.7-7,10.9-3.5,17.8c3.8,7.4,14.5,7.7,16.2,12.7L312.6,410.5z"/>
			<path class="st9" d="M312.3,411.3l-14.1-4.9c-2.4,3.3-4.9,7.5-2.4,12.4c2.5,5,10,5.3,11.2,8.8"/>
			<path class="st13" d="M310,411.6c-2,5.4-7,21-13.1,23.1 M310,411.6c-3.9,3.3-19.9,1.7-28,0 M310,411.6c-2.9,4-16,17.8-24.3,16.2
				 M310,411.6c-2.9,4-19.7,10.5-27.9,8.8"/>
			<polygon class="st13" points="308,387.2 303.3,385.5 298.5,400.3 303.4,401.8 			"/>
			<polygon class="st13" points="316.5,390.1 311.8,388.4 307,403.1 311.8,404.7 			"/>
			<polygon class="st13" points="299.8,384.4 297.4,383.7 290.3,397.2 295.2,398.9 			"/>
			<polygon class="st8" points="328.4,362.9 327.4,364 331,369.1 328.8,369.9 326.3,375.1 323.8,375.6 323.2,377.4 320.3,376.4 
				320.8,374.6 319.2,372.5 320.1,366.8 318.9,364.9 324.6,363.1 324.5,361.5 326.8,361 			"/>
			<polygon class="st10" points="328.4,362.9 327.4,364 331,369.1 328.8,369.9 326.3,375.1 323.8,375.6 323.2,377.4 320.3,376.4 
				320.8,374.6 319.2,372.5 320.1,366.8 318.9,364.9 324.6,363.1 324.5,361.5 326.8,361 			"/>
			<path class="st13" d="M323.1,366.8l-1.1,4.7L323.1,366.8z M326.4,368.1l-1.8,4.5L326.4,368.1z"/>
			<path class="st13" d="M318.9,372.7l2.6-0.8l3.2,1.1l1.7,2.2 M320.3,367.4l2.6-0.8l4,1.4l1.7,2.2"/>
			<path class="st8" d="M313,408.9l-28.6-9.9c0.7,3.2,0.3,4.6-0.8,7.5c2.5-3.3,6.3-2,10.2-0.4c6.3,2.4,13.2,8.2,18.7,4.5L313,408.9z
				"/>
			<path class="st10" d="M313,408.9l-28.6-9.9c0.7,3.2,0.3,4.6-0.8,7.5c2.5-3.3,6.3-2,10.2-0.4c6.3,2.4,13.2,8.2,18.7,4.5L313,408.9
				z"/>
			<path class="st8" d="M320.3,379.1c-6.4-2.2-10-1-14.1,1.1l12.3,4.2L320.3,379.1z"/>
			<polygon class="st8" points="304.8,440.8 314.9,409.5 310.8,408.1 300.8,439.5 			"/>
			<polygon class="st10" points="304.8,440.8 314.9,409.5 310.8,408.1 300.8,439.5 			"/>
			<path class="st8" d="M293.9,378.7c0,0-1.3-0.4-1.8,1.1c-0.4,1.5,0.7,2.1,0.7,2.1l26.8,9.2c0,0,1.4,0.3,1.8-1.3
				c0.4-1.5-0.8-2-0.8-2L293.9,378.7z"/>
			<path class="st10" d="M293.9,378.7c0,0-1.3-0.4-1.8,1.1c-0.4,1.5,0.7,2.1,0.7,2.1l26.8,9.2c0,0,1.4,0.3,1.8-1.3
				c0.4-1.5-0.8-2-0.8-2L293.9,378.7z"/>
			<path class="st8" d="M314.9,405.7c0,0,1.4,0.3,0.8,2c-0.6,1.8-1.8,1.3-1.8,1.3l-29.1-10c0,0-2.1-0.7-1.5-2.4
				c0.6-1.7,2.5-0.8,2.5-0.8L314.9,405.7z"/>
			<path class="st10" d="M314.9,405.7c0,0,1.4,0.3,0.8,2c-0.6,1.8-1.8,1.3-1.8,1.3l-29.1-10c0,0-2.1-0.7-1.5-2.4
				c0.6-1.7,2.5-0.8,2.5-0.8L314.9,405.7z"/>
			<path class="st8" d="M317.8,396.9c0,0,1.1,0.8,0.8,2c-0.3,1.1-1.8,1.3-1.8,1.3l-28.4-9.8c0,0-0.7-0.8-0.3-2
				c0.4-1.1,1.4-1.3,1.4-1.3L317.8,396.9z"/>
			<path class="st10" d="M317.8,396.9c0,0,1.1,0.8,0.8,2c-0.3,1.1-1.8,1.3-1.8,1.3l-28.4-9.8c0,0-0.7-0.8-0.3-2
				c0.4-1.1,1.4-1.3,1.4-1.3L317.8,396.9z"/>
			<path class="st6" d="M300.2,437.4l-6,36.2c-23.3-7.9-62.3-19-106.4-19c-44.6,0-84.1,11.2-107.2,19.2l-6.3-36.2
				c24.4-8.1,66.1-13.5,113.3-13.5C234.3,424.1,257.1,427.2,300.2,437.4z"/>
			<path class="st14" d="M300.2,437.4l-6,36.2c-23.3-7.9-62.3-19-106.4-19c-44.6,0-84.1,11.2-107.2,19.2l-6.3-36.2
				c24.4-8.1,66.1-13.5,113.3-13.5C234.3,424.1,257.1,427.2,300.2,437.4z"/>
			<path class="st15" d="M283.5,434.6l-6,36.2c-23.3-7.9-45.6-16.2-89.6-16.2c-44.6,0-67.3,11.2-90.5,19.2l-6.3-36.2
				c24.4-8.1,49.3-13.5,96.6-13.5C234.3,424.1,240.4,424.4,283.5,434.6z"/>
			<path class="st8" d="M266.8,434.6l-6,36.2c-23.3-7.9-28.9-16.2-72.9-16.2c-44.6,0-50.6,5.6-73.7,13.7l-6.3-36.2
				c24.4-8.1,32.6-7.9,79.9-7.9C234.3,424.1,223.7,424.4,266.8,434.6z"/>
			<path class="st9" d="M238.9,431.8l-6,36.2c-23.3-7.9-1-13.4-45-13.4c-44.6,0-22.7,2.8-45.9,10.9l-6.3-36.2
				c24.4-8.1,4.7-5.2,52-5.2C234.3,424.1,195.8,421.6,238.9,431.8z"/>
			<path class="st16" d="M155.1,431.8c2.6,0,4.9,2.2,4.9,5c0,2.8-2.2,5-4.9,5s-4.9-2.2-4.9-5C150.4,434,152.5,431.8,155.1,431.8z"/>
			<path class="st17" d="M155.1,431.8c2.6,0,4.9,2.2,4.9,5c0,2.8-2.2,5-4.9,5s-4.9-2.2-4.9-5C150.4,434,152.5,431.8,155.1,431.8z"/>
			<path class="st16" d="M155.9,443.9c2.6,0,4.9,2.2,4.9,5s-2.2,5-4.9,5s-4.9-2.2-4.9-5S153.3,443.9,155.9,443.9z"/>
			<path class="st17" d="M155.9,443.9c2.6,0,4.9,2.2,4.9,5s-2.2,5-4.9,5s-4.9-2.2-4.9-5S153.3,443.9,155.9,443.9z"/>
			<polygon class="st8" points="174.3,431.8 200.1,431.8 208.1,441.8 200.1,451.9 174.3,451.9 166.4,441.8 			"/>
			<polygon class="st14" points="174.3,431.8 200.1,431.8 208.1,441.8 200.1,451.9 174.3,451.9 166.4,441.8 			"/>
			<polygon class="st16" points="198.6,435.1 204,441.8 198.6,448.5 175.7,448.5 170.4,441.8 175.7,435.1 			"/>
			<polygon class="st14" points="198.6,435.1 204,441.8 198.6,448.5 175.7,448.5 170.4,441.8 175.7,435.1 			"/>
			<polyline class="st14" points="175.6,435.1 179.5,442 175.9,448.5 			"/>
			<polyline class="st14" points="198.7,435.1 195.1,442 198.6,448.5 			"/>
			<line class="st14" x1="170.6" y1="442" x2="203.8" y2="442"/>
			<polygon class="st8" points="75.4,445.7 97.7,453.3 79.3,470.1 			"/>
			<polygon class="st14" points="75.4,445.7 97.7,453.3 79.3,470.1 			"/>
			<polygon class="st16" points="72.3,459.4 76.1,450.2 88.3,455.6 78,465.8 			"/>
			<polygon class="st14" points="72.3,459.4 76.1,450.2 88.3,455.6 78,465.8 			"/>
			<line class="st14" x1="71.9" y1="459.4" x2="86.9" y2="455.8"/>
			<path class="st8" d="M131,456c-7.5,1.1-14.2-2.4-15.1-7.8c-0.7-5.4,4.9-10.9,12.4-12c7.5-1.1,14.2,2.4,15.1,7.8
				C144.1,449.5,138.5,454.9,131,456z"/>
			<path class="st18" d="M131,456c-7.5,1.1-14.2-2.4-15.1-7.8c-0.7-5.4,4.9-10.9,12.4-12c7.5-1.1,14.2,2.4,15.1,7.8
				C144.1,449.5,138.5,454.9,131,456z"/>
			<path class="st16" d="M128.8,449.5c-4.5,0.7-8.4-1.3-8.6-4.3s2.8-6.1,7.2-6.8c4.5-0.7,8.4,1.3,8.6,4.3
				C136.4,445.9,133.2,448.8,128.8,449.5z"/>
			<path class="st16" d="M101.8,440.4c2.6-0.1,5,2,5.3,4.7c0.3,2.8-1.8,5.2-4.5,5.4c-2.6,0.3-5-2-5.3-4.7
				C97.2,443.1,99.2,440.6,101.8,440.4z"/>
			<path class="st17" d="M101.8,440.4c2.6-0.1,5,2,5.3,4.7c0.3,2.8-1.8,5.2-4.5,5.4c-2.6,0.3-5-2-5.3-4.7
				C97.2,443.1,99.2,440.6,101.8,440.4z"/>
			<path class="st16" d="M103.8,452.4c2.6-0.1,5,2,5.3,4.7c0.3,2.8-1.8,5.2-4.5,5.4c-2.6,0.1-5-2-5.3-4.7
				C99.2,455.1,101.2,452.7,103.8,452.4z"/>
			<path class="st17" d="M103.8,452.4c2.6-0.1,5,2,5.3,4.7c0.3,2.8-1.8,5.2-4.5,5.4c-2.6,0.1-5-2-5.3-4.7
				C99.2,455.1,101.2,452.7,103.8,452.4z"/>
			<path class="st16" d="M219.2,431.8c-2.6,0-4.9,2.2-4.9,5c0,2.8,2.2,5,4.9,5c2.6,0,4.9-2.2,4.9-5
				C224.1,434,221.9,431.8,219.2,431.8z"/>
			<path class="st17" d="M219.2,431.8c-2.6,0-4.9,2.2-4.9,5c0,2.8,2.2,5,4.9,5c2.6,0,4.9-2.2,4.9-5
				C224.1,434,221.9,431.8,219.2,431.8z"/>
			<path class="st16" d="M218.4,443.9c-2.6,0-4.9,2.2-4.9,5s2.2,5,4.9,5s4.9-2.2,4.9-5S221,443.9,218.4,443.9z"/>
			<path class="st17" d="M218.4,443.9c-2.6,0-4.9,2.2-4.9,5s2.2,5,4.9,5s4.9-2.2,4.9-5S221,443.9,218.4,443.9z"/>
			<polygon class="st8" points="299.1,445.7 276.7,453.3 295.1,470.1 			"/>
			<polygon class="st14" points="299.1,445.7 276.7,453.3 295.1,470.1 			"/>
			<polygon class="st16" points="302.2,459.4 298.3,450.2 286.1,455.6 296.3,465.8 			"/>
			<polygon class="st14" points="302.2,459.4 298.3,450.2 286.1,455.6 296.3,465.8 			"/>
			<line class="st14" x1="302.6" y1="459.4" x2="287.5" y2="455.8"/>
			<path class="st8" d="M243.3,456c7.5,1.1,14.4-2.4,15.1-7.9c0.7-5.4-4.9-10.9-12.4-12.1c-7.5-1.1-14.4,2.4-15.1,7.9
				C230.2,449.5,235.8,454.9,243.3,456z"/>
			<path class="st18" d="M243.3,456c7.5,1.1,14.4-2.4,15.1-7.9c0.7-5.4-4.9-10.9-12.4-12.1c-7.5-1.1-14.4,2.4-15.1,7.9
				C230.2,449.5,235.8,454.9,243.3,456z"/>
			<path class="st16" d="M242.8,449.5c4.5-0.1,7.9-2.6,7.8-5.9c-0.1-3.1-3.9-5.6-8.4-5.4c-4.5,0.1-7.9,2.6-7.8,5.9
				S238.3,449.6,242.8,449.5z"/>
			<path class="st16" d="M272.5,440.4c-2.6-0.1-5,2-5.3,4.7c-0.3,2.8,1.8,5.2,4.5,5.4c2.6,0.3,5-2,5.3-4.7
				C277.2,443.1,275.3,440.6,272.5,440.4z"/>
			<path class="st17" d="M272.5,440.4c-2.6-0.1-5,2-5.3,4.7c-0.3,2.8,1.8,5.2,4.5,5.4c2.6,0.3,5-2,5.3-4.7
				C277.2,443.1,275.3,440.6,272.5,440.4z"/>
			<path class="st16" d="M270.5,452.4c-2.6-0.1-5,2-5.3,4.7c-0.3,2.8,1.8,5.2,4.5,5.4c2.6,0.1,5-2,5.3-4.7
				C275.3,455.1,273.2,452.7,270.5,452.4z"/>
			<path class="st17" d="M270.5,452.4c-2.6-0.1-5,2-5.3,4.7c-0.3,2.8,1.8,5.2,4.5,5.4c2.6,0.1,5-2,5.3-4.7
				C275.3,455.1,273.2,452.7,270.5,452.4z"/>
			<path class="st8" d="M300.5,445.2c0,0,4.3-1.5,4.3-5.9c0-4.3-4.3-5.9-4.3-5.9c-24.4-8.1-66.1-16.6-113.3-16.6
				s-88.9,8.5-113.3,16.6c0,0-4.3,1.5-4.3,5.9c0,4.3,4.3,5.9,4.3,5.9c24.4-8.1,66.1-16.6,113.3-16.6S276.1,437.1,300.5,445.2z"/>
			<path class="st9" d="M181.4,416.5c-36.8,0.8-74,5.3-109.1,17.3c-2,1.8,0.3,5.7,2.6,3.3c39.6-11.8,81-16.7,122-15.8
				c35.4,0.8,71,6.1,105,16.3c1.8-1.4,0.7-4.6-1.5-4.6c-17.4-6-35.5-9.5-53.5-12.3C225.2,417.6,203.3,416.2,181.4,416.5z"/>
			<path class="st6" d="M181.4,424.3c-36.8,0.8-74,5.3-109.1,17.3c-2,1.8,0.3,5.7,2.6,3.3c39.6-11.8,81-16.7,122-15.8
				c35.4,0.8,71,6.1,105,16.3c1.8-1.4,0.7-4.6-1.5-4.6c-17.4-6-35.5-9.5-53.5-12.3C225.2,425.4,203.3,424,181.4,424.3z"/>
			<path class="st14" d="M300.5,445.2c0,0,4.3-1.5,4.3-5.9c0-4.3-4.3-5.9-4.3-5.9c-24.4-8.1-66.1-16.6-113.3-16.6
				s-88.9,8.5-113.3,16.6c0,0-4.3,1.5-4.3,5.9c0,4.3,4.3,5.9,4.3,5.9c24.4-8.1,66.1-16.6,113.3-16.6S276.1,437.1,300.5,445.2z"/>
			<path class="st8" d="M291.2,484.1c0,0,5.4-1.5,5.4-5.9c0-4.3-1.3-5.9-1.3-5.9c-23.3-8.4-64.3-17.7-108.2-17.7S102.3,464,79,472.4
				c0,0-1.1,1.5-1.3,5.9c0,4.3,5.4,5.9,5.4,5.9c22.3-8.1,60.1-17.7,104-17.7S268.7,476.1,291.2,484.1z"/>
			<path class="st9" d="M181.9,455.3c-34.3,0.8-68.7,5.3-101.5,17.3c-1.8,1.8,0.3,5.7,2.5,3.3c36.8-11.8,75.3-17.7,113.5-16.9
				c32.9,0.8,65.9,7.2,97.6,17.4c1.7-1.4,0.7-4.6-1.4-4.6c-16.2-6-33-9.5-49.8-12.3C222.6,456.5,202.1,455.1,181.9,455.3z"/>
			<path class="st6" d="M181.9,462c-34.3,0.8-68.7,6.4-101.5,18.4c-1.8,1.8,0.3,5.7,2.5,3.3c36.8-11.8,75.3-17.7,113.5-16.9
				c32.9,0.8,65.9,7.2,97.6,17.4c1.7-1.4,0.7-4.6-1.4-4.6c-16.2-6-33-9.5-49.8-12.3C222.6,464.3,202.1,461.8,181.9,462z"/>
			<path class="st19" d="M291.2,484.1c0,0,5.4-1.5,5.4-5.9c0-4.3-1.3-5.9-1.3-5.9c-23.3-8.4-64.3-17.7-108.2-17.7
				S102.3,464,79,472.4c0,0-1.1,1.5-1.3,5.9c0,4.3,5.4,5.9,5.4,5.9c22.3-8.1,60.1-17.7,104-17.7S268.7,476.1,291.2,484.1z"/>
			<path class="st20" d="M111.2,360.3c0,0.4,0,0.8,0,1.3l0,0c-2.9,0.4-5.7,0.8-8.4,1.1c-0.4-0.4-0.7-0.8-1-1.3l9.2-1.5
				C111.2,360.1,111.2,360.3,111.2,360.3z M138.9,356.5c-2.4,0.6-4.6,1-6.8,1.4c-0.4-0.4-0.7-0.8-1.1-1.4l7.8-1.3
				C138.8,355.8,138.9,356.2,138.9,356.5z M125.7,357.5c0,0.6,0.1,1.1,0,1.7l0,0l0,0c-1,0.1-1.8,0.3-2.8,0.6l-0.1-1.7L125.7,357.5z
				 M118,360.6h-0.3l0,0c-0.1-0.1-0.3-0.3-0.4-0.4l-0.3-0.3c-0.1-0.1-0.3-0.4-0.4-0.6l-0.1-0.1l-0.1-0.1l1.4-0.3L118,360.6z"/>
		</g>
	</g>
</g>
</svg>
