<svg xmlns="http://www.w3.org/2000/svg" width="1000" height="600">
  <path style="opacity:1;fill:#dc241f;fill-opacity:1;stroke:none;stroke-width:1.5;stroke-linecap:round;stroke-linejoin:miter;stroke-miterlimit:4;stroke-dasharray:none;stroke-dashoffset:0;stroke-opacity:1" d="M0 0h1000v600H0z"/>
  <path style="opacity:1;fill:#5998c9;fill-opacity:1;stroke:none;stroke-width:1.5;stroke-linecap:round;stroke-linejoin:round;stroke-miterlimit:4;stroke-dasharray:none;stroke-dashoffset:0;stroke-opacity:1" d="M448.03789 69.05624c-37.89958.277525-72.81696 17.663572-88.60991 37.01979C350.94408 116.4741 344.10377 140.41575 340 150c9.28866-4.23721 28.65977-7.96968 37.04102-10.33697 14.26365-4.02877 25.76831-3.58735 35.88867.46394 17.47325 6.99473 22.95529 15.94667 21.30884 43.39399-1.37949 22.99695-10.2228 34.64051-25.41822 49.37162-7.08648 6.86995-18.74778 13.1369-35.32031 18.2832S335.5729 260 310 260H0v340h1004.1797L1000 260H690.91796c-41.16361 1.42607-77.59784 2.54794-111.25779-50.06302-21.40292-33.45306-25.50494-53.5738-36.92656-74.04753-7.60599-13.63406-16.52501-27.5226-27.26901-36.705856-17.56771-15.015698-47.08276-30.276325-67.42671-30.127354ZM690.91796 260c.0692-.002.13979-.003.20898-.006l-.30664.006Z"/>
  <path style="color:#000;font-style:normal;font-variant:normal;font-weight:400;font-stretch:normal;font-size:medium;line-height:normal;font-family:sans-serif;font-variant-ligatures:normal;font-variant-position:normal;font-variant-caps:normal;font-variant-numeric:normal;font-variant-alternates:normal;font-feature-settings:normal;text-indent:0;text-align:start;text-decoration:none;text-decoration-line:none;text-decoration-style:solid;text-decoration-color:#000;letter-spacing:normal;word-spacing:normal;text-transform:none;writing-mode:lr-tb;direction:ltr;text-orientation:mixed;dominant-baseline:auto;baseline-shift:baseline;text-anchor:start;white-space:normal;shape-padding:0;clip-rule:nonzero;display:inline;overflow:visible;visibility:visible;opacity:1;isolation:auto;mix-blend-mode:normal;color-interpolation:sRGB;color-interpolation-filters:linearRGB;solid-color:#000;solid-opacity:1;vector-effect:none;fill:#ffd100;fill-opacity:1;fill-rule:nonzero;stroke:none;stroke-width:17.29999924;stroke-linecap:round;stroke-linejoin:round;stroke-miterlimit:4;stroke-dasharray:none;stroke-dashoffset:0;stroke-opacity:1;color-rendering:auto;image-rendering:auto;shape-rendering:auto;text-rendering:auto;enable-background:accumulate" d="M1010.0334 252.36719H695c-.10224.00019-.20447.002-.30664.006-38.99444 1.37931-80.41586-3.57556-110.39648-50.43569-19.65665-30.72361-20.89896-52.25597-34.4043-76.46484-8.72863-15.64644-20.24786-29.000539-32.46094-39.439457-20.30525-17.355568-45.94014-28.501676-71.50781-28.314453-43.08692.31551-72.42257 20.407003-90.62695 42.71875-18.20439 22.31175-21.66261 39.62242-24.38405 50.50995-.93821 3.75346-1.65593 7.31651-2.67857 17.0256 13.458-5.40149 15.52771-6.49625 19.09505-7.80015 14.97373-5.47304 21.78775-7.58098 34.41483-11.14751 12.62708-3.56653 19.57656-4.51775 24.75586-2.77344 10.01756 3.37376 20.99064 16.7462 19.74219 37.5586-.8071 13.45479-15.36319 32.6612-29.46289 46.33007-3.6384 3.52723-13.63484 9.59344-28.41016 14.18165s-34.4593 8.04492-58.36914 8.04492H-5.1520366l-.2341835 17.30078H310c25.5729 0 46.92747-3.67792 63.5-8.82422s28.23383-11.41325 35.32031-18.2832c15.19542-14.73111 33.31192-34.7179 34.69141-57.71485 1.64645-27.44732-13.10878-47.65956-30.58203-54.65429-10.12036-4.05129-21.62502-1.84323-35.88867 2.18554-8.38125 2.36729-17.50236 5.81943-26.79102 10.05664 4.10377-9.58425 9.96727-20.66052 18.45117-31.05859 15.79295-19.356222 39.45003-36.079897 77.34961-36.357422 20.34395-.148971 42.57292 9.150318 60.14063 24.166016 10.744 9.183256 20.98776 21.084686 28.59375 34.718746 11.42162 20.47373 13.53653 43.90632 34.93945 77.35938 33.71658 52.69947 84.38089 59.8579 125.58203 58.40039l-.30664.00586h314.7992z"/>
  <path style="opacity:1;fill:#dc241f;fill-opacity:1;stroke:none;stroke-width:1.5;stroke-linecap:round;stroke-linejoin:miter;stroke-miterlimit:4;stroke-dasharray:none;stroke-dashoffset:0;stroke-opacity:1" d="M-70 170h20v20h-20z"/>
  <path style="opacity:1;fill:#ffd100;fill-opacity:1;stroke:none;stroke-width:1.5;stroke-linecap:round;stroke-linejoin:miter;stroke-miterlimit:4;stroke-dasharray:none;stroke-dashoffset:0;stroke-opacity:1" d="M-70 195h20v20h-20z"/>
  <path style="opacity:1;fill:#5998c9;fill-opacity:1;stroke:none;stroke-width:1.5;stroke-linecap:round;stroke-linejoin:miter;stroke-miterlimit:4;stroke-dasharray:none;stroke-dashoffset:0;stroke-opacity:1" d="M-70 220h20v20h-20z"/>
  <path style="fill:#fff;stroke:#000;stroke-width:1px;stroke-linecap:butt;stroke-linejoin:miter;stroke-opacity:1" d="M783.88348 356.60123c10.74881 16.92621 13.40526 33.58961 14.6108 40.42907.34077 1.93333.43948 8.29778.32804 13.64722-3.6362-2.12248-9.42513-3.83098-15.9592-2.39322M740.81221 358.62888c-8.18212 13.20037-12.43928 22.73039-12.87207 30.32791-.30431 5.34194.14009 11.60963.25153 16.95907 6.45128-5.10315 8.92835-2.34064 15.37963.83584"/>
  <path d="M758.917 300.81466c-7.98242.28714-16.03908 8.78036-17.68491 14.00224-3.11115 9.87108-4.09143 22.22427-3.62102 27.96488 3.01337 36.77379 7.84378 72.26923 3.3098 110.64166-2.85346 24.1497-27.91181 54.0034-53.26235 85.40637 15.85205-.0656 23.07761-10.3369 36.56997-10.53244 9.17021-.1329 17.61038 5.1981 27.84439 9.1509-2.74156-12.11393-6.71784-22.6861-5.00526-33.9051 2.87704-18.84738 12.35864-38.79452 20.50684-54.95161 9.12219-18.08846 19.77525-35.35419 20.15634-52.85309.28815-13.23139.0004-33.56446-3.743-51.8233-1.85827-9.06393-4.70455-18.17607-7.97924-25.0956-3.29107-6.95414-9.89909-18.26363-17.09156-18.00491z" style="fill:#fff;stroke:#000;stroke-width:1px;stroke-linecap:butt;stroke-linejoin:miter;stroke-opacity:1"/>
  <path d="M761.08236 335.20072c1.38118 3.18843.53123 8.39496-3.3332 10.16343-4.19095 1.91788-8.98334-1.14625-10.36447-3.09275-1.54673-2.85726 3.56507-3.76125 6.14828-5.19565 3.99645-2.21914 6.49944-4.4839 7.54939-1.87503z" style="opacity:1;fill:#000;fill-opacity:1;stroke:none;stroke-width:1.5;stroke-linecap:round;stroke-linejoin:round;stroke-miterlimit:4;stroke-dasharray:none;stroke-dashoffset:0;stroke-opacity:1"/>
  <path style="fill:none;stroke:#000;stroke-width:1.5;stroke-linecap:round;stroke-linejoin:round;stroke-miterlimit:4;stroke-dasharray:none;stroke-opacity:1" d="M714.90167 504.79679c13.26214-6.90969 23.93315-17.58069 29.33829-30.09056-2.11747 14.15372.69655 23.87742 2.34039 30.92641"/>
  <path style="fill:none;stroke:#000;stroke-width:1.5;stroke-linecap:round;stroke-linejoin:miter;stroke-miterlimit:4;stroke-dasharray:none;stroke-opacity:1" d="M740.04618 368.48244c9.43822 12.2335 19.21704 4.31824 23.83624-3.02168 8.63882-13.72711 12.51866-12.27523 21.87009-7.5467"/>
  <path style="fill:#f9f9f9;stroke:#000;stroke-width:1.5;stroke-linecap:butt;stroke-linejoin:miter;stroke-miterlimit:4;stroke-dasharray:none;stroke-opacity:1" d="m752.84922 373.90283 2.1732 51.32113c6.54748-10.78244 12.45257-16.71719 12.53774-32.01302.075-13.46883-8.57824-23.42376-11.78548-23.32018-1.73212.0559-2.99484 2.37372-2.92546 4.01207z"/>
  <g>
    <path style="fill:#fff;stroke:#000;stroke-width:1px;stroke-linecap:butt;stroke-linejoin:miter;stroke-opacity:1" d="M783.88348 356.60123c10.74881 16.92621 13.40526 33.58961 14.6108 40.42907.34077 1.93333.43948 8.29778.32804 13.64722-3.6362-2.12248-9.42513-3.83098-15.9592-2.39322M740.81221 358.62888c-8.18212 13.20037-12.43928 22.73039-12.87207 30.32791-.30431 5.34194.14009 11.60963.25153 16.95907 6.45128-5.10315 8.92835-2.34064 15.37963.83584" transform="rotate(180 503.08361 419.82652)"/>
    <path d="M758.917 300.81466c-7.98242.28714-16.03908 8.78036-17.68491 14.00224-3.11115 9.87108-4.09143 22.22427-3.62102 27.96488 3.01337 36.77379 7.84378 72.26923 3.3098 110.64166-2.85346 24.1497-27.91181 54.0034-53.26235 85.40637 15.85205-.0656 23.07761-10.3369 36.56997-10.53244 9.17021-.1329 17.61038 5.1981 27.84439 9.1509-2.74156-12.11393-6.71784-22.6861-5.00526-33.9051 2.87704-18.84738 12.35864-38.79452 20.50684-54.95161 9.12219-18.08846 19.77525-35.35419 20.15634-52.85309.28815-13.23139.0004-33.56446-3.743-51.8233-1.85827-9.06393-4.70455-18.17607-7.97924-25.0956-3.29107-6.95414-9.89909-18.26363-17.09156-18.00491z" style="fill:#fff;stroke:#000;stroke-width:1px;stroke-linecap:butt;stroke-linejoin:miter;stroke-opacity:1" transform="rotate(180 503.08361 419.82652)"/>
    <path d="M761.08236 335.20072c1.38118 3.18843.53123 8.39496-3.3332 10.16343-4.19095 1.91788-8.98334-1.14625-10.36447-3.09275-1.54673-2.85726 3.56507-3.76125 6.14828-5.19565 3.99645-2.21914 6.49944-4.4839 7.54939-1.87503z" style="opacity:1;fill:#000;fill-opacity:1;stroke:none;stroke-width:1.5;stroke-linecap:round;stroke-linejoin:round;stroke-miterlimit:4;stroke-dasharray:none;stroke-dashoffset:0;stroke-opacity:1" transform="rotate(180 503.08361 419.82652)"/>
    <path style="fill:none;stroke:#000;stroke-width:1.5;stroke-linecap:round;stroke-linejoin:round;stroke-miterlimit:4;stroke-dasharray:none;stroke-opacity:1" d="M714.90167 504.79679c13.26214-6.90969 23.93315-17.58069 29.33829-30.09056-2.11747 14.15372.69655 23.87742 2.34039 30.92641" transform="rotate(180 503.08361 419.82652)"/>
    <path style="fill:none;stroke:#000;stroke-width:1.5;stroke-linecap:round;stroke-linejoin:miter;stroke-miterlimit:4;stroke-dasharray:none;stroke-opacity:1" d="M740.04618 368.48244c9.43822 12.2335 19.21704 4.31824 23.83624-3.02168 8.63882-13.72711 12.51866-12.27523 21.87009-7.5467" transform="rotate(180 503.08361 419.82652)"/>
    <path style="fill:#f9f9f9;stroke:#000;stroke-width:1.5;stroke-linecap:butt;stroke-linejoin:miter;stroke-miterlimit:4;stroke-dasharray:none;stroke-opacity:1" d="m752.84922 373.90283 2.1732 51.32113c6.54748-10.78244 12.45257-16.71719 12.53774-32.01302.075-13.46883-8.57824-23.42376-11.78548-23.32018-1.73212.0559-2.99484 2.37372-2.92546 4.01207z" transform="rotate(180 503.08361 419.82652)"/>
  </g>
  <g>
    <path d="M393.11714 402.94465c-16.0073-2.09751-42.70453-45.84963-31.13144-67.89302 20.82041-39.65686 73.05934-79.56989 140.42264-78.49095 92.18846 1.47656 141.18635 72.10133 143.07212 138.43552 2.37124 83.41137-67.92067 140.65915-132.80537 142.40975-72.90437 1.96697-117.80936-63.17178-119.55795-128.16877-2.4496-91.05446 80.16833-105.40608 112.27187-105.31698 62.22093.17268 92.59823 41.20039 93.3943 82.79637 1.13009 59.04924-44.29282 98.18014-88.75771 99.68682-33.54705 1.13673-71.57749-30.05792-71.20487-71.20488.42736-47.19169 41.62797-72.87326 64.58117-73.52317 29.50161-.83533 48.3442 31.77649 47.35952 49.67782-1.46362 26.60828-18.87779 47.45577-37.42396 47.02834-22.2188-.51207-30.47001-20.50668-30.13788-31.79381.5194-17.65138 10.15996-26.61878 16.72487-26.66043 9.47734-.0601 15.33751 8.33121 15.8348 15.40012.45446 6.46009-2.41489 13.26123-7.26538 14.13749" style="fill:#ffd100;stroke:#000;stroke-width:1px;stroke-linecap:butt;stroke-linejoin:miter;stroke-opacity:1;fill-opacity:1"/>
    <path d="M495.51766 536.59226c-9.43457-1.43867-10.82448-31.20414-9.94357-34.72879-2.67341 12.51893-2.56578 24.3824-2.08178 32.34776" style="fill:#000;stroke:none;stroke-width:1px;stroke-linecap:round;stroke-linejoin:miter;stroke-opacity:1"/>
    <path d="M491.53654 483.90098c-8.65309 18.31179-8.75848 38.55559-8.04423 50.31025" style="fill:none;stroke:#000;stroke-width:1px;stroke-linecap:round;stroke-linejoin:miter;stroke-opacity:1"/>
    <path d="M404.49342 462.47575c14.38277-9.17219 23.49641-16.64654 39.81119-20.13978" style="fill:none;stroke:#000;stroke-width:1px;stroke-linecap:butt;stroke-linejoin:miter;stroke-opacity:1"/>
    <path d="M440.20639 430.04134c1.4777 3.97605-2.34668 11.35578-13.77454 18.76 4.80742-2.35445 11.66826-5.13689 17.87276-6.46537" style="fill:#000;stroke:none;stroke-width:1px;stroke-linecap:butt;stroke-linejoin:miter;stroke-opacity:1"/>
    <path d="M361.93057 335.02138c23.14514-6.12779 36.68875 6.12781 43.67522 18.14923M399.24949 367.91623c25.7214-8.52396 41.28812-2.83255 52.94252 4.53727M599.21863 501.11552c-11.74971-3.26558-26.15381-16.71126-33.48824-37.23518" style="fill:none;stroke:#000;stroke-width:1px;stroke-linecap:round;stroke-linejoin:miter;stroke-opacity:1"/>
    <path d="M596.58242 411.71648c17.32958 8.93801 32.20023 8.85994 48.12471 2.69311M593.53803 358.32264c16.47091-5.81555 26.85304-17.4857 32.78569-31.26349M539.32456 308.79284c10.57729-6.20586 15.65126-20.25687 17.32958-42.15303M434.17617 270.50384c19.24208 10.73341 23.7306 26.26758 26.22856 40.86502M521.99498 305.0459c2.14668 14.36326-2.26377 27.55559-7.61096 37.82064M514.50111 389.23486c8.938-.50739 21.85712-10.8505 26.46273-26.57982M439.32821 406.68154c14.75356-7.29872 30.91222-11.43596 43.9094-2.57602M550.56537 389.58614c20.72523 4.95688 39.22573-.27322 48.00761-3.86403M513.09601 438.29631c-5.19107 10.96759-5.2301 37.04002 1.63928 47.89051" style="fill:none;stroke:#000;stroke-width:1px;stroke-linecap:butt;stroke-linejoin:miter;stroke-opacity:1"/>
    <path d="M470.82588 308.20738c-7.81204 1.91568-19.96001-24.46094-16.17833-16.61754 3.92141 8.65798 4.63157 13.20123 5.75718 19.77902M568.4804 271.67476c-6.12123-.48561-10.56125.48617-13.87581 10.52633.94025-4.65115 1.61088-9.83824 2.04955-15.56128M620.93749 317.92599c1.58318 5.09444 1.69634 14.69307-.81863 20.3275 2.45611-3.50171 4.51169-7.26219 6.20486-11.19434M639.20381 440.16977c1.55847-23.00801-.71123-22.2905-4.29867-22.73537 3.2429-.72904 6.49979-1.74602 9.80199-3.02481-1.10777 10.82184-3.18559 18.26085-5.50332 25.76018zM521.99498 305.0459c.6814 4.55915.70214 9.00033.24196 13.26735-.98956 9.17593-.24196-13.26735 13.59134-10.46957M596.93133 407.88414c1.06109-13.78153-4.17154-19.18868-12.60079-17.91883 5.92673-1.19719 10.82182-2.84455 14.24244-4.2432.36354 6.97336-.10088 14.69189-1.64165 22.16203zM513.09601 438.29631c-2.06781 4.36884-3.31813 11.13444-3.63992 18.37995-1.31401-9.093-3.40763-13.19975-8.465-20.99522 3.95218 2.0309 8.23554 2.65427 12.10492 2.61527zM439.32821 406.68154c5.82575-2.88205 11.87058-5.27115 17.85334-6.56173-5.81771 1.74805-11.86096-3.46942-4.98954-27.66631-8.09657 12.5685-11.47374 23.97784-12.8638 34.22804zM513.24238 388.09322c4.38118 7.24993-2.30538 14.46354-7.64024 15.22193-2.63548.37465-6.39424-.67216-6.46932 1.22946-.11806 2.98997 5.38598 6.08885 9.5534 5.46471 5.1702-.77431 11.11189-13.17392 4.55616-21.9161z" style="fill:#000;stroke:none;stroke-width:1px;stroke-linecap:butt;stroke-linejoin:miter;stroke-opacity:1"/>
  </g>
</svg>
