<?xml version="1.0" encoding="UTF-8"?>
<svg width="1741" height="1160.7" version="1.1" viewBox="0 0 460.64 307.09" xmlns="http://www.w3.org/2000/svg"><defs><clipPath id="a"><path d="m1140 397.33-8.6667 387.33c-3 161.67-123 289.67-267.67 286-140-3.3334-252.67-129.67-255.67-286l-8.6667-387.33h540.67"/></clipPath></defs><g transform="translate(-79.647 -207.82)"><path d="m540.29 207.82h-460.64v307.09h460.64z" style="fill:#ffffff"/><path d="m540.29 207.82h-460.64v307.09h460.64v-307.09" style="fill:none"/><path d="m215.47 245.04 35.19 28.84 11.465-38.188 25.841 35.454 23.283-39.423 19.844 39.423 31.309-35.454 7.7611 38.188 34.308-28.84-21.431 54.769h-145.17z" style="fill:#470806"/><path d="m215.47 245.04 35.19 28.84 11.465-38.188 25.841 35.454 23.283-39.423 19.844 39.423 31.309-35.454 7.7611 38.188 34.308-28.84-21.431 54.769h-145.17z" style="fill:#ffc800"/><path d="m215.47 245.04 35.19 28.84 11.465-38.188 25.841 35.454 23.283-39.423 19.844 39.423 31.309-35.454 7.7611 38.188 34.308-28.84-21.431 54.769h-145.17z" style="fill:#ffc800;stroke-miterlimit:15;stroke-width:.17639px;stroke:#000000"/><path d="m218.82 253.59 34.837 27.693 11.377-34.749 24.342 31.926 22.049-36.248 17.903 36.248 29.192-31.926 8.0257 34.749 34.572-27.693-15.699 45.949h-149.49z" style="fill:#470806"/><path d="m218.82 253.59 34.837 27.693 11.377-34.749 24.342 31.926 22.049-36.248 17.903 36.248 29.192-31.926 8.0257 34.749 34.572-27.693-15.699 45.949h-149.49z" style="fill:#ffd42a"/><path d="m218.82 253.59 34.837 27.693 11.377-34.749 24.342 31.926 22.049-36.248 17.903 36.248 29.192-31.926 8.0257 34.749 34.572-27.693-15.699 45.949h-149.49z" style="fill:#ffd42a;stroke-miterlimit:15;stroke-width:.17639px;stroke:#000000"/><path d="m224.82 269.2 13.406-.17638" style="fill:none;stroke-miterlimit:15;stroke-width:.088194px;stroke:#000000"/><path d="m227.55 276.44 19.491-.44097" style="fill:none;stroke-miterlimit:15;stroke-width:.088194px;stroke:#000000"/><path d="m226.4 272.82 16.316-.26459" style="fill:none;stroke-miterlimit:15;stroke-width:.088194px;stroke:#000000"/><path d="m222.7 265.59 10.407-.35278" style="fill:none;stroke-miterlimit:15;stroke-width:.088194px;stroke:#000000"/><path d="m229.93 283.76 22.137-.97014" style="fill:none;stroke-miterlimit:15;stroke-width:.088194px;stroke:#000000"/><path d="m219.7 256.42 2.4694.0882" style="fill:none;stroke-miterlimit:15;stroke-width:.17639px;stroke:#000000"/><path d="m220.67 261.62h8.0257" style="fill:none;stroke-miterlimit:15;stroke-width:.088194px;stroke:#000000"/><path d="m228.87 280.23 21.255-.70556" style="fill:none;stroke-miterlimit:15;stroke-width:.088194px;stroke:#000000"/><path d="m398.21 261.88-7.2319-.17639" style="fill:none;stroke-miterlimit:15;stroke-width:.088194px;stroke:#000000"/><path d="m395.82 269.2-13.494-.26458" style="fill:none;stroke-miterlimit:15;stroke-width:.088194px;stroke:#000000"/><path d="m397.15 265.59-10.231-.35278" style="fill:none;stroke-miterlimit:15;stroke-width:.088194px;stroke:#000000"/><path d="m390.89 283.76-21.431-1.0583" style="fill:none;stroke-miterlimit:15;stroke-width:.088194px;stroke:#000000"/><path d="m386.92 285.96-20.549.0882" style="fill:none;stroke-miterlimit:15;stroke-width:.17639px;stroke:#000000"/><path d="m392.74 276.52-18.609-.52916" style="fill:none;stroke-miterlimit:15;stroke-width:.088194px;stroke:#000000"/><path d="m390.97 280.23-20.99-1.0583" style="fill:none;stroke-miterlimit:15;stroke-width:.088194px;stroke:#000000"/><path d="m393.97 272.82-16.316-.52917" style="fill:none;stroke-miterlimit:15;stroke-width:.088194px;stroke:#000000"/><path d="m384.8 310.83-73.995-.44097h-75.142l-2.8222-11.377-2.5576-11.553 79.64-1.4993 80.61.88194z" style="fill:#470806"/><path d="m384.8 310.83-73.995-.44097h-75.142l-2.8222-11.377-2.5576-11.553 79.64-1.4993 80.61.88194z" style="fill:#ffd42a"/><path d="m384.8 310.83-73.995-.44097h-75.142l-2.8222-11.377-2.5576-11.553 79.64-1.4993 80.61.88194z" style="fill:#ffd42a;stroke-miterlimit:15;stroke-width:.17639px;stroke:#000000"/><path d="m386.3 311.71c6.0854 4.5861-32.367 8.3785-75.23 8.3785-42.774 0-78.052-3.2632-77.523-8.3785.61736-5.3799 34.749-8.2021 77.523-8.2021 42.863 0 70.115 4.3215 75.23 8.2021z" style="fill:#ffc800"/><path d="m386.3 311.71c6.0854 4.5861-32.367 8.3785-75.23 8.3785-42.774 0-78.052-3.2632-77.523-8.3785.61736-5.3799 34.749-8.2021 77.523-8.2021 42.863 0 70.115 4.3215 75.23 8.2021z" style="fill:none;stroke-miterlimit:15;stroke-width:.17639px;stroke:#000000"/><path d="m381.27 313.83c0 3.7042-32.191 6.0854-71.79 6.0854-39.599 0-71.79-2.3812-71.79-6.0854 0-3.7924 32.191-5.5562 71.79-5.5562 39.599 0 71.79 4.057 71.79 5.5562z" style="fill:#ffc800"/><path d="m381.27 313.83c0 3.7042-32.191 6.0854-71.79 6.0854-39.599 0-71.79-2.3812-71.79-6.0854 0-3.7924 32.191-5.5562 71.79-5.5562 39.599 0 71.79 4.057 71.79 5.5562z" style="fill:none;stroke-miterlimit:15;stroke-width:.17639px;stroke:#000000"/><path d="m310.98 279.79c-47.096 0-85.284 4.8507-85.284 10.76 0 1.4111 2.2049 2.734 5.9972 3.9688v-.35278c0-4.1451 35.278-7.4083 78.934-7.4083 43.568 0 78.228 3.4396 78.228 7.5847 0 .17639 0 .70556-.1764.88195 4.4979-1.3229 7.5847-3.175 7.5847-4.6743 0-5.909-38.188-10.76-85.284-10.76z" style="fill:#ffd42a"/><path d="m310.98 279.79c-47.096 0-85.284 4.8507-85.284 10.76 0 1.4111 2.2049 2.734 5.9972 3.9688v-.35278c0-4.1451 35.278-7.4083 78.934-7.4083 43.568 0 78.228 3.4396 78.228 7.5847 0 .17639 0 .70556-.1764.88195 4.4979-1.3229 7.5847-3.175 7.5847-4.6743 0-5.909-38.188-10.76-85.284-10.76z" style="fill:#ffc800"/><path d="m310.98 279.79c-47.096 0-85.284 4.8507-85.284 10.76 0 1.4111 2.2049 2.734 5.9972 3.9688v-.35278c0-4.1451 35.278-7.4083 78.934-7.4083 43.568 0 78.228 3.4396 78.228 7.5847 0 .17639 0 .70556-.1764.88195 4.4979-1.3229 7.5847-3.175 7.5847-4.6743 0-5.909-38.188-10.76-85.284-10.76z" style="fill:none;stroke-miterlimit:15;stroke-width:.17639px;stroke:#000000"/><path d="m241.92 284.46 3.4396 5.4681" style="fill:none;stroke-miterlimit:15;stroke-width:.17639px;stroke:#000000"/><path d="m246.07 283.76 3.4396 5.3799" style="fill:none;stroke-miterlimit:15;stroke-width:.17639px;stroke:#000000"/><path d="m268.65 281.2 3.2632 6.5264" style="fill:none;stroke-miterlimit:15;stroke-width:.17639px;stroke:#000000"/><path d="m272.7 280.93 3.3514 6.35" style="fill:none;stroke-miterlimit:15;stroke-width:.17639px;stroke:#000000"/><path d="m296.34 280.05 3.7042 6.791" style="fill:none;stroke-miterlimit:15;stroke-width:.17639px;stroke:#000000"/><path d="m300.05 280.05 4.057 6.7028" style="fill:none;stroke-miterlimit:15;stroke-width:.17639px;stroke:#000000"/><path d="m320.24 279.96 4.057 6.8792" style="fill:none;stroke-miterlimit:15;stroke-width:.17639px;stroke:#000000"/><path d="m324.56 279.96 3.8806 6.8792" style="fill:none;stroke-miterlimit:15;stroke-width:.17639px;stroke:#000000"/><path d="m343.17 280.76 3.0868 6.6146" style="fill:none;stroke-miterlimit:15;stroke-width:.17639px;stroke:#000000"/><path d="m347.32 280.76 3.0868 6.9674" style="fill:none;stroke-miterlimit:15;stroke-width:.17639px;stroke:#000000"/><path d="m367.43 282.43 3.0868 6.8792" style="fill:none;stroke-miterlimit:15;stroke-width:.17639px;stroke:#000000"/><path d="m371.48 282.96 3.0868 6.6146" style="fill:none;stroke-miterlimit:15;stroke-width:.17639px;stroke:#000000"/><path d="m245.63 315.86 132.29-1.1465" style="fill:none;stroke-miterlimit:15;stroke-width:.088194px;stroke:#000000"/><path d="m248.8 311.89h122.94" style="fill:none;stroke-miterlimit:15;stroke-width:.088194px;stroke:#000000"/><path d="m237.69 313.83 142.26-.35277" style="fill:none;stroke-miterlimit:15;stroke-width:.088194px;stroke:#000000"/><path d="m261.15 317.27 107.77-.52917" style="fill:none;stroke-miterlimit:15;stroke-width:.088194px;stroke:#000000"/><path d="m271.03 309.33-4.4979 8.0257" style="fill:none;stroke-miterlimit:15;stroke-width:.088194px;stroke:#000000"/><path d="m280.02 308.8-5.0271 9.2604" style="fill:none;stroke-miterlimit:15;stroke-width:.088194px;stroke:#000000"/><path d="m275.35 309.16-4.3215 8.2021" style="fill:none;stroke-miterlimit:15;stroke-width:.088194px;stroke:#000000"/><path d="m289.11 308.54-4.9389 11.201" style="fill:none;stroke-miterlimit:15;stroke-width:.088194px;stroke:#000000"/><path d="m284.61 308.8-4.5861 9.3486" style="fill:none;stroke-miterlimit:15;stroke-width:.088194px;stroke:#000000"/><path d="m293.61 308.54-5.0271 11.289" style="fill:none;stroke-miterlimit:15;stroke-width:.088194px;stroke:#000000"/><path d="m298.1 308.54-5.0271 11.112" style="fill:none;stroke-miterlimit:15;stroke-width:.088194px;stroke:#000000"/><path d="m302.78 308.19-5.2035 11.465" style="fill:none;stroke-miterlimit:15;stroke-width:.088194px;stroke:#000000"/><path d="m307.28 308.19-5.1153 11.642" style="fill:none;stroke-miterlimit:15;stroke-width:.088194px;stroke:#000000"/><path d="m311.69 308.36-5.2035 11.642" style="fill:none;stroke-miterlimit:15;stroke-width:.088194px;stroke:#000000"/><path d="m316.27 308.19-5.2035 11.642" style="fill:none;stroke-miterlimit:15;stroke-width:.088194px;stroke:#000000"/><path d="m320.77 308.19-5.1153 11.642" style="fill:none;stroke-miterlimit:15;stroke-width:.088194px;stroke:#000000"/><path d="m325.09 308.54-5.2035 11.553" style="fill:none;stroke-miterlimit:15;stroke-width:.088194px;stroke:#000000"/><path d="m329.59 308.54-4.8507 10.936" style="fill:none;stroke-miterlimit:15;stroke-width:.088194px;stroke:#000000"/><path d="m333.74 308.8-4.5861 10.848" style="fill:none;stroke-miterlimit:15;stroke-width:.088194px;stroke:#000000"/><path d="m338.41 308.8-4.6743 11.201" style="fill:none;stroke-miterlimit:15;stroke-width:.088194px;stroke:#000000"/><path d="m342.82 309.16-4.4097 10.319" style="fill:none;stroke-miterlimit:15;stroke-width:.088194px;stroke:#000000"/><path d="m347.14 309.33-4.4097 10.142" style="fill:none;stroke-miterlimit:15;stroke-width:.088194px;stroke:#000000"/><path d="m351.55 309.42-4.2333 9.525" style="fill:none;stroke-miterlimit:15;stroke-width:.088194px;stroke:#000000"/><path d="m355.52 309.95-3.616 8.9958" style="fill:none;stroke-miterlimit:15;stroke-width:.088194px;stroke:#000000"/><path d="m360.02 310.39-3.616 8.5549" style="fill:none;stroke-miterlimit:15;stroke-width:.088194px;stroke:#000000"/><path d="m364.96 310.83-3.5278 6.8792" style="fill:none;stroke-miterlimit:15;stroke-width:.088194px;stroke:#000000"/><path d="m369.28 311.63-3.5278 5.1153" style="fill:none;stroke-miterlimit:15;stroke-width:.088194px;stroke:#000000"/><path d="m373.25 312.51-2.8222 3.7042" style="fill:none;stroke-miterlimit:15;stroke-width:.088194px;stroke:#000000"/><path d="m377.22 313.39-2.2931 2.1167" style="fill:none;stroke-miterlimit:15;stroke-width:.088194px;stroke:#000000"/><path d="m243.95 312.33-2.4694 2.734" style="fill:none;stroke-miterlimit:15;stroke-width:.088194px;stroke:#000000"/><path d="m248.89 311.54-3.2632 4.3215" style="fill:none;stroke-miterlimit:15;stroke-width:.088194px;stroke:#000000"/><path d="m253.83 310.83-3.5278 5.8208" style="fill:none;stroke-miterlimit:15;stroke-width:.088194px;stroke:#000000"/><path d="m258.51 310.39-3.7042 6.2618" style="fill:none;stroke-miterlimit:15;stroke-width:.088194px;stroke:#000000"/><path d="m263.09 309.95-4.8507 7.4083" style="fill:none;stroke-miterlimit:15;stroke-width:.088194px;stroke:#000000"/><path d="m266.97 309.42-4.2333 8.0257" style="fill:none;stroke-miterlimit:15;stroke-width:.088194px;stroke:#000000"/><path d="m389.74 286.23 3.0868 7.3201" style="fill:none;stroke-miterlimit:15;stroke-width:.17639px;stroke:#000000"/><path d="m361.78 257.21-4.1451.0882" style="fill:none;stroke-miterlimit:15;stroke-width:.088194px;stroke:#000000"/><path d="m361.78 264.35-3.7924.17639" style="fill:none;stroke-miterlimit:15;stroke-width:.088194px;stroke:#000000"/><path d="m361.78 260.83-4.1451.0882" style="fill:none;stroke-miterlimit:15;stroke-width:.088194px;stroke:#000000"/><path d="m366.28 278.9-8.2903-.17639" style="fill:none;stroke-miterlimit:15;stroke-width:.088194px;stroke:#000000"/><path d="m364.07 271.85h-6.0854" style="fill:none;stroke-miterlimit:15;stroke-width:.088194px;stroke:#000000"/><path d="m364.07 275.47h-6.0854" style="fill:none;stroke-miterlimit:15;stroke-width:.088194px;stroke:#000000"/><path d="m364.07 268.06h-6.0854" style="fill:none;stroke-miterlimit:15;stroke-width:.088194px;stroke:#000000"/><path d="m266 257.12-4.1451.17638" style="fill:none;stroke-miterlimit:15;stroke-width:.088194px;stroke:#000000"/><path d="m265.65 264.26-5.9972.35277" style="fill:none;stroke-miterlimit:15;stroke-width:.088194px;stroke:#000000"/><path d="m266 260.65-5.2917.35278" style="fill:none;stroke-miterlimit:15;stroke-width:.088194px;stroke:#000000"/><path d="m265.56 278.46-10.495.70556" style="fill:none;stroke-miterlimit:15;stroke-width:.088194px;stroke:#000000"/><path d="m265.56 271.5-8.2021.61736" style="fill:none;stroke-miterlimit:15;stroke-width:.088194px;stroke:#000000"/><path d="m265.56 275.11-10.495.70556" style="fill:none;stroke-miterlimit:15;stroke-width:.088194px;stroke:#000000"/><path d="m265.56 267.79-8.2021.52917" style="fill:none;stroke-miterlimit:15;stroke-width:.088194px;stroke:#000000"/><path d="m350.67 257.47h-1.7639" style="fill:none;stroke-miterlimit:15;stroke-width:.088194px;stroke:#000000"/><path d="m346.26 264.53-5.3799-.0882" style="fill:none;stroke-miterlimit:15;stroke-width:.088194px;stroke:#000000"/><path d="m349.17 260.83h-5.0271" style="fill:none;stroke-miterlimit:15;stroke-width:.088194px;stroke:#000000"/><path d="m334.26 278.46-3.7042-.17639" style="fill:none;stroke-miterlimit:15;stroke-width:.088194px;stroke:#000000"/><path d="m339.64 272.03h-3.3514" style="fill:none;stroke-miterlimit:15;stroke-width:.088194px;stroke:#000000"/><path d="m336.82 275.55-3.7042-.0882" style="fill:none;stroke-miterlimit:15;stroke-width:.088194px;stroke:#000000"/><path d="m342.55 268.23h-2.9104" style="fill:none;stroke-miterlimit:15;stroke-width:.088194px;stroke:#000000"/><path d="m317.33 255.89h-3.4396" style="fill:none;stroke-miterlimit:15;stroke-width:.088194px;stroke:#000000"/><path d="m320.51 262.94h-4.5861" style="fill:none;stroke-miterlimit:15;stroke-width:.088194px;stroke:#000000"/><path d="m320.07 259.24h-5.0271" style="fill:none;stroke-miterlimit:15;stroke-width:.088194px;stroke:#000000"/><path d="m327.91 276.88h-4.3215" style="fill:none;stroke-miterlimit:15;stroke-width:.088194px;stroke:#000000"/><path d="m324.47 270.44h-4.5861" style="fill:none;stroke-miterlimit:15;stroke-width:.088194px;stroke:#000000"/><path d="m327.65 273.88-5.9972.0882" style="fill:none;stroke-miterlimit:15;stroke-width:.088194px;stroke:#000000"/><path d="m323.33 266.65h-5.4681" style="fill:none;stroke-miterlimit:15;stroke-width:.088194px;stroke:#000000"/><path d="m306.31 255.71h-3.9688" style="fill:none;stroke-miterlimit:15;stroke-width:.088194px;stroke:#000000"/><path d="m303.75 262.94h-3.7924" style="fill:none;stroke-miterlimit:15;stroke-width:.088194px;stroke:#000000"/><path d="m305.25 259.24h-5.0271" style="fill:none;stroke-miterlimit:15;stroke-width:.088194px;stroke:#000000"/><path d="m295.9 276.88h-4.5861" style="fill:none;stroke-miterlimit:15;stroke-width:.088194px;stroke:#000000"/><path d="m299.07 270.44h-3.8806" style="fill:none;stroke-miterlimit:15;stroke-width:.088194px;stroke:#000000"/><path d="m298.19 273.97h-5.0271" style="fill:none;stroke-miterlimit:15;stroke-width:.088194px;stroke:#000000"/><path d="m301.1 266.65h-3.3514" style="fill:none;stroke-miterlimit:15;stroke-width:.088194px;stroke:#000000"/><path d="m273.06 257.47h-4.0569" style="fill:none;stroke-miterlimit:15;stroke-width:.088194px;stroke:#000000"/><path d="m278.79 264.44-5.3799.0882" style="fill:none;stroke-miterlimit:15;stroke-width:.088194px;stroke:#000000"/><path d="m275.53 260.83-5.0271.0882" style="fill:none;stroke-miterlimit:15;stroke-width:.088194px;stroke:#000000"/><path d="m289.11 278.29-3.7042.17639" style="fill:none;stroke-miterlimit:15;stroke-width:.088194px;stroke:#000000"/><path d="m283.46 272.03h-3.4396" style="fill:none;stroke-miterlimit:15;stroke-width:.088194px;stroke:#000000"/><path d="m286.55 275.47-3.7042.0882" style="fill:none;stroke-miterlimit:15;stroke-width:.088194px;stroke:#000000"/><path d="m280.82 268.23h-3.7042" style="fill:none;stroke-miterlimit:15;stroke-width:.088194px;stroke:#000000"/><path d="m228.25 287.81 3.7924 5.6444" style="fill:none;stroke-miterlimit:15;stroke-width:.17639px;stroke:#000000"/><path d="m381.27 312.86-2.2931 102.48c-.79375 42.774-32.544 76.641-70.82 75.671-37.042-.88196-66.851-34.308-67.733-75.671l-2.2049-102.48z" style="fill:#ffffff"/><path d="m381.27 312.86-2.2931 102.48c-.79375 42.774-32.544 76.641-70.82 75.671-37.042-.88196-66.851-34.308-67.733-75.671l-2.2049-102.48z" style="fill:none;stroke-miterlimit:15;stroke-width:.61736px;stroke:#000000"/><path transform="matrix(.26458 0 0 .26458 79.647 207.73)" d="m919 917.67c-4.3333 0-8 .33333-12 .66666-21.667 2.6667-42 7.6667-47.667 25-3.3333 10-20 10.333-33.667 17.333-11.667 5.6667-16.333 38-24 42.333-14.667 7.6667-5.3333 20.667-12 24.667-9.3333 6-14.667 11.667-18.333 25-2.3333 8.3333-12.667 11.333-19 18 1.3333.6666 2.3333 1.6666 3.3333 2.6666l14 7.3334 1.3333 1.6666c9.6667 4.3334 21.333 6.6667 35 6.6667h74.333c49 0 67 63 67 63s17.667-63 67-63h74c9 0 17-1 24.333-3l25.333-12c5.3333-4.3333 10-9.3333 13.667-15-13-22-40.333-23.333-41.667-36-2.3333-20.333-28.333-19.333-32.667-39.333-3.6666-16.667-27-9-32-23.667-2.6666-8-17.333-11.667-33.667-15-11.333-2.3333-7.3334-14.333-28.667-18.333-16.333-3.3333-42.333-9-64-9z" clip-path="url(#a)" style="fill:#002b00"/><path d="m332.5 380.59c-.0882-.61736-.26458-1.3229-.0882-2.0285 4.6743-3.4396 4.057-8.0257 9.1722-8.0257h.44097c.88194.17639 1.9403 1.5875 1.9403 3.4396-5.1153-.44097-4.3215 2.0285-5.3799 4.1451-.52917.97014-1.7639 1.7639-2.9986 2.4694z" style="fill-rule:evenodd;fill:#a95417"/><path d="m332.5 380.59c-.0882-.61736-.26458-1.3229-.0882-2.0285 4.6743-3.4396 4.057-8.0257 9.1722-8.0257h.44097c.88194.17639 1.9403 1.5875 1.9403 3.4396-5.1153-.44097-4.3215 2.0285-5.3799 4.1451-.52917.97014-1.7639 1.7639-2.9986 2.4694z" style="fill:none;stroke-miterlimit:15;stroke-width:.26458px;stroke:#000000"/><path d="m310.63 453.62c1.0583 0 2.5576.88194 5.0271 1.0583v2.4694c.0882 1.7639 3.616 5.5562 5.1153 5.8208.61736.17639.88194.61736 1.3229.97014.26459.17639 0 1.0583 0 1.4111 0 0-1.1465.44097-1.2347.44097-.35278.26458-1.5875 0-1.9403-.0882-2.9986-.61736-6.35-2.1167-8.2903-4.057-.0882 0-.0882-.0882-.0882-.17639l-.35278.52917-3.175-1.2347c.17639-2.3812 2.0285-4.9389 3.3514-7.1438h.26459z" style="fill-rule:evenodd;fill:#a95417"/><path d="m310.63 453.62c1.0583 0 2.5576.88194 5.0271 1.0583v2.4694c.0882 1.7639 3.616 5.5562 5.1153 5.8208.61736.17639.88194.61736 1.3229.97014.26459.17639 0 1.0583 0 1.4111 0 0-1.1465.44097-1.2347.44097-.35278.26458-1.5875 0-1.9403-.0882-2.9986-.61736-6.35-2.1167-8.2903-4.057-.0882 0-.0882-.0882-.0882-.17639l-.35278.52917-3.175-1.2347c.17639-2.3812 2.0285-4.9389 3.3514-7.1438h.26459z" style="fill:none;stroke-miterlimit:15;stroke-width:.35278px;stroke:#000000"/><path d="m287.52 447.18c.97014 0 1.7639 1.0583 2.5576 2.2049-.26458 4.4979-.79375 9.7896-6.4382 13.582-2.4694-4.6743-1.3229-8.4667-.0882-11.994.97014-.61736 1.7639-1.3229 2.1167-1.9403-1.6757-1.1465-.17639-1.8521 1.8521-1.8521z" style="fill-rule:evenodd;fill:#a95417"/><path d="m287.52 447.18c.97014 0 1.7639 1.0583 2.5576 2.2049-.26458 4.4979-.79375 9.7896-6.4382 13.582-2.4694-4.6743-1.3229-8.4667-.0882-11.994.97014-.61736 1.7639-1.3229 2.1167-1.9403-1.6757-1.1465-.17639-1.8521 1.8521-1.8521z" style="fill:none;stroke-linecap:round;stroke-linejoin:round;stroke-miterlimit:15;stroke-width:.26458px;stroke:#000000"/><path d="m322.89 387.38c-7.4965 3.4396-18.168 3.175-24.783 1.0583-27.252 39.599-27.252 39.599-27.252 39.599 3.0868.26458 7.1438 1.8521 3.175 9.2604-3.9688 7.4965 2.4694 2.6458 2.4694 7.8493-2.734 5.6444-2.734 5.6444-2.734 5.6444 3.0868 4.1451 10.231.70555 11.906-1.7639-1.6757-1.0583-.17639-1.8521 1.8521-1.8521 2.4694.0882 3.8806 6.35 6.1736 4.9389 0 0 .97014-2.0285 1.8521-1.7639.88194.26459.44097 2.2931 1.3229 2.5576.79375.26459 1.5875-1.4111 2.3812-1.2347.88195.26458.52917 1.6757 1.4111 1.8521.79375.17639 1.3229-.79375 2.1167-.79375.97014.0882-.17639 2.0285 2.4694 2.1167 1.3229.0882 2.8222-.88194 5.1153-1.2347 2.3812-.26459 7.0556 4.6743 20.285-4.2333z" style="fill-rule:evenodd;fill:#8b4513"/><path d="m322.98 386.41c-7.3201 4.2333-17.374 3.4396-25.135 1.4111" style="fill:none;stroke-linecap:round;stroke-linejoin:round;stroke-miterlimit:15;stroke-width:1.4993px;stroke:#000000"/><path d="m310.8 452.82.52916.17639c.0882.0882.0882.17639.17639.26458 0 .97014-.70555 1.8521-.88194 2.6458-.0882.44098 0 1.2347 0 1.6757 0 .70555-.0882 1.5875.0882 2.2049.0882.44097 1.0583 1.1465 1.3229 1.3229.70555.61736.97014 1.1465 1.6757 1.5875.0882.0882.17639.17638.35278.26458.52917.61736.88194.61736 1.0583 1.4111-.44097-.26458-.97014-.35278-1.3229-.44097-.70556-.17639-1.0583-.61736-1.6757-.79375-.52916-.17639-1.1465-1.1465-1.4993-1.4993-.0882 0-.0882-.0882-.0882-.17639l-.35278.52917-3.175-1.2347c.17639-2.6458 2.4694-5.5562 3.7924-7.9375z" style="fill-rule:evenodd;fill:#62300c"/><path d="m310.89 391.26c1.6757 62.794 1.6757 62.794 1.6757 62.794-.88194-.26458-1.5875-.44097-2.2049-.44097-.0882 0-.26458.0882-.35277.0882z" style="fill-rule:evenodd;fill:#a95417"/><path d="m307.98 403.17-.70555 51.329c-.79375.17639-1.4111.44097-2.0285.35278-2.6458-.17639-1.4993-2.0285-2.4694-2.1167-.79375 0-1.3229.97014-2.1167.79375-.88194-.17639-.52916-1.5875-1.4111-1.8521-.79375-.17639-1.5875 1.4993-2.3812 1.1465-.70555-.17639-.52916-1.5875-.97014-2.2049 2.2931-11.818 2.9104-19.844 8.4667-38.365v11.994c.88195-7.4083 1.7639-14.905 3.616-21.078z" style="fill-rule:evenodd;fill:#62300c"/><path d="m291.84 449.21-2.734-2.2049c17.286-56.709 17.286-56.709 17.286-56.709-2.2049 18.785-8.1139 39.158-14.552 58.914z" style="fill-rule:evenodd;fill:#a95417"/><path d="m302.87 392.94-17.639 53.446c-3.616 2.9986-7.3201 4.4979-10.936 5.0271-.17639-.17639-.35278-.44098-.52917-.61736 2.734-5.6444 2.734-5.6444 2.734-5.6444 0-.79375-.0882-1.4111-.44098-1.7639z" style="fill-rule:evenodd;fill:#62300c"/><path d="m298.19 387.83c-4.1451-3.0868-2.734-7.0556-2.2049-10.672 1.3229-9.4368-2.0285-6.8792-5.5562-4.1451-11.112 8.2903-15.258.88194-18.697-8.4667 2.4694-1.4111 4.6743-2.2931 8.4667-6.0854 4.3215 11.289 9.7896 1.4993 14.64-1.2347 1.0583 3.175 3.7042 5.1153 4.6743 7.5847 5.6444 14.552 21.608 11.024 22.137-8.643 1.9403-.26459 7.9375 5.1153 9.966 9.1722 1.6757 3.4396 5.8208 8.3785 10.672 8.5549-6.0854-.35278-5.2917 4.5861-10.495 8.2021-1.7639-6.1736-5.0271-10.142-8.8194-13.494-.61736 1.9403-.61736 6.2618.17639 9.084.70555 2.5576.0882 8.9076.0882 8.9076-8.9958 4.1451-17.022 2.8222-25.047 1.2347z" style="fill-rule:evenodd;fill:#8b4513"/><path d="m317.95 354.93 3.7042 1.2347c-.61736 19.667-16.492 23.195-22.137 8.643-.97014-2.4694-3.616-4.4097-4.6743-7.5847l2.2049-1.4993c4.4979 8.9958 19.138 21.255 20.902-.79375z" style="fill-rule:evenodd;fill:#8b4513"/><path d="m307.01 348.23c4.2333-.0882 8.2903 1.8521 8.9076 5.7326l2.0285.97013c-1.7639 22.049-16.316 9.7896-20.902.79375.35278-5.0271 5.2917-7.4965 9.966-7.4965z" style="fill-rule:evenodd;fill:#8b4513"/><path d="m297.31 367.72c.61736 0 1.4111.44097 2.6458 1.6757 0 0 3.2632 5.6444 2.6458 8.6431-.97014 4.4979-.88194 8.4667 4.6743 11.201-2.9986-.26458-6.0854-.79375-9.084-1.4111-4.1451-3.0868-2.734-7.0556-2.2049-10.672.61736-4.4097.26458-6.1736-.70556-6.5264.52917-1.3229.88195-2.9104 2.0285-2.9104z" style="fill-rule:evenodd;fill:#a95417"/><path d="m276.32 361.81c1.2347 3.7042 2.5576 9.6132 5.6444 11.024 2.9104 1.4993 7.5847-2.2049 12.7-2.4694l-.0882.17639c-1.1465.17639-2.6458 1.3229-4.1451 2.4694-11.112 8.2903-15.258.88194-18.697-8.4667 1.4993-.79375 2.9104-1.4993 4.5861-2.734z" style="fill-rule:evenodd;fill:#a95417"/><path d="m323.33 365.25c3.3514 5.7326 8.3785 7.8493 12.083 13.053-.88195 1.3229-1.8521 2.6458-3.616 3.7924-1.6757-5.9972-4.9389-9.966-8.643-13.317 0-.0882-.0882-.0882-.17639-.17639v.0882c-2.2049-.52917-2.2049-.52917-2.2049-.52917.44097-1.1465 1.2347-2.2049 2.5576-2.9104z" style="fill-rule:evenodd;fill:#a95417"/><path d="m302.51 369.92c.44097.61736.97014 1.0583 1.4993 1.4993 1.1465 4.4979 2.2931 9.8778 1.8521 13.406-.26459 1.7639 1.6757 2.734 4.4097 2.6458 2.293-.0882 5.8208-.88194 6.9674-3.7924 2.0285 3.5278-6.0854 5.6444-9.7014 4.9389-3.175-.70555-4.2333-4.4979-3.8806-9.3486.0882-2.2049-.52917-5.909-1.1465-9.3486z" style="fill-rule:evenodd;fill:#a95417"/><path d="m298.1 388.44c1.2347.44098 2.5576.70556 3.9688.97014-28.575 52.564-28.575 52.564-28.575 52.564-.88195-.35278-1.2347-1.2347.52916-4.6743 3.9688-7.3201-.0882-8.9958-3.175-9.2604z" style="fill-rule:evenodd;fill:#a95417"/><path d="m338.32 379.71c1.9403.35278 2.734 1.2347 3.2632 2.2049-3.2632 2.8222-4.4979 2.9986-7.232 4.5861-1.5875.26458-2.6458-1.3229-1.8521-2.3812z" style="fill-rule:evenodd;fill:#62300c"/><path d="m338.32 379.71c1.9403.35278 2.734 1.2347 3.2632 2.2049-3.2632 2.8222-4.4979 2.9986-7.232 4.5861-1.5875.26458-2.6458-1.3229-1.8521-2.3812z" style="fill:none;stroke-linecap:round;stroke-linejoin:round;stroke-miterlimit:15;stroke-width:.26458px;stroke:#000000"/><path d="m344.41 377.42c4.2333 2.9986 7.5847.88194 9.7014 5.8208 0 .35278.1764.52917-.35277.35278.1764.26458.35277.61736.35277.97014 0 .17639-.26458.0882-.17637.44097.0882.44097-.1764.88194-.61738.79375-.0882-.0882-.52917-.44097-.52917-.35278 0 .0882 0 .97014-.79375.70556-.0882-.0882-.44095-.35278-.52916-.44097-1.2347-.79375-1.9403-1.5875-3.8805-2.1167-.52917-.17639-.97015-.61736-1.1466-.61736-.0882 0 0 0-.44095-.17639 2.3812 1.2347 2.9986 2.5576.35277 2.1167-.79375-.17639-1.9403-.79375-3.2632-1.4111-.44097-.26458-.70555-.97013-1.1465-1.2347-1.4111-1.0583-3.8806-1.7639-4.6743-2.5576l1.6757-4.4097z" style="fill-rule:evenodd;fill:#ffc28b"/><path d="m344.41 377.42c4.2333 2.9986 7.5847.88194 9.7014 5.8208 0 .35278.1764.52917-.35277.35278.1764.26458.35277.61736.35277.97014 0 .17639-.26458.0882-.17637.44097.0882.44097-.1764.88194-.61738.79375-.0882-.0882-.52917-.44097-.52917-.35278 0 .0882 0 .97014-.79375.70556-.0882-.0882-.44095-.35278-.52916-.44097-1.2347-.79375-1.9403-1.5875-3.8805-2.1167-.52917-.17639-.97015-.61736-1.1466-.61736-.0882 0 0 0-.44095-.17639 2.3812 1.2347 2.9986 2.5576.35277 2.1167-.79375-.17639-1.9403-.79375-3.2632-1.4111-.44097-.26458-.70555-.97013-1.1465-1.2347-1.4111-1.0583-3.8806-1.7639-4.6743-2.5576l1.6757-4.4097z" style="fill:none;stroke-miterlimit:15;stroke-width:.17639px;stroke:#000000"/><path d="m349.7 380.59c1.8521.35278 3.175 1.4111 4.0569 2.9986z" style="fill-rule:evenodd;fill:#ffc28b"/><path d="m349.7 380.59c1.8521.35278 3.175 1.4111 4.0569 2.9986" style="fill:none;stroke-linecap:round;stroke-linejoin:round;stroke-miterlimit:15;stroke-width:.17639px;stroke:#000000"/><path d="m348.38 382.53c1.7639.61736 3.0868 1.5875 4.4097 2.8222z" style="fill-rule:evenodd;fill:#ffc28b"/><path d="m348.38 382.53c1.7639.61736 3.0868 1.5875 4.4097 2.8222" style="fill:none;stroke-linecap:round;stroke-linejoin:round;stroke-miterlimit:15;stroke-width:.17639px;stroke:#000000"/><path d="m349.08 381.56c1.8521.35277 3.3514 1.4993 4.7625 3.175z" style="fill-rule:evenodd;fill:#ffc28b"/><path d="m349.08 381.56c1.8521.35277 3.3514 1.4993 4.7625 3.175" style="fill:none;stroke-linecap:round;stroke-linejoin:round;stroke-miterlimit:15;stroke-width:.17639px;stroke:#000000"/><path d="m341.76 373.89h.52916c.88195.17639 2.1167 1.5875 2.1167 3.5278-5.6445-.44097-4.7625 2.0285-5.909 4.2333-.97014 1.6757-4.2333 2.9104-5.7326 4.2333-.70555-1.1465-1.1465-2.3812-.97014-3.7924 5.0271-3.5278 4.4979-8.2021 9.966-8.2021z" style="fill-rule:evenodd;fill:#8b4513"/><path d="m341.76 373.89h.52916c.88195.17639 2.1167 1.5875 2.1167 3.5278-5.6445-.44097-4.7625 2.0285-5.909 4.2333-.97014 1.6757-4.2333 2.9104-5.7326 4.2333-.70555-1.1465-1.1465-2.3812-.97014-3.7924 5.0271-3.5278 4.4979-8.2021 9.966-8.2021z" style="fill:none;stroke-linecap:round;stroke-linejoin:round;stroke-miterlimit:15;stroke-width:.35278px;stroke:#000000"/><path d="m317.24 383.77-1.2347-12.524.26458 14.199z" style="fill-rule:evenodd;fill:#62300c"/><path d="m297.05 355.72c1.3229 2.4694 3.3514 5.2917 5.7326 7.5847.0882.61736.26458 1.2347.35278 1.5875.0882.44097.44097.61736.88194.79375.61736.0882 1.3229.97014 1.7639 1.3229.61736.44098.35278.88195 1.3229 1.3229.52917.17639 1.2347 0 1.6757.17639.79375.35278-.17639.97014-.61736 1.1465-.70555.26458-1.1465.35277-1.8521.52916-1.0583.17639-1.6757-.0882-2.2049-.79375-.35278-.44097-.52917-.97014-.88195-1.4111-.44097-.44097-.79375-.61736-.88194-1.1465 0-.35277-.61736-.70555-.79375-.88194-.52917-.44097-1.2347-.70556-1.9403-.97014 0-.0882-.0882-.0882-.0882-.17639-.97014-2.4694-3.616-4.4097-4.6743-7.5847z" style="fill-rule:evenodd;fill:#a95417"/><path d="m308.42 350.25c3.4396.35278 5.909 2.3812 5.6444 4.5861-.17639 2.2049-3.175 3.7042-6.5264 3.3514-3.4396-.44097-5.909-2.4694-5.7326-4.5861.26459-2.2049 3.175-3.7042 6.6146-3.3514z" style="fill-rule:evenodd;fill:#62300c"/><path d="m302.87 351.84 2.1167 5.1153c3.7042 1.8521 8.1139.17639 8.3785-1.5875-1.4111-2.3812-.52916-3.4396-1.2347-5.9972z" style="fill-rule:evenodd;fill:#ffc28b"/><path d="m302.87 351.84 2.1167 5.1153c3.7042 1.8521 8.1139.17639 8.3785-1.5875-1.4111-2.3812-.52916-3.4396-1.2347-5.9972z" style="fill:none;stroke-miterlimit:15;stroke-width:.088194px;stroke:#000000"/><path d="m298.02 352.64v.70555c0 .61737.79375 1.2347 1.0583 1.4993.44098.35278.70556.61736 1.1465 1.0583.61736.52917 1.1465.79375 1.5875 1.2347.52917.52916 1.6757.44097 2.2049.79375.97014.35277 1.5875.88194 1.8521 1.8521.0882.88194.44097 1.3229.88194 1.7639.35278.44097.52917.88194.52917 1.5875 0 1.1465-2.2931-.26459-2.734-.44097-.97014-.61737-1.5875-1.1465-1.9403-2.1167-.26458-.79375-1.2347-1.6757-1.8521-2.2049l-.61736-.61736c-.88195-.88195-1.9403-1.1465-2.9986-1.9403l-.0882-.0882c.0882-1.2347.44097-2.2049.97014-3.0868z" style="fill-rule:evenodd;fill:#a95417"/><path d="m307.01 348.23c4.2333-.0882 8.2903 1.8521 8.9076 5.7326l2.0285.97013c-1.7639 22.049-16.316 9.7896-20.902.79375.35278-5.0271 5.2917-7.4965 9.966-7.4965z" style="fill:none;stroke-miterlimit:15;stroke-width:.35278px;stroke:#000000"/><path d="m311.51 345.4v1.0583c.17639.79375.35278 1.6757.35278 2.5576.70555 2.1167-1.2347 4.2333-2.6458 4.7625-1.9403.61736-3.0868 0-4.4097-.61736-1.5875-.79375-2.9986-1.8521-4.6743-2.9986-.61736-.44097-.61736-1.1465-1.1465-1.4993-.97014-.79375-2.3812-1.3229-2.3812-3.2632-.0882-.52916.70556-1.1465 1.4111-1.0583.79375.17639-.17639-.52917.0882-1.5875.44097-1.3229 1.4993-3.175 2.3812-3.8806 1.5875-1.3229 3.175-2.1167 5.2917-2.1167.88195 0 2.8222.26458 3.5278 1.2347 2.4694 2.9986 2.0285 3.616 2.2049 7.4083z" style="fill-rule:evenodd;fill:#ffc28b"/><path d="m311.51 345.4v1.0583c.17639.79375.35278 1.6757.35278 2.5576.70555 2.1167-1.2347 4.2333-2.6458 4.7625-1.9403.61736-3.0868 0-4.4097-.61736-1.5875-.79375-2.9986-1.8521-4.6743-2.9986-.61736-.44097-.61736-1.1465-1.1465-1.4993-.97014-.79375-2.3812-1.3229-2.3812-3.2632-.0882-.52916.70556-1.1465 1.4111-1.0583.79375.17639-.17639-.52917.0882-1.5875.44097-1.3229 1.4993-3.175 2.3812-3.8806 1.5875-1.3229 3.175-2.1167 5.2917-2.1167.88195 0 2.8222.26458 3.5278 1.2347 2.4694 2.9986 2.0285 3.616 2.2049 7.4083z" style="fill:none;stroke-miterlimit:15;stroke-width:.088194px;stroke:#000000"/><path d="m308.16 336.67 1.0583 2.4694s.88194.52917 1.2347.97014c.52916.61736.70555 1.4111.88194 2.2049.0882.52917.0882 1.3229.0882 1.4993.0882.0882.26458.52917.44097.61737.26458.17638.88194.0882.88194.0882s-.35277-.35278-.44097-.97014c-.0882-.44097-.26458-1.1465-.35278-1.6757-.0882-.70556-.17639-1.4111-.44097-2.1167-.35278-.88194-.88194-1.6757-1.4111-2.4694-.79375-1.0583-2.5576-1.6757-2.3812-1.3229 0 0 .26458.35278.44097.70555z" style="fill-rule:evenodd;fill:#482308"/><path d="m308.16 336.67 1.0583 2.4694s.88194.52917 1.2347.97014c.52916.61736.70555 1.4111.88194 2.2049.0882.52917.0882 1.3229.0882 1.4993.0882.0882.26458.52917.44097.61737.26458.17638.88194.0882.88194.0882s-.35277-.35278-.44097-.97014c-.0882-.44097-.26458-1.1465-.35278-1.6757-.0882-.70556-.17639-1.4111-.44097-2.1167-.35278-.88194-.88194-1.6757-1.4111-2.4694-.79375-1.0583-2.5576-1.6757-2.3812-1.3229 0 0 .26458.35278.44097.70555z" style="fill:none;stroke-miterlimit:15;stroke-width:.088194px;stroke:#000000"/><path d="m310.54 343.2c-.79375-.44097-1.5875-.97014-2.5576.0882 0 0 .79375.52916 1.3229.52916s1.2347-.61736 1.2347-.61736z" style="fill-rule:evenodd;fill:#ffffff"/><path d="m309.13 343.2c0 .17639.17639.35278.35278.35278s.35278-.17639.35278-.35278c0-.0882-.17639-.26458-.35278-.26458s-.35278.17639-.35278.26458z" style="fill-rule:evenodd;fill:#000000"/><path d="m309.13 343.2c0 .17639.17639.35278.35278.35278s.35278-.17639.35278-.35278c0-.0882-.17639-.26458-.35278-.26458s-.35278.17639-.35278.26458z" style="fill:none;stroke-linecap:round;stroke-linejoin:round;stroke-miterlimit:15;stroke-width:.26458px;stroke:#552200"/><path d="m302.51 344.7c.61736-.70556 1.1465-1.4111 2.5576-.79375 0 0-.0882.61736-.44098.79375-.52916.35278-2.1167 0-2.1167 0z" style="fill-rule:evenodd;fill:#ffffff"/><path d="m303.84 344.26c0 .17639.17639.35277.35278.35277.26459 0 .44097-.17638.44097-.35277 0-.26459-.17638-.44098-.44097-.44098-.17639 0-.35278.17639-.35278.44098z" style="fill-rule:evenodd;fill:#000000"/><path d="m303.84 344.26c0 .17639.17639.35277.35278.35277.26459 0 .44097-.17638.44097-.35277 0-.26459-.17638-.44098-.44097-.44098-.17639 0-.35278.17639-.35278.44098z" style="fill:none;stroke-linecap:round;stroke-linejoin:round;stroke-miterlimit:15;stroke-width:.35278px;stroke:#552200"/><path d="m317.95 354.93c-1.7639 22.049-16.404 9.7896-20.902.79375" style="fill:none;stroke-linecap:round;stroke-linejoin:round;stroke-miterlimit:15;stroke-width:.35278px;stroke:#552200"/><path d="m277.82 355.55c.26459 0 .44098 0 .44098.61736v1.4993c0 .52917-.44098 1.2347-.52917 1.5875-.26458.79375-1.3229.97014-1.9403.70556-.26458-.17639-.26458-.70556-.26458-1.2347 0-.0882.0882-.0882.0882-.17639.0882 0 .0882-.0882.17639-.0882.0882-.0882.17639-.17639.17639-.26458.17639-.17639.35278-.26458.52917-.44097v-.17639c.17639-.35278 0-.79375-.17639-1.1465-.0882-.17639-.17639-.26458-.26459-.35278.26459-.26458.88195-.52916 1.3229-.52916h.44097zm-8.7312 5.2917c.44098.26459.97014.79375 1.3229 1.0583.61736.44097 1.4993-.17639 1.9403-.44098.52916-.17639.52916-.35277 1.2347-.35277.26458 0 .88194 1.4111.97014 1.6757.0882.0882.0882.0882.0882.17639v.0882s-.0882 0-.0882.0882-.0882.0882-.0882.0882c0 .0882-.0882.0882-.17638.0882 0 .0882-.0882.17639-.17639.17639 0 0-.0882 0-.0882.0882-.17639.0882-.26458.0882-.35278.0882-.26458.0882-.52916.0882-.79375.26459 0 0-.17638.0882-.17638.0882-.35278.26459-.70556.35278-1.0583.44097-.17639 0-.35278 0-.52916.0882-.17639 0-.35278.0882-.52917.0882h-.17639c-.17639 0-.26458 0-.35278-.17639l-.17639-.0882v-.0882s-.0882 0-.0882-.0882-.0882-.26458-.17639-.44097c0-.17639 0-.26458-.0882-.44097-.0882-.35278-.17639-.70556-.17639-1.1465-.0882-.44097-.17639-.79375-.17639-1.1465 0-.0882 0-.17639-.0882-.17639z" style="fill-rule:evenodd;fill:#62300c"/><path d="m310.54 343.2c-.79375-.44097-1.5875-.97014-2.5576.0882 0 0 .88195.52916 1.3229.52916.52917 0 1.2347-.61736 1.2347-.61736z" style="fill:none;stroke-miterlimit:15;stroke-width:.088194px;stroke:#000000"/><path d="m275.62 355.46c-.44097-.97014-1.1465-1.0583-.52916-2.1167.26458-.61736.26458-1.0583-.17639-1.8521-.44098-.79375-1.1465-.79375-1.4993-1.4993-3.8806 2.9104-.26458.79375-6.0854 5.2917.35278.35278 1.7639 1.8521 2.1167 2.0285.97014.52917 1.2347-.26458 1.8521.88195.35278.70555.70556 1.3229.97014 1.7639.44098.88194.97014 1.2347 2.1167 1.2347.97014 0 2.4694-1.4111 3.4396-1.9403.79375-.35278.0882-1.9403-.0882-2.3812-.44097-.70555-1.2347-.61736-2.1167-1.4111z" style="fill-rule:evenodd;fill:#ffc28b"/><path d="m275.62 355.46c-.44097-.97014-1.1465-1.0583-.52916-2.1167.26458-.61736.26458-1.0583-.17639-1.8521-.44098-.79375-1.1465-.79375-1.4993-1.4993-3.8806 2.9104-.26458.79375-6.0854 5.2917.35278.35278 1.7639 1.8521 2.1167 2.0285.97014.52917 1.2347-.26458 1.8521.88195.35278.70555.70556 1.3229.97014 1.7639.44098.88194.97014 1.2347 2.1167 1.2347.97014 0 2.4694-1.4111 3.4396-1.9403.79375-.35278.0882-1.9403-.0882-2.3812-.44097-.70555-1.2347-.61736-2.1167-1.4111z" style="fill:none;stroke-miterlimit:11;stroke-width:.17639px;stroke:#000000"/><path d="m275.35 349.2s27.252-22.401 34.043-28.663c1.7639-1.5875 3.0868-3.616 3.0868-3.616s-2.2931.97014-4.2333 2.293c-7.5847 5.3799-35.19 27.517-35.19 27.517z" style="fill-rule:evenodd;fill:#e6e6e6"/><path d="m275.35 349.2s27.252-22.401 34.043-28.663c1.7639-1.5875 3.0868-3.616 3.0868-3.616s-2.2931.97014-4.2333 2.293c-7.5847 5.3799-35.19 27.517-35.19 27.517" style="fill:none;stroke-linecap:round;stroke-linejoin:round;stroke-miterlimit:11;stroke-width:.17639px;stroke:#000000"/><path d="m273.85 348.31c.17639-.26458 38.629-31.397 38.629-31.397z" style="fill-rule:evenodd;fill:#d40000"/><path d="m273.85 348.31c.17639-.26458 38.629-31.397 38.629-31.397" style="fill:none;stroke-miterlimit:15;stroke-width:.17639px;stroke:#000000"/><path d="m274.2 347.78c-1.5875-1.2347-11.906 7.0556-10.054 9.1722 1.8521 2.1167 10.848-8.4667 10.054-9.1722z" style="fill-rule:evenodd;fill:#ffd700"/><path d="m274.2 347.78c-1.5875-1.2347-11.906 7.0556-10.054 9.1722 1.8521 2.1167 10.848-8.4667 10.054-9.1722z" style="fill:none;stroke-linecap:round;stroke-linejoin:round;stroke-miterlimit:15;stroke-width:.17639px;stroke:#000000"/><path d="m278.08 351.67c-7.7611-7.9375-7.7611-7.9375-7.7611-7.9375-.44098 1.1465-.44098 1.4111-1.5875 1.1465 7.6729 8.0257 7.6729 8.0257 7.6729 8.0257.52917-.88194.0882-.70555 1.6757-1.2347z" style="fill-rule:evenodd;fill:#ffd700"/><path d="m278.08 351.67c-7.7611-7.9375-7.7611-7.9375-7.7611-7.9375-.44098 1.1465-.44098 1.4111-1.5875 1.1465 7.6729 8.0257 7.6729 8.0257 7.6729 8.0257.52917-.88194.0882-.70555 1.6757-1.2347z" style="fill:none;stroke-linecap:round;stroke-linejoin:round;stroke-miterlimit:15;stroke-width:.17639px;stroke:#000000"/><path d="m264.41 355.55c.70555 0 1.2347.52916 1.3229 1.1465.0882.61736-.52916 1.2347-1.1465 1.2347-.70556 0-1.2347-.44098-1.3229-1.0583 0-.70555.52917-1.2347 1.1465-1.3229z" style="fill-rule:evenodd;fill:#ffd700"/><path d="m264.41 355.55c.70555 0 1.2347.52916 1.3229 1.1465.0882.61736-.52916 1.2347-1.1465 1.2347-.70556 0-1.2347-.44098-1.3229-1.0583 0-.70555.52917-1.2347 1.1465-1.3229z" style="fill:none;stroke-linecap:round;stroke-linejoin:round;stroke-miterlimit:15;stroke-width:.17639px;stroke:#000000"/><path d="m269.35 343.2c.52916 0 .97014.35278.97014.88195.0882.44097-.35278.88194-.88195.97014-.52917 0-.97014-.35278-.97014-.88195-.0882-.52916.26459-.97014.88195-.97014z" style="fill-rule:evenodd;fill:#ffd700"/><path d="m269.35 343.2c.52916 0 .97014.35278.97014.88195.0882.44097-.35278.88194-.88195.97014-.52917 0-.97014-.35278-.97014-.88195-.0882-.52916.26459-.97014.88195-.97014z" style="fill:none;stroke-linecap:round;stroke-linejoin:round;stroke-miterlimit:15;stroke-width:.17639px;stroke:#000000"/><path d="m277.38 351.58c.52917-.0882.97014.35277.97014.79375.0882.52916-.35278.97013-.88194.97013-.52917 0-.97014-.35277-.97014-.88194-.0882-.44097.35277-.88194.88194-.88194z" style="fill-rule:evenodd;fill:#ffd700"/><path d="m277.38 351.58c.52917-.0882.97014.35277.97014.79375.0882.52916-.35278.97013-.88194.97013-.52917 0-.97014-.35277-.97014-.88194-.0882-.44097.35277-.88194.88194-.88194z" style="fill:none;stroke-linecap:round;stroke-linejoin:round;stroke-miterlimit:15;stroke-width:.17639px;stroke:#000000"/><path d="m265.12 351.75c.26459-.17638.79375-.17638 1.0583.0882l2.3812 2.5576c.26458.26458.26458.70555-.0882.97014-.26458.26458-.70555.17639-1.0583-.0882l-2.2931-2.4694c-.35277-.35278-.35277-.79375 0-1.0583z" style="fill-rule:evenodd;fill:#ffc28b"/><path d="m265.12 351.75c.26459-.17638.79375-.17638 1.0583.0882l2.3812 2.5576c.26458.26458.26458.70555-.0882.97014-.26458.26458-.70555.17639-1.0583-.0882l-2.2931-2.4694c-.35277-.35278-.35277-.79375 0-1.0583z" style="fill:none;stroke-miterlimit:19;stroke-width:.17639px;stroke:#000000"/><path d="m266 350.52c.44097-.35278 1.0583-.35278 1.4111.0882l2.4694 2.4694c.35278.44097.35278.97014-.0882 1.3229-.44097.44097-1.0583.35278-1.4111 0l-2.3812-2.5576c-.44097-.44097-.35278-.97014 0-1.3229z" style="fill-rule:evenodd;fill:#ffc28b"/><path d="m266 350.52c.44097-.35278 1.0583-.35278 1.4111.0882l2.4694 2.4694c.35278.44097.35278.97014-.0882 1.3229-.44097.44097-1.0583.35278-1.4111 0l-2.3812-2.5576c-.44097-.44097-.35278-.97014 0-1.3229z" style="fill:none;stroke-miterlimit:19;stroke-width:.17639px;stroke:#000000"/><path d="m267.5 349.28c.35278-.35278 1.0583-.26458 1.4111.0882l2.3812 2.5576c.35278.35278.35278.97014-.0882 1.3229-.35278.35278-.97014.35278-1.3229-.0882-2.4694-2.5576-2.4694-2.5576-2.4694-2.5576-.35278-.35278-.26458-.97014.0882-1.3229z" style="fill-rule:evenodd;fill:#ffc28b"/><path d="m267.5 349.28c.35278-.35278 1.0583-.26458 1.4111.0882l2.3812 2.5576c.35278.35278.35278.97014-.0882 1.3229-.35278.35278-.97014.35278-1.3229-.0882-2.4694-2.5576-2.4694-2.5576-2.4694-2.5576-.35278-.35278-.26458-.97014.0882-1.3229z" style="fill:none;stroke-miterlimit:19;stroke-width:.17639px;stroke:#000000"/><path d="m269.35 348.14c.44097-.35278 1.0583-.26458 1.3229.17639 2.2049 2.734 2.2049 2.734 2.2049 2.734.35278.44097.26459.97014-.17638 1.3229-.44098.26458-1.0583.17638-1.4111-.17639-2.2049-2.8222-2.2049-2.8222-2.2049-2.8222-.35277-.35277-.17639-.97013.26459-1.2347z" style="fill-rule:evenodd;fill:#ffc28b"/><path d="m269.35 348.14c.44097-.35278 1.0583-.26458 1.3229.17639 2.2049 2.734 2.2049 2.734 2.2049 2.734.35278.44097.26459.97014-.17638 1.3229-.44098.26458-1.0583.17638-1.4111-.17639-2.2049-2.8222-2.2049-2.8222-2.2049-2.8222-.35277-.35277-.17639-.97013.26459-1.2347z" style="fill:none;stroke-miterlimit:19;stroke-width:.17639px;stroke:#000000"/><path d="m272.44 353.96s-.0882-.97014-.0882-1.1465.0882-.44097.0882-.44097 0-.52917-.26458-.44098c-.17639 0-1.6757.0882-2.1167 0s-.88194-1.4111-.88194-1.4111 3.0868-1.3229 4.4097-.70555c.88194.35277 1.4111 1.3229 1.5875 2.3812z" style="fill-rule:evenodd;fill:#ffc28b"/><path d="m272.44 353.96s-.0882-.97014-.0882-1.1465.0882-.44097.0882-.44097 0-.52917-.26458-.44098c-.17639 0-1.6757.0882-2.1167 0s-.88194-1.4111-.88194-1.4111 3.0868-1.3229 4.4097-.70555c.88194.35277 1.4111 1.3229 1.5875 2.3812" style="fill:none;stroke-miterlimit:11;stroke-width:.17639px;stroke:#000000"/><path d="m306.4 342.23c.52917.88195.52917.88195.52917.88195s.52917 1.2347.88194 1.7639c.35278.61736.88195 1.0583 1.0583 1.5875.0882.17639.0882.26458.0882.35278-.0882.0882-.17639.0882-.26458.0882-.61736.17639-1.3229 0-1.8521.35278-.26459.26458-.44098.0882-.52917 0-.17639-.26459-.0882-.44097.17639-.70556z" style="fill-rule:evenodd;fill:#ffc28b"/><path d="m306.4 342.23c.52917.88195.52917.88195.52917.88195s.52917 1.2347.88194 1.7639c.35278.61736.88195 1.0583 1.0583 1.5875.0882.17639.0882.26458.0882.35278-.0882.0882-.17639.0882-.26458.0882-.61736.17639-1.3229 0-1.8521.35278-.26459.26458-.44098.0882-.52917 0-.17639-.26459-.0882-.44097.17639-.70556" style="fill:none;stroke-linecap:round;stroke-linejoin:round;stroke-miterlimit:11;stroke-width:.088194px;stroke:#000000"/><path d="m302.51 344.7c.61736-.70556 1.1465-1.4111 2.5576-.79375 0 0-.17639.70555-.52917.79375-.61736.35278-2.0285 0-2.0285 0z" style="fill:none;stroke-miterlimit:15;stroke-width:.088194px;stroke:#000000"/><path d="m301.81 344.61s1.0583-1.0583 1.7639-1.3229c.52917-.17639 1.0583.17639 1.4993-.0882.26458-.0882.44097-.52916.44097-.52916s-.44097.17639-.61736.26458c-.52917 0-1.1465-.26458-1.5875-.0882-.70556.35277-1.1465.97013-1.4993 1.7639z" style="fill-rule:evenodd;fill:#482308"/><path d="m301.81 344.61s1.0583-1.0583 1.7639-1.3229c.52917-.17639 1.0583.17639 1.4993-.0882.26458-.0882.44097-.52916.44097-.52916s-.44097.17639-.61736.26458c-.52917 0-1.1465-.26458-1.5875-.0882-.70556.35277-1.1465.97013-1.4993 1.7639z" style="fill:none;stroke-miterlimit:15;stroke-width:.088194px;stroke:#000000"/><path d="m310.89 342.85s-1.1465-.52917-1.7639-.52917c-.44097 0-.79375.52917-1.3229.44097-.17638 0-.44097-.26458-.44097-.26458s.35278 0 .52917-.0882c.35278-.0882.70555-.44097 1.0583-.44097.70556 0 1.3229.35278 1.9403.88195z" style="fill-rule:evenodd;fill:#482308"/><path d="m310.89 342.85s-1.1465-.52917-1.7639-.52917c-.44097 0-.79375.52917-1.3229.44097-.17638 0-.44097-.26458-.44097-.26458s.35278 0 .52917-.0882c.35278-.0882.70555-.44097 1.0583-.44097.70556 0 1.3229.35278 1.9403.88195z" style="fill:none;stroke-miterlimit:15;stroke-width:.088194px;stroke:#000000"/><path d="m298.37 345.67s1.0583 1.8521.70555 2.293c-.26458.44098-.70555.26459-.70555.26459s.0882.88194.52917 1.3229c.44097.44098 1.3229 1.8521 1.4993 2.2049.0882.35278.61736 1.1465 1.0583 1.5875.52917.44098 1.4993.88195 1.6757 1.1465.17639.26459 1.0583 1.5875 1.0583 1.5875l.52917-.35278s.88194.61737 1.4111.79375c.44097.17639 1.1465.0882 1.5875.35278.35278 0 .79375.35278.79375.35278s.0882-.52917.35278-.61736c.35278-.17639.79375.17639 1.2347.26458.26458.0882.79375.26459.79375.26459s.35278-.70556.61736-1.0583c.26458-.26458.97014-.61736.97014-.61736l.35278.26458s.26458-.79375.35278-1.2347v-1.1465l.52916-.88194s-.35278-1.0583-.44097-1.2347c-.17639-.79375.0882.26458-.26458-1.2347-.44098-1.4993-.70556-2.3812-.70556-2.3812s-.0882-.97014-.17639-1.1465c0-.26459-.44097-1.6757-.44097-1.6757l-.26458-1.1465s-.17639.97013-.17639 1.1465c0 .26459.26458 1.6757-.17639 2.1167-.52917.61736-.0882 1.9403-.0882 2.2931.0882.35277.0882 1.1465-.35277 1.4993-.26459.26458-.88195.17639-1.0583.17639-.26458 0-.52916-.88194-.52916-.88194l-.97014.0882-.17639 1.2347s-.79375.17639-1.1465.26459c-.70555 0-1.3229.0882-2.0285-.0882-.26458-.0882-.61736-.26458-.79375-.44097-.52917-.52917-.44097-1.4111-1.0583-1.9403-.52917-.52917-2.0285-.52917-2.2931-.97014-.26458-.52916-.97014-1.0583-1.1465-1.4111-.17639-.44097-.70555-1.1465-.79375-1.4111-.17639-.35278-.44097-1.0583-.35278-.70556.0882.26459.0882 1.0583.0882 1.0583z" style="fill-rule:evenodd;fill:#482308"/><path d="m298.37 345.67s1.0583 1.8521.70555 2.293c-.26458.44098-.70555.26459-.70555.26459s.0882.88194.52917 1.3229c.44097.44098 1.3229 1.8521 1.4993 2.2049.0882.35278.61736 1.1465 1.0583 1.5875.52917.44098 1.4993.88195 1.6757 1.1465.17639.26459 1.0583 1.5875 1.0583 1.5875l.52917-.35278s.88194.61737 1.4111.79375c.44097.17639 1.1465.0882 1.5875.35278.35278 0 .79375.35278.79375.35278s.0882-.52917.35278-.61736c.35278-.17639.79375.17639 1.2347.26458.26458.0882.79375.26459.79375.26459s.35278-.70556.61736-1.0583c.26458-.26458.97014-.61736.97014-.61736l.35278.26458s.26458-.79375.35278-1.2347v-1.1465l.52916-.88194s-.35278-1.0583-.44097-1.2347c-.17639-.79375.0882.26458-.26458-1.2347-.44098-1.4993-.70556-2.3812-.70556-2.3812s-.0882-.97014-.17639-1.1465c0-.26459-.44097-1.6757-.44097-1.6757l-.26458-1.1465s-.17639.97013-.17639 1.1465c0 .26459.26458 1.6757-.17639 2.1167-.52917.61736-.0882 1.9403-.0882 2.2931.0882.35277.0882 1.1465-.35277 1.4993-.26459.26458-.88195.17639-1.0583.17639-.26458 0-.52916-.88194-.52916-.88194l-.97014.0882-.17639 1.2347s-.79375.17639-1.1465.26459c-.70555 0-1.3229.0882-2.0285-.0882-.26458-.0882-.61736-.26458-.79375-.44097-.52917-.52917-.44097-1.4111-1.0583-1.9403-.52917-.52917-2.0285-.52917-2.2931-.97014-.26458-.52916-.97014-1.0583-1.1465-1.4111-.17639-.44097-.70555-1.1465-.79375-1.4111-.17639-.35278-.44097-1.0583-.35278-.70556.0882.26459.0882 1.0583.0882 1.0583z" style="fill:none;stroke-miterlimit:15;stroke-width:.088194px;stroke:#000000"/><path d="m307.28 349.28c.52916.26458 1.7639.26458 2.2049-.35278z" style="fill-rule:evenodd;fill:#280b0b"/><path d="m307.28 349.28c.52916.26458 1.7639.26458 2.2049-.35278" style="fill:none;stroke-linecap:round;stroke-linejoin:round;stroke-miterlimit:15;stroke-width:.35278px;stroke:#ff9b41"/><path d="m308.07 347.34c0-.17639 1.3229-.70555 2.1167.26459.35278.35277.88195.61736 1.3229.61736.44097.0882 1.1465-.35278 1.1465-.35278s-.70556.97014-1.1465 1.0583c-.44097.17639-.88194 0-1.2347 0-.61736.0882-1.8521.17639-1.8521.17639-.44098-.88194-.44098-.88194-.44098-.88194z" style="fill-rule:evenodd;fill:#482308"/><path d="m308.07 347.34c0-.17639 1.3229-.70555 2.1167.26459.35278.35277.88195.61736 1.3229.61736.44097.0882 1.1465-.35278 1.1465-.35278s-.70556.97014-1.1465 1.0583c-.44097.17639-.88194 0-1.2347 0-.61736.0882-1.8521.17639-1.8521.17639-.44098-.88194-.44098-.88194-.44098-.88194z" style="fill:none;stroke-miterlimit:15;stroke-width:.088194px;stroke:#000000"/><path d="m308.07 347.34c.52916.44097.52916 1.3229.35278 1.7639 0 0-1.3229.26458-1.9403.44097-.97014.26459-1.7639.70556-2.734.70556-.70556.0882-2.1167-.44097-2.1167-.44097s1.3229.0882 1.8521-.0882c.70555-.35278 1.4111-.88194 1.7639-1.4993.70555-.88195 2.6458-1.3229 2.8222-.88195z" style="fill-rule:evenodd;fill:#482308"/><path d="m308.07 347.34c.52916.44097.52916 1.3229.35278 1.7639 0 0-1.3229.26458-1.9403.44097-.97014.26459-1.7639.70556-2.734.70556-.70556.0882-2.1167-.44097-2.1167-.44097s1.3229.0882 1.8521-.0882c.70555-.35278 1.4111-.88194 1.7639-1.4993.70555-.88195 2.6458-1.3229 2.8222-.88195z" style="fill:none;stroke-miterlimit:15;stroke-width:.088194px;stroke:#000000"/><path d="m305.07 344.08s-.17639.79375-.52917.97014c-.35278.26458-1.3229.17639-1.3229.17639" style="fill:none;stroke-linecap:round;stroke-linejoin:round;stroke-miterlimit:15;stroke-width:.088194px;stroke:#000000"/><path d="m307.98 343.55s.79375.61736 1.3229.61736c.35278 0 .97014-.26458.97014-.26458" style="fill:none;stroke-linecap:round;stroke-linejoin:round;stroke-miterlimit:15;stroke-width:.088194px;stroke:#000000"/><path d="m304.63 341.96c.44098-.17639.88195-.17639 1.3229.0882" style="fill:none;stroke-linecap:round;stroke-linejoin:round;stroke-miterlimit:15;stroke-width:.088194px;stroke:#000000"/><path d="m306.66 341.79c.0882-.35278.44097-.35278.70555-.44097" style="fill:none;stroke-linecap:round;stroke-linejoin:round;stroke-miterlimit:15;stroke-width:.088194px;stroke:#000000"/><path d="m308.16 336.58c.61736.70556.97014.88194.88195 2.4694 0 0-3.7924 1.9403-6.6146 1.0583-.79375-.26459-1.9403.35278-2.4694 1.4993-.52917 1.3229.0882 2.0285-.0882 3.0868-.0882.61736-.0882 1.1465-.26458 1.7639-.0882.17639-.17639.26458-.35278.44097-.44097.44097-1.2347.26458-1.8521.26458-.52917 0-1.4993-.0882-1.4993-.0882s0-.79375.0882-1.1465c.97014-2.8222.61736-1.9403.97014-2.9986s.26458-2.6458.88194-3.7924c.52917-1.0583 1.2347-2.0285 2.3812-2.6458 2.1167-1.0583 4.8507-1.4993 7.1438-.70556.35278.0882.79375.79375.79375.79375z" style="fill-rule:evenodd;fill:#482308"/><path d="m308.16 336.58c.61736.70556.97014.88194.88195 2.4694 0 0-3.7924 1.9403-6.6146 1.0583-.79375-.26459-1.9403.35278-2.4694 1.4993-.52917 1.3229.0882 2.0285-.0882 3.0868-.0882.61736-.0882 1.1465-.26458 1.7639-.0882.17639-.17639.26458-.35278.44097-.44097.44097-1.2347.26458-1.8521.26458-.52917 0-1.4993-.0882-1.4993-.0882s0-.79375.0882-1.1465c.97014-2.8222.61736-1.9403.97014-2.9986s.26458-2.6458.88194-3.7924c.52917-1.0583 1.2347-2.0285 2.3812-2.6458 2.1167-1.0583 4.8507-1.4993 7.1438-.70556.35278.0882.79375.79375.79375.79375z" style="fill:none;stroke-miterlimit:15;stroke-width:.088194px;stroke:#000000"/><path d="m322.89 387.38c-7.4965 3.4396-18.168 3.175-24.783 1.0583-27.252 39.599-27.252 39.599-27.252 39.599 3.0868.26458 7.1438 1.8521 3.175 9.2604-3.9688 7.4965 2.4694 2.6458 2.4694 7.8493-2.734 5.6444-2.734 5.6444-2.734 5.6444 3.0868 4.1451 10.231.70555 11.906-1.7639-1.6757-1.0583-.17639-1.8521 1.8521-1.8521 2.4694.0882 3.8806 6.35 6.1736 4.9389 0 0 .97014-2.0285 1.8521-1.7639.88194.26459.44097 2.2931 1.3229 2.5576.79375.26459 1.5875-1.4111 2.3812-1.2347.88195.26458.52917 1.6757 1.4111 1.8521.79375.17639 1.3229-.79375 2.1167-.79375.97014.0882-.17639 2.0285 2.4694 2.1167 1.3229.0882 2.8222-.88194 5.1153-1.2347 2.3812-.26459 7.0556 4.6743 20.285-4.2333z" style="fill:none;stroke-miterlimit:15;stroke-width:.26458px;stroke:#000000"/><path d="m298.19 387.83c-4.1451-3.0868-2.734-7.0556-2.2049-10.672 1.3229-9.4368-2.0285-6.8792-5.5562-4.1451-11.112 8.2903-15.258.88194-18.697-8.4667 2.4694-1.4111 4.6743-2.2931 8.4667-6.0854 4.3215 11.289 9.7896 1.4993 14.64-1.2347 1.0583 3.175 3.7042 5.1153 4.6743 7.5847 5.6444 14.552 21.608 11.024 22.137-8.643 1.9403-.26459 7.9375 5.1153 9.966 9.1722 1.6757 3.4396 5.8208 8.3785 10.672 8.5549-6.0854-.35278-5.2917 4.5861-10.495 8.2021-1.7639-6.1736-5.0271-10.142-8.8194-13.494-.61736 1.9403-.61736 6.2618.17639 9.084.70555 2.5576.0882 8.9076.0882 8.9076-8.9958 4.1451-17.022 2.8222-25.047 1.2347z" style="fill:none;stroke-miterlimit:15;stroke-width:.26458px;stroke:#000000"/><path d="m321.65 356.16c-.61736 19.667-16.492 23.195-22.137 8.643-.97014-2.4694-3.616-4.4097-4.6743-7.5847" style="fill:none;stroke-linecap:round;stroke-linejoin:round;stroke-miterlimit:15;stroke-width:.35278px;stroke:#552200"/><path d="m276.32 356.43c-.26459-.61736-.88195-.88194-.79375-1.5875.0882-.61736.61736-.61736 1.1465-.88194.61736-.17639.17638 0 .88194 0 .52917.44097 1.4111 1.3229 1.8521 1.8521.0882.61736 1.2347 2.293 1.2347 2.8222-.52917 4.4979-8.1139 7.7611-10.054 5.9972-.52917-.17639-.79375-.79375-1.0583-1.3229-.35278-.70556-.61737-1.4111-.61737-2.2049 0-.70556.17639-1.4111.61737-2.0285.35277-.44097.79375-1.0583 1.4111-.97014 1.4993 3.4396 6.2618.97014 5.3799-1.6757z" style="fill-rule:evenodd;fill:#a95417"/><path d="m276.32 356.43c-.26459-.61736-.88195-.88194-.79375-1.5875.0882-.61736.61736-.61736 1.1465-.88194.61736-.17639.17638 0 .88194 0 .52917.44097 1.4111 1.3229 1.8521 1.8521.0882.61736 1.2347 2.293 1.2347 2.8222-.52917 4.4979-8.1139 7.7611-10.054 5.9972-.52917-.17639-.79375-.79375-1.0583-1.3229-.35278-.70556-.61737-1.4111-.61737-2.2049 0-.70556.17639-1.4111.61737-2.0285.35277-.44097.79375-1.0583 1.4111-.97014 1.4993 3.4396 6.2618.97014 5.3799-1.6757z" style="fill:none;stroke-miterlimit:15;stroke-width:.26458px;stroke:#000000"/><path d="m277.03 353.96h-.35277c-2.0285.70555-.61737 1.5875-.35278 2.4694.88194 3.2632-4.4097 4.4979-5.2917 1.9403-.0882-.17639-.17639-.17639-.35278-.26459-.44097.0882-.79375.70556-1.1465.97014l-.17639.17639c-.44098.44097-.17639 1.1465-.17639 1.6757.0882.79375.44097 1.3229 1.0583 1.6757.88195.52917 2.0285.44097 3.0868.26458 1.7639-.26458 3.7924-1.0583 4.8507-2.3812 1.1465-1.6757 1.4111-2.4694 1.3229-3.7924-.17639-.97014-.61736-1.7639-1.7639-2.5576-.35278-.0882-.44097-.17638-.70556-.17638z" style="fill-rule:evenodd;fill:#8b4513"/><path d="m322.98 386.41c-7.3201 4.2333-17.374 3.4396-25.135 1.4111" style="fill:none;stroke-linecap:round;stroke-linejoin:round;stroke-miterlimit:15;stroke-width:1.1465px;stroke:#ffffff"/><path d="m310.63 453.62c1.0583 0 2.5576.88194 5.0271 1.0583v2.4694c.0882 1.7639 3.616 5.5562 5.1153 5.8208.61736.17639.88194.61736 1.3229.97014.26459.17639 0 1.0583 0 1.4111 0 0-1.1465.44097-1.2347.44097-.35278.26458-1.5875 0-1.9403-.0882-2.9986-.61736-6.35-2.1167-8.2903-4.057-.0882 0-.0882-.0882-.0882-.17639l-.35278.52917-3.175-1.2347c.17639-2.3812 2.0285-4.9389 3.3514-7.1438h.26459z" style="fill:none;stroke-miterlimit:15;stroke-width:.26458px;stroke:#000000"/><path d="m283.82 455.21c1.6757-.97014 2.9986-.88195 3.8806.70555z" style="fill-rule:evenodd;fill:#a95417"/><path d="m283.82 455.21c1.6757-.97014 2.9986-.88195 3.8806.70555" style="fill:none;stroke-linecap:round;stroke-linejoin:round;stroke-miterlimit:15;stroke-width:.35278px;stroke:#000000"/><path d="m295.19 357.05 1.8521-1.4111z" style="fill-rule:evenodd;fill:#a95417"/><path d="m295.19 357.05 1.8521-1.4111" style="fill:none;stroke-linecap:round;stroke-linejoin:round;stroke-miterlimit:15;stroke-width:.35278px;stroke:#000000"/><path d="m318.04 355.02 3.5278 1.1465z" style="fill-rule:evenodd;fill:#a95417"/><path d="m318.04 355.02 3.5278 1.1465" style="fill:none;stroke-linecap:round;stroke-linejoin:round;stroke-miterlimit:15;stroke-width:.35278px;stroke:#000000"/><path d="m308.78 390.03h-.70555c-2.9986-.17639-6.2618-.61736-9.525-1.3229-.88195-.26459-.88195-.26459-1.0583-.35278-.35277-.26458-.26458-.88195.17639-.97014.0882-.17639.26459-.17639.70556 0 2.5576.61736 5.468 1.1465 7.9375 1.3229 1.3229.0882 2.1167.0882 3.5278.0882h2.6458c3.7924-.26458 7.0556-1.2347 9.7896-2.734.26459-.17639.44098-.26458.52917-.26458.17639-.0882.44097 0 .61736.17639s.17639.61736 0 .79375c-.26458.26458-1.7639 1.0583-2.734 1.4111-2.6458 1.0583-5.5562 1.6757-8.9076 1.8521h-2.9986z" style="fill-rule:evenodd;fill:#ffffff"/><path d="m308.78 390.03h-.70555c-2.9986-.17639-6.2618-.61736-9.525-1.3229-.88195-.26459-.88195-.26459-1.0583-.35278-.35277-.26458-.26458-.88195.17639-.97014.0882-.17639.26459-.17639.70556 0 2.5576.61736 5.468 1.1465 7.9375 1.3229 1.3229.0882 2.1167.0882 3.5278.0882h2.6458c3.7924-.26458 7.0556-1.2347 9.7896-2.734.26459-.17639.44098-.26458.52917-.26458.17639-.0882.44097 0 .61736.17639s.17639.61736 0 .79375c-.26458.26458-1.7639 1.0583-2.734 1.4111-2.6458 1.0583-5.5562 1.6757-8.9076 1.8521h-2.9986z" style="fill:none;stroke-linecap:round;stroke-linejoin:round;stroke-miterlimit:15;stroke-width:.17639px;stroke:#000000"/><path d="m276.32 356.43c-.26459-.61736-.88195-1.0583-.79375-1.5875 1.2347-1.9403 2.9104-.44097 3.8806.97014.61736.88194 1.2347 2.293 1.2347 2.8222-.52917 4.4979-8.1139 7.7611-10.054 5.9972-.52917-.17639-.79375-.79375-1.0583-1.3229-.35278-.70556-.52917-1.5875-.61737-2.2931 0-.61736.0882-1.1465.35278-1.6757.35278-.52917 1.0583-1.3229 1.6757-1.2347 1.4993 3.4396 6.2618.97014 5.3799-1.6757z" style="fill:none;stroke-miterlimit:15;stroke-width:.26458px;stroke:#000000"/><path d="m361.16 379.01c2.734 13.053-2.8222 25.224-12.435 27.252-9.6132 1.9403-19.579-6.8792-22.401-19.932-2.6458-12.965 2.9104-25.135 12.524-27.164 9.6132-2.0285 19.579 6.8792 22.313 19.844z" style="fill:#ffffff"/><path d="m347.49 381.92c5.2917 6.4382 5.2917 6.4382 5.2917 6.4382 2.2049-8.0257 2.2049-8.0257 2.2049-8.0257l-5.2917-6.4382zm-7.4083 1.4993c5.2035 6.4382 5.2035 6.4382 5.2035 6.4382 2.2049-7.9375 2.2049-7.9375 2.2049-7.9375-5.2035-6.4382-5.2035-6.4382-5.2035-6.4382zm-5.2917-6.35c-2.2049 7.9375-2.2049 7.9375-2.2049 7.9375 5.2035 6.4382 5.2035 6.4382 5.2035 6.4382 2.293-8.0257 2.293-8.0257 2.293-8.0257zm-5.2035-6.4382c5.2035 6.4382 5.2035 6.4382 5.2035 6.4382l2.2931-8.0257c-5.1153-6.1736-5.1153-6.1736-5.1153-6.1736-.0882.17639-.26458.26459-.35278.44098zm-2.2049 8.0257c2.2049-8.0257 2.2049-8.0257 2.2049-8.0257-1.5875-1.9403-1.5875-1.9403-1.5875-1.9403-1.1465 2.3812-1.8521 5.2035-2.2049 8.1139zm2.9986 14.376c2.2049-8.0257 2.2049-8.0257 2.2049-8.0257l-5.2035-6.35-1.4993 5.0271c.17638.88195.35277 1.7639.44097 2.6458.26458.88194.44097 1.7639.79375 2.6458zm5.2035 6.4382c-5.2035-6.4382-5.2035-6.4382-5.2035-6.4382l-.61736 2.2931c1.4111 2.5576 3.175 4.7625 5.2035 6.5264zm7.4965-1.5875c-5.2917-6.4382-5.2917-6.4382-5.2917-6.4382-2.2049 8.0257-2.2049 8.0257-2.2049 8.0257 4.8507 5.909 4.8507 5.909 4.8507 5.909.17639.0882.35278.17639.52917.17639zm5.2917 6.4382-.61738 2.1167c.26458-.0882.61738-.17639.97015-.17639.35277-.0882.61735-.17639.97015-.26458zm2.2048-8.0257c-5.2917-6.4382-5.2917-6.4382-5.2917-6.4382-2.2049 8.0257-2.2049 8.0257-2.2049 8.0257l5.2917 6.4382zm7.4083-1.4993c-5.2035-6.4382-5.2035-6.4382-5.2035-6.4382-2.2048 7.9375-2.2048 7.9375-2.2048 7.9375 4.9389 6.1736 4.9389 6.1736 4.9389 6.1736.17637-.0882.26458-.17639.44095-.35278zm2.2049-8.0257c-2.2049 8.0257-2.2049 8.0257-2.2049 8.0257 1.5875 1.9403 1.5875 1.9403 1.5875 1.9403 1.0583-2.4694 1.8521-5.2035 2.1167-8.1139zm-2.9986-14.376c-2.2048 7.9375-2.2048 7.9375-2.2048 7.9375 5.2035 6.4382 5.2035 6.4382 5.2035 6.4382 1.4111-5.0271 1.4111-5.0271 1.4111-5.0271-.0882-.88195-.1764-1.8521-.44099-2.734-.17639-.88195-.44098-1.7639-.61735-2.6458zm-5.2917-6.4382 5.2917 6.4382.61736-2.293c-1.4111-2.6458-3.175-4.8507-5.2035-6.6146zm-7.4083 1.4993c5.2035 6.4382 5.2035 6.4382 5.2035 6.4382 2.2048-7.9375 2.2048-7.9375 2.2048-7.9375-4.7625-5.909-4.7625-5.909-4.7625-5.909-.1764-.0882-.44098-.17639-.52917-.26458zm-5.2035-6.4382c-2.2049 8.0257-2.2049 8.0257-2.2049 8.0257 5.2035 6.4382 5.2035 6.4382 5.2035 6.4382 2.2049-8.0257 2.2049-8.0257 2.2049-8.0257zm-.44097-1.8521c-.35278.0882-.61736.17639-.97014.26458l1.4111 1.5875.52917-2.0285c-.35278.0882-.70556.0882-.97014.17639" style="fill:#aa0000"/><path d="m361.16 379.01c2.734 13.053-2.8222 25.224-12.435 27.252-9.6132 1.9403-19.579-6.8792-22.401-19.932-2.6458-12.965 2.9104-25.135 12.524-27.164 9.6132-2.0285 19.579 6.8792 22.313 19.844z" style="fill:none;stroke-linecap:round;stroke-linejoin:round;stroke-miterlimit:15;stroke-width:.70556px;stroke:#000000"/></g></svg>
