<?xml version="1.0" encoding="UTF-8" standalone="no"?>
<!-- Created with Inkscape (http://www.inkscape.org/) -->
<svg
   xmlns:dc="http://purl.org/dc/elements/1.1/"
   xmlns:cc="http://web.resource.org/cc/"
   xmlns:rdf="http://www.w3.org/1999/02/22-rdf-syntax-ns#"
   xmlns:svg="http://www.w3.org/2000/svg"
   xmlns="http://www.w3.org/2000/svg"
   xmlns:sodipodi="http://inkscape.sourceforge.net/DTD/sodipodi-0.dtd"
   xmlns:inkscape="http://www.inkscape.org/namespaces/inkscape"
   sodipodi:docname="Naval_Ensign_of_Saint_Kitts_and_Nevis.svg"
   sodipodi:docbase="C:\Documents and Settings\David Nelson\Archives\Svg"
   inkscape:version="0.43"
   sodipodi:version="0.32"
   id="svg2"
   x="0.00000000"
   y="0.00000000"
   height="300.00000px"
   width="600.00000px">
  <defs
     id="defs3" />
  <sodipodi:namedview
     showguides="true"
     showgrid="false"
     inkscape:window-y="161"
     inkscape:window-x="149"
     inkscape:window-height="540"
     inkscape:window-width="756"
     inkscape:current-layer="layer1"
     inkscape:document-units="pt"
     inkscape:cy="150"
     inkscape:cx="300"
     inkscape:zoom="1.1083333"
     inkscape:pageshadow="2"
     inkscape:pageopacity="0.0"
     borderopacity="1.0"
     bordercolor="#666666"
     pagecolor="#ffffff"
     id="base"
     inkscape:guide-bbox="true" />
  <metadata
     id="metadata4">
    <rdf:RDF>
      <cc:Work
         rdf:about="">
        <dc:format>image/svg+xml</dc:format>
        <dc:type
           rdf:resource="http://purl.org/dc/dcmitype/StillImage" />
      </cc:Work>
    </rdf:RDF>
  </metadata>
  <g
     id="layer1"
     inkscape:groupmode="layer"
     inkscape:label="Layer 1">
    <rect
       style="opacity:1;fill:#ffffff;fill-opacity:1;fill-rule:evenodd;stroke:none;stroke-width:1;stroke-linecap:butt;stroke-linejoin:miter;stroke-miterlimit:4;stroke-dasharray:none;stroke-dashoffset:0;stroke-opacity:1"
       id="rect10119"
       width="600"
       height="300"
       x="0"
       y="-7.6293945e-006" />
    <path
       style="fill:#ce1126;fill-opacity:1;fill-rule:evenodd;stroke:none;stroke-width:0;stroke-linecap:butt;stroke-linejoin:miter;stroke-opacity:1"
       d="M 0,130 L 280,130 L 280,0.0003 L 320,0.0003 L 320,130 L 600,130 L 600,170 L 320,170 L 320,300 L 280,300 L 280,170 L 0,170 L 0,130 z "
       id="path1323" />
    <path
       style="fill:#ce1126;fill-opacity:1;fill-rule:evenodd;stroke:none;stroke-width:0.25;stroke-linecap:square;stroke-linejoin:bevel;stroke-miterlimit:4;stroke-dashoffset:0.99999998;stroke-opacity:1"
       d="M 0,-1.5543122e-014 L 277,-1.5543122e-014 L 277,127 L 0,127 L 0,-1.5543122e-014 z "
       id="rect5236" />
    <path
       id="path5241"
       d="M 0,-1.8160276e-006 L 277,-1.8160276e-006 L 0,127 L 0,-1.8160276e-006 z "
       style="fill:#009349;fill-opacity:1;fill-rule:evenodd;stroke:none;stroke-width:0.25;stroke-linecap:square;stroke-linejoin:bevel;stroke-miterlimit:4;stroke-dashoffset:0.99999998;stroke-opacity:1"
       sodipodi:nodetypes="cccc" />
    <path
       style="fill:#fcd116;fill-opacity:1;fill-rule:evenodd;stroke:none;stroke-width:44.45000076;stroke-linecap:square;stroke-linejoin:miter;stroke-miterlimit:4;stroke-dasharray:none;stroke-opacity:1"
       d="M 224.09375 0 L 0 102.3125 L 0 127 L 52.90625 127 L 277 24.6875 L 277 0 L 224.09375 0 z "
       id="path5249" />
    <path
       style="fill:#000000;fill-opacity:1;fill-rule:evenodd;stroke:none;stroke-width:31.75;stroke-linecap:square;stroke-linejoin:miter;stroke-miterlimit:4;stroke-dasharray:none;stroke-opacity:1"
       d="M 239.375 0 L 0 109.28125 L 0 127 L 37.625 127 L 277 17.71875 L 277 0 L 239.375 0 z "
       id="path5251" />
    <g
       id="g5293"
       style="fill:#ffffff;fill-opacity:1"
       transform="translate(0.773451,0)">
      <path
         transform="matrix(0.361772,-0.165867,0.165867,0.361772,-114.2423,145.0433)"
         d="M 471.20212,46.511877 L 478.36721,68.560919 L 501.55123,68.561798 L 482.79548,82.189733 L 489.9589,104.23932 L 471.20212,90.612803 L 452.44533,104.23932 L 459.60876,82.189732 L 440.85301,68.561796 L 464.03703,68.560919 L 471.20212,46.511877 z "
         inkscape:randomized="0"
         inkscape:rounded="0"
         inkscape:flatsided="false"
         sodipodi:arg2="-0.94247777"
         sodipodi:arg1="-1.5707963"
         sodipodi:r2="12.189981"
         sodipodi:r1="31.910944"
         sodipodi:cy="78.422821"
         sodipodi:cx="471.20212"
         sodipodi:sides="5"
         id="path5270"
         style="fill:#ffffff;fill-opacity:1;fill-rule:evenodd;stroke:none;stroke-width:31.75;stroke-linecap:square;stroke-linejoin:bevel;stroke-miterlimit:4;stroke-dasharray:none;stroke-dashoffset:0.99999998;stroke-opacity:1"
         sodipodi:type="star" />
      <path
         sodipodi:type="star"
         style="fill:#ffffff;fill-opacity:1;fill-rule:evenodd;stroke:none;stroke-width:31.75;stroke-linecap:square;stroke-linejoin:bevel;stroke-miterlimit:4;stroke-dasharray:none;stroke-dashoffset:0.99999998;stroke-opacity:1"
         id="path5274"
         sodipodi:sides="5"
         sodipodi:cx="471.20212"
         sodipodi:cy="78.422821"
         sodipodi:r1="31.910944"
         sodipodi:r2="12.189981"
         sodipodi:arg1="-1.5707963"
         sodipodi:arg2="-0.94247777"
         inkscape:flatsided="false"
         inkscape:rounded="0"
         inkscape:randomized="0"
         d="M 471.20212,46.511877 L 478.36721,68.560919 L 501.55123,68.561798 L 482.79548,82.189733 L 489.9589,104.23932 L 471.20212,90.612803 L 452.44533,104.23932 L 459.60876,82.189732 L 440.85301,68.561796 L 464.03703,68.560919 L 471.20212,46.511877 z "
         transform="matrix(0.361772,-0.165867,0.165867,0.361772,24.29171,81.52765)" />
    </g>
  </g>
<!-- Main outline of the flag --></svg>
