<?xml version="1.0" encoding="UTF-8" standalone="no"?>
<!-- Created with Inkscape (http://www.inkscape.org/) -->

<svg
   xmlns:dc="http://purl.org/dc/elements/1.1/"
   xmlns:cc="http://creativecommons.org/ns#"
   xmlns:rdf="http://www.w3.org/1999/02/22-rdf-syntax-ns#"
   xmlns:svg="http://www.w3.org/2000/svg"
   xmlns="http://www.w3.org/2000/svg"
   xmlns:sodipodi="http://sodipodi.sourceforge.net/DTD/sodipodi-0.dtd"
   xmlns:inkscape="http://www.inkscape.org/namespaces/inkscape"
   version="1.1"
   width="700"
   height="400"
   id="svg2"
   inkscape:version="0.48.1 "
   sodipodi:docname="Coat of arms of Debarca Municipality.svg">
  <sodipodi:namedview
     pagecolor="#ffffff"
     bordercolor="#666666"
     borderopacity="1"
     objecttolerance="10"
     gridtolerance="10"
     guidetolerance="10"
     inkscape:pageopacity="0"
     inkscape:pageshadow="2"
     inkscape:window-width="1280"
     inkscape:window-height="738"
     id="namedview7"
     showgrid="false"
     inkscape:snap-bbox="true"
     showguides="true"
     inkscape:guide-bbox="true"
     inkscape:zoom="0.46977993"
     inkscape:cx="235.67266"
     inkscape:cy="249.81302"
     inkscape:window-x="-8"
     inkscape:window-y="-8"
     inkscape:window-maximized="1"
     inkscape:current-layer="svg2">
    <sodipodi:guide
       position="0,0"
       orientation="0,700"
       id="guide3022" />
    <sodipodi:guide
       position="700,0"
       orientation="-400,0"
       id="guide3024" />
    <sodipodi:guide
       position="700,400"
       orientation="0,-700"
       id="guide3026" />
    <sodipodi:guide
       position="0,400"
       orientation="400,0"
       id="guide3028" />
  </sodipodi:namedview>
  <metadata
     id="metadata86">
    <rdf:RDF>
      <cc:Work
         rdf:about="">
        <dc:format>image/svg+xml</dc:format>
        <dc:type
           rdf:resource="http://purl.org/dc/dcmitype/StillImage" />
        <dc:title></dc:title>
      </cc:Work>
    </rdf:RDF>
  </metadata>
  <defs
     id="defs4" />
  <g
     transform="translate(-1488.9788,-449.84724)"
     id="g6366" />
  <text
     xml:space="preserve"
     style="font-size:12px;font-style:normal;font-variant:normal;font-weight:normal;font-stretch:normal;text-align:start;line-height:100%;letter-spacing:0px;word-spacing:0px;writing-mode:lr-tb;text-anchor:start;fill:#290e78;fill-opacity:1;stroke:none;font-family:DejaVu LGC Sans;-inkscape-font-specification:DejaVu LGC Sans"
     x="340.26355"
     y="241.97498"
     id="text4304"
     sodipodi:linespacing="100%"><tspan
       sodipodi:role="line"
       id="tspan4306"
       x="340.26355"
       y="241.97498"
       style="font-size:30px;fill:#290e78;fill-opacity:1" /></text>
  <rect
     style="fill:#2c4ace;stroke:none;stroke-width:2;stroke-linecap:butt;stroke-linejoin:miter;stroke-miterlimit:4;stroke-opacity:1;stroke-dasharray:none;stroke-dashoffset:0;fill-opacity:1"
     id="rect3030"
     width="700"
     height="400"
     x="0"
     y="0" />
  <rect
     style="fill:#fd2017;fill-opacity:1;fill-rule:evenodd;stroke:none"
     id="rect3800"
     width="700"
     height="48.163601"
     x="3.8698211e-014"
     y="96.359917"
     ry="0" />
  <rect
     style="fill:#fd2017;fill-opacity:1;fill-rule:evenodd;stroke:none"
     id="rect3800-1"
     width="400.02618"
     height="48.163582"
     x="-399.91095"
     y="116.64128"
     ry="0"
     transform="matrix(0.0021031,-0.99999779,0.99999985,5.4574889e-4,0,0)" />
  <g
     id="g4333"
     transform="matrix(0.54934372,0,0,0.60531661,65.245617,62.289014)">
    <path
       sodipodi:nodetypes="cscccccccscc"
       inkscape:connector-curvature="0"
       style="fill:none;stroke:#fff500;stroke-width:3.28028846;stroke-miterlimit:4;stroke-opacity:1;stroke-dasharray:none"
       id="path3866"
       d="m 11.063628,41.034177 c 42.284126,34.237153 9.619133,33.630913 1.389831,79.631773 -0.500712,2.79899 -0.910972,5.77052 -1.208365,8.93296 2.889012,71.55064 81.654157,93.77191 106.887386,104.86888 12.08355,4.44125 8.47783,2.85705 15.03397,4.39692 65.52039,-17.00976 119.09662,-57.02958 120.5603,-109.1858 -0.6646,-29.87913 -19.6544,-46.46311 -19.47733,-62.823696 0.43932,-11.040321 9.37853,-15.037927 19.95371,-25.644855 l -42.40008,-52.98134 c -22.25515,9.723898 -33.27547,18.186644 -74.01667,18.186644 -40.741198,0 -62.600584,-6.877182 -84.855739,-16.601084 z" />
    <path
       sodipodi:nodetypes="cscccccccsscc"
       inkscape:connector-curvature="0"
       style="fill:#fd2017;fill-opacity:1;stroke:#290e78;stroke-width:3;stroke-miterlimit:4;stroke-opacity:1;stroke-dasharray:none"
       id="path3866-2"
       d="m 21.78063,41.12735 c 38.50576,31.44617 8.195868,36.52666 0.701908,78.77758 -0.45597,2.57081 -0.82957,5.3001 -1.10039,8.20474 2.63086,65.71789 74.921551,87.53703 97.900032,97.72939 11.0038,4.0792 8.28401,3.46975 14.25431,4.88408 59.66572,-15.62314 110.14576,-54.07177 111.47865,-101.97625 -0.60521,-27.44342 -19.30748,-43.23921 -19.14623,-58.2661 -0.0676,-11.309502 6.7012,-21.369863 17.32511,-28.627889 L 208.52878,-2.017722 c -20.2665,8.93121 -33.40261,16.985946 -70.50331,16.985946 -18.2376,0 -33.61438,-1.526342 -46.943293,-4.139299 C 77.296116,8.1263504 65.700794,4.2613468 55.396698,-0.279546 z" />
    <path
       inkscape:transform-center-y="-4.8849785"
       inkscape:transform-center-x="-0.20601899"
       d="m -311.78157,373.27585 -30.38378,4.61105 -30.38379,4.61106 11.19861,-28.61866 11.1986,-28.61865 19.18518,24.0076 z"
       inkscape:randomized="0"
       inkscape:rounded="0"
       inkscape:flatsided="false"
       sodipodi:arg2="1.4201853"
       sodipodi:arg1="0.37298772"
       sodipodi:r2="17.742943"
       sodipodi:r1="35.485886"
       sodipodi:cy="360.34482"
       sodipodi:cx="-344.82755"
       sodipodi:sides="3"
       id="path4168-0-5-4"
       style="fill:#fff500;fill-opacity:1;fill-rule:evenodd;stroke:#fff500;stroke-width:2;stroke-linecap:butt;stroke-linejoin:miter;stroke-miterlimit:4;stroke-opacity:1;stroke-dasharray:none;stroke-dashoffset:0"
       sodipodi:type="star"
       transform="matrix(-0.2740354,0.35818733,-0.35794022,-0.29641257,167.84415,292.51821)" />
    <path
       inkscape:transform-center-y="3.3750839"
       inkscape:transform-center-x="-0.81967906"
       d="m -311.78157,373.27585 -30.38378,4.61105 -30.38379,4.61106 11.19861,-28.61866 11.1986,-28.61865 19.18518,24.0076 z"
       inkscape:randomized="0"
       inkscape:rounded="0"
       inkscape:flatsided="false"
       sodipodi:arg2="1.4201853"
       sodipodi:arg1="0.37298772"
       sodipodi:r2="17.742943"
       sodipodi:r1="35.485886"
       sodipodi:cy="360.34482"
       sodipodi:cx="-344.82755"
       sodipodi:sides="3"
       id="path4168-0-5-0"
       style="fill:#fff500;fill-opacity:1;fill-rule:evenodd;stroke:#fff500;stroke-width:2;stroke-linecap:butt;stroke-linejoin:miter;stroke-miterlimit:4;stroke-opacity:1;stroke-dasharray:none;stroke-dashoffset:0"
       sodipodi:type="star"
       transform="matrix(0.09974917,0.44054239,-0.45350375,0.09673825,291.86677,197.3487)" />
    <path
       inkscape:transform-center-y="3.3750839"
       inkscape:transform-center-x="0.81967912"
       d="m -311.78157,373.27585 -30.38378,4.61105 -30.38379,4.61106 11.19861,-28.61866 11.1986,-28.61865 19.18518,24.0076 z"
       inkscape:randomized="0"
       inkscape:rounded="0"
       inkscape:flatsided="false"
       sodipodi:arg2="1.4201853"
       sodipodi:arg1="0.37298772"
       sodipodi:r2="17.742943"
       sodipodi:r1="35.485886"
       sodipodi:cy="360.34482"
       sodipodi:cx="-344.82755"
       sodipodi:sides="3"
       id="path4168-0-5-0-8"
       style="fill:#fff500;fill-opacity:1;fill-rule:evenodd;stroke:#fff500;stroke-width:2;stroke-linecap:butt;stroke-linejoin:miter;stroke-miterlimit:4;stroke-opacity:1;stroke-dasharray:none;stroke-dashoffset:0"
       sodipodi:type="star"
       transform="matrix(-0.09974917,0.44054239,0.45350375,0.09673825,-24.475871,198.54872)" />
    <path
       transform="matrix(0.84393563,0,0,1.6913607,21.670085,-109.15651)"
       d="m 182.67203,128.71999 c 0,12.29665 -22.19113,22.26506 -49.56528,22.26506 -27.37415,0 -49.565277,-9.96841 -49.565277,-22.26506 0,-12.29666 22.191127,-22.26507 49.565277,-22.26507 27.37415,0 49.56528,9.96841 49.56528,22.26507 z"
       sodipodi:ry="22.265066"
       sodipodi:rx="49.565277"
       sodipodi:cy="128.71999"
       sodipodi:cx="133.10675"
       id="path4166"
       style="fill:#fff500;fill-opacity:1;fill-rule:evenodd;stroke:#fd2017;stroke-width:4.5967803;stroke-linecap:butt;stroke-linejoin:miter;stroke-miterlimit:4;stroke-opacity:1;stroke-dasharray:none;stroke-dashoffset:0"
       sodipodi:type="arc" />
    <path
       inkscape:connector-curvature="0"
       id="path3790"
       d="M 128.21193,227.48612 C 119.82265,224.50424 98.419998,215.41833 88.968619,210.82642 52.700557,193.20578 31.593098,170.63693 25.356803,142.8104 22.906772,131.87829 22.90385,126.6691 25.341486,115.51565 l 0.881277,-4.0323 35.521231,-0.0187 c 19.536678,-0.0103 67.822086,0.0765 107.300906,0.1929 l 71.77966,0.21158 1.01975,4.34034 c 1.5424,6.56489 1.9996,12.38026 1.39913,17.79642 -2.04835,18.47593 -10.94994,35.41292 -26.71469,50.82988 -19.35622,18.92918 -45.56316,33.29727 -77.51343,42.49711 -2.94352,0.84758 -5.72833,1.53094 -6.18846,1.51861 -0.46012,-0.012 -2.53684,-0.62676 -4.61493,-1.36539 l 0,0 z"
       style="color:#000000;fill:#290e78;fill-opacity:1;fill-rule:nonzero;stroke:#290e78;stroke-width:2;stroke-opacity:1;marker:none;visibility:visible;display:inline;overflow:visible;enable-background:accumulate" />
    <rect
       y="156.95248"
       x="82.01487"
       height="5.1720996"
       width="99.747818"
       id="rect4139"
       style="fill:#ffffff;fill-opacity:1;fill-rule:evenodd;stroke:#ffffff;stroke-width:2;stroke-linecap:butt;stroke-linejoin:miter;stroke-miterlimit:4;stroke-opacity:1;stroke-dasharray:none;stroke-dashoffset:0" />
    <rect
       y="136.81371"
       x="62.869457"
       height="4.8709106"
       width="140.21828"
       id="rect4139-1"
       style="fill:#ffffff;fill-opacity:1;fill-rule:evenodd;stroke:#ffffff;stroke-width:2.30118871;stroke-linecap:butt;stroke-linejoin:miter;stroke-miterlimit:4;stroke-opacity:1;stroke-dasharray:none;stroke-dashoffset:0" />
    <g
       style="fill:#fff500;fill-opacity:1"
       id="g3945-8-8"
       transform="matrix(1.1236157,0.09100832,-0.08442797,1.0423727,3.4441806,-50.091737)">
      <path
         style="color:#000000;fill:#fff500;fill-opacity:1;fill-rule:nonzero;stroke:#fff500;stroke-width:0.2;stroke-miterlimit:4;stroke-opacity:1;stroke-dasharray:none;marker:none;visibility:visible;display:inline;overflow:visible;enable-background:accumulate"
         d="m 71.528111,200.68286 c -0.23464,-0.018 -3.3916,-0.22531 -7.01547,-0.4608 -3.62387,-0.23549 -6.63575,-0.44418 -6.69307,-0.46376 -0.0989,-0.0338 -5.68022,-8.48235 -7.67554,-11.61856 -2.16405,-3.40141 -3.85796,-6.35918 -3.72058,-6.49656 0.0341,-0.0341 1.18516,0.21764 2.55786,0.55946 1.37271,0.34182 3.41305,0.81605 4.53411,1.05384 3.1196,0.66171 5.75477,1.40568 6.74153,1.90331 0.60811,0.30668 1.38494,1.04222 2.34085,2.21647 1.17627,1.44492 1.7471,2.08237 4.75895,5.31424 4.12695,4.42843 4.99381,5.4285 5.86539,6.76673 0.52706,0.80924 0.58612,1.04177 0.30308,1.19325 -0.17237,0.0923 -1.03221,0.10619 -1.99711,0.0324 z"
         id="path3155-1-8"
         inkscape:connector-curvature="0" />
      <path
         style="color:#000000;fill:#fff500;fill-opacity:1;fill-rule:nonzero;stroke:#fff500;stroke-width:0.2;stroke-miterlimit:4;stroke-opacity:1;stroke-dasharray:none;marker:none;visibility:visible;display:inline;overflow:visible;enable-background:accumulate"
         d="m 75.784001,196.77171 c -0.6493,-0.5932 -3.95882,-3.84452 -7.35449,-7.22516 l -6.17395,-6.14662 0.0541,-6.85009 c 0.0297,-3.76756 0.0778,-7.77869 0.10684,-8.91364 l 0.0528,-2.06354 0.27694,0.33997 c 0.15232,0.18698 0.97352,1.13546 1.82488,2.10773 2.66157,3.03954 3.07644,3.53551 5.87801,7.02687 1.50184,1.87163 3.35985,4.18603 4.1289,5.14311 l 1.39828,1.74015 0.34795,3.9167 c 0.71955,8.09953 0.94318,11.8159 0.71934,11.95424 -0.0434,0.0268 -0.61024,-0.43652 -1.25953,-1.02972 l 0,0 z"
         id="path3935-7-2"
         inkscape:connector-curvature="0" />
      <path
         style="color:#000000;fill:#fff500;fill-opacity:1;fill-rule:nonzero;stroke:#fff500;stroke-width:0.2;stroke-miterlimit:4;stroke-opacity:1;stroke-dasharray:none;marker:none;visibility:visible;display:inline;overflow:visible;enable-background:accumulate"
         d="m 73.940551,215.85015 c -2.26054,-2.20466 -4.55299,-4.50132 -5.09435,-5.10368 -1.49715,-1.66585 -4.3706,-5.02856 -4.29635,-5.02788 0.54703,0.005 8.09889,0.3728 9.03714,0.44013 3.21233,0.2305 5.52625,0.54334 6.53683,0.88378 0.84709,0.28536 1.67692,0.85559 5.26302,3.61655 4.34427,3.34467 10.29724,8.26064 10.29724,8.50347 0,0.10817 -0.82261,0.32294 -1.63518,0.42694 -1.60676,0.20563 -3.94387,0.26983 -9.81111,0.26951 l -6.18719,-3.5e-4 -4.11005,-4.00849 0,2e-5 z"
         id="path3937-1-0"
         inkscape:connector-curvature="0" />
      <path
         style="color:#000000;fill:#fff500;fill-opacity:1;fill-rule:nonzero;stroke:#fff500;stroke-width:0.2;stroke-miterlimit:4;stroke-opacity:1;stroke-dasharray:none;marker:none;visibility:visible;display:inline;overflow:visible;enable-background:accumulate"
         d="m 98.096201,217.18644 c -4.4784,-3.00882 -14.17172,-11.07803 -14.82477,-12.34089 -0.18916,-0.3658 -0.26668,-1.36399 -0.66673,-8.58511 -0.19526,-3.52449 -0.38134,-6.8059 -0.4135,-7.29204 l -0.0585,-0.88388 0.53561,0.49551 c 0.57036,0.52767 2.67249,2.26418 7.18213,5.93294 2.54806,2.07295 2.97596,2.46243 5.04453,4.59164 1.24316,1.2796 2.38696,2.50194 2.54177,2.7163 0.46633,0.64571 0.71045,1.59809 0.86084,3.35834 0.21679,2.53744 0.56339,6.21322 0.75089,7.96336 0.0964,0.89935 0.20018,2.3213 0.23073,3.15989 0.0498,1.36613 0.0407,1.5247 -0.0869,1.5247 -0.0783,0 -0.57159,-0.28834 -1.09613,-0.64076 z"
         id="path3939-9-3"
         inkscape:connector-curvature="0" />
      <path
         style="color:#000000;fill:#fff500;fill-opacity:1;fill-rule:nonzero;stroke:#fff500;stroke-width:0.2;stroke-miterlimit:4;stroke-opacity:1;stroke-dasharray:none;marker:none;visibility:visible;display:inline;overflow:visible;enable-background:accumulate"
         d="m 96.982831,233.62745 c -4.978,-3.52786 -6.23876,-4.43685 -7.86481,-5.67042 -1.71856,-1.30374 -3.60342,-2.8553 -3.70952,-3.05356 -0.0731,-0.13652 -0.0435,-0.16943 0.19539,-0.2172 0.15482,-0.031 2.05293,-0.0948 4.21801,-0.14184 2.16508,-0.0471 6.17513,-0.18931 8.91123,-0.31613 l 4.974719,-0.23058 9.80415,5.33044 c 5.39228,2.93175 9.78968,5.34492 9.77199,5.3626 -0.0177,0.0177 -1.05994,0.10764 -2.31611,0.19989 -1.25618,0.0923 -4.67044,0.36607 -7.58726,0.60848 -2.91681,0.24241 -6.65564,0.54088 -8.3085,0.66327 -1.65287,0.12239 -3.24386,0.24365 -3.53554,0.26947 l -0.53033,0.047 -4.023419,-2.85137 z"
         id="path3941-8-8"
         inkscape:connector-curvature="0" />
      <path
         style="color:#000000;fill:#fff500;fill-opacity:1;fill-rule:nonzero;stroke:#fff500;stroke-width:0.2;stroke-miterlimit:4;stroke-opacity:1;stroke-dasharray:none;marker:none;visibility:visible;display:inline;overflow:visible;enable-background:accumulate"
         d="m 125.2657,233.70449 c -0.23178,-0.21669 -3.26902,-2.12619 -5.0524,-3.17642 -2.05386,-1.20951 -5.34667,-3.03556 -11.47307,-6.36243 l -4.46361,-2.42392 -0.0774,-3.18095 c -0.0426,-1.74953 -0.0478,-5.03838 -0.0116,-7.30856 l 0.0659,-4.1276 0.18835,0.13599 c 0.40299,0.29096 2.62784,1.60603 4.37069,2.58344 3.08967,1.73272 14.57177,8.45564 14.75597,8.6398 0.0368,0.0368 0.85992,6.54327 1.34265,10.61287 0.24219,2.04177 0.48142,3.92656 0.53162,4.18841 0.0502,0.26186 0.0913,0.49056 0.0913,0.50824 0,0.073 -0.14747,0.0241 -0.26832,-0.0889 l 0,0 z"
         id="path3943-7-7"
         inkscape:connector-curvature="0" />
    </g>
    <g
       style="fill:#fff500;fill-opacity:1"
       id="g3945-8-8-1"
       transform="matrix(-1.1236157,0.09100832,0.08442797,1.0423727,262.46577,-49.711406)">
      <path
         style="color:#000000;fill:#fff500;fill-opacity:1;fill-rule:nonzero;stroke:#fff500;stroke-width:0.2;stroke-miterlimit:4;stroke-opacity:1;stroke-dasharray:none;marker:none;visibility:visible;display:inline;overflow:visible;enable-background:accumulate"
         d="m 71.528111,200.68286 c -0.23464,-0.018 -3.3916,-0.22531 -7.01547,-0.4608 -3.62387,-0.23549 -6.63575,-0.44418 -6.69307,-0.46376 -0.0989,-0.0338 -5.68022,-8.48235 -7.67554,-11.61856 -2.16405,-3.40141 -3.85796,-6.35918 -3.72058,-6.49656 0.0341,-0.0341 1.18516,0.21764 2.55786,0.55946 1.37271,0.34182 3.41305,0.81605 4.53411,1.05384 3.1196,0.66171 5.75477,1.40568 6.74153,1.90331 0.60811,0.30668 1.38494,1.04222 2.34085,2.21647 1.17627,1.44492 1.7471,2.08237 4.75895,5.31424 4.12695,4.42843 4.99381,5.4285 5.86539,6.76673 0.52706,0.80924 0.58612,1.04177 0.30308,1.19325 -0.17237,0.0923 -1.03221,0.10619 -1.99711,0.0324 z"
         id="path3155-1-8-2"
         inkscape:connector-curvature="0" />
      <path
         style="color:#000000;fill:#fff500;fill-opacity:1;fill-rule:nonzero;stroke:#fff500;stroke-width:0.2;stroke-miterlimit:4;stroke-opacity:1;stroke-dasharray:none;marker:none;visibility:visible;display:inline;overflow:visible;enable-background:accumulate"
         d="m 75.784001,196.77171 c -0.6493,-0.5932 -3.95882,-3.84452 -7.35449,-7.22516 l -6.17395,-6.14662 0.0541,-6.85009 c 0.0297,-3.76756 0.0778,-7.77869 0.10684,-8.91364 l 0.0528,-2.06354 0.27694,0.33997 c 0.15232,0.18698 0.97352,1.13546 1.82488,2.10773 2.66157,3.03954 3.07644,3.53551 5.87801,7.02687 1.50184,1.87163 3.35985,4.18603 4.1289,5.14311 l 1.39828,1.74015 0.34795,3.9167 c 0.71955,8.09953 0.94318,11.8159 0.71934,11.95424 -0.0434,0.0268 -0.61024,-0.43652 -1.25953,-1.02972 l 0,0 z"
         id="path3935-7-2-5"
         inkscape:connector-curvature="0" />
      <path
         style="color:#000000;fill:#fff500;fill-opacity:1;fill-rule:nonzero;stroke:#fff500;stroke-width:0.2;stroke-miterlimit:4;stroke-opacity:1;stroke-dasharray:none;marker:none;visibility:visible;display:inline;overflow:visible;enable-background:accumulate"
         d="m 73.940551,215.85015 c -2.26054,-2.20466 -4.55299,-4.50132 -5.09435,-5.10368 -1.49715,-1.66585 -4.3706,-5.02856 -4.29635,-5.02788 0.54703,0.005 8.09889,0.3728 9.03714,0.44013 3.21233,0.2305 5.52625,0.54334 6.53683,0.88378 0.84709,0.28536 1.67692,0.85559 5.26302,3.61655 4.34427,3.34467 10.29724,8.26064 10.29724,8.50347 0,0.10817 -0.82261,0.32294 -1.63518,0.42694 -1.60676,0.20563 -3.94387,0.26983 -9.81111,0.26951 l -6.18719,-3.5e-4 -4.11005,-4.00849 0,2e-5 z"
         id="path3937-1-0-4"
         inkscape:connector-curvature="0" />
      <path
         style="color:#000000;fill:#fff500;fill-opacity:1;fill-rule:nonzero;stroke:#fff500;stroke-width:0.2;stroke-miterlimit:4;stroke-opacity:1;stroke-dasharray:none;marker:none;visibility:visible;display:inline;overflow:visible;enable-background:accumulate"
         d="m 98.096201,217.18644 c -4.4784,-3.00882 -14.17172,-11.07803 -14.82477,-12.34089 -0.18916,-0.3658 -0.26668,-1.36399 -0.66673,-8.58511 -0.19526,-3.52449 -0.38134,-6.8059 -0.4135,-7.29204 l -0.0585,-0.88388 0.53561,0.49551 c 0.57036,0.52767 2.67249,2.26418 7.18213,5.93294 2.54806,2.07295 2.97596,2.46243 5.04453,4.59164 1.24316,1.2796 2.38696,2.50194 2.54177,2.7163 0.46633,0.64571 0.71045,1.59809 0.86084,3.35834 0.21679,2.53744 0.56339,6.21322 0.75089,7.96336 0.0964,0.89935 0.20018,2.3213 0.23073,3.15989 0.0498,1.36613 0.0407,1.5247 -0.0869,1.5247 -0.0783,0 -0.57159,-0.28834 -1.09613,-0.64076 z"
         id="path3939-9-3-2"
         inkscape:connector-curvature="0" />
      <path
         style="color:#000000;fill:#fff500;fill-opacity:1;fill-rule:nonzero;stroke:#fff500;stroke-width:0.2;stroke-miterlimit:4;stroke-opacity:1;stroke-dasharray:none;marker:none;visibility:visible;display:inline;overflow:visible;enable-background:accumulate"
         d="m 96.982831,233.62745 c -4.978,-3.52786 -6.23876,-4.43685 -7.86481,-5.67042 -1.71856,-1.30374 -3.60342,-2.8553 -3.70952,-3.05356 -0.0731,-0.13652 -0.0435,-0.16943 0.19539,-0.2172 0.15482,-0.031 2.05293,-0.0948 4.21801,-0.14184 2.16508,-0.0471 6.17513,-0.18931 8.91123,-0.31613 l 4.974719,-0.23058 9.80415,5.33044 c 5.39228,2.93175 9.78968,5.34492 9.77199,5.3626 -0.0177,0.0177 -1.05994,0.10764 -2.31611,0.19989 -1.25618,0.0923 -4.67044,0.36607 -7.58726,0.60848 -2.91681,0.24241 -6.65564,0.54088 -8.3085,0.66327 -1.65287,0.12239 -3.24386,0.24365 -3.53554,0.26947 l -0.53033,0.047 -4.023419,-2.85137 z"
         id="path3941-8-8-0"
         inkscape:connector-curvature="0" />
      <path
         style="color:#000000;fill:#fff500;fill-opacity:1;fill-rule:nonzero;stroke:#fff500;stroke-width:0.2;stroke-miterlimit:4;stroke-opacity:1;stroke-dasharray:none;marker:none;visibility:visible;display:inline;overflow:visible;enable-background:accumulate"
         d="m 125.2657,233.70449 c -0.23178,-0.21669 -3.26902,-2.12619 -5.0524,-3.17642 -2.05386,-1.20951 -5.34667,-3.03556 -11.47307,-6.36243 l -4.46361,-2.42392 -0.0774,-3.18095 c -0.0426,-1.74953 -0.0478,-5.03838 -0.0116,-7.30856 l 0.0659,-4.1276 0.18835,0.13599 c 0.40299,0.29096 2.62784,1.60603 4.37069,2.58344 3.08967,1.73272 14.57177,8.45564 14.75597,8.6398 0.0368,0.0368 0.85992,6.54327 1.34265,10.61287 0.24219,2.04177 0.48142,3.92656 0.53162,4.18841 0.0502,0.26186 0.0913,0.49056 0.0913,0.50824 0,0.073 -0.14747,0.0241 -0.26832,-0.0889 l 0,0 z"
         id="path3943-7-7-7"
         inkscape:connector-curvature="0" />
    </g>
    <rect
       y="120.70523"
       x="41.222019"
       height="2.0521746"
       width="183.20029"
       id="rect4139-5"
       style="fill:#ffffff;fill-opacity:1;fill-rule:evenodd;stroke:#ffffff;stroke-width:1.70732045;stroke-linecap:butt;stroke-linejoin:miter;stroke-miterlimit:4;stroke-opacity:1;stroke-dasharray:none;stroke-dashoffset:0" />
    <path
       sodipodi:nodetypes="cscscsscsssc"
       inkscape:connector-curvature="0"
       id="path4083"
       d="m 52.84514,144.27289 c -7.411749,-9.15705 -12.581562,-18.70858 -15.266844,-28.20638 -0.491608,-1.73882 -1.576904,-5.52799 -1.509538,-5.59536 0.02771,0.007 0.705607,0.004 1.20507,0.004 l 0.861551,-5.3e-4 0.645014,2.51395 c 2.567819,10.0081 7.714146,20.38858 15.779568,30.31648 0.689371,0.84856 1.238407,1.55395 1.220081,1.56752 -0.01833,0.0136 -0.345282,0.27353 -0.726565,0.57767 -0.381284,0.30414 -0.718983,0.55298 -0.750443,0.55298 -0.03146,0 -0.687512,-0.77874 -1.457894,-1.73053 z"
       style="color:#000000;fill:#fff500;fill-opacity:1;fill-rule:nonzero;stroke:none;stroke-width:2;marker:none;visibility:visible;display:inline;overflow:visible;enable-background:accumulate" />
    <path
       sodipodi:nodetypes="cscscsscsssc"
       inkscape:connector-curvature="0"
       id="path4083-6"
       d="m 212.9501,144.68202 c 7.41175,-9.15705 12.58157,-18.70858 15.26685,-28.20638 0.49161,-1.73882 1.5769,-5.57877 1.50954,-5.64614 -0.0277,0.007 -0.6978,0.007 -1.19726,0.004 l -0.86155,-0.004 -0.65283,2.56864 c -2.54509,10.01391 -7.71414,20.38858 -15.77957,30.31648 -0.68937,0.84856 -1.2384,1.55395 -1.22008,1.56752 0.0183,0.0136 0.34528,0.27353 0.72657,0.57767 0.38128,0.30414 0.71898,0.55298 0.75044,0.55298 0.0315,0 0.68751,-0.77874 1.45789,-1.73053 z"
       style="color:#000000;fill:#fff500;fill-opacity:1;fill-rule:nonzero;stroke:none;stroke-width:2;marker:none;visibility:visible;display:inline;overflow:visible;enable-background:accumulate" />
    <path
       sodipodi:nodetypes="cscscsscsssc"
       inkscape:connector-curvature="0"
       id="path4083-1"
       d="m 148.44657,220.03955 c -8.47636,-2.53237 -15.69325,-6.14511 -21.31202,-10.66865 -1.02867,-0.82816 -3.27916,-2.62753 -3.26419,-2.69239 0.0204,-0.006 0.44921,-0.26524 0.76604,-0.45464 l 0.54626,-0.32703 1.44552,1.22227 c 5.75463,4.86584 13.29836,8.97117 22.50714,11.70544 0.7871,0.2337 1.42615,0.43709 1.42013,0.45196 -0.006,0.0149 -0.10629,0.29053 -0.22273,0.61258 -0.11651,0.32205 -0.2281,0.59531 -0.24805,0.60724 -0.02,0.012 -0.75714,-0.19367 -1.63818,-0.45689 z"
       style="color:#000000;fill:#fff500;fill-opacity:1;fill-rule:nonzero;stroke:none;stroke-width:2;marker:none;visibility:visible;display:inline;overflow:visible;enable-background:accumulate" />
    <path
       sodipodi:nodetypes="cscscsscsssc"
       inkscape:connector-curvature="0"
       id="path4083-1-6"
       d="m 118.09929,220.37593 c 8.47572,-2.53455 14.71205,-5.62669 20.32966,-10.15166 1.02846,-0.82843 3.27848,-2.62839 3.2635,-2.69324 -0.0204,-0.006 -0.44928,-0.26512 -0.76617,-0.45445 l -0.54633,-0.32688 -1.44521,1.22264 c -5.75337,4.86732 -12.31643,8.45213 -21.52451,11.18877 -0.78704,0.2339 -1.42603,0.43746 -1.42001,0.45232 0.006,0.0149 0.10641,0.29051 0.22289,0.61252 0.11659,0.32203 0.22825,0.59526 0.2482,0.60718 0.02,0.0119 2.17889,-1.20096 1.63806,-0.45731 z"
       style="color:#000000;fill:#fff500;fill-opacity:1;fill-rule:nonzero;stroke:none;stroke-width:2;marker:none;visibility:visible;display:inline;overflow:visible;enable-background:accumulate" />
    <g
       transform="translate(0,-19.350412)"
       id="g4324">
      <path
         style="color:#000000;fill:#290e78;fill-opacity:1;fill-rule:nonzero;stroke:none;stroke-width:2;marker:none;visibility:visible;display:inline;overflow:visible;enable-background:accumulate"
         d="m 61.546439,84.488987 -2.115537,-2.845432 0.435462,-0.32376 c 0.247597,-0.184084 0.539841,-0.599158 0.677414,-0.962113 0.548145,-1.446251 0.415727,-2.543035 -0.571488,-4.733458 -1.209962,-2.684674 -2.087206,-4.110842 -5.149555,-8.37183 l -2.991884,-4.162911 5.180724,-3.85179 5.180733,-3.851797 5.794729,7.79401 5.794723,7.794002 0.98971,-0.735835 0.989718,-0.735841 2.115537,2.845434 2.115537,2.845433 -0.927861,0.689851 -0.927853,0.689845 -1.426534,-1.918712 -1.426527,-1.918703 -6.254642,4.700076 -6.254633,4.70007 1.36851,1.912069 1.368505,1.912061 -0.924635,0.687453 -0.924636,0.687453 -2.115537,-2.845434 z m 4.949584,-18.663742 -5.058889,-6.804291 -2.907282,2.161521 -2.90729,2.161526 0.940387,1.269865 c 1.467758,1.98254 3.894859,5.713772 4.712965,7.246687 1.388503,2.601713 2.304358,5.016929 2.33182,6.149318 l 0.01258,0.518921 3.967284,-2.949616 3.967284,-2.949616 -5.058889,-6.804291 z"
         id="path4308"
         inkscape:connector-curvature="0" />
      <path
         style="color:#000000;fill:#290e78;fill-opacity:1;fill-rule:nonzero;stroke:none;stroke-width:2;marker:none;visibility:visible;display:inline;overflow:visible;enable-background:accumulate"
         d="m 84.763171,60.61268 -4.03738,-10.090597 6.297677,-2.519783 6.297679,-2.519785 0.458144,1.145037 0.458141,1.145027 -5.009515,2.004372 -5.009521,2.004376 1.202625,3.005714 1.202623,3.005705 4.794828,-1.918473 4.794822,-1.918472 0.458144,1.145037 0.458145,1.145036 -4.794823,1.918471 -4.794828,1.918474 1.48896,3.721347 1.488963,3.721357 5.15265,-2.061643 5.152655,-2.061644 0.42951,1.073473 0.4295,1.073462 -6.440813,2.577056 -6.440805,2.57705 -4.037381,-10.090597 z"
         id="path4310"
         inkscape:connector-curvature="0" />
      <path
         style="color:#000000;fill:#290e78;fill-opacity:1;fill-rule:nonzero;stroke:none;stroke-width:2;marker:none;visibility:visible;display:inline;overflow:visible;enable-background:accumulate"
         d="m 108.24764,53.012218 -1.52033,-10.761468 6.86903,-0.970421 6.86902,-0.97042 0.16173,1.144841 0.16174,1.144832 -5.49521,0.776336 -5.49523,0.776337 0.47443,3.358194 0.47443,3.358183 3.32031,-0.467057 c 2.40234,-0.337371 3.59618,-0.441597 4.31797,-0.375566 2.12974,0.194714 3.69878,1.032151 4.70313,2.510159 0.50742,0.746722 0.55683,0.91654 0.83063,2.854655 0.26853,1.900725 0.26962,2.130775 0.0137,2.963314 -0.378,1.229697 -0.92249,2.00936 -1.8924,2.709743 -1.47195,1.062896 -2.41373,1.316714 -7.60893,2.050666 l -4.6637,0.658864 -1.52033,-10.761469 z m 10.84191,6.888784 c 0.90508,-0.418029 1.57284,-1.113972 1.88233,-1.961761 0.20947,-0.573804 0.21719,-0.929127 0.0464,-2.13829 -0.23585,-1.669472 -0.63988,-2.392696 -1.65467,-2.962018 -1.03508,-0.580677 -1.79777,-0.598209 -5.18788,-0.119272 l -3.10496,0.438654 0.56068,3.96876 0.56069,3.96877 3.10497,-0.438654 c 2.2379,-0.316159 3.29695,-0.527282 3.79248,-0.756189 z"
         id="path4312"
         inkscape:connector-curvature="0" />
      <path
         style="color:#000000;fill:#290e78;fill-opacity:1;fill-rule:nonzero;stroke:none;stroke-width:2;marker:none;visibility:visible;display:inline;overflow:visible;enable-background:accumulate"
         d="m 126.44656,60.262099 c 0.21369,-0.57539 2.07123,-5.4513 4.12788,-10.83536 l 3.73935,-9.78921 1.62152,-0.0434 1.62153,-0.0435 4.06278,10.68054 c 2.23453,5.87429 4.094,10.76725 4.13216,10.87323 0.0524,0.14543 -0.2866,0.1927 -1.38174,0.1927 l -1.45113,0 -0.98548,-2.77696 -0.98547,-2.77696 -4.99548,0.0406 -4.99547,0.0406 -0.96128,2.69781 -0.96128,2.69781 -1.48821,0.0441 -1.48822,0.0441 0.38854,-1.04615 0,0 z m 13.16268,-8.09901 c -2.29499,-6.24696 -3.59607,-9.67343 -3.67285,-9.67266 -0.0891,9e-4 -4.02741,10.59845 -4.02425,10.82887 8.7e-4,0.0636 1.8382,0.11562 4.08296,0.11562 l 4.08138,0 -0.46724,-1.27183 z"
         id="path4314"
         inkscape:connector-curvature="0" />
      <path
         style="color:#000000;fill:#290e78;fill-opacity:1;fill-rule:nonzero;stroke:none;stroke-width:2;marker:none;visibility:visible;display:inline;overflow:visible;enable-background:accumulate"
         d="m 151.19818,51.574007 0.85605,-10.850604 4.25911,0.407337 c 4.54667,0.434838 5.23314,0.586509 6.69627,1.479047 0.75313,0.459416 1.73201,1.592524 2.07071,2.396965 0.39774,0.944638 0.54511,2.545146 0.35396,3.844246 -0.41985,2.853348 -1.81175,4.494289 -4.37676,5.159865 -0.88196,0.228844 -1.45907,0.244393 -4.10668,0.110596 l -3.08051,-0.155661 -0.38339,4.338325 -0.3833,4.338333 -1.38075,-0.108932 -1.38076,-0.108933 0.85605,-10.850605 z m 8.49648,0.21941 c 1.71413,-0.456831 2.64022,-1.687567 2.79081,-3.708834 0.10473,-1.403772 -0.10664,-2.177302 -0.83308,-3.050851 -0.82447,-0.991436 -1.61357,-1.251403 -4.48654,-1.478061 l -2.45893,-0.193993 -0.3653,4.107793 -0.36531,4.107794 2.51897,0.198729 c 1.86067,0.146796 2.69675,0.151366 3.1993,0.01742 z"
         id="path4316"
         inkscape:connector-curvature="0" />
      <path
         style="color:#000000;fill:#290e78;fill-opacity:1;fill-rule:nonzero;stroke:none;stroke-width:2;marker:none;visibility:visible;display:inline;overflow:visible;enable-background:accumulate"
         d="m 181.14815,73.459676 0.97188,-2.182924 -7.605,-3.385897 -7.60499,-3.385894 4.42048,-9.928745 4.42047,-9.928746 1.2675,0.564314 1.2675,0.564318 -3.95022,8.8725 -3.95021,8.872492 4.99958,2.225911 4.99958,2.225916 3.95022,-8.872491 3.95021,-8.872501 1.2675,0.564318 1.2675,0.564313 -3.95022,8.872501 -3.95021,8.872491 1.12667,0.501617 1.12666,0.501612 -1.44214,3.239168 -1.44214,3.239169 -1.05625,-0.470262 -1.05625,-0.470265 0.97188,-2.182915 z"
         id="path4318"
         inkscape:connector-curvature="0" />
      <path
         style="color:#000000;fill:#290e78;fill-opacity:1;fill-rule:nonzero;stroke:none;stroke-width:2;marker:none;visibility:visible;display:inline;overflow:visible;enable-background:accumulate"
         d="m 187.81849,72.980397 c 0.0692,-0.05479 4.25587,-3.197079 9.3036,-6.982934 l 9.17769,-6.883366 1.36976,0.862513 1.36975,0.862513 -2.25958,11.19789 c -1.24276,6.158843 -2.27831,11.28862 -2.3012,11.399502 -0.0315,0.152463 -0.34305,0.0113 -1.27744,-0.57869 l -1.23579,-0.780292 0.65095,-2.872147 0.65094,-2.872161 -4.2458,-2.633896 -4.2458,-2.63389 -2.25315,1.767923 -2.25316,1.767918 -1.28815,-0.76096 c -0.80214,-0.473838 -1.24066,-0.798504 -1.16225,-0.860515 l 0,0 z m 15.9289,0.715413 c 0.14141,-0.223953 2.44428,-11.191918 2.36094,-11.244538 -0.0692,-0.04367 -8.47181,6.348856 -9.00341,6.849608 l -0.26069,0.245612 3.40433,2.149531 c 2.4762,1.5635 3.43012,2.108691 3.49887,1.999809 z"
         id="path4320"
         inkscape:connector-curvature="0" />
    </g>
  </g>
  <g
     id="g4058"
     transform="matrix(0.616292,0,0,0.61090451,380.37196,7.6754924)">
    <path
       transform="matrix(0.15892274,0.08954535,-0.09175019,0.1725667,-320.12561,54.09226)"
       inkscape:transform-center-y="-1.7133154"
       inkscape:transform-center-x="-1.4804764"
       d="m -425.52511,222.3323 -35.13132,-8.65067 -27.04269,24.03614 -2.6289,-36.08507 -31.21637,-18.29156 33.50656,-13.65113 7.74991,-35.34094 23.3371,27.64821 36.00608,-3.55035 -19.08345,30.73866 z"
       inkscape:randomized="0"
       inkscape:rounded="0"
       inkscape:flatsided="false"
       sodipodi:arg2="1.3282114"
       sodipodi:arg1="0.69989287"
       sodipodi:r2="27.241817"
       sodipodi:r1="54.483635"
       sodipodi:cy="187.23744"
       sodipodi:cx="-467.20026"
       sodipodi:sides="5"
       id="path3820"
       style="fill:#fff500;fill-opacity:1;stroke:#fff500;stroke-width:2;stroke-linecap:butt;stroke-linejoin:miter;stroke-miterlimit:4;stroke-opacity:1;stroke-dasharray:none;stroke-dashoffset:0"
       sodipodi:type="star" />
    <path
       transform="matrix(0.15892274,0.08954535,-0.09175019,0.1725667,-288.18942,53.43251)"
       inkscape:transform-center-y="-1.7133154"
       inkscape:transform-center-x="-1.4804764"
       d="m -425.52511,222.3323 -35.13132,-8.65067 -27.04269,24.03614 -2.6289,-36.08507 -31.21637,-18.29156 33.50656,-13.65113 7.74991,-35.34094 23.3371,27.64821 36.00608,-3.55035 -19.08345,30.73866 z"
       inkscape:randomized="0"
       inkscape:rounded="0"
       inkscape:flatsided="false"
       sodipodi:arg2="1.3282114"
       sodipodi:arg1="0.69989287"
       sodipodi:r2="27.241817"
       sodipodi:r1="54.483635"
       sodipodi:cy="187.23744"
       sodipodi:cx="-467.20026"
       sodipodi:sides="5"
       id="path3820-6"
       style="fill:#fff500;fill-opacity:1;stroke:#fff500;stroke-width:2;stroke-linecap:butt;stroke-linejoin:miter;stroke-miterlimit:4;stroke-opacity:1;stroke-dasharray:none;stroke-dashoffset:0"
       sodipodi:type="star" />
    <path
       transform="matrix(0.12204716,0.13557026,-0.14201302,0.13427459,-264.95288,89.46272)"
       inkscape:transform-center-y="-0.43957815"
       inkscape:transform-center-x="-1.0879206"
       d="m -425.52511,222.3323 -35.13132,-8.65067 -27.04269,24.03614 -2.6289,-36.08507 -31.21637,-18.29156 33.50656,-13.65113 7.74991,-35.34094 23.3371,27.64821 36.00608,-3.55035 -19.08345,30.73866 z"
       inkscape:randomized="0"
       inkscape:rounded="0"
       inkscape:flatsided="false"
       sodipodi:arg2="1.3282114"
       sodipodi:arg1="0.69989287"
       sodipodi:r2="27.241817"
       sodipodi:r1="54.483635"
       sodipodi:cy="187.23744"
       sodipodi:cx="-467.20026"
       sodipodi:sides="5"
       id="path3820-5"
       style="fill:#fff500;fill-opacity:1;stroke:#fff500;stroke-width:2;stroke-linecap:butt;stroke-linejoin:miter;stroke-miterlimit:4;stroke-opacity:1;stroke-dasharray:none;stroke-dashoffset:0"
       sodipodi:type="star" />
    <path
       transform="matrix(0.08737839,0.1601244,-0.16922077,0.09778392,-247.68943,120.33337)"
       inkscape:transform-center-y="-0.3953154"
       inkscape:transform-center-x="-0.59130796"
       d="m -425.52511,222.3323 -35.13132,-8.65067 -27.04269,24.03614 -2.6289,-36.08507 -31.21637,-18.29156 33.50656,-13.65113 7.74991,-35.34094 23.3371,27.64821 36.00608,-3.55035 -19.08345,30.73866 z"
       inkscape:randomized="0"
       inkscape:rounded="0"
       inkscape:flatsided="false"
       sodipodi:arg2="1.3282114"
       sodipodi:arg1="0.69989287"
       sodipodi:r2="27.241817"
       sodipodi:r1="54.483635"
       sodipodi:cy="187.23744"
       sodipodi:cx="-467.20026"
       sodipodi:sides="5"
       id="path3820-7"
       style="fill:#fff500;fill-opacity:1;stroke:#fff500;stroke-width:2;stroke-linecap:butt;stroke-linejoin:miter;stroke-miterlimit:4;stroke-opacity:1;stroke-dasharray:none;stroke-dashoffset:0"
       sodipodi:type="star" />
    <path
       transform="matrix(0.07625157,0.16571211,-0.17549713,0.08601233,-226.1845,144.54332)"
       inkscape:transform-center-y="-0.52346098"
       inkscape:transform-center-x="-0.43875015"
       d="m -425.52511,222.3323 -35.13132,-8.65067 -27.04269,24.03614 -2.6289,-36.08507 -31.21637,-18.29156 33.50656,-13.65113 7.74991,-35.34094 23.3371,27.64821 36.00608,-3.55035 -19.08345,30.73866 z"
       inkscape:randomized="0"
       inkscape:rounded="0"
       inkscape:flatsided="false"
       sodipodi:arg2="1.3282114"
       sodipodi:arg1="0.69989287"
       sodipodi:r2="27.241817"
       sodipodi:r1="54.483635"
       sodipodi:cy="187.23744"
       sodipodi:cx="-467.20026"
       sodipodi:sides="5"
       id="path3820-7-8"
       style="fill:#fff500;fill-opacity:1;stroke:#fff500;stroke-width:2;stroke-linecap:butt;stroke-linejoin:miter;stroke-miterlimit:4;stroke-opacity:1;stroke-dasharray:none;stroke-dashoffset:0"
       sodipodi:type="star" />
    <path
       transform="matrix(0.1766629,0.04544256,-0.04404724,0.19041325,-183.56319,90.75697)"
       inkscape:transform-center-y="-2.5619833"
       inkscape:transform-center-x="-0.23121211"
       d="m -425.52511,222.3323 -35.13132,-8.65067 -27.04269,24.03614 -2.6289,-36.08507 -31.21637,-18.29156 33.50656,-13.65113 7.74991,-35.34094 23.3371,27.64821 36.00608,-3.55035 -19.08345,30.73866 z"
       inkscape:randomized="0"
       inkscape:rounded="0"
       inkscape:flatsided="false"
       sodipodi:arg2="1.3282114"
       sodipodi:arg1="0.69989287"
       sodipodi:r2="27.241817"
       sodipodi:r1="54.483635"
       sodipodi:cy="187.23744"
       sodipodi:cx="-467.20026"
       sodipodi:sides="5"
       id="path3820-7-1"
       style="fill:#fff500;fill-opacity:1;stroke:#fff500;stroke-width:2;stroke-linecap:butt;stroke-linejoin:miter;stroke-miterlimit:4;stroke-opacity:1;stroke-dasharray:none;stroke-dashoffset:0"
       sodipodi:type="star" />
    <path
       transform="matrix(-0.03352088,0.17930744,-0.19293362,-0.03120869,-238.36374,221.89796)"
       inkscape:transform-center-y="-0.094832278"
       inkscape:transform-center-x="-2.3764121"
       d="m -425.52511,222.3323 -35.13132,-8.65067 -27.04269,24.03614 -2.6289,-36.08507 -31.21637,-18.29156 33.50656,-13.65113 7.74991,-35.34094 23.3371,27.64821 36.00608,-3.55035 -19.08345,30.73866 z"
       inkscape:randomized="0"
       inkscape:rounded="0"
       inkscape:flatsided="false"
       sodipodi:arg2="1.3282114"
       sodipodi:arg1="0.69989287"
       sodipodi:r2="27.241817"
       sodipodi:r1="54.483635"
       sodipodi:cy="187.23744"
       sodipodi:cx="-467.20026"
       sodipodi:sides="5"
       id="path3820-7-5"
       style="fill:#fff500;fill-opacity:1;stroke:#fff500;stroke-width:2;stroke-linecap:butt;stroke-linejoin:miter;stroke-miterlimit:4;stroke-opacity:1;stroke-dasharray:none;stroke-dashoffset:0"
       sodipodi:type="star" />
    <path
       transform="matrix(0.136196,0.12134849,-0.12640961,0.14905695,-162.19021,190.48461)"
       inkscape:transform-center-y="-0.88319963"
       inkscape:transform-center-x="-1.3030724"
       d="m -425.52511,222.3323 -35.13132,-8.65067 -27.04269,24.03614 -2.6289,-36.08507 -31.21637,-18.29156 33.50656,-13.65113 7.74991,-35.34094 23.3371,27.64821 36.00608,-3.55035 -19.08345,30.73866 z"
       inkscape:randomized="0"
       inkscape:rounded="0"
       inkscape:flatsided="false"
       sodipodi:arg2="1.3282114"
       sodipodi:arg1="0.69989287"
       sodipodi:r2="27.241817"
       sodipodi:r1="54.483635"
       sodipodi:cy="187.23744"
       sodipodi:cx="-467.20026"
       sodipodi:sides="5"
       id="path3820-7-15"
       style="fill:#fff500;fill-opacity:1;stroke:#fff500;stroke-width:2;stroke-linecap:butt;stroke-linejoin:miter;stroke-miterlimit:4;stroke-opacity:1;stroke-dasharray:none;stroke-dashoffset:0"
       sodipodi:type="star" />
    <path
       transform="matrix(0.08737839,0.1601244,-0.16922077,0.09778392,-173.68445,250.04058)"
       inkscape:transform-center-y="-0.3953154"
       inkscape:transform-center-x="-0.59130796"
       d="m -425.52511,222.3323 -35.13132,-8.65067 -27.04269,24.03614 -2.6289,-36.08507 -31.21637,-18.29156 33.50656,-13.65113 7.74991,-35.34094 23.3371,27.64821 36.00608,-3.55035 -19.08345,30.73866 z"
       inkscape:randomized="0"
       inkscape:rounded="0"
       inkscape:flatsided="false"
       sodipodi:arg2="1.3282114"
       sodipodi:arg1="0.69989287"
       sodipodi:r2="27.241817"
       sodipodi:r1="54.483635"
       sodipodi:cy="187.23744"
       sodipodi:cx="-467.20026"
       sodipodi:sides="5"
       id="path3820-7-12"
       style="fill:#fff500;fill-opacity:1;stroke:#fff500;stroke-width:2;stroke-linecap:butt;stroke-linejoin:miter;stroke-miterlimit:4;stroke-opacity:1;stroke-dasharray:none;stroke-dashoffset:0"
       sodipodi:type="star" />
    <path
       transform="matrix(0.08737839,0.1601244,-0.16922077,0.09778392,-177.01736,280.87004)"
       inkscape:transform-center-y="-0.3953154"
       inkscape:transform-center-x="-0.59130796"
       d="m -425.52511,222.3323 -35.13132,-8.65067 -27.04269,24.03614 -2.6289,-36.08507 -31.21637,-18.29156 33.50656,-13.65113 7.74991,-35.34094 23.3371,27.64821 36.00608,-3.55035 -19.08345,30.73866 z"
       inkscape:randomized="0"
       inkscape:rounded="0"
       inkscape:flatsided="false"
       sodipodi:arg2="1.3282114"
       sodipodi:arg1="0.69989287"
       sodipodi:r2="27.241817"
       sodipodi:r1="54.483635"
       sodipodi:cy="187.23744"
       sodipodi:cx="-467.20026"
       sodipodi:sides="5"
       id="path3820-7-2"
       style="fill:#fff500;fill-opacity:1;stroke:#fff500;stroke-width:2;stroke-linecap:butt;stroke-linejoin:miter;stroke-miterlimit:4;stroke-opacity:1;stroke-dasharray:none;stroke-dashoffset:0"
       sodipodi:type="star" />
    <path
       transform="matrix(0.05457857,0.17405742,-0.18500332,0.06301696,-198.81709,322.9059)"
       inkscape:transform-center-y="-0.75563072"
       inkscape:transform-center-x="-0.75879011"
       d="m -425.52511,222.3323 -35.13132,-8.65067 -27.04269,24.03614 -2.6289,-36.08507 -31.21637,-18.29156 33.50656,-13.65113 7.74991,-35.34094 23.3371,27.64821 36.00608,-3.55035 -19.08345,30.73866 z"
       inkscape:randomized="0"
       inkscape:rounded="0"
       inkscape:flatsided="false"
       sodipodi:arg2="1.3282114"
       sodipodi:arg1="0.69989287"
       sodipodi:r2="27.241817"
       sodipodi:r1="54.483635"
       sodipodi:cy="187.23744"
       sodipodi:cx="-467.20026"
       sodipodi:sides="5"
       id="path3820-7-23"
       style="fill:#fff500;fill-opacity:1;stroke:#fff500;stroke-width:2;stroke-linecap:butt;stroke-linejoin:miter;stroke-miterlimit:4;stroke-opacity:1;stroke-dasharray:none;stroke-dashoffset:0"
       sodipodi:type="star" />
    <path
       transform="matrix(0.00778416,0.18224767,-0.19500126,0.01311003,-234.73215,363.1368)"
       inkscape:transform-center-y="-1.1893767"
       inkscape:transform-center-x="-1.6716403"
       d="m -425.52511,222.3323 -35.13132,-8.65067 -27.04269,24.03614 -2.6289,-36.08507 -31.21637,-18.29156 33.50656,-13.65113 7.74991,-35.34094 23.3371,27.64821 36.00608,-3.55035 -19.08345,30.73866 z"
       inkscape:randomized="0"
       inkscape:rounded="0"
       inkscape:flatsided="false"
       sodipodi:arg2="1.3282114"
       sodipodi:arg1="0.69989287"
       sodipodi:r2="27.241817"
       sodipodi:r1="54.483635"
       sodipodi:cy="187.23744"
       sodipodi:cx="-467.20026"
       sodipodi:sides="5"
       id="path3820-7-6"
       style="fill:#fff500;fill-opacity:1;stroke:#fff500;stroke-width:2;stroke-linecap:butt;stroke-linejoin:miter;stroke-miterlimit:4;stroke-opacity:1;stroke-dasharray:none;stroke-dashoffset:0"
       sodipodi:type="star" />
    <path
       transform="matrix(-0.02312286,0.18094237,-0.1944125,-0.02002858,-270.92817,391.49725)"
       inkscape:transform-center-y="-0.37557002"
       inkscape:transform-center-x="-2.2078867"
       d="m -425.52511,222.3323 -35.13132,-8.65067 -27.04269,24.03614 -2.6289,-36.08507 -31.21637,-18.29156 33.50656,-13.65113 7.74991,-35.34094 23.3371,27.64821 36.00608,-3.55035 -19.08345,30.73866 z"
       inkscape:randomized="0"
       inkscape:rounded="0"
       inkscape:flatsided="false"
       sodipodi:arg2="1.3282114"
       sodipodi:arg1="0.69989287"
       sodipodi:r2="27.241817"
       sodipodi:r1="54.483635"
       sodipodi:cy="187.23744"
       sodipodi:cx="-467.20026"
       sodipodi:sides="5"
       id="path3820-7-0"
       style="fill:#fff500;fill-opacity:1;stroke:#fff500;stroke-width:2;stroke-linecap:butt;stroke-linejoin:miter;stroke-miterlimit:4;stroke-opacity:1;stroke-dasharray:none;stroke-dashoffset:0"
       sodipodi:type="star" />
    <path
       transform="matrix(-0.06096128,0.17192594,-0.18574588,-0.06079335,-315.68466,413.58399)"
       inkscape:transform-center-y="0.6626375"
       inkscape:transform-center-x="-2.3244976"
       d="m -425.52511,222.3323 -35.13132,-8.65067 -27.04269,24.03614 -2.6289,-36.08507 -31.21637,-18.29156 33.50656,-13.65113 7.74991,-35.34094 23.3371,27.64821 36.00608,-3.55035 -19.08345,30.73866 z"
       inkscape:randomized="0"
       inkscape:rounded="0"
       inkscape:flatsided="false"
       sodipodi:arg2="1.3282114"
       sodipodi:arg1="0.69989287"
       sodipodi:r2="27.241817"
       sodipodi:r1="54.483635"
       sodipodi:cy="187.23744"
       sodipodi:cx="-467.20026"
       sodipodi:sides="5"
       id="path3820-7-9"
       style="fill:#fff500;fill-opacity:1;stroke:#fff500;stroke-width:2;stroke-linecap:butt;stroke-linejoin:miter;stroke-miterlimit:4;stroke-opacity:1;stroke-dasharray:none;stroke-dashoffset:0"
       sodipodi:type="star" />
    <path
       transform="matrix(-0.09667426,0.15468967,-0.16821935,-0.09949681,-363.88807,426.0179)"
       inkscape:transform-center-y="1.6024122"
       inkscape:transform-center-x="-1.5428823"
       d="m -425.52511,222.3323 -35.13132,-8.65067 -27.04269,24.03614 -2.6289,-36.08507 -31.21637,-18.29156 33.50656,-13.65113 7.74991,-35.34094 23.3371,27.64821 36.00608,-3.55035 -19.08345,30.73866 z"
       inkscape:randomized="0"
       inkscape:rounded="0"
       inkscape:flatsided="false"
       sodipodi:arg2="1.3282114"
       sodipodi:arg1="0.69989287"
       sodipodi:r2="27.241817"
       sodipodi:r1="54.483635"
       sodipodi:cy="187.23744"
       sodipodi:cx="-467.20026"
       sodipodi:sides="5"
       id="path3820-7-159"
       style="fill:#fff500;fill-opacity:1;stroke:#fff500;stroke-width:2;stroke-linecap:butt;stroke-linejoin:miter;stroke-miterlimit:4;stroke-opacity:1;stroke-dasharray:none;stroke-dashoffset:0"
       sodipodi:type="star" />
    <path
       transform="matrix(0.08737839,0.1601244,-0.16922077,0.09778392,-303.66812,400.64666)"
       inkscape:transform-center-y="-0.3953154"
       inkscape:transform-center-x="-0.59130796"
       d="m -425.52511,222.3323 -35.13132,-8.65067 -27.04269,24.03614 -2.6289,-36.08507 -31.21637,-18.29156 33.50656,-13.65113 7.74991,-35.34094 23.3371,27.64821 36.00608,-3.55035 -19.08345,30.73866 z"
       inkscape:randomized="0"
       inkscape:rounded="0"
       inkscape:flatsided="false"
       sodipodi:arg2="1.3282114"
       sodipodi:arg1="0.69989287"
       sodipodi:r2="27.241817"
       sodipodi:r1="54.483635"
       sodipodi:cy="187.23744"
       sodipodi:cx="-467.20026"
       sodipodi:sides="5"
       id="path3820-7-7"
       style="fill:#fff500;fill-opacity:1;stroke:#fff500;stroke-width:2;stroke-linecap:butt;stroke-linejoin:miter;stroke-miterlimit:4;stroke-opacity:1;stroke-dasharray:none;stroke-dashoffset:0"
       sodipodi:type="star" />
    <path
       transform="matrix(0.04348503,0.1771549,-0.18861152,0.0512158,-356.80953,415.60275)"
       inkscape:transform-center-y="-0.86640373"
       inkscape:transform-center-x="-0.98668579"
       d="m -425.52511,222.3323 -35.13132,-8.65067 -27.04269,24.03614 -2.6289,-36.08507 -31.21637,-18.29156 33.50656,-13.65113 7.74991,-35.34094 23.3371,27.64821 36.00608,-3.55035 -19.08345,30.73866 z"
       inkscape:randomized="0"
       inkscape:rounded="0"
       inkscape:flatsided="false"
       sodipodi:arg2="1.3282114"
       sodipodi:arg1="0.69989287"
       sodipodi:r2="27.241817"
       sodipodi:r1="54.483635"
       sodipodi:cy="187.23744"
       sodipodi:cx="-467.20026"
       sodipodi:sides="5"
       id="path3820-7-3"
       style="fill:#fff500;fill-opacity:1;stroke:#fff500;stroke-width:2;stroke-linecap:butt;stroke-linejoin:miter;stroke-miterlimit:4;stroke-opacity:1;stroke-dasharray:none;stroke-dashoffset:0"
       sodipodi:type="star" />
    <path
       transform="matrix(0.01214039,0.18200939,-0.19463196,0.01776975,-401.08443,416.06713)"
       inkscape:transform-center-y="-1.1526005"
       inkscape:transform-center-x="-1.5918654"
       d="m -425.52511,222.3323 -35.13132,-8.65067 -27.04269,24.03614 -2.6289,-36.08507 -31.21637,-18.29156 33.50656,-13.65113 7.74991,-35.34094 23.3371,27.64821 36.00608,-3.55035 -19.08345,30.73866 z"
       inkscape:randomized="0"
       inkscape:rounded="0"
       inkscape:flatsided="false"
       sodipodi:arg2="1.3282114"
       sodipodi:arg1="0.69989287"
       sodipodi:r2="27.241817"
       sodipodi:r1="54.483635"
       sodipodi:cy="187.23744"
       sodipodi:cx="-467.20026"
       sodipodi:sides="5"
       id="path3820-7-52"
       style="fill:#fff500;fill-opacity:1;stroke:#fff500;stroke-width:2;stroke-linecap:butt;stroke-linejoin:miter;stroke-miterlimit:4;stroke-opacity:1;stroke-dasharray:none;stroke-dashoffset:0"
       sodipodi:type="star" />
    <path
       transform="matrix(-0.03684931,0.17865312,-0.19231993,-0.03479092,-453.13435,411.22697)"
       inkscape:transform-center-y="-0.0042493024"
       inkscape:transform-center-x="-2.4291075"
       d="m -425.52511,222.3323 -35.13132,-8.65067 -27.04269,24.03614 -2.6289,-36.08507 -31.21637,-18.29156 33.50656,-13.65113 7.74991,-35.34094 23.3371,27.64821 36.00608,-3.55035 -19.08345,30.73866 z"
       inkscape:randomized="0"
       inkscape:rounded="0"
       inkscape:flatsided="false"
       sodipodi:arg2="1.3282114"
       sodipodi:arg1="0.69989287"
       sodipodi:r2="27.241817"
       sodipodi:r1="54.483635"
       sodipodi:cy="187.23744"
       sodipodi:cx="-467.20026"
       sodipodi:sides="5"
       id="path3820-7-22"
       style="fill:#fff500;fill-opacity:1;stroke:#fff500;stroke-width:2;stroke-linecap:butt;stroke-linejoin:miter;stroke-miterlimit:4;stroke-opacity:1;stroke-dasharray:none;stroke-dashoffset:0"
       sodipodi:type="star" />
    <path
       transform="matrix(0.14643829,0.10876872,-0.11266724,0.15969802,-407.5654,323.56227)"
       inkscape:transform-center-y="-1.2343141"
       inkscape:transform-center-x="-1.4656163"
       d="m -425.52511,222.3323 -35.13132,-8.65067 -27.04269,24.03614 -2.6289,-36.08507 -31.21637,-18.29156 33.50656,-13.65113 7.74991,-35.34094 23.3371,27.64821 36.00608,-3.55035 -19.08345,30.73866 z"
       inkscape:randomized="0"
       inkscape:rounded="0"
       inkscape:flatsided="false"
       sodipodi:arg2="1.3282114"
       sodipodi:arg1="0.69989287"
       sodipodi:r2="27.241817"
       sodipodi:r1="54.483635"
       sodipodi:cy="187.23744"
       sodipodi:cx="-467.20026"
       sodipodi:sides="5"
       id="path3820-7-91"
       style="fill:#fff500;fill-opacity:1;stroke:#fff500;stroke-width:2;stroke-linecap:butt;stroke-linejoin:miter;stroke-miterlimit:4;stroke-opacity:1;stroke-dasharray:none;stroke-dashoffset:0"
       sodipodi:type="star" />
    <path
       transform="matrix(0.10736944,0.14746732,-0.1551403,0.11886484,-438.53352,325.8418)"
       inkscape:transform-center-y="-0.14709347"
       inkscape:transform-center-x="-0.87319814"
       d="m -425.52511,222.3323 -35.13132,-8.65067 -27.04269,24.03614 -2.6289,-36.08507 -31.21637,-18.29156 33.50656,-13.65113 7.74991,-35.34094 23.3371,27.64821 36.00608,-3.55035 -19.08345,30.73866 z"
       inkscape:randomized="0"
       inkscape:rounded="0"
       inkscape:flatsided="false"
       sodipodi:arg2="1.3282114"
       sodipodi:arg1="0.69989287"
       sodipodi:r2="27.241817"
       sodipodi:r1="54.483635"
       sodipodi:cy="187.23744"
       sodipodi:cx="-467.20026"
       sodipodi:sides="5"
       id="path3820-7-92"
       style="fill:#fff500;fill-opacity:1;stroke:#fff500;stroke-width:2;stroke-linecap:butt;stroke-linejoin:miter;stroke-miterlimit:4;stroke-opacity:1;stroke-dasharray:none;stroke-dashoffset:0"
       sodipodi:type="star" />
    <path
       transform="matrix(0.08737839,0.1601244,-0.16922077,0.09778392,-460.73175,308.7832)"
       inkscape:transform-center-y="-0.3953154"
       inkscape:transform-center-x="-0.59130796"
       d="m -425.52511,222.3323 -35.13132,-8.65067 -27.04269,24.03614 -2.6289,-36.08507 -31.21637,-18.29156 33.50656,-13.65113 7.74991,-35.34094 23.3371,27.64821 36.00608,-3.55035 -19.08345,30.73866 z"
       inkscape:randomized="0"
       inkscape:rounded="0"
       inkscape:flatsided="false"
       sodipodi:arg2="1.3282114"
       sodipodi:arg1="0.69989287"
       sodipodi:r2="27.241817"
       sodipodi:r1="54.483635"
       sodipodi:cy="187.23744"
       sodipodi:cx="-467.20026"
       sodipodi:sides="5"
       id="path3820-7-10"
       style="fill:#fff500;fill-opacity:1;stroke:#fff500;stroke-width:2;stroke-linecap:butt;stroke-linejoin:miter;stroke-miterlimit:4;stroke-opacity:1;stroke-dasharray:none;stroke-dashoffset:0"
       sodipodi:type="star" />
    <path
       transform="matrix(0.05082305,0.17519082,-0.18631564,0.05902411,-483.81865,294.00987)"
       inkscape:transform-center-y="-0.79371161"
       inkscape:transform-center-x="-0.83681207"
       d="m -425.52511,222.3323 -35.13132,-8.65067 -27.04269,24.03614 -2.6289,-36.08507 -31.21637,-18.29156 33.50656,-13.65113 7.74991,-35.34094 23.3371,27.64821 36.00608,-3.55035 -19.08345,30.73866 z"
       inkscape:randomized="0"
       inkscape:rounded="0"
       inkscape:flatsided="false"
       sodipodi:arg2="1.3282114"
       sodipodi:arg1="0.69989287"
       sodipodi:r2="27.241817"
       sodipodi:r1="54.483635"
       sodipodi:cy="187.23744"
       sodipodi:cx="-467.20026"
       sodipodi:sides="5"
       id="path3820-7-68"
       style="fill:#fff500;fill-opacity:1;stroke:#fff500;stroke-width:2;stroke-linecap:butt;stroke-linejoin:miter;stroke-miterlimit:4;stroke-opacity:1;stroke-dasharray:none;stroke-dashoffset:0"
       sodipodi:type="star" />
    <path
       transform="matrix(0.00650921,0.18229765,-0.19508819,0.01174576,-506.73415,274.89602)"
       inkscape:transform-center-y="-1.1576931"
       inkscape:transform-center-x="-1.6948359"
       d="m -425.52511,222.3323 -35.13132,-8.65067 -27.04269,24.03614 -2.6289,-36.08507 -31.21637,-18.29156 33.50656,-13.65113 7.74991,-35.34094 23.3371,27.64821 36.00608,-3.55035 -19.08345,30.73866 z"
       inkscape:randomized="0"
       inkscape:rounded="0"
       inkscape:flatsided="false"
       sodipodi:arg2="1.3282114"
       sodipodi:arg1="0.69989287"
       sodipodi:r2="27.241817"
       sodipodi:r1="54.483635"
       sodipodi:cy="187.23744"
       sodipodi:cx="-467.20026"
       sodipodi:sides="5"
       id="path3820-7-65"
       style="fill:#fff500;fill-opacity:1;stroke:#fff500;stroke-width:2;stroke-linecap:butt;stroke-linejoin:miter;stroke-miterlimit:4;stroke-opacity:1;stroke-dasharray:none;stroke-dashoffset:0"
       sodipodi:type="star" />
    <path
       transform="matrix(0.16456077,0.07870552,-0.07999204,0.17832172,-451.11275,164.46089)"
       inkscape:transform-center-y="-1.9579216"
       inkscape:transform-center-x="-1.1665431"
       d="m -425.52511,222.3323 -35.13132,-8.65067 -27.04269,24.03614 -2.6289,-36.08507 -31.21637,-18.29156 33.50656,-13.65113 7.74991,-35.34094 23.3371,27.64821 36.00608,-3.55035 -19.08345,30.73866 z"
       inkscape:randomized="0"
       inkscape:rounded="0"
       inkscape:flatsided="false"
       sodipodi:arg2="1.3282114"
       sodipodi:arg1="0.69989287"
       sodipodi:r2="27.241817"
       sodipodi:r1="54.483635"
       sodipodi:cy="187.23744"
       sodipodi:cx="-467.20026"
       sodipodi:sides="5"
       id="path3820-7-55"
       style="fill:#fff500;fill-opacity:1;stroke:#fff500;stroke-width:2;stroke-linecap:butt;stroke-linejoin:miter;stroke-miterlimit:4;stroke-opacity:1;stroke-dasharray:none;stroke-dashoffset:0"
       sodipodi:type="star" />
    <path
       transform="matrix(0.13650235,0.12100378,-0.12603236,0.14937606,-445.83537,159.01542)"
       inkscape:transform-center-y="-0.89328793"
       inkscape:transform-center-x="-1.3078474"
       d="m -425.52511,222.3323 -35.13132,-8.65067 -27.04269,24.03614 -2.6289,-36.08507 -31.21637,-18.29156 33.50656,-13.65113 7.74991,-35.34094 23.3371,27.64821 36.00608,-3.55035 -19.08345,30.73866 z"
       inkscape:randomized="0"
       inkscape:rounded="0"
       inkscape:flatsided="false"
       sodipodi:arg2="1.3282114"
       sodipodi:arg1="0.69989287"
       sodipodi:r2="27.241817"
       sodipodi:r1="54.483635"
       sodipodi:cy="187.23744"
       sodipodi:cx="-467.20026"
       sodipodi:sides="5"
       id="path3820-7-37"
       style="fill:#fff500;fill-opacity:1;stroke:#fff500;stroke-width:2;stroke-linecap:butt;stroke-linejoin:miter;stroke-miterlimit:4;stroke-opacity:1;stroke-dasharray:none;stroke-dashoffset:0"
       sodipodi:type="star" />
    <path
       transform="matrix(0.11445063,0.14204175,-0.14914356,0.12630742,-436.40158,147.29598)"
       inkscape:transform-center-y="-0.21664867"
       inkscape:transform-center-x="-0.97584658"
       d="m -425.52511,222.3323 -35.13132,-8.65067 -27.04269,24.03614 -2.6289,-36.08507 -31.21637,-18.29156 33.50656,-13.65113 7.74991,-35.34094 23.3371,27.64821 36.00608,-3.55035 -19.08345,30.73866 z"
       inkscape:randomized="0"
       inkscape:rounded="0"
       inkscape:flatsided="false"
       sodipodi:arg2="1.3282114"
       sodipodi:arg1="0.69989287"
       sodipodi:r2="27.241817"
       sodipodi:r1="54.483635"
       sodipodi:cy="187.23744"
       sodipodi:cx="-467.20026"
       sodipodi:sides="5"
       id="path3820-7-35"
       style="fill:#fff500;fill-opacity:1;stroke:#fff500;stroke-width:2;stroke-linecap:butt;stroke-linejoin:miter;stroke-miterlimit:4;stroke-opacity:1;stroke-dasharray:none;stroke-dashoffset:0"
       sodipodi:type="star" />
    <path
       transform="matrix(0.08737839,0.1601244,-0.16922077,0.09778392,-423.02813,137.97132)"
       inkscape:transform-center-y="-0.3953154"
       inkscape:transform-center-x="-0.59130796"
       d="m -425.52511,222.3323 -35.13132,-8.65067 -27.04269,24.03614 -2.6289,-36.08507 -31.21637,-18.29156 33.50656,-13.65113 7.74991,-35.34094 23.3371,27.64821 36.00608,-3.55035 -19.08345,30.73866 z"
       inkscape:randomized="0"
       inkscape:rounded="0"
       inkscape:flatsided="false"
       sodipodi:arg2="1.3282114"
       sodipodi:arg1="0.69989287"
       sodipodi:r2="27.241817"
       sodipodi:r1="54.483635"
       sodipodi:cy="187.23744"
       sodipodi:cx="-467.20026"
       sodipodi:sides="5"
       id="path3820-7-59"
       style="fill:#fff500;fill-opacity:1;stroke:#fff500;stroke-width:2;stroke-linecap:butt;stroke-linejoin:miter;stroke-miterlimit:4;stroke-opacity:1;stroke-dasharray:none;stroke-dashoffset:0"
       sodipodi:type="star" />
    <path
       transform="matrix(0.18239648,0.00251581,0.00208166,0.19543037,-386.12325,27.88344)"
       inkscape:transform-center-y="-1.8561425"
       inkscape:transform-center-x="0.92225236"
       d="m -425.52511,222.3323 -35.13132,-8.65067 -27.04269,24.03614 -2.6289,-36.08507 -31.21637,-18.29156 33.50656,-13.65113 7.74991,-35.34094 23.3371,27.64821 36.00608,-3.55035 -19.08345,30.73866 z"
       inkscape:randomized="0"
       inkscape:rounded="0"
       inkscape:flatsided="false"
       sodipodi:arg2="1.3282114"
       sodipodi:arg1="0.69989287"
       sodipodi:r2="27.241817"
       sodipodi:r1="54.483635"
       sodipodi:cy="187.23744"
       sodipodi:cx="-467.20026"
       sodipodi:sides="5"
       id="path3820-7-75"
       style="fill:#fff500;fill-opacity:1;stroke:#fff500;stroke-width:2;stroke-linecap:butt;stroke-linejoin:miter;stroke-miterlimit:4;stroke-opacity:1;stroke-dasharray:none;stroke-dashoffset:0"
       sodipodi:type="star" />
    <path
       transform="matrix(0.01585584,0.18172341,-0.19422836,0.02174187,-397.97197,131.6519)"
       inkscape:transform-center-y="-1.1206573"
       inkscape:transform-center-x="-1.5230047"
       d="m -425.52511,222.3323 -35.13132,-8.65067 -27.04269,24.03614 -2.6289,-36.08507 -31.21637,-18.29156 33.50656,-13.65113 7.74991,-35.34094 23.3371,27.64821 36.00608,-3.55035 -19.08345,30.73866 z"
       inkscape:randomized="0"
       inkscape:rounded="0"
       inkscape:flatsided="false"
       sodipodi:arg2="1.3282114"
       sodipodi:arg1="0.69989287"
       sodipodi:r2="27.241817"
       sodipodi:r1="54.483635"
       sodipodi:cy="187.23744"
       sodipodi:cx="-467.20026"
       sodipodi:sides="5"
       id="path3820-7-28"
       style="fill:#fff500;fill-opacity:1;stroke:#fff500;stroke-width:2;stroke-linecap:butt;stroke-linejoin:miter;stroke-miterlimit:4;stroke-opacity:1;stroke-dasharray:none;stroke-dashoffset:0"
       sodipodi:type="star" />
  </g>
</svg>
