<?xml version="1.0" encoding="UTF-8" standalone="no"?>
<!-- Created with Inkscape (http://www.inkscape.org/) -->

<svg
   xmlns:dc="http://purl.org/dc/elements/1.1/"
   xmlns:cc="http://creativecommons.org/ns#"
   xmlns:rdf="http://www.w3.org/1999/02/22-rdf-syntax-ns#"
   xmlns:svg="http://www.w3.org/2000/svg"
   xmlns="http://www.w3.org/2000/svg"
   xmlns:sodipodi="http://sodipodi.sourceforge.net/DTD/sodipodi-0.dtd"
   xmlns:inkscape="http://www.inkscape.org/namespaces/inkscape"
   id="svg2"
   version="1.1"
   inkscape:version="0.48.1 "
   width="432"
   height="216"
   sodipodi:docname="Flag of Plasnica Municipality.svg">
  <metadata
     id="metadata8">
    <rdf:RDF>
      <cc:Work
         rdf:about="">
        <dc:format>image/svg+xml</dc:format>
        <dc:type
           rdf:resource="http://purl.org/dc/dcmitype/StillImage" />
      </cc:Work>
    </rdf:RDF>
  </metadata>
  <defs
     id="defs6" />
  <sodipodi:namedview
     pagecolor="#ffffff"
     bordercolor="#666666"
     borderopacity="1"
     objecttolerance="10"
     gridtolerance="10"
     guidetolerance="10"
     inkscape:pageopacity="0"
     inkscape:pageshadow="2"
     inkscape:window-width="1280"
     inkscape:window-height="738"
     id="namedview4"
     showgrid="false"
     inkscape:zoom="0.77807548"
     inkscape:cx="87.929404"
     inkscape:cy="129.91239"
     inkscape:window-x="-8"
     inkscape:window-y="-8"
     inkscape:window-maximized="1"
     inkscape:current-layer="svg2" />
  <g
     id="g3071"
     transform="translate(-0.79046483,0.07186044)">
    <g
       transform="translate(0.84705647,0)"
       id="g2987">
      <path
         inkscape:connector-curvature="0"
         id="path3003"
         d="M 0,108 0,0 l 216,0 216,0 0,108 0,108 -216,0 -216,0 0,-108 z"
         style="fill:#fbfc00" />
      <path
         inkscape:connector-curvature="0"
         id="path2997"
         d="M 0,108 0,0 l 216,0 216,0 0,108 0,108 -216,0 -216,0 0,-108 z m 25.961266,96.43448 C 43.543003,190.45934 76.338224,140.80789 84.978258,115.08367 89.432165,101.82292 85.021038,100.31145 73.789934,111.25 66.453905,118.39493 64.094289,121.15696 54.354498,134 36.266897,157.85058 17,194.1968 17,204.46774 c 0,2.99929 0.339492,3.5308 2.25,3.52255 1.2375,-0.005 4.25757,-1.60545 6.711266,-3.55581 z M 392.53894,158.93699 c 1.29596,-2.0969 -3.24763,-5.35336 -16.03894,-11.49537 -16.82255,-8.0777 -35.22698,-15.0659 -71,-26.95886 -50.80134,-16.88922 -97.30339,-27.845959 -99.95733,-23.551795 -1.35697,2.195613 2.84752,5.251905 15.95733,11.599565 47.38845,22.94511 166.34444,58.00233 171.03894,50.40646 z M 161.95466,114.52466 c 9.6559,-2.56966 18.11102,-7.43157 25.12128,-14.44538 14.33372,-14.340993 17.64426,-32.8338 8.95248,-50.00899 C 192.9869,44.060148 186.76549,37 184.51088,37 c -2.77067,0 -2.67407,2.288305 0.37593,8.905356 4.0467,8.77943 4.91482,16.779872 2.67624,24.663741 -8.57644,30.204673 -50.38534,39.672073 -72.01657,16.307764 -7.69382,-8.310243 -10.02537,-15.661741 -9.05825,-28.56119 0.66769,-8.905865 0.59642,-9.479479 -1.13796,-9.158305 -2.47767,0.458816 -6.147018,8.09703 -7.572786,15.763707 -3.955084,21.267381 11.436856,43.124157 34.913836,49.578147 6.54294,1.79871 22.5477,1.81262 29.26334,0.0254 z M 18.097934,89.138331 C 30.490631,84.874618 45.725561,75.658009 55.051085,66.782946 62.459185,59.732687 65.206881,55.644184 64.816622,52.252068 64.510008,49.586993 64.31034,49.500796 58.5,49.525184 51.67355,49.553838 42.606585,53.220199 30.5,60.847399 17.166882,69.247319 5,81.668554 5,86.880485 c 0,4.247849 4.8725605,5.087789 13.097934,2.257846 z M 370.68389,86.746032 c 1.6702,-1.671484 1.65501,-1.851578 -0.32298,-3.829569 C 358.92112,71.476674 246.21429,56.159003 235.3464,64.567018 c -1.76493,1.365444 -1.72403,1.537656 0.92682,3.902739 7.11664,6.349446 45.44029,14.50319 91.22678,19.409421 4.4,0.47148 15.52204,0.804043 24.71564,0.739029 14.50129,-0.102548 16.9478,-0.350558 18.46825,-1.872175 z M 175.98354,79.25 c -0.009,-0.4125 -4.22819,-6.825 -9.37585,-14.25 -10.7427,-15.495277 -10.85222,-13.573193 1.17788,-20.671768 6.72615,-3.968883 6.68944,-4.685222 -0.29685,-5.792758 -2.1938,-0.347782 -6.4222,-1.197705 -9.39646,-1.888719 l -5.40773,-1.256388 -7.29715,-13.394547 c -4.01343,-7.367001 -7.49445,-12.7423339 -7.73561,-11.945184 -0.24115,0.79715 -0.95297,6.833013 -1.58181,13.413028 -0.62885,6.580015 -1.64335,12.272677 -2.25445,12.65036 -0.61111,0.377683 -6.10709,1.036776 -12.21331,1.464651 -6.10621,0.427875 -11.5522,0.854172 -12.1022,0.947326 -0.55,0.09315 -2.9125,0.237912 -5.25,0.321685 -2.3375,0.08377 -4.24937,0.489814 -4.24861,0.902314 0.002,0.81026 6.29658,3.56629 20.49861,8.974446 4.95,1.884968 9.2741,3.730591 9.60911,4.101384 0.335,0.370794 -1.51963,5.96167 -4.12141,12.42417 -2.60179,6.4625 -4.28063,11.75 -3.73076,11.75 0.54986,0 5.5545,-2.844012 11.12141,-6.320026 5.56691,-3.476015 10.57422,-6.58463 11.12735,-6.908035 0.55314,-0.323404 7.52814,3.178474 15.5,7.781953 14.49735,8.371719 16.00864,9.099672 15.97784,7.696108 z M 292,32.567151 c 30.53225,-0.720696 40.60284,-1.308273 63,-3.675793 19.26435,-2.036361 35.14416,-5.155202 36.8766,-7.242673 4.48091,-5.399165 -15.14427,-7.846551 -61.3766,-7.654054 -18.7,0.07786 -35.8,0.283044 -38,0.455962 -2.2,0.172919 -10.75,0.624572 -19,1.003674 -8.25,0.379102 -18.825,1.108549 -23.5,1.620993 -4.675,0.512443 -12.775,1.398821 -18,1.969728 -10.35651,1.131599 -24.67231,4.43816 -26.77677,6.18471 -4.26865,3.542667 9.58816,6.583706 33.77677,7.412705 9.625,0.329872 17.61398,0.69676 17.75329,0.815309 0.13932,0.118548 2.83932,0.09148 6,-0.06016 C 265.91398,33.245919 279.075,32.872238 292,32.567151 z"
         style="fill:#fd0000" />
      <path
         sodipodi:nodetypes="sssssssssssssssscssssssssscssssssssssccssssssscsssscscssssscscssssscsssssssssscss"
         inkscape:connector-curvature="0"
         id="path2995"
         d="M 429.91667,215.62652 C 429.6875,215.4211 425.45,214.96054 420.5,214.60304 c -4.95,-0.3575 -12.375,-1.07014 -16.5,-1.58364 -4.125,-0.5135 -10.2,-1.18709 -13.5,-1.49687 -3.3,-0.30977 -10.95,-1.21148 -17,-2.0038 -6.05,-0.79231 -13.475,-1.71729 -16.5,-2.05549 -3.025,-0.33821 -7.3,-0.99979 -9.5,-1.47017 -2.2,-0.47038 -6.025,-1.13597 -8.5,-1.4791 C 302.2355,199.41712 239.06311,179.44823 185.07424,155.85781 148.27501,139.77839 114.50101,119.67448 98.911101,103.7737 89.317413,93.988707 85.924361,92.260685 82.379575,83.139019 79.714422,76.28088 78.397751,72.537652 78.828273,57.644392 79.282288,41.938423 81.528383,41.674735 83.053873,36.447775 85.478106,28.14135 94.413093,16.658217 99.235402,12.5305 105.04805,7.5550889 115.93649,2.1273491 123.50278,0.52401848 129.21088,-0.68555125 152.6577,0.03203877 280.60861,0.01736362 L 432,0 c 21.45679,33.65325 19.30381,71.551209 18.39627,108 -1.47854,59.3816 -10.7229,108 -11.18123,108 -0.45834,0 -9.06921,-0.16807 -9.29837,-0.37348 z m -37.37773,-56.68953 c 1.29596,-2.0969 -3.24763,-5.35336 -16.03894,-11.49537 -16.82255,-8.0777 -35.22698,-15.0659 -71,-26.95886 -50.80134,-16.88922 -97.30339,-27.845959 -99.95733,-23.551795 -1.35697,2.195613 2.84752,5.251905 15.95733,11.599565 47.38845,22.94511 166.34444,58.00233 171.03894,50.40646 z M 161.95466,114.52466 c 9.6559,-2.56966 18.11102,-7.43157 25.12128,-14.44538 14.33372,-14.340993 17.64426,-32.8338 8.95248,-50.00899 C 192.9869,44.060148 186.76549,37 184.51088,37 c -2.77067,0 -2.67407,2.288305 0.37593,8.905356 4.0467,8.77943 4.91482,16.779872 2.67624,24.663741 -8.57644,30.204673 -50.38534,39.672073 -72.01657,16.307764 -7.69382,-8.310243 -10.02537,-15.661741 -9.05825,-28.56119 0.66769,-8.905865 0.59642,-9.479479 -1.13796,-9.158305 -2.47767,0.458816 -6.147018,8.09703 -7.572786,15.763707 -3.955084,21.267381 11.436856,43.124157 34.913836,49.578147 6.54294,1.79871 22.5477,1.81262 29.26334,0.0254 z M 370.68389,86.746032 c 1.6702,-1.671484 1.65501,-1.851578 -0.32298,-3.829569 C 358.92112,71.476674 246.21429,56.159003 235.3464,64.567018 c -1.76493,1.365444 -1.72403,1.537656 0.92682,3.902739 7.11664,6.349446 45.44029,14.50319 91.22678,19.409421 4.4,0.47148 15.52204,0.804043 24.71564,0.739029 14.50129,-0.102548 16.9478,-0.350558 18.46825,-1.872175 z M 175.98354,79.25 c -0.009,-0.4125 -4.22819,-6.825 -9.37585,-14.25 -10.7427,-15.495277 -10.85222,-13.573193 1.17788,-20.671768 6.72615,-3.968883 6.68944,-4.685222 -0.29685,-5.792758 -2.1938,-0.347782 -6.4222,-1.197705 -9.39646,-1.888719 l -5.40773,-1.256388 -7.29715,-13.394547 c -4.01343,-7.367001 -7.49445,-12.7423339 -7.73561,-11.945184 -0.24115,0.79715 -0.95297,6.833013 -1.58181,13.413028 -0.62885,6.580015 -1.64335,12.272677 -2.25445,12.65036 -0.61111,0.377683 -6.10709,1.036776 -12.21331,1.464651 -6.10621,0.427875 -11.5522,0.854172 -12.1022,0.947326 -0.55,0.09315 -2.9125,0.237912 -5.25,0.321685 -2.3375,0.08377 -4.24937,0.489814 -4.24861,0.902314 0.002,0.81026 6.29658,3.56629 20.49861,8.974446 4.95,1.884968 9.2741,3.730591 9.60911,4.101384 0.335,0.370794 -1.51963,5.96167 -4.12141,12.42417 -2.60179,6.4625 -4.28063,11.75 -3.73076,11.75 0.54986,0 5.5545,-2.844012 11.12141,-6.320026 5.56691,-3.476015 10.57422,-6.58463 11.12735,-6.908035 0.55314,-0.323404 7.52814,3.178474 15.5,7.781953 14.49735,8.371719 16.00864,9.099672 15.97784,7.696108 z M 292,32.567151 c 30.53225,-0.720696 40.60284,-1.308273 63,-3.675793 19.26435,-2.036361 35.14416,-5.155202 36.8766,-7.242673 4.48091,-5.399165 -15.14427,-7.846551 -61.3766,-7.654054 -18.7,0.07786 -35.8,0.283044 -38,0.455962 -2.2,0.172919 -10.75,0.624572 -19,1.003674 -8.25,0.379102 -18.825,1.108549 -23.5,1.620993 -4.675,0.512443 -12.775,1.398821 -18,1.969728 -10.35651,1.131599 -24.67231,4.43816 -26.77677,6.18471 -4.26865,3.542667 9.58816,6.583706 33.77677,7.412705 9.625,0.329872 17.61398,0.69676 17.75329,0.815309 0.13932,0.118548 2.83932,0.09148 6,-0.06016 C 265.91398,33.245919 279.075,32.872238 292,32.567151 z"
         style="fill:#009700;fill-opacity:1" />
    </g>
  </g>
</svg>
