<?xml version="1.0" encoding="UTF-8" standalone="no"?>
<!-- Created with Inkscape (http://www.inkscape.org/) -->

<svg
   xmlns:dc="http://purl.org/dc/elements/1.1/"
   xmlns:cc="http://creativecommons.org/ns#"
   xmlns:rdf="http://www.w3.org/1999/02/22-rdf-syntax-ns#"
   xmlns:svg="http://www.w3.org/2000/svg"
   xmlns="http://www.w3.org/2000/svg"
   xmlns:xlink="http://www.w3.org/1999/xlink"
   xmlns:sodipodi="http://sodipodi.sourceforge.net/DTD/sodipodi-0.dtd"
   xmlns:inkscape="http://www.inkscape.org/namespaces/inkscape"
   id="svg2"
   version="1.1"
   inkscape:version="0.48.1 "
   width="576"
   height="288"
   sodipodi:docname="Flag_of_VevÄani_Municipality.svg">
  <metadata
     id="metadata8">
    <rdf:RDF>
      <cc:Work
         rdf:about="">
        <dc:format>image/svg+xml</dc:format>
        <dc:type
           rdf:resource="http://purl.org/dc/dcmitype/StillImage" />
        <dc:title />
      </cc:Work>
    </rdf:RDF>
  </metadata>
  <defs
     id="defs6">
    <inkscape:perspective
       sodipodi:type="inkscape:persp3d"
       inkscape:vp_x="0 : 526.18109 : 1"
       inkscape:vp_y="0 : 1000 : 0"
       inkscape:vp_z="744.09448 : 526.18109 : 1"
       inkscape:persp3d-origin="372.04724 : 350.78739 : 1"
       id="perspective9" />
    <inkscape:perspective
       sodipodi:type="inkscape:persp3d"
       inkscape:vp_x="0 : 526.18109 : 1"
       inkscape:vp_y="0 : 1000 : 0"
       inkscape:vp_z="744.09448 : 526.18109 : 1"
       inkscape:persp3d-origin="372.04724 : 350.78739 : 1"
       id="perspective2535" />
    <inkscape:perspective
       sodipodi:type="inkscape:persp3d"
       inkscape:vp_x="0 : 526.18109 : 1"
       inkscape:vp_y="0 : 1000 : 0"
       inkscape:vp_z="744.09448 : 526.18109 : 1"
       inkscape:persp3d-origin="372.04724 : 350.78739 : 1"
       id="perspective2464" />
    <inkscape:perspective
       id="perspective2498"
       inkscape:persp3d-origin="372.04724 : 350.78739 : 1"
       inkscape:vp_z="744.09448 : 526.18109 : 1"
       inkscape:vp_y="0 : 1000 : 0"
       inkscape:vp_x="0 : 526.18109 : 1"
       sodipodi:type="inkscape:persp3d" />
    <inkscape:perspective
       sodipodi:type="inkscape:persp3d"
       inkscape:vp_x="0 : 500.62354 : 1"
       inkscape:vp_y="0 : 1000 : 0"
       inkscape:vp_z="950.80396 : 500.62354 : 1"
       inkscape:persp3d-origin="475.40198 : 333.74902 : 1"
       id="perspective51" />
    <linearGradient
       id="linearGradient2893">
      <stop
         offset="0"
         style="stop-color:#ffffff;stop-opacity:0.3137255"
         id="stop2895" />
      <stop
         offset="0.19"
         style="stop-color:#ffffff;stop-opacity:0.25098041"
         id="stop2897" />
      <stop
         offset="0.60000002"
         style="stop-color:#6b6b6b;stop-opacity:0.1254902"
         id="stop2901" />
      <stop
         offset="1"
         style="stop-color:#000000;stop-opacity:0.1254902"
         id="stop2899" />
    </linearGradient>
    <radialGradient
       inkscape:collect="always"
       xlink:href="#linearGradient2893"
       id="radialGradient3035"
       gradientUnits="userSpaceOnUse"
       gradientTransform="matrix(0.42252733,0,0,0.40007584,-22.788535,-22.717763)"
       cx="221.44487"
       cy="226.33101"
       fx="221.44487"
       fy="226.33101"
       r="300" />
  </defs>
  <sodipodi:namedview
     pagecolor="#ffffff"
     bordercolor="#666666"
     borderopacity="1"
     objecttolerance="10"
     gridtolerance="10"
     guidetolerance="10"
     inkscape:pageopacity="0"
     inkscape:pageshadow="2"
     inkscape:window-width="1366"
     inkscape:window-height="706"
     id="namedview4"
     showgrid="false"
     inkscape:zoom="0.46388167"
     inkscape:cx="8.4468445"
     inkscape:cy="486.80511"
     inkscape:window-x="-8"
     inkscape:window-y="-8"
     inkscape:window-maximized="1"
     inkscape:current-layer="svg2">
    <sodipodi:guide
       position="0,0"
       orientation="0,576"
       id="guide3005" />
    <sodipodi:guide
       position="576,0"
       orientation="-288,0"
       id="guide3007" />
    <sodipodi:guide
       position="576,288"
       orientation="0,-576"
       id="guide3009" />
    <sodipodi:guide
       position="0,288"
       orientation="288,0"
       id="guide3011" />
  </sodipodi:namedview>
  <g
     id="g3057"
     transform="matrix(1.0017871,0,0,1.0034843,-1.1806977,0)">
    <g
       id="g2987">
      <path
         inkscape:connector-curvature="0"
         id="path3001"
         d="M 1,143.5 1,0 288.5,0 576,0 576,143.5 576,287 288.5,287 1,287 1,143.5 z"
         style="fill:#ed9c4a" />
      <path
         sodipodi:nodetypes="cccccccccssssccsccssssssssssssccccccccccssssssscsssssssssssssscsssssssccsccccsccccsccssssccsccccsccssssccsccccsccssssssssssscsssscssssssssssssssssssssssssssssssssccscc"
         inkscape:connector-curvature="0"
         id="path2999"
         d="M 1,143.5 1,0 288.5,0 576,0 576,143.5 576,287 288.5,287 1,287 z m 291,108.12244 c 0,-0.20765 -0.7875,-0.99515 -1.75,-1.75 -1.58606,-1.24387 0.43765,-1.55168 1.68152,0.0344 1.30637,1.66575 0.0685,2.53866 0.0685,1.71562 z m -10.64437,-0.69199 c -1.24391,-0.23919 -0.1612,-1.5342 -1.11729,-1.28389 -0.95609,0.25029 0.0617,-1.88762 2.26166,-1.89872 2.2,-0.0111 2.98225,2.39228 1.73834,2.15309 z M 296.75,247.31064 c -0.9625,-0.25152 -1.37069,2.76846 -2.33319,3.01998 -0.9625,0.25153 -1.34181,-2.56265 0.58319,-2.56265 1.925,0 2.7125,-0.2058 1.75,-0.45733 z m -24.07863,2.1843 c -0.6875,-0.27741 -0.85159,-1.65012 -1.53909,-1.37271 -0.6875,0.27741 0.49272,-1.28015 1.86772,-1.28015 1.375,0 0.35887,2.93027 -0.32863,2.65286 z m 32.78454,-1.50999 c -0.6875,-0.27741 -1.05751,0.54622 -1.74501,0.82363 -0.6875,0.27741 -1.0859,-1.9665 0.2891,-1.9665 1.375,0 2.14341,1.42028 1.45591,1.14287 z m 4.80023,0.0773 c -0.72188,-0.28887 -0.76075,0.0898 -1.09304,0.42208 -0.33229,0.33229 -0.63393,-2.51998 0.42023,-2.5634 1.16495,-0.048 3.59825,3.69595 2.80052,3.37673 z m -48.78454,-2.37272 c -0.72188,-0.28887 0.13152,-1.62607 -0.20077,-1.29382 -0.33229,0.33229 0.25834,0.56864 1.3125,0.52522 1.16495,-0.048 1.19599,1.01914 0.39826,0.69992 z M 352,226.5 c 0.68469,-0.825 1.01989,-1.5 0.74489,-1.5 -0.275,0 -1.0602,0.675 -1.74489,1.5 -0.68469,0.825 -1.01989,1.5 -0.74489,1.5 0.275,0 1.0602,-0.675 1.74489,-1.5 z m -129,-1.82569 c 0,-0.17912 -1.2375,-1.41662 -2.75,-2.75 L 217.5,219.5 l 2.42431,2.75 C 222.1902,224.82029 223,225.45859 223,224.67431 z M 358,221.5 c 1.86578,-1.925 3.16733,-3.5 2.89233,-3.5 -0.275,0 -2.02655,1.575 -3.89233,3.5 -1.86578,1.925 -3.16733,3.5 -2.89233,3.5 0.275,0 2.02655,-1.575 3.89233,-3.5 z m 9,-9 c 1.86578,-1.925 3.16733,-3.5 2.89233,-3.5 -0.275,0 -2.02655,1.575 -3.89233,3.5 -1.86578,1.925 -3.16733,3.5 -2.89233,3.5 0.275,0 2.02655,-1.575 3.89233,-3.5 z m -155,1.17431 c 0,-0.17912 -1.2375,-1.41662 -2.75,-2.75 L 206.5,208.5 l 2.42431,2.75 C 211.1902,213.82029 212,214.45859 212,213.67431 z M 372,206.5 c 0.68469,-0.825 1.01989,-1.5 0.74489,-1.5 -0.275,0 -1.0602,0.675 -1.74489,1.5 -0.68469,0.825 -1.01989,1.5 -0.74489,1.5 0.275,0 1.0602,-0.675 1.74489,-1.5 z M 186.60417,164.27083 c -0.3323,-0.33229 -0.56864,0.25834 -0.52522,1.3125 0.048,1.16495 0.28494,1.4019 0.60416,0.60417 0.28887,-0.72188 0.25335,-1.58438 -0.0789,-1.91667 z m 204,-1 c -0.33229,-0.33229 -0.56864,0.25834 -0.52522,1.3125 0.048,1.16495 0.28494,1.4019 0.60416,0.60417 0.28887,-0.72188 0.25335,-1.58438 -0.0789,-1.91667 z m -205,-5 c -0.3323,-0.33229 -0.56864,0.25834 -0.52522,1.3125 0.048,1.16495 0.28494,1.4019 0.60416,0.60417 0.28887,-0.72188 0.25335,-1.58438 -0.0789,-1.91667 z M 391.66228,157.75 c -0.27741,-0.6875 -0.50439,-0.125 -0.50439,1.25 0,1.375 0.22698,1.9375 0.50439,1.25 0.27741,-0.6875 0.27741,-1.8125 0,-2.5 z M 184.73367,138.21648 C 184.52842,135.62242 184.36263,138 184.36523,143.5 c 0.003,5.5 0.17053,7.62242 0.37317,4.71648 0.20265,-2.90594 0.20052,-7.40594 -0.005,-10 z m 207.99706,0.50335 c -0.20972,-2.32091 -0.37882,-0.16983 -0.37577,4.78017 0.003,4.95 0.17464,6.84892 0.38131,4.21983 0.20668,-2.6291 0.20418,-6.6791 -0.006,-9 z M 391.66228,126.75 c -0.27741,-0.6875 -0.50439,-0.125 -0.50439,1.25 0,1.375 0.22698,1.9375 0.50439,1.25 0.27741,-0.6875 0.27741,-1.8125 0,-2.5 z m -206.05811,-0.47917 c -0.3323,-0.33229 -0.56864,0.25834 -0.52522,1.3125 0.048,1.16495 0.28494,1.4019 0.60416,0.60417 0.28887,-0.72187 0.25335,-1.58437 -0.0789,-1.91667 z m 205,-5 c -0.33229,-0.33229 -0.56864,0.25834 -0.52522,1.3125 0.048,1.16495 0.28494,1.4019 0.60416,0.60417 0.28887,-0.72187 0.25335,-1.58437 -0.0789,-1.91667 z M 373,81.622445 c 0,-0.207656 -0.7875,-0.995156 -1.75,-1.75 C 369.66394,78.628574 369.62857,78.663944 370.87244,80.25 372.17881,81.915748 373,82.445479 373,81.622445 z M 210,75.5 c 1.29175,-1.375 2.12363,-2.5 1.84863,-2.5 -0.275,0 -1.55688,1.125 -2.84863,2.5 -1.29175,1.375 -2.12363,2.5 -1.84863,2.5 0.275,0 1.55688,-1.125 2.84863,-2.5 z m 160,2.196167 c 0,-0.167108 -1.6875,-1.854608 -3.75,-3.75 L 362.5,70.5 l 3.44617,3.75 C 369.15378,77.740419 370,78.459787 370,77.696167 z m -9,-9 c 0,-0.167108 -1.6875,-1.854608 -3.75,-3.75 L 353.5,61.5 l 3.44617,3.75 C 360.15378,68.740419 361,69.459787 361,68.696167 z M 221,64.5 c 1.29175,-1.375 2.12363,-2.5 1.84863,-2.5 -0.275,0 -1.55688,1.125 -2.84863,2.5 -1.29175,1.375 -2.12363,2.5 -1.84863,2.5 0.275,0 1.55688,-1.125 2.84863,-2.5 z m 5,-4 c 0.68469,-0.825 1.01989,-1.5 0.74489,-1.5 -0.275,0 -1.0602,0.675 -1.74489,1.5 -0.68469,0.825 -1.01989,1.5 -0.74489,1.5 0.275,0 1.0602,-0.675 1.74489,-1.5 z m 127,1.122445 c 0,-0.207656 -0.7875,-0.995156 -1.75,-1.75 C 349.66394,58.628574 349.62857,58.663944 350.87244,60.25 352.17881,61.915748 353,62.445479 353,61.622445 z M 268.1875,41.316886 c -0.72188,-0.288871 -1.58438,-0.253344 -1.91667,0.07895 -0.33229,0.332292 0.25834,0.568641 1.3125,0.52522 1.16495,-0.04798 1.4019,-0.284941 0.60417,-0.60417 z m 42,0 c -0.72188,-0.288871 -1.58438,-0.253344 -1.91667,0.07895 -0.33229,0.332292 0.25834,0.568641 1.3125,0.52522 1.16495,-0.04798 1.4019,-0.284941 0.60417,-0.60417 z M 274.25,40.337719 c -0.6875,-0.277412 -1.8125,-0.277412 -2.5,0 -0.6875,0.277413 -0.125,0.504386 1.25,0.504386 1.375,0 1.9375,-0.226973 1.25,-0.504386 z m 31,0 c -0.6875,-0.277412 -1.8125,-0.277412 -2.5,0 -0.6875,0.277413 -0.125,0.504386 1.25,0.504386 1.375,0 1.9375,-0.226973 1.25,-0.504386 z m -12.53017,-1.073991 c -2.6291,-0.206676 -6.6791,-0.204183 -9,0.0055 -2.32091,0.209724 -0.16983,0.378823 4.78017,0.375776 4.95,-0.003 6.84892,-0.17464 4.21983,-0.381317 z"
         style="fill:#f9c700" />
      <path
         inkscape:connector-curvature="0"
         id="path2997"
         d="M 1,143.5 1,0 288.5,0 576,0 576,143.5 576,287 288.5,287 1,287 1,143.5 z m 292.46326,112.25 c -1.19924,-4.01823 -3.46346,-6.75 -5.59472,-6.75 -1.7661,0 -1.98568,0.42101 -1.43431,2.75 0.71294,3.01141 3.94839,6.25 6.24394,6.25 1.04285,0 1.26586,-0.63912 0.78509,-2.25 z m -8.59954,-28.49834 c -0.34996,-11.41341 -0.96221,-21.97499 -1.36056,-23.47017 -0.70106,-2.63138 -0.81529,-2.67144 -3.56406,-1.25 -5.55854,2.87444 -17.02691,1.03088 -27.72222,-4.45639 -8.56993,-4.39684 -12.68407,-4.42798 -17.4511,-0.1321 -3.79894,3.42346 -4.30337,2.23825 6.61235,15.53645 4.33298,5.27869 7.6971,9.77866 7.47582,9.99993 -0.96638,0.96638 -8.78406,-3.57267 -13.52272,-7.85148 -11.54574,-10.4253 -14.39157,-19.33891 -8.08123,-25.31174 4.55722,-4.31347 6.91193,-5.31793 12.43426,-5.30411 3.28401,0.008 6.2035,0.80537 9.17883,2.50625 3.91664,2.239 4.75646,2.37636 8.20732,1.34246 3.3364,-0.99961 3.7109,-1.40086 2.83501,-3.03749 -0.55507,-1.03715 -4.24836,-4.28868 -8.20732,-7.22562 -9.03739,-6.70436 -10.01026,-7.81191 -13.29153,-15.13164 C 235.00768,155.88393 228,138.83471 228,138.14753 c 0,-1.45267 7.11767,6.47697 13.72133,15.28663 11.54105,15.39641 14.0643,18.21979 19.26627,21.55788 2.66189,1.70813 6.42572,3.36305 8.36406,3.6776 3.25927,0.52891 3.4806,0.40493 2.94355,-1.64876 -0.3194,-1.22137 -4.27829,-5.91825 -8.79754,-10.4375 -6.4233,-6.42329 -8.68269,-9.46196 -10.35114,-13.9213 -1.17388,-3.13746 -3.22701,-7.86079 -4.56251,-10.49628 C 245.33423,135.75265 241.54559,113 243.7275,113 c 1.49764,0 5.0551,4.25335 6.56912,7.85413 1.40139,3.33294 1.40542,3.32361 1.94449,-4.50714 0.66509,-9.66125 5.80506,-25.728626 10.42843,-32.598929 3.20967,-4.769553 3.25394,-4.974385 1.56673,-7.249052 -0.95495,-1.287445 -4.07963,-3.76973 -6.94373,-5.516189 -2.8641,-1.746459 -5.78557,-3.871964 -6.49216,-4.723346 -3.27575,-3.947035 8.52453,2.022514 13.87005,7.01661 2.9669,2.771852 3.36286,2.876815 6.16817,1.635065 2.8384,-1.256399 2.92583,-1.466017 1.64468,-3.943483 -0.74419,-1.439103 -4.32383,-5.395551 -7.95476,-8.792108 C 260.59221,58.493337 258.58585,56 259.55912,56 c 3.0823,0 7.53538,3.490838 11.15232,8.74248 1.99175,2.891929 3.77734,5.102074 3.96798,4.911434 0.19064,-0.19064 -0.82194,-3.45326 -2.25018,-7.250266 L 269.83243,55.5 272.54371,58 c 1.49121,1.375 3.3113,3.85 4.04465,5.5 1.29143,2.905662 1.33382,2.921385 1.34805,0.5 0.008,-1.375 -0.44384,-4.489386 -1.00428,-6.920859 -0.80884,-3.509158 -0.72699,-4.712848 0.39688,-5.836725 1.59584,-1.595838 2.01519,-0.115565 3.25997,11.507584 0.46069,4.301635 1.09669,6.25 2.04019,6.25 1.69195,0 1.69464,0.194 -0.12934,-9.337968 C 280.76249,50.582855 280.72131,50 281.81716,50 c 0.93409,0 4.21499,13.254456 4.19566,16.95 -0.008,1.566879 0.33355,2.103635 0.94808,1.489096 0.5285,-0.528497 1.091,-5.41952 1.25,-10.868939 0.19016,-6.517138 0.69434,-10.042336 1.47318,-10.300456 0.86318,-0.286071 1.02578,1.141385 0.59996,5.26719 -0.43598,4.224165 -0.23458,5.875641 0.79404,6.511364 0.75799,0.468463 1.91627,2.33675 2.57396,4.151749 l 1.1958,3.299996 0.17576,-5 c 0.0967,-2.75 0.48543,-6.111188 0.86392,-7.469308 0.68747,-2.466831 0.68949,-2.466095 2.01474,0.733335 1.23639,2.984918 1.10285,5.980208 -0.57894,12.985973 -0.38488,1.603278 -0.0913,2.25 1.02127,2.25 2.25493,0 3.53917,-5.748911 2.58413,-11.567872 C 299.64775,50.627372 299.7319,49.532606 301.5,51 c 1.02199,0.848178 1.5,3.117902 1.5,7.122445 0,4.58099 0.33385,5.877555 1.51342,5.877555 1.34151,0 1.3473,0.397573 0.051,3.5 -1.26087,3.017676 -1.26552,3.5 -0.0337,3.5 C 306.41532,71 310,63.870104 310,60.121626 310,56.243273 310.91091,54 312.48576,54 c 1.2406,0 1.10093,1.557086 -1.05626,11.775436 -0.26421,1.25149 -1.39904,3.1941 -2.52185,4.316912 -1.64001,1.640014 -1.80347,2.328259 -0.83118,3.499793 1.05831,1.275184 1.42194,1.266781 2.89565,-0.06691 C 311.89907,72.686353 313.5648,72 314.67375,72 c 1.10895,0 2.80435,-0.870809 3.76754,-1.935131 2.09195,-2.311579 10.29347,-6.319948 11.86168,-5.797213 0.60954,0.203182 -2.06547,2.422498 -5.94448,4.931814 -3.879,2.509316 -8.03837,5.946593 -9.24304,7.638392 l -2.1903,3.075999 2.21372,3.377072 2.21373,3.377073 2.84921,-3.24507 C 322.53532,80.765207 329,77.124093 329,78.467511 c 0,0.199909 -2.52923,2.793987 -5.6205,5.764618 l -5.6205,5.401147 1.59654,3.087362 c 0.87809,1.698049 2.10158,6.342473 2.71886,10.320942 0.61728,3.97847 1.97638,8.63417 3.02023,10.346 1.45263,2.38222 1.89304,4.98927 1.87719,11.11242 -0.0287,11.09161 -1.14857,15.04861 -8.48318,29.97525 C 312.34826,166.97153 309.57516,176 311.87731,176 c 0.5792,0 2.67439,-1.42351 4.65596,-3.16336 4.03194,-3.54009 8.01344,-10.87056 13.19407,-24.29205 C 335.08969,134.65231 338.79612,128 341.17404,128 c 2.65611,0 -5.71856,24.09605 -13.73575,39.52126 C 323.34723,175.39253 320,182.09531 320,182.41633 c 0,1.34831 9.81391,0.39441 13.5,-1.31219 6.07234,-2.81141 9.63857,-7.1539 10.23728,-12.46566 0.71372,-6.33212 -0.3182,-10.71352 -3.71421,-15.77006 -3.3743,-5.02421 -2.51181,-7.61565 1.33261,-4.004 4.50992,4.23685 7.89783,11.94648 8.41285,19.14452 0.78263,10.93829 -2.99096,18.37021 -11.22716,22.1114 -4.86505,2.20988 -9.64107,2.3559 -15.85811,0.48485 l -4.63459,-1.39481 3.11227,4.52354 c 7.90351,11.48736 7.70266,24.38955 -0.48946,31.44206 C 316.50379,228.7639 306,233.22182 306,231.40271 c 0,-0.34947 2.53638,-3.37499 5.6364,-6.72338 5.30449,-5.72949 8.3636,-10.84899 8.3636,-13.99673 0,-2.52992 -5.43545,-9.4677 -10.67626,-13.62712 l -5.17627,-4.1082 -3.69459,3.77636 c -7.0531,7.20918 -6.90445,6.61018 -7.45288,30.03178 l -0.5,21.35313 6.5,-0.67449 c 24.04305,-2.49486 47.36525,-13.83465 64.16684,-31.19939 13.12953,-13.5696 21.69451,-28.74341 26.54583,-47.02886 2.25503,-8.4996 2.57505,-11.69424 2.57505,-25.70581 0,-13.97679 -0.32283,-17.21631 -2.553,-25.61888 -9.92866,-37.408025 -38.20782,-65.687177 -75.61584,-75.615841 -8.40257,-2.230171 -11.64209,-2.553 -25.61888,-2.553 -14.01157,0 -17.20621,0.320019 -25.70581,2.575051 -51.5,13.663475 -84.32355,61.85882 -77.85781,114.31989 1.4721,11.9442 5.65411,25.01877 11.5584,36.13602 14.66479,27.61249 43.05914,48.45547 72.50522,53.22275 4.125,0.66783 8.175,1.34648 9,1.50812 0.825,0.16164 2.85,0.34683 4.5,0.41155 l 3,0.11766 -0.63628,-20.75166 z M 268.22896,72.330706 c -1.48015,-0.595535 -4.65513,-6.33072 -3.50464,-6.330677 0.42662,1.7e-5 2.03236,1.575017 3.56831,3.5 2.68703,3.367618 2.67433,3.932302 -0.0637,2.830677 z M 294,69.45034 c 0,-0.949093 -3.13192,-6.65353 -3.45521,-6.29327 C 289.64888,64.155434 291.41577,70 292.6135,70 293.37607,70 294,69.752653 294,69.45034 z"
         style="fill:#c4a902" />
      <path
         inkscape:connector-curvature="0"
         id="path2995"
         d="M 1,143.5 1,0 288.5,0 576,0 576,143.5 576,287 288.5,287 1,287 1,143.5 z m 292.46326,112.25 c -1.19924,-4.01823 -3.46346,-6.75 -5.59472,-6.75 -1.7661,0 -1.98568,0.42101 -1.43431,2.75 0.71294,3.01141 3.94839,6.25 6.24394,6.25 1.04285,0 1.26586,-0.63912 0.78509,-2.25 z M 284.95,226.2516 c -0.3025,-11.96338 -0.92307,-22.56496 -1.37904,-23.55907 -0.57562,-1.25495 -1.32455,-1.56064 -2.45,-1 C 280.22943,202.13664 275.675,202.5 271,202.5 c -7.9374,0 -9.11616,-0.28793 -17.80922,-4.35018 -10.82824,-5.06001 -13.9809,-5.0416 -18.93139,0.11058 l -3.11278,3.2396 8.94252,10.75 c 4.91838,5.9125 8.3485,10.75 7.62247,10.75 -2.26044,0 -10.58529,-5.79327 -15.30882,-10.65342 -10.88417,-11.19899 -11.00405,-19.93821 -0.34809,-25.37448 5.28393,-2.69566 10.48274,-2.49298 16.36422,0.63797 4.40786,2.34648 5.29068,2.49391 8.74204,1.45985 2.11148,-0.63261 3.83905,-1.52978 3.83905,-1.9937 0,-1.14764 -6.55734,-6.98757 -12.22264,-10.88539 -2.55447,-1.75753 -5.50072,-4.43195 -6.54722,-5.94316 -1.93125,-2.78886 -13.24609,-28.99284 -13.23577,-30.65266 0.0114,-1.83769 4.47648,3.24047 14.10852,16.04581 10.51258,13.97598 14.5837,18.13832 20.88508,21.35304 3.92876,2.00431 9.01203,2.69733 9.01203,1.22865 0,-1.52019 -3.42085,-5.82445 -10.50871,-13.22251 -5.15747,-5.38319 -7.76623,-9.05233 -9.24302,-13 -1.13162,-3.025 -3.20943,-7.75 -4.61736,-10.5 -1.77932,-3.4754 -3.03302,-8.47623 -4.11159,-16.40047 -0.85344,-6.27027 -1.33961,-11.61257 -1.08038,-11.8718 0.25922,-0.25923 1.79213,0.84949 3.40645,2.46381 2.84201,2.84201 3.71295,5.58539 6.69769,21.09706 0.34803,1.80874 2.20379,5.34674 4.12391,7.86223 1.92012,2.51549 6.74619,9.58713 10.72459,15.71475 6.647,10.23783 12.31143,16.63442 14.73046,16.63442 2.32103,0 -1.1487,-12.32653 -5.90008,-20.96051 -4.23102,-7.68842 -4.24468,-8.04111 -1.27918,-33.03949 2.52521,-21.28678 2.81147,-22.54421 4.3255,-19 0.626,1.4654 1.11904,10.98373 1.19137,23 l 0.1234,20.5 3.25703,6.31767 c 1.79137,3.47472 4.09861,9.68539 5.1272,13.80149 2.13832,8.55683 4.27458,12.38084 6.91648,12.38084 1.45339,0 1.95844,-1.01983 2.41527,-4.87705 0.65504,-5.53079 2.95304,-10.53164 11.085,-24.12295 5.20588,-8.70082 9.66077,-19.78759 9.58556,-23.85534 -0.0271,-1.46791 -0.13921,-1.45791 -1.04283,0.0931 -1.37656,2.36275 -4.44464,3.8845 -6.35432,3.15169 -2.72058,-1.04399 -2.11678,-13.40646 1.0986,-22.49302 l 2.69061,-7.60359 -2.68083,-4.57448 c -1.47445,-2.515964 -2.66585,-5.394348 -2.64755,-6.39641 0.0294,-1.611989 0.25108,-1.560778 1.92354,0.44443 1.03965,1.246498 2.67377,4.317916 3.63137,6.825374 1.71631,4.494076 1.70315,4.690406 -0.92354,13.784456 C 312.35301,121.84163 312.14677,127 315,127 c 1.53664,0 2,-0.66667 2,-2.87756 0,-3.1762 2.48079,-6.17457 3.23853,-3.91418 0.23816,0.71046 0.74742,-1.07076 1.13168,-3.95826 0.38427,-2.8875 1.15614,-5.25 1.71526,-5.25 1.83395,0 3.91453,6.81991 3.91453,12.83139 0,9.96293 -1.77503,16.14876 -8.54858,29.7911 -4.48174,9.02648 -6.71245,14.78586 -7.14659,18.4515 l -0.63114,5.32902 3.41315,-2.14041 c 5.13667,-3.22123 9.04538,-9.62208 14.89849,-24.39755 6.1327,-15.48125 11.31834,-24.7188 11.83662,-21.08541 0.63751,4.4692 -6.0915,22.83731 -13.95924,38.10438 -4.3604,8.46121 -7.69558,15.61644 -7.41152,15.90051 0.28407,0.28406 3.50513,0.0213 7.15792,-0.58404 8.64824,-1.43306 13.93146,-4.90763 16.58557,-10.90768 2.52636,-5.71127 1.89546,-10.68476 -2.29934,-18.12612 -3.71854,-6.59647 -3.27991,-8.81 0.87098,-4.39539 5.85742,6.22954 7.46805,11.12532 7.07973,21.51999 -0.37808,10.12043 -1.49169,12.52061 -8.05622,17.36377 -2.59381,1.91365 -4.41815,2.34494 -9.91901,2.34494 -3.70734,0 -7.95733,-0.46259 -9.44441,-1.02798 -1.48708,-0.56539 -2.82991,-0.90186 -2.98406,-0.74771 -0.15414,0.15415 1.25393,2.75424 3.12905,5.77798 3.74658,6.04158 5.9685,15.30627 4.96004,20.68182 -0.83743,4.46389 -5.74139,9.88185 -11.65818,12.88011 -7.65438,3.87877 -8.68058,3.15759 -3.71638,-2.61174 5.77451,-6.71108 8.80661,-11.88182 8.82667,-15.05244 0.0227,-3.58935 -4.72771,-9.80783 -11.02209,-14.42833 l -5.27528,-3.87241 -4.49201,4.95035 C 292.26366,205.18731 292,206.32337 292,228.54748 l 0,19.61171 6.75,-0.69981 c 24.29997,-2.51929 47.54401,-13.78635 64.41684,-31.22471 13.12953,-13.5696 21.69451,-28.74341 26.54583,-47.02886 2.25503,-8.4996 2.57505,-11.69424 2.57505,-25.70581 0,-13.97679 -0.32283,-17.21631 -2.553,-25.61888 -9.92866,-37.408025 -38.20782,-65.687177 -75.61584,-75.615841 -8.40257,-2.230171 -11.64209,-2.553 -25.61888,-2.553 -14.01157,0 -17.20621,0.320019 -25.70581,2.575051 -51.5,13.663475 -84.32355,61.85882 -77.85781,114.31989 1.4721,11.9442 5.65411,25.01877 11.5584,36.13602 14.66479,27.61249 43.05914,48.45547 72.50522,53.22275 4.125,0.66783 8.175,1.34648 9,1.50812 0.825,0.16164 2.85,0.34681 4.5,0.41149 l 3,0.11761 -0.55,-21.75161 z M 293,161.64215 c 0,-1.89186 1.52805,-6.28943 3.5,-10.07266 3.93349,-7.54647 4.13444,-9.33241 1.98392,-17.63154 -1.36029,-5.24954 -1.3547,-7.16 0.0545,-18.59224 0.8638,-7.00782 1.27472,-14.56495 0.91316,-16.793605 -0.52063,-3.209189 -0.39935,-3.805079 0.58305,-2.864592 0.91572,0.876649 1.2702,7.682867 1.35415,25.999997 l 0.11371,24.81249 -2.70404,5.74001 c -1.48722,3.15701 -3.00035,7.31951 -3.36251,9.25 C 294.59831,165.9547 293,166.05453 293,161.64215 z M 268.73946,151.23481 C 265.08165,142.73863 263.69266,134 266,134 c 0.55,0 1,1.76012 1,3.91139 0,2.24592 1.4903,7.39324 3.5,12.08861 3.60326,8.41847 4.04186,10.01097 2.75,9.98481 -0.4125,-0.008 -2.44224,-3.94585 -4.51054,-8.75 z M 289.2,148.8 c -1.74209,-1.74209 -1.69418,-28.13443 0.05,-27.54233 0.91005,0.30894 1.25,3.79912 1.25,12.83334 0,6.82494 0.38564,13.19649 0.85699,14.15899 0.98633,2.01412 -0.35169,2.3553 -2.15699,0.55 z M 259.65181,126.7189 C 258.67029,114.11066 258.79191,112 260.5,112 c 1.24193,0 1.5,1.88233 1.5,10.94098 0,6.01754 -0.38438,11.17855 -0.85418,11.4689 -0.4698,0.29035 -1.1421,-3.17059 -1.49401,-7.69098 z m 58.04165,-39.831984 c 1.78034,-3.067931 7.80385,-7.907713 9.78867,-7.865024 C 328.44499,79.0426 317.33538,90 316.35153,90 c -0.25553,0 0.34834,-1.400888 1.34193,-3.113084 z M 268.77458,82.75 c -1.35454,-1.7875 -3.00946,-4.282439 -3.67759,-5.544308 -0.66813,-1.26187 -4.33828,-4.296419 -8.15589,-6.743444 -7.25613,-4.651065 -8.66529,-6.068283 -4.43431,-4.459668 8.12605,3.089522 16.39627,9.926907 19.59782,16.202472 2.51035,4.920702 0.26437,5.288249 -3.33003,0.544948 z M 276,82.181501 c 0,-1.000174 -0.72565,-4.262674 -1.61256,-7.25 -1.3308,-4.48244 -2.84204,-6.610947 -8.64887,-12.181501 -3.86997,-3.7125 -6.63182,-6.748318 -6.13744,-6.746262 2.34717,0.0098 7.6401,4.408207 11.35342,9.434742 2.2597,3.058836 4.31548,5.56152 4.5684,5.56152 0.25293,0 -0.66713,-2.994141 -2.04456,-6.653648 -1.37744,-3.659506 -2.31357,-6.844502 -2.08031,-7.077769 C 272.22717,56.439497 277,64.502441 277,66.732135 277,67.979461 277.39472,69 277.87716,69 c 0.97751,0 0.41975,-7.619076 -0.94947,-12.969892 -0.79739,-3.116151 0.15968,-6.276072 1.49611,-4.939645 0.47337,0.473369 2.26925,13.157241 3.2696,23.092296 0.66487,6.603261 -0.45339,11.00639 -1.73137,6.817241 -0.41947,-1.375 -0.80753,-4.439058 -0.86235,-6.809017 -0.0572,-2.473397 -0.5083,-4.056475 -1.0589,-3.716188 -0.55623,0.343773 -0.70554,3.309359 -0.35539,7.059017 C 278.10938,82.074237 277.94832,84 277.1446,84 276.51507,84 276,83.181676 276,82.181501 z m 33.10714,-0.355807 c 0.69218,-1.279132 1.17347,-3.505792 1.06952,-4.948133 -0.10394,-1.442342 0.49966,-3.193967 1.34134,-3.892501 1.85266,-1.537573 3.33686,-0.439924 1.66533,1.231607 C 312.5325,74.8675 312,75.761296 312,76.202881 c 0,0.441584 1.61526,-0.985014 3.58946,-3.170218 3.40654,-3.77064 13.88025,-9.896288 15.0023,-8.774241 0.28903,0.289039 -2.08837,2.115838 -5.28312,4.059552 -6.05048,3.681163 -10.25697,7.611939 -12.20937,11.409108 -0.62981,1.224895 -2.06886,2.721457 -3.19788,3.325694 -1.9214,1.0283 -1.97223,0.949767 -0.79425,-1.227082 z M 288.64185,76.25 c -0.34091,-2.0625 -0.62479,-9.2625 -0.63084,-16 -0.009,-9.748842 0.2705,-12.25 1.36776,-12.25 1.11734,0 1.18964,0.886767 0.38134,4.676649 -0.83814,3.929778 -0.73822,4.866189 0.62566,5.863481 0.8927,0.652758 2.17507,2.710765 2.8497,4.573351 l 1.22662,3.386519 1.06071,-7 c 0.95348,-6.292381 1.1838,-6.777409 2.27842,-4.798056 0.97214,1.757884 0.90037,4.174018 -0.35586,11.980771 -1.69577,10.538247 -2.41906,12.639087 -2.49055,7.233952 C 294.92996,72.0375 293.81164,68.475 292.46966,66 l -2.43996,-4.5 0.62863,9.25 c 0.40714,5.990813 0.27183,9.25 -0.38401,9.25 -0.55695,0 -1.29156,-1.6875 -1.63247,-3.75 z m 9.94202,-3 c 3.39398,-7.901744 3.58622,-9.041907 2.60373,-15.442736 -1.02761,-6.694767 -0.94549,-7.393702 0.74587,-6.348383 0.58659,0.362534 1.06653,3.584153 1.06653,7.159153 0,4.078689 0.37251,6.269777 1,5.881966 2.19469,-1.356395 0.16877,4.685429 -3.26934,9.75 -2.70628,3.986545 -4.02482,3.372356 -2.14679,-1 z m -31.30573,-2.5 c -3.1414,-4.061835 -2.67632,-4.867195 0.72186,-1.25 1.29175,1.375 1.87529,2.5 1.29676,2.5 -0.57853,0 -1.48691,-0.5625 -2.01862,-1.25 z m 40.73678,-3.05071 c 1.12935,-1.914106 2.32568,-5.779489 2.65851,-8.589741 C 311.00626,56.299297 311.6814,54 312.17373,54 c 1.36142,0 -0.18049,10.102104 -2.04828,13.419722 -0.90408,1.605847 -2.21081,3.10873 -2.90384,3.339741 -0.76118,0.253728 -0.4471,-0.957839 0.79331,-3.060173 z M 282.81747,60 c -0.81208,-4.95 -1.16211,-9 -0.77784,-9 0.7567,0 1.75895,4.460005 2.86519,12.75 1.18338,8.868162 -0.519,5.809761 -2.08735,-3.75 z"
         style="fill:#897b1c;fill-opacity:1" />
      <path
         inkscape:connector-curvature="0"
         id="path2989"
         d="m 1.15106,143.5 0,-143.5 287.5,0 287.5,0 0,143.5 0,143.5 -287.5,0 -287.5,0 0,-143.5 z m 292.46326,112.25 c -1.19924,-4.01823 -3.46346,-6.75 -5.59472,-6.75 -1.7661,0 -1.98568,0.42101 -1.43431,2.75 0.71294,3.01141 3.94839,6.25 6.24394,6.25 1.04285,0 1.26586,-0.63912 0.78509,-2.25 z m 20.74256,-11.12297 c 18.73492,-4.80525 35.60388,-14.58751 48.96103,-28.39236 13.12953,-13.5696 21.69451,-28.74341 26.54583,-47.02886 2.25503,-8.4996 2.57505,-11.69424 2.57505,-25.70581 0,-13.97679 -0.32283,-17.21631 -2.553,-25.61888 -9.92866,-37.408025 -38.20782,-65.687177 -75.61584,-75.615841 -8.40257,-2.230171 -11.64209,-2.553 -25.61889,-2.553 -14.01157,0 -17.20621,0.320019 -25.70581,2.575051 -51.5,13.663475 -84.32355,61.85882 -77.85781,114.31989 1.4721,11.9442 5.65411,25.01877 11.5584,36.13602 14.66479,27.61249 43.05914,48.45547 72.50522,53.22275 4.125,0.66783 8.175,1.37844 9,1.57914 0.825,0.20071 7.125,0.18635 14,-0.0319 8.99786,-0.28563 15.21931,-1.09427 22.20582,-2.88621 z"
         style="fill:#e70203;fill-opacity:1" />
    </g>
  </g>
</svg>
