<?xml version="1.0" encoding="utf-8"?>
<!-- Generator: Adobe Illustrator 24.1.2, SVG Export Plug-In . SVG Version: 6.00 Build 0)  -->
<svg version="1.1"
	 id="svg2" inkscape:output_extension="org.inkscape.output.svg.inkscape" inkscape:version="0.45.1" sodipodi:docbase="C:\Documents and Settings\All Users\Documents\My Pictures\inkscape\champagne flag" sodipodi:docname="Champagne_Ardenne_flag.svg" sodipodi:version="0.32" xmlns:cc="http://web.resource.org/cc/" xmlns:dc="http://purl.org/dc/elements/1.1/" xmlns:inkscape="http://www.inkscape.org/namespaces/inkscape" xmlns:rdf="http://www.w3.org/1999/02/22-rdf-syntax-ns#" xmlns:sodipodi="http://sodipodi.sourceforge.net/DTD/sodipodi-0.dtd" xmlns:svg="http://www.w3.org/2000/svg"
	 xmlns="http://www.w3.org/2000/svg" xmlns:xlink="http://www.w3.org/1999/xlink" x="0px" y="0px" viewBox="0 0 150 100"
	 style="enable-background:new 0 0 150 100;" xml:space="preserve">
<style type="text/css">
	.st0{fill:#FFFFFF;}
	.st1{fill:#FFCE08;}
	.st2{fill:#009C00;}
</style>
<g id="layer3" inkscape:groupmode="layer" inkscape:label="green heart">
	<rect id="rect11427" class="st0" width="150" height="100"/>
	<path id="rect5163" class="st1" d="M58.8,16.6c-4.4,0-8.7,1.7-12,5c-6.6,6.6-6.6,17.4,0,24l4.3,4.3l24,24l24-24l4.3-4.3
		c6.6-6.6,6.6-17.4,0-24s-17.4-6.6-24,0L75,25.8l-4.3-4.3C67.4,18.2,63.1,16.6,58.8,16.6z"/>
	<path id="rect5163_1_" class="st2" d="M91.3,83.4c4.4,0,8.7-1.7,12-5c6.6-6.6,6.6-17.4,0-24L99,50.2l-24-24l-24,24l-4.3,4.3
		c-6.6,6.6-6.6,17.4,0,24s17.4,6.6,24,0l4.3-4.3l4.3,4.3C82.6,81.8,86.9,83.4,91.3,83.4z"/>
	
		<rect id="rect11424" x="58.4" y="33.7" transform="matrix(0.7071 -0.7071 0.7071 0.7071 -18.401 63.0175)" class="st1" width="17" height="40"/>
</g>
</svg>
