<?xml version="1.0" encoding="UTF-8" standalone="no"?>
<svg viewBox="0 0 1200 800" width="1200" height="800" version="1.1" id="svg8" sodipodi:docname="ITU flag.svg" xml:space="preserve" inkscape:version="1.4.2 (f4327f4, 2025-05-13)" xmlns:inkscape="http://www.inkscape.org/namespaces/inkscape" xmlns:sodipodi="http://sodipodi.sourceforge.net/DTD/sodipodi-0.dtd" xmlns="http://www.w3.org/2000/svg" xmlns:svg="http://www.w3.org/2000/svg"><defs id="defs8" /><sodipodi:namedview id="namedview8" pagecolor="#ffffff" bordercolor="#000000" borderopacity="0.25" inkscape:showpageshadow="2" inkscape:pageopacity="0.0" inkscape:pagecheckerboard="0" inkscape:deskcolor="#d1d1d1" inkscape:zoom="0.7175" inkscape:cx="600" inkscape:cy="375.60976" inkscape:window-width="1366" inkscape:window-height="705" inkscape:window-x="-8" inkscape:window-y="-8" inkscape:window-maximized="1" inkscape:current-layer="svg8" /><path fill="#009edb" d="M0 0h1200v800H0z" id="path1" /><g fill="#ffffff" id="g4" transform="matrix(2.9196054,0,0,2.9196054,308.47743,97.631067)"><path d="m 180,181.22 c -9.98,-4.92 -21.2,-10.53 -31.55,-16.7 1.76,-1.37 3.47,-2.8 5.11,-4.31 16.06,-14.49 26.14,-35.38 26.14,-58.61 0,-16.52 -5.1,-31.86 -13.82,-44.55 C 151.55,35.78 127.25,21.77 99.73,21.77 A 79.24,79.24 0 0 0 57.33,34.01 C 50.86,24.98 44.36,15.19 37.49,4.79 39.65,9.18 46.07,22.71 53.58,36.53 36.5,48.7 24.41,67.44 21,89.02 c -0.66,4.1 -1.01,8.3 -1.01,12.58 0,12.31 2.83,23.97 7.88,34.36 12.88,26.73 40.25,45.22 71.85,45.22 16.28,0 31.43,-4.91 44.06,-13.32 12.13,5.02 24.32,9.21 36.2,13.36 M 92.24,174.3 A 73.674,73.674 0 0 1 45.39,150.83 c -1.81,-2.6 -2.91,-5.78 -3.29,-9.45 7.38,7.15 16.73,13.64 27.38,18.73 11.61,5.55 23.79,9.07 35.4,10.33 -4.13,2.89 -8.4,4.22 -12.64,3.87 M 40.35,134.67 c -0.07,0.73 -0.12,1.45 -0.15,2.16 -0.66,-0.72 -1.31,-1.44 -1.93,-2.16 H 35.9 a 72.89,72.89 0 0 0 4.28,4.8 c 0.08,2.23 0.38,4.32 0.91,6.25 C 31.72,133.46 26.16,118.18 26.16,101.6 A 72.32,72.32 0 0 1 38.35,61.33 c -0.89,3.49 -1.27,7.22 -1.14,11.15 h 1.78 c -0.21,-5.79 0.74,-11.22 2.92,-16.04 2.92,-3.68 6.18,-7.07 9.75,-10.13 a 85.04,85.04 0 0 1 5.71,-2.92 c 4.34,7.62 8.87,14.88 13.03,20.24 -0.81,0.05 -7.61,0.46 -14.04,-0.29 l 0.76,0.22 c -0.24,-0.02 -0.48,-0.04 -0.72,-0.07 1.48,3.08 3.11,6.08 4.82,8.99 h 30.3 c -1.58,-1.29 -3.14,-2.64 -4.68,-4.03 7.06,-5.71 14.4,-10.54 21.69,-14.29 2.33,2.64 5.43,5.04 9.08,6.94 4.67,2.43 9.6,3.69 14.03,3.83 0.53,2.45 0.99,4.97 1.37,7.55 h 1.81 c -0.37,-2.58 -0.83,-5.1 -1.36,-7.56 4.53,-0.19 8.39,-1.64 10.7,-4.29 3.82,3.69 7.19,7.67 10.08,11.86 h 2.16 c -3.15,-4.72 -6.9,-9.2 -11.18,-13.32 1.27,-2.22 1.55,-4.85 0.81,-7.66 -0.48,-1.79 -1.35,-3.58 -2.55,-5.31 3.55,0.69 6.55,2.08 8.86,4.16 13.08,13.19 21.16,31.29 21.16,51.25 0,9.29 -1.75,18.18 -4.94,26.35 -6.23,12.96 -21.31,20 -39.84,20.52 7.82,-1.98 14.06,-4.69 21.45,-9.37 -2.76,-1.27 -5.54,-2.66 -8.31,-4.14 -0.85,0.04 -1.72,0.07 -2.62,0.07 -15.44,0 -25.05,-6.8 -28.18,-20.24 -4.85,-3.72 -9.59,-7.59 -14.16,-11.54 v 11.25 c 6.48,5.91 12.96,11.33 19.01,16.33 -4.65,3.1 -19.72,7.68 -22.67,8.19 2.54,2.03 5.11,3.95 7.7,5.79 -6.17,-1.72 -12.42,-4.05 -18.6,-7.01 -0.6,-0.28 -1.19,-0.58 -1.78,-0.87 -0.08,-0.04 -0.17,-0.08 -0.25,-0.12 -1.1,-0.55 -2.19,-1.12 -3.26,-1.7 -7.69,-4.2 -14.35,-9.17 -19.69,-14.58 v 2.49 c 1.75,1.7 3.61,3.34 5.57,4.91 5.85,4.67 12.6,8.75 20,12.12 7.34,3.4 14.84,5.98 22.26,7.7 4.14,2.76 8.33,5.3 12.57,7.66 -0.05,0.09 -0.1,0.17 -0.15,0.26 -3.28,5.55 -6.83,9.94 -10.53,13.06 -11.71,-1.02 -24.47,-4.44 -36.87,-10.37 -11.14,-5.33 -20.84,-12.19 -28.26,-19.72 -0.01,-1.28 0.05,-2.61 0.19,-3.99 h -1.79 z m 64.03,-87.89 c 0.54,2.02 1.57,4.04 3.02,5.96 -7.36,3.82 -14.76,8.71 -21.87,14.48 C 77.46,59.73 69.99,50.98 62.6,41.18 c 0.04,-0.02 0.08,-0.03 0.12,-0.05 h 0.02 c 3.3,-1.24 6.77,-2.23 10.4,-2.94 10.4,-2.03 21.33,-1.67 32.04,0.93 -1.27,2.22 -1.55,4.85 -0.81,7.66 m 1.73,-0.46 c -0.66,-2.47 -0.37,-4.76 0.82,-6.62 0.02,-0.04 0.05,-0.07 0.08,-0.11 5.7,1.52 11.33,3.69 16.77,6.47 -1.13,0.33 -2.28,0.69 -3.45,1.09 -3.72,1.27 -7.49,2.87 -11.28,4.76 -1.42,-1.82 -2.44,-3.72 -2.93,-5.59 m 18.39,-1.9 a 87.91,87.91 0 0 0 -16.19,-6.34 c 2.2,-1.99 5.61,-3.01 9.56,-3.01 2.4,2.47 4.63,5.61 6.63,9.35 m -4.01,-9.21 c 3.68,0.38 7.66,1.56 11.48,3.55 2.73,1.42 5.16,3.17 7.15,5.08 -3.68,-0.12 -7.77,0.34 -12.18,1.39 -1.93,-3.95 -4.1,-7.3 -6.45,-10.02 m 0.42,13.63 c 1.72,-0.59 3.4,-1.09 5.04,-1.51 0.73,1.56 1.41,3.21 2.06,4.94 1.28,3.42 2.36,7.07 3.26,10.88 -4.03,-0.21 -8.52,-1.42 -12.8,-3.65 -3.25,-1.69 -6.07,-3.85 -8.23,-6.19 3.59,-1.76 7.16,-3.27 10.67,-4.47 m 8.77,2.8 a 68.96,68.96 0 0 0 -1.19,-2.99 c 5.3,3.14 10.12,6.76 14.4,10.73 -2.04,2.41 -5.59,3.69 -9.79,3.79 -0.94,-4.05 -2.07,-7.92 -3.43,-11.53 m -1.02,-4.95 c 4.5,-0.94 8.64,-1.23 12.29,-0.88 1.65,1.98 2.83,4.08 3.38,6.13 0.58,2.17 0.43,4.21 -0.43,5.93 A 86.55,86.55 0 0 0 128.66,46.69 m 4.14,-9.51 c -4.68,-2.44 -9.61,-3.69 -14.04,-3.82 -1.34,-1.33 -2.73,-2.46 -4.17,-3.38 a 73.751,73.751 0 0 1 31.95,15.08 c -1.47,-0.47 -3.04,-0.8 -4.72,-1 -2.32,-2.61 -5.4,-4.99 -9.01,-6.87 m -16.69,-3.76 c -4.12,0.32 -7.62,1.72 -9.79,4.15 -11.18,-2.82 -22.63,-3.25 -33.51,-1.13 -3.84,0.75 -7.52,1.8 -11,3.12 -0.11,0.04 -0.21,0.09 -0.32,0.13 l -0.25,-0.34 c 11.23,-6.87 24.46,-10.84 38.62,-10.84 2.19,0 4.36,0.1 6.51,0.28 3.4,0.4 6.69,1.99 9.75,4.62 m -8.57,137.27 c 2.28,0.18 4.54,0.28 6.76,0.28 1.65,0 3.28,-0.05 4.89,-0.15 a 65.3,65.3 0 0 0 6.32,-0.7 c -7.69,2.84 -15.98,4.43 -24.64,4.55 2.26,-0.92 4.48,-2.25 6.66,-3.99 m 2.04,-1.76 c 3.38,-3.14 6.61,-7.27 9.6,-12.33 l 0.18,-0.3 c 5.75,3.14 11.57,5.97 17.42,8.57 -0.4,0.23 -0.82,0.45 -1.22,0.68 -7.27,2.81 -16.2,3.96 -25.97,3.39 m 18.56,-18.66 c 2.49,-0.05 4.93,-0.21 7.33,-0.5 12.29,-1.46 22.17,-5.85 28.78,-12.65 a 73.63,73.63 0 0 1 -21.48,23.89 c -5.36,-3.43 -10.34,-7.02 -14.63,-10.74" id="path4" /></g></svg>
