<?xml version="1.0" encoding="UTF-8" standalone="no"?>
<!DOCTYPE svg PUBLIC "-//W3C//DTD SVG 1.1//EN" "http://www.w3.org/Graphics/SVG/1.1/DTD/svg11.dtd">
<svg xmlns="http://www.w3.org/2000/svg" xmlns:xlink="http://www.w3.org/1999/xlink" version="1.1" width="900" height="600" viewBox="0 0 900 600">
<desc>Created with SVGMaker Editor 3.1.0</desc>
<defs>
</defs>
<g transform="matrix(1 0 0 1 450 300)" data-editor-group="true">
<g transform="translate(0,0)" style="">
<path transform="translate(0,0)" style="fill: rgb(0,105,180); fill-rule: evenodd" stroke-linecap="round" d="M450 300L450-300-450-300-450 300 450 300ZM-161.63-102.229L0.01-151.65 161.665-102.252 161.665-87.586-0.015-137.03-161.655-87.597-161.63-102.229ZM-135.405-87.597L-0.015-128.969 135.338-87.597 96.225-87.597-0.005-116.413-96.247-87.597-135.405-87.597ZM-161.655-65.329L-161.655-78.871 161.635-78.871 161.635-65.329-161.655-65.329ZM13.898-46.879C13.898-46.879 13.9-56.704 25.078-57.039L25.077-57.044C36.255-57.38 35.924-46.884 35.924-46.884L35.924-15.03 27.106-15.03 27.106-46.884C27.106-46.884 27.112-49.934 24.732-49.934 22.36-49.934 22.691-46.884 22.691-46.884L22.691-15.007C22.691-4.515 35.877 27.189 35.901 43.808 35.92 50.728 35.926 74.447 35.926 74.447 35.926 74.447 35.929 84.607 24.735 84.607 13.564 84.607 13.899 74.447 13.899 74.447L13.899 38.866 22.694 38.866 22.694 74.447C22.694 74.447 22.691 76.822 24.907 76.993 27.106 77.157 27.108 74.447 27.108 74.447L27.108 41.744C27.108 28.024 13.898-1.968 13.898-19.76L13.898-46.879ZM-142.666 74.441L-142.666-57.039-134.203-57.045-134.203 74.115C-134.203 74.115-134.883 77.153-131.83 77.153-128.785 77.153-128.791 74.791-128.791 74.791L-128.791-57.039-120.306-57.039-120.306 74.441C-120.306 74.441-119.635 84.601-131.165 84.601-142.672 84.601-142.666 74.441-142.666 74.441ZM-89.461 84.611L-89.461-57.039-82.696-57.039-74.222 18.666-74.222-57.039-67.101-57.039-67.101 84.611-74.222 84.611-82.696-0.541-82.696 84.611-89.461 84.611ZM-35.58 84.611L-35.58-57.039-16.945-57.036-16.945-49.926-26.096-49.926-26.096 5.32-16.945 5.32-16.945 13.118-26.096 13.118-26.096 77.158-13.896 77.158-13.896 84.611-35.58 84.611ZM67.114-46.879C67.114-46.879 67.105-57.039 77.939-57.039 88.781-57.039 89.119-46.879 89.119-46.879L89.119-15.025 80.657-15.025 80.657-46.879C80.657-46.879 80.648-49.929 77.939-49.929 74.886-49.929 74.889-46.879 74.889-46.879L74.889 74.451C74.889 74.451 75.395 77.157 77.939 77.157 80.645 77.157 80.657 74.451 80.657 74.451L80.657 38.87 89.119 38.87 89.119 74.451C89.119 74.451 89.117 84.611 77.939 84.611 66.745 84.611 67.114 74.451 67.114 74.451L67.114-46.879ZM120.297-46.879C120.297-46.879 120.299-57.039 132.142-57.039 144.017-57.039 143.333-46.879 143.333-46.879L143.333 74.451C143.333 74.451 143.336 84.611 131.477 84.611 120.299 84.611 120.297 74.451 120.297 74.451L120.297-46.879ZM132.147 77.166C135.537 77.166 135.2 74.45 135.2 74.45L135.2-46.87C135.2-46.87 135.2-49.931 131.81-49.931 128.765-49.931 128.765-46.87 128.765-46.87L128.765 74.45C128.765 74.45 128.765 77.166 132.147 77.166ZM-161.658 105.575L-161.658 92.021 161.642 92.021 161.642 105.575-161.658 105.575ZM-179.959 128.611L-179.959 115.069 179.271 115.069 179.271 128.611-179.959 128.611ZM-196.895 151.659L-196.895 138.128 196.905 138.128 196.905 151.659-196.895 151.659Z"/>
<path transform="translate(0,0)" style="stroke-width: 0; fill: rgb(0,105,180)" vector-effect="non-scaling-stroke" stroke-linecap="round" d="M-137.1083-60.9475L141.7925-60.9475C178.3252-60.9475 207.9428-28.2329 207.9428 12.1264 207.9428 52.4821 178.3252 85.1967 141.7892 85.1967L-137.1083 85.1967C-173.6476 85.1967-203.2652 52.4821-203.2652 12.1264-203.2652-28.2294-173.6476-60.9475-137.1083-60.9475Z"/>
</g>
</g>
</svg>