<svg xmlns="http://www.w3.org/2000/svg" xmlns:xlink="http://www.w3.org/1999/xlink" viewBox="0 0 1200 800" width="900" height="600"><path fill="#009edb" fill-rule="evenodd" d="M0 0h1200v800H0z"/><path id="a" fill="#fff" d="M662.75 589.2c-2.694 3.079-6.18 5.956-9.466 8.608-21.233-21.943-46.16-46.262-69.854-46.262-14.69 0-25.27 11.182-37.613 19.072-17.13 10.949-40.626 17.115-60.761 9.08-10.83-4.113-21.323-10.17-29.165-20.01 15.848 10.93 39.58 12.4 57.472 4.977 19.776-8.205 39.904-19.099 62.44-19.099 33.223 0 64.797 22.473 86.947 43.635zm-245.54-69.014c21.996 25.039 57.87 16.983 87.234 23.237 4.087.87 7.926 2.227 12.313 1.554-3.49-2.214-8.118-2.463-12.15-3.982-22.783-8.583-26.335-32.967-38.804-49.748 15.926 10.587 29.12 25.082 44.012 38.703 10.364 9.48 23.277 13.537 36.67 16.262-3.218 1.176-7.428.899-10.894 1.758-24.056 5.968-50.727 15.388-76.324 6.941-16.52-5.451-33.71-18.361-42.057-34.725zm-35.258-57.95c13.72 31.063 48.191 33.496 71.111 52.552 4.358 3.624 8.679 6.959 13.466 9.191l.247-.25c-5.289-4.785-11.012-10.488-15.109-16.44-13.1-19.035-8.74-45.052-18.841-65.232 9.177 10.988 17.784 22.302 23.068 34.883 8.503 20.246 11.392 43.342 30.463 58.726-20.64-6.81-44.452-5.454-63.039-17.628-19.537-12.797-37.644-32.996-41.366-55.802zm-14.697-62.846c1.984 27.368 31.12 41.987 45.014 64.484 2.967 4.805 6.02 9.765 10.33 13.645-.672-2.913-3.07-5.495-4.39-8.354-4.455-9.653-6.472-20.823-5.36-32.31 1.354-13.975 7.18-26.953 4.944-41.655 11.975 25.848 8.112 58.162 15.033 86.11 1.531 6.183 5.296 11.594 7.616 17.45-11.766-8.951-27.185-16.896-40.1-27.076-12.49-9.845-23.332-21.384-28.967-36.399-4.06-10.819-5.117-23.724-4.12-35.895zm.814-50.426c1.405-6.108 2.48-12.43 5.138-18.033-5.031 25.817 12.144 44.466 18.008 66.802 2.21 8.417 2.966 17.36 6.37 25.215.317.17.592-.16.788-.414-8.473-23.771 3.948-45.74 16.049-64.477 3.18-4.925 4.712-10.66 6.197-16.458 1.308 10.761-.982 23.218-2.973 34.322-2.563 14.296-7.449 27.695-11.332 41.488-2.557 8.617-1.883 18.342-.571 27.37l-1.234-.984c-9.009-16.632-26.784-29.625-32.152-47.778-4.29-14.508-7.258-31.269-4.288-47.053zm9.502-27.771c0-19.537 7.607-35.474 19.018-50.024.331-.165.567-.497.994-.42-12.561 19.109-1.128 43.229-2.742 64.902l-1.657 22.244c.246.162.246.83.83.574.742-2.48.967-5.118 1.399-7.679 3.024-17.932 18.77-30.414 32.125-43.074a28.528 28.528 0 0 0 6.961-10.342c-1.11 8.933-3.602 18.09-7.612 26.208-10.279 20.81-30.132 37.608-33.703 61.257-1.731-22.665-15.613-39.514-15.613-63.646zm33.112-65.903c6.316-7.004 13.396-12.46 21.824-14.617-16.366 11.253-15.477 31.366-20.488 48.183-1.832 6.149-4.525 11.91-5.957 18.265l.415.33c2.722-7.184 7.394-14.09 13.481-19.833 11.511-10.86 28.818-17.434 34.514-33.32-.26 22.076-19.079 38.858-36.266 51.84-7.71 5.824-14.26 13.642-18.258 21.838.668-6.1.971-11.175.427-17.129-1.764-19.285-2.909-40.904 10.308-55.557zm66.428-37.117c-12.146 10.658-20.25 24.377-29.582 36.709-7.76 10.257-18.409 16.612-27.567 25.219 4.943-10.256 5.856-22.008 12.134-31.93 10.735-16.967 28.478-23.552 45.015-29.998z"/><use xlink:href="#a" width="100%" height="100%" fill="#fff" transform="matrix(-1 0 0 1 1200 0)"/><path fill="#fff" d="M693.54481,465.35179 c -24.28039,22.77132 -56.40043,35.98182 -89.8963,36.63736 v 26.45477 c 40.57372,0.0414 80.01681,-15.22511 109.6625,-43.32593 z m -187.22988,-2.19624 -17.7197,17.66978 c 10.63564,10.50935 22.90642,19.74693 36.63736,27.30332 23.40559,12.88079 48.50292,19.45285 73.32463,20.26535 v -26.40485 c -14.89359,-0.27545 -29.98317,-3.07481 -44.72353,-8.58532 -18.37999,-6.87011 -34.3963,-17.29568 -47.51876,-30.24828 z m 165.26743,-19.66638 c -18.48305,16.98146 -42.6758,26.86785 -67.93385,27.50298 v 25.10707 c 31.94278,-0.65218 62.56666,-13.21071 85.75338,-34.89035 z m -143.35489,-2.24616 -17.76962,17.7197 c 12.55544,12.39489 27.83575,22.42702 45.42234,29.00042 14.0662,5.25818 28.46339,7.86091 42.67703,8.13609 v -25.10707 c -11.28795,-0.27379 -22.72567,-2.36478 -33.89205,-6.53882 -14.09146,-5.2674 -26.35274,-13.29949 -36.4377,-23.21032 z m 122.14116,-18.96757 c -12.85097,11.41496 -29.42581,18.11011 -46.72012,18.718 v 24.15869 c 23.70458,-0.63458 46.41008,-9.9047 63.79093,-25.80588 z m -100.92743,-2.24616 -17.07082,17.07081 c 9.50973,9.33599 21.06036,16.89852 34.34129,21.86262 10.4941,3.92341 21.23578,5.91809 31.84555,6.18942 v -24.15869 c -7.79463,-0.26723 -15.70501,-1.76144 -23.40998,-4.64207 -9.93039,-3.71203 -18.56874,-9.36525 -25.70604,-16.32209 z m 76.9684,-21.66296 c -6.46176,5.19703 -14.42591,8.3011 -22.76109,8.8349 v 28.40143 c 15.87956,-0.59674 31.0822,-6.69104 42.92661,-17.12072 z m -53.1092,-2.19624 -20.06569,20.06569 c 6.60955,6.42971 14.62293,11.64073 23.80929,15.07422 7.09047,2.65048 14.33934,4.0288 21.51322,4.29266 v -28.40143 c -3.86186,-0.24554 -7.76926,-1.02111 -11.5802,-2.44582 -5.2588,-1.96539 -9.85312,-4.94015 -13.67662,-8.58532 z m 101.77599,-25.95563 c -0.33117,7.5674 -1.79807,15.23548 -4.59215,22.71117 -3.74686,10.02013 -9.4266,18.73161 -16.47184,25.90571 l 17.07081,17.0209 c 9.4003,-9.53599 17.0237,-21.14439 22.01237,-34.49103 3.83627,-10.26338 5.79944,-20.76525 6.1395,-31.14675 z m -5.39079,0 -28.40144,0.0498 c -0.29754,3.61823 -1.06234,7.26406 -2.3959,10.83148 -1.99199,5.32793 -5.02272,9.97336 -8.73506,13.82636 l 20.06569,20.06577 c 6.49869,-6.63858 11.76299,-14.70184 15.22397,-23.95903 2.5627,-6.85534 3.91462,-13.8735 4.24274,-20.81442 z m 35.43941,-0.0498 c -0.33768,11.07912 -2.44457,22.28804 -6.53882,33.24316 -5.29464,14.16319 -13.37957,26.47374 -23.36006,36.58744 l 17.76962,17.71971 c 12.44119,-12.57452 22.50897,-27.88798 29.10024,-45.52217 5.17785,-13.85305 7.79463,-28.02463 8.13609,-42.02814 z m 57.45177,-0.0498 -26.50468,0.0498 c -0.34306,14.68243 -3.10529,29.54876 -8.53541,44.07464 -6.88797,18.4257 -17.34984,34.4775 -30.34811,47.61858 l 19.71629,19.71621 c 10.34324,-10.46152 19.43124,-22.56572 26.75425,-36.18812 12.84765,-23.89724 18.90672,-49.70427 18.91766,-75.2713 z M 532.47021,369.8153 c 0.66451,15.84417 6.82021,30.9831 17.27047,42.77686 l 20.16552,-20.11561 c -5.23257,-6.41121 -8.42952,-14.30647 -9.03455,-22.61134 z m -29.54947,0 c 0.7065,23.66181 10.04107,46.31554 25.95562,63.64118 l 17.07081,-17.07081 C 534.50171,403.58479 527.75659,387.0813 527.07943,369.8153 Z m -30.94709,-0.0498 c 0.71415,31.89962 13.3088,62.46603 34.99017,85.60364 l 17.76962,-17.76962 c -17.0125,-18.44111 -26.95636,-42.59541 -27.65272,-67.83426 z m -32.24487,-0.0498 c 1.43221,39.5548 17.33874,78.11097 45.32251,107.51617 l 17.76962,-17.71971 C 480.047,435.28043 466.80128,403.21971 466.08372,369.76561 Z m 109.41293,-47.6685 c -5.18931,6.00016 -9.43967,13.00198 -12.37884,20.86433 -2.69339,7.20633 -4.06251,14.57402 -4.29266,21.86262 l 28.35153,0.0498 c 0.21349,-3.99328 1.02225,-8.03682 2.49573,-11.97952 1.4746,-3.94397 3.4801,-7.52666 5.93984,-10.68173 z m 102.02556,-2.09673 -20.11561,20.01577 c 6.23516,6.93402 9.921,15.88716 10.33233,25.25682 l 28.35153,-0.0498 c -0.44736,-16.86479 -7.09887,-32.98524 -18.56825,-45.22286 z m -122.88989,-18.8179 c -8.08783,8.93464 -14.69261,19.47651 -19.16723,31.44623 -3.96661,10.6105 -5.95398,21.4711 -6.18941,32.19496 h 24.15869 c 0.23374,-7.9081 1.71857,-15.93934 4.64206,-23.75938 3.22297,-8.62148 7.90088,-16.26889 13.6267,-22.811 z m 143.80413,-2.0465 -17.12073,17.0209 c 12.47705,13.24123 19.70918,30.77245 20.16552,49.0661 h 24.1587 c -0.47216,-24.67844 -10.25632,-48.34173 -27.20349,-66.087 z M 506.31493,279.22004 c -11.11225,11.98563 -20.1307,26.27704 -26.20519,42.52728 -5.29444,14.16511 -7.89272,28.66609 -8.13609,42.97652 h 25.10707 c 0.24323,-11.38463 2.32818,-22.92661 6.53882,-34.19154 4.77092,-12.76369 11.82081,-24.03695 20.46501,-33.54265 z m 187.67911,-1.99659 -17.76962,17.7197 c 18.01443,18.83262 28.41972,43.96918 28.90059,70.18001 h 25.10707 c -0.49229,-32.85603 -13.56519,-64.38379 -36.23804,-87.89971 z m 21.86262,-21.86262 -17.7197,17.7197 c 23.7704,24.60842 37.49105,57.63022 37.98505,92.04263 l 26.40486,-0.0499 C 761.27564,324.6161 744.84332,285.13796 715.85666,255.36083 Z M 482.40581,255.261 c -9.16088,9.76637 -17.21511,20.88349 -23.8592,33.24316 -12.99138,24.16456 -19.04459,50.32247 -18.91766,76.16977 l 26.45477,0.0498 c 0.24326,-14.99134 3.03887,-30.1827 8.58532,-45.02302 6.38182,-17.07161 15.85686,-32.05706 27.55289,-44.6237"/></svg>