<?xml version="1.0" encoding="UTF-8" standalone="no"?>
<svg viewBox="0 0 1200 800" width="1200" height="800" version="1.1" id="svg8" sodipodi:docname="WFP flag.svg" inkscape:version="1.4.2 (f4327f4, 2025-05-13)" xmlns:inkscape="http://www.inkscape.org/namespaces/inkscape" xmlns:sodipodi="http://sodipodi.sourceforge.net/DTD/sodipodi-0.dtd" xmlns="http://www.w3.org/2000/svg" xmlns:svg="http://www.w3.org/2000/svg">
  <sodipodi:namedview id="namedview8" pagecolor="#ffffff" bordercolor="#000000" borderopacity="0.25" inkscape:showpageshadow="2" inkscape:pageopacity="0.0" inkscape:pagecheckerboard="0" inkscape:deskcolor="#d1d1d1" inkscape:zoom="0.62875" inkscape:cx="600.39761" inkscape:cy="400" inkscape:window-width="1366" inkscape:window-height="705" inkscape:window-x="-8" inkscape:window-y="-8" inkscape:window-maximized="1" inkscape:current-layer="svg8" />
  <defs id="defs8" />
  <path fill="#ffffff" d="M0 0h1200v800H0z" id="path1" />
  <g inkscape:label="World_Food_Programme_Logo_Simple.svg" id="g45" transform="matrix(2.2523714,0,0,2.2523714,366.95399,124.68114)">
    <g id="key">
      <path d="m 119.1,62.2 c 1,-2.3 2.2,-4.5 3.6,-6.6 0.7,-1 1.4,-1.7 2.1,-2.7 -0.4,0 -0.7,0.1 -1,0.3 -0.7,0.5 -1,1.3 -1.5,1.7 -1.2,1 -1.2,1.9 -1.9,2.3 -0.5,0.3 -0.9,0.8 -1.2,1.3 -0.3,0.5 -0.6,1 -0.7,1.6 -0.1,0.3 -0.3,0 -0.8,0.7 -0.6,0.9 -1,1.9 -1.2,2.9 -0.1,0.3 -0.7,0.5 -1.1,1.2 -0.5,1 -0.9,2.1 -1.1,3.3 -0.1,0.3 -0.6,0.6 -1,1.5 -0.3,0.6 -0.6,1.3 -0.7,2 -0.1,0.7 -0.5,0.8 -0.9,1.9 -0.2,0.9 -0.4,1.8 -0.4,2.7 -0.2,0.4 -0.4,0.8 -0.7,1.2 -0.4,0.9 -0.6,1.8 -0.7,2.7 -0.4,0.8 -0.7,1.6 -0.9,2.5 -0.2,1 -0.2,2 -0.1,3.1 -0.4,1.7 -0.5,3.4 -0.4,5.2 0.1,0.9 0.2,1.7 0.2,2.6 -0.2,2.6 -0.3,4.8 -0.3,7.8 0,1.9 0.1,3.8 0.4,5.7 0.3,2 0.7,3.6 0.7,3.6 h 6.7 c -0.1,-2.6 -0.1,-5.3 0.1,-7.9 0.2,-2.3 0.7,-4.6 1.3,-6.8 0.6,-2.2 1.4,-4.4 2.3,-6.6 0,-0.1 0,-0.4 -0.3,-0.1 -0.7,0.5 -1.3,1.2 -1.8,1.9 -0.7,1.2 -1.4,2.4 -2,3.6 -0.8,1.5 -1.2,2.8 -2.1,4.7 0,-1.3 0.1,-2.6 0.4,-3.8 0.6,-3 1.7,-5.9 3.4,-8.6 0.7,-1 1.4,-1.9 2.3,-2.7 1,-0.9 1.9,-1.7 3,-2.6 -1.1,-0.6 -2.6,0.6 -2.9,0.7 -1.6,0.3 -2.2,1.8 -2.7,1.9 -0.6,0.3 -1.1,0.7 -1.5,1.3 -0.4,0.4 -0.5,1.1 -0.9,1.3 -0.7,0.5 -1.2,1.1 -1.5,1.8 -0.2,0.3 -0.7,2 -1.2,1.8 0.9,-5.5 2.9,-10.7 6,-15.3 1.9,-3 4.4,-5.6 7.3,-7.7 0.4,-0.3 0.5,-0.4 -0.1,-0.4 -3,0.4 -3.1,1.7 -3.6,1.8 -0.5,0.2 -1,0.6 -1.4,1 -0.7,0.7 -0.6,1.2 -0.9,1.4 -0.5,0.4 -1,0.8 -1.3,1.4 -0.2,0.3 -0.5,1.1 -0.8,1.3 -0.8,0.4 -1.4,1 -1.9,1.8 -0.2,0.5 -0.5,1.1 -0.7,1.6 -0.4,0.5 -0.9,0.9 -1.4,1.3 0.5,-2.6 1.3,-5.1 2.2,-7.5 1,-3 2.2,-6.1 3.6,-9.1 z" style="fill:#009edb" id="path11" />
      <path d="m 125.9,81.3 c 2.4,-5.3 5.2,-10.3 8.6,-14.9 0.4,-0.7 0.9,-1.3 1.2,-1.9 0.2,-0.3 1,-1.5 1.2,-1.8 1.1,-1.8 1.6,-2.3 2.8,-4 0.3,-0.4 0.6,-0.8 0.7,-1.3 0.2,-1 -0.6,-1.6 -0.8,-2.6 -0.2,-0.9 -0.1,-1.9 0.4,-2.8 0.3,-0.4 0.6,-0.9 0.8,-1.4 0.5,-1.3 0.3,-4.1 1,-4.2 -0.2,1.4 -0.2,2.8 0,4.1 0.2,1.5 1.2,2.4 1.5,4 1,-0.2 2,-0.2 3,-0.1 1,0 1.9,-0.1 2.8,-0.5 1.2,-0.4 2.1,-1.1 3.4,-1.4 -1,1 -2.5,1.3 -3.7,2.1 -0.5,0.3 -0.9,0.7 -1.1,1.1 -0.5,0.8 -0.9,1.5 -1.6,1.8 -1.4,0.6 -2.5,0.3 -4.1,0.6 -2.5,2.7 -4.6,5.7 -6.4,8.9 -5,8.5 -9.2,17.4 -11.7,26.4 0.9,-1.6 1.6,-3.1 2.6,-4.6 1,-1.7 2.2,-3.3 3.4,-4.9 2.9,-3.8 5.8,-7.2 9,-10.7 2.5,-2.8 5.4,-5.2 8.6,-7.2 4.2,-2.6 9.4,-4.5 13.9,-3.5 0.6,0.1 1.1,0.3 1.6,0.6 -5.2,-0.7 -10.5,0.9 -14.6,4.2 -3,2.4 -5.7,5 -8.1,8 -1.3,1.5 -2.5,3.2 -3.7,4.8 -1.2,1.6 -2.4,3.5 -3.4,5.3 -3.6,6 -6.5,12.5 -8.5,19.2 -0.1,0.2 -0.1,0.4 -0.1,0.6 0.1,-0.1 0.2,-0.3 0.3,-0.5 2.8,-4.5 6.1,-8.8 10.3,-11.8 0.4,-0.3 0.7,-0.7 0.9,-1.1 0.5,-1.8 -0.9,-2.6 1,-5.1 0.4,-0.6 1,-0.8 1.4,-1.3 0.8,-1.2 1.4,-3.3 2,-3.9 -0.5,1.4 -0.9,2.8 -1.3,4.3 0,1.5 0.1,3 0.3,4.5 1,0.2 1.9,0.5 2.9,0.9 1.1,0.3 2.3,0.4 3.5,0.2 0.7,-0.2 1.5,-0.3 2.2,-0.3 -1.3,0.7 -3.1,0.6 -4.4,1.2 -0.9,0.5 -1.2,1.2 -2.5,1.4 -1,0.2 -2,0.1 -2.9,-0.3 -0.4,-0.3 -1,-0.4 -1.5,-0.2 -1.3,0.7 -2.5,1.6 -3.4,2.7 -2.7,2.7 -4.9,5.9 -6.7,9.3 -0.5,1 -1,2 -1.4,3 -0.2,0.5 -0.8,1.9 -0.8,1.9 h -6.7 c 0,0 0,-1.9 0,-2.7 0.1,-1.3 0.3,-2.6 0.6,-3.9 0.4,-2.1 0.8,-3.9 1.3,-5.9 0.5,-2 1.1,-3.8 1.8,-5.7 1.3,-3.2 2.8,-7 4.4,-10.6 z" style="fill:#009edb" id="path12" />
      <path d="m 60.6,133.9 c 2.1,-1.7 4.4,-3.3 6.7,-4.6 1,-0.6 2.5,-1.3 3.7,-1.8 4.8,-2.1 10,-3.3 15.2,-3.4 h 39.9 c 1.2,0 2.4,0.4 3.3,1.2 0.8,0.8 1.2,1.9 1.4,3 0.1,0.9 0.1,1.9 -0.1,2.8 -0.1,0.7 -0.4,1.4 -0.8,2 -0.3,0.4 -0.6,0.8 -1,1.1 -0.6,0.4 -1.4,0.6 -2.1,0.6 h -0.3 -46.3 -0.4 c -3.1,0 -6.2,0.2 -9.2,0.6 -2.3,0.3 -4.6,0.7 -6.8,1.2 -2.8,0.8 -5.5,1.7 -8.2,2.8 1.4,-2.2 3.1,-3.9 5,-5.5 z" style="fill:#009edb" id="path13" />
      <path d="m 74.4,118.1 c 2.5,-1.7 5.2,-3.1 8,-4.2 1.5,-0.5 3,-1 4.5,-1.4 1.7,-0.4 3.5,-0.7 5.2,-0.8 h 34.1 c 0,0 0.7,0 1,0.1 0.5,0.1 0.9,0.3 1.4,0.5 0.6,0.4 1.1,1 1.5,1.6 0.8,1.4 1.1,3.1 0.8,4.7 -0.3,1.9 -1.7,4 -3.7,4 -0.3,0 -1,0 -1,0 H 89.4 l -3.1,0.1 c -1.8,0.1 -3.6,0.2 -5.4,0.5 -1.3,0.2 -2.7,0.5 -4,0.8 -4.5,1.2 -8.5,3.5 -12.6,5.3 2.5,-4.4 6,-8.2 10.1,-11.2 z" style="fill:#009edb" id="path14" />
      <path d="m 55.4,141.2 c 5.9,-3.5 13,-4.9 19.5,-5.1 h 0.5 51.4 c 3.1,0 4.2,3.1 4.2,5.5 0,0.7 -0.1,1.5 -0.4,2.2 -0.3,0.7 -0.6,1.3 -1.1,1.9 -0.3,0.3 -0.7,0.6 -1.2,0.8 -0.5,0.1 -1,0.2 -1.6,0.1 H 88.9 c 0,0 -2,-0.1 -3.4,-0.2 -1,-0.1 -1.8,-0.2 -2.9,-0.4 -2.4,-0.6 -4.7,-1.2 -7,-2.1 -1.5,-0.5 -3.1,-0.8 -4.7,-1.1 -3.1,-0.5 -6.3,-0.7 -9.4,-0.4 -3.8,0.3 -7.5,1 -11.1,2.2 0.6,-0.9 3.2,-2.3 5,-3.4 z" style="fill:#009edb" id="path15" />
      <path d="m 82.8,157.1 c -1.8,-0.6 -3.4,-1.4 -5,-2.4 -2,-1.3 -3,-2.4 -5.5,-3.5 -2.3,-1.2 -4.6,-2.2 -7,-3.1 -1.9,-0.7 -3.9,-1.2 -5.9,-1.6 -2.9,-0.5 -5.8,-0.7 -5.8,-0.7 0.3,-0.2 0.7,-0.4 1,-0.5 2.8,-0.9 5.7,-1.4 8.7,-1.6 2.6,-0.2 5.3,0 7.8,0.5 1.3,0.2 2.6,0.5 3.8,0.9 4,1.2 8.7,3 12.8,3 0.2,0 0.2,0 0.2,0 h 37.9 c 1.1,0 3.3,0.4 4.1,1.9 1.1,1.8 1.2,4 0.5,5.9 -0.3,0.8 -0.7,1.5 -1.3,2.1 -0.5,0.4 -1.2,0.7 -1.9,0.8 H 93.6 c -3.6,0 -7.3,-0.6 -10.8,-1.7 z" style="fill:#009edb" id="path16" />
      <path d="m 97.8,168.9 c -0.9,-1 -2.2,-2.4 -3.4,-3.8 -1.3,-1.5 -2.4,-3.2 -3.2,-5.1 h 22 c 0,1.8 -0.2,3.7 -0.5,5.5 -0.5,2.7 -1.3,5.3 -2.6,7.7 0,2.1 0.9,4.1 1,6.2 -1.9,1.1 -3.7,2.3 -5.4,3.8 -0.1,0.1 -0.3,0.1 -0.3,-0.2 -0.9,-3.3 -1.3,-6.2 -2,-9.4 -2,-1.4 -3.8,-3 -5.6,-4.7 z" style="fill:#009edb" id="path17" />
      <path d="m 120.6,167.1 c -0.5,-1.2 -1.1,-2.4 -1.8,-3.6 -0.1,0.8 0,1.3 -0.1,2.1 -0.1,0.8 -0.6,0.4 -0.7,0.1 -0.3,-0.9 -0.6,-2 -0.9,-2.9 -0.3,-0.9 -0.5,-1.9 -0.6,-2.8 h 3.7 c 0,0 0.1,0 0.2,0.4 0.2,0.9 0.1,1.8 0.4,2.9 0.3,1.3 0.8,2.6 1.3,3.9 0.4,1.1 1,2.3 1.5,3.4 0.1,0.2 0.1,0.4 0,0.6 -0.1,0.1 -0.3,0.2 -0.4,0.1 0,0 0,0 -0.1,-0.1 -1.2,-1.3 -1.9,-2.7 -2.5,-4.1 z" style="fill:#009edb" id="path18" />
      <path d="m 126.2,169.7 c -0.6,-1.3 -1.5,-2.8 -1.4,-4.3 0.4,0.5 0.6,0.9 1.1,1.2 0.3,0.1 0.8,0 0.7,-0.4 -0.2,-0.8 -0.6,-1.5 -1,-2.7 -0.5,-1.7 -1,-3.5 -1,-3.5 h -3.7 c 0.2,1.3 0.6,2.6 1.1,3.9 0.9,2.3 1.9,4.5 3.2,6.6 0.9,1.7 1.9,3.3 3.1,4.8 0.4,0.4 1.4,0.1 1,-0.6 -1.3,-1.6 -2.3,-3.3 -3.1,-5 z" style="fill:#009edb" id="path19" />
      <path d="m 150.5,43.3 c -0.8,0.3 -1.5,0.9 -1.9,1.6 -0.3,0.6 -0.5,1.4 0.1,1.9 1,0.8 2.2,0 2.6,-0.9 0.4,-1 0.5,-2.1 0.4,-3.2 0,0 -0.7,0.3 -1.2,0.6 z" style="fill:#009edb" id="path20" />
      <path d="m 151.3,48.5 c 0.5,-0.8 1.2,-1.5 2,-1.9 1,-0.6 2,-1.2 2.6,-1.6 0.6,-0.4 0.8,-0.7 0.8,-0.7 -0.3,0.1 -0.6,0.2 -0.9,0.4 -1.7,1 -3.6,2.2 -4.3,2.5 -1.1,0.4 -2.3,0.6 -3.4,0.7 -0.3,-1.1 -0.5,-2.3 -0.6,-3.4 0,-0.7 0.1,-1.3 0.3,-2 0.4,-1.9 0.4,-2.9 0.4,-2.9 -0.3,0.3 -0.4,0.7 -0.4,1.1 -0.1,0.8 -0.2,1 -0.4,1.9 -0.1,0.9 -0.4,1.8 -1,2.6 -0.9,0.9 -1.7,2.6 -1,3.8 0.4,0.7 1.1,0.6 1.3,0.8 0.2,0.2 0.3,0.6 1,0.8 1.4,0.5 2.9,-0.8 3.6,-2.1 z" style="fill:#009edb" id="path21" />
      <path d="m 149.6,52.4 c 0.4,-0.7 1,-1.3 1.7,-1.7 1.2,-0.7 2.1,-1.2 2.9,-1.6 0.3,-0.1 0.6,-0.4 0.7,-0.7 -1,0.4 -1.9,0.9 -2.8,1.4 -1.1,0.7 -2.2,1.1 -3.4,1.2 -0.3,0 -0.7,0 -1,-0.1 -0.5,0 -1.1,0 -1.6,0.1 -0.1,-0.6 -0.3,-1.1 -0.5,-1.7 -0.2,-0.4 -0.4,-0.9 -0.5,-1.4 -0.1,-0.5 -0.1,-1 -0.1,-1.5 0.2,-1.2 0.3,-2.4 0.4,-3.6 -0.8,1.6 -0.4,3.6 -1.4,4.8 -0.4,0.5 -0.7,1 -1,1.6 -0.5,1 -0.4,2.3 0.2,3.2 0.4,0.6 1.2,0.6 1.4,0.7 0.2,0.1 0.4,0.8 1.2,1 1.4,0.3 2.9,-0.4 3.8,-1.7 z" style="fill:#009edb" id="path22" />
      <path d="m 150,83.6 c 0.3,-0.7 0.6,-1.5 1,-2.2 -1,0.1 -1.1,0.2 -2.5,0.4 -0.4,0.1 -0.8,0.3 -1.1,0.5 -0.6,0.5 -1,1.2 -0.8,2 0.1,0.3 0.3,0.6 0.6,0.7 1.1,0.3 2.3,-0.3 2.8,-1.4 z" style="fill:#009edb" id="path23" />
      <path d="m 151.1,85.4 c 1.3,-0.3 2.8,-0.9 3.4,-0.7 -1.3,0.6 -2.7,1 -4.1,1.3 -1,0.4 -1.9,1 -2.7,1.8 -0.8,0.7 -2,0.9 -3,0.4 -0.4,-0.2 -0.6,-0.6 -0.7,-1 0,-0.2 -0.5,-0.5 -0.8,-0.7 -0.2,-0.3 -0.4,-0.6 -0.4,-0.9 0,-1.8 1.3,-2.6 2.7,-3.6 1,-0.8 2.3,-4.2 3.1,-4.9 -0.1,1.1 -1.6,3.2 -2.2,4.8 -0.5,1.3 -0.3,2.3 -0.6,3.6 0.9,0.1 2,0.3 3,0.3 0.7,-0.1 1.5,-0.2 2.3,-0.4 z" style="fill:#009edb" id="path24" />
      <path d="m 149.8,88.1 c -0.7,0.1 -1.6,0.4 -2.2,0.5 -2.1,0.4 -3.1,-0.6 -4.9,-0.6 0.1,-2 -0.5,-2.8 0,-4.1 0.5,-1.3 1,-2.3 1.4,-3.3 0.2,-0.4 0.4,-0.9 0.4,-1.4 0,0 -0.5,0.8 -2,3.6 -0.5,1 -1.4,1.2 -2.2,2.2 -0.8,1 -1.5,3.4 0.3,4.3 0.4,0.2 0.3,0.8 0.6,1 1.1,1.1 3.5,1 4.9,-0.3 1.1,-0.8 2.4,-1.4 3.8,-1.6 0.5,-0.1 0.9,-0.3 1.3,-0.5 -0.6,0.1 -1,0.1 -1.4,0.2 z" style="fill:#009edb" id="path25" />
      <path d="m 109.2,73.5 c 0.7,-2.3 1.1,-4.6 1.4,-6.9 0.4,-3.6 -0.6,-7.2 -2.8,-10 0.2,1.2 0.5,2.2 0.7,3.4 0.1,1.5 0,3.1 -0.4,4.6 -0.3,1.1 -0.8,2.2 -1.3,3.3 -0.7,1.3 -1.4,2.5 -2.4,3.7 -2.5,3.1 -6.3,9.1 -6.3,9.1 h -0.5 c 0,-0.8 1.7,-3.3 2.6,-4.8 2,-3.1 3.4,-4.8 5.2,-7.6 1.1,-1.7 1.8,-3.7 2.2,-5.7 0.5,-3.9 -1.5,-8.5 -4.5,-10 0.7,2.9 0.6,7 -0.9,8.7 -2.7,2.9 -5,6.2 -6.7,9.8 -0.1,0.1 -0.5,-0.6 -0.9,-0.8 -0.4,-0.3 -0.2,-1.2 -0.4,-1.8 -0.1,-0.4 -0.3,-0.7 -0.5,-1 -0.6,-0.8 -1.2,-0.8 -1.3,-1 -0.1,-0.6 -0.3,-1.1 -0.6,-1.6 -0.3,-0.4 -1,-0.6 -1.2,-1 -0.2,-0.4 -0.4,-1.5 -1.3,-2 -0.4,-0.2 -0.6,-0.9 -1,-1.2 -0.7,-0.6 -1.6,-0.9 -2.6,-0.9 -0.6,-0.5 -1.2,-0.8 -1.9,-1 -1,-0.2 -1.6,0.5 -2.1,0.3 -1.4,-0.8 -3.1,-0.4 -4,0.9 -0.4,0.5 -1.2,0 -2.1,0.7 -0.9,0.7 -0.8,1.2 -1.2,1.2 -0.7,0.2 -1.3,0.7 -1.6,1.4 -0.2,0.5 -0.3,1 -0.4,1.5 -0.2,0.5 -0.3,1.1 -0.4,1.7 0,0.7 0.2,1 0.1,1.3 -0.1,0.3 -0.4,0.8 -0.5,1.2 -0.1,0.4 0,0.8 0.1,1.2 0.2,0.4 -0.1,0.8 -0.3,1.2 -0.2,0.5 -0.3,1 -0.3,1.6 0.1,0.7 0.5,0.9 0.2,1.5 -0.8,1.2 -0.8,2.7 0,3.9 0.2,0.3 -0.4,0.9 -0.5,1.8 0.1,0.8 0.3,1.5 0.7,2.1 0,0.2 -0.3,0.1 -0.3,0.3 -2.4,-2.7 -5.1,-5.3 -7.9,-7.7 -1.8,-1.4 -3.7,-2.7 -5.7,-3.7 -5.4,-2.9 -11.7,-4.9 -17.5,-4.2 2.2,1.7 4.9,3 7.1,5 2.2,2 4,3.5 5.9,5.5 2.9,3.1 5.6,6.5 8,10 0.8,1.1 1.2,1.8 2,3 0.8,1.2 1.5,2.3 2.1,3.5 3.3,5.7 5.9,10.9 8.6,16.7 0.8,1.6 1.4,3.3 2.1,4.9 0.2,0.4 0.5,0.1 0.7,0 1,-0.6 2,-1 3,-1.5 0.8,-0.4 1.6,-0.6 2.3,-0.9 1.8,-0.6 3.6,-1.1 5.5,-1.5 3,-0.4 5.9,-0.6 8.9,-0.5 h 11.2 c -0.1,-3.1 -0.9,-6.1 -1,-9.3 -0.1,-2.5 -0.1,-5 0,-7.5 0.2,-7.2 1.1,-14.2 2.7,-20.9 z m -12.7,5.4 c 0.2,0.6 0.5,1 0.2,1.7 -0.2,0.7 -1,0.8 -1.7,1.1 -0.7,0.3 -1.7,0.5 -2.2,0 -0.5,-0.5 -0.8,-1.9 -0.1,-2.4 1,-0.8 3.3,-1.8 3.8,-0.4 z m -7.8,12.5 c -0.7,0.8 -1.9,0.8 -3.1,1.1 -0.5,0.1 -1,-0.2 -1.2,-0.7 -0.4,-0.8 -0.9,-1.8 0,-2.6 0.9,-0.8 1.6,-0.6 2.5,-0.8 0.4,-0.2 0.9,-0.2 1.3,0 0.9,0.6 1.2,1.8 0.7,2.7 -0.1,0.2 -0.1,0.2 -0.2,0.3 z m 1.5,3 c 0.3,0.8 0,1.8 -0.8,2.2 -1.1,0.4 -2.6,1 -3.4,0.4 -0.9,-0.6 -1.5,-2.6 -0.3,-3.3 1.2,-1 3.9,-1.6 4.5,0.7 z M 76.4,69 c 0.3,-0.8 1.3,-0.8 2.1,-0.7 0.7,0.2 1.1,0.9 1,1.6 0,0.1 -0.1,0.2 -0.1,0.3 -0.5,0.7 -1.6,0.6 -2.4,0.5 -0.8,-0.1 -0.9,-1.1 -0.6,-1.7 z m -0.2,-2.8 c 0,-0.2 0.2,-0.3 0.4,-0.4 0.6,-0.3 1.4,-0.3 2,0 0.4,0.3 0.5,0.9 0.1,1.3 0,0 0,0.1 -0.1,0.1 -0.6,0.5 -1.5,0.6 -2.2,0.2 -0.3,-0.3 -0.4,-0.8 -0.2,-1.2 z m 6.4,1.4 c -0.8,0.5 -1.8,0.6 -2.7,0.3 -0.6,-0.4 -0.7,-1.2 -0.3,-1.8 0.7,-0.8 1.8,-1.1 2.8,-0.7 0.7,0.3 0.9,1.1 0.6,1.8 -0.1,0.1 -0.3,0.3 -0.4,0.4 z m 1,1.3 c 0.7,0.5 0.9,1.4 0.4,2.2 -0.9,1 -2.4,1.3 -3.6,0.6 -0.6,-0.4 -0.9,-2.2 0.3,-2.6 0.9,-0.6 1.9,-0.6 2.9,-0.2 z m -6.8,2.9 c 0.9,-0.4 2.7,-0.7 3,0.6 0.4,1.8 -1.7,2.1 -2.8,1.8 -0.9,-0.3 -1,-2.1 -0.2,-2.4 z m -0.1,4 c 0.8,-0.8 2,-1.2 3.1,-0.8 0.6,0.2 0.9,0.9 0.9,1.8 0,0.4 -0.3,0.8 -0.6,0.9 -0.8,0.3 -1.6,0.5 -2.4,0.4 -0.8,-0.2 -1.3,-1 -1.1,-1.8 -0.1,-0.2 0,-0.3 0.1,-0.5 z m 0.5,3.7 c 0.9,-0.7 2,-0.9 3.1,-0.7 0.6,0.1 0.9,0.7 1,1.4 0.2,1.9 -2.3,2.2 -3.5,1.8 -0.8,-0.5 -1.1,-1.6 -0.6,-2.4 z m 3.7,-4.8 c -0.6,-1.9 1.8,-2.6 3.2,-2.2 1,0.2 1.3,2.1 0.4,2.7 -1.1,0.7 -3.1,0.9 -3.6,-0.5 z m 9.8,2.2 c -0.6,1 -2.4,1.1 -3.2,1 -0.6,-0.1 -1,-1 -1,-1.8 0,-0.3 0.1,-0.7 0.4,-0.8 0.9,-0.5 1.9,-0.8 2.9,-0.7 0.9,0.3 1.4,1.2 1.1,2 -0.1,0.1 -0.2,0.2 -0.2,0.3 z m 0.5,2 c 0.5,0.6 0.5,1.5 0.1,2.1 -0.5,0.7 -2.3,1 -3.1,0.8 -0.5,-0.1 -0.7,-0.7 -0.8,-1.1 -0.2,-0.5 -0.1,-1.1 0.3,-1.5 0.7,-0.5 1.6,-0.8 2.5,-0.6 0.3,-0.2 0.7,0 1,0.3 z M 89.8,73 c -0.6,1 -3.2,1.6 -3.8,0.6 -0.4,-0.7 -0.7,-1.7 0.1,-2.2 0.8,-0.5 1.8,-0.8 2.8,-0.6 0.8,0.2 1.3,1.2 0.9,2.2 0.1,-0.1 0,-0.1 0,0 z M 88,69.7 c -0.4,0.3 -1,0.6 -1.5,0.7 -0.8,0.2 -1.5,-0.2 -1.8,-1 0,-0.1 0,-0.1 0,-0.2 -0.2,-1.4 1.3,-1.6 2.3,-1.8 0.6,-0.1 1.2,0.3 1.3,0.9 0.1,0.6 0,1.1 -0.3,1.4 z M 82,77 c 1.1,-0.6 3.4,-1.4 3.9,0.3 0.2,0.7 0.2,1.6 -0.4,1.9 -0.9,0.5 -2.3,1 -3.3,0.3 -1,-0.7 -0.9,-2.1 -0.2,-2.5 z m 0.9,4 c 1.1,-0.8 3.3,-1.3 3.9,0.4 0.2,0.4 0.2,0.9 0,1.3 -0.6,1 -2.2,1.3 -3.2,1.1 -0.9,-0.3 -1.4,-1.2 -1.1,-2.1 0,-0.3 0.2,-0.6 0.4,-0.7 z m 0.9,4 c 0.9,-0.5 2.3,-1 3.3,-0.4 0.6,0.5 0.8,1.3 0.6,2 -0.7,1.2 -2.5,1.4 -3.6,1.1 -0.8,-0.4 -1.1,-1.5 -0.7,-2.3 0,-0.2 0.2,-0.4 0.4,-0.4 z m 4.4,-0.1 c -0.2,-0.6 -0.4,-1.4 0,-1.8 0.9,-0.7 3,-1.4 3.8,-0.3 0.5,0.8 0.3,1.8 -0.5,2.3 v 0 c -0.9,0.5 -2.7,1.1 -3.3,-0.2 z m 6.4,-10.6 c 0.4,0 0.8,0.5 1.1,1.1 0.2,0.6 0.1,1.2 -0.2,1.7 -0.5,0.4 -2.2,1.4 -3.3,0.8 -0.5,-0.4 -0.8,-0.9 -0.8,-1.6 -0.2,-1.5 2,-2.1 3.2,-2 z m -0.5,-2.5 c 0.3,0.5 0.3,1 0.1,1.5 -0.7,0.8 -1.8,1.2 -2.9,0.9 -0.7,-0.4 -0.8,-1.3 -0.4,-2 0.7,-0.8 1.7,-1.1 2.7,-0.9 0.2,0 0.3,0.3 0.5,0.5 z m -1.9,-4.1 c 0.9,0.1 1.1,1.4 0.9,1.9 -0.2,0.4 -0.5,0.7 -0.9,0.9 -0.6,0.4 -1.4,0.4 -2.1,0.2 -0.6,-0.4 -0.8,-1.2 -0.5,-1.8 0.6,-0.9 1.6,-1.4 2.6,-1.2 z m -1,-1.8 c 0.2,0.7 -0.3,1.1 -0.9,1.4 -0.6,0.3 -1.4,0.6 -1.8,0.2 -0.5,-0.4 -0.7,-1.2 -0.2,-1.7 l 0.1,-0.1 c 0.8,-0.8 2.2,-1.4 2.8,0.2 z m -2.4,-3.1 c 0.4,0 0.6,0.3 0.7,0.7 0.1,0.4 -0.1,0.8 -0.4,1.1 -0.4,0.3 -0.9,0.4 -1.4,0.5 -0.6,0 -1,-0.5 -0.9,-1.1 0,-0.1 0,-0.2 0.1,-0.3 0.4,-0.7 1.1,-1 1.9,-0.9 z m -1.5,-2 c 0.4,0.1 0.6,0.4 0.5,0.8 v 0.1 c -0.2,0.3 -0.4,0.5 -0.7,0.6 -0.6,0.4 -1.1,0.2 -1.3,-0.2 -0.4,-0.8 0.8,-1.6 1.5,-1.3 z m -0.8,4 c 0.5,0.4 0.6,1.1 0.3,1.6 v 0 c -0.5,0.5 -1.1,0.8 -1.7,0.8 -0.5,0.1 -1,-0.2 -1.2,-0.7 -0.1,-0.4 -0.1,-1 0.2,-1.3 0.5,-0.8 1.5,-0.9 2.4,-0.4 z m -1,-2.4 c 0.4,0.6 -0.2,1.2 -0.5,1.4 -0.6,0.4 -1.5,0.6 -1.9,0 -0.3,-0.5 -0.1,-1.2 0.4,-1.5 0.1,0 0.1,-0.1 0.2,-0.1 0.5,-0.3 1.2,-0.7 1.7,0.2 z m -3.4,-2 c 0.3,-0.7 1.2,-1.1 1.9,-0.8 0.2,0.1 0.4,0.3 0.5,0.6 0.1,0.5 -0.1,1 -0.5,1.2 -0.4,0.4 -1.1,0.5 -1.6,0.3 -0.5,-0.2 -0.7,-0.7 -0.5,-1.2 v -0.1 z m 0.3,3 c -0.1,0.5 -0.6,0.9 -1.1,1 -0.6,0.1 -1.4,0.2 -1.8,-0.2 -0.4,-0.3 -0.4,-0.8 -0.2,-1.2 0.5,-0.7 1.4,-1 2.3,-0.9 0.5,0.1 0.9,0.7 0.8,1.3 z m -3.7,-2.9 c 0.3,-0.8 1.2,-1.3 2,-1 v 0 c 0.5,0.3 0.7,0.9 0.4,1.3 -0.1,0.1 -0.1,0.2 -0.2,0.3 -0.3,0.3 -0.6,0.4 -1,0.5 -0.8,0.2 -1.6,-0.2 -1.2,-1.1 z m -0.5,4.3 c -0.7,0.2 -1.8,0.3 -2,-0.5 -0.4,-1.3 1.2,-1.5 2.1,-1.2 0.4,0.3 0.6,0.8 0.3,1.3 -0.1,0.2 -0.3,0.3 -0.4,0.4 z m -2.1,-3.3 c 0.1,-0.2 0.3,-0.4 0.5,-0.5 0.4,-0.1 0.8,-0.1 1.1,0 0.7,0.3 0.6,1.1 -0.1,1.4 -0.3,0.1 -0.7,0.2 -1.1,0.1 -0.4,-0.1 -0.7,-0.4 -0.6,-0.9 0,-0.1 0,-0.1 0.1,-0.2 z M 74,63 c 0.5,-0.2 1.1,-0.1 1.5,0.2 0.5,0.5 0.1,1.3 -0.8,1.3 -0.3,0 -0.6,-0.1 -0.9,-0.2 -0.3,-0.2 -0.4,-0.7 -0.2,-1.1 0.1,-0.1 0.1,-0.2 0.2,-0.2 z m -0.6,2.3 c 0.6,-0.2 1.3,-0.2 1.8,0.1 0.3,0.2 0.5,0.5 0.4,0.9 -0.1,0.4 -0.6,0.7 -1.2,0.7 -0.5,0 -1.1,0 -1.4,-0.5 -0.3,-0.4 -0.2,-1 0.2,-1.3 z m 2,2.8 c 0.3,0.1 0.4,0.4 0.5,0.6 0.1,0.7 0,1.4 -0.7,1.5 -1,0.2 -2.4,0.2 -2.4,-1.1 -0.1,-1.5 1.4,-1.5 2.6,-1 z m -2.8,3.1 c 0.9,-0.4 2.4,-0.5 3,0.4 0.4,0.6 0.3,1.7 -0.4,1.9 -0.7,0.2 -2.6,0.5 -3.1,-0.6 -0.3,-0.6 -0.1,-1.3 0.5,-1.7 z M 72,74.9 c 0.8,-0.8 1.9,-0.4 2.9,-0.3 0.2,0 0.4,0.1 0.6,0.3 0.6,0.6 0.7,1.6 0.1,2.2 l -0.1,0.1 c -0.9,0.7 -2,0.2 -3,0.2 C 72.2,77.3 72,77.1 71.8,76.8 71.5,76.2 71.6,75.5 72,74.9 Z m 0,4.4 c 0.5,-1.2 2.5,-1.2 3.5,-0.7 0.7,0.5 0.9,1.6 0.4,2.3 -0.1,0.1 -0.2,0.3 -0.4,0.4 -0.9,0.4 -1.9,0.4 -2.8,0.2 -1,-0.2 -1.1,-1.4 -0.7,-2.2 z m 0.7,5.1 c -0.4,-0.4 -0.3,-1 0.1,-1.4 0.1,-0.1 0.1,-0.1 0.2,-0.2 1,-0.4 2.1,-0.5 3.1,-0.2 0.6,0.2 0.9,1 0.8,1.9 0,0.4 -0.1,0.8 -0.3,0.9 -0.8,0.4 -1.7,0.5 -2.6,0.3 -0.7,-0.1 -0.9,-0.9 -1.3,-1.3 z m 4.1,5 C 76,88.7 75.4,87.9 75,87 c -0.2,-0.2 0,-0.3 0.1,-0.3 1.5,-0.4 2.6,0.3 2.4,2 -0.1,0.3 -0.3,1 -0.7,0.7 z m 1,-5.5 c 0.1,-0.4 0.5,-0.6 0.9,-0.7 1,-0.2 2.1,-0.6 3,0 0.4,0.2 0.4,0.5 0.4,1 0.1,0.7 0,1.3 -0.5,1.6 -0.9,0.5 -2,0.6 -3,0.4 -0.9,-0.3 -1,-1.5 -0.8,-2.3 z m 1.2,3.6 c 1.2,-0.8 3.5,-1.4 3.9,0.8 0.2,0.7 -0.2,1.5 -0.9,1.8 -0.9,0.4 -1.8,0.5 -2.8,0.3 -0.8,-0.5 -1.1,-1.5 -0.6,-2.3 0.2,-0.3 0.3,-0.5 0.4,-0.6 z m -0.3,5 c -0.1,-0.2 -0.2,-0.6 -0.1,-0.8 1,-0.6 2.2,-0.9 3.4,-0.7 1.4,0.1 1.7,1.4 1.5,2.5 -0.3,1.5 -2.5,1.7 -3.1,1.5 -0.6,-0.2 -1,-1.6 -1.7,-2.5 z m 2.7,4.4 C 81.3,96.7 81,96.1 81.2,96 c 1.8,-0.6 3.2,-0.6 3.5,1.3 0.3,1.4 -0.7,2.6 -2,2.1 -0.4,-0.2 -0.8,-1.6 -1.3,-2.5 z m 3.7,6.8 c -1,-0.8 -1.1,-2.2 -1.8,-3.2 0.7,-0.5 1.8,-0.3 2.3,0.4 0,0.1 0.1,0.1 0.1,0.2 0.3,0.8 0.5,1.9 -0.2,2.4 -0.1,0.1 -0.3,0.3 -0.4,0.2 z m 1.5,3.5 c -0.4,-0.2 -0.4,-0.8 -0.6,-1.1 -0.2,-0.4 -0.5,-0.8 -0.4,-1.3 0.8,0.5 1.2,1.5 1,2.4 z m 1.9,-2.8 c -0.1,0.6 -0.3,1.1 -0.5,1.7 -0.1,0.3 -0.3,-0.1 -0.3,-0.1 -0.4,-0.8 -0.5,-1.7 -0.3,-2.6 0.3,-0.5 0.8,-0.9 1.4,-0.9 0,0.7 -0.1,1.3 -0.3,1.9 z m 1.6,-5.7 c -0.3,0.8 -0.4,1.4 -0.7,2.1 -0.3,0.7 -1.5,0.9 -2.2,0.7 -1,-0.3 -1.8,-2.5 -0.7,-3.3 0.8,-0.5 1.8,-0.9 2.8,-0.9 0.3,0 0.6,0 0.9,0.1 0.2,0.4 0.1,0.7 -0.1,1.3 z m 1.5,-5 c -0.3,0.4 -1,-1 -1.1,-1.6 -0.3,-1.8 1.3,-2.3 2.7,-2.3 -0.2,1.4 -0.8,2.8 -1.6,3.9 z m 2.2,-5.6 c -0.4,1.1 -1.6,1.2 -2.6,1.4 -0.4,0 -0.7,0 -1,-0.3 -0.5,-0.4 -0.8,-1.1 -0.7,-1.7 0.1,-0.5 0.4,-0.9 0.9,-1.1 0.8,-0.3 1.8,-0.9 2.7,-0.4 0.6,0.5 0.9,1.4 0.7,2.1 z m 3.4,-5.3 c -0.6,1 -1.2,1.9 -1.8,2.8 -0.3,0.3 -0.9,0.3 -1.2,0 -0.1,-0.1 -0.1,-0.1 -0.1,-0.2 -0.4,-0.6 -0.9,-1.3 -0.5,-1.9 0.9,-1 2.2,-1.5 3.5,-1.3 -0.1,-0.1 0.3,0.2 0.1,0.6 z" style="fill:#009edb" id="path26" />
      <path d="m 35.1,47.7 c -1.7,1.5 -3,3.3 -4,5.2 -1,1.7 -1.6,3.5 -1.9,5.4 4.3,-1.7 7.9,-5 11.1,-8.8 2.4,-2.8 4.2,-6.4 6.6,-9.2 -4.4,1.6 -8.5,4.1 -11.8,7.4 z" style="fill:#009edb" id="path27" />
      <path d="m 22.6,53.6 c 1.7,-2.9 3.9,-5.6 6.4,-7.8 -1.1,2.5 -2.5,5 -3,8 -1,6 -1.8,10.2 -2.8,15.6 2.7,-1.9 5.6,-5 8.4,-7.1 2.2,-1.6 4.5,-2.7 6.7,-4.3 1.2,-1 2.4,-2.1 3.4,-3.3 -1.3,5.7 -6.3,11.4 -9.9,14.1 -4.5,3.4 -6.1,3.9 -13.3,11.2 -0.8,-8.9 -0.6,-18.3 4.1,-26.4 z" style="fill:#009edb" id="path28" />
      <path d="m 8,83.6 c 0.3,-4.4 0.9,-8.7 2,-13 0.8,-3.2 2.5,-8 5,-9.9 -0.3,1.3 -0.5,2.7 -0.6,4.1 -0.5,4.8 0.4,10.4 0.5,15.3 0.1,2.1 0,4.3 -0.3,6.4 -0.2,1.7 -0.2,3.5 -0.1,5.2 0.9,-1 1.7,-2.1 2.4,-3.3 1.5,-2.6 3.3,-5.1 5.3,-7.3 2.6,-2.7 5.4,-5.2 8.5,-7.3 -0.7,1.9 -1.6,3.8 -2.7,5.5 -0.9,1.6 -1.3,3 -3.4,6.5 -3,4.9 -4.3,5.6 -7.6,10.9 -0.7,1.1 -3.6,5.5 -4.3,6.8 -1.5,-3.2 -2.1,-6 -4,-11.2 C 7.9,89.5 7.6,86.6 8,83.6 Z" style="fill:#009edb" id="path29" />
      <path d="M 3.4,108 C 1.8,103.6 0.7,98.9 0.2,94.2 -0.3,90.9 0,87.6 1,84.4 c 0.3,0.7 0.8,2.5 0.9,2.7 0.6,2.2 1.3,4.4 2.2,6.5 0.9,1.9 1.9,3.7 3,5.5 1,1.9 1.8,3.9 2.6,5.9 2.3,5.7 2.5,11.1 3.4,11.7 0.5,-1.1 0.8,-2.2 0.9,-3.4 0.7,-6.4 1.5,-12.1 9.5,-19.6 0.7,2.2 0.4,6.3 -0.1,8.5 -0.7,4.1 -2,8.1 -3.9,11.8 -1.1,2.5 -2.6,6.1 -3,7.3 -1.1,3.1 -1.4,4.7 -2.1,6.6 -3.6,-6.2 -8.3,-12.8 -11,-19.9 z" style="fill:#009edb" id="path30" />
      <path d="M 9.6,137 C 7.4,134 5.6,130.8 4.2,127.4 3,124.8 2,122 1.4,119.1 0.9,117.5 0.8,115.7 1,114 c 2.1,3.8 3.5,8.1 6.3,11.2 2.2,2.5 4.3,4.6 6,6.8 2.7,3.3 4.8,6.3 7.3,9.7 0.3,-2.1 0.2,-4.1 -0.1,-6.2 -0.4,-3.5 -0.3,-7.1 0.5,-10.6 0.7,-4 1.7,-7.9 3.1,-11.7 2,3.9 2,8.4 2.5,12.5 1,8 -1.5,17.6 -2,21.6 -0.1,1.6 0,3.1 0.1,4.6 C 21.1,149 17.6,146 14.4,142.7 12.7,140.9 11.1,139 9.6,137 Z" style="fill:#009edb" id="path31" />
      <path d="m 23.8,166.4 c -1.7,-1.2 -6.3,-4.7 -8.5,-7.5 -3.2,-4 -3.9,-5.7 -6,-10.4 -0.8,-1.6 -1.3,-3.3 -1.5,-5 6.8,8.2 13,9.5 19.5,16.3 2.4,2.5 4.8,4.9 6.1,6.1 0.6,0.6 1.4,1 2.3,1.2 -0.1,-1 -0.3,-2.1 -0.8,-3 -4.3,-8.3 -5.2,-17 -4.5,-26.3 1.5,2 2.8,4.2 3.9,6.5 1,1.9 1.9,3.8 2.7,5.8 3.7,9.3 4.7,20 7,25.4 -7.1,-2.5 -12.7,-3.7 -20.2,-9.1 z" style="fill:#009edb" id="path32" />
      <path d="m 53,188.2 c -2.6,0.2 -5.1,0.1 -7.7,-0.2 -10.2,-1.6 -19.6,-9 -24.4,-17.1 3.5,2.3 7.3,4.2 11.2,5.7 3.4,1.2 6.6,1.5 12.2,3.1 3.4,1 6.8,2.3 7.9,2.8 3.8,1.4 5.4,1.1 5.4,1.1 0,0 0,-0.6 -1.4,-2.1 -2.8,-3.1 -3.8,-3.8 -6.2,-6.1 -1.3,-1.6 -2.4,-3.3 -3.4,-5.2 -2.5,-5 -2.8,-8.9 -5,-14.4 8.3,4.9 12.4,11.6 16.8,20.1 1.3,2.6 2.9,5.1 4.8,7.3 1.1,1.1 2.7,2.8 2.7,2.8 0,0 -1.2,0.3 -4.8,0.8 -1.6,0.1 -5,1.2 -8.1,1.4 z" style="fill:#009edb" id="path33" />
      <path d="m 93.2,188.9 c 4.2,0.7 8.3,1.7 12.3,3.2 1.3,0.5 2.6,1.1 3.8,1.8 2.4,1.2 4.7,2.5 6.9,4 3.9,2.7 8.1,5.6 11.9,10 0.1,0.1 0.7,0.7 0.3,1.1 -0.7,0.6 -2.6,1.4 -3.2,0.9 -3.5,-3.1 -3.3,-4.1 -7.5,-7.9 -1.5,-1.3 -3,-2.5 -4.7,-3.7 -2,-1.4 -4.1,-2.7 -6.3,-3.8 -2.1,-0.9 -4.3,-1.3 -6.6,-1.2 v 0 c -0.8,0 -5.1,-0.1 -6.2,0 -8.6,0.6 -8.2,1.4 -13.1,2.7 -4.2,1.1 -8.5,1.9 -12.8,2.5 -4.2,0.6 -8.4,0.7 -12.6,0.2 -5.7,-0.6 -11.8,-2.2 -16.5,-5.1 4.2,0.1 8.6,0.9 12.8,0.6 2.2,-0.1 4.4,-0.5 6.6,-1 3.9,-1.2 6.1,-1.6 10.2,-2.8 3.5,-0.9 7.1,-1.4 10.7,-1.7 4.7,-0.7 9.4,-0.6 14,0.2 z" style="fill:#009edb" id="path34" />
      <path d="m 171.9,47.7 c 1.7,1.5 3,3.3 4,5.2 1,1.7 1.6,3.5 1.9,5.4 -4.4,-1.7 -7.9,-5 -11.1,-8.8 -2.4,-2.8 -4.2,-6.4 -6.6,-9.2 4.4,1.6 8.5,4.1 11.8,7.4 z" style="fill:#009edb" id="path35" />
      <path d="m 184.4,53.6 c -1.7,-2.9 -3.9,-5.6 -6.4,-7.8 1.1,2.7 2.8,6.1 3,8 0.6,6 1.8,10.2 2.8,15.6 -2.7,-1.9 -5.6,-5 -8.4,-7.1 -2.2,-1.6 -4.4,-2.7 -6.7,-4.3 -1.2,-1 -2.4,-2.1 -3.4,-3.3 1.4,5.7 6.3,11.4 9.9,14.1 4.5,3.4 6.1,3.9 13.3,11.2 0.8,-8.9 0.7,-18.3 -4.1,-26.4 z" style="fill:#009edb" id="path36" />
      <path d="m 199.1,83.6 c -0.3,-4.4 -0.9,-8.7 -2,-13 -0.8,-3.2 -2.5,-8 -5,-9.9 0.3,1.3 0.5,2.7 0.6,4.1 0.5,4.8 -0.4,10.4 -0.6,15.3 -0.1,2.1 0,4.3 0.3,6.4 0.2,1.7 0.2,3.5 0.1,5.2 -0.9,-1 -1.7,-2.1 -2.4,-3.3 -2.5,-4 -3.3,-5.1 -5.3,-7.3 -2.5,-2.7 -5.4,-5.2 -8.4,-7.3 0.7,1.9 1.6,3.8 2.7,5.5 0.9,1.6 1.3,3 3.4,6.5 3,4.9 4.3,5.6 7.6,10.9 0.7,1.1 3.6,5.5 4.3,6.8 1.5,-3.2 2.1,-6 4,-11.2 0.7,-2.8 1,-5.7 0.7,-8.7 z" style="fill:#009edb" id="path37" />
      <path d="m 203.6,108 c 1.7,-4.4 2.7,-9.1 3.2,-13.8 0.4,-3.3 0.1,-6.6 -0.9,-9.8 -0.3,0.7 -0.9,2.5 -0.9,2.7 -0.6,2.2 -1.3,4.4 -2.2,6.5 -0.9,1.9 -1.9,3.7 -3,5.5 -1,1.9 -1.8,3.9 -2.6,5.9 -2.3,5.7 -2.5,11.1 -3.4,11.7 -0.5,-1.1 -0.8,-2.2 -0.9,-3.4 -0.7,-6.4 -1.5,-12.1 -9.5,-19.6 -0.7,2.2 -0.4,6.3 0.1,8.5 0.7,4.1 2,8.1 3.9,11.8 1.1,2.5 2.6,6.1 3,7.3 1.1,3.1 1.4,4.7 2.1,6.6 3.7,-6.2 8.4,-12.8 11.1,-19.9 z" style="fill:#009edb" id="path38" />
      <path d="m 197.4,137 c 2.2,-3 4,-6.2 5.4,-9.6 1.3,-2.6 2.2,-5.4 2.8,-8.3 0.5,-1.6 0.6,-3.4 0.4,-5.1 -2.1,3.8 -3.6,8.1 -6.3,11.2 -2.2,2.5 -4.3,4.6 -6,6.8 -2.7,3.3 -4.8,6.3 -7.3,9.7 -0.3,-2.1 -0.2,-4.1 0.1,-6.2 0.4,-3.5 0.3,-7.1 -0.5,-10.6 -0.7,-4 -1.7,-7.9 -3.1,-11.7 -2,3.9 -2,8.4 -2.5,12.5 -1,8 1.6,17.6 2,21.6 0.1,1.6 0,3.1 -0.1,4.6 3.6,-2.9 7.1,-5.9 10.3,-9.2 1.7,-1.8 3.3,-3.7 4.8,-5.7 z" style="fill:#009edb" id="path39" />
      <path d="m 183.2,166.4 c 1.7,-1.2 6.3,-4.7 8.5,-7.5 3.2,-4 3.9,-5.7 5.9,-10.4 0.8,-1.6 1.3,-3.3 1.5,-5 -6.8,8.2 -13,9.5 -19.5,16.3 -2.4,2.5 -4.8,4.9 -6.1,6.1 -0.6,0.6 -1.4,1 -2.2,1.2 0.1,-1 0.3,-2.1 0.8,-3 4.4,-8.3 5.2,-17 4.5,-26.3 -1.5,2 -2.8,4.2 -3.9,6.5 -1,1.9 -1.9,3.8 -2.7,5.8 -3.7,9.3 -4.7,20 -7,25.4 7.1,-2.5 12.7,-3.7 20.2,-9.1 z" style="fill:#009edb" id="path40" />
      <path d="m 154.1,188.2 c 2.6,0.2 5.1,0.1 7.7,-0.2 10.2,-1.6 19.6,-9 24.4,-17.1 -3.5,2.3 -7.3,4.2 -11.2,5.7 -3.4,1.2 -6.6,1.5 -12.2,3.1 -3.4,1 -6.8,2.3 -7.9,2.8 -3.8,1.4 -5.4,1.1 -5.4,1.1 0,0 0,-0.6 1.4,-2.1 2.8,-3.1 3.8,-3.8 6.1,-6.1 1.3,-1.6 2.4,-3.3 3.4,-5.2 2.5,-5 2.8,-8.9 5.1,-14.4 -8.3,4.9 -12.4,11.6 -16.8,20.1 -1.3,2.6 -2.9,5.1 -4.9,7.3 -1.1,1.1 -2.7,2.8 -2.7,2.8 0,0 1.2,0.3 4.8,0.8 1.5,0.1 5,1.2 8.2,1.4 z" style="fill:#009edb" id="path41" />
      <path d="m 113.8,188.9 c -4.2,0.7 -8.3,1.7 -12.2,3.2 -1.3,0.5 -2.6,1.1 -3.8,1.8 -2.4,1.2 -4.7,2.5 -6.9,4 -3.9,2.7 -8.1,5.6 -11.9,10 -0.1,0.1 -0.7,0.7 -0.3,1.1 0.7,0.6 2.6,1.4 3.2,0.9 3.5,-3.1 3.3,-4.1 7.5,-7.9 1.5,-1.3 3,-2.5 4.7,-3.7 2,-1.4 4.1,-2.7 6.3,-3.8 2.1,-0.8 4.3,-1.3 6.6,-1.2 v 0 c 0.8,0 5.1,-0.1 6.1,0 8.6,0.6 8.2,1.4 13.1,2.7 4.2,1.1 8.5,1.9 12.8,2.5 4.2,0.6 8.4,0.7 12.6,0.2 5.6,-0.6 11.8,-2.2 16.4,-5.1 -4.2,0.1 -8.6,0.9 -12.8,0.6 -2.2,-0.1 -4.4,-0.5 -6.6,-1 -3.9,-1.2 -6.1,-1.6 -10.2,-2.8 -3.5,-0.9 -7.1,-1.4 -10.7,-1.7 -4.5,-0.7 -9.3,-0.6 -13.9,0.2 z" style="fill:#009edb" id="path42" />
      <path d="M 98.4,0 90.7,28.7 H 82.5 L 77.3,10 72.3,28.7 H 64.1 L 56.4,0 h 7.7 L 68.5,19.8 73.8,0 h 7.4 l 5,19.8 L 90.8,0 Z" style="fill:#009edb" id="path43" />
      <path d="m 123.8,5.5 h -13.2 v 5.3 h 12.2 v 5.5 h -12.2 v 12.3 h -7.4 V 0 h 20.6 z" style="fill:#009edb" id="path44" />
      <path d="m 152.6,9.1 c 0,1.3 -0.2,2.6 -0.7,3.8 -0.4,1.2 -1.1,2.2 -1.9,3.1 -1.1,1.1 -2.4,2 -3.8,2.6 -1.7,0.6 -3.5,0.9 -5.2,0.9 h -4.6 v 9.3 H 129 V 0 h 12.2 c 1.6,0 3.1,0.1 4.6,0.5 1.2,0.3 2.3,0.8 3.3,1.4 1.1,0.7 2,1.7 2.6,2.9 0.7,1.3 1,2.8 0.9,4.3 z M 145,9.2 c 0,-0.7 -0.2,-1.5 -0.6,-2.1 -0.4,-0.5 -0.9,-1 -1.5,-1.2 -0.7,-0.3 -1.5,-0.5 -2.3,-0.5 -0.7,0 -1.7,0 -2.9,0 h -1.3 V 14 h 2.1 c 1,0 2.1,-0.1 3.1,-0.2 0.8,-0.1 1.5,-0.5 2.1,-0.9 0.5,-0.4 0.8,-0.9 1,-1.5 0.2,-0.8 0.3,-1.5 0.3,-2.2 z" style="fill:#009edb" id="path45" />
    </g>
  </g>
</svg>
