<?xml version="1.0" encoding="UTF-8"?>
<svg width="600" height="664"  xmlns="http://www.w3.org/2000/svg">
<path d="M0 0h600v664H0z"/>
<path d="M147.5 0H295v296.36H147.5z"/>
<path d="M147.5 0v296.36H295V0zM0 302.61V664h600V302.61z" fill="#fff" />
<path d="M295 302.61H0V664h600V302.61H302.5z" fill="#fff"/>
<path d="M313.75 338.88c-2.5 0-8.75 1.251-10 1.251-2.5 0-7.5 2.5-8.75 5.001 0 2.501 1.249 2.5 3.749 2.5h2.501c-1.25-1.25-3.75-2.498-1.25-3.749 3.75-2.5 13.75-2.503 13.75-2.503 1.25-1.25 1.25-2.5 0-2.5zm12.5 2.5c-1.25 0-1.25.001-2.5 1.252 2.5 1.25 3.75 1.25 6.25 2.5 1.25 1.25 2.5 1.25 2.5 2.5 1.25-1.25-3.75-6.252-6.25-6.252zm-93.75 6.253c-3.75 1.25-5 5.003-3.75 8.755 0 2.5 2.5 5.001 5 6.252 6.25 3.751 13.749 3.75 19.999 2.5 3.75-1.25 7.501-1.25 8.751 1.251h18.75c-3.75-6.252-8.75-7.503-13.75-7.503-5-1.25-11.25-.001-16.25-1.251-6.25-1.25-15-1.251-18.75-10.004z" fill="#ed1c24"/>
<path d="M318.75 310.12c2.5 8.753 1.25 12.503-8.75 13.754-10 1.25-11.25 3.752-15 5.002s-16.25 2.502-22.5 3.752-7.5 3.752-8.75 8.754c0 1.25 6.25 0 8.75 0 1.25 0 3.75 1.25 3.75 2.5 0 2.5-2.5 2.502-3.75 2.502h-10c-3.75-1.25-3.75 2.5-3.75 5.002 0 2.5 1.25 2.5 3.75 2.5h16.25c3.75 0 6.25 2.5 6.25 6.252 0 2.5-2.5 5.002-5 5.002-1.25 0-16.25 1.251-17.5 2.502-2.5 0-3.75 1.25-3.75 2.5s2.5 2.501 5 3.752c3.75 1.25 3.75 3.75 2.5 6.252-3.75 6.252-7.5 10.003-15 11.254-5 1.25-7.5 3.751 6.25 5.002 11.25 1.25 18.75-5.002 25-15.006 2.5-5.002 7.5-7.501 16.25-3.75 6.25 2.5 11.25 3.752 25-1.25v1.25c-10 7.503-21.25 7.501-31.25 3.75-2.5 3.751-2.5 7.504-6.25 11.256-13.75 10.004-56.25 15.005-73.75 53.77-3.75 6.252-2.5 7.502 3.75 7.502 6.25 1.25 10 2.502 13.75 7.504-3.75 0-7.5 0-11.25-1.25-6.25-1.25-12.5-2.501-18.75-5.002-8.75-3.752-17.5-5.003-27.5-3.752-3.75 1.25-8.75 0-13.75 0-13.75-1.25-27.5-3.752-41.25-5.002-7.5-1.25-15 0-21.25 3.752-3.75 2.5-5 5 1.25 12.504 5 5.002 13.75 7.503 20 5.002s11.25 0 12.5 6.252c0 2.5 2.5 3.752 6.25 2.502 5-1.25 8.75-2.502 12.5-3.752 11.25-2.501 21.25-1.251 32.5 1.25 22.5 5.002 42.5 15.006 61.25 30.012 2.5 2.5 5 2.5 7.5 0 8.75-8.753 27.5-13.756 57.5-13.756 1.25 5.002 1.25 7.504 2.5 12.506-45 7.503-61.25 28.76-63.75 33.762-3.75 8.753-18.75 15.006-33.75 10.004 5 15.006 26.25 11.255 37.5 3.752-1.25 7.503-6.25 8.753-11.25 10.004s-10 1.25-15 2.5c2.5 3.751 10 6.252 16.25 5.002s11.25-3.751 17.5-6.252c-3.75 7.503-11.25 8.753-18.75 11.254 5 3.751 10 2.502 15 1.252 5-1.25 8.75-5.003 12.5-7.504 1.25 3.751-1.25 6.253-3.75 7.504-7.5 3.751-15 7.503-22.5 10.004-16.25 5.002-32.5 8.753-45 21.258-2.5 2.5-3.75 5 0 7.502 1.123 1.123 2.78 2.232 4.572 3.242a128.03 128.03 0 0 0-7.072-1.992c-7.5 10.004-20 28.76-20 30.012 0 2.5 11.25 1.25 16.25-1.25 8.75-3.752 16.25-8.755 20-17.508.788-3.155.577-4.813-.623-5.924 3.09.37 6.043-.747 8.123-2.828 3.75-3.752 7.5-3.752 12.5 0 1.25 2.5 5 1.25 6.25-1.25 8.75-13.755 21.25-21.258 36.25-25.01l11.25-3.752c10-5.002 31.25-13.756 31.25-18.758 0-2.501-3.75-3.752-7.5-5.002C280 550.21 325 520.2 345 517.7c1.25 1.25-6.25 8.752-1.25 23.758 2.5 6.252 10 8.753 15 5.002 3.75-2.501 5-7.503 2.5-10.004-5-6.253-6.25-12.503-6.25-20.006 0-13.755-23.75-15.006-30-15.006 0-1.25 1.25-5.003 1.25-7.504 13.75 2.5 25 7.503 28.75 13.756 2.5 5.002 5 22.508 12.5 32.512 6.25 10.004 11.25 10.005 15 18.758 5 10.004 6.25 17.506 0 26.26-1.25 1.25-1.25 2.5-2.5 3.75 15-2.5 15-13.754 16.25-25.008 5 8.753 3.75 15.005 0 23.758 6.25-1.25 10-5.002 11.25-10.004s1.25-10.004 2.5-15.006c1.25 3.751 3.75 6.253 3.75 10.004 1.25 2.501 0 6.253-1.25 10.004 10-2.5 8.75-12.505 11.25-20.008 5 1.25 13.75 8.754 17.5 18.758 5 16.256-17.5 25.009-17.5 26.26 0 1.25 2.5 3.752 6.25 5.002s10 2.502 15 3.752c1.25 0 3.75-1.252 3.75-2.502 3.75-8.753 6.25-11.254 16.25-10.004 2.5 0 3.75-1.25 5-3.75 1.25-6.252 1.25-11.254-2.5-15.006-6.25-8.753-16.25-17.506-22.5-26.26-2.5-3.751-1.25-11.254-3.75-16.256-2.5-5.002-6.25-8.754-8.75-12.506s-3.75-3.75-7.5-1.25c-6.25 5.002-8.75 5.002-13.75 0-3.75-3.751-15-31.261-26.25-37.514 5-2.501 6.25-2.501 11.25 0 6.25 3.751 13.75 8.752 22.5 7.502 7.5 0 13.75-2.502 17.5-8.754-8.75 1.25-13.75 2.501-20 0 0-2.5 28.75-2.5 31.25-26.26-8.75 10.004-20 11.254-31.25 10.004-11.25 0-22.5.002-32.5 6.254-11.25-16.256-22.5-22.51-38.75-27.512-18.75-6.252-25-15.005-22.5-16.256s13.75 1.25 16.25-6.252c0 0-6.25-1.251-8.75-2.502-1.25 0-3.75-2.5-2.5-3.75s3.75-1.252 5-1.252c7.5 1.25 12.5-1.25 15-6.252-3.75 0-6.25-1.25-10-2.5-1.25-1.25-2.5-2.501-2.5-3.752s2.5-1.25 3.75-1.25c7.5 1.25 13.75-1.251 17.5-8.754-3.75 0-7.5-1.25-11.25-2.5-5-2.5-1.25-5.003 0-7.504 1.25-1.25 2.5-2.5 5-1.25 5 2.501 10 5.002 15 5.002 6.25 0 23.75 0 25-3.752 1.25-8.753-16.25-8.753-22.5-10.004-5-1.25-11.25-2.5-16.25-3.75v-1.252c1.25 0 40 3.753 60 12.506 21.25 10.004 42.5 22.508 52.5 42.516 13.75 28.761-3.75 38.765-3.75 40.016 2.5 5.002 36.25-12.506 17.5-55.02-2.5 0-8.75 2.5-8.75 2.5s5-5.002 6.25-7.503c3.75-5.002 1.25-11.254-2.5-11.254-7.5 0-12.5-7.502-16.25-11.254-6.25-3.751-12.5 6.252-12.5 6.252s6.25-12.505 1.25-18.758c-2.5-1.25-5-2.5-8.75 0-1.25 0-11.25-5.001-15-6.252S410 376.397 410 376.397s1.25-10.004 1.25-13.756c0-5.002-6.25-7.503-10-5.002-3.75 1.25-11.25 0-15-1.25-5-1.25-10 10.004-10 10.004s0-10.004-1.25-13.756c-1.25-5.002-5-6.253-8.75-3.752s-11.25 1.25-16.25 1.25c-2.5 0-2.5-3.75-2.5-6.252s2.5-2.5 3.75-2.5c93.75-2.5 152.5 47.518 138.75 78.78 15 0 21.25-36.265-2.5-57.522-1.25 2.501-6.25 7.502-7.5 7.502l-1.25-1.25c1.25-1.25 1.25-2.5 2.5-5.002 1.25-2.5 2.5-5 2.5-7.502 0-6.252-2.5-8.754-8.75-8.754-2.5 0-5 0-6.25-1.25-5-1.25-8.75-3.75-13.75-6.252-5-3.751-6.25 6.251-8.75 8.752-1.25-2.5 0-8.753 0-11.254 0-5.002-3.75-7.502-8.75-6.252h-5c-7.5-2.5-13.75-3.75-21.25-6.252-1.25 5.002-2.5 7.503-3.75 11.254h-1.25c0-3.751 2.5-20.007-7.5-16.256-5 1.25-18.75 0-22.5 0-2.5 0-3.75 1.25-3.75 3.75 0 3.752-3.75 11.254-3.75 10.004-3.75-21.258-8.75-18.757-15-15.006-3.75 1.25-8.75 1.252-10 1.252s-2.5-2.501-2.5-3.752c-2.5-3.751-6.25-6.252-10-6.252 2.5 6.253 1.25 8.753-2.5 11.254-2.5-10.004-5-11.254-10-11.254zM315 338.88c1.25 1.25 0 2.502 0 3.752 0 5.002 6.25 5.002 7.5 3.752s1.25-5.002 3.75-5.002 7.5 5.002 7.5 6.252c-2.5 6.252-10 6.252-16.25 6.252-3.75 0-7.5-3.752-10-5.002s-3.75-1.25-7.5-1.25c-2.5 0-3.75 0-3.75-2.5 1.25-2.501 6.25-5.002 8.75-5.002 1.25 0 7.5-1.252 10-1.252zm-210.87 33.471c-4.41-.274-5.229 2.324-4.135 7.795 2.5 5.002 3.75 8.754 6.25 13.756 1.25 2.5 2.5 3.75 6.25 2.5 5-1.25 12.5 2.502 13.75 7.504 1.25 3.751 3.75 5.002 7.5 3.752s6.25-3.752 10-3.752c10 1.25 20 1.25 30 6.252 15 7.503 32.5 25.01 36.25 28.762l15-18.758c-7.5-2.501-13.75-7.503-18.75-15.006-7.5-8.754-16.25-13.755-28.75-11.254-1.25 1.25-2.5 0-3.75 0-6.25-1.25-42.5-18.757-67.5-21.258a15.906 15.906 0 0 0-2.115-.293zm-35.385 1.543s-2.5 0 0 1.25c0 1.25 2.5 3.752 3.75 3.752h21.25c1.25 0 2.5-1.25 2.5-1.25s-1.25-2.502-2.5-2.502c-3.75-1.25-7.5-1.25-7.5-1.25h-17.5zm21.25 10.004c-6.25 0-23.75 1.25-23.75 1.25s1.25 2.501 5 5.002c5 5.002 11.25 8.753 18.75 11.254 2.5 1.25 6.25 1.252 10 1.252 3.75-1.25 5-3.752 2.5-7.504 0-1.25-2.5-2.5-2.5-5.002-1.25-5.002-3.75-6.252-10-6.252zm-2.5 68.775c-10 2.5-18.75 6.253-28.75 10.004 3.75 3.751 7.5 5.003 12.5 2.502 3.75-1.25 8.75-3.751 13.75-5.002 3.75-1.25 5-2.502 2.5-7.504zm.625 9.496a4.81 4.81 0 0 0-1.875.508c-3.75 2.5-21.25 10.004-22.5 10.004 12.5 5.002 26.25 8.753 38.75 5.002 2.5 0 3.75-1.251 6.25-3.752v-3.75c0-1.25-2.5-.002-3.75-1.252s-7.5-2.501-11.25-5.002c-1.875-.938-3.75-1.875-5.625-1.758zm96.875 144.31s-22.5 31.261-22.5 32.512c0 1.25 7.5 0 8.75-1.25 6.25-8.753 17.5-26.26 17.5-26.26l-3.75-5.002zm233.61 2.91c-.645-.02-1.426.217-2.363.842-1.25 0-15 27.51-13.75 28.76s5 1.252 7.5-2.5 7.5-16.257 11.25-23.76c0-.938-.703-3.283-2.637-3.342zm8.477 4.104c-1.465-.059-2.403 1.114-3.34 2.99 0 2.5-12.5 26.259-11.25 27.51s8.75-2.502 12.5-3.752 13.75-8.753 17.5-16.256c1.25-2.5 1.25-5.001-2.5-6.252l-11.25-3.752c-.625-.313-1.172-.469-1.66-.488zM302.5 0h296.25v296.36H302.5z"/>
<path d="M302.5 0v108.79h108.75V0zM455 0v142.55h145v-27.512H481.25V-.002zM302.5 151.31v27.512h116.25v116.29h28.75v-143.81zm186.25 35.013v108.79H600v-108.79z"  fill="#0068b3" />
<path d="M418.75 0v115.04H302.5v27.512h145V.002zm70.002 0v107.54h111.25V0zm-33.751 151.31v143.81h26.25V178.83h118.75v-27.512zm-152.5 35.013v108.79h108.75v-108.79z" fill="#fddd04"/>
<path d="m320.34 496.69c0 2.5-1.25 5.002-3.75 5.002-1.25 0-3.75-2.501-3.75-5.002 0-3.751 1.25-5.002 3.75-5.002s3.75 1.25 3.75 5.002z" fill="#ed1c24"/>
</svg>
