<svg height="500" viewBox="-45 -30 90 60" width="750" xmlns="http://www.w3.org/2000/svg" xmlns:xlink="http://www.w3.org/1999/xlink"><rect fill="#fff" height="100%" width="100%" x="-50%" y="-50%"/><path d="m-45-30h41v15.82608h-41z" stroke-width="1.247217"/><g transform="matrix(.29710175 0 0 .2826072 -24.49998 -19.826064)"><g id="a"><path id="b" d="m-30 0 30-5.742v11.484z" fill="#fcd116"/><use height="100%" transform="matrix(.92387953 .38268343 -.38268343 .92387953 0 0)" width="100%" xlink:href="#b"/><use height="100%" transform="matrix(.70710678 .70710678 -.70710678 .70710678 0 0)" width="100%" xlink:href="#b"/></g><use height="100%" transform="matrix(.38268343 .92387953 -.92387953 .38268343 0 0)" width="100%" xlink:href="#a"/><use height="100%" transform="matrix(-.70710678 .70710678 -.70710678 -.70710678 0 0)" width="100%" xlink:href="#a"/></g><path d="m-45-19.826064h41.0000402v5.652144h-41.0000402z" fill="#0072c6" stroke-width=".289764"/><path d="m-45-30v27h42v-27h-1l-20.5 26z" fill="#ce1126"/><path d="m-45 0h90m-45-30v60" fill="none" stroke="#ce1126" stroke-width="8"/></svg>