<svg xmlns="http://www.w3.org/2000/svg" viewBox="0 0 750 500" fill-rule="evenodd" xmlns:v="https://vecta.io/nano"><path d="M0,0h750v500H0V0z" fill="#f3dd6d"/><path d="M65,435h620V65H65V435z" fill="#008755"/><path d="M327 457.5s14.5-33.7 14.5-51.9c0-36.4-28.9-67.4-28.9-103.8s28.9-67.4 28.9-103.8-28.9-67.4-28.9-103.8c0-18.2 14.5-51.9 14.5-51.9H423S408.5 76 408.5 94.2c0 36.4 28.9 67.4 28.9 103.8s-28.9 67.4-28.9 103.8 28.9 67.4 28.9 103.8c0 18.2-14.5 51.9-14.5 51.9H327z" fill="#33669a" stroke="#f3dd6d" stroke-width="20"/><path d="M42.5 42.5v415h665v-415h-665zM65 65h620v370H65V65z" fill="#fff"/></svg>