<?xml version="1.0" encoding="UTF-8" standalone="no"?>
<!-- Created with Inkscape (http://www.inkscape.org/) -->

<svg
   xmlns:dc="http://purl.org/dc/elements/1.1/"
   xmlns:cc="http://creativecommons.org/ns#"
   xmlns:rdf="http://www.w3.org/1999/02/22-rdf-syntax-ns#"
   xmlns:svg="http://www.w3.org/2000/svg"
   xmlns="http://www.w3.org/2000/svg"
   xmlns:sodipodi="http://sodipodi.sourceforge.net/DTD/sodipodi-0.dtd"
   xmlns:inkscape="http://www.inkscape.org/namespaces/inkscape"
   width="750"
   height="525"
   id="svg2209"
   sodipodi:version="0.32"
   inkscape:version="0.48.1 "
   version="1.0"
   sodipodi:docname="Escaldes-Engordany.svg"
   inkscape:output_extension="org.inkscape.output.svg.inkscape">
  <defs
     id="defs2211" />
  <sodipodi:namedview
     id="base"
     pagecolor="#ffffff"
     bordercolor="#666666"
     borderopacity="1.0"
     inkscape:pageopacity="0.0"
     inkscape:pageshadow="2"
     inkscape:zoom="0.90651089"
     inkscape:cx="374.99999"
     inkscape:cy="250.00002"
     inkscape:document-units="px"
     inkscape:current-layer="layer1"
     showborder="false"
     inkscape:showpageshadow="false"
     inkscape:window-width="1440"
     inkscape:window-height="840"
     inkscape:window-x="-4"
     inkscape:window-y="-4"
     showgrid="false"
     fit-margin-top="0"
     fit-margin-left="0"
     fit-margin-right="0"
     fit-margin-bottom="0"
     inkscape:window-maximized="0"
     inkscape:snap-bbox="true"
     inkscape:bbox-nodes="true" />
  <metadata
     id="metadata2214">
    <rdf:RDF>
      <cc:Work
         rdf:about="">
        <dc:format>image/svg+xml</dc:format>
        <dc:type
           rdf:resource="http://purl.org/dc/dcmitype/StillImage" />
      </cc:Work>
    </rdf:RDF>
  </metadata>
  <g
     inkscape:label="Capa 1"
     inkscape:groupmode="layer"
     id="layer1"
     transform="translate(-105.71428,24.066374)">
    <g
       id="g2225"
       transform="matrix(1.6666666,0,0,1.75,-70.476188,-375.70019)">
      <rect
         y="200.93361"
         x="105.71429"
         height="300"
         width="450.00003"
         id="rect2217"
         style="fill:#fcdd09;fill-opacity:1;stroke:none" />
      <rect
         y="200.93361"
         x="405.71429"
         height="300"
         width="150"
         id="rect2221"
         style="fill:#da121a;fill-opacity:1;stroke:none" />
      <rect
         style="fill:#0b3583;fill-opacity:1;stroke:none"
         id="rect2986"
         width="150"
         height="300"
         x="105.71429"
         y="200.93361" />
    </g>
    <g
       id="g3295"
       transform="matrix(0.45,0,0,0.45,368.21428,125.93363)">
      <path
         transform="matrix(9.5628057,0,0,9.5628057,1626.8243,-1368.6362)"
         d="m -117.99092,169.26373 c 0,14.35173 -11.63437,25.9861 -25.9861,25.9861 -14.35173,0 -25.9861,-11.63437 -25.9861,-25.9861 0,-14.35172 11.63437,-25.98609 25.9861,-25.98609 14.35173,0 25.9861,11.63437 25.9861,25.98609 z"
         sodipodi:ry="25.986097"
         sodipodi:rx="25.986097"
         sodipodi:cy="169.26373"
         sodipodi:cx="-143.97702"
         id="path3944"
         style="fill:#e3e4e5;fill-opacity:1;fill-rule:nonzero;stroke:#000000;stroke-width:0.31371546;stroke-linecap:square;stroke-linejoin:miter;stroke-miterlimit:4;stroke-opacity:1;stroke-dasharray:none"
         sodipodi:type="arc" />
      <path
         sodipodi:type="arc"
         style="fill:none;stroke:none"
         id="path3083"
         sodipodi:cx="693.04736"
         sodipodi:cy="354.28995"
         sodipodi:rx="70.266273"
         sodipodi:ry="70.266273"
         d="m 763.31364,354.28995 c 0,38.80699 -31.45929,70.26627 -70.26628,70.26627 -38.80699,0 -70.26627,-31.45928 -70.26627,-70.26627 0,-38.80699 31.45928,-70.26628 70.26627,-70.26628 38.80699,0 70.26628,31.45929 70.26628,70.26628 z"
         transform="matrix(0,-3.2643684,-3.2643684,0,1406.5329,2512.3619)" />
      <path
         transform="matrix(0,7.239448,-7.239448,0,1475.376,1292.3141)"
         d="m -117.99092,169.26373 c 0,14.35173 -11.63437,25.9861 -25.9861,25.9861 -14.35173,0 -25.9861,-11.63437 -25.9861,-25.9861 0,-14.35172 11.63437,-25.98609 25.9861,-25.98609 14.35173,0 25.9861,11.63437 25.9861,25.98609 z"
         sodipodi:ry="25.986097"
         sodipodi:rx="25.986097"
         sodipodi:cy="169.26373"
         sodipodi:cx="-143.97702"
         id="path3085"
         style="fill:none;stroke:none"
         sodipodi:type="arc" />
      <g
         transform="matrix(0.99785054,0,0,0.99785054,82.5032,82.503194)"
         id="g3946">
        <path
           sodipodi:type="arc"
           style="fill:#0071bc;fill-opacity:1;fill-rule:evenodd;stroke:#000000;stroke-width:3.05558395;stroke-linecap:butt;stroke-linejoin:miter;stroke-miterlimit:4;stroke-opacity:1;stroke-dasharray:none;stroke-dashoffset:0"
           id="path2194"
           sodipodi:cx="297.75275"
           sodipodi:cy="329.61389"
           sodipodi:rx="169.07567"
           sodipodi:ry="169.07567"
           d="m 466.82841,329.61389 c 0,93.37791 -75.69775,169.07567 -169.07566,169.07567 -93.37792,0 -169.07567,-75.69776 -169.07567,-169.07567 0,-93.37791 75.69775,-169.07567 169.07567,-169.07567 93.37791,0 169.07566,75.69776 169.07566,169.07567 z"
           transform="matrix(0.983924,0,0,0.983924,-125.10847,-156.45741)" />
        <g
           id="g3883"
           transform="translate(-15.803046,-14.796896)">
          <g
             id="g3839">
            <path
               style="fill:#eac102;fill-opacity:1;fill-rule:evenodd;stroke:#000000;stroke-width:1.00215399px;stroke-linecap:butt;stroke-linejoin:miter;stroke-opacity:1"
               d="m 274.8328,248.14942 c -5.44733,9.33492 -14.71271,24.4939 -17.34599,29.7605 -2.89993,5.79981 -9.61778,16.26683 -14.40855,23.35462 16.11678,1.18264 28.85401,-2.98455 35.11372,-5.26754 7.37287,-2.68897 33.97806,-16.46524 34.20251,-22.4507 -12.11933,2.04595 -21.35809,2.90116 -33.36072,1.48812 -1.07452,-7.61968 -1.0033,-13.55391 -4.20097,-26.885 z"
               id="path1312"
               sodipodi:nodetypes="cscsccc"
               inkscape:connector-curvature="0" />
            <path
               style="fill:#eac102;fill-opacity:1;fill-rule:evenodd;stroke:#000000;stroke-width:1.00215399px;stroke-linecap:butt;stroke-linejoin:miter;stroke-opacity:1"
               d="m 299.00378,182.23449 c 2.58192,9.74678 4.4946,22.23152 5.56572,28.02151 1.17953,6.37621 0.28325,17.20662 0.72955,25.74999 13.57615,-8.76569 21.83033,-17.66689 25.45115,-23.26026 4.2647,-6.58802 8.08282,-29.3945 4.656,-34.30704 -6.84481,9.2696 -9.98527,10.83524 -17.41549,16.14388 -6.18821,-4.22188 -8.0761,-5.2704 -18.98693,-12.34808 z"
               id="path2189"
               sodipodi:nodetypes="cscsccc"
               inkscape:connector-curvature="0" />
            <path
               style="fill:#eac102;fill-opacity:1;fill-rule:evenodd;stroke:#000000;stroke-width:1.00215399px;stroke-linecap:butt;stroke-linejoin:miter;stroke-opacity:1"
               d="m 275.7523,112.32397 c 7.42369,6.82311 13.17483,13.4598 20.14425,19.70123 6.56409,5.87843 12.95138,11.12207 17.92749,18.08099 3.21342,-14.04196 2.9791,-19.85945 2.13918,-31.79223 -0.5952,-8.45609 -5.34432,-25.126191 -16.07814,-30.007421 1.18053,12.371451 2.25484,14.479511 0.61114,24.514651 -9.4682,0.30308 -11.46089,1.14708 -24.74392,-0.49722 z"
               id="path2191"
               sodipodi:nodetypes="cscsccc"
               inkscape:connector-curvature="0" />
            <path
               style="fill:#eac102;fill-opacity:1;fill-rule:evenodd;stroke:#000000;stroke-width:1.00215399px;stroke-linecap:butt;stroke-linejoin:miter;stroke-opacity:1"
               d="m 226.66342,72.149091 c 9.87282,3.7737 18.05514,5.724784 23.68172,7.46055 9.0686,2.797608 13.99504,5.124028 20.54987,6.132798 -1.33223,-13.580685 -5.52223,-19.322004 -8.48673,-22.683383 -5.19094,-5.885895 -12.85526,-13.199155 -19.65645,-17.421728 2.65964,7.302684 3.38841,11.223011 4.6166,22.195233 -6.60017,1.476783 -4.49707,1.859012 -20.70501,4.31653 z"
               id="path3962"
               sodipodi:nodetypes="cscsccc"
               inkscape:connector-curvature="0" />
            <path
               style="fill:#eac102;fill-opacity:1;fill-rule:nonzero;stroke:#000000;stroke-width:1.00215399px;stroke-linecap:butt;stroke-linejoin:miter;stroke-opacity:1"
               id="path1336"
               d="m 277.25839,66.583934 c 3.55732,3.364869 14.75676,13.678976 18.20865,17.293735 3.4519,3.61476 0.15072,6.30182 -3.50706,2.70969 -3.54022,-3.47665 -15.33328,-13.419943 -18.05619,-16.906367 -2.81282,-3.601537 -0.20272,-6.461926 3.3546,-3.097058 z"
               sodipodi:nodetypes="czzzz"
               inkscape:connector-curvature="0" />
            <path
               style="fill:#eac102;fill-opacity:1;fill-rule:nonzero;stroke:#000000;stroke-width:1.00215399px;stroke-linecap:butt;stroke-linejoin:miter;stroke-opacity:1"
               id="path1338"
               d="m 257.25839,84.782769 c 3.55732,3.36487 14.75676,14.333434 18.20865,17.948181 3.4519,3.61476 0.15072,6.30182 -3.50706,2.7097 -3.54022,-3.47666 -15.33328,-14.074401 -18.05619,-17.560831 -2.81282,-3.60152 -0.20272,-6.461916 3.3546,-3.09705 z"
               sodipodi:nodetypes="czzzc"
               inkscape:connector-curvature="0" />
            <path
               style="fill:#eac102;fill-opacity:1;fill-rule:nonzero;stroke:#000000;stroke-width:1.00215399px;stroke-linecap:butt;stroke-linejoin:miter;stroke-opacity:1"
               id="path1340"
               d="m 326.25818,133.31278 c 0.83671,4.8246 4.02577,22.21257 4.62849,27.1743 0.60272,4.96174 -3.65011,5.1393 -4.43133,0.0725 -0.75612,-4.90394 -4.64269,-22.35002 -4.73813,-26.77272 -0.0986,-4.56873 3.70425,-5.29869 4.54097,-0.47409 z"
               sodipodi:nodetypes="czzzz"
               inkscape:connector-curvature="0" />
            <path
               style="fill:#eac102;fill-opacity:1;fill-rule:nonzero;stroke:#000000;stroke-width:1.00215399px;stroke-linecap:butt;stroke-linejoin:miter;stroke-opacity:1"
               id="path1342"
               d="m 298.56761,141.06892 c 1.06726,4.77889 4.19816,20.41044 5.03827,25.33753 0.84011,4.9271 -3.3993,5.30853 -4.42275,0.28506 -0.99056,-4.862 -4.82095,-20.51812 -5.12851,-24.93115 -0.3177,-4.55873 3.44573,-5.47033 4.51299,-0.69144 z"
               sodipodi:nodetypes="czzzz"
               inkscape:connector-curvature="0" />
            <path
               style="fill:#eac102;fill-opacity:1;fill-rule:nonzero;stroke:#000000;stroke-width:1.00215399px;stroke-linecap:butt;stroke-linejoin:miter;stroke-opacity:1"
               id="path1344"
               d="m 326.0682,235.64696 c -2.11344,4.41704 -9.50843,18.48517 -11.89204,22.87839 -2.38361,4.39324 -5.95272,2.07384 -3.65372,-2.50843 2.2251,-4.43501 9.08525,-18.95464 11.57,-22.61462 2.56679,-3.78082 6.0892,-2.17238 3.97576,2.24466 z"
               sodipodi:nodetypes="czzzz"
               inkscape:connector-curvature="0" />
            <path
               style="fill:#eac102;fill-opacity:1;fill-rule:nonzero;stroke:#000000;stroke-width:1.00215399px;stroke-linecap:butt;stroke-linejoin:miter;stroke-opacity:1"
               id="path1348"
               d="m 298.0682,221.09768 c -2.11344,4.41704 -11.14456,20.44853 -13.52817,24.84175 -2.38361,4.39324 -5.95272,2.07384 -3.65372,-2.50843 2.2251,-4.43501 10.72138,-20.918 13.20613,-24.57798 2.56679,-3.78082 6.0892,-2.17238 3.97576,2.24466 z"
               sodipodi:nodetypes="czzzz"
               inkscape:connector-curvature="0" />
            <path
               style="fill:#eac102;fill-opacity:1;fill-rule:evenodd;stroke:#000000;stroke-width:1.00215399px;stroke-linecap:butt;stroke-linejoin:miter;stroke-opacity:1"
               d="m 225.54796,295.73143 c -5.13141,4.63936 -14.73741,11.48951 -16.70384,12.99048 -2.25171,1.71871 -13.16801,6.2266 -16.45012,8.26601 8.07623,2.94744 16.83894,2.53914 20.30064,2.60917 4.07729,0.0825 20.98168,-4.8156 21.80527,-7.12677 -5.42229,-0.51874 -7.12207,-1.02777 -12.31148,-3.40331 1.29443,-3.14751 2.02193,-5.07294 3.35953,-13.33558 z"
               id="path1351"
               sodipodi:nodetypes="cscsccc"
               inkscape:connector-curvature="0" />
            <path
               style="fill:#eac102;fill-opacity:1;fill-rule:nonzero;stroke:#000000;stroke-width:1.00215399px;stroke-linecap:butt;stroke-linejoin:miter;stroke-opacity:1"
               id="path1353"
               d="m 300.39351,249.9674 c 2.15728,6.50048 0.25053,13.18141 -2.74066,16.36397 -2.8424,3.02426 -9.98299,4.86097 -12.73332,2.32461 -2.75033,-2.53637 -2.54253,-9.72395 0.45184,-14.23485 2.99437,-4.5109 9.0982,-4.57311 15.02214,-4.45373 z"
               sodipodi:nodetypes="czzzc"
               inkscape:connector-curvature="0" />
            <path
               style="fill:#eac102;fill-opacity:1;fill-rule:nonzero;stroke:#000000;stroke-width:1.00215399px;stroke-linecap:butt;stroke-linejoin:miter;stroke-opacity:1"
               id="path1355"
               d="m 313.79676,164.38172 c 6.07392,2.81492 8.98897,7.70723 8.74399,12.40648 -0.26199,5.02555 -2.14497,10.45231 -5.88553,10.37718 -3.74057,-0.0751 -7.56506,-4.17613 -8.31439,-9.53831 -0.74934,-5.36218 1.34258,-8.50449 5.45593,-13.24535 z"
               sodipodi:nodetypes="czzzc"
               inkscape:connector-curvature="0" />
            <path
               style="fill:#eac102;fill-opacity:1;fill-rule:nonzero;stroke:#000000;stroke-width:1.00215399px;stroke-linecap:butt;stroke-linejoin:miter;stroke-opacity:1"
               id="path1357"
               d="m 280.22039,87.208039 c 5.03359,0.54536 10.97141,2.89705 13.48167,6.07021 2.66632,3.370444 4.17354,11.776191 1.06924,13.864451 -3.10429,2.08826 -8.69929,-1.10241 -12.39422,-5.05995 -3.69493,-3.957527 -4.24525,-7.566661 -2.15669,-14.874711 z"
               sodipodi:nodetypes="czzzc"
               inkscape:connector-curvature="0" />
            <path
               style="fill:#eac102;fill-opacity:1;fill-rule:nonzero;stroke:#000000;stroke-width:1.00215399px;stroke-linecap:butt;stroke-linejoin:miter;stroke-opacity:1"
               id="path1359"
               d="m 224.09433,52.536423 c 7.50438,-0.01066 12.76564,-0.336216 14.17877,1.268673 1.41313,1.604889 4.92533,9.301195 2.61347,11.167835 -2.31185,1.86664 -7.82079,3.054724 -11.35739,0.552088 -3.5366,-2.502635 -3.94806,-6.26425 -5.43485,-12.988596 z"
               sodipodi:nodetypes="czzzc"
               inkscape:connector-curvature="0" />
          </g>
          <g
             id="g3872">
            <path
               inkscape:connector-curvature="0"
               style="fill:#89c5e3;fill-opacity:1;fill-rule:evenodd;stroke:#000000;stroke-width:1.00215399px;stroke-linecap:butt;stroke-linejoin:miter;stroke-opacity:1"
               d="m 214.14825,159.06283 c 2.13825,-1.49137 9.18758,1.08 7.85287,2.22515 -7.52261,5.75241 -24.24078,21.95898 -38.06812,39.77257 -7.99232,10.29641 -11.15629,20.89986 -13.1116,28.13997 -1.29149,4.78212 -0.88388,10.36334 -4.42718,10.38862 -3.19622,0.0253 -15.96594,0.0879 -20.66002,-0.0678 -1.51482,-0.0502 -2.77346,-0.42027 -1.37203,-7.18631 1.87086,-9.03251 7.49666,-24.77534 17.36423,-36.5496 15.08024,-17.99416 44.36058,-33.46396 52.42185,-36.72263 z"
               id="path1331"
               sodipodi:nodetypes="ccsszzssc" />
            <path
               inkscape:connector-curvature="0"
               style="fill:#89c5e3;fill-opacity:1;fill-rule:evenodd;stroke:#000000;stroke-width:1.00215399px;stroke-linecap:butt;stroke-linejoin:miter;stroke-opacity:1"
               d="m 227.56984,161.08631 c 1.06952,-1.25999 12.79811,2.41307 11.35293,3.89665 -8.44814,4.82688 -25.56089,30.55339 -30.36429,39.11165 -7.39261,13.17145 -9.4082,41.12445 -9.17856,53.08368 0.11671,6.07817 -2.43781,6.1194 -3.39029,6.00993 -0.95248,-0.10946 -19.30086,0.0576 -23.3147,0.0281 -3.85023,-0.0295 -3.21034,-1.44493 -2.23943,-11.95199 0.5667,-6.13275 1.83992,-14.11209 2.93011,-20.13969 2.47335,-13.67496 13.06994,-30.43958 20.90944,-38.8516 6.63401,-7.11848 22.91969,-26.30835 33.29479,-31.1867 z"
               id="path1333"
               sodipodi:nodetypes="ccsszzsssc" />
          </g>
          <g
             style="fill:#89c5e3;fill-opacity:1"
             id="g3876">
            <path
               inkscape:connector-curvature="0"
               style="fill:#89c5e3;fill-opacity:1;fill-rule:evenodd;stroke:#000000;stroke-width:1.00215399px;stroke-linecap:butt;stroke-linejoin:miter;stroke-opacity:1"
               d="m 208.79733,219.80553 c 6.31005,0.0504 60.13511,0.15272 63.90309,0.26285 1.35119,0.0395 2.42173,0.39919 0.0264,5.19865 -0.93598,1.87539 -2.818,4.65409 -4.2027,6.77967 -1.30288,1.99997 -2.16284,3.59361 -3.72528,5.6987 -2.11126,2.84453 -3.19096,2.22559 -4.24259,2.31513 -4.23609,0.36065 -45.58473,-0.22897 -52.96112,-0.18033 -3.53572,0.0237 -4.8674,-0.17482 -3.77427,-10.05544 1.00439,-9.07857 1.73284,-10.04515 4.97649,-10.01923 z"
               id="path1352"
               sodipodi:nodetypes="czssszzsz" />
            <path
               inkscape:connector-curvature="0"
               style="fill:#89c5e3;fill-opacity:1;fill-rule:evenodd;stroke:#000000;stroke-width:1.00215399px;stroke-linecap:butt;stroke-linejoin:miter;stroke-opacity:1"
               d="m 92.392436,218.62677 c 4.023892,-0.10086 48.520084,-0.0818 51.690064,-0.0988 3.40135,-0.017 0.57834,3.94574 -0.89741,10.78289 -1.67806,7.77444 -0.59529,10.24855 -5.4822,10.28205 -4.77344,0.0327 -30.8838,0.13621 -33.27054,0.008 -0.9776,-0.0523 -1.94071,0.0296 -6.832092,-8.13944 C 93.988816,225.43 90.16887,218.68211 92.392436,218.62638 z"
               id="path2231"
               sodipodi:nodetypes="czszzsz" />
            <path
               inkscape:connector-curvature="0"
               style="fill:#89c5e3;fill-opacity:1;fill-rule:evenodd;stroke:#000000;stroke-width:1.00215399px;stroke-linecap:butt;stroke-linejoin:miter;stroke-opacity:1"
               d="m 108.59276,242.37074 c 3.50984,-0.005 50.47751,-0.0517 55.68694,-0.0509 5.5565,7.3e-4 4.42486,1.49035 3.40232,9.94348 -1.16935,9.66683 -0.47537,10.91486 -5.07345,11.12146 -4.48263,0.20141 -25.95361,-0.0111 -32.18546,0.0291 -2.23578,0.0142 -2.74993,-0.0638 -7.08903,-3.22419 -1.83568,-1.33704 -4.39604,-3.46701 -7.48615,-6.17476 -3.08809,-2.70597 -5.31369,-5.30396 -6.75182,-6.92838 -3.3606,-3.79591 -4.1768,-4.71045 -0.50335,-4.71584 z"
               id="path2233"
               sodipodi:nodetypes="czszzsssz" />
            <path
               inkscape:connector-curvature="0"
               style="fill:#89c5e3;fill-opacity:1;fill-rule:evenodd;stroke:#000000;stroke-width:1.00215399px;stroke-linecap:butt;stroke-linejoin:miter;stroke-opacity:1"
               d="m 204.92402,242.72159 c 4.3212,-0.0715 43.41615,0.14112 50.9446,0.0706 4.88266,-0.0464 4.40437,0.61905 1.71139,3.93592 -1.57507,1.93996 -3.49009,3.9758 -7.19055,7.24345 -1.97695,1.74572 -5.78095,4.88588 -8.29697,6.73237 -3.01271,2.211 -3.80818,2.39413 -7.08559,2.38307 -3.16344,-0.0107 -22.21551,-0.007 -30.10135,-0.0395 -4.48928,-0.0179 -3.83185,-3.10159 -3.5191,-10.68942 0.17741,-4.30428 -0.78016,-9.56503 3.53757,-9.63648 z"
               id="path2238"
               sodipodi:nodetypes="czssszzsz" />
            <path
               inkscape:connector-curvature="0"
               style="fill:#89c5e3;fill-opacity:1;fill-rule:evenodd;stroke:#000000;stroke-width:1.00215399px;stroke-linecap:butt;stroke-linejoin:miter;stroke-opacity:1"
               d="m 133.74341,265.00137 c 4.06367,0.0661 95.05542,0.0908 99.414,-0.003 4.09355,-0.0882 -2.44842,3.22548 -10.61902,6.89264 -11.57478,5.19503 -26.48044,8.05074 -38.85055,8.11314 -12.63527,0.0624 -26.80057,-2.95476 -38.38727,-7.46107 -7.13005,-2.77302 -15.88601,-7.6077 -11.55716,-7.5416 z"
               id="path3115"
               sodipodi:nodetypes="czszsz" />
          </g>
          <g
             id="g3821">
            <path
               sodipodi:type="arc"
               style="fill:#ed1c24;fill-opacity:1;fill-rule:evenodd;stroke:#000000;stroke-width:1.75376844;stroke-linecap:butt;stroke-linejoin:miter;stroke-miterlimit:4;stroke-opacity:1;stroke-dasharray:none;stroke-dashoffset:0"
               id="path3948"
               sodipodi:cx="316.70517"
               sodipodi:cy="277.74408"
               sodipodi:rx="10.473714"
               sodipodi:ry="10.473714"
               d="m 327.17888,277.74408 c 0,5.78447 -4.68924,10.47371 -10.47371,10.47371 -5.78447,0 -10.47371,-4.68924 -10.47371,-10.47371 0,-5.78447 4.68924,-10.47371 10.47371,-10.47371 5.78447,0 10.47371,4.68924 10.47371,10.47371 z"
               transform="matrix(0.571429,0,0,0.571429,-103.502,82.86911)" />
            <path
               sodipodi:type="arc"
               style="fill:#ed1c24;fill-opacity:1;fill-rule:evenodd;stroke:#000000;stroke-width:1.75376844;stroke-linecap:butt;stroke-linejoin:miter;stroke-miterlimit:4;stroke-opacity:1;stroke-dasharray:none;stroke-dashoffset:0"
               id="path3950"
               sodipodi:cx="316.70517"
               sodipodi:cy="277.74408"
               sodipodi:rx="10.473714"
               sodipodi:ry="10.473714"
               d="m 327.17888,277.74408 c 0,5.78447 -4.68924,10.47371 -10.47371,10.47371 -5.78447,0 -10.47371,-4.68924 -10.47371,-10.47371 0,-5.78447 4.68924,-10.47371 10.47371,-10.47371 5.78447,0 10.47371,4.68924 10.47371,10.47371 z"
               transform="matrix(0.571429,0,0,0.571429,-128.4396,93.84161)" />
            <path
               sodipodi:type="arc"
               style="fill:#ed1c24;fill-opacity:1;fill-rule:evenodd;stroke:#000000;stroke-width:1.75376844;stroke-linecap:butt;stroke-linejoin:miter;stroke-miterlimit:4;stroke-opacity:1;stroke-dasharray:none;stroke-dashoffset:0"
               id="path3952"
               sodipodi:cx="316.70517"
               sodipodi:cy="277.74408"
               sodipodi:rx="10.473714"
               sodipodi:ry="10.473714"
               d="m 327.17888,277.74408 c 0,5.78447 -4.68924,10.47371 -10.47371,10.47371 -5.78447,0 -10.47371,-4.68924 -10.47371,-10.47371 0,-5.78447 4.68924,-10.47371 10.47371,-10.47371 5.78447,0 10.47371,4.68924 10.47371,10.47371 z"
               transform="matrix(0.571429,0,0,0.571429,-144.3995,1.074289)" />
            <path
               sodipodi:type="arc"
               style="fill:#ed1c24;fill-opacity:1;fill-rule:evenodd;stroke:#000000;stroke-width:1.75376844;stroke-linecap:butt;stroke-linejoin:miter;stroke-miterlimit:4;stroke-opacity:1;stroke-dasharray:none;stroke-dashoffset:0"
               id="path3954"
               sodipodi:cx="316.70517"
               sodipodi:cy="277.74408"
               sodipodi:rx="10.473714"
               sodipodi:ry="10.473714"
               d="m 327.17888,277.74408 c 0,5.78447 -4.68924,10.47371 -10.47371,10.47371 -5.78447,0 -10.47371,-4.68924 -10.47371,-10.47371 0,-5.78447 4.68924,-10.47371 10.47371,-10.47371 5.78447,0 10.47371,4.68924 10.47371,10.47371 z"
               transform="matrix(0.571429,0,0,0.571429,-118.4646,7.059233)" />
            <path
               sodipodi:type="arc"
               style="fill:#ed1c24;fill-opacity:1;fill-rule:evenodd;stroke:#000000;stroke-width:1.75376844;stroke-linecap:butt;stroke-linejoin:miter;stroke-miterlimit:4;stroke-opacity:1;stroke-dasharray:none;stroke-dashoffset:0"
               id="path3956"
               sodipodi:cx="316.70517"
               sodipodi:cy="277.74408"
               sodipodi:rx="10.473714"
               sodipodi:ry="10.473714"
               d="m 327.17888,277.74408 c 0,5.78447 -4.68924,10.47371 -10.47371,10.47371 -5.78447,0 -10.47371,-4.68924 -10.47371,-10.47371 0,-5.78447 4.68924,-10.47371 10.47371,-10.47371 5.78447,0 10.47371,4.68924 10.47371,10.47371 z"
               transform="matrix(0.571429,0,0,0.571429,-107.4921,-72.74045)" />
            <path
               sodipodi:type="arc"
               style="fill:#ed1c24;fill-opacity:1;fill-rule:evenodd;stroke:#000000;stroke-width:1.75376844;stroke-linecap:butt;stroke-linejoin:miter;stroke-miterlimit:4;stroke-opacity:1;stroke-dasharray:none;stroke-dashoffset:0"
               id="path3958"
               sodipodi:cx="316.70517"
               sodipodi:cy="277.74408"
               sodipodi:rx="10.473714"
               sodipodi:ry="10.473714"
               d="m 327.17888,277.74408 c 0,5.78447 -4.68924,10.47371 -10.47371,10.47371 -5.78447,0 -10.47371,-4.68924 -10.47371,-10.47371 0,-5.78447 4.68924,-10.47371 10.47371,-10.47371 5.78447,0 10.47371,4.68924 10.47371,10.47371 z"
               transform="matrix(0.571429,0,0,0.571429,-91.2742,-57.44142)" />
            <path
               style="fill:#008f4c;fill-opacity:1;fill-rule:evenodd;stroke:#000000;stroke-width:1.00215399px;stroke-linecap:butt;stroke-linejoin:miter;stroke-opacity:1"
               d="m 83.309954,252.52341 c 20.847156,-0.56273 29.310426,15.89304 31.943706,21.15964 2.89993,5.79981 7.26425,18.48481 9.27842,27.65505 -15.8854,3.26509 -33.18886,1.23576 -39.509976,-0.87126 -10.843616,-3.6145 -24.543173,-17.90536 -19.034868,-33.23934 11.03151,5.60988 13.594712,5.59139 21.432438,6.72356 0.738656,-6.94796 -0.07587,-10.76952 -4.10972,-21.42765 z"
               id="path3118"
               sodipodi:nodetypes="cscsccc"
               inkscape:connector-curvature="0" />
            <path
               style="fill:#008f4c;fill-opacity:1;fill-rule:evenodd;stroke:#000000;stroke-width:1.00215399px;stroke-linecap:butt;stroke-linejoin:miter;stroke-opacity:1"
               d="m 59.703561,175.75341 c 22.849313,13.91167 12.309377,49.00617 -3.870974,59.86337 -18.569756,-6.64187 -33.413052,-35.24877 -18.942117,-58.37192 6.84481,9.2696 4.870746,11.03208 12.300966,16.34072 6.18821,-4.22188 7.810169,-8.45793 10.512125,-17.83217 z"
               id="path3120"
               sodipodi:nodetypes="ccccc"
               inkscape:connector-curvature="0" />
            <path
               style="fill:#008f4c;fill-opacity:1;fill-rule:evenodd;stroke:#000000;stroke-width:1.00215399px;stroke-linecap:butt;stroke-linejoin:miter;stroke-opacity:1"
               d="m 84.626534,107.94261 c 3.18825,16.95053 -5.104144,37.32243 -30.84021,42.23714 -12.701881,-16.00896 -12.8868,-45.32905 14.13799,-55.925611 -1.006892,12.161061 -1.991104,11.382071 -0.116021,17.946461 9.4682,0.30308 11.54363,0.9157 16.818241,-4.25799 z"
               id="path3122"
               sodipodi:nodetypes="ccccc"
               inkscape:connector-curvature="0" />
            <path
               style="fill:#008f4c;fill-opacity:1;fill-rule:evenodd;stroke:#000000;stroke-width:1.00215399px;stroke-linecap:butt;stroke-linejoin:miter;stroke-opacity:1"
               d="m 138.43626,63.76512 c -6.40208,12.599146 -11.01123,18.739519 -21.21896,20.475279 -9.35602,1.59093 -15.63941,1.99483 -23.119758,0.92115 3.141296,-13.806819 5.570122,-21.689722 8.534618,-25.051101 5.19094,-5.885895 13.07163,-9.945604 25.88878,-11.160197 -2.53704,4.816146 -5.21676,8.733683 -4.8922,15.063618 7.06294,2.865082 9.8578,2.332338 14.80752,-0.248749 z"
               id="path3124"
               sodipodi:nodetypes="cscsccc"
               inkscape:connector-curvature="0" />
            <path
               style="fill:#008f4c;fill-opacity:1;fill-rule:evenodd;stroke:#000000;stroke-width:1.00215399px;stroke-linecap:butt;stroke-linejoin:miter;stroke-opacity:1"
               d="m 142.06238,295.80499 c 5.13141,4.63936 14.73741,11.48951 16.70384,12.99048 2.25171,1.71871 13.16801,6.2266 16.45012,8.26601 -8.07623,2.94744 -16.83894,2.53914 -20.30064,2.60917 -4.07729,0.0825 -20.98168,-4.8156 -21.80527,-7.12677 5.42229,-0.51874 7.12207,-1.02777 12.31148,-3.40331 -1.29443,-3.14751 -2.02193,-5.07294 -3.35953,-13.33558 z"
               id="path3126"
               sodipodi:nodetypes="cscsccc"
               inkscape:connector-curvature="0" />
            <path
               sodipodi:type="arc"
               style="fill:#ed1c24;fill-opacity:1;fill-rule:evenodd;stroke:#000000;stroke-width:1.9136399;stroke-linecap:butt;stroke-linejoin:miter;stroke-miterlimit:4;stroke-opacity:1;stroke-dasharray:none;stroke-dashoffset:0"
               id="path3128"
               sodipodi:cx="316.70517"
               sodipodi:cy="277.74408"
               sodipodi:rx="10.473714"
               sodipodi:ry="10.473714"
               d="m 327.17888,277.74408 c 0,5.78447 -4.68924,10.47371 -10.47371,10.47371 -5.78447,0 -10.47371,-4.68924 -10.47371,-10.47371 0,-5.78447 4.68924,-10.47371 10.47371,-10.47371 5.78447,0 10.47371,4.68924 10.47371,10.47371 z"
               transform="matrix(0.52369,0,0,0.52369,-23.08323,-92.25151)" />
            <path
               style="fill:#008f4c;fill-opacity:1;fill-rule:evenodd;stroke:#000000;stroke-width:1.00215399px;stroke-linecap:butt;stroke-linejoin:miter;stroke-opacity:1"
               d="m 79.697485,253.8564 c 5.260629,6.80883 5.500779,8.15485 4.970519,16.09094 -6.922788,0.0967 -11.996535,-0.87681 -15.467096,-4.68179 -0.848474,-3.4522 5.9729,-9.79807 10.496577,-11.40915 z"
               id="path3131"
               sodipodi:nodetypes="cccc"
               inkscape:connector-curvature="0" />
            <path
               style="fill:#008f4c;fill-opacity:1;fill-rule:evenodd;stroke:#000000;stroke-width:1.00215399px;stroke-linecap:butt;stroke-linejoin:miter;stroke-opacity:1"
               d="m 55.946737,176.67292 c -1.72858,6.69828 -0.748511,9.6185 -7.015163,14.51664 -4.689417,-5.09348 -8.204605,-10.37956 -7.684409,-15.50324 5.840675,-2.46868 11.205817,-2.43473 14.699572,0.9866 z"
               id="path3133"
               sodipodi:nodetypes="cccc"
               inkscape:connector-curvature="0" />
            <path
               style="fill:#008f4c;fill-opacity:1;fill-rule:evenodd;stroke:#000000;stroke-width:1.00215399px;stroke-linecap:butt;stroke-linejoin:miter;stroke-opacity:1"
               d="m 82.311714,104.48652 c -2.455787,5.39982 -5.271571,6.59355 -13.225237,6.63705 -0.595751,-6.89778 -1.130343,-11.531207 2.41442,-15.267157 4.218389,0.38818 7.763353,3.18325 10.810817,8.630107 z"
               id="path3135"
               sodipodi:nodetypes="cccc"
               inkscape:connector-curvature="0" />
            <path
               style="fill:#008f4c;fill-opacity:1;fill-rule:evenodd;stroke:#000000;stroke-width:1.00215399px;stroke-linecap:butt;stroke-linejoin:miter;stroke-opacity:1"
               d="m 137.23197,61.014045 c -3.49315,3.287897 -6.12322,4.045389 -12.08842,1.639536 1.24067,-5.772586 2.07596,-9.660005 5.87391,-11.368943 3.03769,1.583741 5.60393,4.719146 6.21451,9.729407 z"
               id="path3137"
               sodipodi:nodetypes="cccc"
               inkscape:connector-curvature="0" />
          </g>
          <path
             sodipodi:nodetypes="czszzz"
             id="path6917"
             d="m 247.55175,171.52679 c 10.59859,1.7425 29.2359,13.97884 33.10003,17.20117 3.64674,3.04105 0.57834,10.88723 -1.59156,18.64992 -2.14115,7.65984 -2.67773,9.78578 -7.56464,9.81928 -4.77344,0.0327 -26.76719,-0.46405 -46.0668,-0.45434 -19.30087,0.01 11.48975,-46.96422 22.12297,-45.21603 z"
             style="fill:#969696;fill-opacity:1;fill-rule:evenodd;stroke:#000000;stroke-width:1.00215399px;stroke-linecap:butt;stroke-linejoin:miter;stroke-opacity:1"
             inkscape:connector-curvature="0" />
          <g
             style="fill:#000000;stroke:#646464;stroke-width:1.00215399;stroke-opacity:1"
             id="g3804">
            <path
               style="fill:#000000;fill-opacity:1;fill-rule:evenodd;stroke:#646464;stroke-width:1.00215399px;stroke-linecap:butt;stroke-linejoin:miter;stroke-opacity:1"
               d="m 145.11423,87.396719 c 4.89117,-0.01885 26.90405,-0.1684 32.41279,-0.14175 5.39306,0.02665 3.44453,7.752224 3.7452,13.328131 0.34129,6.32926 0.63513,13.3693 -3.48497,13.51399 -4.12578,0.14489 -28.02055,0.32405 -32.71603,0.11569 -4.81094,-0.21348 -4.57741,-5.73791 -4.46926,-12.07807 0.0647,-3.791367 -0.48669,-9.489121 0.34041,-12.624601 2.29914,-1.39228 2.45037,-1.33772 4.17186,-2.11339 z"
               id="path3964"
               sodipodi:nodetypes="czszzscc"
               inkscape:connector-curvature="0" />
            <path
               style="fill:#000000;fill-opacity:1;fill-rule:evenodd;stroke:#646464;stroke-width:1.00215399px;stroke-linecap:butt;stroke-linejoin:miter;stroke-opacity:1"
               d="m 163.99023,117.35815 c 3.17789,-0.13147 27.83604,-0.0519 33.34478,-0.0253 5.39306,0.0266 4.3506,1.8824 4.20433,6.48472 -0.14389,4.52726 0.47152,6.98841 -3.64858,7.1331 -4.12578,0.14489 -28.02055,0.32405 -32.71603,0.11569 -4.81094,-0.21348 -4.32443,-1.49251 -4.30565,-7.1697 0.0159,-4.80517 -0.0458,-6.40753 3.12115,-6.53855 z"
               id="path6924"
               sodipodi:nodetypes="czszzsz"
               inkscape:connector-curvature="0" />
            <path
               style="fill:#000000;fill-opacity:1;fill-rule:evenodd;stroke:#646464;stroke-width:1.00215399px;stroke-linecap:butt;stroke-linejoin:miter;stroke-opacity:1"
               d="m 210.48405,117.48153 c 2.79934,-0.13147 24.52021,-0.0519 29.37275,-0.0253 4.75063,0.0266 4.49982,2.37149 4.52158,8.93891 0.0265,7.79955 0.68167,11.93346 -2.72313,11.0598 -2.71612,-0.69695 -11.81613,-2.91741 -15.75033,-3.67532 -6.22284,-1.19882 -9.66611,-2.31282 -14.37747,-2.82126 -4.48258,-0.48375 -3.57792,-2.64943 -3.79276,-6.93832 -0.2404,-4.79917 -0.0403,-6.40753 2.74936,-6.53855 z"
               id="path6929"
               sodipodi:nodetypes="czszszsz"
               inkscape:connector-curvature="0" />
            <path
               style="fill:#000000;fill-opacity:1;fill-rule:evenodd;stroke:#646464;stroke-width:1.00215399px;stroke-linecap:butt;stroke-linejoin:miter;stroke-opacity:1"
               d="m 153.67699,117.35815 c -2.79934,-0.13147 -24.52021,-0.0519 -29.37275,-0.0253 -4.75063,0.0266 -4.49982,2.37149 -4.52158,8.93891 -0.0265,7.79955 -0.79736,12.28053 2.60744,11.40687 2.71612,-0.69695 11.93182,-3.26448 15.86602,-4.02239 6.22284,-1.19882 9.66611,-2.31282 14.37747,-2.82126 4.48258,-0.48375 3.57792,-2.64943 3.79276,-6.93832 0.2404,-4.79917 0.0403,-6.40753 -2.74936,-6.53855 z"
               id="path6931"
               sodipodi:nodetypes="czszszsz"
               inkscape:connector-curvature="0" />
            <path
               style="fill:#000000;fill-opacity:1;fill-rule:evenodd;stroke:#646464;stroke-width:1.00215399px;stroke-linecap:butt;stroke-linejoin:miter;stroke-opacity:1"
               d="m 112.67699,117.74367 c -2.79274,-0.0127 -2.60228,-0.20396 -6.234,-0.0253 -3.79123,0.18655 -8.067416,8.74973 -11.830168,15.46741 -2.472396,4.414 -4.154122,8.37498 -5.591682,12.4989 -1.487356,4.26679 -0.79468,5.03578 1.03704,4.75728 5.770778,-0.87741 20.52031,-8.64919 23.59297,-10.32833 3.13429,-1.71282 2.01647,-7.40982 2.00658,-12.66087 -0.0133,-7.04188 0.38741,-9.6938 -2.98074,-9.70913 z"
               id="path6936"
               sodipodi:nodetypes="czszszsz"
               inkscape:connector-curvature="0" />
            <path
               style="fill:#000000;fill-opacity:1;fill-rule:evenodd;stroke:#646464;stroke-width:1.00215399px;stroke-linecap:butt;stroke-linejoin:miter;stroke-opacity:1"
               d="m 252.12032,117.41636 c 2.79934,-0.13147 3.73295,-0.20396 7.36467,-0.0253 3.79123,0.18655 7.27595,7.8452 11.49098,14.56288 2.68896,4.28551 4.49333,9.27951 5.93089,13.40343 1.48736,4.26679 0.79468,5.03578 -1.03704,4.75728 -5.77079,-0.87741 -21.07254,-9.57472 -24.1452,-11.25386 -3.13429,-1.71282 -2.36355,-6.48429 -2.35366,-11.73534 0.0133,-7.04188 -0.0403,-9.57811 2.74936,-9.70913 z"
               id="path6940"
               sodipodi:nodetypes="czszszsz"
               inkscape:connector-curvature="0" />
            <path
               style="fill:#000000;fill-opacity:1;fill-rule:evenodd;stroke:#646464;stroke-width:1.00215399px;stroke-linecap:butt;stroke-linejoin:miter;stroke-opacity:1"
               d="m 135.33047,92.398929 c -2.79934,-0.13147 -10.82038,6.313684 -15.14159,9.728671 -4.24457,3.35442 -14.60649,12.06777 -8.0394,12.13692 11.80615,0.12432 17.02408,0.24933 21.49799,-0.0739 4.48258,-0.32385 3.90855,-6.00219 3.95266,-10.29623 0.0805,-7.997167 0.52003,-11.364441 -2.26966,-11.495461 z"
               id="path6942"
               sodipodi:nodetypes="czszsz"
               inkscape:connector-curvature="0" />
            <path
               style="fill:#000000;fill-opacity:1;fill-rule:evenodd;stroke:#646464;stroke-width:1.00215399px;stroke-linecap:butt;stroke-linejoin:miter;stroke-opacity:1"
               d="m 230.85828,92.287609 c 2.79934,-0.13147 10.82038,6.313684 15.14159,9.728671 4.24457,3.35442 14.60649,12.06777 8.0394,12.13692 -11.80615,0.12432 -17.02408,0.24933 -21.49799,-0.0739 -4.48258,-0.32385 -3.90855,-6.00219 -3.95266,-10.29623 -0.0805,-7.997167 -0.52003,-11.364441 2.26966,-11.495461 z"
               id="path6944"
               sodipodi:nodetypes="czszsz"
               inkscape:connector-curvature="0" />
            <path
               style="fill:#000000;fill-opacity:1;fill-rule:evenodd;stroke:#646464;stroke-width:1.00215399px;stroke-linecap:butt;stroke-linejoin:miter;stroke-opacity:1"
               d="m 148.55385,136.35226 c 5.92821,-1.92791 22.70657,-1.92649 28.04455,-2.07531 5.33798,-0.14882 5.54033,2.75448 5.25772,8.30137 -0.32252,6.33024 0.77339,9.71029 -3.33002,10.10801 -4.10907,0.39828 -24.07707,2.59999 -29.92176,4.15323 -5.65238,1.50212 -4.92153,-3.64589 -5.20339,-9.98071 -0.25695,-5.77484 -0.48021,-8.67465 5.1529,-10.50659 z"
               id="path6948"
               sodipodi:nodetypes="czszzsz"
               inkscape:connector-curvature="0" />
            <path
               style="fill:#000000;fill-opacity:1;fill-rule:evenodd;stroke:#646464;stroke-width:1.00215399px;stroke-linecap:butt;stroke-linejoin:miter;stroke-opacity:1"
               d="m 217.29845,136.12397 c -7.65863,-1.76558 -22.04935,-1.76285 -27.42174,-1.91169 -5.20772,-0.14885 -5.57598,2.59087 -5.29156,8.13776 0.3246,6.33024 -0.47333,10.18821 3.68079,10.10801 4.79419,-0.0926 24.3967,1.78193 30.27901,3.33517 5.68876,1.50212 4.45921,-2.82783 4.74288,-9.16265 0.25861,-5.77484 1.82452,-8.70522 -5.98938,-10.5066 z"
               id="path6950"
               sodipodi:nodetypes="czszzsz"
               inkscape:connector-curvature="0" />
            <path
               style="fill:#000000;fill-opacity:1;fill-rule:evenodd;stroke:#646464;stroke-width:1.00215399px;stroke-linecap:butt;stroke-linejoin:miter;stroke-opacity:1"
               d="m 111.53663,147.35611 c 4.88982,-3.25897 21.40847,-8.02543 24.99311,-8.33557 3.24002,-0.28032 3.46646,1.73161 3.47998,8.46374 0.0127,6.32201 1.73725,10.18674 -1.84868,11.5317 -3.59087,1.34683 -19.59521,7.2251 -24.49081,10.10026 -4.73451,2.78054 -5.90384,-3.34282 -5.87466,-9.64657 0.0332,-7.17485 -0.90534,-9.01681 3.74106,-12.11356 z"
               id="path1366"
               sodipodi:nodetypes="czszzsz"
               inkscape:connector-curvature="0" />
            <path
               style="fill:#000000;fill-opacity:1;fill-rule:evenodd;stroke:#646464;stroke-width:1.00215399px;stroke-linecap:butt;stroke-linejoin:miter;stroke-opacity:1"
               d="m 255.12841,145.14797 c -5.00424,-3.0804 -21.68412,-7.24768 -25.27762,-7.42827 -3.24803,-0.16322 -3.40172,1.85557 -3.1723,8.5838 0.21544,6.31835 -1.36853,10.24279 2.26359,11.45748 3.63713,1.21638 20.00678,6.02247 25.00294,8.7191 4.83176,2.60788 4.37756,-3.22334 4.54107,-9.52505 0.19875,-7.65981 1.39744,-8.87999 -3.35768,-11.80706 z"
               id="path1368"
               sodipodi:nodetypes="czszzsz"
               inkscape:connector-curvature="0" />
            <path
               style="fill:#000000;fill-opacity:1;fill-rule:evenodd;stroke:#646464;stroke-width:1.00215399px;stroke-linecap:butt;stroke-linejoin:miter;stroke-opacity:1"
               d="m 86.835264,158.33247 c 2.885046,-1.5202 9.340384,-5.32575 13.825236,-6.96667 4.55488,-1.66653 4.14131,2.72183 4.42375,10.3083 0.2352,6.31764 1.55716,9.83337 -1.79944,11.67756 -3.361226,1.84674 -12.57527,7.98761 -17.009136,11.53363 -4.28797,3.42933 -3.58436,-7.18211 -2.91381,-13.45017 0.85199,-7.96414 0.4982,-11.53494 3.4734,-13.10265 z"
               id="path1372"
               sodipodi:nodetypes="czszzsz"
               inkscape:connector-curvature="0" />
            <path
               style="fill:#000000;fill-opacity:1;fill-rule:evenodd;stroke:#646464;stroke-width:1.00215399px;stroke-linecap:butt;stroke-linejoin:miter;stroke-opacity:1"
               d="m 278.77767,154.95228 c -2.93704,-1.41715 -9.52302,-4.99187 -14.06315,-6.47305 -4.611,-1.50429 -4.04239,2.86669 -4.05618,10.4584 -0.0115,6.322 -1.20819,9.88232 2.21157,11.60656 3.42448,1.72664 12.85008,7.53759 17.40667,10.92448 4.40664,3.27543 3.32795,-7.30446 2.436,-13.54486 -1.1333,-7.929 -0.9061,-11.51009 -3.93491,-12.97153 z"
               id="path1374"
               sodipodi:nodetypes="czszzsz"
               inkscape:connector-curvature="0" />
            <path
               style="fill:#000000;fill-opacity:1;fill-rule:evenodd;stroke:#646464;stroke-width:1.00215399px;stroke-linecap:butt;stroke-linejoin:miter;stroke-opacity:1"
               d="m 220.89545,87.424719 c -4.89117,-0.01885 -26.90405,-0.1684 -32.41279,-0.14175 -5.39306,0.02665 -3.44453,7.752224 -3.7452,13.328131 -0.34129,6.32926 -0.63513,13.3693 3.48497,13.51399 4.12578,0.14489 28.02055,0.32405 32.71603,0.11569 4.81094,-0.21348 4.57741,-5.73791 4.46926,-12.07807 -0.0647,-3.791367 0.48669,-9.722121 -0.34041,-12.857601 -2.29914,-1.39228 -2.45037,-1.10472 -4.17186,-1.88039 z"
               id="path1380"
               sodipodi:nodetypes="czszzscc"
               inkscape:connector-curvature="0" />
          </g>
        </g>
      </g>
      <g
         transform="translate(35.50297,35.50301)"
         id="text3301"
         style="font-size:56.63716888px;font-style:normal;font-weight:normal;line-height:125%;letter-spacing:0px;word-spacing:0px;fill:#000000;fill-opacity:1;stroke:none;font-family:Sans">
        
      </g>
      <g
         transform="translate(35.50297,35.50301)"
         id="text4084"
         style="font-size:56.63716888px;font-style:normal;font-weight:normal;line-height:125%;letter-spacing:0px;word-spacing:0px;fill:#000000;fill-opacity:1;stroke:none;font-family:Sans">
        <path
           inkscape:connector-curvature="0"
           id="path4171"
           style="font-style:normal;font-variant:normal;font-weight:normal;font-stretch:normal;text-align:center;text-anchor:middle;font-family:Berlin Sans FB;-inkscape-font-specification:Berlin Sans FB"
           d="m 57.233157,351.55573 c 0.900725,-0.81816 1.961244,-1.22729 3.181559,-1.22741 1.220354,-1.3e-4 2.233397,0.44334 3.039134,1.3304 0.805769,0.88705 1.140812,1.9277 1.00513,3.12194 -0.135653,1.19423 -0.653838,2.20042 -1.554558,3.01858 -0.914333,0.83054 -1.962143,1.24681 -3.143433,1.24882 -1.18125,0.002 -2.174761,-0.44055 -2.980536,-1.32759 -0.818127,-0.90072 -1.172389,-1.94881 -1.062789,-3.14429 0.109648,-1.19549 0.614812,-2.20231 1.515493,-3.02045 z" />
       
        <path
           inkscape:connector-curvature="0"
           id="path4221"
           style="font-style:normal;font-variant:normal;font-weight:normal;font-stretch:normal;text-align:center;text-anchor:middle;font-family:Berlin Sans FB;-inkscape-font-specification:Berlin Sans FB"
           d="m 366.07096,357.8197 c -0.90071,-0.81817 -1.4096,-1.83459 -1.52667,-3.04928 -0.11708,-1.21473 0.22726,-2.26561 1.03302,-3.15265 0.80575,-0.88707 1.8095,-1.3203 3.01125,-1.29969 1.20173,0.0206 2.25295,0.43994 3.15366,1.25811 0.91434,0.83053 1.42911,1.83362 1.54433,3.00928 0.11518,1.17562 -0.2301,2.20697 -1.03584,3.09405 -0.81816,0.90068 -1.82748,1.35376 -3.02796,1.35923 -1.2005,0.005 -2.2511,-0.40092 -3.15179,-1.21905 z" />
      </g>
    </g>
  </g>
</svg>
