<?xml version="1.0" encoding="iso-8859-1"?>
<!DOCTYPE svg PUBLIC "-//W3C//DTD SVG 1.1//EN" "http://www.w3.org/Graphics/SVG/1.1/DTD/svg11.dtd">
<svg xmlns="http://www.w3.org/2000/svg" xml:space="preserve" width="850.32" height="566.88">
  <path fill="#ff0" fill-rule="evenodd" d="M283.44 0h566.4c.279-.039.428.053.48.24v564C661.196 376.219 472.304 188.223 283.44 0zM0 284.16c281.999 94.104 564.018 188.321 845.76 282.721H0V284.16zM.24 0c273.25 182.873 546.785 365.288 820.319 547.92C547.355 387.958 273.488 226.477 0 66 .16 44.08-.32 21.52.24 0zM100.8 0h95.52C403.09 180.06 610.212 359.984 817.2 539.76 578.69 360.56 339.3 179.948 100.8 0zM0 140.4c269.186 135.196 537.682 270.88 806.88 406.08C538.183 435.99 269.025 323.814 0 212.88V140.4z" clip-rule="evenodd"/>
  <path fill="red" fill-rule="evenodd" d="M.24 0H100.8l716.4 539.76L196.32 0h87.12l566.88 564.24v2.64h-4.56L0 284.16v-71.28l806.88 333.6L0 140.4V66l820.56 481.92L.24 0z" clip-rule="evenodd"/>
</svg>