<?xml version="1.0" encoding="UTF-8"?>
<!DOCTYPE svg PUBLIC "-//W3C//DTD SVG 1.1//EN" "http://www.w3.org/Graphics/SVG/1.1/DTD/svg11.dtd">
<!-- Creator: CorelDRAW -->
<svg xmlns="http://www.w3.org/2000/svg" xml:space="preserve" width="1772px" height="1181px" style="shape-rendering:geometricPrecision; text-rendering:geometricPrecision; image-rendering:optimizeQuality; fill-rule:evenodd; clip-rule:evenodd"
viewBox="0 0 1356.81 904.543"
 xmlns:xlink="http://www.w3.org/1999/xlink">
 <defs>
  <style type="text/css">
   <![CDATA[
    .fil2 {fill:#0000CC}
    .fil0 {fill:#009900}
    .fil1 {fill:white}
   ]]>
  </style>
 </defs>
 <g id="Capa_x0020_1">
  <metadata id="CorelCorpID_0Corel-Layer"/>
  <polygon class="fil0" points="0,0 1356.81,0 1356.81,904.543 0,904.543 "/>
  <polygon class="fil1" points="180.909,180.909 1175.91,452.272 180.909,723.634 "/>
  <path id="text1318" class="fil2" d="M538.093 447.638c31.5478,44.5659 64.531,65.8544 98.9471,63.8698 19.4142,-1.10264 33.0936,-7.50138 41.0355,-19.1944 7.05996,-10.149 10.5895,-26.2535 10.5904,-48.3162 -0.000904543,-16.1045 -5.51681,-28.1286 -16.5477,-36.0705 -10.8102,-8.1626 -27.2457,-12.2448 -49.3076,-12.2448 -20.0772,0 -37.3956,5.73661 -51.9561,17.2089 -5.5159,4.19165 -16.4365,15.7743 -32.7616,34.7471m-32.7626 -40.3734c18.9728,-21.6204 36.7326,-36.7326 53.2794,-45.3375 18.5323,-9.70756 41.1459,-14.5604 67.8416,-14.5613 33.7539,0.000904543 60.8893,9.04543 81.408,27.1363 21.8411,18.9737 32.7616,45.3375 32.7616,79.0923 0,33.9755 -10.0377,60.3394 -30.1141,79.0923 -20.297,18.753 -47.5437,27.7984 -81.7399,27.1363 -27.5777,-0.662126 -51.8457,-9.04453 -72.8049,-25.1508l-45.6677 -45.0064 -2.6476 -2.31563c-16.9882,25.1499 -33.4238,43.021 -49.3085,53.6105 -19.4151,13.2362 -43.021,19.8556 -70.8194,19.8556 -30.8865,0 -57.6918,-10.3697 -80.4157,-31.1081 -23.8257,-21.6195 -35.7403,-48.2049 -35.7403,-79.7536 0,-30.8874 10.7007,-56.2572 32.1004,-76.1137 21.6213,-20.0763 48.536,-30.1141 80.7468,-30.115 24.4887,0.000904543 48.3153,7.50138 71.4806,22.5032 11.4723,7.28067 28.0191,20.9592 49.6395,41.0355m-30.115 39.7122c-18.3107,-18.0918 -30.3357,-29.2321 -36.0705,-33.4247 -18.3125,-13.4569 -36.6231,-20.1858 -54.9347,-20.1858 -18.5323,0 -33.7557,5.7348 -45.6686,17.2071 -11.693,11.4732 -17.5382,26.144 -17.5382,44.0133 0,16.9882 7.27976,30.4469 21.8411,40.3734 12.7957,8.60582 28.0173,12.9069 45.6677,12.9069 29.7839,0 58.6849,-20.297 86.7032,-60.8902z"/>
 </g>
</svg>
