<svg version="1.1" xmlns="http://www.w3.org/2000/svg" xmlns:xlink="http://www.w3.org/1999/xlink" width="2400" height="1600" viewBox="0 0 2400 1600">
<g id="BS">
<path id="Rectángulo-5" d="M0.000,0.000 L1600.000,0.000 L1600.000,1600.000 L0.000,1600.000 L0.000,0.000 z" fill="#DF0030" />
<path id="Rectángulo-5-cop" d="M131.000,131.000 L1470.000,131.000 L1470.000,1470.000 L131.000,1470.000 L131.000,131.000 z" fill="#FFFFFF" />
<g id="Cross">
<path id="Elipse-1" d="M799.000,358.000 C882.590,358.000 953.297,318.867 976.740,265.009 C976.740,265.009 979.009,265.009 979.009,265.009 L798.982,799.991 L618.956,265.009 C618.956,265.009 621.260,265.009 621.260,265.009 C644.703,318.867 715.410,358.000 799.000,358.000 z" fill="#DF0030" />
<path id="Elipse-1" d="M799.000,1242.000 C715.410,1242.000 644.703,1281.133 621.260,1334.991 C621.260,1334.991 618.991,1334.991 618.991,1334.991 L799.018,800.009 L979.044,1334.991 C979.044,1334.991 976.740,1334.991 976.740,1334.991 C953.297,1281.133 882.590,1242.000 799.000,1242.000 z" fill="#DF0030" />
<path id="Elipse-1-copia" d="M264.009,980.044 C264.009,980.044 264.009,977.740 264.009,977.740 C317.867,954.297 357.000,883.590 357.000,800.000 C357.000,716.410 317.867,645.703 264.009,622.260 C264.009,622.260 264.009,619.991 264.009,619.991 L798.991,800.018 L264.009,980.044 z" fill="#DF0030" />
<path id="Elipse-1-copia" d="M1241.000,800.000 C1241.000,883.590 1280.133,954.297 1333.991,977.740 C1333.991,977.740 1333.991,980.009 1333.991,980.009 L799.009,799.982 L1333.991,619.956 C1333.991,619.956 1333.991,622.260 1333.991,622.260 C1280.133,645.703 1241.000,716.410 1241.000,800.000 z" fill="#DF0030" />
</g>
<path id="Rectángulo-6" d="M1600.000,-0.000 L2400.000,-0.000 L2400.000,266.667 L1600.000,266.667 L1600.000,-0.000 z" fill="#103A8D" />
<path id="Rectángulo-6" d="M1600.000,266.667 L2400.000,266.667 L2400.000,533.333 L1600.000,533.333 L1600.000,266.667 z" fill="#FFED00" />
<path id="Rectángulo-6" d="M1600.000,533.333 L2400.000,533.333 L2400.000,800.000 L1600.000,800.000 L1600.000,533.333 z" fill="#DF0030" />
<path id="Rectángulo-6-cop" d="M1600.000,800.000 L2400.000,800.000 L2400.000,1066.667 L1600.000,1066.667 L1600.000,800.000 z" fill="#103A8D" />
<path id="Rectángulo-6-cop" d="M1600.000,1066.667 L2400.000,1066.667 L2400.000,1333.333 L1600.000,1333.333 L1600.000,1066.667 z" fill="#FFED00" />
<path id="Rectángulo-6-cop" d="M1600.000,1333.333 L2400.000,1333.333 L2400.000,1600.000 L1600.000,1600.000 L1600.000,1333.333 z" fill="#DF0030" />
</g>
</svg>
