<?xml version="1.0" encoding="UTF-8"?>
<svg id="svg150" width="900" height="600" version="1.1" viewBox="0 0 900 600" xml:space="preserve" xmlns="http://www.w3.org/2000/svg"><g id="CBFA-(USA,-DE,-D" transform="scale(.375)"><path id="path132" d="m0 0h2400v1600h-2400z" fill="#3399ff"/><g fill="#000066"><path id="path134" d="m0 800h2400v200h-2400z"/><path id="path136" d="m0 1200h2400v200h-2400z"/><g id="g147"><path id="path138" d="m1200 426.666 36.6664 109.086 110 2.95698-87.3385 70.3765 31.3166 110.914-90.6447-65.5914-90.6448 65.5914 31.3167-110.914-87.3386-70.3765 110-2.95698z"/><path id="path147" d="m746.667 253.333-36.6664 109.086-110 2.95698 87.3385 70.3765-31.3166 110.914 90.6448-65.5914 90.6448 65.5914-31.3166-110.914 87.3385-70.3765-110-2.95698z"/><path id="path141" d="m293.333 80-36.6664 109.086-110 2.95696 87.3385 70.3764-31.3166 110.914 90.6448-65.5912 90.6448 65.5912-31.3166-110.914 87.3385-70.3764-110-2.95696z"/><path id="path143" d="m1653.33 253.333 36.6664 109.086 110 2.95698-87.3386 70.3765 31.3167 110.914-90.6448-65.5914-90.6448 65.5914 31.3167-110.914-87.3386-70.3765 110-2.95698z"/><path id="path145" d="m2106.67 80 36.6664 109.086 110 2.95696-87.3385 70.3764 31.3166 110.914-90.6448-65.5912-90.6448 65.5912 31.3167-110.914-87.3386-70.3764 110-2.95696z"/></g></g></g></svg>
