<svg version="1.1" xmlns="http://www.w3.org/2000/svg" xmlns:xlink="http://www.w3.org/1999/xlink" width="2400" height="1600" viewBox="0 0 2400 1600">
<g id="CEBED-(Belgium)">
<path id="Rectángulo-7" d="M800.000,0.000 L2400.000,0.000 L2400.000,1600.000 L800.000,1600.000 L800.000,0.000 z" fill="#000066" />
<path id="Forma-1" d="M2099.831,817.308 L2117.467,871.700 L2071.296,838.084 L2025.126,871.700 L2042.761,817.308 L1996.591,783.692 L2053.661,783.692 L2071.296,729.300 L2088.932,783.692 L2146.001,783.692 L2099.831,817.308 zM2054.324,635.551 L2008.154,601.934 L1961.984,635.551 L1979.620,581.159 L1933.449,547.543 L1990.519,547.543 L2008.154,493.151 L2025.790,547.543 L2082.859,547.543 L2036.689,581.159 L2054.324,635.551 zM1881.818,1280.722 L1835.648,1247.106 L1789.478,1280.722 L1807.113,1226.330 L1760.943,1192.714 L1818.012,1192.714 L1835.648,1138.323 L1853.283,1192.714 L1910.353,1192.714 L1864.183,1226.330 L1881.818,1280.722 zM1881.818,462.677 L1835.648,429.061 L1789.478,462.677 L1807.113,408.285 L1760.943,374.669 L1818.012,374.669 L1835.648,320.278 L1853.283,374.669 L1910.353,374.669 L1864.183,408.285 L1881.818,462.677 zM1646.170,1343.998 L1599.999,1310.382 L1553.829,1343.998 L1571.464,1289.607 L1525.294,1255.991 L1582.364,1255.991 L1599.999,1201.599 L1617.635,1255.991 L1674.704,1255.991 L1628.534,1289.606 L1646.170,1343.998 zM1646.170,399.401 L1599.999,365.785 L1553.829,399.401 L1571.464,345.010 L1525.294,311.394 L1582.364,311.394 L1599.999,257.002 L1617.635,311.394 L1674.704,311.394 L1628.534,345.009 L1646.170,399.401 zM1410.521,1280.722 L1364.351,1247.106 L1318.180,1280.722 L1335.816,1226.330 L1289.645,1192.714 L1346.715,1192.714 L1364.351,1138.323 L1381.986,1192.714 L1439.056,1192.714 L1392.885,1226.330 L1410.521,1280.722 zM1410.521,462.677 L1364.351,429.061 L1318.180,462.677 L1335.816,408.285 L1289.645,374.669 L1346.715,374.669 L1364.351,320.278 L1381.986,374.669 L1439.056,374.669 L1392.885,408.285 L1410.521,462.677 zM1238.014,1107.849 L1191.844,1074.233 L1145.674,1107.849 L1163.309,1053.457 L1117.139,1019.841 L1174.208,1019.841 L1191.844,965.450 L1209.479,1019.841 L1266.549,1019.841 L1220.379,1053.457 L1238.014,1107.849 zM1238.014,635.551 L1191.844,601.934 L1145.674,635.551 L1163.309,581.159 L1117.139,547.543 L1174.208,547.543 L1191.844,493.151 L1209.479,547.543 L1266.549,547.543 L1220.379,581.159 L1238.014,635.551 zM1146.337,783.692 L1203.407,783.692 L1157.237,817.308 L1174.872,871.700 L1128.702,838.084 L1082.532,871.700 L1100.167,817.308 L1053.997,783.692 L1111.067,783.692 L1128.702,729.300 L1146.337,783.692 zM1990.519,1019.841 L2008.154,965.450 L2025.790,1019.841 L2082.859,1019.841 L2036.689,1053.457 L2054.324,1107.849 L2008.154,1074.233 L1961.984,1107.849 L1979.620,1053.457 L1933.449,1019.841 L1990.519,1019.841 z" fill="#FFCC00" />
<path id="Rectángulo-8" d="M-0.000,0.000 L266.667,0.000 L266.667,1600.000 L-0.000,1600.000 L-0.000,0.000 z" fill="#000000" />
<path id="Rectángulo-8" d="M266.667,0.000 L533.333,0.000 L533.333,1600.000 L266.667,1600.000 L266.667,0.000 z" fill="#FAE042" />
<path id="Rectángulo-8" d="M533.333,0.000 L800.000,0.000 L800.000,1600.000 L533.333,1600.000 L533.333,0.000 z" fill="#ED2939" />
</g>
</svg>
