<svg version="1.1" xmlns="http://www.w3.org/2000/svg" xmlns:xlink="http://www.w3.org/1999/xlink" width="2400" height="2400" viewBox="0 0 2400 2400">
<g id="CFA">
<path id="Rectángulo-2" d="M1200.000,-0.000 L2400.000,-0.000 L2400.000,2400.000 L1200.000,2400.000 L1200.000,-0.000 z" fill="#FFFFFF" />
<path id="Rectángulo-2-cop" d="M-0.000,-0.000 L1200.000,-0.000 L1200.000,2400.000 L-0.000,2400.000 L-0.000,-0.000 z" fill="#FF0000" />
<path id="Rectángulo-2-cop" d="M1200.000,293.000 L2108.000,293.000 L2108.000,2108.000 L1200.000,2108.000 L1200.000,293.000 z" fill="#FF0000" />
<path id="Rectángulo-2-cop" d="M293.000,293.000 L1201.000,293.000 L1201.000,2108.000 L293.000,2108.000 L293.000,293.000 z" fill="#FFFFFF" />
<path id="Rectángulo-1" d="M1779.458,1184.510 C1854.000,1215.806 1854.000,1215.806 1854.000,1215.806 C1854.000,1215.806 1523.132,1456.697 1523.132,1456.697 C1515.535,1462.242 1512.707,1471.521 1516.100,1479.774 C1556.887,1580.935 1556.887,1580.935 1556.887,1580.935 C1556.887,1580.935 1254.852,1533.200 1254.852,1533.200 C1244.880,1531.658 1234.668,1534.263 1227.083,1540.284 C1219.497,1546.305 1215.357,1555.093 1215.823,1564.181 C1231.645,1837.000 1231.645,1837.000 1231.645,1837.000 L1200.000,1837.000 L1200.000,563.000 C1200.000,563.000 1316.735,769.116 1316.735,769.116 C1319.565,774.202 1324.612,778.006 1330.675,779.623 C1336.738,781.241 1343.276,780.527 1348.732,777.652 C1463.710,717.903 1463.710,717.903 1463.710,717.903 C1463.710,717.903 1391.981,1050.471 1391.981,1050.471 C1390.063,1059.435 1394.952,1068.462 1403.984,1072.632 C1413.016,1076.802 1424.024,1075.115 1431.010,1068.490 C1579.742,924.968 1579.742,924.968 1579.742,924.968 C1579.742,924.968 1616.661,1003.052 1616.661,1003.052 C1620.949,1012.036 1631.684,1017.060 1642.329,1015.065 C1832.903,978.710 1832.903,978.710 1832.903,978.710 C1832.903,978.710 1767.503,1159.535 1767.503,1159.535 C1763.917,1169.379 1769.041,1180.084 1779.458,1184.510 z" fill="#FFFFFF" />
<path id="Rectángulo-1-cop" d="M1200.000,1837.000 L1168.355,1837.000 C1168.355,1837.000 1168.355,1837.000 1184.177,1564.181 C1184.643,1555.093 1180.503,1546.305 1172.917,1540.284 C1165.332,1534.263 1155.120,1531.658 1145.148,1533.200 C1145.148,1533.200 843.113,1580.935 843.113,1580.935 C843.113,1580.935 843.113,1580.935 883.900,1479.774 C887.293,1471.521 884.465,1462.242 876.868,1456.697 C876.868,1456.697 546.000,1215.806 546.000,1215.806 C546.000,1215.806 546.000,1215.806 620.542,1184.510 C630.959,1180.084 636.083,1169.379 632.497,1159.535 C632.497,1159.535 567.097,978.710 567.097,978.710 C567.097,978.710 567.097,978.710 757.671,1015.065 C768.316,1017.060 779.051,1012.036 783.339,1003.052 C783.339,1003.052 820.258,924.968 820.258,924.968 C820.258,924.968 820.258,924.968 968.990,1068.490 C975.976,1075.115 986.984,1076.802 996.016,1072.632 C1005.048,1068.462 1009.937,1059.435 1008.019,1050.471 C1008.019,1050.471 936.290,717.903 936.290,717.903 C936.290,717.903 936.290,717.903 1051.268,777.652 C1056.724,780.527 1063.262,781.241 1069.325,779.623 C1075.388,778.006 1080.435,774.202 1083.265,769.116 C1083.265,769.116 1200.000,563.000 1200.000,563.000 L1200.000,1837.000 z" fill="#FF0000" />
</g>
</svg>
