<svg version="1.1" xmlns="http://www.w3.org/2000/svg" xmlns:xlink="http://www.w3.org/1999/xlink" width="2400" height="1600" viewBox="0 0 2400 1600">
<g id="CISV-(Italy)">
<path id="Rectángulo-719" d="M-2.000,-1.000 L1198.000,-1.000 L1198.000,799.000 L-2.000,799.000 L-2.000,-1.000 z" fill="#006600" />
<path id="Rectángulo-719" d="M1200.000,800.000 L2400.000,800.000 L2400.000,1600.000 L1200.000,1600.000 L1200.000,800.000 z" fill="#006600" />
<path id="Rectángulo-719" d="M1200.000,-1.000 L2400.000,-1.000 L2400.000,799.000 L1200.000,799.000 L1200.000,-1.000 z" fill="#FF0000" />
<path id="Rectángulo-719" d="M-2.000,800.000 L1198.000,800.000 L1198.000,1600.000 L-2.000,1600.000 L-2.000,800.000 z" fill="#FF0000" />
<path id="Rectángulo-717" d="M-0.000,613.000 L2400.000,613.000 L2400.000,987.000 L-0.000,987.000 L-0.000,613.000 z" fill="#FFFFFF" />
<path id="Rectángulo-717-c" d="M1011.000,-1.000 L1385.000,-1.000 L1385.000,1600.000 L1011.000,1600.000 L1011.000,-1.000 z" fill="#FFFFFF" />
<g id="Elipse-721" >
<path id="Elipse-721-fill" d="M1201.000,412.000 C1287.916,412.189 1357.450,469.862 1396.000,516.000 C1439.441,567.991 1462.542,633.858 1466.000,700.000 C1467.932,736.963 1462.544,769.262 1453.000,809.000 C1434.047,887.909 1404.520,957.252 1368.000,1017.000 C1323.834,1089.259 1267.026,1153.022 1200.000,1206.000 C1131.918,1152.578 1074.390,1088.143 1030.000,1015.000 C991.620,951.761 963.230,882.153 947.000,809.000 C937.668,766.940 933.906,734.277 936.000,700.000 C940.468,626.846 965.537,563.600 1005.000,516.000 C1041.172,472.369 1111.166,411.805 1201.000,412.000 z" fill="#006600" />
<path id="Elipse-721-stroke" d="M1201.000,412.000 C1287.916,412.189 1357.450,469.862 1396.000,516.000 C1439.441,567.991 1462.542,633.858 1466.000,700.000 C1467.932,736.963 1462.544,769.262 1453.000,809.000 C1434.047,887.909 1404.520,957.252 1368.000,1017.000 C1323.834,1089.259 1267.026,1153.022 1200.000,1206.000 C1131.918,1152.578 1074.390,1088.143 1030.000,1015.000 C991.620,951.761 963.230,882.153 947.000,809.000 C937.668,766.940 933.906,734.277 936.000,700.000 C940.468,626.846 965.537,563.600 1005.000,516.000 C1041.172,472.369 1111.166,411.805 1201.000,412.000 z" fill="none" stroke="#FFFF00" stroke-width="15" stroke-linecap="round" stroke-linejoin="round" />
</g>
<g id="Grupo-10">
<g id="Grupo-9">
<path id="Forma-689" d="M1201.156,1157.505 C1197.928,1055.724 1188.366,954.146 1172.133,859.528 C1154.531,756.936 1130.449,683.573 1072.051,620.546 C1052.394,599.332 1030.298,580.880 1006.033,565.118 C993.241,584.557 983.151,605.483 975.972,627.546 C965.496,659.741 961.482,693.602 963.962,727.538 C978.582,737.108 992.595,747.440 1005.996,758.536 C1118.342,851.546 1181.069,992.864 1201.156,1157.505 z" fill="#FFFF00" />
<path id="Forma-689-copia" d="M1201.156,1157.505 C1204.388,1055.799 1213.962,954.296 1230.214,859.748 C1247.837,757.232 1271.947,683.923 1330.415,620.943 C1350.094,599.745 1372.217,581.306 1396.511,565.555 C1409.318,584.980 1419.420,605.891 1426.607,627.937 C1437.095,660.109 1441.114,693.944 1438.631,727.856 C1423.994,737.419 1409.965,747.743 1396.547,758.830 C1284.069,851.772 1221.268,992.986 1201.156,1157.505 z" fill="#FFFF00" />
</g>
<path id="Forma-695-copia" d="M1200.156,705.540 C1196.310,705.745 1192.168,702.991 1191.149,699.540 C1190.022,695.724 1194.610,689.268 1195.152,687.541 C1196.921,681.905 1195.119,673.460 1195.152,670.542 C1195.186,667.546 1196.094,660.196 1196.153,659.543 C1197.322,646.678 1197.493,639.363 1195.152,638.545 C1194.280,638.240 1192.504,639.186 1190.148,641.545 C1186.776,644.920 1185.552,648.729 1183.142,651.544 C1179.826,655.418 1174.413,658.278 1169.131,658.543 C1161.718,658.916 1157.866,653.668 1150.115,652.544 C1147.017,652.094 1143.554,652.139 1140.107,652.544 C1136.537,652.963 1133.826,653.703 1133.101,652.544 C1131.977,650.746 1136.349,645.527 1139.106,642.545 C1141.178,640.303 1143.501,638.116 1143.110,635.545 C1142.770,633.318 1140.467,631.633 1138.106,630.545 C1133.912,628.615 1131.012,629.927 1127.097,628.546 C1124.291,627.556 1121.655,625.907 1120.091,623.546 C1117.937,620.295 1118.830,616.562 1116.088,613.547 C1114.942,612.288 1113.065,611.295 1110.083,610.547 C1104.781,609.217 1100.128,609.063 1097.072,609.547 C1095.042,609.869 1093.732,610.287 1093.069,609.547 C1091.570,607.876 1094.723,601.796 1099.074,597.548 C1103.397,593.327 1107.389,592.473 1113.085,589.549 C1116.336,587.880 1119.637,585.845 1121.092,584.549 C1123.838,582.103 1125.462,579.696 1129.098,578.550 C1131.983,577.640 1134.300,578.082 1137.105,578.550 C1143.255,579.574 1148.156,579.666 1151.116,578.550 C1153.264,577.739 1155.660,576.270 1158.122,573.550 C1160.257,571.191 1163.126,565.927 1164.127,558.551 C1164.257,557.590 1163.791,548.714 1166.128,543.552 C1167.645,540.204 1170.097,538.451 1172.133,535.553 C1174.444,532.264 1175.448,529.537 1178.138,527.553 C1180.343,525.928 1182.046,525.601 1183.142,523.554 C1184.827,520.409 1182.801,516.495 1183.142,513.555 C1183.446,510.935 1185.431,506.801 1190.148,502.555 C1192.349,500.575 1194.533,499.329 1195.152,496.556 C1195.513,494.940 1195.173,493.607 1196.153,492.556 C1197.007,491.641 1198.444,491.387 1200.156,491.556 C1201.944,491.932 1203.626,492.589 1205.160,493.556 C1207.979,495.331 1208.961,497.390 1211.165,500.556 C1213.538,503.964 1215.885,505.839 1216.169,508.555 C1216.515,511.851 1214.421,514.015 1215.169,517.554 C1215.670,519.925 1217.085,521.432 1218.171,522.554 C1222.945,527.487 1229.198,533.616 1233.183,540.552 C1235.414,544.435 1236.938,548.699 1237.187,550.552 C1237.926,556.069 1234.543,562.372 1237.187,567.550 C1238.866,570.840 1242.594,573.547 1246.194,573.550 C1249.810,573.553 1251.948,570.505 1255.201,569.550 C1260.667,567.946 1265.732,570.021 1268.212,571.550 C1271.009,573.275 1273.005,576.386 1274.217,577.550 C1277.979,581.158 1281.563,582.926 1284.225,583.549 C1286.133,583.996 1290.959,583.518 1294.233,585.549 C1297.569,587.618 1297.956,591.050 1300.238,593.548 C1302.775,596.325 1308.464,598.430 1308.245,600.548 C1308.131,601.651 1306.833,602.639 1304.242,603.548 C1301.201,604.614 1298.833,603.961 1296.235,604.548 C1292.798,605.323 1290.537,606.701 1289.229,608.547 C1287.901,610.423 1288.011,612.410 1286.227,614.547 C1285.531,615.380 1284.872,615.675 1284.225,616.547 C1282.748,618.538 1282.796,620.471 1282.224,623.546 C1281.769,625.988 1281.065,627.706 1280.222,628.546 C1278.683,630.079 1276.618,630.404 1274.217,630.545 C1271.254,630.720 1268.094,631.038 1265.210,631.545 C1261.516,632.195 1258.962,633.546 1258.204,634.545 C1256.336,637.007 1257.131,640.520 1258.204,645.544 C1259.163,650.036 1259.749,653.366 1258.204,654.544 C1257.547,655.045 1255.321,654.830 1252.199,653.544 C1250.274,652.750 1248.973,651.797 1247.195,651.544 C1243.253,650.983 1239.739,653.235 1238.188,654.544 C1236.992,655.552 1236.377,656.531 1235.185,657.543 C1232.786,659.580 1230.159,660.479 1229.180,660.543 C1227.749,660.637 1225.650,660.260 1223.175,658.543 C1220.337,656.575 1219.988,654.543 1217.170,652.544 C1215.826,651.590 1214.119,651.032 1213.167,650.544 C1210.547,649.200 1208.015,647.469 1207.162,646.544 C1203.921,643.031 1203.532,638.486 1203.159,638.545 C1202.659,638.623 1202.337,646.508 1205.160,655.544 C1205.914,657.955 1206.470,660.081 1207.162,662.543 C1208.054,665.716 1208.319,668.637 1208.163,670.542 C1207.994,672.608 1206.629,675.545 1207.162,678.542 C1207.829,682.289 1210.742,684.235 1212.166,687.541 C1213.722,691.153 1213.596,694.255 1213.167,695.540 C1212.361,697.958 1210.328,699.204 1207.162,701.540 C1204.196,703.728 1202.350,705.423 1200.156,705.540 z" fill="#FFFF00" />
<g id="Forma-697" >
<path id="Forma-697-stroke" d="M1199.156,640.545 C1198.149,631.853 1197.488,623.272 1197.154,614.547 C1196.776,604.679 1198.826,597.152 1197.154,588.549 C1196.494,585.155 1194.849,578.313 1198.155,571.550 C1199.321,569.163 1202.305,566.636 1205.160,563.551 C1208.243,560.221 1210.792,557.392 1215.169,556.551 C1216.820,556.234 1218.497,556.248 1220.173,556.551 " fill="none" stroke="#006600" stroke-width="3" stroke-linecap="round" stroke-linejoin="round" />
</g>
<g id="Forma-704" >
<path id="Forma-704-stroke" d="M1198.155,600.548 C1200.930,598.806 1203.622,598.052 1206.161,598.548 C1210.586,599.412 1212.162,603.794 1216.169,605.547 C1220.276,607.344 1225.938,605.442 1229.180,605.547 C1233.173,605.677 1235.935,606.990 1240.189,606.547 C1242.583,606.298 1248.110,604.622 1253.200,601.548 C1254.982,600.471 1257.951,597.664 1261.206,596.548 C1266.337,594.789 1270.803,596.161 1278.220,597.548 C1280.215,597.921 1282.183,598.248 1284.225,598.548 " fill="none" stroke="#006600" stroke-width="3" stroke-linecap="round" stroke-linejoin="round" />
</g>
<g id="Forma-708" >
<path id="Forma-708-stroke" d="M1219.172,605.547 C1220.296,607.140 1221.298,608.807 1222.174,610.547 C1223.600,613.376 1223.864,615.664 1225.177,618.546 C1226.631,621.738 1228.020,623.618 1227.179,625.546 C1226.324,627.503 1223.784,627.671 1222.174,629.546 C1220.778,631.173 1220.050,633.397 1220.173,635.545 C1220.277,637.374 1220.992,639.105 1222.174,640.545 " fill="none" stroke="#006600" stroke-width="3" stroke-linecap="round" stroke-linejoin="round" />
</g>
<g id="Forma-709" >
<path id="Forma-709-stroke" d="M1227.179,619.546 C1229.214,623.680 1231.845,626.502 1235.185,627.546 C1238.366,628.540 1243.319,627.017 1244.192,628.546 C1244.811,629.628 1243.088,631.424 1243.192,633.545 C1243.242,634.580 1243.588,635.579 1244.192,636.545 " fill="none" stroke="#006600" stroke-width="3" stroke-linecap="round" stroke-linejoin="round" />
</g>
<g id="Forma-710" >
<path id="Forma-710-stroke" d="M1198.155,599.548 C1196.289,602.115 1193.917,603.925 1191.149,604.548 C1187.623,605.340 1184.542,603.509 1179.139,600.548 C1173.204,597.295 1169.818,595.569 1168.130,591.549 C1167.466,589.966 1167.146,588.287 1167.129,586.549 " fill="none" stroke="#006600" stroke-width="3" stroke-linecap="round" stroke-linejoin="round" />
</g>
<g id="Forma-711" >
<path id="Forma-711-stroke" d="M1182.142,602.548 C1181.076,606.913 1179.454,610.625 1177.138,613.547 C1176.470,614.389 1174.950,616.363 1174.135,618.546 C1173.498,620.254 1173.171,622.077 1173.134,624.546 C1173.080,628.235 1173.954,631.233 1174.135,634.545 C1174.207,635.864 1174.207,637.196 1174.135,638.545 " fill="none" stroke="#006600" stroke-width="3" stroke-linecap="round" stroke-linejoin="round" />
</g>
<g id="Forma-712" >
<path id="Forma-712-stroke" d="M1173.134,626.546 C1169.823,625.901 1166.430,625.899 1163.126,626.546 C1160.309,627.097 1157.610,628.110 1155.119,629.546 " fill="none" stroke="#006600" stroke-width="3" stroke-linecap="round" stroke-linejoin="round" />
</g>
<g id="Forma-713" >
<path id="Forma-713-stroke" d="M1173.134,597.548 C1171.476,599.610 1169.458,601.310 1167.129,602.548 C1165.466,603.432 1163.552,604.113 1161.124,604.548 C1155.683,605.522 1150.954,604.286 1146.112,604.548 C1143.618,604.682 1141.343,605.053 1139.106,606.547 C1136.721,608.141 1135.054,610.596 1134.102,613.547 " fill="none" stroke="#006600" stroke-width="3" stroke-linecap="round" stroke-linejoin="round" />
</g>
<g id="Forma-714" >
<path id="Forma-714-stroke" d="M1149.115,604.548 C1146.020,604.330 1143.557,603.414 1142.109,601.548 C1140.783,599.839 1140.333,596.209 1140.107,595.548 C1139.633,594.160 1138.967,592.831 1138.106,591.549 " fill="none" stroke="#006600" stroke-width="3" stroke-linecap="round" stroke-linejoin="round" />
</g>
<g id="Forma-715" >
<path id="Forma-715-stroke" d="M1159.123,606.547 C1158.978,607.611 1158.644,608.624 1158.122,609.547 C1157.035,611.470 1155.227,612.842 1153.118,613.547 " fill="none" stroke="#006600" stroke-width="3" stroke-linecap="round" stroke-linejoin="round" />
</g>
<g id="Forma-705" >
<path id="Forma-705-stroke" d="M1259.205,596.548 L1264.209,589.549 " fill="none" stroke="#006600" stroke-width="3" stroke-linecap="round" stroke-linejoin="round" />
</g>
<g id="Forma-707" >
<path id="Forma-707-stroke" d="M1256.202,600.548 C1258.243,599.819 1260.028,599.683 1261.206,600.548 C1263.138,601.965 1262.905,608.278 1263.208,609.547 C1263.617,611.262 1264.283,612.924 1265.210,614.547 " fill="none" stroke="#006600" stroke-width="3" stroke-linecap="round" stroke-linejoin="round" />
</g>
<g id="Forma-705" >
<path id="Forma-705-stroke" d="M1221.174,604.548 C1227.219,605.081 1232.152,602.493 1234.184,598.548 C1235.114,596.742 1235.425,594.681 1235.185,592.548 " fill="none" stroke="#006600" stroke-width="3" stroke-linecap="round" stroke-linejoin="round" />
</g>
<g id="Forma-702" >
<path id="Forma-702-stroke" d="M1197.154,582.549 C1195.888,578.164 1193.905,574.495 1191.149,571.550 C1188.263,568.466 1184.992,566.613 1184.143,562.551 C1183.666,560.267 1184.080,557.908 1185.144,555.551 " fill="none" stroke="#006600" stroke-width="3" stroke-linecap="round" stroke-linejoin="round" />
</g>
<g id="Forma-703" >
<path id="Forma-703-stroke" d="M1184.143,562.551 C1182.113,560.868 1180.418,558.843 1179.139,556.551 C1178.260,554.977 1177.590,553.301 1177.138,551.552 " fill="none" stroke="#006600" stroke-width="3" stroke-linecap="round" stroke-linejoin="round" />
</g>
<g id="Forma-699" >
<path id="Forma-699-stroke" d="M1206.161,560.551 C1205.485,556.022 1204.164,551.666 1202.158,547.552 C1201.259,545.707 1199.096,542.390 1197.154,539.553 C1195.626,537.320 1193.894,534.910 1192.150,532.553 C1191.524,531.707 1190.154,529.892 1189.147,528.553 C1188.145,527.221 1187.146,525.890 1186.145,524.554 " fill="none" stroke="#006600" stroke-width="3" stroke-linecap="round" stroke-linejoin="round" />
</g>
<g id="Forma-700" >
<path id="Forma-700-stroke" d="M1194.151,533.553 C1196.035,530.666 1197.375,527.675 1198.155,524.554 C1199.019,521.092 1199.136,518.104 1201.157,514.554 C1201.991,513.090 1202.999,511.758 1204.160,510.555 " fill="none" stroke="#006600" stroke-width="3" stroke-linecap="round" stroke-linejoin="round" />
</g>
<g id="Forma-701" >
<path id="Forma-701-stroke" d="M1194.151,533.553 C1196.749,530.464 1200.223,528.291 1204.160,527.553 C1206.139,527.183 1208.163,527.188 1210.165,527.553 " fill="none" stroke="#006600" stroke-width="3" stroke-linecap="round" stroke-linejoin="round" />
</g>
</g>
</g>
</svg>
