<svg xmlns="http://www.w3.org/2000/svg" xml:space="preserve" height="2835" width="4252">
  <path style="fill:#fdfdfd;stroke-width:1" d="M0 1417.5V0h4252v2835H0Z"/>
  <path d="M2562.6034 487.9314c.2248.273.4485.5465.6728.8198-.2243-.2733-.4479-.5468-.6728-.8198zm1.6076 1.9602c.2808.3438.5606.688.8406 1.0322-.28-.3442-.5597-.6884-.8406-1.0322zm1.6074 1.976c.3053.3768.6097.7541.9139 1.1314-.3043-.3773-.6086-.7546-.9139-1.1314zm1.565 1.94c.3419.4256.6831.8515 1.0237 1.2777-.3406-.4261-.6817-.8521-1.0237-1.2777zm1.517 1.8961c.3888.4879.7769.9761 1.1639 1.4649-.387-.4887-.775-.977-1.1639-1.4649zm1.4252 1.7953c29.0836 36.7829 53.0474 75.8347 71.4774 116.501 8.1048 17.8836 15.1925 35.8425 21.291 53.991-20.3997-61.2729-51.3078-118.0681-92.7684-170.492zM2483.0625 748.5l-108.9873 79c-59.9431 43.45-109.0002 79.45-109.0152 80-.015.55 18.6133 59.039 41.3971 129.9756 22.7837 70.9366 41.3389 129.0452 41.2339 129.1312-.1051.085-49.8945-35.9876-110.6431-80.1625l-110.4522-80.3179-4.5478 3.3257c-82.2373 60.1362-215.594 156.4095-215.8002 155.7911-.1529-.4588 18.1789-58.3227 40.7373-128.5866 22.5583-70.2638 41.0046-128.2933 40.9926-128.9545-.012-.6612-49.0316-36.7521-108.9315-80.2021l-103.9857-75.4289 61.0097 44.2832c36.2615 26.3198 65.9299 48.0323 65.9299 48.25 0 .2177-77.175.3957-171.5.3957h-171.3519c.018 3.5801.063 7.2395.1344 11 .972 51.3327 7.5403 95.5933 21.2224 143.0062 21.6457 75.0097 58.0832 143.2092 109.5531 205.0491 12.7747 15.3485 49.2846 52.1133 65.442 65.8988 88.8226 75.7838 198.1188 122.2483 314 133.4894 8.8.8536 18.25 1.7241 21 1.9344 13.201 1.0096 77.7736-.2787 92-1.8355 131.3853-14.3776 246.6704-68.0976 339.443-158.1719 48.2178-46.8152 84.4926-96.9877 114.1389-157.8684 29.8013-61.1987 46.5829-121.1689 53.5888-191.5021 1.2098-12.148 1.8112-31.5675 1.8059-51.0002l-170.0772-.0316c-154.2964-.0287-170.7055-.1818-168.8998-1.5762 1.1-.8495 30.9291-22.5476 66.2871-48.2182L2483.074 748.5Zm-916.45 4c-2.8477 17.1173-4.7994 32.4359-5.9925 47.8894 1.3131-15.4965 3.3761-32.1627 5.9925-47.8894zm1119.2928 11.3504c2.2268 15.3628 3.8456 30.9744 4.8697 46.8939-.2871-6.3624-.6618-12.0811-1.125-16.7443-1.0085-10.1538-2.2572-20.2033-3.7447-30.1496zm-76.9943 1391.8945-7.2057 3.2721c-17.3411 7.8747-102.2583 51.4097-110.6135 56.709-2.3766 1.5073-2.2585 1.6042 9 7.3832 85.6411 43.9594 164.3736 74.7354 236.2696 92.3566 42.1744 10.3366 73.5232 14.9985 120.1386 17.866 2.75.1692 317.8625.3889 700.25.4879L4252 2334v-106h-693.25c-467.3313 0-697.8124-.3409-707.25-1.0375-64.302-4.746-134.4432-24.4721-222.7947-62.658zm392.2142 4.2375-.6756 4.7588c-.3716 2.6173-1.5246 8.9708-2.5625 14.1189-1.0379 5.148-1.8871 9.5356-1.8871 9.75 0 .2144 24.2465.3899 53.8809.3899h53.8809l1.5882-10.75c.8736-5.9125 1.7148-12.325 1.8692-14.25l.2808-3.5-53.1875-.2588zm-1857.1488.018.5074 3.75c2.8642 21.168 4.016 28.4321 6.1438 38.75 22.0207 106.7811 86.0243 203.2226 177.3724 267.2672 68.3372 47.9115 152.4398 76.0538 242.5 81.1449v-.01c109.6759 6.2001 230.4589-21.7613 370.7672-85.833 21.4783-9.808 67.3842-32.0988 73.5672-35.7223 5.4251-3.1793 6.4891-2.4534-16.1072-10.9894-45.179-17.0669-83.9959-28.7033-121.4985-36.4225l-9.2712-1.9084-16.8278 6.9391c-131.9699 54.4166-235.0046 70.1441-333.7435 50.9435-55.7164-10.8345-107.3436-34.4484-149.8862-68.5566-14.2108-11.3934-36.7196-33.8838-47.9017-47.8625-35.0047-43.7595-58.2148-95.0592-66.8463-147.7457L1250.5 2160h-53.2619zM0 2228v106h571c314.05 0 571-.1408 571-.3127 0-.172-3.3198-7.4845-7.3773-16.25-12.3803-26.7457-20.5278-48.6168-27.6949-74.3436L1102.7229 2228H551.3614Zm1477.6944.1977c-90.0967-.013-153.6944.1505-153.6944.4371 0 .3821 3.1128 6.6442 6.9174 13.9156 17.2916 33.0477 41.7645 63.1393 69.7184 85.725l7.0179 5.6701 207.9231.3152c190.1306.2883 209.164.4641 222.4232 2.0553 46.1251 5.5355 84.0074 14.26 133 30.6303 37.0237 12.371 65.9203 23.7625 143.8782 56.7195 75.0715 31.7369 108.0625 44.9073 148.1218 59.1315 117.884 41.8583 226.1018 63.2996 344.2246 68.2017 27.4915 1.141 72.7828.413 92.2754-1.4832 62.0885-6.0398 114.6919-20.5562 165.9481-45.7949 43.5995-21.4685 77.8949-45.6343 112.4222-79.2168 15.4055-14.9838 40.2179-42.9997 44.5084-50.2545.5886-.9953-13.992-1.2475-71.5697-1.2365l-72.309.014-11.5 8.2409c-57.2036 40.9919-125.3813 62.2506-206.5 64.3896-77.602 2.0463-172.0335-8.8412-254-29.2851-72.9781-18.2021-130.6563-39.1189-261.5-94.8321-130.7855-55.6883-194.8398-76.2424-272.5-87.4414-40.1035-5.7833-23.9667-5.4668-297.25-5.8273-34.5468-.046-67.5234-.069-97.5556-.074z" style="fill:#e0251b;stroke-width:1"/>
  <path style="fill:#0032a0;stroke-width:1" d="M2182.5 2294.8908c-22-9.3535-49.3263-20.9065-60.7251-25.6734-11.3989-4.7669-20.3989-8.9674-20-9.3345.3988-.3671 15.5751-9.326 33.7251-19.9088 18.15-10.5827 69.9-41.3911 115-68.463 138.0182-82.8475 189.1933-111.9933 254.5-144.9455 112.0051-56.5153 206.1504-89.1655 294-101.9611 18.9483-2.7599 50.2919-5.6045 61.754-5.6045h5.3543l10.0994 9.75c24.3972 23.5531 43.5057 49.5787 58.8452 80.1467 3.8209 7.6141 6.9471 14.3522 6.9471 14.9736 0 .8219-11.6458 1.1306-42.75 1.1331-23.5125 0-47.925.4651-54.25 1.0293-106.7888 9.5262-234.2596 59.9619-422 166.9706-41.0989 23.4257-182.7092 107.3161-198.5 117.5922-1.7728 1.1537-6.5443-.6305-42-15.7047zm31.4704-235.6993c-32.7414-19.6303-71.5267-42.6665-86.1898-51.1915-14.6631-8.525-26.3497-15.765-25.9704-16.0888.3794-.3238 15.9898-7.0273 34.6898-14.8965 18.7-7.8693 45.6119-19.2175 59.8042-25.2182l25.8041-10.9105 54.1959 32.3973c29.8077 17.8185 65.1224 38.83 78.4772 46.6922 13.3548 7.8622 24.1548 14.3933 24 14.5135-.1548.1201-9.0564 5.3097-19.7814 11.5324-10.725 6.2227-33.7743 19.7885-51.2207 30.1463-17.4465 10.3577-32.2965 18.806-33 18.7738-.7036-.032-28.0676-16.1196-60.8089-35.75zm-1069.5267 30.5672c.2957-1.7923 1.0125-7.0837 1.5928-11.7587 4.8423-39.006 18.3906-84.1688 37.1986-124 12.7417-26.9841 33.5026-60.0815 53.0042-84.5 65.6567-82.2108 156.396-137.1154 261.8272-158.4266 30.8477-6.2353 56.462-8.9822 91.0627-9.7656 100.518-2.2757 208.2124 22.8975 334.0524 78.0837 35.2518 15.4594 95.8184 44.8739 95.8184 46.5346 0 .3713-2.5875 1.6371-5.75 2.8128-51.6706 19.21-77.6733 27.8104-104.9454 34.7106-17.6466 4.4649-36.592 8.5505-39.6493 8.5505-1.3083 0-12.9034-4.233-25.767-9.4068-75.6276-30.4174-133.6604-46.0763-199.3883-53.8005-17.2468-2.0268-73.4222-1.6682-91 .581-65.1089 8.331-117.4226 27.92-165.1353 61.8354-28.3152 20.1271-56.1515 47.8754-76.533 76.2909-28.9383 40.3453-48.5446 85.8729-57.2759 133l-2.2233 12-53.7132.2587-53.7132.2587zm1855.7286-4.8145c-2.8027-19.8185-9.9574-45.9873-18.2375-66.7046-43.3312-108.4175-136.3817-183.27-254.4512-204.6878-24.5164-4.4473-38.5217-5.6824-70.9836-6.2598-94.2713-1.6769-189.8836 11.167-284.5 38.2179-59.0096 16.8709-114.1828 37.4429-210.5 78.4876-20.9 8.9064-48.6188 20.6074-61.5972 26.0023-104.7674 43.55-179.2577 64.4245-256.9028 71.9922-25.6288 2.4979-70.4416 2.9609-288.8174 2.9838l-230.3174.024.6978-2.25c1.7809-5.7422 12.7242-25.2753 21.8111-38.9314 13.0733-19.6468 35.8512-44.7929 53.2606-58.7981l7.484-6.0205 192.6906-.001c214.9661-.001 227.613-.3139 265.6907-6.5822 65.598-10.7986 117.9505-28.092 236-77.9568 97.8355-41.3262 131.4665-54.6104 179.9859-71.0939 119.4486-40.5802 228.6651-59.9665 349.5141-62.0398 59.5091-1.021 101.121 3.3699 148.5 15.6696 119.2692 30.9628 218.2429 107.3761 277.5151 214.2572 25.4293 45.8549 45.1067 106.0147 49.4704 151.2465.3714 3.85.8944 7.7875 1.1623 8.75.4594 1.6509-2.5376 1.75-52.9246 1.75h-53.4116l-1.1393-8.0558zM0 1972v-53h571c314.05 0 571 .235 571 .5222s-1.7441 3.9997-3.8758 8.25c-12.3909 24.7059-25.8895 60.7452-33.1396 88.4778l-2.2875 8.75H0Zm3135.6593 52.25c-.2523-.4125-2.1323-6.5925-4.1778-13.7333-4.3594-15.2188-9.869-31.4334-15.3541-45.1863-4.532-11.3634-16.3346-37.2873-19.1843-42.1376-1.0687-1.8189-1.9431-3.5064-1.9431-3.75 0-.2435 260.325-.4428 578.5-.4428H4252v106h-557.941c-306.8675 0-558.1474-.3375-558.3997-.75zM1559.0099 833.75c.019-22.0626 2.9289-53.1565 7.6027-81.25 37.6534-226.3305 213.1793-408.3991 440.064-456.4676 59.3117-12.566 124.3266-15.542 185.3234-8.4832 89.0011 10.2997 175.7744 42.2543 250.4253 92.22 16.2749 10.8933 32.4158 23.0026 49.0747 36.8174 16.4336 13.6279 55.8923 53.0288 69.4597 69.3579 33.337 40.123 60.4708 83.103 80.8433 128.0555 30.7773 67.9112 46.8958 136.9085 49.8175 213.25l.6793 17.75-170.8999-.0318c-154.2964-.0287-170.7056-.1818-168.8999-1.5762 1.1-.8495 30.9292-22.5476 66.2872-48.2182l64.2872-46.6738-135.5603-.2536-135.5602-.2536-.9686-2.2464c-.5327-1.2355-17.8641-54.4464-38.5142-118.2464-47.6453-147.2042-45.5966-141.0538-46.434-139.3927-.3861.766-19.5375 59.5536-42.5587 130.6391l-41.8566 129.2465-135.7407.2535-135.7407.2536 65.9298 47.8542c36.2614 26.3198 65.9298 48.0323 65.9298 48.25 0 .2177-77.175.3958-171.5.3958H1559l.01-11.25z"/>
</svg>
