<svg version="1.1" xmlns="http://www.w3.org/2000/svg" xmlns:xlink="http://www.w3.org/1999/xlink" width="2400" height="1440" viewBox="0 0 2400 1440">
<g id="DFG-(Germany)">
<path id="Rectángulo-1" d="M-0.000,0.000 L2400.000,0.000 L2400.000,720.000 L-0.000,720.000 L-0.000,0.000 z" fill="#000000" />
<path id="Rectángulo-1-cop" d="M-0.000,720.000 L2400.000,720.000 L2400.000,1440.000 L-0.000,1440.000 L-0.000,720.000 z" fill="#FFCE00" />
<path id="Polígono-1" d="M2399.991,720.000 L0.009,1439.988 L0.009,0.012 L2399.991,720.000 z" fill="#DD0000" />
<path id="Rectángulo-1-cop" d="M713.852,659.051 C703.455,633.293 695.279,609.250 690.843,584.746 C710.875,538.786 723.596,494.848 723.596,454.471 C723.596,338.069 633.416,282.218 564.500,282.218 C495.584,282.218 405.404,338.069 405.404,454.471 C405.404,494.805 418.176,538.690 438.157,584.585 C433.732,609.126 425.474,633.259 415.066,659.051 C379.425,591.509 353.000,523.064 353.000,454.471 C353.000,311.597 466.466,230.752 564.500,230.752 C662.534,230.752 776.000,311.597 776.000,454.471 C776.000,523.096 749.519,591.488 713.852,659.051 zM667.589,230.430 C650.674,221.878 633.040,215.395 615.185,211.130 C615.185,177.425 615.185,158.107 615.185,147.000 C615.185,147.000 615.000,147.000 615.000,147.000 L615.000,-22.000 L668.000,-22.000 L668.000,147.000 L667.589,147.000 C667.589,147.000 667.589,230.430 667.589,230.430 zM513.733,211.130 C495.881,215.401 478.240,221.874 461.329,230.430 C461.329,186.805 461.329,162.525 461.329,149.000 C461.329,149.000 461.000,149.000 461.000,149.000 L461.000,-22.000 L514.000,-22.000 L514.000,149.000 L513.733,149.000 C513.733,149.000 513.733,211.130 513.733,211.130 zM409.171,722.902 C436.568,658.898 461.329,607.547 461.329,545.985 C461.329,360.062 461.329,360.062 461.329,360.062 C475.961,341.125 494.550,327.677 513.733,319.210 C513.733,545.985 513.733,545.985 513.733,545.985 C513.733,620.924 484.270,680.261 457.481,742.845 C430.691,805.429 405.404,872.040 405.404,967.529 C405.404,1083.931 495.584,1139.782 564.500,1139.782 C574.517,1139.782 584.960,1138.457 595.533,1136.082 C595.533,1188.514 595.533,1188.514 595.533,1188.514 C585.114,1190.253 574.729,1191.248 564.500,1191.248 C466.466,1191.248 353.000,1110.403 353.000,967.529 C353.000,862.915 381.774,786.905 409.171,722.902 zM461.329,1184.332 C478.209,1193.164 495.864,1199.712 513.733,1204.115 C513.733,1265.489 513.733,1283.001 513.733,1288.000 C513.733,1288.000 514.000,1288.000 514.000,1288.000 L514.000,1442.000 L461.000,1442.000 L461.000,1288.000 L461.329,1288.000 C461.329,1288.000 461.329,1184.332 461.329,1184.332 zM579.157,946.942 C588.244,927.966 598.530,908.359 609.699,888.238 C643.132,951.680 667.589,1015.156 667.589,1078.182 C667.589,1233.601 667.589,1274.982 667.589,1286.000 C667.589,1286.000 668.000,1286.000 668.000,1286.000 L668.000,1442.000 L615.000,1442.000 L615.000,1286.000 L615.185,1286.000 C615.185,1286.000 615.185,1078.182 615.185,1078.182 C615.185,1038.592 600.953,994.113 579.157,946.942 zM472.383,757.963 C473.457,755.427 474.493,752.936 475.577,750.404 C482.862,733.384 490.508,716.230 497.767,698.777 C509.063,718.061 520.842,737.563 532.730,756.998 C538.224,765.981 543.674,774.860 549.106,783.857 C538.808,800.653 528.612,817.521 518.728,834.520 C508.694,817.597 498.353,800.531 487.859,783.375 C482.700,774.940 477.552,766.437 472.383,757.963 zM631.152,698.777 C638.411,716.230 646.056,733.384 653.341,750.404 C654.439,752.969 655.529,755.555 656.617,758.124 C651.460,766.578 646.288,774.960 641.141,783.375 C575.528,890.645 513.733,994.942 513.733,1078.182 C513.733,1109.706 513.733,1109.706 513.733,1109.706 C494.891,1101.808 476.492,1089.477 461.411,1072.232 C463.924,967.656 531.892,862.114 596.188,756.998 C608.076,737.563 619.851,718.061 631.152,698.777 zM671.437,742.845 C644.648,680.261 615.185,620.924 615.185,545.985 C615.185,319.210 615.185,319.210 615.185,319.210 C634.361,327.662 652.951,341.150 667.589,360.062 C667.589,545.985 667.589,545.985 667.589,545.985 C667.589,607.547 692.350,658.898 719.747,722.902 C747.144,786.905 776.000,862.915 776.000,967.529 C776.000,1050.065 738.122,1111.763 687.240,1149.271 C687.240,1078.665 687.240,1078.665 687.240,1078.665 C709.074,1051.154 723.596,1014.229 723.596,967.529 C723.596,872.040 698.227,805.429 671.437,742.845 z" fill="#FFFFFF" />
</g>
</svg>
