<svg version="1.1" xmlns="http://www.w3.org/2000/svg" xmlns:xlink="http://www.w3.org/1999/xlink" width="1600" height="1600" viewBox="0 0 1600 1600">
<g id="FHF-(USA)">
<path id="Rectángulo-2" d="M-0.031,0.000 L1599.375,0.000 L1599.375,474.656 L-0.031,474.656 L-0.031,0.000 z" fill="#FFFFFF" />
<path id="Polígono-1" d="M1599.375,474.665 L1599.375,958.656 L-0.031,958.656 L-0.031,474.665 L-97.995,474.665 L81.600,157.334 L260.795,473.957 L439.989,157.334 L619.579,474.656 L620.410,474.656 L800.000,157.334 L979.590,474.656 L979.610,474.656 L1159.200,157.334 L1338.790,474.656 L1338.810,474.656 L1518.400,157.334 L1697.995,474.665 L1599.375,474.665 z" fill="#FF513A" />
<path id="Polígono-1" d="M1599.375,958.665 L1599.375,1442.656 L-0.031,1442.656 L-0.031,958.665 L-97.995,958.665 L81.600,641.334 L260.795,957.957 L439.989,641.334 L619.579,958.656 L620.410,958.656 L800.000,641.334 L979.590,958.656 L979.610,958.656 L1159.200,641.334 L1338.790,958.656 L1338.810,958.656 L1518.400,641.334 L1697.995,958.665 L1599.375,958.665 z" fill="#FFFFFF" />
<path id="Polígono-1" d="M1600.031,1442.665 L1600.031,1600.000 L0.625,1600.000 L0.625,1442.665 L-97.995,1442.665 L81.600,1125.334 L260.795,1441.957 L439.989,1125.334 L619.579,1442.656 L620.410,1442.656 L800.000,1125.334 L979.590,1442.656 L979.610,1442.656 L1159.200,1125.334 L1338.790,1442.656 L1338.810,1442.656 L1518.400,1125.334 L1697.995,1442.665 L1600.031,1442.665 z" fill="#FF513A" />
</g>
</svg>
