<svg version="1.1" xmlns="http://www.w3.org/2000/svg" xmlns:xlink="http://www.w3.org/1999/xlink" width="2400" height="1413" viewBox="0 0 2400 1413">
<g id="FI-(UK)">
<path id="Rectángulo-1" d="M-0.000,0.000 L2400.000,0.000 L2400.000,1413.000 L-0.000,1413.000 L-0.000,0.000 z" fill="#FFFFFF" />
<path id="Forma-1" d="M-0.000,1413.000 C-0.000,1413.000 1884.000,289.795 1884.000,289.795 C1962.000,284.863 2040.000,279.932 2118.000,275.000 C1716.000,654.333 1314.000,1033.667 912.000,1413.000 C608.000,1413.000 304.000,1413.000 -0.000,1413.000 z" fill="#C8102E" />
<path id="Forma-3" d="M0.000,425.150 L1525.000,318.863 L0.000,844.000 L0.000,425.150 z" fill="#012169" />
<path id="Forma-4" d="M1385.417,1413.000 L2087.500,498.093 L1975.000,1413.000 L1385.417,1413.000 z" fill="#012169" />
<path id="Forma-2" d="M2114.000,1413.000 L2400.000,1413.000 L2400.000,-0.000 L-0.000,-0.000 L-0.000,285.798 L2240.000,145.897 L2114.000,1413.000 z" fill="#C8102E" />
</g>
</svg>
