<svg xmlns="http://www.w3.org/2000/svg" width="1500" height="1000">
  <path fill="#0000FF" d="M0 0h1500v1000H0z"/>
  <path fill="#FFF" d="M0 0h400v1000H0z"/>
  <g stroke-width="13.1148">
    <path fill="#00CC00" d="m400 114.6669991 24.59017 75.40984h73.77049l-60.65574 42.62295 24.59017 73.77049L400 260.5686391l-62.29508 45.90164 24.59017-73.77049-60.65574-42.62295h73.77049z"/>
    <path fill="#0000FF" d="m239.34427 231.0604391 24.59016 75.40984h73.77049l-60.65574 42.62295 24.59018 73.77049-62.29509-45.90164-62.29508 45.90164 24.590164-73.77049-60.655741-42.62295H214.7541z"/>
    <path fill="#FFF" d="m560.65575 231.0604391 24.59016 75.40984h73.77049l-60.65574 42.62295 24.59018 73.77049-62.29509-45.90164-62.29508 45.90164 24.59016-73.77049-60.65574-42.62295h73.77049z"/>
    <path fill="#FF0000" d="m301.63936 422.8637191 24.59016 75.40984H400l-60.65573 42.62295 24.59018 73.77049-62.29509-45.90164-62.29509 45.90164 24.59016-73.77049-60.655734-42.62295h73.770494z"/>
    <path fill="#FFFF00" d="m498.36066 422.8637191 24.59016 75.40984h73.7705l-60.65575 42.62295 24.59018 73.77049-62.29509-45.90164-62.29508 45.90164 24.59017-73.77049L400 498.2735591h73.7705z"/>
    <path d="m400 498.2735591-24.59016-75.40984h-73.77049l60.65574-42.62295-24.59018-73.77049 62.29509 45.90164 62.29508-45.90164-24.59016 73.77049 60.65574 42.62295h-73.77049z"/>
  </g>
</svg>