<?xml version="1.0" encoding="UTF-8"?>
<!-- Creator: CorelDRAW -->
<svg id="svg42" width="500" height="250" clip-rule="evenodd" fill-rule="evenodd" image-rendering="optimizeQuality" shape-rendering="geometricPrecision" text-rendering="geometricPrecision" version="1.1" viewBox="0 0 510.63126 255.04861" xml:space="preserve" xmlns="http://www.w3.org/2000/svg">
 <defs id="defs4">
  <style id="style2" type="text/css">
   <![CDATA[
    .str0 {stroke:#1F1A17;stroke-width:0.194023}
    .str1 {stroke:#000099;stroke-width:0.194023}
    .fil3 {fill:none}
    .fil0 {fill:#000099}
    .fil2 {fill:#CC0000}
    .fil1 {fill:white}
   ]]>
  </style>
 </defs>
 <g id="Capa_x0020_1">
  
  <path id="polygon7" class="fil0 str0" d="M 0,-0.13351 H 510.63126 L 407.493,86.673804 510.63126,127.52431 407.493,168.37481 510.63126,255.18212 H 0 Z" fill="#000099"/>
  
  
  
  
  
  
  
  
  
  
  
  
  
  
  
  <g id="g994" transform="matrix(.98454028 0 0 .96749116 -.00279575 3.0302292)"><path id="path9" class="fil1" d="m124.862 4.91575v220.086c-30.6362 0.25513-36.6272-7.43575-36.3652-22.8448 0.248766-14.6278 9.79992-21.8008 13.4504-21.8051 3.56548 2.39269 7.50322 4.42152 9.79661-2.6794-1.23594-11.8871-10.2104-23.0688-10.2104-23.0688l-30.9621-65.1834c-4.19924-8.9505 3.25535-5.82119 4.88876-7.82201-0.446099-2.3326-14.3404-5.03135-14.3404 2.37308s4.16054 14.7875 0.651834 8.7081c-12.8111-22.1983-14.2714-10.1024-10.8889 0.491422 1.7513 5.48508 2.39396 5.52175 3.71877 7.004668-13.561-15.658798-7.72347 4.74388-6.51834 7.49609l31.9399 72.9341h-74.8336l12.9094 14.4116-12.9094 11.0506 24.3165 3.28973c4.88978 0.66126 12.1921 0.80486 16.621 4.36296-2.25443 46.6836 78.930196 41.67797 109.508996 38.1794 44.11718-5.04752 78.86614-39.89508 91.57096-80.9912 13.20989-42.72988-7.97319-45.3119-7.64728-47.2674l-0.3967-9.639c5.31474-11.1331 6.02718-9.75307 10.0163-17.249198-9.13103-0.109997-11.2495 0.16194-11.4122 3.422128v12.2219c0 4.10172-4.56284 3.91101-5.05172 0.48888-0.48887-3.42213-0.16296-1.95576 2.44438-9.12568 2.25545-6.203122 2.62923-11.407102-5.05172-15.155102-8.97342 4.2163-7.24936 13.172702-2.93325 21.347602 1.24918 2.36595-2.13476 8.4741-4.07396 3.74805v-4.56284c0-5.25516-0.20344-12.384902-4.07396-12.384902s-9.61175-0.485056-9.28227 0c2.32776 3.425952 15.2761 21.525302 10.8869 26.833202-7.89993 7.77822-12.7877 5.5243-14.9672 19.0499 6.6813-3.25917 21.3193-6.65304 28.7871-2.6356 5.25236 2.11846 10.5424 21.1953 0.23833 36.7276-25.1371 33.3841-86.1577 53.2704-104.735 47.2957v-219.108002h-5.09246z"/><circle id="circle11" class="fil2" cx="229.696" cy="128.812" r="5.2573199"/><ellipse id="ellipse13" class="fil1" cx="127.739" cy="8.4198198" rx="10.9702" ry="5.0925002"/><path id="path15" class="fil1" d="m127.408 105.057c11.2482 0 20.3701-9.12186 20.3703-20.3698h-40.7396c2.5e-4 11.248 9.12211 20.3698 20.3693 20.3698z"/><path id="path17" class="fil1 str1" d="m77.8896 112.213 120.95-25.3304-10.4484 10.1319c23.4238 30.3582 11.4514 89.1556-9.8152 117.784-2.71632-26.2188-61.6536-6.83942-85.6862 2.4566 12.354-14.2523 34.3937-35.6984 33.1274-59.4488-0.63325-42.7402-48.128-45.5935-48.128-45.5935z"/><line id="line19" class="fil3 str1" x1="63.178299" x2="81.757103" y1="94.8974" y2="132.80299"/><line id="line21" class="fil3 str1" x1="54.601601" x2="69.730202" y1="100.175" y2="132.48599"/><path id="path23" class="fil1 str1" d="m104.904 129.681h-88.6619l2.55e-4 -4.63337c2.54e-4 -4.11445-6.2563404-0.43133-6.4888104 4.63337-0.250294 5.45045 8.3857504 10.1849 8.3857504 10.1849h-12.1669004c-1.91247 5.69235 14.7954004 10.1849 13.4334004 10.1849h-5.53906c-5.4132804 0 4.27537 10.1849 8.54463 10.1849h27.5372c-6.21611 1.58121-6.43534 3.89802-4.59008 6.11375 1.84525 2.21573 27.7302-0.31497 16.9332 2.37563-2.10038 0.31879-6.9624 3.00709-6.64591 6.80505 0.474617 3.79795 4.91269 4.42891 8.86062 5.69667-5.3812 3.16522-9.49437 3.00633-8.22737 8.54489 1.267 5.53855 9.18195 5.53779 8.86138 5.69795-4.11547 2.53197-7.75581 3.95506-7.12103 8.07052 0.634775 4.11547 6.65304 5.69336 12.6593 5.5383-3.95531 3.79795-4.26951 8.86316 1e-3 12.9763 4.27053 4.11318 14.1013 3.0486 22.1547-4.71179-27.3656-22.94 11.393895-69.6643 11.393895-69.6643-0.53216 0.14997 5.02778-3.63805 11.0771-3.95735 6.85597-6.78697-6.13208-15.9379-10.4013-14.0404z"/><line id="line25" class="fil3 str1" x1="18.0112" x2="77.622803" y1="139.866" y2="139.866"/><line id="line27" class="fil3 str1" x1="19.592501" x2="73.195396" y1="150.05099" y2="150.05099"/><line id="line29" class="fil3 str1" x1="52.007198" x2="67.977402" y1="160.23599" y2="160.23599"/><path id="path31" class="fil1" d="m129.955 40.5629h112.034c12.7311 0 12.7311 12.7311 0 12.7311h-112.034z"/><path id="path33" class="fil1" d="m129.955 15.1007h112.034c12.7311 0 12.7311 12.7311 0 12.7311h-112.034z"/><path id="path35" class="fil1" d="m129.322 66.0252h112.034c12.7311 0 12.7311 12.7311 0 12.7311h-112.034z"/><polygon id="polygon37" class="fil1" points="191.064 15.1007 191.064 78.7563 129.322 78.7563 129.955 15.1007"/><path id="path39" class="fil0" d="m129.955 15.1007v63.6557c4.32018-29.6916 3.81883-29.8754 0-63.6557z"/></g>
 </g>
</svg>
