<svg version="1.1" xmlns="http://www.w3.org/2000/svg" xmlns:xlink="http://www.w3.org/1999/xlink" width="2400" height="1504" viewBox="0 0 2400 1504">
<g id="FSA">
<path id="Rectángulo-1" d="M0.000,-0.000 L2402.000,-0.000 L2402.000,1504.000 L0.000,1504.000 L0.000,-0.000 z" fill="#00246A" />
<path id="Forma-1-copia-2" d="M1442.000,1504.000 C1442.000,1504.000 760.000,690.000 760.000,690.000 C892.333,690.000 1024.667,690.000 1157.000,690.000 C1137.333,710.000 1117.667,730.000 1098.000,750.000 C1097.327,752.017 1097.325,753.677 1098.000,755.000 C1104.393,767.540 1171.107,749.354 1225.000,725.000 C1266.721,706.147 1303.647,681.772 1346.000,646.000 C1425.812,578.589 1460.857,523.026 1539.000,507.000 C1563.802,501.913 1591.954,501.003 1623.000,506.000 C1701.069,518.566 1736.653,565.759 1814.000,610.000 C1886.256,651.329 1955.206,663.694 1987.000,661.000 C2029.679,657.384 2070.039,641.565 2107.000,616.000 C2204.667,546.667 2302.333,477.333 2400.000,408.000 C2400.000,773.333 2400.000,1138.667 2400.000,1504.000 C2400.000,1504.000 2400.000,1504.000 2400.000,1504.000 L2400.000,1504.000 L2400.000,1504.000 L1442.000,1504.000 z" fill="#FFFFFF" />
<path id="Forma-1" d="M1536.000,1504.000 C1349.667,1276.667 1163.333,1049.333 977.000,822.000 C1065.333,822.000 1153.667,822.000 1242.000,822.000 C1227.333,839.667 1212.667,857.333 1198.000,875.000 C1196.475,877.933 1196.046,880.315 1197.000,882.000 C1204.074,894.490 1288.740,871.577 1364.000,826.000 C1430.810,785.540 1481.007,714.064 1577.000,674.000 C1612.279,659.276 1643.733,653.361 1665.000,654.000 C1735.850,656.128 1780.369,703.614 1866.000,764.000 C1919.556,801.767 1958.441,821.693 2007.000,823.000 C2049.511,824.144 2090.901,810.725 2130.000,786.000 C2171.036,764.606 2210.716,740.932 2249.000,715.000 C2302.510,678.754 2352.896,638.374 2400.000,594.000 C2400.000,594.000 2400.000,1503.000 2400.000,1503.000 C2400.000,1503.000 1536.000,1504.000 1536.000,1504.000 z" fill="#0079C2" />
<path id="Forma-2" d="M1623.237,1504.000 C1623.237,1504.000 1166.805,941.245 1166.805,941.245 C1257.537,941.163 1348.268,941.082 1439.000,941.000 C1425.000,955.333 1411.000,969.667 1397.000,984.000 C1397.115,986.299 1397.736,988.343 1399.000,990.000 C1412.099,1007.175 1488.391,974.643 1545.000,942.000 C1636.580,889.191 1677.668,833.336 1772.000,817.000 C1786.411,814.504 1801.319,812.848 1811.000,813.000 C1919.824,814.707 1967.932,923.386 2066.000,941.000 C2088.541,945.049 2164.049,945.893 2227.000,906.000 C2284.333,869.667 2341.667,833.333 2399.000,797.000 C2399.000,797.000 2399.000,1507.000 2399.000,1507.000 L1623.237,1504.000 z" fill="#FFD203" />
<path id="Forma-3" d="M1734.000,1504.000 L1380.000,1065.597 L1605.000,1065.597 C1605.000,1065.597 1573.500,1106.084 1573.500,1106.084 C1571.982,1109.721 1571.524,1112.934 1573.000,1115.000 C1582.521,1128.322 1672.410,1093.699 1748.000,1040.000 C1772.995,1022.244 1793.151,1005.914 1827.000,994.000 C1870.453,978.706 1929.553,972.271 1985.000,994.000 C2001.242,1000.365 2035.855,1023.677 2066.000,1050.000 C2104.079,1083.251 2127.993,1111.692 2169.000,1115.000 C2195.335,1117.125 2217.410,1109.871 2236.000,1098.000 C2291.333,1062.667 2346.667,1027.333 2402.000,992.000 C2402.000,992.000 2400.000,1504.000 2400.000,1504.000 L1734.000,1504.000 z" fill="#0079C2" />
<path id="Polígono-1" d="M219.802,99.532 L230.458,189.891 L318.360,174.733 L255.918,240.277 L321.643,301.077 L233.123,292.450 L227.178,383.423 L179.237,307.121 L106.100,359.764 L134.838,273.244 L49.582,247.914 L133.360,216.328 L100.185,132.100 L175.914,179.232 L219.802,99.532 z" fill="#FFFFFF" />
<path id="Polígono-1" d="M543.802,140.532 L554.458,230.891 L642.360,215.733 L579.918,281.277 L645.643,342.077 L557.123,333.450 L551.178,424.423 L503.237,348.121 L430.100,400.764 L458.838,314.244 L373.582,288.914 L457.360,257.328 L424.185,173.100 L499.914,220.232 L543.802,140.532 z" fill="#FFFFFF" />
<path id="Polígono-1" d="M273.802,452.532 L284.458,542.891 L372.360,527.733 L309.918,593.277 L375.643,654.077 L287.123,645.450 L281.178,736.423 L233.237,660.121 L160.100,712.764 L188.838,626.244 L103.582,600.914 L187.360,569.328 L154.185,485.100 L229.914,532.232 L273.802,452.532 z" fill="#FFFFFF" />
<path id="Polígono-1" d="M621.802,606.532 L632.458,696.891 L720.360,681.733 L657.918,747.277 L723.643,808.077 L635.123,799.450 L629.178,890.423 L581.237,814.121 L508.100,866.764 L536.838,780.244 L451.582,754.914 L535.360,723.328 L502.185,639.100 L577.914,686.232 L621.802,606.532 z" fill="#FFFFFF" />
<path id="Polígono-2" d="M591.145,444.276 L577.772,502.285 L627.005,535.279 L567.877,540.708 L551.567,597.970 L528.397,543.317 L469.083,545.712 L513.891,506.505 L493.543,450.723 L544.406,481.146 L591.145,444.276 z" fill="#FFFFFF" />
</g>
</svg>
