<?xml version="1.0" encoding="UTF-8" standalone="no"?>
<!-- Created with Inkscape (http://www.inkscape.org/) -->

<svg
   version="1.1"
   id="svg2"
   width="1200"
   height="600"
   viewBox="0 0 1200 600.00002"
   xmlns="http://www.w3.org/2000/svg"
   xmlns:svg="http://www.w3.org/2000/svg">
  <defs
     id="defs6" />
  <g
     id="g14"
     transform="matrix(2.1166665,0,0,-2.1166723,-29.999955,1191.0032)">
    <path
       d="M 14.1732,562.6772 H 581.1024 L 486.6146,468.1894 H 14.1732 Z"
       style="fill:#ed1c24;fill-opacity:1;fill-rule:evenodd;stroke:none"
       id="path16" />
    <path
       d="M 486.6146,468.1894 439.3701,420.9449 486.6134,373.7015 H 14.1732 V 468.1894 Z"
       style="fill:#ffffff;fill-opacity:1;fill-rule:evenodd;stroke:none"
       id="path18" />
    <path
       d="M 486.6134,373.7015 581.1015,279.2134 H 14.1732 V 373.7015 Z"
       style="fill:#1a3476;fill-opacity:1;fill-rule:evenodd;stroke:none"
       id="path20" />
  </g>
  <path
     d="M 171.57295,300.0008 425.80979,45.763273 680.04662,300.0008 425.80979,554.23834 Z"
     style="fill:#ffffff;fill-opacity:1;fill-rule:evenodd;stroke:none;stroke-width:2.11667"
     id="path24" />
  <g
     id="g26"
     transform="matrix(2.1166665,0,0,-2.1166723,-29.999955,1191.0032)">
    <g
       id="g28">
      <path
         d="M 271.1699,474.6988 V 435.746 L 271.1098,432.2398 270.9286,428.7056 270.6284,425.1892 270.2117,421.6949 269.6794,418.2236 269.0337,414.7798 268.2765,411.3652 267.4089,407.9829 266.4337,404.6352 265.3512,401.3249 264.1635,398.0548 262.8731,394.8276 261.4808,391.6463 259.9883,388.5123 258.3981,385.429 256.7112,382.3994 254.9288,379.4258 253.0531,376.511 251.0858,373.6576 249.0279,370.8677 246.8818,368.1451 244.6481,365.4916 242.3296,362.91 239.9272,360.4031 237.4418,357.9741 234.8762,355.625 232.232,353.3593 229.5096,351.1789 226.7121,349.0872 223.8401,347.0865 220.8951,345.1805 215.3432,341.8492 209.7913,345.1805 206.8464,347.0865 203.9743,349.0872 201.1768,351.1789 198.4544,353.3593 195.8102,355.625 193.2446,357.9741 190.7592,360.4031 188.3568,362.91 186.0384,365.4916 183.8047,368.1451 181.6586,370.8677 179.6006,373.6576 177.6334,376.511 175.7577,379.4258 173.9752,382.3994 172.2883,385.429 170.6981,388.5123 169.2057,391.6463 167.8133,394.8276 166.523,398.0548 165.3352,401.3249 164.2527,404.6352 163.2776,407.9829 162.4099,411.3652 161.6528,414.7798 161.007,418.2236 160.4747,421.6949 160.058,425.1892 159.7578,428.7056 159.5767,432.2398 159.5166,435.746 V 474.6988 Z"
         style="fill:#fbc707;fill-opacity:1;fill-rule:evenodd;stroke:#040307;stroke-width:0.2894;stroke-linecap:butt;stroke-linejoin:miter;stroke-miterlimit:22.9256;stroke-dasharray:none;stroke-opacity:1"
         id="path30" />
      <path
         d="M 198.426,469.624 H 232.2604 266.0944 V 435.7896 C 266.0944,399.7086 246.2698,365.6103 215.3432,347.7677 184.4167,365.6103 164.592,399.7086 164.592,435.7896 V 469.624 Z"
         style="fill:#ed1c24;fill-opacity:1;fill-rule:evenodd;stroke:none"
         id="path32" />
      <path
         d="M 198.426,469.624 H 232.2604 266.0944 V 435.7896 C 266.0944,399.7086 246.2698,365.6103 215.3432,347.7677 184.4167,365.6103 164.592,399.7086 164.592,435.7896 V 469.624 Z"
         style="fill:none;stroke:#231f20;stroke-width:0.845;stroke-linecap:butt;stroke-linejoin:miter;stroke-miterlimit:22.9256;stroke-dasharray:none;stroke-opacity:1"
         id="path34" />
      <path
         d="M 189.6854,421.6938 H 182.4676 175.2497 V 414.4757 C 175.2497,406.7785 179.4787,399.5045 186.0766,395.6978 192.6743,399.5045 196.9036,406.7785 196.9036,414.4757 V 421.6938 Z"
         style="fill:#ffffff;fill-opacity:1;fill-rule:evenodd;stroke:#231f20;stroke-width:0.1806;stroke-linecap:butt;stroke-linejoin:miter;stroke-miterlimit:22.9256;stroke-dasharray:none;stroke-opacity:1"
         id="path36" />
      <g
         id="g38">
        <path
           d="M 234.7466,448.7661 C 228.6564,451.8113 223.0736,453.3338 216.9833,453.3338 218.1677,458.0705 219.8594,461.2847 222.5662,463.9915 206.3256,461.9616 195.1605,455.3637 185.4142,447.1438 L 197.5944,431.9184 C 207.3407,440.1383 218.5061,446.7362 234.7466,448.7661 Z"
           style="fill:#fbc70c;fill-opacity:1;fill-rule:evenodd;stroke:#231f20;stroke-width:0.1803;stroke-linecap:butt;stroke-linejoin:miter;stroke-miterlimit:22.9256;stroke-dasharray:none;stroke-opacity:1"
           id="path40" />
        <path
           d="M 217.8556,460.1307 C 218.177,460.7314 218.5132,461.3227 218.8919,461.8905 216.0249,461.3856 213.2303,460.6659 210.4495,459.8093 208.8164,459.2693 207.2203,458.6871 205.6224,458.0461 204.0965,457.3976 202.6086,456.7124 201.1235,455.9734 199.6917,455.2268 198.2945,454.4484 196.9055,453.6235 195.8913,452.9971 194.8935,452.357 193.9,451.6968 191.7085,450.1896 189.5998,448.609 187.5373,446.9275 L 197.8149,434.0798 C 199.6206,435.5515 201.4625,436.949 203.3603,438.2969 204.7249,439.2354 206.1,440.1332 207.5085,441.0026 208.9619,441.866 210.4228,442.6804 211.9209,443.4616 213.4786,444.2366 215.0396,444.9549 216.6395,445.6352 217.8876,446.1358 219.1348,446.6061 220.4028,447.0548 L 223.0279,447.8927 C 225.1454,448.4968 227.2592,449.0274 229.4209,449.4538 227.1118,450.3297 224.7647,450.97 222.3317,451.3847 220.729,451.6308 219.1487,451.7685 217.5287,451.8071 L 215.0266,451.8266 C 215.3015,452.9018 215.5671,453.9801 215.8668,455.0477 216.3878,456.8148 217.0148,458.492 217.8556,460.1307 Z"
           style="fill:#1a3476;fill-opacity:1;fill-rule:evenodd;stroke:#231f20;stroke-width:0.1803;stroke-linecap:butt;stroke-linejoin:miter;stroke-miterlimit:22.9256;stroke-dasharray:none;stroke-opacity:1"
           id="path42" />
      </g>
      <g
         id="g44">
        <g
           id="g46"
           transform="matrix(0.63636,-0.75838,0.76604,0.64279,0,0)">
          <path
             d="M -225.8901,426.9563 -225.8898,431.0167 -141.4664,431.0164 -141.4667,426.9563 Z"
             style="fill:#fbc707;fill-opacity:1;fill-rule:evenodd;stroke:#231f20;stroke-width:0.1803;stroke-linecap:butt;stroke-linejoin:miter;stroke-miterlimit:22.9256;stroke-dasharray:none;stroke-opacity:1"
             id="path48" />
        </g>
        <path
           d="M 184.2389,452.5534 184.2554,447.7972 179.574,448.6388 176.0343,457.5946 Z"
           style="fill:#fbc707;fill-opacity:1;fill-rule:evenodd;stroke:#231f20;stroke-width:0.1803;stroke-linecap:butt;stroke-linejoin:miter;stroke-miterlimit:22.9256;stroke-dasharray:none;stroke-opacity:1"
           id="path50" />
        <path
           d="M 182.9313,445.4274 186.819,448.6898 C 187.4614,449.229 187.5458,450.1922 187.007,450.8345 186.4678,451.4769 185.504,451.5613 184.8617,451.0225 L 180.974,447.7601 C 180.3314,447.2212 180.2469,446.2574 180.786,445.6148 181.3252,444.9725 182.289,444.8886 182.9313,445.4274 Z"
           style="fill:#fbc707;fill-opacity:1;fill-rule:evenodd;stroke:#231f20;stroke-width:0.1803;stroke-linecap:butt;stroke-linejoin:miter;stroke-miterlimit:22.9256;stroke-dasharray:none;stroke-opacity:1"
           id="path52" />
      </g>
      <g
         id="g54">
        <g
           id="g56"
           transform="matrix(0.75838,-0.63636,0.64279,0.76604,0,0)">
          <path
             d="M -105.3411,504.1168 H -95.0879 L -95.0882,422.9144 -105.3408,422.9147 Z"
             style="fill:#fbc707;fill-opacity:1;fill-rule:evenodd;stroke:#231f20;stroke-width:0.1828;stroke-linecap:butt;stroke-linejoin:miter;stroke-miterlimit:22.9256;stroke-dasharray:none;stroke-opacity:1"
             id="path58" />
        </g>
        <path
           d="M 251.9535,454.6134 C 251.0943,455.334 249.8139,455.222 249.0934,454.3634 248.3725,453.5045 248.4845,452.2241 249.3437,451.5032 250.2026,450.7826 251.483,450.8946 252.2038,451.7535 252.9244,452.6121 252.8124,453.8925 251.9535,454.6134 Z"
           style="fill:#fbc707;fill-opacity:1;fill-rule:evenodd;stroke:#231f20;stroke-width:0.1803;stroke-linecap:butt;stroke-linejoin:miter;stroke-miterlimit:22.9256;stroke-dasharray:none;stroke-opacity:1"
           id="path60" />
        <path
           d="M 191.9282,383.0783 C 191.0696,383.7991 190.9576,385.0795 191.6782,385.9384 192.399,386.797 193.6794,386.909 194.5378,386.1882 195.3969,385.4676 195.5089,384.1872 194.7881,383.3286 194.0675,382.4697 192.7871,382.3577 191.9282,383.0783 Z"
           style="fill:#fbc707;fill-opacity:1;fill-rule:evenodd;stroke:#231f20;stroke-width:0.1803;stroke-linecap:butt;stroke-linejoin:miter;stroke-miterlimit:22.9256;stroke-dasharray:none;stroke-opacity:1"
           id="path62" />
        <path
           d="M 244.1509,453.2102 251.9266,446.6857 255.7023,448.8177 245.5943,457.2995 Z"
           style="fill:#fbc707;fill-opacity:1;fill-rule:evenodd;stroke:#231f20;stroke-width:0.1803;stroke-linecap:butt;stroke-linejoin:miter;stroke-miterlimit:22.9256;stroke-dasharray:none;stroke-opacity:1"
           id="path64" />
        <path
           d="M 191.9551,391.0056 199.7306,384.4817 198.2874,380.3927 188.1785,388.8746 Z"
           style="fill:#fbc707;fill-opacity:1;fill-rule:evenodd;stroke:#231f20;stroke-width:0.1803;stroke-linecap:butt;stroke-linejoin:miter;stroke-miterlimit:22.9256;stroke-dasharray:none;stroke-opacity:1"
           id="path66" />
        <g
           id="g68">
          <path
             d="M 244.1509,453.2108 248.0386,449.9487 237.5994,437.5074 233.7117,440.7695 Z"
             style="fill:#ed1c24;fill-opacity:1;fill-rule:evenodd;stroke:#231f20;stroke-width:0.1803;stroke-linecap:butt;stroke-linejoin:miter;stroke-miterlimit:22.9256;stroke-dasharray:none;stroke-opacity:1"
             id="path70" />
          <path
             d="M 233.7117,440.7695 237.5994,437.5074 227.1603,425.0667 223.2726,428.3289 Z"
             style="fill:#ffffff;fill-opacity:1;fill-rule:evenodd;stroke:#231f20;stroke-width:0.1803;stroke-linecap:butt;stroke-linejoin:miter;stroke-miterlimit:22.9256;stroke-dasharray:none;stroke-opacity:1"
             id="path72" />
          <path
             d="M 223.2726,428.3289 227.1603,425.0667 216.7211,412.626 212.8334,415.8882 Z"
             style="fill:#ed1c24;fill-opacity:1;fill-rule:evenodd;stroke:#231f20;stroke-width:0.1803;stroke-linecap:butt;stroke-linejoin:miter;stroke-miterlimit:22.9256;stroke-dasharray:none;stroke-opacity:1"
             id="path74" />
          <path
             d="M 212.8334,415.8882 216.7211,412.626 206.2826,400.1851 202.3946,403.4475 Z"
             style="fill:#ffffff;fill-opacity:1;fill-rule:evenodd;stroke:#231f20;stroke-width:0.1803;stroke-linecap:butt;stroke-linejoin:miter;stroke-miterlimit:22.9256;stroke-dasharray:none;stroke-opacity:1"
             id="path76" />
          <path
             d="M 202.3946,403.4475 206.2826,400.1851 195.8431,387.7441 191.9554,391.0062 Z"
             style="fill:#ed1c24;fill-opacity:1;fill-rule:evenodd;stroke:#231f20;stroke-width:0.1803;stroke-linecap:butt;stroke-linejoin:miter;stroke-miterlimit:22.9256;stroke-dasharray:none;stroke-opacity:1"
             id="path78" />
          <path
             d="M 248.0386,449.9487 251.9266,446.6863 241.4874,434.245 237.5994,437.5074 Z"
             style="fill:#ffffff;fill-opacity:1;fill-rule:evenodd;stroke:#231f20;stroke-width:0.1803;stroke-linecap:butt;stroke-linejoin:miter;stroke-miterlimit:22.9256;stroke-dasharray:none;stroke-opacity:1"
             id="path80" />
          <path
             d="M 237.5994,437.5074 241.4874,434.245 231.048,421.8043 227.1603,425.0667 Z"
             style="fill:#ed1c24;fill-opacity:1;fill-rule:evenodd;stroke:#231f20;stroke-width:0.1803;stroke-linecap:butt;stroke-linejoin:miter;stroke-miterlimit:22.9256;stroke-dasharray:none;stroke-opacity:1"
             id="path82" />
          <path
             d="M 227.1603,425.0667 231.048,421.8043 220.6089,409.3637 216.7211,412.626 Z"
             style="fill:#ffffff;fill-opacity:1;fill-rule:evenodd;stroke:#231f20;stroke-width:0.1803;stroke-linecap:butt;stroke-linejoin:miter;stroke-miterlimit:22.9256;stroke-dasharray:none;stroke-opacity:1"
             id="path84" />
          <path
             d="M 216.7211,412.626 220.6089,409.3637 210.1703,396.923 206.2826,400.1851 Z"
             style="fill:#ed1c24;fill-opacity:1;fill-rule:evenodd;stroke:#231f20;stroke-width:0.1803;stroke-linecap:butt;stroke-linejoin:miter;stroke-miterlimit:22.9256;stroke-dasharray:none;stroke-opacity:1"
             id="path86" />
          <path
             d="M 206.2826,400.1851 210.1703,396.923 199.7311,384.4817 195.8431,387.7441 Z"
             style="fill:#ffffff;fill-opacity:1;fill-rule:evenodd;stroke:#231f20;stroke-width:0.1803;stroke-linecap:butt;stroke-linejoin:miter;stroke-miterlimit:22.9256;stroke-dasharray:none;stroke-opacity:1"
             id="path88" />
        </g>
      </g>
      <g
         id="g90">
        <path
           d="M 244.1509,453.2108 251.9266,446.6863 199.7306,384.4817 191.9551,391.0062 Z"
           style="fill:none;stroke:#231f20;stroke-width:0.2815;stroke-linecap:butt;stroke-linejoin:miter;stroke-miterlimit:22.9256;stroke-dasharray:none;stroke-opacity:1"
           id="path92" />
        <path
           d="M 244.1509,453.2102 251.9266,446.6857 255.7023,448.8177 245.5943,457.2995 Z"
           style="fill:none;stroke:#231f20;stroke-width:0.2818;stroke-linecap:butt;stroke-linejoin:miter;stroke-miterlimit:22.9256;stroke-dasharray:none;stroke-opacity:1"
           id="path94" />
        <path
           d="M 191.9551,391.0056 199.7306,384.4817 198.2874,380.3927 188.1785,388.8746 Z"
           style="fill:none;stroke:#231f20;stroke-width:0.2818;stroke-linecap:butt;stroke-linejoin:miter;stroke-miterlimit:22.9256;stroke-dasharray:none;stroke-opacity:1"
           id="path96" />
        <path
           d="M 191.9282,383.0783 C 191.0718,383.7971 190.9596,385.0818 191.6782,385.9384 L 194.7881,383.3286 C 194.0695,382.4719 192.7848,382.3597 191.9282,383.0783 Z"
           style="fill:none;stroke:#231f20;stroke-width:0.2818;stroke-linecap:butt;stroke-linejoin:miter;stroke-miterlimit:22.9256;stroke-dasharray:none;stroke-opacity:1"
           id="path98" />
        <path
           d="M 251.9535,454.6134 C 251.0969,455.332 249.8119,455.2197 249.0934,454.3634 L 252.2038,451.7535 C 252.9224,452.6099 252.8101,453.8945 251.9535,454.6134 Z"
           style="fill:none;stroke:#231f20;stroke-width:0.2815;stroke-linecap:butt;stroke-linejoin:miter;stroke-miterlimit:22.9256;stroke-dasharray:none;stroke-opacity:1"
           id="path100" />
      </g>
      <path
         d="M 248.2189,421.6938 H 241.0007 233.7829 V 414.4757 C 233.7829,406.7785 238.0122,399.5045 244.6098,395.6978 251.2071,399.5045 255.4367,406.7785 255.4367,414.4757 V 421.6938 Z"
         style="fill:#ffffff;fill-opacity:1;fill-rule:evenodd;stroke:#231f20;stroke-width:0.1803;stroke-linecap:butt;stroke-linejoin:miter;stroke-miterlimit:22.9256;stroke-dasharray:none;stroke-opacity:1"
         id="path102" />
      <path
         d="M 218.9523,385.1529 H 211.7344 204.5163 V 377.9345 C 204.5163,370.2373 208.7456,362.9633 215.3432,359.1567 221.9411,362.9633 226.1701,370.2373 226.1701,377.9345 V 385.1529 Z"
         style="fill:#ffffff;fill-opacity:1;fill-rule:evenodd;stroke:#231f20;stroke-width:0.1806;stroke-linecap:butt;stroke-linejoin:miter;stroke-miterlimit:22.9256;stroke-dasharray:none;stroke-opacity:1"
         id="path104" />
    </g>
    <g
       id="g106">
      <path
         d="M 288.7364,457.4262 C 308.8811,437.2815 308.8811,404.6083 288.7364,384.4636 L 286.0296,381.7568 C 285.4655,381.1927 284.9454,380.6631 284.4431,380.1708 284.2838,382.3157 283.4232,384.3629 281.8463,385.9398 280.2696,387.5168 278.2225,388.3771 276.0766,388.5367 276.5696,389.0387 277.0985,389.5591 277.6632,390.1232 L 280.37,392.8306 C 295.8948,408.3548 295.8948,433.535 280.37,449.0592 278.8787,450.5505 278.0697,452.6065 277.7834,453.327 L 277.6717,453.6077 C 279.2228,453.9915 280.6665,454.7699 281.8463,455.9499 283.0263,457.13 283.8047,458.5731 284.1885,460.1239 L 284.4686,460.0131 C 285.1894,459.7268 287.2451,458.9172 288.7364,457.4262 Z M 187.2289,485.9717 184.5215,483.2649 C 183.9574,482.7002 183.4376,482.1712 182.9356,481.6783 182.7754,483.8241 181.9151,485.8713 180.3382,487.4479 178.7613,489.0249 176.7141,489.8854 174.5691,490.0448 175.0615,490.5471 175.591,491.0672 176.1551,491.6313 L 178.8619,494.3381 C 199.0066,514.4828 231.6798,514.4828 251.8245,494.3381 L 254.5313,491.6313 C 255.0954,491.0672 255.6249,490.5471 256.1173,490.0448 253.9723,489.8854 251.9252,489.0249 250.3483,487.4479 248.7713,485.8713 247.911,483.8241 247.7514,481.6783 247.2494,482.1712 246.729,482.7002 246.1649,483.2649 L 243.4575,485.9717 C 227.9333,501.4964 202.7531,501.4964 187.2289,485.9717 Z M 156.1314,471.1283 C 155.1521,469.6954 154.027,468.2795 152.6542,466.9002 151.5093,465.7496 150.376,464.9598 149.256,464.351 149.6265,465.7572 150.3814,467.0881 151.4239,468.1307 152.0643,468.771 152.7676,469.3346 153.5312,469.8218 154.3422,470.3394 155.2184,470.7677 156.1314,471.1283 Z M 161.9019,475.4974 C 163.4,475.7647 164.9937,476.0019 166.6902,476.2449 167.0221,478.582 167.3493,480.9212 167.7518,483.247 167.847,483.7966 167.9598,484.3111 168.0905,484.7964 165.9504,482.6373 164.444,480.187 162.9998,477.5306 162.6245,476.8398 162.2614,476.1624 161.9019,475.4974 Z M 154.0894,456.2121 C 154.9749,458.1989 155.9789,459.8986 157.8268,461.7374 160.1833,464.0825 162.6072,465.7343 165.2017,467.2429 165.3698,468.0009 165.5144,468.7566 165.6462,469.4961 165.8767,470.7884 166.0825,472.0859 166.2763,473.3864 164.9764,473.1917 163.6787,472.9867 162.3866,472.756 161.6474,472.6239 160.8917,472.4793 160.1334,472.3115 158.6242,469.7172 156.973,467.2933 154.6279,464.9363 152.7888,463.0884 151.0894,462.0847 149.1024,461.1988 149.3167,460.0006 149.8649,458.8622 150.8088,457.9183 151.7525,456.9746 152.8906,456.4259 154.0894,456.2121 Z M 164.0188,463.2406 C 162.5862,462.2615 161.1697,461.1362 159.791,459.7642 158.6398,458.6187 157.8504,457.4854 157.2415,456.3655 158.648,456.7363 159.9786,457.4911 161.0212,458.5337 161.6618,459.174 162.2248,459.877 162.7121,460.641 163.23,461.452 163.658,462.3279 164.0188,463.2406 Z M 178.3698,485.4793 C 176.6517,487.1974 174.2905,487.6053 172.0922,487.0715 171.3447,485.8929 170.8033,484.5535 170.4951,482.7725 170.1204,480.6071 169.8168,478.5693 169.5416,476.6511 171.4601,476.9263 173.4976,477.2305 175.663,477.6046 177.444,477.913 178.7831,478.4542 179.962,479.2017 180.4952,481.4002 180.0879,483.7615 178.3698,485.4793 Z M 177.6872,475.2 C 177.2014,475.0699 176.6869,474.9565 176.1378,474.8613 173.8114,474.459 171.4725,474.1316 169.1351,473.7994 168.8924,472.1031 168.6552,470.5095 168.3882,469.0117 169.0529,469.3708 169.7298,469.734 170.4212,470.1095 173.0778,471.5535 175.5275,473.0601 177.6872,475.2 Z M 141.95,457.4262 C 143.4413,458.9172 145.497,459.7268 146.2178,460.0131 L 146.4979,460.1239 C 146.8817,458.5731 147.6601,457.13 148.8402,455.9499 150.0199,454.7699 151.4636,453.9915 153.0147,453.6071 L 152.9031,453.327 C 152.6168,452.6065 151.8077,450.5505 150.3164,449.0592 134.7917,433.535 134.7917,408.3548 150.3164,392.8306 L 153.0232,390.1232 C 153.5879,389.5591 154.1169,389.0392 154.6098,388.5372 152.464,388.3771 150.4168,387.5168 148.8402,385.9398 147.2632,384.3629 146.4026,382.3157 146.2431,380.1708 145.741,380.6631 145.2209,381.1927 144.6568,381.7568 L 141.95,384.4636 C 121.8053,404.6083 121.8053,437.2815 141.95,457.4262 Z M 257.6395,369.6205 C 256.6599,368.1873 255.5345,366.7714 254.1626,365.3926 253.0171,364.2415 251.8838,363.4515 250.7638,362.8431 251.1346,364.2491 251.8894,365.5803 252.932,366.6229 253.5724,367.2635 254.2754,367.8265 255.0393,368.3137 255.8503,368.8316 256.7262,369.2597 257.6395,369.6205 Z M 263.41,373.9893 C 264.9081,374.2563 266.5015,374.4935 268.1983,374.7368 268.53,377.0736 268.8574,379.4131 269.2596,381.7395 269.3548,382.2885 269.4682,382.803 269.5983,383.2889 267.4585,381.1292 265.9518,378.6795 264.5079,376.0228 264.1323,375.3315 263.7692,374.6543 263.41,373.9893 Z M 255.5972,354.704 C 256.483,356.6911 257.4867,358.3905 259.3346,360.2296 261.6917,362.5747 264.1156,364.2259 266.7098,365.7345 266.8776,366.4928 267.0222,367.249 267.1543,367.9883 267.385,369.2803 267.5906,370.578 267.7847,371.878 266.4845,371.6841 265.1868,371.4783 263.8945,371.2479 263.1549,371.1161 262.3992,370.9715 261.6412,370.8034 260.1326,368.2089 258.4809,365.7849 256.1357,363.4285 254.2969,361.5806 252.5975,360.5766 250.6105,359.691 250.8248,358.4923 251.373,357.3541 252.3166,356.4105 253.2606,355.4666 254.399,354.9183 255.5972,354.704 Z M 265.5269,361.7331 C 264.0937,360.7534 262.6778,359.6287 261.2985,358.2558 260.1479,357.1109 259.3582,355.9776 258.7499,354.8574 260.1556,355.2282 261.4864,355.983 262.529,357.0256 263.1694,357.666 263.7329,358.3692 264.2202,359.1329 264.7378,359.9439 265.1661,360.8201 265.5269,361.7331 Z M 279.8776,383.9715 C 278.1598,385.6895 275.7986,386.0969 273.6,385.5637 272.8525,384.3848 272.3114,383.0457 272.003,381.2647 271.6288,379.0993 271.3252,377.0617 271.0494,375.1432 272.9676,375.4185 275.0054,375.7221 277.1708,376.0968 278.9518,376.4049 280.2912,376.9464 281.4701,377.6939 282.0036,379.8921 281.5957,382.2534 279.8776,383.9715 Z M 279.1947,373.6922 C 278.7094,373.5615 278.195,373.4487 277.6453,373.3534 275.3195,372.9509 272.9803,372.6232 270.6432,372.2919 270.4003,370.5953 270.1633,369.0017 269.8957,367.5036 270.5607,367.8625 271.2382,368.2261 271.929,368.6014 274.5853,370.0457 277.0356,371.552 279.1947,373.6922 Z M 243.4575,355.9181 C 244.9488,357.4094 247.0048,358.2184 247.7254,358.5047 L 248.006,358.6164 C 248.3898,357.0653 249.1682,355.6216 250.3483,354.4418 251.5283,353.2618 252.9714,352.4834 254.5223,352.0996 L 254.4114,351.8195 C 254.1251,351.0986 253.3156,349.043 251.8245,347.5517 231.6798,327.407 199.0066,327.407 178.8619,347.5517 177.3709,349.043 176.5613,351.0986 176.275,351.8195 L 176.1642,352.0996 C 177.715,352.4834 179.1581,353.2618 180.3382,354.4418 181.5182,355.6216 182.2966,357.0653 182.681,358.6164 L 182.9611,358.5047 C 183.6816,358.2184 185.7376,357.4094 187.2289,355.9181 202.7531,340.3933 227.9333,340.3933 243.4575,355.9181 Z M 165.1598,361.7331 C 166.5927,360.7537 168.0086,359.6287 169.3879,358.2558 170.5385,357.1109 171.3283,355.9776 171.9371,354.8577 170.5309,355.2282 169.2,355.983 168.1574,357.0256 167.5171,357.666 166.9535,358.3692 166.4663,359.1329 165.9487,359.9439 165.5203,360.8201 165.1598,361.7331 Z M 160.7907,367.5036 C 160.5234,369.0017 160.2862,370.5953 160.0432,372.2919 157.7061,372.6238 155.3669,372.9509 153.0411,373.3534 152.4915,373.4487 151.977,373.5615 151.4917,373.6922 153.6508,371.552 156.1011,370.0457 158.7574,368.6014 159.4483,368.2261 160.1257,367.863 160.7907,367.5036 Z M 180.076,359.691 C 178.0892,360.5766 176.3895,361.5806 174.5507,363.4285 172.2056,365.7849 170.5538,368.2089 169.0452,370.8034 168.2872,370.9715 167.5312,371.1161 166.792,371.2479 165.4997,371.4783 164.2022,371.6841 162.9017,371.878 163.0964,370.578 163.3014,369.2803 163.5321,367.9883 163.6642,367.249 163.8088,366.4933 163.9766,365.7351 166.5709,364.2259 168.9948,362.5747 171.3518,360.2296 173.1997,358.3905 174.2034,356.6911 175.0893,354.704 176.2875,354.9183 177.4259,355.4666 178.3698,356.4105 179.3134,357.3541 179.862,358.4923 180.076,359.691 Z M 173.0475,369.6205 C 174.0266,368.1879 175.1519,366.7714 176.5239,365.3926 177.6694,364.2415 178.8026,363.452 179.9226,362.8431 179.5518,364.2497 178.797,365.5803 177.7544,366.6229 177.114,367.2635 176.4111,367.8265 175.6471,368.3137 174.8361,368.8316 173.9602,369.2597 173.0475,369.6205 Z M 150.8088,383.9715 C 149.0907,382.2534 148.6828,379.8921 149.2166,377.6939 150.3952,376.9464 151.7346,376.4049 153.5156,376.0968 155.681,375.7221 157.7188,375.4185 159.637,375.1432 159.3618,377.0617 159.0576,379.0993 158.6835,381.2647 158.3751,383.0457 157.8339,384.3848 157.0864,385.5637 154.8879,386.0969 152.5266,385.6895 150.8088,383.9715 Z M 161.0881,383.2889 C 161.2182,382.803 161.3316,382.2885 161.4268,381.7395 161.8291,379.4131 162.1565,377.0742 162.4887,374.7368 164.1849,374.4941 165.7786,374.2569 167.2761,373.9898 166.9173,374.6546 166.5541,375.3315 166.1786,376.0228 164.7346,378.6795 163.228,381.1292 161.0881,383.2889 Z M 266.6676,463.2412 C 268.1008,462.2615 269.5167,461.1362 270.8955,459.7642 272.0466,458.6187 272.8366,457.4854 273.4447,456.3655 272.039,456.7363 270.7078,457.4911 269.6652,458.5337 269.0246,459.174 268.4616,459.877 267.9744,460.641 267.4565,461.452 267.0284,462.3279 266.6676,463.2412 Z M 262.2988,469.0117 C 262.0318,470.5098 261.7943,472.1031 261.5513,473.8 259.2145,474.1316 256.875,474.459 254.5486,474.8613 253.9996,474.9565 253.4851,475.0699 252.9992,475.2 255.1589,473.0601 257.6086,471.5535 260.2653,470.1095 260.9566,469.734 261.6338,469.3708 262.2988,469.0117 Z M 281.5841,461.1988 C 279.597,462.0847 277.8976,463.0884 276.0585,464.9363 273.7134,467.2933 272.0622,469.7172 270.5533,472.3115 269.7953,472.4793 269.0391,472.6239 268.2998,472.756 267.0077,472.9867 265.71,473.1922 264.4101,473.3864 264.604,472.0861 264.8098,470.7884 265.0402,469.4961 265.172,468.7566 265.3166,468.0009 265.4847,467.2429 268.0792,465.7343 270.5031,464.0825 272.8596,461.7374 274.7075,459.8986 275.7115,458.1992 276.5971,456.2121 277.7958,456.4264 278.934,456.9746 279.8776,457.9183 280.8215,458.8622 281.3698,460.0006 281.5841,461.1988 Z M 274.555,471.1286 C 275.5346,469.6954 276.6594,468.2795 278.0323,466.9002 279.1772,465.7496 280.3105,464.9598 281.4307,464.3515 281.0599,465.7572 280.3051,467.0881 279.2625,468.1307 278.6221,468.771 277.9189,469.3346 277.1552,469.8218 276.3442,470.3394 275.468,470.7677 274.555,471.1286 Z M 252.3166,485.4793 C 250.5986,483.7615 250.1912,481.4002 250.7244,479.2017 251.9033,478.4542 253.2424,477.913 255.0234,477.6046 257.1888,477.2305 259.2264,476.9269 261.1449,476.6511 260.8696,478.5693 260.566,480.6071 260.1913,482.7725 259.8831,484.5535 259.3417,485.8929 258.5942,487.0718 256.396,487.6053 254.0347,487.1974 252.3166,485.4793 Z M 262.5959,484.7964 C 262.7266,484.3111 262.8394,483.7966 262.9346,483.247 263.3372,480.9212 263.6649,478.582 263.9962,476.2449 265.6928,476.0019 267.2864,475.7649 268.7845,475.4974 268.4256,476.1624 268.062,476.8398 267.6866,477.5306 266.2424,480.187 264.7361,482.6373 262.5959,484.7964"
         style="fill:#1a3476;fill-opacity:1;fill-rule:evenodd;stroke:none"
         id="path108" />
      <path
         d="M 155.8967,453.3409 C 155.0648,451.1991 154.3065,449.1122 152.2854,447.0908 H 152.2848 C 137.8468,432.6528 137.8468,409.2369 152.2848,394.799 H 152.2854 L 154.9922,392.0922 C 158.3206,388.7629 160.5807,386.6275 161.4268,381.7395 161.8291,379.4131 162.1565,377.0736 162.4887,374.7368 161.572,374.8686 160.6249,375.0009 159.6478,375.1418 162.4343,374.7416 164.9693,374.4009 167.2761,373.9893 167.8669,372.8962 168.4449,371.8363 169.0452,370.8034 168.2872,370.9715 167.5312,371.1161 166.792,371.2479 162.2358,372.0606 157.6131,372.5623 153.0411,373.3534 152.4915,373.4487 151.977,373.5615 151.4911,373.6922 L 151.4239,373.7591 C 150.3434,374.8397 149.5712,376.2306 149.2166,377.6939 150.3952,376.9464 151.7346,376.4049 153.5156,376.0968 155.681,375.7221 157.7188,375.4185 159.637,375.1432 159.3612,377.0617 159.0582,379.0993 158.6835,381.2647 157.9612,385.4364 155.9622,387.1848 153.0232,390.1232 L 150.3164,392.8306 C 134.7917,408.3548 134.7917,433.535 150.3164,449.0592 151.8077,450.5505 152.6168,452.6065 152.9031,453.327 L 153.0147,453.6077 C 153.9476,453.3766 154.9202,453.2882 155.8967,453.3409 Z M 139.9816,382.4952 C 118.7501,403.7261 118.7501,438.1637 139.9816,459.3946 H 139.981 C 142.0021,461.416 144.0887,462.174 146.2311,463.0062 146.1784,462.0294 146.2669,461.0574 146.4979,460.1239 L 146.2178,460.0131 C 145.497,459.7268 143.4413,458.9172 141.95,457.4262 121.8053,437.2815 121.8053,404.6083 141.95,384.4636 L 144.6568,381.7568 C 145.2212,381.1921 145.7416,380.6626 146.2442,380.1696 146.1404,378.7807 146.3301,377.3509 146.8097,375.9806 145.438,377.0135 144.1834,378.2925 142.6884,379.7881 L 139.981,382.4952 Z M 162.9017,371.878 C 163.0964,370.578 163.3014,369.2803 163.5321,367.9883 163.6642,367.249 163.8088,366.4933 163.9766,365.7351 162.9439,366.3357 161.8841,366.9137 160.7907,367.5036 160.5234,369.0017 160.2862,370.5953 160.0432,372.2919 160.9968,372.1564 161.9501,372.0203 162.9017,371.878 Z M 173.0475,369.6205 C 173.9602,369.2597 174.8361,368.8316 175.6471,368.3137 176.4111,367.8265 177.114,367.2635 177.7544,366.6229 180.4589,363.918 181.2314,359.2715 178.3698,356.4105 175.5082,353.5489 170.862,354.3211 168.1574,357.0256 167.5171,357.666 166.9535,358.3692 166.4663,359.1329 165.9487,359.9439 165.5206,360.8201 165.1598,361.7325 163.963,362.5506 162.7549,363.2666 161.5459,363.9387 162.4527,360.3864 163.779,357.467 166.1885,355.0572 170.2551,350.9912 176.6109,350.7143 180.3382,354.4418 184.0654,358.1691 183.7894,364.5252 179.7233,368.5912 177.3133,371.0013 174.3936,372.3273 170.8413,373.2338 171.5139,372.0251 172.2297,370.8167 173.0475,369.6205 Z M 180.3382,487.4479 C 181.9151,485.8713 182.7754,483.8236 182.935,481.6783 181.9386,480.7006 181.0142,479.8689 179.962,479.2022 180.4952,481.4002 180.0879,483.7615 178.3698,485.4793 175.5082,488.3409 170.862,487.5687 168.1574,484.8642 165.9815,482.6883 164.4591,480.2151 162.9998,477.5306 160.4543,472.8478 158.4746,468.8019 154.6279,464.9363 152.7894,463.089 151.0894,462.0847 149.1029,461.1988 148.9184,462.2338 148.9822,463.3126 149.256,464.3515 150.376,464.9598 151.5093,465.7496 152.6542,466.9002 159.1407,473.4184 160.1113,480.7553 166.1885,486.8325 170.2551,490.8986 176.6109,491.1755 180.3382,487.4479 Z M 182.3686,477.4884 C 181.8386,475.973 180.955,474.5302 179.7233,473.2985 173.6461,467.2213 166.3087,466.2507 159.791,459.7642 158.6401,458.6187 157.8504,457.4857 157.2415,456.366 156.2034,456.0922 155.1237,456.0276 154.0894,456.2127 154.9755,458.1992 155.9789,459.8986 157.8268,461.7374 161.6924,465.5843 165.7383,467.5643 170.4212,470.1095 173.0778,471.5535 175.5275,473.0601 177.6872,475.2 179.5805,475.7083 181.0307,476.481 182.3686,477.4884 Z"
         style="fill:#fbc707;fill-opacity:1;fill-rule:evenodd;stroke:#231f20;stroke-width:0.2897;stroke-linecap:butt;stroke-linejoin:miter;stroke-miterlimit:22.9256;stroke-dasharray:none;stroke-opacity:1"
         id="path110" />
      <path
         d="M 290.7048,382.4952 H 290.7054 L 287.998,379.7881 C 284.6696,376.4591 282.534,374.1993 277.6453,373.3534 275.3195,372.9509 272.9803,372.6232 270.6432,372.2919 270.7744,373.2086 270.9077,374.1551 271.048,375.1328 270.6477,372.3457 270.307,369.8113 269.8957,367.5036 268.8024,366.9137 267.7425,366.3357 266.7098,365.7351 266.8776,366.4933 267.0222,367.249 267.1543,367.9883 267.9673,372.5444 268.4687,377.1675 269.2596,381.7395 269.3548,382.2888 269.4682,382.8036 269.5983,383.2892 L 269.6652,383.3561 C 270.7461,384.4369 272.137,385.2085 273.6,385.5637 272.8525,384.3848 272.3114,383.0457 272.003,381.2647 271.6282,379.0993 271.3246,377.0612 271.0494,375.1432 272.9676,375.4185 275.0054,375.7221 277.1708,376.0968 281.3426,376.8185 283.0912,378.8181 286.0296,381.7568 L 288.7364,384.4636 C 308.8811,404.6083 308.8811,437.2815 288.7364,457.4262 287.2451,458.9172 285.1894,459.7268 284.4686,460.0131 L 284.1885,460.1239 C 284.4196,461.0574 284.508,462.0294 284.4547,463.0068 286.5971,462.174 288.6843,461.416 290.7054,459.3946 H 290.7048 C 311.9363,438.1637 311.9363,403.7261 290.7048,382.4952 Z M 280.37,392.8306 C 295.8948,408.3548 295.8948,433.535 280.37,449.0592 278.8787,450.5505 278.0697,452.6065 277.7834,453.327 L 277.6717,453.6077 C 276.7388,453.3761 275.7662,453.2876 274.7897,453.3406 275.6217,451.1988 276.3802,449.1122 278.401,447.0908 H 278.4016 C 292.8396,432.6528 292.8396,409.2369 278.4016,394.799 H 278.401 L 275.6942,392.0922 C 274.1992,390.5969 272.9197,389.342 271.8873,387.9709 273.257,388.4496 274.6874,388.6396 276.0763,388.5361 276.5687,389.0384 277.0985,389.5591 277.6632,390.1232 Z M 250.3483,487.4479 C 251.9252,489.0249 253.9723,489.8849 256.1173,490.0448 257.0953,489.0484 257.9267,488.124 258.5942,487.0715 256.396,487.6053 254.0347,487.1974 252.3166,485.4793 249.4551,482.618 250.2275,477.9717 252.932,475.2669 255.1079,473.0913 257.5814,471.5688 260.2653,470.1095 264.9481,467.5643 268.994,465.5843 272.8596,461.7374 274.7075,459.8986 275.711,458.1992 276.5971,456.2127 275.5627,456.0276 274.4836,456.0922 273.4447,456.366 272.8361,457.4857 272.0463,458.6187 270.8955,459.7642 264.3778,466.2507 257.0403,467.2213 250.9631,473.2985 246.8971,477.3645 246.621,483.7207 250.3483,487.4479 Z M 260.3075,489.4784 C 261.8232,488.948 263.2654,488.065 264.498,486.8325 270.5751,480.7553 271.5454,473.4184 278.0323,466.9002 279.1772,465.7496 280.3105,464.9598 281.4304,464.3515 281.7043,463.3126 281.768,462.2338 281.5832,461.1988 279.5964,462.0847 277.897,463.089 276.0585,464.9363 272.2119,468.8019 270.2322,472.8478 267.6866,477.5306 266.2424,480.187 264.7361,482.6373 262.5959,484.7964 262.0874,486.69 261.3155,488.1399 260.3075,489.4784 Z M 267.7847,371.878 C 266.4845,371.6841 265.1868,371.4783 263.8945,371.2479 263.1549,371.1161 262.3992,370.9715 261.6412,370.8034 262.2416,371.8363 262.8201,372.8957 263.41,373.9893 264.9081,374.2563 266.5015,374.4935 268.1983,374.7368 268.0628,373.7832 267.9267,372.8299 267.7847,371.878 Z M 265.5266,361.7331 C 265.1658,360.8201 264.7378,359.9439 264.2202,359.1329 263.7329,358.3692 263.1694,357.666 262.529,357.0256 259.8245,354.3211 255.1782,353.5489 252.3166,356.4105 249.4551,359.2715 250.2275,363.918 252.932,366.6229 253.5724,367.2635 254.2754,367.8265 255.0393,368.3137 255.8497,368.8316 256.7262,369.2597 257.639,369.6205 258.4568,370.8167 259.1725,372.0251 259.8452,373.2338 256.2928,372.3273 253.3731,371.0013 250.9631,368.5912 246.8971,364.5252 246.621,358.1691 250.3483,354.4418 254.0755,350.7143 260.4314,350.9912 264.498,355.0572 266.9074,357.467 268.2337,360.3864 269.1405,363.9387 267.9316,363.2666 266.7234,362.5506 265.5266,361.7331 Z"
         style="fill:#fbc707;fill-opacity:1;fill-rule:evenodd;stroke:#231f20;stroke-width:0.2897;stroke-linecap:butt;stroke-linejoin:miter;stroke-miterlimit:22.9256;stroke-dasharray:none;stroke-opacity:1"
         id="path112" />
      <path
         d="M 182.9472,361.4984 C 185.0888,360.6664 187.1759,359.9082 189.1973,357.8871 V 357.8865 C 203.6353,343.4485 227.0511,343.4485 241.4891,357.8865 V 357.8871 C 243.5105,359.9079 245.5971,360.6664 247.739,361.4984 247.686,360.5219 247.7744,359.5493 248.006,358.6164 L 247.7254,358.5047 C 247.0048,358.2184 244.9488,357.4094 243.4575,355.9181 227.9333,340.3933 202.7531,340.3933 187.2289,355.9181 185.7376,357.4094 183.6816,358.2184 182.9611,358.5047 L 182.6804,358.6164 C 182.9115,359.5493 182.9999,360.5219 182.9472,361.4984 Z M 253.7929,345.5833 C 232.562,324.3518 198.1244,324.3518 176.8935,345.5833 V 345.5827 C 174.8721,347.6038 174.1141,349.6904 173.2819,351.8328 174.2587,351.7801 175.2307,351.8685 176.1642,352.0996 L 176.275,351.8195 C 176.5613,351.0986 177.3709,349.043 178.8619,347.5517 199.0066,327.407 231.6798,327.407 251.8245,347.5517 253.3156,349.043 254.1251,351.0986 254.4114,351.8195 L 254.5223,352.0996 C 255.4557,351.8685 256.4277,351.7801 257.4051,351.8334 256.5723,349.691 255.8143,347.6038 253.7929,345.5827 Z M 281.8463,385.9398 C 283.4232,384.3629 284.2832,382.3157 284.4431,380.1708 283.4467,379.1928 282.5223,378.3614 281.4698,377.6939 282.0036,379.8921 281.5957,382.2534 279.8776,383.9715 277.0163,386.833 272.37,386.0606 269.6652,383.3561 267.4896,381.1802 265.9671,378.7067 264.5079,376.0228 261.9626,371.34 259.9826,367.2941 256.1357,363.4285 254.2969,361.5806 252.5975,360.5771 250.611,359.691 250.4259,360.7254 250.4906,361.8045 250.7644,362.8431 251.8841,363.452 253.0171,364.2418 254.1626,365.3926 260.6491,371.9103 261.6197,379.2478 267.6969,385.325 271.7629,389.391 278.119,389.6671 281.8463,385.9398 Z M 283.8767,375.9806 C 283.3464,374.4649 282.4634,373.0226 281.2309,371.7901 275.1537,365.7129 267.8168,364.7424 261.2985,358.2558 260.1479,357.1109 259.3582,355.9776 258.7499,354.8577 257.711,354.5838 256.6321,354.5201 255.5972,354.7049 256.483,356.6917 257.4873,358.3911 259.3346,360.2296 263.2003,364.0762 267.2461,366.0559 271.929,368.6014 274.5853,370.0457 277.0356,371.552 279.1947,373.6922 281.0883,374.2007 282.5382,374.9726 283.8767,375.9806 Z M 148.8402,385.9398 C 150.4168,387.5168 152.4645,388.3771 154.6098,388.5367 155.5875,387.5403 156.4191,386.6159 157.0859,385.5637 154.8879,386.0969 152.5266,385.6895 150.8088,383.9715 147.9472,381.1099 148.7194,376.4636 151.4239,373.7591 153.5998,371.5832 156.073,370.0607 158.7574,368.6014 163.4403,366.0559 167.4862,364.0762 171.3518,360.2296 173.1991,358.3911 174.2034,356.6911 175.0893,354.7046 174.0543,354.5201 172.9755,354.5838 171.9366,354.8577 171.3283,355.9776 170.5385,357.1109 169.3879,358.2558 162.8697,364.7424 155.5328,365.7129 149.4556,371.7901 145.3895,375.8567 145.1126,382.2126 148.8402,385.9398 Z M 158.7997,387.9703 C 160.3151,387.4402 161.7579,386.5567 162.9896,385.325 169.0668,379.2478 170.0374,371.9103 176.5239,365.3926 177.6694,364.2418 178.8024,363.452 179.922,362.8431 180.1959,361.8051 180.2605,360.7254 180.0754,359.691 178.0889,360.5771 176.3895,361.5806 174.5507,363.4285 170.7038,367.2941 168.7238,371.34 166.1786,376.0228 164.7346,378.6795 163.228,381.1292 161.0881,383.2889 160.5798,385.1821 159.8071,386.6323 158.7997,387.9703 Z"
         style="fill:#fbc707;fill-opacity:1;fill-rule:evenodd;stroke:#231f20;stroke-width:0.2897;stroke-linecap:butt;stroke-linejoin:miter;stroke-miterlimit:22.9256;stroke-dasharray:none;stroke-opacity:1"
         id="path114" />
      <path
         d="M 253.7929,496.3065 V 496.3071 L 256.5,493.5997 C 259.829,490.2712 262.0888,488.1356 262.9346,483.247 263.3372,480.9212 263.6649,478.582 263.9962,476.2449 263.0795,476.3761 262.133,476.5093 261.1553,476.6496 263.9424,476.2494 266.4768,475.9087 268.7845,475.4974 269.3744,474.404 269.9524,473.3442 270.553,472.3115 269.7948,472.4793 269.0391,472.6239 268.2998,472.756 263.7437,473.5689 259.1206,474.0704 254.5486,474.8613 253.999,474.9565 253.4845,475.0699 252.9989,475.2 L 252.932,475.2669 C 251.8512,476.3477 251.0793,477.7387 250.7244,479.2017 251.9033,478.4542 253.2424,477.913 255.0234,477.6046 257.1888,477.2299 259.2269,476.9263 261.1449,476.6511 260.8696,478.5693 260.566,480.6071 260.1913,482.7725 259.4696,486.9442 257.47,488.6929 254.5313,491.6313 L 251.8245,494.3381 C 231.6798,514.4828 199.0066,514.4828 178.8619,494.3381 L 176.1551,491.6313 C 175.5904,491.0669 175.0609,490.5465 174.568,490.0439 173.179,490.1477 171.7492,489.958 170.3789,489.4784 171.4119,490.8501 172.6909,492.1047 174.1864,493.5997 L 176.8935,496.3071 V 496.3065 C 198.1244,517.538 232.562,517.538 253.7929,496.3065 Z M 243.4575,485.9717 C 227.9333,501.4964 202.7531,501.4964 187.2289,485.9717 L 184.5215,483.2649 C 181.5831,480.3259 179.8347,478.3269 175.663,477.6046 173.4976,477.2299 171.4601,476.9269 169.5416,476.6511 169.8168,478.5693 170.1204,480.6071 170.4951,482.7725 170.8033,484.5535 171.3447,485.8929 172.0922,487.0715 170.6289,486.7169 169.238,485.9447 168.1574,484.8642 L 168.0905,484.797 C 167.9598,484.3111 167.847,483.7966 167.7518,483.247 166.9606,478.675 166.4589,474.0523 165.6462,469.4961 165.5144,468.7566 165.3698,468.0009 165.2017,467.2429 166.2347,467.8432 167.2946,468.4212 168.3876,469.0117 168.7992,471.3188 169.1399,473.8538 169.5402,476.6403 169.3993,475.6632 169.2669,474.7161 169.1351,473.7994 171.472,474.1316 173.8114,474.459 176.1378,474.8613 181.0259,475.7074 183.1612,477.9675 186.4905,481.2959 L 189.1973,484.0027 V 484.0033 C 203.6353,498.4413 227.0511,498.4413 241.4891,484.0033 V 484.0027 L 244.1959,481.2959 C 245.6912,479.8009 246.9461,478.5214 248.3172,477.489 247.8385,478.8587 247.6485,480.289 247.752,481.678 247.2497,482.1704 246.729,482.7002 246.1649,483.2649 Z M 166.2763,473.3864 C 164.9764,473.1917 163.6787,472.9867 162.3866,472.756 161.6474,472.6239 160.8917,472.4793 160.1334,472.3115 160.734,473.3442 161.312,474.404 161.9019,475.4974 163.4,475.7647 164.9937,476.0019 166.6902,476.2449 166.5547,475.2913 166.4186,474.338 166.2763,473.3864 Z M 164.0188,463.2406 C 163.658,462.3279 163.23,461.452 162.7121,460.641 162.2248,459.877 161.6618,459.174 161.0212,458.5337 158.3164,455.8292 153.6698,455.0567 150.8088,457.9183 147.9472,460.7799 148.7194,465.4261 151.4239,468.1307 152.0643,468.771 152.7676,469.3346 153.5312,469.8218 154.3422,470.3394 155.2184,470.7675 156.1309,471.1283 156.9489,472.3251 157.665,473.5332 158.3371,474.7422 154.7847,473.8354 151.8653,472.5091 149.4556,470.0996 145.3895,466.033 145.1126,459.6772 148.8402,455.9499 152.5674,452.2226 158.9236,452.4987 162.9896,456.5648 165.3996,458.9748 166.7256,461.8945 167.6322,465.4468 166.4235,464.7742 165.2151,464.0584 164.0188,463.2406 Z M 264.4101,473.3864 C 264.604,472.0861 264.8098,470.7884 265.0402,469.4961 265.172,468.7566 265.3166,468.0009 265.4847,467.2429 264.4517,467.8432 263.3924,468.4218 262.2988,469.0117 262.0318,470.5098 261.7943,472.1031 261.5513,473.8 262.5049,473.6645 263.4582,473.5284 264.4101,473.3864 Z M 274.555,471.1283 C 275.468,470.7675 276.3442,470.3394 277.1552,469.8218 277.9189,469.3346 278.6221,468.771 279.2625,468.1307 281.967,465.4261 282.7392,460.7799 279.8776,457.9183 277.0163,455.0567 272.37,455.8292 269.6652,458.5337 269.0246,459.174 268.4616,459.877 267.9744,460.641 267.4565,461.4514 267.0284,462.3279 266.6676,463.2406 265.4714,464.0584 264.263,464.7742 263.0543,465.4468 263.9608,461.8945 265.2868,458.9748 267.6969,456.5648 271.7629,452.4987 278.119,452.2226 281.8463,455.9499 285.5738,459.6772 285.2969,466.033 281.2309,470.0996 278.8211,472.5091 275.9017,473.8354 272.3494,474.7422 273.0214,473.5332 273.7375,472.3251 274.555,471.1283 Z"
         style="fill:#fbc707;fill-opacity:1;fill-rule:evenodd;stroke:#231f20;stroke-width:0.2897;stroke-linecap:butt;stroke-linejoin:miter;stroke-miterlimit:22.9256;stroke-dasharray:none;stroke-opacity:1"
         id="path116" />
    </g>
    <path
       d="M 197.9405,344.336 C 197.659,343.5619 196.9977,342.9499 195.9582,342.4949 195.0111,342.0921 193.6437,341.7636 191.8585,341.5105 V 341.5105 L 193.7047,340.8384 C 194.3116,340.6173 194.7677,340.5399 195.0673,340.6082 195.3686,340.6782 195.7303,340.9347 196.1487,341.3812 L 197.0751,340.7278 196.1858,339.4945 195.2906,338.254 V 338.254 L 188.8588,340.5946 189.1678,342.0822 189.1834,342.0842 191.0378,342.5539 C 192.2649,342.8643 193.2585,343.264 194.0151,343.7507 194.7699,344.2326 195.2614,344.7865 195.4888,345.4106 195.6512,345.8571 195.6557,346.2386 195.5021,346.5533 195.3471,346.8708 195.0395,347.112 194.5763,347.2807 194.1344,347.4417 193.7486,347.4479 193.4181,347.3022 193.087,347.1568 192.9614,346.9241 193.0476,346.608 193.17,346.1613 193.0768,345.7998 192.763,345.5235 192.4495,345.2474 192.0713,345.1887 191.6291,345.3497 191.3204,345.4622 191.1013,345.676 190.9709,345.9892 190.8428,346.3016 190.8403,346.6307 190.9647,346.9731 191.2314,347.7047 191.7782,348.1934 192.6031,348.4395 193.4306,348.6864 194.3371,348.6297 195.3249,348.2702 196.4222,347.8706 197.2071,347.3167 197.6794,346.606 198.1485,345.9013 198.2353,345.1459 197.9405,344.336 Z M 204.9219,334.5015 C 203.7563,334.9259 202.9759,335.6575 202.5811,336.6972 202.1856,337.737 202.2341,338.9363 202.7276,340.2921 203.2483,341.7236 204.0163,342.733 205.0294,343.313 206.0436,343.895 207.1539,343.9644 208.3598,343.5259 209.5294,343.1001 210.3086,342.3662 210.7035,341.3245 211.0955,340.2833 211.0442,339.0831 210.5504,337.7251 210.03,336.2953 209.264,335.2901 208.2526,334.7096 207.2418,334.1313 206.1315,334.0616 204.9219,334.5015 Z M 205.4137,335.6427 C 205.9129,335.4605 206.3968,335.613 206.8608,336.0977 207.3254,336.585 207.7614,337.3866 208.1693,338.5077 208.5656,339.5974 208.7399,340.4701 208.6914,341.1275 208.6432,341.7843 208.3671,342.2038 207.868,342.3852 207.373,342.5655 206.8911,342.4127 206.4231,341.924 205.9566,341.4379 205.5172,340.6326 205.1082,339.5095 204.7127,338.4221 204.5418,337.5502 204.5928,336.8948 204.6447,336.2409 204.9188,335.8225 205.4137,335.6427 Z"
       style="fill:#fbc707;fill-opacity:1;fill-rule:nonzero;stroke:#231f20;stroke-width:0.1803;stroke-linecap:butt;stroke-linejoin:miter;stroke-miterlimit:22.9256;stroke-dasharray:none;stroke-opacity:1"
       id="path118" />
    <path
       d="M 226.245,334.8323 C 225.0794,334.408 224.0116,334.4669 223.0404,335.0095 222.0695,335.552 221.3359,336.5016 220.8419,337.8574 220.3211,339.2892 220.2602,340.5557 220.6636,341.6511 221.0669,342.7486 221.8725,343.5163 223.0778,343.9551 224.2474,344.3805 225.3163,344.3196 226.2883,343.7753 227.2578,343.23 227.9906,342.2772 228.4843,340.9194 229.0054,339.4896 229.0643,338.2277 228.6626,337.1326 228.2604,336.0402 227.4548,335.2728 226.245,334.8323 Z M 225.8887,336.0223 C 226.3878,336.204 226.6611,336.6315 226.7045,337.3013 226.7476,337.9734 226.5656,338.8674 226.1577,339.9883 225.7614,341.0776 225.3331,341.8588 224.8739,342.3311 224.4146,342.8033 223.9336,342.9465 223.4344,342.7648 222.9395,342.5848 222.6685,342.1582 222.6243,341.4835 222.5792,340.8109 222.7603,339.9114 223.1691,338.7881 223.5651,337.701 223.9943,336.9231 224.4549,336.4537 224.9147,335.9863 225.3937,335.842 225.8887,336.0223 Z M 236.1529,348.7141 C 236.9503,349.0044 237.7052,349.0824 238.4152,348.9483 239.1273,348.8148 239.5692,348.5081 239.7419,348.0344 239.8428,347.7577 239.8277,347.4887 239.6985,347.226 239.5706,346.964 239.3603,346.7795 239.0706,346.6738 238.7871,346.5709 238.5142,346.57 238.2554,346.6695 237.9963,346.7693 237.8163,346.9482 237.7114,347.2095 237.6077,347.4686 237.4679,347.6285 237.2896,347.6906 237.1139,347.7535 236.8672,347.726 236.554,347.612 235.8921,347.3708 235.4783,346.902 235.311,346.2038 235.1741,345.613 235.2271,344.9086 235.4621,344.0914 V 344.0914 C 235.9358,344.7833 236.6416,345.2987 237.5807,345.6408 238.4841,345.9694 239.3203,345.9747 240.0874,345.6573 240.8522,345.3392 241.3868,344.7649 241.6887,343.9358 242.0337,342.9882 241.9739,342.1188 241.509,341.3239 241.0452,340.5302 240.2444,339.9279 239.1086,339.514 237.8273,339.0477 236.7218,339.0574 235.7929,339.5435 234.862,340.0282 234.1431,340.9693 233.6355,342.3651 233.0756,343.9026 233.015,345.2199 233.4532,346.3206 233.8886,347.4204 234.7889,348.2175 236.1529,348.7141 Z M 236.5013,341.8155 C 236.7011,341.2658 236.9755,340.8936 237.3242,340.6995 237.6746,340.5061 238.0881,340.4962 238.568,340.6706 239.076,340.8557 239.4079,341.1468 239.5613,341.5425 239.7149,341.9362 239.6852,342.4258 239.4729,343.0094 239.2716,343.5613 238.9938,343.9372 238.642,344.1322 238.2908,344.3284 237.8752,344.3374 237.3953,344.1626 236.8874,343.9774 236.5574,343.6875 236.4075,343.2906 236.2572,342.8932 236.2878,342.4011 236.5013,341.8155 Z"
       style="fill:#fbc707;fill-opacity:1;fill-rule:nonzero;stroke:#231f20;stroke-width:0.1803;stroke-linecap:butt;stroke-linejoin:miter;stroke-miterlimit:22.9256;stroke-dasharray:none;stroke-opacity:1"
       id="path120" />
    <path
       d="M 159.5166,435.746 H 164.592 C 164.6079,399.6811 184.4291,365.603 215.3432,347.7677 246.2573,365.603 266.078,399.6811 266.0944,435.746 H 271.1699 L 271.1098,432.2398 270.9286,428.705 270.6284,425.1892 270.2117,421.6949 269.6794,418.2236 269.0337,414.7798 268.2765,411.3652 267.4089,407.9829 266.4337,404.6352 265.3512,401.3249 264.1635,398.0548 262.8731,394.8276 261.4808,391.6463 259.9883,388.5123 258.3981,385.429 256.7112,382.3994 254.9288,379.4258 253.0531,376.511 251.0858,373.6576 249.0279,370.8677 246.8818,368.1451 244.6486,365.4916 242.3296,362.91 239.9272,360.4031 237.4418,357.9741 234.8762,355.625 232.232,353.3593 229.5096,351.1789 226.7121,349.0872 223.8395,347.0865 220.8951,345.1805 215.3432,341.8492 209.7913,345.1805 206.8469,347.0865 203.9743,349.0872 201.1768,351.1789 198.4544,353.3593 195.8102,355.625 193.2446,357.9741 190.7592,360.4031 188.3568,362.91 186.0378,365.4916 183.8047,368.1451 181.6586,370.8677 179.6006,373.6576 177.6334,376.511 175.7577,379.4258 173.9752,382.3994 172.2883,385.429 170.6981,388.5123 169.2057,391.6463 167.8133,394.8276 166.523,398.0548 165.3352,401.3249 164.2527,404.6352 163.2776,407.9829 162.4099,411.3652 161.6528,414.7798 161.007,418.2236 160.4747,421.6949 160.058,425.1892 159.7578,428.705 159.5767,432.2398 Z"
       style="fill:#fbc707;fill-opacity:1;fill-rule:evenodd;stroke:none"
       id="path122" />
    <path
       d="M 271.1699,435.746 271.1098,432.2398 270.9286,428.705 270.6284,425.1892 270.2117,421.6949 269.6794,418.2236 269.0337,414.7798 268.2765,411.3652 267.4089,407.9829 266.4337,404.6352 265.3512,401.3249 264.1635,398.0548 262.8731,394.8276 261.4808,391.6463 259.9883,388.5123 258.3981,385.429 256.7112,382.3994 254.9288,379.4258 253.0531,376.511 251.0858,373.6576 249.0279,370.8677 246.8818,368.1451 244.6486,365.4916 242.3296,362.91 239.9272,360.4031 237.4418,357.9741 234.8762,355.625 232.232,353.3593 229.5096,351.1789 226.7121,349.0872 223.8395,347.0865 220.8951,345.1805 215.3432,341.8492 209.7913,345.1805 206.8469,347.0865 203.9743,349.0872 201.1768,351.1789 198.4544,353.3593 195.8102,355.625 193.2446,357.9741 190.7592,360.4031 188.3568,362.91 186.0378,365.4916 183.8047,368.1451 181.6586,370.8677 179.6006,373.6576 177.6334,376.511 175.7577,379.4258 173.9752,382.3994 172.2883,385.429 170.6981,388.5123 169.2057,391.6463 167.8133,394.8276 166.523,398.0548 165.3352,401.3249 164.2527,404.6352 163.2776,407.9829 162.4099,411.3652 161.6528,414.7798 161.007,418.2236 160.4747,421.6949 160.058,425.1892 159.7578,428.705 159.5767,432.2398 159.5166,435.746"
       style="fill:none;stroke:#231f20;stroke-width:0.2894;stroke-linecap:butt;stroke-linejoin:miter;stroke-miterlimit:22.9256;stroke-dasharray:none;stroke-opacity:1"
       id="path124" />
    <path
       d="M 266.0944,435.7896 C 266.0944,399.7086 246.2698,365.6103 215.3432,347.7677 184.4167,365.6103 164.592,399.7086 164.592,435.7896"
       style="fill:none;stroke:#231f20;stroke-width:0.845;stroke-linecap:butt;stroke-linejoin:miter;stroke-miterlimit:22.9256;stroke-dasharray:none;stroke-opacity:1"
       id="path126" />
    <path
       d="M 189.9564,493.1881 187.7298,497.2037 C 187.5084,497.6033 187.3108,497.8386 187.1345,497.9112 186.9593,497.9809 186.6974,497.9387 186.3488,497.7788 L 186.1359,497.6841 185.599,498.6527 187.6603,499.7951 189.7194,500.9366 190.256,499.968 190.0636,499.8379 C 189.743,499.627 189.5681,499.4271 189.5346,499.2412 189.5023,499.0533 189.5975,498.7613 189.8189,498.3613 L 190.455,497.2141 V 497.2141 L 193.4569,498.8781 V 498.8781 L 192.8208,500.0258 C 192.5991,500.4255 192.4019,500.6608 192.2255,500.7331 192.0501,500.8031 191.7882,500.7609 191.4395,500.6007 L 191.2266,500.5063 190.69,501.4749 192.7511,502.6173 194.8102,503.7582 195.3471,502.7899 195.1537,502.6601 C 194.8334,502.4486 194.6585,502.2488 194.6254,502.0628 194.5928,501.8754 194.6883,501.5829 194.9097,501.1835 L 197.1357,497.1677 C 197.3571,496.7677 197.5547,496.5324 197.731,496.4604 197.9062,496.3901 198.1681,496.4329 198.517,496.5928 L 198.7299,496.6875 199.2665,495.7186 197.2071,494.5774 195.1461,493.435 194.6095,494.4036 194.8022,494.5337 C 195.1231,494.7446 195.298,494.9444 195.3312,495.1304 195.3632,495.3178 195.2685,495.6103 195.0471,496.0097 L 194.0584,497.7935 V 497.7935 L 191.056,496.1293 V 496.1293 L 192.0447,494.3458 C 192.2664,493.9461 192.4637,493.7108 192.64,493.6385 192.8154,493.5685 193.0774,493.6107 193.426,493.7709 L 193.6389,493.8653 194.1755,492.897 192.117,491.7557 190.0559,490.6128 189.5187,491.5814 189.7118,491.7115 C 190.0321,491.923 190.2056,492.1248 190.2385,492.3125 190.273,492.4962 190.1778,492.7881 189.9564,493.1881 Z M 208.7323,497.9934 C 207.4822,497.7729 206.3631,498.0257 205.3797,498.7551 204.3961,499.4847 203.7881,500.5111 203.5545,501.8366 203.3065,503.2417 203.5236,504.4842 204.207,505.5625 204.8876,506.6402 205.8698,507.2936 207.1511,507.5192 208.0307,507.6746 208.8471,507.6082 209.6039,507.3208 V 507.3208 L 209.7312,507.7389 210.6088,507.8937 V 507.8937 L 211.9561,505.0502 V 505.0502 L 211.0479,504.5357 C 210.4557,505.1857 209.8752,505.6523 209.3083,505.9386 208.7393,506.2221 208.1945,506.3182 207.669,506.2255 207.0023,506.1081 206.5275,505.7022 206.248,505.006 205.9659,504.3118 205.9183,503.426 206.1077,502.3531 206.2888,501.3266 206.6403,500.55 207.1579,500.0261 207.6778,499.5011 208.2892,499.3002 208.9959,499.4246 L 208.9896,499.4237 C 209.5801,499.5232 210.0404,499.8538 210.3763,500.4111 210.4526,500.5363 210.5022,500.6959 210.53,500.8881 210.5555,501.0803 210.5484,501.2504 210.511,501.3992 210.4461,501.6623 210.3571,501.8312 210.2448,501.91 210.1031,502.0129 209.8321,502.0475 209.4389,502.0081 L 209.2008,501.9866 209.0081,503.077 211.1647,503.4572 213.3196,503.837 213.5117,502.7465 213.3091,502.6904 C 212.974,502.6062 212.7705,502.4809 212.6917,502.3185 212.6129,502.1535 212.6149,501.8457 212.6951,501.3913 L 213.1336,498.9044 211.6596,498.6445 211.208,499.3761 V 499.3761 C 210.5484,498.6334 209.7244,498.1725 208.7323,497.9934 Z M 219.0779,499.7191 225.3611,505.7629 V 505.7629 C 225.1199,505.8439 224.8801,505.9111 224.638,505.963 223.937,506.1095 223.2879,506.0597 222.694,505.8147 222.0973,505.5678 221.5083,505.1049 220.9241,504.4218 L 220.0799,504.9865 220.9467,506.3258 221.8116,507.6658 V 507.6658 L 225.0522,507.0946 V 507.0946 L 228.3009,506.5285 228.3599,505.6087 228.3537,505.6095 222.0919,499.5876 V 499.5876 C 222.5211,499.441 222.927,499.333 223.31,499.2608 223.5223,499.2233 223.7386,499.2038 223.9605,499.2055 224.6255,499.2046 225.2069,499.3517 225.7027,499.648 226.2005,499.9442 226.6121,500.3881 226.9446,500.9766 L 227.8494,500.4808 226.9826,499.0269 226.1115,497.5741 V 497.5741 L 222.3788,498.2323 V 498.2323 L 219.13,498.7976 Z M 234.0422,496.9315 236.2683,500.9477 C 236.4897,501.3473 236.5849,501.6396 236.5526,501.8275 236.5189,502.0129 236.344,502.2128 236.0237,502.4242 L 235.8309,502.5543 236.3675,503.5224 238.4269,502.3814 V 502.3814 L 240.683,501.1308 C 242.0291,500.3841 242.8821,499.4481 243.2443,498.3239 243.6066,497.1991 243.438,496.0083 242.7409,494.7503 242.0249,493.4591 241.1067,492.6657 239.9902,492.3737 238.8722,492.08 237.634,492.3108 236.2717,493.0659 L 233.9702,494.3415 V 494.3415 L 231.9114,495.483 232.448,496.4516 232.6606,496.3569 C 233.0099,496.1971 233.2726,496.1568 233.4495,496.2288 233.6233,496.2966 233.8209,496.5324 234.0422,496.9315 Z M 236.0424,495.6148 C 235.8669,495.2976 235.8017,495.0638 235.8465,494.9127 235.8901,494.7596 236.0699,494.5958 236.3851,494.4212 L 236.4874,494.3645 C 237.2253,493.9551 237.943,493.8948 238.6417,494.1839 239.3396,494.4736 239.946,495.0797 240.4602,496.0069 241.0036,496.9874 241.2105,497.8301 241.0841,498.5354 240.9582,499.2412 240.4947,499.8166 239.6957,500.2597 L 239.6384,500.2914 C 239.3237,500.4663 239.0899,500.5315 238.9365,500.4873 238.7849,500.4456 238.621,500.2665 238.445,499.9493 Z"
       style="fill:#fbc707;fill-opacity:1;fill-rule:nonzero;stroke:#231f20;stroke-width:0.1803;stroke-linecap:butt;stroke-linejoin:miter;stroke-miterlimit:22.9256;stroke-dasharray:none;stroke-opacity:1"
       id="path128" />
  </g>
</svg>
