<?xml version="1.0" encoding="UTF-8"?>
<!-- Creator: CorelDRAW Home & Student X8 -->
<svg id="svg4187" width="1e3" height="600" style="clip-rule:evenodd;fill-rule:evenodd;image-rendering:optimizeQuality;shape-rendering:geometricPrecision;text-rendering:geometricPrecision" version="1.1" viewBox="0 0 1e3 600" xml:space="preserve" xmlns="http://www.w3.org/2000/svg">
 <defs id="defs4171">
  <style id="style4169" type="text/css">
   <![CDATA[
    .fil2 {fill:#FEFEFE}
    .fil0 {fill:#EF494D}
    .fil1 {fill:#0070B8}
   ]]>
  </style>
 </defs>
 <g id="Layer_x0020_1" transform="translate(0 789.266)">
  
  
  
  
  
  
  
 <rect id="rect4320" y="-789.266" width="1e3" height="600" style="fill-rule:evenodd;fill:#cf142b;stroke-width:.768039"/><path id="path5716" transform="matrix(1.12407 0 0 .507678 402.414 -721.611)" d="m427.986 1048.59h-682.342l341.171-590.926z" style="clip-rule:evenodd;fill-rule:evenodd;fill:#335191;image-rendering:optimizeQuality;shape-rendering:geometricPrecision;stroke-width:.9"/><path id="path5716-2" transform="matrix(-1.12407 0 0 -.507678 597.586 -256.921)" d="m427.986 1048.59h-682.342l341.171-590.926z" style="clip-rule:evenodd;fill-rule:evenodd;fill:#335191;image-rendering:optimizeQuality;shape-rendering:geometricPrecision;stroke-width:.9"/><path id="path4324" d="m-2e-5 -789.266 1e3 600m-1e3 0 1e3 -600" stroke="#ffffff" stroke-width="120"/><circle id="path5391" cx="500" cy="-489.266" r="166.667" style="clip-rule:evenodd;fill-rule:evenodd;fill:#ffffff;image-rendering:optimizeQuality;shape-rendering:geometricPrecision;stroke-width:.453552"/><g id="g4968" transform="matrix(.849057 0 0 .849057 -226.792 -601.342)" style="clip-rule:evenodd;fill-rule:evenodd;image-rendering:optimizeQuality;shape-rendering:geometricPrecision"><path id="path4174" class="fil0" d="m855 43c-4-4-9-5-14-5-3 1-5 2-8 3s-6 1-7-3c-4 7 3 11 12 6 7-4 12-3 17 2-11-4-18-1-22 9 5-6 17-8 22-2 3-5 3-12 0-19s-10-9-12-17c-6 0-15-1-17 9-1 4 1 9 5 13 0-8 8-10 12-2 1-8 11-4 12 6zm49 163 13 19 37-29c5-4 12 0 14 6-3-2-6-2-8-1 5 7-3 14-11 9l-21 18h31c7 1 8 10 6 14-2-4-4-6-6-6 0 8-12 9-14 0h-20l13 21c4 6 1 13-7 15 2-3 3-7 2-10-9 5-15-3-8-10l-11-16h-13c-2 8-14 8-15-1-3 0-6 2-7 6-2-5-1-13 6-13l24-1-12-17 2-5zm-95-1-13 20-37-29c-5-4-12 0-14 6 3-2 6-2 8-1-5 7 3 14 11 9l21 18h-31c-7 1-8 10-6 14 2-4 4-6 6-6 0 8 12 9 14 0h20l-13 21c-4 6-1 13 7 15-2-3-3-7-2-10 9 5 15-3 8-10l11-16h13c2 8 14 8 15-1 3 0 6 2 7 6 2-5 1-13-6-13l-24-1 12-17-2-5z" style="fill:#e13438"/><path id="path4176" class="fil1" d="m731 1c21 26 51 39 74 59 4 3 4 8 1 13-5 10 0 21 12 20 6 0 10-2 13-4 6-4 9-10 11-15-12 4-17-11-5-14-5 10 12 8 18-6 3-6 3-13 0-20s-10-9-12-17c3-3 11-5 20 0 6 3 13 3 15-1 1 5-1 10-7 10 2 2 7 13 10 9 1 6-3 8-7 6 1 5 7 14 11 10 0 8-6 9-9 5 0 7 5 17 11 14 1 7-7 9-14 3 1 8 5 14 12 18 3 1 6 2 10 2 12 1 17-9 12-20-3-5-3-10 1-13 30-25 53-33 74-59 11 31-15 47-48 65 20 2 39 2 54-1 0 20-20 26-51 21 16 17 34 31 52 41-15 14-37 0-59-18 16 26 33 51 52 72-25 10-45-21-67-55 2 20 5 39 11 54-13 0-26-10-33-37l-8 8c7 21 17 39 30 55l-16-1-6 14c-4-11-10-20-16-27l-9 50c-2 14 21 16 32 5 2 19-17 36-35 24 3 12 9 20 19 22-6 5-14 6-23 2l-5 23-4-23c-10 4-17 3-23-2 11-2 16-10 19-22-19 12-37-6-35-24 10 10 33 9 32-5l-9-50c-7 7-12 16-16 27l-6-14-16 1c13-16 23-33 30-55l-8-8c-4 17-14 36-33 37 5-13 9-30 11-54-22 33-40 65-67 55 17-19 34-43 52-72-26 22-46 31-59 18 17-9 34-23 52-41-30 4-50 0-51-21 15 3 33 3 54 1-30-17-60-32-48-65z" style="fill:#335191"/><path id="path4178" class="fil2" d="m826 130v-36h61v36c0 10-3 17-8 23-7 8-16 12-22 13h-1c-6-1-15-5-22-13-5-6-8-13-8-23z"/><path id="path4180" class="fil0" d="m882 146c-6 12-17 18-25 19-9-1-21-7-26-19l5-14 10 28 10-28 11 28 10-28z" style="fill:#e13438"/><path id="path4182" class="fil1" d="m827 130v-2l9-24 10 28 10-28 11 28 10-28 9 24v2c0 6-1 12-4 16l-5-14-10 28-11-28-10 28-10-28-5 14c-3-4-4-10-4-16z" style="fill:#335191"/><path id="path4184" class="fil2" d="m855 21c-3 5 4 8 7 3l-1-1c-2 3-3 1-2-1-1-1-3-1-4-1z"/></g></g>
</svg>
