<?xml version="1.0" encoding="UTF-8"?>
<!DOCTYPE svg PUBLIC "-//W3C//DTD SVG 1.1//EN" "http://www.w3.org/Graphics/SVG/1.1/DTD/svg11.dtd">
<!-- Creator: CorelDRAW X8 -->
<svg xmlns="http://www.w3.org/2000/svg" xml:space="preserve" width="100.076mm" height="100.076mm" version="1.1" style="shape-rendering:geometricPrecision; text-rendering:geometricPrecision; image-rendering:optimizeQuality; fill-rule:evenodd; clip-rule:evenodd"
viewBox="0 0 10008 10008"
 xmlns:xlink="http://www.w3.org/1999/xlink">
 <defs>
  <style type="text/css">
   <![CDATA[
    .str0 {stroke:black;stroke-width:7.61999}
    .fil5 {fill:none}
    .fil2 {fill:black}
    .fil3 {fill:#009900}
    .fil1 {fill:#CC0000}
    .fil4 {fill:#F4D513}
    .fil0 {fill:#FFCC00}
   ]]>
  </style>
 </defs>
 <g id="Zastava">
  <metadata id="CorelCorpID_0Corel-Layer"/>
  <rect class="fil0" x="4" y="4" width="10000" height="10000"/>
  <rect class="fil1" x="4" y="4" width="10000" height="3000"/>
  <path class="fil2" d="M5684 3488c-18,24 -4,14 -32,25 -27,11 -17,18 -35,26 -4,2 -37,9 -45,11 -13,3 -12,1 -25,7 -2,1 -7,4 -8,5l-63 32c-41,17 -49,62 -99,71 -17,52 -56,24 -110,139l-84 168c-5,18 7,25 1,39 -10,25 -6,17 -8,44 -1,31 -53,77 -17,220 10,38 6,62 13,103l-13 15 37 148c7,20 7,6 15,29l30 110c13,45 13,93 19,114 8,29 21,72 22,111 0,33 -5,2 -9,30 -2,13 4,24 4,44 -25,33 -20,23 -20,76 -46,23 -59,107 -155,137 -79,26 -78,19 -145,-19 -36,-20 -19,-12 -70,-17 -22,-18 -48,-57 -52,-87 -4,-24 1,-30 -7,-50 -10,-26 -54,-87 -17,-168 13,-28 10,-23 13,-56l45 -132c6,-13 2,-11 12,-25 22,-30 15,-42 31,-77 13,-29 1,-53 22,-86 21,-35 18,-75 24,-115 5,-33 6,-29 -5,-64 20,-49 5,-26 4,-76 -1,-25 -15,-60 -14,-68 11,-97 -24,-65 -37,-129 -7,-35 -22,-83 -44,-113 -5,-7 -3,2 -11,-15 -9,-20 -9,-39 -27,-62 -14,-17 -30,-29 -45,-50 -9,-11 -30,-47 -37,-52 -33,-24 -19,-2 -49,-40 -32,-41 -103,-57 -142,-85 -17,-11 -5,-8 -23,-22 -25,-19 -45,-11 -72,-22 -23,-10 -45,-27 -57,-32 -12,-5 -28,-4 -37,-7 -14,-4 -20,-11 -32,-19 -32,0 -61,2 -95,-1 -33,-2 -54,-34 -83,-19 -1,0 -3,2 -4,2l-8 4c-12,-11 -22,-16 -41,-15 -58,4 -25,-22 -117,-3 -19,4 -42,13 -63,14 -70,5 -136,5 -199,27 -86,31 -95,0 -188,47 -13,6 -18,6 -28,11 -29,14 -1,1 -20,18 -35,33 -93,34 -129,59 -23,16 -66,38 -80,55 -11,13 -12,18 -31,25 -40,12 -23,18 -46,29 -60,29 -50,-8 -86,49 -5,9 -12,19 -21,29 -29,35 -36,22 -58,42 -35,30 1,33 -77,75 -61,33 -92,106 -124,129 -9,8 -7,4 -16,10l-12 9c-1,0 -2,2 -3,3 -20,16 -13,0 -31,18 -36,35 -5,25 -66,41 -16,48 -12,18 -47,47 -28,24 -13,32 -64,34 -13,39 -97,64 -129,82 -32,18 -14,15 -57,19 -51,46 -70,46 -148,52 -41,3 -88,-18 -125,5 -21,13 -18,9 -42,16 -13,27 -26,36 -32,60 -4,11 2,-4 -9,13 -48,74 -11,75 5,127 4,15 13,22 22,39 11,23 33,67 31,83 -11,80 28,107 2,204 -8,28 -9,83 -17,96 -23,39 -6,42 -27,88 -9,20 -17,156 -18,158l-24 101c-9,40 -8,75 -13,116 -3,24 -12,30 -17,47 -6,24 -10,82 -14,112 -6,46 -20,27 -16,95 1,13 2,48 1,56 -3,17 -12,25 -6,51 11,53 4,51 -12,102 18,37 16,87 15,133 -1,25 11,46 15,69 12,60 -2,91 36,191 16,44 7,31 10,63 1,10 15,39 20,62l38 173c11,28 35,39 40,69 5,32 -3,34 18,58 59,69 19,47 45,75l34 47c9,21 -9,2 13,20 15,13 24,28 40,37 7,4 20,6 27,10l164 122c26,9 49,33 74,45 6,3 0,3 16,6 7,2 13,0 23,2 17,3 35,20 54,26 9,3 19,3 26,5l80 15c71,4 144,1 215,-7 60,-7 44,8 93,-13 7,-3 26,-7 35,-9 25,-6 45,-14 71,-14 9,-32 31,-19 58,-34l91 -42c29,-12 4,-1 23,-16 15,-13 28,-13 40,-23 22,-20 45,-45 72,-61 53,-30 45,-48 70,-64 44,-29 27,-55 63,-69 42,-15 43,-28 81,-53l53 -47c10,-12 10,-8 21,-18l106 -95c54,-41 61,-18 100,-33 24,-9 -5,-4 23,-9 79,-16 59,0 126,13 38,8 66,-5 83,35 12,27 30,73 19,104 -3,7 -7,9 -11,21l-23 47c-4,9 -2,10 -8,22l-50 70c-5,7 -1,3 -7,13 -12,19 -19,20 -47,23 -12,29 -43,36 -65,55 -13,10 -16,15 -31,24 -25,14 -19,14 -37,28 -39,5 -82,23 -120,19 -16,43 -49,26 -88,39 -15,5 -34,23 -62,32l-66 35c-23,19 -175,73 -220,103 -13,8 -19,23 -33,30 -25,14 -21,2 -43,27l-102 95c-33,23 -48,71 -80,96 -37,29 -64,80 -93,122 -19,26 -3,21 -10,47 -8,33 -12,11 -1,50 7,24 -9,81 -16,105 -6,19 -14,18 -15,47 -3,63 12,162 48,217 15,21 -11,-18 7,7l51 68c1,28 1,39 11,64l17 11c18,12 17,25 22,41 7,21 9,8 17,33 12,35 -1,11 18,32 18,19 5,14 17,34 10,15 26,25 31,44 10,33 17,24 18,66 10,3 29,10 39,18 29,20 25,43 46,67 26,29 27,42 59,62 33,20 29,37 50,63 23,27 41,7 67,53 14,26 9,17 30,28 17,9 52,41 68,51l52 36c12,7 9,1 23,10 31,19 3,49 81,40l91 60c25,9 20,-2 36,17 57,0 51,-11 85,25 41,-2 76,2 110,24 38,25 69,17 112,34 38,16 91,16 137,21 48,5 36,21 69,26 13,2 28,-1 42,1l67 17c34,13 35,1 70,25 23,16 46,12 66,13l118 24c39,17 64,10 99,26 1,0 5,1 6,2 38,13 96,66 139,87l44 27c24,10 29,29 40,55 15,32 59,50 98,42l99 -48 64 -92c10,-30 11,-10 33,-40 47,-63 82,-48 144,-78 6,-3 30,-21 45,-30 38,-21 84,-13 118,-28 14,-6 34,-20 54,-23 28,-5 33,-3 57,-18 51,-32 47,-13 101,-17l95 -26c22,-9 34,-19 62,-26l61 -15c21,-8 45,-5 67,-8 30,-4 18,-15 55,-22 53,-10 72,-34 104,-42 94,-25 64,-38 98,-54 21,-9 26,2 69,-12l48 -10c52,-22 24,-44 108,-45 17,-28 49,-51 81,-46 21,-25 45,-26 72,-46 16,-12 12,-5 32,-13l104 -61c20,-15 -9,-1 45,-37 28,-18 20,-27 38,-44 8,-8 18,-12 22,-17 9,-9 7,-16 17,-26 20,-20 32,-9 45,-45 22,-61 26,-60 58,-105 18,-25 54,-51 79,-87 16,-22 0,-36 22,-59 49,-49 90,-86 96,-161 -10,-52 2,-42 11,-80 5,-24 7,-60 13,-82 7,-26 14,-52 8,-82 -6,-34 4,-41 -17,-64 10,-51 3,-101 -3,-155l-39 -90c-24,-38 -21,-57 -65,-112 -19,-24 -8,-6 -28,-17 -23,-13 -11,-34 -34,-54 -22,-21 -37,-21 -60,-35 -32,-19 -27,-48 -61,-71 -20,-15 -10,-6 -21,-24 -15,-25 -24,-30 -46,-42 -33,-19 -68,-60 -102,-82 -16,-10 -16,-5 -31,-13 -22,-11 -3,-8 -26,-18 -16,-8 -26,-6 -36,-9 -6,-2 -76,-45 -81,-56 -46,-1 -90,-1 -128,-26 0,0 -22,-19 -25,-23l-39 4c-16,-21 -32,-17 -57,-23 -29,-7 -212,-6 -282,-67 -12,-10 -6,-14 -18,-27l-69 -64c-21,-30 4,-24 -32,-54 -7,-51 -5,-118 15,-162 37,-82 196,-109 273,-83 50,16 83,71 113,80 6,20 5,34 12,48 22,41 18,-7 57,63 18,31 7,-13 57,64 28,42 69,24 84,79 8,33 54,32 68,65 10,23 -2,20 19,38 18,16 21,10 37,20 42,26 3,26 71,28 22,0 123,59 147,77 36,25 35,27 85,28 40,1 31,19 80,19 41,0 73,-12 108,-16 32,6 27,54 224,-10 42,-13 122,-46 149,-73 11,-11 5,-8 22,-16 24,-12 37,-28 62,-45l48 -28c25,-14 55,-57 72,-80 18,-25 54,-55 68,-78 16,-28 15,-19 36,-39 25,-24 8,-30 24,-53 9,-13 4,0 14,-17l75 -115c7,-15 1,-11 10,-28 17,-31 19,-55 31,-77 9,-16 18,-30 25,-51 16,-43 31,-70 40,-113 8,-38 1,-94 12,-131 23,-78 -13,-139 -9,-183 4,-43 12,-116 -16,-156 -6,-10 -8,-14 -14,-23 6,-33 12,-84 3,-123 -9,-37 -13,-75 -26,-113l-34 -112c-5,-17 -13,-17 -21,-35 -17,-33 -40,-113 -50,-152 -1,-5 -2,-39 -3,-54 -10,-82 7,-66 -22,-137l-27 -79c-2,-21 4,-36 4,-62 0,-73 -12,-73 -15,-100 -5,-37 -5,-77 23,-92 -7,-52 0,-31 10,-67 8,-27 -2,-54 4,-78 9,-35 45,-68 57,-105 -20,-19 -15,-13 -42,-18 -20,-4 -34,-14 -47,-25 -57,-43 -82,0 -99,6 -25,8 -108,-28 -140,-33 -30,-5 -19,2 -49,-14 -29,-14 -57,0 -82,-31 -11,-12 2,-2 -12,-13 -14,-11 -4,4 -17,-14 -15,-19 -5,-24 -35,-32 -39,-10 -8,6 -35,-20 -22,-20 -50,-21 -77,-36 -19,-10 -14,-18 -30,-33 -13,-14 -17,-11 -27,-30 -12,-21 -6,-25 -25,-39 -36,-27 -52,-1 -59,-60 -21,-12 -32,-33 -50,-45 -12,-9 -12,-2 -24,-14 -9,-9 -15,-26 -25,-39 -115,-133 -154,-101 -189,-152 -16,-24 -8,-18 -34,-30 -31,-14 -19,-13 -39,-30 -14,-12 -28,-14 -40,-23 -32,-25 -56,-26 -89,-44 -18,-10 -26,-21 -41,-28 -12,-6 -40,-18 -49,-22 -34,-12 -20,1 -40,-28 -35,-9 -53,-15 -85,-23 -13,-12 -7,-12 -25,-27 -20,-15 -11,-4 -35,-15 -37,-15 -67,-46 -111,-42 -22,1 -18,4 -42,-2 -56,-13 -61,-20 -123,-11 -51,-66 -217,-34 -293,-28 -65,5 -116,-18 -176,16 -33,19 -69,19 -109,32zm-1933 1940c31,-28 24,-25 60,-12 27,10 66,7 95,10 38,3 24,59 143,59 21,22 66,40 97,44 29,4 78,8 102,20 128,63 149,-13 221,57l38 -7c61,56 16,14 57,63 42,51 -3,86 -21,118 -10,17 -6,25 -19,44 -19,27 -27,48 -45,78l3 32c-8,7 -18,16 -23,22 -24,28 -18,79 -43,95 -12,7 -49,20 -67,-9 -12,-19 -19,-43 -40,-55 -69,-41 -10,-4 -48,-41 -37,-35 -31,-42 -41,-53 -19,-23 2,16 -48,-48 -27,-34 -25,-23 -40,-54 -15,-30 -26,-26 -46,-43 -11,-10 -7,-15 -19,-25 -11,-10 -15,-8 -29,-22 -6,-7 -17,-23 -19,-25 -18,-17 -16,1 -33,-18 -21,-24 15,-13 -47,-48l-98 -85c-55,-67 -96,-31 -90,-97zm2218 233c-61,41 -18,-33 -94,98 -22,39 -54,13 -125,159 -27,56 -38,35 -74,65 -23,20 -3,26 -51,50l-34 6c-17,-1 -40,-74 -46,-92 -4,-15 -8,-17 -16,-35l-54 -79c-11,-15 -5,-21 -12,-38 -13,-31 -32,-11 -41,-48 -12,-52 38,-91 81,-101 36,-9 49,2 79,-15 41,-22 34,-6 60,-16 77,-32 17,-7 73,-21 23,-6 22,-19 71,-23 38,-3 53,-7 87,-12 57,-9 42,-12 54,-20 10,-7 66,-33 67,17 2,44 19,31 -9,71 -12,17 -9,18 -16,34zm-512 450l8 109 -16 99c-37,63 4,59 -62,115 -2,2 -5,5 -7,7 -39,39 -52,90 -69,101 -16,11 -24,1 -41,16l-33 29c-39,28 -97,81 -167,61 -38,-11 -61,2 -102,-5 -28,-4 -20,-12 -94,-24l-33 -9c-10,-3 -9,-2 -17,-3 -31,-6 -11,-6 -37,-23 -15,-10 -27,-9 -38,-20 -9,-9 -17,-30 -23,-39 -55,-74 -53,5 -129,-137 -12,-23 -7,-45 -10,-73 -6,-50 -60,-119 -1,-278 14,-39 16,-46 41,-79 14,-19 23,-94 53,-122l43 -48c24,-24 23,-12 39,-23l52 -36c21,-14 97,-44 136,-46 53,-4 56,7 102,16 62,13 51,-22 114,19l97 55 92 92c30,23 6,9 23,33 10,14 23,3 45,74 8,26 25,49 35,115 4,26 -1,15 -1,24zm-303 923c11,42 -20,65 -33,125 -6,29 -14,32 -18,68 -3,36 -4,51 20,73 -8,25 -8,7 -9,37 -1,15 1,30 -2,44 -4,22 -6,3 -9,33 -3,20 -3,28 4,44 -10,21 -7,4 -14,22 -5,13 4,21 -18,46l-24 20c-43,-52 -3,-85 -61,-115l-16 -66c-30,-63 7,-46 -29,-111 -18,-33 -14,-45 -37,-77 -36,-49 -44,-181 -86,-254 -23,-39 -30,-147 -20,-198 23,-16 27,-16 59,-9l17 26c53,6 29,-4 75,11l28 5c22,4 62,21 77,22 28,0 52,-23 80,-32 44,-15 55,-8 102,-7 34,59 12,67 -8,120l-11 33c-16,47 -6,50 -22,73 -38,54 -4,20 -45,67zm-330 -820c-19,5 -64,0 -57,40l17 54c37,80 17,91 64,120 24,15 11,9 21,23 14,19 80,57 135,45 51,-12 -11,21 110,-26 30,-12 39,-11 41,-53 30,-13 15,-15 37,-32 26,-21 17,-17 30,-48l14 -35c28,-62 7,-5 22,-91 3,-12 1,-22 4,-35 17,-95 9,-46 -1,-135 -3,-27 -13,-33 -26,-47l-29 -1c-28,37 -17,37 -12,80 4,44 -10,56 -12,85 -3,30 -25,43 -33,69 -14,42 3,30 -55,52 -15,5 -26,9 -35,17 -41,34 -18,27 -116,13 -62,-9 -84,-70 -119,-95z"/>
  <path class="fil3" d="M4681 8742c37,-37 129,-16 124,51 -31,19 -45,11 -76,-1 -36,-13 -43,-8 -48,-50zm-389 -120c81,-9 64,19 99,41 25,15 61,34 64,73 -15,15 -28,18 -50,1l-80 -72c-26,-18 -31,-2 -33,-43zm1672 -40c-11,-33 -9,-16 5,-55 45,-11 208,-35 243,-6 3,41 -9,33 -37,44 -56,20 -25,4 -71,11 -64,10 -51,31 -140,6zm-2068 -61c15,-25 24,-36 61,-23 22,7 14,11 31,22 20,14 143,72 76,131 -29,-3 -96,-37 -105,-43 -24,-17 -55,-58 -63,-87zm-307 -198c33,-31 53,-31 95,34 28,43 61,53 36,116 -20,2 -74,-11 -90,-44 -20,-41 -47,-43 -41,-106zm3094 -81c-92,48 -112,39 -204,74 -28,10 -64,7 -93,2 -20,-77 62,-48 147,-92 35,-19 64,-16 99,-29 22,-9 53,-43 86,-34 7,49 -4,28 -35,79zm-184 -164c3,-84 15,-58 49,-78 19,-11 10,-10 28,-18 22,-11 42,-11 61,-25 21,-16 26,-28 51,-39 48,-21 35,-42 87,-90 78,-71 55,-85 65,-112 71,-29 84,106 1,184 -68,63 -51,76 -148,113 -29,11 -93,94 -194,65zm117 -285c-36,2 -38,-9 -62,-25 -11,-66 10,-46 33,-102 17,-40 43,-67 49,-88 -14,-32 -58,-162 -16,-181 24,-11 53,17 65,40 15,30 27,146 21,182 -3,16 -6,25 -10,41 -2,7 -3,14 -5,21 0,2 -2,8 -3,10l-4 8c-32,21 -19,13 -32,49 -7,18 -24,33 -36,45zm-433 -410c-12,-12 -21,-20 -18,-43 11,-64 120,-45 69,44l-51 -1zm182 -58c12,-23 36,-44 64,-18 59,55 67,183 32,251l-38 -5c-38,-64 2,-55 -18,-120 -12,-43 -23,-76 -40,-108zm-3773 -640c-31,-58 -61,-130 16,-124 7,16 10,39 16,49 10,19 12,9 20,38 19,74 54,21 63,121 -40,1 -100,-57 -115,-84zm564 4c-21,20 -5,10 -37,20 -37,11 -112,16 -142,9 -56,-12 -109,-61 -111,-114 39,-51 100,-3 134,21 30,20 48,11 84,8 42,-3 46,6 70,20l2 36zm3895 -123c52,-39 88,24 138,33 82,14 186,33 264,9 145,-45 103,-50 137,-65 20,-8 56,-21 74,-15 6,27 -19,50 -38,64 -58,45 2,10 -70,44 -54,26 -108,33 -179,37 -93,5 -62,-5 -87,-11 -18,-5 -32,0 -53,-6 -11,-3 -23,-10 -40,-15 -39,-12 -122,-17 -146,-75zm-3718 -3c-23,45 -92,22 -120,8 -28,-14 -67,-15 -104,-26l-3 -46c18,-11 31,-11 54,-8 21,2 30,10 44,21 54,1 34,-3 77,15 42,16 34,-12 52,36zm-1007 -217c-4,-33 -3,-38 12,-63 64,-16 50,48 25,76 -28,0 -15,0 -37,-13zm4929 43c5,-39 23,-34 61,-37 65,-5 175,-25 231,-48 18,-6 15,-13 30,-22 87,-56 29,-36 78,-66 44,-28 22,-17 49,-46 19,-22 51,-17 48,15 -3,40 -41,103 -69,129 -71,66 -189,100 -282,113 -65,9 -104,-3 -146,-38zm148 -325c158,-5 145,-65 194,-96 13,-9 26,-13 34,-22 5,-5 40,-64 46,-74 49,-4 51,-12 55,39 3,39 -7,34 -25,61 -17,25 -12,27 -43,45 -63,38 -38,40 -79,59 -30,15 -27,30 -76,57 -12,8 -60,18 -92,4 -8,-4 -21,-14 -27,-17 -2,-26 6,-39 13,-56zm102 -243c-7,-78 22,-61 43,-72 73,-39 51,-22 59,-55 8,-33 32,-45 45,-69 17,-30 18,-40 56,-50 24,38 9,55 0,95 -12,54 -20,74 -60,115 -15,15 -21,12 -35,22 -15,11 6,2 -19,13 -56,25 -66,16 -89,1zm95 -458c25,32 14,91 -15,112 -23,16 -60,65 -98,28 -43,-40 -4,-182 113,-140zm-3821 -59c34,7 42,17 64,36l82 -12c25,-51 40,-15 11,-77 -18,-37 -29,-46 -40,-85l-26 -11c-14,-51 -36,-78 -47,-125 -9,-42 -18,-20 -8,-73 5,-27 -5,-41 -11,-67 -6,-27 -15,-44 -8,-73 7,-30 4,-116 13,-143 9,-26 13,-38 20,-66l43 -18 20 22c5,45 9,85 12,127 4,60 -30,56 -25,107 2,22 12,39 14,58 4,45 -5,92 44,144 -17,39 14,63 31,97 28,58 50,52 59,80 19,54 33,34 72,66 36,30 30,36 78,23 13,-86 -3,-76 -24,-146 -6,-21 -2,-26 -6,-43 -4,-16 -7,-12 -14,-32 -7,-20 -6,-61 -19,-122 -8,-39 -9,-85 -7,-125 2,-63 23,-81 27,-152 18,-7 22,-13 41,-20 36,32 33,31 12,73 -15,29 -9,55 -7,92 2,78 27,119 27,192l51 172c26,81 10,22 70,101 13,17 18,10 35,22 22,15 54,73 75,95 4,4 27,20 32,25 38,30 168,120 211,130l93 19c36,7 62,-4 97,-12 17,-5 320,-14 367,-39 13,-7 10,-14 30,-26 36,-20 83,-34 115,-55 16,-11 16,-16 35,-22 43,-14 27,-25 61,-54 18,-16 18,-11 34,-23 17,-13 32,-49 49,-64l60 -54c8,-13 10,-25 18,-38 10,-14 13,-15 24,-34 10,-18 11,-13 28,-29 20,-18 13,-16 23,-33 20,-33 15,-63 32,-83 16,-21 12,-5 20,-35 5,-22 8,-28 15,-44 9,-23 0,-24 3,-40 5,-25 10,-7 21,-37 13,-41 -2,-158 42,-173 78,3 50,86 45,140 -24,249 -88,248 -113,318 -5,14 -7,16 -15,29 -10,19 -22,42 -32,64 -10,53 71,100 126,36l82 -63c13,-9 29,-21 40,-30 23,-17 21,-23 40,-36l108 -107c14,-19 31,-77 49,-96 24,-25 39,-59 56,-90 15,-26 17,-96 44,-104 45,-1 47,33 47,72 1,37 -7,25 -14,45 -21,65 18,36 -54,124 -45,55 -5,61 -57,100 -24,18 -36,44 -63,64 -24,17 -64,63 -75,90 -32,8 -29,2 -53,16 -32,20 -48,42 -74,54l-37 25c-25,25 -11,13 -46,26 -36,14 -97,45 -103,91l30 28c78,-7 78,-30 190,-33 40,0 122,-31 156,-57 66,-51 82,-18 109,-19 20,-9 34,-16 55,-25 18,-7 21,-16 40,-29 31,-19 60,-26 88,-51 24,-21 45,-26 71,-43 19,-12 6,-6 17,-15 14,-11 29,-11 47,-23l82 -64c15,-9 28,-6 46,-22 21,-20 13,-16 45,-27 39,-13 15,-7 42,-27 56,-41 93,-38 133,-74 39,-36 40,-25 81,-11 20,110 -44,86 -111,127l-101 56c-50,35 -28,60 -143,98 -94,31 -102,71 -145,101 -42,28 -39,14 -96,62 -24,19 -21,-2 -51,31 -17,18 -35,22 -47,37 -7,10 -23,35 -27,47 25,50 91,37 139,25 32,-7 130,-24 157,-21 15,1 20,7 45,5 98,-8 35,-4 121,15 42,9 105,16 143,40 0,22 -2,22 -17,35 -27,-4 -23,-10 -45,-16l-158 -17c-66,-5 -128,29 -196,33 -43,2 -65,12 -102,21 -128,29 -81,-4 -172,62 -21,15 -39,37 -46,60 4,26 9,63 25,79 32,28 87,-21 118,-24 72,-8 61,21 112,38 21,7 15,0 33,14 26,19 46,17 63,50 17,34 48,54 69,84 18,25 23,19 43,38l49 65c34,60 36,39 53,61l59 93c11,13 23,16 33,42 9,21 11,38 8,64l-35 3c-21,-18 -26,-39 -41,-61 -6,-10 -42,-51 -45,-57 -16,-29 -9,-34 -40,-60 -40,-33 -34,-38 -60,-67l-37 -38c-36,-54 -27,-13 -57,-46 -28,-30 -39,-50 -83,-69 -37,-17 -54,-44 -98,-48 -16,-1 -29,-1 -45,-2 -18,-1 -88,-18 -132,4 -24,12 -27,23 -71,32 -115,24 -167,90 -204,99 -32,7 -62,-9 -82,13l-37 51c-16,24 -23,10 -45,50 -10,18 -28,37 -42,60 -19,31 -21,18 -46,43 -2,15 -1,24 -4,37 -5,23 -1,54 -9,81 -7,21 -18,31 -17,53 2,21 14,21 21,50 0,22 -36,73 -24,142 7,42 -16,16 -3,62 19,66 -15,137 22,198 25,39 9,31 21,62 15,37 50,53 66,98 20,58 32,46 52,74 6,8 10,19 13,25 19,37 18,6 36,46 30,65 29,70 70,95 19,12 25,32 34,48 10,17 14,10 25,19 6,5 9,10 17,20 31,18 47,-16 55,49 4,32 -13,45 -46,31 -29,-12 -45,-10 -65,-36 -25,-31 -27,-28 -58,-49 -18,-12 -30,-43 -42,-60 -17,-24 -71,-50 -89,-69 -19,-20 -15,-55 -32,-68 -44,-36 -30,-20 -65,-36 -11,-5 -35,-27 -66,-40l-40 18c-3,28 1,148 9,175 5,19 13,21 20,41 8,22 8,44 13,59 15,43 43,83 64,126 32,64 80,92 88,108 29,61 31,37 56,76 29,44 85,48 75,115 -26,19 -40,9 -58,-11 -26,-28 -34,-22 -51,-38 -17,-17 -16,-39 -36,-58 -14,-14 -35,-20 -50,-39 -10,-12 -10,-22 -20,-31 -9,-10 -18,-8 -26,-19 -9,-11 -12,-47 -22,-66 -9,-18 -24,-29 -41,-55 -20,-32 -20,-19 -26,-63 -21,-18 -17,-3 -29,-34 -14,-38 -20,-109 -37,-140 -12,-21 -17,-13 -22,-41 -9,-52 -26,-88 -21,-143 -95,-82 -95,45 -103,86 -21,101 -43,105 -47,124 -6,34 -3,114 -7,153 -2,18 -13,48 -14,65 -2,27 8,43 0,70 -20,62 -24,59 -25,133 -2,106 9,226 -5,329 -6,43 -12,29 -22,64 -10,39 7,27 -19,61 4,18 11,26 11,45 1,18 -3,28 0,50 4,45 -9,37 -5,89 2,32 -6,23 3,52 6,17 9,21 12,40 6,36 -10,55 -48,51 -71,-29 -45,-253 -46,-262 -2,-12 -9,-23 -11,-34 -3,-30 4,-37 -9,-79 -15,-48 -18,-105 -37,-152 -21,-52 -8,-23 -12,-70 -2,-14 -9,-26 -10,-40 -2,-18 4,-15 -1,-38 -13,-63 -3,-126 -11,-168 -11,-49 -49,14 -48,-217 1,-47 7,-25 -13,-68 -38,-85 -70,-22 -101,29l-59 130c-7,18 -9,27 -16,46 -18,48 -29,24 -54,73 -25,48 -62,115 -98,156l-65 62c-23,23 -50,33 -86,28 -7,-40 -10,-42 18,-66 29,-24 1,-20 49,-36 7,-20 5,-26 15,-49 11,-25 16,-25 23,-41 15,-34 11,-61 33,-89 14,-19 16,-3 33,-29 30,-46 18,-56 34,-86 26,-48 17,-99 42,-136 39,-56 71,-209 -5,-240 -38,-3 -51,15 -67,35 -30,37 -6,42 -29,73 -7,10 -12,16 -19,30 -15,34 -38,65 -68,84 3,32 10,46 -18,62 -5,47 -10,47 -28,84 -38,3 -70,10 -93,38l-37 28c-24,13 -18,15 -31,31 -33,10 -48,30 -73,47 -24,17 -37,43 -70,49l-21 -18c1,-45 10,-43 42,-79 9,-9 4,-6 16,-12 0,0 11,-2 15,-3 27,-11 35,-48 59,-67 62,-51 37,-46 77,-93 11,-14 9,-4 20,-24 6,-10 6,-15 12,-25 10,-14 28,-28 40,-44 14,-20 22,-26 38,-45 7,-51 6,-39 25,-82 38,-86 54,-82 62,-151 5,-39 24,-34 17,-81 -5,-29 8,-53 16,-83 18,-71 0,-228 2,-309 -44,-38 13,-47 -35,-96l-62 -140c-5,-37 -2,-44 -25,-69l-41 -55c-27,-28 -38,-22 -69,-63 -29,-39 -54,-16 -93,-34 -16,-8 -27,-22 -45,-23 -29,-3 -23,12 -50,-2 -27,-14 -54,-31 -90,-37 -21,-4 -17,2 -34,-3 -3,-1 -15,-9 -23,-11 -21,-5 -36,4 -51,0 -119,-34 -194,-32 -320,-26 -67,3 -109,12 -168,30 -28,8 -9,9 -47,14 -31,5 -82,13 -107,27 -31,18 -54,36 -91,26 -17,-57 25,-50 53,-71 9,-8 4,-12 22,-22 51,-29 134,-71 192,-73 30,-1 37,-13 64,-23 44,-18 28,-12 75,-4 30,6 52,-2 76,-6 16,2 -6,11 91,15l74 1c29,3 70,4 98,9 38,6 15,21 76,17 13,-12 12,-14 28,-26l32 12c86,-53 5,-74 -20,-90 -51,-31 -90,-85 -157,-88 -71,-3 -151,-44 -203,-47l-148 -7c-12,0 -135,34 -193,34 -23,0 -183,51 -192,56 -30,16 -23,21 -66,12 -3,-45 29,-74 60,-87l58 -27 196 -31c68,-1 141,-13 206,-21 25,-3 11,10 40,6 14,-2 15,-11 39,-15 36,-5 63,-7 91,-23 0,-24 1,-49 -13,-61l-57 -39c-57,-34 -130,-64 -172,-113 -48,-56 -82,-52 -108,-81 -23,-25 -12,-28 -45,-50 -102,-15 -41,-20 -93,-65 -12,-11 -38,-12 -54,-22 -23,-13 -16,-19 -45,-29 -28,-11 -29,-16 -54,-29 -21,-10 -27,-19 -45,-31 -23,-14 -94,-36 -105,-54 -11,-18 -18,-28 -19,-48 15,-10 27,-10 49,-25 32,-9 96,48 133,62 58,23 108,72 113,74l57 5c26,29 53,29 94,50 12,6 36,23 46,24 25,3 27,-20 56,0l85 54c42,21 59,21 111,28 25,21 32,25 69,34zm3546 -759c19,57 29,48 54,79 8,10 17,25 26,35l-6 55c-26,7 -59,9 -83,-8 -15,-11 -8,-13 -27,-23 -13,-7 -25,-9 -35,-15 -21,-15 -45,-98 -24,-154 23,-15 47,-22 76,-17 9,19 12,24 19,48zm-429 -354c-2,-14 -4,-20 -7,-32 -6,-28 -3,-19 3,-28 45,-24 82,11 99,40 14,26 18,78 38,108 54,84 52,116 19,218l-44 1c-60,-57 1,-82 -38,-163 -38,-80 -14,-104 -70,-144zm-3456 -161c32,-12 85,-24 87,25 3,52 -50,41 -81,31 -9,-28 -12,-25 -6,-56zm787 -24c-9,-27 -17,-8 -22,-54 -1,-10 -3,-14 -5,-24 -10,-41 -1,-33 0,-35 0,0 9,-20 31,9l43 70c33,51 54,27 106,33 45,6 107,57 134,101 12,21 23,25 26,50 7,60 6,76 33,125 32,57 4,188 -16,254 -11,37 -21,83 -51,101l-18 -15c-12,-22 42,-119 32,-205 -6,-51 -3,-54 -20,-102 -18,-51 9,-26 -28,-116 -3,-7 -5,-17 -8,-23 -12,-25 -16,-7 -26,-32 -11,-26 -25,-52 -52,-61 -118,-39 -55,64 -138,62 -13,-45 -8,-96 -21,-138zm2399 -1c-52,-23 -23,-33 -60,-54 -20,-11 -46,-39 -51,-52 44,-12 84,18 110,37 22,15 28,8 41,34 49,95 23,50 47,107 5,12 24,32 31,44 16,26 23,80 11,112 -12,29 -58,20 -60,18l-21 -61c-8,-19 -12,-35 -18,-56 -12,-39 -24,-86 -30,-129zm-2621 -68c4,2 65,57 21,86 -9,5 -9,5 -22,9 -59,-70 -127,-97 -208,-138 3,-33 1,-29 16,-52 74,-6 94,0 120,65 21,8 57,18 73,30zm2269 -57c-18,-60 -27,-16 -49,-68 -40,-2 -26,-1 -53,-17 -26,-16 -23,-1 -28,-39 45,-25 55,-9 100,24 16,12 33,18 47,28 22,14 19,17 52,26 9,48 24,59 38,94 12,29 15,72 -27,82 -23,-12 -23,-25 -36,-46 -14,-20 -6,4 -16,-28 -15,-49 -14,-11 -28,-56zm496 3357c-38,-52 -112,-56 -157,-94 -71,-60 -60,-31 -140,-68 -54,-25 -5,-11 -74,-27 -22,-5 -21,-11 -39,-15 -11,-2 -33,-2 -44,-2l-94 -16c-18,-4 -23,-14 -34,-18 -18,-7 -30,-2 -49,-2 -31,-1 -86,-22 -118,-33 -58,-19 -23,-28 -71,-55 -23,-13 -22,-21 -29,-47l-39 -113c-12,-32 -27,-89 -19,-127 15,-72 -19,-212 20,-271 37,-55 15,-54 77,-74l115 -38c44,-13 87,-12 134,-8 19,14 34,8 63,10l111 41c60,11 25,-4 85,33 18,11 21,22 32,37 89,12 29,42 82,63l9 46c18,11 32,16 43,30 17,22 10,21 34,42 23,22 15,14 33,43 19,30 56,42 81,64 23,21 29,38 49,59 16,15 40,35 48,55 67,2 81,30 138,45 14,4 25,11 38,17 27,13 46,27 74,40 27,12 21,3 48,6 25,2 21,8 36,21 23,9 61,-8 83,-6 27,3 -5,1 21,6l90 -4 165 -55c26,-10 13,-11 29,-27 52,-49 130,-84 172,-210 27,-10 31,-21 42,-49 18,-46 43,-62 56,-91 45,-92 24,25 50,-90 5,-20 20,-38 30,-65 14,-42 -5,-25 23,-72l21 -67c-1,-24 3,-49 23,-63 0,-48 3,-96 2,-148 -1,-70 -31,-74 -37,-127 -14,-141 -68,-210 -76,-265 -7,-54 -17,-41 -28,-84 -7,-29 -2,-51 -6,-74 -5,-30 -14,-9 -14,-64 -1,-45 -14,-22 -20,-63 -3,-25 0,-46 -6,-69 -10,-36 -24,-85 -29,-122 -4,-32 7,-29 -4,-67 -7,-28 -2,-33 -4,-58 -2,-17 0,-29 -2,-44 -6,-48 -12,-49 9,-94 10,-21 17,-109 19,-140 16,-216 -83,-149 -128,-146 -41,3 -76,-37 -105,-52 -55,-29 -48,-19 -97,-60 -35,-29 -37,-62 -86,-67 -19,-32 -26,-28 -46,-48 -34,-32 -39,-26 -52,-45 -41,-63 -47,-51 -95,-87 -22,-16 -37,-31 -52,-43 -58,-44 -58,-61 -96,-93 -37,-31 -52,-54 -103,-81 -29,-16 -33,-13 -57,-37 -9,-10 -19,-14 -27,-24 -9,-12 -6,-16 -18,-27 -15,-13 -43,-16 -63,-25 -21,-11 -22,-26 -53,-41 -54,-27 -80,-66 -110,-81 -21,-10 -37,-13 -50,-37 -37,-2 -57,-15 -86,-29 -24,-10 -73,-19 -87,-27 -17,-9 -12,-18 -33,-24 -8,-2 -44,-4 -55,-5 -152,-10 -46,-42 -291,-29l-149 23c-16,4 -20,10 -37,15 -34,10 -55,19 -83,29 -33,11 -61,3 -95,20l-66 47c-20,15 -50,30 -66,43 -15,13 -26,45 -50,63 -26,19 -42,30 -56,57 -31,58 -67,102 -68,103 -14,30 -47,72 -55,109 -4,18 3,33 -3,54 -7,25 -16,10 -13,44 4,49 -10,49 -7,96 2,26 18,77 18,88 -1,24 -10,13 2,45 18,47 29,88 35,139 2,24 25,54 33,78 12,38 2,58 20,88 19,31 10,17 9,49 0,52 26,121 12,193 -1,8 -11,28 -13,42 -4,32 -2,70 -7,100 -4,30 -35,43 -50,64l-54 59c-11,10 -23,14 -34,24 -23,19 -14,20 -25,32 -7,7 -51,28 -65,42 -23,-12 -57,-12 -81,-5 -18,5 -18,13 -39,20 -29,8 -17,0 -35,19 -91,1 -124,-35 -200,-48 -37,-7 -46,-25 -88,-35 -18,-3 -28,-11 -41,-23 -18,-18 -9,-13 -33,-23 -1,-2 -2,-4 -2,-6 -21,-77 -40,-20 -58,-139 -6,-43 14,-214 36,-256 16,-28 14,-46 23,-78 18,-63 44,-84 56,-147 9,-40 14,-38 32,-70 13,-23 17,-250 13,-278 -9,-52 -9,-129 -41,-161 -35,-37 -16,-37 -36,-66 -22,-32 -22,-23 -30,-71 -31,-25 -28,-2 -42,-42 -15,-43 -61,-54 -89,-67 -26,-12 -12,-32 -34,-47 -1,-1 -2,-2 -3,-3l-57 -27c-36,-17 -104,-70 -112,-72 -20,-4 -17,2 -39,-5 -7,-2 -25,-11 -31,-12 -42,-7 -19,11 -72,-11 -46,-19 -102,-31 -154,-27 -26,3 -58,5 -82,5l-118 9c-10,1 -28,7 -36,8 -31,4 -56,-5 -82,2 -11,3 -26,10 -32,11 -17,5 -24,0 -39,5 -20,6 -7,9 -31,19 -20,9 -50,12 -66,23 -24,16 -32,11 -60,35l-185 131c-38,19 -27,15 -48,46 -12,16 -37,19 -53,37 -26,30 4,26 -46,48 -26,12 -23,35 -101,84 -31,20 -15,23 -46,42 -37,23 -9,37 -50,45 -52,9 -15,20 -46,41 -32,22 -22,-3 -57,38 -11,12 -42,24 -55,34l-52 43c-15,11 -11,14 -21,23 -44,39 -110,41 -135,86 -34,-1 -49,7 -76,20 -41,21 -23,14 -56,38 -33,24 -103,16 -147,12 -37,86 -40,28 -29,159 3,29 -22,75 -13,155 2,17 -3,33 -1,50 3,27 8,12 10,34 2,18 -6,24 -8,39 -1,13 1,26 0,42 -8,94 -62,197 -61,228 2,145 -39,169 -39,240 0,30 15,50 1,76 -21,38 -33,102 -42,148 -8,44 8,41 -16,80 -3,63 3,129 6,190 2,48 -12,33 4,86 19,62 -13,97 -5,126 7,23 29,86 29,110 1,29 -16,36 -15,83 1,25 16,50 25,71 11,23 17,40 26,68 11,31 21,35 31,63 14,38 34,125 59,158 6,8 4,6 9,17 32,73 76,91 109,124 24,24 13,28 57,34 13,36 44,53 73,70 46,28 44,28 99,29 42,50 101,43 139,76 22,1 39,-4 63,-5 28,-1 40,3 64,3 19,0 42,-7 63,-8 31,-3 26,0 44,-18 123,10 244,-115 324,-164 37,-23 19,-30 45,-48 36,-25 80,-56 86,-105 27,-6 72,-48 87,-77 16,-32 7,-21 41,-41 35,-22 39,-40 62,-59l35 -27c6,-7 0,0 8,-11 18,-23 47,-30 69,-52 31,-31 72,-40 116,-43 59,-3 84,-31 209,-30 52,0 98,8 129,35 34,30 32,12 66,55 26,31 44,21 82,120 12,32 11,107 5,144 -13,96 -21,103 -64,173 -13,22 -19,16 -31,46 -26,65 -50,51 -77,87 -23,31 -52,54 -91,67 -29,10 -32,17 -56,28 -34,15 -21,-2 -57,24 -23,15 -38,9 -63,19 -21,9 -43,8 -71,7 -17,19 -56,32 -77,47 -34,27 -114,78 -157,91 -47,15 -48,-1 -76,42 -31,9 -25,8 -49,22 -17,9 -32,8 -51,18l-79 55c-20,15 -44,53 -61,78 -21,32 -12,13 -40,29 -29,17 -34,53 -60,73 -103,78 -41,160 -43,270 -2,76 -9,48 25,108 -2,31 -15,51 -11,80 5,42 38,89 54,127 14,34 8,32 32,57 41,43 -19,22 65,119l54 85c41,63 110,110 158,164 22,25 40,55 72,67 18,7 17,-1 35,11l49 38c25,27 25,18 55,34 71,38 90,20 132,52 32,25 56,23 101,38l96 34c32,7 54,-3 82,15 32,20 34,11 68,21l304 63c99,23 76,3 138,21 30,9 40,14 74,19 46,7 81,39 122,54 31,11 38,8 57,30 68,12 128,40 196,42 16,-7 14,-8 26,-14 61,-27 120,-42 177,-82l31 8 17 -28c23,-5 35,-10 56,-21 30,-16 71,-18 108,-36 30,-15 27,-9 60,-16 13,-6 7,-7 27,-18l105 -42c42,-10 107,-11 136,-49 29,-2 55,-3 81,-13 44,-17 23,-3 64,-11 39,-7 91,-28 133,-38 26,-6 48,-9 74,-13l101 -33c6,-3 17,-18 22,-21 19,-13 39,-9 60,-23l60 -29c26,-11 55,-40 78,-54 10,-5 19,-7 31,-14 104,-59 14,-16 97,-73 10,-7 15,-12 27,-17 34,-16 22,-9 50,-33l73 -54c32,-18 67,-53 96,-80 16,-14 25,-35 39,-51 33,-39 47,-23 75,-94 11,-28 22,-38 29,-59 12,-34 0,-33 28,-62 18,-18 21,-22 30,-50 77,-223 24,-132 29,-284 1,-44 3,-101 -8,-141 -7,-26 -9,-47 -18,-70 -13,-31 -17,-23 -20,-64 -16,-8 -20,-10 -31,-25 -19,-26 -14,-48 -56,-95 -83,-91 -92,-76 -176,-133l-30 -23z"/>
  <path class="fil2" d="M5572 1228c-48,7 -187,28 -218,-5 -26,22 -48,5 -76,9 -22,3 -36,6 -51,9l-312 -7c-21,-3 -22,4 -47,5 -88,2 -178,11 -266,5 -30,-2 -100,-2 -129,3 -44,9 -79,4 -124,4 -81,-1 -180,-8 -259,-4l-120 0c-111,-7 -403,-5 -511,10 -32,4 -62,2 -92,-12l-9 -5c-13,-27 -18,-56 -31,-83l-18 -39c-14,-42 -48,-56 -88,-69 -43,-14 -49,-1 -80,12 -37,16 -50,14 -98,18 -50,3 -41,-15 -85,-18 -63,-3 -55,12 -95,16 -31,3 -52,4 -81,23 -97,62 -110,-30 -127,-59 -7,-12 -18,-23 -25,-35 -42,-68 -51,-51 -77,-78 -41,-44 -30,-38 -78,-67 -52,-32 -91,-30 -145,-4 -51,24 -25,27 -56,47 0,41 -8,113 -11,159 -33,24 -104,31 -119,-21 -8,-31 -15,-52 -35,-76 -3,-4 -5,-5 -9,-10 -6,-11 -4,-13 -13,-26 -15,-21 -18,-28 -33,-55 -26,-46 -48,-62 -80,-90 -24,-22 -8,-26 -49,-34 -83,-16 -150,18 -235,4 -28,-5 -42,8 -58,17 -25,14 -38,5 -67,22 -75,42 -89,46 -98,149 -43,33 -7,86 4,118 1,2 5,21 6,26 19,95 57,135 -52,161l-98 28c-44,14 -66,61 -95,95 -73,82 -166,80 -117,147 11,15 7,13 17,27 45,70 82,30 99,111 6,26 25,61 41,85 8,11 28,34 37,43l113 50c29,7 48,6 64,27 39,50 -1,72 17,204 7,48 57,158 75,172 14,11 106,36 131,40 35,5 37,3 65,18 44,24 105,-1 143,-24l79 -42c4,-2 7,-3 12,-6 32,-17 70,-39 83,-81 9,-31 19,-35 30,-59 13,-27 15,-30 31,-51 8,-11 90,-186 170,-52 14,23 15,40 15,67 -2,39 7,39 7,70 90,25 110,20 158,-14l69 -26c23,-14 27,-25 34,-52 9,-34 23,-39 34,-62 25,-54 69,-70 116,-37 19,13 41,20 55,36 32,37 89,46 135,49 68,5 73,-41 153,-31 40,6 83,6 124,-6l24 -19c42,-53 57,-16 69,-113 11,-5 25,-15 34,-18 24,-7 110,-22 127,-15 30,32 90,14 146,19 50,25 271,-58 337,-29 29,13 77,11 93,-9 38,-3 75,-2 114,-3 51,0 62,13 88,14l95 -6c35,-4 71,11 102,7 18,-2 31,-11 50,-13 15,-1 33,3 51,2 32,-1 61,-6 94,-8 80,-6 174,16 254,12 44,-1 76,25 125,11 59,-16 33,11 87,-4 83,-23 382,-2 483,-2l51 -12c20,-28 157,-7 200,-15 26,-5 71,-6 87,11l40 67c9,44 8,46 25,87 10,21 168,118 217,102 25,-18 63,-43 95,-58 19,-9 24,-23 41,-34 24,-17 24,2 41,-35 14,-29 33,-78 56,-95 54,-42 196,-3 255,24 45,21 92,13 139,2 22,-5 44,-2 69,-2l134 -22c33,-7 35,5 62,4 109,-2 62,-53 167,25l30 28c24,25 -9,-3 9,8 42,26 86,18 108,44 32,38 24,13 45,31l38 31c36,21 52,46 81,72l39 34c17,11 28,16 48,30 42,31 62,36 124,29 169,-18 94,-23 157,-67 20,-13 33,-7 58,-10 25,-21 24,-20 51,-33 17,-8 39,-15 48,-32 33,-66 67,-173 161,-174 20,-1 55,12 152,11 3,-7 2,-5 6,-10 59,-5 73,1 103,-45 41,-66 85,0 147,-138 27,-58 14,-56 6,-117 8,-23 12,-19 18,-44 10,-41 28,-89 21,-134 -8,-43 -27,-42 -43,-68 -33,-50 -66,-64 -114,-94 -74,-47 -167,-49 -252,-54 -15,-38 -41,-41 -69,-61l-38 -33c-24,-25 -63,-26 -93,-37 -148,-51 -143,-173 -293,-174 -46,-1 -172,44 -209,60 -9,33 -20,37 -32,63 -17,37 -43,48 -78,68 -72,43 -23,69 -186,135 -49,20 -27,8 -71,6 -61,-3 -114,7 -177,2 -91,-7 -186,9 -278,2l-133 -6c-23,-5 -8,-9 -38,-13 -32,-3 -64,4 -95,2 -28,-2 -47,-10 -76,-14 -26,-38 -86,-52 -130,-70 -14,-5 -60,-27 -69,-30 -16,-3 -31,-1 -47,-5 -17,-4 -13,-7 -38,-9 -66,-8 -133,35 -172,76l-9 11c0,1 -2,2 -2,4 -10,14 -33,63 -49,75 -41,33 -163,32 -217,37 -42,4 -48,-14 -75,-9 -19,4 -9,9 -38,5 -16,-3 -11,-7 -31,-4z"/>
  <path class="fil4" d="M1751 1342c51,4 8,20 68,54 20,10 25,8 41,9 23,2 13,7 37,19 42,22 151,8 156,91 -32,16 -78,19 -165,63 -13,7 -10,14 -29,22 -23,10 -20,5 -40,18 -35,22 -4,14 -45,42 -54,37 -65,44 -106,97 -48,61 -20,30 -38,81 -9,24 -12,10 -17,48 -5,47 6,67 -22,95 10,64 -10,52 52,134 11,14 88,60 123,67 39,8 74,-8 110,-13 30,-32 20,-10 54,-31 12,-7 9,-9 26,-18 66,-34 79,-101 117,-167 17,-30 39,-80 53,-93 16,-13 12,-5 22,-21 14,-24 -2,-11 26,-26 80,-41 72,-44 173,-15 3,39 16,34 27,67 10,31 21,51 16,87 54,23 21,16 104,3 9,-12 27,-36 32,-48 11,-23 3,-33 11,-61 -42,-52 15,-74 -101,-138 -46,-25 -73,-42 -73,-80 65,-25 40,-24 166,44l119 60c25,-7 11,-6 26,-13 12,-6 18,-5 36,-8 16,-37 23,-32 47,-80 38,-76 6,-164 9,-192 8,-73 4,-105 -67,-106 -10,0 -18,3 -25,6l-66 30c-10,6 -4,5 -18,13 -40,21 -132,47 -176,46l-64 -7c-18,-8 -32,-40 -34,-70 18,-14 44,-22 66,-23 45,-3 46,-3 83,-15l44 -25c67,-47 87,-136 53,-206 -19,-39 3,-72 -43,-95 -23,-11 -14,-8 -30,-21 -32,-26 -89,-17 -109,34 -6,15 -26,58 -27,67 -9,88 -6,152 -127,150 -88,-1 -35,3 -97,-31l-30 -21c-21,-20 -4,11 -19,-25 -19,-44 -6,12 -33,-54 -5,-13 -12,-18 -19,-32 -9,-19 -11,-57 -24,-71l-42 -28c-30,-23 -25,-9 -48,-22 -20,-11 -28,-29 -89,-49 -43,-13 -120,-15 -155,9 -9,6 -19,13 -26,18 -6,4 -4,2 -11,8 -30,27 -26,13 -50,69 -16,37 -34,109 -11,155 25,49 36,85 74,115 14,10 15,7 29,15l58 39c16,13 15,16 18,30zm1808 22c-32,-10 -11,-13 -47,-7 -137,21 -140,-38 -160,154 -2,14 1,41 4,55 8,30 12,9 15,57 17,17 18,20 47,26 84,19 41,-31 111,-62 32,-14 31,-21 63,22 15,21 10,12 16,40 73,15 73,-7 144,2 86,10 49,-160 153,-64l25 42c0,2 1,11 2,16 106,14 135,2 199,-35 21,-154 127,-45 167,-25 33,17 18,13 37,33 27,30 128,12 151,-22 9,-14 13,-31 21,-47 30,-5 42,-1 71,-4l58 70c0,0 83,31 94,27 38,-13 48,7 89,-23l17 -15c16,-19 8,-33 40,-61 15,4 19,3 35,5 66,9 20,43 52,69l50 28c56,-7 114,-3 163,-24 20,-8 29,-28 47,-42 15,-12 8,-5 22,-22 10,-12 14,-14 25,-23 1,-1 71,6 85,27 26,40 19,17 48,46 29,30 19,35 72,31 28,-1 67,-3 81,-23 10,-15 4,-22 16,-40 37,-55 34,-29 91,-27l6 30c26,9 25,1 51,15 44,24 38,6 72,23 28,15 19,14 63,-6 17,-7 26,-10 42,-22 83,-63 46,-27 79,-45 22,-12 -11,-5 38,-14 11,-26 26,-32 22,-70 -4,-35 3,-56 -2,-91 -11,-72 -75,-42 -139,-45 -26,-2 -50,5 -78,1 -25,-4 -18,-13 -43,-9 -17,2 -20,9 -46,10l-89 5c-63,1 -34,-8 -95,3 -37,8 -39,-11 -85,-4 -29,4 -136,15 -161,10 -40,-8 -38,-16 -85,-7 -19,3 -167,5 -184,4 -28,-3 -47,1 -79,-2 -50,-4 -39,16 -83,6 -21,-6 -116,5 -157,5 -37,0 -81,0 -112,-8 -23,-7 -19,-4 -41,2 -43,10 -117,4 -166,-1 -16,-2 -15,4 -30,6l-144 5c-59,-3 -127,-4 -190,-4 -35,0 -58,-8 -78,-8 -36,-1 -146,22 -170,18 -45,-10 -17,-23 -70,2l-114 -3c-29,-2 -7,1 -36,10zm2928 262c73,6 61,-46 82,-80 10,-16 14,-16 21,-33 109,-2 40,67 93,110 26,21 85,41 109,7 15,-21 34,-54 37,-82 11,-2 19,-5 29,-7 23,-4 31,-1 37,19 6,24 -2,24 17,50 15,19 6,9 25,18l31 19c70,-20 15,-106 115,-107 7,9 15,21 25,32 18,17 11,12 23,34 17,32 35,33 77,34l37 -30c4,-82 -15,-60 60,-86 58,51 36,44 68,88l22 2c7,-13 10,-24 18,-38 13,-22 13,-18 27,-35 4,-30 -3,-27 1,-58 8,-73 18,-145 -27,-173 -53,-34 -148,-7 -175,-9 -32,-4 -15,-12 -62,-16 20,-7 -21,9 -33,9 -29,2 -141,2 -157,-13 -35,8 -74,-8 -113,-8 -29,0 -67,5 -101,2 -133,-14 -91,24 -157,23 -50,0 -79,-50 -148,15 -28,27 -13,119 -27,169 -11,42 -4,21 3,59 14,77 18,38 43,85zm-4976 -300c-29,2 -22,6 -39,9 -77,18 -60,30 -87,50 -17,12 -14,1 -32,18 -7,7 -16,18 -24,27 -12,15 -26,41 -35,61 -8,18 -4,46 0,61l19 65c17,35 55,24 101,90 23,1 52,6 61,12 29,-15 11,-11 49,-18 26,-6 17,-6 43,-22 26,-17 47,-21 73,-46 37,-36 105,-41 130,-109 17,-48 -53,-89 -70,-104 -20,-18 -17,-6 -38,-19l-39 -24c-27,-16 -5,-12 -31,-25 -51,-27 -40,11 -81,-26zm6305 -343c-26,5 -38,7 -52,27 -7,9 -12,36 -8,53 12,63 -2,28 1,51 2,20 15,32 15,66 0,47 -11,94 -1,145 4,17 8,13 5,30l-9 37c-7,30 3,33 -3,64 -12,69 -4,73 -1,135 2,43 -12,91 -8,131l7 77c0,10 -5,26 -4,39l21 62c4,4 43,25 55,25 61,2 51,-83 51,-93 1,-54 13,-29 19,-127 2,-38 13,-26 12,-63 -1,-20 -17,-107 -16,-147 0,-17 3,-9 7,-26l-1 -65c-1,-12 -7,-18 -6,-28 0,-16 13,-24 11,-62 0,-24 -8,-34 -7,-63 2,-53 -5,-40 -7,-65 -4,-64 4,-60 -3,-127 -3,-27 4,-8 -7,-32 -7,-16 -6,-17 -20,-25 -26,-17 -35,-22 -51,-19zm-1475 754c4,-31 1,-23 -7,-49 -7,-23 -1,-18 -2,-44 -2,-32 -3,-5 -8,-35 -7,-36 5,-94 5,-94 2,-29 -9,-13 0,-43 22,-77 -18,-86 -11,-184 0,-12 11,-70 3,-80 -14,-16 -61,-27 -87,-28 -108,-2 -86,28 -101,57 -33,63 -10,30 -15,104 -3,53 12,122 9,174 -2,41 -12,32 -8,77 9,128 -14,74 22,157 7,16 5,16 20,29 11,9 12,6 22,18 59,-5 60,21 119,1 26,-53 15,-29 39,-60zm1202 -595c-26,23 -27,58 -28,96 0,23 10,31 14,45 8,30 -5,27 4,48 21,50 -17,75 -16,153 1,33 10,11 11,51 1,34 -4,71 -2,100 3,38 25,64 7,111 -12,32 -12,9 -7,40 4,25 -7,14 0,37 20,60 72,63 102,37 22,-19 44,-77 45,-85 -5,-28 -15,-42 -10,-63 24,-110 7,-89 12,-171 3,-63 -21,-8 6,-83 30,-88 -9,-140 -2,-246 3,-36 -2,-54 -2,-89 -15,-15 -17,-23 -28,-36 -40,-50 -79,7 -83,10 -27,18 -19,-1 -23,45zm-4483 120c49,78 15,30 21,113 2,18 10,41 7,62 -9,53 -6,281 7,308 12,19 17,15 32,39 10,17 17,23 27,37 27,-7 32,9 58,-19 52,-58 56,-23 56,-223 0,-23 0,-47 -3,-67 -5,-29 0,-35 1,-60 1,-23 -2,-46 -2,-69 -1,-66 17,-13 7,-85 -3,-17 2,-9 1,-28 -3,-73 -70,-75 -112,-107 -30,12 -52,9 -68,32 -16,23 -28,42 -32,67zm-220 437c-9,18 0,1 -8,14 -5,10 0,-1 -6,11l18 18 -4 38c67,16 51,52 100,15 26,-18 64,-19 68,-71 2,-27 -1,-54 4,-77 7,-36 15,-147 10,-182 -5,-39 -11,-33 -12,-82 0,-15 -3,-28 -3,-45 1,-20 7,-32 7,-44 1,-28 -19,-45 -24,-51 -12,-17 -28,-41 -65,-40 -30,0 -97,85 -97,87 -1,4 -2,70 0,77l14 164c3,31 -1,12 -3,35 -6,58 -12,74 1,133zm5159 -381c0,3 14,45 15,52 4,49 -14,109 -14,109 2,49 -13,98 -6,145 4,29 6,111 11,125 9,10 35,23 51,30 13,-4 27,-13 40,-21 14,-8 21,-15 30,-33 38,-79 -6,-33 27,-89 -22,-65 11,-66 0,-117 -7,-34 5,-8 9,-41 2,-20 2,-45 4,-65 7,-68 8,-158 -31,-206 -50,-61 -159,-48 -136,111zm324 -41c-60,80 -32,45 -51,121l-16 34c0,1 -2,3 -3,4 0,1 -2,2 -3,4 13,103 -5,90 40,119 29,20 106,97 178,20l34 -183c1,-55 -15,-76 -57,-105 -26,-18 -21,-4 -46,-11 -37,-10 21,-9 -76,-3z"/>
  <rect class="fil5 str0" x="4" y="4" width="10000" height="10000"/>
 </g>
</svg>
