<svg version="1.1" xmlns="http://www.w3.org/2000/svg" xmlns:xlink="http://www.w3.org/1999/xlink" width="2400" height="1500" viewBox="0 0 2400 1500">
<g id="IHW-(Poland)">
<path id="Rectángulo-1" d="M-0.000,-0.000 L2400.000,-0.000 L2400.000,1500.000 L-0.000,1500.000 L-0.000,-0.000 z" fill="#F9CF00" />
<g id="COA">
<g id="Pencil">
<g id="Forma-9" >
<path id="Forma-9-fill" d="M973.624,319.361 L1008.534,363.411 L1164.707,209.669 L973.624,319.361 z" fill="#000000" />
<path id="Forma-9-stroke" d="M973.624,319.361 L1008.534,363.411 L1164.707,209.669 L973.624,319.361 z" fill="none" stroke="#000000" stroke-width="8" stroke-linecap="round" />
</g>
<g id="Forma-3" >
<path id="Forma-3-fill" d="M795.295,520.008 C865.197,468.006 935.098,416.003 1005.000,364.000 C994.667,350.000 984.333,336.000 974.000,322.000 C882.959,388.003 791.918,454.006 700.877,520.008 C732.350,520.008 763.823,520.008 795.295,520.008 z" fill="#0076BC" />
<path id="Forma-3-stroke" d="M793.783,524.009 C865.518,469.905 937.253,415.801 1008.989,361.697 C998.384,347.131 987.780,332.566 977.175,318.000 C883.747,386.670 790.318,455.339 696.889,524.009 C729.187,524.009 761.485,524.009 793.783,524.009 z" fill="none" stroke="#000000" stroke-opacity="1.000" stroke-width="8" stroke-linejoin="round" />
</g>
<path id="Forma-7" d="M981.000,317.000 C981.160,318.715 981.493,320.387 982.000,322.000 C982.563,323.790 983.330,325.222 984.000,326.000 C985.283,327.490 987.021,328.495 989.000,329.000 C1017.333,309.000 1045.667,289.000 1074.000,269.000 C1073.000,268.000 1072.000,267.000 1071.000,266.000 C1041.000,283.000 1011.000,300.000 981.000,317.000 z" fill="#0076BC" />
<path id="Forma-7-copia-2" d="M984.000,320.000 C984.329,322.108 984.999,324.130 986.000,326.000 C986.568,327.062 987.236,328.064 988.000,329.000 C1015.667,309.333 1043.333,289.667 1071.000,270.000 C1071.667,269.333 1072.333,268.667 1073.000,268.000 C1043.333,285.333 1013.667,302.667 984.000,320.000 z" fill="#FFFFFF" />
<path id="Forma-7" d="M993.000,333.000 C994.027,336.326 995.722,339.387 998.000,342.000 C999.721,343.975 1001.742,345.657 1004.000,347.000 C1030.333,324.667 1056.667,302.333 1083.000,280.000 C1081.000,277.667 1079.000,275.333 1077.000,273.000 C1049.000,293.000 1021.000,313.000 993.000,333.000 z" fill="#0076BC" />
<path id="Forma-7-copia" d="M996.000,339.000 C998.667,342.000 1001.333,345.000 1004.000,348.000 C1030.000,325.333 1056.000,302.667 1082.000,280.000 C1081.333,279.000 1080.667,278.000 1080.000,277.000 C1052.000,297.667 1024.000,318.333 996.000,339.000 z" fill="#FFFFFF" />
<g id="Forma-8" >
<path id="Forma-8-fill" d="M1008.000,352.000 C1007.582,353.730 1007.902,355.578 1009.000,357.000 C1009.753,357.976 1010.808,358.663 1012.000,359.000 C1026.026,344.856 1067.121,303.407 1065.763,301.991 C1064.424,300.595 1022.455,338.828 1008.000,352.000 z" fill="#0076BC" />
<path id="Forma-8-stroke" d="M1008.464,351.648 C1008.053,353.349 1008.367,355.167 1009.448,356.566 C1010.189,357.525 1011.227,358.202 1012.399,358.533 C1026.200,344.621 1066.633,303.851 1065.297,302.458 C1063.979,301.084 1022.686,338.692 1008.464,351.648 z" fill="none" stroke="#000000" stroke-opacity="1.000" stroke-width="1" />
</g>
</g>
<g id="Brush">
<g id="Forma-3" >
<path id="Forma-3-fill" d="M596.624,520.009 C536.629,475.358 476.635,430.708 416.640,386.057 C423.197,378.051 429.754,370.045 436.310,362.038 C516.959,414.695 597.608,467.352 678.256,520.009 C651.046,520.009 623.835,520.009 596.624,520.009 z" fill="#0076BC" />
<path id="Forma-3-stroke" d="M598.120,524.008 C536.301,477.097 474.481,430.186 412.661,383.274 C419.418,374.863 426.174,366.451 432.930,358.039 C516.032,413.362 599.134,468.685 682.236,524.008 C654.197,524.008 626.159,524.008 598.120,524.008 z" fill="none" stroke="#000000" stroke-opacity="1.000" stroke-width="8" stroke-linejoin="round" />
</g>
<g id="Forma-4" >
<path id="Forma-4-fill" d="M428.802,356.093 C422.152,364.209 415.501,372.324 408.851,380.439 C347.878,365.806 293.798,331.804 265.192,279.832 C254.915,261.161 248.382,240.976 245.522,219.785 C259.168,233.313 273.871,244.332 289.780,253.042 C321.676,270.506 376.972,273.431 405.761,304.775 C418.756,318.923 425.976,336.509 428.802,356.093 z" fill="#0076BC" />
<path id="Forma-4-stroke" d="M428.802,356.093 C422.152,364.209 415.501,372.324 408.851,380.439 C347.878,365.806 293.798,331.804 265.192,279.832 C254.915,261.161 248.382,240.976 245.522,219.785 C259.168,233.313 273.871,244.332 289.780,253.042 C321.676,270.506 376.972,273.431 405.761,304.775 C418.756,318.923 425.976,336.509 428.802,356.093 z" fill="none" stroke="#000000" stroke-width="8" stroke-linecap="round" />
</g>
<g id="Forma-5" >
<path id="Forma-5-fill" d="M386.165,345.422 C373.272,342.707 360.807,339.011 348.791,334.337 C325.523,325.286 304.943,311.804 297.648,304.775 C283.744,291.378 273.813,274.954 268.143,256.737 C281.164,268.252 294.591,279.021 308.467,289.070 C324.778,300.884 340.422,310.424 356.659,322.327 C366.872,329.814 376.578,337.410 386.165,345.422 z" fill="#FFFFFF" />
<path id="Forma-5-stroke" d="M383.338,342.615 C371.063,340.072 359.195,336.610 347.755,332.231 C325.601,323.753 306.007,311.126 299.062,304.542 C285.824,291.993 276.369,276.610 270.969,259.547 C283.367,270.332 296.151,280.419 309.362,289.832 C324.892,300.898 339.786,309.833 355.246,320.983 C364.969,327.995 374.211,335.110 383.338,342.615 z" fill="none" stroke="#000000" stroke-opacity="1.000" stroke-width="6" />
</g>
<g id="Forma-6" >
<path id="Forma-6-fill" d="M409.769,352.813 C391.738,332.797 373.707,312.781 355.676,292.766 C373.247,297.662 388.723,307.122 399.934,320.480 C405.963,327.663 410.582,335.758 413.704,344.499 C412.392,347.270 411.081,350.041 409.769,352.813 z" fill="#FFFFFF" />
<path id="Forma-6-stroke" d="M407.751,350.476 C391.172,332.018 374.592,313.561 358.013,295.104 C374.169,299.619 388.399,308.343 398.708,320.660 C404.251,327.284 408.499,334.748 411.369,342.809 C410.163,345.364 408.957,347.920 407.751,350.476 z" fill="none" stroke="#000000" stroke-opacity="1.000" stroke-width="5" />
</g>
</g>
<g id="Forma-2" >
<path id="Forma-2-fill" d="M849.878,281.793 C833.670,310.860 820.108,341.027 809.247,372.171 C792.873,367.788 776.333,364.165 759.586,361.292 C736.314,357.299 712.824,354.788 689.158,353.760 C665.493,354.788 642.003,357.299 618.731,361.292 C601.983,364.165 585.443,367.788 569.070,372.171 C558.209,341.027 544.647,310.860 528.438,281.793 C510.869,250.285 490.364,220.384 467.040,192.252 C479.294,193.208 491.072,196.926 501.351,203.131 C513.209,210.289 522.570,220.455 528.438,232.420 C539.661,222.338 555.655,219.247 569.070,224.051 C585.399,229.899 595.710,246.633 592.546,264.219 C585.148,261.031 576.360,260.520 569.070,264.219 C557.661,270.009 554.330,283.976 558.235,294.345 C561.615,303.319 569.618,308.376 576.293,310.245 C589.127,313.838 604.965,308.090 614.216,294.345 C624.324,301.284 637.212,304.181 649.430,301.040 C656.123,299.319 674.782,292.579 675.615,276.772 C676.312,263.530 663.230,251.426 648.527,249.993 C637.145,248.884 625.499,254.278 618.731,264.219 C608.065,249.963 608.645,231.771 618.731,219.867 C631.258,205.081 656.868,201.750 675.615,214.846 C667.684,203.369 663.799,189.931 664.780,176.352 C666.026,159.086 675.010,143.213 689.158,132.000 C703.307,143.213 712.291,159.086 713.537,176.352 C714.518,189.931 710.633,203.369 702.702,214.846 C721.449,201.750 747.059,205.081 759.586,219.867 C769.672,231.771 770.252,249.963 759.586,264.219 C752.818,254.278 741.172,248.884 729.790,249.993 C715.087,251.426 702.005,263.530 702.702,276.772 C703.534,292.579 722.193,299.319 728.887,301.040 C741.105,304.181 753.993,301.284 764.101,294.345 C773.352,308.090 789.190,313.838 802.024,310.245 C808.698,308.376 816.702,303.319 820.082,294.345 C823.987,283.976 820.656,270.009 809.247,264.219 C801.957,260.520 793.169,261.031 785.771,264.219 C782.607,246.633 792.918,229.899 809.247,224.051 C822.661,219.247 838.656,222.338 849.878,232.420 C855.747,220.455 865.108,210.289 876.966,203.131 C887.245,196.926 899.023,193.208 911.277,192.252 C887.953,220.384 867.448,250.285 849.878,281.793 z" fill="#0076BC" />
<path id="Forma-2-stroke" d="M852.768,282.779 C836.268,312.811 822.462,343.980 811.406,376.157 C794.738,371.629 777.901,367.886 760.853,364.917 C737.162,360.792 713.250,358.197 689.158,357.136 C665.067,358.197 641.155,360.792 617.465,364.917 C600.416,367.886 583.579,371.629 566.911,376.157 C555.855,343.980 542.049,312.811 525.549,282.779 C507.663,250.226 486.790,219.332 463.047,190.266 C475.521,191.254 487.511,195.095 497.974,201.506 C510.046,208.902 519.575,219.406 525.549,231.767 C536.974,221.351 553.255,218.158 566.911,223.121 C583.534,229.163 594.030,246.453 590.809,264.622 C583.278,261.329 574.332,260.800 566.911,264.622 C555.297,270.604 551.906,285.035 555.881,295.748 C559.322,305.020 567.469,310.245 574.264,312.176 C587.329,315.888 603.451,309.949 612.869,295.748 C623.159,302.917 636.278,305.911 648.716,302.665 C655.530,300.887 674.524,293.923 675.371,277.592 C676.081,263.910 662.764,251.404 647.797,249.924 C636.210,248.778 624.355,254.351 617.465,264.622 C606.607,249.893 607.197,231.097 617.465,218.798 C630.217,203.521 656.288,200.080 675.371,213.610 C667.298,201.752 663.343,187.868 664.341,173.838 C665.610,155.999 674.755,139.600 689.158,128.014 C703.562,139.600 712.707,155.999 713.976,173.838 C714.974,187.868 711.019,201.752 702.946,213.610 C722.029,200.080 748.100,203.521 760.853,218.798 C771.120,231.097 771.710,249.893 760.853,264.622 C753.962,254.351 742.107,248.778 730.520,249.924 C715.553,251.404 702.236,263.910 702.946,277.592 C703.793,293.923 722.787,300.887 729.601,302.665 C742.039,305.911 755.158,302.917 765.448,295.748 C774.866,309.949 790.988,315.888 804.053,312.176 C810.848,310.245 818.995,305.020 822.436,295.748 C826.411,285.035 823.020,270.604 811.406,264.622 C803.985,260.800 795.039,261.329 787.508,264.622 C784.287,246.453 794.783,229.163 811.406,223.121 C825.062,218.158 841.343,221.351 852.768,231.767 C858.742,219.406 868.271,208.902 880.343,201.506 C890.806,195.095 902.796,191.254 915.270,190.266 C891.527,219.332 870.654,250.226 852.768,282.779 z" fill="none" stroke="#000000" stroke-opacity="1.000" stroke-width="8" stroke-linejoin="round" />
</g>
<g id="Forma-1" >
<path id="Forma-1-fill" d="M909.497,1183.897 C847.213,1254.255 775.003,1315.774 694.055,1368.000 C613.107,1315.774 540.897,1254.255 478.613,1183.897 C315.123,999.211 231.476,766.156 224.000,520.290 C380.685,520.290 537.370,520.290 694.055,520.290 C850.740,520.290 1007.425,520.290 1164.110,520.290 C1156.634,766.156 1072.987,999.211 909.497,1183.897 zM971.815,570.500 C982.616,643.223 982.676,716.481 971.815,788.913 C954.304,905.684 908.844,1016.875 839.167,1116.114 C823.925,1078.443 803.964,1042.847 779.519,1009.836 C762.026,986.212 742.409,964.144 720.763,943.727 C720.763,892.122 720.763,840.517 720.763,788.913 C754.592,788.913 788.422,788.913 822.252,788.913 C821.424,827.755 817.271,866.286 809.788,904.395 C805.905,924.171 801.190,943.558 795.544,962.974 C831.154,962.974 866.764,962.974 902.375,962.974 C886.070,899.609 878.014,834.841 878.338,769.666 C878.649,707.010 886.700,644.802 902.375,583.889 C866.764,583.889 831.154,583.889 795.544,583.889 C802.074,603.987 807.417,624.355 811.569,644.978 C818.678,680.295 822.238,716.061 822.252,752.092 C788.422,752.092 754.592,752.092 720.763,752.092 C723.411,714.534 729.352,677.386 738.568,640.794 C745.801,612.072 755.006,583.884 766.166,556.273 C751.989,563.610 736.676,568.440 720.763,570.500 C711.915,571.645 702.992,571.922 694.055,571.336 C685.118,571.922 676.195,571.645 667.347,570.500 C651.434,568.440 636.121,563.610 621.944,556.273 C633.104,583.884 642.309,612.072 649.542,640.794 C658.758,677.386 664.698,714.534 667.347,752.092 C633.518,752.092 599.688,752.092 565.858,752.092 C565.872,716.061 569.431,680.295 576.541,644.978 C580.693,624.355 586.036,603.987 592.566,583.889 C556.956,583.889 521.345,583.889 485.735,583.889 C501.409,644.802 509.461,707.010 509.772,769.666 C510.096,834.841 502.039,899.609 485.735,962.974 C521.345,962.974 556.956,962.974 592.566,962.974 C586.919,943.558 582.205,924.171 578.322,904.395 C570.838,866.286 566.685,827.755 565.858,788.913 C599.688,788.913 633.518,788.913 667.347,788.913 C667.347,840.517 667.347,892.122 667.347,943.727 C645.701,964.144 626.084,986.212 608.590,1009.836 C584.146,1042.847 564.185,1078.443 548.943,1116.114 C479.266,1016.875 433.805,905.684 416.295,788.913 C405.434,716.481 405.494,643.223 416.295,570.500 C397.730,586.209 377.479,599.927 355.758,611.504 C332.404,623.952 307.661,633.758 281.867,640.794 C293.647,707.699 311.754,773.060 336.172,836.612 C390.383,977.701 474.439,1106.377 583.663,1218.207 C593.601,1168.190 607.259,1119.061 624.615,1070.925 C637.025,1036.506 651.272,1002.747 667.347,969.668 C665.623,1004.585 662.992,1038.659 659.335,1073.435 C653.473,1129.178 645.224,1184.007 634.408,1239.128 C654.290,1239.128 674.172,1239.128 694.055,1239.128 C713.937,1239.128 733.820,1239.128 753.702,1239.128 C742.886,1184.007 734.637,1129.178 728.775,1073.435 C725.118,1038.659 722.487,1004.585 720.763,969.668 C736.838,1002.747 751.085,1036.506 763.495,1070.925 C780.850,1119.061 794.508,1168.190 804.447,1218.207 C913.670,1106.377 997.727,977.701 1051.937,836.612 C1076.356,773.060 1094.462,707.699 1106.243,640.794 C1080.449,633.758 1055.706,623.952 1032.352,611.504 C1010.631,599.927 990.380,586.209 971.815,570.500 z" fill="#0076BC" />
<path id="Forma-1-stroke" d="M909.497,1183.897 C847.213,1254.255 775.003,1315.774 694.055,1368.000 C613.107,1315.774 540.897,1254.255 478.613,1183.897 C315.123,999.211 231.476,766.156 224.000,520.290 C380.685,520.290 537.370,520.290 694.055,520.290 C850.740,520.290 1007.425,520.290 1164.110,520.290 C1156.634,766.156 1072.987,999.211 909.497,1183.897 zM971.815,570.500 C982.616,643.223 982.676,716.481 971.815,788.913 C954.304,905.684 908.844,1016.875 839.167,1116.114 C823.925,1078.443 803.964,1042.847 779.519,1009.836 C762.026,986.212 742.409,964.144 720.763,943.727 C720.763,892.122 720.763,840.517 720.763,788.913 C754.592,788.913 788.422,788.913 822.252,788.913 C821.424,827.755 817.271,866.286 809.788,904.395 C805.905,924.171 801.190,943.558 795.544,962.974 C831.154,962.974 866.764,962.974 902.375,962.974 C886.070,899.609 878.014,834.841 878.338,769.666 C878.649,707.010 886.700,644.802 902.375,583.889 C866.764,583.889 831.154,583.889 795.544,583.889 C802.074,603.987 807.417,624.355 811.569,644.978 C818.678,680.295 822.238,716.061 822.252,752.092 C788.422,752.092 754.592,752.092 720.763,752.092 C723.411,714.534 729.352,677.386 738.568,640.794 C745.801,612.072 755.006,583.884 766.166,556.273 C751.989,563.610 736.676,568.440 720.763,570.500 C711.915,571.645 702.992,571.922 694.055,571.336 C685.118,571.922 676.195,571.645 667.347,570.500 C651.434,568.440 636.121,563.610 621.944,556.273 C633.104,583.884 642.309,612.072 649.542,640.794 C658.758,677.386 664.698,714.534 667.347,752.092 C633.518,752.092 599.688,752.092 565.858,752.092 C565.872,716.061 569.431,680.295 576.541,644.978 C580.693,624.355 586.036,603.987 592.566,583.889 C556.956,583.889 521.345,583.889 485.735,583.889 C501.409,644.802 509.461,707.010 509.772,769.666 C510.096,834.841 502.039,899.609 485.735,962.974 C521.345,962.974 556.956,962.974 592.566,962.974 C586.919,943.558 582.205,924.171 578.322,904.395 C570.838,866.286 566.685,827.755 565.858,788.913 C599.688,788.913 633.518,788.913 667.347,788.913 C667.347,840.517 667.347,892.122 667.347,943.727 C645.701,964.144 626.084,986.212 608.590,1009.836 C584.146,1042.847 564.185,1078.443 548.943,1116.114 C479.266,1016.875 433.805,905.684 416.295,788.913 C405.434,716.481 405.494,643.223 416.295,570.500 C397.730,586.209 377.479,599.927 355.758,611.504 C332.404,623.952 307.661,633.758 281.867,640.794 C293.647,707.699 311.754,773.060 336.172,836.612 C390.383,977.701 474.439,1106.377 583.663,1218.207 C593.601,1168.190 607.259,1119.061 624.615,1070.925 C637.025,1036.506 651.272,1002.747 667.347,969.668 C665.623,1004.585 662.992,1038.659 659.335,1073.435 C653.473,1129.178 645.224,1184.007 634.408,1239.128 C654.290,1239.128 674.172,1239.128 694.055,1239.128 C713.937,1239.128 733.820,1239.128 753.702,1239.128 C742.886,1184.007 734.637,1129.178 728.775,1073.435 C725.118,1038.659 722.487,1004.585 720.763,969.668 C736.838,1002.747 751.085,1036.506 763.495,1070.925 C780.850,1119.061 794.508,1168.190 804.447,1218.207 C913.670,1106.377 997.727,977.701 1051.937,836.612 C1076.356,773.060 1094.462,707.699 1106.243,640.794 C1080.449,633.758 1055.706,623.952 1032.352,611.504 C1010.631,599.927 990.380,586.209 971.815,570.500 z" fill="none" stroke="#000000" stroke-opacity="1.000" stroke-width="8" stroke-linejoin="round" />
</g>
</g>
</g>
</svg>
