<svg version="1.1" xmlns="http://www.w3.org/2000/svg" xmlns:xlink="http://www.w3.org/1999/xlink" width="2400" height="1600" viewBox="0 0 2400 1600">
<g id="IVA-(India)">
<path id="Rectángulo-26" d="M-0,0 L2400,0 L2400,1600 L-0,1600 L-0,0 z" fill="#FFFF00" />
<path id="Rectángulo-redon" d="M-0,-0 L1044,-0 L1044,696 L-0,696 L-0,-0 z" fill="#000088" />
<path id="Relleno-de-color" d="M89.030,348 C89.030,447.185 161.917,561.984 290.725,561.984 C352.594,561.984 414.254,535.193 475.165,499.106 C451.943,488.588 430.266,480.315 408.175,475.827 C366.740,496.095 327.127,508.965 290.725,508.965 C185.783,508.965 135.430,417.725 135.430,348 C135.430,278.275 185.783,187.035 290.725,187.035 C327.089,187.035 366.654,199.957 408.030,220.173 C430.155,215.696 451.912,207.341 475.165,196.811 C414.272,160.751 352.565,134.016 290.725,134.016 C161.917,134.016 89.030,248.815 89.030,348 zM532.730,190.846 C475.027,218.565 428.732,243.617 373.230,243.617 C205.610,243.617 205.610,243.617 205.610,243.617 C188.538,258.421 176.413,277.229 168.780,296.637 C373.230,296.637 373.230,296.637 373.230,296.637 C440.792,296.637 494.287,266.828 550.710,239.724 C607.133,212.620 667.186,187.035 753.275,187.035 C858.217,187.035 908.570,278.275 908.570,348 C908.570,358.135 907.376,368.700 905.235,379.398 C952.505,379.398 952.505,379.398 952.505,379.398 C954.073,368.857 954.970,358.349 954.970,348 C954.970,248.815 882.083,134.016 753.275,134.016 C658.959,134.016 590.433,163.127 532.730,190.846 zM-0,296.637 C-0,296.637 71.340,296.637 71.340,296.637 C75.190,278.575 81.026,260.726 88.740,243.617 C-0,243.617 -0,243.617 -0,243.617 L-0,296.637 zM966.570,296.637 C1044,296.637 1044,296.637 1044,296.637 L1044,243.617 C1044,243.617 948.735,243.617 948.735,243.617 C956.697,260.696 962.600,278.558 966.570,296.637 zM563.470,380.060 C545.948,392.088 528.366,404.001 510.980,415.434 C526.715,422.779 542.180,430.514 557.525,437.885 C559.837,438.996 562.169,440.098 564.485,441.199 C572.107,435.981 579.663,430.749 587.250,425.541 C683.960,359.157 777.989,296.637 853.035,296.637 C881.455,296.637 881.455,296.637 881.455,296.637 C874.335,277.573 863.218,258.959 847.670,243.700 C753.389,246.243 658.238,315.009 563.470,380.060 zM557.525,258.032 C542.180,265.403 526.715,273.138 510.980,280.483 C528.366,291.912 545.948,303.829 563.470,315.857 C571.568,321.416 579.574,326.929 587.685,332.425 C602.827,322.006 618.035,311.690 633.360,301.691 C618.103,291.538 602.717,281.076 587.250,270.459 C579.645,265.239 571.980,260.031 564.340,254.801 C562.053,255.887 559.807,256.936 557.525,258.032 zM681.790,393.730 C738.986,427.555 796.214,452.300 853.035,452.300 C1044,452.300 1044,452.300 1044,452.300 L1044,399.280 C1044,399.280 853.035,399.280 853.035,399.280 C817.342,399.280 777.242,384.881 734.715,362.829 C717.607,372.023 699.930,382.430 681.790,393.730 zM-0,452.300 C-0,452.300 88.740,452.300 88.740,452.300 C81.030,435.186 75.185,417.345 71.340,399.280 C-0,399.280 -0,399.280 -0,399.280 L-0,452.300 zM205.610,452.300 C373.230,452.300 373.230,452.300 373.230,452.300 C428.732,452.300 475.027,477.352 532.730,505.071 C590.433,532.790 658.959,561.984 753.275,561.984 C827.685,561.984 883.309,523.661 917.125,472.182 C853.470,472.182 853.470,472.182 853.470,472.182 C828.667,494.272 795.377,508.965 753.275,508.965 C667.186,508.965 607.133,483.297 550.710,456.193 C494.287,429.089 440.792,399.280 373.230,399.280 C168.780,399.280 168.780,399.280 168.780,399.280 C176.400,418.682 188.560,437.490 205.610,452.300 z" fill="#FFFF00" />
<g id="Grupo-5">
<path id="Forma-6" d="M1761,1402 C1520.204,1402 1325,1206.796 1325,966 C1325,725.204 1520.204,530 1761,530 C2001.796,530 2197,725.204 2197,966 C2197,1206.796 2001.796,1402 1761,1402 zM1513.939,1256.682 C1520.421,1248.662 1532.142,1247.218 1540.370,1253.531 C1548.601,1259.847 1550.237,1271.549 1544.160,1279.886 C1561.028,1291.555 1578.870,1301.918 1597.559,1310.791 C1601.720,1301.318 1612.700,1296.858 1622.306,1300.837 C1631.914,1304.817 1636.525,1315.740 1632.763,1325.383 C1651.971,1332.236 1671.881,1337.609 1692.369,1341.331 C1693.943,1331.111 1703.391,1323.968 1713.694,1325.324 C1723.981,1326.679 1731.250,1335.996 1730.154,1346.255 C1740.330,1347.069 1750.614,1347.500 1761,1347.500 C1771.386,1347.500 1781.670,1347.066 1791.846,1346.250 C1790.753,1335.993 1798.021,1326.679 1808.306,1325.324 C1818.605,1323.968 1828.048,1331.104 1829.629,1341.317 C1850.114,1337.591 1870.035,1332.248 1889.240,1325.391 C1885.472,1315.746 1890.083,1304.818 1899.694,1300.837 C1909.298,1296.859 1920.275,1301.316 1924.439,1310.785 C1943.125,1301.909 1960.981,1291.568 1977.846,1279.895 C1971.761,1271.557 1973.397,1259.849 1981.630,1253.531 C1989.857,1247.218 2001.577,1248.662 2008.059,1256.679 C2015.901,1250.007 2023.471,1243.025 2030.749,1235.751 C2030.749,1235.751 1859.655,1083.153 1859.655,1083.153 C1859.655,1083.153 1812.087,1022.612 1812.087,1022.612 C1809.088,1025.323 1805.867,1027.791 1802.465,1030.005 C1802.465,1030.005 1848.628,1091.616 1848.628,1091.616 L1951.750,1296.389 L1825.972,1104.696 C1825.972,1104.696 1795.703,1033.926 1795.703,1033.926 C1792.123,1035.765 1788.378,1037.323 1784.498,1038.585 C1784.498,1038.585 1813.130,1110.015 1813.130,1110.015 L1859.739,1334.501 L1787.862,1116.786 C1787.862,1116.786 1776.944,1040.620 1776.944,1040.620 C1773.037,1041.456 1769.019,1041.994 1764.912,1042.201 C1764.912,1042.201 1774.080,1118.600 1774.080,1118.600 L1761,1347.500 L1747.920,1118.600 C1747.920,1118.600 1757.088,1042.201 1757.088,1042.201 C1752.982,1041.994 1748.967,1041.445 1745.057,1040.614 C1745.057,1040.614 1734.138,1116.786 1734.138,1116.786 L1662.261,1334.501 L1708.870,1110.015 C1708.870,1110.015 1737.500,1038.590 1737.500,1038.590 C1733.618,1037.334 1729.873,1035.773 1726.291,1033.940 C1726.291,1033.940 1696.028,1104.696 1696.028,1104.696 L1570.250,1296.389 L1673.372,1091.616 C1673.372,1091.616 1719.525,1030.017 1719.525,1030.017 C1716.120,1027.808 1712.906,1025.331 1709.904,1022.623 C1709.904,1022.623 1662.345,1083.153 1662.345,1083.153 C1662.345,1083.153 1491.239,1235.761 1491.239,1235.761 C1498.516,1243.038 1506.095,1250.011 1513.939,1256.682 zM1470.318,718.939 C1478.338,725.421 1479.782,737.142 1473.469,745.370 C1467.153,753.601 1455.451,755.237 1447.114,749.160 C1435.445,766.028 1425.082,783.870 1416.209,802.559 C1425.682,806.720 1430.142,817.700 1426.163,827.306 C1422.183,836.914 1411.260,841.525 1401.617,837.763 C1394.764,856.971 1389.391,876.881 1385.669,897.369 C1395.889,898.943 1403.032,908.391 1401.676,918.694 C1400.321,928.981 1391.004,936.250 1380.745,935.154 C1379.931,945.330 1379.500,955.614 1379.500,966 C1379.500,976.386 1379.934,986.670 1380.750,996.845 C1391.007,995.753 1400.321,1003.021 1401.676,1013.306 C1403.031,1023.604 1395.896,1033.047 1385.685,1034.628 C1389.411,1055.113 1394.756,1075.034 1401.613,1094.238 C1411.257,1090.473 1422.182,1095.084 1426.163,1104.694 C1430.140,1114.296 1425.685,1125.271 1416.220,1129.436 C1425.097,1148.122 1435.437,1165.978 1447.110,1182.843 C1455.447,1176.762 1467.152,1178.398 1473.469,1186.630 C1479.781,1194.856 1478.338,1206.573 1470.324,1213.055 C1476.997,1220.898 1483.962,1228.484 1491.239,1235.761 C1491.239,1235.761 1643.847,1064.655 1643.847,1064.655 C1643.847,1064.655 1704.376,1017.097 1704.376,1017.097 C1701.665,1014.097 1699.204,1010.871 1696.991,1007.468 C1696.991,1007.468 1635.384,1053.628 1635.384,1053.628 L1430.611,1156.750 L1622.304,1030.972 C1622.304,1030.972 1693.063,1000.708 1693.063,1000.708 C1691.227,997.127 1689.687,993.374 1688.427,989.494 C1688.427,989.494 1616.985,1018.130 1616.985,1018.130 L1392.499,1064.739 L1610.214,992.862 C1610.214,992.862 1686.410,981.940 1686.410,981.940 C1685.574,978.030 1685.025,974.015 1684.808,969.911 C1684.808,969.911 1608.400,979.080 1608.400,979.080 L1379.500,966 L1608.400,952.920 C1608.400,952.920 1684.799,962.088 1684.799,962.088 C1685.006,957.982 1685.555,953.967 1686.386,950.057 C1686.386,950.057 1610.214,939.138 1610.214,939.138 L1392.499,867.261 L1616.985,913.870 C1616.985,913.870 1688.410,942.500 1688.410,942.500 C1689.666,938.618 1691.227,934.873 1693.060,931.291 C1693.060,931.291 1622.304,901.028 1622.304,901.028 L1430.611,775.250 L1635.384,878.372 C1635.384,878.372 1696.983,924.525 1696.983,924.525 C1699.192,921.120 1701.669,917.906 1704.377,914.904 C1704.377,914.904 1643.847,867.345 1643.847,867.345 C1643.847,867.345 1491.239,696.239 1491.239,696.239 C1483.962,703.516 1476.989,711.095 1470.318,718.939 zM2008.061,675.318 C2001.579,683.338 1989.858,684.782 1981.630,678.469 C1973.399,672.153 1971.763,660.451 1977.840,652.114 C1960.972,640.445 1943.130,630.082 1924.441,621.209 C1920.280,630.682 1909.300,635.142 1899.694,631.163 C1890.086,627.183 1885.475,616.260 1889.237,606.617 C1870.029,599.764 1850.119,594.391 1829.631,590.669 C1828.057,600.889 1818.609,608.032 1808.306,606.676 C1798.019,605.321 1790.750,596.004 1791.846,585.745 C1781.670,584.931 1771.386,584.500 1761,584.500 C1750.614,584.500 1740.330,584.934 1730.155,585.750 C1731.247,596.007 1723.979,605.321 1713.694,606.676 C1703.396,608.031 1693.953,600.896 1692.372,590.685 C1671.887,594.411 1651.966,599.756 1632.762,606.613 C1636.527,616.257 1631.916,627.182 1622.306,631.163 C1612.704,635.140 1601.729,630.685 1597.564,621.220 C1578.878,630.097 1561.022,640.437 1544.157,652.110 C1550.238,660.447 1548.602,672.152 1540.370,678.469 C1532.144,684.781 1520.428,683.338 1513.945,675.324 C1506.102,681.997 1498.516,688.962 1491.239,696.239 C1491.239,696.239 1662.345,848.847 1662.345,848.847 C1662.345,848.847 1709.903,909.376 1709.903,909.376 C1712.903,906.665 1716.129,904.204 1719.532,901.991 C1719.532,901.991 1673.372,840.384 1673.372,840.384 L1570.250,635.611 L1696.028,827.304 C1696.028,827.304 1726.292,898.063 1726.292,898.063 C1729.873,896.227 1733.626,894.687 1737.506,893.427 C1737.506,893.427 1708.870,821.985 1708.870,821.985 L1662.261,597.499 L1734.138,815.214 C1734.138,815.214 1745.060,891.410 1745.060,891.410 C1748.970,890.574 1752.985,890.025 1757.089,889.808 C1757.089,889.808 1747.920,813.400 1747.920,813.400 L1761,584.500 L1774.080,813.400 C1774.080,813.400 1764.912,889.799 1764.912,889.799 C1769.018,890.006 1773.033,890.555 1776.943,891.386 C1776.943,891.386 1787.862,815.214 1787.862,815.214 L1859.739,597.499 L1813.130,821.985 C1813.130,821.985 1784.500,893.410 1784.500,893.410 C1788.382,894.666 1792.127,896.227 1795.709,898.060 C1795.709,898.060 1825.972,827.304 1825.972,827.304 L1951.750,635.611 L1848.628,840.384 C1848.628,840.384 1802.475,901.983 1802.475,901.983 C1805.880,904.192 1809.094,906.669 1812.096,909.377 C1812.096,909.377 1859.655,848.847 1859.655,848.847 C1859.655,848.847 2030.761,696.239 2030.761,696.239 C2023.484,688.962 2015.905,681.989 2008.061,675.318 zM2120.324,918.694 C2118.969,908.396 2126.104,898.953 2136.315,897.372 C2132.589,876.887 2127.244,856.966 2120.387,837.762 C2110.743,841.527 2099.818,836.916 2095.837,827.306 C2091.860,817.704 2096.315,806.729 2105.780,802.564 C2096.903,783.878 2086.563,766.022 2074.890,749.157 C2066.553,755.238 2054.848,753.602 2048.531,745.370 C2042.219,737.144 2043.662,725.427 2051.676,718.945 C2045.003,711.102 2038.038,703.516 2030.761,696.239 C2030.761,696.239 1878.153,867.345 1878.153,867.345 C1878.153,867.345 1817.624,914.903 1817.624,914.903 C1820.335,917.903 1822.796,921.129 1825.009,924.532 C1825.009,924.532 1886.616,878.372 1886.616,878.372 L2091.389,775.250 L1899.696,901.028 C1899.696,901.028 1828.937,931.292 1828.937,931.292 C1830.773,934.873 1832.313,938.626 1833.573,942.506 C1833.573,942.506 1905.015,913.870 1905.015,913.870 L2129.501,867.261 L1911.786,939.138 C1911.786,939.138 1835.590,950.060 1835.590,950.060 C1836.426,953.970 1836.975,957.985 1837.192,962.089 C1837.192,962.089 1913.600,952.920 1913.600,952.920 L2142.500,966 L1913.600,979.080 C1913.600,979.080 1837.199,969.912 1837.199,969.912 C1836.991,974.018 1836.441,978.032 1835.610,981.942 C1835.610,981.942 1911.786,992.862 1911.786,992.862 L2129.501,1064.739 L1905.015,1018.130 C1905.015,1018.130 1833.589,989.500 1833.589,989.500 C1832.333,993.382 1830.767,997.124 1828.934,1000.706 C1828.934,1000.706 1899.696,1030.972 1899.696,1030.972 L2091.389,1156.750 L1886.616,1053.628 C1886.616,1053.628 1825.025,1007.480 1825.025,1007.480 C1822.816,1010.886 1820.323,1014.088 1817.615,1017.090 C1817.615,1017.090 1878.153,1064.655 1878.153,1064.655 C1878.153,1064.655 2030.751,1235.749 2030.751,1235.749 C2038.029,1228.475 2045.015,1220.908 2051.687,1213.065 C2043.663,1206.584 2042.217,1194.860 2048.531,1186.630 C2054.849,1178.397 2066.557,1176.761 2074.894,1182.846 C2086.567,1165.979 2096.925,1148.134 2105.799,1129.445 C2096.320,1125.286 2091.857,1114.302 2095.837,1104.694 C2099.816,1095.088 2110.736,1090.477 2120.377,1094.235 C2127.231,1075.027 2132.609,1055.119 2136.331,1034.631 C2126.111,1033.057 2118.968,1023.609 2120.324,1013.306 C2121.679,1003.019 2130.996,995.750 2141.255,996.846 C2142.069,986.670 2142.500,976.386 2142.500,966 C2142.500,955.614 2142.066,945.330 2141.250,935.155 C2130.993,936.247 2121.679,928.979 2120.324,918.694 z" fill="#000088" />
<path id="Elipse-6" d="M1762.500,883 C1809.168,883 1847,920.832 1847,967.500 C1847,1014.168 1809.168,1052 1762.500,1052 C1715.832,1052 1678,1014.168 1678,967.500 C1678,920.832 1715.832,883 1762.500,883 z" fill="#000088" />
<path id="Elipse-6-copia-2" d="M1763,1039 C1723.788,1039 1692,1007.212 1692,968 C1692,928.788 1723.788,897 1763,897 C1802.212,897 1834,928.788 1834,968 C1834,1007.212 1802.212,1039 1763,1039 zM1763.500,912 C1732.296,912 1707,937.296 1707,968.500 C1707,999.704 1732.296,1025 1763.500,1025 C1794.704,1025 1820,999.704 1820,968.500 C1820,937.296 1794.704,912 1763.500,912 z" fill="#FFFF00" />
</g>
</g>
</svg>