<svg version="1.1" xmlns="http://www.w3.org/2000/svg" xmlns:xlink="http://www.w3.org/1999/xlink" width="2400" height="1600" viewBox="0 0 2400 1600">
<g id="JAVA-(Japan)">
<path id="Rectángulo-1" d="M-0,0 L2400,0 L2400,1600 L-0,1600 L-0,0 z" fill="#FFFFFF" />
<path id="Relleno-de-color" d="M668.326,1246 C668.326,1352.609 757.829,1476 916.001,1476 C991.975,1476 1067.691,1447.203 1142.488,1408.416 C1113.972,1397.110 1087.354,1388.219 1060.226,1383.395 C1009.345,1405.179 960.702,1419.012 916.001,1419.012 C787.136,1419.012 725.304,1320.944 725.304,1246 C725.304,1171.056 787.136,1072.988 916.001,1072.988 C960.655,1072.988 1009.239,1086.877 1060.048,1108.605 C1087.217,1103.794 1113.935,1094.813 1142.488,1083.495 C1067.714,1044.736 991.939,1016 916.001,1016 C757.829,1016 668.326,1139.391 668.326,1246 zM1213.176,1077.084 C1142.319,1106.877 1085.469,1133.805 1017.315,1133.805 C811.483,1133.805 811.483,1133.805 811.483,1133.805 C790.518,1149.716 775.630,1169.932 766.257,1190.793 C1017.315,1190.793 1017.315,1190.793 1017.315,1190.793 C1100.278,1190.793 1165.969,1158.752 1235.255,1129.620 C1304.541,1100.487 1378.284,1072.988 1483.999,1072.988 C1612.864,1072.988 1674.696,1171.056 1674.696,1246 C1674.696,1256.893 1673.229,1268.249 1670.601,1279.748 C1728.647,1279.748 1728.647,1279.748 1728.647,1279.748 C1730.572,1268.418 1731.674,1257.124 1731.674,1246 C1731.674,1139.391 1642.172,1016 1483.999,1016 C1368.182,1016 1284.033,1047.291 1213.176,1077.084 zM-0,1190 C215.534,1190.264 431.069,1190.529 646.603,1190.793 C651.332,1171.379 658.497,1152.194 667.970,1133.805 C631.647,1133.870 595.323,1133.935 559,1134 C372.667,1134 186.333,1134 -0,1134 C-0,1152.667 -0,1171.333 -0,1190 zM1745.918,1190.793 C1841,1190.793 1841,1190.793 1841,1190.793 C2027.333,1190.529 2213.667,1190.264 2400,1190 C2400,1171.333 2400,1152.667 2400,1134 C2213.667,1133.935 2027.333,1133.870 1841,1133.805 C1802.006,1133.805 1763.012,1133.805 1724.017,1133.805 C1733.795,1152.161 1741.044,1171.360 1745.918,1190.793 zM1250.924,1280.460 C1229.408,1293.388 1207.817,1306.192 1186.468,1318.482 C1205.790,1326.376 1224.781,1334.689 1243.624,1342.612 C1246.463,1343.806 1249.326,1344.992 1252.170,1346.174 C1261.530,1340.566 1270.809,1334.943 1280.125,1329.345 C1398.882,1257.992 1514.347,1190.793 1606.501,1190.793 C1641.400,1190.793 1641.400,1190.793 1641.400,1190.793 C1632.657,1170.302 1619.005,1150.294 1599.913,1133.894 C1484.139,1136.627 1367.296,1210.540 1250.924,1280.460 zM1243.624,1149.298 C1224.781,1157.221 1205.790,1165.535 1186.468,1173.429 C1207.817,1185.714 1229.408,1198.523 1250.924,1211.451 C1260.868,1217.426 1270.699,1223.352 1280.659,1229.260 C1299.253,1218.061 1317.928,1206.972 1336.747,1196.224 C1318.012,1185.312 1299.118,1174.067 1280.125,1162.655 C1270.787,1157.044 1261.374,1151.447 1251.992,1145.826 C1249.184,1146.993 1246.426,1148.120 1243.624,1149.298 zM1396.217,1295.152 C1466.453,1331.510 1536.726,1358.106 1606.501,1358.106 C1841,1358.106 1841,1358.106 1841,1358.106 C2027.333,1358.404 2213.667,1358.702 2400,1359 C2400,1339.667 2400,1320.333 2400,1301 C2135.500,1301.039 1871.001,1301.079 1606.501,1301.118 C1562.671,1301.118 1513.429,1285.641 1461.208,1261.939 C1440.199,1271.821 1418.492,1283.007 1396.217,1295.152 zM-0,1359 C222.657,1358.702 445.313,1358.404 667.970,1358.106 C658.502,1339.712 651.325,1320.536 646.603,1301.118 C431.069,1301.079 215.534,1301.039 -0,1301 C-0,1320.333 -0,1339.667 -0,1359 zM811.483,1358.106 C1017.315,1358.106 1017.315,1358.106 1017.315,1358.106 C1085.469,1358.106 1142.319,1385.034 1213.176,1414.827 C1284.033,1444.620 1368.182,1476 1483.999,1476 C1575.372,1476 1643.677,1434.809 1685.201,1379.477 C1607.035,1379.477 1607.035,1379.477 1607.035,1379.477 C1576.578,1403.220 1535.699,1419.012 1483.999,1419.012 C1378.284,1419.012 1304.541,1391.424 1235.255,1362.291 C1165.969,1333.158 1100.278,1301.118 1017.315,1301.118 C766.257,1301.118 766.257,1301.118 766.257,1301.118 C775.613,1321.972 790.546,1342.187 811.483,1358.106 z" fill="#BC002D" />
<path id="Elipse-1" d="M1200,112 C1422.018,112 1602,291.982 1602,514 C1602,736.018 1422.018,916 1200,916 C977.982,916 798,736.018 798,514 C798,291.982 977.982,112 1200,112 z" fill="#BC002D" />
</g>
</svg>