<?xml version="1.0" encoding="UTF-8"?>
<svg id="svg346" width="1e3" height="650" version="1.1" xml:space="preserve" xmlns="http://www.w3.org/2000/svg">
  <switch id="switch344">
    <g id="g330" fill="#010101">
        <g id="g340">
        <path id="path332" d="m0 0h1e3v650h-1e3z" fill="#ffffff"/>
        
        <path id="path338" d="M 935.96,0 499.965,283.159 63.97,0 H 0 V 54.365 L 426.125,331.113 0,607.863 V 650 H 82.795 L 499.965,379.068 917.135,650 H 1000 V 607.908 L 573.805,331.113 1000,54.319 V 0 Z" fill="#010101"/>
      </g>
      <g id="g336" fill="#010101">
          <g id="g1313"><path id="path1217" d="m303.671 297.966c-6.776 30.772-19.376 52.558-33.092 68.218 5.701-1.562 12.149-5.992 18.345-9.883-3.79 8.068-7.625 15.059-11.416 22.176 2.263-0.768 9.473-7.957 19.225-18.5 1.527 14.496 3.611 21.348 6.697 31.178 2.46-9.814 4.243-16.516 6.195-31.43 5.879 6.671 11.545 13.373 19.499 19.098l-11.134-22.939c5.766 3.688 12.183 8.506 18.297 10.562-14.497-16.448-26.765-37.704-32.616-68.48z"/><path id="path1215" d="m286.343 289.601c-7.691 0.343-16.164 10.77-24.445 2.066 4.829 12.01 13.656 6.28 14.278 8.07 8.795 14.667 21.779 2.74 18.807-4.139-2.708-4.688-5.631-6.132-8.64-5.997z"/><path id="path1213" d="m318.551 289.477c-2.605 0.245-5.116 1.853-7.487 5.955-2.973 6.878 10.102 18.808 18.9 4.142 0.622-1.789 9.355 3.942 14.187-8.066-8.283 8.701-16.754-1.686-24.445-2.03-0.376-0.018-0.783-0.037-1.155-1e-3"/><path id="path1211" d="m301.179 258.85c10.414 12.919-18.707 18.06-3.006 30.286 6.695 4.152 22.338-4.836 8.596-15.881-1.775-0.946 6.181-7.477-5.59-14.405"/></g><g id="g1307"><path id="path1209" d="m182.139 297.966c-6.776 30.772-19.376 52.558-33.092 68.218 5.7-1.562 12.149-5.992 18.345-9.883-3.79 8.068-7.625 15.059-11.415 22.176 2.263-0.768 9.472-7.957 19.224-18.5 1.528 14.496 3.611 21.348 6.697 31.178 2.46-9.814 4.243-16.516 6.196-31.43 5.878 6.671 11.544 13.373 19.498 19.098l-11.134-22.939c5.766 3.688 12.183 8.506 18.297 10.562-14.496-16.448-26.765-37.704-32.616-68.48z"/><path id="path1207" d="m197.019 289.477c-2.605 0.245-5.116 1.853-7.486 5.955-2.973 6.878 10.101 18.808 18.899 4.142 0.623-1.789 9.355 3.942 14.187-8.066-8.283 8.701-16.754-1.686-24.445-2.03-0.376-0.018-0.783-0.037-1.155-1e-3z"/><path id="path1205" d="m179.647 258.85c10.414 12.919-18.707 18.06-3.006 30.286 6.696 4.152 22.337-4.836 8.596-15.881-1.775-0.946 6.18-7.477-5.59-14.405"/><path id="path1203" d="m164.812 289.601c-7.691 0.343-16.164 10.77-24.445 2.066 4.829 12.01 13.656 6.28 14.278 8.07 8.796 14.667 21.78 2.74 18.808-4.139-2.71-4.688-5.633-6.132-8.641-5.997"/></g><g id="g1324"><path id="path1201" d="m121.374 411.74c-6.776 30.771-19.376 52.557-33.092 68.217 5.701-1.562 12.149-5.994 18.346-9.883-3.791 8.066-7.626 15.057-11.416 22.176 2.263-0.766 9.472-7.957 19.225-18.5 1.527 14.496 3.61 21.346 6.697 31.176 2.459-9.812 4.243-16.514 6.195-31.428 5.878 6.67 11.544 13.375 19.498 19.096l-11.134-22.938c5.766 3.686 12.183 8.504 18.298 10.561-14.498-16.446-26.766-37.701-32.617-68.477z"/><path id="path1199" d="m104.046 403.375c-7.691 0.344-16.164 10.77-24.445 2.066 4.829 12.01 13.656 6.279 14.278 8.068 8.796 14.666 21.779 2.74 18.808-4.137-2.709-4.686-5.632-6.132-8.641-5.997"/><path id="path1197" d="m136.253 403.252c-2.605 0.244-5.116 1.852-7.486 5.955-2.974 6.877 10.101 18.807 18.898 4.141 0.623-1.789 9.356 3.943 14.188-8.064-8.283 8.701-16.754-1.688-24.445-2.029-0.375-0.021-0.783-0.038-1.155-3e-3"/><path id="path1195" d="m118.882 372.625c10.414 12.918-18.707 18.059-3.007 30.287 6.696 4.148 22.338-4.836 8.597-15.883-1.776-0.945 6.18-7.476-5.59-14.404"/></g><g id="g1289"><path id="path1193" d="m121.374 184.191c-6.776 30.772-19.376 52.556-33.092 68.217 5.701-1.563 12.149-5.995 18.346-9.883-3.791 8.069-7.626 15.056-11.416 22.176 2.263-0.766 9.472-7.956 19.225-18.5 1.527 14.496 3.61 21.347 6.697 31.175 2.459-9.812 4.243-16.514 6.195-31.427 5.878 6.669 11.544 13.374 19.498 19.095l-11.134-22.938c5.766 3.686 12.183 8.505 18.298 10.562-14.498-16.446-26.766-37.7-32.617-68.477z"/><path id="path1191" d="m104.046 175.825c-7.691 0.344-16.164 10.771-24.445 2.068 4.829 12.01 13.656 6.279 14.278 8.069 8.796 14.666 21.779 2.741 18.808-4.138-2.709-4.688-5.632-6.132-8.641-5.999"/><path id="path1189" d="m136.253 175.702c-2.605 0.245-5.116 1.854-7.486 5.956-2.974 6.877 10.101 18.806 18.898 4.142 0.623-1.791 9.356 3.941 14.188-8.067-8.283 8.7-16.754-1.685-24.445-2.03-0.375-0.018-0.783-0.036-1.155-1e-3"/><path id="path1187" d="m118.882 145.076c10.414 12.917-18.707 18.058-3.007 30.287 6.696 4.152 22.338-4.836 8.597-15.882-1.776-0.947 6.18-7.476-5.59-14.405"/></g><g id="g1336"><path id="path1185" d="m60.608 525.516c-6.776 30.771-19.376 52.557-33.092 68.219 5.701-1.564 12.149-5.996 18.346-9.885-3.791 8.068-7.626 15.057-11.416 22.178 2.262-0.77 9.472-7.957 19.225-18.5 1.527 14.492 3.61 21.346 6.697 31.174 2.459-9.812 4.243-16.516 6.195-31.426 5.878 6.668 11.544 13.372 19.498 19.094l-11.134-22.94c5.766 3.688 12.183 8.508 18.298 10.564-14.497-16.449-26.766-37.703-32.617-68.478z"/><path id="path1183" d="m43.28 517.148c-7.691 0.344-16.164 10.771-24.445 2.066 4.829 12.01 13.656 6.279 14.278 8.068 8.796 14.668 21.779 2.74 18.808-4.139-2.709-4.684-5.631-6.127-8.641-5.995"/><path id="path1181" d="m75.488 517.025c-2.605 0.244-5.116 1.854-7.486 5.955-2.974 6.879 10.101 18.807 18.899 4.143 0.622-1.791 9.355 3.941 14.187-8.068-8.283 8.701-16.754-1.684-24.445-2.027-0.376-0.02-0.783-0.038-1.155-3e-3"/><path id="path1179" d="m58.117 486.398c10.414 12.918-18.707 18.059-3.007 30.285 6.696 4.152 22.338-4.836 8.597-15.883-1.776-0.943 6.18-7.472-5.59-14.402"/></g><g id="g1301"><path id="path1177" d="m60.608 297.966c-6.776 30.772-19.376 52.558-33.092 68.218 5.701-1.562 12.149-5.992 18.346-9.883-3.791 8.068-7.626 15.059-11.416 22.176 2.262-0.768 9.472-7.957 19.225-18.5 1.527 14.496 3.61 21.348 6.697 31.178 2.459-9.814 4.243-16.516 6.195-31.43 5.878 6.671 11.544 13.373 19.498 19.098l-11.134-22.939c5.766 3.688 12.183 8.506 18.298 10.562-14.497-16.448-26.766-37.704-32.617-68.48z"/><path id="path1175" d="m43.28 289.601c-7.691 0.343-16.164 10.77-24.445 2.066 4.829 12.01 13.656 6.28 14.278 8.07 8.796 14.667 21.779 2.74 18.808-4.139-2.709-4.688-5.631-6.132-8.641-5.997"/><path id="path1173" d="m75.488 289.477c-2.605 0.245-5.116 1.853-7.486 5.955-2.974 6.878 10.101 18.808 18.899 4.142 0.622-1.789 9.355 3.942 14.187-8.066-8.283 8.701-16.754-1.686-24.445-2.03-0.376-0.018-0.783-0.037-1.155-1e-3"/><path id="path1171" d="m58.117 258.85c10.414 12.919-18.707 18.06-3.007 30.286 6.696 4.152 22.338-4.836 8.597-15.881-1.776-0.946 6.18-7.477-5.59-14.405"/></g><g id="g1283"><path id="path1169" d="m60.608 70.417c-6.776 30.771-19.376 52.555-33.092 68.217 5.701-1.563 12.149-5.995 18.346-9.883-3.791 8.069-7.626 15.056-11.416 22.176 2.262-0.767 9.472-7.957 19.225-18.5 1.527 14.496 3.61 21.346 6.697 31.175 2.459-9.812 4.243-16.514 6.195-31.427 5.878 6.669 11.544 13.374 19.498 19.095l-11.134-22.938c5.766 3.686 12.183 8.505 18.298 10.562-14.497-16.445-26.766-37.7-32.617-68.477z"/><path id="path1167" d="m43.28 62.052c-7.691 0.343-16.164 10.771-24.445 2.067 4.829 12.01 13.656 6.28 14.278 8.07 8.796 14.666 21.779 2.74 18.808-4.138-2.709-4.689-5.631-6.133-8.641-5.999"/><path id="path1165" d="m75.488 61.929c-2.605 0.245-5.116 1.853-7.486 5.955-2.974 6.878 10.101 18.807 18.899 4.142 0.622-1.79 9.355 3.942 14.187-8.067-8.283 8.701-16.754-1.686-24.445-2.03-0.376-0.017-0.783-0.035-1.155 0"/><path id="path1163" d="m58.117 31.301c10.414 12.92-18.707 18.059-3.007 30.287 6.696 4.152 22.338-4.836 8.597-15.882-1.776-0.945 6.18-7.476-5.59-14.405"/></g><g id="g1277"><path id="path1159" d="m14.723 175.702c-2.605 0.245-5.116 1.854-7.487 5.956-2.973 6.877 10.102 18.806 18.9 4.142 0.622-1.791 9.356 3.941 14.187-8.067-8.283 8.7-16.754-1.685-24.445-2.03-0.376-0.018-0.783-0.036-1.155-1e-3"/><path id="path1157" d="m14.162 242.106c5.765 3.686 12.183 8.505 18.297 10.562-14.375-16.308-26.551-37.356-32.459-67.716v90.842c2.257-8.985 3.952-15.748 5.797-29.845 5.879 6.671 11.545 13.374 19.499 19.095z"/><path id="path1155" d="m2.941 159.48c-1.62-0.863 4.855-6.376-2.941-12.599v29.375c6.737-1.05 13.48-8.305 2.941-16.776"/></g><g id="g1318"><path id="path1161" d="m14.723 403.252c-2.605 0.244-5.116 1.852-7.487 5.955-2.973 6.877 10.102 18.807 18.9 4.141 0.622-1.789 9.356 3.943 14.187-8.064-8.283 8.701-16.754-1.688-24.445-2.029-0.376-0.021-0.783-0.038-1.155-3e-3"/><path id="path1153" d="m0 374.43v29.375c6.737-1.051 13.48-8.303 2.941-16.773-1.62-0.866 4.855-6.378-2.941-12.602"/><path id="path1151" d="m0 503.342c2.257-8.982 3.952-15.748 5.797-29.844 5.879 6.67 11.545 13.375 19.499 19.096l-11.134-22.938c5.765 3.686 12.183 8.504 18.297 10.561-14.375-16.307-26.551-37.356-32.459-67.715z"/></g><g id="g1330"><path id="path1149" d="m242.904 411.74c-6.775 30.771-19.376 52.557-33.092 68.217 5.701-1.562 12.149-5.994 18.346-9.883-3.791 8.066-7.626 15.057-11.416 22.176 2.263-0.766 9.472-7.957 19.225-18.5 1.527 14.496 3.61 21.346 6.697 31.176 2.459-9.812 4.242-16.514 6.195-31.428 5.878 6.67 11.544 13.375 19.498 19.096l-11.134-22.938c5.766 3.686 12.183 8.504 18.298 10.561-14.497-16.446-26.766-37.701-32.617-68.477"/><path id="path1147" d="m257.785 403.252c-2.605 0.244-5.116 1.852-7.487 5.955-2.973 6.877 10.102 18.807 18.9 4.141 0.622-1.789 9.356 3.943 14.187-8.064-8.283 8.701-16.754-1.688-24.445-2.029-0.376-0.021-0.783-0.038-1.155-3e-3"/><path id="path1145" d="m240.414 372.625c10.414 12.918-18.707 18.059-3.007 30.287 6.696 4.148 22.338-4.836 8.597-15.883-1.776-0.945 6.18-7.476-5.59-14.404"/><path id="path1143" d="m225.577 403.375c-7.691 0.344-16.164 10.77-24.445 2.066 4.829 12.01 13.656 6.279 14.278 8.068 8.795 14.666 21.779 2.74 18.807-4.137-2.708-4.686-5.631-6.132-8.64-5.997z"/></g><g id="g1295"><path id="path1141" d="m242.904 184.191c-6.775 30.772-19.376 52.556-33.092 68.217 5.701-1.563 12.149-5.995 18.346-9.883-3.791 8.069-7.626 15.056-11.416 22.176 2.263-0.766 9.472-7.956 19.225-18.5 1.527 14.496 3.61 21.347 6.697 31.175 2.459-9.812 4.242-16.514 6.195-31.427 5.878 6.669 11.544 13.374 19.498 19.095l-11.134-22.938c5.766 3.686 12.183 8.505 18.298 10.562-14.497-16.446-26.766-37.7-32.617-68.477"/><path id="path1139" d="m257.785 175.702c-2.605 0.245-5.116 1.854-7.487 5.956-2.973 6.877 10.102 18.806 18.9 4.142 0.622-1.791 9.356 3.941 14.187-8.067-8.283 8.7-16.754-1.685-24.445-2.03-0.376-0.018-0.783-0.036-1.155-1e-3"/><path id="path1137" d="m240.414 145.076c10.414 12.917-18.707 18.058-3.007 30.287 6.696 4.152 22.338-4.836 8.597-15.882-1.776-0.947 6.18-7.476-5.59-14.405"/><path id="path334" d="m225.577 175.825c-7.691 0.344-16.164 10.771-24.445 2.068 4.829 12.01 13.656 6.279 14.278 8.069 8.795 14.666 21.779 2.741 18.807-4.138-2.708-4.688-5.631-6.132-8.64-5.999z"/></g>
        </g></g>
  </switch>
</svg>
