<svg version="1.1" xmlns="http://www.w3.org/2000/svg" xmlns:xlink="http://www.w3.org/1999/xlink" width="2400" height="1319" viewBox="0 0 2400 1319">
<g id="NEVA-(USA)[">
<path id="Rectángulo-3" d="M-0.000,0.000 L2400.000,0.000 L2400.000,1319.000 L-0.000,1319.000 L-0.000,0.000 z" fill="#FFFFFF" />
<path id="Rectángulo-1" d="M-0.000,503.000 L2400.000,503.000 L2400.000,816.000 L-0.000,816.000 L-0.000,503.000 z" fill="#CF142B" />
<path id="Rectángulo-1-cop" d="M1044.000,0.000 L1357.000,0.000 L1357.000,1319.000 L1044.000,1319.000 L1044.000,0.000 z" fill="#CF142B" />
<path id="Rectángulo-2" d="M783.307,659.500 L1200.500,242.307 L1617.693,659.500 L1200.500,1076.693 L783.307,659.500 z" fill="#FFFFFF" />
<path id="Rectángulo-2-cop" d="M848.995,660.000 L1200.000,308.995 L1551.005,660.000 L1200.000,1011.005 L848.995,660.000 z" fill="#21468B" />
<path id="Rectángulo-2-cop" d="M913.996,660.000 L1200.000,373.996 L1486.004,660.000 L1200.000,946.004 L913.996,660.000 z" fill="#FFFFFF" />
<path id="path3777-8" d="M1230.848,790.312 C1221.048,769.657 1219.254,733.055 1216.741,695.666 C1216.741,695.666 1231.883,720.073 1242.381,728.463 C1245.603,731.038 1254.104,733.534 1254.104,733.534 C1272.645,750.026 1272.645,750.026 1272.645,750.026 C1272.645,750.026 1304.869,774.671 1308.998,768.957 C1312.574,764.006 1286.314,742.324 1276.966,729.185 C1267.617,716.045 1251.505,693.293 1254.104,690.600 C1254.104,690.600 1266.592,708.124 1275.936,712.365 C1277.914,713.264 1282.385,712.055 1284.033,713.653 C1294.975,724.256 1308.438,731.980 1321.416,739.405 C1338.914,749.416 1376.076,758.383 1376.198,751.368 C1376.253,748.243 1352.371,734.187 1329.261,711.463 C1304.496,687.110 1281.565,650.816 1277.848,645.444 C1274.227,640.208 1306.498,670.750 1321.416,668.796 C1322.802,668.615 1322.590,664.289 1323.920,664.787 C1334.532,668.756 1345.669,672.916 1354.384,675.086 C1378.102,680.992 1378.201,675.687 1378.000,671.751 C1377.809,668.005 1307.568,647.175 1261.130,582.883 C1259.347,580.414 1279.088,598.616 1289.172,595.249 C1290.630,594.762 1290.398,591.499 1291.901,591.710 C1300.832,592.959 1329.367,604.951 1329.152,595.678 C1329.027,590.353 1305.146,581.977 1284.097,564.401 C1266.028,549.315 1252.320,534.234 1244.523,525.260 C1242.538,522.975 1258.067,536.992 1264.948,534.326 C1265.978,533.928 1265.149,531.872 1266.223,532.030 C1272.222,532.907 1292.654,546.440 1294.685,538.158 C1295.132,536.334 1276.107,524.019 1259.768,508.783 C1243.429,493.547 1229.590,476.290 1229.590,476.290 C1233.962,479.409 1239.506,483.708 1243.101,483.149 C1243.631,482.785 1244.710,482.411 1244.089,480.268 C1246.384,480.779 1260.586,489.464 1261.695,483.862 C1262.271,482.158 1239.791,468.125 1227.288,456.197 C1213.985,443.506 1200.496,427.984 1200.496,427.984 C1200.496,427.984 1187.006,443.506 1173.704,456.197 C1161.200,468.125 1138.720,482.158 1139.296,483.862 C1140.406,489.464 1154.607,480.779 1156.902,480.268 C1156.281,482.411 1157.361,482.785 1157.891,483.149 C1161.485,483.708 1167.030,479.409 1171.402,476.290 C1171.402,476.290 1157.563,493.547 1141.224,508.783 C1124.885,524.019 1105.859,536.334 1106.306,538.158 C1108.337,546.440 1128.770,532.907 1134.769,532.030 C1135.843,531.872 1135.015,533.928 1136.044,534.326 C1142.924,536.992 1158.453,522.975 1156.468,525.260 C1148.671,534.234 1134.963,549.315 1116.894,564.401 C1095.845,581.977 1071.962,590.353 1071.839,595.678 C1071.624,604.951 1100.159,592.959 1109.091,591.710 C1110.593,591.499 1110.361,594.762 1111.819,595.249 C1121.903,598.616 1141.645,580.414 1139.861,582.883 C1093.424,647.175 1023.182,668.005 1022.991,671.751 C1022.789,675.687 1022.890,680.992 1046.607,675.086 C1055.322,672.916 1066.459,668.756 1077.071,664.787 C1078.402,664.289 1078.190,668.615 1079.575,668.796 C1094.493,670.750 1126.765,640.208 1123.143,645.444 C1119.427,650.816 1096.495,687.110 1071.731,711.463 C1048.621,734.187 1024.739,748.243 1024.793,751.368 C1024.915,758.383 1062.077,749.416 1079.575,739.405 C1092.554,731.980 1106.017,724.256 1116.958,713.653 C1118.607,712.055 1123.077,713.264 1125.056,712.365 C1134.399,708.124 1146.888,690.600 1146.888,690.600 C1149.486,693.293 1133.374,716.045 1124.026,729.185 C1114.678,742.324 1088.417,764.006 1091.993,768.957 C1096.122,774.671 1128.346,750.026 1128.346,750.026 C1146.888,733.534 1146.888,733.534 1146.888,733.534 C1146.888,733.534 1155.388,731.038 1158.611,728.463 C1169.108,720.073 1184.250,695.666 1184.250,695.666 C1181.737,733.055 1179.944,769.657 1170.143,790.312 C1166.386,798.492 1159.506,810.014 1159.506,810.014 C1186.832,810.014 1214.159,810.014 1241.484,810.014 C1241.484,810.014 1234.606,798.492 1230.848,790.312 z" fill="#006338" />
</g>
</svg>
