<svg xmlns="http://www.w3.org/2000/svg" version="1.0" width="600" height="400">
  <path d="M600 400H0V0h600z" fill="#fcd405" fill-rule="evenodd"/>
  <path d="M-124.11 338.63c-.12723-.68006-.34754-1.311-.64525-1.8847h24.758v1.8847zm-19.389 21.372v-13.46c.60657.1707 1.2388.27904 1.8847.32468v13.136zm4.6294 0v-13.411c.68166-.20123 1.3038-.48284 1.8847-.78422v14.195zm-4.6294-40v13.46c.60657-.17071 1.2388-.27905 1.8847-.32469v-13.136zm4.6294 0v13.411c.68166.20123 1.3038.48284 1.8847.78422v-14.195zm8.023 13.543c-1.7071 0-3.159.58971-4.4853 1.4052-.0434.0267-.0864.0542-.1296.0813.71033.38797 1.3931.73272 2.1442.96565.78678-.36476 1.5721-.56749 2.4707-.56749 2.5648 0 4.5456 1.5492 4.5456 4.572s-1.9808 4.5719-4.5456 4.5719c-.8987 0-1.684-.20258-2.4709-.56733-.75099.23297-1.4337.57769-2.144.96565.0432.0271.0862.0546.1296.0813 1.3263.81551 2.7782 1.4051 4.4853 1.4051 3.4213 0 6.4302-2.5315 6.4302-6.4566s-3.0089-6.4566-6.4302-6.4566zm-29.151 3.1996v1.8847h11.704c2.1866 0 3.7706.41579 5.2163 1.1232.61851-.31542 1.2265-.69133 1.8561-1.1149-1.9433-1.1214-4.0899-1.893-7.0724-1.893zm22.052.061c-.44492.33695-.89678.67837-1.373 1.0218-2.2593 1.6292-3.961 2.8685-6.5267 3.3396.19356.67529.56504 1.2215 1.0834 1.6718 2.5657-.65276 4.479-1.9923 6.5457-3.4827.75862-.54704 1.449-1.079 2.0977-1.5641-.3318-.16729-.64629-.3377-.94387-.50246-.31172-.17259-.60217-.33331-.88329-.48389zm-.8 3.4615c-.55147.39246-1.1005.77225-1.6656 1.1267.3532.24885.71489.50965 1.0926.78206.47624.34342.92806.68494 1.373 1.0219.28112-.15057.57157-.31131.88329-.4839.29761-.16477.61217-.33514.94402-.50245-.64873-.48518-1.3392-1.0172-2.0979-1.5643-.17744-.12796-.35377-.25466-.52945-.38006zm-21.252 1.1069v1.8847h11.704c.13585 0 .26972-.002.40215-.005-.32718-.57279-.57202-1.2033-.71411-1.8798zm19.098-7.829c-1.9142 0-3.7365.55817-5.12 1.6597-.4167.33178-.79026.71686-1.1094 1.1476.81088.0561 1.5646.17134 2.2721.3362.004-.003.007-.006.0112-.009.98866-.78717 2.4026-1.2494 3.946-1.2494 1.4381 0 2.5839.67178 4.0471 1.4819 1.4632.81013 3.2309 1.7176 5.6483 1.7176h4.3083c-.20879-.80838-.61002-1.4345-1.1554-1.8847h-3.1529c-1.958 0-3.3092-.6921-4.7354-1.4818-1.4262-.7897-2.9405-1.7178-4.96-1.7178zm-7.3465 5.5166c-.045.30435-.0687.61799-.0687.94004 0 2.0096.91181 3.6956 2.2952 4.7971 1.3834 1.1015 3.2058 1.6595 5.12 1.6595 2.0195 0 3.5338-.928 4.96-1.7176 1.4262-.78965 2.7774-1.4819 4.7354-1.4819h3.1529c.54535-.45015.94658-1.0763 1.1554-1.8847h-4.3083c-2.4174 0-4.1851.90767-5.6483 1.7178-1.4632.81013-2.609 1.4818-4.0471 1.4818-1.5434 0-2.9574-.46206-3.946-1.2492-.98865-.78717-1.5845-1.8584-1.5845-3.3227 0-.28431.0231-.55344.0666-.8089-.57207-.0837-1.1931-.12914-1.8825-.13114zm24.136 2.3124c-.12723.68006-.34754 1.311-.64525 1.8847h24.758v-1.8847z" fill="#ed1c24" transform="matrix(10 0 0 10 1600 -3200)"/>
</svg>
