<svg version="1.1" xmlns="http://www.w3.org/2000/svg" xmlns:xlink="http://www.w3.org/1999/xlink" width="2400" height="1200" viewBox="0 0 2400 1200">
<g id="NZFA-(New-Zealan">
<path id="Rectángulo-1" d="M-0.000,-0.000 L2400.000,-0.000 L2400.000,1200.000 L-0.000,1200.000 L-0.000,-0.000 z" fill="#00247D" />
<path id="Polígono-2" d="M1585.987,600.000 L795.013,1413.864 L795.013,-213.864 L1585.987,600.000 z" fill="#FFFFFF" />
<path id="Polígono-2-copia" d="M1510.987,600.000 L720.013,1413.989 L720.013,-213.989 L1510.987,600.000 z" fill="#FF0000" />
<path id="Polígono-2-copia" d="M1434.987,600.000 L644.013,1413.989 L644.013,-213.989 L1434.987,600.000 z" fill="#FFFFFF" />
<path id="Polígono-2-copia" d="M1359.987,600.000 L569.013,1413.989 L569.013,-213.989 L1359.987,600.000 z" fill="#00247D" />
<g id="Grupo-1">
<g id="Polígono-1" >
<path id="Polígono-1-fill" d="M806.500,438.033 L836.882,517.220 L928.027,519.367 L855.659,570.453 L881.608,650.967 L806.500,603.353 L731.392,650.967 L757.341,570.453 L684.973,519.367 L776.118,517.220 L806.500,438.033 z" fill="#FF0000" />
<path id="Polígono-1-stroke" d="M806.500,431.581 L838.455,515.567 L934.320,517.843 L858.204,572.026 L885.497,657.419 L806.500,606.920 L727.503,657.419 L754.796,572.026 L678.680,517.843 L774.545,515.567 L806.500,431.581 z" fill="none" stroke="#FFFFFF" stroke-width="16" stroke-linecap="round" />
</g>
<g id="Polígono-1" >
<path id="Polígono-1-fill" d="M475.500,115.033 L505.882,194.220 L597.027,196.367 L524.659,247.453 L550.608,327.967 L475.500,280.353 L400.392,327.967 L426.341,247.453 L353.973,196.367 L445.118,194.220 L475.500,115.033 z" fill="#FF0000" />
<path id="Polígono-1-stroke" d="M475.500,108.581 L507.455,192.567 L603.320,194.843 L527.204,249.026 L554.497,334.419 L475.500,283.920 L396.503,334.419 L423.796,249.026 L347.680,194.843 L443.545,192.567 L475.500,108.581 z" fill="none" stroke="#FFFFFF" stroke-width="16" stroke-linecap="round" />
</g>
<g id="Polígono-1" >
<path id="Polígono-1-fill" d="M485.500,879.033 L515.882,958.220 L607.027,960.367 L534.659,1011.453 L560.608,1091.967 L485.500,1044.353 L410.392,1091.967 L436.341,1011.453 L363.973,960.367 L455.118,958.220 L485.500,879.033 z" fill="#FF0000" />
<path id="Polígono-1-stroke" d="M485.500,872.581 L517.455,956.567 L613.320,958.843 L537.204,1013.026 L564.497,1098.419 L485.500,1047.920 L406.503,1098.419 L433.796,1013.026 L357.680,958.843 L453.545,956.567 L485.500,872.581 z" fill="none" stroke="#FFFFFF" stroke-width="16" stroke-linecap="round" />
</g>
<g id="Polígono-1" >
<path id="Polígono-1-fill" d="M209.500,446.033 L239.882,525.220 L331.027,527.367 L258.659,578.453 L284.608,658.967 L209.500,611.353 L134.392,658.967 L160.341,578.453 L87.973,527.367 L179.118,525.220 L209.500,446.033 z" fill="#FF0000" />
<path id="Polígono-1-stroke" d="M209.500,439.581 L241.455,523.567 L337.320,525.843 L261.204,580.026 L288.497,665.419 L209.500,614.920 L130.503,665.419 L157.796,580.026 L81.680,525.843 L177.545,523.567 L209.500,439.581 z" fill="none" stroke="#FFFFFF" stroke-width="16" stroke-linecap="round" />
</g>
</g>
</g>
</svg>
