<svg xmlns="http://www.w3.org/2000/svg" width="900" height="600" viewBox="0 0 63.7302 42.5197"><path fill="#00349a" d="M-.024675 42.5197V0H63.75488v42.5197z"/><path fill="#fff" d="M31.6879 11.0115v2.732l-1.0145-1.0145z"/><path fill="#fff" d="M31.4373 13.9941h-2.7612l1.7459-1.0153z"/><path fill="#fff" d="M31.6879 17.3311V14.599l-1.0145 1.0148z"/><path fill="#fff" d="M31.4373 14.3485h-2.7612l1.7459 1.0156z"/><path fill="#fff" d="M32.0423 11.0115v2.732l1.0148-1.0145z"/><path fill="#fff" d="M32.2928 13.9941h2.7613l-1.7456-1.0153z"/><path fill="#fff" d="M32.0423 17.3311V14.599l1.0148 1.0148z"/><path fill="#fff" d="M32.2928 14.3485h2.7613l-1.7456 1.0156z"/><path fill="#fff" d="M31.6879 31.5083v-2.7321l-1.0145 1.0148z"/><path fill="#fff" d="M31.4373 28.5256h-2.7612l1.7459 1.0157z"/><path fill="#fff" d="M31.6879 25.1887v2.732l-1.0145-1.0145z"/><path fill="#fff" d="M31.4373 28.1713h-2.7612l1.7459-1.0156z"/><path fill="#fff" d="M32.0423 31.5083v-2.7321l1.0148 1.0148z"/><path fill="#fff" d="M32.2928 28.5256h2.7613l-1.7456 1.0157z"/><path fill="#fff" d="M32.0423 25.1887v2.732l1.0148-1.0145z"/><path fill="#fff" d="M32.2928 28.1713h2.7613l-1.7456-1.0156z"/><path fill="#fff" d="m39.1289 21.6896 1.0148 1.0148-1.0148 1.7172z"/><path fill="#fff" d="M39.3794 21.439h2.7613l-1.7456 1.0157z"/><path fill="#fff" d="M39.1289 18.1021v2.732l1.0148-1.0145z"/><path fill="#fff" d="M39.3794 21.0847h2.7613l-1.7456-1.0156z"/><path fill="#fff" d="M38.7745 24.4216v-2.732L37.76 22.7044z"/><path fill="#fff" d="M38.524 21.439h-2.7613l1.7459 1.0157z"/><path fill="#fff" d="M38.7745 20.8341 37.76 19.8196l1.0145-1.7175z"/><path fill="#fff" d="M38.524 21.0847h-2.7613l1.7459-1.0156z"/><path fill="#fff" d="M24.6013 24.4216v-2.732l-1.0145 1.0148z"/><path fill="#fff" d="M24.3507 21.439h-2.7612l1.7459 1.0157z"/><path fill="#fff" d="M24.6013 18.1021v2.732l-1.0145-1.0145z"/><path fill="#fff" d="M24.3507 21.0847h-2.7612l1.7459-1.0156z"/><path fill="#fff" d="M24.9556 24.4216v-2.732l1.0148 1.0148z"/><path fill="#fff" d="M25.2062 21.439h2.7612l-1.7455 1.0157z"/><path fill="#fff" d="M24.9556 18.1021v2.732l1.0148-1.0145z"/><path fill="#fff" d="M25.2062 21.0847h2.7612l-1.7455-1.0156z"/><path fill="#fff" d="m31.6879 21.6896-1.0145 1.0148 1.0145 1.7172z"/><path fill="#fff" d="m28.6761 21.439 1.7459 1.0157 1.0153-1.0157z"/><path fill="#fff" d="M31.6879 18.1021v2.732l-1.0145-1.0145z"/><path fill="#fff" d="M31.4373 21.0847h-2.7612l1.7459-1.0156z"/><path fill="#fff" d="M32.0423 24.4216v-2.732l1.0148 1.0148z"/><path fill="#fff" d="M32.2928 21.439h2.7613l-1.7456 1.0157z"/><path fill="#fff" d="M32.0423 18.1021v2.732l1.0148-1.0145z"/><path fill="#fff" d="M32.2928 21.0847h2.7613l-1.7456-1.0156z"/><path fill="#fff" d="M0 42.5197 28.0046 0h7.7233l28.0043 42.5197h-7.2128L31.8662 5.0882 7.2127 42.5197z"/><path fill="#fc0" d="m0 0 14.0023 21.2599 3.6062-5.4757L7.2127 0z"/><path fill="#fc0" d="m17.6085 26.7356 10.3961 15.7841h7.7213l10.3966-15.7855-3.6062-5.4757-10.6512 16.1719L21.215 21.2599z"/><path fill="#fc0" d="M56.5174 0 46.1225 15.7828l3.6065 5.4757L63.7302 0z"/></svg>