<svg version="1.1" xmlns="http://www.w3.org/2000/svg" xmlns:xlink="http://www.w3.org/1999/xlink" width="2400" height="1600" viewBox="0 0 2400 1600">
<g id="SCHG-(Georgia)">
<path id="Rectángulo-629" d="M-0.000,0.000 L2400.000,0.000 L2400.000,1600.000 L-0.000,1600.000 L-0.000,0.000 z" fill="#FFFFFF" />
<path id="Rectángulo-630" d="M959.000,-0.000 L2400.000,-0.000 L2400.000,641.000 L959.000,641.000 L959.000,-0.000 z" fill="#FF0000" />
<path id="Rectángulo-630" d="M-0.000,959.000 L641.000,959.000 L641.000,1600.000 L-0.000,1600.000 L-0.000,959.000 z" fill="#FF0000" />
<path id="Rectángulo-619-c" d="M-0.000,800.000 L641.000,800.000 L641.000,1019.000 L-0.000,1019.000 L-0.000,800.000 z" fill="#FFFFFF" />
<path id="Rectángulo-619-c" d="M800.000,0.000 L1019.000,0.000 L1019.000,800.000 L800.000,800.000 L800.000,0.000 z" fill="#FFFFFF" />
<path id="Rectángulo-619-c" d="M581.000,800.000 L800.000,800.000 L800.000,1600.000 L581.000,1600.000 L581.000,800.000 z" fill="#FFFFFF" />
<path id="Rectángulo-619-c" d="M800.000,581.000 L2400.000,581.000 L2400.000,800.000 L800.000,800.000 L800.000,581.000 z" fill="#FFFFFF" />
<path id="Rectángulo-619" d="M-0.000,641.000 L2400.000,641.000 L2400.000,959.000 L-0.000,959.000 L-0.000,641.000 z" fill="#FF0000" />
<path id="Rectángulo-619-c" d="M641.000,0.000 L959.000,0.000 L959.000,1600.000 L641.000,1600.000 L641.000,0.000 z" fill="#FF0000" />
<path id="Forma-617" d="M465.003,271.369 C421.462,284.493 356.152,284.118 356.152,284.118 C356.152,284.118 357.131,210.912 369.665,174.998 C369.665,174.998 340.387,178.748 320.494,178.748 C300.601,178.748 271.323,174.998 271.323,174.998 C283.857,210.912 284.836,284.118 284.836,284.118 C284.836,284.118 219.525,284.493 175.984,271.369 C175.984,271.369 179.142,289.447 179.142,320.493 C179.142,351.538 175.984,369.616 175.984,369.616 C219.525,356.492 284.836,356.867 284.836,356.867 C284.836,356.867 283.857,430.073 271.323,465.987 C271.323,465.987 300.600,462.237 320.494,462.237 C340.387,462.237 369.665,465.987 369.665,465.987 C357.130,430.073 356.152,356.867 356.152,356.867 C356.152,356.867 421.462,356.492 465.003,369.616 C465.003,369.616 461.845,351.538 461.845,320.493 C461.845,289.447 465.003,271.369 465.003,271.369 z" fill="#FF0000" />
<path id="Forma-617" d="M1424.003,1230.369 C1380.462,1243.493 1315.152,1243.118 1315.152,1243.118 C1315.152,1243.118 1316.131,1169.912 1328.665,1133.998 C1328.665,1133.998 1299.387,1137.748 1279.494,1137.748 C1259.601,1137.748 1230.323,1133.998 1230.323,1133.998 C1242.857,1169.912 1243.836,1243.118 1243.836,1243.118 C1243.836,1243.118 1178.525,1243.493 1134.984,1230.369 C1134.984,1230.369 1138.142,1248.447 1138.142,1279.493 C1138.142,1310.538 1134.984,1328.616 1134.984,1328.616 C1178.525,1315.492 1243.836,1315.867 1243.836,1315.867 C1243.836,1315.867 1242.857,1389.073 1230.323,1424.987 C1230.323,1424.987 1259.600,1421.237 1279.494,1421.237 C1299.387,1421.237 1328.665,1424.987 1328.665,1424.987 C1316.130,1389.073 1315.152,1315.867 1315.152,1315.867 C1315.152,1315.867 1380.462,1315.492 1424.003,1328.616 C1424.003,1328.616 1420.845,1310.538 1420.845,1279.493 C1420.845,1248.447 1424.003,1230.369 1424.003,1230.369 z" fill="#FF0000" />
<path id="Forma-617" d="M465.003,1230.369 C421.467,1243.493 356.164,1243.118 356.164,1243.118 C356.164,1243.118 357.142,1169.912 369.675,1133.998 C369.675,1133.998 340.401,1137.748 320.510,1137.748 C300.618,1137.748 271.344,1133.998 271.344,1133.998 C283.877,1169.912 284.855,1243.118 284.855,1243.118 C284.855,1243.118 219.552,1243.493 176.016,1230.369 C176.016,1230.369 179.173,1248.447 179.173,1279.493 C179.173,1310.538 176.016,1328.616 176.016,1328.616 C219.552,1315.492 284.855,1315.867 284.855,1315.867 C284.855,1315.867 283.877,1389.073 271.344,1424.987 C271.344,1424.987 300.618,1421.237 320.510,1421.237 C340.401,1421.237 369.675,1424.987 369.675,1424.987 C357.142,1389.073 356.164,1315.867 356.164,1315.867 C356.164,1315.867 421.467,1315.492 465.003,1328.616 C465.003,1328.616 461.845,1310.538 461.845,1279.493 C461.845,1248.447 465.003,1230.369 465.003,1230.369 z" fill="#FFFFFF" />
<path id="Forma-617" d="M1424.003,271.369 C1380.462,284.493 1315.152,284.118 1315.152,284.118 C1315.152,284.118 1316.131,210.912 1328.665,174.998 C1328.665,174.998 1299.387,178.748 1279.494,178.748 C1259.601,178.748 1230.323,174.998 1230.323,174.998 C1242.857,210.912 1243.836,284.118 1243.836,284.118 C1243.836,284.118 1178.525,284.493 1134.984,271.369 C1134.984,271.369 1138.142,289.447 1138.142,320.493 C1138.142,351.538 1134.984,369.616 1134.984,369.616 C1178.525,356.492 1243.836,356.867 1243.836,356.867 C1243.836,356.867 1242.857,430.073 1230.323,465.987 C1230.323,465.987 1259.600,462.237 1279.494,462.237 C1299.387,462.237 1328.665,465.987 1328.665,465.987 C1316.130,430.073 1315.152,356.867 1315.152,356.867 C1315.152,356.867 1380.462,356.492 1424.003,369.616 C1424.003,369.616 1420.845,351.538 1420.845,320.493 C1420.845,289.447 1424.003,271.369 1424.003,271.369 z" fill="#FFFFFF" />
</g>
</svg>
