<?xml version="1.0" encoding="UTF-8"?>
<svg xmlns="http://www.w3.org/2000/svg" xmlns:xlink="http://www.w3.org/1999/xlink" width="360" height="360">
	<rect width="360" height="360" fill="#f7de1e"/>
	<path id="q" d="M 0,0 L 78,0 L 156,0 L 156,56.011 L 155.999,112.022 L 155.759,111.489 C 155.432,110.764 155.183,110.317 154.704,109.594 C 154.441,109.197 154.257,108.85 154.18,108.604 C 153.826,107.469 153.711,107.165 153.366,106.459 C 152.72,105.136 151.588,103.334 150.435,101.791 C 149.201,100.139 147.987,98.769 146.117,96.917 C 143.879,94.701 141.933,93.019 138.205,90.078 C 136.227,88.517 135.62,87.989 134.377,86.749 C 132.534,84.911 131.214,83.215 130.052,81.19 C 129.505,80.239 128.806,78.79 128.631,78.248 C 128.592,78.127 128.128,76.74 127.601,75.167 C 126.472,71.798 126.523,72.075 126.496,69.199 C 126.48,67.585 126.467,67.333 126.384,67.173 C 126.265,66.944 125.925,66.781 125.562,66.78 C 125.333,66.779 125.269,66.804 125.114,66.959 C 124.97,67.104 124.915,67.226 124.838,67.578 C 124.785,67.819 124.687,68.152 124.619,68.319 C 124.551,68.485 124.479,68.773 124.459,68.958 C 124.439,69.143 124.323,69.601 124.201,69.975 C 122.997,73.684 122.513,75.752 122.361,77.825 C 122.33,78.242 122.304,78.349 122.22,78.402 C 122.126,78.46 122.116,78.541 122.116,79.237 C 122.118,81.21 122.49,83.631 123.135,85.866 C 123.669,87.717 124.162,88.97 125.115,90.899 C 126.112,92.918 127.208,94.702 128.635,96.63 C 128.978,97.092 129.327,97.613 129.411,97.788 C 129.496,97.962 129.591,98.115 129.622,98.128 C 129.706,98.161 130.029,98.516 130.177,98.738 C 130.248,98.844 130.391,99.167 130.495,99.456 C 130.599,99.746 130.751,100.113 130.831,100.272 C 131.026,100.657 132.717,103.264 134.296,105.614 C 135.983,108.123 136.2,108.51 136.83,110.124 C 137.337,111.423 137.606,112.366 138.347,115.429 C 138.888,117.667 138.92,117.933 138.729,118.548 C 138.552,119.122 138.17,119.476 137.729,119.475 C 137.476,119.475 137.257,119.327 136.907,118.923 C 136.744,118.734 136.548,118.511 136.472,118.428 C 136.349,118.292 132.534,115.027 128.827,111.883 C 127.211,110.513 124.572,108.326 112.902,98.683 C 97.434,85.902 93.255,82.429 93.127,82.252 C 93.081,82.189 92.077,81.333 90.894,80.351 C 89.711,79.368 88.73,78.528 88.713,78.484 C 88.696,78.44 88.03,77.869 87.233,77.216 C 84.724,75.161 84.107,74.654 83.007,73.743 C 81.669,72.637 74.51,66.67 73.654,65.948 C 73.307,65.655 72.415,64.913 71.674,64.3 C 70.933,63.687 69.745,62.699 69.034,62.105 C 66.816,60.253 65.908,59.518 65.769,59.466 C 65.601,59.402 62.664,56.999 62.466,56.764 C 62.129,56.363 62.02,56.103 62.02,55.695 C 62.02,55.338 62.045,55.259 62.343,54.635 C 62.6,54.098 62.672,53.889 62.694,53.611 C 62.745,52.968 62.43,52.367 61.886,52.071 C 61.627,51.93 61.56,51.917 61.178,51.937 C 60.815,51.956 60.666,51.999 60.123,52.241 C 58.903,52.784 58.304,52.759 57.49,52.132 C 56.681,51.507 55.063,48.968 54.297,47.121 C 54.173,46.822 54.072,46.528 54.072,46.467 C 54.072,46.406 53.912,46.069 53.717,45.717 C 52.226,43.036 51.932,40.392 52.828,37.715 C 53.627,35.326 55.545,33.148 57.721,32.157 C 58.711,31.707 59.476,31.523 60.535,31.483 C 62.711,31.4 64.536,32.174 67.494,34.434 C 71.032,37.137 72.199,37.925 74.217,38.969 C 75.848,39.813 77.51,40.457 78.495,40.627 C 79.249,40.757 80.886,40.714 81.685,40.543 C 84.074,40.032 86.078,38.77 86.975,37.212 C 87.382,36.505 87.453,36.087 87.225,35.749 C 87.1,35.565 87.093,35.562 86.744,35.579 C 86.548,35.588 85.931,35.599 85.371,35.603 C 84.534,35.608 84.236,35.587 83.693,35.487 C 81.494,35.079 79.71,34 78.477,32.332 C 77.48,30.983 75.174,26.74 73.867,23.854 C 72.373,20.552 71.188,18.724 69.336,16.862 C 67.81,15.327 66.21,14.193 64.132,13.174 C 62.565,12.406 61.85,12.242 60.068,12.242 C 58.649,12.243 58.058,12.315 56.74,12.651 C 53.31,13.524 50.327,15.553 49.198,17.781 C 49.094,17.986 48.886,18.289 48.736,18.455 C 48.449,18.772 48.104,19.403 47.939,19.913 C 47.885,20.079 47.729,20.438 47.593,20.71 C 46.984,21.928 46.443,23.517 46.182,24.856 C 45.931,26.14 45.882,26.934 45.883,29.676 C 45.884,32.345 45.919,32.856 46.147,33.515 C 46.207,33.69 46.458,35.101 46.703,36.651 C 47.288,40.342 47.597,42.023 47.83,42.79 C 48.171,43.909 48.062,44.343 47.361,44.661 C 46.78,44.925 46.402,44.747 45.154,43.621 C 43.915,42.503 42.973,41.409 42.122,40.1 C 41.662,39.394 41.035,38.271 41.035,38.154 C 41.035,38.097 40.833,37.752 40.585,37.387 C 39.959,36.463 39.457,35.604 39.008,34.691 C 38.547,33.752 38.362,33.298 37.982,32.179 C 37.528,30.84 37.267,30.162 36.881,29.317 C 34.655,24.437 30.875,20.614 25.056,17.355 C 24.064,16.8 22.146,15.828 21.37,15.487 C 19.7,14.754 17.837,14.231 14.109,13.448 C 11.748,12.951 9.961,12.449 8.377,11.834 C 7.465,11.48 7.133,11.454 6.908,11.721 C 6.792,11.859 6.766,11.946 6.766,12.203 C 6.766,12.376 6.812,12.677 6.868,12.873 C 7.036,13.456 8.568,17.332 9.588,19.751 C 9.874,20.43 10.411,21.703 10.78,22.58 C 12.847,27.488 14.036,29.764 15.662,31.927 C 18.137,35.22 21.765,37.913 26.321,39.84 C 27.541,40.356 28.621,40.755 30.391,41.341 C 32.546,42.055 33.091,42.269 33.911,42.724 C 34.732,43.18 35.953,43.918 36.607,44.353 C 37.814,45.156 39.498,46.521 40.169,47.241 C 40.474,47.569 40.502,47.747 40.306,48.13 C 40.097,48.54 39.84,48.613 38.312,48.693 C 38.282,48.694 37.898,48.583 37.46,48.447 C 35.357,47.791 33.415,47.395 31.181,47.169 C 29.059,46.955 25.908,46.966 23.425,47.196 C 17.97,47.704 15.783,48.478 13.697,50.64 C 11.451,52.968 10.151,56.019 10.021,59.27 C 9.892,62.489 10.023,63.351 10.919,65.177 C 11.938,67.255 13.072,68.855 14.607,70.382 C 16.469,72.234 18.296,73.418 21.599,74.912 C 24.485,76.219 28.728,78.526 30.076,79.522 C 31.745,80.755 32.824,82.54 33.232,84.738 C 33.332,85.281 33.353,85.579 33.347,86.416 C 33.344,86.976 33.333,87.593 33.324,87.789 C 33.307,88.138 33.31,88.146 33.494,88.27 C 33.832,88.499 34.249,88.427 34.957,88.02 C 36.515,87.123 37.776,85.119 38.287,82.731 C 38.458,81.931 38.501,80.294 38.371,79.54 C 37.988,77.319 35.51,72.614 33.694,70.662 C 32.499,69.377 31.569,68.187 30.958,67.164 C 29.192,64.205 29.28,60.986 31.194,58.457 C 33.042,56.015 36.047,54.66 39.568,54.68 C 41.049,54.689 42.236,54.867 43.758,55.31 C 45.332,55.768 46.406,56.283 47.976,57.333 C 49.588,58.41 50.39,59.088 50.679,59.619 C 50.995,60.2 50.925,60.709 50.419,61.505 C 50.037,62.107 49.922,62.447 49.96,62.866 C 49.999,63.292 50.205,63.677 50.576,64.016 C 50.992,64.396 51.38,64.539 51.927,64.514 C 52.4,64.492 52.614,64.399 53.172,63.971 C 53.861,63.443 54.332,63.301 54.907,63.449 C 55.547,63.613 55.877,63.912 57.507,65.807 C 57.867,66.226 58.217,66.59 58.285,66.616 C 58.353,66.641 58.838,67.177 59.363,67.807 C 59.888,68.436 60.836,69.568 61.471,70.321 C 62.106,71.075 63.182,72.354 63.863,73.163 C 64.544,73.973 65.486,75.089 65.956,75.644 C 66.427,76.198 67.314,77.246 67.928,77.972 C 69.552,79.893 70.89,81.472 72.169,82.978 C 72.789,83.708 73.619,84.685 74.012,85.15 C 75.584,87.006 77.02,88.699 77.726,89.53 C 78.135,90.011 78.567,90.528 78.687,90.679 C 78.992,91.063 80.239,92.466 82.842,95.355 C 84.069,96.716 85.786,98.635 86.659,99.618 C 87.531,100.601 88.536,101.727 88.893,102.121 C 89.25,102.514 90.476,103.999 91.619,105.421 C 94.558,109.079 95.226,109.891 98.639,113.96 C 103.831,120.15 105.685,122.297 108.22,125.057 C 109.236,126.163 109.997,127.071 111.071,128.461 C 113.368,131.433 114.41,132.64 115.644,133.759 C 116.093,134.167 116.28,134.378 116.402,134.618 C 116.6,135.008 116.889,135.335 117.195,135.514 C 117.45,135.664 117.638,136.006 117.795,136.609 C 118.106,137.803 117.534,138.123 115.927,137.653 C 115.655,137.573 115.01,137.438 114.494,137.352 C 113.715,137.222 113.439,137.149 112.867,136.921 C 108.993,135.375 105.252,134.566 100.855,134.322 C 99.602,134.252 96.309,134.29 95.492,134.384 C 95.235,134.413 94.666,134.461 94.227,134.49 C 93.454,134.54 92.032,134.684 91.752,134.739 C 91.676,134.754 91.161,134.816 90.608,134.876 C 87.199,135.248 83.769,135.199 80.64,134.735 C 74.589,133.837 69.136,131.402 64.129,127.362 C 62.768,126.264 61.879,125.447 61.422,124.875 C 61.246,124.653 61.023,124.425 60.928,124.367 C 60.598,124.165 60.06,124.272 59.754,124.6 C 59.331,125.053 59.366,125.692 59.91,127.422 C 61.28,131.785 64.506,135.505 69.749,138.766 C 74.222,141.548 79.451,143.504 87.214,145.301 C 88.834,145.676 91.079,146.181 91.367,146.236 C 91.473,146.256 91.708,146.307 91.889,146.349 C 92.799,146.561 94.593,146.948 95.08,147.037 C 97.175,147.42 102.075,148.513 102.836,148.767 C 104.088,149.184 104.529,149.383 105.669,150.046 C 109.035,152.004 111.044,153.493 112.627,155.203 C 113.631,156.288 113.708,156.352 114.376,156.684 L 114.992,156.99 L 57.496,156.99 L 0,156.99 L 0,78.495 z M 133.392,156.591 C 133.391,156.034 133.204,155.697 132.37,154.748 C 132.005,154.332 131.081,153.25 130.317,152.342 C 129.553,151.434 128.675,150.395 128.365,150.032 C 125.611,146.805 124.184,143.66 122.411,136.913 C 121.663,134.069 121.206,132.638 120.382,130.557 C 117.417,123.072 112.849,117.568 106.383,113.686 C 106.005,113.459 105.04,112.932 104.238,112.516 C 101.703,111.199 99.893,110.094 98.27,108.871 C 95.604,106.864 93.325,104.481 91.605,101.901 C 90.006,99.501 88.8,96.892 88.452,95.08 C 88.388,94.747 88.264,94.116 88.176,93.677 C 88.089,93.238 88.001,92.78 87.98,92.659 C 87.927,92.338 87.943,90.591 88.013,89.166 C 88.068,88.048 88.087,87.896 88.214,87.585 C 88.297,87.381 88.43,87.175 88.542,87.077 C 88.701,86.936 88.776,86.911 89.027,86.911 C 89.266,86.911 89.356,86.939 89.495,87.056 C 89.738,87.261 90.047,87.906 90.047,88.211 C 90.047,88.4 90.118,88.59 90.369,89.071 C 91.677,91.581 93.512,94.116 95.52,96.187 C 96.615,97.317 98.332,98.807 99.81,99.911 C 101.058,100.842 103.121,102.193 104.321,102.865 C 104.502,102.967 104.997,103.245 105.421,103.482 C 105.845,103.72 106.971,104.306 107.924,104.786 C 108.877,105.265 110.063,105.884 110.559,106.16 C 111.302,106.575 113.777,107.78 115.872,108.748 C 116.333,108.961 117.401,109.628 118.639,110.476 C 119.388,110.989 119.832,111.285 120.499,111.718 C 123.824,113.876 128.216,117.238 131.384,120.052 C 133.327,121.776 134.063,122.521 135.95,124.673 C 141.022,130.457 143.837,133.222 147.281,135.802 C 148.553,136.755 150.66,138.117 151.579,138.581 C 151.734,138.659 152.06,138.873 152.303,139.056 C 152.752,139.394 153.141,139.604 153.322,139.607 C 153.376,139.607 153.727,139.815 154.101,140.069 C 154.906,140.615 155.179,140.733 155.545,140.694 C 155.689,140.679 155.851,140.648 155.904,140.626 C 155.995,140.588 156,140.998 156,148.788 L 156,156.99 L 144.696,156.99 L 133.392,156.99 z" fill="#fe1809"/>
	<use xlink:href="#q" transform="rotate(90 180,180)"/>
	<use xlink:href="#q" transform="rotate(180 180,180)"/>
	<use xlink:href="#q" transform="rotate(270 180,180)"/>
	<path d="M 180,0 V 360 M 0,180 H 360" stroke="#fff" stroke-width="48"/>
</svg>