<svg version="1.1" xmlns="http://www.w3.org/2000/svg" xmlns:xlink="http://www.w3.org/1999/xlink" width="2400" height="1600" viewBox="0 0 2400 1600">
<g id="SVI-(Czechia)">
<path id="Rectángulo-643" d="M1200.000,0.000 L2400.000,0.000 L2400.000,1600.000 L1200.000,1600.000 L1200.000,0.000 z" fill="#11457E" />
<path id="Rectángulo-643-c" d="M2400.011,800.000 L1200.000,1599.984 L1200.000,1600.000 L0.000,1600.000 L0.000,0.000 L1200.000,0.000 L1200.000,0.016 L2400.011,800.000 z" fill="#AE1C28" />
<path id="Rectángulo-643" d="M2000.011,800.000 L800.000,1599.984 L800.000,1600.000 L0.000,1600.000 L0.000,0.000 L800.000,0.000 L800.000,0.016 L2000.011,800.000 z" fill="#FFBE00" />
<path id="Rectángulo-643" d="M1600.011,800.000 L400.000,1599.984 L400.000,1600.000 L-0.000,1600.000 L-0.000,0.000 L400.000,0.000 L400.000,0.016 L1600.011,800.000 z" fill="#FFFFFF" />
<path id="Polígono-639" d="M1199.980,800.000 L0.020,1599.866 L0.020,0.134 L1199.980,800.000 z" fill="#11457E" />
</g>
</svg>
