<svg version="1.1" xmlns="http://www.w3.org/2000/svg" xmlns:xlink="http://www.w3.org/1999/xlink" width="2400" height="1600" viewBox="0 0 2400 1600">
<g id="UHT-(Ukraine)">
<path id="Rectángulo-650" d="M-0.000,0.000 L2400.000,0.000 L2400.000,1600.000 L-0.000,1600.000 L-0.000,0.000 z" fill="#005BBB" />
<path id="Polígono-645" d="M599.929,799.990 L1199.859,1599.884 L-0.000,1599.884 L599.929,799.990 z" fill="#FFD500" />
<path id="Polígono-645-cop" d="M1799.959,800.070 L2399.979,1600.004 L1199.940,1600.004 L1799.959,800.070 z" fill="#FFD500" />
<path id="Polígono-645-cop" d="M1800.063,800.010 L1200.125,0.116 L2400.000,0.116 L1800.063,800.010 z" fill="#FFD500" />
<path id="Polígono-645-cop" d="M600.017,799.930 L-0.010,-0.004 L1200.045,-0.004 L600.017,799.930 z" fill="#FFD500" />
<g id="Grupo-7">
<path id="Forma-652" d="M1452.500,925.438 L1467.500,910.444 L1467.500,712.506 L1452.500,688.500 L1644.500,688.500 L1628.000,712.506 L1628.000,739.498 L1610.000,761.991 L1584.500,739.498 L1547.000,739.498 L1547.000,910.444 L1563.500,925.438 L1452.500,925.438 z" fill="#FFD500" />
<path id="Forma-653" d="M1118.500,1090.574 L1142.500,1102.570 L1301.500,1102.570 L1321.000,1090.574 L1282.000,1164.051 L1267.000,1147.556 L1229.500,1147.556 L1229.500,1296.009 L1253.500,1326.000 L1142.500,1326.000 L1160.500,1296.009 L1160.500,1147.556 L1138.000,1147.556 L1085.500,1171.548 L1118.500,1090.574 z" fill="#FFD500" />
<path id="path7306-copia" d="M1169.135,416.213 C1166.920,450.980 1164.971,509.794 1167.077,532.827 C1171.973,586.382 1173.681,677.128 1174.279,752.518 C1178.514,754.730 1181.902,758.359 1183.538,762.930 C1185.906,769.543 1184.253,777.120 1179.423,782.713 C1168.747,792.555 1159.426,803.731 1151.644,816.031 C1143.070,829.584 1136.501,844.286 1132.096,859.761 C1120.436,852.126 1108.776,844.491 1097.115,836.855 C1044.963,785.094 1029.317,737.145 1044.644,713.994 C1052.570,702.023 1069.531,695.607 1084.769,697.335 C1103.063,699.410 1119.288,713.386 1126.952,733.777 C1116.584,682.268 1106.217,630.759 1095.849,579.250 C1076.133,515.386 1045.288,458.393 1002.847,410.280 C997.368,404.068 991.833,398.150 986.000,392.266 C986.343,567.880 986.686,743.495 987.029,919.109 C1031.955,919.456 1076.881,919.804 1121.808,920.151 C1125.964,970.553 1143.900,1016.205 1177.365,1049.259 C1184.344,1056.151 1191.895,1062.398 1200.000,1068.000 C1200.000,823.667 1200.000,579.333 1200.000,335.000 C1189.360,348.590 1181.112,363.757 1175.771,380.383 C1171.467,393.778 1169.755,406.475 1169.135,416.213 zM1230.865,416.213 C1233.080,450.980 1235.029,509.794 1232.923,532.827 C1228.027,586.382 1226.319,677.128 1225.721,752.518 C1221.486,754.730 1218.098,758.359 1216.462,762.930 C1214.094,769.543 1215.747,777.120 1220.577,782.713 C1231.253,792.555 1240.574,803.731 1248.356,816.031 C1256.930,829.584 1263.499,844.286 1267.904,859.761 C1279.564,852.126 1291.224,844.491 1302.885,836.855 C1355.037,785.094 1370.683,737.145 1355.356,713.994 C1347.430,702.023 1330.469,695.607 1315.231,697.335 C1296.937,699.410 1280.712,713.386 1273.048,733.777 C1283.416,682.268 1293.783,630.759 1304.151,579.250 C1323.867,515.386 1354.712,458.393 1397.153,410.280 C1402.632,404.068 1408.167,398.150 1414.000,392.266 C1413.657,567.880 1413.314,743.495 1412.971,919.109 C1368.045,919.456 1323.119,919.804 1278.192,920.151 C1274.036,970.553 1256.100,1016.205 1222.635,1049.259 C1215.656,1056.151 1208.105,1062.398 1200.000,1068.000 C1200.000,823.667 1200.000,579.333 1200.000,335.000 C1210.640,348.590 1218.888,363.757 1224.229,380.383 C1228.533,393.778 1230.245,406.475 1230.865,416.213 z" fill="#FFD500" />
<path id="Forma-651" d="M738.500,688.514 L833.000,688.514 L851.000,761.991 L869.000,688.514 L954.500,688.514 L833.000,925.440 L765.500,925.440 L812.000,839.966 L738.500,688.514 z" fill="#FFD500" />
</g>
</g>
</svg>
