<svg version="1.1" xmlns="http://www.w3.org/2000/svg" xmlns:xlink="http://www.w3.org/1999/xlink" width="2400" height="1440" viewBox="0 0 2400 1440">
<g id="VAST-(USA)[Texas">
<path id="Rectángulo-2" d="M959.000,-0.000 L2400.000,-0.000 L2400.000,1440.000 L959.000,1440.000 L959.000,-0.000 z" fill="#BF0A30" />
<path id="Rectángulo-1" d="M959.000,0.007 L1918.015,720.000 L959.000,1439.993 L959.000,1440.000 L958.991,1440.000 L958.985,1440.005 L958.985,1440.000 L0.000,1440.000 L0.000,0.000 L958.985,0.000 L958.985,-0.005 L958.991,0.000 L959.000,0.000 L959.000,0.007 z" fill="#FFFFFF" />
<path id="Polígono-1" d="M958.984,720.000 L0.016,1439.880 L0.016,0.120 L958.984,720.000 z" fill="#002868" />
<path id="Polígono-2" d="M302.500,483.072 L362.388,654.457 L542.053,659.103 L399.401,769.671 L450.552,943.928 L302.500,840.877 L154.448,943.928 L205.599,769.671 L62.947,659.103 L242.612,654.457 L302.500,483.072 z" fill="#FFFFFF" />
</g>
</svg>
