<svg version="1.1" xmlns="http://www.w3.org/2000/svg" xmlns:xlink="http://www.w3.org/1999/xlink" width="2400" height="1600" viewBox="0 0 2400 1600">
<g id="WVRI-(Germany)">
<path id="Rectángulo-678" d="M-0.000,0.000 L2400.000,0.000 L2400.000,1600.000 L-0.000,1600.000 L-0.000,0.000 z" fill="#3399FF" />
<g id="Grupo-8">
<path id="Elipse-670" d="M815.000,227.000 C1131.459,227.000 1388.000,483.541 1388.000,800.000 C1388.000,1116.459 1131.459,1373.000 815.000,1373.000 C498.541,1373.000 242.000,1116.459 242.000,800.000 C242.000,483.541 498.541,227.000 815.000,227.000 z" fill="#FFFFFF" />
<g id="TRIANGLE">
<path id="Polígono-671-cop" d="M815.008,1294.009 L384.069,554.003 L1245.947,554.003 L815.008,1294.009 z" fill="#D21034" />
<path id="Polígono-671-cop" d="M815.008,1146.008 L384.069,554.002 L1245.947,554.002 L815.008,1146.008 z" fill="#289728" />
<path id="Polígono-671-cop" d="M815.008,998.006 L384.069,554.002 L1245.947,554.002 L815.008,998.006 z" fill="#000000" />
<path id="Polígono-671-cop" d="M815.008,850.004 L384.069,554.001 L1245.947,554.001 L815.008,850.004 z" fill="#FFCE00" />
<path id="Polígono-671" d="M815.008,702.002 L384.006,554.001 L1246.010,554.001 L815.008,702.002 z" fill="#003082" />
</g>
</g>
</g>
</svg>
