<svg height="400" width="800" xmlns:xlink="http://www.w3.org/1999/xlink" xmlns="http://www.w3.org/2000/svg"><rect height="400" width="800" y="0" x="0" fill="#ffffff" /><rect height="200" width="800" y="0" x="0" fill="#8c080c" /><g style="stroke:#000000;stroke-width:9" transform="matrix(0.13729486,0,0,0.13729486,317.30804,97.802589)"><path d="m 17.15625,8 v 847.40625 c 0,329.23425 265.04697,594.31255 594.28125,594.31255 329.23428,0 594.2813,-265.0783 594.2813,-594.31255 V 8 Z" transform="translate(-9.1428547,15.505039)" fill="#134991" /><path d="m 1204.0938,541.6875 c -73.7413,1.01015 -100.1204,28.42442 -151.5,28.28125 -49.8913,-0.13902 -97.10901,-28.11242 -147.00005,-28.28125 -51.71079,-0.17498 -103.11796,28.28125 -152.53125,28.28125 -49.4133,0 -95.03778,-28.33045 -143.9375,-28.28125 -48.40422,0.0487 -94.03436,28.28125 -142.4375,28.28125 -48.40314,0 -97.77799,-28.31305 -148,-28.28125 -49.89131,0.0316 -97.07795,28.05394 -146.96875,28.28125 C 119.34592,570.20737 85.877873,541.6875 17.1875,541.6875 v 246.46875 c 68.690373,0 102.15842,28.51987 154.53125,28.28125 49.8908,-0.22731 97.07744,-28.24964 146.96875,-28.28125 50.22201,-0.0318 99.59686,28.28125 148,28.28125 48.40314,0 94.03328,-28.23256 142.4375,-28.28125 48.89972,-0.0492 94.5242,28.28125 143.9375,28.28125 49.41329,0 100.82046,-28.45623 152.53125,-28.28125 49.89104,0.16883 97.10885,28.14223 147.00005,28.28125 51.3797,0.14317 77.7588,-27.2711 151.5,-28.28125 z" transform="translate(-9.1428547,15.505039)" fill="#c3c4c6" stroke-width="10" /><path d="M 199.34375,866.8125 V 1241.75 H 1022.3125 V 866.8125 h -61.875 V 940.5 H 895.40625 V 866.8125 H 833.875 V 940.5 h -64.75 V 866.8125 H 706.3125 V 940.5 H 641.59375 V 866.8125 H 580.0625 V 940.5 h -64.75 v -73.6875 h -62.5 V 940.5 H 388.71875 V 866.8125 H 327.1875 V 940.5 H 260.875 v -73.6875 z" transform="translate(-9.1428547,15.505039)" style="fill:#c3c4c6;stroke-linecap:round;stroke-linejoin:miter;stroke-miterlimit:4" /><path d="m 201.25,940.5 h 821.0625 z m 0,49.34375 h 821.0625 z m 0,50.65625 h 821.0625 z m -0.625,51.2812 h 821.0312 z m 0,50.625 h 821.0312 z m 0,48.7188 h 821.0312 z" transform="translate(-9.1428547,15.505039)" style="fill:none;stroke-linecap:butt;stroke-linejoin:miter;stroke-miterlimit:4" /><path d="m 230.75,939.875 v 49.96875 z m 95.75,0 v 49.96875 z m 94.78125,0 v 49.96875 z m 94.34375,0 v 49.96875 z m 95.75,0 v 49.96875 z m 95.25,0 v 49.96875 z m 94.8125,0 v 49.96875 z m 93.84375,0 v 49.96875 z m 96.21875,0 v 49.96875 z m -713.34375,49.34375 v 51.59375 z m 95.78125,0 v 51.59375 z m 94.78125,0 v 51.59375 z m 94.3125,0 v 51.59375 z m 95.75,0 v 51.59375 z m 95.28125,0 v 51.59375 z m 94.8125,0 v 51.59375 z m 95.03125,0 v 51.59375 z M 230.75,1041.125 v 51.2812 z m 95.75,0 v 51.2812 z m 94.78125,0 v 51.2812 z m 94.34375,0 v 51.2812 z m 95.75,0 v 51.2812 z m 95.25,0 v 51.2812 z m 94.8125,0 v 51.2812 z m 93.84375,0 v 51.2812 z m 96.21875,0 v 51.2812 z m -713.34375,50.6562 v 50.625 z m 95.78125,0 v 50.625 z m 94.78125,0 v 50.625 z m 94.3125,0 v 50.625 z m 95.75,0 v 50.625 z m 95.28125,0 v 50.625 z m 94.8125,0 v 50.625 z m 95.03125,0 v 50.625 z M 230.75,1142.7188 v 48.4062 z m 95.75,0 v 48.4062 z m 94.78125,0 v 48.4062 z m 94.34375,0 v 48.4062 z m 95.75,0 v 48.4062 z m 95.25,0 v 48.4062 z m 94.8125,0 v 48.4062 z m 93.84375,0 v 48.4062 z m 96.21875,0 v 48.4062 z m -713.34375,48.4062 v 50.625 z m 95.78125,0 v 50.625 z m 94.78125,0 v 50.625 z m 94.3125,0 v 50.625 z m 95.75,0 v 50.625 z m 95.28125,0 v 50.625 z m 94.8125,0 v 50.625 z m 95.03125,0 v 50.625 z" transform="translate(-9.1428547,15.505039)" style="fill:none;stroke-linecap:butt;stroke-linejoin:miter;stroke-miterlimit:4" /><g id="g4043" style="fill:#d38e00"><path d="m 460.42093,296.97354 c 0,0 5.41672,-14.55743 4.06254,-22.00542 -1.35418,-7.44798 -5.25865,-16.88285 -26.4065,-27.08358 -28.77631,-13.88034 -49.08899,-30.13049 -49.76608,-69.06314 -0.67709,-38.93265 30.13048,-68.72459 69.40168,-68.72459 39.2712,0 64.32351,29.11485 80.57366,51.79735 16.25015,22.6825 26.74504,41.30247 47.39628,104.2718 0,0 -35.54721,2.70836 -35.20866,0.67709 0.33854,-2.03127 -17.26579,-54.16717 -17.26579,-54.16717 l -45.70355,5.07817 13.88034,67.03187 -24.37523,21.32832 z" transform="translate(-9.1428547,15.505039)" style="stroke-linecap:butt;stroke-linejoin:miter;stroke-miterlimit:4" /><path d="m 546.07277,327.10402 c 0.33854,9.14071 0.98422,23.16169 -25.39087,41.97955 -35.64602,25.4324 -41.82281,38.52961 -40.96391,58.22972 1.07162,24.57901 25.39085,47.05772 47.39626,46.04209 28.40954,-1.3112 52.1359,-37.57848 52.1359,-37.57848 0,0 -16.25015,12.52616 -32.16175,11.51053 -6.49881,-0.41482 -14.55742,-6.77089 -14.55742,-17.26578 0,-10.49489 4.73962,-17.94289 21.32832,-31.82322 16.58869,-13.88034 57.89115,-71.09441 57.89115,-71.09441 z" transform="translate(-9.1428547,15.505039)" style="stroke-linecap:butt;stroke-linejoin:miter;stroke-miterlimit:4" /><path d="m 540.82532,265.3196 c 1.52345,-27.25286 -13.22039,-37.19868 -22.00542,-38.76338 -10.68638,-1.90335 -13.54178,6.77089 -12.52615,14.55742 1.01564,7.78653 10.08567,28.14269 6.26308,47.227 -3.11696,15.56146 -21.15905,28.09922 -35.71648,27.08359 -14.92112,-1.04101 -23.02105,-6.60162 -27.5914,-28.26849 0,0 15.23452,7.78653 26.06795,2.70835 10.83343,-5.07817 14.21888,-11.84906 14.89597,-25.05231 0.67709,-13.20325 -6.77089,-24.71377 -23.35959,-42.3181 -10.68255,-11.33658 -25.72939,-26.1567 -25.7294,-40.96392 -10e-6,-19.97415 13.28478,-28.55568 30.13048,-29.62267 12.49374,-0.79134 29.71089,1.14314 46.599,19.89626 14.33193,15.91465 28.2848,44.93037 40.40702,92.33133 z" transform="translate(-9.1428547,15.505039)" style="stroke-linecap:butt;stroke-linejoin:miter;stroke-miterlimit:4" /></g><use transform="matrix(-1,0,0,1,1205.2042,0)" xlink:href="#g4043" /><path d="m 610.6875,37.3125 c -25.2273,17.60627 -56.28125,46.065188 -56.28125,79.59375 0,38.58126 17.85619,107.46936 29.1875,147.3125 0.39795,-0.0613 0.80312,-0.0937 1.21875,-0.0937 H 637.75 c 11.33249,-39.85573 29.1875,-108.66409 29.1875,-147.21875 0,-33.528472 -31.02274,-61.987469 -56.25,-79.59375 z m -27.78125,290.75 c -8.34272,30.41833 -18.78274,75.2673 -17.46875,105.78125 1.27974,29.7182 16.43452,39.93028 24.65625,50.03125 5.87719,7.22054 8.24687,7.21341 14.42157,23.73896 3.88994,12.45665 9.00974,12.53219 12.43642,-0.25633 6.09508,-16.26934 8.45162,-16.29962 14.29826,-23.48263 8.22173,-10.10097 23.37651,-20.31305 24.65625,-50.03125 1.3109,-30.44216 -9.07341,-75.14774 -17.40625,-105.5625 h -53.6875 c -0.65969,0 -1.29448,-0.0678 -1.90625,-0.21875 z" transform="translate(-9.1428547,15.505039)" style="fill:#d38e00;stroke-linecap:butt;stroke-linejoin:miter;stroke-miterlimit:4" /><rect id="bar" width="162.78337" height="15.799531" ry="7.8997655" x="529.52472" y="257.4183" transform="translate(-9.1428547,15.505039)" style="fill:#d38e00;stroke-linecap:round;stroke-linejoin:miter;stroke-miterlimit:4" /><use xlink:href="#bar" transform="translate(0,62.458505)" x="0" y="0" /><path id="circle" d="m 626.95537,295.60059 a 15.440482,15.440482 0 1 1 -30.88096,0 15.440482,15.440482 0 1 1 30.88096,0 z" style="fill:#d38e00" transform="translate(-9.1428547,16.462588)" /><use x="-66.310287" xlink:href="#circle" /><use x="-33.274837" xlink:href="#circle" /><use x="32.556675" xlink:href="#circle" /><use x="65.592125" xlink:href="#circle" /><path d="m 17.15625,8 v 847.40625 c 0,329.23425 265.04697,594.31255 594.28125,594.31255 329.23428,0 594.2813,-265.0783 594.2813,-594.31255 V 8 Z" transform="translate(-9.1428547,15.505039)" fill="none" stroke-width="15" /></g></svg>
