<?xml version="1.0" encoding="UTF-8" standalone="no"?>
<svg
   width="875"
   height="500"
   id="svg2966"
   sodipodi:version="0.32"
   inkscape:version="1.3.2 (091e20e, 2023-11-25, custom)"
   version="1.0"
   sodipodi:docname="Flag_of_LiepÄja.svg"
   inkscape:output_extension="org.inkscape.output.svg.inkscape"
   xmlns:inkscape="http://www.inkscape.org/namespaces/inkscape"
   xmlns:sodipodi="http://sodipodi.sourceforge.net/DTD/sodipodi-0.dtd"
   xmlns="http://www.w3.org/2000/svg"
   xmlns:svg="http://www.w3.org/2000/svg"
   xmlns:rdf="http://www.w3.org/1999/02/22-rdf-syntax-ns#"
   xmlns:cc="http://creativecommons.org/ns#"
   xmlns:dc="http://purl.org/dc/elements/1.1/">
  <defs
     id="defs2968" />
  <sodipodi:namedview
     id="base"
     pagecolor="#ffffff"
     bordercolor="#666666"
     borderopacity="1.0"
     gridtolerance="50"
     guidetolerance="10"
     objecttolerance="50"
     inkscape:pageopacity="0.0"
     inkscape:pageshadow="2"
     inkscape:zoom="1"
     inkscape:cx="437.5"
     inkscape:cy="249.5"
     inkscape:document-units="px"
     inkscape:current-layer="layer1"
     inkscape:object-bbox="true"
     inkscape:object-nodes="true"
     inkscape:object-points="false"
     showguides="true"
     inkscape:guide-bbox="true"
     inkscape:showpageshadow="false"
     showborder="false"
     inkscape:object-paths="false"
     inkscape:grid-bbox="false"
     inkscape:window-width="1600"
     inkscape:window-height="847"
     inkscape:window-x="-8"
     inkscape:window-y="-8"
     inkscape:document-rotation="0"
     showgrid="false"
     inkscape:window-maximized="1"
     inkscape:pagecheckerboard="0"
     inkscape:deskcolor="#d1d1d1" />
  <metadata
     id="metadata2971">
    <rdf:RDF>
      <cc:Work
         rdf:about="">
        <dc:format>image/svg+xml</dc:format>
        <dc:type
           rdf:resource="http://purl.org/dc/dcmitype/StillImage" />
        <dc:date>2008.03.15</dc:date>
        <dc:creator>
          <cc:Agent>
            <dc:title>Mothmolevna</dc:title>
          </cc:Agent>
        </dc:creator>
        <dc:rights>
          <cc:Agent>
            <dc:title>GNU</dc:title>
          </cc:Agent>
        </dc:rights>
        <cc:license
           rdf:resource="http://creativecommons.org/licenses/LGPL/2.1/" />
      </cc:Work>
      <cc:License
         rdf:about="http://creativecommons.org/licenses/LGPL/2.1/">
        <cc:permits
           rdf:resource="http://web.resource.org/cc/Reproduction" />
        <cc:permits
           rdf:resource="http://web.resource.org/cc/Distribution" />
        <cc:requires
           rdf:resource="http://web.resource.org/cc/Notice" />
        <cc:permits
           rdf:resource="http://web.resource.org/cc/DerivativeWorks" />
        <cc:requires
           rdf:resource="http://web.resource.org/cc/ShareAlike" />
        <cc:requires
           rdf:resource="http://web.resource.org/cc/SourceCode" />
      </cc:License>
    </rdf:RDF>
  </metadata>
  <g
     inkscape:label="Layer 1"
     inkscape:groupmode="layer"
     id="layer1">
    <path
       id="rect4916"
       style="fill:#007560;fill-opacity:1;stroke:none;stroke-width:34.9"
       d="M 0,250 437.5,230 875,250 V 500 H 0 Z"
       sodipodi:nodetypes="cccccc" />
    <path
       id="rect3945"
       style="fill:#d02927;fill-opacity:1;stroke:none;stroke-width:34.9"
       d="M 0,0 H 875 V 250 H 0 Z" />
    <g
       inkscape:label="Layer 1"
       id="layer1-8"
       transform="matrix(1.8862668,0,0,1.8862668,256.77166,59.050228)">
      <path
         id="path1366"
         style="fill:#c9c9c9;fill-opacity:1;stroke:#c9c9c9;stroke-width:4.41021;stroke-miterlimit:4"
         d="M 30.401913,23.914534 H 161.22351 v 89.275016 c 0,36.09682 -29.28541,65.35908 -65.410797,65.35908 -36.125389,0 -65.410802,-29.26226 -65.4108,-65.35908 z"
         sodipodi:nodetypes="cccscc" />
      <g
         id="g2778"
         transform="matrix(0.92639549,0,0,0.92639549,2.1836158,1.7061155)">
        <path
           id="path1453-1-9"
           style="fill:#007560;fill-opacity:1;stroke:none;stroke-width:2.50001;stroke-linecap:butt;stroke-linejoin:miter;stroke-miterlimit:4;stroke-opacity:1"
           d="m 256.31055,101.32617 c -1.74821,-0.0569 -3.40189,1.30421 -2.84766,3.69922 0.80615,3.48366 -0.005,6.50819 -1.5332,9.30664 -1.52865,2.79845 -4.12027,5.82127 -7.31836,11.29102 -3.19809,5.46974 -2.85225,11.63092 -1.46875,15.73437 -5.34454,-7.24648 -13.43702,-7.42119 -21.3125,-6.58594 -7.87548,0.83526 -12.53525,0.98289 -16.92188,-2.27539 -4.38663,-3.25827 -7.92462,-0.57171 -6.78515,3.35157 1.13946,3.92327 0.99864,6.61641 -0.93164,10.92187 -1.93028,4.30546 -5.07463,7.53518 -3.17774,16.51172 -4.55146,-1.10789 -8.61142,-1.11837 -14.58398,0.22266 -5.97257,1.34102 -10.63823,4.21203 -13.80664,4.84375 -3.16842,0.63171 -5.28353,0.38376 -7.65625,-0.0586 -2.37273,-0.44236 -4.6142,1.4215 -3.14453,4.13282 1.46966,2.7113 3.58162,4.65713 3.53711,8.29882 -0.0445,3.6417 -3.04787,9.08839 -1.56836,19.06836 1.21706,8.20968 4.69092,12.5771 9.95507,15.52735 -4.02026,0.002 -7.02676,1.24835 -10.96875,4.35156 -3.94198,3.10321 -5.92229,5.08487 -8.30468,6.39453 -2.38239,1.30966 -4.7239,1.69084 -6.78321,1.91406 -2.05931,0.22322 -3.11569,2.9318 -1.10742,4.81055 2.00828,1.87875 3.85899,2.45808 5.36719,6.39453 1.5082,3.93645 2.0558,7.38629 4.25586,12.71875 2.20006,5.33246 5.24717,7.51127 7.44922,9.20313 -6.48167,3.6672 -8.14437,5.2045 -10.97852,6.48828 -2.83415,1.28378 -4.88603,1.2953 -7.59766,1.20312 -2.71162,-0.0922 -4.34122,2.73173 -2.21289,5.13281 2.12834,2.40109 4.44066,3.87346 5.25391,7.57422 0.81325,3.70077 0.3403,11.06545 3.7168,18.86719 3.37653,7.80174 10.09197,12.59663 16.44726,12.47852 -1.74184,6.06935 -1.9837,11.60142 0.74414,18.23242 2.72785,6.63099 4.21898,9.04481 8.20704,14.35351 3.98804,5.30871 5.2094,7.11991 4.87695,10.93164 -0.33245,3.81174 3.46218,4.70691 5.77929,2.71289 2.31713,-1.994 3.54642,-3.30203 7.875,-3.58984 4.3286,-0.28781 11.4743,0.23353 15.21485,-4.15234 6.85079,6.77756 12.46862,7.41412 17.01953,9.02734 4.55091,1.61322 7.66804,1.80542 8.74219,5.33203 1.07415,3.52662 5.52041,1.99495 5.5,-1.02148 -0.0204,-3.01643 0.52738,-4.71324 3.68164,-7.10352 3.15426,-2.39028 8.37725,-7.19241 11.73633,-11.04883 3.35907,-3.85642 5.05268,-8.69648 4.26953,-14.36718 4.59331,6.3158 7.45861,12.79586 10.04687,28.42187 2.58827,15.62601 3.63996,25.52713 4.01953,33.39649 -8.0383,3.73205 -10.03182,11.91893 -8.03906,23.54101 1.99276,11.62205 6.31642,19.2335 6.60352,30.7168 0.28709,11.48326 -0.31564,30.88514 -0.44922,46.34961 -0.13357,15.46443 -0.29786,24.47982 -1.43945,37.90039 -2.23298,-8.93189 -4.49794,-16.04734 -8.40626,-24.24219 -3.9083,-8.19485 -8.32293,-15.83425 -15.63085,-22.5332 -7.30792,-6.69891 -11.92381,-10.52095 -13.39844,-14.61524 -1.47463,-4.09428 -0.40474,-6.69982 1.41601,-8.25 0.90278,6.86087 3.35169,10.44592 8.36328,12.35352 5.01161,1.9076 10.18542,0.87835 15.27735,-2.50391 5.09193,-3.38226 8.58076,-8.98995 8.8457,-17.71484 0.26495,-8.72489 -2.45538,-13.19871 -3.03711,-17.68164 -0.58173,-4.48294 0.7448,-5.38054 1.84766,-8.14258 1.10286,-2.762 -1.25373,-4.29584 -3.47656,-3.60547 -2.22283,0.69052 -3.73463,1.45976 -6.86133,0.31446 -3.1267,-1.14528 -7.04093,-3.88713 -14.3418,-4.28711 -7.30086,-0.39995 -16.64119,0.35413 -21.65625,9.30859 -5.01506,8.95449 -3.35926,16.9642 -0.625,20.61719 2.73428,3.65295 5.53812,5.12782 9.87891,6.15234 -2.28469,2.69465 -3.63943,4.78958 -3.61524,9.04102 -10.07709,-11.14957 -13.58547,-11.95635 -22.38281,-19.9375 5.12049,-1.20855 8.66952,-2.94724 11.79688,-6.4043 3.12737,-3.45706 5.41386,-12.32728 0.0742,-21.86133 -5.33964,-9.53405 -17.41739,-10.8797 -26.79882,-8.63281 -9.38145,2.24693 -13.01425,4.28445 -16.67774,4.57812 -3.66348,0.29367 -5.37399,-0.19351 -7.99609,-1.00781 -2.62209,-0.81437 -5.40057,0.99577 -4.09961,4.25391 1.30096,3.25814 3.42963,5.73521 2.89648,9.84375 -0.53314,4.10853 -4.64914,9.86424 -4.30078,21.33594 0.34836,11.47168 6.0777,17.87861 12.58985,21.13671 6.51213,3.25811 14.83123,2.19201 20.04687,-2.55273 5.21565,-4.74474 5.86445,-7.39624 6.0625,-13.69531 11.55347,9.2615 16.2989,12.18178 25.68945,22.7832 -4.71809,0.48964 -7.25713,2.97964 -9.75976,6.9043 -0.78328,-4.86176 -1.9188,-8.00375 -4.93555,-11.15625 -3.01675,-3.15251 -10.07354,-5.80749 -19.33398,-1.46485 -9.26045,4.34264 -11.46179,13.59096 -10.13086,24.41602 0.98698,8.02756 3.10712,13.45695 3.39843,16.16797 0.29133,2.71105 -0.58844,3.46242 -1.52539,5.85547 -0.93694,2.39308 0.92924,5.32511 4.0586,4.33007 3.12936,-0.99499 3.25889,-2.22176 7.05859,-1.44726 3.79969,0.77454 8.73189,3.51682 19.79102,3.17969 11.05913,-0.33714 17.15632,-5.22781 20.63672,-11.08789 3.4804,-5.86005 2.3735,-14.1153 -1.25,-18.52344 -3.6235,-4.40825 -7.56664,-4.52372 -12.32422,-4.67188 1.73902,-2.36341 3.12716,-3.70439 5.75781,-4.59375 2.63065,-0.88936 5.20417,-0.78843 9.56055,2.35157 4.35638,3.13999 15.60408,13.20096 21.22461,30.81836 5.62053,17.61742 5.0761,26.84747 4.30664,34.73632 -0.76947,7.8889 -4.22514,11.90873 -2.58399,16.36328 1.64115,4.45456 6.71739,7.95125 7.75,12.91993 1.16295,5.59581 1.34462,13.64295 -5.16601,22.67968 -6.54436,9.08357 -16.61581,10.92878 -19.8086,4.5918 -3.19278,-6.33702 0.94685,-11.44381 6.18555,-12.63281 -1.34743,-3.02468 -6.06889,-3.54661 -9.79883,-0.95117 -3.72994,2.59544 -6.03784,6.98815 -6.11914,14.33593 -1.63585,-2.02129 -3.10021,-3.22512 -5.71875,-3.29882 -1.60862,1.81802 -2.07407,3.77933 -2.5039,5.82031 -6.04932,-11.75804 -16.76024,-10.52776 -21.92383,-6.4961 5.48749,2.32188 7.62961,5.34608 5.54101,11.46289 -5.62649,-7.07031 -9.30959,-8.53837 -15.6914,-8.21484 0.039,1.07104 0.39617,2.14189 0.80273,3.21289 -7.86498,-2.67507 -11.6923,-1.06127 -18.57031,-0.17773 48.51563,66.67211 127.14463,110.02148 215.91015,110.02148 88.93081,0 167.6862,-43.51129 216.17969,-110.39453 -3.45895,-2.0787 -5.37593,-4.42511 -11.0332,-4.55664 -8.7289,-0.20296 -45.66016,-1.73047 -45.66016,-1.73047 -1.07316,2.62001 -5.85457,3.13606 -9.66211,3 -3.80753,-0.13606 -7.2606,-0.22601 -9.02734,4.88867 -1.87933,5.44063 -12.99219,7.30664 -12.99219,7.30664 l -14.20898,-10.75976 -17.45899,2.77539 c -2.41149,-0.17651 -4.04582,0.73687 -8,0.0937 2.51687,-2.47548 3.95471,-4.45789 3.33203,-8.21289 -0.62263,-3.755 -3.72014,-6.86468 -6.56836,-6.5918 1.41498,4.63438 0.28722,7.54431 -4.30468,9.61719 -4.59171,2.07288 -4.28932,3.72018 -8.1836,5.74219 -1.32525,-3.11501 0.56462,-4.69876 -1.14648,-7.89454 -3.27798,0.23585 -4.81085,2.15225 -7.89648,6.88868 -1.92507,-5.75071 0.25928,-11.96446 5.35937,-14.1875 -2.79364,-2.93723 -7.77688,-1.77071 -11.31641,1.69531 -3.53945,3.46605 -5.01589,7.39856 -6.65039,11.8457 -2.55035,-1.9426 -2.188,-4.63594 -4.69726,-6.77734 -2.75656,1.90711 -3.40058,4.55453 -3.08008,7.85742 -2.77928,-0.41155 -3.77544,-0.69937 -8.08399,-2.14844 -4.30853,-1.44907 -9.55359,-0.74534 -13.01953,0.83008 -3.46594,1.57557 -7.48441,-0.65171 -14.01562,-0.94726 -6.53121,-0.29556 -10.24025,-1.96182 -18.64063,-1.53125 -8.40038,0.43056 -38.56836,-7.3086 -38.56836,-7.3086 l -7.66992,6.50586 c -2.14749,-0.32957 -4.2681,-0.13303 -6.91211,0.46289 -2.64398,0.59584 -3.65429,-0.60753 -3.65429,-3.85547 0,-3.24797 -0.15027,-8.23037 0.99804,-28.03906 1.14833,-19.80865 1.43563,-38.46855 2.29688,-57.12891 0.86124,-18.66032 2.00789,-45.64651 2.86914,-66.3164 0.86125,-20.66994 0.57423,-31.00417 0.86133,-33.58789 0.28709,-2.58376 2.69337,-1.46524 2.98047,-5.77149 0.28709,-4.30624 1.90039,-48.77539 1.90039,-48.77539 0,0 -2.52172,-7.40942 -2.82813,-12.8164 -0.30641,-5.407 0.16743,-10.37027 -0.10156,-15.39258 L 352.5,321.74414 c 9.33126,1.79213 13.27506,0.51718 17.13477,-2.05859 3.8597,-2.57578 6.57142,-2.43645 8.85546,-1.27149 2.28405,1.16497 5.04619,-0.60347 3.88282,-3.48437 -1.16338,-2.88091 -1.81522,-5.25531 0.43164,-9.37696 2.24685,-4.12164 3.61051,-8.30248 2.8789,-13.51171 4.24135,5.24101 11.609,9.88435 23.49414,6.39843 11.88514,-3.48591 15.35876,-9.50594 20.63672,-12.7539 5.27796,-3.24797 0.406,-6.04101 0,-15.37891 -0.40599,-9.3379 -0.24875,-12.58334 -5.80859,-17.68359 4.99948,0.1734 10.87424,-0.7142 16.58008,-4.75586 5.70584,-4.04167 7.44956,-8.83236 9.60937,-12.11133 2.15981,-3.27897 5.19821,-4.29523 8.19727,-5.21094 2.99905,-0.9157 2.13124,-3.86328 0.0957,-5.23633 -2.03554,-1.37304 -3.97347,-2.70028 -5.41211,-6.02734 -1.43864,-3.32707 -1.98508,-7.41985 -6.74805,-15.81055 -4.76295,-8.39069 -13.22801,-12.03063 -19.58593,-11.21289 7.29917,-2.97252 10.37315,-7.10713 12.88476,-13.75781 2.51161,-6.65068 2.4462,-11.68277 3.54688,-16.05078 1.10067,-4.368 2.46004,-5.66003 5.69531,-7.19141 3.23528,-1.53138 1.42483,-4.60915 -0.87305,-4.78125 -2.29534,-0.17197 -6.0108,-0.5228 -8.77734,-2.48828 -2.76654,-1.96549 -4.9737,-4.26465 -12.20703,-8.49805 -7.23334,-4.2334 -16.35151,-4.1185 -21.7207,-2.36328 -5.36924,1.75523 -8.83094,4.48792 -10.57618,7.88672 -0.24529,-6.05638 -1.22464,-10.41274 -3.27734,-14.58203 -2.0527,-4.16929 -5.36053,-7.25855 -9.16406,-10.26172 -3.80357,-3.00316 -5.58205,-5.72745 -6.08594,-8.89453 -0.50389,-3.16708 -4.16097,-4.37217 -6.21484,-0.93555 -2.05387,3.43663 -4.45424,4.74963 -9.49805,6.91016 -5.04381,2.16053 -8.07983,3.2691 -11.75,7.91016 -2.94917,-7.19705 -8.88421,-10.94522 -18.45117,-11.33985 -9.56697,-0.39462 -13.09444,-1.20053 -15.72656,-4.04687 -2.63214,-2.84635 -4.13206,-5.83015 -7.00391,-4.82032 -2.87185,1.00985 -0.70035,4.83858 -2.36719,8.56446 -1.66684,3.72588 -3.13484,4.09714 -7.64648,10.82812 -3.27428,-8.81537 -7.44474,-13.15828 -15.17188,-14.99414 -7.72714,-1.83584 -12.22345,-1.13213 -15.70117,-2.14258 -3.47772,-1.01044 -6.06726,-2.81411 -8.10156,-4.88867 -0.63572,-0.6483 -1.4495,-0.96828 -2.24414,-0.99414 z m 35.82422,44.45899 c 1.46939,8.02713 5.46524,12.78716 10.35546,15.05078 4.89023,2.26362 11.53697,2.65717 18.12305,-0.74414 -2.76017,2.28861 -9.74535,6.27222 -15.62695,13.20508 -5.8816,6.93284 -7.11056,15.78154 -4.51563,23.07031 2.59494,7.28876 7.44872,11.91557 16.73828,10.73047 -5.15068,1.43004 -9.12744,3.04669 -12.18359,6.24609 -5.44258,-10.63172 -9.33041,-16.10787 -18.7793,-23.36523 5.03632,0.028 8.95246,-1.34784 12.1875,-6.57032 3.23505,-5.22247 3.45046,-12.541 -0.47851,-19.11132 -3.92898,-6.57035 -8.42286,-9.11027 -15.0332,-9.60547 -0.53129,-2.53224 -1.15641,-4.10393 -2.23633,-6.70118 4.31613,0.51979 8.50899,0.51302 11.44922,-2.20507 z m -18.22071,3.94726 c 1.46478,1.62659 2.22287,3.18394 2.78711,5.07422 -4.6946,0.70864 -6.75534,0.93979 -11.68164,2.0332 4.65842,-1.70375 6.88298,-3.79251 8.89453,-7.10742 z m 64.72461,1.49024 c 1.03209,6.18054 4.09713,10.14607 8.40625,11.54882 4.30912,1.40275 8.38603,0.45819 12.40235,-1.66406 -1.49258,3.2432 -3.03628,6.57565 -3.41602,11.09375 -4.05266,-3.96197 -8.56493,-6.90584 -17.06445,-10.70703 -8.49952,-3.80119 -8.062,-7.51369 -9.2793,-9.7168 3.27082,0.69115 6.22327,0.45543 8.95117,-0.55468 z m 55.02149,3.11523 c 0.54345,2.82705 1.76958,6.44286 5.59375,9.36719 -4.28924,1.73468 -6.14124,2.70934 -10.04493,4.98242 -3.84971,-0.50931 -12.59141,0.2432 -16.8496,2.47852 -4.25821,2.23531 -6.1906,4.63049 -7.79297,7.08789 -0.99574,-8.1019 2.10533,-10.24996 3.18164,-16.29688 3.58811,3.53636 7.72406,5.08895 13.79101,4.22266 6.06694,-0.86629 10.69954,-3.75588 12.1211,-11.8418 z m -144.45118,4.46875 c 1.28666,6.71702 0.43786,9.71084 -0.84765,14.04688 -1.28551,4.33603 -2.25225,7.46105 -2.29492,15.15429 -3.58491,-4.44385 -5.01646,-8.4818 -9.98047,-12.72265 7.42066,-0.65917 13.89882,-6.93883 13.12304,-16.47852 z m 156.85352,11.80274 c -1.7158,3.53317 -2.8438,6.02866 -1.37833,10.83359 -1.41436,-2.56758 -3.1005,-5.13516 -5.32479,-7.70274 2.08588,-1.36473 4.31955,-2.39973 6.70312,-3.13085 z m -178.79297,10.4746 c 3.8937,3.4407 5.70536,6.30741 8.46289,10.32227 -4.57181,-3.31972 -9.19776,-2.91264 -14.75586,-2.48633 3.18556,-1.12138 5.27226,-3.26175 6.29297,-7.83594 z m 134.56055,6.55079 c -0.14389,4.0855 1.75152,9.21635 7.11328,12.73046 -6.73016,1.31701 -9.27899,2.28842 -14.19922,5.89258 -0.61449,-1.34207 -2.14238,-1.96858 -4.55859,-1.33398 5.44303,-2.32811 11.33498,-8.73097 11.64453,-17.28906 z m -82.1211,9.89843 c 3.39822,2.27902 5.78744,5.06273 7.65821,8.10547 -4.70185,-1.588 -7.51141,-1.42562 -12.43555,-1.34179 3.19048,-1.0869 4.21147,-3.19572 4.77734,-6.76368 z m -35.02929,10.22852 2.01758,0.52539 c 1.83388,5.46461 2.01435,8.77514 1.41992,13.82617 -0.59444,5.05103 -1.1529,8.13996 -1.49219,15.90039 -3.45623,-4.94373 -6.89926,-8.67092 -12.8457,-13.35351 6.88622,-1.68239 11.27437,-7.60216 10.90039,-16.89844 z m 164.17969,0.3418 c 1.36707,5.36568 2.20485,6.85599 3.48632,9.9707 0,0 -3.17606,-1.23411 -5.58203,-1.51172 0.96319,-2.85194 1.43684,-5.59652 2.09571,-8.45898 z m -38.14063,2.41796 c -1.7682,6.23099 -0.31843,11.79993 4.17773,14.86914 -12.84614,-0.58112 -18.86525,8.16134 -15.28125,21.39258 l -5.04101,-1.0332 c 3.11446,-8.13492 1.79551,-16.79989 -0.20313,-25.98242 4.9592,-5.94428 10.52721,-8.64879 16.34766,-9.2461 z M 189.0644,228.00781 c -1.07959,-3.42384 -3.74287,-8.65442 -10.78125,-9.74219 4.48462,-0.0641 8.17425,-0.33672 11.43453,-3.64942 -0.56109,3.71542 -1.39715,6.08511 -0.65328,13.39161 z m 220.44927,-0.58789 c -5.48583,5.38465 -4.02036,15.15616 0.0977,19.72656 -5.83778,-0.14305 -9.23818,1.28826 -12.33399,4.06446 0.0529,-7.75859 -3.44358,-17.69963 -9.95703,-22.53125 5.3147,0.037 7.98571,-0.93286 11.82225,-3.33789 3.88998,-0.0355 7.27322,0.44973 10.37107,2.07812 z m -184.46094,5.04492 c 4.31039,3.05661 7.12,4.90495 10.23633,8.01172 -4.72701,-1.40066 -8.4131,-0.24513 -12.92968,1.24024 1.53431,-2.96029 2.33668,-5.23538 2.69335,-9.25196 z m 74.73438,0.41407 c 1.19896,5.48036 4.62302,9.46776 11.42383,11.8457 -5.80611,4.05028 -9.48198,8.23618 -13.38282,17.46875 -2.30952,-7.62601 -5.98218,-12.89373 -11.13671,-19.02148 6.95443,-0.89239 11.49152,-5.36664 13.0957,-10.29297 z m -21.17383,18.32031 c 4.13067,3.75049 8.89423,9.14715 10.68945,20.30859 -4.05939,-6.70998 -13.23379,-9.79454 -24.00781,-8.57031 -10.77401,1.22423 -13.76431,5.22259 -18.3164,6.21289 2.99086,-1.9701 5.83545,-8.45761 2.96484,-16.02344 l -0.40039,-1.92578 c 1.90675,3.4242 7.42963,9.30373 15.9375,8.93945 8.50786,-0.36424 12.11062,-3.53919 13.13281,-8.9414 z m 71.97266,0.24414 c 2.5261,0.12027 3.76775,0.61997 5.90039,1.47656 -3.80728,1.12895 -6.74517,2.69574 -8.20508,7.42383 0.48803,-2.78733 -1.19226,-3.69202 -2.59766,-4.29883 z M 318.90625,251.75 c 0.69103,3.1421 2.13982,6.5072 8.23242,7.85156 -6.89884,-0.0587 -15.35727,2.0743 -20.48242,5.72852 3.10758,-6.47779 7.06677,-11.54065 12.25,-13.58008 z m -127.05859,3.75977 c 2.55913,3.71242 4.48156,5.93112 4.125,12.85156 -2.64539,-4.70925 -5.60017,-7.71757 -11.22071,-10.6211 3.17243,0.22423 5.19824,-0.24681 7.09571,-2.23046 z m 5.63867,23.07617 c 0.32264,5.89105 1.96101,10.55715 4.94726,13.75976 -4.26791,-1.57937 -8.29357,1.42138 -12.54297,-2.29882 4.56618,-2.00937 7.40053,-5.13363 7.59571,-11.46094 z m 92.55273,16.60156 c 0.15282,5.46038 0.10137,8.28345 0.8711,16.39258 -3.43113,-6.646 -5.42276,-9.83066 -8.90625,-12.81055 3.5145,-0.62858 5.85129,-1.51319 8.03515,-3.58203 z m 12.25782,1.86914 c 2.61932,2.02726 4.83683,2.61157 8.19335,2.96094 -3.32469,3.32392 -5.1406,5.44398 -7.63671,11.88476 -0.28763,-5.80962 -0.99124,-9.89733 -0.55664,-14.8457 z m -111.25196,5.39453 c 5.01211,2.21605 8.14248,0.44571 13.31055,2.04688 -3.69796,2.4284 -4.98011,3.18385 -8.35547,7.35156 -0.77698,-3.72733 -1.72203,-6.22753 -4.95508,-9.39844 z m 30.45899,5.28125 c 3.36484,0.0517 6.50168,0.79895 8.40234,1.99414 -2.18338,0.37247 -3.6177,1.17971 -4.98633,2.98633 -1.36863,1.80661 -1.55823,3.51816 -1.82812,7.13281 -4.86073,-4.32958 -13.05005,-4.14128 -18.91016,2.51563 -0.41638,-1.53786 -1.09811,-2.46586 -1.88476,-3.69922 3.05635,-5.68846 7.88093,-8.81728 13.12109,-10.2168 1.96506,-0.52482 4.06703,-0.74388 6.08594,-0.71289 z"
           transform="scale(0.26458333)"
           sodipodi:nodetypes="sssscsssscsssssscsssssscssssscssssscssssscscssscssscssssscsssscccsssssssssscccsssssssssscsssssssscsccccccccscscssccccscsccccscccssssccssssssscsccsssscssscsssssscssssssscssssscsssscsssscscsscccssccccccccsccscccccsccsccsccccccccccccccccccccccsccccccccccccccccccccccccccccccccccccsccccccccccccccccccccccccccccccscscccssss" />
        <path
           style="fill:#000000;fill-opacity:1;fill-rule:nonzero;stroke:none;stroke-width:1;stroke-linecap:butt;stroke-linejoin:miter;stroke-miterlimit:4;stroke-opacity:1"
           d="m 89.825805,72.095105 c -0.762148,-0.02493 -2.209258,1.205073 -2.890372,2.962132 l 0.324103,0.430241 c 0.556574,-1.541161 1.69274,-2.931904 2.566269,-3.392373 z"
           id="path2494-3-8-9" />
        <path
           id="path2317-3"
           style="fill:#000000;fill-opacity:1;fill-rule:nonzero;stroke:none;stroke-width:3.77953;stroke-linecap:butt;stroke-linejoin:miter;stroke-miterlimit:4;stroke-opacity:1"
           d="m 423.78888,193.60572 0.0174,-2.0901 c -4.34715,0.6998 -6.43356,-0.0389 -8.27411,-0.89433 h 4e-5 l 1.78728,3.9911 z m -100.46271,112.33764 -1.40234,-2.07617 c -4.65309,3.53572 -9.20954,8.24679 -8.81348,13.92969 2.37112,-4.74605 6.75209,-9.47423 10.21582,-11.85352 z m -48.2126,0.24219 c 10.38263,8.38802 13.404,21.27832 13.404,21.27832 0,0 0.84495,-2.66654 -0.72552,-7.33388 -1.55648,-4.62574 -5.38798,-14.17745 -12.65407,-16.50265 -0.0176,0.90986 0.009,1.75672 -0.0244,2.55821 z m 51.35127,4.31054 -1.43945,-2.04297 c -5.29862,3.74021 -7.90625,10.31251 -6.74805,10.78418 0,0 3.72534,-5.59144 8.1875,-8.74121 z m -34.71676,-1.75759 -1.96488,3.38259 c 0.94509,1.96734 1.66002,3.8845 3.63965,6.81348 -0.29209,-3.77663 -0.52164,-5.94133 -1.67477,-10.19607 z m -16.543,2.5115 -1.50586,2 c 0,0 5.43218,4.08196 9.0791,11.34668 -1.52055,-8.81189 -7.57324,-13.34668 -7.57324,-13.34668 z m 28.86328,0.95898 -2.42969,-4.48693 c -0.78792,3.09716 0.22851,10.40392 0.22851,10.40392 0,0 1.49126,-3.12642 2.20118,-5.91699 z m -32.76172,2.5918 -1.75,1.78711 c 0,0 11.55937,11.3235 15.58789,32.70508 -1.65541,-22.46594 -13.83789,-34.49219 -13.83789,-34.49219 z m -37.45596,1.11529 c -2.93265,1.11649 -4.20251,2.86937 -4.24816,4.90931 -0.0456,2.03993 0.94198,2.97871 2.14847,3.1228 -0.10607,-2.84955 1.49224,-4.46749 3.70998,-5.12396 2.21773,-0.65647 5.0587,-1.09545 9.7772,0.97552 4.7185,2.07096 7.70428,7.08917 8.45519,12.52643 l 2.47266,-0.33984 c -0.8154,-5.90414 -5.05175,-12.65357 -10.43954,-15.13771 -5.3878,-2.48413 -8.94314,-2.04905 -11.8758,-0.93255 z m 25.43838,4.70893 c -2.05725,-2.73064 -3.83789,-4.04492 -3.83789,-4.04492 l -1.47656,2.01562 c 0,0 1.4341,1.03932 3.31445,3.53516 1.88036,2.49584 4.12966,6.38386 6.73145,11.64844 -0.26903,-6.21871 -2.6742,-10.42366 -4.73145,-13.1543 z m 8.54102,-4.03125 -1.875,1.64648 c 0,0 6.1476,7.06082 9.54883,14.96778 -1.19209,-9.31798 -7.67383,-16.61426 -7.67383,-16.61426 z m -4.86524,1.16016 -1.90429,1.62304 c 0,0 9.54529,11.30148 13.00683,25.31348 -1.13178,-15.27038 -11.10254,-26.93652 -11.10254,-26.93652 z m 23.3711,76.42382 c -1.92817,-1.80536 -4.43502,-2.97407 -7.4336,-3.27734 -0.37482,-0.0379 -0.75648,-0.0619 -1.14648,-0.0723 v 3e-5 c -2.72998,-0.0726 -5.82796,0.54048 -9.24609,1.99219 l 0.97265,2.30274 c 7.2266,-3.06924 12.0531,-2.01146 15.14844,0.88672 3.09533,2.89821 4.51796,7.96047 5.25195,13.36816 2.82571,-3.52341 0.30946,-11.58946 -3.54687,-15.2002 z m -19.00782,17.20118 c 0.47138,-1.63869 1.83789,-3.0183 5.72071,-3.73633 1.79913,-0.33271 3.07344,8.3e-4 4.14062,0.7539 1.06719,0.75308 1.88536,2.02951 2.5625,3.63086 1.31483,3.10938 1.84144,7.01531 1.9707,11.89551 2.79758,-2.78192 1.85226,-8.90488 0.36133,-12.78808 -0.74546,-1.94162 -1.85257,-3.65237 -3.45507,-4.78321 -1.20189,-0.8481 -2.67403,-1.32411 -4.32422,-1.32617 -0.55007,-6.9e-4 -1.12116,0.0499 -1.70703,0.1582 -4.40248,0.81411 -6.91118,2.87012 -7.66993,5.50782 -0.75874,2.63769 -0.50877,6.6659 2.84643,7.69518 -1.37744,-3.06172 -0.91741,-5.36899 -0.44604,-7.00768 z m 0.41884,138.25145 c 0.69214,-7.38442 -0.78953,-10.74948 -0.64357,-21.46376 l -2.65417,4.56192 c 1.39525,6.83747 1.14616,13.8025 0.59613,18.74267 -0.55004,4.94017 0.30079,8.88575 2.13217,8.48192 1.83138,-0.40383 -0.1227,-2.93833 0.56944,-10.32275 z m -42.35634,59.95167 -2.49414,0.14649 c 0,0 0.25046,6.56651 5.90918,8.16796 -2.95375,-2.99188 -3.41504,-8.31445 -3.41504,-8.31445 z m -40.20117,1.43164 -1.07812,2.25195 c 0,0 3.82152,1.76836 7.65917,6.92774 -1.90398,-6.89807 -6.58105,-9.17969 -6.58105,-9.17969 z m 31.92578,0.78321 -2.38281,0.75195 c 0.44494,1.4087 1.01037,5.37696 1.43847,9.08008 2.15062,-3.76103 1.57557,-7.83353 0.94434,-9.83203 z"
           transform="scale(0.26458333)"
           sodipodi:nodetypes="cccccccccccsccccccccccccscssccsczsczsczzsszzsssccsscsscsscscccccscsccssccccssccczcczzzcccccccccccc" />
        <path
           style="fill:none;fill-opacity:1;stroke:#000000;stroke-width:0.661458;stroke-linecap:butt;stroke-linejoin:miter;stroke-miterlimit:4;stroke-opacity:1"
           d="m 104.43506,38.368303 c -0.46176,0.899266 -0.42304,1.719042 -0.27925,2.467031"
           id="path2118" />
        <path
           id="path1453-1-9-2"
           style="fill:none;fill-opacity:1;stroke:#000000;stroke-width:0.661458;stroke-linecap:butt;stroke-linejoin:miter;stroke-miterlimit:4;stroke-opacity:1"
           d="m 90.346066,81.901386 c 0.828898,-0.121101 1.915839,-0.430865 2.836958,-1.460279 0.921119,-1.029413 1.443448,-2.636747 0.918748,-4.879324 -0.5247,-2.242577 -1.326471,-3.010615 -1.661089,-3.934526 -0.334618,-0.923911 -0.385121,-1.962934 -0.291123,-2.744387 0.094,-0.781453 -0.612959,-1.241011 -1.134422,-0.91311 M 77.293799,38.572574 c -0.388778,-2.123847 0.556305,-4.303 1.427752,-5.672657 m 6.107392,9.457804 c 0.768273,-0.567551 0.752558,-1.082897 0.905197,-2.008437 0.152639,-0.92554 1.173489,-0.881722 1.495567,-0.191398 m -21.293122,1.859451 c -0.150942,-1.000619 0.893759,-1.414442 1.604316,-0.931385 0.710557,0.483058 1.481051,0.700814 2.578844,0.411514 m -5.788302,-4.096433 c 0.752728,1.054478 1.401652,2.789332 1.605142,4.616304 M 47.17075,57.749445 c -1.2003,-0.01134 -2.415272,-0.422847 -3.052667,-0.780069 m 7.214925,-13.768068 c 1.204243,0.293133 3.144098,1.506012 3.650989,3.570227 0.47215,1.922737 0.50279,3.561826 -1.098422,4.532838 m 11.386262,3.804921 c -0.713087,-1.597758 0.522925,-2.155842 1.417531,-1.584504 0.894606,0.571338 1.685202,0.78055 2.74597,0.743255 1.060769,-0.0373 2.004008,-0.192483 3.306852,-0.214664 m 3.290547,0.35512 c 2.855939,1.230682 4.137461,4.534192 3.285703,7.207537 M 55.406727,65.34926 C 52.066551,65.238176 50.25895,63.160817 50.023289,60.327066 m 0.172847,-3.543197 c 0.231398,-0.747745 0.625424,-1.438013 0.611521,-2.184511 -0.01354,-0.727126 -0.316333,-1.378384 -0.550362,-1.964492 -0.31275,-0.783258 0.377654,-1.442105 1.115425,-1.085199 0.73777,0.356906 1.233988,0.292311 2.512855,-0.245291 1.499734,-0.630449 2.594,-0.995391 4.580922,-1.319231 m 4.566145,25.153711 c -0.03545,2.191572 -0.68566,3.826623 -3.520613,4.347166 -2.834953,0.520543 -5.161199,-1.288617 -5.951313,-2.135975 m -2.801023,-9.746421 c -0.442255,-0.715887 0.0669,-1.490791 0.878773,-1.390594 0.811883,0.100196 1.843132,0.03364 3.159023,-0.586007 1.315891,-0.619648 2.840143,-1.279789 4.035157,-1.672792 m 3.420803,-0.328383 c 1.250688,0.370592 3.117644,1.345421 3.877159,3.347214 M 50.547052,80.023618 c -0.85541,-0.83897 -2.386746,-1.219834 -4.246523,-0.727842 -1.859776,0.491991 -3.166782,1.872668 -3.627644,3.478519 m 11.297023,10.183596 c -1.866316,-2.598879 -1.497434,-5.905154 0.05305,-7.666462 M 41.447995,69.083484 c 1.714942,-0.970281 4.715294,-1.982349 7.434291,-0.889716 m 24.244423,12.560344 c -0.05089,0.635492 -0.09883,1.509785 -1.074828,2.447354 -0.975999,0.937569 -2.977614,1.405561 -4.660048,0.826571 -1.682434,-0.57899 -3.23084,-2.283117 -3.856739,-4.535096 -0.625899,-2.251979 -0.462063,-3.166377 -0.502452,-4.354085 -0.04039,-1.187708 -0.20539,-1.930236 -0.647645,-2.646124 -0.442256,-0.715887 0.145556,-1.205261 0.802731,-1.086661 0.657174,0.1186 1.222689,0.122538 2.158547,-0.193189 m 0.678798,-4.749338 c -0.428538,-1.057901 -0.748245,-1.891352 -0.772411,-3.488891 m 11.292027,8.861756 c 1.053681,1.849167 1.801349,4.683793 0.194698,6.265255 M 62.370725,50.642852 c 1.253951,0.91053 2.268346,2.095704 2.367296,4.327475 m -9.861838,-4.635823 c 0.63259,0.110737 1.002586,0.172296 2.098113,-0.06167 m 9.715072,3.251956 c -1.061561,-0.953945 -1.413399,-2.084885 -1.58415,-3.781118 m 8.105071,-8.784618 c 0.456476,-0.05401 1.141339,-0.06816 1.645978,-0.03036 m -9.533114,-1.556261 c 0.417629,0.915824 0.755105,1.329545 1.569768,1.511867 m 25.373806,-7.769121 c 1.054101,2.981542 0.329089,5.748276 -2.66853,6.895773 m -8.893445,16.436434 c -0.51427,0.538378 -0.930099,1.246159 -1.264836,2.218394 m 13.213216,-4.446383 c -1.068259,0.280574 -1.897989,0.451209 -3.348869,0.305182 -1.45088,-0.146027 -3.146632,-0.348775 -5.376144,0.27023 m 9.832623,3.351775 c -0.239216,-1.096006 -0.177992,-1.738154 0.09733,-2.647329 0.11056,-0.365093 0.110285,-0.688596 0.0012,-0.926869 M 96.4581,47.162908 c -0.423961,0.650184 -0.685589,1.400985 -0.723663,2.481941 -0.03968,-1.957949 -0.46201,-3.034794 -1.534277,-4.083065 m 18.70852,5.30659 c -1.6822,0.216362 -2.17504,0.487588 -2.86378,0.990507 m -4.43841,7.762571 c 0.76778,-0.583696 1.56005,-1.266435 2.0164,-2.322625 m 0.55449,-2.238105 c 0.0921,-0.434362 0.16984,-0.852334 0.33379,-1.254406 0.32767,-0.803566 0.8649,-1.415391 1.53373,-1.947435 0.66883,-0.532044 0.36688,-1.232488 -0.36478,-1.368041 -0.73166,-0.135553 -1.35646,-0.386419 -1.95364,-1.28282 -0.26791,-0.402142 -0.43315,-0.7685 -0.65379,-1.201235 m -1.40886,-2.038016 c -1.01272,-1.000596 -1.66716,-1.202159 -2.68573,-1.336915 m 5.39803,20.758866 c 1.59505,0.08709 2.82871,0.710799 3.80873,1.448899 M 99.191375,59.634748 c 1.034645,0.718847 2.203185,0.860297 3.287105,0.870065 m -15.923147,8.181375 c 1.920364,0.04885 2.812922,0.250494 4.459805,-0.716428 1.646884,-0.966923 3.34112,-3.035916 3.323858,-5.326621 m -1.462319,9.868857 c 1.29692,1.918963 3.553848,2.590932 5.987939,1.772898 2.434094,-0.818034 3.321874,-2.128909 4.142534,-2.559926 0.82064,-0.431027 1.50613,-0.176737 2.29082,-0.156863 0.7847,0.01987 0.98603,-0.632094 0.34586,-1.342607 -0.64018,-0.710514 -0.54463,-1.706286 -0.53065,-3.759079 m -23.976981,3.735498 c -1.356028,0.966847 -2.199436,1.978267 -2.507072,4.038645 -0.307635,2.060378 0.508846,3.667389 1.353791,4.355681 M 100.76443,73.42451 c -0.0308,1.089036 0.31725,2.291172 1.28078,3.844813 M 51.851099,71.003934 c 0.284071,0.776256 0.389856,1.453902 0.400492,2.705262"
           sodipodi:nodetypes="cssssccccsccsccccccsccssccccccssssccsccssccccsccccccssssssccccccccccccccccccccsccscccccccccsszsccccccccsccssssccsccccc" />
        <path
           style="fill:#000000;fill-opacity:1;fill-rule:nonzero;stroke:none;stroke-linecap:butt;stroke-linejoin:miter;stroke-miterlimit:4;stroke-opacity:1"
           d="m 45.868164,118.91309 c 2.088468,-0.33823 3.145305,-0.43446 5.006621,-0.20649 -0.670665,-1.99938 -0.767769,-3.48441 -0.608838,-4.99425 -0.460973,0.76828 -0.77271,2.01649 -0.208875,3.98513 -2.334005,-1.6315 -3.109088,-3.41646 -5.263124,-3.72483 2.100329,1.20297 2.525251,2.52545 5.109481,4.18772 -1.472997,-0.0868 -2.80165,0.006 -4.035265,0.75272 z"
           id="path2420"
           sodipodi:nodetypes="ccccccc" />
        <path
           style="fill:#000000;fill-opacity:1;fill-rule:nonzero;stroke:none;stroke-linecap:butt;stroke-linejoin:miter;stroke-miterlimit:4;stroke-opacity:1"
           d="m 65.557572,120.93586 c -2.107116,-0.19013 -3.168114,-0.21156 -5.008718,0.14711 0.527994,-2.0417 0.520125,-3.52987 0.255113,-5.02475 0.514006,0.73386 0.912993,1.95698 0.489393,3.96048 2.213139,-1.79204 2.860414,-3.62721 4.987338,-4.08672 -2.010263,1.34809 -2.340863,2.69724 -4.801433,4.53762 1.463208,-0.19046 2.795098,-0.1916 4.078298,0.46629 z"
           id="path2426"
           sodipodi:nodetypes="ccccccc" />
        <path
           style="fill:#000000;fill-opacity:1;fill-rule:nonzero;stroke:none;stroke-linecap:butt;stroke-linejoin:miter;stroke-miterlimit:4;stroke-opacity:1"
           d="m 49.836519,130.08775 c 2.110549,0.14721 3.171763,0.14704 5.004687,-0.24901 -0.486332,2.05202 -0.448177,3.53972 -0.152796,5.0289 -0.528835,-0.72325 -0.952633,-1.938 -0.569896,-3.9497 -2.176209,1.83671 -2.786,3.68467 -4.903132,4.18737 1.982411,-1.38872 2.285484,-2.74432 4.708089,-4.6344 -1.459029,0.2202 -2.79062,0.24845 -4.086944,-0.38319 z"
           id="path2428"
           sodipodi:nodetypes="ccccccc" />
        <path
           style="fill:#000000;fill-opacity:1;fill-rule:nonzero;stroke:none;stroke-width:1;stroke-linecap:butt;stroke-linejoin:miter;stroke-miterlimit:4;stroke-opacity:1"
           d="m 63.740102,88.83989 c -1.715935,-1.168067 -2.531276,-1.809154 -3.686226,-3.203493 -0.939544,1.781924 -1.920956,2.837802 -3.100955,3.739367 0.869213,-0.20509 1.972262,-0.830069 2.96561,-2.520182 0.496746,2.646483 -0.217345,4.354994 1.087738,5.998345 -0.634529,-2.204542 1.4e-4,-3.370717 -0.651784,-6.20473 0.98019,1.040972 1.985309,1.86575 3.385617,2.190693 z"
           id="path2420-6"
           sodipodi:nodetypes="ccccccc" />
        <path
           style="fill:#000000;fill-opacity:1;fill-rule:nonzero;stroke:none;stroke-linecap:butt;stroke-linejoin:miter;stroke-miterlimit:4;stroke-opacity:1"
           d="m 47.264507,86.472649 c 1.653503,-0.766786 2.541967,-1.012645 4.044221,-1.369415 -1.490915,2.42622 -2.475084,4.110939 -2.655794,6.27942 1.07692,-2.167662 2.10347,-4.012636 3.854309,-7.191412 -1.661473,0.184808 -3.606116,0.660729 -5.242736,2.281407 z"
           id="path2420-5"
           sodipodi:nodetypes="ccccc" />
        <path
           style="fill:#000000;fill-opacity:1;fill-rule:nonzero;stroke:none;stroke-width:1;stroke-linecap:butt;stroke-linejoin:miter;stroke-miterlimit:4;stroke-opacity:1"
           d="m 43.65392,78.977527 c 2.094602,-0.887522 3.17371,-1.258389 5.175932,-1.496478 -1.211916,-1.916515 -1.693239,-3.442592 -1.913513,-5.060081 -0.28488,0.920297 -0.291122,2.303639 0.801359,4.215381 -2.854942,-1.106788 -4.121054,-2.772657 -6.449551,-2.543649 2.501269,0.719024 3.283369,1.991474 6.40751,3.066383 -1.560557,0.28618 -2.92442,0.723001 -4.021737,1.818444 z"
           id="path2420-9"
           sodipodi:nodetypes="ccccccc" />
        <path
           style="fill:#000000;fill-opacity:1;fill-rule:nonzero;stroke:none;stroke-width:1;stroke-linecap:butt;stroke-linejoin:miter;stroke-miterlimit:4;stroke-opacity:1"
           d="m 68.399076,79.943511 c 2.239264,-0.460505 3.37583,-0.612646 5.395712,-0.451511 -0.815333,-2.127907 -0.987968,-3.726709 -0.885319,-5.363987 -0.46259,0.85048 -0.742151,2.212278 -0.04355,4.311877 -2.594277,-1.654804 -3.51255,-3.546456 -5.852123,-3.781025 2.322435,1.202831 2.84156,2.611177 5.707383,4.287776 -1.594208,-0.02646 -3.024382,0.134389 -4.322098,0.99687 z"
           id="path2468"
           sodipodi:nodetypes="ccccccc" />
        <path
           style="fill:#000000;fill-opacity:1;fill-rule:nonzero;stroke:none;stroke-width:1;stroke-linecap:butt;stroke-linejoin:miter;stroke-miterlimit:4;stroke-opacity:1"
           d="m 44.343643,67.348551 c 2.130761,-0.796815 3.22479,-1.12103 5.235385,-1.272975 -1.128552,-1.966758 -1.543941,-3.512085 -1.694597,-5.137537 -0.324112,0.907223 -0.389715,2.289023 0.619718,4.245887 -2.804814,-1.228287 -3.998269,-2.946957 -6.334449,-2.818087 2.468108,0.825704 3.19488,2.130545 6.270014,3.338536 -1.571401,0.218945 -2.952754,0.596834 -4.096071,1.644176 z"
           id="path2420-9-4"
           sodipodi:nodetypes="ccccccc" />
        <path
           style="fill:#000000;fill-opacity:1;fill-rule:nonzero;stroke:none;stroke-width:1;stroke-linecap:butt;stroke-linejoin:miter;stroke-miterlimit:4;stroke-opacity:1"
           d="m 57.662173,74.459308 c 2.104535,-0.863706 3.18778,-1.222308 5.192574,-1.437671 -1.190099,-1.930138 -1.654081,-3.461577 -1.855993,-5.08146 -0.295301,0.917005 -0.317234,2.300188 0.753492,4.224199 -2.842204,-1.1391 -4.089338,-2.819224 -6.420284,-2.616643 2.492953,0.747351 3.260569,2.02859 6.372317,3.138867 -1.563703,0.26846 -2.932434,0.689783 -4.042106,1.772708 z"
           id="path2490"
           sodipodi:nodetypes="ccccccc" />
        <path
           style="fill:#000000;fill-opacity:1;fill-rule:nonzero;stroke:none;stroke-width:1;stroke-linecap:butt;stroke-linejoin:miter;stroke-miterlimit:4;stroke-opacity:1"
           d="m 54.597369,60.235991 c 2.25564,-0.295199 3.39462,-0.364053 5.387609,-0.05816 -0.655396,-2.170765 -0.711185,-3.769974 -0.490986,-5.387474 -0.520561,0.810629 -0.896428,2.141944 -0.354841,4.276178 -2.455101,-1.829796 -3.229733,-3.773531 -5.534693,-4.175409 2.217975,1.361592 2.6314,2.796822 5.354424,4.667874 -1.580261,-0.14147 -3.011264,-0.08519 -4.361513,0.676991 z"
           id="path2492"
           sodipodi:nodetypes="ccccccc" />
        <path
           id="path2494"
           style="fill:#000000;fill-opacity:1;fill-rule:nonzero;stroke:none;stroke-width:3.77953;stroke-linecap:butt;stroke-linejoin:miter;stroke-miterlimit:4;stroke-opacity:1"
           d="m 190.28516,179.47656 c -1.40451,3.16449 -2.04165,8.01651 0.69531,15.07032 l 2.05078,-0.41016 c -1.97002,-5.35299 -2.66196,-9.94294 -2.74609,-14.66016 z m -21.94141,3.77149 c 8.60771,3.61327 11.198,8.41164 21.05469,13.52343 l 0.91015,-1.74023 c -9.40262,-5.30499 -13.45749,-11.61744 -21.96484,-11.7832 z m 21.16406,14.47265 c -5.36187,0.46568 -10.16611,1.60729 -14.37304,4.91992 6.0543,-1.76238 9.94075,-2.71948 14.58593,-3.10937 z"
           transform="scale(0.26458333)" />
        <path
           style="fill:#000000;fill-opacity:1;fill-rule:nonzero;stroke:none;stroke-width:1;stroke-linecap:butt;stroke-linejoin:miter;stroke-miterlimit:4;stroke-opacity:1"
           d="m 55.883316,45.329378 c 2.268384,0.171721 3.397418,0.336951 5.285917,1.043453 -0.198214,-2.258866 0.0738,-3.835757 0.619723,-5.374187 -0.675153,0.68722 -1.31501,1.913703 -1.220744,4.113563 -2.029622,-2.292664 -2.390929,-4.353639 -4.56522,-5.21782 1.893124,1.785898 2.004696,3.275313 4.288168,5.663085 -1.518055,-0.461247 -2.930388,-0.698427 -4.407844,-0.228094 z"
           id="path2492-8"
           sodipodi:nodetypes="ccccccc" />
        <path
           style="fill:#000000;fill-opacity:1;fill-rule:nonzero;stroke:none;stroke-width:1;stroke-linecap:butt;stroke-linejoin:miter;stroke-miterlimit:4;stroke-opacity:1"
           d="m 74.216798,45.717841 c -0.07982,2.273473 -0.04027,3.413849 0.45337,5.368814 -2.223163,-0.446439 -3.820448,-0.350218 -5.409753,0.02249 0.75757,-0.595138 2.04721,-1.095646 4.223207,-0.759035 -2.054521,-2.27038 -4.062994,-2.857061 -4.681792,-5.113483 1.565926,2.078755 3.033912,2.354115 5.154927,4.887293 -0.290794,-1.559705 -0.370565,-2.989591 0.260041,-4.406074 z"
           id="path2519"
           sodipodi:nodetypes="ccccccc" />
        <path
           style="fill:#000000;fill-opacity:1;fill-rule:nonzero;stroke:none;stroke-width:1;stroke-linecap:butt;stroke-linejoin:miter;stroke-miterlimit:4;stroke-opacity:1"
           d="m 74.320838,59.516257 c -0.396896,2.239983 -0.517174,3.374688 -0.301712,5.379468 -2.138909,-0.752881 -3.733958,-0.880925 -5.359762,-0.734083 0.833337,-0.483375 2.180287,-0.798659 4.287849,-0.161122 -1.716913,-2.535328 -3.623633,-3.397057 -3.920877,-5.717832 1.259909,2.277274 2.674977,2.755172 4.420989,5.560014 -0.06987,-1.585042 0.05106,-3.012037 0.873512,-4.32644 z"
           id="path2521-6"
           sodipodi:nodetypes="ccccccc" />
        <path
           style="fill:#000000;fill-opacity:1;fill-rule:nonzero;stroke:none;stroke-width:1;stroke-linecap:butt;stroke-linejoin:miter;stroke-miterlimit:4;stroke-opacity:1"
           d="m 84.656737,59.79048 c -0.01471,2.274826 -0.101605,3.412574 -0.676044,5.345341 2.239792,-0.353685 3.831699,-0.191182 5.404146,0.247238 -0.732188,-0.626101 -1.999919,-1.179759 -4.188023,-0.933848 2.147078,-2.183057 4.178192,-2.685783 4.890207,-4.914546 -1.650943,2.011898 -3.129102,2.226028 -5.353535,4.668893 0.355345,-1.546276 0.494456,-2.971614 -0.07675,-4.413073 z"
           id="path2523"
           sodipodi:nodetypes="ccccccc" />
        <path
           id="path2494-5"
           style="fill:#000000;fill-opacity:1;fill-rule:nonzero;stroke:none;stroke-width:1;stroke-linecap:butt;stroke-linejoin:miter;stroke-miterlimit:4;stroke-opacity:1"
           d="m 90.995773,50.545497 c -0.910903,0.09681 -2.106963,2.111846 -3.361166,3.672141 l 0.365283,0.415647 c 0.965944,-1.159559 1.926129,-3.444461 2.995883,-4.087788 z m -3.766848,-3.920971 c 0.310798,2.450342 -0.446007,4.59014 -0.313343,7.524908 l 0.519154,-0.02167 c -0.02832,-2.856283 0.881658,-5.531969 -0.205811,-7.503238 z m -0.516376,7.675543 c -0.816034,-1.166991 -1.713179,-3.635933 -3.028763,-4.161657 1.204758,1.154109 1.938209,3.43716 2.642066,4.449959 z"
           sodipodi:nodetypes="cccccccccccc" />
        <path
           style="fill:#000000;fill-opacity:1;fill-rule:nonzero;stroke:none;stroke-width:1;stroke-linecap:butt;stroke-linejoin:miter;stroke-miterlimit:4;stroke-opacity:1"
           d="m 99.903386,64.9232 c -1.816821,0.762321 -2.75256,1.080245 -4.487395,1.280372 1.043811,1.663563 1.456049,2.98675 1.641906,4.388319 0.249531,-0.796198 0.259134,-1.994284 -0.681248,-3.65335 2.46929,0.967254 3.560817,2.413902 5.578221,2.222637 -2.164176,-0.630349 -2.837681,-1.734784 -5.540219,-2.675247 1.352459,-0.24312 2.53502,-0.617311 3.488725,-1.562728 z"
           id="path2523-5"
           sodipodi:nodetypes="ccccccc" />
        <path
           style="fill:#000000;fill-opacity:1;fill-rule:nonzero;stroke:none;stroke-width:1;stroke-linecap:butt;stroke-linejoin:miter;stroke-miterlimit:4;stroke-opacity:1"
           d="m 113.28303,55.799545 c -1.61893,1.59815 -2.48489,2.341212 -4.25775,3.301694 1.83386,1.333678 2.8446,2.574235 3.64648,3.996128 -0.075,-0.960457 -0.57995,-2.248373 -2.30105,-3.621708 3.06187,-0.02544 4.85356,1.055291 6.93301,-0.01721 -2.59003,0.255229 -3.78666,-0.638575 -7.08693,-0.484118 1.34465,-0.842112 2.45088,-1.751613 3.06621,-3.17482 z"
           id="path2523-2"
           sodipodi:nodetypes="ccccccc" />
        <path
           style="fill:#000000;fill-opacity:1;fill-rule:nonzero;stroke:none;stroke-width:1;stroke-linecap:butt;stroke-linejoin:miter;stroke-miterlimit:4;stroke-opacity:1"
           d="m 100.98249,50.012166 c -0.75667,1.978456 -1.204468,2.941966 -2.337285,4.439175 2.068375,0.424047 3.403115,1.08627 4.630655,1.982676 -0.4336,-0.785284 -1.35783,-1.682512 -3.345887,-2.183619 2.585737,-1.201176 4.520907,-0.975306 5.870477,-2.685589 -2.09724,1.214189 -3.45597,0.917523 -6.194096,2.319913 0.815426,-1.231895 1.402786,-2.429062 1.376096,-3.872574 z"
           id="path2574"
           sodipodi:nodetypes="ccccccc" />
        <path
           style="fill:#000000;fill-opacity:1;fill-rule:nonzero;stroke:none;stroke-width:1;stroke-linecap:butt;stroke-linejoin:miter;stroke-miterlimit:4;stroke-opacity:1"
           d="m 111.50957,45.588486 c -1.88721,-0.961914 -2.86515,-1.37724 -4.70921,-1.729877 1.2515,-1.700502 1.79879,-3.086342 2.10959,-4.574225 0.20419,0.873493 0.11911,2.158787 -1.02114,3.862697 2.7244,-0.840518 4.00979,-2.304654 6.15751,-1.939043 -2.37045,0.503591 -3.18045,1.634107 -6.15279,2.427332 1.43068,0.36829 2.66877,0.86359 3.61602,1.953156 z"
           id="path2576"
           sodipodi:nodetypes="ccccccc" />
        <path
           style="fill:#000000;fill-opacity:1;fill-rule:nonzero;stroke:none;stroke-width:1;stroke-linecap:butt;stroke-linejoin:miter;stroke-miterlimit:4;stroke-opacity:1"
           d="m 94.297486,37.561594 c 1.135651,1.788059 1.64137,2.72246 2.166384,4.525034 1.57487,-1.406326 2.902905,-2.0819 4.35483,-2.531667 -0.888858,-0.120888 -2.160398,0.08506 -3.749149,1.380953 0.579778,-2.791538 1.916142,-4.209307 1.349563,-6.312963 -0.277739,2.407384 -1.326806,3.320413 -1.836118,6.354324 -0.501604,-1.38956 -1.11148,-2.575407 -2.285544,-3.415657 z"
           id="path2578"
           sodipodi:nodetypes="ccccccc" />
        <path
           style="fill:#000000;fill-opacity:1;fill-rule:nonzero;stroke:none;stroke-width:1;stroke-linecap:butt;stroke-linejoin:miter;stroke-miterlimit:4;stroke-opacity:1"
           d="m 74.417629,33.884605 c -0.803015,1.960112 -1.136274,2.96897 -1.335635,4.83583 -1.797921,-1.106999 -3.224174,-1.538137 -4.732615,-1.725179 0.853677,-0.275533 2.141613,-0.296733 3.93375,0.699115 -1.062328,-2.645805 -2.627486,-3.806071 -2.440233,-5.976628 0.697358,2.320847 1.89082,3.034857 2.926468,5.931656 0.249052,-1.456178 0.640559,-2.730896 1.648298,-3.764775 z"
           id="path2580"
           sodipodi:nodetypes="ccccccc" />
        <path
           id="path2494-3"
           style="fill:#000000;fill-opacity:1;fill-rule:nonzero;stroke:none;stroke-width:1;stroke-linecap:butt;stroke-linejoin:miter;stroke-miterlimit:4;stroke-opacity:1"
           d="m 81.379877,37.150466 c 0.904921,-0.142246 3.04793,0.913393 4.448393,2.633014 l -0.245259,0.496026 c -1.179437,-1.514561 -3.003325,-2.784507 -4.203134,-3.12904 z m 2.84237,-4.006505 c 0.333987,2.447289 1.436625,3.518437 2.068056,6.387541 l -0.507072,0.113436 c -0.711902,-2.766289 -2.101197,-4.31542 -1.560984,-6.500977 z m 2.249447,6.399929 c 0.106403,-1.718218 1.068959,-4.121144 2.203649,-4.969453 -0.865001,1.426599 -1.375746,2.84803 -1.755509,5.147847 z"
           sodipodi:nodetypes="cccccccccccc" />
        <path
           style="fill:#000000;fill-opacity:1;fill-rule:nonzero;stroke:none;stroke-width:1;stroke-linecap:butt;stroke-linejoin:miter;stroke-miterlimit:4;stroke-opacity:1"
           d="m 97.381768,80.80688 c 0.02493,-0.762147 -1.205072,-2.209258 -2.962131,-2.890372 l -0.430241,0.324103 c 1.541161,0.556574 2.931904,1.692741 3.392372,2.566269 z"
           id="path2494-3-8" />
        <path
           style="fill:#000000;fill-opacity:1;fill-rule:nonzero;stroke:none;stroke-linecap:butt;stroke-linejoin:miter;stroke-miterlimit:4;stroke-opacity:1"
           d="m 74.285156,108.35156 -0.509765,-0.14453 c -0.186496,0.65274 -0.549497,1.21226 -1.249024,1.84472 0.817382,0.039 1.515607,-0.84905 1.758789,-1.70019 z m 0.322266,1.06836 -0.359805,-0.20877 c -0.283566,1.08701 -1.560117,2.12967 -1.560117,2.12967 0,0 1.407056,0.10839 1.919922,-1.9209 z m 0.273437,1.45682 -0.367617,-0.4833 c -0.296093,1.48046 -1.557187,2.34386 -1.557187,2.34386 0,0 1.348508,0.10946 1.924804,-1.86056 z m -1.969297,3.67925 c 0.971172,0.42227 1.676824,-0.62906 1.602109,-1.55013 -0.465409,0.61677 -0.984392,1.05417 -1.602109,1.55013 z m 0.107422,1.34374 c 0.07009,0.14019 1.523274,0.62368 1.708555,-1.1761 -0.678623,0.9591 -1.708555,1.1761 -1.708555,1.1761 z m 0.205625,1.56414 c 0.909999,0.47316 1.777319,-0.54146 1.71875,-1.39649 -0.478256,0.68277 -0.990114,1.05588 -1.71875,1.39649 z m 0.147129,1.51866 c 0.824631,0.38376 1.542544,-0.45899 1.51791,-1.14366 -0.466888,0.51133 -0.97915,0.87487 -1.51791,1.14366 z"
           id="path2673-4"
           sodipodi:nodetypes="cccccccccccccccccccccccc" />
        <path
           id="path1394"
           style="fill:none;fill-opacity:1;stroke:#000000;stroke-width:2.50001;stroke-linecap:butt;stroke-linejoin:miter;stroke-miterlimit:4;stroke-opacity:1"
           d="m 598.16991,611.58789 c -3.45895,-2.0787 -5.37593,-4.42511 -11.0332,-4.55664 -8.7289,-0.20296 -45.66016,-1.73047 -45.66016,-1.73047 -1.07316,2.62001 -5.85457,3.13606 -9.66211,3 -3.80753,-0.13606 -7.2606,-0.22601 -9.02734,4.88867 -1.87933,5.44063 -12.99219,7.30664 -12.99219,7.30664 l -14.20898,-10.75976 -17.45899,2.77539 c -2.41149,-0.17651 -4.04582,0.73687 -8,0.0937 2.51687,-2.47548 3.95471,-4.45789 3.33203,-8.21289 -0.62263,-3.755 -3.72014,-6.86468 -6.56836,-6.5918 1.41498,4.63438 0.28722,7.54431 -4.30468,9.61719 -4.59171,2.07288 -4.28932,3.72018 -8.1836,5.74219 -1.32525,-3.11501 0.56462,-4.69876 -1.14648,-7.89454 -3.27798,0.23585 -4.81085,2.15225 -7.89648,6.88868 -1.92507,-5.75071 0.25928,-11.96446 5.35937,-14.1875 -2.79364,-2.93723 -7.77688,-1.77071 -11.31641,1.69531 -3.53945,3.46605 -5.01589,7.39856 -6.65039,11.8457 -2.55035,-1.9426 -2.188,-4.63594 -4.69726,-6.77734 -2.75656,1.90711 -3.40058,4.55453 -3.08008,7.85742 -2.77928,-0.41155 -3.77544,-0.69937 -8.08399,-2.14844 -4.30853,-1.44907 -9.55359,-0.74534 -13.01953,0.83008 -3.46594,1.57557 -7.48441,-0.65171 -14.01562,-0.94726 -6.53121,-0.29556 -10.24025,-1.96182 -18.64063,-1.53125 -8.40038,0.43056 -38.56836,-7.3086 -38.56836,-7.3086 l -7.66992,6.50586 c -2.14749,-0.32957 -4.2681,-0.13303 -6.91211,0.46289 -2.64398,0.59584 -3.65429,-0.60753 -3.65429,-3.85547 0,-3.24797 -0.15027,-8.23037 0.99804,-28.03906 1.14833,-19.80865 1.43563,-38.46855 2.29688,-57.12891 0.86124,-18.66032 2.00789,-45.64651 2.86914,-66.3164 0.86125,-20.66994 0.57423,-31.00417 0.86133,-33.58789 0.28709,-2.58376 2.69337,-1.46524 2.98047,-5.77149 0.28709,-4.30624 1.90039,-48.77539 1.90039,-48.77539 0,0 -2.52172,-7.40942 -2.82813,-12.8164 -0.30641,-5.407 0.16743,-10.37027 -0.10156,-15.39258 L 352.5,321.74414 c 9.33126,1.79213 13.27506,0.51718 17.13477,-2.05859 3.8597,-2.57578 6.57142,-2.43645 8.85546,-1.27149 2.28405,1.16497 5.04619,-0.60347 3.88282,-3.48437 -1.16338,-2.88091 -1.81522,-5.25531 0.43164,-9.37696 2.24685,-4.12164 3.61051,-8.30248 2.8789,-13.51171 4.24135,5.24101 11.609,9.88435 23.49414,6.39843 11.88514,-3.48591 15.35876,-9.50594 20.63672,-12.7539 5.27796,-3.24797 0.406,-6.04101 0,-15.37891 -0.40599,-9.3379 -0.24875,-12.58334 -5.80859,-17.68359 4.99948,0.1734 10.87424,-0.7142 16.58008,-4.75586 5.70584,-4.04167 7.44956,-8.83236 9.60937,-12.11133 2.15981,-3.27897 5.19821,-4.29523 8.19727,-5.21094 2.99905,-0.9157 2.13124,-3.86328 0.0957,-5.23633 -2.03554,-1.37304 -3.97347,-2.70028 -5.41211,-6.02734 -1.43864,-3.32707 -1.98508,-7.41985 -6.74805,-15.81055 -4.76295,-8.39069 -13.22801,-12.03063 -19.58593,-11.21289 7.29917,-2.97252 10.37315,-7.10713 12.88476,-13.75781 2.51161,-6.65068 2.4462,-11.68277 3.54688,-16.05078 1.10067,-4.368 2.46004,-5.66003 5.69531,-7.19141 3.23528,-1.53138 1.42483,-4.60915 -0.87305,-4.78125 -2.29534,-0.17197 -6.0108,-0.5228 -8.77734,-2.48828 -2.76654,-1.96549 -4.9737,-4.26465 -12.20703,-8.49805 -7.23334,-4.2334 -16.35151,-4.1185 -21.7207,-2.36328 -5.36924,1.75523 -8.83094,4.48792 -10.57618,7.88672 -0.24529,-6.05638 -1.22464,-10.41274 -3.27734,-14.58203 -2.0527,-4.16929 -5.36053,-7.25855 -9.16406,-10.26172 -3.80357,-3.00316 -5.58205,-5.72745 -6.08594,-8.89453 -0.50389,-3.16708 -4.16097,-4.37217 -6.21484,-0.93555 -2.05387,3.43663 -4.45424,4.74963 -9.49805,6.91016 -5.04381,2.16053 -8.07983,3.2691 -11.75,7.91016 -2.94917,-7.19705 -8.88421,-10.94522 -18.45117,-11.33985 -9.56697,-0.39462 -13.09444,-1.20053 -15.72656,-4.04687 -2.63214,-2.84635 -4.13206,-5.83015 -7.00391,-4.82032 -2.87185,1.00985 -0.70035,4.83858 -2.36719,8.56446 -1.66684,3.72588 -3.13484,4.09714 -7.64648,10.82812 -3.27428,-8.81537 -7.44474,-13.15828 -15.17188,-14.99414 -7.72714,-1.83584 -12.22345,-1.13213 -15.70117,-2.14258 -3.47772,-1.01044 -6.06726,-2.81411 -8.10156,-4.88867 -0.63572,-0.6483 -1.4495,-0.96828 -2.24414,-0.99414 -1.74821,-0.0569 -3.40189,1.30421 -2.84766,3.69922 0.80615,3.48366 -0.005,6.50819 -1.5332,9.30664 -1.52865,2.79845 -4.12027,5.82127 -7.31836,11.29102 -3.19809,5.46974 -2.85225,11.63092 -1.46875,15.73437 -5.34454,-7.24648 -13.43702,-7.42119 -21.3125,-6.58594 -7.87548,0.83526 -12.53525,0.98289 -16.92188,-2.27539 -4.38663,-3.25827 -7.92462,-0.57171 -6.78515,3.35157 1.13946,3.92327 0.99864,6.61641 -0.93164,10.92187 -1.93028,4.30546 -5.07463,7.53518 -3.17774,16.51172 -4.55146,-1.10789 -8.61142,-1.11837 -14.58398,0.22266 -5.97257,1.34102 -10.63823,4.21203 -13.80664,4.84375 -3.16842,0.63171 -5.28353,0.38376 -7.65625,-0.0586 -2.37273,-0.44236 -4.6142,1.4215 -3.14453,4.13282 1.46966,2.7113 3.58162,4.65713 3.53711,8.29882 -0.0445,3.6417 -3.04787,9.08839 -1.56836,19.06836 1.21706,8.20968 4.69092,12.5771 9.95507,15.52735 -4.02026,0.002 -7.02676,1.24835 -10.96875,4.35156 -3.94198,3.10321 -5.92229,5.08487 -8.30468,6.39453 -2.38239,1.30966 -4.7239,1.69084 -6.78321,1.91406 -2.05931,0.22322 -3.11569,2.9318 -1.10742,4.81055 2.00828,1.87875 3.85899,2.45808 5.36719,6.39453 1.5082,3.93645 2.0558,7.38629 4.25586,12.71875 2.20006,5.33246 5.24717,7.51127 7.44922,9.20313 -6.48167,3.6672 -8.14437,5.2045 -10.97852,6.48828 -2.83415,1.28378 -4.88603,1.2953 -7.59766,1.20312 -2.71162,-0.0922 -4.34122,2.73173 -2.21289,5.13281 2.12834,2.40109 4.44066,3.87346 5.25391,7.57422 0.81325,3.70077 0.3403,11.06545 3.7168,18.86719 3.37653,7.80174 10.09197,12.59663 16.44726,12.47852 -1.74184,6.06935 -1.9837,11.60142 0.74414,18.23242 2.72785,6.63099 4.21898,9.04481 8.20704,14.35351 3.98804,5.30871 5.2094,7.11991 4.87695,10.93164 -0.33245,3.81174 3.46218,4.70691 5.77929,2.71289 2.31713,-1.994 3.54642,-3.30203 7.875,-3.58984 4.3286,-0.28781 11.4743,0.23353 15.21485,-4.15234 6.85079,6.77756 12.46862,7.41412 17.01953,9.02734 4.55091,1.61322 7.66804,1.80542 8.74219,5.33203 1.07415,3.52662 5.52041,1.99495 5.5,-1.02148 -0.0204,-3.01643 0.52738,-4.71324 3.68164,-7.10352 3.15426,-2.39028 8.37725,-7.19241 11.73633,-11.04883 3.35907,-3.85642 5.05268,-8.69648 4.26953,-14.36718 4.59331,6.3158 7.45861,12.79586 10.04687,28.42187 2.58827,15.62601 3.63996,25.52713 4.01953,33.39649 -8.0383,3.73205 -10.03182,11.91893 -8.03906,23.54101 1.99276,11.62205 6.31642,19.2335 6.60352,30.7168 0.28709,11.48326 -0.31564,30.88514 -0.44922,46.34961 -0.13357,15.46443 -0.29786,24.47982 -1.43945,37.90039 -2.23298,-8.93189 -4.49794,-16.04734 -8.40626,-24.24219 -3.9083,-8.19485 -8.32293,-15.83425 -15.63085,-22.5332 -7.30792,-6.69891 -11.92381,-10.52095 -13.39844,-14.61524 -1.47463,-4.09428 -0.40474,-6.69982 1.41601,-8.25 0.90278,6.86087 3.35169,10.44592 8.36328,12.35352 5.01161,1.9076 10.18542,0.87835 15.27735,-2.50391 5.09193,-3.38226 8.58076,-8.98995 8.8457,-17.71484 0.26495,-8.72489 -2.45538,-13.19871 -3.03711,-17.68164 -0.58173,-4.48294 0.7448,-5.38054 1.84766,-8.14258 1.10286,-2.762 -1.25373,-4.29584 -3.47656,-3.60547 -2.22283,0.69052 -3.73463,1.45976 -6.86133,0.31446 -3.1267,-1.14528 -7.04093,-3.88713 -14.3418,-4.28711 -7.30086,-0.39995 -16.64119,0.35413 -21.65625,9.30859 -5.01506,8.95449 -3.35926,16.9642 -0.625,20.61719 2.73428,3.65295 5.53812,5.12782 9.87891,6.15234 -2.28469,2.69465 -3.63943,4.78958 -3.61524,9.04102 -10.07709,-11.14957 -13.58547,-11.95635 -22.38281,-19.9375 5.12049,-1.20855 8.66952,-2.94724 11.79688,-6.4043 3.12737,-3.45706 5.41386,-12.32728 0.0742,-21.86133 -5.33964,-9.53405 -17.41739,-10.8797 -26.79882,-8.63281 -9.38145,2.24693 -13.01425,4.28445 -16.67774,4.57812 -3.66348,0.29367 -5.37399,-0.19351 -7.99609,-1.00781 -2.62209,-0.81437 -5.40057,0.99577 -4.09961,4.25391 1.30096,3.25814 3.42963,5.73521 2.89648,9.84375 -0.53314,4.10853 -4.64914,9.86424 -4.30078,21.33594 0.34836,11.47168 6.0777,17.87861 12.58985,21.13671 6.51213,3.25811 14.83123,2.19201 20.04687,-2.55273 5.21565,-4.74474 5.86445,-7.39624 6.0625,-13.69531 11.55347,9.2615 16.2989,12.18178 25.68945,22.7832 -4.71809,0.48964 -7.25713,2.97964 -9.75976,6.9043 -0.78328,-4.86176 -1.9188,-8.00375 -4.93555,-11.15625 -3.01675,-3.15251 -10.07354,-5.80749 -19.33398,-1.46485 -9.26045,4.34264 -11.46179,13.59096 -10.13086,24.41602 0.98698,8.02756 3.10712,13.45695 3.39843,16.16797 0.29133,2.71105 -0.58844,3.46242 -1.52539,5.85547 -0.93694,2.39308 0.92924,5.32511 4.0586,4.33007 3.12936,-0.99499 3.25889,-2.22176 7.05859,-1.44726 3.79969,0.77454 8.73189,3.51682 19.79102,3.17969 11.05913,-0.33714 17.15632,-5.22781 20.63672,-11.08789 3.4804,-5.86005 2.3735,-14.1153 -1.25,-18.52344 -3.6235,-4.40825 -7.56664,-4.52372 -12.32422,-4.67188 1.73902,-2.36341 3.12716,-3.70439 5.75781,-4.59375 2.63065,-0.88936 5.20417,-0.78843 9.56055,2.35157 4.35638,3.13999 15.60408,13.20096 21.22461,30.81836 5.62053,17.61742 5.0761,26.84747 4.30664,34.73632 -0.76947,7.8889 -4.22514,11.90873 -2.58399,16.36328 1.64115,4.45456 6.71739,7.95125 7.75,12.91993 1.16295,5.59581 1.34462,13.64295 -5.16601,22.67968 -6.54436,9.08357 -16.61581,10.92878 -19.8086,4.5918 -3.19278,-6.33702 0.94685,-11.44381 6.18555,-12.63281 -1.34743,-3.02468 -6.06889,-3.54661 -9.79883,-0.95117 -3.72994,2.59544 -6.03784,6.98815 -6.11914,14.33593 -1.63585,-2.02129 -3.10021,-3.22512 -5.71875,-3.29882 -1.60862,1.81802 -2.07407,3.77933 -2.5039,5.82031 -6.04932,-11.75804 -16.76024,-10.52776 -21.92383,-6.4961 5.48749,2.32188 7.62961,5.34608 5.54101,11.46289 -5.62649,-7.07031 -9.30959,-8.53837 -15.6914,-8.21484 0.039,1.07104 0.39617,2.14189 0.80273,3.21289 -7.86498,-2.67507 -11.6923,-1.06127 -18.57031,-0.17773 m 126.0547,-466.17578 c 1.46939,8.02713 5.46524,12.78716 10.35546,15.05078 4.89023,2.26362 11.53697,2.65717 18.12305,-0.74414 -2.76017,2.28861 -9.74535,6.27222 -15.62695,13.20508 -5.8816,6.93284 -7.11056,15.78154 -4.51563,23.07031 2.59494,7.28876 7.44872,11.91557 16.73828,10.73047 -5.15068,1.43004 -9.12744,3.04669 -12.18359,6.24609 -5.44258,-10.63172 -9.33041,-16.10787 -18.7793,-23.36523 5.03632,0.028 8.95246,-1.34784 12.1875,-6.57032 3.23505,-5.22247 3.45046,-12.541 -0.47851,-19.11132 -3.92898,-6.57035 -8.42286,-9.11027 -15.0332,-9.60547 -0.53129,-2.53224 -1.15641,-4.10393 -2.23633,-6.70118 4.31613,0.51979 8.50899,0.51302 11.44922,-2.20507 z m -18.22071,3.94726 c 1.46478,1.62659 2.22287,3.18394 2.78711,5.07422 -4.6946,0.70864 -6.75534,0.93979 -11.68164,2.0332 4.65842,-1.70375 6.88298,-3.79251 8.89453,-7.10742 z m 64.72461,1.49024 c 1.03209,6.18054 4.09713,10.14607 8.40625,11.54882 4.30912,1.40275 8.38603,0.45819 12.40235,-1.66406 -1.49258,3.2432 -3.03628,6.57565 -3.41602,11.09375 -4.05266,-3.96197 -8.56493,-6.90584 -17.06445,-10.70703 -8.49952,-3.80119 -8.062,-7.51369 -9.2793,-9.7168 3.27082,0.69115 6.22327,0.45543 8.95117,-0.55468 z m 55.02149,3.11523 c 0.54345,2.82705 1.76958,6.44286 5.59375,9.36719 -4.28924,1.73468 -6.14124,2.70934 -10.04493,4.98242 -3.84971,-0.50931 -12.59141,0.2432 -16.8496,2.47852 -4.25821,2.23531 -6.1906,4.63049 -7.79297,7.08789 -0.99574,-8.1019 2.10533,-10.24996 3.18164,-16.29688 3.58811,3.53636 7.72406,5.08895 13.79101,4.22266 6.06694,-0.86629 10.69954,-3.75588 12.1211,-11.8418 z m -144.45118,4.46875 c 1.28666,6.71702 0.43786,9.71084 -0.84765,14.04688 -1.28551,4.33603 -2.25225,7.46105 -2.29492,15.15429 -3.58491,-4.44385 -5.01646,-8.4818 -9.98047,-12.72265 7.42066,-0.65917 13.89882,-6.93883 13.12304,-16.47852 z m 156.85352,11.80274 c -1.7158,3.53317 -2.8438,6.02866 -1.37833,10.83359 -1.41436,-2.56758 -3.1005,-5.13516 -5.32479,-7.70274 2.08588,-1.36473 4.31955,-2.39973 6.70312,-3.13085 z m -178.79297,10.4746 c 3.8937,3.4407 5.70536,6.30741 8.46289,10.32227 -4.57181,-3.31972 -9.19776,-2.91264 -14.75586,-2.48633 3.18556,-1.12138 5.27226,-3.26175 6.29297,-7.83594 z m 134.56055,6.55079 c -0.14389,4.0855 1.75152,9.21635 7.11328,12.73046 -6.73016,1.31701 -9.27899,2.28842 -14.19922,5.89258 -0.61449,-1.34207 -2.14238,-1.96858 -4.55859,-1.33398 5.44303,-2.32811 11.33498,-8.73097 11.64453,-17.28906 z m -82.1211,9.89843 c 3.39822,2.27902 5.78744,5.06273 7.65821,8.10547 -4.70185,-1.588 -7.51141,-1.42562 -12.43555,-1.34179 3.19048,-1.0869 4.21147,-3.19572 4.77734,-6.76368 z m -35.02929,10.22852 2.01758,0.52539 c 1.83388,5.46461 2.01435,8.77514 1.41992,13.82617 -0.59444,5.05103 -1.1529,8.13996 -1.49219,15.90039 -3.45623,-4.94373 -6.89926,-8.67092 -12.8457,-13.35351 6.88622,-1.68239 11.27437,-7.60216 10.90039,-16.89844 z m 164.17969,0.3418 c 1.36707,5.36568 2.20485,6.85599 3.48632,9.9707 0,0 -3.17606,-1.23411 -5.58203,-1.51172 0.96319,-2.85194 1.43684,-5.59652 2.09571,-8.45898 z m -38.14063,2.41796 c -1.7682,6.23099 -0.31843,11.79993 4.17773,14.86914 -12.84614,-0.58112 -18.86525,8.16134 -15.28125,21.39258 l -5.04101,-1.0332 c 3.11446,-8.13492 1.79551,-16.79989 -0.20313,-25.98242 4.9592,-5.94428 10.52721,-8.64879 16.34766,-9.2461 z M 189.0644,228.00781 c -1.07959,-3.42384 -3.74287,-8.65442 -10.78125,-9.74219 4.48462,-0.0641 8.17425,-0.33672 11.43453,-3.64942 -0.56109,3.71542 -1.39715,6.08511 -0.65328,13.39161 z m 220.44927,-0.58789 c -5.48583,5.38465 -4.02036,15.15616 0.0977,19.72656 -5.83778,-0.14305 -9.23818,1.28826 -12.33399,4.06446 0.0529,-7.75859 -3.44358,-17.69963 -9.95703,-22.53125 5.3147,0.037 7.98571,-0.93286 11.82225,-3.33789 3.88998,-0.0355 7.27322,0.44973 10.37107,2.07812 z m -184.46094,5.04492 c 4.31039,3.05661 7.12,4.90495 10.23633,8.01172 -4.72701,-1.40066 -8.4131,-0.24513 -12.92968,1.24024 1.53431,-2.96029 2.33668,-5.23538 2.69335,-9.25196 z m 74.73438,0.41407 c 1.19896,5.48036 4.62302,9.46776 11.42383,11.8457 -5.80611,4.05028 -9.48198,8.23618 -13.38282,17.46875 -2.30952,-7.62601 -5.98218,-12.89373 -11.13671,-19.02148 6.95443,-0.89239 11.49152,-5.36664 13.0957,-10.29297 z m -21.17383,18.32031 c 4.13067,3.75049 8.89423,9.14715 10.68945,20.30859 -4.05939,-6.70998 -13.23379,-9.79454 -24.00781,-8.57031 -10.77401,1.22423 -13.76431,5.22259 -18.3164,6.21289 2.99086,-1.9701 5.83545,-8.45761 2.96484,-16.02344 l -0.40039,-1.92578 c 1.90675,3.4242 7.42963,9.30373 15.9375,8.93945 8.50786,-0.36424 12.11062,-3.53919 13.13281,-8.9414 z m 71.97266,0.24414 c 2.5261,0.12027 3.76775,0.61997 5.90039,1.47656 -3.80728,1.12895 -6.74517,2.69574 -8.20508,7.42383 0.48803,-2.78733 -1.19226,-3.69202 -2.59766,-4.29883 z M 318.90625,251.75 c 0.69103,3.1421 2.13982,6.5072 8.23242,7.85156 -6.89884,-0.0587 -15.35727,2.0743 -20.48242,5.72852 3.10758,-6.47779 7.06677,-11.54065 12.25,-13.58008 z m -127.05859,3.75977 c 2.55913,3.71242 4.48156,5.93112 4.125,12.85156 -2.64539,-4.70925 -5.60017,-7.71757 -11.22071,-10.6211 3.17243,0.22423 5.19824,-0.24681 7.09571,-2.23046 z m 5.63867,23.07617 c 0.32264,5.89105 1.96101,10.55715 4.94726,13.75976 -4.26791,-1.57937 -8.29357,1.42138 -12.54297,-2.29882 4.56618,-2.00937 7.40053,-5.13363 7.59571,-11.46094 z m 92.55273,16.60156 c 0.15282,5.46038 0.10137,8.28345 0.8711,16.39258 -3.43113,-6.646 -5.42276,-9.83066 -8.90625,-12.81055 3.5145,-0.62858 5.85129,-1.51319 8.03515,-3.58203 z m 12.25782,1.86914 c 2.61932,2.02726 4.83683,2.61157 8.19335,2.96094 -3.32469,3.32392 -5.1406,5.44398 -7.63671,11.88476 -0.28763,-5.80962 -0.99124,-9.89733 -0.55664,-14.8457 z m -111.25196,5.39453 c 5.01211,2.21605 8.14248,0.44571 13.31055,2.04688 -3.69796,2.4284 -4.98011,3.18385 -8.35547,7.35156 -0.77698,-3.72733 -1.72203,-6.22753 -4.95508,-9.39844 z m 30.45899,5.28125 c 3.36484,0.0517 6.50168,0.79895 8.40234,1.99414 -2.18338,0.37247 -3.6177,1.17971 -4.98633,2.98633 -1.36863,1.80661 -1.55823,3.51816 -1.82812,7.13281 -4.86073,-4.32958 -13.05005,-4.14128 -18.91016,2.51563 -0.41638,-1.53786 -1.09811,-2.46586 -1.88476,-3.69922 3.05635,-5.68846 7.88093,-8.81728 13.12109,-10.2168 1.96506,-0.52482 4.06703,-0.74388 6.08594,-0.71289 z"
           transform="scale(0.26458333)"
           sodipodi:nodetypes="cscssccccscsccccscccssssccssssssscsccsssscssscsssssscssssssscssssscsssscssssssscsssscsssssscsssssscssssscssssscssssscscssscssscssssscsssscccsssssssssscccsssssssssscsssssssscscccccccccscsscccssccccccccsccscccccsccsccsccccccccccccccccccccccsccccccccccccccccccccccccccccccccccccsccccccccccccccccccccccccccccccscscccssss" />
      </g>
      <g
         id="g1346"
         transform="matrix(0.92639549,0,0,0.92639549,2.1836158,1.7061155)">
        <path
           style="fill:#d02927;fill-opacity:1;stroke:#000000;stroke-width:0.661458;stroke-linecap:butt;stroke-linejoin:miter;stroke-miterlimit:4;stroke-opacity:1"
           d="m 107.80853,72.058025 c -0.53499,2.111593 1.07656,4.142437 3.00492,4.467261 1.92835,0.324824 4.09993,-0.289124 6.09274,-1.028582 1.99281,-0.739458 3.24579,-1.536416 6.48817,-1.665599 -2.66266,-0.812521 -4.79435,-0.62308 -8.10834,0.01461 -3.31399,0.637689 -4.24948,0.09152 -4.7745,-0.594625 -0.52502,-0.686144 -0.60766,-1.867468 0.94295,-2.595574 -0.61761,-1.293171 -3.11095,-0.709084 -3.64594,1.402509 z"
           id="path1304"
           sodipodi:nodetypes="zzzczzcz" />
        <path
           id="path887"
           style="fill:#d02927;fill-opacity:1;stroke:#000000;stroke-width:2.5;stroke-linecap:butt;stroke-linejoin:miter;stroke-miterlimit:4;stroke-opacity:1"
           d="m 555.4375,352.08789 c 6.06185,21.35802 16.7371,35.21213 25.01172,51.91602 10.5905,21.37905 10.96004,31.47759 9.50976,42.0625 -0.91007,-7.05971 -2.09009,-12.6242 -8.4414,-22.85157 -6.35135,-10.22732 -13.00349,-13.37509 -25.98242,-27.32226 -12.97894,-13.94718 -12.32087,-29.99972 -2.41016,-41.51758 0.73133,-0.84993 1.50747,-1.60478 2.3125,-2.28711 z m -34.57759,-7.24706 c 2.49178,4.09163 8.8751,3.98989 9.84899,-0.56821 -6.32399,-1.28601 -5.51421,-7.95236 -2.46225,-11.74303 3.05196,-3.79067 6.38643,-7.11038 8.14437,-13.76332 5.11389,-2.50306 7.12289,-6.95155 6.81852,-16.66752 -0.30437,-9.71597 -2.68963,-17.16851 -3.12025,-28.79517 5.20856,-3.61214 7.46093,-6.5126 7.35026,-12.74735 -4.35628,-0.37881 -5.9667,-2.38808 -9.84899,-5.87151 -3.88229,-3.48343 -7.18576,-4.75103 -12.41198,-4.37222 4.3302,-2.32126 5.85256,-4.77971 5.625,-8.57143 -0.22756,-3.79172 -3.21836,-6.41448 -5.96619,-5.74418 1.62387,3.39975 0.30102,6.05215 -2.66512,7.38674 -2.96613,1.33459 -12.09396,0.32835 -20.00226,-1.10392 -7.90831,-1.43228 -8.3612,0.92458 -15.37024,0.99298 -7.00905,0.0684 -11.16749,-0.83787 -12.69005,0.1894 -1.52257,1.02726 -2.30474,2.87858 -3.6943,5.54052 -4.72557,-0.14986 -6.62913,0.54077 -10.98541,2.08344 -4.47774,1.58568 -7.77487,1.12199 -9.28078,2.65164 -1.50591,1.52966 -1.1889,3.70457 -1.2627,6.06092 -1.19767,0.3868 -2.18368,1.33368 -2.27858,3.84776 -0.0949,2.51409 -0.33421,6.96548 1.92274,8.89776 2.25696,1.93227 7.453,0.87145 15.55345,1.19504 8.10046,0.32359 15.24923,2.65796 19.21122,8.31703 3.96198,5.65907 3.10852,10.88202 1.61533,13.5688 -5.65908,-7.70163 -10.62384,-10.57228 -25.3125,-10.3125 -0.2665,-2.33265 -0.74211,-3.75235 -2.02815,-5.2514 -1.55675,0.10295 -4.1852,1.16655 -4.31113,5.65319 -2.36235,0.0892 -3.93905,0.42991 -5.14521,2.13088 -1.20613,1.70097 -0.98788,3.95248 -0.0482,5.62926 0.93968,1.67678 2.50431,2.62003 2.63698,4.16081 0.13267,1.54078 -0.96907,2.56729 -4.00081,2.44506 1.37459,4.16732 6.46369,4.53368 9.15073,3.14505 2.68705,-1.38862 3.38156,-3.1782 4.1673,-5.79892 0.78575,-2.62071 3.86883,-3.38506 9.10804,-3.52166 5.23921,-0.1366 7.64313,2.21993 7.88539,4.95132 0.24226,2.73139 -2.00578,5.16264 -5.80388,5.79682 -3.7981,0.63419 -5.44025,-0.0894 -6.63471,-3.35773 -3.5616,0.71938 -4.37935,4.28009 -2.61025,7.0084 -5.15427,-0.83607 -13.20903,-1.57464 -23.40106,0.56821 -10.19202,2.14285 -18.40022,6.09838 -26.73666,10.46268 -8.33643,4.3643 -11.77506,4.95074 -14.48265,3.88951 -2.70759,-1.06123 -3.04373,-3.64038 -1.23785,-6.54115 -4.73509,-0.56821 -7.95278,1.75787 -8.90197,5.87151 -0.94919,4.11364 1.13723,7.19791 5.49271,9.65958 -1.4547,1.15486 -2.82945,2.38967 -4.10375,3.72494 -7.02611,-3.89186 -14.52947,-6.87716 -26.3271,-12.87945 -11.79763,-6.00228 -16.32658,-6.4927 -17.04632,-9.65958 -0.71975,-3.16688 -0.31339,-15.24311 -2.46225,-20.07678 -2.14886,-4.83367 -5.32416,-4.12294 -7.71274,-3.72484 -4.05035,-6.15119 -9.48903,-6.8037 -14.19643,-4.95535 -4.7074,1.84836 -6.59666,6.26198 -4.01786,12.1875 2.87588,-3.33967 6.50505,-3.72421 8.03572,-0.9375 -2.14284,3.21429 -3.15339,5.55428 -2.24034,9.01204 0.91305,3.45776 3.65104,5.52344 5.35817,8.36866 -1.51523,2.08344 -3.8348,6.34766 -4.35628,11.88647 -0.52148,5.5388 -0.53964,7.37712 -0.23477,12.60783 2.14286,0 3.61607,-0.80357 5.35714,-2.00893 1.74107,-1.20536 2.9375,-1.5772 5.49107,10e-6 2.55358,1.5772 10.60263,6.85594 18.48215,11.65178 7.47079,4.54707 14.54082,8.52345 21.031,12.65836 -0.75148,2.99107 -1.04628,5.64521 -0.7185,8.77021 -4.82143,1.875 -8.83928,3.21429 -15.80357,6.69643 -6.96429,3.48214 -11.25,5.75893 -13.92857,2.00893 -2.67857,-3.75 -4.89241,-4.89351 -7.79669,-7.3853 -1.61241,-6.22387 -0.80688,-8.8266 -3.08997,-13.58446 -2.2831,-4.75785 -5.79769,-5.57685 -8.93477,-5.41417 0.13216,2.40749 0.43948,4.62558 0.77682,6.93837 -1.69965,-0.98128 -3.63877,-1.36301 -5.56077,-0.66319 -1.92199,0.69982 -2.63388,1.5323 -4.09881,3.31483 -6.33298,-2.02859 -17.59857,3.05836 -12.69004,13.44766 3.21142,-3.53759 6.02223,-2.83194 7.95495,-1.89404 -1.67695,4.56193 -0.50899,8.173 3.90737,9.86149 -5.57582,-0.2598 -8.95436,1.93656 -9.21809,8.54845 -6.4811,0.44887 -9.65508,8.85226 -1.68955,13.07121 0.79981,-3.52655 2.14408,-3.97077 4.60115,-3.85979 1.87703,2.06474 2.36545,3.92304 3.78808,5.5874 1.42263,1.66436 3.97333,2.30771 7.10264,1.04173 3.1293,-1.26602 4.59297,-1.40232 7.10263,-1.32582 -1.3672,2.3145 -3.55865,4.44661 -1.04173,8.52315 -1.58639,0.87392 -3.31224,1.46773 -6.15561,0.85232 -1.42789,8.84693 12.32886,11.10467 16.39014,2.70713 3.42273,-0.48024 7.08523,-1.3871 9.10484,-5.05286 2.01961,-3.66575 1.03065,-6.54213 2.2364,-8.86552 1.20575,-2.32339 3.31226,-2.45903 9.26732,-3.12795 5.94931,-0.66827 9.50613,-0.97136 15.71864,-2.07578 0.68852,3.95433 0.90928,7.30766 -4.16689,10.2278 4.07467,3.41098 9.20477,1.34756 11.61676,-3.15673 2.84106,12.31123 9.84899,13.82646 10.4172,22.72843 0.56821,8.90197 -10.00801,8.32163 -10.6066,3.59867 -0.59859,-4.72293 2.76382,-5.09103 5.28032,-4.68913 0.86323,-5.55947 -9.83763,-7.02157 -12.66706,1.46927 -2.83317,8.50205 2.86094,16.48806 10.6066,16.09931 4.46565,6.38804 13.31954,5.90557 18.37215,1.70463 10.00166,0.54187 12.55703,-6.29537 13.49424,-13.43771 5.0112,2.94061 7.2776,4.78769 11.48017,8.58923 4.20257,3.80154 8.15887,4.74816 16.53387,4.74816 8.375,0 18.46083,-1.32222 30.55494,7.51922 12.09411,8.84145 15.32153,16.04338 16.70394,24.96912 -10.19285,-0.58149 -18.17125,-1.21745 -32.19861,-2.46225 -14.02736,-1.2448 -26.1377,-1.89404 -34.47146,-2.08344 -8.33376,-0.1894 -12.3407,0.38305 -22.16023,6.43972 -9.81953,6.05667 -17.15581,11.57142 -25.94829,20.26619 -8.79248,8.69477 -14.49466,11.30393 -19.31916,10.22779 -4.82451,-1.07614 -4.3078,-5.7156 -0.18941,-6.43972 -0.94702,-3.97747 -7.09863,-3.82925 -10.2278,-0.1894 -3.12917,3.63985 -3.2077,7.53264 -2.27284,11.93242 -7.2222,-2.04213 -14.31241,-0.52204 -19.10463,5.59219 -4.79221,6.11423 -3.85459,16.36904 5.31915,15.91376 -0.96048,-2.54071 -0.78086,-5.48301 1.76963,-7.14023 2.55048,-1.65722 6.11191,-1.52771 10.39489,2.88701 4.28298,4.41472 6.48603,5.57652 10.8387,6.58547 3.33701,6.53653 7.7046,8.58352 17.04623,9.74938 6.00097,9.52407 12.34687,13.40674 16.30067,21.85777 -8.20168,3.6481 -11.07879,5.9895 -15.53572,9.375 -5.16341,3.92214 -5.08928,5.35714 -11.51786,2.41071 -6.42857,-2.94643 -18.31324,-7.40343 -24.10714,-5.35714 -5.56794,1.96649 -5.19971,5.27963 -8.87178,9.79976 -9.8582,3.60872 -8.22866,12.46193 -5.05679,16.45024 l 1.83951,-1.13219 c 0.6512,2.77844 1.57019,5.03168 4.71211,5.8945 3.10949,-4.18895 6.06027,-4.66748 9.39172,-4.75808 -0.42792,3.49005 0.10887,7.39391 4.45772,9.54864 2.30789,-3.3836 3.76764,-4.83397 7.07293,-5.13688 3.46591,3.8164 6.99336,3.52442 12.41266,1.97249 5.47769,-1.56865 8.33376,0.75762 12.87945,-0.56821 4.54568,-1.32582 3.40926,-5.11389 7.57614,-7.95495 4.16688,-2.84105 13.40776,-4.15996 13.40776,-4.15996 -1.07271,3.30459 -1.34259,5.98255 1.47322,9.50893 -1.64577,1.2969 -2.53392,1.89616 -4.65319,2.73225 3.03046,3.59867 9.24815,3.25399 14.01587,0.94702 4.76772,-2.30697 6.41277,-6.34995 7.57614,-13.63706 1.56071,3.62899 4.37176,5.76011 8.14436,5.68211 3.7726,-0.078 5.17528,-1.6493 6.12217,-3.31361 -2.95925,-0.8292 -4.54715,-2.86605 -4.41964,-5.75893 0.12752,-2.89288 1.78874,-4.64185 3.87815,-5.84253 3.27209,3.01571 6.80121,3.38689 10.32922,2.3513 -0.17221,-1.03312 -0.46249,-2.12528 -1.13642,-3.40927 6.8677,-0.0347 13.50531,-2.14539 13.06885,-10.796 -3.52656,2.47413 -6.20675,3.66243 -10.03839,2.27284 -3.83165,-1.38959 -6.77758,-7.20062 -10.65366,-17.0399 -3.87609,-9.83929 -8.53894,-16.88846 -8.80679,-20.10275 -0.26786,-3.21428 3.43618,-5.63845 12.51083,-9.5319 9.2661,-3.97559 16.47188,-6.94422 27.33488,-13.67417 8.58326,-5.31758 12.51118,-8.31554 20.52592,-13.89749 -4.35628,6.43972 -5.46021,12.50064 -5.46021,20.07678 0,7.57615 0.0415,16.96642 -0.94701,28.24017 -0.98857,11.27375 -3.82058,17.21669 -0.60072,26.49747 3.21986,9.28078 8.81827,12.18933 10.6066,20.8344 1.78833,8.64507 -3.79246,11.16352 -8.14434,11.55362 2.26553,6.66652 14.89802,7.58387 18.18274,-1.51523 1.13642,6.62912 2.65165,12.12182 8.71257,15.72049 6.06092,3.59867 17.63453,1.57804 20.83438,-4.54569 3.19985,-6.12373 1.21523,-10.76503 -1.32581,-13.82645 -0.3788,5.49271 -2.85921,8.02136 -6.81853,7.19733 -3.95932,-0.82403 -6.00991,-6.53949 -6.25032,-10.98541 5.81985,0.28595 11.35341,-2.27007 12.9579,-10.55112 7.4178,2.07732 14.04033,-1.67162 13.87427,-9.71506 6.43972,-1.89404 8.74072,-3.09208 14.58408,-7.76556 5.84337,-4.67348 7.45069,-7.92313 13.13198,-11.11167 4.98763,9.51225 1.9965,13.82263 10.98541,22.28644 -7.00793,-0.75761 -11.22779,-1.77163 -17.61453,-3.40926 -5.00886,-1.28433 -8.67954,0.1829 -10.32503,3.32367 -1.64549,3.14077 -2.17505,5.43542 -4.07921,8.66192 -2.07094,0.27776 -4.10595,2.32921 -4.69303,5.98872 -0.58707,3.65951 0.33151,7.59595 2.79904,9.891 1.22119,-1.38719 2.25026,-2.41326 3.82057,-2.75309 0.63921,2.63532 1.7213,4.23332 4.3333,5.19236 3.17706,-5.68779 6.31875,-6.43292 9.28078,-6.94295 -0.0888,5.31238 2.42161,8.58789 5.87151,10.54161 1.02865,-5.37662 4.05332,-5.04197 5.99778,-6.75535 2.87088,0.91873 4.43277,0.486 7.42328,0.0235 2.99051,-0.46251 5.19494,-0.3683 9.68247,-0.2913 4.48753,0.077 5.24387,-3.70962 9.22135,-6.74008 3.97748,-3.03046 2.77565,-6.28155 1.32583,-9.28078 -1.44982,-2.99922 -1.78325,-7.80479 -1.89404,-13.44766 -0.11079,-5.64287 -0.26955,-8.56921 -1.4999,-15.61721 2.33461,1.65065 4.07673,1.86754 6.53163,1.22441 2.4549,-0.64313 4.87869,-0.66981 5.78912,0.61411 0.91043,1.28392 0.61935,3.19623 -2.92903,4.62415 2.11706,1.02867 5.06997,1.05019 7.35424,-0.97001 2.28428,-2.02019 2.96528,-4.80641 1.76012,-9.22529 3.26284,-3.78284 2.67674,-9.30658 -1.15941,-13.48015 -3.83615,-4.17358 -7.98123,-4.55447 -14.51085,-4.83046 9.75444,-1.08145 10.51399,-12.76224 1.81558,-16.52868 0.38114,4.02754 -1.92276,5.9566 -5.24619,5.9388 -3.32343,-0.0178 -6.38408,-1.16013 -8.30357,-8.95023 -1.74091,-7.06533 -7.40158,-11.33181 -12.19702,-9.46692 -4.79544,1.86489 -7.82821,3.29833 -16.68003,9.35597 -8.85181,6.05764 -13.96181,8.31102 -21.2907,11.07962 -4.01784,-8.03571 -3.90601,-14.62871 -4.55358,-25.71429 -0.64756,-11.08558 -0.83505,-14.30333 -2.6236,-23.51394 10.98539,9.09135 26.92288,14.89393 47.35156,4.54687 20.42869,-10.34706 29.16739,-26.89542 26.89453,-52.6543 -2.30506,-26.12386 -12.8803,-40.91248 -25.75976,-64.77734 -4.59272,-8.51005 -7.92881,-16.76945 -10.11524,-24.78516 8.44072,-1.52096 17.05247,2.8125 18.98438,10.29102 2.85966,11.06994 -6.37954,11.24288 -10.17774,9.91016 1.377,9.17624 7.80316,10.72043 14.28516,8.48242 -2.28612,13.70441 5.03378,25.65935 17.67773,25.17969 12.64404,-0.47966 13.04022,-8.4588 12.23243,-11.875 -4.11258,5.173 -9.30134,4.20597 -12.32032,0 -3.01897,-4.20601 -2.12826,-12.86529 -4.74218,-26.01758 -2.61393,-13.1523 -11.09519,-29.96455 -31.55078,-28.82813 -2.39663,0.13315 -4.66807,0.46726 -6.82227,0.96875 -1.33353,-10.11273 -0.73175,-19.80268 1.67578,-29.0625 5.18449,-19.94036 17.90273,-30.52601 33.58399,-29.83398 15.26324,0.67358 15.81597,15.21743 5.61718,19.54101 -10.19883,4.32359 -13.29391,-5.79739 -12.24218,-11.36328 -2.99657,1.06844 -8.07814,4.92222 -8.01954,14.83789 0.0587,9.91568 8.2939,15.10111 16.71436,12.82837 -3.84357,2.89653 -7.13023,6.66015 -8.0542,14.87476 -0.92397,8.21461 2.97911,17.59724 10.44727,19.73242 7.46815,2.13518 11.57735,-2.04347 12.58789,-5.89258 -5.56094,-0.0223 -7.76159,-2.2185 -8.30274,-5.23242 -0.54115,-3.01391 0.50889,-8.78353 8.44336,-17.98633 7.93448,-9.2028 13.52878,-21.61132 8.9336,-34.91406 -3.57562,-10.35118 -10.94527,-19.13831 -25.04688,-18.84961 -3.94845,0.0808 -8.42588,0.87433 -13.49414,2.54297 -23.16918,7.62808 -36.98243,31.24609 -33.23242,64.99609 0.28554,2.56986 0.64095,5.03025 1.04492,7.41211 -10.5048,5.98576 -16.6817,17.04066 -18.38867,29.08399 -2.45001,17.2857 3.75359,29.53682 15.49023,40.44726 11.48141,10.6732 23.52862,20.42776 27.32031,32.67774 3.7917,12.24997 1.26871,29.72489 -12.05273,36.96484 -13.32144,7.23995 -25.44616,4.28487 -32.14258,-1.07227 -6.69641,-5.35714 -9.6567,-10.86509 -20.63672,-24.53515 -10.98002,-13.67006 -16.32438,-25.40284 -19.81026,-38.57321 6.30862,2.28117 13.02684,0.61281 16.29333,-4.1233 3.26649,-4.73611 2.62094,-10.17037 -1.63186,-13.50344 -1.08711,4.16241 -2.88297,6.61672 -7.36085,6.34768 -4.47787,-0.26903 -7.58407,-3.54602 -7.91327,-10.9618 -0.3292,-7.41578 2.05675,-13.76881 8.9165,-23.5785 2.35962,6.01501 10.27109,6.47112 13.20082,2.67046 -5.95997,-2.52951 -6.88952,-7.47992 -3.59867,-12.69004 3.29085,-5.21013 6.64451,-6.95991 10.54347,-13.8896 z"
           sodipodi:nodetypes="sscsssscczcssssscszcccssscssscsccccsssczzzsccssczzcccczczczzczzzzzccccczcczccczccczczzcczzzzcsszzzccczzzczzzccssscccccccsssccczzczczczzzzzczzzcccsczzcccszzcccczzccccccczcczzzzccszzczczcczczzzcczczzzcczzzzzczzzcccczzzzczsczzzzczczcczcczczzcczc"
           transform="scale(0.26458333)" />
        <path
           id="path1066"
           style="fill:#000000;fill-opacity:1;fill-rule:nonzero;stroke:none;stroke-width:3.77953;stroke-linecap:butt;stroke-linejoin:miter;stroke-miterlimit:4;stroke-opacity:1"
           d="m 486.47461,256.02539 c -2.6173,0.0727 -4.73708,0.16882 -6.3125,0.0527 -1.57542,-0.11608 -2.46371,-0.43556 -2.92383,-0.9375 -0.4919,-0.53661 -0.47871,-0.86279 -0.27148,-1.7207 0.20719,-0.8579 0.74218,-2.02764 1.1289,-3.41797 0.25006,-0.89892 0.64652,-1.23396 1.33594,-1.35742 0.68939,-0.12345 1.72303,-0.1003 3.51002,0.92814 -0.11379,-2.48386 -1.93844,-3.52746 -3.73657,-3.31571 -1.79813,0.21176 -3.06417,1.45008 -3.51564,3.07312 -0.31479,1.13165 -0.85312,2.26111 -1.15234,3.5 -0.29923,1.23889 -0.22965,2.80826 0.85742,3.99414 0.62753,0.68459 1.4191,1.10253 2.31445,1.36719 -0.0967,0.90372 -0.0308,3.00662 0.60736,4.69108 -0.89591,-0.13222 -1.92485,-0.21985 -3.04057,-0.23276 0.7613,1.7039 2.29543,2.51209 4.93185,2.16006 2.63643,-0.35204 3.82167,-1.33677 6.0393,-1.85276 2.21763,-0.516 4.007,-0.15728 5.28726,0.77637 -0.0302,-2.30529 -2.90124,-3.1041 -4.35636,-2.89748 -1.45512,0.20662 -4.12237,1.46155 -6.44924,1.65016 -0.68252,-1.32218 -0.60141,-3.13263 -0.53717,-3.906 1.78923,0.11264 2.53144,0.21258 5.63912,-0.0586 3.10767,-0.27118 5.00312,-0.29015 6.44864,0.21314 1.44552,0.5033 2.52821,1.23884 4.422,3.4187 0.42656,-2.7774 -1.76439,-4.49995 -3.63476,-5.3076 -1.87038,-0.80765 -3.9745,-0.893 -6.5918,-0.8203 z m 38.51758,-6.94531 c -3.01085,0.45693 -5.26427,1.86318 -6.76497,3.1552 -1.50071,1.29201 -1.78623,2.49917 -1.19304,3.13777 0.59319,0.6386 1.65212,-0.2704 2.86026,-1.30159 1.20814,-1.0312 3.02796,-2.15522 5.4747,-2.52654 z m -66.358,9.83203 c -1.23947,-0.37034 -2.60694,0.0784 -4.04239,0.39062 -1.43545,0.31222 -3.29997,0.76902 -4.93946,-0.49414 l -1.52734,1.97852 c 2.44479,1.8836 5.55901,1.27198 6.99805,0.95898 1.43904,-0.313 1.79749,-0.37617 2.45898,-0.33789 0.66149,0.0383 2.06965,0.69069 2.66016,-0.0674 0.59051,-0.75807 -0.36853,-2.05837 -1.608,-2.42871 z m 77.92636,2.08984 c -2.0136,-1.20715 -3.33106,-1.99164 -5.57866,-2.09135 -2.2476,-0.0997 -4.06008,0.79726 -5.7983,2.18706 -1.73822,1.3898 -3.31895,2.32676 -4.96654,2.80065 -1.64758,0.47388 -3.84661,0.53179 -5.51569,-0.50991 0.5276,3.39936 4.58914,3.23392 6.54864,2.72879 1.9595,-0.50513 3.80743,-1.71703 5.5,-3.07031 1.69257,-1.35328 3.06333,-1.74643 4.48627,-1.72247 1.42293,0.024 2.53835,0.45656 4.9448,2.12267 2.40645,1.6661 6.20942,1.89285 7.44784,-0.36408 -3.16874,0.41893 -5.05476,-0.8739 -7.06836,-2.08105 z m -14.89649,21.91602 1.92578,-1.60156 c -1.54348,-1.85775 -3.88603,-4.11922 -6.66301,-2.86427 2.38871,1.77451 3.34735,2.79298 4.73723,4.46583 z m -186.96094,5.47851 c -4.4521,1.27663 -7.27365,2.98342 -10.74218,6.63477 l 1.80859,1.7207 c 3.28906,-3.46241 5.43725,-4.75007 9.61914,-5.94922 z m 175.17969,13.1543 2.44336,0.53906 c 0.83955,-3.77441 0.26948,-9.11274 -2.80176,-9.0293 0.84855,3.00607 1.06279,5.32332 0.3584,8.49024 z m -15.9082,8.45117 1.81445,1.72071 c 1.99355,-2.11489 2.6015,-4.7069 0.92094,-6.91207 -0.65779,2.54708 -1.19652,3.55879 -2.73539,5.19136 z m -23.14258,0.47266 0.1543,2.49609 c 6.53609,-0.40214 11.03269,-2.52894 11.10746,-6.39255 -3.54202,2.94589 -5.13465,3.51948 -11.26176,3.89646 z m 124.26185,1.75605 0.56628,2.77715 c 6.19083,-0.74371 9.2543,-3.38495 9.72688,-7.78464 -3.01657,3.29654 -4.64795,4.34349 -10.29316,5.00749 z m -262.91615,3.77325 c -1.25731,-0.91408 -2.09033,-1.84804 -3.16015,-3.43164 l -2.06641,1.40234 c 1.26519,1.8728 2.14414,2.71964 3.49219,3.83008 1.34805,1.11044 3.11772,1.10321 4.36707,2.86523 0.62237,-2.38744 -1.37539,-3.75193 -2.6327,-4.66601 z m 131.41211,0.32421 -1.91211,1.60157 c 4.58162,5.46513 11.11168,6.69177 18.5586,5.81054 l -0.29492,-2.48828 c -7.03476,0.83246 -12.38665,-0.19434 -16.35157,-4.92383 z m 123.14454,59.19532 1.52929,1.98633 c 1.69344,-1.38346 3.65563,-3.99991 2.0918,-6.5254 -0.72183,3.09105 -1.36268,3.54477 -3.62109,4.53907 z M 425.6015,385.76518 c 0.45243,1.10267 0.80669,2.1238 1.57708,3.48639 4.93362,-1.38392 8.42397,-2.94409 10.96683,-5.58354 2.54285,-2.63946 3.01342,-5.20782 1.87804,-8.55276 -1.11755,3.90269 -2.86411,5.78482 -4.63283,7.33981 -1.76872,1.55499 -3.84855,2.62404 -6.88495,3.50781 -0.70417,-0.85576 -0.87763,-1.83982 -1.76062,-3.58874 -3.26949,1.65479 -4.82542,2.4547 -7.08099,4.53991 2.51551,0.12224 3.96375,-0.2886 5.93744,-1.14888 z m 19.91803,12.87935 c 2.76105,-0.0108 5.36356,-0.60781 7.24805,-2.76758 1.88449,-2.15977 3.09337,-8.11078 2.42539,-12.044 -0.66798,-3.93322 -2.23377,-5.17937 -3.50592,-5.06098 0.73185,1.55478 1.3052,4.2473 1.23443,6.68698 -0.0708,2.43968 -0.67437,5.51493 -1.44269,7.24388 -0.76832,1.72895 -1.92245,2.27232 -2.76931,2.38556 0.0563,-1.19205 -0.35658,-2.58183 -1.58881,-3.15514 -0.59678,2.55771 -0.74291,4.28858 -1.60114,6.71128 z m -121.30777,-15.8174 c -3.62695,-1.50851 -6.68537,-1.69748 -10.36996,-1.90721 l -0.14063,2.4961 c 3.34359,0.19033 6.40871,0.4348 9.87583,1.83299 3.46713,1.39819 7.61958,1.14923 7.60464,-0.82909 -0.0149,-1.97832 -3.34293,-0.0843 -6.96988,-1.59279 z m 93.95614,-1.82082 c -2.7854,1.72043 -2.18891,3.5864 -3.74505,6.39896 3.15159,-0.83607 4.83085,-4.08545 3.74505,-6.39896 z m -6.52221,1.13756 c -2.03755,1.19443 -1.31569,3.19617 -2.33514,5.37567 2.60437,-0.98098 3.24119,-3.42907 2.33514,-5.37567 z m -7.41034,6.19206 c 2.56979,-0.84214 3.55118,-4.12891 2.31836,-5.61714 -1.97716,1.27259 -1.17845,2.5353 -2.31836,5.61714 z m 1.05528,2.79499 c -3.02721,0.67272 -5.2748,1.05199 -7.73985,1.51166 l 0.45899,2.45898 c 2.44395,-0.45573 3.92107,-0.61292 5.21129,-1.0372 1.29022,-0.42428 2.19545,-1.68294 2.06957,-2.93344 z m 23.23476,11.2558 1.83203,1.70508 c 3.74045,-4.00649 7.83613,-9.76824 3.671,-11.22553 -1.21304,4.12678 -2.02681,5.79697 -5.50303,9.52045 z m -24.57422,-4.40039 -0.47265,2.45898 c 2.64071,0.51315 4.9008,0.46156 6.81445,-0.2207 1.91365,-0.68226 3.62255,-2.6312 2.76112,-5.13334 -2.15097,3.22677 -6.09044,3.45897 -9.10292,2.89506 z m 184.35572,44.69347 c 0.42214,7.86078 -0.44087,15.75805 -2.66881,22.90291 4.28213,-5.93225 5.68356,-15.40431 5.8754,-22.12016 z m -99.67798,23.30262 c 1.45088,3.25467 1.84233,6.82903 -0.53125,12.49024 l 2.31054,0.96679 c 2.56838,-6.12578 2.19098,-10.70516 0.50977,-14.47656 -1.68121,-3.77136 -5.18819,-6.88317 -8.42083,-9.74999 1.26098,4.43535 4.68088,7.51482 6.13177,10.76952 z m 31.88566,11.97166 c 2.14924,2.73884 3.28029,4.17233 4.31551,7.88576 l 2.41406,-0.67187 c -0.89718,-3.23736 -2.72079,-6.24575 -4.68465,-8.64748 -1.96387,-2.40174 -2.4786,-4.38845 -3.57611,-4.12588 -1.09751,0.26257 -0.61806,2.82062 1.53119,5.55947 z m -86.63069,11.06251 c -1.07302,4.08137 2.71251,6.16192 4.00284,9.09864 2.90473,-3.42612 -2.07774,-6.68352 -4.00284,-9.09864 z m 4.9728,-0.0429 c 0.42211,4.85039 4.35589,6.07985 5.49191,9.19726 3.05856,-4.66096 -3.27773,-7.16232 -5.49191,-9.19726 z m 8.10926,1.1454 c -0.14726,3.43772 2.28454,3.27546 3.01932,6.95313 3.44672,-2.15598 -0.93029,-6.4676 -3.01932,-6.95313 z m -17.38391,0.84381 c -0.62785,3.58942 1.2675,4.71731 2.46485,7.0332 2.43528,-1.87781 -0.19464,-5.9025 -2.46485,-7.0332 z m 76.61222,5.20742 c 3.80178,1.22177 6.20795,4.45825 8.30184,1.92344 -1.13197,-2.23675 -7.00366,-4.41932 -8.30184,-1.92344 z m -80.62298,3.38111 c 2.31473,1.93163 3.94476,4.03173 4.86767,7.2081 -1.72406,-0.419 -3.44811,-0.61618 -5.17217,-0.52547 0.35963,1.35897 1.08184,1.96663 2.10823,2.82845 l 0.47852,-0.56836 c 2.29354,0.74715 3.90333,1.10614 5.4901,1.31445 -0.53633,-4.45349 -2.3133,-9.40342 -6.00288,-12.22 -3.68959,-2.81658 -7.21071,-2.43002 -8.62539,-0.28539 2.67549,0.21775 4.54119,0.31659 6.85592,2.24822 z m 81.22561,3.1185 c 3.54716,1.03927 4.64576,3.46114 7.39648,1.00391 -2.83719,-2.14354 -5.64133,-3.64362 -7.39648,-1.00391 z m -0.87254,5.14277 c 3.37117,1.23315 5.69758,4.05136 8.15769,1.24981 -3.15521,-1.94481 -6.24953,-3.81054 -8.15769,-1.24981 z m -0.40052,5.6722 c 3.64298,0.99881 5.68281,4.30922 8.15196,1.46042 -3.25646,-1.61742 -5.87994,-4.88868 -8.15196,-1.46042 z m -125.25234,15.77488 1.3125,2.125 c 7.15272,-4.41615 7.01329,-12.26995 4.54785,-14.18751 0,0 -0.31056,8.63478 -5.86035,12.06251 z m 133.09375,-8.70313 c 2.12992,0.89088 3.06073,1.90511 4.23829,3.60938 -1.15457,0.38124 -2.16108,0.91054 -3.05664,1.55078 1.86728,0.876 3.72267,2.3191 4.91601,3.41797 l 1.69141,-1.83985 c -0.53265,-0.48967 -1.14976,-0.86997 -1.66211,-1.29101 0.67708,-0.3418 1.35417,-0.68359 2.03125,-1.02539 -1.70542,-3.03171 -3.12191,-4.51395 -5.63934,-5.88144 -2.51742,-1.3675 -4.99067,-1.60529 -6.47973,-1.47794 -1.48905,0.12735 -2.62065,0.81671 -2.8238,2.35148 2.42235,-0.26582 4.65474,-0.30486 6.78466,0.58602 z m -153.10742,2.73828 0.97461,2.29492 c 3.49624,-1.47711 4.38905,-3.10447 3.87598,-5.17383 0,0 -2.29381,1.79872 -4.85059,2.87891 z m 10.79297,5.54297 0.98242,2.30469 c 3.84598,-1.87928 4.3422,-3.78213 3.67969,-5.54883 0,0 -2.20037,2.1954 -4.66211,3.24414 z m 31.32813,9.30859 1.66505,1.51321 c 2.58096,-2.69839 2.51555,-5.22694 1.62791,-7.07082 -0.93163,2.78197 -1.0954,3.26004 -3.29296,5.55761 z m -45.33431,0.01 c -1.4969,0.68534 -3.2158,0.80832 -5.96257,0.68549 l -0.10937,2.49414 c 2.91583,0.13039 4.9294,-0.0609 7.08366,-1.09356 2.15427,-1.03262 3.46101,-3.43437 2.31575,-3.91523 -1.14526,-0.48086 -1.83056,1.14382 -3.32747,1.82916 z m 155.98858,3.03898 1.25586,-2.16211 c -2.39729,-1.29512 -5.40534,-2.12098 -6.93944,-0.18066 2.4578,0.68419 3.65163,1.16268 5.68358,2.34277 z m 82.05862,3.3594 0.0508,-2.50196 c -2.64473,-0.0576 -4.6759,0.50411 -6.16016,2.54297 2.3108,0.33264 3.82564,-0.0908 6.10938,-0.041 z m -217.17578,3.04101 0.89257,2.33985 c 3.00076,-1.09466 4.66363,-3.15235 4.10449,-6.22266 -1.63338,2.06321 -3.26465,3.21104 -4.99706,3.88281 z m 226.3481,6.82057 c 2.05157,1.6034 4.29977,4.23597 5.32572,7.56615 l 2.39063,-0.73828 c -1.13847,-3.69555 -3.15415,-7.21601 -6.21635,-9.23386 -3.0622,-2.01785 -7.71121,-3.61577 -10.03106,-1.26412 3.65242,0.79257 6.47949,2.06671 8.53106,3.67011 z m -93.62154,8.93334 2.37695,-0.76172 c -1.05362,-3.30523 -3.07885,-5.37103 -7.08008,-5.75781 2.63562,2.51756 3.81248,3.72548 4.70313,6.51953 z m 50.34375,0.26562 1.32226,2.11719 c 2.27895,-1.4166 4.93583,-3.27851 4.93583,-3.27851 -2.04547,-0.90909 -3.98032,-0.37749 -6.25809,1.16132 z m -174.50586,8.17561 c 6.84506,0.58073 15.55104,-0.63109 16.63281,-5.22364 -5.68691,2.36018 -11.53829,3.66211 -19.29883,2.37012 l -0.28125,3.68359 c 5.38787,4.87004 14.95007,6.83693 19.0127,3.417 -5.88316,-0.23719 -11.54584,-0.89385 -16.06543,-4.24707 z m 117.85742,14.88476 2.08203,-1.38086 c -2.0663,-3.11894 -3.99354,-5.01457 -7.0459,-5.2959 1.48588,2.26302 3.02766,3.7542 4.96387,6.67676 z M 410.25586,598 l 2.38476,-0.73828 c -1.49982,-4.84044 -0.55513,-6.99555 1.50776,-10.03223 -5.10397,1.66285 -5.59864,5.26442 -3.89252,10.77051 z m -54.69922,-8.80664 c -2.26392,-0.74816 -4.24032,-1.61191 -6.69141,-1.67188 -0.35015,-0.009 -0.71027,-0.002 -1.08203,0.0254 -3.0184,0.21872 -5.03482,1.84177 -6.12695,3.70507 -1.09213,1.86327 -1.41318,3.92355 -1.61719,5.35157 l 2.47266,0.35546 c 0.19511,-1.36577 0.51603,-3.10782 1.29883,-4.44336 0.7828,-1.33553 1.8725,-2.30951 4.15039,-2.4746 2.32224,-0.16827 4.08696,0.62331 6.80468,1.52148 2.71773,0.89817 8.56248,2.94695 11.95115,0.9765 -6.21315,-0.54096 -8.5728,-2.49056 -11.16013,-3.34564 z m 213.90437,1.33594 c -2.53759,-0.63986 -5.4538,-0.80458 -8.16169,0.26271 -2.70789,1.06729 -4.17166,2.63632 -4.60993,4.90583 -0.43827,2.26951 -0.21519,5.49666 -0.1249,7.43888 l 2.4961,-0.11719 c -0.0972,-2.09121 -0.14102,-3.93046 -0.0156,-5.93555 0.12542,-2.00509 1.20045,-3.1103 3.24805,-3.82421 2.0476,-0.71391 4.39632,-0.8318 6.58594,-0.30274 2.18962,0.52906 7.42589,2.48707 9.53093,-0.21881 -4.21031,0.1769 -6.41131,-1.56906 -8.9489,-2.20892 z m -171.67976,9.6914 c -0.2764,2.3531 -0.57762,4.12966 -3.94922,6.32032 l 1.35742,2.0957 c 3.9185,-2.546 4.77267,-5.57619 5.07227,-8.12695 0.29964,-2.55081 -0.20642,-5.67004 1.66698,-8.23042 -4.09062,1.11637 -3.87102,5.58826 -4.14745,7.94135 z m 92.91602,10.0625 2.49414,-0.0527 c -0.11785,-5.789 -1.04499,-10.59662 -2.23003,-12.97741 -1.18504,-2.38079 -2.83858,-3.74973 -4.48571,-3.39176 2.09783,3.13309 4.07151,9.05062 4.2216,16.42187 z M 321.62774,404.23564 c 2.35477,-0.84099 3.36094,-0.38011 5.88518,-1.36364 2.58309,-1.00646 2.80384,1.66454 1.07656,2.15312 -1.66768,0.47171 -2.94259,1.79426 -3.58853,3.22967 z"
           transform="scale(0.26458333)"
           sodipodi:nodetypes="zsssssczsssccczzczcczzczzcszsccscczzzzsszzzzczzzzczccccccccccccccccccccccccczcczczccccccccccczczccccczzczzccczcczzzcccccccccscccszcczccccccccczsscczcszzzcccccccccccccccczccccczczccccccccccccczcccccczzczcccccccccccczsczzzccccccccczcczzcczczccccccccccccccccccsccscssccssscsczzzsszzzczcsccccczccccsccc" />
        <path
           id="path941"
           style="fill:none;fill-opacity:1;stroke:#000000;stroke-width:0.661458;stroke-linecap:butt;stroke-linejoin:miter;stroke-miterlimit:4;stroke-opacity:1"
           d="m 147.14858,160.86283 c -0.001,-0.90657 0.37775,-1.63045 1.29588,-1.72458 0.91812,-0.0941 2.26092,0.54345 1.84454,2.44288 m -6.74248,-0.5386 c -0.23426,-1.20335 0.23206,-2.34691 1.18097,-2.49097 0.94891,-0.14406 1.95337,0.50722 2.05359,2.16095 m -0.56417,-70.866316 c 0.20008,1.179676 0.45,2.279499 0.74259,3.310392 m 2.3735,-1.125513 c -0.29044,-1.064779 -0.50786,-2.113992 -0.64389,-3.145544 m -6.29017,68.967391 c 0.63784,-0.28348 1.83451,-0.31656 2.0234,0.82621 0.29781,-1.27065 0.46383,-2.2242 1.45285,-2.79939 0.98901,-0.57519 1.6533,0.1745 2.9028,0.0204 1.24949,-0.1541 1.01311,-0.69501 2.73042,-0.59985 m -14.39136,-8.50744 c 2.29658,0.69758 3.98266,2.67256 4.27461,4.76365 l -0.92709,0.286 c 0.49126,0.92466 0.63271,1.42052 0.80408,2.55577 m -7.09935,5.36209 c -0.1796,-1.92454 0.46266,-3.00125 -0.45449,-4.71925 0.7003,-0.91742 1.05281,-1.67703 1.10596,-3.18191 l 0.52469,0.16733 c 0.43201,-1.00195 0.40096,-2.0711 0.0767,-3.07388 l 0.88534,0.56795 c 0.96069,-1.13362 1.25207,-2.63158 0.15034,-4.30972 l 0.75169,-0.0501 c -0.13505,-0.98357 -0.52177,-1.72157 -1.30293,-2.25508 1.38094,-0.20116 2.07853,-0.40836 2.81926,-0.96383 -0.0849,-0.75543 -0.61178,-1.71045 -1.06155,-2.18454 1.10031,0.23578 2.17687,0.75647 2.96349,1.69758 0.78663,0.94112 1.02776,1.62474 1.2088,2.80382 h -0.95215 c 0.43878,0.76166 0.72998,1.70671 0.65147,2.90655 -1.50728,0.0449 -2.56405,0.29917 -4.43659,-0.4433 m 0.49846,10.24673 c 0.0982,-0.68563 0.0788,-1.43407 -0.13257,-2.21108 l 0.99218,0.0709 c 0.0654,-0.92397 -0.31111,-1.65363 -0.95245,-2.66802 -0.64134,-1.0144 -0.92739,-1.45285 -1.35262,-2.79939 m 1.35262,2.79939 c 0.86015,1.3763 1.88068,1.45531 2.00771,2.83708 0.12704,1.38178 -0.877,1.88364 -1.91487,1.97112 m -11.04567,-23.46758 c 1.87089,-2.74397 1.7924,-4.20598 2.89642,-6.77791 m -28.66138,13.59115 c -1.170172,3.23457 -3.559538,4.69035 -6.518745,4.24505 m 3.11789,0.91873 c 1.077662,0.0539 1.832361,-0.0529 2.722805,-0.28398 l 0.15035,0.45102 c 2.88467,-0.14281 5.04847,-1.7042 4.56985,-5.82944 m -0.80986,4.15052 c 1.40743,-0.54076 2.28174,-0.95476 3.10675,-1.70834 0.0447,0.17044 0.15952,0.35467 0.31246,0.50431 1.92513,-1.22102 2.47327,-3.57995 0.76074,-6.2385 m -17.762074,0.0677 c 0.539002,2.22675 2.520197,3.00338 5.01026,2.16734 -0.167781,0.51972 -0.167384,1.13967 0.06227,1.65939 0.811522,0.12509 1.851072,0.16998 2.793306,-0.19186 -0.06922,0.29529 -0.100343,0.6407 0.07695,0.936 1.03245,-0.12528 1.669008,-0.37805 2.407078,-0.84793 1.08941,0.11494 2.6104,0.19698 3.95482,-1.09064 l 0.0873,0.59202 c 2.21998,-1.46465 2.33265,-2.85844 2.40352,-4.35853 1.07686,0.96917 1.32943,2.03942 2.94904,2.2367 1.6196,0.19729 2.40542,-0.4009 4.15938,-1e-5 0.31811,-1.45803 -0.0594,-2.26714 -1.05238,-3.25734 m -21.542031,26.63937 c 0.301031,-1.46964 0.174134,-2.25939 -1.225991,-3.20318 -0.944184,0.23904 -1.477514,0.78281 -1.824827,2.0359 0.153379,-1.61957 -0.479039,-3.23885 -1.883537,-3.08827 -0.0396,-0.57792 -0.240881,-1.03135 -0.996863,-1.26531 m 0.996863,1.26531 c -0.883303,0.22761 -2.041382,1.1585 -1.848101,2.78759 m 1.848101,-2.78759 c 0.349411,-1.24454 1.050782,-2.43499 2.15486,-2.65599 1.104078,-0.221 2.419444,0.11795 4.159382,0.70158 1.739938,0.58363 2.47003,0.37053 3.522404,-0.38117 m 13.43644,-46.4545 c 0.58424,0.67327 1.16871,1.91114 0.88587,3.79158 -0.28283,1.88043 -1.85653,2.88509 -3.33698,2.70775 -1.48045,-0.17734 -1.78359,-1.56164 -1.19872,-2.2471 0.72172,0.66298 1.75477,0.28822 1.80112,-0.72016 0.0463,-1.00838 -0.90032,-1.95402 -2.48165,-3.35164 -1.58133,-1.39762 -2.02412,-2.66131 -2.3261,-3.71107 m 3.82949,9.9752 c 0.0632,1.42557 -0.27593,2.47961 -1.46998,3.57473 m -4.86096,-0.45102 c 3.03562,-0.19453 4.67912,-2.15487 4.25961,-5.27857 -0.41951,-3.1237 -2.86861,-4.06875 -3.16928,-7.62678 m -1.71153,0.26511 c 0.14973,0.75727 0.1891,1.50958 -0.18061,2.26684 m -1.971115,-1.87088 c 3.884925,-0.76009 4.503385,-0.68453 7.091485,-1.14299 0.39225,0.76289 0.61915,1.10171 1.56995,1.41481 -0.38883,0.12897 -0.6889,0.26729 -1.01085,0.46317 0.64171,1.05654 2.24206,1.95612 4.28025,1.94102 2.03819,-0.0151 2.70369,-0.61415 3.53739,-1.33967 2.01751,0.6827 3.99005,0.39562 4.71062,-1.60361 m 11.95001,4.60111 c -1.26482,-0.55418 -2.2576,-1.45741 -2.90436,-3.54013 -0.64676,-2.08272 -0.47545,-5.21532 0.40603,-7.277117 m -3.12476,0.402753 c -0.56256,1.339954 -0.74937,4.054874 -0.16114,6.069214 0.58823,2.01434 2.3763,3.25412 4.29679,3.43742 m -6.82114,-9.990023 c -0.58399,1.716973 -0.88347,5.266323 2.52435,6.552603 M 107.169,94.278642 c -2.38664,0.779483 -4.32178,1.935231 -8.469967,3.310086 m 0.1901,-2.320452 c 0.743628,-2.257385 1.502077,-3.570078 3.926117,-6.384454 m 19.24791,-4.495417 c -2.7663,0.05701 -4.74927,1.487664 -7.74,3.923708 -2.99073,2.436044 -5.24606,2.936031 -7.03367,2.076907 -1.78761,-0.859124 -1.72226,-3.178722 -0.46878,-3.319868 0.16618,0.82896 1.16879,1.966501 4.36596,-0.231688 3.19718,-2.198189 5.7988,-4.642602 10.87649,-3.892246 m -18.16213,4.953047 c 0.88612,0.316779 1.40108,0.313943 2.02391,0.184439 m 0.0431,3.271827 c -1.07032,1.070815 -1.61423,2.460862 -1.66451,4.050573 m 1.63531,-6.745741 c -3.05799,1.973991 -4.43347,4.815583 -4.82599,8.067371 m 40.80727,-12.386493 c 0.66073,-4.221852 -0.15966,-6.454325 -0.90163,-10.180539 m -1.63189,4.26816 c 1.00269,3.531645 0.21438,5.887836 -1.11961,7.901727 -1.33399,2.01389 -1.37467,3.553014 -0.45614,4.909546 m 5.08777,-18.927562 c -0.58973,0.384407 -1.10744,0.543887 -1.95049,0.667046 0.20195,0.661322 0.11302,1.265017 -0.11663,1.756693 -0.83598,0.216664 -1.71373,0.102019 -2.55313,-0.09169 1.40846,1.855421 1.99719,4.25291 -0.638,6.082241 -0.38718,-0.35246 -0.61963,-0.782284 -0.80564,-1.235325 -0.21839,0.456847 -0.46187,0.695938 -0.91633,1.047341 -0.25178,-0.182493 -0.4812,-0.348022 -0.68933,-0.681585 -0.55833,1.872064 -1.70993,2.910014 -3.49404,3.342115 -0.46503,-0.39136 -0.56982,-0.655729 -0.79755,-0.949464 -1.81762,1.760899 -4.94287,1.894088 -6.34242,0.227871 -1.16765,0.08962 -1.81188,-0.07546 -2.36701,-0.904828 -0.28171,0.633848 -0.53638,1.319739 0.17692,2.335354 -0.14903,0.673848 -0.20226,1.223028 0.44923,2.133317 0.65148,0.910288 2.39723,1.639514 5.12491,1.531884 2.72768,-0.10763 4.73778,-1.150452 6.06223,-2.784308 1.32445,-1.633856 1.5858,-3.182594 1.64347,-4.495187 m -12.11824,7.905874 c -0.0618,0.785105 0.11079,1.879839 1.77196,2.955814 1.66117,1.075975 4.38077,1.553559 7.22356,1.076431 2.84279,-0.477128 4.04185,-1.620243 4.61654,-2.475123 m -2.83246,1.944527 c -0.99165,2.075996 -2.67425,3.203995 -1.86552,5.864535 M 118.224,94.654611 c -4.81406,2.228527 -9.34633,1.425864 -11.055,-0.375969 -1.70867,-1.801833 -1.33678,-3.511282 -0.57762,-4.378785 M 85.793518,94.74705 c 0.553696,0.428895 0.794264,0.686931 1.100288,1.472189 0.306023,0.785258 1.068656,0.976071 1.875723,1.718754 m 17.821851,-8.038136 c 0.9258,2.070647 2.37268,3.035773 4.66901,2.929007 2.29632,-0.106766 3.90795,-0.679431 6.16938,-3.123458 2.26143,-2.444027 3.64976,-3.481371 5.42443,-3.664747 m 0,0 c -0.15394,0.737369 -0.0594,1.338248 0.71237,2.158263 0.77176,0.820016 3.91886,2.58637 8.59656,0.705488 4.67769,-1.880882 6.06624,-5.370247 5.87635,-8.440459 m -13.06463,10.532726 c -1.34936,0.860314 -2.65883,0.971705 -3.98124,0.01303 -1.32241,-0.958673 -1.36312,-2.689867 -1.11711,-3.494029 -0.85342,0.381961 -2.16923,1.784626 -1.05418,4.240568 1.11505,2.455942 5.62846,3.673589 8.97216,0.42428 m -8.97045,-0.497859 c -0.70163,0.922797 -0.68378,3.242282 2.47065,4.457915 3.15444,1.215634 7.22872,0.265382 10.74197,-3.813397 m -13.51915,1.200046 c -0.25419,0.599008 -0.67465,1.932548 0.89734,3.687548 1.61786,1.806207 4.44241,2.183531 6.77284,1.917823 2.33043,-0.265709 4.43055,-1.145418 6.1083,-2.821674 M 83.237754,95.448629 c -0.823254,1.295062 -0.677097,1.823818 -1.252826,3.056896 M 80.5798,103.37649 c 0,0.66323 0.11825,1.60176 0.770361,2.43719 m 4.485116,3.65825 c 0.700825,0.79543 1.483546,1.04877 2.707886,0.94177"
           sodipodi:nodetypes="csccscccccccsscccccccccccczccccccccccczcczcccccccccccccccccccccczcccccccccczzcczzczzcccczccccccczccczcczcccccccczzczcccczcccccccccccccccccccczzzcczzzcczzcccczzzczzzcczczcczccszccccccc" />
        <path
           style="fill:#000000;fill-opacity:1;fill-rule:nonzero;stroke:none;stroke-linecap:butt;stroke-linejoin:miter;stroke-miterlimit:4;stroke-opacity:1"
           d="m 121.97732,74.269529 c 1.95162,-0.146578 3.94337,0.531513 5.13627,1.394791 -0.82596,-1.171463 -2.49434,-1.749646 -3.60578,-2.144789 l -1.37745,0.183801 z"
           id="path1306"
           sodipodi:nodetypes="ccccc" />
      </g>
      <path
         id="path847"
         style="fill:none;stroke:#000000;stroke-width:1.47007;stroke-miterlimit:4"
         d="M 30.401913,23.914534 H 161.22351 v 89.275016 c 0,36.09682 -29.28541,65.35908 -65.410797,65.35908 -36.125389,0 -65.410802,-29.26226 -65.4108,-65.35908 z"
         sodipodi:nodetypes="cccscc" />
    </g>
  </g>
</svg>
