<?xml version="1.0" encoding="UTF-8" standalone="no"?>
<svg width="731" height="430" id="svg2" sodipodi:version="0.32" inkscape:version="1.3.2 (091e20e, 2023-11-25, custom)" version="1.0" sodipodi:docname="Flag_of_Ventspils.svg" inkscape:output_extension="org.inkscape.output.svg.inkscape" xml:space="preserve" xmlns:inkscape="http://www.inkscape.org/namespaces/inkscape" xmlns:sodipodi="http://sodipodi.sourceforge.net/DTD/sodipodi-0.dtd" xmlns="http://www.w3.org/2000/svg" xmlns:svg="http://www.w3.org/2000/svg" xmlns:rdf="http://www.w3.org/1999/02/22-rdf-syntax-ns#" xmlns:cc="http://creativecommons.org/ns#" xmlns:dc="http://purl.org/dc/elements/1.1/"><metadata id="metadata42"><rdf:RDF><cc:Work rdf:about=""><dc:format>image/svg+xml</dc:format><dc:type rdf:resource="http://purl.org/dc/dcmitype/StillImage" /></cc:Work></rdf:RDF></metadata><defs id="defs4"><pattern patternUnits="userSpaceOnUse" width="48.6" height="48.6" id="pattern4" patternTransform="translate(7,7)" preserveAspectRatio="xMidYMid"><path style="fill:none;stroke:#c3c4c6;stroke-width:4;stroke-dasharray:none;stroke-dashoffset:0" d="M 48.6,0 0,48.6 m 48.6,0 L 0,0" id="path3" sodipodi:nodetypes="ccccc" /></pattern></defs><sodipodi:namedview id="base" pagecolor="#ffffff" bordercolor="#666666" borderopacity="1.0" gridtolerance="10000" guidetolerance="10" objecttolerance="10" inkscape:pageopacity="0.0" inkscape:pageshadow="2" inkscape:zoom="1" inkscape:cx="365.5" inkscape:cy="212.5" inkscape:document-units="px" inkscape:current-layer="g1" showgrid="false" inkscape:window-width="1366" inkscape:window-height="705" inkscape:window-x="-8" inkscape:window-y="-8" inkscape:document-rotation="0" inkscape:snap-global="true" inkscape:snap-smooth-nodes="true" inkscape:window-maximized="1" inkscape:showpageshadow="2" inkscape:pagecheckerboard="0" inkscape:deskcolor="#d1d1d1"><inkscape:grid type="xygrid" id="grid1180" originx="6.9140624e-05" originy="-1.9628906e-05" spacingy="1" spacingx="1" units="px" visible="false" /></sodipodi:namedview><g inkscape:label="Layer 1" inkscape:groupmode="layer" id="layer1"><rect y="0" x="0" height="430" width="731" id="rect5761" style="fill:#ffffff;fill-opacity:1;stroke:none;stroke-width:1.017;stroke-miterlimit:4;stroke-dasharray:none;stroke-opacity:1" /><rect style="fill:#ba0838;fill-opacity:1;stroke:none;stroke-width:1.42182;stroke-miterlimit:4;stroke-dasharray:none;stroke-opacity:1" id="rect5704" width="731" height="86" x="0" y="172" /><rect style="fill:#ba0838;fill-opacity:1;stroke:none;stroke-width:2.01076;stroke-miterlimit:4;stroke-dasharray:none;stroke-opacity:1" id="rect5706" width="86" height="430" x="215" y="0" /><g id="g1" transform="matrix(0.43728815,0,0,0.43728815,148.67796,85.999997)"><path id="path1405" d="M 3.500005,335.0808 C 3.499845,475.88536 115.17865,586.49983 250.00001,586.49999 384.82136,586.50016 496.5,475.88569 496.5,335.08113 V 3.5001722 L 3.500385,3.5000062 Z" style="fill:#ba0838;fill-opacity:1;stroke:none;stroke-dasharray:none" sodipodi:nodetypes="szsccs" /><path style="fill:url(#pattern4);stroke:none" d="M 7,7 H 493 V 335.08203 C 493,474.03577 382.90682,583.00017 250,583 117.09316,582.99984 6.9998421,474.03382 7,335.08008 Z" id="path2" /><path id="path943" d="M 344.95,218.70284 V 86.89723 c -20.91361,32.66444 -41.82053,38.76944 -72.6168,43.56961 C 277.13334,99.67052 283.23837,78.76359 315.90276,57.85 H 184.0972 c 32.66443,20.91359 38.76941,41.82052 43.56958,72.61684 C 196.87049,125.66667 175.96356,119.56167 155.05,86.89723 v 131.80561 c 20.91356,-32.66449 41.82049,-38.76946 72.61678,-43.56963 -4.80016,30.79628 -10.90515,51.70324 -43.56958,72.61683 h 131.80555 c -32.66439,-20.91359 -38.76942,-41.82055 -43.56955,-72.61683 30.79627,4.80017 51.70319,10.90514 72.6168,43.56963 z" style="fill:#dba255;fill-opacity:1;stroke:#000000;stroke-width:4.5;stroke-miterlimit:4;stroke-dasharray:none" sodipodi:nodetypes="ccccccccccccc" /><g id="g1185" style="stroke-width:4.5;stroke-miterlimit:4;stroke-dasharray:none" transform="translate(-287.29334,-3.2591308)"><path id="path1034" style="fill:#c3c4c6;fill-opacity:1;stroke:#000000;stroke-width:4.5;stroke-linecap:butt;stroke-linejoin:miter;stroke-miterlimit:4;stroke-dasharray:none;stroke-dashoffset:0;stroke-opacity:1" d="m 607.56445,301.94141 c 0,0 -12.80016,30.91019 -45.71093,43.67773 l -13.22266,68.20508 c 61.83758,0 107.4982,-19.09717 146.96289,-61.08594 z m -210.23047,0.39257 -17.94531,11.15235 c 19.9774,44.0047 84.72883,100.33789 146.56641,100.33789 l -13.2207,-60.20508 c -65.83758,0 -115.4004,-51.28516 -115.4004,-51.28516 z" transform="translate(0,51.591)" /><path id="path1016" style="fill:#dba255;fill-opacity:1;stroke:#000000;stroke-width:4.5;stroke-linecap:butt;stroke-miterlimit:4;stroke-dasharray:none" d="m 525.95586,405.20987 c 7.57972,0 14.88579,-1.26216 22.67573,-3.40064 v 63.60598 c 0,0 -5.05669,0.91804 -11.33787,0.91804 -6.28118,0 -11.33786,-0.91804 -11.33786,-0.91804 z" sodipodi:nodetypes="cccscc" /><g id="g1030" transform="translate(2.3828125e-5,-0.4246171)" style="fill:#000000;fill-opacity:1;stroke:none;stroke-width:4.5;stroke-miterlimit:4;stroke-dasharray:none"><circle id="path1018" cx="537.2937" cy="415.40988" r="4.527873" /><circle id="circle1020" cx="537.2937" cy="428.9614" r="4.527873" /><circle id="circle1022" cx="537.2937" cy="442.51291" r="4.527873" /><circle id="circle1024" cx="537.2937" cy="456.06442" r="4.527873" /></g><path id="rect1009" style="fill:#dba255;fill-opacity:1;stroke:#000000;stroke-width:4.5" d="m 519.34469,398.59869 c 3.66259,0 6.61117,2.94859 6.61117,6.61118 v 60.20534 c 0,3.66259 -2.94858,6.61117 -6.61117,6.61117 -3.66259,0 -6.61117,-2.94858 -6.61117,-6.61117 v -60.20534 c 0,-3.66259 2.94858,-6.61118 6.61117,-6.61118 z" sodipodi:nodetypes="sssssss" /><path id="path1012" style="fill:#dba255;fill-opacity:1;stroke:#000000;stroke-width:4.5" d="m 555.24276,390.59869 c -3.66259,0 -6.61117,2.94859 -6.61117,6.61118 v 68.20534 c 0,3.66259 2.94858,6.61117 6.61117,6.61117 3.66259,0 6.61117,-2.94858 6.61117,-6.61117 v -68.20534 c 0,-3.66259 -2.94858,-6.61118 -6.61117,-6.61118 z" sodipodi:nodetypes="sssssss" /><path id="use1071" style="fill:#dba255;fill-opacity:1;stroke:#000000;stroke-width:4.5" d="m 399.14567,347.93208 c 1.67017,2.89282 0.67005,6.57542 -2.24242,8.25693 l -16.06719,9.2764 c -2.91247,1.68152 -6.60176,0.70635 -8.27193,-2.18647 -1.67018,-2.89283 -0.67005,-6.57542 2.24242,-8.25693 l 16.0672,-9.2764 c 2.91247,-1.68152 6.60174,-0.70636 8.27192,2.18647 z" sodipodi:nodetypes="sssssss" /><path id="path1086" style="fill:#dba255;fill-opacity:1;stroke:#000000;stroke-width:4.5" d="m 393.49762,337.53491 c 1.58698,2.93928 0.48223,6.59186 -2.47702,8.18961 l -16.32524,8.81433 c -2.95925,1.59777 -6.61923,0.51776 -8.2062,-2.42152 -1.58699,-2.93929 -0.48223,-6.59186 2.47702,-8.18961 l 16.32525,-8.81433 c 2.95925,-1.59777 6.61921,-0.51777 8.20619,2.42152 z" sodipodi:nodetypes="sssssss" /><path id="use1105" style="fill:#dba255;fill-opacity:1;stroke:#000000;stroke-width:4.5;stroke-linecap:butt;stroke-miterlimit:4;stroke-dasharray:none" d="m 343.613,309.37784 32.46012,-14.94727 4.88318,8.21369 1.67456,20.3723 -21.56022,9.92808 -14.39111,-14.51657 z" sodipodi:nodetypes="ccccccc" /><path id="path1088" style="fill:#dba255;fill-opacity:1;stroke:#000000;stroke-width:4.5" d="m 389.20087,326.16415 c 1.52807,3.19342 0.16992,7.00284 -3.04519,8.54128 l -17.73674,8.48716 c -3.21509,1.53846 -7.03365,0.20611 -8.5617,-2.9873 -1.52809,-3.19342 -0.16992,-7.00284 3.04519,-8.54127 l 17.73675,-8.48716 c 3.21509,-1.53846 7.03362,-0.20613 8.56169,2.98729 z" sodipodi:nodetypes="sssssss" /><path id="path1121" style="fill:none;fill-opacity:1;stroke:#000000;stroke-width:4.5;stroke-linecap:butt;stroke-miterlimit:4;stroke-dasharray:none" d="M 346.67953,318.42807 380.9563,302.64426" sodipodi:nodetypes="cc" /><path style="fill:#dba255;fill-opacity:1;stroke:#000000;stroke-width:4.5;stroke-linecap:butt;stroke-linejoin:miter;stroke-miterlimit:4;stroke-dasharray:none;stroke-dashoffset:0;stroke-opacity:1" d="m 613.58813,337.95324 12.82928,-39.43816 106.43552,53.21776 -28.03435,46.56554 c 0,0 -30.88531,-5.7019 -55.59356,-21.38213 -24.70825,-15.68024 -35.63689,-38.96301 -35.63689,-38.96301 z" id="path1154" sodipodi:nodetypes="ccccsc" /><path style="fill:#dba255;fill-opacity:1;fill-rule:nonzero;stroke:#000000;stroke-width:4.5" d="m 605.06263,336.30368 c -3.10514,2.52871 -3.95177,9.04824 0.51374,14.45944 4.46552,5.41121 20.38901,18.86741 39.38275,31.30229 18.99374,12.43488 44.82706,21.45204 52.42579,23.00082 7.59874,1.54879 13.75177,-1.34321 14.65624,-5.64334 0.90447,-4.30013 -0.49073,-6.8802 -7.15684,-8.58302 -6.66611,-1.70282 -31.87648,-9.66718 -53.05729,-23.00786 -21.18081,-13.34068 -32.64223,-25.38432 -36.50481,-29.85814 -3.86258,-4.47382 -7.15443,-4.1989 -10.25958,-1.67019 z" id="path1123" sodipodi:nodetypes="zzzzzzzzz" /><path style="fill:#dba255;fill-opacity:1;fill-rule:nonzero;stroke:#000000;stroke-width:4.5" d="m 626.73501,280.99444 c -4.26263,3.73559 -5.01263,9.71929 1.2697,18.65297 6.28233,8.93368 29.49989,25.13563 49.92846,34.90492 20.42856,9.7693 44.61018,17.10678 56.63063,17.43907 12.02045,0.33229 14.55213,-5.68976 16.26096,-10.05145 1.70883,-4.36169 1.31685,-12.67581 -10.16992,-22.02836 -11.48677,-9.35254 -23.92895,-17.48735 -42.45755,-26.34804 -18.52859,-8.8607 -36.20394,-13.86845 -47.4335,-15.71729 -11.22957,-1.84883 -19.76616,-0.5874 -24.02878,3.14818 z" id="path1125" sodipodi:nodetypes="zzszzzszz" /><path style="fill:none;fill-opacity:1;fill-rule:nonzero;stroke:#000000;stroke-width:4.5;stroke-linecap:round;stroke-linejoin:round;stroke-miterlimit:4;stroke-dasharray:none;stroke-dashoffset:0" d="m 716.14319,318.55094 35.31102,17.58648 c -19.76801,2.40955 -46.46353,-6.29573 -66.56136,-16.20257 -18.42178,-9.08067 -44.33226,-24.09843 -51.28833,-40.76851" id="path1141" /><path id="path1162" style="fill:none;fill-opacity:1;fill-rule:nonzero;stroke:#000000;stroke-width:4.5;stroke-linecap:round;stroke-linejoin:round;stroke-miterlimit:4;stroke-dasharray:none;stroke-dashoffset:0" d="m 696.02815,377.70818 18.05602,5.22674 m -12.23538,-15.32387 18.05602,5.22674 m -12.23528,-15.32385 18.05602,5.22674" /></g><path id="path1335" d="M 3.500005,335.0808 C 3.499845,475.88536 115.17865,586.49983 250.00001,586.49999 384.82136,586.50016 496.5,475.88569 496.5,335.08113 V 3.5001722 L 3.500385,3.5000062 Z" style="fill:none;fill-opacity:1;stroke:#000000;stroke-width:7;stroke-miterlimit:4;stroke-dasharray:none" sodipodi:nodetypes="szsccs" /></g></g></svg>
