<svg xmlns="http://www.w3.org/2000/svg" width="2185" height="1807"><path fill="#0566b2" d="M0 0h2185v1807H0z"/><path fill="#dcdedd" d="M286 278h1613v1256H286z"/><path fill="#ee1c23" d="M1795 1449v-50h104v135H286v-136h104v51h47v-51h104v51h47v-51h104v51h47v-50h104v50h47v-50h104v50h47v-50h103v50h47v-50h104v50h47v-50h104v50h47v-50h104v50h47v-50h104v50h47z"/><path fill="#fad60a" d="M115 1608v-36l-3-6h47l-3 6v36h36l6-3v47l-6-3h-36v41h36l6-3v48l-6-3h-36v35l3 6h-47l3-6v-35H80l-6 3v-48l6 3h35v-41H80l-6 3v-47l6 3z"/><path fill-rule="evenodd" d="M107 1600v-26l-2-4-6-12h73l-5 12-3 4v26h26l4-2 12-6v73l-12-6-4-2h-26v25h26l4-2 12-5v73l-12-6-4-2h-26v25l3 5 5 11H99l6-11 2-5v-25H81l-4 2-11 6v-73l11 5 4 2h26v-25H81l-4 2-11 6v-73l11 6 4 2h26zm8 8v-36l-3-6h47l-3 6v36h36l6-3v47l-6-3h-36v41h36l6-3v48l-6-3h-36v35l3 6h-47l3-6v-35H80l-6 3v-48l6 3h35v-41H80l-6 3v-47l6 3h35z"/><path fill="#fad60a" d="M115 842v-36l-3-6h47l-3 6v36h36l6-3v47l-6-3h-36v41h36l6-3v47l-6-2h-36v35l3 6h-47l3-6v-35H80l-6 2v-47l6 3h35v-41H80l-6 3v-47l6 3z"/><path fill-rule="evenodd" d="M107 834v-26l-2-4-6-12h73l-5 12-3 4v26h26l4-3 12-5v73l-12-6-4-2h-26v25h26l4-2 12-6v73l-12-5-4-2h-26v25l3 4 5 12H99l6-12 2-4v-25H81l-4 2-11 5v-73l11 6 4 2h26v-25H81l-4 2-11 6v-73l11 5 4 3h26zm8 8v-36l-3-6h47l-3 6v36h36l6-3v47l-6-3h-36v41h36l6-3v47l-6-2.001h-36v35l3 6h-47l3-6v-35H80l-6 2v-47l6 3h35v-41H80l-6 3v-47l6 3h35z"/><path fill="#fad60a" d="M115 75V40l-3-6h47l-3 6v35h36l6-3v48l-6-3h-36v41h36l6-3v47l-6-3h-36v36l3 6h-47l3-6v-36H80l-6 3v-47l6 3h35v-41H80l-6 3V72l6 3z"/><path fill-rule="evenodd" d="M107 67V42l-2-4-6-12h73l-5 12-3 4v25h26l4-2 12-6v73l-12-5-4-2h-26v25h26l4-2 12-6v73l-12-6-4-2h-26v26l3 4 5 12H99l6-12 2-4v-26H81l-4 2-11 6v-73l11 6 4 2h26v-25H81l-4 2-11 5V59l11 6 4 2h26zm8 8V40l-3-6h47l-3 6v35h36l6-3v48l-6-3h-36v41h36l6-3v47l-6-3h-36v36l3 6h-47l3-6v-36H80l-6 3v-47l6 3h35v-41H80l-6 3V72l6 3h35z"/><path fill="#fad60a" d="M2028 1608v-36l-2-6h47l-3 6v36h35l6-3v47l-6-3h-35v41h35l6-3v48l-6-3h-35v35l3 6h-47l2-6v-35h-35l-6 3v-48l6 3h35v-41h-35l-6 3v-47l6 3z"/><path fill-rule="evenodd" d="M2020 1600v-26l-2-4-5-12h73l-6 12-2 4v26h25l5-2 11-6v73l-11-6-5-2h-25v25h25l5-2 11-5v73l-11-6-5-2h-25v25l2 5 6 11h-73l5-11 2-5v-25h-25l-4 2-12 6v-73l12 5 4 2h25v-25h-25l-4 2-12 6v-73l12 6 4 2h25zm8 8v-36l-2-6h47l-3 6v36h35l6-3v47l-6-3h-35v41h35l6-3v48l-6-3h-35v35l3 6h-47l2-6v-35h-35l-6 3v-48l6 3h35v-41h-35l-6 3v-47l6 3h35z"/><path fill="#fad60a" d="M2028 842v-36l-2-6h47l-3 6v36h35l6-3v47l-6-3h-35v41h35l6-3v47l-6-2h-35v35l3 6h-47l2-6v-35h-35l-6 2v-47l6 3h35v-41h-35l-6 3v-47l6 3z"/><path fill-rule="evenodd" d="M2020 834v-26l-2-4-5-12h73l-6 12-2 4v26h25l5-3 11-5v73l-11-6-5-2h-25v25h25l5-2 11-6v73l-11-5-5-2h-25v25l2 4 6 12h-73l5-12 2-4v-25h-25l-4 2-12 5v-73l12 6 4 2h25v-25h-25l-4 2-12 6v-73l12 5 4 3h25zm8 8v-36l-2-6h47l-3 6v36h35l6-3v47l-6-3h-35v41h35l6-3v47l-6-2.001h-35v35l3 6h-47l2-6v-35h-35l-6 2v-47l6 3h35v-41h-35l-6 3v-47l6 3h35z"/><path fill="#fad60a" d="M2028 75V40l-2-6h47l-3 6v35h35l6-3v48l-6-3h-35v41h35l6-3v47l-6-3h-35v36l3 6h-47l2-6v-36h-35l-6 3v-47l6 3h35v-41h-35l-6 3V72l6 3z"/><path fill-rule="evenodd" d="M2020 67V42l-2-4-5-12h73l-6 12-2 4v25h25l5-2 11-6v73l-11-5-5-2h-25v25h25l5-2 11-6v73l-11-6-5-2h-25v26l2 4 6 12h-73l5-12 2-4v-26h-25l-4 2-12 6v-73l12 6 4 2h25v-25h-25l-4 2-12 5V59l12 6 4 2h25zm8 8V40l-2-6h47l-3 6v35h35l6-3v48l-6-3h-35v41h35l6-3v47l-6-3h-35v36l3 6h-47l2-6v-36h-35l-6 3v-47l6 3h35v-41h-35l-6 3V72l6 3h35z"/><path fill="#fad60a" d="M753 1608v-36l-3-6h47l-3 6v36h36l6-3v47l-6-3h-36v41h36l6-3v48l-6-3h-36v35l3 6h-47l3-6v-35h-36l-5 3v-48l5 3h36v-41h-36l-5 3v-47l5 3z"/><path fill-rule="evenodd" d="M745 1600v-26l-2-4-6-12h73l-6 12-2 4v26h26l4-2 12-6v73l-12-6-4-2h-26v25h26l4-2 12-5v73l-12-6-4-2h-26v25l2 5 6 11h-73l6-11 2-5v-25h-26l-4 2-11 6v-73l11 5 4 2h26v-25h-26l-4 2-11 6v-73l11 6 4 2h26zm8 8v-36l-3-6h47l-3 6v36h36l6-3v47l-6-3h-36v41h36l6-3v48l-6-3h-36v35l3 6h-47l3-6v-35h-36l-5 3v-48l5 3h36v-41h-36l-5 3v-47l5 3h36z"/><path fill="#fad60a" d="M1391 1608v-36l-3-6h47l-3 6v36h35l6-3v47l-6-3h-35v41h35l6-3v48l-6-3h-35v35l3 6h-47l3-6v-35h-36l-6 3v-48l6 3h36v-41h-36l-6 3v-47l6 3z"/><path fill-rule="evenodd" d="M1383 1600v-26l-2-4-6-12h73l-6 12-2 4v26h26l4-2 11-6v73l-11-6-4-2h-26v25h26l4-2 11-5v73l-11-6-4-2h-26v25l2 5 6 11h-73l6-11 2-5v-25h-26l-4 2-12 6v-73l12 5 4 2h26v-25h-26l-4 2-12 6v-73l12 6 4 2h26zm8 8v-36l-3-6h47l-3 6v36h35l6-3v47l-6-3h-35v41h35l6-3v48l-6-3h-35v35l3 6h-47l3-6v-35h-36l-6 3v-48l6 3h36v-41h-36l-6 3v-47l6 3h36z"/><path fill="#fad60a" d="M753 75V40l-3-6h47l-3 6v35h36l6-3v48l-6-3h-36v41h36l6-3v47l-6-3h-36v36l3 6h-47l3-6v-36h-36l-5 3v-47l5 3h36v-41h-36l-5 3V72l5 3z"/><path fill-rule="evenodd" d="M745 67V42l-2-4-6-12h73l-6 12-2 4v25h26l4-2 12-6v73l-12-5-4-2h-26v25h26l4-2 12-6v73l-12-6-4-2h-26v26l2 4 6 12h-73l6-12 2-4v-26h-26l-4 2-11 6v-73l11 6 4 2h26v-25h-26l-4 2-11 5V59l11 6 4 2h26zm8 8V40l-3-6h47l-3 6v35h36l6-3v48l-6-3h-36v41h36l6-3v47l-6-3h-36v36l3 6h-47l3-6v-36h-36l-5 3v-47l5 3h36v-41h-36l-5 3V72l5 3h36z"/><path fill="#fad60a" d="M1391 75V40l-3-6h47l-3 6v35h35l6-3v48l-6-3h-35v41h35l6-3v47l-6-3h-35v36l3 6h-47l3-6v-36h-36l-6 3v-47l6 3h36v-41h-36l-6 3V72l6 3z"/><path fill-rule="evenodd" d="M1383 67V42l-2-4-6-12h73l-6 12-2 4v25h26l4-2 11-6v73l-11-5-4-2h-26v25h26l4-2 11-6v73l-11-6-4-2h-26v26l2 4 6 12h-73l6-12 2-4v-26h-26l-4 2-12 6v-73l12 6 4 2h26v-25h-26l-4 2-12 5V59l12 6 4 2h26zm8 8V40l-3-6h47l-3 6v35h35l6-3v48l-6-3h-35v41h35l6-3v47l-6-3h-35v36l3 6h-47l3-6v-36h-36l-6 3v-47l6 3h36v-41h-36l-6 3V72l6 3h36z"/><path d="M673.87 751.276c-5.523 0-9.982 4.522-9.982 10.045a9.968 9.968 0 0 0 9.982 9.98 9.967 9.967 0 0 0 9.98-9.98c0-5.523-4.457-10.045-9.98-10.045zm47.41 33.334s-3.792 3.83-9.276 4.927c0 0 7.091 15.932-3.328 35.126-.549 0-11.508-.566-12.604 9.854-1.097 10.42 10.85 16.05 17.019 7.677 6.168-8.372 2.75-15.355 2.75-15.355s10.923-18.646 5.439-42.229zm5.567 9.15.192 13.884c9.315.096 18.02.077 26.233-.064.456-4.32 1.015-8.673 1.663-12.988-9.008.02-18.334-.266-28.088-.832zm248.25 298.285s-14.14 67.702-29.495 112.672c0 0 10.95-9.88 25.209-14.267l16.443-97.637z"/><path d="M619.116 760.343s-13.184-7.756-12.409-19.39c.776-11.634 10.859-18.614 21.716-29.472 10.859-10.858 30.248-50.413 30.248-50.413s-7.756-17.063 9.307-34.125c17.063-17.063 16.286-20.165 16.286-20.165s-17.062-16.287-26.37-27.92c0 0 18.615-1.552 37.228 2.326l-19.39-30.248c21.89 6.911 36.023 1.516 62.047 11.634 0 0 15.511-19.39 46.535-29.472 0 0 133.917 14.995 183.554 120.474 49.638 105.479 18.614 172.179 18.614 172.179l76.008-20.165 145.809 26.37s89.967-17.063 162.872 12.409c72.905 29.472 110.133 15.511 105.479-24.819-4.654-40.33-60.93-95.278-102.377-87.507-41.447 7.772-48.085 39.422-48.085 39.422s-24.819-71.354 52.74-93.07c0 0-119.44-113.235-27.921-186.14 0 0-1.552 83.763 65.149 108.582 0 0-1.552-57.393 46.535-72.905 0 0-20.166 83.763 38.779 114.786 0 0 6.204-27.92 32.574-38.779-1.552 17.063-3.065 37.061 17.063 89.968 22.213 58.385 9.307 134.95-6.205 159.77 0 0 17.064-3.103 32.575-21.716 0 0 4.654 111.683-153.566 77.558 0 0 8.395 45.543.278 91.171-7.445 41.853 11.724 68.855 28.518 72.391 16.794 3.535 47.165-12.066 59.23 18.646 12.064 30.712 1.122 48.7 16.452 92.135 15.33 43.435 24.297 31.644 34.002 50.455 8.484 16.444-7.678 42.776-7.678 42.776s-15.355-21.53-21.936-9.871c-10.787 19.106 22.592 34.999 17.55 52.648-11.288 12.652-53.544 32.802-84.457 29.614-1.098-25.229 12.063-39.487 12.063-39.487s-1.242-20.054 14.26-30.712c15.502-10.657 3.29-23.034 3.29-46.067 0-23.034 6.58-25.227-8.775-51.551-12.12-20.78-35.464-31.88-57.035-40.583 0 0 0 60.326 17.55 78.972 17.55 18.647 29.614 32.905 13.162 68.004 0 0-11.637-19.411-23.034-8.774-16.453 15.356 16.452 34.002 13.162 55.938-23.788 15.836-46.478 31.394-83.36 25.227 0 0-2.193-23.033 13.162-38.389 0 0-3.29-19.743 12.066-29.614 15.356-9.872 7.678-30.712 12.065-44.97 4.387-14.26 3.29-36.197-7.678-54.843-10.969-18.646-26.324-51.552-70.197-62.52-43.874-10.969-77.876-43.873-83.36-53.745 0 0-7.093 4.485-21.205 10.237-13.265 5.407-19.743-20.84-38.39-24.13 0 0-35.098 12.064-74.584 19.742-39.487 7.678-129.427 17.55-222.658-13.162 0 0 2.194 24.13-21.936 21.937-24.13-2.194-77.876-13.162-95.426-13.162-17.55 0-29.614-25.227-53.744-19.743-24.13 5.484-33.54 28.81-49.358 46.067-15.818 17.257-3.29 34.002-8.774 47.164-5.485 13.162-14.259 3.29-28.518 7.678s1.096 21.937 13.162 20.84c12.065-1.096 6.684 21.896 1.096 36.196-5.587 14.3-23.107 40.052-38.389 39.486-15.282-.565-3.29-16.452-15.356-39.486-12.065-23.034 6.581-43.873 6.581-55.939 0-12.065-7.678-37.292 15.356-53.745 23.034-16.452 40.387-55.134 48.26-80.069 7.875-24.934 27.422-34.002 64.714-29.614 0 0-39.852-24.862-58.498-22.668-18.646 2.194-52.623 29.77-54.842 57.035-2.326 28.569-5.484 24.13-23.034 21.937-17.55-2.194-19.596 17.208-4.388 19.742 15.21 2.536 8.775 31.809-10.968 51.552-19.743 19.742-36.878 25.373-39.486 17.55-2.608-7.825 1.096-32.905-3.29-47.165-4.388-14.258 4.387-32.905 14.258-42.776 9.872-9.872-1.681-26.179 8.774-39.487 10.457-13.308 38.39-29.614 55.94-52.648 17.55-23.034 14.258-38.39 37.292-48.261 23.034-9.872 53.745 13.162 92.135 13.162 0 0 17.157-27.377 14.258-88.844-2.125-45.092 17.55-99.812 17.55-123.942 0 0-41.27 21.864-46.699 38.152-5.429 16.286 2.327 34.125-10.858 35.676-13.184 1.552-17.839-1.551-18.614 0-.775 1.552-5.429 9.307-12.409 10.082-6.98.776-8.532-7.756-6.204-13.184 2.327-5.43 17.063-17.838 14.736-27.92-2.327-10.083-15.308-14.457-26.37-1.552-11.062 12.905-6.205 30.247-11.634 34.125-5.43 3.878-12.41 2.327-14.736-3.102 0 0-21.716 8.273-17.839-23.785z"/><path fill="none" stroke="#dcdddf" stroke-linecap="round" stroke-miterlimit="22.926" d="M628.433 750.605s-7.677-2.742-5.484-15.904c2.194-13.162 17.724.486 15.904 12.614-1.645 10.968-10.42 10.42-10.42 10.42m10.238 13.161s8.774-29.065 25.775-39.486c17.001-10.42 37.841 4.388 40.034 19.743 2.194 15.356-8.774 29.614-8.774 29.614m-6.033-128.237s17.55-13.436 23.034-16.179c-.549 1.645 3.29 25.227-9.872 29.066-13.162 3.84-13.162-12.887-13.162-12.887zm1.371-1.097s11.242.823 11.791 13.436"/><path fill="none" stroke="#dcdddf" stroke-miterlimit="22.926" stroke-width="3" d="M641.608 683.302s64.373 38.004 88.416 65.924m-35.609-14.47s8.072-19.147 19.839-44.474c10.603-22.825 24.818-69.802 24.818-93.07 0-23.267-1.551-46.535-1.551-46.535m-36.71 36.97s55.842 35.289 98.499 78.721m406.425 260.828s68.552 39.486 226.497 24.13m-138.619 98.309s-1.551-144.258 31.023-221.817m29.473 224.919s1.551-150.463 26.37-207.856"/><path fill="none" stroke="#dcdddf" stroke-linecap="round" stroke-miterlimit="22.926" stroke-width="1.5" d="M767.511 714.842c1.552-.776 13.109-9.085 22.492-20.553 10.471-12.797 20.165-43.045-7.756-64.762-27.92-21.716-34.125-53.515-34.125-53.515m-90.988 83.373c.549 1.645 9.323 15.904 22.485 6.58 13.162-9.323 9.323-18.646 13.162-31.259 3.84-12.613 13.162-19.195 13.162-19.195m-24.953-6.032s14.533-21.388 32.63-31.808c0 0-11.516-10.968-26.324-14.259m51.552 1.645c2.194-.549 83.729-7.14 135.693 44.823 51.964 51.963 84.022 152.272 84.022 152.272m10.072 65.597c0 2.194-9.871 26.324-5.484 54.842 4.388 28.518 58.133 59.23 58.133 59.23m65.81 17.55c2.194 0 69.101 10.968 120.652-34.003 51.552-44.97 61.423-105.296 61.423-105.296m101.962-142.545s113.75-8.453 122.524 93.553m-58.369 374.985c-1.552-1.552-33.35-23.268-89.967-29.472-56.617-6.205-80.537-34.743-95.892-66.551-15.357-31.809-12.066-48.261-34.003-61.423m-34.528 76.527s29.91-13.506 71.26-8.853m-13.186 24.231s11.86-8.947 25.688-5.295m110.391 245.6s31.023 9.307 75.231-8.531m24.82-2.327s33.349 8.531 73.68-10.859M715.631 994.47c27.212 8.068 61.817-1.176 103.103 1.096 42.312 2.33 63.617 47.165 24.13 62.52-39.486 15.356-66.907-3.29-93.231-13.162-26.324-9.871-65.81 6.581-70.198 48.261m210.593-18.646c-1.097-2.194-9.872-19.743 3.29-35.099 13.162-15.356 20.84-14.258 20.84-14.258M746.57 998.188s-17.776-29.312-7.904-79.767m12.796-354.46s24.13-19.196 73.487-25.777m-47.163 27.97s44.97-19.195 75.681-22.485m-49.357 27.42c3.29 0 40.035-17 87.747-5.484m-58.132 15.356s47.164-7.678 89.94 8.774m-57.584 12.066s55.39 6.58 93.78 28.518m-65.262 2.742s48.81 9.323 85.005 38.938m-58.132 2.742s42.776 8.227 72.39 37.841m-51.002 6.58c2.194-1.096 42.228 15.357 65.262 38.39m-422.356 470.983s38.779-24.818 44.983-57.393m-103.927-54.29c3.103-1.552 35.677-18.614 54.29-51.188"/><path fill="#dcdddf" d="M950.464 762.793c-68.326 12.418-120.04 31.635-195.53 31.8a298.981 298.981 0 0 0-1.662 12.987c115.873-2.002 127.706-26.478 194.954-37.494zm1.984 116.447c-111.22 1.434-216.388 56.56-216.388 56.56l.192 20.73s61.816-47.2 226.817-72.171l.128-5.12c-3.597-.068-7.161-.045-10.749 0zM795.152 666.423l4.388 4.935s2.194-6.58 1.371-6.58c-.822 0-6.307 1.096-6.307 1.096z"/><path fill="#da2c27" stroke="#000" stroke-miterlimit="22.926" stroke-width="2" d="M1145.226 400.714s39.486-20.84 102.006-1.096c62.52 19.742 116.265 13.161 141.492-29.615 0 0 12.065 39.486-28.518 55.939 0 0 27.274 13.84 73.488 4.387 46.213-9.453 63.617-34.002 63.617-34.002s-3.29 71.295-104.2 73.488c-66.24 1.44-104.199-25.227-104.199-25.227s10.968 25.227-9.872 44.97c-19.242 18.23-49.357 10.969-49.357 10.969s30.155-10.165 17.55-41.68c-12.607-31.516-75.134-49.358-101.458-46.068z"/><path d="M1308.389 312.254c-20.254 1.837-387.548 54.872-387.548 54.872 3.102-31.799 19.394-34.92 18.619-42.676-.776-7.756-24.835-17.047-30.264-1.535-5.43 15.512-5.439 45.747-5.439 45.747s-23.287-13.16-42.676-2.303c-19.39 10.858-21.498 26.296-21.498 26.296l-42.74 5.695c-3.802-4.386-9.344-6.927-15.227-6.335-10.052 1.013-17.29 10.735-16.188 21.69 1.104 10.956 10.166 18.991 20.219 17.98 5.88-.593 10.775-4.164 13.628-9.214l40.117-5.439s4.945 46.945 33.463 79.85c28.517 32.905 39.476 41.653 39.476 41.653.923 31.021 23.189 42.642 47.412 42.036l65.006 73.516s3.416 61.496 39.093 98.724c0 0-29.78 26.665-46.067 28.216-16.287 1.552-37.233-19.419-50.419-22.521-13.184-3.102-26.345 1.596-27.896 20.986-1.551 19.39 13.944 44.222 27.129 49.65 13.184 5.43 37.986 5.412 58.927-4.67 20.94-10.083 33.334-10.11 33.334-10.11s.801 11.615 3.904 20.922c0 0-41.854 40.382-56.112 108.386 0 0-41.68 30.665-7.679 74.54-.941 57.834 6.085 89.827 20.859 164.562 0 0-82.264 2.211-115.168 74.603 0 0 57.017-29.614 101.988-30.712 44.97-1.096 55.957 9.827 66.925 5.439 10.968-4.388 4.378-17.55 1.088-23.034-3.29-5.484-3.263-12.028-3.263-12.028l60.335-11.005 1.088 36.214 15.356-35.127 30.712 15.356-21.946-32.887 26.296-21.946-35.062 6.59-8.766-30.712-6.59 31.8-35.126-2.176 29.624 18.62-54.833 11.004c1.929-106.901 11.22-127.313-2.175-186.444 0 0 7.632-29.615 43.827-53.745 36.196-24.13 38.39-40.629 38.39-40.629s46.057 4.388 54.832-38.389c8.775-42.776-14.204-80.042-14.204-80.042s-9.692-110.315-6.59-147.542c3.103-37.229 5.494-61.981-24.12-94.886-29.615-32.905-10.292-63.926-19.771-108.578 2.597-13.776 9.465-19.08 9.465-19.08l-6.202-14.582c-16.98 2.714-24.67 12.792-45.38 12.792-20.84 0-32.158 3.123-56.608 36.225-20.157 27.29-41.652 35.127-41.652 35.127s63.616 37.247 53.745 82.217c0 0-34.596-27.95-86.697-48.242-26.873-35.647-44.599-40.056-81.896-79.019 15.51-19.39 14.78-31.799 14.78-31.799s15.485 20.152 21.69 39.542c6.204 19.39 7.777 21.76 23.289 14.78 15.511-6.98 14.736-21.723 0-24.825-14.737-3.103-20.155-22.522-20.155-22.522s353.246-61.852 381.618-65.399c28.372-3.546 48.28-26.351 48.28-26.351s-28.302-10.963-48.556-9.125z"/><path fill="none" stroke="#dcdddf" stroke-linecap="round" stroke-miterlimit="22.926" stroke-width="1.5" d="m928.315 388.064 438.98-68.251m-500.51 112.2s-9.307-16.287-4.654-30.248c4.654-13.96 27.146-10.082 27.146-10.082s-1.552-17.838 10.082-28.697m-60.883 60.884-1.163-25.206m-15.096 25.982v-22.493m-16.1 27.534.067-25.755m97.829 45.144s-20.94 44.208-30.248 58.944m32.575 32.575L969.16 515l-10.081 72.13m65.015 78.388s-5.044-32.49 14.454-65.282c19.497-32.79 16.835-41.028 16.835-41.028m-52.324-79.524s31.25 9.723 57.62-3.463c26.37-13.184 40.331-17.063 40.331-17.063m-3.878-49.249s31.023 1.164 49.637 27.533M957.485 757.735s2.193 4.387 4.387 8.226c0 0-3.839 3.29-7.678 9.323l10.968 8.227s-5.484 3.839-8.226 10.968c0 0 9.323 1.645 13.162 3.839 0 0-4.936 6.033-6.033 11.517 0 0 7.678-.549 14.259 1.096 0 0-1.645 7.679-.549 11.517 0 0 7.415 2.01 16.722 5.888m57.887-13.64s33.633-10.404 65.432-16.609c31.799-6.204 46.535-37.227 47.31-58.168m-115.562 20.94 27.145 35.678m-16.702-42.885c1.551-1.551 30.662-18.387 45.398-23.816 0 0 4.654-16.287 11.634-30.247m-54.29 134.951s13.184 24.818 35.676 43.433c22.493 18.614 55.936 23.816 55.936 23.816m-22.586-5.978c0 1.551-24.818 30.247-24.818 30.247l-41.106-39.554m37.228 35.677-18.614 17.838-33.35-30.248m30.248 27.921-17.063 20.166-28.697-24.82m25.594 22.492-14.415 17.064m10.538 8.531-51.189-38.004m-6.98 74.456s62.046-20.94 70.578-21.716m-22.492 6.526-.775 171.858m-31.8 6.526s34.903 19.067 42.658 22.946m17.063-25.983c-1.94 15.9-1.164 22.104-1.164 22.104"/><path fill="none" stroke="#dcdddf" stroke-linecap="square" stroke-miterlimit="22.926" stroke-width="2" d="M1013.935 778.286c-16.287 1.551-33.394-16.678-46.58-19.78-13.184-3.102-26.345 1.596-27.895 20.986-1.552 19.39 13.943 44.222 27.128 49.65 13.184 5.43 37.987 5.412 58.927-4.67 20.94-10.083 33.335-10.11 33.335-10.11s.8 11.615 3.903 20.922c0 0-41.854 40.382-56.112 108.386 0 0-41.68 30.665-7.678 74.54-.942 57.834 3.795 93.983 3.795 93.983m74.374 4.655s6.566-61.389-6.829-120.52c0 0 7.632-29.615 43.827-53.745 36.197-24.13 38.39-40.629 38.39-40.629s46.057 4.388 54.833-38.389c8.774-42.777-7.623-74.557-7.623-74.557"/><path fill="none" stroke="#dcdddf" stroke-miterlimit="22.926" stroke-width="8" d="m1083.69 611.172 175.281-69.802s42.336 80.165 32.574 152.014c-9.762 71.85-31.022 99.274-31.022 99.274s-46.536-6.204-107.03-62.046c-60.496-55.843-69.803-119.44-69.803-119.44z"/><path fill="#0166b4" stroke="#000" stroke-miterlimit="22.926" stroke-width="3" d="m1083.69 611.172 175.281-69.802s42.336 80.165 32.574 152.014c-9.762 71.85-31.022 99.274-31.022 99.274s-46.536-6.204-107.03-62.046c-60.496-55.843-69.803-119.44-69.803-119.44z"/><path fill="#ffd30d" stroke="#000" stroke-miterlimit="22.926" stroke-width="2" d="M1155.902 608.57c4.368 1.151 6.982 4.741 8.705 8.444l7.46 17.074-16.041 7.124c-4.437 1.932-10.759 1.053-14.908-1.016l17.619 39.739c1.837-4.03 5.076-7.088 8.817-8.893l17.553-7.873 8.744 19.008-18.541 8.283c-4.522 2.04-9.845.719-12.875-.012l17.197 38.302c2.218-5.106 6.648-7.41 9.436-8.622l18.382-8.275 7.067 15.821c1.378 4.258-.18 11.654-1.919 13.98l42.084-18.945c-4.118-.417-8.126-3.605-9.916-7.069l-7.55-16.853 18.635-8.298c3.942-1.315 8.892-1.124 12.6-.078l-17.586-39.536c-1.02 3.948-4.321 8.426-7.873 9.81l-19.234 8.091-8.174-19.006 18.908-8.444c4.133-1.639 7.628-.747 12.173.14l-17.34-38.683c-2.027 4.806-4.488 8.028-9.204 9.781l-17.94 7.903-7.384-16.382c-2.22-4.587-1.042-9.635.252-13.465z"/></svg>