<?xml version="1.0" encoding="UTF-8" standalone="no"?>
<svg
   version="1.0"
   height="382"
   width="458"
   id="svg594"
   xmlns:xlink="http://www.w3.org/1999/xlink"
   xmlns="http://www.w3.org/2000/svg"
   xmlns:svg="http://www.w3.org/2000/svg"
   xmlns:rdf="http://www.w3.org/1999/02/22-rdf-syntax-ns#"
   xmlns:cc="http://creativecommons.org/ns#"
   xmlns:dc="http://purl.org/dc/elements/1.1/">
  <metadata
     id="metadata598">
    <rdf:RDF>
      <cc:Work
         rdf:about="">
        <dc:format>image/svg+xml</dc:format>
        <dc:type
           rdf:resource="http://purl.org/dc/dcmitype/StillImage" />
      </cc:Work>
    </rdf:RDF>
  </metadata>
  <!--background-->
  <rect
     style="fill:#0466b4"
     x="0"
     y="0"
     height="382"
     width="458"
     id="rect417" />
  <rect
     style="fill:#ed1b25"
     x="52"
     y="52"
     height="278"
     width="354"
     id="rect419" />
  <g
     id="cross">
    <path
       style="fill:#f9d40b;stroke:black;stroke-width:1.2px;stroke-linejoin:miter"
       d="M 31.5,14 h 7 c 1.1,-0.1 2.1,-0.3 2.6,-1 v 10 c -0.5,-0.7 -1.5,-0.9 -2.6,-1 h -7 v 9   h 7 c 1.1,-0.1 2.1,-0.3 2.6,-1 v 10 c -0.5,-0.7 -1.5,-0.9 -2.6,-1 h -7   v 7 c 0.1,1 0.4,2 1.2,2.5 h -10 c 0.7,-0.5 1,-1.5 0.9,-2.4 v -7   h -7 c -1.1,0.1 -2.1,0.3 -2.6,1 v -10 c 0.5,0.7 1.5,0.9 2.6,1 h 7   v -9 h -7 c -1.1,0.1 -2.1,0.3 -2.6,1 v -10 c 0.5,0.7 1.5,0.9 2.6,1 h 7   v -7 c -0.1,-1 -0.4,-2 -1.2,-2.5 h 10 c -0.7,0.5 -1,1.5 -0.9,2.4 v 7 z"
       id="path421" />
  </g>
  <use
     xlink:href="#cross"
     transform="translate(137,0)"
     id="use424" />
  <use
     xlink:href="#cross"
     transform="translate(269,0)"
     id="use426" />
  <use
     xlink:href="#cross"
     transform="translate(405,0)"
     id="use428" />
  <use
     xlink:href="#cross"
     transform="translate(0,164)"
     id="use430" />
  <use
     xlink:href="#cross"
     transform="translate(405,164)"
     id="use432" />
  <use
     xlink:href="#cross"
     transform="translate(0,328)"
     id="use434" />
  <use
     xlink:href="#cross"
     transform="translate(137,328)"
     id="use436" />
  <use
     xlink:href="#cross"
     transform="translate(269,328)"
     id="use438" />
  <use
     xlink:href="#cross"
     transform="translate(405,328)"
     id="use440" />
  <!--absolutely black spherical horse in vacuum-->
  <!--horse eye-->
  <!--gap between tail and body-->
  <path
     style="fill:#ed1b25;stroke:none;"
     d="m 316.2,230.3 c -1.1,2.2 0.9,2.4 1.7,1.7 l 6,-4.2 1.2,-0 0.1,-3.8 c 7.7,-7.3 6.3,-14.5 3,-17.4 -7.1,-5.9   -16.9,3.3 -9.4,10.1 1.3,1.5 0.2,8.7 -2.8,13.6 z"
     id="path446" />
  <!--horse bridle-->
  <!--horseshoes-->
  <defs
     id="defs475">
    <g
       id="horseshoe_frontal">
      <path
         style="fill:#f9d40b;stroke:black;stroke-width:0.5px;"
         d="M 272,311 h15 a1,1,0,0,1,0,2 h-15 a1,1,0,0,1,0,-2 z"
         id="path472" />
    </g>
    <style
       id="style4326"
       type="text/css" />
    <style
       id="style6"
       type="text/css" />
  </defs>
  <!--bridle connections-->
  <!--saddle-->
  <!--spear-->
  <!--knight-->
  <!--leg-->
  <!--right hand-->
  <!--body-->
  <!--left hand-->
  <!--head-->
  <!--shield-->
  <g
     id="g3982"
     transform="matrix(0.38739736,0,0,0.38739736,329.23861,-58.90177)">
    <g
       id="g3946">
      <path
         style="color:#000000;display:inline;overflow:visible;visibility:visible;fill:#dcdddf;fill-opacity:1;stroke:#000000;stroke-width:2;stroke-linecap:butt;stroke-linejoin:miter;stroke-miterlimit:4;stroke-dasharray:none;stroke-dashoffset:0;stroke-opacity:1;marker:none;enable-background:accumulate"
         d="m 331.4563,215.30067 c 17.05819,2.96296 23.30458,-6.35187 41.66879,-7.57614 18.36422,-1.22429 32.19862,12.87944 32.19862,12.87944 l 1.51523,-7.57614 c 0,0 -13.77348,-20.19543 -39.77476,-16.66752 -23.29989,3.16138 -35.98669,9.84899 -51.32838,-3.03045 -1.84285,5.52856 -1.34774,19.00611 15.7205,21.97081 z m 20.59727,-30.5166 c 0,0 2.14286,8.30358 6.42857,11.51786 0,0 3.48215,-8.30357 6.96429,-12.05357 0,0 0.80358,5.35714 4.01786,8.03571 0,0 3.48214,-3.75 3.75,-9.375 0.26785,-5.625 -21.16072,1.875 -21.16072,1.875 z m 8.03572,39.10715 c 0,0 -2.00893,-6.16072 0.53571,-12.32144 0,0 6.96428,6.16072 9.91071,11.25001 0,0 0.53572,-7.76786 2.14286,-10.44643 0,0 8.2987,3.82143 10.17858,10.71429 -9.63799,6.62499 -22.76786,0.80357 -22.76786,0.80357 z m -170.05434,8.3295 c 0,0 0.75761,-17.42513 -16.28871,-33.71384 0,0 25.38008,-2.08343 29.92577,27.46353 0,0 4.16688,-22.91784 -10.6066,-35.41848 0,0 23.10723,-2.27284 25.75889,33.71384 0,0 4.54568,-18.56155 -2.65166,-35.60787 4.54569,-1e-5 21.97082,8.71256 16.66752,37.88072 z m -5.42957,194.95945 c 0,0 -24.62247,-2.27285 -31.06219,25.75889 0,0 15.9099,-12.12183 27.65293,-11.36422 0,0 -21.59202,7.95495 -20.07679,36.36549 0,0 11.14231,-17.31418 25.91579,-22.61748 0,0 -20.10741,17.56672 -9.87962,37.26469 0,0 4.9245,-19.31916 21.21321,-25.00127 z m 74.37248,224.5064 c -32.95623,-4.16688 -40.53237,16.66752 -40.53237,16.66752 0,0 20.07678,-7.95496 35.22907,-0.75762 0,0 -27.27412,0.37881 -34.47146,18.56155 0,0 17.80394,-8.71256 33.33504,-0.3788 0,0 -26.51651,-1.51523 -31.441,17.80394 0,0 14.77348,-7.57615 26.5165,-2.65165 11.74303,4.92449 19.31917,0.75761 19.31917,0.75761 z m 190.12928,39.9725 c -26.25,9.64286 -26.78571,31.60715 -26.78571,31.60715 0,0 13.92857,-15.53572 30,-17.14286 0,0 -20.35714,14.46429 -17.14286,32.14286 0,0 9.64286,-17.14286 26.78572,-18.75 0,0 -18.21429,15.53571 -14.46429,32.14285 0,0 13.125,-17.94642 28.125,-22.23214 15,-4.28571 -26.51786,-37.76786 -26.51786,-37.76786 z"
         id="path3944"
         transform="translate(-634.66868,207.23547)" />
    </g>
    <g
       id="g3940">
      <path
         style="color:#000000;display:inline;overflow:visible;visibility:visible;fill:#000000;stroke:none;stroke-width:1;stroke-linecap:butt;stroke-linejoin:miter;stroke-miterlimit:4;stroke-dasharray:none;stroke-dashoffset:0;stroke-opacity:1;marker:none;enable-background:accumulate"
         d="m 402.85714,601.4805 c 5.89286,10.71429 15.53572,15 15.53572,15 2.67857,8.03572 -1.07143,26.25 -1.07143,26.25 10.71428,2.67857 20.89286,-10.71428 20.89286,-10.71428 4.28571,6.96428 2.14285,24.10714 2.14285,24.10714 12.85715,-2.14286 16.07143,-17.14286 16.07143,-17.14286 6.42857,8.03572 6.42857,17.14286 6.42857,17.14286 13.39286,-1.07143 12.85714,-17.14286 12.85714,-17.14286 0,0 21.42858,2.67857 24.10715,11.78572 2.67857,9.10714 -4.28571,20.89285 -12.85714,26.78571 -8.57143,5.89286 -11.78572,0.53572 -23.03572,-0.53571 -11.25,-1.07143 -16.60714,11.25 -16.60714,19.82143 0,8.57142 19.82143,28.92857 24.64286,32.14285 4.82143,3.21429 8.57143,-1.07143 24.64285,-2.14285 16.07143,-1.07143 23.57143,-1.60715 30.53572,-11.25 C 534.10714,705.94479 540,695.76622 540,695.76622 c 2.67857,2.14285 8.03572,3.21428 8.03572,3.21428 -1.60715,-11.78571 2.14285,-21.96428 2.14285,-21.96428 4.28572,4.82143 12.32143,9.64285 12.32143,9.64285 -6.42857,-20.35714 5.35714,-30.53571 9.64286,-51.42857 4.28571,-20.89285 -17.14286,-25.17857 -26.25,-26.25 -9.10714,-1.07143 -25.17857,-16.07143 -25.17857,-26.25 0,-10.17857 8.57143,-12.32143 8.57143,-12.32143 11.25,11.25 24.10714,6.42858 24.10714,6.42858 -9.10715,-8.57143 -0.5932,-22.16601 0.53571,-40.17857 1.12891,-18.01256 -10.72882,-22.20525 -20.56803,-23.86849 0,0 -14.39467,-51.51778 -21.2132,-67.42768 -6.81853,-15.9099 -11.7902,-51.38241 -11.7902,-51.38241 13.92858,-4.82143 23.57143,-18.75 23.57143,-18.75 -3.92136,-3.98569 -5.51621,-7.19588 -6.42857,-10.17857 28.92857,1.07143 33.21429,-15.53571 33.21429,-15.53571 -19.28572,2.67857 -19.28572,-9.64286 -19.28572,-9.64286 32.83548,1.54215 26.78572,-18.21429 26.78572,-18.21429 -16.60715,4.82143 -21.96429,-8.03571 -21.96429,-8.03571 26.25,-4.82143 21.96429,-21.42857 21.96429,-21.42857 -22.5,4.28571 -24.51288,-15.37881 -24.51288,-15.37881 l -4.41569,-8.72833 4.28571,-15.99067 c 17.14286,-9.06907 9.73214,-29.00933 9.73214,-29.00933 -6.42857,8.03571 -17.67857,6.69642 -17.67857,6.69642 8.83929,-10.98214 8.83929,-23.57142 8.83929,-23.57142 -6.96429,1.875 -16.33929,2.41071 -16.33929,2.41071 2.67857,-8.83929 1.25,-20.71429 1.25,-20.71429 -16.67213,9.32904 -15.80357,-2.06997 -21.49356,-13.5688 C 491.60771,161.66178 480,155.49836 480,155.49836 c 9.91072,-7.23214 13.4647,-15.08659 4.01786,-25.71429 -9.73759,-10.95478 -21.35012,-1.00643 -21.35012,-1.00643 0,0 -8.11417,-9.17214 -16.41774,-3.54714 -8.30357,5.625 -3.48214,16.51786 -3.48214,16.51786 -5.89286,-0.80357 -15.66072,-5.75953 -29.73215,-4.82143 -14.07143,0.93809 -11.24999,16.33929 -11.24999,16.33929 -11.36331,1.043 -22.83307,-2.86862 -31.875,-1.33929 -9.04194,1.52933 -10.33091,6.45168 -13.39286,6.96429 0.26786,-6.42858 -4.55357,-11.78572 -11.78572,-7.76786 -7.23214,4.01786 -5.35714,13.125 -0.80357,21.42857 4.55357,8.30357 8.03571,14.19643 8.03571,14.19643 0,0 18.3829,-3.89884 32.77757,0.26804 14.39467,4.16688 23.86486,19.31917 18.94036,31.8198 0,0 -13.44534,0.75762 -26.61957,3.43619 -10.02273,2.03781 -18.07968,0.11094 -18.07968,0.11094 0,0 -0.58666,23.20467 10.29279,24.4846 10.87944,1.27994 12.60756,-5.84085 23.04225,-3.03045 11.12182,2.99547 11.36421,11.36421 11.36421,11.36421 L 402.5,278.44479 c 0,0 -10.03571,5.8474 -33.21428,6.96428 -21.552,1.0385 -32.67858,12.32143 -32.67858,12.32143 0,0 -32.66105,-3.69294 -54.10714,-13.92857 -21.44609,-10.23563 -45.53571,-15.53571 -46.07143,-22.5 -0.53571,-6.96428 4.82143,-15 4.28572,-24.64285 -0.56382,-10.14882 -3.75,-11.25001 -16.60715,-12.85715 -12.85714,-1.60714 -32.67857,3.21429 -35.35714,10.17857 -2.67857,6.96429 6.42857,30.53572 5.35714,42.85715 -1.07143,12.32142 2.14286,27.85714 11.25,32.67857 9.10714,4.82143 22.09677,3.83168 38.03572,13.92857 15.60714,9.8867 18.6875,13.09953 18.21429,20.67096 -0.47322,7.57143 -10.17858,14.15047 -10.17858,14.15047 0,0 17.05095,4.46954 26.25,-8.57143 0,0 9.20475,6.7747 -4.81111,23.82102 0,0 12.50063,3.78807 20.45559,-3.78807 7.95495,-7.57614 18.18274,-10.6066 21.59201,3.03046 0,0 -33.12935,32.82945 -50.80792,45.68659 -17.67857,12.85714 -34.28571,15 -42.85714,6.42857 -8.57143,-8.57143 -27.85714,-10.17857 -38.03571,2.14286 -10.17858,12.32143 9.10714,43.39285 21.96428,46.07143 12.85714,2.67857 24.10714,-3.21429 35.35714,5.35714 11.25,8.57143 33.21429,-11.25 47.14286,-20.89286 13.92857,-9.64286 21.42857,-15 27.32143,-4.28571 0,0 4.82143,-2.14286 8.03571,-11.78572 3.21429,-9.64285 15,-1.07143 14.46429,9.64286 -0.53571,10.71429 5.35714,31.60714 17.67857,36.96429 12.32143,5.35714 24.10714,0 32.14286,16.60714 8.03571,16.60714 0,25.71428 -13.39286,28.39286 -13.39286,2.67857 -32.67857,-6.42858 -57.32143,-6.42858 -24.64285,0 -36.2738,17.07144 -40.17857,27.32144 -3.90476,10.25 1.65038,20.42856 -4.82143,31.60714 -6.47181,11.17857 -14.99999,18.39286 -14.99999,18.39286 0,0 13.39285,4.82142 24.64285,-4.82144 0,0 1.96429,12.32143 -8.21429,21.42858 0,0 10.17858,3.21428 23.03572,-9.10715 0,0 1.07143,12.85715 -4.82143,19.82143 0,0 9.10714,1.60714 17.14286,-6.96428 0,0 16.60714,11.78571 6.96428,22.5 -9.64285,10.71428 -23.03571,9.64285 -28.39285,2.67857 -5.35715,-6.96429 -21.42858,-14.46429 -31.60715,2.67857 -10.17857,17.14286 -3.75,47.67857 4.28572,51.42857 8.03571,3.75 38.03571,-0.53571 48.21428,0.53571 0,0 -0.53571,7.5 2.67857,13.39286 0,0 5.89286,-15.53571 17.67858,-17.67857 0,0 -1.07143,14.46429 6.96428,18.21429 0,0 5.35714,-18.21429 20.89286,-18.75 15.53571,-0.53572 31.07143,-5.89286 32.14286,-22.5 1.07142,-16.60715 -10.17858,-23.57143 -10.17858,-23.57143 0,0 -22.67857,-48.92858 24.82143,-51.78572 z"
         id="path3076"
         transform="translate(-634.66868,207.23547)" />
      <path
         style="color:#000000;font-style:normal;font-variant:normal;font-weight:normal;font-stretch:normal;font-size:medium;line-height:normal;font-family:Sans;-inkscape-font-specification:Sans;text-indent:0;text-align:start;text-decoration:none;text-decoration-line:none;letter-spacing:normal;word-spacing:normal;text-transform:none;writing-mode:lr-tb;direction:ltr;baseline-shift:baseline;text-anchor:start;display:inline;overflow:visible;visibility:visible;fill:#dcdddf;fill-opacity:1;stroke:none;stroke-width:2;marker:none;enable-background:accumulate"
         d="m 461.6875,127.8125 c -6.42537,3.76123 -3.85075,11.70296 -10.03125,13.90625 -2.74176,0.72101 -6.37721,-0.0894 -9.3125,-1.1875 0.23543,0.71569 0.4375,1.21875 0.4375,1.21875 -0.71711,-0.0978 -1.5111,-0.23483 -2.34375,-0.4375 3.65287,1.42948 8.20809,3.522 11.875,2.3125 5.80237,-2.40109 6.41745,-10.8765 10.34375,-14.84375 0,0 -0.37658,-0.42156 -0.96875,-0.96875 z m -60.00005,47.96865 -0.15625,1.0625 1.09375,0.0625 c 0,0 19.64888,1.21916 25.21875,18.625 2.94774,9.21168 1.28889,16.79646 -2.53125,21.875 -3.82014,5.07854 -9.81941,7.6391 -15.6875,6.75 -12.69353,-1.92327 -19.84375,1.75 -19.84375,1.75 0,0 7.25475,-1.64606 19.5625,0.21875 6.63255,1.00493 13.33299,-1.90849 17.5625,-7.53125 4.22951,-5.62276 5.95692,-13.95882 2.84375,-23.6875 -5.56335,-17.38547 -23.50876,-19.63155 -26.0625,-19.875 0.0674,-0.59985 0.24308,-1.96955 0.1875,-5.40625 9.22866,-2.64557 19.37037,-2.27897 27.34375,-1.3125 -0.74876,-13.73777 -9.2829,-16.71998 -16.77609,-16.57917 -7.49318,0.14081 -11.39038,0.95364 -14.4834,1.75678 1.11047,5.35649 2.48123,14.80717 1.72824,22.29114 z m 0.62505,-20.96865 c 2.13141,1.6643 3.69572,7.53733 7.46875,11.03125 -2.26226,0.29647 -4.27804,0.29132 -6.03125,1.09375 -0.40854,-4.26935 -0.77422,-6.92551 -1.4375,-12.125 z m 9.4375,0.0312 c 0.59262,0.0308 1.1767,0.17139 1.65625,0.4375 1.91816,1.06444 2.24753,5.03007 -0.59375,6.15625 -2.8413,1.12617 -4.95476,-1.31749 -4.84375,-3.84375 0.0833,-1.89467 2.0034,-2.84228 3.78125,-2.75 z m 6.09375,0.21875 c 6.35738,0.70906 10.06029,4.91198 10.34375,11.0625 -5.11224,-0.63739 -8.44904,-0.65956 -13.15625,-0.53125 2.28387,-3.15594 2.88666,-6.95132 2.8125,-10.53125 z m -61.4375,2.8125 c -2.95145,3.51854 -6.73973,3.24229 -10.9375,2.1875 3.31161,4.51478 9.95817,2.5779 12.59375,-1.03125 l -0.65625,-0.4375 c -0.28736,0.1372 -0.56056,0.25986 -0.875,0.3125 0.0133,-0.31942 -0.0198,-0.65564 -0.0312,-0.96875 z m 123.15625,40 c -4.66759,4.10904 -3.42838,10.18936 0.28125,13.78125 -2.18082,1.12389 -7.98083,3.35725 -16.28125,0.78125 l -3.3125,-1 2.28125,2.625 c 0,0 15.11468,16.33206 1.5625,36 15.70473,-13.54801 4.57171,-30.37666 1.4375,-35.09375 9.92611,2.07915 16.5,-2.25 16.5,-2.25 l 1.125,-0.78125 -1.0625,-0.84375 c -4.30268,-3.73125 -5.56812,-8.20573 -2.53125,-13.21875 z m -32.96875,78.28125 c -10.4012,11.44131 -34.30436,28.13265 -34.875,28.53125 -1.34953,-0.31024 -29.63828,-6.57088 -51.21875,8.84375 -22.57248,16.1232 -31.67407,45.03368 -31.90625,45.78125 l -14.3125,11.34375 c 0.22337,0.63838 0.43986,1.29773 0.625,2.03125 l 15.21875,-12.0625 0.21875,-0.1875 0.0625,-0.28125 c 0,0 9.11655,-29.19039 31.25,-45 C 382.83849,300.02607 411.75,306.75 411.75,306.75 l 0.40625,0.0937 0.375,-0.25 c 0,0 24.62825,-17.10046 35.53125,-29.09375 z M 238.40625,294.5 c -2.01926,7.62096 -5.86199,12.04256 -9.625,14.59375 -1.88151,1.2756 -3.73016,2.08488 -5.21875,2.5625 -1.48859,0.47762 -2.71974,0.625 -2.84375,0.625 v 1.9375 c 0.0549,0.0135 0.1012,0.0489 0.15625,0.0625 0.68884,-0.0241 1.74699,-0.22647 3.28125,-0.71875 1.64199,-0.52684 3.68061,-1.40953 5.75,-2.8125 4.13877,-2.80595 8.37639,-7.79952 8.5,-16.25 z m 95.4375,2.875 c -18.18332,14.46892 -13.75,39.65625 -13.75,39.65625 0,0 -0.18188,-28.30937 16.59375,-39.25 l -0.0625,-0.0937 c -10e-4,0.001 -0.0312,0.0312 -0.0312,0.0312 0,0 -1.15018,-0.12711 -2.75,-0.34375 z m 73.09375,93.4375 c -9.16372,0.07 -19.04145,5.54178 -23.75,16.34375 -4.52104,10.37181 -9.01312,17.2465 -12.375,21.53125 -1.86331,2.3748 -3.22825,3.79996 -4.1875,4.71875 -0.39903,-4.38064 -1.5035,-7.84351 -3.25,-10.21875 -2.02617,-2.7556 -4.70919,-4.27794 -7.3125,-5.0625 -5.20661,-1.56912 -10.21875,-0.28125 -10.21875,-0.28125 l -0.90625,0.21875 0.15625,0.875 C 347.62242,436.21676 340.451,446.56991 337.5,450 c 0.0109,0.37194 0.0189,0.74702 0,1.125 -0.032,0.64011 -0.0451,1.32397 -0.0312,2.03125 3.83583,-4.78511 11.74638,-16.9005 9.65625,-33.5 1.04008,-0.21042 4.45174,-0.80735 8.375,0.375 2.28509,0.68866 4.50943,1.97658 6.25,4.34375 1.74057,2.36717 3.02609,5.85615 3.15625,11.0625 l 0.0312,1.96875 1.5625,-1.1875 c 0,0 2.40653,-1.86065 5.875,-6.28125 3.46847,-4.4206 8.07015,-11.47895 12.65625,-22 4.3986,-10.09089 13.52532,-15.06102 21.90625,-15.125 8.38093,-0.064 15.88681,4.65293 18.40625,14.21875 -0.69485,-10.79133 -9.24253,-16.2887 -18.40625,-16.21875 z M 500.34375,394 c -0.33063,0.19133 -9.37862,5.47079 -21.03125,16.59375 -11.18088,10.67266 -10.25588,28.45573 -10,31.6875 -8.3041,-0.80076 -14.15625,-10.59375 -14.15625,-10.59375 l -1,-1.71875 -0.78125,1.8125 c -5.52366,12.70439 -0.15625,23.96875 -0.15625,23.96875 0,0 -2.71406,-10.13106 1.3125,-21.3125 2.24646,3.24427 7.8632,10 15.8125,10 h 1.125 l -0.125,-1.09375 c 0,0 -1.95086,-20.53128 9.34375,-31.3125 10.44978,-9.97479 18.3456,-14.91263 20,-15.90625 -0.0819,-0.55887 -0.34256,-2.11649 -0.34375,-2.125 z M 258.75,451.46875 c 5.33353,4.15659 6.77998,9.2248 6.84375,13.625 0.0417,2.87726 -0.74234,6.63854 -1.3125,9 0.71742,-0.43784 1.43704,-0.88045 2.15625,-1.34375 0.45712,-1.45332 1.20539,-4.29677 1.15625,-7.6875 -0.0702,-4.84087 -1.85585,-10.78604 -8.84375,-13.59375 z M 387.84375,480.25 c -12.97016,0.15129 -26.20172,6.23837 -30.8125,8.5625 1.37224,0.48813 2.7435,0.84954 4.09375,1.15625 4.98197,-2.75348 21.41079,-10.81567 36.625,-6.46875 9.00611,2.57317 14.16797,9.63714 17.25,17.375 3.08203,7.73786 3.99554,16.06921 5.53125,20.78125 0.46429,-4.9308 -0.47489,-13.46554 -3.6875,-21.53125 -3.21261,-8.06571 -8.78736,-15.74728 -18.53125,-18.53125 -2.41753,-0.69072 -4.86772,-1.08051 -7.28125,-1.25 -1.05592,-0.0741 -2.12069,-0.10619 -3.1875,-0.0937 z m 46.09375,18.90625 c 0,0 1.41876,6.02874 1.875,12.9375 0.45624,6.90876 -0.93122,14.88792 -8.34375,20 -7.95381,5.48539 -15.79536,14.8309 -21.15625,25.28125 -5.36089,10.45035 -9.51214,24.19264 -6.03125,37.3033 3.48089,13.11065 13.90158,23.65362 30.28125,26.54045 17.65421,2.98088 29.74433,-7.20963 37.34375,-16.4375 3.70281,-4.49627 6.57904,-6.96783 7.9375,-9.125 -2.6594,0.65533 -5.67156,3.26413 -9.46875,7.875 -7.40058,8.98643 -18.72565,18.55107 -35.5,15.71875 -12.97691,-2.19113 -24.44001,-11.33941 -28.65625,-30.3125 -2.0665,-9.29928 0.65554,-20.4816 5.875,-30.65625 5.21946,-10.17465 12.9181,-19.3336 20.5,-24.5625 8.12319,-5.6022 9.70001,-14.49358 9.21875,-21.78125 -0.48126,-7.28767 -3.875,-12.78125 -3.875,-12.78125 z m 100.71875,27.3125 c 1.13603,13.67387 -0.21632,24.39995 -2.0625,31.71875 -1.84618,7.3188 -6.3125,13.5625 -6.3125,13.5625 l 0.0625,0.0312 c 1.61063,-1.02346 2.9375,-1.375 2.9375,-1.375 0.0481,0.0481 0.10813,0.0775 0.15625,0.125 1.51754,-2.55696 3.86504,-7.00407 5.09375,-11.875 1.90382,-7.54728 3.27467,-18.53994 0.125,-32.1875 z m -259.96875,49.8125 c -0.14176,1.10582 -0.33295,2.22188 -0.625,3.34375 0.005,0.01 -0.005,0.0214 0,0.0312 1.3321,2.69437 3.73921,6.90753 7.03125,10.15625 5.26726,5.19795 14.41346,10.27192 29.625,9 -14.78846,-0.7362 -23.30743,-6.12206 -28.21875,-10.96875 -3.47395,-3.42824 -6.3837,-8.7241 -7.8125,-11.5625 z M 544,608.59375 c -10.04225,6.41779 -10.4375,19.125 -10.4375,19.125 0,0 3.38966,-12.07892 14.0625,-18.53125 -0.60599,-0.0868 -1.18873,-0.15639 -1.71875,-0.21875 -0.59766,-0.0703 -1.25512,-0.19002 -1.90625,-0.375 z M 373.71875,651.6875 c -8.62129,-0.15193 -16.92507,4.45418 -19.59375,10.3125 7.08491,-5.99722 18.08583,-8.58251 26.25,-6.84375 -1.34659,-1.27297 -2.34375,-1.875 -2.34375,-1.875 0,0 -0.30919,-0.73958 -0.5,-1.1875 -1.26386,-0.23985 -2.54405,-0.3839 -3.8125,-0.40625 z"
         id="path3857"
         transform="translate(-634.66868,207.23547)" />
    </g>
    <g
       style="stroke-width:2;stroke-miterlimit:4;stroke-dasharray:none"
       id="g3901">
      <g
         style="stroke-width:3.49199;stroke-miterlimit:4;stroke-dasharray:none"
         id="g3910"
         transform="matrix(0.23171917,0,0,1.4156383,-50.9686,-181.72585)" />
      <g
         style="stroke-width:2;stroke-miterlimit:4;stroke-dasharray:none"
         id="g3927">
        <path
           id="path3932-1"
           d="m -66.012448,445.8927 c -14.348996,0 -25.967765,11.65001 -25.967765,25.99901 0,14.349 11.618769,25.96777 25.967765,25.96777 14.348997,0 25.999015,-11.61877 25.999015,-25.96777 0,-14.349 -11.650018,-25.99901 -25.999015,-25.99901 z m 0,10.71834 c 8.43188,0 15.280671,6.84879 15.280671,15.28067 0,8.43188 -6.848791,15.24942 -15.280671,15.24942 -8.43188,0 -15.249422,-6.81754 -15.249422,-15.24942 0,-8.43188 6.817542,-15.28067 15.249422,-15.28067 z"
           style="color:#000000;display:inline;overflow:visible;visibility:visible;fill:#dcdddf;fill-opacity:1;stroke:#000000;stroke-width:2;stroke-linecap:square;stroke-linejoin:miter;stroke-miterlimit:4;stroke-dasharray:none;stroke-dashoffset:0;stroke-opacity:1;marker:none;enable-background:accumulate" />
        <rect
           style="color:#000000;display:inline;overflow:visible;visibility:visible;fill:#dcdddf;fill-opacity:1;fill-rule:evenodd;stroke:#000000;stroke-width:2;stroke-linecap:round;stroke-linejoin:miter;stroke-miterlimit:4;stroke-dasharray:none;stroke-dashoffset:0;stroke-opacity:1;marker:none;enable-background:accumulate"
           id="rect3925"
           width="36.371788"
           height="10.31643"
           x="-108.83672"
           y="466.73059"
           rx="5.158215"
           ry="5.158215" />
      </g>
      <g
         style="stroke-width:1.20608;stroke-miterlimit:4;stroke-dasharray:none"
         transform="matrix(0.97123401,0,0,2.8312766,-5.5621708,-835.3405)"
         id="g3906">
        <rect
           style="color:#000000;display:inline;overflow:visible;visibility:visible;fill:#dcdddf;fill-opacity:1;fill-rule:evenodd;stroke:#000000;stroke-width:1.20608;stroke-linecap:round;stroke-linejoin:miter;stroke-miterlimit:4;stroke-dasharray:none;stroke-dashoffset:0;stroke-opacity:1;marker:none;enable-background:accumulate"
           id="rect3908"
           width="136.33473"
           height="6.0609155"
           x="-233.74648"
           y="458.67975"
           rx="0"
           ry="0" />
      </g>
      <g
         style="stroke-width:1.98819;stroke-miterlimit:4;stroke-dasharray:none"
         transform="matrix(1.0119186,0,0,1,1.1743396,0)"
         id="g3885">
        <rect
           ry="2.4947433"
           rx="2.4947433"
           y="458.67975"
           x="-232.62798"
           height="6.0609155"
           width="134.09775"
           id="rect3883"
           style="color:#000000;display:inline;overflow:visible;visibility:visible;fill:#dcdddf;fill-opacity:1;fill-rule:evenodd;stroke:#000000;stroke-width:1.98819;stroke-linecap:round;stroke-linejoin:miter;stroke-miterlimit:4;stroke-dasharray:none;stroke-dashoffset:0;stroke-opacity:1;marker:none;enable-background:accumulate" />
      </g>
      <use
         style="stroke-width:2;stroke-miterlimit:4;stroke-dasharray:none"
         x="0"
         y="0"
         xlink:href="#g3885"
         id="use3888"
         transform="translate(0,20.357143)"
         width="773.6181"
         height="890.58765" />
    </g>
  </g>
</svg>
