<?xml version="1.0" encoding="UTF-8" standalone="no"?>
<!-- Created with Inkscape (http://www.inkscape.org/) -->

<svg
   width="95.25mm"
   height="63.5mm"
   viewBox="0 0 95.25 63.5"
   version="1.1"
   id="svg4278"
   xml:space="preserve"
   inkscape:version="1.2.1 (9c6d41e, 2022-07-14)"
   sodipodi:docname="pirkanmaa_mine-alone.svg"
   xmlns:inkscape="http://www.inkscape.org/namespaces/inkscape"
   xmlns:sodipodi="http://sodipodi.sourceforge.net/DTD/sodipodi-0.dtd"
   xmlns="http://www.w3.org/2000/svg"
   xmlns:svg="http://www.w3.org/2000/svg"><sodipodi:namedview
     id="namedview4280"
     pagecolor="#ffffff"
     bordercolor="#000000"
     borderopacity="0.25"
     inkscape:showpageshadow="2"
     inkscape:pageopacity="0.0"
     inkscape:pagecheckerboard="0"
     inkscape:deskcolor="#d1d1d1"
     inkscape:document-units="mm"
     showgrid="false"
     inkscape:zoom="0.4204826"
     inkscape:cx="98.696116"
     inkscape:cy="78.481249"
     inkscape:window-width="1309"
     inkscape:window-height="456"
     inkscape:window-x="39"
     inkscape:window-y="25"
     inkscape:window-maximized="0"
     inkscape:current-layer="layer1" /><defs
     id="defs4275" /><g
     inkscape:label="Layer 1"
     inkscape:groupmode="layer"
     id="layer1"
     transform="translate(-144.66489,-310.29034)"><g
       id="g4745"><rect
         style="fill:#bb2a33;fill-opacity:1;stroke:#544548;stroke-width:0;stroke-linecap:square;stroke-miterlimit:36.5;paint-order:markers stroke fill"
         id="rect4451"
         width="95.25"
         height="63.5"
         x="144.66489"
         y="310.29034" /><path
         style="fill:#f3c74d;stroke-width:0.176389"
         d="m 144.66858,355.3136 0.003,-18.47673 2.37865,-2.09492 2.37864,-2.09492 0.002,-4.25508 0.002,-4.25508 2.30692,-2.02848 c 1.2688,-1.11566 2.37188,-2.02847 2.45129,-2.02847 0.0794,0 1.18249,0.91281 2.4513,2.02847 l 2.30691,2.02848 0.002,4.25297 0.002,4.25297 2.31802,2.05293 c 1.27489,1.12911 2.37491,2.05293 2.44447,2.05293 0.0696,0 1.16957,-0.92382 2.44448,-2.05293 l 2.31802,-2.05293 0.002,-4.25297 0.002,-4.25297 2.30691,-2.02848 c 1.26881,-1.11566 2.37189,-2.02847 2.4513,-2.02847 0.0794,0 1.18248,0.91281 2.45129,2.02847 l 2.30691,2.02848 0.002,4.25297 0.002,4.25297 2.31801,2.05293 c 1.2749,1.12911 2.37491,2.05293 2.44447,2.05293 0.0696,0 1.16957,-0.92382 2.44448,-2.05293 l 2.31802,-2.05293 0.002,-4.25297 0.002,-4.25297 2.30691,-2.02848 c 1.26881,-1.11566 2.37189,-2.02847 2.4513,-2.02847 0.0794,0 1.18249,0.91281 2.4513,2.02847 l 2.30691,2.02848 0.002,4.25297 0.002,4.25297 2.31801,2.05293 c 1.2749,1.12911 2.37491,2.05293 2.44447,2.05293 0.0696,0 1.16957,-0.92382 2.44448,-2.05293 l 2.31802,-2.05293 0.002,-4.25297 0.002,-4.25297 2.30691,-2.02848 c 1.26881,-1.11566 2.37189,-2.02847 2.4513,-2.02847 0.0794,0 1.18249,0.91281 2.45129,2.02847 l 2.30692,2.02848 0.002,4.25297 0.002,4.25297 2.31802,2.05293 c 1.2749,1.12911 2.37491,2.05293 2.44447,2.05293 0.0696,0 1.16957,-0.92382 2.44448,-2.05293 l 2.31802,-2.05293 0.002,-4.25297 0.002,-4.25297 2.30691,-2.02848 c 1.26881,-1.11566 2.37189,-2.02847 2.4513,-2.02847 0.0794,0 1.18249,0.91281 2.45129,2.02847 l 2.30692,2.02848 0.002,4.25508 0.002,4.25508 2.37865,2.09492 2.37864,2.09492 0.003,18.47673 0.003,18.47674 h -47.62362 -47.62499 z"
         id="path4453" /></g></g></svg>
