<svg xmlns="http://www.w3.org/2000/svg" xmlns:xlink="http://www.w3.org/1999/xlink" width="780" height="500"><path d="M0 0h780v500H0Z"/><path fill="#ffd52b" d="M0 0h120v500H0ZM140 0h20v500h-20zM571.446 162.29l-13.743-13.741-244.977 244.966 13.743 13.741z"/><path fill="#fff" d="m554.916 140.775 17.702-14.703c-12.997-5.852-24.362-13.172-34.094-21.961l109.035-31.673-31.671 109.027c-8.79-9.731-16.111-21.094-21.964-34.09l-14.704 17.701zM337.435 164.341c-2.867-2.536-7.363-1.908-7.716 4.013l-31.177 216.34c-1.227 9.021 2.353 18.82 9.567 27.467 8.648 7.213 18.448 10.793 27.47 9.565l216.356-31.183c9.475-.566 5.147-11.886-3.394-10.184L332.8 411.542c-5.672.429-10.732-1.554-16.667-7.406-5.853-5.934-7.835-10.994-7.407-16.665l30.868-216.032c.638-3.203-.44-5.576-2.16-7.098zm-10.494-2.468c-2.476-3.004-9.384-4.376-9.26-1.234l-6.173 37.034c-1.228 6.948 8.276 10.09 9.568 2.777l6.482-34.874c.585-1.324.209-2.702-.617-3.703zM558.417 393.32c-1.002-.825-2.38-1.201-3.704-.617l-35.185 6.175c-7.314 1.292-3.862 11.104 3.086 9.875l36.729-6.483c3.142.125 2.078-6.474-.926-8.95z"/><path id="a" fill="#ffd52b" d="M476.79 98.755c-43.527-8.88-108.24 72.072-132.717 74.076l-4.63 25.615c45.16 9.926 98.672-55.575 129.939-49.078 28.817 5.989 21.846 33.18 15.122 41.045l13.152 13.15 33.18-33.178-10.683-10.68c5.808-14.475 4.433-31.676-5.656-41.764-10.09-10.088-21.572-15.894-37.707-19.186zm-149.074 31.796c-29.725-26.426-52.536 28.544-17.902 55.552 2.058-10.062 3.634-20.51 3.087-31.479 13.511 6.338 27.242-13.025 14.815-24.073z"/><use xlink:href="#a" transform="matrix(-.00004 -.99992 -1.00009 .00004 720.03 719.941)"/><path id="b" fill="#fff" d="m415.158 283.41-55.346-7.194-8.95 15.122c7.543 1.965 14.97 4.19 22.221 8.023l-25.617-1.542-8.95 15.123c7.248 1.628 13.797 3.977 19.444 6.48l-22.531-.925-7.408 12.963c5.63 2.379 11.655 3.805 17.284 6.17l-20.37-.615-8.951 15.74 25.716 5.344z"/><use xlink:href="#b" transform="matrix(-.00004 -.99992 -1.00009 .00004 720.03 719.941)"/></svg>