<?xml version="1.0" encoding="UTF-8" standalone="no"?>
<!-- Created with Inkscape (http://www.inkscape.org/) -->

<svg
   xmlns:dc="http://purl.org/dc/elements/1.1/"
   xmlns:cc="http://creativecommons.org/ns#"
   xmlns:rdf="http://www.w3.org/1999/02/22-rdf-syntax-ns#"
   xmlns:svg="http://www.w3.org/2000/svg"
   xmlns="http://www.w3.org/2000/svg"
   xmlns:sodipodi="http://sodipodi.sourceforge.net/DTD/sodipodi-0.dtd"
   xmlns:inkscape="http://www.inkscape.org/namespaces/inkscape"
   id="svg2"
   version="1.1"
   inkscape:version="0.48.1 "
   width="400"
   height="700"
   sodipodi:docname="Flag of DelÄevo Municipality.svg">
  <metadata
     id="metadata8">
    <rdf:RDF>
      <cc:Work
         rdf:about="">
        <dc:format>image/svg+xml</dc:format>
        <dc:type
           rdf:resource="http://purl.org/dc/dcmitype/StillImage" />
        <dc:title></dc:title>
      </cc:Work>
    </rdf:RDF>
  </metadata>
  <defs
     id="defs6" />
  <sodipodi:namedview
     pagecolor="#ffffff"
     bordercolor="#666666"
     borderopacity="1"
     objecttolerance="10"
     gridtolerance="10"
     guidetolerance="10"
     inkscape:pageopacity="0"
     inkscape:pageshadow="2"
     inkscape:window-width="1280"
     inkscape:window-height="738"
     id="namedview4"
     showgrid="false"
     inkscape:zoom="0.61971925"
     inkscape:cx="244.92115"
     inkscape:cy="357.40093"
     inkscape:window-x="-8"
     inkscape:window-y="-8"
     inkscape:window-maximized="1"
     inkscape:current-layer="svg2"
     inkscape:object-paths="false" />
  <rect
     style="fill:#ffffff;fill-opacity:1;fill-rule:evenodd;stroke:none"
     id="rect3771"
     width="484.09018"
     height="737.43073"
     x="-22.590876"
     y="-16.453459" />
  <g
     id="g2990"
     transform="matrix(0.10099103,0,0,0.09890686,16.997989,158.62168)">
    <g
       transform="translate(-1692.6531,-1455.3496)"
       id="g3839">
      <path
         style="color:#000000;fill:#21a1e1;fill-opacity:1;fill-rule:nonzero;stroke:none;stroke-width:2;marker:none;visibility:visible;display:inline;overflow:visible;enable-background:accumulate"
         d="m 1744.4136,1250.8632 c 9.1168,-90.2735 33.9442,-171.5416 84.2984,-291.52187 20.0509,-47.77588 32.0145,-50.93275 32.0434,-122.59657 0.027,-67.87746 -20.1127,-64.60653 -25.8186,-103.04575 l -20.436,-63.40977 36.9639,-36.45591 c 37.134,-36.6236 83.9616,-102.23881 102.5088,-137.85285 23.2243,-44.59483 21.8952,-42.80686 84.0261,-29.1191 256.8555,56.58658 544.513,59.48506 828.8333,4.98301 63.0033,-12.07726 88.5818,-25.58822 91.4988,-20.43015 48.4236,85.62508 73.0942,134.71521 106.9282,165.99596 l 48.1789,44.54315 -16.9323,43.23384 c -9.7844,24.98261 -24.1498,29.91305 -24.1498,95.27393 l 27.0654,93.54038 -75.2896,7.31364 c -29.3624,2.85226 -51.5258,-3.21621 -55.5612,-0.64876 -4.0353,2.56744 7.6237,19.61626 3.8556,46.70759 -11.1159,79.92043 -65.4972,135.96673 -106.0791,151.33943 -15.0649,5.7067 -40.9855,-0.8507 -148.3012,-66.9407 -65.4333,-40.29696 -145.0255,-80.44948 -172.9727,-101.11451 l -44.981,-33.26043 -34.8188,-2.27952 c -40.8876,-2.67683 -69.6795,26.90595 -81.0074,15.81566 -6.3107,-6.17834 -42.5799,16.68964 -42.5799,8.35577 -155.0412,-57.2253 56.451,41.02489 -158.2089,13.77009 4.5201,28.35942 2.4336,65.43542 -29.2121,89.21064 l -62.6915,82.7571 -171.6274,89.3133 -168.0186,92.9221 -3.9058,-50.8346 z"
         id="path3777"
         inkscape:connector-curvature="0"
         sodipodi:nodetypes="cssscsssssscsscsssssscssccsccccc" />
      <path
         style="color:#000000;fill:#177f4a;fill-opacity:1;fill-rule:nonzero;stroke:none;stroke-width:2;marker:none;visibility:visible;display:inline;overflow:visible;enable-background:accumulate"
         d="m 2470.738,2102.3706 c -155.6609,-76.0651 -208.0459,-103.3264 -299.6222,-164.5395 -70.7667,-47.3032 -220.1551,-172.9921 -256.9214,-202.9936 -29.4495,-24.031 -41.1938,-85.0793 -61.4443,-105.2373 -96.3562,-95.9164 -96.139,-153.8628 -113.2029,-339.6638 121.9255,-68.4726 242.5774,-154.0457 365.5786,-209.6095 122.6243,-55.3937 357.5321,689.6664 360.7535,688.9878 l 5.8571,-1.2339 -1.042,-42.6642 c -0.5731,-23.4652 -2.5814,-45.8752 -3.6592,-50.6035 -1.5773,-6.92 -6.1316,-11.6488 -23.3472,-24.2417 l -43.0067,-446.2229 22.6286,-22.3278 c 19.2375,-18.9818 14.4308,-36.6663 15.2642,-29.5605 l 51.7324,441.0983 5.4183,-63.6815 c 5.4036,-63.5083 -12.3715,-94.2188 -21.187,-134.0792 -2.7935,-12.6312 -9.2384,-52.2471 -14.3219,-88.0354 -11.2888,-79.4728 -19.0649,-170.2128 -39.3155,-294.5979 -8.4056,-51.62984 -12.8369,-101.57848 -12.2583,-102.15716 0.5787,-0.57867 22.2703,-5.59494 40.9709,-10.34365 23.0063,-5.84204 42.8068,-11.42249 48.8498,-10.37829 5.1641,0.89231 25.9699,3.63132 38.5111,12.80294 33.7848,24.70751 45.4806,28.48724 106.6726,63.19406 31.5779,17.91032 77.1086,48.1207 99.5574,61.5334 22.4534,13.4155 106.8752,63.5544 106.7966,63.9397 l -1.097,5.3829 -36.3103,5.3932 c -6.2289,0.7964 -35.6831,3.2472 -66.2576,5.4462 -30.5744,2.199 -50.0238,5.9526 -52.0606,6.7342 -2.0368,0.7816 1.5845,39.7852 -30.1012,64.1559 l -55.9857,49.5848 1.9725,21.7397 c 1.8107,19.9566 -0.8223,25.0027 21.2621,87.6567 21.6494,61.42 22.3357,62.7875 37.001,82.905 14.7647,20.2537 18.7611,12.7261 29.0568,21.6821 l 16.6053,7.982 2.5518,41.454 c 1.2926,20.9987 0.8506,34.9994 1.9861,36.7537 1.6238,2.509 43.3976,-0.098 207.8699,-0.098 115.0011,0 213.6955,1.2393 213.6955,1.9504 0,3.2198 -33.7647,71.7583 -49.8926,95.9085 -29.4271,44.0648 -53.5517,73.6671 -89.875,110.9486 -47.8873,49.1504 -114.998,110.538 -210.9441,188.8877 -27.1271,22.152 -77.7932,58.1321 -116.2979,84.3364 -60.5002,41.1733 -165.8032,103.6363 -172.4449,103.2179 -1.3141,-0.083 -18.0672,-5.5776 -29.9966,-11.407 z"
         id="path3779"
         inkscape:connector-curvature="0"
         sodipodi:nodetypes="cssscsccscscsscsssscssssssccssscsssscscsssssscsc" />
      <path
         style="color:#000000;fill:#f3e800;fill-opacity:1;fill-rule:nonzero;stroke:none;stroke-width:2;marker:none;visibility:visible;display:inline;overflow:visible;enable-background:accumulate"
         d="m 2090.2368,1082.0723 c -4.1272,-25.8857 254.0405,9.957 251.2127,-18.0385 -5.8504,-57.9191 -16.6369,-115.34845 -25.287,-126.00714 -5.2495,-6.46845 0.037,-3.09583 -6.1954,1.47007 -6.9201,5.06982 -3.0407,-2.69541 4.7035,30.13232 7.9385,33.65115 17.3888,90.45105 17.437,102.61025 0.024,6.1534 -10.7433,2.9388 -16.3961,-2.0923 -7.7005,-6.8537 -27.5453,-3.6355 -66.8162,4.9841 l -30.879,6.7776 -2.4263,-23.2366 c 0.088,-10.6645 25.783,-30.7164 66.459,-43.3713 l 20.9278,-9.2287 -4.2596,-3.4444 c -5.5613,-4.497 -3.7581,-10.85372 -4.1597,-11.45499 -0.4015,-0.60127 -8.0697,2.30297 -21.0986,6.79205 -26.1398,9.00644 -26.7482,7.62324 -65.0543,52.33254 -14.5731,17.0091 -30.7913,34.7995 -31.6441,34.7995 -0.8528,0 -19.755,-7.2866 -27.4631,-23.9707 -7.708,-16.6841 -15.8526,-54.3482 -27.6437,-71.81056 l -21.6533,-32.06818 -0.9907,-29.22332 c -0.7591,-22.39474 -5.1049,-30.21665 -15.21,-64.43848 -10.627,-35.98928 -6.2778,-45.80858 -6.299,-93.24899 -0.013,-28.18666 0.4385,-67.69202 1.6541,-94.18186 1.5201,-33.12518 -9.8254,-79.11604 4.7994,-99.1365 l 10.2283,-14.70788 c 22.6494,3.73068 11.771,-16.45053 16.2585,-25.72927 20.7772,-42.96093 25.602,87.62803 28.0594,68.26189 1.4795,-11.65924 3.5858,20.34244 4.2679,21.3152 1.604,2.2872 0.8736,24.58909 -0.3508,50.83184 12.5302,55.81676 -34.0793,156.25834 0.3319,202.45287 3.373,4.26125 17.4374,7.58299 26.8914,19.84494 25.1793,51.09627 10.5358,-22.88884 7.3467,-37.96348 -78.6094,108.19747 -85.4787,-47.36546 -32.4179,-123.23003 6.9102,-8.16578 27.8914,-23.02674 53.6666,-24.90877 16.0537,-1.17219 30.1779,12.878 33.9313,10.86925 4.0537,-2.16951 10.7601,16.39832 11.9504,18.32417 1.102,1.78313 13.8962,5.86962 11.8944,6.53691 1.405,-0.38101 11.7944,14.8864 4.5468,24.26946 -0.1394,-34.9113 -0.268,-7.4112 -0.3982,13.12729 1.479,21.55053 5.9826,45.22668 -5.5796,39.50316 -7.9771,-3.94882 -0.1514,18.61644 2.6487,25.98128 3.1743,8.34904 -2.2655,0.92975 -19.6118,18.7682 -71.7095,130.02946 -7.767,-2.18934 13.9901,-11.45452 3.1941,-1.22569 8.2553,-4.28372 8.5417,-3.75199 0.2864,0.53174 15.6573,14.42395 20.8398,21.47304 10.1207,13.76576 61.4677,-3.05175 82.5342,-22.89199 3.0768,-2.89769 12.3917,-1.8952 14.5773,33.03065 0.8991,14.36724 30.265,13.7637 30.6062,35.11393 0.1145,7.16198 6.7258,21.87314 5.6674,32.69984 -2.9177,29.84749 17.274,72.5841 19.7182,117.8999 1.4569,27.0116 6.7554,57.3277 13.5789,84.0973 3.0575,11.9947 11.2485,68.5382 18.1182,118.1745 5.8189,42.0436 10.5588,79.1416 10.6897,79.9933 7.8713,51.2065 16.0752,93.2118 19.4527,128.4278 2.531,26.389 -4.0726,53.5894 3.1721,67.1677 9.6159,18.0225 -4.0553,70.9053 -12.3249,35.7885 -6.8153,-28.9405 -65.8763,28.2154 -46.8759,59.484 6.4107,10.5497 34.6172,19.9194 41.3746,37.9384 2.6529,7.0741 1.8892,15.3584 5.5636,23.476 4.6727,10.323 -0.4512,23.392 -0.4515,34.8973 -2e-4,9.2912 9.5813,26.5726 -1.3612,28.9657 -33.1451,7.2486 -110.8427,7.8472 -167.295,5.5759 -54.3426,-2.1864 -119.6742,6.9493 -198.4871,3.0423 -40.6804,-2.0167 -82.6917,5.6553 -125.7213,3.7421 -3.2347,-0.1438 -3.7335,-7.5774 -4.3779,-14.7288 -2.4405,-27.084 5.3557,-79.6162 6.8914,-81.4051 1.7429,-2.0302 1.0581,-8.9336 7.9807,-9.8849 27.5817,-3.7901 79.1698,-41.1226 75.9894,-46.0949 -18.973,-29.6623 -23.0977,-102.007 -28.5376,-108.1017 -14.6874,-16.4554 6.8297,-158.2935 5.9525,-155.8226 -2.0151,-0.019 12.8513,-25.4283 11.3158,-45.9906 -2.7617,-36.9833 -10.2206,-82.2967 -7.3379,-81.502 -6.0396,3.0017 20.1541,-98.3569 22.1007,-129.8685 l 0.3921,-3.8975 z"
         id="path3005"
         inkscape:connector-curvature="0"
         sodipodi:nodetypes="csssscssccscscssssscsscsccssccccccssccccssccsssssssssssssssssssssssssscscccc" />
      <path
         style="color:#000000;fill:#f3e800;fill-opacity:1;fill-rule:nonzero;stroke:none;stroke-width:2;marker:none;visibility:visible;display:inline;overflow:visible;enable-background:accumulate"
         d="m 2918.3737,1526.7746 c -59.5742,10.124 -112.6089,-15.1065 -150.2046,-3.3686 -59.6591,18.6263 -55.7816,-29.5001 -49.378,-79.454 l -14.9476,-4.014 -15.6405,-2.628 -14.1652,-18.2313 c -6.4804,-8.3406 -14.5853,-19.2846 -16.7929,-23.113 -2.2076,-3.8284 -16.8722,-34.0478 -25.8988,-69.1855 -47.106,-111.7083 5.5987,-130.6604 62.2562,-215.274 0.1635,-0.035 35.2987,-3.3803 78.0782,-6.5865 l 77.781,-5.8294 27.6554,-13.7235 c 26.2249,-13.0136 27.3783,-8.8268 37.0548,-21.1497 l 3.8715,-4.9303 39.0947,-102.43985 c -4.0357,-21.94482 -8.763,-59.97193 8.2113,-61.99323 103.5096,-12.3259 171.6122,-35.97843 200.6633,170.91218 l 3.6232,25.4212 c 5.3193,37.322 15.7811,85.4393 24.9793,130.668 l 3.624,17.8198 c -112.344,-2.2469 -123.3223,19.1734 -9.049,19.1734 l 7.2664,35.8657 c 9.0759,44.7977 0.6844,102.3281 -13.9317,127.8248 l -7.5314,23.856 -34.0032,0.1425 c 70.5879,33.4498 59.2688,69.1155 -27.4067,80.7306 -45.4026,6.0843 -133.9156,-10.9096 -195.2097,-0.4933 z"
         id="path3775"
         inkscape:connector-curvature="0"
         sodipodi:nodetypes="sscccssccscssccscssccssccss" />
      <path
         style="color:#000000;fill:#29166f;fill-opacity:1;fill-rule:nonzero;stroke:#602f06;stroke-width:17;stroke-miterlimit:4;stroke-opacity:1;stroke-dasharray:none;marker:none;visibility:visible;display:inline;overflow:visible;enable-background:accumulate"
         d="m 2474.0917,2121.2318 c -12.2001,-6.4334 -27.3649,-14.1323 -33.6995,-17.1086 -6.3347,-2.9763 -11.5176,-6.0433 -11.5176,-6.8154 0,-0.7722 -0.7135,-1.4039 -1.5856,-1.4039 -0.8721,0 -6.2097,-3.0714 -11.8612,-6.8253 -5.6516,-3.7538 -11.0807,-6.8252 -12.0648,-6.8252 -0.9841,0 -1.7892,-0.7161 -1.7892,-1.5913 0,-0.8752 -1.7277,-2.1295 -3.8392,-2.7873 -2.1116,-0.6577 -6.5266,-3.2858 -9.8113,-5.8402 -3.2846,-2.5544 -17.4896,-11.2959 -31.5666,-19.4256 -14.077,-8.1297 -26.7463,-15.5507 -28.154,-16.491 -1.4077,-0.9403 -5.1668,-2.9031 -8.3536,-4.3616 -3.1868,-1.4586 -6.8889,-3.7467 -8.2268,-5.0846 -1.338,-1.338 -3.1045,-2.4327 -3.9257,-2.4327 -1.7672,0 -22.6207,-11.9805 -23.8578,-13.7065 -0.4692,-0.6546 -2.7283,-1.7762 -5.0201,-2.4924 -2.2918,-0.7162 -9.1281,-4.3387 -15.1916,-8.05 -6.0636,-3.7113 -12.7893,-7.4187 -14.946,-8.2387 -2.1567,-0.82 -6.8381,-3.3274 -10.4029,-5.5719 -3.5649,-2.2446 -13.0082,-7.5526 -20.9852,-11.7956 -7.977,-4.2431 -17.5749,-9.487 -21.3288,-11.6531 -3.7539,-2.1662 -11.0483,-6.2485 -16.2099,-9.0719 -5.1616,-2.8234 -9.6406,-5.7581 -9.9534,-6.5216 -0.3129,-0.7635 -1.2865,-1.3883 -2.1637,-1.3883 -0.8773,0 -6.764,-3.1798 -13.0817,-7.0662 -6.3177,-3.8865 -13.0224,-7.9295 -14.8993,-8.9845 -4.0777,-2.292 -23.3409,-14.1054 -37.4193,-22.948 -5.5652,-3.4954 -10.4001,-7.2002 -10.7443,-8.2328 -0.3531,-1.0592 2.198,-2.2517 5.8527,-2.7359 16.6576,-2.207 40.3286,-6.55 49.3826,-9.0605 5.4952,-1.5237 16.3586,-4.1973 24.1408,-5.9413 7.7822,-1.7441 14.8533,-3.6061 15.7137,-4.1378 1.6839,-1.0407 16.0464,-3.2334 39.2362,-5.9902 13.9576,-1.6592 26.994,-0.8778 54.6076,3.2732 9.5714,1.4388 24.4378,6.2627 36.6855,11.9037 3.7539,1.7289 9.8966,4.0703 13.6505,5.2031 3.7538,1.1328 8.3609,2.7401 10.2378,3.5719 1.8769,0.8317 9.9392,2.3035 17.9162,3.2706 7.9769,0.9671 19.4945,2.4876 25.5945,3.379 6.1001,0.8913 20.305,2.0982 31.5666,2.682 11.2617,0.5837 24.2421,1.8896 28.8456,2.9019 5.9986,1.3192 12.2828,1.3152 22.1819,-0.014 7.5967,-1.02 25.3296,-2.6188 39.4066,-3.5529 24.0845,-1.5981 46.8965,-5.2866 54.6018,-8.8286 11.2018,-5.1492 29.7728,-7.5486 55.4548,-7.1648 29.7012,0.4438 83.1707,4.8396 86.0144,7.0713 1.0232,0.803 10.3065,3.5162 20.6296,6.0295 10.3232,2.5133 20.2731,5.4102 22.111,6.4377 1.8379,1.0274 16.3868,2.526 32.3309,3.33 15.9441,0.8041 30.4531,1.9266 32.2423,2.4945 3.0144,0.9567 2.9414,1.2389 -0.9942,3.847 -5.1926,3.4409 -23.9368,17.557 -25.1162,18.9148 -0.4692,0.5402 -5.4602,4.3817 -11.091,8.5367 -5.6308,4.155 -10.6217,8.0583 -11.0909,8.6741 -0.7071,0.9279 -23.1586,17.412 -39.0318,28.6574 -2.2289,1.579 -7.7731,5.7504 -12.3205,9.2697 -4.5474,3.5192 -8.9394,6.3986 -9.76,6.3986 -0.8206,0 -2.9421,1.6022 -4.7143,3.5606 -3.1173,3.4445 -9.2483,7.9111 -27.167,19.7919 -4.6924,3.1113 -9.3005,6.2322 -10.2404,6.9354 -6.5421,4.8952 -26.6966,17.4886 -27.9888,17.4886 -0.8715,0 -1.8405,0.5758 -2.1533,1.2797 -0.3129,0.7038 -3.6402,3.2673 -7.394,5.6966 -27.0843,17.5273 -59.5801,38.8243 -67.7422,44.3967 -5.3504,3.6527 -10.5333,6.6413 -11.5176,6.6413 -0.9843,0 -1.7896,0.7678 -1.7896,1.7063 0,0.9384 -0.7382,1.7063 -1.6404,1.7063 -0.9022,0 -7.8424,4.2231 -15.4227,9.3846 -7.5802,5.1616 -14.1877,9.3847 -14.6833,9.3847 -0.4956,0 -3.3453,1.8041 -6.3327,4.009 l -5.4317,4.009 -22.1819,-11.6972 0,0 z"
         id="path3837"
         inkscape:connector-curvature="0" />
      <path
         inkscape:connector-curvature="0"
         style="fill:#602f06"
         d="m 1776.0625,258.34375 c -0.4154,0.12997 -0.8344,0.2455 -1.25,0.375 0.852,0.0104 3.0668,-0.01 5.125,-0.0312 -1.293,-0.1148 -2.5839,-0.21148 -3.875,-0.34375 z M 2955.5312,428.4375 c -1.0189,0.21618 -5.6999,1.33699 -10.375,2.5 -4.6748,1.16301 -10.2998,2.50234 -12.5,2.96875 -2.1999,0.46641 -8.0498,1.74892 -13,2.84375 -40.8793,9.04156 -54.3405,11.85273 -80,16.65625 -7.6999,1.44147 -17.375,3.24583 -21.5,4.03125 -35.7397,6.80504 -122.7914,19.14871 -154.5,21.90625 -3.8497,0.33482 -8.5749,0.83063 -10.5,1.09375 -7.3162,1.00008 -51.5009,4.49736 -75,5.9375 -103.7665,6.35934 -211.0331,4.47304 -314,-5.53125 -75.3082,-7.31699 -163.4114,-21.29262 -233,-36.9375 -31.5962,-7.10353 -49.8452,-11.32818 -53.5312,-12.4375 -4.1807,-1.2582 -4.4446,-1.21118 -13.5,3.40625 l -9.2188,4.71875 -3.8124,9.125 c -7.6499,18.3779 -23.4756,49.18737 -33.5626,65.34375 -3.2288,5.17206 -6.5007,10.62294 -7.2812,12.125 -0.7804,1.50205 -1.7929,2.71875 -2.25,2.71875 -0.457,0 -0.8438,0.4219 -0.8438,0.9375 0,1.12655 -16.8117,25.35995 -25.375,36.5625 -9.716,12.71128 -25.0057,31.53378 -32.5312,40.03125 -1.9612,2.21452 -6.0685,6.92056 -9.0938,10.46875 -3.0248,3.5482 -6.3998,7.40836 -7.5,8.5625 -1.0997,1.15413 -5.5588,6.1231 -9.9374,11.03125 -7.0348,7.88517 -14.6641,16.10448 -22.5626,24.34375 -7.3003,7.61578 -7.6865,8.43106 -8.4374,18.03125 -0.5462,6.9819 -0.3909,9.50953 0.625,10.71875 0.7307,0.87032 2.5227,3.90526 4,6.71875 22.6854,43.2119 33.796,80.22361 36.8437,122.78125 2.9402,41.05614 -5.4484,90.36389 -22,129.3125 -1.1686,2.75 -2.6522,6.34694 -3.3125,7.96875 -0.6604,1.62181 -3.7484,8.14681 -6.8438,14.5 -4.5919,9.42605 -11.4406,24.27693 -16.8437,36.5312 -23.4864,53.2677 -41.7168,117.0201 -51.0313,178.5 -6.4539,42.6033 -8.3447,72.3942 -7.6874,120.25 0.5984,43.5903 2.9512,72.9568 8.25,102.75 0.2443,1.375 0.9359,5.4252 1.5312,9 1.6877,10.1355 3.7561,20.0109 5.4062,25.75 3.3452,11.633 6.7473,22.6658 11.5,37.25 3.6494,11.1981 16.6078,45.2366 20.125,52.875 1.1082,2.4063 2.8454,6.5124 3.875,9.125 4.1863,10.6202 22.8641,49.2203 29.75,61.5 8.2334,14.6821 19.6238,34.1999 22.75,39 8.6345,13.2576 14.9184,22.6162 19.4688,29 2.7442,3.8502 6.6423,9.4752 8.6875,12.5 2.0452,3.0253 3.987,5.7252 4.3125,6 0.941,0.7953 7.1445,8.8607 9.6562,12.5626 1.2613,1.8582 4.8472,6.4289 7.9688,10.1562 3.1216,3.7274 8.4138,10.118 11.7812,14.1875 3.3678,4.0694 7.0253,8.3309 8.125,9.4687 1.1003,1.1383 3.2866,3.6513 4.8438,5.5938 10.5942,13.2158 76.1133,79.2936 84.3125,85.0312 1.1805,0.8261 5.947,5.1014 10.5937,9.5 7.3121,6.9218 15.5882,14.3765 23.1563,20.8126 1.1567,0.9834 3.2187,2.8006 4.5937,4.0624 1.375,1.2623 7.2252,5.8624 13,10.2188 11.0062,8.3024 11.385,8.5916 22.3438,16.1875 124.577,87.5465 280.9072,176.0984 416.1562,242.6875 5.5,2.8543 11.8001,6.3738 14,7.8438 3.0424,2.0322 4.8383,2.5536 7.5,2.1874 1.9251,-0.2645 5.3001,-0.4587 7.5,-0.4687 3.4156,-0.013 6.6812,-1.7883 22.3126,-12.0313 10.0688,-6.5978 18.5073,-12 18.75,-12 0.2424,0 2.6332,-1.5749 5.3124,-3.5 2.6796,-1.9248 5.2944,-3.5 5.8126,-3.5 0.518,0 1.8067,-0.7872 2.875,-1.75 2.835,-2.5545 19.2567,-13.25 20.3437,-13.25 0.5095,0 1.0979,-0.3375 1.2813,-0.75 0.4637,-1.0439 14.5797,-10.25 15.7187,-10.25 0.5107,0 1.0979,-0.3315 1.2813,-0.75 0.183,-0.418 5.0374,-3.8005 10.8124,-7.5312 50.7164,-32.7631 88.1283,-57.233 89.6876,-58.625 0.6539,-0.5839 2.9628,-2.2905 5.125,-3.8125 2.1619,-1.5219 13.9023,-10.088 26.0624,-19.0313 12.1605,-8.9429 23.8446,-17.4928 25.9688,-19 2.1241,-1.5066 10.1004,-7.4479 17.75,-13.2187 7.6496,-5.7708 15.1535,-11.3958 16.6562,-12.5 5.2355,-3.8463 40.4235,-31.044 49.75,-38.4375 25.3093,-20.0635 67.0827,-54.5372 83.5,-68.9062 6.876,-6.0183 31.8106,-28.3631 42.5,-38.0938 30.5865,-27.8421 95.4674,-95.1019 104.125,-107.9375 1.7268,-2.56 4.0436,-5.7813 5.125,-7.1563 19.4448,-24.7192 57.6966,-83.7175 74.5626,-115 33.2453,-61.6621 53.5779,-122.8584 61.625,-185.5 4.9474,-38.5127 8.0574,-91.2395 7.1562,-121.0937 -2.4515,-81.2132 -13.3187,-145.0627 -36.5312,-214.4063 -5.1486,-15.3804 -12.0606,-33.9112 -16.4376,-44.1562 -5.5677,-13.03212 -8.8969,-20.46261 -16.125,-35.84375 -10.0635,-21.41596 -12.5,-26.72159 -12.5,-27.40625 0,-0.29141 -1.3497,-3.4912 -3,-7.09375 -1.65,-3.60255 -3,-6.8094 -3,-7.125 0,-0.31561 -0.6376,-1.98563 -1.4374,-3.71875 -4.6701,-10.11694 -15.997,-43.75984 -20.4688,-60.78125 -8.4114,-32.01689 -11.5249,-56.74054 -10.7812,-85.875 0.6682,-26.18715 3.7704,-43.76141 11.2187,-63.5 4.8623,-12.88551 16.0349,-32.93067 23.7187,-42.59375 l 2.8438,-3.59375 -1.7812,-11.03125 -1.8126,-11.03125 -7.0937,-4.875 c -18.231,-12.48682 -39.2459,-31.9595 -58.7187,-54.4375 -2.1022,-2.42644 -4.6025,-5.3375 -5.5626,-6.4375 -0.96,-1.1 -3.7494,-4.7 -6.1874,-8 -2.4383,-3.3 -6.2792,-8.28963 -8.5313,-11.09375 -2.2522,-2.80412 -8.042,-11.12912 -12.875,-18.5 -4.8331,-7.37088 -9.6289,-14.60352 -10.6563,-16.09375 -1.0271,-1.49023 -1.875,-2.99889 -1.875,-3.34375 0,-0.34486 -1.2503,-2.49134 -2.8124,-4.78125 -3.5391,-5.1879 -8.8856,-14.18976 -13.4688,-22.6875 -1.9281,-3.575 -5.1326,-9.425 -7.125,-13 -3.4599,-6.208 -14.8401,-29.07815 -21.4375,-43.09375 l -3.0937,-6.59375 -8.9376,-4.09375 c -4.905,-2.24709 -9.7309,-3.90367 -10.75,-3.6875 z m -2.875,32.34375 9.2188,18.3125 c 43.058,85.62301 84.8609,140.64951 140.25,184.625 l 2.4375,1.9375 -3.5625,5.375 c -14.1301,21.37555 -24.4116,49.37598 -29.5,80.375 -1.4098,8.58874 -1.8113,16.48013 -1.7812,36 0.049,31.42419 1.922,46.10124 10.1562,80.21875 1.4891,6.1701 2.4966,11.44313 2.25,11.6875 -0.2466,0.24437 -24.7686,0.69262 -54.4688,1.03125 -67.362,0.76805 -66.9582,0.74316 -71.6874,4.875 l -3.6563,3.1875 -1.5937,15.5 c -0.8833,8.525 -3.4376,28.74447 -5.6876,44.9375 l -4.0937,29.46875 -10.2187,28.1875 -10.2188,28.2188 -15.1875,19.5 -15.2187,19.5 -20.5938,7.125 -20.5938,7.0937 -3.125,-1.8437 c -1.7118,-1.0192 -37.5498,-22.9069 -79.625,-48.6563 -42.0749,-25.7493 -84.4873,-51.72101 -94.25,-57.6875 -44.2554,-27.04749 -54.7686,-33.47342 -77.9687,-47.6875 -17.3256,-10.61497 -34.9079,-20.24516 -58.7813,-32.15625 -18.74,-9.35003 -34.981,-17 -36.0624,-17 -2.2691,0 -89.3605,21.59769 -92.5,22.9375 -1.6278,0.6945 -2.7301,0.29301 -5,-1.78125 -1.6018,-1.46348 -4.5125,-3.94928 -6.4376,-5.53125 -1.9248,-1.58198 -6.3123,-5.34599 -9.75,-8.375 l -6.25,-5.53125 0,-13.71875 c 0,-15.29056 0.462,-14.28318 -8,-18.78125 -3.0124,-1.60132 -7.2998,-3.91627 -9.5,-5.15625 -7.3242,-4.12826 -10.9488,-5.85137 -17,-8.0625 -3.2998,-1.20584 -6.9,-2.55724 -8,-3 -1.0997,-0.44276 -4.6999,-1.79276 -8,-3 -3.2998,-1.20724 -6.9,-2.55912 -8,-3 -4.8724,-1.95296 -8.4915,-2.86289 -15.5,-3.9375 -4.125,-0.63249 -9.6579,-1.57022 -12.3124,-2.09375 -8.1668,-1.61069 -11.4763,-1.21023 -16.1876,2.03125 -2.3982,1.65 -4.6252,3 -4.9687,3 -0.3436,0 -3.3194,1.83887 -6.5937,4.0625 l -5.9376,4.03125 -1,-2.59375 c -1.6168,-4.25309 -1.2391,-5.27612 4,-10.40625 l 5,-4.875 0,-32.46875 0,-32.46875 -5.25,-5.5 c -2.8874,-3.0157 -7.8858,-8.35436 -11.125,-11.875 -17.6113,-19.14164 -18.7481,-20.1145 -29.3124,-25.4375 -11.1362,-5.61104 -10.3839,-5.5561 -24.3126,-2.46875 -9.3124,2.06419 -14.2761,3.0565 -20,4 -5.8994,0.97247 -11.2779,2.30007 -14.5,3.5625 -3.2035,1.25519 -10.719,6.59625 -14.2812,10.15625 -1.8058,1.80477 -3.4725,3.28125 -3.7188,3.28125 -0.2489,0 -0.2478,-1.9125 0,-4.25 0.2477,-2.3375 0.9201,-11.45 1.5,-20.25 0.5805,-8.8 1.4835,-21.175 2,-27.5 0.5172,-6.325 1.47,-18.08964 2.125,-26.15625 l 1.1876,-14.65625 -4.6563,-9.53125 -4.6563,-9.5 0,-15.34375 c 0,-16.30457 -0.5621,-19.24662 -6.375,-32.03125 -1.3213,-2.90626 -2.9214,-8.88125 -3.5624,-13.28125 -4.147,-28.46071 -12.3174,-42.01727 -20.9063,-34.75 -1.8255,1.54459 -2.1925,3.66523 -3.2813,18.09375 -1.1893,15.76688 -1.335,16.37936 -3.625,17.25 -1.3058,0.49649 -3.8554,0.90625 -5.6562,0.90625 -3.4619,0 -4.2927,0.77449 -13.5625,12.0625 -2.4661,3.00312 -4.8497,5.8875 -5.2813,6.4375 -0.4313,0.55 -1.7217,2.125 -2.875,3.5 -4.8124,5.7382 -4.9029,6.20213 -5.1562,22.125 l -0.25,15.375 -4.2188,6.21875 c -2.3229,3.40732 -4.25,6.45286 -4.25,6.78125 0,0.32839 -0.4621,1.14821 -1.0312,1.8125 -0.5691,0.66428 -3.3021,4.77013 -6.0938,9.125 -5.9672,9.31044 -5.9816,4.80449 0.063,45.5625 5.8124,39.19761 6.766,46.65234 8.0312,63.5 0.6196,8.25 1.6161,20.22055 2.2188,26.59375 0.7597,8.03153 0.7771,12.63485 0.062,15 -0.567,1.8768 -1.5769,6.33125 -2.2187,9.90625 -0.6417,3.575 -1.5588,8.3 -2.0625,10.5 -2.1038,9.18872 -3.9688,19.60407 -3.9688,22.28125 0,1.57626 0.6672,6.90309 1.4688,11.8125 0.8016,4.90942 2.6285,16.55625 4.0625,25.90625 5.7377,37.41265 5.3017,34.61001 8.9375,57.5 0.8299,5.225 1.9918,19.625 2.5625,32 0.5708,12.375 1.4642,31.72508 2,42.99995 0.5359,11.275 1.4221,31.3002 1.9687,44.5 0.5469,13.2002 1.1848,25.82 1.4376,28.0313 l 0.4687,4.0313 -26.6875,16.0937 c -14.6847,8.8614 -55.0685,33.2124 -89.7188,54.0937 -134.5507,81.0867 -189.3328,114.1392 -198.2812,119.5938 -5.1194,3.1207 -9.577,5.6562 -9.9062,5.6562 -0.33,0 -0.3276,-7.3122 0.031,-16.25 3.1167,-77.6306 22.0495,-161.8952 52.8438,-235.25 2.7705,-6.5998 10.3283,-23.2499 16.8124,-36.99995 20.4783,-43.42381 29.5508,-71.44771 35.6876,-110.5 1.4504,-9.2318 1.8027,-17.51566 1.8124,-42 0.01,-33.20815 -0.7364,-40.62244 -6.4374,-66.1875 -2.5202,-11.2998 -4.4229,-18.10942 -10.0313,-35.8125 -2.9219,-9.22323 -17.8594,-42.59464 -23.75,-53.0625 -0.1779,-0.3162 5.2178,-6.6265 11.9687,-14.03125 16.3267,-17.90676 26.7446,-29.53343 30.875,-34.40625 1.8652,-2.2 3.6141,-4.225 3.9063,-4.5 0.8702,-0.81921 15.1097,-17.89271 22.0937,-26.5 35.3904,-43.61478 66.0145,-92.59369 82.9688,-132.71875 1.3357,-3.16099 3.0518,-5.741 3.8438,-5.75 0.7896,-0.009 4.1646,0.61574 7.5,1.40625 14.2496,3.37759 19.8223,4.65825 33.0624,7.59375 7.7002,1.70716 15.8002,3.4895 18,3.9375 15.1739,3.08996 20.4835,4.19483 24,5 2.2002,0.5037 6.7002,1.38439 10,1.96875 3.3001,0.58436 9.6,1.78782 14,2.65625 7.5638,1.49286 17.7392,3.2624 39.5,6.90625 26.3026,4.40432 45.5762,7.34777 62.5,9.53125 3.85,0.49672 12.1751,1.58391 18.5,2.40625 41.4876,5.39397 95.9316,10.30592 138.5,12.53125 49.3093,2.57773 65.8812,3.04505 110,3.03125 61.693,-0.0193 133.1686,-3.15827 182,-7.96875 29.8772,-2.94325 31.8507,-3.13197 58,-6 4.4003,-0.48259 10.0253,-1.16755 12.5,-1.5 2.475,-0.33246 7.7627,-1.03164 11.75,-1.5625 19.8277,-2.6397 34.1249,-4.61601 42.75,-5.9375 13.7301,-2.10355 20.2989,-3.13995 25.5,-4.03125 3.0253,-0.51836 9.7753,-1.66692 15,-2.53125 5.225,-0.86433 11.75,-1.97927 14.5,-2.46875 2.75,-0.48948 10.4003,-1.8349 17,-3 13.5435,-2.39081 36.3174,-6.87658 50.5,-9.96875 5.225,-1.13919 11.75,-2.50149 14.5,-3.03125 4.562,-0.87883 8.6847,-1.77512 18.5,-3.96875 1.9251,-0.43022 7.7753,-1.79981 13,-3.03125 5.225,-1.23144 11.0752,-2.57223 13,-3 1.9251,-0.42777 4.85,-1.10071 6.5,-1.46875 l 3,-0.65625 z m -835.375,69.6875 c 1.1207,0.69253 4.5581,12.12076 5.8438,19.4375 0.6282,3.575 1.6125,8.91357 2.1875,11.84375 0.575,2.93017 0.8823,5.49279 0.6875,5.6875 -0.1947,0.19472 -1.4769,-0.51234 -2.8438,-1.5625 -1.3667,-1.05015 -2.9499,-1.94425 -3.5,-1.96875 -0.5498,-0.0245 -2.0063,-0.82392 -3.25,-1.78125 l -2.25,-1.71875 1.1876,-15.1875 c 0.6576,-8.35021 1.5318,-15.00074 1.9374,-14.75 z m -9.625,37.25 c 0.6775,-0.0142 1.4293,0.0186 2.25,0.125 0.6859,0.0889 4.961,2.39248 9.5,5.125 4.5393,2.73253 8.9251,5.35625 9.75,5.8125 3.6637,2.02596 4.9188,7.21851 4.9688,20.78125 0.053,14.58122 0.1525,14.34375 -6.875,14.34375 -2.0633,0 -6.1771,0.44905 -9.1562,0.96875 -2.9793,0.51971 -10.1623,1.44843 -15.9376,2.0625 -5.775,0.61407 -11.6739,1.28485 -13.125,1.5 -2.7183,0.40313 -3.4012,-0.15155 -7.625,-6.21875 -1.9256,-2.76619 -2.25,-4.50509 -2.25,-12.59375 0,-8.6655 0.2156,-9.6297 2.5938,-12.3125 1.4167,-1.59805 3.2742,-3.91236 4.125,-5.15625 1.5028,-2.19727 1.5754,-2.22237 3.1562,-0.40625 10.3886,11.93265 13.2618,15.23559 17.125,19.59375 8.9543,10.10048 10.5913,11.47895 12.7813,10.90625 1.1464,-0.29979 2.362,-1.2142 2.6875,-2.0625 0.7146,-1.86226 -0.619,-4.00377 -7.9062,-12.59375 -5.5672,-6.56214 -5.5902,-6.59897 -7.0938,-16.875 -0.8291,-5.66606 -1.694,-10.875 -1.9375,-11.5625 -0.3062,-0.86456 0.9372,-1.39477 2.9687,-1.4375 z m -11.6562,2.375 c 0.6957,-0.20512 1.0698,1.08761 1.4688,4.0625 0.3123,2.32697 0.4583,4.35414 0.3124,4.5 -0.1457,0.14585 -1.2963,-0.81049 -2.5312,-2.125 -1.962,-2.08843 -2.0557,-2.65972 -0.9062,-4.5 0.712,-1.14057 1.2388,-1.81443 1.6562,-1.9375 z m 39.0938,50.8125 4.1562,8.5625 4.1562,8.59375 -1.1562,16.6875 c -0.6429,9.17479 -1.6134,22.05625 -2.125,28.65625 -1.5407,19.8762 -3.0298,40.38343 -3.7812,51.5 -0.7131,10.54812 -0.1966,34.93159 1.75,79.5 0.5762,13.2 1.0787,31.875 1.0937,41.5 l 0.031,17.5 8.125,9 c 4.4661,4.95 12.1197,14.4 17.0312,21 4.9116,6.6 9.7014,13.01016 10.625,14.25 0.9235,1.23984 3.9062,5.41859 6.6562,9.25 2.75,3.83141 5.6928,6.95245 6.5313,6.96875 1.1309,0.0219 1.8266,-1.92427 2.7187,-7.53125 1.1468,-7.20646 1.08,-8.10314 -1.8124,-19.25 -1.6688,-6.4303 -3.2423,-12.39129 -3.5,-13.28125 -0.3235,-1.11652 0.5524,-2.03768 2.8124,-2.90625 8.989,-3.45433 8.6191,-3.11941 8.0938,-6.9375 -1.4862,-10.80183 -2.4974,-14.66185 -4.0938,-15.84375 -2.7844,-2.06148 -6.8863,-5.19751 -16.7187,-12.8125 -5.0548,-3.91485 -10.3774,-7.9141 -11.8437,-8.875 -2.4847,-1.62797 -2.6876,-2.24359 -2.6876,-9.03125 l 0,-7.28125 4.25,-0.5 c 2.3378,-0.26352 5.375,-0.73959 6.75,-1.09375 1.375,-0.35417 0.5878,0.22275 -1.75,1.3125 -2.3375,1.08975 -4.25,2.51955 -4.25,3.15625 0,1.33801 0.6266,1.15893 11.9063,-3 11.5206,-4.24775 20.3167,-4.26911 33.0937,-0.0937 10.7047,3.49805 10,3.40107 10,1.59375 0,-0.7813 -1.3731,-1.72271 -3.0624,-2.09375 -1.6895,-0.37103 -2.8488,-0.90125 -2.5626,-1.1875 0.2864,-0.28625 1.8716,-0.0677 3.5,0.5 4.9138,1.71287 10.5208,-0.25551 12.5,-4.40625 0.9048,-1.89696 1.625,-3.68116 1.625,-3.9375 0,-0.25634 -2.0803,-0.46875 -4.6562,-0.46875 -2.5759,0 -7.1884,-0.83753 -10.25,-1.875 -12.0351,-4.07823 -14.8279,-4.50822 -20.5938,-3.125 -4.3782,1.05035 -6.2325,1.0686 -9.9374,0.0312 -4.6578,-1.30408 -10.6013,-0.48161 -16.3126,2.25 -2.5904,1.23896 -4.1556,0.24934 -2.4062,-1.5 1.9797,-1.9797 1.3187,-4.76902 -1.3438,-5.78125 -1.3768,-0.52345 -4.414,-1.81903 -6.75,-2.875 -2.3357,-1.05596 -5.9546,-2.62701 -8.0624,-3.5 -3.3967,-1.40626 -3.7718,-1.89287 -3.3126,-4.34375 0.2855,-1.52148 0.7942,-4.84924 1.125,-7.375 0.3311,-2.52577 0.7599,-5.67577 0.9688,-7 0.2089,-1.32424 0.89,-6.23125 1.5312,-10.90625 l 1.1876,-8.5 8.5,-9 8.5,-9 18.1562,0 c 10.4467,-0.004 20.7061,-0.51063 24.1562,-1.21875 3.3001,-0.67729 10.5,-2.07047 16,-3.0625 10.3777,-1.87176 10.6773,-2.07897 9.0313,-6.71875 -0.4299,-1.21178 1.9855,-1.14631 3,2 0.8346,2.58826 5.7339,8.48944 11.0937,11.8125 l 7.375,7.78125 0,28.84375 0,28.84375 -4.75,4.375 c -7.8804,7.27393 -7.683,6.62447 -4.7187,15.78125 1.4419,4.45419 3.2876,8.75619 4.0937,9.5625 1.2882,1.28803 -0.8623,3.81831 -17.8124,21 l -19.3126,19.5625 -3.3124,9.71875 c -5.0186,14.65646 -12.9696,40.21875 -12.5,40.21875 0.3371,0 28.6154,-24.11016 38.4062,-32.75 1.4246,-1.25712 3.3567,-2.82396 4.2812,-3.5 1.4202,-1.03834 1.5283,-2.02796 0.75,-6.25 -0.5064,-2.74888 -1.2271,-9.05 -1.5937,-14 l -0.6563,-9 6.9376,-6.8125 6.9062,-6.84375 2.0312,3.34375 c 1.1173,1.83092 5.1613,8.4875 9,14.8125 5.229,8.61452 7.8401,11.93047 10.375,13.21875 4.5137,2.29386 13.2723,6.17136 19.4063,8.59375 2.7405,1.08226 7.4437,3.0771 10.4687,4.4375 3.0253,1.36041 7.975,3.03585 11,3.6875 3.0253,0.65166 7.5253,1.62589 10,2.1875 5.9828,1.35749 11.332,2.54447 18,3.96875 3.0253,0.64614 6.01,1.30795 6.625,1.46875 0.6155,0.16081 2.235,2.24256 3.5938,4.625 1.3588,2.38245 6.1914,10.1625 10.75,17.3125 4.5586,7.15 8.657,13.675 9.0938,14.5 0.4365,0.825 2.2103,9.15 3.9374,18.5 3.9491,21.37714 4.5585,24.59888 7.0313,37.49995 1.107,5.775 2.477,13.2002 3.0625,16.5 0.5855,3.3 1.454,8.0253 1.9375,10.5 0.4834,2.4752 1.3846,20.9252 2,41 1.0983,35.8352 1.3738,38.4963 5.3437,53 0.828,3.0253 2.2284,8.2002 3.125,11.5 0.8968,3.3002 2.2511,8.25 3,11 3.3772,12.3966 6.9824,25.8309 9.5313,35.5 1.5224,5.7753 2.9024,10.9502 3.0625,11.5 0.1602,0.5502 -0.7124,5.2753 -1.9375,10.5 l -2.2187,9.5 5.5312,16.4688 c 3.0466,9.0563 5.5312,17.0405 5.5312,17.7188 0,0.6777 -3.88,7.2154 -8.625,14.5312 -4.7445,7.3158 -9.2319,14.2939 -10,15.5312 -1.4427,2.3256 -3.4211,2.7219 -6.875,1.3438 -1.0998,-0.4389 -4.119,-1.117 -6.7187,-1.5 -5.3841,-0.7932 -6.8529,-2.1154 -3.5313,-3.1562 1.2455,-0.3904 4.647,-1.7972 7.5626,-3.125 5.9398,-2.7062 5.9006,-2.3622 1.5312,-11.9063 -1.3659,-2.9836 -2.7868,-5.2452 -3.1562,-5.0313 -0.3696,0.2145 -3.1623,1.5026 -6.1876,2.875 -3.025,1.373 -7.5883,3.5103 -10.1562,4.7188 l -4.6562,2.1875 1.4374,3.4687 c 1.4539,3.4792 1.4712,3.498 -0.8124,2.3126 -1.2574,-0.6531 -4.8896,-2.7821 -8.0626,-4.7188 -4.8426,-2.9561 -5.6587,-3.8651 -5.0937,-5.625 0.3702,-1.153 1.0076,-3.4435 1.4375,-5.0938 0.43,-1.6497 1.7024,-6.3341 2.8125,-10.4374 1.796,-6.6389 1.9061,-8.6232 1.0313,-18 -0.5409,-5.7966 -1.2106,-11.4624 -1.5,-12.5626 -0.3244,-1.2328 1.3188,-0.015 4.2812,3.1563 l 4.7812,5.1563 2.5,-2.5 c 1.375,-1.3609 4.7964,-4.4547 7.5938,-6.875 l 5.0938,-4.375 5.4062,0.9374 c 18.4671,3.2994 16.5232,3.9865 17.75,-6.2187 l 0.8125,-6.7187 -5.0625,-0.9376 c -2.787,-0.5288 -8.8459,-1.5529 -13.4375,-2.25 -8.005,-1.2149 -8.519,-1.1513 -12.5,1 -2.2834,1.2345 -7.015,4.9319 -10.5313,8.2188 -3.516,3.2869 -6.5832,5.7921 -6.8124,5.5625 -0.2299,-0.2295 -1.2654,-5.9851 -2.3126,-12.7813 -3.4863,-22.6279 -3.912,-25.1727 -9.9062,-61.875 -5.8194,-35.6314 -6.8256,-44.572 -9.0938,-79.5 -1.9166,-29.5154 -5.3745,-51.0959 -13.2187,-82.49995 -6.7748,-27.12244 -7.331,-28.81418 -11.5937,-35 -2.4638,-3.575 -4.6297,-6.6507 -4.7813,-6.84375 -0.3052,-0.38871 -6.634,4.22959 -10.125,7.375 l -2.25,2 3.5313,15.5 c 1.9393,8.51721 4.4236,19.29375 5.5312,23.96875 1.1076,4.67499 2.4416,10.3 2.9375,12.5 0.4959,2.2 1.5804,6.92508 2.4063,10.49995 3.5689,15.4534 4.5185,21.2636 5.5624,34 0.6088,7.4252 1.5355,17.9285 2.0626,23.3126 1.4308,14.6205 1.4005,14.667 -1.8126,10.0624 -8.0781,-11.5761 -10.5163,-14.413 -12.0937,-13.9374 -0.8988,0.2708 -5.256,0.947 -9.6563,1.5 -17.4047,2.1862 -23.1246,2.9931 -24.5312,3.4374 -19.4865,6.1579 -42.3148,13.4754 -48.7188,15.625 l -8.25,2.7813 0,-9.2813 c 0,-8.4861 0.1895,-9.4029 2.25,-10.8124 1.2376,-0.8468 3.6,-2.7407 5.25,-4.2188 1.6503,-1.4782 4.5752,-3.8646 6.5,-5.3125 1.9251,-1.4478 3.725,-2.8763 4,-3.1875 0.2753,-0.3112 4.7753,-3.995 10,-8.1562 7.2914,-5.8071 13.1241,-9.278 25,-14.9376 8.5109,-4.0557 20.5471,-9.85 26.75,-12.875 l 11.2813,-5.5 -7.2813,-10.74995 c -5.2118,-7.72345 -7.672,-10.5583 -8.75,-10.125 -3.0581,1.2294 -17.5848,6.5814 -20,7.375 -1.375,0.4518 -6.3249,2.2587 -11,4 -4.6747,1.7413 -10.6222,3.85753 -13.2187,4.71875 -4.8498,1.6085 -7.1423,3.7301 -17.75,16.2812 -3.0215,3.5752 -5.7494,6.7251 -6.0313,7 -0.2817,0.2751 -2.9818,3.4252 -6,7 -3.018,3.5752 -5.7181,6.7252 -6,7 -0.2817,0.2753 -2.9818,3.4252 -6,7 -3.018,3.5752 -5.7181,6.7252 -6,7 -0.2817,0.2753 -2.9818,3.4252 -6,7 -3.018,3.5752 -5.7181,6.7252 -6,7 -0.2817,0.2753 -2.9783,3.4272 -6,7 -3.0216,3.5733 -6.3988,7.5233 -7.5312,8.7813 l -2.0625,2.2813 -2.8437,-6.2813 c -1.56,-3.456 -5.7366,-12.3561 -9.2813,-19.7813 -3.5447,-7.4248 -7.1776,-15.2998 -8.0625,-17.5 -0.8849,-2.1998 -3.7658,-8.3992 -6.4062,-13.7812 -2.6407,-5.382 -4.8126,-9.9991 -4.8126,-10.2812 0,-0.2822 -3.8858,-6.2328 -8.6562,-13.2188 -4.7705,-6.98592 -13.7705,-20.24471 -20,-29.4375 L 2104.1562,957 l 0,-9.3125 c -0.01,-5.10721 0.501,-18.10949 1.125,-28.90625 1.0797,-18.67085 1.0471,-19.94184 -0.875,-26 -1.1113,-3.50324 -3.4445,-11.1 -5.1874,-16.875 -1.7432,-5.775 -3.5806,-11.625 -4.0626,-13 -5.6475,-16.11616 -8.1165,-27.95174 -11.375,-54.5 -2.7019,-22.01357 -3.2678,-29.38971 -2.625,-34.5 0.4496,-3.575 1.3334,-11.9 1.9688,-18.5 0.6354,-6.6 1.6701,-15.6 2.2812,-20 0.6164,-4.43628 1.3686,-30.49598 1.6876,-58.5 l 0.5624,-50.5 3.5,-0.21875 c 3.7405,-0.24574 10.1579,-1.01263 40.2188,-4.8125 l 3.7188,-0.46875 z m 72.5624,93.40625 c 3.0294,-0.33224 18.3459,7.15466 21.2188,10.46875 1.2153,1.40195 2.1153,2.6443 2,2.75 -0.1153,0.1057 -2.6935,-0.27685 -5.7188,-0.84375 -7.7064,-1.44426 -49.3649,-1.51965 -51.125,-0.0937 -0.7516,0.60898 -7.116,4.08706 -14.1562,7.75 -12.3679,6.43484 -12.7703,6.56916 -11.3125,3.75 2.0541,-3.97216 10.5927,-11.50396 15.8125,-13.9375 2.354,-1.09749 8.3313,-2.70812 13.2812,-3.59375 12.5636,-2.24779 27.6686,-5.38854 29.75,-6.1875 0.072,-0.0274 0.1524,-0.0518 0.25,-0.0625 z m 32.6563,31.59375 c -0.7504,0 -4.1563,21.96812 -4.1563,26.84375 0,1.3122 2.03,3.59162 5.5938,6.34375 3.0688,2.3698 6.7813,5.32567 8.25,6.5625 1.4688,1.23683 3.0489,2.24933 3.5312,2.25 0.4827,6.7e-4 0.5946,-2.3625 0.25,-5.25 -0.3443,-2.8875 -0.8982,-9.975 -1.25,-15.75 l -0.625,-10.5 -5.4062,-5.25 c -2.9613,-2.8875 -5.7337,-5.25 -6.1875,-5.25 z M 2220.6875,766 c -0.4381,-0.004 -0.934,0.0125 -1.4687,0.0312 -0.6115,0.0214 -1.2924,0.0522 -2.0626,0.0937 -8.0519,0.43436 -21.902,6.48601 -20.4062,8.90625 0.8141,1.31722 1.3668,1.17057 8.25,-2.1875 3.4727,-1.69422 8.6689,-3.32955 11.5312,-3.625 4.5815,-0.47281 5.5743,-0.21022 8.3126,2.09375 2.9589,2.4898 6.3297,3.45624 6.3437,1.84375 0,-0.4125 -1.6839,-2.23862 -3.75,-4.0625 -2.7263,-2.40677 -3.6833,-3.06829 -6.75,-3.09375 z m -47.1875,4.25 c -5.5162,-0.0293 -11.1681,1.51877 -15.5312,4.40625 -3.7495,2.4812 -4.3716,3.34717 -3.2188,4.5 0.3222,0.32218 3.0332,-0.7609 6.0312,-2.40625 5.1097,-2.80424 5.9883,-2.95636 13.6876,-2.5 4.5171,0.26776 9.8751,0.80525 11.9374,1.1875 2.2722,0.4211 3.75,0.31742 3.75,-0.28125 0,-1.26177 -3.9621,-2.79995 -11.25,-4.34375 -1.7573,-0.37231 -3.5675,-0.55273 -5.4062,-0.5625 z m 40.7188,1.96875 c -0.9557,-0.0129 -1.9181,0.22909 -3.3438,0.65625 -5.816,1.74252 -8.5397,3.82365 -10.75,8.15625 -1.0683,2.09407 -1.9688,4.01178 -1.9688,4.28125 0,0.26946 2.5878,0.67713 5.75,0.90625 8.0636,0.5842 16.3429,8.9e-4 17.5938,-1.25 0.5816,-0.58165 1.7725,-1.07625 2.625,-1.09375 0.8525,-0.0175 2.425,-0.68712 3.5,-1.5 2.4725,-1.86964 1.4297,-2.99712 -6.8438,-7.5 -3.4445,-1.87481 -4.9701,-2.63475 -6.5624,-2.65625 z m -0.5313,2.6875 c 1.5368,0 10.4687,4.77432 10.4687,5.59375 0,0.21536 -1.4975,1.0099 -3.3437,1.78125 -4.2825,1.78935 -9.0901,2.84727 -9.7813,2.15625 -0.2944,-0.29471 -2.3962,-0.5977 -4.6874,-0.6875 -2.2916,-0.0898 -4.1876,-0.3415 -4.1876,-0.5625 0,-2.79587 7.6327,-8.28125 11.5313,-8.28125 z m -39.1563,2.96875 c -3.4492,-0.0266 -6.6084,0.64944 -8.375,2.03125 -1.375,1.07554 -2.9499,1.985 -3.5,2 -0.5498,0.015 -2.318,1.07929 -3.9374,2.375 l -2.9376,2.34375 2.4376,1.40625 c 1.3442,0.76405 3.7874,1.91684 5.4374,2.5625 6.3217,2.47366 27.2382,0.59795 28.2813,-2.53125 0.7284,-2.18532 -2.5278,-5.80966 -7.1875,-8 -3.0183,-1.41876 -6.7694,-2.16087 -10.2188,-2.1875 z m -0.5,2.03125 c 5.9532,0 16.31,5.25243 14.3126,7.25 -0.5391,0.5389 -5.6214,1.12131 -11.3126,1.3125 -15.8906,0.53386 -18.49,-0.77113 -10.9062,-5.4375 2.7972,-1.72111 6.3466,-3.125 7.9062,-3.125 z M 2205.75,801.375 c -0.084,-0.01 -0.1611,0.01 -0.25,0.0312 -0.2371,0.058 -0.4779,0.21684 -0.7812,0.46875 -1.2803,1.06256 -1.2874,1.51724 0.094,3.625 1.4716,2.24602 1.4581,2.4212 -0.2813,2.5 -2.1774,0.0987 -20.6802,0.10078 -21.2187,0 -0.2008,-0.0376 0.351,-1.17544 1.2187,-2.5 1.3471,-2.05552 1.3519,-2.57031 0.1563,-3.5625 -1.1231,-0.9321 -1.716,-0.57866 -2.9687,1.84375 -2.0146,3.89584 -1.9652,5.81278 0.1562,7 1.7451,0.9766 21.4347,1.40156 24.4375,0.53125 2.5253,-0.73192 2.9904,-3.12214 1.3437,-7.0625 -0.8114,-1.9425 -1.3179,-2.80844 -1.9062,-2.875 z m -12.4375,15.4375 4.6875,2.9375 c 2.5696,1.6181 6.0062,3.68691 7.6562,4.59375 2.4541,1.34878 2.5453,1.51841 0.5,0.875 -1.375,-0.43259 -7,-0.8125 -12.5,-0.8125 -5.5,0 -10.8535,0.43153 -11.9062,0.9375 -1.384,0.66517 -1.7103,0.59594 -1.1875,-0.25 0.3977,-0.64347 1.1917,-1.1875 1.7813,-1.1875 0.589,0 3.3102,-1.5764 6.0312,-3.53125 l 4.9375,-3.5625 z m -14.6563,9.125 c 0.5501,0 0.3252,0.43559 -0.5,0.96875 -0.8249,0.53316 -1.9499,0.96875 -2.5,0.96875 -0.5498,0 -0.3249,-0.43559 0.5,-0.96875 0.8252,-0.53316 1.9502,-0.96875 2.5,-0.96875 z m 31.5,0.0625 c 0.8252,-0.0302 2.1751,0.37309 3,0.90625 1.828,1.18132 0.2491,1.18132 -2.5,0 -1.3186,-0.56668 -1.489,-0.87005 -0.5,-0.90625 z m -16.0312,7.25 c -5.6167,-0.002 -10.9688,0.7451 -10.9688,1.75 0,0.44892 2.5603,2.88428 5.6563,5.40625 6.2751,5.11169 5.5957,5.13645 14.0937,-1.1875 4.9457,-3.68023 4.2495,-4.91915 -3.25,-5.6875 -1.7491,-0.17922 -3.659,-0.28046 -5.5312,-0.28125 z m 167.0938,22.28125 5.4687,2.78125 5.4687,2.75 0,13.84375 0,13.84375 5.75,5 c 7.5856,6.6264 9.8249,8.54079 15.7188,13.5 10.2073,8.58864 11.3355,10.02584 12.0312,15.25 0.3606,2.70448 1.0718,7.15625 1.5938,9.90625 0.8805,4.63863 7.1771,43.21734 15.4375,94.49995 1.9047,11.8252 3.8953,23.75 4.4063,26.5 0.931,5.0136 2.3699,13.7916 4.0937,25 0.5075,3.3002 1.8157,11.625 2.9063,18.5 1.0902,6.875 2.9176,18.5752 4.0624,26 1.145,7.4252 2.7639,17.7753 3.5938,23 0.8299,5.2252 2.1337,13.5502 2.9062,18.5 3.7749,24.183 5.6888,36.3238 8.0313,51 1.4045,8.8002 3.0242,19.1503 3.5937,23 0.5696,3.8502 1.4024,9.4752 1.875,12.5 0.4727,3.0253 2.4999,16.9752 4.4688,31 1.9689,14.0253 4.0199,28.2002 4.5625,31.5 0.5425,3.3002 1.88,12.9752 3,21.5 1.12,8.5253 2.7238,20 3.5313,25.5 1.893,12.8943 2.1523,14.8711 3.9687,27.7813 0.8343,5.9303 2.1699,12.6803 2.9375,15 3.0159,9.1134 5.3631,18.5566 6.4375,25.7187 0.6187,4.125 2.0602,13.125 3.1875,20 2.4934,15.2062 3.859,40.7641 6.5625,123.25 l 0.625,19.75 -2.375,-0.094 c -1.3154,-0.065 -3.6997,-0.4026 -5.3125,-0.75 -3.1874,-0.6867 -3.2166,-0.7904 -6.5938,-24.1563 -0.596,-4.125 -1.4996,-9.9747 -2,-13 -0.5001,-3.0248 -1.3607,-8.4248 -1.9062,-12 -1.5395,-10.0897 -2.7252,-17.5574 -7.0938,-44.5 -2.2292,-13.75 -4.9375,-30.625 -6.0312,-37.5 -1.0936,-6.875 -2.4426,-14.9747 -2.9688,-18 -0.5259,-3.0248 -1.8804,-11.3497 -3.0312,-18.5 -1.1508,-7.1498 -3.3908,-19.5248 -4.9688,-27.5 -1.5778,-7.9747 -4.7136,-24.1748 -6.9687,-36 -2.2551,-11.8248 -4.5247,-23.5248 -5.0625,-26 -5.7922,-26.6558 -6.7751,-34.5012 -7.4688,-60 -0.9195,-33.8258 -1.8439,-45.1024 -4.3437,-53.5 -1.1461,-3.8497 -2.9764,-10.1498 -4.0625,-14 -1.0862,-3.8497 -2.9181,-10.1498 -4.0625,-14 -1.8925,-6.3661 -5.3349,-22.5383 -8.0937,-38 -0.5888,-3.2998 -1.4568,-7.7998 -1.9376,-10 -1.6639,-7.619 -2.1146,-11.0556 -3.0312,-23 -0.5065,-6.5997 -1.3558,-17.8497 -1.9062,-25 -1.2663,-16.4466 -2.7099,-31.6185 -4.0313,-42.5 -0.5677,-4.6748 -1.4748,-12.3248 -2,-17 -0.5252,-4.6748 -1.4295,-12.3249 -2,-17 -0.5706,-4.6748 -1.4678,-12.5498 -2.0313,-17.5 -0.7489,-6.58387 -3.3276,-16.11386 -9.5937,-35.49995 -13.3948,-41.44104 -11.4639,-37.18122 -24.4063,-52.84375 -6.3249,-7.65434 -12.695,-14.65868 -14.1874,-15.5625 -1.4927,-0.90381 -3.2927,-2.21187 -4,-2.90625 -0.7075,-0.69438 -3.5626,-2.8148 -6.3126,-4.6875 -2.75,-1.8727 -5.5823,-3.97025 -6.3124,-4.6875 -0.7304,-0.71725 -2.222,-1.79137 -3.3126,-2.375 -1.0904,-0.58364 -1.8586,-1.43362 -1.6874,-1.90625 0.1709,-0.47263 5.9374,-5.24074 12.8124,-10.59375 6.875,-5.353 14.2014,-11.11305 16.2813,-12.78125 l 3.7813,-3.03125 z m 140.125,35.53125 32.1562,16.125 c 18.8203,9.42653 40.2346,21.04731 51.6562,28.0625 10.7309,6.59072 25.5752,15.6843 33,20.1875 7.4251,4.50321 22.5,13.71236 33.5,20.46875 30.8525,18.95014 170.8522,104.60285 181.2188,110.87495 5.4747,3.3128 8.724,5.8618 8,6.25 -0.6706,0.36 -8.8688,1.1359 -18.2188,1.75 -15.8189,1.0393 -22.3658,1.5258 -57,4.1563 -17.1702,1.3041 -37.6576,2.7765 -55.5,4 -17.9425,1.2303 -22.0922,1.8074 -24,3.3125 -1.742,1.3747 -2.1766,1.9878 -16.5,23.1562 -5.954,8.8002 -14.6702,21.625 -19.375,28.5 -10.6682,15.5897 -25.5769,37.5805 -36.875,54.3438 l -8.6562,12.8125 -1.2188,19.5313 c -1.4364,22.644 -2.9086,15.6307 12.6563,59.8124 5.619,15.9502 12.6537,35.9752 15.6563,44.5 3.002,8.5253 7.9747,22.7002 11.0312,31.5 3.0565,8.8002 6.1851,17.2735 6.9688,18.8126 1.2301,2.4164 10.876,16.2716 12.3124,17.6874 0.279,0.2753 2.5228,3.4252 4.9688,7 2.446,3.5752 4.6944,6.7252 5,7 0.3055,0.2753 1.8715,2.476 3.5,4.875 3.8557,5.6807 7.8673,8.5123 14.0312,9.9063 16.2002,3.6634 19.7182,4.6413 20.0313,5.625 0.3184,1.0006 1.6635,25.5074 3.3437,61.3125 0.654,13.9316 0.727,14.2576 3.5938,17.25 l 2.9062,3.0312 209.4688,0.25 174.875,0.2188 34.5938,0.031 -7,13.5 c -16.9638,32.6664 -35.4565,62.4865 -63.1876,102 -23.5605,33.5716 -29.6699,41.0494 -56.5937,68.9376 -40.5562,42.0082 -73.3047,72.613 -124.5313,116.4687 -6.2705,5.3683 -35.4185,29.3035 -37.875,31.0937 -1.509,1.1002 -5.2373,4.1377 -8.2812,6.75 -89.8985,80.0028 -215.2659,166.4799 -341.1562,236.2813 -53.5025,-29.5333 -200.955,-80.019 -443.6876,-261.9375 -7.5832,-5.7671 -43.9395,-37.8673 -57.1874,-50.5 l -9.1876,-8.75 40.4376,-0.7188 c 46.0747,-0.8199 130.0586,-2.0209 253.8437,-3.5937 46.9644,-0.5968 85.6644,-1.2305 86,-1.4375 0.3356,-0.207 26.244,-0.5319 57.5937,-0.6875 31.35,-0.1556 58.4628,-0.6519 60.25,-1.125 l 3.25,-0.875 0,-41.375 c 0,-22.7667 -0.3648,-41.6415 -0.8437,-41.9375 -0.479,-0.296 -1.1677,-1.901 -1.5,-3.5625 -0.3323,-1.6614 -1.1698,-3.0313 -1.875,-3.0313 -0.9017,0 -1.1832,-1.2854 -0.9375,-4.375 0.5853,-7.3596 0.5963,-7.3786 -36.25,-33.625 l -7.7188,-5.5 23.7188,-23.3437 c 22.9984,-22.6332 23.8058,-23.3032 26.8125,-22.5625 1.7057,0.4202 5.119,0.7985 7.5937,0.8438 l 4.5,0.062 0.375,-5 c 0.1927,-2.75 -0.1512,-16.4747 -0.75,-30.5 -0.5983,-14.0248 -1.5569,-39.8998 -2.125,-57.5 -0.5679,-17.5997 -1.4863,-36.5 -2.0624,-42 -2.1342,-20.3632 -7.0215,-48.2 -10.3438,-59 -2.4584,-7.991 -4.3809,-18.1114 -7,-37 -6.8163,-49.1585 -16.5186,-117.0226 -19.0312,-133 -1.3842,-8.7998 -3.4141,-21.625 -4.5,-28.5 -1.0861,-6.875 -4.2427,-26.8998 -7,-44.5 -2.7576,-17.5997 -7.5008,-47.9747 -10.5626,-67.5 -4.7752,-30.4525 -10.7777,-67.3493 -26.5937,-163.31245 -1.7049,-10.34422 -2.9474,-18.90621 -2.75,-19.0625 0.1975,-0.15629 20.2996,-5.28113 44.6875,-11.375 l 44.3438,-11.09375 z m 585.2187,2.34375 1.2187,4 c 6.8471,22.53204 19.6919,54.60805 33.0938,82.65625 3.0582,6.40029 5.2459,12.11855 4.875,12.71875 -0.4783,0.7739 -25.1892,1.102 -85,1.125 l -84.3438,0.0312 2.2813,-6.28125 c 1.9522,-5.37819 8.6971,-48.18295 10.9063,-69.25 0.2881,-2.75 1.0193,-9.09922 1.6562,-14.125 l 1.1875,-9.125 31.5937,-0.625 c 17.393,-0.33477 43.0963,-0.73556 57.0938,-0.875 l 25.4375,-0.25 z m 3.5313,116.18755 c 37.0782,0.01 43.6485,0.3251 44.5,1.3124 1.6621,1.9282 16.5624,39.404 16.5624,41.6563 0,0.1888 -49.7094,0.3437 -110.5,0.3437 l -110.5312,0 4.6562,-5.8124 c 4.4346,-5.5417 7.098,-11.6336 14.1563,-32.4063 l 1.5937,-4.75 91.4063,-0.25 c 20.0516,-0.057 35.7966,-0.096 48.1563,-0.094 z m -171.8126,58.4374 4.6876,0.3438 c 2.5808,0.1987 56.2957,0.4196 119.375,0.4688 l 114.7187,0.062 2.5,8.25 c 13.0979,42.9609 22.1462,87.8528 26.1563,129.75 0.9173,9.5845 2.1429,24.5042 2.0312,24.6876 -0.059,0.097 -12.474,-0.2294 -27.5938,-0.7188 -15.1194,-0.4893 -34.0824,-0.8863 -42.125,-0.9062 l -14.5937,-0.063 -3.25,13.25 c -1.7738,7.2877 -3.4203,13.8128 -3.6875,14.5 -0.3845,0.9894 9.2618,1.25 46.25,1.25 l 46.75,0 -0.6562,35.75 c -0.3566,19.6628 -0.8315,36.6776 -1.0626,37.8126 -0.2309,1.1346 -0.7303,6.7596 -1.0937,12.5 -0.6579,10.3892 -2.6577,30.0706 -4.5,44.0937 -2.0326,15.4707 -5.9011,34.9316 -10.125,51.0937 l -0.9687,3.75 -53.7188,-0.1874 c -29.5413,-0.1091 -92.1935,-0.4811 -139.2188,-0.8438 -47.0247,-0.3627 -124.5493,-0.7345 -172.2812,-0.8125 -71.7673,-0.118 -87.1684,-0.3927 -89,-1.5313 -1.2181,-0.7572 -7.6188,-2.5778 -14.2188,-4.0624 -6.5997,-1.4849 -12.4791,-2.8554 -13.0624,-3.0313 -0.5838,-0.1759 -7.4437,-9.1419 -15.25,-19.9375 -13.2866,-18.374 -14.4466,-20.3356 -18.125,-30.8438 -2.1614,-6.1739 -6.8372,-19.5748 -10.4063,-29.75 -3.5692,-10.1748 -9.4012,-26.8248 -12.9687,-37 -3.5678,-10.1748 -9.2174,-26.3037 -12.5626,-35.8437 l -6.0937,-17.3437 1.1563,-17.1563 c 0.6639,-9.8342 1.6705,-17.7962 2.3437,-18.6563 0.6459,-0.8248 6.7794,-9.8248 13.6563,-20 14.8804,-22.0181 30.568,-45.1169 44.125,-65 5.4373,-7.9747 11.5196,-17.0054 13.5312,-20.0937 l 3.6562,-5.625 8.5,-0.625 c 4.6751,-0.3463 14.5752,-1.0873 22,-1.6563 7.4251,-0.5685 19.5752,-1.481 27,-2 7.4251,-0.5185 19.5752,-1.4 27,-1.9687 15.426,-1.1817 35.0112,-2.598 56,-4.0625 16.6787,-1.1637 14.3053,-0.6005 41,-9.9375 11.2753,-3.9436 22.5253,-7.8463 25,-8.6875 5.4559,-1.8541 7.7105,-3.844 14.1563,-12.5312 l 4.9687,-6.6876 z m -593.3124,24.3126 c 0.2469,-0.019 0.4497,-0.01 0.625,0 0.2336,0.012 0.4014,0.057 0.4687,0.125 0.269,0.269 -0.023,4.4181 -0.6563,9.2187 -0.6329,4.8007 -1.6572,12.7689 -2.25,17.7187 -2.4224,20.2306 -3.7779,29.8492 -3.875,27.25 -0.1005,-2.6942 -0.2518,-2.7368 -6.375,-2.75 -5.9344,-0.012 -17.3161,0.7147 -49.4374,3.125 -9.8462,0.7394 -16.4242,0.7488 -21.5,0.031 -6.9161,-0.9777 -15.1605,-1.904 -38.3126,-4.2187 -9.8685,-0.987 -18.2305,-2.17 -28,-4 -2.75,-0.5154 -10.1748,-1.8455 -16.5,-2.9376 -6.3249,-1.0917 -13.75,-2.4162 -16.5,-2.9374 -9.0833,-1.7227 -15.9425,-2.9392 -20.25,-3.5938 -4.0978,-0.6227 -4.25,-0.7616 -4.25,-4.25 0,-3.3058 1.1881,-4.7933 13.5313,-17.25 11.2461,-11.3498 13.9675,-13.6034 16.25,-13.4688 1.5079,0.089 11.0439,0.4876 21.2187,0.875 17.972,0.6851 31.9808,1.6743 50.5,3.625 4.9502,0.5217 14.4003,1.4633 21,2.0626 6.6003,0.5989 15.5303,1.4895 19.8438,2 4.7358,0.5599 9.4895,0.58 12,0.031 2.2865,-0.4998 6.8564,-1.4535 10.1562,-2.0938 3.3001,-0.6396 7.8001,-1.517 10,-1.9687 6.1155,-1.2556 13.3736,-2.7155 20,-4 3.3001,-0.6397 7.5717,-1.5672 9.4688,-2.0625 1.067,-0.2787 2.1029,-0.4744 2.8438,-0.5312 z m -245.0313,2.0312 c 0.3001,0.2857 -0.048,2.7994 -5.7813,41.5312 -9.951,67.2366 -14.1694,96.1099 -15.1874,104.125 -0.8905,7.0113 -0.6732,15.2849 1.1562,44.5 l 2.25,35.875 -3.5625,22.5 c -3.2539,20.5018 -4.8598,38.0298 -7.2813,80 -0.5706,9.894 -0.9103,11.898 -6.6874,39 -3.5127,16.477 -3.5011,16.522 -2.625,32 0.4822,8.5252 1.0149,18.6663 1.1874,22.5313 0.2965,6.6316 0.6258,7.5551 6.25,16.4687 5.3154,8.4241 6.5925,11.5263 11.5938,28.5 4.0906,13.8831 5.9225,22.1479 6.8125,30.5313 0.671,6.3215 1.6399,15.2939 2.1563,19.9687 1.6066,14.5491 2.215,12.9114 -11.6876,31.5626 -6.9472,9.3197 -13.5845,17.3423 -14.75,17.8124 -1.1651,0.4704 -5.2748,1.6808 -9.125,2.6876 -3.8497,1.0063 -12.3998,3.2354 -19,4.9687 -6.5998,1.7333 -13.0234,3.3919 -14.2812,3.6875 -2.2689,0.533 -6.3073,5.6287 -9.6875,12.2188 -1.2728,2.4818 -1.5929,4.7338 -1.1875,8.1562 0.5135,4.336 0.357,4.7758 -1.7812,5.3125 -1.2825,0.3218 -2.5523,1.1517 -2.8126,1.8437 -0.2599,0.6924 -0.097,10.7002 0.3438,22.25 0.4409,11.5502 0.8485,28.6503 0.9062,38 0.058,9.3502 0.4541,18.9127 0.9063,21.25 0.4522,2.3378 0.5797,4.25 0.2813,4.25 -1.0537,0 -31.5213,-30.7008 -46.1563,-46.5 -80.8179,-87.2452 -133.1751,-177.8197 -167.5625,-289.9062 -10.2988,-33.5692 -16.3193,-76.0454 -18.5938,-131.3438 -0.9488,-23.076 -0.9139,-27.6143 0.25,-28.6874 0.76,-0.7009 36.4752,-22.4079 79.375,-48.25 112.5655,-67.808 142.2451,-85.7141 196,-118.1563 26.4003,-15.9329 48.1342,-28.8276 48.2813,-28.6875 z m 8.5625,0.062 c 0.6673,-0.2675 2.3099,5.2125 9.875,29.75 2.4316,7.8871 2.3256,9.7948 -2.2188,47.7187 -1.0281,8.5829 -2.0925,18.3821 -3.9687,36.3438 -0.5641,5.4004 -1.7052,18.0004 -2.5313,28 -1.721,20.8404 -3.0954,37.3934 -4.4687,53.1562 -0.5271,6.0502 -1.4293,17.0752 -2,24.5 -1.0603,13.794 -3.0313,113.5487 -3.0313,153.9063 0,19.2365 -0.932,37.1797 -2.5624,48.6563 -0.4218,2.9675 -0.6609,3.0746 -8.1876,4.3124 -4.2579,0.7006 -9.6414,1.6544 -11.9687,2.0938 -2.8337,0.535 -4.5293,0.4119 -5.1563,-0.3438 -0.5146,-0.6202 -1.4175,-10.8782 -2,-22.8124 -1.1585,-23.7404 -1.617,-19.1952 5.0626,-50.3126 2.2581,-10.5199 4.1648,-29.226 5.7812,-56.5 1.139,-19.2182 2.3122,-31.2065 4.0938,-42 0.499,-3.0248 1.8668,-11.2625 3.0312,-18.3124 1.9077,-11.5511 2.0146,-14.1721 1.0625,-26.5 -0.5811,-7.525 -1.5575,-21.7873 -2.1563,-31.6876 -0.5987,-9.8998 -1.2383,-19.7998 -1.4062,-22 -0.3007,-3.942 0.5051,-10.0003 6.5312,-50.5 1.6778,-11.2748 3.4482,-23.4248 3.9376,-27 0.4892,-3.5748 2.7026,-18.875 4.9374,-34 2.2351,-15.125 4.5338,-30.6498 5.0938,-34.5 0.56,-3.8498 1.3319,-8.4664 1.7188,-10.2812 0.1864,-0.8749 0.3088,-1.5983 0.5312,-1.6875 z m 28.875,50.375 4.6562,0.5937 c 2.5557,0.327 6.4251,0.9945 8.625,1.4688 2.2002,0.4743 7.1503,1.3678 11,2 3.85,0.6321 9.0253,1.5561 11.5,2.0312 2.475,0.4757 7.4251,1.3671 11,2 3.5752,0.6332 8.5253,1.5559 11,2.0313 8.9772,1.7241 17.7281,2.9352 29,4 11.895,1.1235 20.6124,2.0518 37.125,4.0313 5.2936,0.6341 11.3687,0.8735 13.5,0.5312 3.4864,-0.5598 16.2331,-1.3645 52.9688,-3.4062 l 12.0625,-0.6876 1.125,26 1.1563,26 4.125,10.5 c 2.268,5.7753 6.3748,16.3502 9.125,23.5 2.75,7.1503 5.8011,15.0253 6.8124,17.5 1.0116,2.4752 4.1614,10.5752 7,18 2.8388,7.4252 5.9939,15.5253 7,18 1.5851,3.8986 6.2084,16.1485 9.0626,24 0.8324,2.2911 2.6132,14.536 4.9687,34.2188 0.5075,4.241 1.4035,11.3285 1.9687,15.75 0.5654,4.4214 1.4474,11.5189 1.9688,15.7812 0.8772,7.173 1.8852,14.2834 4.0312,28.25 0.4649,3.0253 1.5678,10.4502 2.4376,16.5 0.8695,6.0502 2.0017,13.4752 2.5312,16.5 0.5296,3.0253 1.4674,8.6503 2.0625,12.5 0.595,3.8502 1.2582,8.2788 1.5,9.8126 0.3166,2.0073 -0.034,2.9363 -1.2813,3.375 -0.9528,0.3346 -7.375,3.2919 -14.25,6.5624 -27.1847,12.933 -27.4574,13.0047 -43,13.5 -11.373,0.363 -27.3656,-0.8031 -28.6562,-2.0937 -0.2865,-0.2864 -1.5972,-4.9451 -2.9062,-10.3437 -2.924,-12.0571 -12.6342,-52.2173 -15.9063,-65.8126 -1.3237,-5.5 -3.7915,-15.8497 -5.4687,-23 -1.6775,-7.1498 -3.4479,-14.3497 -3.9688,-16 -0.521,-1.6498 -1.2667,-4.6215 -1.625,-6.625 -0.8045,-4.4974 -5.1755,-8.7911 -12.0312,-11.8124 l -5.0626,-2.25 -3.7812,-13.6563 c -2.0796,-7.5094 -4.2656,-15.4561 -4.8438,-17.6563 -0.6381,-2.428 -2.3444,-5.0813 -4.3437,-6.7812 -3.4114,-2.9004 -3.5657,-2.9491 -40.4063,-11.7812 -9.0749,-2.1759 -17.6298,-4.3301 -19.0312,-4.7813 -2.35,-0.7566 -2.8439,-0.3187 -6.3438,5.5 -2.0868,3.47 -3.6572,6.7045 -3.4687,7.2187 0.1884,0.5145 9.1683,10.0928 19.9375,21.2813 36.1951,37.6043 38.436,40.0673 38.1875,42 -1.6402,12.7602 -5.5121,32.4913 -6.625,33.75 -2.3905,2.7039 -16.0122,45.31 -21.625,67.6875 l -5.2813,21.0938 -7.625,1.125 c -11.0217,1.6222 -22.7361,2.1005 -29.625,1.1874 -6.5787,-0.8716 -10.9465,-2.1731 -35.5,-10.5 l -16.5,-5.5937 0.1876,-45.6875 c 0.2689,-65.7703 1.9884,-117.2793 4.3124,-129.2188 1.9147,-9.8351 5.4444,-28.6496 6.5938,-35.25 0.3617,-2.0767 2.7773,-7.2518 5.375,-11.5 2.5977,-4.2479 7.7546,-12.6809 11.4688,-18.7187 3.7137,-6.0377 7.394,-12.2158 8.1874,-13.75 l 1.4688,-2.8125 -3.7812,0.5 c -2.0816,0.2634 -8.9874,0.7263 -15.3126,1.0312 l -11.5,0.5626 -2.1562,-7.7813 c -1.1901,-4.2884 -1.8962,-9.0744 -1.5938,-10.6563 0.6513,-3.4059 -1.7348,-3.4918 31.25,1.375 4.125,0.6087 10.4251,1.4826 14,1.9688 3.5752,0.4861 10.1,1.4734 14.5,2.1875 10.2854,1.6689 28.7147,1.7031 60,0.062 13.75,-0.7211 33.1,-1.7058 43,-2.1875 9.9003,-0.4816 24.6791,-1.2288 32.8126,-1.625 8.1332,-0.3961 14.9576,-1.0032 15.1874,-1.375 0.2299,-0.3717 0.1495,-3.9773 -0.1874,-8 l -0.625,-7.3125 -13.0938,0.7188 c -7.2009,0.3931 -21.4187,1.0886 -31.5938,1.5624 -10.1748,0.4742 -29.75,1.4611 -43.5,2.1876 -31.6847,1.6683 -50.7094,1.6699 -61.5,0 -4.6748,-0.7239 -11.1999,-1.6929 -14.5,-2.1563 -15.4092,-2.1642 -28.6078,-4.1175 -35.0624,-5.1875 l -7.0626,-1.1562 0.75,-5.5938 c 0.3986,-3.0713 1.2264,-11.8936 1.8438,-19.5938 0.6173,-7.6998 1.3739,-16.5935 1.6875,-19.7812 l 0.5625,-5.8125 z m 281.1562,78.25 c -0.574,-0.01 -1.21,0.059 -2,0.1875 -1.9784,0.3211 -4.4265,1.335 -5.4374,2.25 -4.8365,4.377 -4.7736,14.7266 0.125,19.625 4.9528,4.9531 12.3764,3.0253 15,-3.875 0.5162,-1.358 0.9374,-4.5058 0.9374,-7 0,-3.8559 -0.5014,-5.064 -3.5,-8.0625 -2.3225,-2.3228 -3.4029,-3.0953 -5.125,-3.125 z m 227.0313,2.4375 c -2.0232,-0.043 -3.3803,0.029 -3.5625,0.2188 -0.7567,0.7858 -2.7548,31.2939 -2.125,32.4374 0.2271,0.4127 7.0505,0.75 15.1562,0.75 l 14.7188,0 4.3125,15.75 c 2.3685,8.6627 4.7245,17.1002 5.2187,18.75 1.2043,4.0189 6.4514,22.9352 7.8438,28.25 l 1.125,4.25 13.375,0 c 12.2157,0 13.331,-0.1505 12.9688,-1.75 -0.2183,-0.9623 -1.8052,-8.9498 -3.5,-17.75 -4.5463,-23.6005 -12.6994,-65.2318 -13.9376,-71.125 -1.2555,-5.9765 -0.4616,-5.6749 -21.25,-7.375 -6.7373,-0.5507 -16.9747,-1.4291 -22.75,-1.9374 -2.8874,-0.2546 -5.5705,-0.4259 -7.5937,-0.4688 z m 359.0937,2.9062 -0.25,15.5938 -0.2812,15.5938 22.7812,0.6562 c 12.5262,0.3572 31.0084,0.9429 41.0938,1.3125 l 18.3438,0.6875 -0.5626,6.0625 c -0.3123,3.3489 -0.8448,16.6689 -1.1562,29.5937 -0.3114,12.9252 -0.7337,24.7377 -0.9688,26.25 l -0.4374,2.75 9.9687,0 c 5.4863,0 9.987,-0.1123 10,-0.25 0.1113,-1.1664 2.1701,-40.4488 2.9687,-56.75 0.5526,-11.2748 1.2589,-22.9747 1.5626,-26 l 0.5312,-5.5 -6.2188,-3.9687 -6.1874,-3.9687 -35.5938,-0.6876 c -19.5708,-0.3809 -40.0938,-0.8447 -45.5938,-1.0312 l -10,-0.3438 z m -124.5,1.1876 -25.25,0.6562 c -13.8886,0.3574 -34.625,0.9426 -46.0937,1.3125 l -20.8437,0.6875 0.5937,3.5938 c 0.3358,1.9731 0.8976,6.8251 1.25,10.8124 l 0.6563,7.25 32.8437,0 c 30.6244,0 32.8538,0.1187 32.8437,1.75 -0.01,2.7482 6.0298,63.4865 6.5626,66 0.4541,2.1448 0.949,2.25 10.125,2.25 l 9.625,0 -0.8126,-33.75 c -0.4474,-18.5622 -0.9171,-34.9873 -1.0312,-36.5 -0.1141,-1.5123 -0.2748,-7.543 -0.3438,-13.4062 l -0.125,-10.6562 z m -168.7812,0.3124 1.3125,6.25 c 0.7181,3.4378 1.8268,8.8378 2.4687,12 l 1.1563,5.75 17.375,0 c 15.6921,0 17.3963,0.1685 17.8125,1.75 1.3072,4.9683 3.0991,12.5484 7.1875,30.25 2.477,10.7252 5.4716,23.6627 6.6563,28.75 l 2.1562,9.25 10.8438,0 c 8,0 10.8124,-0.3266 10.8124,-1.25 -9e-4,-0.6872 -1.1119,-10.0248 -2.4687,-20.75 -1.3568,-10.7247 -2.9587,-23.5498 -3.5625,-28.5 -0.6037,-4.9498 -1.4769,-11.9248 -1.9688,-15.5 -0.4917,-3.5748 -1.4497,-11.3373 -2.125,-17.25 l -1.25,-10.75 -33.1874,0 -33.2188,0 z m 181.6562,0 0.5313,4.25 c 0.2899,2.3378 0.8185,7.2877 1.1563,11 l 0.5937,6.75 4.8437,0 c 2.6481,0 9.2356,0.4267 14.6563,0.9376 5.4208,0.5106 18.5062,1.495 29.0937,2.1874 l 19.25,1.25 0,34.8126 c 0,32.4824 0.1171,34.8317 1.75,34.8437 0.9628,0.01 5.9018,-0.5463 10.9688,-1.2187 l 9.2188,-1.2188 -0.4376,-5.5312 c -0.2428,-3.0474 -0.935,-16.3624 -1.5312,-29.5626 -0.5962,-13.1998 -1.5161,-30.9531 -2.0312,-39.4687 -0.5155,-8.5156 -0.9376,-16.2781 -0.9376,-17.25 0,-1.6624 -2.5819,-1.7813 -43.5624,-1.7813 l -43.5626,0 z m -475.8437,2.0313 c 0.8401,-0.017 2.5639,0.6879 3.8125,1.5625 1.705,1.1943 1.999,1.9287 1.1875,2.9062 -2.1438,2.5835 -8.7142,2.4933 -9.7187,-0.125 -0.6187,-1.6115 2.2958,-4.2927 4.7187,-4.3437 z m -195.5313,93.25 c 0.057,-0.01 0.1477,-0.01 0.25,0 1.4325,0.1335 7.013,1.3151 13.5,2.875 l 13.4688,3.25 4.1875,15.4375 c 2.3014,8.4853 3.9534,15.6712 3.6563,15.9688 -0.2976,0.2971 -0.5748,0.1289 -0.5938,-0.375 -0.02,-0.5045 -7.8959,-8.9882 -17.5,-18.8438 -9.6041,-9.8556 -17.2683,-18.0756 -17.0625,-18.2812 0.013,-0.013 0.037,-0.024 0.094,-0.031 z m 43.2813,46.7187 c 0.1435,-9e-4 2.2553,0.9674 4.7187,2.125 5.0735,2.385 4.1848,0.077 10.5626,26.375 2.2672,9.3502 6.0672,25.1002 8.4687,35 2.4014,9.9003 5.9891,24.75 7.9687,33 8.5517,35.6367 11.6649,48.1543 12.5,50.5 0.4896,1.375 1.8789,5.875 3.0938,10 1.2148,4.125 3.4381,11.5502 4.9688,16.5 1.5304,4.9502 4.2096,13.7252 5.9374,19.5 1.728,5.7753 3.5211,11.625 4,13 0.4792,1.375 2.3194,7.2252 4.0626,13 5.721,18.9539 7.0698,23.3884 10.125,32.8126 1.6603,5.122 2.882,9.4761 2.6874,9.6562 -0.1943,0.18 -4.791,-10.9852 -10.1874,-24.8125 -5.3967,-13.8273 -10.6492,-27.1811 -11.6876,-29.6563 -6.5217,-15.5471 -17.9719,-46.2908 -18.8124,-50.5 -0.5492,-2.75 -1.5424,-8.375 -2.1876,-12.5 -1.373,-8.7783 -2.9745,-12.1287 -8.2187,-17.1874 -4.4308,-4.2745 -6.0928,-7.7678 -12.7187,-26.5938 -2.6515,-7.5336 -7.1699,-20.2436 -10.0313,-28.2188 -11.9219,-33.2268 -11.2205,-30.6685 -10.125,-37.4062 0.545,-3.3526 1.7018,-10.1436 2.5937,-15.0938 0.8922,-4.9498 1.7074,-11.3632 1.8126,-14.25 0.105,-2.8864 0.3252,-5.2488 0.4687,-5.25 z m -14.875,64.9063 c 0.7139,-0.066 1.7489,2.6064 6,14.6875 4.4251,12.5757 12.3401,34.7867 16.5313,46.3438 0.9011,2.4852 3.945,6.8939 6.9374,10.0312 4.5288,4.7477 5.4323,6.3343 6,10.5625 1.8523,13.7941 3.5725,19.7591 11.8126,40.9687 4.9146,12.6503 9.8059,25.0253 10.8437,27.5 3.7559,8.957 23.1869,58.5986 24.4687,62.5 0.75,2.2822 1.6363,11.8326 2.0313,22.2188 l 0.6875,18.2188 -2.3438,0.4687 c -1.2916,0.2719 -24.4839,0.6647 -51.5312,0.875 l -49.1875,0.4063 -17.1875,-16.5626 c -16.8498,-16.2266 -17.1395,-16.5887 -16.625,-20.0624 0.2884,-1.9478 1.4698,-10.3126 2.6562,-18.5626 1.4646,-10.1825 3.7636,-20.2989 7.1563,-31.5 10.5229,-34.7401 13.0618,-43.6745 13.875,-49 2.2577,-14.7845 2.991,-19.5336 5,-32.5 2.6049,-16.812 11.4037,-52.6742 17.6563,-72 2.4909,-7.6998 4.6836,-14.177 4.9062,-14.4062 0.098,-0.1007 0.2105,-0.1781 0.3125,-0.1875 z m 497.4687,31.125 c 3.1189,-0.01 8.047,0.1317 15.7813,0.375 11.7483,0.3694 52.3938,1.1206 90.3437,1.6563 37.9502,0.5353 97.5752,1.4185 132.5,1.9687 34.9251,0.5502 93.2002,1.4425 129.5,1.9687 36.3001,0.5267 66.0743,0.9508 66.1563,0.9688 0.5508,0.1207 -8.7558,24.3314 -15.6875,40.7812 l -2.2188,5.25 -208.9062,0 c -166.2304,0 -208.9822,-0.2551 -209.3125,-1.25 -0.2284,-0.6872 -0.9232,-11.8248 -1.5313,-24.75 -0.6078,-12.9248 -1.349,-24.3375 -1.6562,-25.375 -0.3371,-1.1378 -0.1664,-1.5798 5.0312,-1.5937 z m -337.9374,23.2187 c 0.1404,0.2961 3.5979,14.5972 5.9687,24.75 0.8348,3.5752 2.4365,10.5502 3.5937,15.5 1.1575,4.9502 2.7356,11.7002 3.5,15 4.4973,19.4085 5.995,24.8769 9.4688,34.4376 2.1159,5.8233 5.503,15.2876 7.5312,21.0624 6.9062,19.6616 13.2795,37.5036 13.9688,39.1563 0.3782,0.9069 0.2125,1.9494 -0.375,2.3125 -3.4396,2.1257 -0.5376,5.1033 17.2812,17.625 2.6771,1.8812 7.1771,5.1215 10,7.1875 2.8232,2.066 7.7257,5.542 10.875,7.75 7.9123,5.5474 8.6389,7.2361 4.875,11 l -2.9687,2.9687 -59.5625,0 c -40.4143,0 -59.5938,-0.3288 -59.5938,-1.0312 0,-0.5696 1.9125,-1.8616 4.25,-2.875 15.6022,-6.7638 15.7715,-6.8731 15.8126,-10.875 0.021,-2.0464 0.2572,-5.2936 0.5312,-7.2188 0.4872,-3.4214 0.3639,-3.5794 -5.7812,-6.8437 -16.7843,-8.9152 -23.3213,-12.3729 -23.4688,-12.5 -0.089,-0.076 -2.4688,-7.8061 -5.3125,-17.1563 -2.8437,-9.3497 -6.99,-22.8497 -9.1875,-30 -2.1975,-7.1498 -7.0525,-23.125 -10.8125,-35.5 -3.76,-12.375 -7.5417,-24.5248 -8.375,-27 -0.8334,-2.4747 -2.6997,-8.5498 -4.1563,-13.5 -1.4564,-4.9498 -2.992,-10.1642 -3.4374,-11.5937 l -0.8126,-2.5937 16.8438,0.5 c 21.9771,0.6341 27.4179,-0.742 53.8125,-13.4376 8.4694,-4.0733 15.4612,-7.2722 15.5313,-7.125 z m -286.2813,12.75 c 0.6519,0 5.5723,1.6665 27.8437,9.3126 16.9831,5.8301 22.636,6.8348 37.5,6.75 7.7074,-0.044 15.8001,-0.5005 18,-1.0313 5.6439,-1.3615 5.7564,-1.3475 5.0626,1.8125 -0.3433,1.5631 -1.944,11.1256 -3.5313,21.25 -1.5872,10.1243 -4.0036,22.0064 -5.375,26.4062 -1.3714,4.4003 -3.9223,12.7252 -5.6563,18.5 -1.7341,5.7753 -4.4162,14.5502 -5.9687,19.5 -2.8486,9.0824 -3.803,13.9931 -6.5937,33.9688 -0.8426,6.0319 -1.6886,11.1574 -1.9063,11.375 -0.2177,0.2177 -2.5766,-0.081 -5.2187,-0.6562 -2.6423,-0.5757 -10.4376,-2.0073 -17.3126,-3.1876 -6.875,-1.18 -14.3814,-2.5561 -16.6874,-3.0624 -7.1094,-1.561 -12.6922,-1.1421 -15.125,1.125 -4.6414,4.3237 -1.2762,12.3564 5.625,13.4687 2.0387,0.3286 5.7127,0.9937 8.1874,1.4687 2.475,0.4756 7.4251,1.352 11,1.9688 8.0838,1.3947 16.1123,2.938 22.1563,4.2188 4.6,0.9746 4.6182,1.0017 3.7813,4.1562 -0.464,1.7479 -1.5385,6.9755 -2.4063,11.625 -0.8678,4.6495 -1.6953,8.533 -1.8125,8.625 -0.1172,0.092 -35.3654,0.4852 -78.3438,0.875 -53.2606,0.4831 -78.3475,0.3582 -78.7812,-0.3438 -0.6246,-1.0103 1.4488,-5.5769 4.4062,-9.6874 0.8234,-1.1444 2.625,-2.4184 4,-2.8126 2.981,-0.8536 17.9766,-4.8337 30.5,-8.0937 12.1876,-3.1724 12.3318,-3.2213 18.0626,-8.9687 2.7698,-2.7785 8.3114,-7.5373 12.3124,-10.5626 9.4539,-7.1471 11.3654,-8.6208 17.7813,-13.7812 l 5.3437,-4.3125 0,-26.7813 c 0,-14.7277 0.4543,-29.2085 1,-32.1874 1.3909,-7.5924 8.5606,-51.6409 10.125,-62.1876 0.714,-4.8122 1.6373,-8.75 2.0313,-8.75 z m -34.6875,55.5 c 0.097,-0.063 0.3884,0.2248 0.8125,0.875 0.6721,1.0308 2.2447,3.4364 3.5,5.3438 1.7176,2.6098 2.5397,5.8571 3.25,13.125 0.5191,5.3119 1.3889,14.2536 1.9375,19.875 0.5486,5.6215 1.2595,11.3255 1.5938,12.6562 0.3339,1.3314 0.184,2.6741 -0.3438,3 -0.9498,0.587 -2.4698,-9.6646 -3.8125,-25.875 -0.3644,-4.3998 -1.9439,-12.2748 -3.5313,-17.5 -1.5871,-5.2247 -3.0922,-10.1748 -3.3437,-11 -0.095,-0.3122 -0.1208,-0.4618 -0.062,-0.5 z m 261.3438,93.6876 c 0.1387,-0.059 0.3404,0.2853 0.5937,0.875 0.6031,1.4037 1.994,3.6537 3.0937,5 1.8646,2.2817 3.9691,3.5905 15.4376,9.5624 l 4.4374,2.2813 -6.75,3.125 c -4.1646,1.9276 -7.0309,3.9275 -7.5624,5.2813 -0.4721,1.2019 -1.4269,3.6502 -2.0938,5.4374 -0.8817,2.3635 -1.809,3.25 -3.4688,3.25 -2.1907,0 -2.3242,-0.4112 -2.875,-10.25 -1.0569,-18.888 -1.3088,-24.3523 -0.8124,-24.5624 z m -155.3126,23.75 6.4688,6.5312 6.5,6.5312 -3.5,0.094 c -1.9091,0.042 -5.381,0.2708 -7.7188,0.5312 -4.2489,0.474 -4.2332,0.4874 -4.1562,-2.8124 0.042,-1.8156 0.6047,-5.0078 1.25,-7.0938 l 1.1562,-3.7812 z m 275.8126,28.6874 c 32.5572,-0.049 32.7109,0.3613 32.75,1.875 0.2424,9.4647 -0.047,63.8597 -0.3438,64.1563 -0.4961,0.4962 -82.0548,2.1239 -142.7188,2.8437 -26.125,0.3103 -78.5498,0.9957 -116.5,1.5313 -37.9499,0.5355 -100.5,1.4007 -139,1.9375 -38.5,0.5367 -74.324,0.983 -79.625,1 l -9.625,0.031 -0.625,-24.75 c -0.3363,-13.6123 -0.7883,-29.293 -1,-34.8437 l -0.375,-10.0937 42.125,-0.6563 c 23.174,-0.3652 71.375,-0.7315 107.125,-0.8125 35.75,-0.081 92.225,-0.4796 125.5,-0.9062 33.2753,-0.4269 95.2627,-0.9348 137.75,-1.125 19.2509,-0.087 33.7101,-0.1708 44.5626,-0.1876 z"
         id="path2991" />
      <path
         style="fill:#29166f;fill-opacity:1"
         d="m 1869.8414,2.8094761 c -15.8341,-0.006 -22.7931,2.9935 -27.2187,11.7499999 -1.5027,2.9726 -1.5671,10.68322 -0.9376,90.156254 l 0.6876,86.90624 7.8124,-3.96875 c 13.6659,-6.89061 20.5538,-8.2165 42.375,-8.25 17.3792,-0.0267 20.0238,0.20816 31,2.78125 17.0404,3.99467 35.5669,10.90549 52.9688,19.75 8.2636,4.19996 15.3561,7.6875 15.7812,7.75 0.8192,0.12053 0.069,-131.123364 -0.9062,-158.531244 l -0.5625,-16.15625 -19.1563,-7.09375 C 1926.1987,11.049746 1892.8199,2.8184761 1869.8414,2.8094761 z m 1190.6875,4.84375 c -22.1036,-0.006 -56.896,8.4337599 -101.1562,24.8124999 l -20.1563,7.46875 -0.5625,9.1875 c -0.3057,5.04973 -0.8127,44.44145 -1.125,87.531254 -0.3123,43.0898 -0.1709,78.1898 0.2812,77.99999 0.452,-0.1898 7.7764,-3.80419 16.2813,-8.03125 34.0202,-16.9086 60.7245,-23.67393 88.9687,-22.53125 17.651,0.7141 31.8369,4.48133 41.2188,10.9375 2.7061,1.86217 2.7229,1.84754 3.1875,-0.4375 0.2568,-1.26294 0.7036,-40.30625 1,-86.78124 0.5149,-80.715884 0.4543,-84.697804 -1.3125,-88.593754 -1.0172,-2.24323 -3.0942,-5.0459 -4.625,-6.25 -4.5019,-3.5412299 -11.9529,-5.3098699 -22,-5.3124999 z M 2917.3414,48.153226 c -1.6137,0.15353 -7.7864,1.6009 -14.9375,3.53125 -115.318,31.12871 -242.7676,53.322794 -353.3438,61.531254 -99.5141,7.38729 -205.6777,4.68493 -295.5,-7.53125 -75.9407,-10.328234 -146.4396,-26.489364 -217.4374,-49.843754 -11.79,-3.87828 -21.5858,-7.03125 -21.75,-7.03125 -0.4279,0 0.6166,120.527204 1.3124,151.624994 l 0.5938,26.15625 16.125,4.59375 c 85.2524,24.23721 189.4191,44.71129 277.1562,54.53126 34.1868,3.82634 68.7309,6.68976 97.5,8.0625 12.375,0.59048 25.65,1.24704 29.5,1.4375 17.7076,0.876 106.7747,-0.42197 129,-1.875 79.892,-5.22312 147.2107,-14.62248 220,-30.6875 30.2969,-6.68669 86.5146,-21.81053 118.4376,-31.87501 l 12.75,-4.03125 0.75,-89.03124 c 0.4071,-48.974934 0.5187,-89.262514 0.25,-89.531254 -0.034,-0.0336 -0.1758,-0.0532 -0.4063,-0.0312 z m -73.0937,37.34375 c 1.9343,-0.11935 3.9555,0.43068 7.2812,1.28125 18.1927,4.6529 34.4182,18.132944 40.6875,33.781254 1.9138,4.77685 2.2788,7.51256 2.2187,16.25 -0.081,11.71343 -2.1307,18.89459 -8.5,29.68749 -6.1054,10.34594 -22.0407,25.11599 -36.3437,33.71875 -6.5366,3.93158 -9.061,4.22453 -17.5313,2 -10.3361,-2.71459 -19.903,-8.21552 -27.5312,-15.84375 -8.2829,-8.28285 -11.8636,-14.88225 -14.1562,-26.125 -1.3416,-6.57793 -1.4077,-9.20019 -0.4688,-15.43749 2.7214,-18.07973 16.6464,-36.15186 39.625,-51.406254 8.5051,-5.64617 11.4948,-7.70732 14.7188,-7.90625 z m -1126.6876,1.28125 -0.3124,83.281244 -0.2813,83.25001 4.2813,3.84375 c 11.1927,10.10826 27.5496,19.35447 40.0312,22.625 24.8369,6.50801 52.2461,-4.57897 74.7812,-30.25 l 4.1563,-4.75 -4.6563,-5.1875 c -2.5715,-2.86032 -5.879,-7.47521 -7.3437,-10.25001 l -2.6563,-5.03125 -0.625,-68.5 c -0.3357,-37.67499 -0.6729,-68.643824 -0.75,-68.812494 -0.077,-0.16867 -2.0371,0.89084 -4.375,2.34375 -7.8276,4.86545 -22.1738,11.325104 -30.25,13.625004 -11.5362,3.2853 -30.8096,3.25498 -41.5,-0.0625 -8.8049,-2.73243 -18.4987,-7.507074 -25.5,-12.531254 l -5,-3.59375 z m 371.8438,0.4375 c 1.1544,-0.0683 8.7906,1.32566 17.7188,3.28125 l 17.3124,3.8125 4.7813,12.000004 c 2.6264,6.6 12.8498,32.475 22.7187,57.49999 l 17.9376,45.5 7.0937,1.34375 c 3.8996,0.75449 7.0937,1.78947 7.0937,2.28125 0,0.49178 -3.5002,6.50877 -7.75,13.375 -4.2498,6.86624 -7.9866,12.50001 -8.3124,12.50001 -0.3259,0 -3.1771,-3.83815 -6.3438,-8.50001 -5.9634,-8.77906 -10.1691,-12.99801 -14.5625,-14.6875 -4.1273,-1.58713 -66.1196,-13.8195 -70,-13.8125 -4.5266,0.008 -7.6439,2.09484 -14.6563,9.84375 l -5.6562,6.25 -1.6875,-2.8125 c -5.4943,-9.05442 -17.1124,-30.57512 -16.7187,-30.96875 0.2564,-0.25643 3.2732,0.0684 6.6874,0.6875 3.4143,0.61908 6.395,0.91756 6.625,0.6875 0.2301,-0.23005 -0.3006,-3.29549 -1.1562,-6.8125 -2.4641,-10.12755 -2.9771,-27.01412 -1.0938,-35.87499 4.0548,-19.07553 17.7332,-34.45325 37.4376,-42.09375 l 5.8124,-2.281254 -1.9687,-5.34375 c -1.0826,-2.93884 -1.7258,-5.55547 -1.4375,-5.84375 0.018,-0.018 0.048,-0.0267 0.125,-0.0312 z m 1123.6562,4.34375 -2.25,1.625 c -5.6469,4.0734 -17.7511,10.836614 -22.75,12.718754 -21.4629,8.08102 -44.5981,5.87731 -68.7812,-6.562504 -3.6953,-1.90086 -8.1812,-4.41735 -9.9688,-5.59375 -1.7874,-1.17639 -3.3424,-2.00401 -3.4374,-1.8125 -0.095,0.19151 -0.4328,31.200004 -0.75,68.874994 l -0.5626,68.5 -2.375,4.5 c -1.3002,2.47501 -4.5928,7.06235 -7.3124,10.21876 l -4.9376,5.75 3.7813,4.53125 c 11.8251,14.14666 30.1978,26.46027 45.5,30.46875 20.2163,5.29577 43.0446,-1.28838 64.8437,-18.71875 l 8.5,-6.8125 0.25,-83.84376 0.25,-83.843744 z m -439,6.5 0,4.187504 c 0,12.70268 -12.7502,35.69863 -25.5,46 l -5,4.06249 8.5313,0.125 c 11.0332,0.17997 17.3112,2.71736 23.4375,9.53125 7.519,8.36298 10.1889,18.40924 10.7188,40.34375 l 0.3124,13 -14,2.78125 c -7.6999,1.53169 -30.8053,5.91919 -51.3437,9.75 -20.5384,3.83081 -38.2142,6.96875 -39.25,6.96875 -1.8257,0 -1.875,-1.84614 -1.6563,-59.71875 l 0.25,-59.68749 7.5,-1.34375 c 4.125,-0.7399 20.775,-3.8102 37,-6.84375 16.2251,-3.03354 33.8875,-6.34696 39.25,-7.343754 l 9.75,-1.8125 z m 55.7813,10.312504 -2.875,3.46875 c -3.9485,4.76832 -10.6845,18.3129 -12.4375,24.96875 -1.7622,6.69102 -1.8898,16.85005 -0.2812,22.21874 2.8701,9.57982 14.4125,17.63012 29.1874,20.3125 3.9105,0.70994 9.0363,1.3254 11.375,1.375 4.0764,0.0865 4.4352,-0.16121 8.6876,-5.9375 19.8415,-26.95292 6.6329,-59.64748 -26.3126,-65.18749 l -7.3437,-1.21875 z m -732.875,1.4375 c -1.6654,0 -10.2416,8.67953 -12.0313,12.1875 -8.2673,16.20544 -8.0689,49.14839 0.375,63.62499 4.7691,8.17624 3.5591,7.62108 27.25,12.46875 12.0852,2.4729 22.049,4.53875 22.125,4.59375 0.076,0.055 -8.2307,-20.8 -18.4687,-46.375 -10.2381,-25.57499 -18.9015,-46.49999 -19.25,-46.49999 z m 644.25,5 c -0.3601,0.005 -6.6901,1.13023 -14.0625,2.5 -7.3724,1.36977 -13.5599,2.5 -13.75,2.5 -0.1901,0 -0.3438,7.875 -0.3438,17.5 0,16.9287 0.064,17.49999 2.0313,17.49999 6.0475,0 17.5856,-9.37292 21.75,-17.65624 2.7823,-5.53423 6.0817,-22.36855 4.375,-22.34375 z m -512.7813,1.1875 c 1.0244,-0.0199 2.0563,-0.0105 3.125,0 1.14,0.0112 2.3082,0.0482 3.5,0.0937 10.8101,0.41343 14.1225,0.9649 24.5,4.1875 15.5276,4.82179 22.2179,6.4807 26.3126,6.5 2.9765,0.014 3.2475,0.26237 2.625,2.28125 -1.409,4.56943 -7.1527,13.26469 -9.6876,14.6875 -3.7772,2.12011 -11.5376,0.27497 -27.875,-6.625 -14.9453,-6.31205 -20.9956,-7.13636 -26.7812,-3.71875 -4.1511,2.45214 -7.9152,10.25026 -8.3125,17.28125 l -0.2813,5.40624 17,2.84375 c 9.3501,1.57347 25.7369,4.23869 36.4376,5.90625 10.7004,1.66756 19.6387,3.23253 19.875,3.46875 0.2362,0.23621 -2.8434,4.38886 -6.875,9.21875 -4.0318,4.8299 -7.6647,9.14706 -8.0626,9.625 -0.398,0.47794 -1.673,-0.95392 -2.8124,-3.1875 -2.0353,-3.98947 -6.6176,-8.15662 -10.5626,-9.59375 -1.1,-0.40072 -11.7734,-2.43003 -23.6874,-4.5 l -21.6563,-3.75 0.5625,3.59375 c 1.4854,9.78475 11.0275,22.10795 23.9375,30.875 7.9586,5.40453 25.3074,13.9763 37.8437,18.71875 5.5,2.08062 10.3459,4.08573 10.7813,4.46875 0.4355,0.38301 -3.746,3.48796 -9.2813,6.875 -5.5353,3.38705 -10.6061,6.13661 -11.2812,6.12501 -1.3859,-0.0239 -19.1146,-9.29205 -28.2188,-14.75001 -28.467,-17.06592 -42.4363,-31.0942 -48.5,-48.71875 -3.2321,-9.39452 -4.5401,-21.53868 -3.125,-29.21874 1.4385,-7.80623 2.9705,-11.04331 7.8438,-16.4375 6.8755,-7.61032 17.2931,-11.3582 32.6562,-11.65625 z m 432.8126,6.96875 c 0.4984,-0.0113 0.8124,0.0721 0.8124,0.25 0,1.5271 -5.3301,13.12591 -7.625,16.59375 -4.1311,6.24266 -11.2614,7.2176 -31.9374,4.375 -9.4805,-1.30338 -12.5314,-1.36997 -15.8438,-0.40625 -10.125,2.94572 -15.6732,10.12542 -17.6562,22.90624 -0.6196,3.99372 -0.9631,7.44312 -0.75,7.65625 0.213,0.21314 3.2953,-0.0188 6.8437,-0.53125 34.5732,-4.99268 65.1912,-9.10798 65.9687,-8.84375 0.5247,0.17829 -2.4546,5.62322 -6.625,12.09375 l -7.5937,11.78125 -3.6563,-4.15625 c -3.18,-3.58359 -4.3495,-4.19212 -8.6562,-4.59375 -4.4305,-0.41317 -45.2289,4.13514 -46.25,5.15625 -0.2245,0.22453 0.3107,2.96995 1.2188,6.09375 3.1612,10.87451 13.4952,18.85171 30.9374,23.90625 9.2615,2.68385 28.2202,5.5625 36.6563,5.5625 2.7219,0 4.9687,0.2529 4.9687,0.5625 0,0.30959 -3.8346,4.17751 -8.5,8.59375 -13.7534,13.0188 -10.7753,12.08784 -27,8.28126 -45.4637,-10.6666 -61.7473,-23.82839 -65.6562,-53.18751 -3.5647,-26.77443 10.8966,-45.99675 42.6562,-56.78124 7.361,-2.49955 9.7972,-2.77925 30.5,-3.5 12.375,-0.43083 23.7376,-1.10994 25.25,-1.5 0.7564,-0.19504 1.4391,-0.30117 1.9376,-0.3125 z m -323.5313,6.25 c 4.1961,-0.14129 33.7764,2.74602 34.4687,3.4375 0.3573,0.35688 7.6422,17.75625 16.1876,38.65624 8.5455,20.9 19.6403,47.85816 24.625,59.9375 4.9846,12.07935 9.0624,22.31685 9.0624,22.75001 0,0.43316 -0.7875,0.7156 -1.75,0.625 -0.9624,-0.0906 -8.6444,-0.65311 -17.0624,-1.25 l -15.3126,-1.0625 -14,-33.50001 c -7.6934,-18.42501 -16.9173,-40.7 -20.5,-49.5 -3.5828,-8.8 -6.8897,-16.41675 -7.375,-16.90625 -0.5129,-0.51751 -3.448,1.66688 -7,5.21875 -10.173,10.17326 -14.027,21.16604 -14,39.96875 0.024,16.49851 4.8315,32.29678 13.5313,44.40626 1.968,2.73935 3.4458,5.14794 3.25,5.34375 -0.1958,0.19581 -7.1142,-0.5025 -15.3437,-1.5625 -24.7025,-3.18182 -21.7251,-1.88028 -25.3438,-11.31251 -9.6224,-25.08165 -7.7173,-47.64805 5.6875,-67.34375 6.449,-9.47549 17.3263,-18.84261 28.2187,-24.31249 2.475,-1.24287 4.6503,-2.39073 4.8438,-2.5625 0.1935,-0.17176 -0.4066,-2.61624 -1.3438,-5.4375 -0.9371,-2.82126 -1.5299,-5.31373 -1.3124,-5.53125 0.038,-0.038 0.189,-0.0531 0.4687,-0.0625 z m 220.0937,3.0625 c 0.2036,0.17137 0.4621,107.79765 0.2813,117.125 -0.038,1.95814 -0.7557,2.15541 -10.2813,2.78125 l -0.031,0 c -5.6375,0.37039 -13.0625,0.94706 -16.5,1.28125 l -6.25,0.59375 0,-20.46876 0,-20.5 -11.75,-0.59375 c -27.8814,-1.44656 -45.1265,-10.71636 -53.75,-28.875 -4.4118,-9.28987 -6.2428,-18.90684 -6.6562,-34.81249 l -0.3438,-12.5 16.25,-0.28125 16.25,-0.28125 0.031,11.28125 c 0.01,14.40006 1.2906,25.44285 4,34.15624 4.1046,13.20023 15.007,20.625 30.3126,20.625 l 5.6874,0 0,-33.5 c 0,-18.42499 0.1126,-33.53529 0.25,-33.56249 1.4711,-0.29096 32.3056,-2.63265 32.5,-2.46875 z m 166.8438,32.34374 c -3.497,0.036 -6.7182,0.26183 -8.6562,0.6875 l -2.9376,0.65625 0,26.40625 c 0,23.21061 0.1679,26.4375 1.5313,26.4375 1.3976,0 7.8234,-1.20096 30.1563,-5.59375 3.9644,-0.77977 7.5042,-1.40625 7.875,-1.40625 1.0659,0 -0.2853,-31.10123 -1.5313,-35.21875 -1.496,-4.94399 -5.8466,-9.10957 -11.1875,-10.71875 -2.8244,-0.85098 -9.4216,-1.31 -15.25,-1.25 z m -874.4062,34.25 c -1.5928,0.27265 -9.6175,7.49837 -12.3126,11.21875 -5.2743,7.28098 -3.202,14.39011 7.4063,25.43751 3.3115,3.4486 6.1912,6.28125 6.4063,6.28125 0.4963,0 -0.7689,-42.37936 -1.2813,-42.90626 -0.046,-0.0469 -0.1128,-0.0494 -0.2187,-0.0312 z m 1229.4062,5.03125 c -0.04,0.008 -0.069,0.007 -0.094,0.0312 -0.2364,0.23654 -0.7279,10.1026 -1.0937,21.90625 l -0.6563,21.46876 5.7188,-5.5 c 3.1396,-3.025 6.9972,-7.75001 8.5938,-10.50001 3.7961,-6.53962 3.8094,-11.0031 0.031,-16.21875 -2.8683,-3.95951 -11.2731,-11.42868 -12.5,-11.1875 z"
         id="path2991-9"
         inkscape:connector-curvature="0" />
    </g>
    <path
       inkscape:connector-curvature="0"
       id="path3848"
       d="m 782.34851,674.8393 c -9.35763,-4.765 -36.92009,-19.4642 -61.24992,-32.6649 C 553.01294,550.9756 457.00192,493.4316 370.9036,432.2856 325.6911,400.1763 237.93148,317.2724 195.91587,266.9801 134.58933,193.5727 85.593503,102.4957 54.741144,4.5542 29.495622,-75.5883 28.745617,-220.7601 53.038029,-325.1024 c 9.289863,-39.9024 29.54536,-98.4715 49.111061,-142.0054 31.59093,-70.29014 38.65398,-98.11588 38.66732,-152.33447 0.0118,-48.07414 -9.78408,-88.43898 -32.1962,-132.66716 -4.69023,-9.25574 -8.5277,-19.91402 -8.5277,-23.68508 0,-3.77926 12.89473,-21.36726 28.73135,-39.18863 60.9172,-68.55176 93.23607,-113.70843 118.80526,-165.99748 8.92122,-18.24391 19.36185,-34.85198 23.2014,-36.90688 8.50644,-4.5525 11.30233,-4.167 96.37968,13.29 137.88329,28.29205 251.60076,39.48296 399.82583,39.34671 155.11711,-0.14257 269.80557,-12.37795 431.77297,-46.06311 51.1392,-10.6357 67.7269,-12.9228 73.7663,-10.1711 4.8984,2.2319 14.1553,15.9375 24.9301,36.9112 36.9845,71.99212 84.3549,134.44083 126.1674,166.32741 22.801,17.38832 23.7965,25.49961 6.7445,54.95258 -15.9701,27.58428 -23.5172,59.09612 -23.6009,98.54232 -0.1048,49.48786 13.7853,99.98195 49.612,180.35024 49.0846,110.10935 69.426,201.14905 69.426,310.72225 0,151.7117 -33.0263,250.0265 -130.8819,389.6175 -65.0089,92.7351 -259.4085,260.0342 -439.27533,378.0377 -116.46621,76.4089 -138.57198,89.8466 -147.53679,89.6852 -4.83891,-0.087 -16.45425,-4.0571 -25.81187,-8.8221 z m 71.02856,-47.6544 c 80.72399,-47.369 226.48603,-147.009 234.84623,-160.5361 1.3418,-2.1711 -5.306,-4.3676 -17.4438,-5.7636 -10.7866,-1.2405 -29.565,-5.2218 -41.7299,-8.8474 -12.4154,-3.7001 -43.88095,-8.288 -71.72832,-10.4584 -46.37864,-3.6147 -51.69837,-3.3935 -81.66656,3.3964 -54.62281,12.3758 -100.48178,15.6166 -153.95336,10.8798 -53.94702,-4.7791 -75.39167,-9.0893 -111.19289,-22.3493 -35.30262,-13.0752 -81.07267,-13.2929 -133.87112,-0.6365 -20.29063,4.8638 -37.65386,9.6052 -38.58489,10.5362 -2.28166,2.2817 77.88155,55.5945 136.72689,90.9308 43.15455,25.914 223.54365,118.6258 231.12935,118.79 1.72894,0.037 23.08972,-11.6364 47.46837,-25.9419 l 0,0 z M 1170.2646,400.5711 c 76.4181,-63.6753 177.4003,-164.5733 206.1117,-205.9397 22.0314,-31.742 40.2512,-60.8633 60.6503,-96.9393 l 11.0635,-19.5659 -166.1349,-0.402 c -91.3742,-0.2211 -186.8068,-1.3695 -212.0724,-2.552 l -45.9374,-2.1502 -3.4028,-38.8581 -3.4028,-38.8581 -14.5017,-4.8241 c -11.5901,-3.8556 -17.61179,-9.1826 -29.99247,-26.5326 -12.49274,-17.5069 -20.04264,-35.0662 -39.00976,-90.7272 -31.32413,-91.9241 -31.96923,-86.8321 20.75371,-163.814 23.67092,-34.5624 41.59846,-57.459 45.73642,-58.4135 3.743,-0.8633 38.031,-3.8398 76.1955,-6.6144 38.1645,-2.7747 70.026,-5.6809 70.8034,-6.4584 2.2358,-2.2357 -10.428,-10.3103 -136.7906,-87.2193 -65.50338,-39.86784 -120.6283,-74.01344 -122.49983,-75.87915 -9.38825,-9.35905 19.77144,7.43564 135.77853,78.20245 69.4292,42.3533 127.5486,77.723 129.1541,78.5993 1.6055,0.8763 12.1091,-1.1892 23.3415,-4.5901 17.8308,-5.3987 22.4934,-8.743 36.7427,-26.3534 22.108,-27.323 35.4432,-65.5588 42.9481,-123.14464 3.1708,-24.32983 7.2107,-45.19577 8.9776,-46.36874 1.7669,-1.17297 30.6072,-3.24063 64.0895,-4.59476 69.0941,-2.79443 63.7842,0.61468 55.7728,-35.80721 -2.6758,-12.16492 -4.9188,-38.29968 -4.9846,-58.07727 -0.1395,-41.97082 6.958,-73.71993 23.1723,-103.65642 5.8904,-10.8755 10.3329,-19.91611 9.8722,-20.09024 -0.4608,-0.17412 -10.0061,-8.71773 -21.2121,-18.98577 -43.0509,-39.44782 -77.1334,-85.18609 -111.7036,-149.90518 l -19.2075,-35.95838 -51.9613,11.21979 c -295.62587,63.83339 -598.19498,64.21561 -879.49091,1.11104 -23.96908,-5.37711 -43.98572,-8.71686 -44.48142,-7.42167 -0.49571,1.2952 -8.91757,17.24912 -18.71526,35.45317 -23.12845,42.97253 -53.54868,85.80549 -94.08307,132.47287 -47.3033,54.46048 -44.14943,46.10962 -29.7185,78.68889 19.85211,44.81816 26.02243,74.84696 26.02243,126.64224 0,51.27822 -5.64651,78.96155 -25.90923,127.02609 -46.353921,109.95459 -58.795841,147.79729 -70.672029,214.95259 -5.964939,33.7294 -10.852747,98.6804 -7.426076,98.6804 1.295429,0 74.992585,-43.7712 163.771455,-97.2693 115.41375,-69.5483 161.41613,-98.984 161.41613,-103.2857 0,-40.3813 -8.75067,-152.81169 -14.93065,-191.83221 -7.45387,-47.06365 -7.61644,-51.38061 -2.83914,-75.38939 4.69719,-23.60623 4.5347,-29.88618 -2.22358,-85.94549 -9.01215,-74.75501 -9.01028,-74.97368 0.76624,-89.46278 4.49397,-6.66026 9.06359,-20.03398 10.43522,-30.54046 2.69642,-20.65426 14.36994,-39.26499 27.84155,-44.38689 6.94431,-2.64023 8.17254,-5.39094 8.17254,-18.30308 0,-15.50404 4.65707,-22.50989 10.84791,-16.31905 5.37046,5.37047 16.4391,47.51688 19.42677,73.97197 1.48514,13.15062 4.53015,27.32942 6.76672,31.50845 3.07481,5.74537 3.21174,17.34008 0.56149,47.548 -5.03454,57.38448 -6.20574,53.06672 11.79786,43.49411 19.47921,-10.3572 49.06288,-14.37618 63.08105,-8.56966 5.67691,2.35146 17.90958,12.78883 27.18373,23.19417 l 16.86203,18.91879 0,30.06542 c 0,21.72025 -1.49817,32.3519 -5.39747,38.30301 -7.8894,12.04075 -2.9565,16.90838 8.71375,8.59844 5.30421,-3.77691 14.22288,-6.86714 19.81931,-6.86714 13.9037,0 53.37618,12.41155 72.82466,22.89865 15.04845,8.1145 16.05537,9.53427 17.01386,23.99003 0.85839,12.94572 2.94531,16.92019 13.2538,25.2413 l 12.23501,9.87624 47.31352,-11.52999 c 26.02244,-6.34151 49.59099,-10.70836 52.3746,-9.70417 2.7836,1.0042 -16.35699,7.10591 -42.53466,13.55941 -26.17767,6.45349 -48.20233,12.24375 -48.94365,12.86721 -1.47691,1.24208 0.77368,16.09362 28.29603,186.72451 10.26365,63.6319 24.11263,153.2099 30.77549,199.0623 6.66287,45.8523 15.29979,98.6804 19.19314,117.3956 6.24787,30.0333 12.59679,109.6421 13.09391,164.1838 0.14904,16.3677 -0.48633,17.8646 -7.58468,17.8646 -9.44654,0 -57.16959,46.5341 -51.58713,50.3019 42.81342,28.8968 45.72354,34.5703 45.72354,89.1432 l 0,39.9336 -106.33666,2.1705 c -58.48516,1.1937 -171.08517,3.1658 -250.2222,4.3824 -79.13706,1.2166 -143.44947,3.3692 -142.91648,4.7837 1.76893,4.6943 61.80447,56.1625 88.40936,75.793 17.34839,12.8006 29.41071,19.304 35.72912,19.2634 5.24633,-0.034 25.61686,-3.8789 45.26787,-8.545 68.69937,-16.3126 110.22708,-14.7675 168.43727,6.2667 16.79292,6.0681 39.37804,10.1823 76.56239,13.9468 46.79783,4.7378 57.72924,4.7858 96.97903,0.4259 24.32983,-2.7027 52.65791,-7.2632 62.9513,-10.1345 34.36638,-9.5866 116.35939,-5.4266 163.33311,8.2867 21.9913,6.4201 36.9352,8.6827 62.9513,9.5311 12.7487,0.4157 17.2761,-2.61 71.4582,-47.7572 l 0,0 z M 294.91871,287.8904 c -1.27625,-29.5519 -0.66402,-42.7528 2.0609,-44.4369 2.13208,-1.3177 3.87651,-5.9461 3.87651,-10.2853 0,-10.3743 5.0969,-14.183 25.56605,-19.1045 9.33274,-2.244 20.3242,-6.1619 24.42547,-8.7066 11.68629,-7.2509 28.27226,-33.7114 28.27226,-45.1043 0,-17.3458 -10.03165,-59.011 -18.84072,-78.2526 -10.03827,-21.9264 -10.87733,-46.0982 -3.44179,-99.1516 8.94876,-63.8505 12.7247,-113.0624 12.40174,-161.6318 -0.24057,-36.1692 2.04286,-63.6143 9.48394,-113.9929 5.3904,-36.4947 9.20811,-67 8.48383,-67.7896 -1.15201,-1.2558 -136.33859,79.3517 -277.75676,165.6176 l -46.788133,28.5411 0.0095,27.8396 c 0.04219,122.5721 53.397513,259.7075 146.533163,376.6239 27.60318,34.6513 80.45561,91.8749 84.85673,91.8749 1.47007,0 1.85582,-18.9185 0.85723,-42.041 l 5e-5,0 z m 249.23568,33.5752 c 112.29151,-1.0359 213.73669,-2.7957 225.43372,-3.9107 l 21.26733,-2.0274 0,-34.1861 0,-34.186 -153.68342,2.2561 c -84.52587,1.2409 -194.77572,2.2561 -244.99966,2.2561 l -91.31624,0 0,35.162 c 0,19.3391 1.09043,36.2524 2.42318,37.5852 1.33275,1.3327 10.13743,1.6382 19.56595,0.6787 9.42852,-0.9595 109.01763,-2.592 221.30914,-3.6279 z m -78.42306,-95.6665 c 1.26474,-6.7415 1.67321,-12.8837 0.90772,-13.6492 -0.76545,-0.7655 -11.94792,-3.3049 -24.84987,-5.6433 -17.4696,-3.1662 -23.74911,-5.7625 -24.59797,-10.1702 -1.35495,-7.0357 3.69286,-7.4027 31.39368,-2.2819 10.82031,2.0002 20.45962,2.8505 21.42066,1.8895 0.96108,-0.9611 3.66881,-11.4023 6.01719,-23.2028 2.34839,-11.8004 8.09888,-36.0022 12.77885,-53.7817 4.67997,-17.7795 9.35847,-37.9215 10.39663,-44.76 l 1.88758,-12.4335 -22.70177,-3e-4 c -13.51915,-1e-4 -31.59937,-2.8327 -44.69906,-7.0027 -15.01753,-4.7806 -22.71423,-5.8425 -24.25677,-3.3466 -4.12842,6.6799 -13.3302,75.6585 -13.54961,101.5708 l -0.21607,25.5208 -20.41947,16.4716 c -14.47622,11.6773 -26.96497,18.3433 -42.90811,22.9027 -20.44843,5.8477 -27.87891,10.5202 -28.02391,17.6222 -0.0286,1.4036 35.76181,2.552 79.53437,2.552 l 79.58647,0 2.29949,-12.2574 -3e-5,0 z m 24.9098,9.4027 c 3.32798,-2.1121 2.81406,-4.1259 -2.21426,-8.6765 -7.09992,-6.4253 -12.78707,-2.4099 -9.3335,6.59 2.13279,5.558 5.20366,6.1128 11.54776,2.0865 l 0,0 z M 622.1337,215.8564 c -0.23139,-16.67 -4.44004,-31.2882 -22.53289,-78.2638 -12.23661,-31.7707 -23.1967,-62.8658 -24.35576,-69.1 -1.15905,-6.2343 -5.08449,-15.1198 -8.72317,-19.7457 -3.63873,-4.6259 -10.5667,-20.197 -15.39551,-34.6024 -4.82884,-14.4055 -10.14275,-28.3456 -11.80871,-30.978 -3.66564,-5.7923 -14.40095,27.7961 -22.73737,71.1403 -3.0596,15.908 -9.40111,44.236 -14.09227,62.9513 -4.69117,18.7152 -10.86526,45.2295 -13.72026,58.9206 l -5.19082,24.8928 18.34594,18.5767 18.34599,18.5768 51.07463,-0.9349 51.07467,-0.9349 -0.28447,-20.4988 z m 28.6978,8.5758 c 9.51432,-9.5143 9.78624,-10.4546 3.92986,-13.5888 -3.46045,-1.852 -8.708,-5.7835 -11.6612,-8.7368 -4.89084,-4.8908 -5.36951,-3.6793 -5.36951,13.5889 0,10.427 0.64782,18.9583 1.43965,18.9583 0.79179,0 6.03934,-4.5997 11.6612,-10.2216 l 0,0 z m 135.63851,4.6715 c 0.70397,-2.1168 -8.35724,-10.7287 -20.13604,-19.1375 L 744.918,194.6774 729.11951,147.4608 c -8.68919,-25.9691 -19.19059,-62.0454 -23.33642,-80.1696 -8.46559,-37.0084 -4.4477,-34.9123 -38.5603,-20.117 -10.57173,4.5851 -23.63641,7.1326 -36.57981,7.1326 -11.07398,0 -20.13451,1.4522 -20.13451,3.2271 0,1.7749 3.71481,15.1734 8.25513,29.7743 4.54032,14.6009 13.77636,44.4222 20.52454,66.2696 12.07664,39.0984 12.50825,39.8625 27.47399,48.6329 19.54757,11.4557 19.54083,13.1663 -0.10787,27.3952 -6.02165,4.3607 0.4132,4.8373 55.86516,4.1374 42.96185,-0.5422 63.07319,-2.0013 63.95063,-4.6396 l -4e-5,0 z M 615.60303,121.1823 C 607.07238,93.7068 591.64026,37.2202 581.30944,-4.3433 564.17042,-73.298 559.00501,-87.4261 552.42123,-83.3571 c -1.24651,0.7704 -3.2784,10.3457 -4.51531,21.2786 -1.97065,17.4181 -0.72377,24.2699 10.07629,55.3712 6.7789,19.5213 15.92603,42.3839 20.32697,50.8058 4.40095,8.4218 10.40698,23.3276 13.3467,33.1239 7.80807,26.0193 37.31998,100.3278 38.47243,96.8704 0.54172,-1.6252 -5.99463,-25.4349 -14.52528,-52.9105 l 0,0 z m -229.7913,11.8879 c -1.44649,-11.89 -4.51783,-23.3744 -6.82522,-25.5208 -3.27564,-3.047 -3.72042,-2.0377 -2.02911,4.6045 1.19138,4.6788 3.05862,14.632 4.14941,22.1181 4.50415,30.9118 8.48788,29.8943 4.70492,-1.2018 z M 801.35395,26.8395 c -1.93053,-23.5289 -5.83361,-52.7989 -8.67353,-65.0444 -2.83996,-12.2456 -11.21309,-64.1977 -18.60701,-115.4492 -7.39392,-51.2515 -21.34819,-142.1845 -31.00948,-202.0733 -9.66132,-59.8888 -20.26194,-125.66325 -23.55698,-146.16543 l -5.99096,-37.27677 -15.80234,-13.76483 c -14.15829,-12.33284 -15.79945,-15.26266 -15.77465,-28.16182 0.0238,-12.46919 -1.09372,-14.67841 -8.34744,-16.49899 -6.4653,-1.62268 -11.96014,0.83562 -24.09619,10.78022 l -15.72105,12.88222 18.76639,16.46112 c 18.86021,16.5434 32.82877,35.21067 32.82877,43.87161 0,2.5614 -5.28523,-3.19102 -11.74491,-12.78313 -10.48109,-15.56347 -13.68507,-17.89597 -29.77427,-21.67546 -9.91616,-2.32937 -27.53422,-7.9959 -39.15128,-12.59227 -17.67795,-6.9944 -22.55614,-10.80428 -29.91773,-23.36589 -9.37825,-16.0028 -11.60842,-17.3537 -18.03664,-10.92548 -2.66035,2.66035 -4.08332,2.80555 -4.08332,0.41663 0,-2.01665 2.28639,-5.56418 5.08085,-7.88337 3.60558,-2.99237 4.49918,-7.85415 3.07764,-16.74403 -1.46415,-9.15615 -0.54217,-13.73989 3.42608,-17.03323 4.18024,-3.46926 5.39669,-10.86856 5.28763,-32.16212 -0.13543,-26.46017 -0.63584,-28.21557 -11.56864,-40.58906 -6.28489,-7.11305 -11.98974,-11.24467 -12.67751,-9.18139 -0.68777,2.06328 -16.88469,5.45062 -35.99321,7.52742 -41.5779,4.51889 -46.62074,8.25986 -51.29238,38.05064 l -3.13572,19.99609 9.76576,3.68616 c 5.37114,2.02737 9.76572,5.71669 9.76572,8.19847 0,3.31039 3.39903,3.966 12.7604,2.46126 10.229,-1.64419 11.56486,-1.29574 6.73398,1.75634 -3.31454,2.09407 -5.07493,5.34695 -3.912,7.22861 1.16293,1.88167 0.0466,3.13739 -2.48052,2.79048 -14.39155,-1.97555 -19.90741,0.37158 -19.90741,8.47107 0,5.94185 4.37222,11.43542 15.41,19.36215 17.40362,12.49832 22.94272,25.41691 13.773,32.12197 -4.97366,3.63682 -5.30598,6.22926 -2.22211,17.33512 8.37589,30.16409 2.98858,28.69273 -24.67967,-6.74048 l -22.10305,-28.30617 -0.85475,-72.92633 c -0.47009,-40.10948 0.34413,-92.96055 1.80936,-117.44682 2.10894,-35.24303 1.69325,-46.24735 -1.99474,-52.80732 -4.53164,-8.06059 -5.33238,-8.20659 -29.32894,-5.3479 l -24.67011,2.93893 -0.28719,53.27117 c -0.15786,29.29914 -1.49906,62.45865 -2.98035,73.6878 -3.72424,28.23165 1.68427,75.24562 13.3095,115.69428 8.32686,28.97237 9.50381,37.96018 7.9221,60.49712 l -1.85775,26.46943 21.81386,33.07908 c 11.99763,18.1936 27.74662,46.0948 34.99779,62.0027 7.25117,15.908 14.28576,30.1812 15.63244,31.7182 1.34665,1.5371 17.57522,-14.7647 36.06351,-36.226 34.61032,-40.176 38.2358,-43.0126 68.41217,-53.5265 l 17.78327,-6.19587 6.65902,9.35177 6.65902,9.3517 -27.84506,13.8631 c -39.22193,19.5272 -63.57418,39.5876 -63.57418,52.3697 0,5.4554 0.38281,9.8959 0.8507,9.8678 0.46788,-0.027 13.10067,-3.9296 28.07287,-8.67 14.9722,-4.7404 35.60584,-10.0526 45.85247,-11.8049 17.91792,-3.0641 18.92167,-2.8301 26.24913,6.118 l 7.61881,9.3038 0.0966,-11.9097 c 0.13202,-16.2713 -5.3153,-50.0137 -14.06659,-87.13213 -7.01897,-29.7709 -6.89858,-42.17322 0.40946,-42.17322 10.22717,0 24.46365,58.17415 30.79676,125.84425 4.21828,45.073 19.24224,146.3151 22.1431,149.2159 0.94904,0.9491 5.37295,-1.701 9.83092,-5.8891 10.1095,-9.4974 33.64267,-9.1665 35.47432,0.4987 0.92041,4.8569 -1.35033,5.9549 -12.31546,5.9549 -7.71405,0 -15.2241,2.1449 -17.62068,5.0326 -3.15614,3.8029 -5.80033,4.1637 -10.82133,1.4766 -6.14306,-3.2877 -6.47945,-2.6758 -4.45664,8.1067 1.20335,6.4145 0.54131,17.6172 -1.47126,24.8949 -3.31532,11.9887 -2.94285,13.7775 3.96328,19.0353 5.85832,4.4601 7.85595,4.7667 8.63134,1.3248 0.55489,-2.4631 4.73662,-6.1768 9.29277,-8.2527 6.97503,-3.1781 8.83135,-2.7515 11.74892,2.7002 2.81586,5.2614 2.12626,6.8994 -3.68044,8.7424 -9.30151,2.9522 -3.32873,9.401 7.25645,7.8348 5.02773,-0.7439 10.74163,-6.6073 16.47956,-16.9107 8.52272,-15.3038 8.63307,-16.263 3.71991,-32.3263 -2.94772,-9.6374 -4.33775,-22.9526 -3.32672,-31.867 l 1.73671,-15.3124 5.81122,25.5208 c 3.19619,14.0364 6.74181,40.8332 7.87916,59.5485 1.13734,18.7152 7.9468,65.4183 15.13213,103.7846 7.18533,38.3662 18.02003,101.913 24.07713,141.2151 7.94943,51.5804 12.53568,72.6849 16.48715,75.8682 4.95026,3.9879 5.57467,1.0566 6.52363,-30.625 0.57718,-19.2692 -0.53012,-54.2858 -2.46061,-77.8147 l 0,0 z M 382.11169,64.8411 c 3.71991,-2.3561 5.2992,-25.1021 7.61564,-109.6873 1.6074,-58.6931 6.22371,-141.9335 10.25851,-184.9786 4.03477,-43.045 7.42176,-82.8575 7.5266,-88.4721 0.22458,-12.0217 -7.81801,-42.5346 -11.21116,-42.5346 -1.29291,0 -6.80966,28.7109 -12.25937,63.802 -7.91162,50.9432 -9.95369,75.4606 -10.13227,121.6491 -0.21437,55.4525 -6.99112,136.7365 -15.60433,187.1683 -2.32202,13.5959 -3.01897,30.735 -1.62522,39.9668 2.21754,14.6885 3.27489,16.1584 11.5893,16.1111 5.03201,-0.027 11.26106,-1.3898 13.8423,-3.0247 l 0,0 z M 1461.5503,43.3035 c 5.1646,-12.6022 8.3474,-23.5254 7.0729,-24.2739 -1.2745,-0.7485 -86.5359,-2.3384 -189.4698,-3.5331 -102.9339,-1.1947 -201.3166,-3.0863 -218.6282,-4.2036 l -31.4756,-2.0315 0,16.9932 c 0,9.3463 0.9467,21.7268 2.1038,27.5122 l 2.1038,10.5191 34.476,1.1135 c 18.9618,0.6124 113.215,1.0467 209.4515,0.9653 l 174.9755,-0.1481 9.3901,-22.913 0,-1e-4 z m -967.47203,5.5359 c 8.57015,-1.714 10.71152,-4.1349 12.61027,-14.256 1.2579,-6.7053 7.40348,-27.8104 13.65682,-46.9001 6.25335,-19.0898 12.4272,-41.7606 13.71971,-50.3796 l 2.34999,-15.6709 -27.97127,-30.6388 c -17.98223,-19.6972 -27.27136,-32.4628 -26.01138,-35.7462 2.49876,-6.5117 5.30887,-6.3855 36.14889,1.6225 27.68717,7.1894 32.19996,10.9846 35.70591,30.0281 1.39721,7.5894 5.91885,15.4893 11.39483,19.9084 7.83424,6.3221 11.18325,15.8824 24.43606,69.7568 l 15.35756,62.4307 22.30144,0.9918 c 18.83962,0.8378 25.89738,-0.6217 45.46748,-9.4022 22.40185,-10.051 23.09853,-10.7318 21.11761,-20.6363 -1.12666,-5.6333 -6.06674,-39.6835 -10.97796,-75.6672 -8.54423,-62.6023 -9.86838,-67.8616 -30.69431,-121.9119 -15.22159,-39.5052 -21.76481,-61.1158 -21.76481,-71.8835 0,-8.4681 -0.93611,-20.077 -2.08025,-25.7977 l -2.08022,-10.4011 -53.21485,0.2337 c -41.82419,0.1838 -63.51446,-1.5449 -101.33277,-8.0756 l -48.11801,-8.3093 -2.0729,15.1237 c -1.14013,8.3178 -2.07293,20.2399 -2.07293,26.4934 0,12.8461 -1.14943,12.3442 42.49056,18.5521 25.74191,3.6618 129.21912,2.0342 152.31819,-2.3959 7.66349,-1.4697 9.35763,-0.574 9.35763,4.9472 0,7.8315 -9.2534,9.2106 -85.35594,12.7205 -41.53677,1.9157 -63.31108,0.4921 -111.38454,-7.2823 -11.03209,-1.7841 -11.26467,-1.5693 -10.20832,9.4307 1.0043,10.4574 2.09455,11.3772 15.35859,12.9578 l 14.27756,1.7014 -11.77254,19.1955 c -17.21092,28.063 -19.81646,47.2407 -20.01249,147.2991 l -0.17286,88.2309 23.81941,7.5446 c 25.32429,8.0213 38.74231,9.5192 55.40984,6.1857 l 0,0 z m 992.07343,-90.6609 c 6.5165,-35.477 12.4078,-98.2671 12.4514,-132.7082 l 0.029,-22.9687 -45.9374,0 c -25.2656,0 -45.9374,-1.3399 -45.9374,-2.9774 0,-1.6376 1.0013,-7.9842 2.2252,-14.1035 l 2.2252,-11.1261 42.0108,1.985 42.0109,1.985 -7e-4,-12.5516 c 0,-18.233 -12.2967,-89.5513 -21.2304,-123.1417 l -7.6925,-28.9236 -121.2299,-0.8932 -121.2299,-0.8933 -5.3886,8.224 c -3.8684,5.904 -14.3056,11.1232 -36.999,18.5017 -26.2148,8.5234 -41.1942,10.9198 -87.7563,14.0391 -30.8801,2.0687 -64.8516,4.6674 -75.4921,5.7749 l -19.34641,2.0136 -37.57328,55.3307 c -49.92389,73.5184 -49.47976,70.0572 -19.68845,153.4438 12.10091,33.8708 23.93388,65.2613 26.29547,69.7568 9.41048,17.9136 25.87636,38.0943 33.92997,41.5847 13.0639,5.662 86.5644,7.8061 291.1637,8.4938 l 187.3792,0.6298 5.7814,-31.4756 0,0 z m -944.44376,-67.594 c -3.40305,-14.8713 -4.36692,-15.8692 -18.4367,-19.0889 -8.1653,-1.8684 -14.84596,-2.5093 -14.84596,-1.4242 0,2.3095 34.96097,38.1172 36.10189,36.9763 0.42432,-0.4244 -0.84433,-7.8328 -2.81923,-16.4632 l 0,0 z m 86.24947,-204.4812 c 2.7866,-4.5087 7.55031,-46.8892 5.50089,-48.9386 -0.80772,-0.8078 -13.52112,1.0239 -28.25207,4.0703 -22.98219,4.7528 -33.07883,4.9978 -71.13983,1.7262 -24.39601,-2.0969 -53.16275,-3.8082 -63.9261,-3.8027 -18.47661,0.01 -20.33589,0.7995 -33.2863,14.144 -7.54412,7.7737 -13.18064,15.7418 -12.5256,17.7069 1.28134,3.844 28.15549,9.5218 82.39549,17.4078 38.0933,5.5385 117.31499,4.0265 121.23352,-2.3139 z m 829.84159,-90.8681 c 0,-1.7049 -3.275,-11.6581 -7.2778,-22.118 l -7.2778,-19.018 -93.4226,0 c -92.5785,0 -93.4398,0.066 -95.3256,7.277 -1.0466,4.0024 -5.4539,13.9555 -9.794,22.118 l -7.891,14.841 110.4944,0 c 64.1993,0 110.4944,-1.2988 110.4944,-3.1 z m -26.0987,-61.5527 c -0.3179,-2.80727 -7.6916,-22.71349 -16.3861,-44.23603 -8.6944,-21.52254 -17.0295,-42.19439 -18.5222,-45.93744 -2.5875,-6.48807 -5.4025,-6.75889 -60.3397,-5.8055 l -57.6255,1.00007 -6.0575,41.53459 c -3.3316,22.84404 -6.9002,45.77274 -7.9303,50.95261 l -1.873,9.4181 84.6561,-0.9111 c 72.882,-0.7844 84.5757,-1.621 84.0782,-6.0153 l 0,0 z M 468.61168,-720.66519 c 7.0878,-3.86949 21.5827,-6.54265 41.51498,-7.65624 l 30.62496,-1.71097 -11.48109,-6.26051 c -10.32776,-5.63158 -13.70872,-5.84018 -33.65567,-2.07647 -15.73143,2.96831 -25.24882,6.98302 -32.75493,13.817 -12.12513,11.03937 -9.99095,12.48171 5.75175,3.88719 z m -27.84769,-121.90234 c 2.31797,-1.43256 3.05804,-7.77005 1.90835,-16.34164 -1.98079,-14.7678 -15.30217,-29.30191 -26.88756,-29.33527 -4.75939,-0.0136 -5.49749,2.07515 -3.90182,11.04211 1.08238,6.08246 5.00704,15.39032 8.72151,20.68413 11.26978,16.06166 4.45848,13.87045 -10.20339,-3.28245 -11.83311,-13.84358 -14.51415,-15.47806 -19.11933,-11.65608 -5.52021,4.58136 -7.05861,19.03593 -3.11871,29.3031 1.91855,4.9997 5.55782,5.55268 25.52611,3.87861 12.80868,-1.07384 24.99238,-3.00546 27.07484,-4.29251 l 0,0 z m -35.76882,-41.36946 c -3.45899,-3.45897 -6.313,1.74866 -3.47498,6.34067 2.14384,3.46885 2.94537,3.47153 4.09796,0.0136 0.78808,-2.36419 0.50772,-5.22367 -0.62298,-6.35438 l 0,10e-5 z m 28.31022,-11.98059 c -0.14224,-4.21093 -2.24257,-13.01561 -4.66708,-19.56595 l -4.40819,-11.9097 -2.58124,16.53939 c -1.95782,12.54459 -1.44696,17.25781 2.115,19.51384 7.48171,4.73867 9.81859,3.61754 9.54151,-4.57758 z"
       style="opacity:0;color:#000000;fill:#000000;fill-opacity:1;fill-rule:nonzero;stroke:none;stroke-width:2;marker:none;visibility:visible;display:inline;overflow:visible;enable-background:accumulate" />
  </g>
  <rect
     style="fill:#29166f;fill-opacity:1;fill-rule:evenodd;stroke:none"
     id="rect3001"
     width="206.1333"
     height="699.90527"
     x="194.6488"
     y="0.69563073"
     ry="0" />
</svg>
