<?xml version="1.0" encoding="UTF-8" standalone="no"?>
<!-- Created with Inkscape (http://www.inkscape.org/) -->

<svg
   xmlns:dc="http://purl.org/dc/elements/1.1/"
   xmlns:cc="http://creativecommons.org/ns#"
   xmlns:rdf="http://www.w3.org/1999/02/22-rdf-syntax-ns#"
   xmlns:svg="http://www.w3.org/2000/svg"
   xmlns="http://www.w3.org/2000/svg"
   xmlns:xlink="http://www.w3.org/1999/xlink"
   version="1.1"
   width="1200"
   height="600"
   id="svg2">
  <metadata
     id="metadata8">
    <rdf:RDF>
      <cc:Work
         rdf:about="">
        <dc:format>image/svg+xml</dc:format>
        <dc:type
           rdf:resource="http://purl.org/dc/dcmitype/StillImage" />
        <dc:title></dc:title>
      </cc:Work>
    </rdf:RDF>
  </metadata>
  <defs
     id="defs6" />
  <path
     d="M 0,0 0,600 1200,600 1200,0 z"
     id="path2995"
     style="fill:#d20000;fill-opacity:1" />
  <path
     d="M 427.193,381.5038 C 451.76844,376.48326 470.9583,368.00651 487.91186,354.68244 501.33914,344.12973 512.02194,326.95476 515.40667,310.47852 517.84429,298.61261 516.39251,289.37791 510.11463,276.81582 494.91961,246.41052 449.27101,221.11352 405.31467,218.73902 399.24524,218.41115 392.9439,217.93514 391.3117,217.68124 386.03059,216.85967 388.09866,219.64195 397.82558,226.4447 422.15401,243.45936 448.35202,262.78064 462.93404,274.46281 475.88108,284.83514 488.70379,299.44509 488.70379,303.82434 488.70379,306.49968 484.58268,312.73956 478.7968,318.82478 473.54777,324.34536 455.31962,339.36102 443.91961,347.55527 419.30466,365.24836 408.80206,372.29599 392.12105,382.31405 L 387.80451,384.90643 401.83329,384.36252 C 409.69634,384.05764 420.84206,382.80122 427.193,381.5038 z"
     id="path3046"
     style="fill:#ffe600;fill-opacity:1;stroke:none" />
  <path
     d="M 812.44478,381.64127 C 812.44478,381.12996 811.18228,379.79212 809.63928,378.6683 808.09628,377.54446 805.21368,375.40876 803.23358,373.92227 801.25348,372.43579 795.83878,368.57938 791.20098,365.35248 786.56318,362.12559 780.34048,357.71334 777.37288,355.54748 774.40528,353.38163 767.36388,348.24007 761.72538,344.12181 731.48208,322.03261 712.08508,303.29662 712.08508,296.17319 712.08508,286.58809 739.00528,263.26595 786.00598,232.13232 795.50238,225.84183 804.81958,219.90436 806.71088,218.93798 813.83328,215.29872 812.42768,214.61255 799.39678,215.36737 753.28808,218.03825 717.33518,234.53537 696.62828,262.52305 684.97178,278.27814 681.06628,300.38428 687.15228,316.16014 691.25638,326.79857 695.02018,332.32874 705.39088,342.95827 724.06218,362.09567 754.87218,376.36384 786.00598,380.29129 804.24018,382.59148 812.44478,383.01041 812.44478,381.64127 z"
     id="path3044"
     style="fill:#ffe600;fill-opacity:1;stroke:none" />
  <path
     d="M 623.59588,369.76927 C 627.45378,368.51664 634.49518,365.17815 639.24338,362.35037 646.50558,358.02537 647.44808,357.1572 645.17858,356.883 639.02708,356.13974 627.97378,352.80722 620.89808,349.56251 604.74558,342.15547 601.54548,341.99344 589.23128,347.95922 578.42092,353.1964 571.08304,355.40004 562.92265,355.85997 559.52539,356.05144 556.44445,356.51002 556.07609,356.87904 554.39229,358.56587 572.55891,367.94022 582.97938,370.76168 593.41038,373.586 613.34058,373.09902 623.59588,369.76927 z"
     id="path3042"
     style="fill:#ffe600;fill-opacity:1;stroke:none" />
  <path
     d="M 412.08509,354.79922 C 418.92609,352.53726 423.91189,348.86874 428.70823,342.56804 432.68024,337.35021 441.22177,319.31462 441.22177,316.14549 441.22177,314.12914 444.96456,311.27279 451.80395,308.06961 457.11941,305.58014 459.39816,302.75876 457.96701,300.43892 457.60386,299.85029 454.28656,297.96824 450.59523,296.2566 L 443.88371,293.14456 439.17331,281.91179 C 433.70328,268.86755 431.32647,264.66412 426.20605,258.97912 421.16902,253.38668 415.76356,250.83647 404.93228,248.94251 396.66696,247.49722 395.21679,247.51541 389.44884,249.13672 385.94865,250.12059 382.84049,251.56354 382.54181,252.34328 380.64024,257.30766 388.45512,270.54967 400.08411,282.06802 409.04379,290.94246 415.54346,294.18924 427.193,295.60967 435.6528,296.6412 436.90523,297.53888 436.90523,302.57092 436.90523,307.71284 435.31064,308.78902 424.68716,310.81688 410.55304,313.51486 404.19566,317.75989 391.6227,332.89507 385.28882,340.51971 381.92953,346.92537 381.89295,351.44817 381.87234,353.99734 382.46714,354.53343 386.45559,355.56046 388.97807,356.21 391.52753,356.9427 392.12105,357.18866 394.07612,357.99888 407.13523,356.43588 412.08509,354.79922 z"
     id="path3040"
     style="fill:#ffe600;fill-opacity:1;stroke:none" />
  <path
     d="M 361.90522,349.21456 C 365.46637,347.54574 370.33906,344.23719 372.73342,341.86221 377.12442,337.50676 383.23937,326.84637 386.70501,317.50511 388.4366,312.83777 389.21164,312.12884 396.55778,308.49249 406.26435,303.68774 406.83007,301.67399 399.40523,298.35669 389.61142,293.98095 389.34795,293.7176 385.23484,284.19254 379.02252,269.80617 374.22869,263.20405 366.53717,258.44187 362.2858,255.80966 349.50967,252.84119 342.43205,252.84119 337.1309,252.84119 329.05945,255.64496 328.86729,257.55316 328.32236,262.96431 332.37084,270.30981 340.77221,279.15322 351.83206,290.79501 359.6117,294.98528 373.15304,296.59425 381.2532,297.5567 382.94839,298.66825 382.94839,303.01713 382.94839,305.00448 382.29375,307.17478 381.49365,307.84 380.69353,308.50524 375.93005,309.76732 370.90812,310.64465 365.88618,311.52197 359.58499,313.21132 356.90546,314.39874 352.22453,316.47307 343.33782,323.45607 339.62633,327.97632 338.64991,329.16551 336.88091,331.24739 335.69524,332.60273 334.50956,333.95806 332.15196,337.72327 330.45614,340.96986 328.02143,345.63108 327.62161,347.27309 328.55547,348.77591 332.00906,354.33358 350.46352,354.57631 361.90522,349.21456 z"
     id="path3038"
     style="fill:#ffe600;fill-opacity:1;stroke:none" />
  <path
     d="M 812.71458,350.47082 C 817.31378,348.8194 817.83938,348.29121 817.82998,345.33033 817.80708,338.15349 809.40278,325.67272 796.97928,314.36608 790.58838,308.54971 785.10398,306.14137 775.21458,304.80867 766.24638,303.6001 762.80448,301.48034 762.80448,297.16551 762.80448,292.83086 766.32228,290.57026 775.56918,288.96269 780.48918,288.10735 787.03548,286.13107 790.11638,284.57095 802.88548,278.10502 820.94348,253.97718 818.25888,246.96879 816.69498,242.886 799.37288,241.884 788.50258,245.24755 776.28898,249.02673 769.79708,256.55217 762.33358,275.58273 760.12658,281.21002 757.75148,286.37379 757.05558,287.0578 756.35958,287.74178 753.27108,289.60116 750.19228,291.18973 739.96378,296.46729 739.95118,298.73505 750.12238,303.75973 756.15488,306.73988 757.16508,307.7042 758.90788,312.14629 765.42198,328.75 769.35408,336.13156 774.40248,341.23343 779.41868,346.30277 781.70798,347.5117 791.40158,350.21005 800.04708,352.61666 806.51788,352.69583 812.71458,350.47082 z"
     id="path3036"
     style="fill:#ffe600;fill-opacity:1;stroke:none" />
  <path
     d="M 868.09208,345.02163 C 871.75018,343.27409 871.97818,342.88018 871.48118,339.16764 870.77038,333.85907 865.51708,326.33562 856.23058,317.32662 846.21998,307.61523 838.51488,303.84439 828.09228,303.55593 821.30438,303.36808 818.48928,302.19334 817.40148,299.09474 816.66198,296.98819 816.85128,295.56736 818.13258,293.60836 819.56958,291.41125 821.34048,290.73425 828.61658,289.60033 833.92798,288.7726 840.21548,286.86465 844.60238,284.74947 857.70948,278.42971 874.70498,257.79145 872.19598,251.24139 871.61318,249.71994 867.82988,248.19481 861.54558,246.94806 856.46648,245.9404 839.90468,249.25996 835.33478,252.20159 830.38538,255.38747 823.20628,262.93538 820.33088,267.97633 819.14378,270.05741 816.76238,275.35467 815.03888,279.74802 L 811.90528,287.73594 804.08148,291.48966 C 795.72828,295.49746 793.91228,298.48785 798.71988,300.31897 809.16228,304.2963 811.13308,305.85636 813.60858,312.10457 819.51798,327.02012 825.46828,335.72588 833.48798,341.18985 840.91458,346.24971 860.89108,348.46174 868.09208,345.02163 z"
     id="path3034"
     style="fill:#ffe600;fill-opacity:1;stroke:none" />
  <path
     d="M 306.32968,342.33312 C 317.84193,338.87098 325.77405,331.64846 332.26258,318.72016 336.38113,310.51399 336.49105,310.40537 343.76736,307.34968 347.80794,305.65284 351.45028,303.77815 351.86148,303.18371 353.13777,301.33863 350.6751,299.53757 343.69349,297.21005 337.00218,294.97931 336.96183,294.94078 333.32391,287.30967 328.65674,277.51954 322.47622,269.75832 316.59984,266.30832 304.12465,258.9842 276.11385,258.56782 276.11385,265.7065 276.11385,269.21603 282.85965,277.96227 290.14263,283.89541 299.95526,291.88937 306.28457,294.77 317.12105,296.17397 328.13791,297.60131 331.14983,298.86946 331.14983,302.08069 331.14983,305.66232 329.04463,306.79686 319.17204,308.53577 306.34569,310.79492 300.71449,312.9188 293.65147,318.1612 281.82762,326.93724 274.72798,336.31248 276.46732,340.85331 277.71833,344.11927 297.18302,345.08382 306.32968,342.33312 z"
     id="path3032"
     style="fill:#ffe600;fill-opacity:1;stroke:none" />
  <path
     d="M 661.05988,337.67786 C 663.96258,336.46288 665.33288,334.76249 667.76248,329.36078 670.16238,324.02512 673.23618,313.53807 673.23618,310.68562 673.23618,310.45049 670.56048,311.48529 667.29018,312.98517 659.91908,316.36587 647.98448,317.45929 638.61398,315.61243 634.94128,314.88858 627.01758,312.19158 621.00558,309.61909 614.99368,307.0466 607.72958,304.58953 604.86338,304.15892 600.09748,303.44294 598.76118,303.80169 589.23188,308.35553 583.50077,311.09425 575.65524,314.1371 571.79732,315.11739 562.31771,317.52619 548.13547,316.63844 537.53473,312.97272 L 529.71099,310.2673 529.71099,312.79172 C 529.71099,316.38478 533.61283,328.44169 536.06613,332.42949 538.92788,337.08117 549.97047,339.8757 562.17782,339.03747 569.37944,338.54297 572.20811,337.70626 580.89504,333.50096 593.71718,327.29378 598.75628,326.11298 606.81558,327.42703 614.73908,328.71894 616.05708,329.14648 625.44178,333.4691 640.70908,340.50131 651.31938,341.75506 661.05988,337.67786 z"
     id="path3030"
     style="fill:#ffe600;fill-opacity:1;stroke:none" />
  <path
     d="M 920.93278,337.76121 C 925.26228,335.94897 925.40838,335.25289 922.59898,329.82513 918.36618,321.64735 904.07048,309.686 894.16218,306.0319 891.06118,304.88828 884.91798,303.63035 880.51068,303.23654 871.68988,302.44837 869.63908,301.39172 869.63908,297.63498 869.63908,294.35678 873.46078,291.76011 878.28558,291.76011 883.34428,291.76011 893.61958,289.04593 900.53128,285.88401 903.87858,284.3527 909.50248,279.99615 914.77008,274.85388 923.08208,266.73964 925.67138,262.40693 924.31878,258.87571 923.13698,255.79051 901.63878,255.27628 892.47978,258.11414 882.11648,261.32515 874.22278,268.94243 868.14078,281.6008 864.80928,288.53466 863.90978,289.54973 859.21378,291.67409 849.83088,295.91868 848.59588,296.68747 848.59588,298.2836 848.59588,299.21023 851.04088,300.75183 854.53118,302.02593 863.11608,305.15976 863.59658,305.59246 867.78488,313.96111 872.32578,323.03402 879.92558,331.83657 885.53798,334.52367 894.93928,339.02489 913.79368,340.7495 920.93278,337.76122 z"
     id="path3028"
     style="fill:#ffe600;fill-opacity:1;stroke:none" />
  <path
     d="M 287.67521,314.50696 C 291.18059,312.53328 292.36385,311.07178 293.36941,307.47379 297.31901,293.34177 280.98084,284.53494 259.10593,289.00463 244.48202,291.99271 235.34173,297.95611 236.74544,303.59324 238.13915,309.19013 242.92443,312.45569 254.53111,315.73052 264.69357,318.59786 281.51226,317.97697 287.67521,314.50696 z"
     id="path3026"
     style="fill:#ffe600;fill-opacity:1;stroke:none" />
  <path
     d="M 947.63338,309.6905 C 955.58348,307.28809 962.86798,301.85198 963.32078,297.98379 963.82338,293.68921 961.85578,290.96185 956.20108,288.11487 940.74628,280.33383 918.06268,280.13938 909.85348,287.71757 906.80308,290.53345 905.76028,295.94511 907.34258,300.7481 908.94748,305.61974 911.56158,307.86799 918.46748,310.31621 925.41278,312.77834 938.33228,312.50119 947.63338,309.6905 z"
     id="path3024"
     style="fill:#ffe600;fill-opacity:1;stroke:none" />
  <path
     d="M 566.42211,298.87708 C 570.29129,298.05531 577.81827,295.26647 583.14873,292.67964 592.54828,288.11811 593.14958,287.97797 603.09228,288.03084 611.67438,288.07647 614.39858,288.54289 619.81888,290.89465 638.36658,298.94212 640.30638,299.56808 648.42398,300.12547 657.56428,300.75309 665.39878,298.86028 670.58868,294.77054 673.12848,292.76914 673.38058,291.99883 672.77808,288.08035 671.83288,281.93281 667.86038,270.13849 666.73508,270.13849 666.22388,270.13849 664.19958,271.0738 662.23668,272.21696 660.27378,273.36013 655.68078,274.8734 652.03008,275.57981 643.12848,277.30219 631.09908,274.88327 618.38588,268.81448 604.81298,262.33536 600.24218,262.18205 589.09158,267.83188 584.27711,270.27129 577.56653,273.0751 574.17917,274.06258 563.79075,277.09102 549.30041,276.05661 539.58096,271.59274 537.59039,270.67851 535.56482,270.34219 535.07969,270.84532 533.46613,272.51874 529.71099,285.1501 529.71099,288.90425 529.71099,292.23715 530.19907,292.83292 534.64457,294.92631 545.98797,300.26794 554.74651,301.35686 566.42211,298.87708 z"
     id="path3022"
     style="fill:#ffe600;fill-opacity:1;stroke:none" />
  <path
     d="M 581.64902,253.07175 C 587.80428,250.05238 594.88238,247.26679 597.37808,246.88155 603.69988,245.90575 612.83878,248.04596 623.28548,252.94875 634.88088,258.39061 640.26778,259.66639 649.45478,259.14634 660.99608,258.49303 661.22438,257.35231 651.65348,248.16188 637.73148,234.79343 620.69108,227.97632 601.19658,227.97632 584.69903,227.97632 566.50754,234.10664 556.28669,243.11046 548.99138,249.53707 543.73976,254.95449 543.73976,256.05352 543.73976,258.06565 550.82101,259.26731 560.60586,258.91562 569.93403,258.58035 571.05227,258.2698 581.64902,253.07175 z"
     id="path3020"
     style="fill:#ffe600;fill-opacity:1;stroke:none" />
  <path
     d="M 0,487.5 0,450 600.00002,450 1200,450 1200,487.5 1200,525 600.00002,525 0,525 0,487.5 z"
     id="path3016"
     style="fill:#ffe600;fill-opacity:1;stroke:none" />
  <use
     transform="translate(0,-375)"
     id="use3088"
     x="0"
     y="0"
     width="1200"
     height="600"
     xlink:href="#path3016" />
</svg>
