<?xml version="1.0" encoding="UTF-8" standalone="no"?>
<!-- Created with Inkscape (http://www.inkscape.org/) -->

<svg
   xmlns:dc="http://purl.org/dc/elements/1.1/"
   xmlns:cc="http://creativecommons.org/ns#"
   xmlns:rdf="http://www.w3.org/1999/02/22-rdf-syntax-ns#"
   xmlns:svg="http://www.w3.org/2000/svg"
   xmlns="http://www.w3.org/2000/svg"
   xmlns:xlink="http://www.w3.org/1999/xlink"
   xmlns:sodipodi="http://sodipodi.sourceforge.net/DTD/sodipodi-0.dtd"
   xmlns:inkscape="http://www.inkscape.org/namespaces/inkscape"
   version="1.1"
   width="432"
   height="216"
   id="svg2"
   inkscape:version="0.47 r22583"
   sodipodi:docname="ZZ.svg">
  <metadata
     id="metadata27">
    <rdf:RDF>
      <cc:Work
         rdf:about="">
        <dc:format>image/svg+xml</dc:format>
        <dc:type
           rdf:resource="http://purl.org/dc/dcmitype/StillImage" />
      </cc:Work>
    </rdf:RDF>
  </metadata>
  <sodipodi:namedview
     pagecolor="#ffffff"
     bordercolor="#666666"
     borderopacity="1"
     objecttolerance="10"
     gridtolerance="10"
     guidetolerance="10"
     inkscape:pageopacity="0"
     inkscape:pageshadow="2"
     inkscape:window-width="1280"
     inkscape:window-height="1004"
     id="namedview25"
     showgrid="false"
     inkscape:zoom="1.0925926"
     inkscape:cx="182.2522"
     inkscape:cy="108"
     inkscape:window-x="-8"
     inkscape:window-y="-8"
     inkscape:window-maximized="1"
     inkscape:current-layer="layer1" />
  <defs
     id="defs4">
    <inkscape:perspective
       sodipodi:type="inkscape:persp3d"
       inkscape:vp_x="0 : 108 : 1"
       inkscape:vp_y="0 : 1000 : 0"
       inkscape:vp_z="432 : 108 : 1"
       inkscape:persp3d-origin="216 : 72 : 1"
       id="perspective29" />
  </defs>
  <g
     transform="translate(227.42857,-561.50507)"
     id="layer1">
    <path
       d="m -227.42857,561.50513 432,0 -432,216 0,-216 z"
       id="rect3604"
       style="fill:#009900;fill-opacity:1;stroke:none" />
    <path
       d="m 204.57143,777.50507 -432,0 432,-216 0,216 z"
       id="path3611"
       style="fill:#000000;fill-opacity:1;stroke:none" />
    <path
       d="M 347.15625,0 0,86.53125 0,216 84.34375,216 432,129.3125 432,0 347.15625,0 z"
       transform="translate(-227.42857,561.50507)"
       id="rect2830"
       style="fill:#cc0000;fill-opacity:1;stroke:none" />
    <path
       d="m 221.16316,103.55414 a 9.419549,9.419549 0 1 1 -18.8391,0 9.419549,9.419549 0 1 1 18.8391,0 z"
       transform="matrix(0.95545976,0,0,0.95545976,-213.74107,570.56326)"
       id="path3613"
       style="fill:#ffd700;fill-opacity:1;stroke:none" />
    <path
       d="m -6.9190195,653.25275 c 0,2.48528 -2.0147207,4.5 -4.5000005,4.5 -2.485285,0 -4.75122,-2.02745 -4.5,-4.5 l 4.5,-44.29031 4.5000005,44.29031 z"
       id="path3615"
       style="fill:#ffd700;fill-opacity:1;stroke:none" />
    <path
       d="m 0.18370996,649.74268 c -0.7906465,1.90879 -2.73769256,2.91519 -4.34883686,2.24783 -1.6111399,-0.66736 -2.4385312,-2.83476 -1.4856334,-4.66454 L 11.052293,615.25241 0.18370996,649.74268 z"
       id="path3908"
       style="fill:#ffd700;fill-opacity:1;stroke:none" />
    <use
       transform="matrix(0.70710678,0.70710678,-0.70710678,0.70710678,470.06653,204.17588)"
       id="use3925"
       x="0"
       y="0"
       width="432"
       height="216"
       xlink:href="#path3908"
       style="fill:#ffd700;fill-opacity:1;stroke:none" />
    <use
       transform="matrix(0,1,-1,0,658.07961,680.93727)"
       id="use3927"
       x="0"
       y="0"
       width="432"
       height="216"
       xlink:href="#path3908"
       style="fill:#ffd700;fill-opacity:1;stroke:none" />
    <use
       transform="matrix(-0.70710678,0.70710678,-0.70710678,-0.70710678,453.90371,1151.0038)"
       id="use3929"
       x="0"
       y="0"
       width="432"
       height="216"
       xlink:href="#path3908"
       style="fill:#ffd700;fill-opacity:1;stroke:none" />
    <use
       transform="matrix(-1,0,0,-1,-22.8577,1339.0169)"
       id="use3931"
       x="0"
       y="0"
       width="432"
       height="216"
       xlink:href="#path3908"
       style="fill:#ffd700;fill-opacity:1;stroke:none" />
    <use
       transform="matrix(-0.70710678,-0.70710678,0.70710678,-0.70710678,-492.92425,1134.841)"
       id="use3933"
       x="0"
       y="0"
       width="432"
       height="216"
       xlink:href="#path3908"
       style="fill:#ffd700;fill-opacity:1;stroke:none" />
    <use
       transform="matrix(0,-1,1,0,-680.93731,658.07961)"
       id="use3935"
       x="0"
       y="0"
       width="432"
       height="216"
       xlink:href="#path3908"
       style="fill:#ffd700;fill-opacity:1;stroke:none" />
    <use
       transform="matrix(0.70710678,-0.70710678,0.70710678,0.70710678,-476.7614,188.01305)"
       id="use3937"
       x="0"
       y="0"
       width="432"
       height="216"
       xlink:href="#path3908"
       style="fill:#ffd700;fill-opacity:1;stroke:none" />
    <use
       transform="matrix(0.70710678,0.70710678,-0.70710678,0.70710678,470.06837,204.16852)"
       id="use3992"
       x="0"
       y="0"
       width="432"
       height="216"
       xlink:href="#path3615"
       style="fill:#ffd700;fill-opacity:1;stroke:none" />
    <use
       transform="matrix(0,1,-1,0,658.08796,680.926)"
       id="use3994"
       x="0"
       y="0"
       width="432"
       height="216"
       xlink:href="#path3615"
       style="fill:#ffd700;fill-opacity:1;stroke:none" />
    <use
       transform="matrix(-0.70710678,0.70710678,-0.70710678,-0.70710678,453.91944,1150.9944)"
       id="use3996"
       x="0"
       y="0"
       width="432"
       height="216"
       xlink:href="#path3615"
       style="fill:#ffd700;fill-opacity:1;stroke:none" />
    <use
       transform="matrix(-1,0,0,-1,-22.838058,1339.014)"
       id="use3998"
       x="0"
       y="0"
       width="432"
       height="216"
       xlink:href="#path3615"
       style="fill:#ffd700;fill-opacity:1;stroke:none" />
    <use
       transform="matrix(-0.70710678,-0.70710678,0.70710678,-0.70710678,-492.90645,1134.8455)"
       id="use4000"
       x="0"
       y="0"
       width="432"
       height="216"
       xlink:href="#path3615"
       style="fill:#ffd700;fill-opacity:1;stroke:none" />
    <use
       transform="matrix(0,-1,1,0,-680.92607,658.08798)"
       id="use4002"
       x="0"
       y="0"
       width="432"
       height="216"
       xlink:href="#path3615"
       style="fill:#ffd700;fill-opacity:1;stroke:none" />
    <use
       transform="matrix(0.70710678,-0.70710678,0.70710678,0.70710678,-476.75754,188.01955)"
       id="use4004"
       x="0"
       y="0"
       width="432"
       height="216"
       xlink:href="#path3615"
       style="fill:#ffd700;fill-opacity:1;stroke:none" />
  </g>
</svg>
