<?xml version="1.0" encoding="UTF-8" standalone="no"?>
<!-- Created with Inkscape (http://www.inkscape.org/) -->

<svg
   xmlns:dc="http://purl.org/dc/elements/1.1/"
   xmlns:cc="http://creativecommons.org/ns#"
   xmlns:rdf="http://www.w3.org/1999/02/22-rdf-syntax-ns#"
   xmlns:svg="http://www.w3.org/2000/svg"
   xmlns="http://www.w3.org/2000/svg"
   xmlns:sodipodi="http://sodipodi.sourceforge.net/DTD/sodipodi-0.dtd"
   xmlns:inkscape="http://www.inkscape.org/namespaces/inkscape"
   id="svg2"
   version="1.1"
   inkscape:version="0.48.1 "
   width="700"
   height="400"
   sodipodi:docname="Coat_of_arms_of_Štip_Municipality.svg">
  <metadata
     id="metadata8">
    <rdf:RDF>
      <cc:Work
         rdf:about="">
        <dc:format>image/svg+xml</dc:format>
        <dc:type
           rdf:resource="http://purl.org/dc/dcmitype/StillImage" />
        <dc:title></dc:title>
      </cc:Work>
    </rdf:RDF>
  </metadata>
  <defs
     id="defs6" />
  <sodipodi:namedview
     pagecolor="#ffffff"
     bordercolor="#666666"
     borderopacity="1"
     objecttolerance="10"
     gridtolerance="10"
     guidetolerance="10"
     inkscape:pageopacity="0"
     inkscape:pageshadow="2"
     inkscape:window-width="1280"
     inkscape:window-height="738"
     id="namedview4"
     showgrid="false"
     showguides="true"
     inkscape:guide-bbox="true"
     inkscape:zoom="0.6596946"
     inkscape:cx="448.14166"
     inkscape:cy="271.9754"
     inkscape:window-x="-8"
     inkscape:window-y="-8"
     inkscape:window-maximized="1"
     inkscape:current-layer="svg2" />
  <text
     xml:space="preserve"
     style="font-size:48px;font-style:normal;font-variant:normal;font-weight:normal;font-stretch:normal;text-align:start;line-height:100%;letter-spacing:0px;word-spacing:0px;writing-mode:lr-tb;text-anchor:start;fill:#000000;fill-opacity:1;stroke:none;font-family:DejaVu LGC Sans;-inkscape-font-specification:DejaVu LGC Sans"
     x="107.64523"
     y="482.86969"
     id="text3781"
     sodipodi:linespacing="100%"><tspan
       sodipodi:role="line"
       id="tspan3783"
       x="107.64523"
       y="482.86969" /></text>
  <text
     xml:space="preserve"
     style="font-size:11.03887177px;font-style:normal;font-variant:normal;font-weight:normal;font-stretch:normal;text-align:start;line-height:100%;letter-spacing:0px;word-spacing:0px;writing-mode:lr-tb;text-anchor:start;fill:#000000;fill-opacity:1;stroke:none;font-family:DejaVu LGC Sans;-inkscape-font-specification:DejaVu LGC Sans"
     x="-228.90254"
     y="118.26831"
     id="text3869"
     sodipodi:linespacing="100%"
     transform="scale(1.029383,0.97145571)"><tspan
       sodipodi:role="line"
       id="tspan3871"
       x="-228.90254"
       y="118.26831"
       style="font-size:51.51473999px;font-weight:bold;-inkscape-font-specification:DejaVu LGC Sans Bold" /></text>
  <rect
     style="fill:#ffffff;fill-opacity:1;fill-rule:evenodd;stroke:#fffefe;stroke-width:5.80000019000000040;stroke-linecap:butt;stroke-linejoin:miter;stroke-miterlimit:4;stroke-opacity:0.98941805999999999;stroke-dasharray:none;stroke-dashoffset:0"
     id="rect3012"
     width="706.38745"
     height="410.79614"
     x="1.5158529"
     y="-4.7327356" />
  <g
     id="g4042"
     transform="matrix(0.63473052,0,0,0.60907247,215.70547,62.140668)">
    <path
       sodipodi:nodetypes="ssscsssscsssscssscsssscssscccccsssssssssscccccccccccsssssssssscccccsssccccccccccsssssccccccccccccccccccccccccccccsscccssccccccccccccccccccccccccccccccccccccccccccccc"
       inkscape:connector-curvature="0"
       id="path4038"
       d="M 199.32302,389.48301 C 157.02092,380.48029 124.70208,352.17096 101.92711,304.1701 78.790064,255.40613 68.302546,203.52875 62.596557,109.61819 L 61.688309,94.670035 79.822056,94.20522 c 17.170818,-0.440134 18.450772,-0.674851 24.103884,-4.420177 4.27968,-2.835394 6.96973,-6.138756 9.50036,-11.666392 3.25439,-7.108505 3.49102,-8.982959 3.02839,-23.989057 l -3.71745,-16.813962 9.38552,-1.267972 c 3.50368,-0.473343 16.63459,-3.541206 29.42476,-5.664572 21.5846,-3.583378 26.3407,-8.143915 62.75585,-8.089235 41.4137,0.06219 52.9118,5.541885 89.70004,13.403662 l 14.30432,3.056885 -0.81927,10.67885 c -1.13935,14.851003 1.19426,24.954152 7.45268,32.26571 7.7629,9.069204 14.28265,11.773823 30.04259,12.462723 l 13.44101,0.587534 -0.45219,6.501493 c -0.2487,3.57582 -1.12254,16.90524 -1.94188,29.62095 -8.5816,133.18209 -43.7167,221.30135 -99.44173,249.40103 -19.35478,9.75976 -46.9378,13.53654 -67.26592,9.21032 z m 34.12886,-5.04123 c 20.35782,-2.94301 39.2867,-13.16443 58.1208,-31.38473 13.40987,-12.97281 30.40631,-36.04777 29.08608,-39.48826 -0.39193,-1.02134 -5.1678,-8.49736 -10.61305,-16.61337 l -9.90046,-14.7564 -9.77692,0 -9.77691,0 0,-18.91592 0,-18.91592 -3.50295,0 c -2.56882,0 -3.50295,0.74729 -3.50295,2.80236 0,1.86823 -0.93412,2.80236 -2.80236,2.80236 -1.86823,0 -2.80236,-0.93413 -2.80236,-2.80236 0,-2.08204 -0.93412,-2.80236 -3.63412,-2.80236 -2.45574,0 -3.87176,0.90869 -4.36696,2.80236 -0.4056,1.55099 -1.91124,2.80236 -3.37177,2.80236 -1.70482,0 -2.63894,-0.99197 -2.63894,-2.80236 0,-2.05507 -0.93412,-2.80236 -3.50295,-2.80236 -3.50295,0 -3.50295,0 -3.50295,14.0118 l 0,14.01179 -7.70648,0 -7.70649,0 0,-14.06081 0,-14.06082 -14.36209,0.39932 -14.36208,0.39931 -0.40104,13.6615 -0.40103,13.6615 -6.95516,0 -6.95516,0 0,-14.01179 c 0,-14.0118 0,-14.0118 -3.50295,-14.0118 -2.56882,0 -3.50294,0.74729 -3.50294,2.80236 0,2.05507 -0.93412,2.80236 -3.50295,2.80236 -2.56883,0 -3.50295,-0.74729 -3.50295,-2.80236 0,-2.05507 -0.93412,-2.80236 -3.50295,-2.80236 -2.56883,0 -3.50295,0.74729 -3.50295,2.80236 0,1.86823 -0.93412,2.80236 -2.80236,2.80236 -1.86824,0 -2.80236,-0.93413 -2.80236,-2.80236 0,-2.05507 -0.93412,-2.80236 -3.50294,-2.80236 l -3.50295,0 0,19.61651 0,19.61651 -10.24239,0 -10.24238,0 -10.16119,14.73745 c -7.23219,10.48934 -9.91335,15.51829 -9.3014,17.44635 1.64909,5.19584 14.27895,23.22866 22.43967,32.03922 27.42979,29.61399 59.83749,41.91493 96.47429,36.61856 z m -1.90174,-145.67932 0,-4.20353 -14.71238,0 -14.71238,0 0,4.20353 0,4.20354 14.71238,0 14.71238,0 z m -0.98126,-7.42329 c -1.43258,-2.32505 -13.28133,-17.79793 -13.62923,-17.79793 -0.57032,0 -13.4131,17.96586 -13.4131,18.76371 0,0.46903 6.33664,0.8528 14.08142,0.8528 11.18367,0 13.85084,-0.37424 12.96091,-1.81858 z m -48.06002,-164.305755 0,-19.000505 -5.25442,0.434878 -5.25442,0.434877 -0.39931,14.362089 -0.39931,14.362088 -5.5557,0 -5.5557,0 0,-14.712383 0,-14.712383 -5.60472,0 -5.60472,0 0,14.712383 0,14.712383 -5.5557,0 -5.5557,0 -0.39931,-14.362088 -0.39931,-14.362089 -5.25443,-0.434877 -5.25442,-0.434878 0,19.000505 0,19.000503 28.02359,0 28.02358,0 z m 28.02359,4.28812 0,-14.712383 6.30531,0 c 6.07177,0 6.30531,-0.155687 6.30531,-4.203538 l 0,-4.203538 -18.21534,0 -18.21533,0 0,4.203538 c 0,4.047851 0.23353,4.203538 6.30531,4.203538 l 6.30531,0 0,14.712383 0,14.712383 5.60471,0 5.60472,0 z m 35.28163,3.853243 8.73283,-15.682555 -2.27044,15.682555 4.16078,10.323205 1.79423,0.535935 5.54579,0 0,-18.915921 0,-18.915921 -6.04406,0 -6.04406,0 -6.54632,11.559729 -6.54633,11.55973 -0.0202,-11.55973 -0.0203,-11.559729 -5.60472,0 -5.60472,0 0,18.915921 0,18.915921 6.20716,0 6.20717,0 6.05315,-10.85914 0,0 z m 37.5797,-3.853243 0,-14.712383 7.00589,0 7.0059,0 0,14.712383 0,14.712383 4.90413,0 4.90413,0 0,-18.915921 0,-18.915921 -17.51475,0 -17.51474,0 0,18.915921 0,18.915921 5.60472,0 5.60472,0 z"
       style="color:#000000;fill:#feffff;fill-opacity:1;fill-rule:nonzero;stroke:#fffefe;stroke-width:5.80000019;stroke-miterlimit:4;stroke-opacity:0.98941806;stroke-dasharray:none;marker:none;visibility:visible;display:inline;overflow:visible;enable-background:accumulate" />
    <path
       id="path3001"
       d="m 219.46875,11.9375 c -45.46326,0 -51.20788,0.431334 -81.53125,6.03125 -11.57226,2.137089 -44.22318,9.864192 -45,10.65625 -0.16416,0.167386 0.86404,3.6875 2.28125,7.8125 3.48015,10.12948 3.73452,23.529339 0.5625,29.5 -4.35686,8.200867 -10.438896,11.5 -21.1875,11.5 -7.512845,0 -17.389662,-2.600245 -25.46875,-6.6875 -2.667188,-1.349346 -5.142188,-2.139483 -5.5,-1.78125 -1.162797,1.164168 -0.612653,93.28896 0.65625,109.46875 4.174167,53.22487 11.884524,103.98972 21.46875,141.375 l 2.28125,8.84375 7.96875,2.6875 c 30.0029,10.11375 44.3757,28.80494 44.4375,57.71875 0.0226,10.56299 -3.15664,28.68633 -6.6875,38.0625 -0.52252,1.38753 15.1537,10.79325 27.53125,16.53125 16.69593,7.73992 34.64447,13.44025 51.1875,16.28125 4.125,0.7084 15.4484,1.34985 25.15625,1.40625 21.78545,0.12654 35.387,-1.98452 54.8125,-8.46875 19.76059,-6.59609 52.98192,-23.8518 51.625,-26.8125 -0.28319,-0.6179 -2.10423,-5.02028 -4.0625,-9.78125 -17.81373,-43.30898 -4.88168,-72.78321 37.9375,-86.40625 l 7,-2.25 1.75,-5.84375 c 0.96907,-3.21673 3.3769,-13.26875 5.34375,-22.34375 12.34817,-56.97423 17.01725,-118.49752 14.5,-191 -0.6588,-18.975002 -1.36584,-35.007276 -1.5625,-35.625 -0.24426,-0.767247 -2.95305,-0.374727 -8.5625,1.25 -33.16372,9.605577 -47.11237,-3.606891 -40.09375,-37.9375 0.98998,-4.842328 1.52137,-8.949905 1.1875,-9.15625 -3.17627,-1.96304 -39.34882,-9.624566 -60.25,-12.75 C 263.16054,12.1119 258.62144,11.9375 219.46875,11.9375 z M 212.90625,25 c 14.67947,7.08e-4 29.46657,0.416793 37.5625,1.25 21.04364,2.165743 66.53198,10.375731 68.53125,12.375 0.25518,0.255183 -0.0471,3.150625 -0.65625,6.40625 -1.74823,9.343073 -0.65914,23.034573 2.34375,29.59375 6.37765,13.930632 21.31095,21.054328 40.6875,19.4375 l 7.59375,-0.625 -0.71875,15.75 c -5.35811,118.79325 -30.04246,205.80014 -70.46875,248.28125 -10.9978,11.5568 -19.36398,17.85358 -31.8125,23.96875 -11.5474,5.67251 -21.28738,8.53391 -34,9.96875 -35.09695,3.96131 -69.74559,-8.83923 -96.0625,-35.5 -36.889182,-37.37116 -60.502839,-101.53624 -69.875,-189.96875 -1.449961,-13.68134 -2.875365,-34.38646 -4.09375,-59.5 l -0.59375,-12.5 16.8125,0 c 14.985718,-0.006 17.2948,-0.249798 21.3125,-2.125 14.15866,-6.608344 18.97251,-19.555125 15.6875,-42.3125 -0.90644,-6.279434 -1.46656,-11.627197 -1.21875,-11.875 1.89766,-1.897662 41.39957,-9.1405 62.03125,-11.375 7.68619,-0.83244 22.25803,-1.250708 36.9375,-1.25 z m 4,189.9375 c -0.44089,0 -12.4375,16.4276 -12.4375,17.03125 0,0.2673 5.90972,0.46875 13.125,0.46875 l 13.125,0 -2.84375,-3.75 c -5.35846,-7.1077 -10.64958,-13.75 -10.96875,-13.75 z m -13.4375,20.5 0,3.5 0,3.5 13.5,0 13.5,0 0,-3.5 0,-3.5 -13.5,0 -13.5,0 z m -49,10 0,19.46875 0,19.46875 -10.21875,0.28125 -10.21875,0.28125 -4.21875,6 c -2.33349,3.3 -6.8233,9.7281 -9.96875,14.28125 L 114.125,313.5 l 1.78125,3.71875 c 4.20307,8.84608 15.30249,24.1144 24.34375,33.4375 17.98187,18.54242 40.07245,30.36025 63.71875,34.125 7.4228,1.18179 30.11348,-0.16583 38,-2.25 9.78873,-2.58686 24.64003,-9.59919 33.4375,-15.8125 7.859,-5.55051 22.40714,-19.47853 29.03125,-27.78125 6.52828,-8.18263 16.03125,-22.49466 16.03125,-24.15625 0,-0.74715 -4.6125,-8.1044 -10.25,-16.34375 l -10.25,-14.96875 -9.75,-0.0312 -9.75,0 0,-19 0,-19 -3.4375,0 c -2.55436,0 -3.59014,0.51171 -4.0625,2 -0.35964,1.13311 -1.50827,2 -2.65625,2 -1.18523,0 -2.25657,-0.83012 -2.5625,-2 -0.39301,-1.50286 -1.36389,-2 -3.90625,-2 -2.7167,0 -3.375,0.39408 -3.375,2 0,2.7786 -4.61811,2.7786 -5.5,0 -0.47236,-1.48829 -1.50814,-2 -4.0625,-2 l -3.4375,0 0,13.5 0,13.5 -8.5,0 -8.5,0 0,-13.5 0,-13.5 -13.5,0 -13.5,0 0,13.5 0,13.5 -8.0625,0 -8.03125,0 0.15625,-13.25 -0.0312,-13.28125 -3.28125,-0.28125 c -2.81469,-0.24432 -3.59785,0.0927 -4.03125,1.75 -0.72423,2.76947 -4.71875,2.8239 -4.71875,0.0625 0,-1.65666 -0.6583,-2 -3.875,-2 -3.04236,0 -3.9965,0.43313 -4.40625,2 -0.68637,2.62469 -4.3857,2.62469 -5.21875,0 -0.47236,-1.48829 -1.50814,-2 -4.0625,-2 l -3.4375,0 z m 8.6875,155.9375 c 2.37834,0.20144 2.07924,6.42261 1.625,19.8125 -0.34051,10.0375 -1.01785,18.25 -1.5,18.25 -1.26012,0 -1.71692,-1.79215 -2.03125,-7.875 l -0.28125,-5.34375 -7,-2.84375 -7,-2.84375 -4.21875,4.53125 c -2.95137,3.1632 -4.64014,4.25762 -5.625,3.6875 -1.05787,-0.61238 1.85861,-4.23644 11.71875,-14.59375 8.03592,-8.4411 12.21396,-12.95899 14.3125,-12.78125 z m 112.65625,0.40625 c 3.23422,0.0414 6.49886,0.97166 9.375,2.875 7.48249,4.95168 10.39062,15.69458 6.375,23.5625 -2.41686,4.73542 -5.00191,7.07672 -9.78125,8.78125 -5.1673,1.84289 -8.08111,1.74617 -12.8125,-0.4375 -4.84098,-2.23426 -7.90408,-5.40229 -9.96875,-10.34375 -2.11149,-5.05349 -1.92263,-9.33311 0.59375,-14.53125 2.86721,-5.92288 8.71082,-9.47005 14.84375,-9.875 0.45997,-0.0304 0.91297,-0.0372 1.375,-0.0312 z m -113.4375,2.15625 -6.46875,6.96875 c -3.54885,3.82453 -6.4375,7.19572 -6.4375,7.5 0,0.30429 2.3625,1.50879 5.25,2.6875 8.04835,3.28542 7.741,3.56728 7.6875,-7.40625 l -0.0312,-9.75 z m 112.3125,0.8125 c -3.31227,0.11011 -6.68833,1.43833 -9.625,4.375 -7.23273,7.23274 -4.86631,19.87998 4.625,24.71875 6.76777,3.45027 16.50653,-0.0913 19.40625,-7.03125 4.88809,-11.69885 -4.46943,-22.39284 -14.40625,-22.0625 z m -86.625,3.6875 c 4.70879,0 8.40625,3.37087 8.40625,7.65625 0,3.95761 -2.09599,4.25094 -2.6875,0.375 -0.52132,-3.41599 -2.18568,-5.0175 -5.1875,-5 -3.20342,0.0187 -4.45755,0.78977 -6,3.71875 -1.52324,2.8925 -0.40142,5.08454 4.5625,8.75 5.40002,3.98749 6.3125,5.36836 6.3125,9.78125 0,3.11205 -0.69934,4.60559 -3.40625,7.3125 -3.76894,3.76894 -7.26427,4.31233 -11.8125,1.84375 -3.22931,-1.75273 -5.87191,-8.75309 -4,-10.625 0.84683,-0.84683 1.29184,-0.64904 1.75,0.78125 1.59123,4.96749 2.60897,6.5328 4.9375,7.59375 5.00114,2.27867 10.57159,-2.92336 9.15625,-8.5625 -0.36499,-1.45424 -2.57386,-3.85801 -5.1875,-5.65625 -5.47148,-3.7645 -6.95239,-6.90888 -5.40625,-11.59375 1.35582,-4.10815 4.40047,-6.375 8.5625,-6.375 z m 53.375,2.375 c 2.93162,0.0541 5.01125,0.96354 6.65625,2.78125 1.86697,2.06298 2.38867,8.04296 0.96875,11.09375 -0.5758,1.23714 -0.37022,1.75 0.65625,1.75 2.51861,0 4.97709,3.76703 5.5,8.40625 0.44121,3.91439 0.13992,4.78281 -2.21875,6.96875 -1.48295,1.37435 -4.91969,2.97561 -7.65625,3.5625 -8.6188,1.8484 -7.16998,4.36328 -12.15625,-21.15625 L 230.90625,412.5 l 5.15625,-1.09375 c 1.4961,-0.31059 2.85008,-0.49074 4.0625,-0.5625 0.45466,-0.0269 0.8937,-0.039 1.3125,-0.0312 z m -38.125,0.65625 c 0.31009,-0.0104 0.65798,-0.005 1.03125,0 1.79169,0.0262 4.35609,0.22268 7.90625,0.59375 4.54797,0.47536 5.92444,0.97536 5.53125,2 -0.29462,0.76777 -1.95182,1.375 -3.78125,1.375 -3.18209,0 -3.27222,0.11811 -3.875,5.25 -0.33916,2.8875 -0.91073,9.87432 -1.28125,15.53125 -0.37051,5.65692 -0.9527,10.44364 -1.28125,10.625 -2.30213,1.27075 -2.56728,-1.2315 -1.4375,-13.65625 1.8116,-19.92293 1.95335,-18.75 -2.15625,-18.75 -2.44444,0 -3.5,-0.45238 -3.5,-1.5 0,-0.92213 0.67313,-1.39585 2.84375,-1.46875 z m 20.65625,0.96875 c 1.2318,0 1.5,1.75564 1.5,9.84375 0,5.41702 0.30054,13.29202 0.65625,17.5 0.54256,6.41848 0.38214,7.65625 -0.875,7.65625 -1.71137,0 -2.77095,-9.85403 -2.78125,-25.75 -0.005,-7.55822 0.27434,-9.25 1.5,-9.25 z m 17.3125,1.1875 c -0.60503,0.0249 -1.27963,0.11482 -2.125,0.25 -2.25624,0.36079 -4.2938,0.82505 -4.5,1.03125 -0.2062,0.20619 0.16228,2.93039 0.8125,6.0625 l 1.1875,5.6875 3.53125,-0.5625 c 6.85525,-1.11245 9.42667,-6.47958 5.15625,-10.75 -1.30456,-1.30457 -2.2474,-1.79347 -4.0625,-1.71875 z m 4.65625,14.90625 c -0.72875,0.0197 -1.63457,0.11419 -2.78125,0.25 -2.73294,0.32368 -5.14728,0.77228 -5.375,1 -0.22772,0.22772 0.10769,3.43663 0.75,7.125 l 1.15625,6.71875 3.65625,-0.65625 c 8.01606,-1.41498 11.11752,-6.70292 7,-11.9375 -1.53289,-1.94876 -2.22,-2.55921 -4.40625,-2.5 z"
       style="fill:#0061a2;fill-opacity:1"
       inkscape:connector-curvature="0" />
    <path
       id="path2999"
       d="m 205.9375,11.5625 c -11.31051,0.06036 -21.15235,0.350161 -26.875,0.875 -24.23703,2.222839 -54.10648,7.605248 -78.25,14.09375 l -8.125,2.1875 2.40625,7.09375 c 6.65568,19.532758 2.871645,34.787244 -10,40.15625 -8.261989,3.446232 -22.672,1.504105 -34.9375,-4.6875 -3.246909,-1.639034 -6.174404,-2.66929 -6.53125,-2.3125 -1.195688,1.1955 -0.665178,87.45677 0.65625,105.96875 3.78205,52.98301 10.980158,101.69954 21.03125,142.3125 l 2.8125,11.28125 9.625,3.3125 c 12.245861,4.20919 19.523308,8.51961 27.28125,16.1875 6.8571,6.77751 11.42499,15.06836 14.03125,25.40625 2.49505,9.89677 1.503,29.12133 -2.28125,43.78125 l -2.90625,11.25 7.53125,4.4375 c 24.55792,14.39732 51.77281,24.21077 77.5625,27.9375 1.65,0.23843 12,0.27132 23,0.0937 15.75626,-0.25435 22.12187,-0.77861 30,-2.46875 20.39062,-4.37451 42.58593,-13.35578 62.9375,-25.5 l 9.375,-5.625 -3.9375,-9.46875 c -13.03409,-31.19422 -11.18198,-53.59217 5.875,-70.34375 7.55568,-7.4204 17.76086,-13.20765 30.84375,-17.5 l 8.125,-2.65625 3.625,-14.71875 C 382.80708,255.66241 388.69745,189.86354 386.46875,115.5 385.9323,97.600362 385.23207,80.426502 384.90625,77.34375 l -0.59375,-5.625 -4.1875,1.46875 c -6.58665,2.288352 -16.70776,4.20591 -22.15625,4.21875 -19.42568,0.04579 -27.07969,-14.079033 -22,-40.625 0.8249,-4.310882 1.4999,-8.327799 1.5,-8.9375 3.1e-4,-2.011552 -38.23763,-10.376917 -64,-14 -10.67318,-1.501018 -42.64813,-2.414043 -67.53125,-2.28125 z m 5.875,12.90625 c 30.62554,-0.06888 61.76339,3.499604 94.65625,10.75 l 12.5,2.75 -0.28125,3 c -0.15427,1.639218 -0.37927,8.14375 -0.5,14.46875 -0.26867,14.075101 1.37729,19.675727 7.90625,26.9375 7.89982,8.7865 20.93952,12.923059 36.15625,11.5 l 7.28125,-0.6875 -0.53125,7.875 c -0.3006,4.32885 -1.03066,15.525 -1.59375,24.875 -7.1603,118.89578 -34.03984,201.34773 -78.4375,240.5 -15.20794,13.41119 -31.85153,21.25424 -52,24.53125 -19.84885,3.22828 -40.71553,0.75203 -60.03125,-7.09375 C 115.31697,358.84561 76.573956,280.64998 65.03125,157.9375 c -1.420431,-15.10084 -3.5625,-51.81939 -3.5625,-61 l 0,-4.1875 5.75,0.9375 c 3.1625,0.514026 10.472059,0.751617 16.25,0.53125 12.024263,-0.458599 19.08242,-2.97671 24.75,-8.8125 6.91745,-7.122755 9.28088,-22.5803 6.1875,-40.34375 -0.66587,-3.823731 -0.80085,-7.157138 -0.3125,-7.625 1.33071,-1.274904 27.20997,-6.671941 42.875,-8.9375 18.28083,-2.643871 36.46842,-3.989923 54.84375,-4.03125 z m 5.4375,191 c -0.7356,-0.0344 -12.78125,15.42855 -12.78125,16.40625 0,0.30747 5.625,0.5625 12.5,0.5625 6.875,0 12.5,-0.28001 12.5,-0.625 0,-1.00457 -11.44123,-16.30745 -12.21875,-16.34375 z m -13.78125,19.96875 0,3 0,3 13.5,0 13.5,0 0,-3 0,-3 -13.5,0 -13.5,0 z m -49,10 0,19.5 0,19.5 -9.96875,0 -9.9375,0 -10.125,14.5 -10.15625,14.5 4.1875,7.75 c 17.92266,33.23777 50.9906,58.10627 84,63.15625 9.78286,1.49664 29.16082,0.584 38.1875,-1.78125 19.98721,-5.23725 35.73686,-14.70461 52.3125,-31.46875 9.99483,-10.10849 20.11629,-23.04577 25.75,-32.90625 l 2.125,-3.75 L 310.40625,299 299.96875,283.5625 290.125,283.25 l -9.84375,-0.3125 0.125,-18.75 0.125,-18.75 -3.40625,0 c -2.84845,0 -3.55923,0.43284 -4.09375,2.5625 -0.8343,3.32413 -4.89197,3.08856 -5.375,-0.3125 -0.259,-1.82364 -0.96347,-2.25 -3.6875,-2.25 -2.72403,0 -3.4285,0.42636 -3.6875,2.25 -0.23407,1.64812 -0.98126,2.25 -2.8125,2.25 -1.83124,0 -2.57843,-0.60188 -2.8125,-2.25 -0.26047,-1.83397 -0.95385,-2.25 -3.75,-2.25 l -3.4375,0 0,13.5 0,13.5 -8.5,0 -8.5,0 0,-13.5 0,-13.5 -13.5,0 -13.5,0 0,13.5 0,13.5 -8,0 -8,0 0,-13.5 0,-13.5 -3.4375,0 c -2.79615,0 -3.48953,0.41603 -3.75,2.25 -0.45835,3.2273 -4.55688,3.68878 -5,0.5625 -0.26423,-1.86416 -1.03505,-2.37818 -4,-2.625 -3.18298,-0.26498 -3.71676,0.002 -4,2 -0.4602,3.24646 -5.16522,3.29985 -5.625,0.0625 -0.26047,-1.83397 -0.95385,-2.25 -3.75,-2.25 l -3.4375,0 z m 9.0625,155.875 c 1.79585,0.005 1.94078,3.24365 1.9375,9.4375 -0.003,5.04718 -0.30114,13.575 -0.65625,18.9375 -0.47656,7.19655 -1.00417,9.75 -2,9.75 -0.99156,0 -1.34375,-1.67608 -1.34375,-6.375 l 0,-6.40625 -6.5,-2.59375 c -3.58079,-1.43349 -7.08329,-2.625 -7.75,-2.625 -0.66672,0 -2.81116,1.86881 -4.78125,4.15625 -2.7559,3.1998 -3.94167,3.94935 -5.1875,3.25 -1.33168,-0.74754 0.6971,-3.31976 11.53125,-14.53125 8.53642,-8.83374 12.7147,-13.00595 14.75,-13 z m 111.28125,0.34375 c 9.59278,-0.31641 18.58697,7.14884 18.625,17.96875 0.0293,8.34198 -3.19215,13.57913 -10.46875,16.9375 -5.28777,2.44046 -10.05712,2.33556 -15.34375,-0.28125 -12.10923,-5.99391 -13.44351,-24.16647 -2.3125,-31.5625 3.01406,-2.0027 6.30241,-2.95703 9.5,-3.0625 z m -112.4375,2.28125 -6.375,7 c -3.51846,3.85 -6.09637,7.31348 -5.71875,7.6875 0.37763,0.37402 2.9375,1.54716 5.6875,2.625 l 5,1.96875 0.65625,-5.125 c 0.35811,-2.82685 0.6548,-7.18125 0.6875,-9.65625 l 0.0625,-4.5 z m 111.6875,0.84375 c -2.8304,0.13361 -5.46699,1.441 -8.21875,3.96875 -7.86709,7.22666 -5.73585,20.34551 4.03125,24.78125 5.14715,2.3376 7.05259,2.34258 12.28125,-0.0312 5.5421,-2.51614 8.75228,-8.44675 8.03125,-14.84375 -0.64682,-5.73851 -3.1951,-9.13582 -9.03125,-12.0625 -2.58576,-1.29669 -4.89233,-1.91642 -7.09375,-1.8125 z m -86.09375,3.65625 c 4.39592,0 8.49816,3.50646 8.78125,7.5 0.28175,3.97448 -2.34847,4.04894 -3.40625,0.0937 -1.28256,-4.79569 -6.07712,-6.22147 -9.21875,-2.75 -3.22451,3.56304 -2.12469,6.74711 3.84375,11.15625 5.25654,3.88323 6.06806,5.35909 5.5625,10 -0.39296,3.60738 -2.55729,7.21852 -5.15625,8.5625 -7.24999,3.74911 -14.90625,-0.9336 -14.90625,-9.09375 0,-3.74934 3.18448,-2.91873 3.59375,0.9375 0.41403,3.90101 2.61818,5.9375 6.5,5.9375 3.67134,0 6.90625,-3.22094 6.90625,-6.875 0,-1.32513 -1.36466,-3.49493 -3.1875,-5.125 -9.01917,-8.06541 -9.09462,-8.19329 -8.46875,-12.125 0.75498,-4.74285 4.61715,-8.21875 9.15625,-8.21875 z m 51.9375,2.25 c 4.61775,-0.2241 8.06105,1.35402 9.4375,4.375 1.39837,3.06909 1.46646,8.04593 0.125,8.875 -1.4824,0.91617 -1.20154,2.5 0.4375,2.5 2.36626,0 5.5625,5.02425 5.5625,8.71875 0,4.07109 -1.32984,6.85442 -3.9375,8.25 -1.04445,0.55897 -4.62209,1.66407 -7.9375,2.4375 L 237.5625,447.25 236.5,442.09375 c -4.45675,-21.70223 -5.63916,-29.59411 -4.5,-30.03125 0.66075,-0.25355 3.29085,-0.77342 5.84375,-1.15625 0.70509,-0.10573 1.40282,-0.18674 2.0625,-0.21875 z m -35.1875,0.71875 c 0.39042,-0.0132 0.81108,-0.004 1.25,0 2.1068,0.0198 4.74988,0.23219 7.84375,0.65625 5.97628,0.81914 6.4768,3.375 0.65625,3.375 -3.93767,0 -3.99465,0.0584 -4.09375,3.75 -0.0553,2.0625 -0.61784,9.13038 -1.25,15.6875 -0.6953,7.21213 -1.61176,12.05092 -2.3125,12.28125 -0.6371,0.20941 -1.36478,0.0353 -1.625,-0.40625 -0.26022,-0.44154 0.13359,-7.3375 0.875,-15.3125 0.74141,-7.975 1.3566,-15.0625 1.375,-15.75 0.0206,-0.76828 -1.31757,-1.25 -3.46875,-1.25 -2.44444,0 -3.5,-0.45238 -3.5,-1.5 0,-0.91023 1.51703,-1.43883 4.25,-1.53125 z m 19,1.03125 c 1.47934,10e-4 1.746,0.96665 1.75,6.25 0.002,3.4375 0.29971,11.3125 0.65625,17.5 0.5795,10.05702 0.47752,11.25 -1,11.25 -0.90904,0 -1.72045,-0.1125 -1.78125,-0.25 -0.0608,-0.1375 -0.39826,-8.01159 -0.75,-17.5 -0.5934,-16.0075 -0.49879,-17.252 1.125,-17.25 z m 17.375,1.4375 c -0.94082,-0.0188 -2.03167,0.0785 -3.28125,0.28125 -2.93972,0.47706 -3.4236,0.91747 -3,2.6875 0.27739,1.15905 0.81373,3.78125 1.1875,5.84375 0.73221,4.04051 1.47157,4.3547 6.34375,2.65625 4.21257,-1.46853 5.64641,-4.23324 4.125,-7.90625 -0.9997,-2.41344 -2.55254,-3.50623 -5.375,-3.5625 z m 4.15625,14.84375 c -0.90766,-0.0283 -1.9479,0.0594 -3.21875,0.25 -2.51171,0.37666 -4.5625,0.79472 -4.5625,0.90625 0,1.12737 2.30445,12.24228 2.65625,12.8125 0.46358,0.75138 3.87733,0.18505 8.03125,-1.34375 4.90341,-1.80464 5.41887,-8.4915 0.875,-11.46875 -1.1212,-0.73464 -2.26849,-1.10908 -3.78125,-1.15625 z"
       style="fill:#0061a2;fill-opacity:1"
       inkscape:connector-curvature="0" />
    <path
       id="path2997"
       d="m 225.15625,11.625 c -4.06671,0.01624 -8.42576,0.06033 -13.1875,0.125 -36.56316,0.496607 -43.12168,1.059602 -72.5,6.3125 -13.58703,2.429387 -44.69467,9.725913 -45.6875,10.71875 -0.24672,0.246719 0.604,3.766832 1.875,7.8125 3.34747,10.65518 3.28518,24.63996 -0.125,30.59375 -4.8595,8.484165 -14.53504,12.170099 -26.75,10.21875 C 62.034341,76.328426 50.586433,72.407668 46.625,69.8125 c -1.28522,-0.841962 -2.63522,-1.239773 -3,-0.875 -1.154502,1.154478 -0.621797,86.23406 0.65625,104.5 2.680867,38.31513 6.488014,69.73836 12.28125,101.8125 3.608182,19.97663 10.754589,51.35392 12,52.65625 0.500547,0.52342 4.503636,2.16253 8.90625,3.65625 22.354207,7.58433 37.0089,22.04839 41.46875,40.96875 2.94162,12.47948 1.46558,34.26632 -3.34375,49.71875 l -1.90625,6.15625 7.625,4.375 c 24.99264,14.38493 48.71778,23.23832 72.8125,27.15625 13.18601,2.14413 43.71558,1.38257 56.75,-1.40625 22.83656,-4.88607 41.01997,-12.15235 63.25,-25.3125 l 10.15625,-6 -2.875,-6.375 c -17.85685,-39.79953 -10.58762,-68.93711 21.125,-84.8125 5.03967,-2.52286 12.18478,-5.50413 15.875,-6.625 l 6.71875,-2.0625 3.6875,-15.1875 c 12.69553,-52.09537 17.6545,-99.51352 17.625,-168.71875 -0.0135,-31.66552 -1.23117,-69.574912 -2.25,-70.59375 -0.20789,-0.207883 -4.76233,0.725471 -10.15625,2.09375 -13.49817,3.424092 -21.70361,3.350854 -28.65625,-0.28125 -4.18725,-2.187444 -5.85086,-3.813157 -7.8125,-7.625 -3.3225,-6.456238 -3.97474,-18.60713 -1.65625,-30.96875 0.91429,-4.874765 1.5419,-8.952587 1.375,-9.09375 -1.04047,-0.880009 -32.7477,-7.929548 -45,-10 -25.26244,-4.268968 -38.65801,-5.457432 -67.125,-5.34375 z M 212.3125,24.59375 c 21.13036,-0.184354 37.76306,0.976377 58.65625,3.96875 13.23999,1.896263 37.73772,6.671093 45.5625,8.875 l 3.59375,1 -1.4375,6.75 c -3.33522,15.798257 0.57604,31.280202 10.03125,39.78125 7.13564,6.415547 14.95106,8.72577 29.59375,8.6875 l 11.3125,-0.03125 -0.5625,8.15625 c -0.31429,4.49036 -1.05995,16.25625 -1.65625,26.15625 -2.31092,38.36641 -8.29474,82.04757 -15.46875,113 -19.84465,85.62016 -55.06511,135.1202 -105.46875,148.21875 -11.76437,3.05724 -32.19399,3.93348 -44.59375,1.90625 C 126.09087,378.67261 78.28715,297.43478 65,158.4375 63.260997,140.24574 61.46875,110.38132 61.46875,99.71875 c 0,-6.729415 0.178978,-7.418073 1.75,-6.8125 0.9625,0.37101 6.313392,0.931825 11.90625,1.25 22.158247,1.260572 34.76253,-5.013624 38.9375,-19.375 1.60664,-5.526656 1.61778,-11.450315 0.125,-34.25 -0.26317,-4.019395 -1.25542,-3.624645 20.21875,-8.125 23.4304,-4.910326 42.16473,-7.004589 68.5625,-7.65625 3.22839,-0.0797 6.32513,-0.129914 9.34375,-0.15625 z m 5.09375,191.3125 c -0.58861,-0.36377 -9.73625,10.98466 -12.3125,15.28125 -0.58367,0.97343 2.03222,1.25 11.8125,1.25 6.90746,0 12.5625,-0.27395 12.5625,-0.625 0,-0.74057 -11.00459,-15.25242 -12.0625,-15.90625 z m -13.9375,19.53125 0,3 0,3 13.5,0 13.5,0 0,-3 0,-3 -13.5,0 -13.5,0 z M 264.375,245.25 c -1.57459,0.0698 -3.27195,0.99948 -3.9375,2.75 -1.25366,3.29736 -5.29936,3.08053 -5.78125,-0.3125 -0.26047,-1.83397 -0.95385,-2.25 -3.75,-2.25 l -3.4375,0 0,13.5 0,13.5 -8.5,0 -8.5,0 0,-13.5 0,-13.5 -13.5,0 -13.5,0 0,13.5 0,13.5 -8,0 -8,0 0,-13.5 0,-13.5 -3.4375,0 c -2.79615,0 -3.48953,0.41603 -3.75,2.25 -0.45835,3.2273 -4.55688,3.68878 -5,0.5625 -0.26423,-1.86416 -1.03505,-2.37818 -4,-2.625 -3.18298,-0.26498 -3.71676,0.002 -4,2 -0.4602,3.24646 -5.16522,3.29985 -5.625,0.0625 -0.26047,-1.83397 -0.95385,-2.25 -3.75,-2.25 l -3.4375,0 0,19.5 0,19.5 -9.90625,0 -9.9375,0 -10.09375,14.46875 -10.125,14.46875 2.65625,5.28125 c 5.3721,10.62373 14.14359,22.49037 23.90625,32.375 17.86168,18.08485 36.82847,28.44951 60.15625,32.875 10.39629,1.97227 29.14991,1.3463 39.53125,-1.34375 28.59401,-7.40936 53.4965,-27.04979 74.1875,-58.46875 3.09799,-4.70427 5.625,-8.92091 5.625,-9.375 0,-0.45409 -4.63538,-7.57522 -10.28125,-15.8125 l -10.25,-14.96875 -10.25,-0.28125 -10.21875,-0.28125 0,-18.96875 0,-18.96875 -2.9375,0 c -2.27763,0 -3.00163,0.50123 -3.25,2.25 -0.23407,1.64812 -0.98126,2.25 -2.8125,2.25 -1.83124,0 -2.57843,-0.60188 -2.8125,-2.25 -0.24289,-1.71027 -1.70666,-2.50727 -3.28125,-2.4375 z M 163.28125,401.125 c 2.38205,0.10871 2.17466,5.5485 2.125,15.6875 -0.0845,17.24234 -0.83024,23.50633 -2.6875,22.875 -0.82159,-0.27928 -1.25,-2.57384 -1.25,-6.6875 l 0,-6.25 -6.78125,-2.65625 c -3.72612,-1.4619 -7.08974,-2.65625 -7.46875,-2.65625 -0.37902,0 -2.42573,1.86552 -4.5625,4.15625 -2.83195,3.036 -4.38676,3.99914 -5.6875,3.5 -1.51651,-0.58194 -0.88715,-1.64269 4.0625,-6.9375 13.50994,-14.45206 19.55035,-21.15445 22.25,-21.03125 z m 112.65625,0.46875 c 5.10638,0.0797 10.26989,2.34013 14.0625,7.3125 2.92735,3.83796 4.38503,11.76137 3.09375,16.90625 -0.90015,3.58648 -5.30795,8.43728 -9.71875,10.6875 -11.33981,5.78514 -24.58835,-2.18326 -25.6875,-15.4375 -0.98231,-11.84538 8.50146,-19.62098 18.25,-19.46875 z m -113.90625,3.09375 c -0.14407,-0.14407 -3.04308,2.89551 -6.46875,6.75 -6.05901,6.81747 -6.16602,7.00865 -3.90625,7.875 1.27764,0.48983 3.8875,1.55142 5.8125,2.34375 l 3.5,1.4375 0.65625,-9.0625 c 0.36711,-4.99257 0.55032,-9.19967 0.40625,-9.34375 z m 112.875,0.40625 c -7.96892,0 -13.4425,6.05471 -13.4375,14.84375 0.004,7.19436 3.8909,12.41575 10.8125,14.53125 6.10971,1.86735 13.26373,-1.45824 16.21875,-7.5625 2.54961,-5.26679 2.48426,-8.01269 -0.28125,-13.46875 -2.72892,-5.38386 -7.43374,-8.34375 -13.3125,-8.34375 z m -87.09375,3.46875 c 4.11149,-0.11284 8.2771,2.39445 9.28125,7.625 0.54576,2.8428 0.35875,3.25 -1.5,3.25 -1.58333,0 -2.125,-0.62798 -2.125,-2.4375 0,-5.08106 -6.03541,-7.41552 -9.4375,-3.65625 -2.90336,3.20818 -1.6531,7.03261 3.4375,10.59375 6.39628,4.47452 7.64589,7.47483 5.5,13.09375 -0.92573,2.424 -2.63597,5.08218 -3.8125,5.90625 -1.17654,0.82408 -3.7968,1.5 -5.84375,1.5 -5.2448,0 -8.81692,-3.28505 -9.5625,-8.84375 -0.52122,-3.886 -0.3807,-4.32148 1.3125,-4 1.26315,0.23983 2.01066,1.35001 2.21875,3.34375 0.38589,3.69738 2.58679,5.5 6.75,5.5 3.5664,0 4.95124,-1.22717 5.96875,-5.28125 0.61604,-2.45447 -0.0166,-3.4087 -5.5625,-8.71875 -5.95495,-5.70166 -6.19472,-6.17191 -5.625,-9.75 0.84089,-5.28119 4.88851,-8.01216 9,-8.125 z m 54.46875,2.125 c 1.405,-0.0141 2.54412,0.0344 3.125,0.21875 3.80602,1.20798 6.93885,11.25357 4.0625,13.03125 -0.55728,0.34442 0.55675,2.10478 2.5,3.9375 2.77896,2.6209 3.5,4.06846 3.5,7 0,4.68711 -1.32785,7.16677 -4.8125,8.96875 -2.13071,1.10183 -13.12445,3.77994 -13.21875,3.21875 -0.0105,-0.0624 -1.51815,-7.775 -3.375,-17.125 -1.85684,-9.35 -3.21635,-17.29787 -3,-17.65625 0.46076,-0.76327 7.00375,-1.55138 11.21875,-1.59375 z m -40.21875,0.15625 c 0.43072,-0.002 0.98407,0.0405 1.65625,0.125 1.7875,0.22462 5.8375,0.66963 9,1 4.03526,0.42154 5.75,1.02907 5.75,2.03125 0,0.99123 -1.19046,1.4375 -3.875,1.4375 l -3.875,0 -1.25,16 c -1.15921,14.66319 -1.43048,16 -3.1875,16 -1.73332,0 -1.85834,-0.55151 -1.34375,-5.75 1.92515,-19.44818 2.39245,-25.67012 1.9375,-26.40625 -0.2818,-0.45596 -1.85121,-0.84375 -3.46875,-0.84375 -2.2425,0 -2.9375,-0.46044 -2.9375,-1.9375 0,-1.20196 0.30158,-1.64943 1.59375,-1.65625 z m 21.5,1.59375 c 1.35225,0 1.70129,1.99127 2.25,12.75 0.35765,7.0125 0.65425,14.8875 0.65625,17.5 0.003,3.53022 -0.3681,4.75 -1.46875,4.75 -2.07117,0 -2.41556,-2.40243 -2.75,-19.75 -0.25921,-13.44487 -0.10035,-15.25 1.3125,-15.25 z m 15.78125,2 c -4.76708,0 -5.06883,0.14082 -4.5625,2.25 0.29707,1.2375 0.84498,3.9375 1.21875,6 0.75241,4.152 1.76246,4.49296 6.90625,2.34375 4.13332,-1.72701 5.31359,-4.78479 3.125,-8.125 -1.35601,-2.06953 -2.3937,-2.46875 -6.6875,-2.46875 z m 5.21875,14.5 c -2.82335,0.0416 -6.03106,0.59692 -6.53125,1.40625 -0.35933,0.58141 0.9866,8.76115 1.9375,11.75 0.80195,2.52065 10.95,-1.32146 11.96875,-4.53125 0.81574,-2.57016 -0.94345,-6.79243 -3.375,-8.09375 -0.7457,-0.39909 -2.30599,-0.55618 -4,-0.53125 z"
       style="fill:#0061a2;fill-opacity:1"
       inkscape:connector-curvature="0" />
    <path
       id="path2995"
       d="m 218.96875,11.96875 c -42.9376,0.0021 -54.43878,1.00408 -87,7.53125 -13.17551,2.641141 -37.49884,8.592586 -38.28125,9.375 -0.15487,0.154867 0.91751,4.450214 2.375,9.53125 C 101.23754,56.447339 97.974931,69.727103 87,75.375 77.971524,80.021215 63.221163,78.289148 48.34375,70.84375 L 43.6875,68.53125 43,94.21875 c -1.307076,48.46277 2.457245,110.26315 9.53125,156.71875 4.020941,26.40587 14.063911,74.87607 15.9375,76.875 0.441723,0.47128 4.117524,1.95319 8.15625,3.3125 23.52842,7.91893 38.77211,23.27344 42.90625,43.1875 1.91403,9.21984 0.67534,30.68074 -2.5,42.875 -1.46798,5.6375 -2.41191,10.67271 -2.09375,11.1875 0.90056,1.45715 17.3897,10.6627 27.875,15.5625 16.95877,7.92488 36.95637,13.72487 58.15625,16.875 1.65,0.24518 11.325,0.30881 21.5,0.125 14.11727,-0.25502 20.85618,-0.84432 28.40625,-2.46875 21.5211,-4.63034 40.78221,-12.23762 61.0625,-24.09375 l 12.21875,-7.125 -3.8125,-8.84375 c -6.07965,-14.10188 -8.24515,-23.71548 -8.21875,-36.46875 0.0179,-8.64059 0.4773,-12.21537 2.125,-16.71875 5.93072,-16.20936 19.83546,-27.547 44.21875,-36.03125 l 6.5,-2.25 2.28125,-8.5 c 3.34172,-12.49195 9.85022,-45.43751 12.15625,-61.5 4.93002,-34.3397 7.04995,-68.57948 7.03125,-112.84375 -0.0124,-29.20335 -1.38256,-70.382559 -2.375,-71.375 -0.22016,-0.220167 -3.70433,0.636628 -7.75,1.90625 -5.62647,1.765714 -9.69468,2.3106 -17.34375,2.3125 C 346.62498,76.9406 342.46959,75.166107 338,67.96875 c -2.69805,-4.344674 -3.02203,-5.75156 -3.34375,-14.90625 -0.23295,-6.628685 0.16485,-12.657457 1.1875,-17.5 0.85793,-4.06257 1.35667,-7.730841 1.09375,-8.15625 -0.65346,-1.057323 -22.97755,-6.366566 -39.75,-9.4375 -30.17097,-5.52412 -36.50526,-6.002 -78.21875,-6 z m -5.5625,12.6875 c 13.91422,-0.03958 27.4011,0.328349 36.0625,1.1875 29.72787,2.948797 70.82936,10.953086 70.1875,13.65625 -0.15169,0.638818 -0.656,4.285209 -1.1875,8.3125 1.8327,1.096277 2.13257,2.573515 -0.5,4.5 -1.46767,18.065813 5.12558,31.457895 18.75,37.75 5.9144,2.731421 7.00125,2.875 19.59375,2.875 l 13.3125,0 -0.625,11.5 c -2.8378,52.52725 -6.83313,87.61096 -14.125,123.5 -7.95534,39.1545 -20.17684,74.37195 -34.3125,98.9375 -21.34275,37.09033 -48.34695,58.20552 -81.96875,64.09375 -9.03622,1.58252 -25.95261,1.76882 -35.625,0.375 -3.3,-0.47554 -9.97638,-2.01516 -14.84375,-3.40625 C 112.12694,366.21734 67.498602,268.40525 61.8125,111 L 61.15625,92.3125 64.0625,93.125 c 1.600137,0.434587 8.75625,0.78665 15.90625,0.78125 11.15389,-0.0084 13.78948,-0.33871 18.65625,-2.28125 6.23566,-2.488929 12.02316,-8.043334 14.59375,-14.03125 2.22519,-5.183324 2.77246,-23.708912 0.96875,-32.9375 -0.78287,-4.005385 -1.14354,-7.430448 -0.8125,-7.625 2.56292,-1.506215 35.24917,-7.737336 53.59375,-10.21875 9.95191,-1.346165 28.54779,-2.105363 46.4375,-2.15625 z m 3.625,190.78125 c -0.34761,0 -10.62491,13.56091 -11.9375,15.75 -0.58367,0.97343 2.03222,1.25 11.8125,1.25 6.90746,0 12.5625,-0.25503 12.5625,-0.5625 0,-0.65381 -11.94344,-16.4375 -12.4375,-16.4375 z m 13.4375,19.9375 -13.25,0.28125 -13.25,0.28125 -0.3125,2.75 -0.21875,2.75 13.46875,0 13.5625,0 0,-3.03125 0,-3.03125 z m -76,10.0625 0,20 0,20 -10.25,0.0312 -10.25,0 -9.78125,14 -9.75,13.96875 2.4375,4.84375 c 4.37744,8.63847 14.41216,22.74089 21.6875,30.53125 17.26476,18.48695 40.61245,31.35967 63.90625,35.1875 16.18223,2.65919 36.32864,0.29653 52,-6.09375 15.62255,-6.37037 32.18267,-18.78685 45.28125,-33.9375 6.3692,-7.36702 20.7235,-27.7351 20.6875,-29.34375 -0.009,-0.3831 -4.66376,-7.4375 -10.34375,-15.6875 l -10.3125,-15 -10.15625,-0.28125 -10.15625,-0.28125 0,-18.96875 0,-18.96875 -2.9375,0 c -2.27763,0 -3.00163,0.50123 -3.25,2.25 -0.45996,3.23866 -5.19584,3.18555 -5.65625,-0.0625 -0.27455,-1.9368 -0.83687,-2.25818 -3.5,-2 -2.43984,0.23654 -3.24833,0.84949 -3.5,2.625 -0.45783,3.23003 -5.49771,2.75418 -5.96875,-0.5625 -0.26047,-1.83397 -0.95385,-2.25 -3.75,-2.25 l -3.4375,0 0,13.5 0,13.5 -8.5,0 -8.5,0 0,-13.5 0,-13.5 -13.5,0 -13.5,0 0,13.5 0,13.5 -8,0 -8,0 0,-13.5 0,-13.5 -3.4375,0 c -2.79615,0 -3.48953,0.41603 -3.75,2.25 -0.47845,3.36882 -4.39229,3.60538 -5.21875,0.3125 -0.53053,-2.11383 -1.20733,-2.5625 -4.03125,-2.5625 -2.7764,0 -3.48993,0.41882 -3.75,2.25 -0.23407,1.64812 -0.98126,2.25 -2.8125,2.25 -1.83124,0 -2.57843,-0.60188 -2.8125,-2.25 -0.26047,-1.83397 -0.95385,-2.25 -3.75,-2.25 l -3.4375,0 z m 8.40625,155.28125 c 2.5679,-0.29656 2.59375,5.48846 2.59375,19.71875 0,10.38048 -0.3375,19.07926 -0.75,19.3125 -2.2335,1.26288 -3.25,-0.86109 -3.25,-6.75 l 0,-6.25 -7.09375,-2.78125 -7.09375,-2.78125 -4.34375,4.28125 c -3.00923,2.95333 -4.85461,4.04527 -6.03125,3.59375 -1.85035,-0.71004 -0.89833,-1.86331 16.3125,-19.90625 4.93761,-5.17632 7.89926,-8.23459 9.65625,-8.4375 z m 112.59375,0.71875 c 5.08513,0 7.98793,1.17936 12.375,5.03125 4.78053,4.19737 7.22494,11.99579 5.625,17.9375 -1.33104,4.9431 -6.32954,10.85357 -10.71875,12.6875 -12.00291,5.01513 -25.28125,-4.00818 -25.28125,-17.15625 0,-10.71848 7.57556,-18.5 18,-18.5 z m 0.0937,4 c -9.29968,0.008 -14.67825,6.12635 -13.875,15.8125 0.40537,4.88811 0.93423,5.93018 4.59375,9.34375 3.76773,3.5145 4.5718,3.84375 9.75,3.84375 5.216,0 5.96515,-0.27764 9.46875,-3.78125 4.95783,-4.95782 5.93269,-9.74025 3.3125,-16.0625 -2.48198,-5.98875 -7.05919,-9.16125 -13.25,-9.15625 z m -113.84375,0.0937 c -0.26612,-0.44228 -10.7042,10.79543 -11.375,12.25 -0.21578,0.4679 2.1,1.84409 5.125,3.0625 l 5.5,2.21875 0.5,-8.5625 c 0.27502,-4.71132 0.38848,-8.7386 0.25,-8.96875 z m 26.09375,2.9375 c 4.49424,0.0344 6.67589,1.23135 8.5,4.65625 1.84408,3.4624 1.45901,6.3125 -0.84375,6.3125 -1.43142,0 -2,-0.66541 -2,-2.34375 0,-2.55545 -2.78628,-5.65625 -5.09375,-5.65625 -2.87492,0 -5.90625,3.06011 -5.90625,5.96875 0,2.27609 1.01283,3.58181 5.03125,6.46875 2.7669,1.98783 5.51454,4.63502 6.09375,5.90625 1.50071,3.2937 -0.52658,10.03362 -3.78125,12.59375 -6.34985,4.99479 -16.34375,0.51469 -16.34375,-7.34375 0,-2.5454 0.44149,-3.59375 1.53125,-3.59375 1.57416,0 1.87779,0.55257 2.90625,5.25 1.07945,4.93036 9.18278,5.03623 11.40625,0.15625 1.70984,-3.7527 0.81256,-5.62005 -5.375,-10.90625 -4.59647,-3.92688 -5.46875,-5.18346 -5.46875,-8 0,-2.14069 0.93741,-4.43781 2.59375,-6.40625 2.13984,-2.54305 3.31067,-3.0888 6.75,-3.0625 z M 242.375,410.5 c 2.88013,-0.0929 3.68354,0.43354 5.5,2.25 1.92108,1.92108 2.59375,3.63767 2.59375,6.59375 0,2.19254 -0.44713,4.25206 -1,4.59375 -0.55728,0.34442 0.55675,2.10478 2.5,3.9375 3.01104,2.83978 3.5,3.95844 3.5,7.875 0,3.73257 -0.47146,4.93103 -2.625,6.625 -1.4468,1.13805 -4.2593,2.47204 -6.25,2.96875 -9.10022,2.27065 -9.04034,2.27938 -9.625,-0.125 -2.28314,-9.3894 -6.18449,-32.43984 -5.59375,-33.0625 0.40225,-0.424 3.68887,-1.03662 7.3125,-1.375 1.53982,-0.14379 2.72746,-0.25027 3.6875,-0.28125 z m -40.53125,0.28125 c 0.71057,-0.0513 1.78283,0.0417 3.375,0.21875 13.1248,1.45937 13.36372,1.52362 13.03125,3.25 -0.24442,1.26922 -1.18709,1.60927 -3.90625,1.375 l -3.59375,-0.3125 -0.65625,9.3125 c -0.37612,5.12261 -0.97807,12.35 -1.3125,16.0625 -0.51264,5.69093 -0.90362,6.75 -2.46875,6.75 -2.17547,0 -2.138,1.29144 -0.4375,-17 0.74141,-7.975 1.14853,-14.8375 0.90625,-15.25 -0.24228,-0.4125 -1.75746,-0.75 -3.375,-0.75 -2.26485,0 -2.9375,-0.44328 -2.9375,-1.96875 0,-1.10663 0.19071,-1.60196 1.375,-1.6875 z m 21.96875,0.84375 c 1.15478,0.003 1.48212,2.04331 2,11.03125 0.3579,6.21138 0.65425,14.31875 0.65625,18.03125 0.004,6.08485 -0.19708,6.75 -2,6.75 -2.13297,0 -1.99022,1.70479 -2.4375,-31.71875 -0.0355,-2.65166 0.39947,-3.84454 1.53125,-4.0625 0.0846,-0.0163 0.17301,-0.0314 0.25,-0.0312 z m 14.78125,2.78125 c -1.57903,-0.0103 -2.90328,0.15328 -3.28125,0.53125 -0.27332,0.27331 -0.0527,2.98196 0.5,6.03125 1.00081,5.52151 1.03097,5.56296 4.09375,4.90625 5.2929,-1.13489 6.5625,-2.2812 6.5625,-5.78125 0,-1.79565 -0.5275,-3.7775 -1.1875,-4.4375 -0.72561,-0.72561 -4.05578,-1.2329 -6.6875,-1.25 z m 5.3125,14.8125 c -2.5091,0.1092 -4.93359,0.4147 -5.375,0.6875 -0.70197,0.43385 0.29089,8.87442 1.4375,12.25 0.31841,0.93742 1.47645,0.90114 5.09375,-0.1875 5.86148,-1.76405 6.73852,-2.63227 6.625,-6.625 -0.13133,-4.61904 -2.34819,-6.36146 -7.78125,-6.125 z"
       style="fill:#0061a2;fill-opacity:1"
       inkscape:connector-curvature="0" />
    <path
       id="path2993"
       d="m 217.96875,11.96875 c -31.84596,0.02234 -37.96163,0.28236 -53,2.3125 -33.20969,4.483218 -72.05408,13.258215 -71.125,16.0625 9.58668,28.935951 4.185554,45.383063 -15.6875,47.71875 -7.112862,0.835977 -18.155067,-1.615311 -27.5,-6.09375 L 43.53125,68.5625 43.25,91.25 c -1.059795,84.02607 5.61613,154.375 20.8125,219.1875 4.538897,19.35839 3.528303,17.55835 11.15625,20.0625 39.88894,13.095 53.40987,41.60544 41.65625,87.875 -2.84019,11.18076 -3.91977,9.36153 10.59375,17.53125 22.53918,12.6874 47.03102,21.0208 72,24.5 11.89532,1.6575 39.11558,0.45983 52,-2.3125 20.5784,-4.42785 42.09666,-12.98565 61.625,-24.46875 11.87706,-6.98399 11.24377,-5.59188 7.09375,-15.28125 -6.37849,-14.89236 -8.17925,-22.90567 -8.15625,-36.40625 0.0172,-10.10715 0.36371,-12.91503 2.28125,-17.75 6.11735,-15.42454 20.03923,-26.69329 42.625,-34.5625 l 7.96875,-2.78125 3.8125,-15.46875 c 11.94417,-48.55962 17.749,-102.84607 17.75,-166.09375 4.9e-4,-22.43073 -1.61558,-71.803076 -2.375,-72.5625 -0.12586,-0.125863 -3.14094,0.718273 -6.6875,1.84375 -3.6613,1.161888 -10.64867,2.278067 -16.1875,2.59375 -14.77755,0.84224 -20.25792,-1.836763 -24.78125,-12.0625 -2.60301,-5.884552 -2.87562,-19.401805 -0.59375,-30.15625 0.8169,-3.85 1.19038,-7.273688 0.8125,-7.625 C 335.32593,26.075706 305.61537,19.450718 290.375,17 261.43819,12.346835 255.51418,11.94241 217.96875,11.96875 z M 210.5,24.0625 c 27.98543,-0.18302 56.33065,2.63204 84.78125,8.4375 22.33101,4.556731 24.72615,5.283272 24.4375,7.53125 -0.13495,1.050959 -0.71446,5.385614 -1.28125,9.625 -1.86928,13.981334 2.02796,28.075899 9.59375,34.71875 7.88044,6.919123 17.23489,9.542458 31.78125,8.90625 l 9.65625,-0.4375 0,4.59375 c 0,7.70259 -2.89476,49.13747 -4.53125,64.78125 -14.42387,137.88234 -56.944,215.83678 -124.6875,228.6875 -11.24873,2.13385 -31.84958,1.90225 -43.28125,-0.5 -24.39967,-5.12733 -44.52314,-16.70256 -63.5,-36.5625 C 92.797608,311.28002 69.034289,236.45203 62.5,130.4375 c -0.559345,-9.075 -1.02865,-21.37163 -1.03125,-27.34375 -0.0046,-10.752049 0.02204,-10.868913 2.25,-10.34375 5.760476,1.357829 19.810826,1.740179 26.09375,0.71875 7.517017,-1.222058 14.92268,-4.5173 18.34375,-8.1875 C 114.48249,78.49434 116.85252,64.275565 114.375,47.875 113.6327,42.961108 113.0164,38.51406 113,38 c -0.037,-1.159674 5.85391,-2.716013 24.46875,-6.46875 23.9394,-4.826165 48.33822,-7.307262 73.03125,-7.46875 z m 6.0625,192.0625 c -0.0433,-0.002 -0.0709,0.005 -0.0937,0.0312 -1.34226,1.56832 -9.66255,12.82051 -10.375,14.03125 -0.57167,0.97149 1.93087,1.25 11.28125,1.25 l 12.03125,0 -6.15625,-8.03125 c -3.16914,-4.13827 -6.03756,-7.2582 -6.6875,-7.28125 z m -12.59375,20.3125 0,2.5 0,2.5 13.25,0 13.25,0 0,-2.5 0,-2.5 -13.25,0 -13.25,0 z m 75.5,8.875 -2.75,0.3125 c -1.96901,0.22656 -2.8337,0.95149 -3.0625,2.5625 -0.24635,1.73456 -0.98199,2.25 -3.1875,2.25 -2.20551,0 -2.94115,-0.51544 -3.1875,-2.25 -0.22761,-1.60266 -1.09729,-2.33951 -3.03125,-2.5625 -2.20241,-0.25394 -2.82194,0.17094 -3.34375,2.25 -0.50486,2.01151 -1.29315,2.5625 -3.5625,2.5625 -2.43676,0 -2.875,-0.40235 -2.875,-2.5625 0,-2.2699 -0.36506,-2.52748 -3.125,-2.25 l -3.125,0.3125 0.1875,13.25 0.15625,13.25 -9.3125,0 -9.28125,0 0,-13.25 0,-13.25 -13,0 -13,0 0,13.25 0,13.25 -8.25,0 -8.25,0 0,-13.5625 0,-13.34375 -3.25,0.0937 c -2.49095,0.24017 -3.31758,0.838 -3.5625,2.5625 -0.47612,3.35245 -4.92221,3.11019 -5.78125,-0.3125 -0.54047,-2.1534 -1.14416,-2.50651 -3.78125,-2.25 -2.36741,0.23028 -3.19565,0.85958 -3.4375,2.5625 -0.24837,1.74877 -0.97237,2.25 -3.25,2.25 -2.45915,0 -2.9375,-0.40207 -2.9375,-2.5 0,-2.19048 -0.43333,-2.5 -3.5,-2.5 l -3.5,0 0,20 0,20 -10.25,0.0625 -10.25,0.0625 -9.78125,14.0625 -9.75,14.0625 4.625,8.125 c 13.79173,24.1571 31.4113,41.20592 53.90625,52.1875 11.67657,5.70027 21.57948,8.82296 33,10.375 12.78704,1.73775 30.38993,-0.19575 43.5,-4.75 24.48028,-8.50409 49.24377,-29.94504 66.4375,-57.53125 l 4.71875,-7.5625 -10.65625,-15.5625 -10.625,-15.53125 -9.9375,0 -9.9375,0 0,-19.0625 0,-19.0625 z M 166.84375,402.75 c 1.11247,0.97258 2.2706,2.50809 3.21875,4.9375 -0.25864,-0.006 -0.52485,-0.0257 -0.78125,-0.0312 l -2.4375,-4.90625 z m 3.65625,7.375 c 0.11613,0.005 0.22715,-0.005 0.34375,0 0.11126,0.4191 0.24434,0.85272 0.34375,1.3125 L 170.5,410.125 z m 51.46875,2.34375 c 0.14283,0.008 0.29538,0.0235 0.4375,0.0312 -0.1781,0.1418 -0.36198,0.32648 -0.5625,0.5 0.0324,-0.20711 0.0824,-0.37527 0.125,-0.53125 z m 21.21875,1.5625 c 2.08071,0.24617 3.57099,0.49021 4.28125,0.75 -0.39784,0.23889 -0.8108,0.49238 -1.1875,0.6875 -0.62774,-0.16709 -1.40726,-0.4263 -2.1875,-0.75 -0.27703,-0.21124 -0.56036,-0.43505 -0.90625,-0.6875 z m -24.875,0.0937 c 0.1088,-0.009 0.15625,0.0892 0.15625,0.375 0,1.51309 -0.3323,1.84786 -2.3125,1.5625 1.17315,-1.05965 1.87534,-1.91346 2.15625,-1.9375 z m -24.46875,4.65625 c 1.22645,0.38989 2.13535,0.65625 1.625,0.65625 -0.78322,0 -1.31277,-0.20006 -1.625,-0.65625 z m -51.3125,1.59375 0.375,0.53125 -0.78125,-0.0937 c 0.1114,-0.12277 0.29215,-0.31198 0.40625,-0.4375 z m 42.40625,5.4375 c -0.21345,0.18924 -0.40612,0.39213 -0.625,0.59375 -0.0206,-0.0178 -0.0421,-0.0448 -0.0625,-0.0625 0.23531,-0.1822 0.44484,-0.3398 0.6875,-0.53125 z m -14.5625,1.96875 c -0.15837,1.24649 -0.12597,2.32576 0.15625,3.15625 -2.09238,5.80036 -5.52697,9.46754 -5.8125,9.4375 -0.18745,-0.0197 -0.33278,-0.064 -0.5,-0.0937 1.69283,-3.11867 4.15103,-7.89741 6.15625,-12.5 z m 66.6875,17.28125 c -0.1621,1.09647 0.12933,1.77199 -0.0625,1.21875 -0.0739,-0.21301 -0.19313,-0.63032 -0.3125,-1.125 0.12384,-0.0297 0.24393,-0.0588 0.375,-0.0937 z m -13.5,2.875 c 1.10947,0.52036 1.86786,0.5 1.375,0.5 -0.59077,0 -1.04097,-0.0483 -1.375,-0.5 z m -22.78125,0.6875 c 0.42471,1.10876 0.70772,1.625 -0.0625,1.625 -0.75909,0 -0.54483,-0.41112 0.0625,-1.625 z"
       style="fill:#0061a2;fill-opacity:1"
       inkscape:connector-curvature="0" />
    <path
       id="path2991"
       d="m 213.71875,22.84375 c -18.83681,0.0017 -37.76379,0.638195 -47.25,1.90625 -13.17366,1.76097 -43.64724,7.543666 -51.375,9.75 l -3.875,1.09375 0.65625,5.6875 c 1.77445,15.797676 1.83497,26.801652 0.1875,32.46875 -1.89717,6.526037 -6.22643,11.931448 -11.8125,14.78125 -6.193932,3.15991 -17.978745,4.458036 -28.9375,3.1875 -6.9459,-0.805293 -9.712974,-0.784682 -10.75,0.0625 -1.152187,0.941261 -1.272639,4.568908 -0.71875,20.65625 4.899647,142.30717 43.03953,237.52726 108.125,269.9375 10.4294,5.19347 23.75935,9.49304 34,10.96875 9.32426,1.34365 29.18763,1.17612 37.53125,-0.3125 71.174,-12.69849 114.88717,-94.94204 128.375,-241.59375 2.5014,-27.19738 3.94576,-58.054235 2.78125,-59.21875 -0.59661,-0.59661 -5.57477,-0.93732 -11.875,-0.84375 -23.05612,0.342419 -34.6304,-7.747786 -38.375,-26.78125 -0.98763,-5.019808 -0.97058,-8.345101 0.0625,-16.71875 0.70991,-5.75404 1.02476,-10.756489 0.6875,-11.09375 -1.78776,-1.787759 -37.01592,-8.760908 -60.6875,-12.03125 -9.16654,-1.266419 -27.91319,-1.907916 -46.75,-1.90625 z m 0.25,1.25 c 25.7282,0.04287 42.9342,1.434895 66.5,5.40625 10.5227,1.773306 39.1483,7.805131 39.75,8.375 0.14015,0.132733 -0.2088,2.679729 -0.78125,5.65625 -1.55081,8.063541 -1.27627,20.637314 0.59375,26.875 3.0289,10.103328 9.30207,16.779668 19.4375,20.6875 3.39791,1.310105 7.63985,1.73899 17.375,1.78125 l 12.90625,0.0625 -0.6875,16 c -2.25339,52.80033 -9.70076,106.918 -20.09375,146 -20.18299,75.89652 -53.08943,120.02946 -100,134.09375 -7.98827,2.39497 -10.96725,2.73097 -26.5,3.03125 -19.55372,0.37802 -27.47407,-0.80685 -42.84375,-6.46875 C 118.26409,362.98952 78.496735,287.14471 65.5625,168.15625 62.418426,139.23234 60.040386,92.4375 61.71875,92.4375 c 0.503506,0 5.074723,0.490767 10.1875,1.09375 17.058589,2.01183 31.84433,-2.133335 37.8125,-10.625 5.6693,-8.066423 7.08525,-20.531016 4.21875,-36.96875 -0.84101,-4.822703 -1.40351,-8.89052 -1.25,-9.03125 0.82465,-0.755996 29.09368,-6.612727 40.28125,-8.34375 23.45101,-3.62851 35.66042,-4.51097 61,-4.46875 z m 3,191.34375 -2,2.71875 c -1.1,1.48784 -3.71973,5.08926 -5.8125,8 l -3.8125,5.28125 11.5625,0 c 6.35527,0 11.5625,-0.23065 11.5625,-0.53125 0,-0.3006 -2.5875,-3.90201 -5.75,-8 l -5.75,-7.46875 z m 0.5625,3.96875 c 0.0628,-0.0146 0.0985,-0.003 0.125,0.0312 0.21032,0.275 2.07609,2.6375 4.15625,5.25 l 3.78125,4.75 -8.09375,0 c -7.41746,0 -8.00891,-0.14788 -7.125,-1.75 1.42263,-2.57858 6.2136,-8.06274 7.15625,-8.28125 z m -13.0625,17.03125 0,2.5 0,2.5 13,0 13,0 0,-2.5 0,-2.5 -13,0 -13,0 z m 13,2.125 c 2.08437,0 4.16875,0.0258 5.75,0.125 3.1625,0.19845 0.575,0.375 -5.75,0.375 -6.325,0 -8.9125,-0.17655 -5.75,-0.375 1.58125,-0.0992 3.66563,-0.125 5.75,-0.125 z m 31.0625,7.21875 -0.28125,13.59375 -0.28125,13.5625 -9,0 -9,0 -0.5,-13.5 -0.5,-13.5 -12,0 -12,0 -0.5,13.5 -0.5,13.5 -8.25,0.28125 -8.25,0.3125 0,-13.8125 0,-13.78125 -3.25,0.0937 c -2.55656,0.0718 -3.33631,0.56803 -3.59375,2.3125 -0.25754,1.74513 -0.86543,2.14937 -2.9375,1.90625 -1.62394,-0.19055 -2.85475,-1.07905 -3.1875,-2.3125 -0.80648,-2.98948 -6.40558,-2.75948 -6.84375,0.28125 -0.42974,2.98226 -6.1875,3.30328 -6.1875,0.34375 0,-1.41619 -0.87826,-2.00643 -3.5,-2.3125 l -3.5,-0.40625 0,19.75 0,19.78125 -10.1875,0.28125 -10.1875,0.28125 -9.40625,13.34375 c -7.0353,9.9932 -9.25334,13.89931 -8.84375,15.53125 0.30095,1.19908 2.82688,5.95885 5.59375,10.5625 18.50929,30.79657 44.49526,50.18992 77.125,57.5625 9.75857,2.20492 35.08729,1.39739 44.90625,-1.4375 27.03576,-7.80563 51.74228,-27.9561 71.40625,-58.25 L 320.5,314.5625 309.84375,299 l -10.6875,-15.5625 -9.84375,0 -9.84375,0 0,-18.8125 0,-18.84375 -3,0.4375 c -2.11757,0.3108 -3,1.01215 -3,2.34375 0,1.42944 -0.72683,1.875 -3,1.875 -2.27317,0 -3,-0.44556 -3,-1.875 0,-1.32266 -0.87806,-2.01023 -2.9375,-2.3125 -2.41681,-0.35471 -3.05265,-0.0319 -3.53125,1.875 -0.7668,3.05517 -6.53125,3.44215 -6.53125,0.4375 0,-1.32778 -0.8763,-2.03664 -2.96875,-2.34375 l -2.96875,-0.4375 z m 28.1875,1.65625 c 0.41958,0 0.75,7.82624 0.75,17.40625 0,9.58002 0.2599,18.13002 0.59375,19 0.49649,1.29385 2.40216,1.59375 10.4375,1.59375 l 9.8125,0 9.59375,13.96875 c 5.26318,7.6725 9.5625,14.57544 9.5625,15.34375 0,0.76831 -2.5321,5.15956 -5.625,9.78125 C 291.84443,354.41604 267.89042,373.14697 240.875,380 c -32.8155,8.32433 -67.15735,-1.32445 -94.71875,-26.59375 -12.84146,-11.77352 -30.04086,-36.79823 -28.09375,-40.875 0.49228,-1.03072 4.50625,-7.0755 8.90625,-13.4375 l 8,-11.5625 9.0625,-0.0625 c 5.62371,-0.0256 9.6768,-0.50525 10.71875,-1.28125 1.44733,-1.07789 1.74222,-3.77461 1.96875,-19.65625 0.25665,-17.99262 1.00355,-21.96432 3.25,-16.84375 1.51361,3.45014 6.88546,3.63508 9.0625,0.3125 1.96175,-2.99402 3.25706,-3.24963 4.15625,-0.8125 1.49173,4.0431 6.45931,4.42201 8.90625,0.6875 0.91944,-1.40324 2.04971,-2.16904 2.5,-1.71875 0.45028,0.45028 0.9383,6.44705 1.09375,13.3125 l 0.28125,12.46875 9.5,0 9.5,0 0.5,-13 0.5,-13 11,0 11,0 0.5,13 0.5,13 10,0 10,0 0.5,-12.90625 c 0.49151,-12.69988 1.48215,-15.94324 3.5,-11.34375 1.51361,3.45014 6.88546,3.63508 9.0625,0.3125 2.05717,-3.13964 2.67369,-3.19316 3.9375,-0.3125 0.75318,1.71674 1.82952,2.25 4.5,2.25 2.67048,0 3.74682,-0.53326 4.5,-2.25 0.54292,-1.2375 1.33042,-2.25 1.75,-2.25 z m -114.6875,151.28125 c -0.51676,-0.0136 -0.99779,0.11552 -1.46875,0.34375 -2.36743,1.14729 -27.09275,27.55533 -27.09375,28.9375 -0.002,1.7202 2.25658,3.4375 4.5,3.4375 1.15338,0 3.81631,-1.7347 5.90625,-3.875 l 3.78125,-3.90625 5.65625,2.28125 5.65625,2.3125 0.5,6.25 c 0.40456,5.05846 0.88175,6.40405 2.5,7.03125 1.1,0.42634 2.0893,0.80505 2.1875,0.84375 0.0982,0.0387 0.88572,-0.63571 1.75,-1.5 1.31775,-1.31774 1.5625,-4.61524 1.5625,-20.46875 l 0,-18.90625 -2.53125,-1.6875 c -1.08622,-0.71171 -2.04498,-1.07108 -2.90625,-1.09375 z m 113.4375,0.71875 c -5.32216,0 -9.88055,1.77361 -13.84375,5.375 -10.01271,9.09864 -7.48357,26.85393 4.75,33.3125 7.83989,4.13897 16.5908,2.79362 23.4375,-3.5625 13.2583,-12.30833 3.94114,-35.125 -14.34375,-35.125 z M 161.875,400.59375 c 0.49452,-0.0861 0.88219,0.12633 1.46875,0.3125 2.06932,0.65679 2.125,1.16118 2.125,20.09375 0,16.25304 -0.23229,19.4375 -1.4375,19.4375 -2.2599,0 -3.0625,-2.06473 -3.0625,-7.90625 l 0,-5.40625 -7,-2.875 -7,-2.90625 -4.28125,4.5 c -2.66283,2.8118 -4.82588,4.29212 -5.75,3.9375 -0.81477,-0.31266 -1.46875,-0.95419 -1.46875,-1.4375 0,-0.4833 4.55673,-5.70465 10.125,-11.625 12.28511,-13.06189 14.7977,-15.86679 16.28125,-16.125 z m 113.75,0.5625 c 6.40626,0.0372 12.83246,3.50792 16.40625,10.8125 2.13088,4.35528 2.58727,6.45327 2.1875,10 -0.64967,5.76385 -4.72068,11.92442 -9.5,14.34375 -9.01887,4.56543 -16.49996,3.16182 -23.0625,-4.3125 -3.61694,-4.11947 -5.58979,-10.42161 -4.65625,-14.90625 2.16172,-10.38465 10.38839,-15.98529 18.625,-15.9375 z m -114.15625,4.3125 -5.59375,6.0625 c -3.0712,3.3407 -5.2731,6.38298 -4.90625,6.75 0.36685,0.36703 2.55191,1.41198 4.84375,2.34375 2.29185,0.93177 4.49375,1.7193 4.90625,1.75 0.4125,0.0307 0.75,-3.76728 0.75,-8.4375 l 0,-8.46875 z m 114.03125,0 c -2.31846,-0.0391 -4.66256,0.57568 -6.96875,1.8125 -9.16389,4.91465 -9.24788,18.80139 -0.15625,24.875 6.58177,4.3969 16.0881,2.05629 19.65625,-4.84375 2.39403,-4.62955 1.54119,-13.04612 -1.65625,-16.46875 -3.2509,-3.47986 -7.0109,-5.30988 -10.875,-5.375 z m -87.96875,0.96875 c -5.91395,0 -10.09544,4.01318 -10.8125,10.375 -0.53939,4.78542 -0.51671,4.81633 5.1875,10.125 4.24151,3.94739 5.65225,5.90075 5.40625,7.5625 -0.76012,5.13473 -6.94255,5.00916 -7.6875,-0.15625 -0.50728,-3.51742 -2.14154,-5.05829 -5.0625,-4.71875 -2.43014,0.28249 -2.609,0.6345 -2.5625,5.6875 0.0438,4.76156 0.4327,5.70482 3.28125,8.25 2.55008,2.27849 4.15003,2.875 7.78125,2.875 5.82783,0 9.64674,-2.61853 11.875,-8.1875 2.85699,-7.14031 0.69231,-11.9408 -7.71875,-17.15625 -3.12896,-1.94018 -3.59896,-5.12361 -0.96875,-6.53125 2.25586,-1.2073 5.21875,0.33273 5.21875,2.71875 0,4.47359 6.52905,5.89833 7.59375,1.65625 0.45048,-1.79487 1.28296,-2.5 3,-2.5 2.8422,0 2.89839,0.62223 1.34375,18.34375 -0.78043,8.89613 -0.75519,12.18944 0.125,13.25 1.44989,1.74701 4.34908,1.82356 5.71875,0.15625 0.56477,-0.6875 1.63493,-7.775 2.375,-15.75 l 1.34375,-14.5 3.09375,-0.3125 c 3.05302,-0.29749 3.12374,-0.21458 3.75,5 0.35025,2.91638 0.64305,9.5875 0.65625,14.8125 0.0132,5.225 0.41124,10.1122 0.875,10.84375 0.47892,0.75546 2.07642,1.18747 3.71875,1 l 2.90625,-0.34375 -0.15625,-18.375 c -0.17668,-20.09369 -0.74601,-22.14357 -5.5,-20.53125 -1.29883,0.44044 -2.79375,0.64643 -3.34375,0.46875 -0.55,-0.17769 -4.8298,-0.67856 -9.5,-1.125 -7.1431,-0.68282 -8.77051,-0.55767 -10.25,0.78125 -1.03382,0.93559 -1.75,1.13258 -1.75,0.46875 0,-1.83139 -5.58556,-4.1875 -9.9375,-4.1875 z m 87.78125,0.875 c 1.98108,0.0335 4.08915,0.5399 6.1875,1.625 7.44964,3.85236 8.48177,15.37827 1.875,20.9375 -7.06764,5.94703 -18.33007,1.26518 -19.59375,-8.15625 -1.13427,-8.4566 4.45595,-14.52604 11.53125,-14.40625 z M 187.875,407.75 c 4.98845,-0.0509 9.59375,3.92264 9.59375,9.15625 0,1.95 -0.3375,3.53925 -0.75,3.53125 -1.63253,-0.0333 -2.97335,-1.61965 -3.625,-4.28125 -1.14073,-4.65925 -7.53122,-5.64582 -9.75,-1.5 -1.58827,2.96772 -0.3257,6.06962 3.3125,8.21875 4.94629,2.92185 7.8125,6.50574 7.8125,9.75 0,3.34005 -1.97493,7.58312 -4.65625,10 -6.28831,5.66826 -16.34375,0.91716 -16.34375,-7.71875 0,-3.77771 0.2306,-4.21271 2,-3.75 1.38351,0.3618 2,1.36263 2,3.25 0,5.31036 6.8314,8.09985 10.34375,4.21875 0.91025,-1.00581 1.65625,-3.2549 1.65625,-5 0,-2.65343 -0.80685,-3.77363 -4.90625,-6.71875 -5.35443,-3.84678 -6.09375,-5.02422 -6.09375,-9.8125 0,-4.02208 2.0557,-7.01711 5.9375,-8.625 1.13968,-0.47207 2.31757,-0.70701 3.46875,-0.71875 z m 52.90625,0.84375 c -4.69821,0.0508 -10.23114,1.04721 -11.28125,2.3125 -1.44464,1.74069 5.10499,36.35591 7.125,37.65625 2.75648,1.77442 14.42016,-1.54516 18,-5.125 3.89911,-3.89912 4.06296,-11.39248 0.34375,-15.8125 -1.82716,-2.17146 -2.497,-4.16035 -2.5,-7.34375 -0.005,-6.09803 -2.93184,-10.55512 -7.46875,-11.40625 -1.18058,-0.22148 -2.65268,-0.2982 -4.21875,-0.28125 z m 1.53125,1.875 c 3.047,-0.0465 4.02194,0.42961 5.59375,1.90625 2.78575,2.61707 3.96863,7.44334 2.5,10.1875 -0.86603,1.61819 -0.54264,2.46034 1.875,4.71875 6.05322,5.65455 5.0512,13.63711 -2.15625,17.0625 -2.27946,1.08333 -6.18125,2.23949 -8.65625,2.59375 l -4.5,0.65625 -3.375,-17.625 c -1.84647,-9.69931 -3.09559,-17.90441 -2.78125,-18.21875 0.31434,-0.31433 3.76488,-0.78407 7.65625,-1.0625 1.57776,-0.11289 2.82808,-0.20324 3.84375,-0.21875 z m -40.21875,0.0625 c 0.83829,-0.0305 2.00523,0.0517 3.65625,0.25 2.87589,0.34545 6.90625,0.65125 8.96875,0.65625 3.38086,0.008 3.75,0.25313 3.75,2.625 0,2.43719 -0.2648,2.60861 -3.4375,2.09375 -3.31195,-0.53746 -3.42112,-0.42886 -3.9375,3.125 -0.29368,2.0212 -0.80862,7.03125 -1.125,11.15625 -0.31637,4.125 -0.81708,9.6375 -1.125,12.25 -0.46437,3.93983 -0.92471,4.75 -2.625,4.75 -1.95464,0 -2.00872,-0.38353 -1.375,-8.25 2.13231,-26.46832 2.20216,-23.7329 -0.46875,-23.75 -3.44007,-0.022 -5.31656,-1.48477 -4.53125,-3.53125 0.35091,-0.91447 0.85286,-1.32416 2.25,-1.375 z m -42.625,0.53125 0,4.1875 c 0,4.44769 -1.16973,5.22715 -4.34375,2.90625 -1.60283,-1.17201 -1.52982,-1.49433 1.28125,-4.1875 l 3.0625,-2.90625 z m 63.71875,0.375 c 2.51052,0 3.15695,4.34244 3.4375,23.5 0.18522,12.64745 0.11337,13.00162 -2,13.3125 -2.01709,0.29672 -2.15225,-0.0962 -2.15625,-5.5 -0.002,-3.20075 -0.2986,-11.55 -0.65625,-18.5625 -0.63126,-12.37743 -0.60451,-12.75 1.375,-12.75 z m 18.21875,3.125 c -0.49733,-0.0119 -1.0496,0.0151 -1.625,0.0625 l -3.8125,0.3125 0.28125,4.5 c 0.14817,2.475 0.45198,5.03018 0.6875,5.6875 0.30482,0.85083 1.32064,0.95546 3.5625,0.3125 4.42722,-1.26971 5.96875,-2.81889 5.96875,-6 0,-3.23456 -1.58116,-4.79186 -5.0625,-4.875 z m -1.8125,2 c 0.33363,0.006 0.69906,0.0214 1.125,0.0625 2.55288,0.24615 3.32865,0.81258 3.59375,2.6875 0.18562,1.3128 -0.26438,2.78372 -1,3.25 -2.3846,1.51149 -4.60181,0.92711 -5.21875,-1.375 -1.00143,-3.73681 -0.83541,-4.6678 1.5,-4.625 z m 5.0625,12.90625 c -5.48454,0.0228 -6.5885,1.07771 -5.78125,5.625 0.37684,2.12273 0.951,4.67379 1.25,5.6875 0.45117,1.52968 1.15563,1.71873 4.1875,1.15625 4.71725,-0.87515 7.15625,-3.12161 7.15625,-6.59375 0,-3.80676 -2.43313,-5.8932 -6.8125,-5.875 z m -2.5,2.0625 c 0.29469,-0.0241 0.64375,-0.0116 1.03125,0 0.44285,0.0133 0.95606,0.0521 1.53125,0.0937 3.95338,0.28604 4.27912,0.52304 4.5625,3.4375 0.26629,2.73864 -0.10577,3.27374 -2.90625,4.25 -4.4507,1.55152 -4.57902,1.51117 -5.28125,-2 -0.87971,-4.39859 -1.00034,-5.61253 1.0625,-5.78125 z"
       style="fill:#0061a2;fill-opacity:1"
       inkscape:connector-curvature="0" />
    <path
       id="path2989"
       d="m 212.5625,22.5625 c -2.35625,5.79e-4 -4.66769,0.02766 -6.375,0.125 -3.41462,0.194677 -0.36875,0.3767 6.78125,0.375 7.15,-0.0017 9.95413,-0.182073 6.21875,-0.375 -1.86768,-0.09645 -4.26875,-0.125579 -6.625,-0.125 z m -22.09375,1 c -1.54063,0 -3.08125,0.05098 -4.25,0.15625 -2.3375,0.210535 -0.425,0.375 4.25,0.375 4.675,0 6.5875,-0.164465 4.25,-0.375 -1.16875,-0.105268 -2.70937,-0.15625 -4.25,-0.15625 z m 45.09375,0 c -1.63125,9.99e-4 -3.21455,0.05139 -4.375,0.15625 -2.32091,0.209724 -0.16875,0.378 4.78125,0.375 4.95,-0.003 6.84784,-0.168323 4.21875,-0.375 -1.31455,-0.103358 -2.99375,-0.157249 -4.625,-0.15625 z m -58.21875,1 c -0.90625,-0.0025 -1.86497,0.04132 -2.625,0.15625 -1.52006,0.229854 -0.5,0.43 2.25,0.4375 2.75005,0.0075 3.97994,-0.168888 2.75,-0.40625 -0.61497,-0.118681 -1.46875,-0.185026 -2.375,-0.1875 z m 67.625,0.03125 9.5,1.28125 c 10.83982,1.471101 19.82922,1.894855 12,0.5625 -2.475,-0.421189 -8.325,-1.016461 -13,-1.3125 l -8.5,-0.53125 z m -77.5,0.96875 c -0.81563,0 -1.63125,0.06832 -2.25,0.1875 -1.2375,0.238353 -0.225,0.40625 2.25,0.40625 2.475,0 3.4875,-0.167897 2.25,-0.40625 -0.61875,-0.119177 -1.43437,-0.1875 -2.25,-0.1875 z m -8,1 c -0.63438,0 -1.26875,0.06174 -1.75,0.1875 -0.9625,0.251528 -0.175,0.46875 1.75,0.46875 1.925,0 2.7125,-0.217222 1.75,-0.46875 -0.48125,-0.125763 -1.11562,-0.1875 -1.75,-0.1875 z m -6.875,1 c -0.54375,0.0067 -1.06773,0.08179 -1.40625,0.21875 -0.67703,0.273927 0.13125,0.48913 1.78125,0.46875 1.65,-0.02038 2.19172,-0.246456 1.21875,-0.5 -0.48649,-0.126773 -1.05,-0.194215 -1.59375,-0.1875 z m 120.875,0.0625 c -1.375,0.04147 0.425,0.621794 4,1.3125 3.575,0.690706 7.625,1.2484 9,1.25 1.375,0.0016 -0.425,-0.578734 -4,-1.3125 -3.575,-0.733767 -7.625,-1.29147 -9,-1.25 z m -126.875,0.9375 c -0.54375,0.0067 -1.06773,0.08179 -1.40625,0.21875 -0.67703,0.273927 0.13125,0.48913 1.78125,0.46875 1.65,-0.02038 2.19172,-0.246456 1.21875,-0.5 -0.48649,-0.126773 -1.05,-0.194215 -1.59375,-0.1875 z m -5.125,1.0625 c -1.375,-0.0036 -4.75,0.574386 -7.5,1.28125 -6.70436,1.723298 -3.55973,1.799595 4,0.09375 3.3,-0.744642 4.875,-1.3714 3.5,-1.375 z m 150,0.9375 c -0.45313,0 -0.90625,0.08004 -1.25,0.21875 -0.6875,0.277413 -0.125,0.5 1.25,0.5 1.375,0 1.9375,-0.222587 1.25,-0.5 -0.34375,-0.138706 -0.79687,-0.21875 -1.25,-0.21875 z m 5,1 c -0.45313,0 -0.90625,0.08004 -1.25,0.21875 -0.6875,0.277413 -0.125,0.5 1.25,0.5 0.27018,0 0.48338,-0.01533 0.6875,-0.03125 0.11332,-0.01207 0.2292,-0.02253 0.34375,-0.03125 0.54474,-0.08549 0.68422,-0.249678 0.21875,-0.4375 -0.34375,-0.138706 -0.79687,-0.21875 -1.25,-0.21875 z m 5.65625,1.15625 c 1.19821,0.354912 2.42728,0.905602 3.65625,1.625 0.71145,0.191408 1.38483,0.390117 2.1875,0.59375 9.49279,2.408272 11.5,2.771586 11.5,2.09375 0,-0.467516 -12.52194,-3.508178 -17.34375,-4.3125 z m -176.15625,0.1875 c -0.1383,0.0062 -0.31695,0.02811 -0.5625,0.0625 -1.96444,0.275087 -5.56444,1.110903 -8,1.875 -6.74654,2.116558 -3.36628,1.819988 4.5625,-0.40625 3.36875,-0.945875 4.9681,-1.574547 4,-1.53125 z m -14.5625,4.03125 0.53125,2.5 c 0.283,1.375 0.57385,3.4 0.65625,4.5 0.14597,1.948424 0.16624,1.962806 0.5625,-0.03125 0.22371,-1.125763 -0.0984,-3.150763 -0.6875,-4.5 l -1.0625,-2.46875 z m 209.625,2.125 c -0.11553,0.09392 -0.36328,0.574786 -0.71875,1.375 -0.62806,1.413837 -1.06494,4.285327 -1.34375,7.6875 0.14278,0.305408 0.12774,0.760017 0.0312,1.34375 0.26758,0.894665 0.47287,1.730799 0.375,2.1875 -0.1308,0.610374 -0.29693,1.211128 -0.46875,1.8125 5.3e-4,0.01031 -4.9e-4,0.02095 0,0.03125 0.0397,0.826882 -0.0359,1.650182 -0.25,2.4375 -0.017,5.433127 0.33942,10.815204 1.15625,13.625 2.00323,6.890886 6.42583,13.577013 11.34375,17.09375 2.09017,1.494648 4.22373,2.72748 4.71875,2.75 0.49502,0.02252 -0.85498,-1.268293 -3,-2.84375 -5.57502,-4.094693 -7.98738,-6.951819 -10.59375,-12.625 -1.96455,-4.276166 -2.3065,-6.640254 -2.3125,-16.5 -0.004,-6.325 0.31521,-13.3 0.71875,-15.5 0.39142,-2.133903 0.5363,-3.031539 0.34375,-2.875 z m -207.1875,7.65625 c -0.23061,0.230603 -0.0919,5.091562 0.3125,10.8125 0.40442,5.720938 0.91656,9.30003 1.125,7.9375 0.4433,-2.897739 -0.8202,-19.367303 -1.4375,-18.75 z m 0.1875,22.75 c -0.0424,0.04448 -0.083,0.19375 -0.15625,0.46875 -3.96271,14.877514 -9.97665,20.324651 -24.8125,22.5 -4.326351,0.634359 -4.559675,0.769126 -1.53125,0.875 5.119571,0.178982 12.94959,-2.394404 17.625,-5.78125 4.47007,-3.238103 8.16564,-9.834706 8.8125,-15.75 0.17284,-1.580632 0.18969,-2.445931 0.0625,-2.3125 z M 337.71875,89.625 c -0.0699,-5.84e-4 -0.10438,0.01467 -0.125,0.03125 -0.12833,0.103169 0.68992,0.540915 2.375,1.3125 1.65,0.755518 4.125,1.35606 5.5,1.34375 1.51414,-0.01356 0.52829,-0.56537 -2.5,-1.40625 -3.04409,-0.845264 -4.76057,-1.277159 -5.25,-1.28125 z m 29.75,1.9375 c -0.45313,0 -0.90625,0.08004 -1.25,0.21875 -0.6875,0.277413 -0.125,0.5 1.25,0.5 1.375,0 1.9375,-0.222587 1.25,-0.5 -0.34375,-0.138706 -0.79687,-0.21875 -1.25,-0.21875 z m -303.5625,0.46875 c -0.795457,0.04293 -0.816281,0.178317 0.0625,0.40625 3.03226,0.786488 13.176231,1.323656 12.40625,0.65625 -0.229167,-0.198638 -3.78125,-0.611848 -7.90625,-0.90625 -2.196951,-0.156797 -3.767043,-0.199177 -4.5625,-0.15625 z m 292.5625,0.53125 c -1.54062,0 -3.08125,0.05098 -4.25,0.15625 -2.3375,0.210535 -0.425,0.375 4.25,0.375 4.675,0 6.5875,-0.164465 4.25,-0.375 -1.16875,-0.105267 -2.70938,-0.15625 -4.25,-0.15625 z m -276,1 c -0.634375,0 -1.26875,0.06174 -1.75,0.1875 -0.9625,0.251528 -0.175,0.46875 1.75,0.46875 1.925,0 2.7125,-0.217222 1.75,-0.46875 -0.48125,-0.125764 -1.115625,-0.1875 -1.75,-0.1875 z M 370.0625,96.625 c -0.13319,-0.167862 -0.221,2.187499 -0.21875,6.3125 0.003,5.5 0.17209,7.62468 0.375,4.71875 0.20238,-2.90594 0.174,-7.40594 -0.0312,-10 -0.0513,-0.648516 -0.0806,-0.975296 -0.125,-1.03125 z m -309.03125,6.5 c -0.109027,0.18943 -0.1875,3.20781 -0.1875,8.3125 0,7.425 0.182594,10.4625 0.375,6.75 0.192407,-3.7125 0.192407,-9.7875 0,-13.5 -0.06013,-1.16016 -0.137942,-1.64861 -0.1875,-1.5625 z m 308,13.0625 c -0.1193,0.11927 -0.21875,2.03594 -0.21875,5.25 0,4.675 0.16446,6.5875 0.375,4.25 0.21053,-2.3375 0.21053,-6.1625 0,-8.5 -0.0658,-0.73047 -0.10202,-1.05421 -0.15625,-1 z M 61.75,127.21875 c -0.01774,-7.3e-4 -0.04688,0.0163 -0.0625,0.0625 -0.249981,0.73947 -0.114266,6.95516 0.28125,13.8125 0.395517,6.85733 0.930868,12.25663 1.1875,12 0.256631,-0.25663 0.120917,-6.47232 -0.28125,-13.8125 -0.377032,-6.88141 -0.858929,-12.0516 -1.125,-12.0625 z m 306.28125,4.875 c -0.1473,-0.0657 -0.2545,1.36875 -0.25,3.84375 0.006,3.3 0.18369,4.54735 0.40625,2.75 0.22256,-1.79735 0.22817,-4.49735 0,-6 -0.0571,-0.37566 -0.10715,-0.57187 -0.15625,-0.59375 z m -1,12 c -0.1473,-0.0657 -0.2545,1.36875 -0.25,3.84375 0.006,3.3 0.18369,4.54735 0.40625,2.75 0.22256,-1.79735 0.22817,-4.49735 0,-6 -0.0571,-0.37566 -0.10715,-0.57187 -0.15625,-0.59375 z M 63.71875,154.875 c -0.26526,0.26526 -0.175974,4.35514 0.21875,9.09375 0.394724,4.73861 0.931707,8.41204 1.1875,8.15625 0.255792,-0.25579 0.135256,-4.34568 -0.25,-9.09375 -0.385257,-4.74808 -0.89099,-8.42151 -1.15625,-8.15625 z m 302.25,1.1875 c -0.12983,0.0772 -0.1875,1.29531 -0.1875,3.375 0,3.025 0.17713,4.2625 0.40625,2.75 0.22913,-1.5125 0.22913,-3.9875 0,-5.5 -0.0716,-0.47266 -0.15973,-0.66008 -0.21875,-0.625 z m -1,10.25 c -0.16011,-0.014 -0.25833,0.975 -0.25,2.625 0.0111,2.2 0.22956,2.99391 0.46875,1.75 0.23917,-1.24391 0.21904,-3.04391 -0.0312,-4 -0.0626,-0.23902 -0.13413,-0.37034 -0.1875,-0.375 z m -299.25,7.96875 c -0.266141,0.53421 1.107251,14.12298 2.375,22.4375 0.903534,5.92582 1.831331,10.57492 2.0625,10.34375 0.36635,-0.36635 -2.784009,-24.75583 -4.09375,-31.625 -0.174042,-0.91279 -0.294465,-1.25518 -0.34375,-1.15625 z m 298.59375,1.25 c -0.30045,0.49608 -1.49111,7.41417 -2.875,16.78125 -1.57456,10.65765 -3.32572,21.60558 -3.90625,24.3125 -0.58053,2.70692 -1.02395,5.68957 -0.96875,6.625 0.30212,5.11743 7.98572,-41.63037 7.8125,-47.53125 -0.003,-0.0956 0.0126,-0.16076 0,-0.1875 -0.0118,-0.0251 -0.0425,-0.0331 -0.0625,0 z M 70.78125,208.8125 c -0.25,0.25 -0.163769,2.54293 0.21875,5.09375 0.382518,2.55081 0.90625,4.4375 1.15625,4.1875 0.25,-0.25 0.132519,-2.54293 -0.25,-5.09375 -0.382518,-2.55081 -0.875,-4.4375 -1.125,-4.1875 z m 146.375,6.75 L 214,219.75 c -1.73498,2.307 -4.42213,5.875 -5.96875,7.9375 l -2.8125,3.75 11.6875,0 c 9.45666,0 11.52311,-0.26318 10.875,-1.34375 -0.43983,-0.73331 -3.02257,-4.30132 -5.71875,-7.9375 l -4.90625,-6.59375 z m -0.0937,1.78125 4.6875,6.03125 c 2.58703,3.33136 4.71875,6.28824 4.71875,6.5625 0,0.27426 -4.30332,0.5 -9.5625,0.5 l -9.5625,0 3.09375,-4.25 c 1.69681,-2.3375 3.86842,-5.29437 4.84375,-6.5625 l 1.78125,-2.28125 z m -144.3125,2.5 c -0.70552,0.70552 2.603032,15.88427 6.90625,31.59375 18.61263,67.94794 51.20776,114.09134 93.65625,132.625 4.20633,1.83655 8.10625,3.343 8.65625,3.3125 0.55,-0.0305 -0.125,-0.57829 -1.5,-1.1875 -13.2079,-5.85189 -17.50737,-8.05045 -23.53125,-12.03125 C 122.55646,351.43607 96.636358,309.68152 80.625,251.25 78.413143,243.1781 75.814224,232.72928 74.875,228 73.935776,223.27072 72.992626,219.60112 72.75,219.84375 z M 355.9063,225.875 c -0.022,-0.003 -0.0424,0.0136 -0.0625,0.0312 -0.13423,0.1178 -0.21875,0.67187 -0.21875,1.53125 0,1.375 0.22259,1.9375 0.5,1.25 0.27741,-0.6875 0.27741,-1.8125 0,-2.5 -0.078,-0.19336 -0.1527,-0.30376 -0.21875,-0.3125 z m -0.8125,4.96875 c -0.12091,0.0755 -0.30802,0.60396 -0.625,1.59375 -0.44035,1.375 -0.8125,3.4 -0.8125,4.5 0,1.58367 0.17853,1.47958 0.8125,-0.5 0.44035,-1.375 0.8125,-3.4 0.8125,-4.5 0,-0.79183 -0.0666,-1.16926 -0.1875,-1.09375 z m -150.625,5.59375 0,2.5 0,2.5 13,0 13,0 0,-2.5 0,-2.5 -13,0 -13,0 z m 6.65625,1.125 c 1.57546,-0.004 3.56627,0.0332 6.09375,0.0937 6.97884,0.16734 11.75,0.68731 11.75,1.28125 0,0.59394 -4.77116,1.11391 -11.75,1.28125 -10.10991,0.24241 -11.75,0.064 -11.75,-1.28125 0,-1.00893 0.92986,-1.36389 5.65625,-1.375 z m 142,2.5625 c -0.29092,0.0483 -0.93341,2.06058 -1.5625,4.90625 -0.71896,3.25221 -2.85512,11.24352 -4.71875,17.75 -1.86364,6.50649 -3.3513,12.13149 -3.3125,12.5 0.16352,1.55493 3.28958,-8.272 6.5625,-20.65625 1.93339,-7.31565 3.32885,-13.79468 3.125,-14.40625 -0.0255,-0.0764 -0.0522,-0.10065 -0.0937,-0.0937 z m -165.625,5.40625 -3.125,0.90625 c -2.22258,0 -3.22863,0.54128 -3.59375,1.9375 -0.29993,1.14694 -1.59338,2.10369 -3.15625,2.34375 l -2.65625,0.4375 2.84375,0.125 c 2.07619,0.10939 2.99314,-0.3835 3.375,-1.84375 0.33846,-1.29427 1.36389,-2 2.90625,-2 l 2.375,0 0,12.5 c 0,6.875 0.225,12.5 0.5,12.5 0.275,0 0.4752,-5.85004 0.5,-13 L 187.5,245.53125 z m -33.03125,0.90625 0.21875,19.25 0.21875,19.25 0.3125,-18.75 0.28125,-18.75 2.375,0 c 1.5203,0 2.53826,0.71232 2.875,2 0.38501,1.47227 1.37251,2 3.71875,2 2.34624,0 3.33374,-0.52773 3.71875,-2 0.58752,-2.24667 4.79469,-2.80771 5.625,-0.75 0.30132,0.74674 0.5153,0.54544 0.5625,-0.5 0.0608,-1.34837 -0.70951,-1.75 -3.40625,-1.75 -2.83333,0 -3.5,0.38095 -3.5,2 0,1.55556 -0.66667,2 -3,2 -2.33333,0 -3,-0.44444 -3,-2 0,-1.61905 -0.66667,-2 -3.5,-2 l -3.5,0 z m 50,0 0.21875,13.25 0.21875,13.25 0.3125,-12.75 0.3125,-12.75 11.4375,0 11.4375,0 0.3125,12.75 0.3125,12.75 0.21875,-13.25 0.21875,-13.25 -12.5,0 -12.5,0 z m 44,0 0.21875,13.25 0.21875,13.25 0.3125,-12.75 c 0.28521,-11.63498 0.46485,-12.75 2.15625,-12.75 1.01942,0 2.08734,0.9 2.375,2 0.37919,1.45004 1.37631,2 3.59375,2 2.03498,0 3.41281,-0.66927 4.125,-2 0.5887,-1.1 1.88975,-2 2.90625,-2 1.0165,0 2.08734,0.9 2.375,2 0.38501,1.47227 1.37251,2 3.71875,2 2.34624,0 3.33374,-0.52773 3.71875,-2 0.28947,-1.10692 1.36389,-2 2.40625,-2 1.77474,0 1.875,1.03823 1.875,18 0,9.9 0.225,18 0.5,18 0.275,0 0.5,-8.325 0.5,-18.5 l 0,-18.5 -3,0 c -2.33333,0 -3,0.44444 -3,2 0,1.55556 -0.66667,2 -3,2 -2.33333,0 -3,-0.44444 -3,-2 0,-1.54534 -0.67156,-2 -2.9375,-2 -2.05436,0 -3.11783,0.59896 -3.5625,2 -0.44467,1.40104 -1.50814,2 -3.5625,2 -2.26594,0 -2.9375,-0.45466 -2.9375,-2 0,-1.55556 -0.66667,-2 -3,-2 l -3,0 z m -52.125,27.125 c -1.45,-10e-4 -2.91773,0.0506 -4.09375,0.15625 -2.35204,0.21125 -0.68125,0.371 3.71875,0.375 4.4,0.004 6.32921,-0.16013 4.28125,-0.375 -1.02398,-0.10764 -2.45625,-0.155 -3.90625,-0.15625 z m 42.21875,0 c -1.63125,10e-4 -3.21455,0.0514 -4.375,0.15625 -2.32091,0.20972 -0.16875,0.378 4.78125,0.375 4.95,-0.003 6.84784,-0.16833 4.21875,-0.375 -1.31455,-0.10311 -2.99375,-0.15731 -4.625,-0.15625 z m 102.5,9.46875 c -0.11262,0.0748 -0.42018,0.70155 -0.96875,1.90625 -0.75133,1.65 -1.66268,4.125 -2,5.5 -0.49259,2.00784 -0.34714,1.90941 0.75,-0.5 0.75133,-1.65 1.66268,-4.125 2,-5.5 0.2463,-1.00392 0.33137,-1.48105 0.21875,-1.40625 z m -42,0.40625 -9.0625,0.1875 -9.03125,0.1875 8.96875,0.5625 9,0.5625 9.6875,14 c 5.33998,7.7 9.74715,14.64208 9.78125,15.40625 0.1485,3.32419 -13.27137,22.1669 -23.65625,33.21875 -22.56466,24.01386 -48.14284,35.9107 -77.125,35.875 -19.31616,-0.0238 -37.3541,-5.32276 -54.75,-16.0625 -10.7829,-6.65705 -27.93807,-23.24959 -35.09375,-33.9375 -5.77213,-8.62141 -11.3125,-18.23678 -11.3125,-19.625 0,-0.52298 4.08157,-6.77373 9.0625,-13.90625 l 9.0625,-12.96875 10.1875,-0.5625 10.1875,-0.59375 -10.40625,0.0937 -10.375,0.0625 -9.375,13.28125 c -5.14518,7.30465 -9.34375,13.84758 -9.34375,14.53125 0,0.68367 2.00628,4.77269 4.46875,9.09375 17.96114,31.51771 45.78921,52.80868 78.53125,60.09375 9.02144,2.00726 34.10864,1.42978 43,-1 27.44969,-7.50129 51.98381,-26.73677 71.625,-56.125 L 320.5,314.71875 309.78125,299.0625 299.0625,283.4375 z m 38.21875,10.1875 c -0.17466,0.004 -0.47927,0.29688 -0.8125,0.8125 -0.53316,0.825 -0.96875,1.95 -0.96875,2.5 0,0.55 0.43559,0.325 0.96875,-0.5 0.53316,-0.825 0.96875,-1.95 0.96875,-2.5 0,-0.20625 -0.0515,-0.31499 -0.15625,-0.3125 z m -1.875,5.28125 c -0.34347,0.18241 -3.11596,5.47874 -6.4375,12.34375 -7.45995,15.41834 -11.71875,22.75417 -19.34375,33.1875 -12.24112,16.74957 -27.91427,30.35273 -44.53125,38.625 -5.01205,2.4951 -8,4.19945 -6.625,3.8125 4.2149,-1.18618 12.11382,-5.39655 20.59375,-11 13.76774,-9.09759 28.54891,-25.19002 39.4375,-42.9375 4.6117,-7.51666 16.977,-32.34795 16.9375,-34 -8.2e-4,-0.0344 -0.008,-0.0434 -0.0312,-0.0312 z m -151.25,88.71875 c -0.62818,0.0163 0.68002,0.63095 4.3125,1.84375 3.025,1.00998 6.4,1.84975 7.5,1.84375 1.1,-0.006 -0.925,-0.86476 -4.5,-1.90625 -4.11974,-1.2002 -6.68432,-1.7975 -7.3125,-1.78125 z m 70.03125,0.25 c -1.27033,0.10499 -4.18941,0.84997 -6.21875,1.71875 -1.34915,0.57759 -0.86102,0.66804 1.5,0.25 1.925,-0.34083 4.175,-1.03681 5,-1.53125 0.44389,-0.26603 0.44081,-0.4044 0.15625,-0.4375 -0.10671,-0.0124 -0.25602,-0.015 -0.4375,0 z m -9.59375,2.90625 c -0.21608,-0.0512 -1.21792,0.0759 -3.125,0.34375 -2.475,0.34761 -7.2,0.96963 -10.5,1.40625 -5.76594,0.76287 -5.70743,0.7966 1.5,0.375 4.125,-0.24129 8.85,-0.89457 10.5,-1.4375 1.27139,-0.41836 1.84108,-0.63634 1.625,-0.6875 z m -43.21875,1.25 c -0.8904,0.0411 -0.91314,0.15679 0.0937,0.375 3.60596,0.78146 14.64836,1.30207 13.90625,0.65625 -0.22917,-0.19943 -4.23125,-0.58485 -8.90625,-0.875 -2.4453,-0.15177 -4.20335,-0.19738 -5.09375,-0.15625 z m 18.21875,1.53125 c -0.725,0.004 -1.39695,0.0624 -1.875,0.1875 -0.95609,0.25029 0.05,0.4486 2.25,0.4375 2.2,-0.0111 2.99391,-0.22956 1.75,-0.46875 -0.62196,-0.11959 -1.4,-0.15991 -2.125,-0.15625 z m -57.03125,5.875 c -1.57736,0 -10.27686,8.5213 -22.09375,21.59375 -3.022,3.34309 0.35,0.0515 7.5,-7.28125 7.15,-7.33273 13.71,-13.3145 14.5625,-13.3125 0.8525,0.002 2.16653,0.5625 2.9375,1.25 1.19257,1.06341 1.18905,0.98877 0.0625,-0.5 -0.72832,-0.9625 -2.0607,-1.75 -2.96875,-1.75 z m 112.8125,0.59375 c -1.5216,-0.007 -3.04807,0.17329 -4.59375,0.5625 -9.19403,2.31508 -16.61981,13.34418 -14.8125,22 1.64639,7.88511 7.60796,14.48677 15.25,16.875 10.37587,3.24258 24.15735,-7.29727 24.21875,-18.53125 0.0633,-11.59729 -9.41128,-20.85737 -20.0625,-20.90625 z m -0.46875,1.09375 c 0.36139,-0.0131 0.7294,-0.009 1.09375,0 2.69056,0.0634 5.44591,0.74229 8.125,2.125 15.39462,7.94532 12.72912,30.48141 -4.15625,35.09375 -4.93244,1.34733 -5.07999,1.33416 -10,-0.40625 -5.25945,-1.86048 -11.06595,-8.1481 -12.5625,-13.625 -3.29779,-12.06882 6.29693,-22.78001 17.5,-23.1875 z m -108.875,2.8125 -0.3125,18.375 c -0.29506,17.72964 -0.37037,18.34346 -2.28125,17.84375 -1.12696,-0.2947 -1.71363,-0.11041 -1.375,0.4375 0.32704,0.52916 1.33878,0.80006 2.25,0.625 1.46968,-0.28235 1.6582,-2.38174 1.6875,-18.78125 l 0.0312,-18.5 z M 274.5,405.5 c -4.40248,0.11015 -8.69594,2.36614 -11.1875,7.25 -3.81747,7.48287 -1.10503,16.20301 6.21875,19.9375 9.60008,4.89519 19.9375,-1.45232 19.9375,-12.25 0,-9.36021 -7.63128,-15.12108 -14.96875,-14.9375 z m -113.09375,0.4375 -5.53125,5.875 c -3.03678,3.22234 -5.22748,6.14734 -4.875,6.5 0.35249,0.35266 2.52066,1.38073 4.8125,2.3125 2.29185,0.93177 4.49375,1.7193 4.90625,1.75 0.4125,0.0307 0.73875,-3.65 0.71875,-8.1875 l -0.0312,-8.25 z m 112.875,0.5625 c 5.01854,-0.22457 10.33364,2.41273 12.625,6.84375 0.8517,1.64701 1.5625,5.05211 1.5625,7.5625 0,3.76518 -0.57195,5.19989 -3.28125,8.15625 -8.2149,8.964 -22.71875,2.61597 -22.71875,-9.9375 0,-3.9569 3.4882,-9.61345 7.03125,-11.40625 1.48411,-0.75097 3.1084,-1.14389 4.78125,-1.21875 z m -86.3125,0.4375 c -4.0043,0 -5.08854,0.47743 -7.59375,3.28125 -1.60488,1.79617 -2.8621,4.27117 -2.8125,5.5 0.0682,1.6886 0.31455,1.4226 1.03125,-1.0625 2.89677,-10.04441 18.875,-8.35302 18.875,2 0,1.711 0.14775,2.91666 0.34375,2.6875 0.63593,-0.74356 1.67793,-7.27168 1.0625,-6.65625 -0.32808,0.32808 -1.84872,-0.81931 -3.40625,-2.5625 -2.41372,-2.70142 -3.52464,-3.1875 -7.5,-3.1875 z m -27.5,1 0,6.75 c 0.001,3.7125 -0.1125,6.7158 -0.25,6.6875 -1.734,-0.3574 -7.75075,-3.29832 -7.71875,-3.78125 0.0234,-0.35368 1.82494,-2.68125 4,-5.15625 l 3.96875,-4.5 z M 239.5625,409.5 c -2.14331,0.0607 -5.54522,0.45206 -7.09375,0.96875 -1.61389,0.53851 -0.55056,0.64878 3,0.28125 3.025,-0.31312 5.67708,-0.73701 5.90625,-0.9375 0.30044,-0.26285 -0.52651,-0.34891 -1.8125,-0.3125 z m 4.53125,0.0625 c -2.01689,0.11069 -2.03345,0.13207 -0.125,0.59375 0.68624,0.16601 1.37415,0.45441 2.03125,0.84375 0.52832,-0.14569 0.97756,-0.21012 1.3125,-0.15625 -1.12415,-0.82673 -2.25949,-1.3339 -3.21875,-1.28125 z m 3.21875,1.28125 c 0.23977,0.17633 0.48315,0.358 0.71875,0.5625 -0.0673,-0.14302 -0.14953,-0.27453 -0.25,-0.375 -0.10709,-0.10709 -0.2812,-0.15734 -0.46875,-0.1875 z m 0.71875,0.5625 c 0.17515,0.37234 0.23855,0.87099 0.21875,1.46875 1.38982,1.48185 2.45343,3.36725 2.8125,5.28125 0.34944,1.86268 0.86368,3.16757 1.125,2.90625 0.26132,-0.26131 0.17473,-1.81953 -0.1875,-3.46875 -0.48263,-2.19741 -2.12857,-4.5902 -3.96875,-6.1875 z M 248.25,412.875 c -0.69029,-0.736 -1.43644,-1.39295 -2.25,-1.875 -1.91496,0.52808 -4.78874,2.16459 -6.78125,3.53125 0.43475,-0.0403 0.91249,-0.0595 1.4375,-0.0625 3.0418,-0.0174 5.41208,1.99979 5.75,4.75 0.98521,-2.13545 1.78637,-4.6115 1.84375,-6.34375 z m -1.84375,6.34375 c -0.93216,2.02046 -2.03099,3.7358 -2.875,4.1875 -3.85948,2.06553 -5.77231,1.28149 -6.40625,-2.625 -0.3263,-2.01092 -0.34932,-4.03592 -0.0625,-4.5 0.21677,-0.35075 1.06323,-1.0003 2.15625,-1.75 -3.97304,0.36853 -4.24935,2.47029 -2.125,10.0625 0.37858,1.35301 1.02199,1.52319 3.5,0.8125 4.17677,-1.19788 5.875,-2.80196 5.875,-5.53125 0,-0.2277 -0.0356,-0.43703 -0.0625,-0.65625 z M 203.625,410 c -0.88376,0.0398 -0.8282,0.18592 0.34375,0.40625 4.2077,0.79109 15.12015,1.28528 14.40625,0.65625 -0.22917,-0.20192 -4.45625,-0.58525 -9.40625,-0.875 -2.63689,-0.15435 -4.45999,-0.22731 -5.34375,-0.1875 z m 21.21875,0.6875 c -0.31092,0.0147 -0.75669,0.0532 -1.375,0.0937 -0.86307,0.0566 -1.50465,0.20643 -1.96875,0.78125 l 2.0625,-0.4375 c 1.77541,-0.37252 2.21402,-0.48157 1.28125,-0.4375 z m -3.34375,0.875 -0.3125,0.0625 0.0312,0.4375 c 0.0901,-0.18733 0.17142,-0.36397 0.28125,-0.5 z m -0.28125,0.5 c -0.94878,1.97303 -0.85664,7.00817 -0.25,20.125 0.38792,8.3875 0.90383,15.25 1.15625,15.25 0.25242,0 0.13887,-8.05479 -0.25,-17.90625 l -0.65625,-17.46875 z m -2.03125,0.5625 c -0.0434,-0.0196 -0.13738,0.53148 -0.375,1.65625 -0.4232,2.00317 -1.00036,2.3007 -3.84375,1.96875 -3.22441,-0.37643 -3.35387,-0.24897 -3.875,3.65625 -0.29649,2.2218 -0.7997,7.63125 -1.125,12.03125 -1.01246,13.69427 -1.43058,15.34238 -3.84375,15.8125 l -2.15625,0.40625 2.1875,0.15625 c 1.20504,0.0749 2.48449,-0.3562 2.84375,-0.9375 0.35927,-0.5813 1.0829,-6.0938 1.59375,-12.25 1.4618,-17.61631 1.42396,-17.51428 5.15625,-17.875 2.62675,-0.25387 3.24122,-0.77063 3.375,-2.8125 0.0784,-1.19668 0.10585,-1.79292 0.0625,-1.8125 z m 10.53125,0.25 c -0.23375,0.23376 1.03966,8.08951 2.84375,17.46875 1.8041,9.37924 3.48299,16.86076 3.71875,16.625 0.23576,-0.23576 -1.0689,-8.09152 -2.875,-17.46875 -1.8061,-9.37723 -3.45374,-16.85875 -3.6875,-16.625 z m -41.75,0.0625 c -3.44396,0 -4.09492,0.35903 -4.96875,2.84375 -0.90744,2.58028 -0.64814,3.15358 2.5,5.8125 9.89416,8.3566 9.27745,7.48069 8.71875,12.4375 -0.87084,7.72603 -7.7297,12.87208 -13.96875,10.5 -4.23604,-1.61054 -6.75252,-5.06188 -6.9375,-9.53125 l -0.1875,-4.0625 -0.40625,3.84375 c -0.48608,4.68724 1.66057,8.27275 6.0625,10.1875 4.23358,1.84152 5.60169,1.81398 9.625,-0.34375 6.09325,-3.26784 8.932,-12.03764 5.5,-16.9375 -0.84947,-1.21279 -3.54947,-3.59524 -6,-5.28125 -2.45052,-1.686 -4.4375,-3.84892 -4.4375,-4.8125 0,-2.35992 1.94226,-4.15625 4.5,-4.15625 2.56259,0 4.5,1.78453 4.5,4.15625 0,0.97065 1.0125,2.27531 2.25,2.875 1.88895,0.91539 2.01406,0.87698 0.75,-0.21875 -0.82812,-0.71785 -1.97112,-2.6625 -2.53125,-4.3125 -0.90144,-2.65544 -1.4708,-3 -4.96875,-3 z m 38.5625,0.75 c -0.64561,0.0628 -0.27863,20.86492 0.53125,28.5 0.30628,2.8875 0.63133,5.25 0.75,5.25 0.53189,0 -0.64879,-32.6365 -1.21875,-33.6875 -0.0229,-0.0423 -0.0417,-0.0645 -0.0625,-0.0625 z m -19.84375,1.75 -2.875,0.125 c -2.55066,0.12162 -2.59349,0.19161 -0.46875,0.59375 2.28013,0.43154 2.35056,0.71823 1.78125,6.625 -0.32673,3.38993 -0.79722,10.20625 -1.0625,15.15625 -0.43215,8.06354 -0.40056,8.32367 0.34375,2.5 0.45691,-3.575 1.16509,-10.6625 1.5625,-15.75 l 0.71875,-9.25 z m -29,3.625 c -0.12483,0.0277 -0.17704,0.29361 -0.1875,0.8125 -0.0222,1.10186 2.34509,4.14726 5.46875,7.03125 5.75429,5.31278 6.77362,8.13263 3.9375,10.96875 -3.20846,3.20846 -7.29463,1.50805 -8.3125,-3.46875 -0.37171,-1.81747 -1.12039,-3.38175 -1.65625,-3.46875 -0.53587,-0.087 -0.63125,0.0208 -0.21875,0.25 0.4125,0.22917 0.75,1.70827 0.75,3.28125 0,1.82179 0.80302,3.41463 2.21875,4.40625 6.03466,4.22684 12.32189,-1.7905 8.78125,-8.40625 -0.54304,-1.01469 -2.60043,-2.86181 -4.59375,-4.09375 -1.99331,-1.23193 -4.22664,-3.63902 -4.96875,-5.34375 -0.60147,-1.38163 -1.0107,-2.01487 -1.21875,-1.96875 z m -30.59375,2.375 -2.90625,2.75 c -1.59367,1.51609 -3.36752,3.65 -3.9375,4.75 -0.5708,1.10157 0.71893,0.31544 2.875,-1.75 2.15301,-2.0625 4.44512,-3.75 5.09375,-3.75 0.64863,0 3.66803,1.10215 6.6875,2.4375 l 5.46875,2.40625 -0.40625,5.34375 -0.4375,5.3125 1,-5.4375 c 0.54173,-2.98761 0.60989,-5.7546 0.1875,-6.15625 -0.42238,-0.40165 -3.64634,-1.88568 -7.1875,-3.3125 l -6.4375,-2.59375 z M 251.25,422.5 c -0.13713,0.0105 -0.35582,0.30153 -0.71875,0.875 -0.64137,1.01342 -0.0813,2.17663 1.9375,4.0625 3.615,3.37692 4.7095,8.71903 2.625,12.75 -1.65218,3.19496 -4.39657,4.65871 -12.8125,6.8125 -5.27966,1.35117 -5.27697,1.32988 -0.8125,0.78125 14.23369,-1.74917 20.06275,-11.19379 12.46875,-20.21875 -1.35312,-1.60809 -2.492,-3.53564 -2.5,-4.28125 -0.006,-0.54527 -0.0504,-0.79173 -0.1875,-0.78125 z m -6.59375,6.96875 c -5.98975,0.0249 -6.58437,0.82809 -5.21875,7.40625 l 1.1875,5.6875 3.1875,-0.65625 c 5.16263,-1.07488 7.65625,-3.16151 7.65625,-6.40625 0,-3.9327 -2.38673,-6.04965 -6.8125,-6.03125 z m -0.0625,1.125 c 1.87038,-0.0318 3.74921,0.33502 4.4375,0.90625 2.02118,1.67743 1.82277,6.68695 -0.3125,7.78125 -0.9625,0.49327 -2.96858,1.17279 -4.46875,1.53125 -2.9454,0.70381 -3.60155,-0.40129 -4.0625,-6.875 -0.19931,-2.79917 0.0297,-3.01903 3.59375,-3.3125 0.26261,-0.0216 0.5453,-0.0267 0.8125,-0.0312 z M 224.5625,448.5625 c -0.3474,0.0143 -0.64635,0.1151 -0.8125,0.28125 -0.33229,0.33229 0.25834,0.57465 1.3125,0.53125 1.16495,-0.048 1.39148,-0.30578 0.59375,-0.625 -0.36094,-0.14445 -0.74635,-0.2018 -1.09375,-0.1875 z"
       style="fill:#0061a2;fill-opacity:1"
       inkscape:connector-curvature="0" />
    <path
       inkscape:connector-curvature="0"
       id="path3785"
       d="m 130.47302,423.61293 c 0.041,-0.0528 5.99892,-5.97987 13.23995,-13.17128 l 13.16552,-13.07528 2.42542,1.12008 2.42543,1.12007 -1.08589,18.12664 c -0.59723,9.96966 -1.09921,18.34861 -1.11549,18.6199 l -0.0296,0.49326 -2.19905,-1.01812 -2.19906,-1.01812 0.39353,-4.72912 0.39353,-4.72913 -7.21984,-3.25872 -7.21985,-3.25872 -3.30042,3.4405 -3.30043,3.44049 -2.2241,-1.00319 c -1.82433,-0.82294 -2.21069,-1.02052 -2.14965,-1.09922 l 1e-5,-3e-5 z M 156.1747,421.128 c -0.005,-0.0421 0.27846,-4.18936 0.63058,-9.21619 0.35213,-5.02681 0.62784,-9.17823 0.61267,-9.22539 -0.0212,-0.0658 -6.72144,6.6843 -12.56468,12.65812 l -0.50595,0.51726 5.91852,2.67136 c 3.25518,1.46925 5.91417,2.63693 5.90887,2.59482 z"
       style="color:#000000;fill:#ffffff;fill-opacity:1;fill-rule:nonzero;stroke:none;stroke-width:2;marker:none;visibility:visible;display:inline;overflow:visible;enable-background:accumulate" />
    <path
       inkscape:connector-curvature="0"
       id="path3787"
       d="m 172.72936,439.7913 c -2.43996,-0.69016 -5.05759,-1.86846 -7.70654,-3.469 l -1.22548,-0.74047 0.50294,-2.33538 0.50294,-2.33538 1.04452,0.85544 c 1.16169,0.95139 1.70619,1.3507 2.78181,2.04 3.88394,2.48903 8.52718,3.59849 11.73603,2.8042 2.57779,-0.63808 4.18042,-2.67384 4.31843,-5.48552 0.10967,-2.23466 -0.98445,-3.92576 -3.50923,-5.42395 -0.41373,-0.2455 -1.9124,-0.96762 -3.3304,-1.60473 -3.94725,-1.7735 -5.57248,-2.7665 -7.05365,-4.30971 -1.76318,-1.83706 -2.39351,-3.91679 -2.04465,-6.74628 0.4096,-3.32227 2.25176,-6.06336 4.95206,-7.36863 2.6353,-1.27382 5.50496,-1.45695 9.34155,-0.59611 2.98121,0.6684 5.42965,1.62135 8.40899,3.27106 l 1.13877,0.63055 -0.49716,2.20387 -0.49715,2.20386 -0.98457,-0.71641 c -2.81347,-2.0472 -5.20333,-3.20279 -7.88252,-3.81149 -2.13469,-0.48463 -3.62914,-0.53789 -5.15996,-0.18273 -0.71158,0.16514 -1.04881,0.30651 -1.69975,0.71275 -1.23144,0.76851 -1.76839,1.50488 -2.1771,2.98561 -0.77484,2.80715 0.0306,4.41373 3.04659,6.0768 0.38801,0.21396 1.94144,0.95008 3.45204,1.63584 1.5106,0.68573 3.10342,1.44703 3.5396,1.69176 2.10909,1.18335 3.557,2.45026 4.56266,3.99238 1.35656,2.08015 1.68287,4.3731 1.03088,7.24389 -0.45176,1.989 -0.9869,3.15771 -2.03783,4.4503 -2.48105,3.05153 -6.54908,3.97009 -12.50108,2.82273 -0.52121,-0.10046 -1.445,-0.32289 -2.05267,-0.49524 l 0,0 z"
       style="color:#000000;fill:#ffffff;fill-opacity:1;fill-rule:nonzero;stroke:none;stroke-width:2;marker:none;visibility:visible;display:inline;overflow:visible;enable-background:accumulate" />
    <path
       inkscape:connector-curvature="0"
       id="path3789"
       d="m 206.6417,428.87246 0.28243,-15.51893 -6.18126,-0.11249 -6.18127,-0.11249 0.0351,-1.9289 0.0351,-1.92891 14.72982,0.26807 14.72982,0.26807 -0.0351,1.92891 -0.0351,1.9289 -6.18127,-0.11249 -6.18126,-0.1125 -0.28244,15.51892 -0.28243,15.5189 -2.36729,-0.0431 -2.36729,-0.0431 0.28244,-15.51891 z"
       style="color:#000000;fill:#ffffff;fill-opacity:1;fill-rule:nonzero;stroke:none;stroke-width:2;marker:none;visibility:visible;display:inline;overflow:visible;enable-background:accumulate" />
    <path
       inkscape:connector-curvature="0"
       id="path3791"
       d="m 228.85429,426.68715 -1.82408,-17.35512 2.3111,-0.2429 2.31111,-0.2429 1.82407,17.35512 1.82408,17.35512 -2.31111,0.2429 -2.31111,0.2429 -1.82406,-17.35512 z"
       style="color:#000000;fill:#ffffff;fill-opacity:1;fill-rule:nonzero;stroke:none;stroke-width:2;marker:none;visibility:visible;display:inline;overflow:visible;enable-background:accumulate" />
    <path
       inkscape:connector-curvature="0"
       id="path3793"
       d="m 241.04396,424.83943 -4.21983,-16.93713 7.09097,-1.73618 c 6.95705,-1.70335 7.11036,-1.73711 8.11743,-1.78766 4.77277,-0.23941 7.82773,1.51325 9.19203,5.27369 0.80576,2.22089 0.82631,4.58916 0.0545,6.28129 -0.5029,1.10257 -1.68257,2.29562 -2.88447,2.91722 -0.30822,0.15944 -0.61309,0.32321 -0.67749,0.364 -0.0643,0.0408 0.2314,0.0879 0.6573,0.10466 3.53233,0.13899 6.10689,1.68106 7.67691,4.59815 0.33119,0.61536 0.4312,0.91671 0.81184,2.44629 0.3863,1.5523 0.43294,1.83238 0.42313,2.54244 -0.0241,1.75266 -0.43223,3.19352 -1.28305,4.52999 -1.3825,2.17163 -3.56052,3.68796 -6.89283,4.79874 -0.57277,0.19093 -3.92258,1.06592 -7.44402,1.94441 l -6.40259,1.59725 -4.21984,-16.93715 z m 17.09447,9.65658 c 2.80323,-1.12738 4.14057,-2.84252 4.19196,-5.37617 0.0171,-0.84474 -0.62735,-3.43149 -1.03881,-4.16945 -0.94621,-1.69706 -2.36301,-2.61167 -4.30023,-2.77602 -1.45241,-0.12322 -1.75856,-0.0723 -6.68718,1.11142 l -4.58327,1.10079 1.55995,6.26119 1.55995,6.26118 4.33347,-1.07967 c 2.60807,-0.64979 4.58459,-1.18067 4.96415,-1.33335 l 0,0 z m -4.62595,-16.0161 c 2.58004,-1.05041 3.78121,-2.53323 3.8023,-4.69386 0.007,-0.72602 -0.37048,-2.25789 -0.72895,-2.95883 -1.02652,-2.00537 -2.95189,-2.77976 -5.9223,-2.38197 -0.4669,0.0626 -2.50877,0.5287 -4.62577,1.05614 l -3.78989,0.94424 1.28261,5.14799 1.2826,5.14799 4.0626,-1.01425 c 2.25688,-0.56329 4.31795,-1.11794 4.63702,-1.24784 l 0,-10e-6 z"
       style="color:#000000;fill:#ffffff;fill-opacity:1;fill-rule:nonzero;stroke:none;stroke-width:2;marker:none;visibility:visible;display:inline;overflow:visible;enable-background:accumulate" />
    <path
       inkscape:connector-curvature="0"
       id="path3795"
       d="m 287.03979,431.10502 c -5.55274,1.53668 -10.82688,0.18785 -14.85353,-3.79867 -1.4601,-1.44555 -2.60475,-3.05917 -3.75907,-5.29921 -0.49599,-0.96248 -1.96617,-5.29319 -2.19878,-6.47694 -0.66101,-3.3637 -0.57099,-6.28422 0.28122,-9.1243 0.38529,-1.284 1.56051,-3.59481 2.3432,-4.60734 2.14519,-2.77517 5.03243,-4.61489 8.93558,-5.69368 1.33172,-0.36808 1.99826,-0.48933 3.2824,-0.59706 5.46553,-0.4585 10.68344,2.26668 13.96189,7.29199 1.22219,1.8734 1.72946,2.95633 2.63557,5.62644 0.69083,2.03575 0.83384,2.54211 1.02259,3.62157 0.76237,4.35955 0.3128,8.00521 -1.39193,11.28733 -2.00336,3.8571 -5.39079,6.42259 -10.25914,7.76987 z m 1.06467,-4.34598 c 3.86605,-1.72904 6.03134,-5.16177 6.16297,-9.77041 0.0633,-2.21554 -0.27215,-4.11056 -1.22938,-6.94481 -0.89316,-2.64438 -1.67406,-4.21512 -2.92688,-5.8868 -3.64339,-4.86144 -8.96987,-6.09032 -14.22891,-3.28275 -3.91083,2.08783 -5.84815,6.55102 -5.15654,11.8796 0.22517,1.73475 0.53941,2.92992 1.35241,5.14359 1.137,3.09597 2.22923,4.91871 3.99542,6.66786 2.83852,2.81113 6.21793,3.80395 9.9213,2.91475 1.02906,-0.2471 1.11751,-0.27732 2.10956,-0.72117 l 0,0 z"
       style="color:#000000;fill:#ffffff;fill-opacity:1;fill-rule:nonzero;stroke:none;stroke-width:2;marker:none;visibility:visible;display:inline;overflow:visible;enable-background:accumulate" />
    <rect
       y="235.28554"
       x="203.37587"
       height="7.4024987"
       width="27.154615"
       id="rect3797"
       style="fill:#0061a2;fill-opacity:1;fill-rule:evenodd;stroke:none" />
    <path
       transform="matrix(1.0672909,-0.00994582,0.00703683,0.81191823,-14.257452,53.844001)"
       inkscape:transform-center-y="-3.022518"
       inkscape:transform-center-x="0.041554051"
       d="m 228.07061,222.90683 -12.90346,-0.15254 -12.90346,-0.15253 6.58383,-11.09846 6.58383,-11.09846 6.31963,11.25099 z"
       inkscape:randomized="0"
       inkscape:rounded="0"
       inkscape:flatsided="false"
       sodipodi:arg2="1.5826171"
       sodipodi:arg1="0.53541954"
       sodipodi:r2="7.4503384"
       sodipodi:r1="14.900677"
       sodipodi:cy="215.30447"
       sodipodi:cx="215.25522"
       sodipodi:sides="3"
       id="path3799"
       style="fill:#0061a2;fill-opacity:1;fill-rule:evenodd;stroke:none"
       sodipodi:type="star" />
    <rect
       y="245.35782"
       x="154.46603"
       height="5.6831675"
       width="33.050323"
       id="rect3808"
       style="fill:#0061a2;fill-opacity:1;fill-rule:evenodd;stroke:none" />
    <rect
       y="245.05962"
       x="247.45796"
       height="5.6831675"
       width="33.087925"
       id="rect3808-8"
       style="fill:#0061a2;fill-opacity:1;fill-rule:evenodd;stroke:none" />
    <rect
       y="244.11278"
       x="160.50917"
       height="6.6083899"
       width="6.9971189"
       id="rect3828"
       style="fill:#ffffff;fill-opacity:1;fill-rule:evenodd;stroke:none" />
    <rect
       y="244.26079"
       x="174.20583"
       height="6.4140253"
       width="6.9971189"
       id="rect3828-0"
       style="fill:#ffffff;fill-opacity:1;fill-rule:evenodd;stroke:none" />
    <rect
       y="243.7998"
       x="253.8656"
       height="6.6083899"
       width="6.9971189"
       id="rect3828-1"
       style="fill:#ffffff;fill-opacity:1;fill-rule:evenodd;stroke:none" />
    <rect
       y="243.94781"
       x="267.56226"
       height="6.4140253"
       width="6.9971189"
       id="rect3828-0-2"
       style="fill:#ffffff;fill-opacity:1;fill-rule:evenodd;stroke:none" />
    <path
       inkscape:connector-curvature="0"
       id="path3873"
       d="m 126.71436,67.309918 0,-18.1206 4.88779,0 4.8878,0 0,14.66338 0,14.66338 6.55679,0 6.55679,0 0,-14.66338 0,-14.66338 4.8878,0 4.88779,0 0,14.66338 0,14.66338 6.55679,0 6.5568,0 0,-14.66338 0,-14.66338 4.88779,0 4.88779,0 0,18.1206 0,18.12059 -27.77696,0 -27.77697,0 0,-18.12059 z"
       style="color:#000000;fill:#0061a2;fill-opacity:1;fill-rule:nonzero;stroke:none;stroke-width:2;marker:none;visibility:visible;display:inline;overflow:visible;enable-background:accumulate" />
    <path
       inkscape:connector-curvature="0"
       id="path3875"
       d="m 200.38888,70.767138 0,-14.66338 -6.43758,0 -6.43758,0 0,-3.45722 0,-3.45722 17.76296,0 17.76295,0 0,3.45722 0,3.45722 -6.43758,0 -6.43758,0 0,14.66338 0,14.66337 -4.88779,0 -4.8878,0 0,-14.66337 z"
       style="color:#000000;fill:#0061a2;fill-opacity:1;fill-rule:nonzero;stroke:none;stroke-width:2;marker:none;visibility:visible;display:inline;overflow:visible;enable-background:accumulate" />
    <path
       inkscape:connector-curvature="0"
       id="path3877"
       d="m 228.28506,67.309918 0,-18.1206 4.64726,0 4.64725,0 0.0617,12.57393 0.0617,12.57393 7.03646,-12.51432 7.03646,-12.51432 5.54066,-0.064 5.54067,-0.064 0,18.12498 0,18.12499 -4.64726,0 -4.64725,0 -0.0617,-12.56774 -0.0617,-12.56775 -7.03365,12.56102 -7.03366,12.56102 -5.54347,0.007 -5.54347,0.007 0,-18.12059 z"
       style="color:#000000;fill:#0061a2;fill-opacity:1;fill-rule:nonzero;stroke:none;stroke-width:2;marker:none;visibility:visible;display:inline;overflow:visible;enable-background:accumulate" />
    <path
       inkscape:connector-curvature="0"
       id="path3879"
       d="m 272.87126,67.309918 0,-18.1206 17.16688,0 17.16688,0 0,18.1206 0,18.12059 -4.88779,0 -4.8878,0 0,-14.66337 0,-14.66338 -7.39129,0 -7.3913,0 0,14.66338 0,14.66337 -4.88779,0 -4.88779,0 0,-18.12059 z"
       style="color:#000000;fill:#0061a2;fill-opacity:1;fill-rule:nonzero;stroke:none;stroke-width:2;marker:none;visibility:visible;display:inline;overflow:visible;enable-background:accumulate" />
  </g>
</svg>
