<?xml version="1.0" encoding="UTF-8" standalone="no"?>
<!-- Created with Inkscape (http://www.inkscape.org/) -->

<svg
   xmlns:dc="http://purl.org/dc/elements/1.1/"
   xmlns:cc="http://creativecommons.org/ns#"
   xmlns:rdf="http://www.w3.org/1999/02/22-rdf-syntax-ns#"
   xmlns:svg="http://www.w3.org/2000/svg"
   xmlns="http://www.w3.org/2000/svg"
   xmlns:sodipodi="http://sodipodi.sourceforge.net/DTD/sodipodi-0.dtd"
   xmlns:inkscape="http://www.inkscape.org/namespaces/inkscape"
   id="svg2"
   version="1.1"
   inkscape:version="0.48.1 "
   width="829"
   height="492"
   sodipodi:docname="Mk-vini.JPG">
  <metadata
     id="metadata8">
    <rdf:RDF>
      <cc:Work
         rdf:about="">
        <dc:format>image/svg+xml</dc:format>
        <dc:type
           rdf:resource="http://purl.org/dc/dcmitype/StillImage" />
        <dc:title></dc:title>
      </cc:Work>
    </rdf:RDF>
  </metadata>
  <defs
     id="defs6" />
  <sodipodi:namedview
     pagecolor="#ffffff"
     bordercolor="#666666"
     borderopacity="1"
     objecttolerance="10"
     gridtolerance="10"
     guidetolerance="10"
     inkscape:pageopacity="0"
     inkscape:pageshadow="2"
     inkscape:window-width="1280"
     inkscape:window-height="738"
     id="namedview4"
     showgrid="false"
     inkscape:zoom="0.60919185"
     inkscape:cx="359.96427"
     inkscape:cy="106.32295"
     inkscape:window-x="-8"
     inkscape:window-y="-8"
     inkscape:window-maximized="1"
     inkscape:current-layer="svg2" />
  <g
     id="g3903"
     transform="matrix(1.0158593,0,0,1.0200557,240.21879,0.0889944)">
    <g
       transform="translate(549.68706,21.828728)"
       id="g3888">
      <rect
         style="fill:#efab1c;fill-opacity:1;fill-rule:nonzero;stroke:none"
         id="rect3886"
         width="291.69046"
         height="385.20956"
         x="-516.5816"
         y="44.444397" />
      <path
         inkscape:connector-curvature="0"
         id="path2997"
         d="m -791.82018,219.32082 0,-245.500003 414.00001,0 414,0 0,245.500003 0,245.5 -414,0 -414.00001,0 z m 444.26795,184.3566 c 1.60294,-0.85786 2.23164,-0.85786 2.51759,0 0.5214,1.5642 13.61504,1.4869 18.05663,-0.1066 2.78732,-1 3.56818,-1 3.90433,0 0.57375,1.70686 6.06482,1.58155 7.82494,-0.17857 0.78571,-0.78572 1.42857,-2.55916 1.42857,-3.94098 0,-1.38183 0.45,-2.79053 1,-3.13045 0.55,-0.33992 1,-1.49148 1,-2.55902 0,-1.06754 0.45,-1.94098 1,-1.94098 0.55,0 1,-0.84574 1,-1.87942 0,-1.03368 1.8,-3.73419 4,-6.00114 2.2,-2.26695 4,-4.76589 4,-5.5532 0,-0.7873 0.9,-1.71711 2,-2.06624 1.96942,-0.62507 2,-1.51303 2,-58.06739 0,-37.62174 -0.34494,-57.43261 -1,-57.43261 -0.55,0 -1,-0.9 -1,-2 0,-1.1 -0.45,-2 -1,-2 -0.55,0 -1,-2.475 -1,-5.5 0,-3.025 0.37777,-5.5 0.83948,-5.5 0.46172,0 1.36171,-1.14617 2,-2.54705 0.58665,-1.28755 0.54778,-13.13341 0.53042,-24.30663 -0.0294,-18.91674 4.40585,-41.42196 3.49335,-41.42196 -0.55,0 -1.24145,-2.60663 -1.24145,-3.43163 0,-1.64817 5.13071,-5.17399 -93.5171,-5.56277 -26.675,-0.10513 -57.18141,-3.72714 -59.07906,-1.18491 -1.67521,2.24424 -8.79516,2.15503 -5.02564,6.73273 l 0,44.57659 0,18.28452 0,62.86111 3,0 c 2,0 3,-0.5 3,-1.5 0,-0.825 0.40186,-1.5 0.89301,-1.5 0.49116,0 1.15203,0.675 1.46862,1.5 0.41565,1.08317 2.11269,1.5 6.10699,1.5 4.25012,0 5.53138,-0.34745 5.53138,-1.5 0,-0.825 0.45,-1.5 1,-1.5 0.55,0 1,1.125 1,2.5 0,2 0.5,2.5 2.5,2.5 1.375,0 2.5,0.51289 2.5,1.13976 0,2.23181 3.57753,3.7971 8.75,3.82844 2.8875,0.0175 5.25,0.4818 5.25,1.0318 0,0.55 0.9,1 2,1 1.1,0 2,0.45 2,1 0,0.56586 2.87117,1 6.6135,1 l 6.6135,0 -0.69124,3.25 c -0.38018,1.7875 -0.92085,5.725 -1.20149,8.75 -0.28063,3.025 -0.92065,5.9275 -1.42226,6.45 -0.5016,0.5225 -0.91201,1.76 -0.91201,2.75 0,0.99 -0.40433,1.8 -0.89851,1.8 -0.49418,0 -1.20766,3.07839 -1.58551,6.84087 -0.50801,5.05856 -1.1858,7.20039 -2.60149,8.22076 -1.05297,0.75894 -1.91449,1.92522 -1.91449,2.59174 0,0.66652 -0.9,1.4975 -2,1.84663 -1.62885,0.51698 -2,1.51303 -2,5.36739 0,2.60293 0.54,5.27261 1.2,5.93261 0.74056,0.74056 4.37778,1.2 9.5,1.2 5.97749,0 8.29782,0.34977 8.2922,1.25 -0.007,1.1681 -4.31941,3.75 -6.26299,3.75 -1.16498,0 -3.72921,2.61536 -3.72921,3.80357 0,0.52054 1.35,1.21643 3,1.54643 2.14815,0.42963 3,1.175 3,2.625 0,1.27458 0.65934,2.025 1.77924,2.025 0.97858,0 2.42792,0.9 3.22076,2 0.79284,1.1 2.00513,2 2.69399,2 1.99545,0 10.0878,7.99446 10.7457,10.61571 0.32913,1.31136 1.26484,2.38429 2.07936,2.38429 0.81452,0 1.48095,0.51014 1.48095,1.13365 0,0.62351 1.2375,2.19796 2.75,3.49878 2.46561,2.12054 3.7134,2.36525 12.06574,2.36635 5.12366,6.7e-4 10.27715,-0.51331 11.4522,-1.14218 z m 50.52837,-296.95656 c 0.28113,-8.226005 0.20475,-16.518133 -0.76137,-24.900044 l -10.99842,0 c -10.91259,0 -13.36505,-4.113399 -13.9908,-1.620199 -0.34687,1.38204 -2.77504,6.331254 -2.5094,8.111714 0.26565,1.780464 0.49564,5.036942 0.03,6.274442 -0.79503,2.11288 1.92844,-0.702142 -6.8651,-0.702142 -8.74083,0 -4.51221,3.786399 -5.46854,1.686189 -0.5635,-1.2375 -0.8105,-3.70674 -0.5489,-5.487204 0.26161,-1.78046 0.091,-5.434783 -1.14749,-6.177169 l -3.59124,-2.152741 -10.64942,0.28356 -12.81432,-1.684545 -3.37478,6.68808 c -1.65806,3.285923 0.46289,6.575526 0.10193,7.159576 -0.39141,0.63331 -0.51186,-2.874269 -6.40527,-2.874269 -5.89341,0 -3.25853,3.31077 -3.64994,2.67746 -0.36096,-0.58405 -1.61475,-1.322713 -1.86604,-4.994672 l -0.61931,-9.049793 -15.65909,2.074873 c -6.75101,0.894528 -13.92614,-4.039399 -14.37859,-3.307299 -0.37817,0.6119 -2.16919,6.758551 -2.05567,9.329411 0.11351,2.57087 0.73544,1.553805 0.17933,2.791305 -0.94422,2.10117 2.30566,1.659572 -6.43915,1.659572 -8.79969,0 -6.26507,2.816492 -7.04113,0.702142 -0.45422,-1.2375 1.68457,-1.463287 1.86634,-3.388291 0.74801,-7.92199 -4.87624,-8 -17.15899,-8 l -10.98095,0 0,24.333334 c 0,13.38334 -0.66177,25.62206 -0.29174,25.9921 0.37004,0.37004 36.36585,-1.3432 78.71453,0.58814 25.98534,1.18508 51.97067,-0.85598 77.95601,-0.70625 z"
         style="fill:#cb0c2c;fill-opacity:1"
         sodipodi:nodetypes="cccccccccsssssssssssssssssssssssssccccssssssssssssssscsssssssssssscsssssssssssssccsssssssscccssssscsssssssscssscc" />
      <g
         id="g3864"
         transform="translate(-136.19412,179.97081)">
        <g
           id="g3875"
           transform="translate(1163.1753,-247.88559)">
          <path
             sodipodi:nodetypes="ccccccscscscsssscccccccscccccsccccsccccccccccscccccccc"
             inkscape:connector-curvature="0"
             id="path2991"
             d="m -1818.7581,164.1487 0,-122.5 414,0 414.00002,0 0,122.5 0,122.5 -165.41822,0 c -90.9801,0 -166.1301,-0.27314 -167,-0.60699 -1.3702,-0.52578 -1.5818,-3.30989 -1.5818,-20.80887 0,-15.28465 0.2057,-24.89673 -0.8059,-26.2802 -1.5824,-2.16402 -10.6778,1.84337 -99.6941,1.44327 l -57.3468,-1.25299 -0.5828,23.46776 c -0.2748,11.06332 1.2549,17.47536 0.566,20.59865 -0.3342,1.51496 1.3817,2.73661 0.5939,2.6272 -0.7941,-0.11028 -76.7178,0.78844 -168.9803,0.79686 l -167.75,0.0153 z m 494,10.5 0,-25 -11.5,0 -11.5,0 -3.9652,1.5198 c -2.5037,0.95959 -1.1964,7.95885 -1.5401,9.6776 l 1.0526,-1.60279 -6.5504,3.2027 -6.0928,-2.44015 1.9367,2.65681 c -0.3607,-1.64232 -0.4912,-5.78204 -2.0389,-7.90251 l 0.142,-4.45895 -15.2258,-0.43425 -13.5482,-1.34929 -0.624,5.62922 c -0.025,10.51813 2.9728,7.84159 -8.2413,7.84159 -11.2141,0 -6.0812,2.82905 -6.1061,-7.68908 l -4.7418,-6.39177 -12.1756,1.95933 -11.7182,0.28174 -3.0953,3.31656 c 0.1167,2.58391 0.4286,4.56505 0.4674,6.52707 l -0.7075,2.60618 -6.5304,0 -6.8554,-1.22007 -1.261,1.20037 c -0.023,-2.0393 3.3984,-6.7362 1.5361,-8.66513 l -4.1178,-4.26496 -11.5,0 -11.5,0 0,25 0,25 78,0 78,0 0,-25 z"
             style="fill:#0036a3" />
          <g
             id="g3848">
            <rect
               y="132.83531"
               x="-1491.1321"
               height="17.958235"
               width="171.20184"
               id="rect3016"
               style="fill:#0036a3;fill-opacity:1;fill-rule:nonzero;stroke:none" />
            <rect
               y="146.00467"
               x="-1457.9094"
               height="19.754057"
               width="20.65197"
               id="rect3786"
               style="fill:#0036a3;fill-opacity:1;fill-rule:nonzero;stroke:none" />
            <rect
               y="146.30399"
               x="-1413.1635"
               height="19.754057"
               width="20.65197"
               id="rect3786-5"
               style="fill:#0036a3;fill-opacity:1;fill-rule:nonzero;stroke:none" />
            <rect
               y="147.2019"
               x="-1368.8663"
               height="19.754057"
               width="20.65197"
               id="rect3786-5-1"
               style="fill:#0036a3;fill-opacity:1;fill-rule:nonzero;stroke:none" />
            <rect
               y="226.65408"
               x="-1489.5494"
               height="14.077411"
               width="187.25613"
               id="rect3824"
               style="fill:#0036a3;fill-opacity:1;fill-rule:nonzero;stroke:none" />
            <rect
               y="234.69229"
               x="-1498.0284"
               height="51.232319"
               width="17.230124"
               id="rect3826"
               style="fill:#0036a3;fill-opacity:1;fill-rule:nonzero;stroke:none" />
            <rect
               y="234.96461"
               x="-1325.441"
               height="51.232319"
               width="9.0614986"
               id="rect3826-4"
               style="fill:#0036a3;fill-opacity:1;fill-rule:nonzero;stroke:none" />
          </g>
        </g>
      </g>
    </g>
  </g>
</svg>
