<?xml version="1.0" encoding="UTF-8" standalone="no"?>
<!-- Created with Inkscape (http://www.inkscape.org/) -->

<svg
   xmlns:dc="http://purl.org/dc/elements/1.1/"
   xmlns:cc="http://creativecommons.org/ns#"
   xmlns:rdf="http://www.w3.org/1999/02/22-rdf-syntax-ns#"
   xmlns:svg="http://www.w3.org/2000/svg"
   xmlns="http://www.w3.org/2000/svg"
   xmlns:sodipodi="http://sodipodi.sourceforge.net/DTD/sodipodi-0.dtd"
   xmlns:inkscape="http://www.inkscape.org/namespaces/inkscape"
   width="800"
   height="402"
   id="svg2"
   version="1.1"
   inkscape:version="0.48.4 r9939"
   sodipodi:docname="Coat of arms of Zrnovci Municipality.svg">
  <defs
     id="defs4" />
  <sodipodi:namedview
     id="base"
     pagecolor="#ffffff"
     bordercolor="#666666"
     borderopacity="1.0"
     inkscape:pageopacity="0.0"
     inkscape:pageshadow="2"
     inkscape:zoom="0.73572025"
     inkscape:cx="416.52"
     inkscape:cy="269.51294"
     inkscape:document-units="px"
     inkscape:current-layer="layer1"
     showgrid="false"
     inkscape:window-width="1366"
     inkscape:window-height="705"
     inkscape:window-x="-8"
     inkscape:window-y="-8"
     inkscape:window-maximized="1">
    <sodipodi:guide
       position="0,0"
       orientation="0,800"
       id="guide4043" />
    <sodipodi:guide
       position="800,0"
       orientation="-402,0"
       id="guide4045" />
    <sodipodi:guide
       position="800,402"
       orientation="0,-800"
       id="guide4047" />
    <sodipodi:guide
       position="0,402"
       orientation="402,0"
       id="guide4049" />
  </sodipodi:namedview>
  <metadata
     id="metadata7">
    <rdf:RDF>
      <cc:Work
         rdf:about="">
        <dc:format>image/svg+xml</dc:format>
        <dc:type
           rdf:resource="http://purl.org/dc/dcmitype/StillImage" />
      </cc:Work>
    </rdf:RDF>
  </metadata>
  <g
     inkscape:label="Layer 1"
     inkscape:groupmode="layer"
     id="layer1"
     transform="translate(0,-650.36218)"
     style="display:inline">
    <rect
       style="fill:#da251e;fill-opacity:1;stroke:none"
       id="rect4051"
       width="800"
       height="402"
       x="0"
       y="0"
       transform="translate(0,650.36218)" />
    <g
       id="g4053"
       transform="matrix(0.32197069,0,0,0.32829347,-92.988237,659.57028)">
      <path
         sodipodi:nodetypes="cscccscscccsc"
         inkscape:connector-curvature="0"
         id="path3818"
         d="m 1318.8077,240.73116 c 24.7775,-14.7823 47.1096,-31.66061 74.1663,-44.48929 17.1985,-8.15448 36.3059,-14.67273 59.1637,-17.97636 l 98.6852,-14.6978 90.2865,14.6978 c 37.0958,8.95233 70.4049,23.11142 101.1586,40.78419 34.3347,19.73055 65.4841,43.84065 95.162,69.97423 27.5144,31.90543 55.1219,63.83199 72.2891,93.38578 13.6082,23.42692 20.6563,45.3629 15.8977,64.61556 L 1535.0753,587.70421 1182.3281,430.22778 c 5.0423,-29.46947 17.7729,-54.83848 34.4534,-78.10093 28.668,-39.98025 69.0031,-73.73811 102.0262,-111.39569 z"
         style="fill:#76c5ee;fill-opacity:1;stroke:none" />
      <path
         transform="matrix(1.2670676,0,0,1.3900525,1074.857,-154.97532)"
         d="m 449.31224,513.48657 a 73.445267,57.659523 0 1 1 -146.89053,0 73.445267,57.659523 0 1 1 146.89053,0 z"
         sodipodi:ry="57.659523"
         sodipodi:rx="73.445267"
         sodipodi:cy="513.48657"
         sodipodi:cx="375.86697"
         id="path3810"
         style="fill:#fff402;fill-opacity:1;stroke:none"
         sodipodi:type="arc" />
      <path
         sodipodi:nodetypes="cccccc"
         inkscape:connector-curvature="0"
         id="path3790-1"
         d="m 1930.6197,470.95792 -15.1778,-53.82006 c -51.3433,19.39695 -208.1643,84.48367 -366.1942,145.0327 9.3559,71.91399 60.5274,-31.1173 16.4426,19.52433 119.1103,-35.53826 253.7211,-6.93784 377.5776,-17.28588 z"
         style="fill:#988066;fill-opacity:1;stroke:none" />
      <path
         sodipodi:nodetypes="cccccc"
         inkscape:connector-curvature="0"
         id="path3790"
         d="m 1168.6613,471.59571 15.1779,-53.82006 c 51.3433,19.39695 208.1642,84.48367 366.1942,145.0327 -9.3559,71.91399 -60.5274,-31.1173 -16.4427,19.52433 -119.1102,-35.53826 -253.7211,-6.93784 -377.5776,-17.28588 z"
         style="fill:#988066;fill-opacity:1;stroke:none" />
      <path
         sodipodi:nodetypes="cccsc"
         inkscape:connector-curvature="0"
         id="path3786"
         d="m 1157.8967,561.04002 393.3014,0 393.3014,0 c -7.0272,257.55801 -208.8873,400.23444 -410.0318,392.25191 -188.7171,-7.48935 -371.6051,-141.46027 -376.571,-392.25191 z"
         style="fill:#00913e;fill-opacity:1;stroke:none" />
      <path
         transform="matrix(0.97593974,0,0,0.99209369,1153.6392,-2.5423362)"
         d="m 814.63858,567.77362 a 406.21545,398.48853 0 1 1 -812.4309079,0 406.21545,398.48853 0 1 1 812.4309079,0 z"
         sodipodi:ry="398.48853"
         sodipodi:rx="406.21545"
         sodipodi:cy="567.77362"
         sodipodi:cx="408.42313"
         id="path3014"
         style="fill:none;stroke:#fff402;stroke-width:20.10000038;stroke-linecap:round;stroke-linejoin:round;stroke-miterlimit:4;stroke-opacity:1;stroke-dasharray:none;stroke-dashoffset:0"
         sodipodi:type="arc" />
      <path
         sodipodi:nodetypes="cccccc"
         inkscape:connector-curvature="0"
         id="path3822"
         d="m 1493.0558,173.48003 119.4677,-1.94279 c -3.8801,36.13658 -35.3705,239.06229 -41.7609,288.2447 l -19.5139,0 -23.0457,-0.35319 c -10.6273,-101.59038 -24.062,-195.49351 -35.1472,-285.94872 z"
         style="fill:#fff402;fill-opacity:1;stroke:none" />
      <path
         sodipodi:nodetypes="cccccc"
         inkscape:connector-curvature="0"
         id="path3822-7"
         d="m 1811.5708,263.22785 c 38.9267,2.82744 77.0729,6.78055 69.2265,77.06722 -29.8234,20.77188 -203.6603,130.09324 -244.9783,157.52651 l -2.2033,-2.88887 -14.8485,-17.62827 c 69.718,-74.65224 131.7918,-146.3819 192.8036,-214.07659 z"
         style="fill:#fff402;fill-opacity:1;stroke:none" />
      <path
         sodipodi:nodetypes="cccccc"
         inkscape:connector-curvature="0"
         id="path3822-7-4"
         d="m 1288.5234,263.43495 c -75.2636,-0.42841 -66.9626,56.48499 -69.2265,77.06722 29.8234,20.77188 203.6603,130.09324 244.9783,157.52651 l 2.2033,-2.88887 14.8485,-17.62827 C 1411.609,402.8593 1349.5352,331.12964 1288.5234,263.43495 z"
         style="fill:#fff402;fill-opacity:1;stroke:none" />
      <path
         sodipodi:nodetypes="ccssc"
         inkscape:connector-curvature="0"
         id="path3882"
         d="m 1109.1009,532.42817 c 12.6163,6.32694 35.2468,34.0238 38.0492,48.4004 0.8955,24.67677 10.5411,42.1232 4.6783,49.89718 -2.8635,3.79702 -10.2399,8.85777 -22.5162,4.18411 -16.5729,-6.30941 -24.5592,-37.31758 -20.2113,-102.48169 z"
         style="fill:#fff402;fill-opacity:1;stroke:none" />
      <path
         sodipodi:nodetypes="ccssc"
         inkscape:connector-curvature="0"
         id="path3882-0"
         d="m 1115.741,640.32427 c 13.4493,3.77225 41.3639,29.86789 50.5971,40.46004 8.1959,22.96195 19.955,36.2242 11.3293,47.02244 -2.9682,3.71577 -8.2122,10.76464 -21.1848,8.70024 -17.5129,-2.78693 -31.6716,-31.5066 -40.7416,-96.18272 z"
         style="fill:#fff402;fill-opacity:1;stroke:none" />
      <path
         sodipodi:nodetypes="ccccc"
         inkscape:connector-curvature="0"
         id="path3882-9"
         d="m 1149.5961,757.67681 c 14.6873,1.55392 48.4137,7.52467 58.9826,17.64638 24.3898,13.36016 36.3349,31.23917 36.0206,40.97098 -15.7345,27.08448 -41.2352,13.35635 -53.4848,-0.32098 -11.6883,-12.42366 -25.3169,-31.70651 -41.5184,-58.29638 z"
         style="fill:#fff402;fill-opacity:1;stroke:none" />
      <path
         sodipodi:nodetypes="cccccc"
         inkscape:connector-curvature="0"
         id="path3882-4"
         d="m 1129.544,422.19035 c 11.2376,8.53919 25.356,41.69454 25.4666,56.34129 -3.6578,24.42059 5.6476,41.57423 -1.5448,48.13744 -16.9648,5.7936 -29.1129,-0.8855 -34.649,-12.50232 -6.5632,-14.72792 -2.4341,-34.75841 1.5402,-51.62621 3.7889,-13.19432 7.3417,-26.80024 9.187,-40.3502 z"
         style="fill:#fff402;fill-opacity:1;stroke:none" />
      <path
         sodipodi:nodetypes="cscsc"
         inkscape:connector-curvature="0"
         id="path3882-8"
         d="m 1238.1556,442.12987 c -14.8339,10.45861 -38.6864,27.85418 -53.8312,46.6697 -10.6266,13.20215 -16.9288,26.98454 -12.9308,38.94237 1.8984,4.36044 11.4277,10.99841 24.4563,9.3232 17.6357,-2.26759 35.6425,-30.5558 42.3057,-94.93527 z"
         style="fill:#fff402;fill-opacity:1;stroke:none" />
      <path
         sodipodi:nodetypes="cscsc"
         inkscape:connector-curvature="0"
         id="path3882-8-8"
         d="m 1222.4603,534.37013 c -12.7297,12.9376 -33.0955,34.31004 -44.64,55.52593 -8.1004,14.8864 -11.8422,29.57212 -5.7748,40.62469 2.646,3.95175 13.2068,8.78286 25.7274,4.80983 16.9481,-5.37797 29.6184,-36.42518 24.6874,-100.96045 z"
         style="fill:#fff402;fill-opacity:1;stroke:none" />
      <path
         sodipodi:nodetypes="cscsc"
         inkscape:connector-curvature="0"
         id="path3882-8-2"
         d="m 1226.2402,618.25523 c -9.6483,15.37319 -24.9395,40.62646 -31.6496,63.82915 -4.7083,16.28046 -5.2032,31.4273 3.0999,40.9158 3.4342,3.29001 14.787,5.73609 26.1597,-0.83745 15.3944,-8.89806 21.0889,-41.94406 2.39,-103.9075 z"
         style="fill:#fff402;fill-opacity:1;stroke:none" />
      <path
         sodipodi:nodetypes="cscccc"
         inkscape:connector-curvature="0"
         id="path3882-8-4"
         d="m 1245.8252,704.56837 c -3.8937,17.72753 -9.7646,46.65987 -8.25,70.76581 1.0628,16.91424 5.709,31.33935 16.7274,37.46879 3.305,1.47474 13.8954,1.90747 22.6861,-2.23239 21.5455,-10.61323 3.064,-47.30883 -3.3717,-57.38031 -9.2944,-14.20293 -17.5432,-25.24274 -27.7918,-48.6219 z"
         style="fill:#fff402;fill-opacity:1;stroke:none" />
      <path
         sodipodi:nodetypes="cscsc"
         inkscape:connector-curvature="0"
         id="path3882-8-5"
         d="m 1266.8197,355.33511 c -15.8805,8.78843 -41.4786,23.495 -58.5744,40.55735 -11.9955,11.97201 -19.755,24.98977 -17.0773,37.3106 1.4144,4.54058 10.1677,12.17272 23.3011,11.92014 17.7777,-0.3419 38.7457,-26.51076 52.3506,-89.78809 z"
         style="fill:#fff402;fill-opacity:1;stroke:none" />
      <path
         sodipodi:nodetypes="cscccc"
         inkscape:connector-curvature="0"
         id="path3882-4-7"
         d="m 1210.4907,271.16807 c -23.3213,22.1744 -37.1731,36.32388 -36.1471,53.06801 1.5571,25.411 17.4611,46.17469 12.1684,63.42333 -3.6578,24.42059 -6.5863,33.92804 -13.7788,40.49125 -16.9647,5.7936 -30.1323,-2.41474 -35.6684,-14.03156 -13.9655,-53.37858 32.4978,-115.62677 73.4259,-142.95103 z"
         style="fill:#fff402;fill-opacity:1;stroke:none" />
      <path
         sodipodi:nodetypes="ccssc"
         inkscape:connector-curvature="0"
         id="path3882-1"
         d="m 1994.4143,531.90824 c -12.6163,6.32694 -35.2469,34.0238 -38.0492,48.4004 -0.8955,24.67677 -10.5411,42.1232 -4.6783,49.89718 2.8635,3.79702 10.2399,8.85777 22.5162,4.18411 16.5729,-6.30941 24.5592,-37.31758 20.2113,-102.48169 z"
         style="fill:#fff402;fill-opacity:1;stroke:none" />
      <path
         sodipodi:nodetypes="ccssc"
         inkscape:connector-curvature="0"
         id="path3882-0-1"
         d="m 1987.7742,639.80434 c -13.4493,3.77225 -41.3639,29.86789 -50.5971,40.46005 -8.1959,22.96194 -19.955,36.22419 -11.3293,47.02243 2.9682,3.71577 8.2122,10.76464 21.1848,8.70024 17.5129,-2.78693 31.6716,-31.5066 40.7416,-96.18272 z"
         style="fill:#fff402;fill-opacity:1;stroke:none" />
      <path
         sodipodi:nodetypes="ccccc"
         inkscape:connector-curvature="0"
         id="path3882-9-5"
         d="m 1953.9191,757.15688 c -14.6873,1.55392 -48.4137,7.52467 -58.9826,17.64638 -24.3898,13.36016 -36.335,31.23917 -36.0206,40.97098 15.7345,27.08448 41.2352,13.35635 53.4847,-0.32098 11.6883,-12.42366 25.3169,-31.70651 41.5185,-58.29638 z"
         style="fill:#fff402;fill-opacity:1;stroke:none" />
      <path
         sodipodi:nodetypes="cccccc"
         inkscape:connector-curvature="0"
         id="path3882-4-2"
         d="m 1973.9712,421.67042 c -11.2376,8.53919 -25.356,41.69454 -25.4667,56.34129 3.6579,24.42059 -5.6475,41.57423 1.5449,48.13744 16.9648,5.7936 29.1129,-0.8855 34.649,-12.50232 6.5632,-14.72792 2.4341,-34.75841 -1.5402,-51.62621 -3.7889,-13.19432 -7.3417,-26.80024 -9.187,-40.3502 z"
         style="fill:#fff402;fill-opacity:1;stroke:none" />
      <path
         sodipodi:nodetypes="cscsc"
         inkscape:connector-curvature="0"
         id="path3882-8-7"
         d="m 1865.3596,441.60994 c 14.8339,10.45861 38.6863,27.85418 53.8312,46.6697 10.6266,13.20215 16.9288,26.98454 12.9308,38.94237 -1.8984,4.36044 -11.4277,10.99841 -24.4563,9.3232 -17.6357,-2.26759 -35.6425,-30.5558 -42.3057,-94.93527 z"
         style="fill:#fff402;fill-opacity:1;stroke:none" />
      <path
         sodipodi:nodetypes="cscsc"
         inkscape:connector-curvature="0"
         id="path3882-8-8-6"
         d="m 1881.0549,533.8502 c 12.7297,12.9376 33.0955,34.31004 44.64,55.52593 8.1004,14.8864 11.8422,29.57212 5.7748,40.62469 -2.646,3.95175 -13.2068,8.78286 -25.7274,4.80983 -16.9481,-5.37797 -29.6184,-36.42518 -24.6874,-100.96045 z"
         style="fill:#fff402;fill-opacity:1;stroke:none" />
      <path
         sodipodi:nodetypes="cscsc"
         inkscape:connector-curvature="0"
         id="path3882-8-2-1"
         d="m 1877.2749,617.7353 c 9.6484,15.37319 24.9396,40.62646 31.6497,63.82916 4.7082,16.28046 5.2032,31.42729 -3.1,40.91579 -3.4341,3.29001 -14.7869,5.73609 -26.1597,-0.83745 -15.3943,-8.89806 -21.0888,-41.94405 -2.39,-103.9075 z"
         style="fill:#fff402;fill-opacity:1;stroke:none" />
      <path
         sodipodi:nodetypes="cscccc"
         inkscape:connector-curvature="0"
         id="path3882-8-4-4"
         d="m 1857.69,704.04844 c 3.8937,17.72753 9.7646,46.65987 8.2499,70.76581 -1.0627,16.91424 -5.7089,31.33935 -16.7273,37.46879 -3.305,1.47474 -13.8954,1.90747 -22.6861,-2.23239 -21.5455,-10.61323 -3.064,-47.30883 3.3717,-57.38031 9.2943,-14.20293 17.5432,-25.24274 27.7918,-48.6219 z"
         style="fill:#fff402;fill-opacity:1;stroke:none" />
      <path
         sodipodi:nodetypes="cscsc"
         inkscape:connector-curvature="0"
         id="path3882-8-5-2"
         d="m 1836.6955,354.81518 c 15.8805,8.78843 41.4786,23.495 58.5744,40.55735 11.9955,11.97201 19.755,24.98977 17.0773,37.3106 -1.4144,4.54058 -10.1677,12.17272 -23.3012,11.92014 -17.7776,-0.3419 -38.7456,-26.51076 -52.3505,-89.78809 z"
         style="fill:#fff402;fill-opacity:1;stroke:none" />
      <path
         sodipodi:nodetypes="cscccc"
         inkscape:connector-curvature="0"
         id="path3882-4-7-3"
         d="m 1893.0245,270.64814 c 23.3213,22.1744 37.1731,36.32388 36.1471,53.06801 -1.5571,25.411 -17.4612,46.17469 -12.1684,63.42333 3.6578,24.42059 6.5863,33.92804 13.7788,40.49125 16.9647,5.7936 30.1323,-2.41474 35.6684,-14.03156 13.9655,-53.37858 -32.4978,-115.62677 -73.4259,-142.95103 z"
         style="fill:#fff402;fill-opacity:1;stroke:none" />
    </g>
    <path
       style="fill:#5e4f52;fill-opacity:1;stroke:none"
       d="m 444.0252,889.67939 c -0.10272,-5.47899 -1.63974,-5.94752 -1.88689,-6.23924 -0.0838,-0.0989 -0.4955,-0.22321 -0.91491,-0.27625 -0.61388,-0.0776 -0.47604,-0.10142 0.70684,-0.12202 1.38438,-0.0241 1.98684,-0.17213 1.76522,-0.43367 -0.12542,-0.14805 -4.22738,-0.40228 -6.9632,-0.43153 -1.59546,-0.017 -2.13962,0.0264 -2.18185,0.17433 -0.07,0.24531 -2.57207,0.28365 -2.57207,0.0394 0,-0.0867 -0.17299,-0.15766 -0.38442,-0.15766 -0.21146,0 -0.88906,0.64901 -1.15101,0.51982 -0.85657,-0.42244 -0.28026,-2.28615 -2.33055,-1.92495 -2.17379,0.38292 -2.16737,0.034 -1.98721,-0.1786 0.0752,-0.0888 0.61321,-0.22654 1.19557,-0.30616 0.58234,-0.0797 1.44953,-0.25192 1.92711,-0.38292 0.47754,-0.13097 1.259,-0.31049 1.73655,-0.39893 1.25652,-0.23267 8.95168,-1.07072 13.18337,-1.43575 1.99768,-0.17232 3.72427,-0.35502 3.83684,-0.40599 0.19028,-0.0862 0.25166,-0.32695 0.39782,-1.56014 0.0309,-0.26014 0.027,1.51364 -0.009,3.94179 -0.0612,4.1826 -0.20176,6.83797 -0.38004,7.17842 -0.0442,0.0843 -0.25349,0.15326 -0.46522,0.15326 -0.21175,0 -0.41837,0.0637 -0.45918,0.14169 -0.0408,0.0779 -0.16008,1.33731 -0.26511,2.79865 -0.105,1.46133 -0.2308,2.77787 -0.27957,2.92563 -0.0488,0.14777 -0.27866,0.41343 -0.51088,0.59042 -0.23221,0.17699 -0.60254,0.46369 -0.82296,0.63711 -0.22041,0.17346 -0.81536,0.25768 -0.86091,0.25814 -0.0456,0 -0.61985,-2.23575 -0.67313,-5.0758 l 0.0871,-0.0581 z"
       id="path4177"
       inkscape:connector-curvature="0"
       sodipodi:nodetypes="cccscccssscccccsccccsccccccccc" />
    <path
       style="fill:#988066;fill-opacity:1;stroke:none"
       d="m 442.20531,894.73717 c -3.34111,-0.0939 -16.16644,-1.45148 -16.43065,-1.73917 -0.18251,-0.19876 0.0995,-11.72689 0.29247,-11.95466 0.0268,-0.0316 0.67829,-0.18235 1.44774,-0.33489 1.85277,-0.36733 4.41255,-0.3703 5.12222,-0.007 0.28449,0.14605 0.66018,0.26557 0.83488,0.26557 0.1747,0 0.31765,0.0709 0.31765,0.15766 0,0.096 0.60112,0.15768 1.5362,0.15768 1.3398,0 1.5362,-0.0333 1.5362,-0.26071 0,-0.27763 0.25044,-0.27594 6.27837,0.0424 2.36618,0.12497 2.92058,0.3635 0.86829,0.37358 -1.47041,0.008 -2.14491,0.17315 -1.5141,0.3725 0.17153,0.0542 0.50722,0.0995 0.746,0.10072 1.00951,0.005 1.04699,0.25547 1.18562,7.92511 l 0.0905,5.00605 -0.45438,-0.0332 c -0.24989,-0.0184 -1.08554,-0.051 -1.85698,-0.0727 z m -15.49556,-5.33371 c 0,-0.065 -0.015,-0.12415 -0.0392,-0.16702 -0.0242,-0.0429 -0.0576,-0.0695 -0.0943,-0.0695 -0.0368,0 -0.0702,0.0266 -0.0944,0.0695 -0.0242,0.0429 -0.0392,0.10199 -0.0392,0.16702 0,0.065 0.015,0.12417 0.0392,0.16704 0.0242,0.0429 0.0576,0.0695 0.0944,0.0695 0.0367,0 0.0702,-0.0266 0.0944,-0.0695 0.0242,-0.0429 0.0392,-0.102 0.0392,-0.16704 z"
       id="path4175"
       inkscape:connector-curvature="0"
       sodipodi:nodetypes="cccccssssscccsccccsssssssss" />
    <path
       style="fill:#5e4f52;fill-opacity:1;stroke:none"
       d="m 450.73864,883.92396 c -0.0366,-0.20866 0.14232,-2.30155 0.11365,-4.29608 -0.0287,-1.99453 -0.0289,-3.47372 0,-3.2871 0.0283,0.18665 0.21347,0.41715 0.41134,0.51227 0.19994,0.0961 1.97012,0.23702 3.98427,0.31717 2.94263,0.11712 3.70511,0.19345 4.05307,0.40584 0.38197,0.23315 0.98798,0.25607 5.573,0.21067 l 5.14445,-0.0509 -0.0559,0.91272 c -0.0399,0.64963 0.21281,1.2388 0.0165,1.47052 -0.34382,0.40581 -0.72204,1.73558 -2.65055,1.96616 -1.99155,0.23812 -2.64252,-0.22899 -2.74214,0.3589 -0.11124,0.65651 -0.88581,0.65584 -2.298,0.62498 l -1.44761,0.14686 -0.30228,0.34432 c -0.79063,0.90056 -0.21037,0.68867 -0.21037,0.16706 0,-0.37005 0.1365,-0.93241 -1.40573,-0.61313 -0.68989,0.1428 0.0473,-0.87138 -2.43618,-0.7867 -4.56408,0.15566 -4.04223,0.31799 -4.23923,1.24167 -0.0647,0.30353 -0.46117,0.65162 -0.56173,0.77357 -0.15624,0.18948 -0.86009,-0.008 -0.91688,-0.33184 l 0.11611,0.46444 z"
       id="path4179"
       inkscape:connector-curvature="0"
       sodipodi:nodetypes="ccccssscccscccsscsccccc" />
    <path
       style="fill:#ffffff;fill-opacity:1;stroke:none"
       d="m 448.91243,856.90351 0.54127,0.006 2.88262,0 0,22.52426 0.17812,9.98511 -2.73275,0 -2.1943,-0.0334 c -1.10635,0.14483 -1.37617,-0.52531 -1.16403,-1.25421 0.8217,-1.55296 1.49778,-1.28803 1.56798,-2.85331 0.48788,-10.98936 0.71544,-20.79148 0.92109,-28.37479 z"
       id="path4189"
       inkscape:connector-curvature="0"
       sodipodi:nodetypes="ccccccccccc" />
    <path
       style="fill:#4c5c51;fill-opacity:1;stroke:none"
       d="m 473.5837,892.91293 c 0.003,-1.5057 0.17581,-4.64903 0.24409,-7.19807 0.0808,-3.01351 -0.009,-4.59053 -0.0941,-4.77833 -0.0721,-0.15887 -0.0668,-0.21232 -0.41417,-0.33166 -0.60505,-0.20791 -0.66428,-0.50729 -0.75081,-1.17158 -0.14033,-1.07773 0.0839,-3.19324 0.23089,-2.76174 0.87592,0.0996 3.56102,-0.19158 3.93411,-0.14742 -0.0368,-0.0434 0.89153,-0.12353 2.06298,-0.17795 1.79407,-0.0834 2.28225,-0.16181 3.09612,-0.49743 0.8759,-0.3612 1.6865,-0.50654 4.52806,-0.81184 2.11133,0.0394 4.13034,0.5934 6.21307,0.80543 1.39513,0.13899 2.85217,0.28997 3.2379,0.3355 l 0.70131,0.0828 0,2.48611 c 0,1.36735 0.0394,3.76805 0.0874,5.33488 l 0.0874,2.8488 -0.8124,0.48404 c -0.44682,0.26622 -0.85037,0.5566 -0.8968,0.64525 -0.0464,0.0887 -0.21611,0.16136 -0.37708,0.16153 -0.16099,1.8e-4 -0.62331,0.20465 -1.02739,0.45439 -0.40409,0.2497 -0.94508,0.50489 -1.20224,0.56707 -0.25715,0.0622 -0.72631,0.2806 -1.04257,0.48538 -0.48959,0.31699 -0.56478,0.33224 -0.50587,0.10267 0.10994,-0.4286 0.0306,-3.89169 0.19681,-7.99551 0.0863,-2.13104 0.12756,-3.78196 0.21468,-4.00394 0.14085,-0.35872 -0.78808,-0.31571 0.18334,-0.40119 -0.20351,-0.83518 2.92328,-0.7778 3.2245,-0.8066 0.0521,-0.005 -1.18695,0.18745 -1.99907,0.21355 -1.15821,0.0373 -2.1983,0.81251 -1.67989,0.11582 -0.0944,-0.18029 -0.15447,-0.18454 -0.31979,-0.0226 -0.14074,0.13786 -0.27547,0.15192 -0.43658,0.0455 -0.16525,-0.10915 -0.32374,-0.0838 -0.54486,0.0872 -8.88143,10.08599 -0.34063,-1.95113 -2.05084,0.51757 l -0.37665,0.57936 -2.72686,0.13134 c -1.93385,-0.0116 -2.70321,0.0519 -6.02894,0.56453 -2.16738,0.33411 -3.67195,0.58193 -3.84021,0.6571 -0.25647,0.11461 0.0945,-0.21872 0.21421,0.0453 0.20516,0.45241 -0.13288,0.21505 1.54162,0.10811 1.7131,-0.10938 3.41709,-0.34737 5.73043,-0.9144 1.64356,-0.40285 4.1336,-0.53167 5.72171,-0.5363 l 1.1175,-0.11911 0.0239,6.19039 -0.15036,5.6679 0.29029,0.0136 c 0.51965,0.0111 0.57642,0.0372 0.30468,0.14073 -0.18366,0.0699 -0.84222,0.52623 -1.46346,1.01397 -0.62122,0.48769 -1.34254,0.9456 -1.60298,1.01748 -0.26042,0.0719 -0.86423,0.25165 -1.34178,0.39938 -0.47755,0.14777 -1.83008,0.48322 -3.0056,0.74543 -2.38718,0.5325 -5.1829,1.53742 -5.75511,2.06871 -0.28213,0.26193 -0.60244,0.36407 -1.28444,0.40954 l -1.31499,-0.20065 0.033,-2.44732 z"
       id="path4183"
       inkscape:connector-curvature="0"
       sodipodi:nodetypes="ccccccccsccccsccsccccccsccsccscccccscccscccccccccsccccc" />
    <path
       style="fill:#ffffff;fill-opacity:1;stroke:none"
       d="m 470.13572,854.80103 0.54127,0.006 2.88262,0 0,22.52426 0.17812,9.98511 -2.73275,0 -2.1943,-0.0334 c -1.10635,0.14483 -1.37617,-0.52531 -1.16403,-1.25421 0.8217,-1.55296 1.49778,-1.28803 1.56798,-2.85331 0.48788,-10.98936 0.71544,-20.79148 0.92109,-28.37479 z"
       id="path4189-2"
       inkscape:connector-curvature="0"
       sodipodi:nodetypes="ccccccccccc" />
    <path
       style="fill:#988066;fill-opacity:1;stroke:none"
       d="m 455.76393,895.45677 c -2.22141,-0.1244 -4.40641,-0.37431 -4.78958,-0.54786 -0.28822,-0.13055 -0.34897,-0.98785 -0.41245,-5.82077 -0.0559,-4.24901 0.0372,-6.1451 0.26102,-5.32139 0.19308,0.7105 0.64799,0.3475 0.80468,-0.64209 0.0712,-0.44991 0.1843,-0.64361 0.44609,-0.76428 0.19287,-0.0889 2.09393,-0.22463 4.22457,-0.30159 2.25466,-0.0814 4.52978,-0.25094 5.44307,-0.40557 0.86304,-0.14611 1.61445,-0.21203 1.66978,-0.14649 0.0553,0.0656 -0.0413,0.25497 -0.21476,0.42094 -0.27681,0.26488 -0.54628,0.30236 -2.20411,0.30655 -2.47776,0.007 -2.13805,0.26509 0.53484,0.40746 1.78011,0.0948 2.01842,0.0772 2.22301,-0.16428 0.12604,-0.14877 0.22915,-0.39863 0.22915,-0.55524 0,-0.4684 0.33401,-0.65852 1.43043,-0.81425 2.52,-0.35794 3.22062,-0.48977 3.87948,-0.73002 3.20292,-0.52133 1.7611,-0.28754 4.05601,0.0187 0.94442,0.20482 0.92907,0.0998 0.78699,5.38886 -0.0697,2.59694 -0.12847,5.87468 -0.13049,7.28387 l -0.004,2.56214 -7.98157,-0.0239 c -4.38984,-0.0131 -9.00345,-0.081 -10.25245,-0.15091 z"
       id="path4181"
       inkscape:connector-curvature="0"
       sodipodi:nodetypes="cccccscccccsssscccccccc" />
    <path
       style="fill:#988066;fill-opacity:1;stroke:none"
       d="m 489.10513,890.46529 -0.45933,0.17416 0.12483,-6.59678 0.0958,-5.75498 -0.85527,0.003 c -1.75769,0.008 -4.15482,0.31574 -6.07184,0.78115 -1.08797,0.26414 -2.73199,0.58993 -3.65335,0.72397 l -1.67523,0.24372 c -0.93967,-0.0951 -1.21831,0.0236 -1.22273,-0.0305 -0.63621,0.01 -0.86385,-0.0523 -1.04143,-0.28397 -0.21579,-0.2814 -0.21176,-0.3009 0.0795,-0.38516 0.1687,-0.0488 2.04999,-0.35773 4.18063,-0.68646 3.29504,-0.50837 4.22725,-0.59564 6.2387,-0.58407 l 2.36479,0.0136 0.0828,-0.44499 c 0.0456,-0.24475 0.24373,-0.58771 0.44043,-0.76216 0.505,-0.44785 0.21294,-0.62947 -1.04498,-0.64986 -0.55103,-0.009 -1.30243,-0.0632 -1.66978,-0.12064 l -1.71292,0.0407 1.57931,-0.33154 c 0.83522,-0.29135 1.85537,-0.43458 1.75696,-0.24668 -0.0504,0.0961 0.16092,0.20469 0.52319,0.26881 0.3342,0.0592 0.81827,0.27627 1.07575,0.4825 0.59822,0.47919 1.55108,0.6591 2.03116,0.38352 0.19636,-0.1127 0.41712,-0.18307 0.49058,-0.1564 0.27057,0.0983 1.09952,0.16114 2.27091,0.17214 1.41486,0.0133 1.09026,0.26632 -0.37417,0.29166 -0.89522,0.0156 -0.91108,0.0231 -1.08444,0.52815 -0.11262,0.32803 -0.26959,2.33804 -0.39946,5.58662 -0.11457,1.27364 -0.10102,2.88785 -0.11137,4.33103 -0.006,0.88243 -0.0216,1.7009 -0.0806,2.33849 -0.66073,0.2611 -1.14202,0.30561 -1.87849,0.67099 z"
       id="path4185"
       inkscape:connector-curvature="0"
       sodipodi:nodetypes="cccccssccccssccccccccccccscccsccc" />
  </g>
</svg>
