<svg xmlns="http://www.w3.org/2000/svg" width="600" height="400">
  <path style="fill:#fff;fill-opacity:1" d="M0 0h600v400H0z"/>
  <path style="fill:#ed2939;fill-opacity:1" d="M0 0h600v60H0zM0 340h600v60H0z"/>
  <path style="fill:#002395;fill-opacity:1" transform="translate(299.99999 .000005) scale(133.33333)" d="M-2.25-4e-8H-.9v.45000002h-1.35z"/>
  <path style="fill:#fff;fill-opacity:1" transform="translate(299.99999 .000005) scale(133.33333)" d="M-1.8-4e-8h.90000004v.45000002H-1.8z"/>
  <path style="fill:#ed2939;fill-opacity:1" transform="translate(299.99999 .000005) scale(133.33333)" d="M-1.35-4e-8h.45000002v.45000002H-1.35z"/>
  <g style="fill:#ff0;fill-opacity:1">
    <path style="fill:#ff0;fill-opacity:1;fill-rule:nonzero;stroke:none" d="M759.53125 107.40625v83.90625h236.25v-83.90625L966.25 158.5625l-29.53125-51.15625-29.53125 51.15625-29.53125-51.15625L848.125 158.5625l-29.53125-51.15625-29.53125 51.15625Z" transform="matrix(1 0 0 1 -577.65622806 -1.31249463)"/>
  </g>
  <path style="fill:#002395;fill-opacity:1;fill-rule:nonzero;stroke:none" d="m901.5 204.74398 10.993 31.62546 33.47461.68216-26.68056 20.22776 9.69545 32.04705-27.4825-19.124-27.4825 19.124 9.69545-32.04705-26.68056-20.22776 33.47461-.68216z" transform="matrix(1 0 0 1 -601.49757413 5.67359552)"/>
  <g style="fill:#fff;stroke:#fff;stroke-width:.015;stroke-miterlimit:4;stroke-dasharray:none;stroke-opacity:1">
    <path d="M-4.0112893.23214883c-.00952.003223-.018786.0101076-.027795.0206543-.00901.010547-.018054.0250489-.027136.0435059l-.045044.0896484h.047681l.041968-.0841553c.01084-.0219725.02135-.0365477.031531-.0437256.010181-.007178.02406-.0107665.041638-.0107666h.04834v.13864746h.044385V.05790564h-.1001954c-.0375 3.3e-7-.065478.0078372-.083935.02351074-.018457.01567412-.027685.03933132-.027686.07097168 3e-7 .0206545.0048.0377932.014392.051416.00959.0136232.023548.0230715.041858.0283447zm.1111817-.13776856v.11645508h-.055811c-.021387 1.8e-7-.037536-.004944-.04845-.0148315-.010913-.009887-.016369-.0244261-.01637-.0436157 2e-7-.0191892.00546-.0336545.01637-.043396.010913-.0097409.027063-.01461152.04845-.01461182zM-4.323257.10163125l.060205.16325684h-.1206298zm.025049-.04372558h-.050317l-.1250244.32805175h.046143l.029883-.0841553h.147876l.029883.0841553h.046802zM-4.6106155.09438027v.12326661h-.055811c-.020654 1.7e-7-.036621-.005347-.0479-.01604-.011279-.0106932-.016919-.0259275-.016919-.0457031 2e-7-.0196286.00564-.0347898.016919-.0454834.011279-.01069307.027246-.01603974.0479-.01604004zm.044385-.0364746h-.1001953c-.036767 3.3e-7-.064563.0083133-.083386.02493896-.018823.01662626-.028235.04097926-.028235.07305908 2e-7 .0323732.00941.0568361.028235.0733887.018823.0165529.046619.0248292.083386.0248291h.055811v.13183594h.044385zM-4.9924562.10163125l.060205.16325684h-.1206299zm.025049-.04372558h-.050317l-.1250245.32805175h.046143l.029883-.0841553h.147876l.029883.0841553h.046802z" style="font-style:normal;font-variant:normal;font-weight:400;font-stretch:normal;font-size:60px;line-height:125%;font-family:'DejaVu Sans';-inkscape-font-specification:'DejaVu Sans';letter-spacing:6px;word-spacing:0;fill:#fff;fill-opacity:1;stroke:#fff;stroke-width:.015;stroke-miterlimit:4;stroke-dasharray:none;stroke-opacity:1" transform="matrix(-133.33333 0 0 133.33333 -299.89798167 .039008)"/>
  </g>
</svg>
