<?xml version="1.0" encoding="UTF-8" standalone="no"?>
<svg
   xmlns:dc="http://purl.org/dc/elements/1.1/"
   xmlns:cc="http://creativecommons.org/ns#"
   xmlns:rdf="http://www.w3.org/1999/02/22-rdf-syntax-ns#"
   xmlns:svg="http://www.w3.org/2000/svg"
   xmlns="http://www.w3.org/2000/svg"
   xmlns:sodipodi="http://sodipodi.sourceforge.net/DTD/sodipodi-0.dtd"
   xmlns:inkscape="http://www.inkscape.org/namespaces/inkscape"
   width="900"
   height="600"
   viewBox="0 0 4.5 3"
   id="svg2"
   version="1.1"
   inkscape:version="0.48.0 r9654"
   sodipodi:docname="Flag_of_Rimatara.svg">
  <metadata
     id="metadata14">
    <rdf:RDF>
      <cc:Work
         rdf:about="">
        <dc:format>image/svg+xml</dc:format>
        <dc:type
           rdf:resource="http://purl.org/dc/dcmitype/StillImage" />
      </cc:Work>
    </rdf:RDF>
  </metadata>
  <defs
     id="defs12" />
  <sodipodi:namedview
     pagecolor="#ffffff"
     bordercolor="#666666"
     borderopacity="1"
     objecttolerance="10"
     gridtolerance="10"
     guidetolerance="10"
     inkscape:pageopacity="0"
     inkscape:pageshadow="2"
     inkscape:window-width="1280"
     inkscape:window-height="748"
     id="namedview10"
     showgrid="false"
     fit-margin-top="0"
     fit-margin-left="0"
     fit-margin-right="0"
     fit-margin-bottom="0"
     inkscape:zoom="0.435"
     inkscape:cx="384.40099"
     inkscape:cy="279.8395"
     inkscape:window-x="-8"
     inkscape:window-y="-8"
     inkscape:window-maximized="1"
     inkscape:current-layer="svg2" />
  <rect
     width="4.5"
     height="3"
     id="rect4"
     x="0"
     y="0"
     style="fill:#e70000;fill-opacity:1" />
  <rect
     width="4.5"
     height="1"
     y="1"
     id="rect8"
     x="0"
     style="fill:#ffffff;fill-opacity:1" />
  <g
     transform="matrix(0.005,0,0,0.005,0.02408691,0.05232108)"
     style="font-size:30px;font-style:normal;font-variant:normal;font-weight:normal;font-stretch:normal;line-height:125%;letter-spacing:0px;word-spacing:0px;fill:#e70000;fill-opacity:1;stroke:none;font-family:DejaVu Sans;-inkscape-font-specification:DejaVu Sans"
     id="flowRoot2983">
    <path
       d="m 101.23242,292.71449 c 2.96218,1.00266 5.84466,3.14458 8.64746,6.42579 2.80266,3.28128 5.61679,7.793 8.44239,13.53515 l 14.01367,27.89063 -14.83399,0 -13.05664,-26.18164 c -3.37246,-6.83591 -6.642309,-11.37041 -9.809568,-13.60352 -3.16737,-2.23303 -7.485399,-3.34957 -12.954101,-3.34961 l -15.039063,0 0,43.13477 -13.808594,0 0,-102.06055 31.171875,0 c 11.66661,1e-4 20.371031,2.43825 26.113281,7.31445 5.74211,4.8764 8.6132,12.23641 8.61328,22.08008 -8e-5,6.42585 -1.49259,11.75787 -4.47754,15.9961 -2.9851,4.23833 -7.32591,7.17778 -13.02246,8.81835 z m -34.589842,-42.86132 0,36.23047 17.363281,0 c 6.653595,5e-5 11.678004,-1.53803 15.073243,-4.61426 3.395118,-3.07611 5.092708,-7.59922 5.092778,-13.56934 -7e-5,-5.96997 -1.69766,-10.47029 -5.092778,-13.50098 -3.395239,-3.03051 -8.419648,-4.5458 -15.073243,-4.54589 z"
       style="font-size:140px;letter-spacing:10px;fill:#e70000;-inkscape-font-specification:DejaVu Sans;fill-opacity:1"
       id="path2988" />
    <path
       d="m 160.17773,238.50551 13.8086,0 0,102.06055 -13.8086,0 z"
       style="font-size:140px;letter-spacing:10px;fill:#e70000;-inkscape-font-specification:DejaVu Sans;fill-opacity:1"
       id="path2990" />
    <path
       d="m 211.4668,238.50551 20.57617,0 26.04492,69.45313 26.18164,-69.45313 20.57617,0 0,102.06055 -13.46679,0 0,-89.61914 -26.31836,70 -13.87696,0 -26.31836,-70 0,89.61914 -13.39843,0 z"
       style="font-size:140px;letter-spacing:10px;fill:#e70000;-inkscape-font-specification:DejaVu Sans;fill-opacity:1"
       id="path2992" />
    <path
       d="m 376.4375,252.10903 -18.73047,50.79101 37.5293,0 z m -7.79297,-13.60352 15.6543,0 38.89648,102.06055 -14.35547,0 -9.29687,-26.18164 -46.00586,0 -9.29688,26.18164 -14.56054,0 z"
       style="font-size:140px;letter-spacing:10px;fill:#e70000;-inkscape-font-specification:DejaVu Sans;fill-opacity:1"
       id="path2994" />
    <path
       d="m 433.87891,238.50551 86.33789,0 0,11.62109 -36.23047,0 0,90.43946 -13.87696,0 0,-90.43946 -36.23046,0 z"
       style="font-size:140px;letter-spacing:10px;fill:#e70000;-inkscape-font-specification:DejaVu Sans;fill-opacity:1"
       id="path2996" />
    <path
       d="m 577.72656,252.10903 -18.73047,50.79101 37.5293,0 z m -7.79297,-13.60352 15.6543,0 38.89648,102.06055 -14.35546,0 -9.29688,-26.18164 -46.00586,0 -9.29687,26.18164 -14.56055,0 z"
       style="font-size:140px;letter-spacing:10px;fill:#e70000;-inkscape-font-specification:DejaVu Sans;fill-opacity:1"
       id="path2998" />
    <path
       d="m 697.7168,292.71449 c 2.96217,1.00266 5.84466,3.14458 8.64746,6.42579 2.80266,3.28128 5.61678,7.793 8.44238,13.53515 l 14.01367,27.89063 -14.83398,0 -13.05664,-26.18164 c -3.37246,-6.83591 -6.64231,-11.37041 -9.80957,-13.60352 -3.16737,-2.23303 -7.4854,-3.34957 -12.9541,-3.34961 l -15.03907,0 0,43.13477 -13.80859,0 0,-102.06055 31.17187,0 c 11.66661,1e-4 20.37103,2.43825 26.11329,7.31445 5.74211,4.8764 8.6132,12.23641 8.61328,22.08008 -8e-5,6.42585 -1.49259,11.75787 -4.47754,15.9961 -2.9851,4.23833 -7.32592,7.17778 -13.02246,8.81835 z m -34.58985,-42.86132 0,36.23047 17.36328,0 c 6.6536,5e-5 11.67801,-1.53803 15.07325,-4.61426 3.39512,-3.07611 5.0927,-7.59922 5.09277,-13.56934 -7e-5,-5.96997 -1.69765,-10.47029 -5.09277,-13.50098 -3.39524,-3.03051 -8.41965,-4.5458 -15.07325,-4.54589 z"
       style="font-size:140px;letter-spacing:10px;fill:#e70000;-inkscape-font-specification:DejaVu Sans;fill-opacity:1"
       id="path3000" />
    <path
       d="m 790.77344,252.10903 -18.73047,50.79101 37.5293,0 z m -7.79297,-13.60352 15.6543,0 38.89648,102.06055 -14.35547,0 -9.29687,-26.18164 -46.00586,0 -9.29688,26.18164 -14.56055,0 z"
       style="font-size:140px;letter-spacing:10px;fill:#e70000;-inkscape-font-specification:DejaVu Sans;fill-opacity:1"
       id="path3002" />
  </g>
</svg>
