<svg xmlns="http://www.w3.org/2000/svg" width="675" height="450" version="1.0">
  <path style="fill:#fff;fill-opacity:1;stroke:none;stroke-width:1;stroke-linecap:round;stroke-linejoin:bevel;stroke-miterlimit:4;stroke-dasharray:none;stroke-opacity:1" d="M213 190.36215h675v450H213z" transform="translate(-213 -190.36215)"/>
  <path style="fill:#ce2028;fill-opacity:1;stroke:none;stroke-width:1;stroke-linecap:round;stroke-linejoin:bevel;stroke-miterlimit:4;stroke-dasharray:none;stroke-opacity:1" d="M213 415.36215h675v225H213z" transform="translate(-213 -190.36215)"/>
  <path style="opacity:1;fill:#083d9c;fill-opacity:1;stroke:none;stroke-width:1;stroke-linecap:round;stroke-linejoin:bevel;stroke-miterlimit:4;stroke-dasharray:none;stroke-opacity:1" d="M382 365.36215h337v50H382z" transform="translate(-213 -190.36215)"/>
  <path style="font-size:50.39640427px;font-style:normal;font-variant:normal;font-weight:700;font-stretch:normal;text-align:start;line-height:125%;writing-mode:lr-tb;text-anchor:start;fill:#fff;fill-opacity:1;stroke:none;stroke-width:1px;stroke-linecap:butt;stroke-linejoin:miter;stroke-opacity:1;font-family:Arial;-inkscape-font-specification:Arial Bold" d="M386.79112 427.58081v-36.07477h15.33055c3.85517.00004 6.65633.32404 8.4035.972 1.74711.64804 3.14564 1.80049 4.1956 3.45737 1.04989 1.65695 1.57485 3.55173 1.57488 5.68436-.00003 2.70686-.79567 4.94205-2.38694 6.70558-1.59132 1.76356-3.97005 2.87501-7.1362 3.33433 1.57486.9187 2.87496 1.92761 3.9003 3.02674 1.02529 1.09915 2.40742 3.05135 4.14639 5.85661l4.40476 7.03778h-8.7111l-5.26603-7.84983c-1.8702-2.80526-3.14979-4.5729-3.83879-5.30294-.68903-.73001-1.41905-1.23037-2.19007-1.50107-.77106-.27067-1.99324-.40601-3.66654-.40602h-1.47646v15.05986h-7.28385zm7.28385-20.81805h5.38907c3.49426.00003 5.67614-.14762 6.54563-.44293.86944-.29527 1.55025-.80383 2.04243-1.52567.49213-.7218.7382-1.62408.73823-2.70684-.00003-1.21395-.32403-2.19415-.972-2.94061-.64803-.74641-1.56261-1.21805-2.74375-1.41494-.5906-.082-2.36235-.12301-5.31525-.12304h-5.68436v9.15403zm43.03873-15.25672h7.28386v19.53845c-.00002 3.10057.09021 5.11019.27068 6.02887.31168 1.47646 1.05401 2.66173 2.22699 3.5558 1.17295.89408 2.77654 1.34112 4.81079 1.34111 2.06702.00001 3.6255-.42242 4.67545-1.26729 1.0499-.84485 1.68149-1.88247 1.89478-3.11286.21324-1.23037.31988-3.2728.3199-6.1273v-19.95678h7.28386v18.94787c-.00004 4.33095-.1969 7.3905-.59059 9.17864-.39375 1.78816-1.11967 3.29743-2.17777 4.5278-1.05816 1.23038-2.47309 2.21059-4.24481 2.94061-1.77178.73003-4.08489 1.09504-6.93935 1.09504-3.44508 0-6.05759-.39782-7.83753-1.19347-1.77996-.79564-3.18669-1.82916-4.22021-3.10056-1.03352-1.27139-1.71433-2.6043-2.04243-3.99874-.47575-2.06703-.71362-5.11837-.71362-9.15403v-19.24316zm50.47023 36.07477v-36.07477h15.33054c3.85517.00004 6.65634.32404 8.40351.972 1.74711.64804 3.14564 1.80049 4.19559 3.45737 1.0499 1.65695 1.57486 3.55173 1.57489 5.68436-.00003 2.70686-.79568 4.94205-2.38694 6.70558-1.59132 1.76356-3.97005 2.87501-7.13621 3.33433 1.57487.9187 2.87497 1.92761 3.90031 3.02674 1.02529 1.09915 2.40742 3.05135 4.14639 5.85661l4.40476 7.03778h-8.7111l-5.26603-7.84983c-1.8702-2.80526-3.14979-4.5729-3.83879-5.30294-.68903-.73001-1.41905-1.23037-2.19008-1.50107-.77105-.27067-1.99323-.40601-3.66653-.40602h-1.47646v15.05986h-7.28385zm7.28385-20.81805h5.38907c3.49426.00003 5.67614-.14762 6.54563-.44293.86944-.29527 1.55025-.80383 2.04243-1.52567.49213-.7218.7382-1.62408.73823-2.70684-.00003-1.21395-.32403-2.19415-.972-2.94061-.64803-.74641-1.56261-1.21805-2.74375-1.41494-.59061-.082-2.36235-.12301-5.31525-.12304h-5.68436v9.15403zm43.03872-15.25672h7.28386v19.53845c-.00001 3.10057.09022 5.11019.27068 6.02887.31169 1.47646 1.05402 2.66173 2.22699 3.5558 1.17295.89408 2.77655 1.34112 4.81079 1.34111 2.06702.00001 3.6255-.42242 4.67545-1.26729 1.0499-.84485 1.6815-1.88247 1.89479-3.11286.21324-1.23037.31987-3.2728.3199-6.1273v-19.95678h7.28385v18.94787c-.00003 4.33095-.19689 7.3905-.59058 9.17864-.39375 1.78816-1.11968 3.29743-2.17778 4.5278-1.05815 1.23038-2.47309 2.21059-4.24481 2.94061-1.77177.73003-4.08489 1.09504-6.93935 1.09504-3.44508 0-6.05759-.39782-7.83753-1.19347-1.77996-.79564-3.18669-1.82916-4.2202-3.10056-1.03353-1.27139-1.71434-2.6043-2.04243-3.99874-.47576-2.06703-.71363-5.11837-.71363-9.15403v-19.24316zm58.56614 36.07477v-29.97208h-10.70431v-6.10269h28.66787v6.10269h-10.6797v29.97208h-7.28386zm36.61615-36.07477h7.28385v19.53845c-.00001 3.10057.09022 5.11019.27069 6.02887.31168 1.47646 1.05401 2.66173 2.22698 3.5558 1.17295.89408 2.77655 1.34112 4.81079 1.34111 2.06702.00001 3.62551-.42242 4.67545-1.26729 1.0499-.84485 1.6815-1.88247 1.89479-3.11286.21324-1.23037.31987-3.2728.3199-6.1273v-19.95678h7.28385v18.94787c-.00003 4.33095-.19689 7.3905-.59058 9.17864-.39375 1.78816-1.11968 3.29743-2.17777 4.5278-1.05816 1.23038-2.4731 2.21059-4.24482 2.94061-1.77177.73003-4.08488 1.09504-6.93935 1.09504-3.44508 0-6.05759-.39782-7.83752-1.19347-1.77996-.79564-3.1867-1.82916-4.22021-3.10056-1.03353-1.27139-1.71434-2.6043-2.04243-3.99874-.47575-2.06703-.71363-5.11837-.71362-9.15403v-19.24316z" transform="matrix(1.04993 0 0 .95245 -213 -190.36215)"/>
</svg>
