<svg xmlns="http://www.w3.org/2000/svg" width="900" height="600" viewBox="0 0 4.5 3">
  <path style="fill:#000;fill-opacity:1" d="M0 0h4.5v3H0z"/>
  <path style="fill:#fff;fill-opacity:1" d="M0 1h4.5v1H0z"/>
  <path style="font-size:160px;font-style:normal;font-variant:normal;font-weight:400;font-stretch:normal;line-height:125%;letter-spacing:20px;word-spacing:0;fill:#000;fill-opacity:1;stroke:#000;font-family:DejaVu Sans;-inkscape-font-specification:DejaVu Sans;stroke-opacity:1;stroke-width:.025;stroke-miterlimit:4;stroke-dasharray:none" d="M.54199219 1.2027344h.49335941v.066406H.82832031v.5167969h-.0792969v-.5167969H.54199216zM1.2029297 1.2027344h.079297v.3542969c-1e-7 .0625.011328.1074871.033984.1349609.022656.027474.059375.041211.1101563.041211.05052 1e-7 .087109-.013737.1097656-.041211.022656-.027474.033984-.072461.033984-.1349609v-.3542969h.079297v.3640625c-5e-7 .076042-.018816.1334636-.056445.1722656-.037631.038802-.093164.058203-.1666015.058203-.073698 0-.1293622-.019401-.1669922-.058203-.03763-.038802-.056445-.096224-.056445-.1722656zM1.9767578 1.5074219v.2136719h.1265625c.042448 0 .073893-.00879.094336-.026367.020442-.017578.030664-.044466.030664-.080664-4e-7-.036458-.010222-.063346-.030664-.080664-.020443-.017317-.051888-.025976-.094336-.025977zm0-.2398438v.1757813h.1167969c.038541 3e-7 .067252-.00723.086133-.02168.01888-.014453.02832-.036523.02832-.066211-4e-7-.029427-.00944-.051432-.02832-.066016-.018881-.014583-.047591-.021875-.086133-.021875zm-.078906-.064844h.2015625c.060156 6e-7 .1065101.012501.1390625.0375.032552.025.048828.060547.048828.1066406-5e-7 .035678-.00833.064063-.025.085156-.016667.021094-.041146.034245-.073438.039453.038802.00833.068945.025716.09043.052148.021484.026433.032226.05944.032227.099024-5e-7 .052083-.017709.092318-.053125.1207031-.035417.028385-.085808.042578-.1511719.042578h-.209375zM2.5373047 1.2027344h.079297v.3542969c-1e-7 .0625.011328.1074871.033984.1349609.022656.027474.059375.041211.1101563.041211.05052 1e-7 .087109-.013737.1097656-.041211.022656-.027474.033984-.072461.033984-.1349609v-.3542969h.079297v.3640625c-5e-7 .076042-.018816.1334636-.056445.1722656-.037631.038802-.093164.058203-.1666015.058203-.073698 0-.1293622-.019401-.1669922-.058203-.03763-.038802-.056445-.096224-.056445-.1722656zM3.4271484 1.2804688l-.1070312.2902343h.2144531zm-.044531-.077734h.089453l.2222656.5832031h-.082031l-.053125-.1496094h-.2628907l-.053125.1496094h-.083203zM3.8791015 1.2027344h.078906v.5832031h-.078906z"/>
</svg>
