<?xml version="1.0" encoding="UTF-8" standalone="no"?>
<!-- Created with Inkscape (http://www.inkscape.org/) -->

<svg
   width="223.99998mm"
   height="112mm"
   viewBox="0 0 223.99998 112"
   version="1.1"
   id="svg1"
   xml:space="preserve"
   inkscape:version="1.3.2 (091e20e, 2023-11-25, custom)"
   sodipodi:docname="Flag_of_Primorje-Gorski_Kotar_County.svg"
   xmlns:inkscape="http://www.inkscape.org/namespaces/inkscape"
   xmlns:sodipodi="http://sodipodi.sourceforge.net/DTD/sodipodi-0.dtd"
   xmlns:xlink="http://www.w3.org/1999/xlink"
   xmlns="http://www.w3.org/2000/svg"
   xmlns:svg="http://www.w3.org/2000/svg"><sodipodi:namedview
     id="namedview1"
     pagecolor="#ffffff"
     bordercolor="#000000"
     borderopacity="0.25"
     inkscape:showpageshadow="2"
     inkscape:pageopacity="0.0"
     inkscape:pagecheckerboard="0"
     inkscape:deskcolor="#d1d1d1"
     inkscape:document-units="mm"
     inkscape:zoom="0.84852814"
     inkscape:cx="276.95016"
     inkscape:cy="481.42187"
     inkscape:window-width="2880"
     inkscape:window-height="1526"
     inkscape:window-x="2869"
     inkscape:window-y="-11"
     inkscape:window-maximized="1"
     inkscape:current-layer="layer2" /><defs
     id="defs1"><pattern
       inkscape:collect="always"
       xlink:href="#pattern56"
       preserveAspectRatio="xMidYMid"
       id="pattern57"
       patternTransform="matrix(1.0656805,0,0,1.0307549,-120.44506,29.972126)" /><pattern
       patternUnits="userSpaceOnUse"
       width="36.465998"
       height="36.465998"
       patternTransform="translate(-75.186699,60.236561)"
       preserveAspectRatio="xMidYMid"
       id="pattern56"
       inkscape:label="pattern56"><rect
         style="opacity:1;fill:#ff0000;fill-opacity:1;fill-rule:evenodd;stroke:none;stroke-width:0.2;stroke-dasharray:none;stroke-opacity:0.992424"
         id="rect49"
         width="18.233"
         height="18.233"
         x="0"
         y="18.232998" /><rect
         style="opacity:1;fill:#ffffff;fill-opacity:1;fill-rule:evenodd;stroke:none;stroke-width:0.2;stroke-dasharray:none;stroke-opacity:0.992424"
         id="rect51"
         width="18.233"
         height="18.233"
         x="0"
         y="0" /><rect
         style="opacity:1;fill:#ffffff;fill-opacity:1;fill-rule:evenodd;stroke:none;stroke-width:0.2;stroke-dasharray:none;stroke-opacity:0.992424"
         id="rect52"
         width="18.233"
         height="18.233"
         x="18.232998"
         y="18.232998" /><rect
         style="opacity:1;fill:#ff0000;fill-opacity:1;fill-rule:evenodd;stroke:none;stroke-width:0.2;stroke-dasharray:none;stroke-opacity:0.992424"
         id="rect53"
         width="18.233"
         height="18.233"
         x="18.232998"
         y="0" /></pattern><clipPath
       clipPathUnits="userSpaceOnUse"
       id="clipPath10"><path
         id="path10"
         style="opacity:1;fill:#00ccff;fill-opacity:1;fill-rule:evenodd;stroke:#000000;stroke-width:1.82282;stroke-opacity:1"
         d="m 249.16407,-22.953125 c -14.38612,-0.93477 -19.01446,10.571804 -50.69141,3.78125 L 187,0 c 22.82641,21.901771 9.34011,77.430908 5.14063,88.978518 -4.07212,11.197372 -12.22647,21.515102 -17.47461,31.876952 8.98713,1.62477 12.92305,9.52865 17.78516,16.4043 6.88322,9.73378 19.29149,11.8917 27.71093,11.16602 10.11268,32.60273 31.31321,17.33323 48.00391,43.51367 16.69071,-26.18044 37.89124,-10.91094 48.00391,-43.51367 8.41944,0.72568 20.82771,-1.43224 27.71093,-11.16602 4.86211,-6.87565 8.79803,-14.77953 17.78516,-16.4043 C 356.41788,110.49362 348.26353,100.17589 344.19141,88.978518 339.99192,77.430908 326.50563,21.901771 349.33204,0 l -11.47266,-19.171875 c -42.23592,9.054072 -36.38588,-14.420352 -69.69336,2.439453 -8.32687,-4.214951 -14.20658,-5.909113 -19.00195,-6.220703 z" /></clipPath><clipPath
       clipPathUnits="userSpaceOnUse"
       id="clipPath9"><path
         id="path9"
         style="opacity:1;fill:#00ccff;fill-opacity:1;fill-rule:evenodd;stroke:#000000;stroke-width:1.82282;stroke-opacity:1"
         d="m 249.16407,-22.953125 c -14.38612,-0.93477 -19.01446,10.571804 -50.69141,3.78125 L 187,0 c 22.82641,21.901771 9.34011,77.430908 5.14063,88.978518 -4.07212,11.197372 -12.22647,21.515102 -17.47461,31.876952 8.98713,1.62477 12.92305,9.52865 17.78516,16.4043 6.88322,9.73378 19.29149,11.8917 27.71093,11.16602 10.11268,32.60273 31.31321,17.33323 48.00391,43.51367 16.69071,-26.18044 37.89124,-10.91094 48.00391,-43.51367 8.41944,0.72568 20.82771,-1.43224 27.71093,-11.16602 4.86211,-6.87565 8.79803,-14.77953 17.78516,-16.4043 C 356.41788,110.49362 348.26353,100.17589 344.19141,88.978518 339.99192,77.430908 326.50563,21.901771 349.33204,0 l -11.47266,-19.171875 c -42.23592,9.054072 -36.38588,-14.420352 -69.69336,2.439453 -8.32687,-4.214951 -14.20658,-5.909113 -19.00195,-6.220703 z" /></clipPath><clipPath
       clipPathUnits="userSpaceOnUse"
       id="clipPath16"><path
         id="path17"
         style="opacity:1;fill:#00ccff;fill-opacity:1;fill-rule:evenodd;stroke:#000000;stroke-width:1.80322;stroke-opacity:1"
         d="M -23.112228,3.5594048 -34.419727,22.595324 c 22.497799,21.746455 9.205649,76.881816 5.066625,88.347536 -4.013497,11.11796 -12.050456,21.36252 -17.223043,31.65089 8.85775,1.61325 12.737008,9.46108 17.529123,16.28797 6.784128,9.66475 19.013767,11.80737 27.312,11.08684 9.967097,32.37153 30.862422,17.21031 47.31284,43.20509 16.450434,-25.99478 37.345754,-10.83356 47.312854,-43.20509 8.298228,0.72053 20.527868,-1.42209 27.311998,-11.08684 4.79211,-6.82689 8.67137,-14.67472 17.52912,-16.28797 -5.17259,-10.28837 -13.20955,-20.53293 -17.22304,-31.65089 -4.13904,-11.46572 -17.43118,-66.601081 5.06662,-88.347536 L 114.26787,3.5594048 C 72.639982,12.549271 78.405802,-10.758686 45.577818,5.9815586 12.156454,-11.061273 19.815059,12.829883 -23.112228,3.5594048 Z"
         sodipodi:nodetypes="ccscscccscscccc" /></clipPath><clipPath
       clipPathUnits="userSpaceOnUse"
       id="clipPath1"><path
         id="path1"
         style="opacity:1;fill:#00ccff;fill-opacity:1;fill-rule:evenodd;stroke:#000000;stroke-width:1.80322;stroke-opacity:1"
         d="M -23.112228,3.5594048 -34.419727,22.595324 c 22.497799,21.746455 9.205649,76.881816 5.066625,88.347536 -4.013497,11.11796 -12.050456,21.36252 -17.223043,31.65089 8.85775,1.61325 12.737008,9.46108 17.529123,16.28797 6.784128,9.66475 19.013767,11.80737 27.312,11.08684 9.967097,32.37153 30.862422,17.21031 47.31284,43.20509 16.450434,-25.99478 37.345754,-10.83356 47.312854,-43.20509 8.298228,0.72053 20.527868,-1.42209 27.311998,-11.08684 4.79211,-6.82689 8.67137,-14.67472 17.52912,-16.28797 -5.17259,-10.28837 -13.20955,-20.53293 -17.22304,-31.65089 -4.13904,-11.46572 -17.43118,-66.601081 5.06662,-88.347536 L 114.26787,3.5594048 C 72.639982,12.549271 78.405802,-10.758686 45.577818,5.9815586 12.156454,-11.061273 19.815059,12.829883 -23.112228,3.5594048 Z"
         sodipodi:nodetypes="ccscscccscscccc" /></clipPath></defs><g
     inkscape:groupmode="layer"
     id="layer2"
     inkscape:label="Layer 2"><g
       id="g4"><g
         id="g3"
         transform="translate(-252.76274,0.01322914)"><rect
           style="fill:#66ccff;fill-opacity:1;fill-rule:evenodd;stroke:#0000ff;stroke-width:0.0262438"
           id="rect1"
           width="223.94749"
           height="111.97375"
           x="252.77586"
           y="-0.00010724247" /><rect
           style="fill:#ffffff;fill-opacity:1;fill-rule:evenodd;stroke:#0000ff;stroke-width:0.0147515"
           id="rect3"
           width="223.9592"
           height="6.9852486"
           x="252.77011"
           y="6.9941468" /><rect
           style="fill:#ffffff;fill-opacity:1;fill-rule:evenodd;stroke:#0000ff;stroke-width:0.0147515"
           id="rect3-2"
           width="223.9592"
           height="6.9852486"
           x="252.77586"
           y="97.988403" /></g><g
         id="g56"
         transform="matrix(0.29861309,0,0,0.29861309,84.079667,23.735601)"><g
           id="shield"
           transform="matrix(0.98560389,0,0,0.99290854,237.43503,-7.8796281)"><path
             id="path2"
             style="opacity:1;fill:#00ccff;fill-opacity:1;fill-rule:evenodd;stroke:#000000;stroke-width:1.82282;stroke-opacity:1"
             d="m -215.73076,12.76754 -11.47266,19.171875 c 22.82641,21.901771 9.34011,77.430905 5.14063,88.978515 -4.07212,11.19737 -12.22647,21.5151 -17.47461,31.87695 8.98713,1.62477 12.92305,9.52865 17.78516,16.4043 6.88322,9.73378 19.29149,11.8917 27.71093,11.16602 10.11268,32.60273 31.31321,17.33323 48.00391,43.51367 16.69071,-26.18044 37.89124,-10.91094 48.003922,-43.51367 8.41944,0.72568 20.82771,-1.43224 27.71093,-11.16602 4.86211,-6.87565 8.79803,-14.77953 17.78516,-16.4043 -5.24814,-10.36185 -13.40249,-20.67958 -17.47461,-31.87695 -4.19949,-11.54761 -17.68578,-67.076744 5.14063,-88.978515 L -76.344028,12.76754 c -42.235932,9.054072 -36.385892,-14.4203521 -69.693372,2.439453 -33.90953,-17.1645533 -26.13906,6.897236 -69.69336,-2.439453 z"
             sodipodi:nodetypes="ccscscccscscccc" /><rect
             style="opacity:1;fill:url(#pattern57);fill-opacity:1;fill-rule:evenodd;stroke:#000000;stroke-width:1.35683;stroke-opacity:1"
             id="rect3-3"
             width="93.460365"
             height="102.39598"
             x="174.70566"
             y="-34.836349"
             clip-path="url(#clipPath10)"
             transform="translate(-414.20342,31.939415)" /><rect
             style="opacity:1;fill:#00ccff;fill-opacity:1;fill-rule:evenodd;stroke:#000000;stroke-width:1.35683;stroke-opacity:1"
             id="rect4"
             width="93.460365"
             height="102.39598"
             x="268.16602"
             y="-34.836349"
             clip-path="url(#clipPath9)"
             transform="translate(-414.20342,31.939415)" /></g><g
           id="g36"
           transform="translate(-128.25,13.75)"><path
             style="opacity:1;fill:#009900;fill-opacity:1;fill-rule:evenodd;stroke:#000000;stroke-width:0.5;stroke-dasharray:none;stroke-opacity:1"
             d="m 221.75,25.34375 c 3.64703,-2.931654 7.109,-3.71322 11.96875,-5.40625 l 8.34375,-5.53125 26.78125,15.5 -15.79608,-9.142186 c 0.84715,-0.265196 1.65927,-0.544789 2.54608,-0.826564 l 8.36838,-0.0625 3.53053,2.3125 13.38234,8.0625 -7.28818,-4.39093 3.66318,-2.29657 4.4375,2.375 c 1.31072,0.1128 2.59982,0.203982 3.96875,0.375 1.8791,1.252977 3.75564,2.475245 5.61418,3.481594 -3.47582,15.61996 -0.87862,31.570885 0.06,47.369712 l -69.58047,1.9e-5 z"
             id="path33"
             sodipodi:nodetypes="ccccccccccccccccc" /><g
             id="town"
             transform="translate(58.246237,-12.958599)"
             style="opacity:1"><g
               id="g2"
               transform="translate(-55.357272,4.2483089)"
               style="opacity:1"><path
                 style="opacity:1;fill:#ffffff;fill-opacity:1;stroke:#000000;stroke-width:0.5;stroke-linecap:round;stroke-miterlimit:4.2;stroke-opacity:1"
                 d="m 228.03009,85.500755 -1e-5,-2.808621 h 0.66337 v -1.83591 h 0.65526 V 79.02031 h 0.65526 v -1.835915 h 0.65526 v -1.835914 h 0.65525 v -1.835915 h 0.65526 v -1.835915 l 0.65526,4e-6 v -2.979248 l 54.05229,-0.0051 1.76422,17.181789 z"
                 id="path3"
                 sodipodi:nodetypes="ccccccccccccccccccc" /><path
                 style="opacity:1;fill:#ffffff;stroke:#000000;stroke-width:0.5;stroke-linecap:round;stroke-miterlimit:4.2;stroke-dasharray:none"
                 d="m 231.9697,71.676651 h 14.22801"
                 id="path3211" /><path
                 style="opacity:1;fill:#ffffff;stroke:#000000;stroke-width:0.5;stroke-linecap:round;stroke-miterlimit:4.2;stroke-dasharray:none"
                 d="m 231.31444,73.512566 h 9.45233"
                 id="path3213" /><path
                 style="opacity:1;fill:#ffffff;stroke:#000000;stroke-width:0.5;stroke-linecap:round;stroke-miterlimit:4.2;stroke-dasharray:none"
                 d="m 230.65919,75.348481 h 15.38148"
                 id="path3269" /><path
                 style="opacity:1;fill:#ffffff;stroke:#000000;stroke-width:0.5;stroke-linecap:round;stroke-miterlimit:4.2;stroke-dasharray:none"
                 d="m 230.00393,77.184395 h 10.58311"
                 id="path4723" /><path
                 style="opacity:1;fill:#ffffff;stroke:#000000;stroke-width:0.5;stroke-linecap:round;stroke-miterlimit:4.2;stroke-dasharray:none"
                 d="m 229.34867,79.02031 h 16.5861"
                 id="path4727" /><path
                 style="opacity:1;fill:#ffffff;stroke:#000000;stroke-width:0.5;stroke-linecap:round;stroke-miterlimit:4.2;stroke-dasharray:none"
                 d="m 228.69341,80.856224 h 11.75747"
                 id="path4729" /><path
                 style="opacity:1;fill:#ffffff;stroke:#000000;stroke-width:0.5;stroke-linecap:round;stroke-miterlimit:4.2;stroke-dasharray:none"
                 d="m 228.03004,82.692134 h 17.79072"
                 id="path4733" /></g><rect
               style="opacity:1;fill:#ffffff;fill-opacity:1;fill-rule:evenodd;stroke:#000000;stroke-width:0.5;stroke-dasharray:none;stroke-opacity:1"
               id="rect17"
               width="2.953125"
               height="4.2255859"
               x="178.23758"
               y="68.720131" /><rect
               style="opacity:1;fill:#ffffff;fill-opacity:1;fill-rule:evenodd;stroke:#000000;stroke-width:0.516632;stroke-dasharray:none;stroke-opacity:1"
               id="rect18"
               width="8.9640274"
               height="7.9933119"
               x="182.51799"
               y="64.938042" /><rect
               style="opacity:1;fill:#ffffff;fill-opacity:1;fill-rule:evenodd;stroke:#000000;stroke-width:0.5;stroke-dasharray:none;stroke-opacity:1"
               id="rect19"
               width="7.1875"
               height="3.1005876"
               x="192.34697"
               y="69.845131" /><rect
               style="opacity:1;fill:#ffffff;fill-opacity:1;fill-rule:evenodd;stroke:#000000;stroke-width:0.51017;stroke-dasharray:none;stroke-opacity:1"
               id="rect20"
               width="8.7266712"
               height="11.483549"
               x="196.1958"
               y="61.457088" /><rect
               style="opacity:1;fill:#ffffff;fill-opacity:1;fill-rule:evenodd;stroke:#000000;stroke-width:0.654081;stroke-dasharray:none;stroke-opacity:1"
               id="rect21"
               width="4.6375804"
               height="13.683781"
               x="191.48117"
               y="53.795063" /><rect
               style="opacity:1;fill:#ffffff;fill-opacity:1;fill-rule:evenodd;stroke:#000000;stroke-width:0.5;stroke-dasharray:none;stroke-opacity:1"
               id="rect22"
               width="14.434484"
               height="7.7984223"
               x="204.92247"
               y="65.142212" /><rect
               style="opacity:1;fill:#ff0000;fill-opacity:1;fill-rule:evenodd;stroke:#000000;stroke-width:0.547385;stroke-dasharray:none;stroke-opacity:1"
               id="rect27"
               width="9.0830193"
               height="5.2811842"
               x="191.47572"
               y="64.694931"
               ry="0" /><rect
               style="opacity:1;fill:#ff0000;fill-opacity:1;fill-rule:evenodd;stroke:#000000;stroke-width:0.5;stroke-dasharray:none;stroke-opacity:1"
               id="rect28"
               width="9.2476311"
               height="4.2205434"
               x="182.2971"
               y="60.766991" /><rect
               style="opacity:1;fill:#ff0000;fill-opacity:1;fill-rule:evenodd;stroke:#000000;stroke-width:0.5;stroke-dasharray:none;stroke-opacity:1"
               id="rect29"
               width="9.3912621"
               height="4.0879612"
               x="196.07463"
               y="57.27565" /><rect
               style="opacity:1;fill:#ff0000;fill-opacity:1;fill-rule:evenodd;stroke:#000000;stroke-width:0.5;stroke-dasharray:none;stroke-opacity:1"
               id="rect30"
               width="14.606174"
               height="4.7950678"
               x="204.91347"
               y="60.14827" /><path
               id="path31"
               style="opacity:1;fill:#ff0000;fill-opacity:1;fill-rule:evenodd;stroke:#000000;stroke-width:0.5;stroke-dasharray:none;stroke-opacity:1"
               d="m 193.80016,41.610755 c -0.56713,4.088871 -0.91499,8.206221 -2.31836,12.183594 h 2.31836 2.31836 c -1.40337,-3.977373 -1.75123,-8.094723 -2.31836,-12.183594 z" /><rect
               style="opacity:1;fill:#f9f9f9;fill-opacity:1;fill-rule:evenodd;stroke:#000000;stroke-width:0.5;stroke-dasharray:none;stroke-opacity:1"
               id="rect33"
               width="11.343327"
               height="3.8991928"
               x="149.97293"
               y="69.832825"
               transform="translate(70.003763,-0.79140132)" /><path
               id="rect23"
               style="opacity:1;fill:#000000;fill-opacity:1;fill-rule:evenodd;stroke:none;stroke-width:0.5;stroke-dasharray:none;stroke-opacity:1"
               d="m 219.35696,66.54415 c -0.62434,0 -1.12696,0.502623 -1.12696,1.126953 v 0.367188 3.52539 1.376954 h 2.25391 v -1.376954 -3.52539 -0.367188 c 0,-0.62433 -0.50262,-1.126953 -1.12695,-1.126953 z" /><path
               id="path24"
               style="opacity:1;fill:#000000;fill-opacity:1;fill-rule:evenodd;stroke:none;stroke-width:0.5;stroke-dasharray:none;stroke-opacity:1"
               d="m 209.42432,66.549234 c -0.62434,0 -1.12696,0.502623 -1.12696,1.126953 v 0.367188 3.52539 1.376954 h 2.25391 v -1.376954 -3.52539 -0.367188 c 0,-0.62433 -0.50262,-1.126953 -1.12695,-1.126953 z" /><path
               id="path27"
               style="opacity:1;fill:#000000;fill-opacity:1;fill-rule:evenodd;stroke:none;stroke-width:0.5;stroke-dasharray:none;stroke-opacity:1"
               d="m 182.31766,66.549231 c -0.62434,0 -1.12696,0.502623 -1.12696,1.126953 v 0.367188 3.52539 1.376954 h 2.25391 v -1.376954 -3.52539 -0.367188 c 0,-0.62433 -0.50262,-1.126953 -1.12695,-1.126953 z" /><path
               id="path26"
               style="opacity:1;fill:#000000;fill-opacity:1;fill-rule:evenodd;stroke:none;stroke-width:0.5;stroke-dasharray:none;stroke-opacity:1"
               d="m 191.49789,66.549234 c -0.62434,0 -1.12696,0.502623 -1.12696,1.126953 v 0.367188 3.52539 1.376954 h 2.25391 v -1.376954 -3.52539 -0.367188 c 0,-0.62433 -0.50262,-1.126953 -1.12695,-1.126953 z" /><path
               id="path25"
               style="opacity:1;fill:#000000;fill-opacity:1;fill-rule:evenodd;stroke:none;stroke-width:0.5;stroke-dasharray:none;stroke-opacity:1"
               d="m 200.55914,66.549234 c -0.62434,0 -1.12696,0.502623 -1.12696,1.126953 v 0.367188 3.52539 1.376954 h 2.25391 v -1.376954 -3.52539 -0.367188 c 0,-0.62433 -0.50262,-1.126953 -1.12695,-1.126953 z" /><rect
               style="opacity:1;fill:#ffffff;fill-opacity:1;fill-rule:evenodd;stroke:#000000;stroke-width:0.534865;stroke-dasharray:none;stroke-opacity:1"
               id="rect32"
               width="7.3056707"
               height="3.0657196"
               x="192.3644"
               y="69.862564" /></g><path
             style="opacity:1;fill:#ffffff;fill-opacity:1;fill-rule:evenodd;stroke:#000000;stroke-width:0.5;stroke-dasharray:none;stroke-opacity:1"
             d="m 233.71875,19.9375 c 0,0 3.50361,-0.151842 5.1875,0.25 2.40834,0.574725 4.34842,2.571081 6.78125,3.03125 2.20294,0.416686 4.54931,0.253299 6.71875,-0.3125 0.83373,-0.21744 2.31182,-1.15625 2.31182,-1.15625 L 242.0625,14.40625 Z"
             id="path34"
             sodipodi:nodetypes="csssccc" /><path
             style="opacity:1;fill:#ffffff;fill-opacity:1;fill-rule:evenodd;stroke:#000000;stroke-width:0.5;stroke-dasharray:none;stroke-opacity:1"
             d="m 254.71807,21.75 c 0,0 2.17885,-0.537274 3.28602,-0.498214 1.71263,0.06042 3.38244,0.609179 5.01604,1.126951 1.68731,0.534796 3.14352,1.86487 4.90556,2.032932 0.82314,0.07851 2.42986,-0.499357 2.42986,-0.499357 l -6.39342,-4.037312 -8.36838,0.0625 -2.54608,0.826564 z"
             id="path35"
             sodipodi:nodetypes="csssccccc" /><path
             style="opacity:1;fill:#ffffff;fill-opacity:1;fill-rule:evenodd;stroke:#000000;stroke-width:0.5;stroke-dasharray:none;stroke-opacity:1"
             d="m 273.58682,25.85907 3.64409,2.195465 c 0,0 1.01857,-0.891306 1.63283,-1.145895 0.51124,-0.21189 1.19525,0.04847 1.63519,-0.287262 0.30879,-0.235643 0.4974,-1.053799 0.4974,-1.053799 L 277.25,23.5625 Z"
             id="path36"
             sodipodi:nodetypes="ccssccc" /></g><g
           id="Sword"
           transform="translate(8.6359711,41.37524)"><path
             style="opacity:1;fill:#ffcc00;fill-opacity:1;fill-rule:evenodd;stroke:#000000;stroke-width:0.2;stroke-dasharray:none;stroke-opacity:1"
             d="m 126.20199,-24.527766 c 0.0986,-0.753761 1.11978,-1.644539 2.56326,-0.480611 l 3.70678,3.530009 c 0,0 0.94127,-0.881011 1.39212,-0.640816 0.44779,0.238566 0.54633,1.095829 0.24307,1.502602 -0.34184,0.45852 -1.1779,0.521361 -1.70148,0.220971 l -1.65728,-1.546796 -2.2981,-2.276 c -0.88061,0.452356 -2.30597,0.131056 -2.24837,-0.309359 z"
             id="path37"
             sodipodi:nodetypes="sccsscccs" /><path
             style="opacity:1;fill:#ffcc00;fill-opacity:1;fill-rule:evenodd;stroke:#000000;stroke-width:0.2;stroke-dasharray:none;stroke-opacity:1"
             d="m 130.61864,-23.243373 c 0,0 2.26966,-2.676273 3.76371,-3.527247 1.39838,-0.796484 2.56162,-1.099729 2.96356,-0.497284 0.40194,0.602445 -0.1344,2.414275 -1.26101,2.436303 l -1.97768,0.03867 -2.74401,2.258623 z"
             id="path38"
             sodipodi:nodetypes="cszsccc" /><path
             style="opacity:1;fill:#ffcc00;fill-opacity:1;fill-rule:evenodd;stroke:#000000;stroke-width:0.2;stroke-dasharray:none;stroke-opacity:0.992424"
             d="m 129.93445,-22.74859 c 0,0 -4.58457,2.24027 -6.95589,3.174357 -4.51559,1.778737 -9.13924,1.916651 -13.76562,1.054688 0.21327,0.841043 -2.75189,1.771363 -3.625,1.945312 8.92793,3.049391 18.26003,-0.676528 25.16052,-5.368174 z"
             id="path39"
             sodipodi:nodetypes="cscccc" /><path
             style="opacity:1;fill:#ffcc00;fill-opacity:1;fill-rule:evenodd;stroke:#000000;stroke-width:0.2;stroke-dasharray:none;stroke-opacity:0.992424"
             d="m 134.10722,-24.792931 c -0.14958,-0.09697 -0.42125,-0.310422 -0.42335,-0.558411"
             id="path40"
             sodipodi:nodetypes="cc" /></g><g
           id="Mace"
           transform="translate(-33.616337,20.875)"><path
             sodipodi:type="star"
             style="opacity:1;fill:#000000;fill-opacity:1;fill-rule:evenodd;stroke:#000000;stroke-width:0.2;stroke-dasharray:none;stroke-opacity:0.992424"
             id="path46"
             inkscape:flatsided="false"
             sodipodi:sides="8"
             sodipodi:cx="71.506172"
             sodipodi:cy="-13.788582"
             sodipodi:r1="3.7291086"
             sodipodi:r2="1.9114044"
             sodipodi:arg1="-1.5707963"
             sodipodi:arg2="-1.1780972"
             inkscape:rounded="0"
             inkscape:randomized="0"
             d="m 71.506172,-17.51769 0.731463,1.963201 1.905415,-0.870971 -0.87097,1.905415 1.963201,0.731463 -1.963201,0.731463 0.87097,1.905415 -1.905415,-0.87097 -0.731463,1.963201 -0.731463,-1.963202 -1.905415,0.870971 0.870971,-1.905415 -1.963201,-0.731463 1.963201,-0.731463 -0.870971,-1.905415 1.905415,0.870971 z"
             transform="matrix(1.0531308,-0.41301472,0.41301472,1.0531308,84.617989,40.127043)" /><path
             style="opacity:1;fill:#cac9c8;fill-opacity:1;fill-rule:evenodd;stroke:#000000;stroke-width:0.2;stroke-dasharray:none;stroke-opacity:0.992424"
             d="m 155.97219,-2.658025 21.52256,7.380427 0.57452,-1.811961 -22.11918,-6.29767 z"
             id="path44" /><circle
             style="opacity:1;fill:#cac9c8;fill-opacity:1;fill-rule:evenodd;stroke:#000000;stroke-width:0.190062;stroke-dasharray:none;stroke-opacity:0.992424"
             id="path45"
             cx="154.22845"
             cy="-3.9272392"
             r="2.8064024" /></g><path
           sodipodi:type="star"
           style="opacity:1;fill:#ffcc00;fill-opacity:1;fill-rule:evenodd;stroke:#000000;stroke-width:0.79159;stroke-dasharray:none"
           id="path5"
           inkscape:flatsided="false"
           sodipodi:sides="6"
           sodipodi:cx="54.137863"
           sodipodi:cy="117.82166"
           sodipodi:r1="19.187601"
           sodipodi:r2="6.6505413"
           sodipodi:arg1="-1.5707963"
           sodipodi:arg2="-1.0471976"
           inkscape:rounded="0"
           inkscape:randomized="0"
           d="m 54.137864,98.634062 3.32527,13.428068 13.291679,-3.83427 -9.966409,9.5938 9.966409,9.5938 -13.291679,-3.83426 -3.325271,13.42806 -3.32527,-13.42806 -13.29168,3.83426 9.966409,-9.5938 -9.966409,-9.5938 13.291679,3.83427 z"
           transform="matrix(0.63164043,0,0,0.63164043,21.137435,32.58711)" /><g
           id="g16"
           transform="translate(47.922165,1.2379631)"
           clip-path="url(#clipPath16)"
           style="opacity:1"><path
             style="opacity:1;fill:#ff9900;fill-opacity:1;fill-rule:evenodd;stroke:#000000;stroke-width:0.5;stroke-dasharray:none"
             d="m -28.669895,117.3125 c 3.557562,2.23995 3.761402,6.19522 7.203124,8.60938 0.835511,0.58606 2.77954,0.88745 3.609375,1.32812 1.258749,0.66843 2.177987,2.0217 2.625,3.375 0.568632,1.7215 -0.376691,3.64208 -0.125,5.4375 0.769341,5.48804 4.179235,10.38542 4.9375,15.875 0.211021,1.52772 -0.589157,3.15428 -0.125,4.625 1.4835257,4.70069 8.809876,13.40606 8.809876,13.40606 l -0.6848763,7.28144 -43.2499987,-5.875 -1.8125,-57.5625 c 5.908756,2.04749 13.070504,0.9507 18.8125,3.5 z"
             id="path6"
             sodipodi:nodetypes="sssssssccccs" /><path
             style="opacity:1;fill:#ffcc00;fill-opacity:0;fill-rule:evenodd;stroke:#000000;stroke-width:0.5;stroke-dasharray:none"
             d="m -45.682997,134.48677 c 0,0 3.58447,3.42628 5.789436,4.46361 1.448738,0.68156 3.357738,0.16464 4.684583,1.06066 2.712318,2.71935 1.997065,7.54028 4.24264,10.47402 0,0 4.129075,4.47489 5.480078,7.15946 2.066691,4.10671 3.800699,13.25825 3.800699,13.25825"
             id="path7"
             sodipodi:nodetypes="cssssc" /><path
             style="opacity:1;fill:#ffcc00;fill-opacity:0;fill-rule:evenodd;stroke:#000000;stroke-width:0.5;stroke-dasharray:none"
             d="m -38.523541,124.71986 c 0,0 4.82964,6.19454 8.175922,8.04334 1.232263,0.68082 2.9323,0.20099 4.110058,0.97227 1.109154,0.72635 1.886279,1.95413 2.386485,3.18198 0.941689,2.31155 0.258781,5.03277 0.972272,7.42462 1.472827,4.9374 5.223479,8.99015 6.717514,13.92117 0.586586,1.93601 0.06468,4.14182 0.83969,6.0104 0.842062,2.03024 2.874943,3.3577 3.977475,5.25911 0.658832,1.13621 1.5467957,3.62392 1.5467957,3.62392"
             id="path8"
             sodipodi:nodetypes="csssssssc" /><path
             style="opacity:1;fill:#ffcc00;fill-opacity:0;fill-rule:evenodd;stroke:#000000;stroke-width:0.5;stroke-dasharray:none"
             d="m -22.951146,147.96875 c 0,0 3.236383,7.06219 4.53125,10.71875 0.589872,1.66573 0.771263,3.47014 1.46875,5.09375 0.219304,0.5105 0.658273,0.91376 0.84375,1.4375 0.488837,1.38035 0.65625,4.34375 0.65625,4.34375"
             id="path11"
             sodipodi:nodetypes="csssc" /><path
             style="opacity:1;fill:#ffcc00;fill-opacity:0;fill-rule:evenodd;stroke:#000000;stroke-width:0.5;stroke-dasharray:none"
             d="m -15.201544,153.00413 c 0,0 0.008,4.10802 0.675439,6.01041 1.026496,2.92581 3.096993,5.39119 4.9642267,7.86656 1.71252,2.27027 5.686568,6.35961 5.686568,6.35961"
             id="path12"
             sodipodi:nodetypes="cssc" /><path
             style="opacity:1;fill:#ffcc00;fill-opacity:0;fill-rule:evenodd;stroke:#000000;stroke-width:0.5;stroke-dasharray:none"
             d="m -18.763646,142.03125 c 0,0 3.96506,7.51076 4.96875,11.59375 0.451423,1.83638 -0.18976,3.87226 0.4375,5.65625 1.305286,3.71235 4.1004287,6.75782 6.6562497,9.75 0.976341,1.14303 3.28125,3.09375 3.28125,3.09375"
             id="path13"
             sodipodi:nodetypes="csssc" /><path
             style="opacity:1;fill:#ffcc00;fill-opacity:0;fill-rule:evenodd;stroke:#000000;stroke-width:0.5;stroke-dasharray:none"
             d="m -19.189981,130.375 c 0,0 0.656197,6.48042 1.551335,9.59375 1.146712,3.98831 3.830206,7.44454 4.84375,11.46875 0.651614,2.58719 -0.130557,5.45026 0.75,7.96875 1.043197,2.98365 3.1710317,5.50351 5.1874997,7.9375 1.207891,1.45799 4.09375,3.9375 4.09375,3.9375"
             id="path14"
             sodipodi:nodetypes="cssssc" /><path
             style="opacity:1;fill:#ffcc00;fill-opacity:0;fill-rule:evenodd;stroke:#000000;stroke-width:0.5;stroke-dasharray:none"
             d="m -17.357396,131.375 c 0.147999,2.33796 -0.474341,5.20726 5.375,19.28125 1.083393,2.60673 0.0039,5.37465 0.860836,8.06435 0.991358,3.11171 4.9829137,8.43565 4.9829137,8.43565"
             id="path15"
             sodipodi:nodetypes="cssc" /></g><g
           id="g29"
           transform="matrix(-1,0,0,1,139.07782,1.2379631)"
           clip-path="url(#clipPath16)"
           style="opacity:1"><path
             style="opacity:1;fill:#ff9900;fill-opacity:1;fill-rule:evenodd;stroke:#000000;stroke-width:0.5;stroke-dasharray:none"
             d="m -28.669895,117.3125 c 3.557562,2.23995 3.761402,6.19522 7.203124,8.60938 0.835511,0.58606 2.77954,0.88745 3.609375,1.32812 1.258749,0.66843 2.177987,2.0217 2.625,3.375 0.568632,1.7215 -0.376691,3.64208 -0.125,5.4375 0.769341,5.48804 4.179235,10.38542 4.9375,15.875 0.211021,1.52772 -0.589157,3.15428 -0.125,4.625 1.4835257,4.70069 8.8098733,13.40606 8.8098733,13.40606 l -0.6848736,7.28144 -43.2499987,-5.875 -1.8125,-57.5625 c 5.908756,2.04749 13.070504,0.9507 18.8125,3.5 z"
             id="path18"
             sodipodi:nodetypes="sssssssccccs" /><path
             style="opacity:1;fill:#ffcc00;fill-opacity:0;fill-rule:evenodd;stroke:#000000;stroke-width:0.5;stroke-dasharray:none"
             d="m -45.682997,134.48677 c 0,0 3.58447,3.42628 5.789436,4.46361 1.448738,0.68156 3.357738,0.16464 4.684583,1.06066 2.712318,2.71935 1.997065,7.54028 4.24264,10.47402 0,0 4.129075,4.47489 5.480078,7.15946 2.066691,4.10671 3.800699,13.25825 3.800699,13.25825"
             id="path19"
             sodipodi:nodetypes="cssssc" /><path
             style="opacity:1;fill:#ffcc00;fill-opacity:0;fill-rule:evenodd;stroke:#000000;stroke-width:0.5;stroke-dasharray:none"
             d="m -38.523541,124.71986 c 0,0 4.82964,6.19454 8.175922,8.04334 1.232263,0.68082 2.9323,0.20099 4.110058,0.97227 1.109154,0.72635 1.886279,1.95413 2.386485,3.18198 0.941689,2.31155 0.258781,5.03277 0.972272,7.42462 1.472827,4.9374 5.223479,8.99015 6.717514,13.92117 0.586586,1.93601 0.06468,4.14182 0.83969,6.0104 0.842062,2.03024 2.874943,3.3577 3.977475,5.25911 0.658832,1.13621 1.5467957,3.62392 1.5467957,3.62392"
             id="path20"
             sodipodi:nodetypes="csssssssc" /><path
             style="opacity:1;fill:#ffcc00;fill-opacity:0;fill-rule:evenodd;stroke:#000000;stroke-width:0.5;stroke-dasharray:none"
             d="m -22.951146,147.96875 c 0,0 3.236383,7.06219 4.53125,10.71875 0.589872,1.66573 0.771263,3.47014 1.46875,5.09375 0.219304,0.5105 0.658273,0.91376 0.84375,1.4375 0.488837,1.38035 0.65625,4.34375 0.65625,4.34375"
             id="path21"
             sodipodi:nodetypes="csssc" /><path
             style="opacity:1;fill:#ffcc00;fill-opacity:0;fill-rule:evenodd;stroke:#000000;stroke-width:0.5;stroke-dasharray:none"
             d="m -15.201544,153.00413 c 0,0 0.008,4.10802 0.675439,6.01041 1.026496,2.92581 3.096993,5.39119 4.9642267,7.86656 1.71252,2.27027 5.686568,6.35961 5.686568,6.35961"
             id="path22"
             sodipodi:nodetypes="cssc" /><path
             style="opacity:1;fill:#ffcc00;fill-opacity:0;fill-rule:evenodd;stroke:#000000;stroke-width:0.5;stroke-dasharray:none"
             d="m -18.763646,142.03125 c 0,0 3.96506,7.51076 4.96875,11.59375 0.451423,1.83638 -0.18976,3.87226 0.4375,5.65625 1.305286,3.71235 4.1004287,6.75782 6.6562497,9.75 0.976341,1.14303 3.28125,3.09375 3.28125,3.09375"
             id="path23"
             sodipodi:nodetypes="csssc" /><path
             style="opacity:1;fill:#ffcc00;fill-opacity:0;fill-rule:evenodd;stroke:#000000;stroke-width:0.5;stroke-dasharray:none"
             d="m -19.189981,130.375 c 0,0 0.656197,6.48042 1.551335,9.59375 1.146712,3.98831 3.830206,7.44454 4.84375,11.46875 0.651614,2.58719 -0.130557,5.45026 0.75,7.96875 1.043197,2.98365 3.1710317,5.50351 5.1874997,7.9375 1.207891,1.45799 4.09375,3.9375 4.09375,3.9375"
             id="path28"
             sodipodi:nodetypes="cssssc" /><path
             style="opacity:1;fill:#ffcc00;fill-opacity:0;fill-rule:evenodd;stroke:#000000;stroke-width:0.5;stroke-dasharray:none"
             d="m -17.357396,131.375 c 0.147999,2.33796 -0.474341,5.20726 5.375,19.28125 1.083393,2.60673 0.0039,5.37465 0.860836,8.06435 0.991358,3.11171 4.9829137,8.43565 4.9829137,8.43565"
             id="path29"
             sodipodi:nodetypes="cssc" /></g><g
           id="Ship"><rect
             style="opacity:1;fill:#000000;fill-opacity:1;fill-rule:evenodd;stroke:#000000;stroke-width:0.598903;stroke-dasharray:none"
             id="rect55"
             width="0.54418463"
             height="42.035282"
             x="112.18736"
             y="131.67427"
             transform="matrix(0.9992545,-0.0386064,-0.00279854,0.99999608,0,0)" /><path
             style="opacity:1;fill:none;fill-opacity:1;stroke:#000000;stroke-width:0.5;stroke-linecap:round;stroke-miterlimit:4.2;stroke-opacity:1"
             d="m 102.08854,122.06431 c 2.89281,3.80249 5.10551,9.46392 9.63433,8.79464"
             id="path3267"
             sodipodi:nodetypes="cc" /><rect
             style="opacity:1;fill:#000000;fill-opacity:1;fill-rule:evenodd;stroke:#000000;stroke-width:0.643857;stroke-dasharray:none"
             id="rect54"
             width="0.53028512"
             height="49.856056"
             x="104.85947"
             y="120.98045"
             transform="matrix(0.99989707,-0.01434761,-0.0243379,0.99970379,0,0)" /><path
             style="opacity:1;fill:#663300;fill-opacity:1;fill-rule:evenodd;stroke:#000000;stroke-width:0.5;stroke-dasharray:none"
             d="m 127.89431,167.99026 c -2.2273,3.90083 -0.13027,4.69584 0.21513,6.31156 0.16449,0.76945 -0.3027,2.03152 -2.25552,2.05784 -16.74999,1.99986 -33.55543,0.7974 -50.431965,0.78103 -1.730266,-3.49811 -3.587952,-6.52921 -5.395345,-7.98346 l 51.08282,0.50005 1.15633,-1.38686 z"
             id="path30"
             sodipodi:nodetypes="cscccccc" /><rect
             style="opacity:1;fill:#000000;fill-opacity:1;fill-rule:evenodd;stroke:#000000;stroke-width:0.492143;stroke-dasharray:none"
             id="rect50"
             width="0.33496353"
             height="46.114227"
             x="89.710747"
             y="119.9192"
             transform="matrix(0.99931363,0.03704412,-0.03594673,0.99935371,0,0)" /><path
             style="opacity:1;fill:#ffffff;fill-opacity:1;fill-rule:evenodd;stroke:#000000;stroke-width:0.5;stroke-dasharray:none"
             d="M 109.57945,135.74591 H 94.125 c -3.691643,2.20389 -4.355664,8.71386 -3.166457,15.69651 6.712465,-2.60874 14.115347,-2.63789 20.708207,0.36985 -1.50334,-5.43621 -2.8949,-10.86124 -2.0873,-16.06636 z"
             id="path59"
             sodipodi:nodetypes="ccccc" /><path
             style="opacity:1;fill:#ffffff;fill-opacity:1;fill-rule:evenodd;stroke:#000000;stroke-width:0.5;stroke-dasharray:none"
             d="m 97.072503,167.18657 c 7.087257,-0.41394 13.311157,0.36314 19.732697,0.28726 -1.78,-0.267 -4.7165,-15.24852 -3.07149,-15.13644 0.18687,0.0127 -18.252198,-0.15124 -18.252198,-0.15124 -3.300404,5.82395 -0.337759,10.30102 1.590991,15.00042 z"
             id="path60"
             sodipodi:nodetypes="ccscc" /><path
             style="opacity:1;fill:#ffffff;fill-opacity:1;fill-rule:evenodd;stroke:#000000;stroke-width:0.5;stroke-dasharray:none"
             d="M 91.311427,139.78617 H 75.130095 c -0.596666,3.88991 -1.330588,7.72477 0.0221,12.39647 6.465421,-0.52774 12.758858,-1.23891 18.870913,0.35355 -3.40292,-5.21382 -2.791581,-8.59783 -2.711678,-12.75002 z"
             id="path43"
             sodipodi:nodetypes="cccccc" /><path
             style="opacity:1;fill:#ffffff;fill-opacity:1;fill-rule:evenodd;stroke:#000000;stroke-width:0.5;stroke-dasharray:none"
             d="M 78.120128,154.17718 H 94.03125 c 0.777794,5.37816 1.71767,10.5162 4.0625,13.57282 -8.543973,-0.82381 -17.067018,-1.95457 -25.78125,-0.28125 -1.743435,-6.31381 2.639677,-9.71024 5.807628,-13.29157 z"
             id="path47"
             sodipodi:nodetypes="ccccc" /><rect
             style="opacity:1;fill:#000000;fill-opacity:1;fill-rule:evenodd;stroke:#000000;stroke-width:0.538216;stroke-dasharray:none"
             id="rect48"
             width="20.135933"
             height="0.94921941"
             x="76.006439"
             y="153.20044" /><path
             style="opacity:1;fill:#ffffff;fill-opacity:1;fill-rule:evenodd;stroke:#000000;stroke-width:0.5;stroke-dasharray:none"
             d="m 83.880542,139.13431 c -7.097334,7.4724 -13.302964,15.12465 -20.925942,25.90883 4.818641,-1.93876 9.227969,-0.64466 14.694563,2.89472 -0.139546,-12.72944 0.428332,-23.53148 6.231379,-28.80355 z"
             id="path41"
             sodipodi:nodetypes="cccc" /><path
             style="opacity:1;fill:#ffffff;fill-opacity:1;fill-rule:evenodd;stroke:#000000;stroke-width:0.5;stroke-dasharray:none"
             d="m 78.510948,129.77618 c -0.938657,2.57419 -0.852677,5.42163 -0.950173,8.22013 4.498227,-2.08036 8.874214,-1.28809 13.258252,-0.68501 -1.474769,-2.38042 -1.798018,-4.91968 -1.568897,-7.53512 z"
             id="path42"
             sodipodi:nodetypes="ccccc" /><path
             style="opacity:1;fill:#ffffff;fill-opacity:1;fill-rule:evenodd;stroke:#000000;stroke-width:0.5;stroke-dasharray:none"
             d="m 53.269144,158.55927 c 5.215793,0.2844 9.750638,2.78188 13.788583,6.89429 3.715379,-14.42113 10.58982,-24.97402 17.081047,-35.99615 -8.296465,10.69732 -19.883266,19.74948 -30.86963,29.10186 z"
             id="path32"
             sodipodi:nodetypes="cccc" /><rect
             style="opacity:1;fill:#000000;fill-opacity:1;fill-rule:evenodd;stroke:#000000;stroke-width:0.517303;stroke-dasharray:none"
             id="rect41"
             width="11.649959"
             height="1.2864248"
             x="78.055557"
             y="128.48111" /><rect
             style="opacity:1;fill:#000000;fill-opacity:1;fill-rule:evenodd;stroke:#000000;stroke-width:0.5;stroke-dasharray:none"
             id="rect47"
             width="16.705399"
             height="0.98743522"
             x="75.472595"
             y="138.79872" /><path
             style="opacity:1;fill:none;fill-opacity:1;stroke:#000000;stroke-width:0.5;stroke-linecap:round;stroke-miterlimit:4.2;stroke-opacity:1"
             d="m 85.55992,124.45079 c 1.745701,4.03289 7.012248,3.92402 10.759364,2.19451 2.590202,-1.19552 4.394066,-2.97929 5.813456,-4.44841"
             id="path3265"
             sodipodi:nodetypes="csc" /><path
             style="opacity:1;fill:#ffffff;fill-opacity:1;fill-rule:evenodd;stroke:#000000;stroke-width:0.5;stroke-dasharray:none"
             d="m 95.737709,125.52489 c -3.033378,4.27934 -2.216261,7.62521 -2.237709,10.22102 6.62923,-4.42179 11.11752,-1.38596 16.07945,0 -2.21199,-2.66561 -3.88587,-9.28754 -3.42504,-10.22101 z"
             id="path58"
             sodipodi:nodetypes="ccccc" /><rect
             style="opacity:1;fill:#000000;fill-opacity:1;fill-rule:evenodd;stroke:#000000;stroke-width:0.538216;stroke-dasharray:none"
             id="rect56"
             width="20.135933"
             height="0.94921941"
             x="94.811577"
             y="151.71153" /><rect
             style="opacity:1;fill:#000000;fill-opacity:1;fill-rule:evenodd;stroke:#000000;stroke-width:0.538216;stroke-dasharray:none"
             id="rect57"
             width="20.135933"
             height="0.94921941"
             x="92.174034"
             y="135.2713" /><rect
             style="opacity:1;fill:#000000;fill-opacity:1;fill-rule:evenodd;stroke:#000000;stroke-width:0.517303;stroke-dasharray:none"
             id="rect58"
             width="11.649959"
             height="1.2864248"
             x="95.737709"
             y="124.23847" /><path
             style="opacity:1;fill:#ff00ff;fill-opacity:1;fill-rule:evenodd;stroke:#000000;stroke-width:0.5;stroke-dasharray:none"
             d="m 112.05054,149.43155 c 0.16675,-0.055 10.46676,-5.43588 10.46676,-5.43588 l 0.23202,0.44194 -10.69878,5.69 z"
             id="path61" /><rect
             style="opacity:1;fill:#000000;fill-opacity:1;fill-rule:evenodd;stroke:#000000;stroke-width:0.506014;stroke-dasharray:none"
             id="rect61"
             width="16.566532"
             height="0.26516357"
             x="116.41373"
             y="167.20866" /><path
             style="opacity:1;fill:#ffffff;fill-opacity:1;stroke:#000000;stroke-width:0.5;stroke-linecap:round;stroke-miterlimit:4.2"
             d="m 112.05054,149.77958 0.11629,17.62858 19.88536,-0.0669 c -5.55985,-9.06083 -9.07715,-11.09124 -10.23831,-22.40614 z"
             id="path390"
             sodipodi:nodetypes="ccccc" /><path
             style="opacity:1;fill:#ffffff;fill-opacity:1;stroke:none;stroke-width:0.5;stroke-linecap:round;stroke-miterlimit:4.2"
             d="m 72.522639,171.62807 2.695845,0.0663 c 1.191811,-1.14677 3.110616,-0.97692 4.02167,0.13259 l 47.597126,-0.7955 0.0442,-0.57452 -55.927724,-0.76235 z"
             id="path1213"
             sodipodi:nodetypes="ccccccc" /><path
             style="opacity:1;fill:#663300;fill-opacity:1;stroke:#000000;stroke-width:0.5;stroke-linecap:round;stroke-miterlimit:4.2;stroke-opacity:1"
             d="m 69.982019,169.03125 -22.25,-10.46875 0.25,-0.46875 26.46875,11.09375 z"
             id="path3257" /><path
             style="opacity:1;fill:#663300;fill-opacity:1;stroke:#000000;stroke-width:0.5;stroke-linecap:round;stroke-miterlimit:4.2;stroke-opacity:1"
             d="m 48.875,158.4375 36.5,-34.5625"
             id="path3263"
             inkscape:label="path3263" /><path
             style="opacity:1;fill:#663300;fill-opacity:1;stroke:#000000;stroke-width:0.5;stroke-linecap:round;stroke-miterlimit:4.2;stroke-opacity:1"
             d="m 61.96875,165.34375 0.409879,3.38778 0.516342,-0.0444 0.05168,-2.90559 z"
             id="path3276"
             sodipodi:nodetypes="ccccc" /><path
             style="opacity:1;fill:none;fill-opacity:1;stroke:#000000;stroke-width:0.5;stroke-linecap:round;stroke-miterlimit:4.2;stroke-opacity:1"
             d="m 62.291688,168.44609 c -3.399911,-4.80898 -7.229706,-6.60878 -11.092738,-8.17592"
             id="path4144"
             sodipodi:nodetypes="cc" /><path
             style="opacity:1;fill:none;fill-opacity:1;stroke:#000000;stroke-width:0.5;stroke-linecap:round;stroke-miterlimit:4.2;stroke-opacity:1"
             d="m 62.799921,168.66706 c 0.938152,-0.93506 1.993907,-1.69372 3.977476,-1.06066"
             id="path4146"
             sodipodi:nodetypes="cc" /><g
             id="flag"
             transform="translate(-155.42838,14.398017)"><path
               id="path65"
               style="fill:#ffffff;fill-rule:evenodd;stroke:#000000;stroke-width:0.5;stroke-linecap:butt;stroke-dasharray:none;stroke-opacity:1"
               d="m 287.45402,111.06025 c 0,0 -8.19459,-1.46053 -11.8125,0.0937 -0.74456,0.31986 -0.89784,1.29965 -1.64331,1.61742 -1.95032,0.83135 -6.09968,0.27478 -6.45044,0.22628 l 0.34375,3.5 c 0.35076,0.0485 4.50012,0.60507 6.45044,-0.22628 0.74547,-0.31777 0.89875,-1.29756 1.64331,-1.61742 3.61791,-1.55423 11.8125,-0.0937 11.8125,-0.0937 z"
               sodipodi:nodetypes="cssccsscc" /><path
               d="m 287.45401,112.23025 c 0,0 -8.19459,-1.46053 -11.8125,0.0937 -0.74456,0.31986 -0.89784,1.29965 -1.64331,1.61742 -1.95032,0.83135 -6.09968,0.27478 -6.45044,0.22628"
               style="fill:none;fill-rule:evenodd;stroke:#ff0000;stroke-width:0.5;stroke-linecap:butt;stroke-dasharray:none;stroke-opacity:1"
               id="path1-9" /><path
               d="m 287.62589,113.40025 c 0,0 -8.19459,-1.46053 -11.8125,0.0937 -0.74456,0.31986 -0.89784,1.29965 -1.64331,1.61742 -1.95032,0.83135 -6.09968,0.27478 -6.45044,0.22628"
               style="fill:none;fill-rule:evenodd;stroke:#0000ff;stroke-width:0.5;stroke-linecap:butt;stroke-dasharray:none;stroke-opacity:1"
               id="path1-2" /><path
               style="fill:#ff0000;fill-rule:evenodd;stroke:#ff0000;stroke-width:0.1;stroke-linecap:butt;stroke-dasharray:none;stroke-opacity:1"
               d="m 270.27344,114.13018 c -0.29736,-0.008 -0.84536,-0.0383 -1.24219,-0.0688 -0.38108,-0.0293 -1.11666,-0.10235 -1.12579,-0.1118 -0.007,-0.008 -0.0695,-0.64233 -0.0635,-0.6483 0.003,-0.003 0.13142,0.008 0.28503,0.0254 1.08445,0.12111 2.32814,0.17689 3.22973,0.14486 1.15864,-0.0412 1.97194,-0.16791 2.5964,-0.40461 0.44775,-0.16972 0.66348,-0.35753 1.05506,-0.91854 0.44136,-0.63233 0.53603,-0.70627 1.17934,-0.921 0.8402,-0.28046 1.91749,-0.44725 3.29628,-0.51034 0.51781,-0.0237 2.18649,-0.009 2.74278,0.0234 1.44995,0.0857 2.67528,0.20612 4,0.39326 0.72137,0.1019 0.9721,0.14323 0.98381,0.16219 0.0124,0.0201 0.0707,0.62353 0.0611,0.63311 -0.004,0.004 -0.11543,-0.0105 -0.24841,-0.0315 -1.64774,-0.26016 -3.60872,-0.45471 -5.27304,-0.52314 -0.52883,-0.0217 -1.90305,-0.0217 -2.35156,4e-5 -1.34915,0.0654 -2.38745,0.22285 -3.26313,0.49467 -0.47079,0.14614 -0.74789,0.27314 -0.95167,0.43618 -0.16626,0.13303 -0.28642,0.27427 -0.56034,0.65866 -0.35192,0.49385 -0.47648,0.62097 -0.71705,0.73182 -0.68869,0.31731 -2.02646,0.47729 -3.63281,0.43443 z"
               id="path67" /><path
               style="fill:#0000ff;fill-rule:evenodd;stroke:#0000ff;stroke-width:0.1;stroke-linecap:butt;stroke-dasharray:none;stroke-opacity:1"
               d="m 270.5625,116.45954 c -0.73078,-0.0309 -1.21244,-0.0639 -1.82031,-0.12452 -0.49363,-0.0493 -0.596,-0.0634 -0.60873,-0.084 -0.0115,-0.0186 -0.0688,-0.59432 -0.0601,-0.60308 0.003,-0.003 0.12857,0.008 0.27869,0.0239 1.5666,0.17022 3.23149,0.19406 4.31199,0.0618 0.54971,-0.0673 1.05595,-0.17853 1.42585,-0.31326 0.47163,-0.17178 0.68363,-0.35416 1.09712,-0.94382 0.40335,-0.57519 0.49743,-0.65819 0.94015,-0.82929 1.81596,-0.70186 5.2089,-0.80186 9.47385,-0.27924 0.64428,0.0789 1.82197,0.24871 1.8416,0.26546 0.007,0.006 0.0659,0.6054 0.0601,0.61112 -0.002,0.002 -0.11308,-0.0125 -0.24581,-0.0332 -1.50665,-0.23516 -3.13575,-0.40146 -4.85853,-0.49597 -0.49324,-0.0271 -2.50967,-0.0274 -2.90625,-4.4e-4 -1.49142,0.10125 -2.54492,0.29099 -3.375,0.60787 -0.53962,0.20599 -0.72332,0.3606 -1.14797,0.96618 -0.39724,0.56649 -0.50354,0.66172 -0.90672,0.81233 -0.42317,0.15808 -1.11069,0.28025 -1.89063,0.33597 -0.23281,0.0166 -1.37012,0.0323 -1.60937,0.0222 z"
               id="path68" /><path
               id="path65-6"
               style="fill:none;fill-rule:evenodd;stroke:#000000;stroke-width:0.5;stroke-linecap:butt;stroke-dasharray:none;stroke-opacity:1"
               d="m 287.45402,111.06025 c 0,0 -8.19459,-1.46053 -11.8125,0.0937 -0.74456,0.31986 -0.89784,1.29965 -1.64331,1.61742 -1.95032,0.83135 -6.09968,0.27478 -6.45044,0.22628 l 0.34375,3.5 c 0.35076,0.0485 4.50012,0.60507 6.45044,-0.22628 0.74547,-0.31777 0.89875,-1.29756 1.64331,-1.61742 3.61791,-1.55423 11.8125,-0.0937 11.8125,-0.0937 z"
               sodipodi:nodetypes="cssccsscc" /></g><path
             style="opacity:1;fill:#ffffff;fill-opacity:1;stroke:#000000;stroke-width:0.5;stroke-linecap:round;stroke-miterlimit:4.2"
             d="m 111.98804,128.20729 c 2.72319,5.32156 5.05063,11.8625 8.75044,15.55636 -3.23237,0.87167 -6.39998,1.83241 -8.70625,3.97747 z"
             id="path1043"
             sodipodi:nodetypes="cccc" /></g><path
           style="fill:#00ccff;fill-opacity:1;fill-rule:evenodd;stroke:none;stroke-width:1;stroke-dasharray:none;stroke-opacity:1"
           d="m 75.101965,176.21564 h 2.78423 l 1.798216,-1.54974 2.689836,1.81702 3.730983,0.41236 3.625005,-2.31483 3.53554,2.2981 5.793195,0.61452 3.355,-2.73584 2.33399,1.64719 2.76481,0.62346 3.46816,-0.89869 0.83954,-1.89583 3.14463,2.07067 5.12652,0.26516 2.91682,-1.45841 3.0052,1.72358 2.37676,0.25939 -0.42165,3.625 L 71.3125,180.375 Z"
           id="path56" /><path
           style="opacity:1;fill:#ff80db;fill-opacity:0;fill-rule:evenodd;stroke:#ffffff;stroke-width:1.5;stroke-dasharray:none"
           d="m 67.677335,173.65238 c 0,0 1.699404,-0.32015 2.51907,-0.13259 1.818825,0.4162 3.0983,2.23198 4.90556,2.69585 0.89893,0.23073 1.85615,0.30936 2.78423,0 0.92808,-0.30936 2.03293,-1.85616 2.03293,-1.85616 0,0 1.95329,2.12065 3.27037,2.51907 1.22965,0.37197 2.64144,0.18438 3.8449,-0.26516 1.05432,-0.39383 2.69584,-2.03294 2.69584,-2.03294 0,0 2.1828,1.91625 3.53554,2.2981 2.16988,0.61251 4.64756,0.60676 6.761705,-0.17678 0.96218,-0.3566 2.38649,-1.94454 2.38649,-1.94454 0,0 2.04587,1.71677 3.29247,2.07713 1.08262,0.31296 2.27423,0.21312 3.38085,0 1.01269,-0.19503 1.78412,-0.3592 2.34229,-1.22639 0.34321,-0.53323 0.44193,-1.82301 0.44193,-1.82301 0,0 1.85257,2.04124 3.09359,2.51907 1.59685,0.61483 3.45157,0.61514 5.12652,0.26516 1.06405,-0.22233 2.91682,-1.45841 2.91682,-1.45841 0,0 1.88933,1.4263 3.0052,1.72358 1.86477,0.4968 5.78944,0 5.78944,0"
           id="path4"
           sodipodi:nodetypes="cssscsscsscssscsscsc" /><path
           id="path57"
           style="opacity:1;fill:#00ccff;fill-opacity:0;fill-rule:evenodd;stroke:#000000;stroke-width:1.82282;stroke-opacity:1"
           d="m -215.73076,12.76754 -11.47266,19.171875 c 22.82641,21.901771 9.34011,77.430905 5.14063,88.978515 -4.07212,11.19737 -12.22647,21.5151 -17.47461,31.87695 8.98713,1.62477 12.92305,9.52865 17.78516,16.4043 6.88322,9.73378 19.29149,11.8917 27.71093,11.16602 10.11268,32.60273 31.31321,17.33323 48.00391,43.51367 16.69071,-26.18044 37.89124,-10.91094 48.003922,-43.51367 8.41944,0.72568 20.82771,-1.43224 27.71093,-11.16602 4.86211,-6.87565 8.79803,-14.77953 17.78516,-16.4043 -5.24814,-10.36185 -13.40249,-20.67958 -17.47461,-31.87695 -4.19949,-11.54761 -17.68578,-67.076744 5.14063,-88.978515 L -76.344028,12.76754 c -42.235932,9.054072 -36.385892,-14.4203521 -69.693372,2.439453 -33.90953,-17.1645533 -26.13906,6.897236 -69.69336,-2.439453 z"
           sodipodi:nodetypes="ccscscccscscccc"
           transform="matrix(0.98560389,0,0,0.99290854,237.43503,-7.8796281)" /></g></g></g></svg>
