<?xml version="1.0" encoding="UTF-8" standalone="no"?>
<!-- Created with Inkscape (http://www.inkscape.org/) -->

<svg
   version="1.1"
   id="svg1"
   width="640"
   height="320"
   viewBox="0 0 640 320"
   sodipodi:docname="Flag_of_Sisak-Moslavina_County.svg"
   inkscape:version="1.3.2 (091e20e, 2023-11-25, custom)"
   xmlns:inkscape="http://www.inkscape.org/namespaces/inkscape"
   xmlns:sodipodi="http://sodipodi.sourceforge.net/DTD/sodipodi-0.dtd"
   xmlns="http://www.w3.org/2000/svg"
   xmlns:svg="http://www.w3.org/2000/svg">
  <defs
     id="defs1">
    <clipPath
       clipPathUnits="userSpaceOnUse"
       id="clipPath2">
      <ellipse
         style="display:none;fill:#0000ff;fill-opacity:1;fill-rule:evenodd;stroke-width:2.31195;stroke-linecap:square"
         id="ellipse2"
         cx="277.73911"
         cy="-50.448112"
         rx="99.073738"
         ry="102.89338"
         clip-path="none"
         d="M 376.81284,-50.448112 A 99.073738,102.89338 0 0 1 277.73911,52.445267 99.073738,102.89338 0 0 1 178.66537,-50.448112 99.073738,102.89338 0 0 1 277.73911,-153.34149 99.073738,102.89338 0 0 1 376.81284,-50.448112 Z" />
      <path
         id="lpe_path-effect2"
         style="display:inline;fill:#0000ff;fill-opacity:1;fill-rule:evenodd;stroke-width:2.31195;stroke-linecap:square"
         class="powerclip"
         d="m 204.51172,-204.21094 h 146.45513 v 72.22852 H 204.51172 Z M 376.81284,-50.448112 A 99.073738,102.89338 0 0 0 277.73911,-153.34149 99.073738,102.89338 0 0 0 178.66537,-50.448112 99.073738,102.89338 0 0 0 277.73911,52.445267 99.073738,102.89338 0 0 0 376.81284,-50.448112 Z" />
    </clipPath>
    <inkscape:path-effect
       effect="powerclip"
       id="path-effect2"
       is_visible="true"
       lpeversion="1"
       inverse="true"
       flatten="false"
       hide_clip="false"
       message="Use fill-rule evenodd on &lt;b&gt;fill and stroke&lt;/b&gt; dialog if no flatten result after convert clip to paths." />
    <clipPath
       clipPathUnits="userSpaceOnUse"
       id="clipPath4">
      <rect
         style="fill:#0000ff;fill-opacity:0.412879;fill-rule:evenodd;stroke-width:4.01687;stroke-linecap:square"
         id="rect4"
         width="80.96373"
         height="171.85318"
         x="-12.779366"
         y="50.881714" />
    </clipPath>
    <clipPath
       clipPathUnits="userSpaceOnUse"
       id="clipPath1">
      <rect
         style="fill:#0000ff;fill-opacity:0.412879;fill-rule:evenodd;stroke-width:4.01687;stroke-linecap:square"
         id="rect1-1"
         width="80.96373"
         height="171.85318"
         x="-12.779366"
         y="50.881714" />
    </clipPath>
  </defs>
  <sodipodi:namedview
     id="namedview1"
     pagecolor="#ffffff"
     bordercolor="#000000"
     borderopacity="0.25"
     inkscape:showpageshadow="2"
     inkscape:pageopacity="0.0"
     inkscape:pagecheckerboard="0"
     inkscape:deskcolor="#d1d1d1"
     inkscape:zoom="0.81601563"
     inkscape:cx="447.90809"
     inkscape:cy="96.199138"
     inkscape:window-width="2880"
     inkscape:window-height="1526"
     inkscape:window-x="-11"
     inkscape:window-y="-11"
     inkscape:window-maximized="1"
     inkscape:current-layer="g1" />
  <g
     inkscape:groupmode="layer"
     inkscape:label="Image"
     id="g1">
    <rect
       style="fill:#000099;fill-opacity:1;fill-rule:evenodd;stroke-width:2.312"
       id="rect1"
       width="640"
       height="320"
       x="0"
       y="0" />
    <rect
       style="fill:#ff0000;fill-opacity:1;fill-rule:evenodd;stroke-width:3.81308"
       id="rect2"
       width="64"
       height="320"
       x="0"
       y="0" />
    <rect
       style="fill:#ffffff;fill-opacity:1;fill-rule:evenodd;stroke-width:3.81308"
       id="rect3"
       width="64"
       height="320"
       x="64"
       y="0" />
    <g
       id="g4"
       transform="translate(37.499286,97.39787)">
      <g
         id="g10233"
         style="stroke-linecap:butt"
         transform="translate(402.95638,-38.402981)">
        <g
           id="g9490"
           transform="translate(13.118665,11.189451)"
           style="display:inline;stroke-linecap:butt">
          <path
             id="path3"
             style="fill:#ffcc00;fill-opacity:1;fill-rule:evenodd;stroke-width:2;stroke-linecap:butt"
             d="m -203.07433,40.447088 c 0,21.286088 -0.0919,41.517906 1.81055,59.767582 4.68821,44.97507 25.79664,78.60562 67.68945,97.20312 41.89281,-18.5975 63.00124,-52.22805 67.68945,-97.20312 1.9024,-18.249676 1.81055,-38.481494 1.81055,-59.767582 h -69.5 z" />
          <path
             id="path3-3"
             style="fill:#009900;fill-opacity:1;fill-rule:evenodd;stroke-width:1.88115;stroke-linecap:butt"
             d="m 4.3850228,63.001568 c 0,20.113083 -0.085968,39.229992 1.6951558,56.473992 4.3894324,42.49666 24.1526324,74.27394 63.3756184,91.84659 39.223003,-17.57265 58.986203,-49.34993 63.375633,-91.84659 1.78116,-17.244 1.69516,-36.360909 1.69516,-56.473992 H 69.455797 Z"
             inkscape:transform-center-x="107.20294"
             inkscape:transform-center-y="-43.937544"
             clip-path="url(#clipPath4)"
             transform="translate(-203.54775,-18.22919)" />
          <path
             id="path5"
             style="fill:#3399ff;fill-opacity:1;fill-rule:evenodd;stroke-width:1.88115;stroke-linecap:butt"
             d="m 4.3850228,63.001568 c 0,20.113083 -0.085968,39.229992 1.6951558,56.473992 4.3894324,42.49666 24.1526324,74.27394 63.3756184,91.84659 39.223003,-17.57265 58.986203,-49.34993 63.375633,-91.84659 1.78116,-17.244 1.69516,-36.360909 1.69516,-56.473992 H 69.455797 Z"
             inkscape:transform-center-x="-107.20294"
             inkscape:transform-center-y="-43.937544"
             clip-path="url(#clipPath4)"
             transform="matrix(-1,0,0,1,-63.600916,-18.22919)" />
        </g>
        <g
           id="g9485"
           transform="translate(-335.24505,9.0187194)"
           style="stroke-linecap:butt">
          <rect
             style="fill:#f56200;fill-opacity:1;fill-rule:evenodd;stroke:#000000;stroke-width:0.5;stroke-linecap:butt;stroke-dasharray:none"
             id="rect537"
             width="1.4142135"
             height="48.5252"
             x="185.70822"
             y="114.78945" />
          <path
             style="fill:#f56200;fill-opacity:1;stroke:#000000;stroke-width:0.5;stroke-linecap:butt;stroke-linejoin:round;stroke-miterlimit:4.2"
             d="m 172.39019,66.952809 -16.6875,19.312503 18.625,-16.937503 z"
             id="path533" />
          <path
             style="fill:#f56200;fill-opacity:1;stroke:#000000;stroke-width:0.5;stroke-linecap:butt;stroke-linejoin:round;stroke-miterlimit:4.2;stroke-dasharray:none;stroke-opacity:1"
             d="m 192.61198,119.21807 -2.15552,-1.17546 3.40581,14.7735 c -5.487,-0.4573 -12.28314,-0.078 -18.76939,1.3383 -0.2795,3.03324 -0.19421,6.8933 0.15089,11.34228 0.74498,-0.71582 0.9486,-1.43845 2.58065,-1.30752 -0.39059,-2.1273 -0.50075,-6.02367 -1.71507,-8.48046 4.17776,-0.20564 6.84887,-0.53402 9.39283,-1.85543 3.69269,0.23439 7.26891,-0.6346 10.68158,0.99816 z"
             id="path5132"
             sodipodi:nodetypes="cccccccccc" />
          <path
             style="fill:#ffffff;fill-opacity:1;stroke:#000000;stroke-width:0.5;stroke-linecap:butt;stroke-linejoin:round;stroke-miterlimit:4.2;stroke-dasharray:none;stroke-opacity:1"
             d="m 177.65622,69.798277 c -7.43816,11.31789 -7.66388,25.393855 -6.3125,32.019593 1.42221,6.97301 6.09459,8.91431 10.71476,13.57154 l 20.91024,-6.40364 c -1.79714,-9.391818 -11.39159,-18.739768 -24.19692,-18.925488 0,0 -0.0962,-6.342412 0.82192,-9.324505 1.83248,-5.952142 10.19086,-20.895442 -0.25,-20.761132 -9.11669,0.117275 -6.98916,8.803799 -6.125,9.761132 0.92176,1.02113 4.4375,0.0625 4.4375,0.0625 z"
             id="path7574"
             sodipodi:nodetypes="cscccsssc" />
          <path
             style="fill:#000000;fill-opacity:1;stroke:#000000;stroke-width:0.5;stroke-linecap:butt;stroke-linejoin:round;stroke-miterlimit:4.2;stroke-dasharray:none;stroke-opacity:1"
             d="m 207.42729,132.85907 c -0.84349,-0.91787 -2.83937,-6.01128 -18.64933,-14.3093 -0.8951,-0.4698 -1.45496,-1.18237 -2.2332,-1.93018 -0.76037,-0.73062 -0.61287,-1.03819 -1.70388,-0.59077 -1.58163,0.64862 -2.48645,-0.33729 -3.1461,-1.00051 1.6161,-0.22907 0.94441,-0.0257 1.40879,-0.33154 -4.60165,-8.50751 -5.4477,-8.32473 -5.21875,-10.6875 7.90256,-0.28344 12.65399,1.88709 20.5625,5.875 0.0206,-3.81705 0.32265,-6.10992 -1.30178,-11.796298 6.64547,6.281158 10.87768,16.069668 12.64553,25.327548 0.61823,3.44255 0.42187,10.48437 0.42187,10.48437 -0.95761,-1.01013 -1.74922,-0.93707 -2.78565,-1.04082 z"
             id="path5418"
             sodipodi:nodetypes="cssscccccccc" />
          <path
             style="fill:#ffffff;fill-opacity:0;stroke:#000000;stroke-width:0.5;stroke-linecap:butt;stroke-linejoin:round;stroke-miterlimit:4.2;stroke-dasharray:none;stroke-opacity:1"
             d="m 174.86904,64.455391 c 0.60117,-0.597145 1.46135,-1.194297 2.25477,-1.194297 0.79342,0 1.65359,0.597152 2.25477,1.194297"
             id="path8680"
             sodipodi:nodetypes="czc" />
          <circle
             style="opacity:1;fill:#000000;fill-opacity:1;stroke:#000000;stroke-width:0.668554;stroke-linecap:round;stroke-linejoin:miter;stroke-miterlimit:4.2;stroke-dasharray:none;stroke-opacity:1"
             id="path31367"
             cx="176.77319"
             cy="64.128677"
             r="0.1698056" />
        </g>
        <g
           id="g31205"
           transform="translate(-167.02169,-26.838842)">
          <g
             id="g31177"
             transform="translate(-50.911688,6.7911623)">
            <g
               id="g27588"
               transform="translate(-61.871843,-13.618744)"
               style="stroke-width:0.5;stroke-dasharray:none">
              <path
                 style="opacity:1;fill:#ffffff;fill-opacity:1;stroke:#000000;stroke-width:0.5;stroke-linecap:square;stroke-linejoin:miter;stroke-miterlimit:4.2;stroke-dasharray:none;stroke-opacity:1"
                 d="m 188.52563,127.08764 h -4.90556 v 64.65608 l 4.90556,13.6118 z"
                 id="path27166"
                 sodipodi:nodetypes="ccccc" />
              <path
                 style="opacity:1;fill:#ffffff;fill-opacity:1;stroke:#000000;stroke-width:0.5;stroke-linecap:square;stroke-linejoin:miter;stroke-miterlimit:4.2;stroke-dasharray:none;stroke-opacity:1"
                 d="m 188.52563,127.08764 h 5.09596 v 64.65076 l -5.09596,13.61068 z"
                 id="path27584"
                 sodipodi:nodetypes="ccccc" />
            </g>
            <g
               id="g29120"
               transform="translate(-28.355074,6.3832406)"
               style="stroke-width:0.5;stroke-dasharray:none">
              <g
                 id="g28361"
                 style="stroke-width:0.3;stroke-linecap:butt;stroke-dasharray:none"
                 transform="translate(2.0625,-3.1875)">
                <rect
                   style="fill:#ffcc00;fill-opacity:1;fill-rule:evenodd;stroke:#000000;stroke-width:0.5;stroke-linecap:butt;stroke-dasharray:none;stroke-opacity:1"
                   id="rect10260"
                   width="10.845084"
                   height="15.892483"
                   x="147.27382"
                   y="92.107513" />
                <path
                   style="opacity:1;fill:#ffffff;fill-opacity:1;stroke:#000000;stroke-width:0.3;stroke-linecap:butt;stroke-linejoin:miter;stroke-miterlimit:4.2;stroke-dasharray:none;stroke-opacity:1"
                   d="m 158.11891,98.318298 -10.84509,5.513292"
                   id="path28316"
                   sodipodi:nodetypes="cc" />
                <path
                   style="opacity:1;fill:#ffffff;fill-opacity:1;stroke:#000000;stroke-width:0.3;stroke-linecap:butt;stroke-linejoin:miter;stroke-miterlimit:4.2;stroke-dasharray:none;stroke-opacity:1"
                   d="M 158.11891,96.005798 147.27382,101.5191"
                   id="path28320"
                   sodipodi:nodetypes="cc" />
                <path
                   style="opacity:1;fill:#ffffff;fill-opacity:1;stroke:#000000;stroke-width:0.3;stroke-linecap:butt;stroke-linejoin:miter;stroke-miterlimit:4.2;stroke-dasharray:none;stroke-opacity:1"
                   d="m 158.11891,93.693311 -10.84509,5.513287"
                   id="path28326"
                   sodipodi:nodetypes="cc" />
                <path
                   style="opacity:1;fill:#ffffff;fill-opacity:1;stroke:#000000;stroke-width:0.3;stroke-linecap:butt;stroke-linejoin:miter;stroke-miterlimit:4.2;stroke-dasharray:none;stroke-opacity:1"
                   d="m 158.11891,91.380819 -10.84509,5.513289"
                   id="path28328"
                   sodipodi:nodetypes="cc" />
                <path
                   style="opacity:1;fill:#ffffff;fill-opacity:1;stroke:#000000;stroke-width:0.3;stroke-linecap:butt;stroke-linejoin:miter;stroke-miterlimit:4.2;stroke-dasharray:none;stroke-opacity:1"
                   d="m 158.11891,100.63079 -10.84509,5.51329"
                   id="path28332"
                   sodipodi:nodetypes="cc" />
                <path
                   style="opacity:1;fill:#ffffff;fill-opacity:1;stroke:#000000;stroke-width:0.3;stroke-linecap:butt;stroke-linejoin:miter;stroke-miterlimit:4.2;stroke-dasharray:none;stroke-opacity:1"
                   d="m 158.11891,102.94329 -10.84509,5.51329"
                   id="path28334"
                   sodipodi:nodetypes="cc" />
              </g>
              <g
                 id="g28371"
                 transform="translate(-11.812507,-0.90262031)"
                 style="stroke-width:0.3;stroke-linecap:butt;stroke-dasharray:none">
                <path
                   style="opacity:1;fill:#ffffff;fill-opacity:1;stroke:#000000;stroke-width:0.3;stroke-linecap:butt;stroke-linejoin:miter;stroke-miterlimit:4.2;stroke-dasharray:none;stroke-opacity:1"
                   d="m 164.32287,92.9944 7.67104,3.899704"
                   id="path28346"
                   sodipodi:nodetypes="cc" />
                <path
                   style="opacity:1;fill:#ffffff;fill-opacity:1;stroke:#000000;stroke-width:0.3;stroke-linecap:butt;stroke-linejoin:miter;stroke-miterlimit:4.2;stroke-dasharray:none;stroke-opacity:1"
                   d="m 161.14882,96.005804 10.00933,5.088416"
                   id="path28342"
                   sodipodi:nodetypes="cc" />
                <path
                   style="opacity:1;fill:#ffffff;fill-opacity:1;stroke:#000000;stroke-width:0.3;stroke-linecap:butt;stroke-linejoin:miter;stroke-miterlimit:4.2;stroke-dasharray:none;stroke-opacity:1"
                   d="m 162.08171,94.167555 9.9122,5.039049"
                   id="path28344"
                   sodipodi:nodetypes="cc" />
                <path
                   style="opacity:1;fill:#ffffff;fill-opacity:1;stroke:#000000;stroke-width:0.3;stroke-linecap:butt;stroke-linejoin:miter;stroke-miterlimit:4.2;stroke-dasharray:none;stroke-opacity:1"
                   d="m 166.59908,91.839056 5.39483,2.742555"
                   id="path28348"
                   sodipodi:nodetypes="cc" />
                <path
                   style="opacity:1;fill:#ffffff;fill-opacity:1;stroke:#000000;stroke-width:0.3;stroke-linecap:butt;stroke-linejoin:miter;stroke-miterlimit:4.2;stroke-dasharray:none;stroke-opacity:1"
                   d="m 161.14882,98.318294 7.72164,3.925426"
                   id="path28350"
                   sodipodi:nodetypes="cc" />
                <path
                   style="opacity:1;fill:#ffffff;fill-opacity:1;stroke:#000000;stroke-width:0.3;stroke-linecap:butt;stroke-linejoin:miter;stroke-miterlimit:4.2;stroke-dasharray:none;stroke-opacity:1"
                   d="m 161.14882,100.63079 5.45899,2.77517"
                   id="path28352"
                   sodipodi:nodetypes="cc" />
                <path
                   style="opacity:1;fill:#ffffff;fill-opacity:1;stroke:#000000;stroke-width:0.3;stroke-linecap:butt;stroke-linejoin:miter;stroke-miterlimit:4.2;stroke-dasharray:none;stroke-opacity:1"
                   d="m 161.14883,102.94328 5.45899,2.77517"
                   id="path31150"
                   sodipodi:nodetypes="cc" />
              </g>
            </g>
            <path
               id="path24063"
               style="opacity:1;fill:#000000;fill-opacity:0.995575;stroke:none;stroke-width:0.5;stroke-linecap:round;stroke-linejoin:miter;stroke-miterlimit:4.2;stroke-dasharray:none;stroke-opacity:1"
               d="m 124.28856,109.60365 c -2.12037,0 -7.612,0.13952 -10.30274,0.57422 -2.14184,0.34602 -5.26136,0.67514 -5.64257,3.68556 -0.15168,1.19781 0.55708,2.14385 1.53906,2.54101 1.37624,0.55661 4.16265,0.17097 3.92773,-2.93554 h 12.84375 12.84571 c -0.23492,3.10651 2.55149,3.49215 3.92773,2.93554 0.98198,-0.39716 1.69074,-1.3432 1.53906,-2.54101 -0.38121,-3.01042 -3.50073,-3.33954 -5.64257,-3.68556 -2.69074,-0.4347 -8.18432,-0.57422 -10.30469,-0.57422 h -2.36524 z" />
            <ellipse
               style="opacity:1;fill:#ff0000;fill-opacity:1;stroke:#000000;stroke-width:0.5;stroke-linecap:butt;stroke-linejoin:round;stroke-miterlimit:4.2;stroke-dasharray:none;stroke-opacity:1"
               id="path21928"
               cx="126.36353"
               cy="93.401344"
               rx="7.6734095"
               ry="4.7063575" />
            <path
               id="path25578"
               style="opacity:1;fill:#ff0000;fill-opacity:1;stroke:#000000;stroke-width:0.5;stroke-linecap:round;stroke-linejoin:miter;stroke-miterlimit:4.2;stroke-dasharray:none;stroke-opacity:1"
               d="m 126.65581,110.93092 -2.78516,2.78515 2.78516,2.78321 2.7832,-2.78321 z"
               inkscape:transform-center-x="-47.000062"
               inkscape:transform-center-y="-5.9999384" />
          </g>
        </g>
      </g>
      <path
         id="path6"
         clip-path="url(#clipPath2)"
         style="display:inline;fill:#ffcc00;fill-opacity:1;fill-rule:evenodd;stroke-width:2.02533;stroke-linecap:square"
         d="m 267.41016,-199.21094 v 13.22071 h 3.10351 l -2.65039,22.22851 -3.91211,-14.39258 2.41797,-0.35742 -1.52148,-10.29687 -2.47461,0.375 0.45117,3.05664 -1.75977,0.25976 -0.45117,-3.0625 -2.47656,0.36524 0.45312,3.0625 -1.33398,0.19726 -1.33008,0.19531 -0.45312,-3.0625 -2.47461,0.36524 0.45117,3.06445 -1.75977,0.25977 -0.45117,-3.05664 -2.47656,0.35742 1.51953,10.29492 2.41797,-0.35742 0.57812,20.70703 -8.11328,-19.11719 2.34571,-0.68164 -2.90235,-9.99414 -2.40234,0.70703 0.86328,2.9668 -1.70898,0.49609 -0.86329,-2.97265 -2.40429,0.69726 0.86328,2.97461 -1.29297,0.375 -1.29102,0.375 -0.86328,-2.97461 -2.40429,0.69922 0.86328,2.97266 -1.70703,0.49609 -0.86329,-2.9668 -2.40625,0.69141 2.9043,9.99414 2.3457,-0.68164 3.32227,20.07813 -11.08398,-17.38868 2.19921,-1.06054 -4.51562,-9.37696 -2.25,1.09375 1.33984,2.78321 -1.60156,0.77344 -1.34375,-2.79102 -2.25586,1.08594 1.34375,2.79101 -1.21289,0.58399 -1.21289,0.58398 -1.34375,-2.79101 -2.25391,1.08593 1.34375,2.79102 -1.60351,0.77148 -1.33985,-2.7832 -2.25976,1.07812 4.51562,9.37696 2.20118,-1.06055 9.29492,27.12305 c 11.91632,-5.74055 11.65771,-5.7931 13.44726,-6.47852 1.78954,-0.68541 13.46205,-4.22571 15.60938,-4.5332 2.14733,-0.30749 8.5331,-1.47728 12.39648,-1.83008 h 10.76172 0.002 10.76172 c 3.86339,0.3528 10.24916,1.52259 12.39649,1.83008 2.14733,0.30749 13.81983,3.84779 15.60937,4.5332 1.78955,0.68542 1.53095,0.73797 13.44727,6.47852 l 9.29492,-27.12305 2.20117,1.06055 4.51563,-9.37696 -2.25977,-1.07812 -1.33984,2.7832 -1.60352,-0.77148 1.34375,-2.79102 -2.2539,-1.08593 -1.34375,2.79101 -1.21289,-0.58398 -1.2129,-0.58399 1.34375,-2.79101 -2.25585,-1.08594 -1.34376,2.79102 -1.60156,-0.77344 1.33985,-2.78321 -2.25,-1.09375 -4.51563,9.37696 2.19922,1.06054 -11.08398,17.38868 3.32226,-20.07813 2.3457,0.68164 2.9043,-9.99414 -2.40625,-0.69141 -0.86328,2.9668 -1.70703,-0.49609 0.86328,-2.97266 -2.4043,-0.69922 -0.86328,2.97461 -1.29101,-0.375 -1.29297,-0.375 0.86328,-2.97461 -2.4043,-0.69726 -0.86328,2.97265 -1.70898,-0.49609 0.86328,-2.9668 -2.40235,-0.70703 -2.90234,9.99414 2.3457,0.68164 -8.11328,19.11719 0.57813,-20.70703 2.41797,0.35742 1.51953,-10.29492 -2.47657,-0.35742 -0.45117,3.05664 -1.75976,-0.25977 0.45117,-3.06445 -2.47461,-0.36524 -0.45313,3.0625 -1.33007,-0.19531 -1.33399,-0.19726 0.45313,-3.0625 -2.47657,-0.36524 -0.45117,3.0625 -1.75976,-0.25976 0.45117,-3.05664 -2.47461,-0.375 -1.52148,10.29687 2.41796,0.35742 -3.91211,14.39258 -2.65039,-22.22851 h 3.10352 v -13.22071 l -3.17969,0.01 v 3.92578 h -2.25976 v -3.93359 h -3.17969 v 3.93359 h -1.70899 -1.71093 v -3.93359 h -3.17969 v 3.93359 h -2.25977 v -3.92578 z m 9.9414,36.71094 c 0.12803,0.001 0.25716,0.0126 0.38672,0.0371 6.5e-4,1.2e-4 0.001,-1.2e-4 0.002,0 0.12956,-0.0245 0.25869,-0.0361 0.38672,-0.0371 0.0507,-4.9e-4 0.10035,0.007 0.15039,0.01 0.0661,0.004 0.13292,0.006 0.19727,0.0156 0.0497,0.008 0.0962,0.022 0.14453,0.0332 0.0661,0.0154 0.13238,0.031 0.19531,0.0527 0.043,0.0148 0.0838,0.033 0.125,0.0508 0.0616,0.0265 0.12069,0.0551 0.17774,0.0879 0.0406,0.0233 0.0792,0.0498 0.11719,0.0762 0.0527,0.0367 0.10331,0.0766 0.15039,0.11914 0.032,0.0289 0.0627,0.0584 0.0918,0.0898 0.043,0.0466 0.0811,0.0964 0.11719,0.14843 0.0257,0.037 0.0523,0.0735 0.0742,0.11329 0.0346,0.0631 0.0598,0.13149 0.084,0.20117 0.0114,0.0328 0.0263,0.0635 0.0352,0.0976 0.0282,0.10891 0.0464,0.22516 0.0469,0.34766 v 4.49609 h -2.09375 -2.0957 v -4.49609 c 4.8e-4,-0.1197 0.018,-0.2331 0.0449,-0.33984 0.0115,-0.0453 0.031,-0.0861 0.0469,-0.12891 0.0224,-0.0608 0.0437,-0.12207 0.0742,-0.17773 0.022,-0.0401 0.0503,-0.0759 0.0762,-0.11329 0.0361,-0.0521 0.0741,-0.10186 0.11719,-0.14843 0.0291,-0.0315 0.0598,-0.061 0.0918,-0.0898 0.0471,-0.0425 0.0977,-0.0824 0.15039,-0.11914 0.038,-0.0264 0.0766,-0.0529 0.11719,-0.0762 0.0571,-0.0328 0.11618,-0.0614 0.17774,-0.0879 0.0412,-0.0178 0.082,-0.0359 0.125,-0.0508 0.0629,-0.0218 0.12924,-0.0373 0.19531,-0.0527 0.0484,-0.0112 0.0948,-0.0255 0.14453,-0.0332 0.0663,-0.0104 0.13504,-0.0116 0.20312,-0.0156 0.0478,-0.003 0.0942,-0.0102 0.14258,-0.01 z m -15.72656,3.40234 c 0.58616,0.0132 1.10758,0.34522 1.19922,0.94922 l 0.51758,3.50196 -1.63282,0.24023 -1.63086,0.24219 -0.51757,-3.50196 c -0.10133,-0.70548 0.46517,-1.22589 1.16406,-1.32226 0.0998,-0.0138 0.20099,-0.0178 0.30469,-0.0137 0.19614,-0.068 0.40032,-0.10011 0.5957,-0.0957 z m 32.22852,0 c 0.19538,-0.004 0.39956,0.0277 0.5957,0.0957 0.1037,-0.004 0.20489,-1.3e-4 0.30469,0.0137 0.69889,0.0964 1.26539,0.61678 1.16406,1.32226 l -0.51758,3.50196 -1.63086,-0.24219 -1.63281,-0.24023 0.51758,-3.50196 c 0.0916,-0.604 0.61306,-0.93602 1.19922,-0.94922 z m -48.12305,3.38672 c 0.47118,0.0347 0.88537,0.29489 1.0293,0.78321 l 0.98632,3.39843 -1.58398,0.45899 -1.58203,0.46093 -0.98633,-3.40039 c -0.19608,-0.68522 0.2933,-1.27457 0.97266,-1.46484 0.097,-0.0272 0.19747,-0.0467 0.30078,-0.0566 0.27766,-0.14093 0.58058,-0.20051 0.86328,-0.17969 z m 64.01758,0 c 0.2827,-0.0208 0.58562,0.0388 0.86328,0.17969 0.10331,0.01 0.20378,0.0294 0.30078,0.0566 0.67936,0.19027 1.16874,0.77962 0.97266,1.46484 l -0.98633,3.40039 -1.58203,-0.46093 -1.58399,-0.45899 0.98633,-3.39843 c 0.14393,-0.48832 0.55812,-0.74851 1.0293,-0.78321 z m -79.53711,5.50391 c 0.47043,-0.0437 0.92181,0.14376 1.14453,0.60156 l 1.53515,3.18945 -1.48632,0.71485 -1.48438,0.71484 -1.53515,-3.1875 c -0.30672,-0.64336 0.0783,-1.30741 0.71679,-1.60742 0.0912,-0.0429 0.18686,-0.0786 0.28711,-0.10547 0.25052,-0.18491 0.54001,-0.29409 0.82227,-0.32031 z m 95.05664,0 c 0.28226,0.0262 0.57174,0.1354 0.82226,0.32031 0.10025,0.0269 0.19591,0.0626 0.28711,0.10547 0.6385,0.30001 1.02352,0.96406 0.7168,1.60742 l -1.53516,3.1875 -1.48437,-0.71484 -1.48633,-0.71485 1.53516,-3.18945 c 0.22272,-0.4578 0.6741,-0.64526 1.14453,-0.60156 z"
         transform="translate(4.35146,154.21094)"
         inkscape:path-effect="#path-effect2"
         inkscape:original-d="m 267.41016,-199.21094 v 13.22071 h 3.10351 l -2.65039,22.22851 -3.91211,-14.39258 2.41797,-0.35742 -1.52148,-10.29687 -2.47461,0.375 0.45117,3.05664 -1.75977,0.25976 -0.45117,-3.0625 -2.47656,0.36524 0.45312,3.0625 -1.33398,0.19726 -1.33008,0.19531 -0.45312,-3.0625 -2.47461,0.36524 0.45117,3.06445 -1.75977,0.25977 -0.45117,-3.05664 -2.47656,0.35742 1.51953,10.29492 2.41797,-0.35742 0.57812,20.70703 -8.11328,-19.11719 2.34571,-0.68164 -2.90235,-9.99414 -2.40234,0.70703 0.86328,2.9668 -1.70898,0.49609 -0.86329,-2.97265 -2.40429,0.69726 0.86328,2.97461 -1.29297,0.375 -1.29102,0.375 -0.86328,-2.97461 -2.40429,0.69922 0.86328,2.97266 -1.70703,0.49609 -0.86329,-2.9668 -2.40625,0.69141 2.9043,9.99414 2.3457,-0.68164 3.32227,20.07813 -11.08398,-17.38868 2.19921,-1.06054 -4.51562,-9.37696 -2.25,1.09375 1.33984,2.78321 -1.60156,0.77344 -1.34375,-2.79102 -2.25586,1.08594 1.34375,2.79101 -1.21289,0.58399 -1.21289,0.58398 -1.34375,-2.79101 -2.25391,1.08593 1.34375,2.79102 -1.60351,0.77148 -1.33985,-2.7832 -2.25976,1.07812 4.51562,9.37696 2.20118,-1.06055 9.29492,27.12305 c 11.91632,-5.74055 11.65771,-5.7931 13.44726,-6.47852 1.78954,-0.68541 13.46205,-4.22571 15.60938,-4.5332 2.14733,-0.30749 8.5331,-1.47728 12.39648,-1.83008 h 10.76172 0.002 10.76172 c 3.86339,0.3528 10.24916,1.52259 12.39649,1.83008 2.14733,0.30749 13.81983,3.84779 15.60937,4.5332 1.78955,0.68542 1.53095,0.73797 13.44727,6.47852 l 9.29492,-27.12305 2.20117,1.06055 4.51563,-9.37696 -2.25977,-1.07812 -1.33984,2.7832 -1.60352,-0.77148 1.34375,-2.79102 -2.2539,-1.08593 -1.34375,2.79101 -1.21289,-0.58398 -1.2129,-0.58399 1.34375,-2.79101 -2.25585,-1.08594 -1.34376,2.79102 -1.60156,-0.77344 1.33985,-2.78321 -2.25,-1.09375 -4.51563,9.37696 2.19922,1.06054 -11.08398,17.38868 3.32226,-20.07813 2.3457,0.68164 2.9043,-9.99414 -2.40625,-0.69141 -0.86328,2.9668 -1.70703,-0.49609 0.86328,-2.97266 -2.4043,-0.69922 -0.86328,2.97461 -1.29101,-0.375 -1.29297,-0.375 0.86328,-2.97461 -2.4043,-0.69726 -0.86328,2.97265 -1.70898,-0.49609 0.86328,-2.9668 -2.40235,-0.70703 -2.90234,9.99414 2.3457,0.68164 -8.11328,19.11719 0.57813,-20.70703 2.41797,0.35742 1.51953,-10.29492 -2.47657,-0.35742 -0.45117,3.05664 -1.75976,-0.25977 0.45117,-3.06445 -2.47461,-0.36524 -0.45313,3.0625 -1.33007,-0.19531 -1.33399,-0.19726 0.45313,-3.0625 -2.47657,-0.36524 -0.45117,3.0625 -1.75976,-0.25976 0.45117,-3.05664 -2.47461,-0.375 -1.52148,10.29687 2.41796,0.35742 -3.91211,14.39258 -2.65039,-22.22851 h 3.10352 v -13.22071 l -3.17969,0.01 v 3.92578 h -2.25976 v -3.93359 h -3.17969 v 3.93359 h -1.70899 -1.71093 v -3.93359 h -3.17969 v 3.93359 h -2.25977 v -3.92578 z m 9.9414,36.71094 c 0.12803,0.001 0.25716,0.0126 0.38672,0.0371 6.5e-4,1.2e-4 0.001,-1.2e-4 0.002,0 0.12956,-0.0245 0.25869,-0.0361 0.38672,-0.0371 0.0507,-4.9e-4 0.10035,0.007 0.15039,0.01 0.0661,0.004 0.13292,0.006 0.19727,0.0156 0.0497,0.008 0.0962,0.022 0.14453,0.0332 0.0661,0.0154 0.13238,0.031 0.19531,0.0527 0.043,0.0148 0.0838,0.033 0.125,0.0508 0.0616,0.0265 0.12069,0.0551 0.17774,0.0879 0.0406,0.0233 0.0792,0.0498 0.11719,0.0762 0.0527,0.0367 0.10331,0.0766 0.15039,0.11914 0.032,0.0289 0.0627,0.0584 0.0918,0.0898 0.043,0.0466 0.0811,0.0964 0.11719,0.14843 0.0257,0.037 0.0523,0.0735 0.0742,0.11329 0.0346,0.0631 0.0598,0.13149 0.084,0.20117 0.0114,0.0328 0.0263,0.0635 0.0352,0.0976 0.0282,0.10891 0.0464,0.22516 0.0469,0.34766 v 4.49609 h -2.09375 -2.0957 v -4.49609 c 4.8e-4,-0.1197 0.018,-0.2331 0.0449,-0.33984 0.0115,-0.0453 0.031,-0.0861 0.0469,-0.12891 0.0224,-0.0608 0.0437,-0.12207 0.0742,-0.17773 0.022,-0.0401 0.0503,-0.0759 0.0762,-0.11329 0.0361,-0.0521 0.0741,-0.10186 0.11719,-0.14843 0.0291,-0.0315 0.0598,-0.061 0.0918,-0.0898 0.0471,-0.0425 0.0977,-0.0824 0.15039,-0.11914 0.038,-0.0264 0.0766,-0.0529 0.11719,-0.0762 0.0571,-0.0328 0.11618,-0.0614 0.17774,-0.0879 0.0412,-0.0178 0.082,-0.0359 0.125,-0.0508 0.0629,-0.0218 0.12924,-0.0373 0.19531,-0.0527 0.0484,-0.0112 0.0948,-0.0255 0.14453,-0.0332 0.0663,-0.0104 0.13504,-0.0116 0.20312,-0.0156 0.0478,-0.003 0.0942,-0.0102 0.14258,-0.01 z m -15.72656,3.40234 c 0.58616,0.0132 1.10758,0.34522 1.19922,0.94922 l 0.51758,3.50196 -1.63282,0.24023 -1.63086,0.24219 -0.51757,-3.50196 c -0.10133,-0.70548 0.46517,-1.22589 1.16406,-1.32226 0.0998,-0.0138 0.20099,-0.0178 0.30469,-0.0137 0.19614,-0.068 0.40032,-0.10011 0.5957,-0.0957 z m 32.22852,0 c 0.19538,-0.004 0.39956,0.0277 0.5957,0.0957 0.1037,-0.004 0.20489,-1.3e-4 0.30469,0.0137 0.69889,0.0964 1.26539,0.61678 1.16406,1.32226 l -0.51758,3.50196 -1.63086,-0.24219 -1.63281,-0.24023 0.51758,-3.50196 c 0.0916,-0.604 0.61306,-0.93602 1.19922,-0.94922 z m -48.12305,3.38672 c 0.47118,0.0347 0.88537,0.29489 1.0293,0.78321 l 0.98632,3.39843 -1.58398,0.45899 -1.58203,0.46093 -0.98633,-3.40039 c -0.19608,-0.68522 0.2933,-1.27457 0.97266,-1.46484 0.097,-0.0272 0.19747,-0.0467 0.30078,-0.0566 0.27766,-0.14093 0.58058,-0.20051 0.86328,-0.17969 z m 64.01758,0 c 0.2827,-0.0208 0.58562,0.0388 0.86328,0.17969 0.10331,0.01 0.20378,0.0294 0.30078,0.0566 0.67936,0.19027 1.16874,0.77962 0.97266,1.46484 l -0.98633,3.40039 -1.58203,-0.46093 -1.58399,-0.45899 0.98633,-3.39843 c 0.14393,-0.48832 0.55812,-0.74851 1.0293,-0.78321 z m -79.53711,5.50391 c 0.47043,-0.0437 0.92181,0.14376 1.14453,0.60156 l 1.53515,3.18945 -1.48632,0.71485 -1.48438,0.71484 -1.53515,-3.1875 c -0.30672,-0.64336 0.0783,-1.30741 0.71679,-1.60742 0.0912,-0.0429 0.18686,-0.0786 0.28711,-0.10547 0.25052,-0.18491 0.54001,-0.29409 0.82227,-0.32031 z m 95.05664,0 c 0.28226,0.0262 0.57174,0.1354 0.82226,0.32031 0.10025,0.0269 0.19591,0.0626 0.28711,0.10547 0.6385,0.30001 1.02352,0.96406 0.7168,1.60742 l -1.53516,3.1875 -1.48437,-0.71484 -1.48633,-0.71485 1.53516,-3.18945 c 0.22272,-0.4578 0.6741,-0.64526 1.14453,-0.60156 z" />
    </g>
  </g>
</svg>
