<?xml version="1.0" encoding="UTF-8" standalone="no"?>
<!-- Created with Inkscape (http://www.inkscape.org/) -->

<svg
   version="1.1"
   id="svg1"
   width="900"
   height="400"
   viewBox="0 0 900 400"
   sodipodi:docname="Flag_of_Varaždin_County.svg"
   inkscape:version="1.4 (86a8ad7, 2024-10-11)"
   xmlns:inkscape="http://www.inkscape.org/namespaces/inkscape"
   xmlns:sodipodi="http://sodipodi.sourceforge.net/DTD/sodipodi-0.dtd"
   xmlns:xlink="http://www.w3.org/1999/xlink"
   xmlns="http://www.w3.org/2000/svg"
   xmlns:svg="http://www.w3.org/2000/svg">
  <defs
     id="defs1">
    <clipPath
       clipPathUnits="userSpaceOnUse"
       id="clipPath67">
      <path
         id="path67"
         style="opacity:1;fill:none;fill-opacity:1;fill-rule:evenodd;stroke:#000000;stroke-width:3;stroke-linecap:round;stroke-linejoin:miter;stroke-dasharray:none;stroke-opacity:1"
         d="M 1.5,1.5 V 124.31445 A 94,93.186195 0 0 0 95.500001,217.5 94,93.186195 0 0 0 189.5,124.31445 V 1.5 Z" />
    </clipPath>
    <clipPath
       clipPathUnits="userSpaceOnUse"
       id="clipPath67-5">
      <path
         id="path67-5"
         style="opacity:1;fill:none;fill-opacity:1;fill-rule:evenodd;stroke:#000000;stroke-width:3;stroke-linecap:round;stroke-linejoin:miter;stroke-dasharray:none;stroke-opacity:1"
         d="M 1.5,1.5 V 124.31445 A 94,93.186195 0 0 0 95.500001,217.5 94,93.186195 0 0 0 189.5,124.31445 V 1.5 Z" />
    </clipPath>
    <clipPath
       clipPathUnits="userSpaceOnUse"
       id="clipPath66">
      <path
         id="path66"
         style="opacity:1;fill:none;fill-opacity:1;fill-rule:evenodd;stroke:#000000;stroke-width:3;stroke-linecap:round;stroke-linejoin:miter;stroke-dasharray:none;stroke-opacity:1"
         d="M 1.5,1.5 V 124.31445 A 94,93.186195 0 0 0 95.500001,217.5 94,93.186195 0 0 0 189.5,124.31445 V 1.5 Z" />
    </clipPath>
    <clipPath
       clipPathUnits="userSpaceOnUse"
       id="clipPath65">
      <path
         id="path65"
         style="opacity:1;fill:none;fill-opacity:1;fill-rule:evenodd;stroke:#000000;stroke-width:3;stroke-linecap:round;stroke-linejoin:miter;stroke-dasharray:none;stroke-opacity:1"
         d="M 1.5,1.5 V 124.31445 A 94,93.186195 0 0 0 95.500001,217.5 94,93.186195 0 0 0 189.5,124.31445 V 1.5 Z" />
    </clipPath>
    <clipPath
       clipPathUnits="userSpaceOnUse"
       id="clipPath6">
      <ellipse
         style="display:none;opacity:0.372093;fill:#ff00ff;fill-opacity:1;fill-rule:evenodd;stroke:none;stroke-width:0.343344;stroke-linecap:round;stroke-linejoin:bevel;stroke-dasharray:none;stroke-opacity:1"
         id="ellipse6"
         cx="94"
         cy="125.96204"
         rx="9.9236641"
         ry="9.6505356"
         d="M 103.92366,125.96204 A 9.9236641,9.6505356 0 0 1 94,135.61258 9.9236641,9.6505356 0 0 1 84.076336,125.96204 9.9236641,9.6505356 0 0 1 94,116.31151 a 9.9236641,9.6505356 0 0 1 9.92366,9.65053 z" />
      <path
         id="lpe_path-effect6"
         style="opacity:0.372093;fill:#ff00ff;fill-opacity:1;fill-rule:evenodd;stroke:none;stroke-width:0.343344;stroke-linecap:round;stroke-linejoin:bevel;stroke-dasharray:none;stroke-opacity:1"
         class="powerclip"
         d="m 74.762544,107.10956 h 38.474916 v 37.70496 H 74.762544 Z m 29.161116,18.85248 A 9.9236641,9.6505356 0 0 0 94,116.31151 9.9236641,9.6505356 0 0 0 84.076336,125.96204 9.9236641,9.6505356 0 0 0 94,135.61258 a 9.9236641,9.6505356 0 0 0 9.92366,-9.65054 z" />
    </clipPath>
    <inkscape:path-effect
       effect="powerclip"
       id="path-effect6"
       is_visible="true"
       lpeversion="1"
       inverse="true"
       flatten="false"
       hide_clip="false"
       message="" />
    <pattern
       inkscape:collect="always"
       xlink:href="#pattern72"
       preserveAspectRatio="xMidYMid"
       id="pattern74"
       patternTransform="matrix(1.0631005,0,0,1.0920217,230.27881,203.24945)"
       x="0"
       y="0" />
    <pattern
       patternUnits="userSpaceOnUse"
       width="10.827573"
       height="12.727905"
       patternTransform="translate(271.7999,280.05847)"
       preserveAspectRatio="xMidYMid"
       id="pattern72"
       style="fill:#000000"
       inkscape:label="pattern72">
      <g
         id="g71"
         clip-path="url(#clipPath71)"
         transform="translate(-2.5459762,-261.55847)">
        <rect
           style="opacity:1;fill:#ffffff;fill-opacity:1;stroke:#000000;stroke-width:0.5;stroke-dasharray:none;stroke-opacity:1"
           id="rect52"
           width="10.827573"
           height="6.3639612"
           x="-2.8678136"
           y="261.55847" />
        <rect
           style="opacity:1;fill:#ffffff;fill-opacity:1;stroke:#000000;stroke-width:0.5;stroke-dasharray:none;stroke-opacity:1"
           id="rect53"
           width="10.827573"
           height="6.3639612"
           x="7.9597592"
           y="261.55847" />
        <rect
           style="opacity:1;fill:#ffffff;fill-opacity:1;stroke:#000000;stroke-width:0.5;stroke-dasharray:none;stroke-opacity:1"
           id="rect55"
           width="10.827573"
           height="6.3639612"
           x="2.5459728"
           y="267.92242" />
        <rect
           style="fill:none;stroke:none"
           width="11.327573"
           height="13.227905"
           x="271.5499"
           y="279.80847"
           id="rect57"
           transform="translate(-269.25392,-18.5)" />
        <rect
           style="opacity:1;fill:#ffffff;fill-opacity:1;stroke:#000000;stroke-width:0.5;stroke-dasharray:none;stroke-opacity:1"
           id="rect69"
           width="10.827573"
           height="6.3639612"
           x="-8.2816"
           y="267.92242" />
        <rect
           style="opacity:1;fill:#ffffff;fill-opacity:1;stroke:#000000;stroke-width:0.5;stroke-dasharray:none;stroke-opacity:1"
           id="rect70"
           width="10.827573"
           height="6.3639612"
           x="13.373546"
           y="267.92242" />
      </g>
    </pattern>
    <clipPath
       clipPathUnits="userSpaceOnUse"
       id="clipPath71">
      <rect
         style="opacity:1;fill:none;fill-opacity:1;stroke:#ff0000;stroke-width:0.5;stroke-dasharray:none;stroke-opacity:1"
         id="rect72"
         width="10.827573"
         height="12.727905"
         x="2.5459762"
         y="261.55847" />
    </clipPath>
    <pattern
       inkscape:collect="always"
       xlink:href="#pattern72"
       preserveAspectRatio="xMidYMid"
       id="pattern103"
       patternTransform="translate(269.19146,280.9369)" />
    <pattern
       patternUnits="userSpaceOnUse"
       width="10.827573"
       height="12.727905"
       patternTransform="translate(271.7999,280.05847)"
       preserveAspectRatio="xMidYMid"
       id="pattern6"
       style="fill:#000000"
       inkscape:label="pattern72">
      <g
         id="g6"
         clip-path="url(#clipPath71)"
         transform="translate(-2.5459762,-261.55847)">
        <rect
           style="opacity:1;fill:#ffffff;fill-opacity:1;stroke:#000000;stroke-width:0.5;stroke-dasharray:none;stroke-opacity:1"
           id="rect1-4"
           width="10.827573"
           height="6.3639612"
           x="-2.8678136"
           y="261.55847" />
        <rect
           style="opacity:1;fill:#ffffff;fill-opacity:1;stroke:#000000;stroke-width:0.5;stroke-dasharray:none;stroke-opacity:1"
           id="rect2"
           width="10.827573"
           height="6.3639612"
           x="7.9597592"
           y="261.55847" />
        <rect
           style="opacity:1;fill:#ffffff;fill-opacity:1;stroke:#000000;stroke-width:0.5;stroke-dasharray:none;stroke-opacity:1"
           id="rect3"
           width="10.827573"
           height="6.3639612"
           x="2.5459728"
           y="267.92242" />
        <rect
           style="fill:none;stroke:none"
           width="11.327573"
           height="13.227905"
           x="271.5499"
           y="279.80847"
           id="rect4"
           transform="translate(-269.25392,-18.5)" />
        <rect
           style="opacity:1;fill:#ffffff;fill-opacity:1;stroke:#000000;stroke-width:0.5;stroke-dasharray:none;stroke-opacity:1"
           id="rect5"
           width="10.827573"
           height="6.3639612"
           x="-8.2816"
           y="267.92242" />
        <rect
           style="opacity:1;fill:#ffffff;fill-opacity:1;stroke:#000000;stroke-width:0.5;stroke-dasharray:none;stroke-opacity:1"
           id="rect6"
           width="10.827573"
           height="6.3639612"
           x="13.373546"
           y="267.92242" />
      </g>
    </pattern>
    <clipPath
       clipPathUnits="userSpaceOnUse"
       id="clipPath7">
      <rect
         style="opacity:1;fill:none;fill-opacity:1;stroke:#ff0000;stroke-width:0.5;stroke-dasharray:none;stroke-opacity:1"
         id="rect7"
         width="10.827573"
         height="12.727905"
         x="2.5459762"
         y="261.55847" />
    </clipPath>
  </defs>
  <sodipodi:namedview
     id="namedview1"
     pagecolor="#ffffff"
     bordercolor="#000000"
     borderopacity="0.25"
     inkscape:showpageshadow="2"
     inkscape:pageopacity="0.0"
     inkscape:pagecheckerboard="0"
     inkscape:deskcolor="#d1d1d1"
     inkscape:zoom="0.49333333"
     inkscape:cx="46.621622"
     inkscape:cy="-3.0405405"
     inkscape:window-width="1920"
     inkscape:window-height="1009"
     inkscape:window-x="-8"
     inkscape:window-y="-8"
     inkscape:window-maximized="1"
     inkscape:current-layer="g1" />
  <g
     inkscape:groupmode="layer"
     inkscape:label="Image"
     id="g1">
    <g
       id="g17">
      <g
         id="g16">
        <rect
           style="fill:#ffffff;stroke:none;stroke-width:0.5"
           id="rect1"
           width="900"
           height="400"
           x="0"
           y="0" />
        <rect
           style="fill:#ed2025;stroke:none;stroke-width:0.387348;fill-opacity:1"
           id="rect13"
           width="900"
           height="80"
           x="0"
           y="0" />
        <rect
           style="fill:#ed2025;stroke:none;stroke-width:0.387348;fill-opacity:1"
           id="rect14"
           width="900"
           height="80"
           x="0"
           y="320" />
        <rect
           style="fill:#ed2025;stroke:none;stroke-width:0.387348;fill-opacity:1"
           id="rect15"
           width="900"
           height="80"
           x="0"
           y="160" />
      </g>
      <g
         id="g107"
         transform="matrix(1.1788962,0,0,1.1813015,96.212721,31.751157)">
        <rect
           style="fill:#ff0000;fill-opacity:1;fill-rule:evenodd;stroke:#000000;stroke-width:1;stroke-linecap:round;stroke-linejoin:miter;stroke-dasharray:none;stroke-opacity:1"
           id="rect43"
           width="94"
           height="108"
           x="28.168196"
           y="36.856861" />
        <g
           id="g51"
           transform="translate(-132.0765,38.811365)">
          <rect
             style="opacity:1;fill:#0000cc;fill-opacity:1;fill-rule:evenodd;stroke:#000000;stroke-width:1;stroke-linecap:round;stroke-linejoin:miter;stroke-dasharray:none;stroke-opacity:1"
             id="rect42"
             width="94"
             height="108"
             x="254.24474"
             y="-1.954505" />
          <path
             style="opacity:1;fill:#ffffff;fill-opacity:1;fill-rule:evenodd;stroke:#000000;stroke-width:0.511199;stroke-linecap:round;stroke-linejoin:round;stroke-dasharray:none;stroke-opacity:1"
             d="m 254.24508,37.479342 v -6.794943 l 1.14395,-0.08832 c 2.57373,-0.198721 5.10973,-0.773345 10.49158,-2.377256 10.41129,-3.102801 12.85974,-3.102801 23.27104,0 6.69487,1.995225 8.55927,2.35947 12.0931,2.362624 3.47818,0.0031 5.39086,-0.361446 11.76624,-2.242629 7.06091,-2.083461 9.33667,-2.509023 12.81215,-2.395847 2.63701,0.08587 4.69229,0.480217 8.95542,1.718276 1.68977,0.490726 3.92535,1.139042 4.96798,1.440701 2.98463,0.863536 6.50019,1.536629 8.07296,1.545657 l 0.4249,0.0024 v 6.814849 6.814847 l -0.81711,-0.07938 c -2.75383,-0.267563 -5.40192,-0.869283 -10.4262,-2.369138 -6.18006,-1.844871 -8.67043,-2.331084 -11.96236,-2.335498 -3.22735,-0.0043 -5.40914,0.423544 -11.897,2.333138 -6.82972,2.010212 -8.52401,2.347183 -11.83163,2.353153 -3.23221,0.0058 -5.15248,-0.371363 -11.63551,-2.28554 -6.73279,-1.98792 -8.79949,-2.395028 -12.15847,-2.395028 -3.35897,0 -5.42567,0.407108 -12.15847,2.395028 -5.26127,1.553446 -7.56793,2.072452 -10.23009,2.3018 l -0.88248,0.07603 z"
             id="path39" />
          <path
             style="opacity:1;fill:#ffffff;fill-opacity:1;fill-rule:evenodd;stroke:#000000;stroke-width:0.511199;stroke-linecap:round;stroke-linejoin:round;stroke-dasharray:none;stroke-opacity:1"
             d="m 254.24542,77.896076 v 6.794943 l 1.14395,0.08832 c 2.57373,0.198721 5.10973,0.773345 10.49158,2.377256 10.41129,3.102805 12.85974,3.102805 23.27104,0 6.69487,-1.995225 8.55927,-2.35947 12.0931,-2.362624 3.47818,-0.0031 5.39086,0.361446 11.76624,2.242629 7.06091,2.08346 9.33667,2.50902 12.81215,2.39585 2.63701,-0.0859 4.69229,-0.48022 8.95542,-1.718279 1.68977,-0.490726 3.92535,-1.139042 4.96798,-1.440701 2.98463,-0.863536 6.50019,-1.536629 8.07296,-1.545657 l 0.4249,-0.0024 v -6.814849 -6.814847 l -0.81711,0.07938 c -2.75383,0.267563 -5.40192,0.869283 -10.4262,2.369138 -6.18006,1.844871 -8.67043,2.331084 -11.96236,2.335498 -3.22735,0.0043 -5.40914,-0.423544 -11.897,-2.333138 -6.82972,-2.010212 -8.52401,-2.347183 -11.83163,-2.353153 -3.23221,-0.0058 -5.15248,0.371363 -11.63551,2.28554 -6.73279,1.98792 -8.79949,2.395028 -12.15847,2.395028 -3.35897,0 -5.42567,-0.407108 -12.15847,-2.395028 -5.26127,-1.553446 -7.56793,-2.072452 -10.23009,-2.3018 l -0.88248,-0.07603 z"
             id="path46" />
          <path
             sodipodi:type="star"
             style="fill:#ffcc00;fill-opacity:1;fill-rule:evenodd;stroke:#000000;stroke-width:0.975609;stroke-dasharray:none;stroke-opacity:1"
             id="path3-6"
             inkscape:flatsided="false"
             sodipodi:sides="6"
             sodipodi:cx="75.25"
             sodipodi:cy="42"
             sodipodi:r1="14.883401"
             sodipodi:r2="8.6323729"
             sodipodi:arg1="-1.5707963"
             sodipodi:arg2="-1.0471975"
             inkscape:rounded="0"
             inkscape:randomized="0"
             d="m 75.25,27.116599 4.316187,7.407547 8.573216,0.03415 -4.25703,7.4417 4.25703,7.441701 -8.573217,0.03415 L 75.25,56.883401 70.933813,49.475854 62.360597,49.4417 66.617627,42 l -4.25703,-7.441701 8.573217,-0.03415 z"
             inkscape:transform-center-y="-1.00783"
             transform="matrix(0.70912148,0,0,0.70912148,262.15551,27.904625)"
             inkscape:transform-center-x="-1.1077493e-05" />
          <path
             sodipodi:type="star"
             style="fill:#ffcc00;fill-opacity:1;fill-rule:evenodd;stroke:#000000;stroke-width:0.975609;stroke-dasharray:none;stroke-opacity:1"
             id="path47"
             inkscape:flatsided="false"
             sodipodi:sides="6"
             sodipodi:cx="75.25"
             sodipodi:cy="42"
             sodipodi:r1="14.883401"
             sodipodi:r2="8.6323729"
             sodipodi:arg1="-1.5707963"
             sodipodi:arg2="-1.0471975"
             inkscape:rounded="0"
             inkscape:randomized="0"
             d="m 75.25,27.116599 4.316187,7.407547 8.573216,0.03415 -4.25703,7.4417 4.25703,7.441701 -8.573217,0.03415 L 75.25,56.883401 70.933813,49.475854 62.360597,49.4417 66.617627,42 l -4.25703,-7.441701 8.573217,-0.03415 z"
             inkscape:transform-center-y="-1.00783"
             transform="matrix(0.70912148,0,0,0.70912148,226.84948,27.904621)"
             inkscape:transform-center-x="-1.1077493e-05" />
        </g>
        <path
           id="path40"
           style="fill:none;fill-opacity:1;fill-rule:evenodd;stroke:#000000;stroke-width:3;stroke-linecap:round;stroke-linejoin:miter;stroke-dasharray:none;stroke-opacity:1"
           d="M 28.16824,36.856865 V 159.67132 a 94,93.186195 0 0 0 94,93.18555 94,93.186195 0 0 0 94.00001,-93.18555 V 36.856865 Z" />
        <rect
           style="fill:#0000cc;fill-opacity:1;fill-rule:evenodd;stroke:#000000;stroke-width:1;stroke-linecap:round;stroke-linejoin:miter;stroke-dasharray:none;stroke-opacity:1"
           id="rect54"
           width="94"
           height="108"
           x="0.49999571"
           y="107.49999"
           clip-path="url(#clipPath67)"
           transform="translate(27.66823,37.356865)" />
        <rect
           style="fill:#ff0000;fill-opacity:1;fill-rule:evenodd;stroke:#000000;stroke-width:1;stroke-linecap:round;stroke-linejoin:miter;stroke-dasharray:none;stroke-opacity:1"
           id="rect54-1"
           width="94"
           height="108"
           x="0.49999571"
           y="107.49999"
           clip-path="url(#clipPath67-5)"
           transform="matrix(-1,0,0,0.98177033,216.6682,39.316554)" />
        <path
           id="path54"
           style="fill:#ffffff;fill-opacity:1;fill-rule:evenodd;stroke:#000000;stroke-width:0.511199;stroke-linecap:round;stroke-linejoin:round;stroke-dasharray:none;stroke-opacity:1"
           d="m 35.015622,148.09551 c -3.21493,0 -6.42912,-0.77673 -11.63476,-2.32813 -5.38185,-1.60391 -7.91846,-2.17823 -10.49219,-2.37695 l -1.14453,-0.0879 v 0.0195 l -0.42383,0.002 c -1.5727701,0.009 -5.0895901,0.68335 -8.0742201,1.54688 -1.04263,0.30166 -3.27703019,0.94873 -4.9667902,1.43945 -4.26313,1.23806 -6.31808,1.63285 -8.9550797,1.71875 -3.47548,0.11318 -5.7516,-0.31303 -12.8125,-2.39648 -6.375373,-1.88118 -8.289405,-2.24519 -11.767581,-2.24219 -3.533827,0.003 -5.396934,0.36805 -12.091797,2.36328 -10.411291,3.1028 -12.860206,3.1028 -23.271484,0 -5.381845,-1.60391 -7.918461,-2.17823 -10.492188,-2.37695 l -1.142578,-0.0898 v -6.79492 -6.79297 l 0.880859,0.0762 c 2.662158,0.22934 4.969204,0.74734 10.230469,2.30078 6.732792,1.98791 8.799235,2.39453 12.158202,2.39453 3.358976,0 5.42542,-0.40662 12.158204,-2.39453 6.483024,-1.91417 8.404512,-2.29116 11.636719,-2.28516 3.307617,0.006 5.002322,0.34331 11.832035,2.35352 6.48785,1.90958 8.66913,2.33603 11.89648,2.33203 3.2919297,-0.004 5.7828397,-0.48912 11.96288971,-2.33399 5.02428019,-1.49986 7.67196019,-2.10158 10.42578029,-2.36914 l 0.81641,-0.0801 v 0.0195 l 0.88281,0.0762 c 2.66216,0.22935 4.96921,0.74928 10.23047,2.30273 6.73279,1.98792 8.79924,2.39453 12.1582,2.39453 3.35898,0 5.42542,-0.40662 12.158214,-2.39453 6.48302,-1.91417 8.40451,-2.29115 11.63671,-2.28516 3.30762,0.006 5.00037,0.34137 11.83007,2.35157 6.48786,1.9096 8.67109,2.33798 11.89844,2.33398 3.29193,-0.004 5.78088,-0.49106 11.96094,-2.33594 l 1.1e-5,13.59033 c -1.04263,0.30166 -0.532901,0.0889 -2.222671,0.57962 -4.26312,1.23806 -6.31807,1.63285 -8.95508,1.71875 -3.47547,0.11318 -5.75159,-0.31303 -12.8125,-2.39649 -6.37536,-1.88118 -8.28743,-2.24519 -11.76561,-2.24219 -3.53383,0.003 -5.39889,0.3661 -12.09375,2.36133 -5.20565,1.5514 -8.419834,2.32813 -11.634774,2.32813 z"
           clip-path="url(#clipPath66)"
           transform="translate(27.66823,37.356865)"
           sodipodi:nodetypes="csccccssssssscccccssscsssccccssscscccssssscc" />
        <path
           style="fill:#ffffff;fill-opacity:1;fill-rule:evenodd;stroke:#000000;stroke-width:0.511199;stroke-linecap:round;stroke-linejoin:round;stroke-dasharray:none;stroke-opacity:1"
           d="m 11.744816,187.09176 v -6.79494 l 1.14395,-0.0883 c 2.57373,-0.19872 5.10973,-0.77334 10.49158,-2.37725 10.41129,-3.10281 12.85974,-3.10281 23.27104,0 6.69487,1.99522 8.55927,2.35947 12.0931,2.36262 3.47818,0.003 5.39086,-0.36145 11.76624,-2.24263 7.06091,-2.08346 9.33667,-2.50902 12.81215,-2.39585 2.63701,0.0859 4.69229,0.48022 8.95542,1.71828 1.68977,0.49073 1.17907,0.34354 2.2217,0.6452 l 8.3e-4,13.52432 c -6.18006,-1.84488 -8.67043,-2.33109 -11.96236,-2.3355 -3.22735,-0.004 -5.40914,0.42354 -11.897,2.33314 -6.82972,2.01021 -8.52401,2.34718 -11.83163,2.35315 -3.23221,0.006 -5.15248,-0.37136 -11.63551,-2.28554 -6.73279,-1.98792 -8.79949,-2.39503 -12.15847,-2.39503 -3.35897,0 -5.42567,0.40711 -12.15847,2.39503 -5.26127,1.55344 -7.56793,2.07245 -10.23009,2.3018 l -0.88248,0.076 z"
           id="path55"
           clip-path="url(#clipPath65)"
           transform="translate(27.66823,37.356865)"
           sodipodi:nodetypes="ccssscssscccscsssscc" />
        <path
           sodipodi:type="star"
           style="fill:#ffcc00;fill-opacity:1;fill-rule:evenodd;stroke:#000000;stroke-width:0.975609;stroke-dasharray:none;stroke-opacity:1"
           id="path56"
           inkscape:flatsided="false"
           sodipodi:sides="6"
           sodipodi:cx="75.25"
           sodipodi:cy="42"
           sodipodi:r1="14.883401"
           sodipodi:r2="8.6323729"
           sodipodi:arg1="-1.5707963"
           sodipodi:arg2="-1.0471975"
           inkscape:rounded="0"
           inkscape:randomized="0"
           d="m 75.25,27.116599 4.316187,7.407547 8.573216,0.03415 -4.25703,7.4417 4.25703,7.441701 -8.573217,0.03415 L 75.25,56.883401 70.933813,49.475854 62.360597,49.4417 66.617627,42 l -4.25703,-7.441701 8.573217,-0.03415 z"
           inkscape:transform-center-y="-1.00783"
           transform="matrix(0.70912148,0,0,0.70912148,44.03395,169.07376)"
           inkscape:transform-center-x="-1.1077493e-05" />
        <path
           sodipodi:type="star"
           style="fill:#ffcc00;fill-opacity:1;fill-rule:evenodd;stroke:#000000;stroke-width:0.975609;stroke-dasharray:none;stroke-opacity:1"
           id="path57"
           inkscape:flatsided="false"
           sodipodi:sides="6"
           sodipodi:cx="75.25"
           sodipodi:cy="42"
           sodipodi:r1="14.883401"
           sodipodi:r2="8.6323729"
           sodipodi:arg1="-1.5707963"
           sodipodi:arg2="-1.0471975"
           inkscape:rounded="0"
           inkscape:randomized="0"
           d="m 75.25,27.116599 4.316187,7.407547 8.573216,0.03415 -4.25703,7.4417 4.25703,7.441701 -8.573217,0.03415 L 75.25,56.883401 70.933813,49.475854 62.360597,49.4417 66.617627,42 l -4.25703,-7.441701 8.573217,-0.03415 z"
           inkscape:transform-center-y="-1.00783"
           transform="matrix(0.70912148,0,0,0.70912148,7.57888,169.07376)"
           inkscape:transform-center-x="-1.1077493e-05" />
        <g
           id="g15"
           transform="translate(139.79763,38.712387)">
          <path
             style="opacity:1;fill:#ffcc00;fill-opacity:1;fill-rule:evenodd;stroke:#000000;stroke-width:0.5;stroke-linecap:round;stroke-linejoin:round;stroke-dasharray:none;stroke-opacity:1"
             d="m -76.169594,86.905716 c -1.056926,0.759201 -1.571359,1.417054 -1.993142,2.328969 -0.739238,1.598271 1.535982,2.777601 2.236304,1.340481 0.283151,-0.581053 0.279497,-1.280495 0.232344,-1.925143 -0.04396,-0.601047 -0.475506,-1.744307 -0.475506,-1.744307 z"
             id="path73"
             sodipodi:nodetypes="csssc" />
          <path
             style="opacity:1;fill:#ffcc00;fill-opacity:1;fill-rule:evenodd;stroke:#000000;stroke-width:0.5;stroke-linecap:round;stroke-linejoin:round;stroke-dasharray:none;stroke-opacity:1"
             d="m -71.368053,87.222757 c -0.695712,1.015958 -0.974259,1.799063 -1.137179,2.812107 -0.383139,2.382372 1.581797,3.474322 2.046063,0.793762 0.112483,-0.64945 -0.02634,-1.347127 -0.189564,-1.979523 -0.15217,-0.589626 -0.71932,-1.626346 -0.71932,-1.626346 z"
             id="path2"
             sodipodi:nodetypes="csssc" />
          <path
             style="opacity:1;fill:#ffcc00;fill-opacity:1;fill-rule:evenodd;stroke:#000000;stroke-width:0.5;stroke-linecap:round;stroke-linejoin:round;stroke-dasharray:none;stroke-opacity:1"
             d="m -56.709295,86.905716 c 1.056926,0.759201 1.571359,1.417054 1.993142,2.328969 0.739238,1.598271 -1.535982,2.777601 -2.236304,1.340481 -0.283151,-0.581053 -0.279497,-1.280495 -0.232344,-1.925143 0.04396,-0.601047 0.475506,-1.744307 0.475506,-1.744307 z"
             id="path8"
             sodipodi:nodetypes="csssc" />
          <path
             style="opacity:1;fill:#ffcc00;fill-opacity:1;fill-rule:evenodd;stroke:#000000;stroke-width:0.5;stroke-linecap:round;stroke-linejoin:round;stroke-dasharray:none;stroke-opacity:1"
             d="m -59.671125,87.222757 c 0.695712,1.015958 0.974259,1.799063 1.137179,2.812109 0.383139,2.38237 -1.581797,3.47432 -2.046063,0.79376 -0.112483,-0.64945 0.02634,-1.347127 0.189564,-1.979523 0.15217,-0.589626 0.71932,-1.626346 0.71932,-1.626346 z"
             id="path9"
             sodipodi:nodetypes="csssc" />
          <path
             style="opacity:1;fill:#ffcc00;fill-opacity:1;stroke:#000000;stroke-width:0.5;stroke-dasharray:none;stroke-opacity:1"
             d="m -94.105184,86.116601 c 0,0 -2.931081,-2.040109 -4.240361,-3.246111 -0.43395,-0.39972 -0.70015,-1.007772 -1.24274,-1.202015 -0.638765,-0.228673 -1.406825,-0.106194 -2.028705,0.165078 -0.32772,0.142959 -0.53821,0.697224 -0.79105,0.724437 -1.00574,0.108245 -2.40581,1.108742 -2.25,1.3125 0.76042,-0.177083 1.47116,-0.07797 2.09375,0.21875 1.3388,2.109893 2.669495,1.495757 4.343745,0.65625 0,0 0.89063,0.01563 0.98438,0.171875 0.0937,0.15625 2.34204,1.863361 2.34204,1.863361 z"
             id="path11"
             sodipodi:nodetypes="csaascccscc" />
          <path
             style="opacity:1;fill:#ffcc00;fill-opacity:1;stroke:#000000;stroke-width:0.5;stroke-dasharray:none;stroke-opacity:1"
             d="m -95.748215,87.657525 -3.47193,0.850885 c 0,0 -0.834605,-1.207111 -1.561955,-1.537643 -0.35437,-0.365386 -2.42518,-0.778247 -3.44937,0.914483 -1.25617,0.661192 -2.45834,1.751962 -2.24411,3.507346 0.65601,-0.638989 1.11067,-1.415428 2.09165,-1.659693 0.14247,0.25517 0.56524,1.170122 1.61133,1.239658 1.54722,0.102846 2.04579,-0.271851 3.229505,-1.087659 l 1.47893,-0.52765 2.03391,-0.612686"
             id="path12"
             sodipodi:nodetypes="ccccccsccc" />
          <path
             style="opacity:1;fill:#ffcc00;fill-opacity:1;stroke:#000000;stroke-width:0.5;stroke-dasharray:none;stroke-opacity:1"
             d="m -96.172705,89.158941 -1.29784,1.867799 c 0,0 -1.42657,0.53568 -1.83658,1.125 -0.34561,0.496762 -0.38359,1.17697 -0.35092,1.78125 0.0796,1.472245 0.73253,2.37716 1.53125,3 -0.13542,-0.998522 -0.14583,-1.529772 -0.0312,-1.59375 0,0 0.70754,-0.204712 1.03125,-0.375 1.71666,-0.903039 1.75547,-2.434177 1,-3.875 l 0.64829,-1.672406"
             id="path13"
             sodipodi:nodetypes="ccssccscc" />
          <path
             style="opacity:1;fill:#ffcc00;fill-opacity:1;stroke:#000000;stroke-width:0.5;stroke-dasharray:none;stroke-opacity:1"
             d="m -92.863388,87.759309 3.986593,0.267431 c 0.709417,2.457634 1.931706,2.921129 3.921875,1.413451 0.584856,-0.249676 0.851141,0.510562 1.234375,1.086549 0.209357,-0.592987 0.01517,-2.316985 -1.125,-3.09375 -1.092295,-0.744146 -2.403243,-1.396826 -4.03125,-0.332254 l -3.481807,-0.132102"
             id="path14"
             sodipodi:nodetypes="ccccscc" />
          <path
             style="opacity:1;fill:#ffcc00;fill-opacity:1;stroke:#000000;stroke-width:0.5;stroke-dasharray:none;stroke-opacity:1"
             d="m -65.801332,95.391533 c -0.47718,-0.18893 -1.23693,-0.98016 -1.57434,-1.63957 -0.4558,-0.890773 -0.67566,-1.902423 -0.67566,-3.108953 0,-1.306394 0.28519,-2.33259 1.07513,-3.868648 0.30243,-0.588086 0.54987,-1.13829 0.54987,-1.222674 0,-0.349274 -0.41976,-0.25022 -1.7351,0.40945 -0.76338,0.382848 -1.82433,0.843232 -2.35768,1.023074 -0.91317,0.307919 -1.06812,0.322884 -2.65722,0.256639 -1.32628,-0.05529 -1.99444,-0.152159 -3.1214,-0.452544 -1.59009,-0.423826 -1.73326,-0.438517 -2.4187,-0.248182 -1.07888,0.299587 -1.93546,1.577863 -2.05496,3.066606 -0.084,1.046299 0.12979,1.598299 0.95336,2.461729 0.7748,0.81229 0.76634,0.84784 -0.26044,1.09416 -0.50971,0.122283 -0.65725,0.110003 -1.06358,-0.0885 -0.66359,-0.3242 -0.90937,-0.87787 -0.90692,-2.04299 0.001,-0.51563 0.0883,-1.33125 0.19383,-1.8125 0.37623,-1.715865 0.37688,-1.665905 -0.0238,-1.818258 -0.37832,-0.14384 -0.79735,-0.471051 -0.79735,-0.62264 0,-0.04931 0.22883,-0.126242 0.50852,-0.170966 0.30083,-0.0481 0.64216,-0.214959 0.83573,-0.408529 0.43764,-0.437637 1.44493,-0.885552 2.4889,-1.106747 1.48593,-0.314838 2.6603,-0.205574 4.08119,0.379716 1.60996,0.663175 3.83573,0.680051 5.54326,0.04203 0.91418,-0.341586 2.05636,-1.453893 2.64763,-2.578387 0.62915,-1.196518 0.60262,-1.224535 -1.11018,-1.17257 -0.80336,0.02437 -1.66364,-0.01691 -1.94801,-0.09349 -1.02976,-0.277297 -1.92204,-1.168218 -1.92204,-1.919114 v -0.369463 l 0.46058,0.404393 c 1.24043,1.089114 2.95851,1.159942 4.24959,0.175191 l 0.41483,-0.316409 v -5.548761 c 0,-3.051819 -0.0489,-5.57898 -0.10865,-5.615912 -0.0598,-0.03693 -1.0582,0.19679 -2.21875,0.519385 l -2.1101,0.586535 -2.35526,0.0045 -2.35526,0.0045 -0.24629,0.3125 c -0.13545,0.171875 -0.36942,0.509375 -0.51991,0.75 -0.15539,0.248432 -0.50119,0.545539 -0.80018,0.6875 -0.72638,0.344885 -0.70509,0.643051 0.0828,1.158826 0.85916,0.562454 1.1523,0.653674 2.10065,0.653674 h 0.82775 l -0.36208,0.377939 c -0.36816,0.38427 -1.3143,0.747061 -1.94829,0.747061 -0.18878,0 -0.72094,-0.196875 -1.18259,-0.4375 -0.46164,-0.240625 -0.91241,-0.4375 -1.0017,-0.4375 -0.39985,0 -0.26081,0.31737 0.50735,1.158045 1.09801,1.201665 1.48945,2.000432 1.41577,2.888969 -0.0602,0.726205 -0.32142,1.157635 -1.00847,1.665705 l -0.40426,0.298955 -0.0661,-1.287088 c -0.0811,-1.577702 -0.25894,-1.958355 -1.15531,-2.472426 -0.35946,-0.206148 -0.7287,-0.375341 -0.82055,-0.375988 -0.0918,-6.45e-4 -1.72309,1.50971 -3.625,3.356345 -3.34833,3.251032 -5.85579,5.596024 -7.5043,7.018074 -0.54648,0.471406 -0.88329,0.882989 -1.07358,1.311909 -0.4232,0.953892 -1.60832,1.987806 -2.645843,2.308265 -0.45272,0.13983 -0.87999,0.254235 -0.94951,0.254235 -0.0771,0 -0.10687,-0.306714 -0.0763,-0.786568 0.0607,-0.953677 0.30927,-1.34566 1.348663,-2.126984 0.82742,-0.622007 12.13038,-11.339627 12.13038,-11.502216 0,-0.199017 -1.42251,-2.485335 -1.58518,-2.547754 -0.0903,-0.03464 -0.35656,0.105953 -0.59174,0.312439 -0.46326,0.40675 -1.48975,0.838395 -2.27087,0.954919 -0.47682,0.07113 -0.47326,0.06692 0.13529,-0.159808 1.12664,-0.419758 1.94303,-0.894435 2.08888,-1.214543 0.11499,-0.252372 0.09,-0.47095 -0.13154,-1.151747 -0.32868,-1.009907 -0.35734,-2.312766 -0.072,-3.273558 0.36512,-1.229478 1.85776,-2.388768 3.52798,-2.740075 0.52231,-0.10986 0.8454,-0.101553 1.51986,0.03908 1.12177,0.233895 1.42542,0.406012 2.28636,1.295965 0.53147,0.549382 0.86718,0.785115 1.28447,0.901949 0.31072,0.087 0.5874,0.19451 0.61484,0.238918 0.0877,0.141915 4.73728,0.152602 5.63835,0.01296 0.89216,-0.138263 2.0971,-0.65097 2.72135,-1.157946 l 0.35353,-0.287119 -0.54103,-1.041623 c -0.53646,-1.032809 -0.54108,-1.052777 -0.5456,-2.359615 l -0.005,-1.317993 -0.87044,-0.30353 c -0.47874,-0.166941 -1.01044,-0.313462 -1.18155,-0.325601 -0.27743,-0.01968 -0.32041,0.03883 -0.39698,0.54043 -0.0472,0.309375 -0.0971,0.984375 -0.11078,1.5 -0.0236,0.887792 -0.0302,0.907676 -0.125,0.375 -0.0551,-0.309375 -0.10426,-1.10898 -0.10936,-1.7769 -0.009,-1.161826 -0.0253,-1.232674 -0.37986,-1.636489 -0.62795,-0.7152 -2.2203,-1.445184 -2.42609,-1.112204 -0.0338,0.05468 0.0702,0.659363 0.23118,1.34375 0.35957,1.529057 0.52851,4.020263 0.32398,4.777234 -0.0792,0.29309 -0.32444,0.73868 -0.54498,0.9902 -0.40881,0.466224 -1.2944,1.164409 -1.47696,1.164409 -0.0555,0 -0.21354,-0.379688 -0.35116,-0.84375 -0.46075,-1.553805 -0.63534,-2.970507 -0.63534,-5.155558 v -2.091555 l -0.78125,-0.351896 c -0.51236,-0.230781 -0.98041,-0.349261 -1.35992,-0.344243 -1.23766,0.01637 -1.20822,-0.0109 -4.20351,3.894834 -4.43946,5.788868 -7.66586,9.663763 -8.94137,10.738548 -0.9367,0.789296 -2.85404,2.180193 -2.91767,2.116567 -0.12751,-0.127517 0.4589,-2.220946 0.92496,-3.30197 0.26609,-0.617206 0.78314,-1.623107 1.14899,-2.235336 1.26762,-2.121254 4.92406,-7.369354 6.05551,-8.691485 0.62522,-0.730588 1.32932,-1.649411 1.56468,-2.041829 0.439,-0.73197 1.31768,-3.372194 1.19067,-3.577697 -0.18178,-0.29413 -0.57763,-0.02081 -1.60003,1.10477 -0.60854,0.669952 -1.50854,1.574285 -2,2.009627 -1.02313,0.906305 -3.77532,3.061123 -3.99596,3.128626 -0.0812,0.02484 0.75919,-0.875163 1.86749,-2 3.25947,-3.308102 4.26878,-4.607657 3.57857,-4.607657 -0.39253,0 -5.80968,3.300001 -7.15616,4.359359 -1.71479,1.34913 -3.484113,2.529498 -4.513683,3.011212 -0.74633,0.349188 -2.710015,0.831783 -2.978695,0.732041 -0.17518,-0.06503 1.248875,-2.553572 1.954325,-3.415182 0.76446,-0.933688 2.40239,-2.390865 4.432433,-3.943314 1.4251,-1.089824 5.49221,-5.138892 5.58361,-5.558841 0.0892,-0.409829 -0.42866,-0.283286 -2.8002,0.684259 -1.36185,0.555608 -2.52443,0.994085 -2.58351,0.974391 -0.0591,-0.01969 0.993,-0.702384 2.33796,-1.51709 2.59532,-1.572106 2.59023,-1.567118 2.61788,-2.566788 0.0212,-0.766612 0.049,-0.772013 -5.93044,1.153165 -1.872383,0.602845 -3.323863,0.99527 -3.990383,1.078844 -0.57615,0.07224 -1.06172,0.117193 -1.07903,0.09989 -0.0173,-0.01731 0.36122,-0.368511 0.84116,-0.780455 2.24329,-1.925455 4.191843,-2.877016 7.690533,-3.755613 1.20553,-0.302733 2.46678,-0.586893 2.80277,-0.631464 0.74379,-0.09867 1.03488,-0.36624 0.68041,-0.625436 -0.13086,-0.09569 -0.38186,-0.173859 -0.55778,-0.17372 -0.40272,3.21e-4 -2.53671,-0.387569 -2.4745,-0.449782 0.0254,-0.02537 0.71741,-0.132135 1.53788,-0.237266 2.07126,-0.265404 2.17926,-0.29344 2.17926,-0.565761 0,-0.12798 -0.0441,-0.259946 -0.098,-0.29326 -0.0539,-0.03331 -1.27734,-0.294974 -2.71875,-0.581468 -3.42302,-0.680357 -4.88733,-1.028702 -6.197523,-1.474332 -1.60345,-0.545376 -1.65453,-0.591326 -0.85005,-0.764755 2.078523,-0.44809 4.962703,-0.820881 9.301823,-1.202296 1.2375,-0.108778 2.29993,-0.246818 2.36095,-0.306754 0.0644,-0.06326 0.012,-0.413771 -0.125,-0.835529 l -0.23595,-0.726555 -0.875,-0.08355 c -0.48125,-0.04595 -1.2125,-0.190169 -1.625,-0.320481 l -0.75,-0.236932 1.21691,-0.08816 c 1.31377,-0.09518 1.8456,-0.23538 1.84557,-0.486531 -3e-5,-0.300207 -1.25486,-2.118025 -1.92388,-2.787044 -0.56598,-0.565983 -1.16203,-0.999646 -2.77805,-2.021199 -0.19548,-0.123571 -0.0867,-0.149407 0.63945,-0.151889 2.42844,-0.0083 4.45789,0.779184 6.45447,2.504522 0.38746,0.334821 0.79149,0.608766 0.89783,0.608766 0.20853,0 0.24059,-0.07793 0.46573,-1.131825 l 0.14832,-0.694325 -0.76443,-0.764425 c -0.42043,-0.420436 -0.76442,-0.832038 -0.76442,-0.914673 0,-0.109402 0.0634,-0.103624 0.23316,0.02125 2.04553,1.50452 2.38349,1.491911 1.72954,-0.06453 -0.62108,-1.478235 -0.84721,-2.856727 -0.91474,-5.576479 l -0.0605,-2.437495 1.61328,3.249995 c 1.67636,3.37707 2.73928,5.119864 3.68283,6.038447 0.53049,0.516452 0.58068,0.536878 1.22852,0.5 l 0.67543,-0.03844 0.69793,-4.75 0.69794,-4.750002 0.0951,4.687502 0.0951,4.6875 0.53594,0.875 c 1.08059,1.764197 1.12911,1.897651 1.11337,3.0625 -0.03,2.222129 -1.49639,4.955964 -3.09738,5.77463 -0.61719,0.315607 -2.44016,0.775852 -3.85516,0.973317 l -1.09209,0.152402 -0.57131,0.941038 c -0.31423,0.517573 -0.54418,1.011765 -0.51101,1.098207 0.0446,0.116282 0.50984,0.155101 1.7884,0.149226 2.12224,-0.0097 2.94424,0.188575 3.52551,0.850606 0.4975,0.566618 0.57787,0.880136 0.57626,2.248074 -0.001,1.063759 -0.0302,1.185482 -0.53125,2.236052 -0.29146,0.61108 -0.52993,1.2088 -0.52993,1.328268 0,0.143041 0.30946,0.377895 0.90625,0.687771 1.3133,0.681915 2.45113,1.460783 3.08853,2.114159 0.49107,0.503385 1.00469,0.747292 1.00551,0.4775 0.0103,-3.362325 0.10597,-4.929503 0.35944,-5.885954 l 0.27619,-1.042205 -0.32969,-0.562572 c -0.18133,-0.309415 -0.46504,-0.680255 -0.63046,-0.824088 -0.16542,-0.143834 -0.30077,-0.315875 -0.30077,-0.382315 0,-0.11349 1.15732,-0.05934 2.25,0.105281 0.43196,0.06508 0.45069,0.04841 1.47813,-1.314847 0.57235,-0.759418 1.01778,-1.44932 0.98985,-1.533118 -0.032,-0.09592 -0.55763,-0.201398 -1.41898,-0.284737 -1.57303,-0.152198 -2.44344,-0.489981 -2.73991,-1.063289 -0.10125,-0.195795 -0.18409,-0.381505 -0.18409,-0.41269 0,-0.03118 0.27116,0.04633 0.60258,0.172264 1.32838,0.504742 3.72592,0.600029 4.71945,0.187566 0.72233,-0.299874 2.99074,-3.145832 3.69716,-4.638476 0.46486,-0.98222 0.69039,-2.192639 0.8597,-4.613935 0.0981,-1.402763 0.0985,-2.002223 0.002,-2.119055 -0.22005,-0.265143 -1.21461,-0.48382 -1.85214,-0.407233 -0.66609,0.08002 -1.77021,0.550157 -2.7495,1.170742 -0.36227,0.229576 -0.68931,0.417411 -0.72674,0.417411 -0.17981,0 0.57039,-1.080346 1.08343,-1.560231 0.88613,-0.82887 1.50954,-1.098737 2.68768,-1.163448 0.9929,-0.05454 1.01458,-0.06275 1.23224,-0.466915 0.27413,-0.509031 0.18456,-0.839627 -0.69554,-2.567146 -0.70545,-1.38471 -1.46608,-2.217358 -2.47773,-2.712312 -0.61981,-0.30324 -0.85456,-0.34178 -2.34791,-0.38542 -0.91259,-0.0267 -1.65872,-0.0842 -1.65808,-0.12776 6.5e-4,-0.0436 0.16673,-0.36791 0.36907,-0.7207 0.48503,-0.84567 1.21458,-1.45522 2.47351,-2.06664 0.69436,-0.33723 1.02856,-0.56881 1.02301,-0.70888 -0.004,-0.11443 -0.13121,-0.78062 -0.28151,-1.48044 -0.26717,-1.24394 -0.28536,-1.28114 -0.81342,-1.66366 -0.90964,-0.65894 -1.02189,-1.30257 -0.40208,-2.30545 0.67443,-1.09125 1.84156,-1.14175 2.52241,-0.10913 0.39694,0.60202 0.22672,1.34891 -0.52323,2.2958 l -0.38462,0.48562 0.47659,0.90048 c 0.45181,0.85365 0.50842,0.90956 1.08849,1.07493 l 0.61188,0.17444 0.66937,-0.66105 c 0.36815,-0.36357 0.66936,-0.72628 0.66936,-0.80601 0,-0.0797 -0.14062,-0.46295 -0.3125,-0.85159 -0.17187,-0.38864 -0.31213,-0.83157 -0.31168,-0.9843 0.002,-0.64898 1.00695,-1.59019 1.69802,-1.59019 0.30169,0 0.4958,0.10881 0.78821,0.44185 0.65499,0.74599 0.50108,1.53418 -0.51478,2.63626 l -0.50652,0.54951 0.0859,0.83828 c 0.0472,0.46106 0.10673,0.85914 0.13222,0.88462 0.0899,0.0898 1.00847,0.26855 1.39565,0.2715 0.25502,0.002 0.66311,-0.17805 1.16782,-0.51508 0.75608,-0.50489 0.77393,-0.52953 0.70175,-0.96875 -0.25034,-1.52331 -0.24667,-1.60124 0.0855,-1.81889 0.6981,-0.45741 1.88393,-0.34387 2.27753,0.21808 0.25985,0.37099 0.24035,1.24514 -0.0354,1.58565 -0.13062,0.16131 -0.48554,0.33564 -0.85527,0.4201 -0.55562,0.12692 -0.71748,0.24523 -1.33923,0.9789 -0.77349,0.91271 -0.79317,0.9941 -0.62626,2.59098 0.0802,0.76696 0.0879,0.77963 0.77294,1.27019 0.77816,0.557233 1.20404,0.698618 2.44574,0.811951 l 0.86216,0.07869 -0.56401,0.366884 c -0.62648,0.40752 -1.56824,0.607421 -2.86695,0.608552 l -0.83166,7.24e-4 0.0155,4.15625 c 0.0202,5.429112 -0.0369,5.83802 -1.138,8.147346 -0.68672,1.440278 -0.83871,1.875521 -0.8797,2.51913 -0.0438,0.687623 -0.003,0.865191 0.35023,1.528079 0.44795,0.840436 0.63213,0.928912 2.28497,1.097665 0.73711,0.07526 0.82464,0.110489 0.6875,0.276699 -0.0864,0.104752 -0.39622,0.296451 -0.68841,0.425995 -0.60915,0.270076 -0.65155,0.456066 -0.23102,1.013426 0.79992,1.060192 0.77898,2.612276 -0.13267,9.83541 -0.40207,3.185617 -0.41256,3.41737 -0.1571,3.469741 0.10888,0.02232 0.64325,-0.344204 1.1875,-0.814496 l 0.98954,-0.855079 0.0913,-1.118834 c 0.26742,-3.278291 1.16221,-4.422552 3.9007,-4.988202 0.51425,-0.106221 1.07468,-0.19313 1.24539,-0.19313 0.17072,0 0.34651,-0.05844 0.39066,-0.129878 0.0441,-0.07143 -0.11683,-0.61987 -0.35773,-1.21875 -0.86116,-2.140856 -0.87276,-3.276968 -0.0387,-3.78558 0.30307,-0.1848 0.62839,-0.239965 1.41724,-0.240325 0.56313,-2.57e-4 1.05796,-0.05562 1.09962,-0.123028 0.0417,-0.06741 -0.11766,-0.531473 -0.35405,-1.03125 -0.23639,-0.499779 -0.58255,-1.499314 -0.76925,-2.221189 -0.1867,-0.721875 -0.39158,-1.345118 -0.45529,-1.384985 -0.0637,-0.03987 -0.4655,-0.02416 -0.89287,0.0349 -1.66779,0.23049 -3.36788,-0.331133 -4.17388,-1.378838 -1.33151,-1.730804 -0.39309,-4.49485 1.89326,-5.576467 0.55822,-0.264081 0.85862,-0.319612 1.72895,-0.319612 h 1.05334 c 1.262705,-1.068698 2.313282,-3.057862 3.18942,-4.387326 0.05551,-0.08423 0.10454,1.28621 0.0546,2.218406 -0.0697,1.301025 -0.0577,1.41892 0.14444,1.41892 0.12127,0 1.20202,-0.760558 2.40167,-1.690128 1.19965,-0.92957 2.82805,-2.131446 3.61868,-2.670835 1.41413,-0.96477 3.99158,-2.439119 4.09072,-2.339975 0.0843,0.0843 -0.71661,1.597957 -1.18634,2.242089 -0.53051,0.72748 -2.29096,2.111783 -3.85975,3.035066 -1.43922,0.847028 -4.25527,2.222658 -5.00035,2.442652 -0.90902,0.268405 -0.91732,0.375761 -0.10094,1.305641 0.39816,0.453506 0.79478,0.851745 0.88138,0.884976 0.0866,0.03323 0.44631,-0.167915 0.79937,-0.446991 0.35306,-0.279075 1.18676,-0.809583 1.85266,-1.178904 1.95842,-1.086167 5.91459,-3.108916 5.97073,-3.052774 0.0285,0.02846 -0.50945,0.489187 -1.19535,1.023842 -1.45919,1.137427 -2.90933,2.623342 -2.85179,2.92214 0.0362,0.187896 0.38771,0.203551 3.85099,0.171505 2.09614,-0.0194 4.34554,0.01885 4.99867,0.085 1.2535,0.126954 3.625,0.627313 3.625,0.764834 0,0.0954 -1.46595,0.443474 -2.625,0.623272 -0.44688,0.06932 -1.99375,0.213299 -3.4375,0.31995 -2.88261,0.212943 -4.33266,0.402302 -6.29647,0.822242 l -1.29646,0.277236 -0.28736,0.620234 c -0.15804,0.341128 -0.25948,0.692866 -0.22542,0.781638 0.0407,0.106038 0.43392,0.187168 1.14632,0.236507 5.17541,0.35843 6.53569,0.543315 8.80344,1.196537 1.72425,0.49667 3.15201,1.078299 4.39358,1.789829 l 0.98764,0.566 -0.42514,0.07225 c -0.23382,0.03974 -3.46263,0.213818 -7.17513,0.38684 -3.7125,0.173024 -6.82032,0.339764 -6.90625,0.370533 -0.0859,0.03077 -0.15625,0.158255 -0.15625,0.283304 0,0.188305 0.29468,0.299723 1.71555,0.648637 1.57041,0.385638 2.95102,0.554604 5.22195,0.639091 0.35769,0.01331 -0.12345,0.09381 -1.125,0.188229 -0.9625,0.09074 -1.92609,0.197661 -2.1413,0.23761 -0.601,0.111564 -1.9212,1.013004 -1.9212,1.311811 0,0.287198 0.0195,0.292974 1.9375,0.575162 2.17003,0.31926 5.52602,1.00755 6.6875,1.37156 0.58437,0.183143 1.76562,0.67361 2.625,1.089923 1.4612,0.707862 1.53818,0.762833 1.1875,0.84791 -0.20625,0.05004 -1.36623,0.09763 -2.57773,0.105764 -1.94041,0.01303 -2.34232,-0.0207 -3.375,-0.28325 -1.39488,-0.354634 -3.10692,-0.982601 -5.21585,-1.913154 -0.84897,-0.374602 -1.60834,-0.654033 -1.6875,-0.62096 -0.0792,0.03307 -0.27859,0.377079 -0.44319,0.764457 -0.35731,0.840947 -0.31225,0.974071 0.70175,2.073208 0.52496,0.569034 0.96803,0.869678 2.26694,1.538218 0.88795,0.457021 2.19746,1.083226 2.91001,1.391566 0.71256,0.30834 1.23129,0.561538 1.15272,0.562661 -0.0786,0.0011 -1.06294,-0.223437 -2.1875,-0.499025 -1.12456,-0.275587 -2.36809,-0.536725 -2.7634,-0.580307 -0.66623,-0.07345 -0.71875,-0.06059 -0.71875,0.176029 0,0.403118 2.85632,3.069643 3.72674,3.479112 2.44061,1.14812 3.04149,1.457296 3.74378,1.926331 0.93868,0.626914 1.16939,0.963448 0.83041,1.211314 -1.05613,0.772266 -3.59151,0.416378 -5.56222,-0.780765 -1.12727,-0.68478 -1.64439,-1.166789 -3.52198,-3.28284 -0.95667,-1.078169 -1.84436,-1.977962 -1.97265,-1.999541 -0.18072,-0.0304 -0.34711,0.187201 -0.73867,0.965975 -0.27798,0.552866 -0.50541,1.075854 -0.50541,1.162194 0,0.08634 0.60372,0.76259 1.34161,1.502775 0.73789,0.740185 1.26995,1.345791 1.18235,1.345791 -0.0876,0 -0.66192,-0.510364 -1.27626,-1.134141 -0.61435,-0.623779 -1.17453,-1.098584 -1.24485,-1.055124 -0.0703,0.04346 -0.12781,0.539762 -0.12776,1.102892 9e-5,0.868563 0.0544,1.137639 0.3579,1.773873 0.75705,1.586876 3.82732,5.849936 7.74219,10.75 1.78619,2.235695 1.96907,2.50784 1.72983,2.574151 -0.14713,0.04078 -0.99876,0.112258 -1.89251,0.158831 -0.89375,0.04657 -1.93826,0.117758 -2.32113,0.158185 l -0.69612,0.0735 -0.53992,-1.357335 c -1.09124,-2.743367 -3.47411,-7.558614 -5.96051,-12.044836 -1.30186,-2.348965 -1.31241,-2.359226 -2.57465,-2.504363 -1.64078,-0.188662 -1.70421,-0.17811 -2.2259,0.370302 -0.66647,0.700605 -1.07576,1.623318 -1.41862,3.198188 -0.16445,0.755355 -0.5057,2.329623 -0.75835,3.498373 -0.25265,1.16875 -0.53193,2.199397 -0.62062,2.290326 -0.13367,0.137033 -0.23791,0.133303 -0.60911,-0.02179 -0.53538,-0.223697 -0.87762,-0.824217 -1.15751,-2.031055 -0.23844,-1.028126 -0.10815,-2.066107 0.51994,-4.14232 0.23375,-0.772663 0.425,-1.455708 0.425,-1.517876 0,-0.35948 -0.47976,-0.168786 -1.53803,0.611339 l -1.17278,0.864532 -0.27018,0.910924 c -0.1486,0.501009 -0.3531,1.383171 -0.45445,1.960364 -0.10135,0.577192 -0.20728,1.072446 -0.2354,1.100565 -0.10377,0.10377 -0.32916,-1.573988 -0.32916,-2.450188 0,-0.858422 -0.0139,-0.902661 -0.27244,-0.864761 -0.21966,0.03221 -0.42117,0.38136 -1.04039,1.80269 -0.83693,1.921055 -1.32866,2.792715 -2.09149,3.707424 -0.2798,0.33551 -0.46627,0.673534 -0.42742,0.774787 0.0937,0.244107 2.62165,1.03104 4.08174,1.270603 2.30434,0.378082 3.1865,0.16875 5.71559,-1.356295 1.81041,-1.091678 2.85492,-1.206928 4.85462,-0.535653 2.87539,0.965238 3.68802,1.774579 4.36639,4.34871 0.25249,0.958114 0.69513,3.457475 0.62976,3.555964 -0.0103,0.01556 -1.33729,0.224454 -2.94882,0.464216 -1.61152,0.239763 -3.49254,0.594272 -4.18004,0.787799 -1.16915,0.329108 -1.26339,0.379931 -1.45697,0.785783 -0.31166,0.653415 -0.52162,1.795342 -0.44884,2.441106 l 0.0648,0.574762 -0.35497,-0.340087 c -0.45635,-0.437209 -0.74183,-1.043919 -0.74029,-1.573256 10e-4,-0.492059 0.45584,-1.518888 1.01948,-2.303739 0.56609,-0.788269 0.42659,-0.878195 -1.04823,-0.675709 -1.37728,0.189094 -1.8057,0.09445 -2.55067,-0.563521 l -0.4843,-0.427734 0.91027,-0.0052 c 1.1108,-0.0064 1.61193,-0.201753 2.13033,-0.830655 0.50545,-0.613197 0.4993,-0.812554 -0.0339,-1.099713 -0.67823,-0.365251 -0.96634,-0.749062 -1.03773,-1.382422 -0.0355,-0.315235 -0.10347,-0.597174 -0.15097,-0.626532 -0.0475,-0.02936 -0.61661,0.03336 -1.26467,0.139384 -1.76786,0.289209 -3.48041,0.177804 -6.0533,-0.39378 -1.16875,-0.259645 -2.2375,-0.478135 -2.375,-0.485534 -0.24602,-0.01324 -0.25052,0.07563 -0.28254,5.572959 l -0.0325,5.586411 0.41612,0.317387 c 1.29239,0.985756 3.00991,0.915367 4.25087,-0.174214 l 0.46056,-0.404388 v 0.369463 c 0,0.750896 -0.89228,1.641817 -1.92204,1.9191 -0.28437,0.07657 -1.14465,0.117857 -1.94801,0.09349 -1.31426,-0.03987 -1.44257,-0.02385 -1.48294,0.185124 -0.0706,0.365305 1.10078,2.176338 1.86851,2.888902 1.49991,1.392137 2.6412,1.57683 5.04698,0.816744 1.22248,-0.386232 1.52752,-0.43442 2.75,-0.43442 1.57477,0 2.78466,0.326195 3.4825,0.938903 0.21815,0.191533 0.64019,0.413828 0.93789,0.493988 0.51561,0.13884 0.53137,0.156669 0.33265,0.376255 -0.11474,0.126781 -0.3733,0.298724 -0.57458,0.382097 -0.42602,0.176464 -0.43718,0.278327 -0.16653,1.519334 0.30661,1.405906 0.28647,2.793918 -0.0506,3.490288 -0.32722,0.67594 -0.74057,0.930381 -1.46581,0.902311 -0.46346,-0.0179 -1.30798,-0.324471 -1.30798,-0.474771 0,-0.029 0.27913,-0.42145 0.62029,-0.87219 0.34116,-0.45073 0.68423,-1.05697 0.76238,-1.34719 0.34963,-1.298412 -0.38903,-3.204259 -1.47813,-3.81381 -0.78589,-0.439847 -1.22224,-0.454149 -2.78247,-0.09121 -0.78901,0.183539 -1.8949,0.363854 -2.45752,0.400701 -1.28968,0.08446 -1.89916,-0.1029 -3.63524,-1.117523 -1.20071,-0.701735 -1.65431,-0.826248 -1.65431,-0.45411 0,0.08438 0.24744,0.634588 0.54988,1.222674 0.78993,1.536058 1.07512,2.562254 1.07512,3.868648 0,1.73496 -0.42858,3.017641 -1.34916,4.037841 -0.70933,0.78608 -1.6599,1.05354 -2.52584,0.71068 z"
             id="path10-8"
             sodipodi:nodetypes="csssssssssssssccssssssssssscsscscscccssscscssssscsccsssssssccsssssscsssssssscsccssccccsscssscscsssssscssssssssssssssssssssccsssscssssssssccsscssssssssccsccccssscccccscssccccsccssscscssssscssscssscsssssssscssscssssscsscssscsssccccssssssscsscssccsscscsssssccsscssscssssssscssssssssssssscscsssssscssssscsssssssssssssssscsssscsssssssssssssssscsssscsssssssssssscssssssscsssscsssccscsssccsscssssccsscssscssssssssccsssssssscsscc" />
          <path
             style="opacity:1;fill:#000000;fill-opacity:1;stroke:none;stroke-width:0.5;stroke-dasharray:none;stroke-opacity:1"
             d="m -57.97185,24.527077 c -1.785095,-1.201474 -2.149129,-1.984984 -3.258472,-3.631536 -0.109269,-0.162185 0.04011,-1.106822 -0.385488,-1.280878 -0.750496,-0.306927 -2.39975,0.134145 -2.379783,0.904867 0.0077,0.296181 0.251217,0.570773 0.508192,0.718238 0.480671,0.275833 1.657281,0.132583 1.657281,0.132583 1.323048,2.105899 2.922089,3.132436 3.80358,3.54818"
             id="path15"
             sodipodi:nodetypes="csssscc" />
        </g>
        <g
           id="g37"
           transform="translate(-49.34209,69.830558)">
          <path
             id="path1"
             style="opacity:1;fill:#ffcc00;fill-opacity:1;fill-rule:evenodd;stroke:#000000;stroke-width:1;stroke-linecap:round;stroke-dasharray:none;stroke-opacity:1"
             d="m 143.84209,38.669442 v 42.796872 a 29.144722,29.144722 0 0 0 29.14453,29.144536 29.144722,29.144722 0 0 0 29.14453,-29.144536 V 38.669442 Z" />
          <path
             style="fill:#653200;fill-opacity:1;fill-rule:evenodd;stroke:#000000;stroke-width:0.3;stroke-linecap:round;stroke-linejoin:round;stroke-dasharray:none;stroke-opacity:1"
             d="m 175.76342,51.576716 c 0.0552,-0.03315 3.93329,-3.447146 3.93329,-3.447146 0,0 0.4879,-1.902815 0.96122,-2.751087 0.31894,-0.571592 1.23744,-1.524699 1.23744,-1.524699 l 1.83406,-0.53033 c -0.27706,0.689431 -0.65105,1.320705 -0.50824,2.262057 0,0 1.41516,-1.390049 2.2981,-1.798018 0.60059,-0.277507 1.28296,-0.40334 1.94454,-0.397748 0.40744,0.0034 1.19325,0.265165 1.19325,0.265165 -0.93093,0.284413 -1.71337,0.717312 -1.85616,1.789864 l 2.38649,-0.06629 c 0,0 0.77685,-1.258652 1.42525,-1.590991 0.68099,-0.349038 2.28706,-0.265166 2.28706,-0.265166 l -0.0331,0.861786 c -0.81228,0.333027 -1.01664,0.787637 -1.42526,1.201397 7.5957,0 4.31395,2.928672 -0.13258,1.516545 l -3.8449,1.06066 -3.97747,0.928077 -1.59099,0.132583 -4.37523,3.513437"
             id="path35"
             sodipodi:nodetypes="ccscccsscccscccccccc" />
          <path
             style="fill:#653200;fill-opacity:1;fill-rule:evenodd;stroke:#000000;stroke-width:0.5;stroke-linecap:round;stroke-linejoin:round;stroke-dasharray:none;stroke-opacity:1"
             d="m 167.74534,82.815114 -0.0469,-5.625 c 0,0 -2.31414,-2.61134 -3.11065,-4.17632 -0.6158,-1.20993 -1.56824,-3.844893 -1.56824,-3.844893 -0.7402,-2.811352 -0.86062,-6.105922 1.18658,-8.321902 2.30875,-2.4991 4.51291,-3.841348 6.70365,-5.107755 0,0 -0.65416,-0.564001 -1.05509,-0.689743 -0.51705,-0.162166 -1.55468,-0.04687 -1.55468,-0.04687 -0.21371,0.79595 -1.22203,1.180961 -1.91407,0.98437 l -0.45312,-0.796875 -1.3125,0.04687 c -0.14695,-0.961434 -0.26829,-1.93141 -0.0469,-3.015625 3.99466,-2.2495 5.26316,-2.706019 9.14063,-3.40625 0.46939,-0.934337 0.99552,-1.848408 1.89673,-2.628526 0.12968,1.314427 0.57332,2.525295 1.221,3.630625 3.60599,2.366445 1.92541,1.962921 3.60181,2.784233 0.77059,0.377529 2.51907,0.53033 2.51907,0.53033 0,0 -2.57221,0.784801 -2.45278,1.789864 0.2969,2.498411 -1.01955,3.046696 -1.67937,4.706682 -0.93367,2.348984 -2.77527,4.95855 -4.05716,7.36637 l 0.0134,2.444722 c 1.26651,2.943613 2.81084,5.972523 3.0494,9.114723 0.11952,1.57429 -0.53033,4.51918 -0.53033,4.51918 z"
             id="path20"
             sodipodi:nodetypes="ccssscsccccccccscssccscc" />
          <path
             style="fill:#663300;fill-opacity:1;fill-rule:evenodd;stroke:#000000;stroke-width:0.5;stroke-linecap:round;stroke-linejoin:round;stroke-dasharray:none;stroke-opacity:1"
             d="m 162.95181,62.957791 c 0,0 -1.75507,-1.811911 -2.88636,-2.28994 -0.78371,-0.331162 -2.53125,-0.328125 -2.53125,-0.328125 -0.56193,0.470646 -1.16331,0.809802 -1.54687,1.875 l 0.14062,2.15625 -3.32812,1.3125 c -0.56584,-1.220726 -0.35118,-2.335227 -0.0542,-3.57773 0.0313,-0.130981 -0.0281,-0.31682 -0.0161,-0.45352 0.85085,-1.523161 1.78656,-3.034453 3.11719,-4.3125 4.16768,-0.925124 6.59496,0.481277 9.48873,2.364934"
             id="path25"
             sodipodi:nodetypes="csccccsccc" />
          <path
             style="fill:#ffffff;fill-opacity:1;fill-rule:evenodd;stroke:#000000;stroke-width:0.3;stroke-linecap:round;stroke-linejoin:round;stroke-dasharray:none;stroke-opacity:1"
             d="m 166.08842,53.42865 c 0.71545,-1.21406 4.11912,-1.953822 6.82032,-2.425782 l 2.55469,-0.5625 c -0.37933,-1.158679 -0.96524,-1.309878 -1.73438,-1.5 -3.45297,0.485778 -5.2931,1.145253 -9.04687,3.339844 -0.27582,0.904542 -0.16445,2.017237 -0.0717,2.891898 l 1.14136,-0.125221 c 0.10758,-0.521777 0.13658,-1.290617 0.33661,-1.618239 z"
             id="path21"
             sodipodi:nodetypes="cccccccc" />
          <path
             style="fill:#ffffff;fill-opacity:1;fill-rule:evenodd;stroke:#000000;stroke-width:0.3;stroke-linecap:round;stroke-linejoin:round;stroke-dasharray:none;stroke-opacity:1"
             d="m 170.99858,55.7099 4.02735,-0.105469 c -0.272,1.086167 -0.17642,2.30444 -0.96496,3.258502 -1.74895,2.116058 -4.13827,4.099799 -6.59755,5.585248 0.25585,3.04718 1.00856,5.89702 2.5,8.593743 l 3.09375,3.96875 c 0.71773,2.13327 0.40987,3.96872 0.11234,5.84818 l -5.27015,-0.0994 -0.0553,-5.63476 c -3.36541,-3.58977 -5.46555,-7.924523 -5.15967,-12.175489 0.0286,-2.880084 2.25334,-5.053271 4.02167,-6.253475 1.39827,-1.030433 2.5149,-2.004871 4.29247,-2.98583 z"
             id="path22"
             sodipodi:nodetypes="ccscccccccccc" />
          <path
             style="fill:#000000;fill-opacity:1;fill-rule:evenodd;stroke:#000000;stroke-width:0.226714;stroke-linecap:round;stroke-linejoin:round;stroke-dasharray:none;stroke-opacity:1"
             d="m 174.14933,50.810187 0.0459,0.763981 c 0,0 0.0762,0.369548 0.21709,0.363203 0.12498,-0.0056 0.16282,-0.338155 0.16282,-0.338155 l -0.10437,-0.876699 z"
             id="path23"
             sodipodi:nodetypes="ccsccc" />
          <path
             style="fill:#663300;fill-opacity:1;fill-rule:evenodd;stroke:#000000;stroke-width:0.5;stroke-linecap:round;stroke-linejoin:round;stroke-dasharray:none;stroke-opacity:1"
             d="m 169.3021,63.988672 c 0,0 -6.6541,-0.443147 -9.70062,0.662912 -3.00377,1.090541 -7.49826,5.681627 -7.49826,5.681627 l -0.13908,2.739083 c -0.39339,0.75555 -0.39809,1.64067 -0.42809,2.51735 l 3.71231,0.0663 -0.0221,-3.71231 3.7344,-3.181982 c 3.31031,0.762209 6.81703,0.166754 10.04313,-0.165728"
             id="path24"
             sodipodi:nodetypes="csccccccc" />
          <path
             style="fill:#ffffff;fill-opacity:1;fill-rule:evenodd;stroke:#000000;stroke-width:0.3;stroke-linecap:round;stroke-linejoin:round;stroke-dasharray:none;stroke-opacity:1"
             d="m 152.72952,61.652226 c 0,0 1.2713,-0.267602 1.81725,-0.596943 0.97348,-0.587242 1.85121,-1.405223 2.45278,-2.369912 0.28383,-0.455158 0.52015,-1.5094 0.49487,-1.53123 -0.0427,-0.03687 -1.61043,0.139572 -1.64771,0.185585 -0.26316,0.324756 -0.87829,0.853449 -1.5896,1.853709 -0.53042,0.710555 -1.02671,1.596483 -1.52759,2.458791 z"
             id="path26"
             sodipodi:nodetypes="csssscc" />
          <path
             style="fill:#ffffff;fill-opacity:1;fill-rule:evenodd;stroke:#000000;stroke-width:0.3;stroke-linecap:round;stroke-linejoin:round;stroke-dasharray:none;stroke-opacity:1"
             d="m 152.06636,71.059181 c 0,0 0.99366,-0.11773 1.43633,-0.3309 1.55344,-0.74807 3.379,-2.947044 4.6583,-3.570181 1.40467,-0.574484 2.89518,-0.697038 4.38632,-0.831124 1.92572,-0.774447 2.38338,-1.548894 2.98223,-2.323341 -1.62984,-0.181021 -3.27748,0.111226 -4.92357,0.362274 -1.22971,0.185485 -1.9652,0.801251 -2.70544,1.148292 -0.98873,0.649839 -1.87342,1.278804 -2.55464,1.866949 -1.51232,1.252299 -1.96966,1.747421 -2.78807,2.501691 l -0.4546,0.45037 z"
             id="path27"
             sodipodi:nodetypes="csscccccccc" />
          <path
             style="fill:#653200;fill-opacity:1;fill-rule:evenodd;stroke:#000000;stroke-width:0.3;stroke-linecap:round;stroke-linejoin:round;stroke-dasharray:none;stroke-opacity:1"
             d="m 180.85697,53.590451 h 6.23138 l 5.03813,-1.690427 4.00259,-2.458464 c 0.88112,0.115086 1.32808,0.905246 0.83668,1.298367 l -1.1601,0.928077 c -0.10875,0.425955 0.58866,0.610059 1.06066,0.861787 0,0 -1.3629,0.58512 -2.08818,0.696058 -0.60078,0.0919 -1.82301,-0.03315 -1.82301,-0.03315 0.26008,1.412684 0.21776,1.91528 -0.22097,3.281418 l -0.99437,-1.624136 c 0,0 -1.44961,-0.06729 -2.05502,0.265165 -0.30255,0.166145 -0.66292,0.795495 -0.66292,0.795495 l 1.1601,1.093806 -0.0663,0.894932 c -1.31194,0.133 -2.04409,-0.181703 -3.07451,-0.941811 -0.39222,-0.433682 -0.80353,-1.577261 -0.80353,-1.577261 l -1.99979,0.265165 c 0,0 0.0146,0.722528 0.26013,1.046931 0.2486,0.328524 1.19828,0.875515 1.19828,0.875515 l -1.02751,0.596622 c -1.58843,-0.170631 -2.19791,-0.522625 -2.87262,-1.856155 l -0.93913,-1.856156 -1.12695,-0.232019"
             id="path34"
             sodipodi:nodetypes="ccccsccscccscccsccsccscc" />
          <g
             id="g19"
             transform="translate(200.97639,-27.485155)">
            <rect
               style="opacity:1;fill:#653200;fill-opacity:1;fill-rule:evenodd;stroke:#000000;stroke-width:0.5;stroke-linecap:round;stroke-linejoin:bevel;stroke-dasharray:none;stroke-opacity:1"
               id="rect8"
               width="1.25"
               height="10.993294"
               x="-29.056877"
               y="110.34401" />
            <rect
               style="opacity:1;fill:#653200;fill-opacity:1;fill-rule:evenodd;stroke:#000000;stroke-width:0.5;stroke-linecap:round;stroke-linejoin:bevel;stroke-dasharray:none;stroke-opacity:1"
               id="rect9"
               width="1.25"
               height="10.993294"
               x="-121.96231"
               y="-28.431877"
               transform="rotate(-90)" />
            <rect
               style="opacity:1;fill:#653200;fill-opacity:1;fill-rule:evenodd;stroke:#000000;stroke-width:0.5;stroke-linecap:round;stroke-linejoin:bevel;stroke-dasharray:none;stroke-opacity:1"
               id="rect10"
               width="1.25"
               height="10.993294"
               x="-121.96231"
               y="-39.425171"
               transform="rotate(-90)" />
            <rect
               style="opacity:1;fill:#653200;fill-opacity:1;fill-rule:evenodd;stroke:#000000;stroke-width:0.5;stroke-linecap:round;stroke-linejoin:bevel;stroke-dasharray:none;stroke-opacity:1"
               id="rect11"
               width="1.25"
               height="10.993294"
               x="-106.52782"
               y="54.700775"
               transform="rotate(-45)" />
            <rect
               style="opacity:1;fill:#653200;fill-opacity:1;fill-rule:evenodd;stroke:#000000;stroke-width:0.5;stroke-linecap:round;stroke-linejoin:bevel;stroke-dasharray:none;stroke-opacity:1"
               id="rect12"
               width="1.25"
               height="10.993294"
               x="-66.319054"
               y="94.909523"
               transform="matrix(-0.70710678,-0.70710678,-0.70710678,0.70710678,0,0)" />
            <circle
               style="opacity:1;fill:#653200;fill-opacity:1;fill-rule:evenodd;stroke:#000000;stroke-width:0.5;stroke-linecap:round;stroke-linejoin:bevel;stroke-dasharray:none;stroke-opacity:1"
               id="path6"
               cx="-28.463127"
               cy="121.33731"
               r="3.703125" />
            <path
               style="opacity:1;fill:#653200;fill-opacity:1;fill-rule:evenodd;stroke:#000000;stroke-width:0.5;stroke-linecap:round;stroke-linejoin:bevel;stroke-dasharray:none;stroke-opacity:1"
               id="path5"
               clip-path="url(#clipPath6)"
               transform="translate(-122.46313,-4.6247288)"
               d="M 107.98746,125.96204 A 13.987456,13.60248 0 0 1 94,139.56452 13.987456,13.60248 0 0 1 80.012544,125.96204 13.987456,13.60248 0 0 1 94,112.35956 a 13.987456,13.60248 0 0 1 13.98746,13.60248 z"
               sodipodi:type="arc"
               sodipodi:ry="13.60248"
               sodipodi:rx="13.987456"
               sodipodi:cy="125.96204"
               sodipodi:cx="94"
               inkscape:path-effect="#path-effect6" />
            <ellipse
               style="opacity:1;fill:none;fill-opacity:1;fill-rule:evenodd;stroke:#000000;stroke-width:0.5;stroke-linecap:round;stroke-linejoin:bevel;stroke-dasharray:none;stroke-opacity:1"
               id="path19"
               ry="9.6505394"
               rx="9.923667"
               cy="121.33732"
               cx="-28.463127" />
          </g>
          <path
             id="path3"
             style="opacity:1;fill:#009900;fill-opacity:1;fill-rule:evenodd;stroke:#000000;stroke-width:0.5;stroke-linecap:round;stroke-linejoin:bevel;stroke-dasharray:none;stroke-opacity:1"
             d="m 172.48644,94.387847 c -4.77179,0 -7.54689,1.79075 -10.875,4.89258 0,0 -3.99405,-0.56849 -5.86524,0 -2.2705,0.68982 -3.58984,2.570323 -3.58984,2.570323 2.10081,1.84965 4.21319,3.87467 6.26367,4.85937 4.71915,2.55679 9.55853,4.00042 14.56641,3.90039 5.00787,0.10003 9.84725,-1.3436 14.5664,-3.90039 2.05048,-0.9847 4.16286,-3.00972 6.26367,-4.85937 0,0 -1.31739,-1.880503 -3.58789,-2.570323 -1.87119,-0.56849 -5.86718,0 -5.86718,0 -3.19559,-3.5486 -7.10321,-4.89258 -11.875,-4.89258 z"
             sodipodi:nodetypes="zcscccccscz" />
          <path
             id="path4"
             style="opacity:1;fill:none;fill-opacity:1;fill-rule:evenodd;stroke:#000000;stroke-width:1;stroke-linecap:round;stroke-dasharray:none;stroke-opacity:1"
             d="m 143.84209,38.669442 v 42.796872 a 29.144722,29.144722 0 0 0 29.14453,29.144536 29.144722,29.144722 0 0 0 29.14453,-29.144536 V 38.669442 Z" />
        </g>
        <g
           id="g105"
           transform="matrix(0.97048692,0,0,0.99357127,292.79886,60.022248)">
          <path
             style="opacity:1;fill:url(#pattern74);fill-opacity:1;stroke:none;stroke-width:0.5;stroke-dasharray:none;stroke-opacity:1"
             d="m -175.3044,140.56811 86.59719,0.0345 c -16.33229,34.20477 -49.00035,55.70847 -86.59719,53.17062 z"
             id="path16"
             sodipodi:nodetypes="cccc" />
          <path
             id="path18"
             style="opacity:1;fill:#ffffff;fill-opacity:1;stroke:#000000;stroke-width:0.5;stroke-dasharray:none;stroke-opacity:1"
             d="m -128.31253,148.34742 c -7.51188,7.6e-4 -13.60079,4.78995 -13.60023,10.69716 l 0.0171,30.1509 c 9.8333,-2.52609 19.95338,-9.71108 27.27192,-15.45828 l -0.0858,-14.69262 c 5.6e-4,-5.90806 -6.09004,-10.6976 -13.60299,-10.69716 z"
             sodipodi:nodetypes="cccccc" />
          <path
             id="path17"
             style="opacity:1;fill:#000000;fill-opacity:1;stroke:#000000;stroke-width:0.5;stroke-dasharray:none;stroke-opacity:1"
             d="m -128.26878,153.24422 c -5.35403,6.8e-4 -9.69384,4.32193 -9.69344,9.65197 l 0.16879,24.92639 c 6.88999,-2.42613 13.1838,-7.19913 19.22005,-11.36948 v -13.55691 c 4e-4,-5.3308 -4.34061,-9.65237 -9.6954,-9.65197 z"
             sodipodi:nodetypes="cccccc" />
          <rect
             style="opacity:1;fill:#ffffff;fill-opacity:1;stroke:#000000;stroke-width:0.5;stroke-dasharray:none;stroke-opacity:1"
             id="rect28"
             width="4.0357208"
             height="4.0353675"
             x="-141.90945"
             y="181.12474" />
          <path
             style="opacity:1;fill:#ffffff;fill-opacity:1;stroke:#000000;stroke-width:0.5;stroke-dasharray:none;stroke-opacity:1"
             d="m -141.97526,185.16012 h 4.03572 v 2.75571 c -1.31341,0.51725 -2.67484,0.89768 -4.03572,1.27966 z"
             id="path28"
             sodipodi:nodetypes="ccccc" />
          <rect
             style="opacity:1;fill:#ffffff;fill-opacity:1;stroke:#000000;stroke-width:0.5;stroke-dasharray:none;stroke-opacity:1"
             id="rect29"
             width="4.0357208"
             height="4.0353675"
             x="-141.90945"
             y="177.08937" />
          <rect
             style="opacity:1;fill:#ffffff;fill-opacity:1;stroke:#000000;stroke-width:0.5;stroke-dasharray:none;stroke-opacity:1"
             id="rect30"
             width="4.0357208"
             height="4.0353675"
             x="-141.90945"
             y="173.054" />
          <rect
             style="opacity:1;fill:#ffffff;fill-opacity:1;stroke:#000000;stroke-width:0.5;stroke-dasharray:none;stroke-opacity:1"
             id="rect31"
             width="4.0357208"
             height="4.0353675"
             x="-141.90945"
             y="169.01863" />
          <rect
             style="opacity:1;fill:#ffffff;fill-opacity:1;stroke:#000000;stroke-width:0.5;stroke-dasharray:none;stroke-opacity:1"
             id="rect32"
             width="4.0357208"
             height="4.0353675"
             x="-141.90945"
             y="164.98326" />
          <rect
             style="opacity:1;fill:#ffffff;fill-opacity:1;stroke:#000000;stroke-width:0.5;stroke-dasharray:none;stroke-opacity:1"
             id="rect33"
             width="4.0357208"
             height="4.0353675"
             x="-141.90945"
             y="160.94789" />
          <path
             style="opacity:1;fill:#ffffff;fill-opacity:1;stroke:#000000;stroke-width:0.5;stroke-dasharray:none;stroke-opacity:1"
             d="m -118.59605,173.01409 3.96807,-0.006 0.004,0.72913 c -0.42288,0.35164 -2.9813,2.30547 -3.97058,3.03347 z"
             id="path33"
             sodipodi:nodetypes="ccccc" />
          <rect
             style="opacity:1;fill:#ffffff;fill-opacity:1;stroke:#000000;stroke-width:0.5;stroke-dasharray:none;stroke-opacity:1"
             id="rect34"
             width="4.0357208"
             height="4.0353675"
             x="-118.68725"
             y="168.9782" />
          <rect
             style="opacity:1;fill:#ffffff;fill-opacity:1;stroke:#000000;stroke-width:0.5;stroke-dasharray:none;stroke-opacity:1"
             id="rect35"
             width="4.0357208"
             height="4.0353675"
             x="-118.73437"
             y="164.9465" />
          <rect
             style="opacity:1;fill:#ffffff;fill-opacity:1;stroke:#000000;stroke-width:0.5;stroke-dasharray:none;stroke-opacity:1"
             id="rect36"
             width="4.0357208"
             height="4.0353675"
             x="-118.73437"
             y="160.91113" />
          <path
             style="opacity:1;fill:#ffffff;fill-opacity:1;stroke:#000000;stroke-width:0.5;stroke-dasharray:none;stroke-opacity:1"
             d="m -124.49132,156.27893 -3.82224,-3.03187"
             id="path41" />
          <path
             style="opacity:1;fill:#ff00ff;fill-opacity:1;stroke:#000000;stroke-width:0.5;stroke-dasharray:none;stroke-opacity:1"
             d="m -136.76376,158.80382 -4.63701,-2.67718"
             id="path44" />
          <path
             style="opacity:1;fill:#ff00ff;fill-opacity:1;stroke:#000000;stroke-width:0.5;stroke-dasharray:none;stroke-opacity:1"
             d="m -119.72043,158.80382 4.63701,-2.67718"
             id="path45" />
          <path
             style="opacity:1;fill:#ff00ff;fill-opacity:1;stroke:#000000;stroke-width:0.5;stroke-dasharray:none;stroke-opacity:1"
             d="m -135.25644,155.91013 -2.95638,-4.45677"
             id="path48" />
          <path
             style="opacity:1;fill:#ff00ff;fill-opacity:1;stroke:#000000;stroke-width:0.5;stroke-dasharray:none;stroke-opacity:1"
             d="m -121.22775,155.91013 2.95638,-4.45677"
             id="path49" />
          <path
             style="opacity:1;fill:#ff00ff;fill-opacity:1;stroke:#000000;stroke-width:0.5;stroke-dasharray:none;stroke-opacity:1"
             d="m -131.66535,153.85361 -1.62553,-4.76655"
             id="path50" />
          <path
             style="opacity:1;fill:#ff00ff;fill-opacity:1;stroke:#000000;stroke-width:0.5;stroke-dasharray:none;stroke-opacity:1"
             d="m -125.27249,153.85361 1.62553,-4.76655"
             id="path51" />
          <path
             style="opacity:1;fill:#ff00ff;fill-opacity:1;stroke:#000000;stroke-width:0.5;stroke-dasharray:none;stroke-opacity:1"
             d="m -128.31253,148.34742 v 4.8969"
             id="path52" />
          <rect
             style="opacity:1;fill:url(#pattern103);fill-opacity:1;stroke:#000000;stroke-width:0.5;stroke-dasharray:none;stroke-opacity:1"
             id="rect74"
             width="27.744493"
             height="27.557833"
             x="-139.64159"
             y="113.04478" />
          <rect
             style="opacity:1;fill:#000000;fill-opacity:1;stroke:#000000;stroke-width:0.5;stroke-dasharray:none;stroke-opacity:1"
             id="rect94"
             width="4.9649687"
             height="7.8435168"
             x="-135.18806"
             y="118.98018" />
          <rect
             style="opacity:1;fill:#000000;fill-opacity:1;stroke:#000000;stroke-width:0.5;stroke-dasharray:none;stroke-opacity:1"
             id="rect98"
             width="4.9649687"
             height="7.8435168"
             x="-121.31558"
             y="118.98018" />
          <path
             id="path103"
             style="opacity:1;fill:#ffffff;fill-opacity:1;stroke:#000000;stroke-width:0.5;stroke-dasharray:none;stroke-opacity:1"
             d="m -128.70488,99.747926 v 7.271494 h -5.61133 l -0.53711,-6.10157 -7.85742,0.0488 0.86133,12.07813 h 16.08007 16.08008 l 0.86133,-12.07813 -7.85742,-0.0488 -0.53516,6.10157 h -5.61328 v -7.271494 h -2.93555 z" />
        </g>
        <path
           id="path105"
           style="fill:none;fill-opacity:1;fill-rule:evenodd;stroke:#000000;stroke-width:3;stroke-linecap:round;stroke-linejoin:miter;stroke-dasharray:none;stroke-opacity:1"
           d="M 28.16824,36.856865 V 159.67132 a 94,93.186195 0 0 0 94,93.18555 94,93.186195 0 0 0 94.00001,-93.18555 V 36.856865 Z" />
      </g>
    </g>
  </g>
</svg>
