<?xml version="1.0" encoding="UTF-8" standalone="no"?>
<!-- Created with Inkscape (http://www.inkscape.org/) -->

<svg
   xmlns:dc="http://purl.org/dc/elements/1.1/"
   xmlns:cc="http://creativecommons.org/ns#"
   xmlns:rdf="http://www.w3.org/1999/02/22-rdf-syntax-ns#"
   xmlns:svg="http://www.w3.org/2000/svg"
   xmlns="http://www.w3.org/2000/svg"
   xmlns:xlink="http://www.w3.org/1999/xlink"
   xmlns:sodipodi="http://sodipodi.sourceforge.net/DTD/sodipodi-0.dtd"
   xmlns:inkscape="http://www.inkscape.org/namespaces/inkscape"
   version="1.0"
   width="1000"
   height="1000"
   id="svg5592"
   inkscape:version="0.47 r22583"
   sodipodi:docname="Flag_of_the_Governor_of_the_Pitcairn_Islands.svg">
  <metadata
     id="metadata15">
    <rdf:RDF>
      <cc:Work
         rdf:about="">
        <dc:format>image/svg+xml</dc:format>
        <dc:type
           rdf:resource="http://purl.org/dc/dcmitype/StillImage" />
      </cc:Work>
    </rdf:RDF>
  </metadata>
  <sodipodi:namedview
     pagecolor="#ffffff"
     bordercolor="#666666"
     borderopacity="1"
     objecttolerance="10"
     gridtolerance="10"
     guidetolerance="10"
     inkscape:pageopacity="0"
     inkscape:pageshadow="2"
     inkscape:window-width="1280"
     inkscape:window-height="1004"
     id="namedview13"
     showgrid="false"
     inkscape:zoom="0.3337544"
     inkscape:cx="657.80064"
     inkscape:cy="933.42128"
     inkscape:window-x="-8"
     inkscape:window-y="-8"
     inkscape:window-maximized="1"
     inkscape:current-layer="layer1" />
  <defs
     id="defs5594">
    <inkscape:perspective
       sodipodi:type="inkscape:persp3d"
       inkscape:vp_x="0 : 500 : 1"
       inkscape:vp_y="0 : 1000 : 0"
       inkscape:vp_z="1000 : 500 : 1"
       inkscape:persp3d-origin="500 : 333.33333 : 1"
       id="perspective17" />
  </defs>
  <g
     id="layer1">
    <rect
       width="1000.0006"
       height="1000.0006"
       x="-1.6613518e-006"
       y="-1.6613519e-006"
       style="fill:#006847;fill-opacity:1;fill-rule:evenodd;stroke:none;stroke-width:3.43214273;stroke-linecap:butt;stroke-linejoin:round;stroke-miterlimit:4;stroke-dasharray:none;stroke-dashoffset:0;stroke-opacity:1"
       id="rect5708" />
    <path
       d="M 499.99995,663.88258 C 493.85645,648.93751 488.1455,632.57324 477.17644,627.88251 C 465.93508,613.12732 460.62663,603.41512 455.52939,593.88244 L 455.52939,622.8825 C 448.71807,600.32836 440.81232,579.63478 439.99998,546.88234 C 448.40684,556.54903 460.9817,566.21571 474.35291,575.8824 L 462.58821,581.88241 C 470.5882,596.46059 478.5882,606.95745 486.5882,610.88247 C 489.72545,612.88248 492.23525,609.54914 494.1176,600.88245 L 495.52937,410.88207 L 477.17644,410.88207 L 477.17644,391.88203 L 495.52937,391.88203 L 495.52937,362.88198 L 504.47054,362.88198 L 504.47054,391.88203 L 522.82347,391.88203 L 522.82347,410.88207 L 504.47054,410.88207 L 505.8823,600.88245 C 507.76466,609.54914 510.27446,612.88248 513.41171,610.88247 C 521.41171,606.95745 529.4117,596.46059 537.4117,581.88241 L 525.647,575.8824 C 539.01821,566.21571 551.59307,556.54903 559.99992,546.88234 C 559.18759,579.63478 551.28184,600.32836 544.47052,622.8825 L 544.47052,593.88244 C 539.37328,603.41512 534.06483,613.12732 522.82347,627.88251 C 511.85441,632.57324 506.14346,648.93751 499.99995,663.88258 z "
       style="fill:#ffffff;fill-opacity:1;fill-rule:evenodd;stroke:none;stroke-width:1px;stroke-linecap:butt;stroke-linejoin:miter;stroke-opacity:1"
       id="path5676" />
    <path
       d="M 510.83033 355.59567 A 16.245487 16.245487 0 1 1  478.33935,355.59567 A 16.245487 16.245487 0 1 1  510.83033 355.59567 z"
       transform="matrix(0.502882,0,0,1.068627,251.2821,-21.52139)"
       style="fill:#006847;fill-opacity:1;fill-rule:evenodd;stroke:#ffffff;stroke-width:13.64123820999999900;stroke-linecap:butt;stroke-linejoin:round;stroke-miterlimit:4;stroke-dasharray:none;stroke-dashoffset:0;stroke-opacity:1"
       id="path5694" />
    <path
       d="M 337.5,1000 L 1000,337.5 L 1000,1000 L 337.5,1000 z "
       style="fill:#ce1126;fill-opacity:1;fill-rule:evenodd;stroke:none;stroke-width:1px;stroke-linecap:butt;stroke-linejoin:miter;stroke-opacity:1"
       id="path5764" />
    <path
       d="M 662.5,0 L 0,662.5 L 0,0 L 662.5,0 z "
       style="fill:#ffffff;fill-opacity:1;fill-rule:evenodd;stroke:none;stroke-width:1px;stroke-linecap:butt;stroke-linejoin:miter;stroke-opacity:1"
       id="path5762" />
    <path
       d="M 34.29603,519.85558 L 18.063067,474.20787 L -25.693175,495.00724 L -4.8938085,451.251 L -50.541519,435.01804 L -4.8938088,418.78507 L -25.693178,375.02883 L 18.063066,395.8282 L 34.296026,350.18049 L 50.52899,395.8282 L 94.285232,375.02883 L 73.485865,418.78507 L 119.13358,435.01803 L 73.485865,451.251 L 94.285235,495.00724 L 50.52899,474.20787 L 34.29603,519.85558 z "
       transform="matrix(0.589362,0,0,0.589362,129.7873,593.6169)"
       style="opacity:1;fill:#d9b45b;fill-opacity:1;fill-rule:evenodd;stroke:none;stroke-width:0.69999999;stroke-miterlimit:4;stroke-dasharray:none;stroke-opacity:1"
       id="path3071" />
    <use
       transform="translate(0,-700)"
       id="use5696"
       x="0"
       y="0"
       width="1000"
       height="1000"
       xlink:href="#path3071" />
    <use
       transform="translate(700,0)"
       id="use5698"
       x="0"
       y="0"
       width="1000"
       height="1000"
       xlink:href="#path3071" />
  </g>
</svg>
