<?xml version="1.0" encoding="UTF-8" standalone="no"?>
<!-- Created with Inkscape (http://www.inkscape.org/) -->

<svg
   version="1.1"
   id="svg2"
   width="324"
   height="216"
   viewBox="0 0 324 216"
   sodipodi:docname="gg-lihou.svg"
   inkscape:version="1.1.1 (3bf5ae0d25, 2021-09-20)"
   xmlns:inkscape="http://www.inkscape.org/namespaces/inkscape"
   xmlns:sodipodi="http://sodipodi.sourceforge.net/DTD/sodipodi-0.dtd"
   xmlns="http://www.w3.org/2000/svg"
   xmlns:svg="http://www.w3.org/2000/svg">
  <defs
     id="defs6" />
  <sodipodi:namedview
     id="namedview4"
     pagecolor="#ffffff"
     bordercolor="#666666"
     borderopacity="1.0"
     inkscape:pageshadow="2"
     inkscape:pageopacity="0.0"
     inkscape:pagecheckerboard="0"
     showgrid="false"
     inkscape:snap-page="true"
     inkscape:snap-global="true"
     inkscape:zoom="1.6481481"
     inkscape:cx="361.31461"
     inkscape:cy="108"
     inkscape:window-width="3824"
     inkscape:window-height="1040"
     inkscape:window-x="-9"
     inkscape:window-y="0"
     inkscape:window-maximized="0"
     inkscape:current-layer="text60245" />
  <g
     inkscape:groupmode="layer"
     inkscape:label="Image"
     id="g8">
    <rect
       style="fill:#ffffff;fill-rule:evenodd"
       id="rect56370"
       width="324"
       height="216"
       x="0"
       y="0" />
    <rect
       style="fill:#267f00;fill-opacity:1;fill-rule:evenodd;stroke-width:0.816496"
       id="rect56576"
       width="216"
       height="216"
       x="108"
       y="0" />
    <path
       id="path9903"
       style="font-variation-settings:normal;opacity:1;fill:#000000;fill-opacity:1;stroke:#000000;stroke-width:0;stroke-linecap:butt;stroke-linejoin:miter;stroke-miterlimit:4;stroke-dasharray:none;stroke-dashoffset:0;stroke-opacity:1;stop-color:#000000;stop-opacity:1"
       d="m 41.257812,23.587891 c -6.213379,8.017264 -1.633447,17.42981 2.730469,27.378906 -2.379421,4.40778 -5.186827,8.482717 -5.6875,13.576172 l 9.935547,-13.804688 9.63086,-0.07617 c -7.241349,6.557126 -13.073726,11.046526 -14.560547,21.009766 0,0 -3.602742,2.148781 -4.892579,3.943359 -0.602057,0.837656 -0.62593,2.009999 -1.175781,2.882813 -1.649773,2.618793 -7.052734,6.294922 -7.052734,6.294922 2.348245,-0.502842 4.696388,-1.005727 7.033203,-1.560547 2.187237,-0.519306 4.063317,-1.757965 6.380859,-1.449219 0.865551,0.11531 1.563957,0.820046 2.414063,1.019531 2.266742,0.53191 6.970703,0.429688 6.970703,0.429688 l -0.160156,2.037109 c -4.490249,0.748375 -7.719383,2.070532 -11.261719,5.416016 -3.433919,0.659035 -6.848249,1.355299 -10.349609,1.556641 l 0.160156,1.394531 8.580078,4.396484 c 0.160644,1.713536 0.547268,2.107495 1.962891,3.152345 2.606356,1.92369 5.092454,4.00259 6.99414,6.66211 2.943256,7.12077 6.321752,12.52773 11.369141,19.03906 l -9.388672,1.9707 c -3.649252,-5.24579 -6.788375,-10.68177 -9.382813,-16.55859 2.067696,9.05104 5.343792,17.86729 6.490235,27.08203 0.898943,7.22542 -0.623689,14.54347 -0.537109,21.82812 -0.906021,2.34742 -1.474571,3.33432 -0.107422,5.63086 0.05384,2.71911 -0.248424,5.39455 1.019531,7.88282 -0.715166,2.52411 -1.292676,3.33738 0.804687,5.20312 -0.730197,2.87515 -1.105402,3.70146 1.179688,5.89844 -1.294526,2.3401 -1.704862,2.6009 0.537109,4.39648 -0.194792,1.51938 -0.480656,2.20254 0.75,3.27149 4.128219,-5.26704 7.800214,-10.68826 10.886719,-16.67774 0.976722,-1.89537 1.761619,-3.71761 1.824219,-5.89843 6.130907,-14.04176 11.424864,-28.20997 13.460937,-43.49414 C 72.931693,116.067 66.221565,109.85196 66.5,94.601562 c 0.04306,-2.35852 0.779583,-3.153582 2.204782,-1.434145 0.881352,1.06331 1.760871,2.882675 2.461234,3.953677 4.823141,-2.572342 9.406157,-5.309862 14.855468,-6.328125 0.842826,-0.157491 1.484422,-0.0057 1.84961,-0.857422 L 88.886719,87.75 c -0.75384,-4.334582 -4.296326,-5.909996 -9.09961,-6.294922 -11.895103,-0.95325 -15.381057,-2.422811 -15.017578,-14.257812 0.144125,-4.692761 3.405143,-6.929663 6.597657,-10.619141 1.457196,-1.684032 2.246635,-3.561507 0.759765,-5.384766 C 62.608308,39.521215 55.002608,31.754276 41.257812,23.587891 Z"
       sodipodi:nodetypes="ccccccsscsssccccccsccccscccccccsccsscsccssssc" />
    <path
       style="font-variation-settings:normal;opacity:1;fill:#000000;fill-opacity:1;stroke:none;stroke-width:0.5;stroke-linecap:butt;stroke-linejoin:miter;stroke-miterlimit:4;stroke-dasharray:none;stroke-dashoffset:0;stroke-opacity:1;stop-color:#000000;stop-opacity:1"
       d="M 16.761236,90.859551 C 12.017802,90.565704 5.0276696,90.141914 5.0814607,94.120786 c 0.100647,7.444754 8.6216323,1.593791 11.9073033,1.516855 z"
       id="path1003"
       sodipodi:nodetypes="cscc" />
    <path
       style="font-variation-settings:normal;opacity:1;fill:#ffffff;fill-opacity:1;stroke:#ffffff;stroke-width:1.4;stroke-linecap:butt;stroke-linejoin:miter;stroke-miterlimit:4;stroke-dasharray:none;stroke-dashoffset:0;stroke-opacity:1;stop-color:#000000;stop-opacity:1"
       d="M 57.436622,50.321629 46.818016,49.55309"
       id="path17473"
       sodipodi:nodetypes="cc" />
    <path
       style="font-variation-settings:normal;opacity:1;fill:#ffffff;fill-opacity:1;stroke:#ffffff;stroke-width:1.3;stroke-linecap:butt;stroke-linejoin:miter;stroke-miterlimit:4;stroke-dasharray:none;stroke-dashoffset:0;stroke-opacity:1;stop-color:#000000;stop-opacity:1"
       d="M 55.899239,49.238939 46.920347,47.355884"
       id="path17475"
       sodipodi:nodetypes="cc" />
    <path
       style="font-variation-settings:normal;opacity:1;fill:#ffffff;fill-opacity:1;stroke:#ffffff;stroke-width:1.3;stroke-linecap:butt;stroke-linejoin:miter;stroke-miterlimit:4;stroke-dasharray:none;stroke-dashoffset:0;stroke-opacity:1;stop-color:#000000;stop-opacity:1"
       d="M 55.261083,47.585645 45.876489,45.580742"
       id="path17477"
       sodipodi:nodetypes="cc" />
    <path
       style="font-variation-settings:normal;opacity:1;fill:#ffffff;fill-opacity:1;stroke:#ffffff;stroke-width:1;stroke-linecap:butt;stroke-linejoin:miter;stroke-miterlimit:4;stroke-dasharray:none;stroke-dashoffset:0;stroke-opacity:1;stop-color:#000000;stop-opacity:1"
       d="M 51.269214,44.72649 45.69181,44.136572"
       id="path17479" />
    <path
       style="font-variation-settings:normal;opacity:1;fill:#ffffff;fill-opacity:1;stroke:#ffffff;stroke-width:0.9;stroke-linecap:butt;stroke-linejoin:miter;stroke-miterlimit:4;stroke-dasharray:none;stroke-dashoffset:0;stroke-opacity:1;stop-color:#000000;stop-opacity:1"
       d="M 49.874863,42.956737 44.994635,42.313191"
       id="path17481" />
    <path
       style="font-variation-settings:normal;opacity:1;fill:#ffffff;fill-opacity:1;stroke:#ffffff;stroke-width:0.5;stroke-linecap:butt;stroke-linejoin:miter;stroke-miterlimit:4;stroke-dasharray:none;stroke-dashoffset:0;stroke-opacity:1;stop-color:#000000;stop-opacity:1"
       d="m 49.177688,39.846262 -6.060064,-1.98427"
       id="path17483"
       sodipodi:nodetypes="cc" />
    <path
       style="font-variation-settings:normal;opacity:1;fill:#ffffff;fill-opacity:1;stroke:#ffffff;stroke-width:0.4;stroke-linecap:butt;stroke-linejoin:miter;stroke-miterlimit:4;stroke-dasharray:none;stroke-dashoffset:0;stroke-opacity:1;stop-color:#000000;stop-opacity:1"
       d="m 48.426883,37.915622 -5.309259,-1.93064"
       id="path17651"
       sodipodi:nodetypes="cc" />
    <path
       style="font-variation-settings:normal;opacity:1;fill:#ffffff;fill-opacity:1;stroke:#ffffff;stroke-width:0.2;stroke-linecap:butt;stroke-linejoin:miter;stroke-miterlimit:4;stroke-dasharray:none;stroke-dashoffset:0;stroke-opacity:1;stop-color:#000000;stop-opacity:1"
       d="m 45.20915,29.335 4.665713,3.539507"
       id="path17653" />
    <path
       style="font-variation-settings:normal;opacity:1;fill:#ffffff;fill-opacity:1;stroke:#ffffff;stroke-width:0.3;stroke-linecap:butt;stroke-linejoin:miter;stroke-miterlimit:4;stroke-dasharray:none;stroke-dashoffset:0;stroke-opacity:1;stop-color:#000000;stop-opacity:1"
       d="m 43.010366,30.568465 5.416517,3.539506"
       id="path17655" />
    <path
       style="font-variation-settings:normal;opacity:1;fill:#ffffff;fill-opacity:1;stroke:#ffffff;stroke-width:0.4;stroke-linecap:butt;stroke-linejoin:miter;stroke-miterlimit:4;stroke-dasharray:none;stroke-dashoffset:0;stroke-opacity:1;stop-color:#000000;stop-opacity:1"
       d="m 43.332139,33.410795 4.558455,1.984269"
       id="path17657" />
    <path
       style="font-variation-settings:normal;opacity:1;fill:none;fill-opacity:1;stroke:#fefefd;stroke-width:0.6;stroke-linecap:butt;stroke-linejoin:miter;stroke-miterlimit:4;stroke-dasharray:none;stroke-dashoffset:0;stroke-opacity:1;stop-color:#000000;stop-opacity:1"
       d="m 49.767605,41.616015 -6.22095,-1.179836"
       id="path19771" />
    <ellipse
       style="fill:#e35217;fill-opacity:1;stroke:none;stroke-width:0.177907;stroke-linecap:round;stroke-linejoin:miter;stroke-miterlimit:4;stroke-dasharray:none;stroke-opacity:1;paint-order:fill markers stroke"
       id="path22717"
       cx="-52.903599"
       cy="108.60087"
       rx="0.60718304"
       ry="0.94450688"
       transform="rotate(-70.629079)" />
    <ellipse
       style="fill:#000000;fill-opacity:1;stroke:none;stroke-width:0.0601597;stroke-linecap:round;stroke-linejoin:miter;stroke-miterlimit:4;stroke-dasharray:none;stroke-opacity:1;paint-order:fill markers stroke"
       id="ellipse44741"
       cx="-52.903599"
       cy="108.60087"
       rx="0.20532076"
       ry="0.31938779"
       transform="rotate(-70.629079)" />
    <path
       style="font-variation-settings:normal;fill:#e35217;fill-opacity:1;stroke:#000000;stroke-width:0;stroke-linecap:butt;stroke-linejoin:miter;stroke-miterlimit:4;stroke-dasharray:none;stroke-dashoffset:0;stroke-opacity:1;stop-color:#000000"
       d="m 88.887641,87.75 c -0.617819,1.026439 -1.510711,1.453775 -2.518321,2.024754 4.13211,0.31312 9.555391,1.65586 13.471495,2.89596 C 96.779349,90.917841 92.034648,89.340516 88.887641,87.75 Z"
       id="path44855"
       sodipodi:nodetypes="cccc" />
    <path
       style="font-variation-settings:normal;opacity:1;fill:#fefefd;fill-opacity:1;stroke:none;stroke-width:1;stroke-linecap:butt;stroke-linejoin:miter;stroke-miterlimit:4;stroke-dasharray:none;stroke-dashoffset:0;stroke-opacity:1;stop-color:#000000;stop-opacity:1"
       d="m 60.279297,126.88672 c 0.486992,0.61387 1.201474,1.33611 1.822847,1.92997 1.012675,1.31191 0.143613,1.8138 -1.086208,2.49568 l -8.459629,4.69048 -1.665682,-7.14543 2.094714,-4.00938 c 0,0 5.724964,0.0609 7.293958,2.03868 z"
       id="path50927"
       sodipodi:nodetypes="scscccs" />
    <path
       style="font-variation-settings:normal;opacity:1;fill:none;fill-opacity:1;stroke:#000000;stroke-width:0.4;stroke-linecap:butt;stroke-linejoin:miter;stroke-miterlimit:4;stroke-dasharray:none;stroke-dashoffset:0;stroke-opacity:1;stop-color:#000000;stop-opacity:1"
       d="m 49.297753,128.25 3.716292,1.21348"
       id="path52759" />
    <path
       style="font-variation-settings:normal;opacity:1;fill:none;fill-opacity:1;stroke:#000000;stroke-width:0.3;stroke-linecap:butt;stroke-linejoin:miter;stroke-miterlimit:4;stroke-dasharray:none;stroke-dashoffset:0;stroke-opacity:1;stop-color:#000000;stop-opacity:1"
       d="m 50.359551,131.28371 4.626404,0.30337"
       id="path52761"
       sodipodi:nodetypes="cc" />
    <path
       style="font-variation-settings:normal;opacity:1;fill:none;fill-opacity:1;stroke:#000000;stroke-width:0.3;stroke-linecap:butt;stroke-linejoin:miter;stroke-miterlimit:4;stroke-dasharray:none;stroke-dashoffset:0;stroke-opacity:1;stop-color:#000000;stop-opacity:1"
       d="m 49.93052,133.77128 3.178424,-0.12566"
       id="path52820"
       sodipodi:nodetypes="cc" />
    <path
       style="font-variation-settings:normal;opacity:1;fill:none;fill-opacity:1;stroke:#fefefd;stroke-width:1;stroke-linecap:butt;stroke-linejoin:miter;stroke-miterlimit:4;stroke-dasharray:none;stroke-dashoffset:0;stroke-opacity:1;stop-color:#000000;stop-opacity:1"
       d="m 57.488764,134.54494 -5.839887,3.18539"
       id="path53186"
       sodipodi:nodetypes="cc" />
    <path
       style="font-variation-settings:normal;opacity:1;fill:none;fill-opacity:1;stroke:#fefefd;stroke-width:1.4;stroke-linecap:butt;stroke-linejoin:miter;stroke-miterlimit:4;stroke-dasharray:none;stroke-dashoffset:0;stroke-opacity:1;stop-color:#000000;stop-opacity:1"
       d="m 57.64045,136.74438 -5.91573,4.01966"
       id="path54135"
       sodipodi:nodetypes="cc" />
    <path
       style="font-variation-settings:normal;opacity:1;fill:none;fill-opacity:1;stroke:#fefefd;stroke-width:1.6;stroke-linecap:butt;stroke-linejoin:miter;stroke-miterlimit:4;stroke-dasharray:none;stroke-dashoffset:0;stroke-opacity:1;stop-color:#000000;stop-opacity:1"
       d="m 56.882023,140.38483 -6.143258,4.55056"
       id="path54312"
       sodipodi:nodetypes="cc" />
    <path
       style="font-variation-settings:normal;opacity:1;fill:none;fill-opacity:1;stroke:#fefefd;stroke-width:1.2;stroke-linecap:butt;stroke-linejoin:miter;stroke-miterlimit:4;stroke-dasharray:none;stroke-dashoffset:0;stroke-opacity:1;stop-color:#000000;stop-opacity:1"
       d="m 56.882023,143.72191 -4.323033,3.10955"
       id="path54580"
       sodipodi:nodetypes="cc" />
    <path
       style="font-variation-settings:normal;opacity:1;fill:none;fill-opacity:1;stroke:#fefefd;stroke-width:0.8;stroke-linecap:butt;stroke-linejoin:miter;stroke-miterlimit:4;stroke-dasharray:none;stroke-dashoffset:0;stroke-opacity:1;stop-color:#000000;stop-opacity:1"
       d="m 57.564607,146.45225 -6.825842,6.37078"
       id="path54734"
       sodipodi:nodetypes="cc" />
    <path
       style="font-variation-settings:normal;opacity:1;fill:none;fill-opacity:1;stroke:#fefefd;stroke-width:0.9;stroke-linecap:butt;stroke-linejoin:miter;stroke-miterlimit:4;stroke-dasharray:none;stroke-dashoffset:0;stroke-opacity:1;stop-color:#000000;stop-opacity:1"
       d="m 57.564607,149.48596 -5.688202,8.49437"
       id="path55002"
       sodipodi:nodetypes="cc" />
    <path
       style="font-variation-settings:normal;opacity:1;fill:none;fill-opacity:1;stroke:#fefefd;stroke-width:0.8;stroke-linecap:butt;stroke-linejoin:miter;stroke-miterlimit:4;stroke-dasharray:none;stroke-dashoffset:0;stroke-opacity:1;stop-color:#000000;stop-opacity:1"
       d="m 58.171349,157.3736 -6.598315,8.03931"
       id="path55156"
       sodipodi:nodetypes="cc" />
    <path
       style="font-variation-settings:normal;opacity:1;fill:none;fill-opacity:1;stroke:#fefefd;stroke-width:0.4;stroke-linecap:butt;stroke-linejoin:miter;stroke-miterlimit:4;stroke-dasharray:none;stroke-dashoffset:0;stroke-opacity:1;stop-color:#000000;stop-opacity:1"
       d="m 58.398877,164.80618 -6.977528,9.17695"
       id="path55234"
       sodipodi:nodetypes="cc" />
    <path
       style="font-variation-settings:normal;opacity:1;fill:none;fill-opacity:1;stroke:#fefefd;stroke-width:0.4;stroke-linecap:butt;stroke-linejoin:miter;stroke-miterlimit:4;stroke-dasharray:none;stroke-dashoffset:0;stroke-opacity:1;stop-color:#000000;stop-opacity:1"
       d="m 59.61236,171.02528 -7.129213,12.58987"
       id="path55388"
       sodipodi:nodetypes="cc" />
    <g
       aria-label="THE LIHOU"
       id="text60245"
       style="font-size:29.3333px;line-height:1.25;font-family:'Bell MT';-inkscape-font-specification:'Bell MT, Normal';letter-spacing:0.28px;word-spacing:2px;fill:#ffffff">
      <path
         d="m 138.38592,81.955394 q -1.32031,-0.06771 -1.86198,-0.06771 -3.65625,0 -5.29818,1.523439 -1.64193,1.523439 -1.91277,2.708336 -0.0846,0.423177 -0.45703,0.423177 -0.16927,0 -0.32161,-0.152344 0.0846,-2.014325 0.66016,-5.433598 0.8125,-0.01693 1.03255,-0.01693 1.32031,0 3.53776,0.135417 2.38672,0.135417 7.31251,0.135417 5.04427,0 6.56771,-0.11849 1.38802,-0.135416 3.8086,-0.135416 0.20313,1.218751 0.27083,2.539064 0.10157,1.506512 0.20313,2.115888 0.0169,0.135416 0.0169,0.28776 0,0.406251 -0.35547,0.406251 -0.22006,0 -0.3724,-0.135417 -0.13542,-0.152344 -0.64323,-0.964845 -0.88021,-1.371095 -1.82813,-2.065106 -0.94791,-0.710938 -2.11588,-0.914063 -1.16797,-0.203125 -4.72266,-0.270834 -0.20313,2.555992 -0.20313,5.839849 0,10.867198 0.45703,12.813817 0.47396,1.94661 3.33464,1.94661 0.69401,0 0.69401,0.28776 0,0.33855 -0.66015,0.33855 h -10.41017 q -0.40625,0 -0.40625,-0.32162 0,-0.32161 0.79557,-0.32161 1.33724,0 2.14974,-0.7448 0.82943,-0.76172 0.94792,-2.048175 0.13542,-1.286459 0.13542,-7.430996 0,-5.247401 -0.35547,-10.359385 z"
         style="font-size:34.6667px"
         id="path107946" />
      <path
         d="m 168.76748,93.356467 0.1289,-3.981766 q 0,-2.621091 -0.52994,-3.437497 -0.51563,-0.830728 -1.7474,-0.830728 -0.71614,0 -0.71614,-0.300781 0,-0.272135 0.42968,-0.272135 l 4.16797,0.143229 3.53775,-0.07161 q 0.41537,0 0.41537,0.257812 0,0.229166 -0.27214,0.229166 -1.08854,0 -1.6901,0.315104 -0.60156,0.315104 -0.80208,1.074218 -0.1862,0.759113 -0.3151,4.339838 -0.11459,3.566403 -0.11459,5.18489 l -0.043,3.523434 q 0,1.647133 0.31511,2.148433 0.3151,0.48698 0.93099,0.77344 0.6302,0.27213 1.28906,0.34375 0.45833,0.0573 0.45833,0.27213 0,0.22917 -0.38672,0.22917 l -4.41145,-0.11458 -2.87891,0.10026 q -0.5013,0 -0.5013,-0.25782 0,-0.21484 0.35808,-0.22916 1.14583,-0.0716 1.48958,-0.30078 0.35807,-0.22917 0.57291,-0.8737 0.21485,-0.64453 0.24349,-2.177081 l 0.0716,-5.199212 q -1.23177,-0.08594 -2.50651,-0.08594 -5.54296,0 -7.03254,0.200521 -0.11459,2.749997 -0.11459,4.526036 0,1.990884 0.0859,2.449214 0.0859,0.45833 0.52995,0.85938 0.45833,0.38671 1.24609,0.54427 0.48698,0.10026 0.48698,0.3151 0,0.25781 -0.31511,0.25781 -0.10026,0 -0.28645,-0.0286 -0.77344,-0.0859 -3.20833,-0.0859 -2.64974,0 -3.2513,0.11458 -0.12891,0.0143 -0.25781,0.0143 -0.32943,0 -0.32943,-0.21485 0,-0.24349 0.44401,-0.30078 1.10286,-0.12891 1.57552,-0.61588 0.47265,-0.48698 0.64453,-3.652343 0.1862,-3.165361 0.1862,-7.691398 0,-3.680985 -0.34375,-4.640619 -0.34375,-0.959635 -1.67578,-1.059895 -0.30078,-0.02865 -0.30078,-0.229166 0,-0.286458 0.61588,-0.286458 l 5.77213,-0.08594 q 0.61589,0 0.73047,0.04297 0.1289,0.02865 0.1289,0.229166 0,0.229167 -0.37239,0.272135 -1.41797,0.143229 -1.73307,0.515625 -0.30078,0.372395 -0.30078,4.640619 0,0.44401 0.043,3.10807 1.46093,0.114583 3.43749,0.114583 2.54948,0 6.10156,-0.114583 z"
         id="path107948" />
      <path
         d="m 191.90683,84.605175 q 0.41536,1.604165 0.8164,4.49739 -0.0716,0.114584 -0.15755,0.114584 -0.10026,0 -0.21484,-0.114584 -0.98828,-1.589842 -1.89063,-2.42057 -0.90234,-0.830728 -1.819,-1.174478 -0.90235,-0.358072 -3.1224,-0.358072 -2.09114,0 -3.30859,0.243489 -0.11458,0.143229 -0.11458,0.529948 0,0.10026 -0.0286,0.358072 -0.14323,1.145832 -0.14323,6.216139 0,0.214843 0.0286,0.601562 1.08854,0.04297 1.48958,0.04297 1.80469,0 2.60677,-0.529947 0.81641,-0.54427 1.41797,-2.32031 0.10026,-0.300781 0.28646,-0.300781 0.27213,0 0.27213,0.415364 l -0.0573,0.572916 q -0.11458,1.131509 -0.11458,2.334633 0,1.947915 0.0716,3.509111 0,0.486978 -0.27213,0.486978 -0.20052,0 -0.27214,-0.343749 -0.30078,-1.690103 -1.26041,-2.434893 -0.95964,-0.744791 -4.16797,-0.744791 -0.043,1.045571 -0.043,3.380204 0,3.022132 0.21485,3.838542 0.21484,0.8164 1.03125,1.30338 0.8164,0.47266 2.76432,0.47266 5.5716,0 7.19009,-3.838542 0.20052,-0.472656 0.41537,-0.472656 0.22916,0 0.22916,0.315104 0,0.171875 -0.0716,0.372395 -0.0859,0.272135 -0.41537,2.033849 -0.0716,0.3724 -0.54427,2.23438 l -6.00129,-0.0143 q -1.28906,0 -3.79557,-0.11458 -2.49219,-0.10026 -4.42578,-0.11458 -1.91927,0 -2.0052,-0.0716 -0.0859,-0.0716 -0.0859,-0.15755 0,-0.28646 0.47266,-0.28646 1.58984,0 2.09114,-0.84505 0.5013,-0.84505 0.5013,-4.110672 l -0.0143,-2.936194 0.043,-2.749997 q 0,-0.830728 -0.10026,-3.136715 -0.0859,-2.32031 -0.17188,-2.649737 -0.0716,-0.329426 -0.44401,-0.64453 -0.35807,-0.329427 -1.60416,-0.658854 -0.3724,-0.10026 -0.3724,-0.315103 0,-0.257813 0.5013,-0.257813 l 2.92187,0.157552 q 1.54688,0.07161 7.60546,0.07161 3.98177,0 4.06771,0.01432 z"
         id="path107950" />
      <path
         d="m 224.58272,103.26661 q -0.82943,0.0339 -0.94792,0.0339 -0.6263,0 -2.26823,-0.0677 -1.64193,-0.0508 -6.82162,-0.0508 h -4.29949 q -0.23698,0 -1.72656,0.0677 -1.48959,0.0846 -1.8112,0.0846 -1.28646,0 -1.28646,-0.33854 0,-0.27084 0.50781,-0.28776 1.64193,-0.10157 2.28516,-0.69401 0.64323,-0.60938 0.88021,-1.72657 0.23698,-1.134113 0.23698,-6.093753 l 0.0169,-6.059902 q 0,-2.945315 -0.27084,-4.113285 -0.2539,-1.167969 -1.08333,-1.777345 -0.8125,-0.626303 -1.84505,-0.710938 -0.54167,-0.05078 -0.54167,-0.355469 0,-0.304688 0.49088,-0.304688 0.11849,0 0.44011,0.01693 2.69141,0.152344 6.29688,0.152344 l 2.97917,-0.05078 q 0.45703,0 0.45703,0.338542 0,0.304687 -0.49089,0.304687 -1.20182,0 -2.01432,0.473959 -0.79557,0.473959 -1.06641,1.100262 -0.2539,0.609375 -0.2539,2.403648 l -0.13542,8.006517 0.0339,4.468755 q 0,2.08203 0.16927,2.70834 0.1862,0.6263 0.7448,1.13411 0.55859,0.49089 2.03125,0.49089 0.11849,0 3.02995,-0.10157 2.31901,-0.32161 4.16407,-2.26823 1.84505,-1.946613 2.45442,-3.486979 0.1862,-0.440105 0.45704,-0.440105 0.28776,0 0.28776,0.40625 0,0.473959 -0.49089,3.402347 -0.49088,2.911457 -0.60937,3.334637 z"
         style="font-size:34.6667px"
         id="path107952" />
      <path
         d="m 228.27547,84.290071 2.60677,0.05729 3.99609,-0.05729 q 0.71615,0 0.71615,0.286458 0,0.214843 -0.38672,0.272135 -1.58984,0.200521 -1.99088,1.145832 -0.38672,0.945311 -0.38672,6.989575 0,2.22005 0.11458,4.998693 0.11458,2.778646 0.25781,3.322916 0.14323,0.54427 0.54427,0.88802 0.40104,0.34375 1.48958,0.48697 0.35808,0.043 0.35808,0.27214 0,0.25781 -0.32943,0.25781 l -3.55208,-0.0286 -3.02213,0.043 q -0.5013,0 -0.5013,-0.28646 0,-0.30078 0.40104,-0.30078 1.33203,-0.0286 1.56119,-0.88802 0.22917,-0.85938 0.22917,-5.485674 0,-4.468745 -0.0859,-7.233065 -0.0716,-2.76432 -0.45833,-3.380205 -0.38672,-0.615884 -1.46093,-0.773436 -0.40105,-0.07161 -0.40105,-0.329427 0,-0.257812 0.30078,-0.257812 z"
         id="path107954" />
      <path
         d="m 253.36274,93.356467 0.12891,-3.981766 q 0,-2.621091 -0.52995,-3.437497 -0.51562,-0.830728 -1.74739,-0.830728 -0.71615,0 -0.71615,-0.300781 0,-0.272135 0.42969,-0.272135 l 4.16796,0.143229 3.53776,-0.07161 q 0.41536,0 0.41536,0.257812 0,0.229166 -0.27213,0.229166 -1.08854,0 -1.6901,0.315104 -0.60157,0.315104 -0.80209,1.074218 -0.18619,0.759113 -0.3151,4.339838 -0.11458,3.566403 -0.11458,5.18489 l -0.043,3.523434 q 0,1.647133 0.3151,2.148433 0.31511,0.48698 0.93099,0.77344 0.63021,0.27213 1.28906,0.34375 0.45833,0.0573 0.45833,0.27213 0,0.22917 -0.38671,0.22917 l -4.41146,-0.11458 -2.8789,0.10026 q -0.5013,0 -0.5013,-0.25782 0,-0.21484 0.35807,-0.22916 1.14583,-0.0716 1.48958,-0.30078 0.35807,-0.22917 0.57292,-0.8737 0.21484,-0.64453 0.24349,-2.177081 l 0.0716,-5.199212 q -1.23177,-0.08594 -2.50651,-0.08594 -5.54296,0 -7.03254,0.200521 -0.11458,2.749997 -0.11458,4.526036 0,1.990884 0.0859,2.449214 0.0859,0.45833 0.52995,0.85938 0.45833,0.38671 1.24609,0.54427 0.48698,0.10026 0.48698,0.3151 0,0.25781 -0.3151,0.25781 -0.10026,0 -0.28646,-0.0286 -0.77344,-0.0859 -3.20833,-0.0859 -2.64974,0 -3.2513,0.11458 -0.1289,0.0143 -0.25781,0.0143 -0.32943,0 -0.32943,-0.21485 0,-0.24349 0.44401,-0.30078 1.10287,-0.12891 1.57552,-0.61588 0.47266,-0.48698 0.64453,-3.652343 0.1862,-3.165361 0.1862,-7.691398 0,-3.680985 -0.34375,-4.640619 -0.34375,-0.959635 -1.67578,-1.059895 -0.30078,-0.02865 -0.30078,-0.229166 0,-0.286458 0.61589,-0.286458 l 5.77212,-0.08594 q 0.61589,0 0.73047,0.04297 0.12891,0.02865 0.12891,0.229166 0,0.229167 -0.3724,0.272135 -1.41796,0.143229 -1.73307,0.515625 -0.30078,0.372395 -0.30078,4.640619 0,0.44401 0.043,3.10807 1.46094,0.114583 3.4375,0.114583 2.54947,0 6.10155,-0.114583 z"
         id="path107956" />
      <path
         d="m 261.42008,93.685893 q 0,-1.933591 1.17448,-4.239578 1.17447,-2.32031 3.42317,-3.824214 2.26302,-1.503905 5.09895,-1.503905 3.96744,0 6.54557,2.835934 2.59244,2.835935 2.59244,6.473951 0,3.867183 -2.86458,6.946609 -2.86458,3.0651 -6.88931,3.0651 -3.85286,0 -6.47395,-2.69271 -2.60677,-2.692702 -2.60677,-7.061187 z m 3.194,-0.458332 q 0,2.334632 0.71615,4.798171 0.71614,2.449218 2.2487,3.566398 1.53255,1.10287 3.27994,1.10287 2.82161,0 4.51171,-2.735676 1.70443,-2.749997 1.70443,-6.359368 0,-3.494788 -1.73307,-6.130201 -1.73307,-2.649737 -4.52604,-2.649737 -2.10547,0 -3.50911,1.417967 -1.40364,1.403645 -2.04817,3.365882 -0.64454,1.962237 -0.64454,3.623694 z"
         id="path107958" />
      <path
         d="m 283.32766,84.4333 h 7.17577 q 0.61589,0 0.61589,0.257812 0,0.257812 -0.45833,0.300781 -1.01693,0.10026 -1.50391,0.558593 -0.48698,0.458333 -0.74479,1.618488 -0.24349,1.160155 -0.24349,4.970046 0,4.569005 0.25781,6.330722 0.27214,1.761718 1.66146,2.807288 1.40364,1.03125 3.80989,1.03125 2.52083,0 3.83854,-0.95963 1.3177,-0.95964 1.70442,-2.850262 0.40104,-1.890623 0.40104,-8.207022 0,-3.251298 -0.67317,-4.253901 -0.67318,-1.016926 -1.99089,-1.016926 -0.52994,0 -0.52994,-0.300781 0,-0.286458 0.70182,-0.286458 h 5.72916 q 0.38672,0 0.38672,0.286458 0,0.200521 -0.31511,0.243489 -1.08854,0.157552 -1.60416,0.687499 -0.5013,0.529948 -0.65885,1.919269 -0.15756,1.389321 -0.15756,4.082027 0,3.365881 -0.25781,5.714837 -0.24349,2.348955 -1.07422,3.509111 -0.83072,1.14583 -2.5065,1.86198 -1.66146,0.70182 -4.09635,0.70182 -2.49219,0 -4.2539,-0.78776 -1.7474,-0.80208 -2.37761,-2.10547 -0.61588,-1.317704 -0.61588,-3.924472 l 0.0573,-3.967443 q 0,-5.285151 -0.45833,-6.459628 -0.44401,-1.188801 -1.93359,-1.217447 -0.48698,0 -0.48698,-0.243489 0,-0.300781 0.60156,-0.300781 z"
         id="path107960" />
    </g>
    <g
       aria-label="CHARITABLE TRUST"
       id="text86179"
       style="font-size:17.3333px;line-height:1.25;font-family:'Bell MT';-inkscape-font-specification:'Bell MT, Normal';letter-spacing:0px;word-spacing:-1.5px;fill:#ffffff">
      <path
         d="m 139.59651,119.95737 q 0.46549,-0.41472 0.5332,-0.5586 0.0846,-0.20312 0.24544,-0.20312 0.16927,0 0.1862,0.30469 l 0.19466,2.95377 q 0,0.2539 -0.0254,0.31315 -0.0169,0.0508 -0.11849,0.0508 -0.13541,0 -0.28776,-0.36393 -0.55859,-1.3457 -1.55729,-2.20898 -1.00716,-0.85482 -2.18359,-0.85482 -1.03255,0 -1.89583,0.66862 -0.86328,0.66015 -1.3457,1.89583 -0.47395,1.22721 -0.47395,2.64062 0,2.40364 1.32031,3.91015 1.32877,1.49804 2.96223,1.49804 1.10872,0 2.03971,-0.70247 0.93099,-0.70247 1.40494,-1.625 0.12696,-0.2539 0.26237,-0.2539 0.1862,0 0.1862,0.20312 0,0.24544 -0.64323,1.07487 -0.64322,0.82942 -1.6927,1.3457 -1.04101,0.51627 -2.24284,0.51627 -1.4134,0 -2.6914,-0.7194 -1.26953,-0.7194 -2.01432,-1.98892 -0.74479,-1.26953 -0.74479,-2.97917 0,-1.67577 0.7194,-3.02147 0.72787,-1.3457 2.03971,-2.09049 1.31185,-0.74479 2.70833,-0.74479 0.74479,0 1.52344,0.23697 0.77864,0.22852 1.59114,0.70248 z"
         id="path107963" />
      <path
         d="m 150.70912,124.52767 0.0762,-2.35286 q 0,-1.54882 -0.31315,-2.03125 -0.30469,-0.49088 -1.03255,-0.49088 -0.42318,0 -0.42318,-0.17773 0,-0.16081 0.25391,-0.16081 l 2.46288,0.0846 2.09049,-0.0423 q 0.24545,0 0.24545,0.15234 0,0.13542 -0.16081,0.13542 -0.64323,0 -0.9987,0.18619 -0.35546,0.1862 -0.47395,0.63477 -0.11003,0.44857 -0.1862,2.56445 -0.0677,2.10741 -0.0677,3.06379 l -0.0254,2.08203 q 0,0.97331 0.1862,1.26953 0.1862,0.28776 0.55013,0.45703 0.37239,0.16081 0.76171,0.20312 0.27084,0.0339 0.27084,0.16081 0,0.13542 -0.22852,0.13542 l -2.60676,-0.0677 -1.70117,0.0592 q -0.29623,0 -0.29623,-0.15234 0,-0.12695 0.21159,-0.13542 0.67708,-0.0423 0.88021,-0.17773 0.21159,-0.13542 0.33854,-0.51628 0.12695,-0.38085 0.14388,-1.28645 l 0.0423,-3.07226 q -0.72787,-0.0508 -1.48112,-0.0508 -3.27538,0 -4.15559,0.11849 -0.0677,1.62499 -0.0677,2.67447 0,1.17643 0.0508,1.44726 0.0508,0.27084 0.31315,0.50782 0.27084,0.22851 0.73633,0.32161 0.28776,0.0592 0.28776,0.1862 0,0.15234 -0.1862,0.15234 -0.0592,0 -0.16927,-0.0169 -0.45703,-0.0508 -1.89583,-0.0508 -1.56575,0 -1.92122,0.0677 -0.0762,0.008 -0.15234,0.008 -0.19466,0 -0.19466,-0.12695 0,-0.14388 0.26237,-0.17773 0.65169,-0.0762 0.93098,-0.36393 0.2793,-0.28776 0.38086,-2.1582 0.11003,-1.87044 0.11003,-4.54492 0,-2.17512 -0.20313,-2.74218 -0.20312,-0.56705 -0.99023,-0.6263 -0.17773,-0.0169 -0.17773,-0.13542 0,-0.16927 0.36393,-0.16927 l 3.4108,-0.0508 q 0.36393,0 0.43164,0.0254 0.0762,0.0169 0.0762,0.13542 0,0.13542 -0.22005,0.16081 -0.83789,0.0846 -1.02409,0.30468 -0.17773,0.22005 -0.17773,2.74219 0,0.26236 0.0254,1.83658 0.86328,0.0677 2.03125,0.0677 1.5065,0 3.60546,-0.0677 z"
         id="path107965" />
      <path
         d="m 160.12056,119.03484 h 0.38932 q 0.94791,1.93815 2.61523,6.62694 1.07487,3.00455 1.47265,3.6901 0.39779,0.67708 1.27799,0.75325 0.2793,0.0254 0.2793,0.1862 0,0.11849 -0.14388,0.11849 l -0.11849,-0.008 q -0.77864,-0.0677 -1.98046,-0.0677 -1.84505,0 -2.36979,0.0592 -0.26237,0 -0.26237,-0.15234 0,-0.11003 0.19466,-0.13542 0.7194,-0.0677 0.99023,-0.24544 0.2793,-0.17773 0.2793,-0.55859 0,-0.36393 -0.51628,-1.81966 l -0.49934,-1.45573 q -0.44011,0 -3.93554,0.0508 -0.88021,2.34439 -0.88021,2.95377 0,0.51627 0.43164,0.77018 0.4401,0.24544 0.86328,0.27083 0.31315,0.0254 0.31315,0.19466 0,0.0677 -0.10156,0.12695 -1.35417,-0.0592 -1.63346,-0.0592 -1.42187,0 -1.91276,0.0339 -0.27083,0 -0.27083,-0.15234 0,-0.13542 0.23698,-0.16927 0.9733,-0.12695 1.48958,-1.32031 0.51627,-1.19336 1.60807,-4.29101 0.99869,-2.81835 2.18359,-5.39973 z m -0.33854,1.84505 q -0.78711,1.60807 -1.83659,4.67187 0.87174,-0.0423 1.2526,-0.0423 l 2.37825,0.0423 q -0.31315,-0.88021 -0.8802,-2.33594 -0.69401,-1.73502 -0.91406,-2.33593 z"
         id="path107967" />
      <path
         d="m 173.50139,124.66309 q 1.16797,0.50781 1.625,1.0664 0.45703,0.55013 0.67708,1.70963 0.28776,1.52344 0.79557,2.04818 0.50781,0.51627 1.32877,0.55013 0.22852,0.0169 0.22852,0.16927 0,0.15234 -0.26237,0.15234 -2.36979,0 -2.8776,-0.15234 -0.49935,-0.16081 -0.74479,-1.73503 -0.22851,-1.53189 -0.48242,-2.23437 -0.24544,-0.71093 -0.79557,-1.08333 -0.54167,-0.38086 -1.70117,-0.38086 -0.4401,0 -0.9987,0.0931 -0.0423,0.5332 -0.0423,1.10872 0,2.17513 0.0592,2.81836 0.0592,0.63476 0.35547,0.93098 0.30469,0.28776 1.00716,0.30469 0.30469,0.008 0.30469,0.14388 0,0.16081 -0.3724,0.16081 h -4.18944 q -0.36394,0 -0.36394,-0.16081 0,-0.14388 0.28776,-0.14388 0.64323,0 0.88867,-0.19466 0.25391,-0.19466 0.39779,-0.60091 0.14388,-0.41471 0.14388,-1.48958 l -0.0169,-1.72656 0.008,-2.63216 q 0,-2.01431 -0.0931,-2.66601 -0.0846,-0.65169 -0.31315,-0.87174 -0.22852,-0.22851 -1.05794,-0.35547 -0.17774,-0.0254 -0.17774,-0.14388 0,-0.13541 0.35547,-0.13541 l 5.01041,-0.11003 q 2.07356,0 3.00455,0.79557 0.93945,0.79557 0.93945,1.94661 0,0.72787 -0.38086,1.32878 -0.37239,0.60091 -0.88867,0.87174 -0.51627,0.27083 -1.65885,0.61784 z m -3.20768,-0.22005 q 1.625,-0.0339 2.4375,-0.22852 0.8125,-0.19466 1.37955,-0.85482 0.57552,-0.66015 0.57552,-1.56575 0,-0.95638 -0.63476,-1.66731 -0.63477,-0.71094 -2.03125,-0.71094 -0.76171,0 -1.68424,0.20313 -0.10156,2.32747 -0.10156,3.70702 0,0.47396 0.0592,1.11719 z"
         id="path107969" />
      <path
         d="m 179.38354,119.17026 1.54036,0.0339 2.36133,-0.0339 q 0.42317,0 0.42317,0.16927 0,0.12695 -0.22851,0.16081 -0.93945,0.11849 -1.17643,0.67708 -0.22852,0.55859 -0.22852,4.1302 0,1.31185 0.0677,2.95377 0.0677,1.64192 0.15234,1.96354 0.0846,0.32161 0.32162,0.52474 0.23698,0.20312 0.8802,0.28776 0.21159,0.0254 0.21159,0.1608 0,0.15235 -0.19466,0.15235 l -2.09895,-0.0169 -1.78581,0.0254 q -0.29622,0 -0.29622,-0.16927 0,-0.17774 0.23698,-0.17774 0.78711,-0.0169 0.92252,-0.52473 0.13542,-0.50782 0.13542,-3.24153 0,-2.64062 -0.0508,-4.27408 -0.0423,-1.63346 -0.27083,-1.9974 -0.22852,-0.36393 -0.86328,-0.45703 -0.23698,-0.0423 -0.23698,-0.19466 0,-0.15234 0.17773,-0.15234 z"
         id="path107971" />
      <path
         d="m 190.01373,119.72039 q -0.66015,-0.0339 -0.93099,-0.0339 -1.82812,0 -2.64908,0.76172 -0.82096,0.76172 -0.95638,1.35417 -0.0423,0.21158 -0.22851,0.21158 -0.0846,0 -0.16081,-0.0762 0.0423,-1.00716 0.33008,-2.71679 0.40625,-0.008 0.51627,-0.008 0.66016,0 1.76888,0.0677 1.19335,0.0677 3.65624,0.0677 2.52213,0 3.28385,-0.0592 0.69401,-0.0677 1.90429,-0.0677 0.10156,0.60937 0.13542,1.26953 0.0508,0.75325 0.10156,1.05794 0.008,0.0677 0.008,0.14388 0,0.20312 -0.17773,0.20312 -0.11003,0 -0.1862,-0.0677 -0.0677,-0.0762 -0.32161,-0.48243 -0.4401,-0.68554 -0.91406,-1.03255 -0.47396,-0.35546 -1.05794,-0.45703 -0.58399,-0.10156 -2.36133,-0.13541 -0.10156,1.27799 -0.10156,2.91991 0,5.43359 0.22852,6.40689 0.23698,0.97331 1.66731,0.97331 0.34701,0 0.34701,0.14388 0,0.16927 -0.33008,0.16927 h -5.20507 q -0.20312,0 -0.20312,-0.16081 0,-0.16081 0.39778,-0.16081 0.66862,0 1.07487,-0.37239 0.41471,-0.38086 0.47396,-1.02409 0.0677,-0.64322 0.0677,-3.71548 0,-2.6237 -0.17773,-5.17968 z"
         id="path107973" />
      <path
         d="m 201.50719,119.03484 h 0.38933 q 0.94791,1.93815 2.61523,6.62694 1.07486,3.00455 1.47265,3.6901 0.39778,0.67708 1.27799,0.75325 0.2793,0.0254 0.2793,0.1862 0,0.11849 -0.14388,0.11849 l -0.11849,-0.008 q -0.77865,-0.0677 -1.98047,-0.0677 -1.84505,0 -2.36978,0.0592 -0.26237,0 -0.26237,-0.15234 0,-0.11003 0.19466,-0.13542 0.7194,-0.0677 0.99023,-0.24544 0.2793,-0.17773 0.2793,-0.55859 0,-0.36393 -0.51628,-1.81966 l -0.49935,-1.45573 q -0.4401,0 -3.93554,0.0508 -0.8802,2.34439 -0.8802,2.95377 0,0.51627 0.43164,0.77018 0.4401,0.24544 0.86328,0.27083 0.31315,0.0254 0.31315,0.19466 0,0.0677 -0.10156,0.12695 -1.35417,-0.0592 -1.63347,-0.0592 -1.42187,0 -1.91275,0.0339 -0.27083,0 -0.27083,-0.15234 0,-0.13542 0.23697,-0.16927 0.97331,-0.12695 1.48958,-1.32031 0.51628,-1.19336 1.60807,-4.29101 0.9987,-2.81835 2.18359,-5.39973 z m -0.33854,1.84505 q -0.7871,1.60807 -1.83658,4.67187 0.87174,-0.0423 1.2526,-0.0423 l 2.37825,0.0423 q -0.31315,-0.88021 -0.88021,-2.33594 -0.69401,-1.73502 -0.91406,-2.33593 z"
         id="path107975" />
      <path
         d="m 214.64259,124.34994 q 1.57422,0.41471 2.35286,1.1595 0.78711,0.74479 0.78711,1.81119 0,1.14258 -0.97331,2.10742 -0.9733,0.97331 -2.86067,0.97331 -0.35547,0 -1.13411,-0.0423 -0.49935,-0.0254 -0.54167,-0.0254 -2.60676,0 -3.52082,0.0508 -0.30469,0 -0.30469,-0.16081 0,-0.0846 0.0846,-0.11849 0.0931,-0.0339 0.66015,-0.13541 0.33854,-0.0592 0.5332,-0.28776 0.19466,-0.22852 0.29623,-0.93099 0.10156,-0.70247 0.10156,-2.09049 0,-1.37109 0.0339,-2.20898 0.0339,-0.84635 0.0339,-1.29492 0,-1.39648 -0.11003,-2.24283 -0.10156,-0.84636 -0.29622,-1.07487 -0.19466,-0.23698 -0.79557,-0.33008 -0.24545,-0.0338 -0.24545,-0.17773 0,-0.15235 0.24545,-0.15235 l 1.54036,0.0254 q 0.75325,0 1.41341,-0.0339 1.48111,-0.0762 1.91275,-0.0762 1.56575,0 2.48828,0.68554 0.91406,0.68555 0.91406,1.87044 0,0.93099 -0.60091,1.59961 -0.60091,0.66862 -2.01432,1.10026 z M 211.7396,119.695 q -0.0762,1.85351 -0.0762,3.00455 l 0.008,1.2526 q 0,0.25391 0.0677,0.32161 0.0762,0.0677 0.39779,0.0677 1.60807,0 2.58137,-0.58398 0.97331,-0.59245 0.97331,-1.98047 0,-1.17643 -0.72787,-1.75195 -0.7194,-0.58398 -1.79426,-0.58398 -0.6263,0 -1.43034,0.25391 z m 0,5.04426 q -0.11849,0.21159 -0.11849,0.73633 l -0.0592,2.62369 q 0,1.38802 0.0677,1.54882 0.0762,0.16081 0.49088,0.27084 0.42318,0.11002 1.32877,0.11002 0.80404,0 1.30339,-0.22005 0.50781,-0.22852 0.93098,-0.88867 0.42318,-0.66015 0.42318,-1.58268 0,-1.37109 -0.8125,-2.01432 -0.80403,-0.64323 -2.38671,-0.64323 -0.5332,0 -1.16797,0.0593 z"
         id="path107977" />
      <path
         d="m 228.45506,130.37597 q -0.41471,0.0169 -0.47395,0.0169 -0.31315,0 -1.13412,-0.0339 -0.82096,-0.0254 -3.4108,-0.0254 h -2.14973 q -0.11849,0 -0.86328,0.0339 -0.74479,0.0423 -0.9056,0.0423 -0.64323,0 -0.64323,-0.16927 0,-0.13542 0.25391,-0.14388 0.82096,-0.0508 1.14257,-0.347 0.32162,-0.30469 0.44011,-0.86328 0.11849,-0.56706 0.11849,-3.04687 l 0.008,-3.02995 q 0,-1.47265 -0.13542,-2.05663 -0.12695,-0.58399 -0.54166,-0.88867 -0.40625,-0.31315 -0.92253,-0.35547 -0.27083,-0.0254 -0.27083,-0.17773 0,-0.15235 0.24544,-0.15235 0.0593,0 0.22006,0.008 1.3457,0.0762 3.14843,0.0762 l 1.48958,-0.0254 q 0.22851,0 0.22851,0.16927 0,0.15234 -0.24544,0.15234 -0.60091,0 -1.00716,0.23698 -0.39778,0.23698 -0.5332,0.55013 -0.12695,0.30469 -0.12695,1.20182 l -0.0677,4.00325 0.0169,2.23437 q 0,1.04101 0.0846,1.35416 0.0931,0.31315 0.3724,0.56706 0.27929,0.24544 1.01562,0.24544 0.0592,0 1.51497,-0.0508 1.1595,-0.16081 2.08203,-1.13411 0.92252,-0.97331 1.22721,-1.74349 0.0931,-0.22005 0.22851,-0.22005 0.14388,0 0.14388,0.20312 0,0.23698 -0.24544,1.70117 -0.24544,1.45573 -0.30469,1.66732 z"
         id="path107979" />
      <path
         d="m 238.83135,119.35646 q 0.24544,0.94791 0.48242,2.65754 -0.0423,0.0677 -0.0931,0.0677 -0.0593,0 -0.12695,-0.0677 -0.58399,-0.93945 -1.11719,-1.43033 -0.5332,-0.49089 -1.07487,-0.69401 -0.5332,-0.21159 -1.84505,-0.21159 -1.23567,0 -1.95507,0.14388 -0.0677,0.0846 -0.0677,0.31315 0,0.0593 -0.0169,0.21159 -0.0846,0.67708 -0.0846,3.67317 0,0.12695 0.0169,0.35547 0.64322,0.0254 0.8802,0.0254 1.06641,0 1.54036,-0.31315 0.48243,-0.32162 0.83789,-1.37109 0.0592,-0.17774 0.16927,-0.17774 0.16081,0 0.16081,0.24544 l -0.0339,0.33855 q -0.0677,0.66861 -0.0677,1.37955 0,1.15104 0.0423,2.07356 0,0.28776 -0.16081,0.28776 -0.11849,0 -0.16081,-0.20312 -0.17773,-0.9987 -0.74479,-1.4388 -0.56705,-0.4401 -2.46288,-0.4401 -0.0254,0.61783 -0.0254,1.99739 0,1.7858 0.12695,2.26822 0.12695,0.48242 0.60937,0.77018 0.48242,0.2793 1.63346,0.2793 3.29231,0 4.24869,-2.26822 0.11849,-0.2793 0.24544,-0.2793 0.13542,0 0.13542,0.1862 0,0.10156 -0.0423,0.22005 -0.0508,0.16081 -0.24544,1.20182 -0.0423,0.22005 -0.32161,1.32031 l -3.54622,-0.008 q -0.76172,0 -2.24283,-0.0677 -1.47266,-0.0593 -2.61523,-0.0677 -1.13412,0 -1.1849,-0.0423 -0.0508,-0.0423 -0.0508,-0.0931 0,-0.16927 0.2793,-0.16927 0.93945,0 1.23567,-0.49935 0.29623,-0.49934 0.29623,-2.42903 l -0.008,-1.73502 0.0254,-1.625 q 0,-0.49088 -0.0592,-1.85351 -0.0508,-1.37109 -0.10156,-1.56575 -0.0423,-0.19466 -0.26237,-0.38086 -0.21159,-0.19466 -0.94792,-0.38932 -0.22005,-0.0592 -0.22005,-0.1862 0,-0.15234 0.29622,-0.15234 l 1.72656,0.0931 q 0.91406,0.0423 4.49413,0.0423 2.35287,0 2.40365,0.008 z"
         id="path107981" />
      <path
         d="m 248.68093,119.72039 q -0.66016,-0.0339 -0.93099,-0.0339 -1.82812,0 -2.64908,0.76172 -0.82096,0.76172 -0.95638,1.35417 -0.0423,0.21158 -0.22852,0.21158 -0.0846,0 -0.1608,-0.0762 0.0423,-1.00716 0.33007,-2.71679 0.40625,-0.008 0.51628,-0.008 0.66015,0 1.76888,0.0677 1.19335,0.0677 3.65624,0.0677 2.52213,0 3.28385,-0.0592 0.69401,-0.0677 1.90429,-0.0677 0.10156,0.60937 0.13542,1.26953 0.0508,0.75325 0.10156,1.05794 0.008,0.0677 0.008,0.14388 0,0.20312 -0.17773,0.20312 -0.11003,0 -0.1862,-0.0677 -0.0677,-0.0762 -0.32161,-0.48243 -0.44011,-0.68554 -0.91406,-1.03255 -0.47396,-0.35546 -1.05794,-0.45703 -0.58399,-0.10156 -2.36133,-0.13541 -0.10156,1.27799 -0.10156,2.91991 0,5.43359 0.22851,6.40689 0.23698,0.97331 1.66732,0.97331 0.347,0 0.347,0.14388 0,0.16927 -0.33007,0.16927 h -5.20507 q -0.20313,0 -0.20313,-0.16081 0,-0.16081 0.39779,-0.16081 0.66862,0 1.07487,-0.37239 0.41471,-0.38086 0.47395,-1.02409 0.0677,-0.64322 0.0677,-3.71548 0,-2.6237 -0.17773,-5.17968 z"
         id="path107983" />
      <path
         d="m 262.8658,124.66309 q 1.16797,0.50781 1.625,1.0664 0.45703,0.55013 0.67708,1.70963 0.28776,1.52344 0.79557,2.04818 0.50781,0.51627 1.32877,0.55013 0.22852,0.0169 0.22852,0.16927 0,0.15234 -0.26237,0.15234 -2.36979,0 -2.8776,-0.15234 -0.49935,-0.16081 -0.74479,-1.73503 -0.22851,-1.53189 -0.48242,-2.23437 -0.24544,-0.71093 -0.79557,-1.08333 -0.54167,-0.38086 -1.70117,-0.38086 -0.4401,0 -0.9987,0.0931 -0.0423,0.5332 -0.0423,1.10872 0,2.17513 0.0592,2.81836 0.0593,0.63476 0.35547,0.93098 0.30469,0.28776 1.00716,0.30469 0.30469,0.008 0.30469,0.14388 0,0.16081 -0.3724,0.16081 h -4.18944 q -0.36394,0 -0.36394,-0.16081 0,-0.14388 0.28776,-0.14388 0.64323,0 0.88867,-0.19466 0.25391,-0.19466 0.39779,-0.60091 0.14388,-0.41471 0.14388,-1.48958 l -0.0169,-1.72656 0.008,-2.63216 q 0,-2.01431 -0.0931,-2.66601 -0.0846,-0.65169 -0.31315,-0.87174 -0.22852,-0.22851 -1.05794,-0.35547 -0.17774,-0.0254 -0.17774,-0.14388 0,-0.13541 0.35547,-0.13541 l 5.01041,-0.11003 q 2.07356,0 3.00455,0.79557 0.93945,0.79557 0.93945,1.94661 0,0.72787 -0.38086,1.32878 -0.37239,0.60091 -0.88867,0.87174 -0.51627,0.27083 -1.65885,0.61784 z m -3.20768,-0.22005 q 1.625,-0.0339 2.4375,-0.22852 0.8125,-0.19466 1.37955,-0.85482 0.57552,-0.66015 0.57552,-1.56575 0,-0.95638 -0.63476,-1.66731 -0.63476,-0.71094 -2.03125,-0.71094 -0.76171,0 -1.68424,0.20313 -0.10156,2.32747 -0.10156,3.70702 0,0.47396 0.0592,1.11719 z"
         id="path107985" />
      <path
         d="m 267.58843,119.25489 h 4.24023 q 0.36393,0 0.36393,0.15235 0,0.15234 -0.27083,0.17773 -0.60091,0.0593 -0.88867,0.33008 -0.28776,0.27083 -0.44011,0.95638 -0.14388,0.68554 -0.14388,2.93684 0,2.69987 0.15235,3.74088 0.16081,1.04101 0.98177,1.65885 0.82942,0.60937 2.25129,0.60937 1.48959,0 2.26823,-0.56705 0.77864,-0.56706 1.00716,-1.68424 0.23698,-1.11719 0.23698,-4.8496 0,-1.92122 -0.39779,-2.51367 -0.39778,-0.60091 -1.17643,-0.60091 -0.31315,0 -0.31315,-0.17774 0,-0.16927 0.41471,-0.16927 h 3.38541 q 0.22852,0 0.22852,0.16927 0,0.11849 -0.1862,0.14388 -0.64323,0.0931 -0.94791,0.40625 -0.29623,0.31315 -0.38932,1.13412 -0.0931,0.82096 -0.0931,2.4121 0,1.98893 -0.15235,3.37695 -0.14388,1.38802 -0.63476,2.07356 -0.49089,0.67708 -1.48112,1.10026 -0.98177,0.41471 -2.42057,0.41471 -1.47265,0 -2.51366,-0.46549 -1.03255,-0.47396 -1.40495,-1.24414 -0.36393,-0.77864 -0.36393,-2.31901 l 0.0338,-2.34439 q 0,-3.12304 -0.27083,-3.81705 -0.26237,-0.70247 -1.14258,-0.7194 -0.28775,0 -0.28775,-0.14388 0,-0.17774 0.35546,-0.17774 z"
         id="path107987" />
      <path
         d="m 286.59752,119.8558 q 0.22852,-0.22851 0.30469,-0.47395 0.0677,-0.20313 0.19466,-0.20313 0.0677,0 0.15234,0.0846 0.0593,0.30468 0.16927,1.22721 l 0.20313,1.59114 q 0,0.15235 -0.1862,0.15235 -0.10156,0 -0.17773,-0.16928 -0.44857,-1.10872 -1.32878,-1.84504 -0.8802,-0.72787 -1.92122,-0.72787 -1.02408,0 -1.54882,0.61784 -0.51628,0.61784 -0.51628,1.31185 0,0.84635 0.56706,1.29492 0.56705,0.44856 2.33593,1.01562 1.30338,0.40625 1.94661,0.78711 0.65169,0.38086 1.0918,1.0664 0.4401,0.68555 0.4401,1.47265 0,1.33724 -1.10872,2.39518 -1.10872,1.05794 -2.71679,1.05794 -1.44727,0 -2.91146,-0.90559 -0.28776,0.23697 -0.37239,0.55859 -0.0677,0.27083 -0.22005,0.27083 -0.13542,0 -0.19466,-0.347 -0.0592,-0.34701 -0.24545,-3.28385 0.0339,-0.10156 0.17774,-0.10156 0.12695,0 0.20312,0.18619 1.30339,3.27539 3.63932,3.27539 1.1595,0 1.81119,-0.69401 0.66016,-0.70247 0.66016,-1.60807 0,-0.6263 -0.35547,-1.15104 -0.347,-0.52474 -0.93099,-0.84635 -0.57552,-0.32162 -1.82812,-0.7194 -1.60807,-0.51628 -2.19205,-0.97331 -0.57552,-0.46549 -0.84635,-1.04101 -0.27084,-0.58398 -0.27084,-1.12565 0,-1.12565 1.01563,-1.99739 1.02408,-0.87175 2.5052,-0.87175 0.55859,0 1.16797,0.17774 0.61783,0.17773 1.28645,0.54166 z"
         id="path107989" />
      <path
         d="m 294.20623,119.72039 q -0.66016,-0.0339 -0.93099,-0.0339 -1.82812,0 -2.64908,0.76172 -0.82097,0.76172 -0.95638,1.35417 -0.0423,0.21158 -0.22852,0.21158 -0.0846,0 -0.1608,-0.0762 0.0423,-1.00716 0.33007,-2.71679 0.40625,-0.008 0.51628,-0.008 0.66015,0 1.76888,0.0677 1.19335,0.0677 3.65624,0.0677 2.52213,0 3.28385,-0.0592 0.694,-0.0677 1.90429,-0.0677 0.10156,0.60937 0.13542,1.26953 0.0508,0.75325 0.10156,1.05794 0.008,0.0677 0.008,0.14388 0,0.20312 -0.17773,0.20312 -0.11003,0 -0.1862,-0.0677 -0.0677,-0.0762 -0.32161,-0.48243 -0.44011,-0.68554 -0.91407,-1.03255 -0.47395,-0.35546 -1.05794,-0.45703 -0.58398,-0.10156 -2.36132,-0.13541 -0.10156,1.27799 -0.10156,2.91991 0,5.43359 0.22851,6.40689 0.23698,0.97331 1.66732,0.97331 0.347,0 0.347,0.14388 0,0.16927 -0.33007,0.16927 h -5.20507 q -0.20313,0 -0.20313,-0.16081 0,-0.16081 0.39779,-0.16081 0.66862,0 1.07487,-0.37239 0.41471,-0.38086 0.47395,-1.02409 0.0677,-0.64322 0.0677,-3.71548 0,-2.6237 -0.17773,-5.17968 z"
         id="path107991" />
    </g>
  </g>
</svg>
