<?xml version="1.0" encoding="utf-8"?>
<svg version="1.1" id="svg2" width="324" height="216" viewBox="0 0 324 216" xmlns="http://www.w3.org/2000/svg">
  <g id="g8">
    <rect style="fill:#ffffff;fill-rule:evenodd" id="rect56370" width="324" height="216" x="0" y="0"/>
    <rect style="fill:#267f00;fill-opacity:1;fill-rule:evenodd;stroke-width:0.816496" id="rect56576" width="216" height="216" x="108" y="0"/>
    <path id="path9903" style="font-variation-settings:normal;opacity:1;fill:#000000;fill-opacity:1;stroke:#000000;stroke-width:0;stroke-linecap:butt;stroke-linejoin:miter;stroke-miterlimit:4;stroke-dasharray:none;stroke-dashoffset:0;stroke-opacity:1;stop-color:#000000;stop-opacity:1" d="m 41.257812,23.587891 c -6.213379,8.017264 -1.633447,17.42981 2.730469,27.378906 -2.379421,4.40778 -5.186827,8.482717 -5.6875,13.576172 l 9.935547,-13.804688 9.63086,-0.07617 c -7.241349,6.557126 -13.073726,11.046526 -14.560547,21.009766 0,0 -3.602742,2.148781 -4.892579,3.943359 -0.602057,0.837656 -0.62593,2.009999 -1.175781,2.882813 -1.649773,2.618793 -7.052734,6.294922 -7.052734,6.294922 2.348245,-0.502842 4.696388,-1.005727 7.033203,-1.560547 2.187237,-0.519306 4.063317,-1.757965 6.380859,-1.449219 0.865551,0.11531 1.563957,0.820046 2.414063,1.019531 2.266742,0.53191 6.970703,0.429688 6.970703,0.429688 l -0.160156,2.037109 c -4.490249,0.748375 -7.719383,2.070532 -11.261719,5.416016 -3.433919,0.659035 -6.848249,1.355299 -10.349609,1.556641 l 0.160156,1.394531 8.580078,4.396484 c 0.160644,1.713536 0.547268,2.107495 1.962891,3.152345 2.606356,1.92369 5.092454,4.00259 6.99414,6.66211 2.943256,7.12077 6.321752,12.52773 11.369141,19.03906 l -9.388672,1.9707 c -3.649252,-5.24579 -6.788375,-10.68177 -9.382813,-16.55859 2.067696,9.05104 5.343792,17.86729 6.490235,27.08203 0.898943,7.22542 -0.623689,14.54347 -0.537109,21.82812 -0.906021,2.34742 -1.474571,3.33432 -0.107422,5.63086 0.05384,2.71911 -0.248424,5.39455 1.019531,7.88282 -0.715166,2.52411 -1.292676,3.33738 0.804687,5.20312 -0.730197,2.87515 -1.105402,3.70146 1.179688,5.89844 -1.294526,2.3401 -1.704862,2.6009 0.537109,4.39648 -0.194792,1.51938 -0.480656,2.20254 0.75,3.27149 4.128219,-5.26704 7.800214,-10.68826 10.886719,-16.67774 0.976722,-1.89537 1.761619,-3.71761 1.824219,-5.89843 6.130907,-14.04176 11.424864,-28.20997 13.460937,-43.49414 C 72.931693,116.067 66.221565,109.85196 66.5,94.601562 c 0.04306,-2.35852 0.779583,-3.153582 2.204782,-1.434145 0.881352,1.06331 1.760871,2.882675 2.461234,3.953677 4.823141,-2.572342 9.406157,-5.309862 14.855468,-6.328125 0.842826,-0.157491 1.484422,-0.0057 1.84961,-0.857422 L 88.886719,87.75 c -0.75384,-4.334582 -4.296326,-5.909996 -9.09961,-6.294922 -11.895103,-0.95325 -15.381057,-2.422811 -15.017578,-14.257812 0.144125,-4.692761 3.405143,-6.929663 6.597657,-10.619141 1.457196,-1.684032 2.246635,-3.561507 0.759765,-5.384766 C 62.608308,39.521215 55.002608,31.754276 41.257812,23.587891 Z"/>
    <path style="font-variation-settings:normal;opacity:1;fill:#000000;fill-opacity:1;stroke:none;stroke-width:0.5;stroke-linecap:butt;stroke-linejoin:miter;stroke-miterlimit:4;stroke-dasharray:none;stroke-dashoffset:0;stroke-opacity:1;stop-color:#000000;stop-opacity:1" d="M 16.761236,90.859551 C 12.017802,90.565704 5.0276696,90.141914 5.0814607,94.120786 c 0.100647,7.444754 8.6216323,1.593791 11.9073033,1.516855 z" id="path1003"/>
    <path style="font-variation-settings:normal;opacity:1;fill:#ffffff;fill-opacity:1;stroke:#ffffff;stroke-width:1.4;stroke-linecap:butt;stroke-linejoin:miter;stroke-miterlimit:4;stroke-dasharray:none;stroke-dashoffset:0;stroke-opacity:1;stop-color:#000000;stop-opacity:1" d="M 57.436622,50.321629 46.818016,49.55309" id="path17473"/>
    <path style="font-variation-settings:normal;opacity:1;fill:#ffffff;fill-opacity:1;stroke:#ffffff;stroke-width:1.3;stroke-linecap:butt;stroke-linejoin:miter;stroke-miterlimit:4;stroke-dasharray:none;stroke-dashoffset:0;stroke-opacity:1;stop-color:#000000;stop-opacity:1" d="M 55.899239,49.238939 46.920347,47.355884" id="path17475"/>
    <path style="font-variation-settings:normal;opacity:1;fill:#ffffff;fill-opacity:1;stroke:#ffffff;stroke-width:1.3;stroke-linecap:butt;stroke-linejoin:miter;stroke-miterlimit:4;stroke-dasharray:none;stroke-dashoffset:0;stroke-opacity:1;stop-color:#000000;stop-opacity:1" d="M 55.261083,47.585645 45.876489,45.580742" id="path17477"/>
    <path style="font-variation-settings:normal;opacity:1;fill:#ffffff;fill-opacity:1;stroke:#ffffff;stroke-width:1;stroke-linecap:butt;stroke-linejoin:miter;stroke-miterlimit:4;stroke-dasharray:none;stroke-dashoffset:0;stroke-opacity:1;stop-color:#000000;stop-opacity:1" d="M 51.269214,44.72649 45.69181,44.136572" id="path17479"/>
    <path style="font-variation-settings:normal;opacity:1;fill:#ffffff;fill-opacity:1;stroke:#ffffff;stroke-width:0.9;stroke-linecap:butt;stroke-linejoin:miter;stroke-miterlimit:4;stroke-dasharray:none;stroke-dashoffset:0;stroke-opacity:1;stop-color:#000000;stop-opacity:1" d="M 49.874863,42.956737 44.994635,42.313191" id="path17481"/>
    <path style="font-variation-settings:normal;opacity:1;fill:#ffffff;fill-opacity:1;stroke:#ffffff;stroke-width:0.5;stroke-linecap:butt;stroke-linejoin:miter;stroke-miterlimit:4;stroke-dasharray:none;stroke-dashoffset:0;stroke-opacity:1;stop-color:#000000;stop-opacity:1" d="m 49.177688,39.846262 -6.060064,-1.98427" id="path17483"/>
    <path style="font-variation-settings:normal;opacity:1;fill:#ffffff;fill-opacity:1;stroke:#ffffff;stroke-width:0.4;stroke-linecap:butt;stroke-linejoin:miter;stroke-miterlimit:4;stroke-dasharray:none;stroke-dashoffset:0;stroke-opacity:1;stop-color:#000000;stop-opacity:1" d="m 48.426883,37.915622 -5.309259,-1.93064" id="path17651"/>
    <path style="font-variation-settings:normal;opacity:1;fill:#ffffff;fill-opacity:1;stroke:#ffffff;stroke-width:0.2;stroke-linecap:butt;stroke-linejoin:miter;stroke-miterlimit:4;stroke-dasharray:none;stroke-dashoffset:0;stroke-opacity:1;stop-color:#000000;stop-opacity:1" d="m 45.20915,29.335 4.665713,3.539507" id="path17653"/>
    <path style="font-variation-settings:normal;opacity:1;fill:#ffffff;fill-opacity:1;stroke:#ffffff;stroke-width:0.3;stroke-linecap:butt;stroke-linejoin:miter;stroke-miterlimit:4;stroke-dasharray:none;stroke-dashoffset:0;stroke-opacity:1;stop-color:#000000;stop-opacity:1" d="m 43.010366,30.568465 5.416517,3.539506" id="path17655"/>
    <path style="font-variation-settings:normal;opacity:1;fill:#ffffff;fill-opacity:1;stroke:#ffffff;stroke-width:0.4;stroke-linecap:butt;stroke-linejoin:miter;stroke-miterlimit:4;stroke-dasharray:none;stroke-dashoffset:0;stroke-opacity:1;stop-color:#000000;stop-opacity:1" d="m 43.332139,33.410795 4.558455,1.984269" id="path17657"/>
    <path style="font-variation-settings:normal;opacity:1;fill:none;fill-opacity:1;stroke:#fefefd;stroke-width:0.6;stroke-linecap:butt;stroke-linejoin:miter;stroke-miterlimit:4;stroke-dasharray:none;stroke-dashoffset:0;stroke-opacity:1;stop-color:#000000;stop-opacity:1" d="m 49.767605,41.616015 -6.22095,-1.179836" id="path19771"/>
    <ellipse style="fill:#e35217;fill-opacity:1;stroke:none;stroke-width:0.177907;stroke-linecap:round;stroke-linejoin:miter;stroke-miterlimit:4;stroke-dasharray:none;stroke-opacity:1;paint-order:fill markers stroke" id="path22717" cx="-52.903599" cy="108.60087" rx="0.60718304" ry="0.94450688" transform="rotate(-70.629079)"/>
    <ellipse style="fill:#000000;fill-opacity:1;stroke:none;stroke-width:0.0601597;stroke-linecap:round;stroke-linejoin:miter;stroke-miterlimit:4;stroke-dasharray:none;stroke-opacity:1;paint-order:fill markers stroke" id="ellipse44741" cx="-52.903599" cy="108.60087" rx="0.20532076" ry="0.31938779" transform="rotate(-70.629079)"/>
    <path style="font-variation-settings:normal;fill:#e35217;fill-opacity:1;stroke:#000000;stroke-width:0;stroke-linecap:butt;stroke-linejoin:miter;stroke-miterlimit:4;stroke-dasharray:none;stroke-dashoffset:0;stroke-opacity:1;stop-color:#000000" d="m 88.887641,87.75 c -0.617819,1.026439 -1.510711,1.453775 -2.518321,2.024754 4.13211,0.31312 9.555391,1.65586 13.471495,2.89596 C 96.779349,90.917841 92.034648,89.340516 88.887641,87.75 Z" id="path44855"/>
    <path style="font-variation-settings:normal;opacity:1;fill:#fefefd;fill-opacity:1;stroke:none;stroke-width:1;stroke-linecap:butt;stroke-linejoin:miter;stroke-miterlimit:4;stroke-dasharray:none;stroke-dashoffset:0;stroke-opacity:1;stop-color:#000000;stop-opacity:1" d="m 60.279297,126.88672 c 0.486992,0.61387 1.201474,1.33611 1.822847,1.92997 1.012675,1.31191 0.143613,1.8138 -1.086208,2.49568 l -8.459629,4.69048 -1.665682,-7.14543 2.094714,-4.00938 c 0,0 5.724964,0.0609 7.293958,2.03868 z" id="path50927"/>
    <path style="font-variation-settings:normal;opacity:1;fill:none;fill-opacity:1;stroke:#000000;stroke-width:0.4;stroke-linecap:butt;stroke-linejoin:miter;stroke-miterlimit:4;stroke-dasharray:none;stroke-dashoffset:0;stroke-opacity:1;stop-color:#000000;stop-opacity:1" d="m 49.297753,128.25 3.716292,1.21348" id="path52759"/>
    <path style="font-variation-settings:normal;opacity:1;fill:none;fill-opacity:1;stroke:#000000;stroke-width:0.3;stroke-linecap:butt;stroke-linejoin:miter;stroke-miterlimit:4;stroke-dasharray:none;stroke-dashoffset:0;stroke-opacity:1;stop-color:#000000;stop-opacity:1" d="m 50.359551,131.28371 4.626404,0.30337" id="path52761"/>
    <path style="font-variation-settings:normal;opacity:1;fill:none;fill-opacity:1;stroke:#000000;stroke-width:0.3;stroke-linecap:butt;stroke-linejoin:miter;stroke-miterlimit:4;stroke-dasharray:none;stroke-dashoffset:0;stroke-opacity:1;stop-color:#000000;stop-opacity:1" d="m 49.93052,133.77128 3.178424,-0.12566" id="path52820"/>
    <path style="font-variation-settings:normal;opacity:1;fill:none;fill-opacity:1;stroke:#fefefd;stroke-width:1;stroke-linecap:butt;stroke-linejoin:miter;stroke-miterlimit:4;stroke-dasharray:none;stroke-dashoffset:0;stroke-opacity:1;stop-color:#000000;stop-opacity:1" d="m 57.488764,134.54494 -5.839887,3.18539" id="path53186"/>
    <path style="font-variation-settings:normal;opacity:1;fill:none;fill-opacity:1;stroke:#fefefd;stroke-width:1.4;stroke-linecap:butt;stroke-linejoin:miter;stroke-miterlimit:4;stroke-dasharray:none;stroke-dashoffset:0;stroke-opacity:1;stop-color:#000000;stop-opacity:1" d="m 57.64045,136.74438 -5.91573,4.01966" id="path54135"/>
    <path style="font-variation-settings:normal;opacity:1;fill:none;fill-opacity:1;stroke:#fefefd;stroke-width:1.6;stroke-linecap:butt;stroke-linejoin:miter;stroke-miterlimit:4;stroke-dasharray:none;stroke-dashoffset:0;stroke-opacity:1;stop-color:#000000;stop-opacity:1" d="m 56.882023,140.38483 -6.143258,4.55056" id="path54312"/>
    <path style="font-variation-settings:normal;opacity:1;fill:none;fill-opacity:1;stroke:#fefefd;stroke-width:1.2;stroke-linecap:butt;stroke-linejoin:miter;stroke-miterlimit:4;stroke-dasharray:none;stroke-dashoffset:0;stroke-opacity:1;stop-color:#000000;stop-opacity:1" d="m 56.882023,143.72191 -4.323033,3.10955" id="path54580"/>
    <path style="font-variation-settings:normal;opacity:1;fill:none;fill-opacity:1;stroke:#fefefd;stroke-width:0.8;stroke-linecap:butt;stroke-linejoin:miter;stroke-miterlimit:4;stroke-dasharray:none;stroke-dashoffset:0;stroke-opacity:1;stop-color:#000000;stop-opacity:1" d="m 57.564607,146.45225 -6.825842,6.37078" id="path54734"/>
    <path style="font-variation-settings:normal;opacity:1;fill:none;fill-opacity:1;stroke:#fefefd;stroke-width:0.9;stroke-linecap:butt;stroke-linejoin:miter;stroke-miterlimit:4;stroke-dasharray:none;stroke-dashoffset:0;stroke-opacity:1;stop-color:#000000;stop-opacity:1" d="m 57.564607,149.48596 -5.688202,8.49437" id="path55002"/>
    <path style="font-variation-settings:normal;opacity:1;fill:none;fill-opacity:1;stroke:#fefefd;stroke-width:0.8;stroke-linecap:butt;stroke-linejoin:miter;stroke-miterlimit:4;stroke-dasharray:none;stroke-dashoffset:0;stroke-opacity:1;stop-color:#000000;stop-opacity:1" d="m 58.171349,157.3736 -6.598315,8.03931" id="path55156"/>
    <path style="font-variation-settings:normal;opacity:1;fill:none;fill-opacity:1;stroke:#fefefd;stroke-width:0.4;stroke-linecap:butt;stroke-linejoin:miter;stroke-miterlimit:4;stroke-dasharray:none;stroke-dashoffset:0;stroke-opacity:1;stop-color:#000000;stop-opacity:1" d="m 58.398877,164.80618 -6.977528,9.17695" id="path55234"/>
    <path style="font-variation-settings:normal;opacity:1;fill:none;fill-opacity:1;stroke:#fefefd;stroke-width:0.4;stroke-linecap:butt;stroke-linejoin:miter;stroke-miterlimit:4;stroke-dasharray:none;stroke-dashoffset:0;stroke-opacity:1;stop-color:#000000;stop-opacity:1" d="m 59.61236,171.02528 -7.129213,12.58987" id="path55388"/>
    <g aria-label="THE LIHOU" id="text60245" style="font-size:29.3333px;line-height:1.25;font-family:'Bell MT';-inkscape-font-specification:'Bell MT, Normal';letter-spacing:0.28px;word-spacing:2px;fill:#ffffff"/>
  </g>
</svg>