<?xml version="1.0" encoding="utf-8"?>
<svg viewBox="0 0 450 300" xmlns="http://www.w3.org/2000/svg" version="1.0" width="450" height="300">
  <path style="fill:#bf0a30" d="M0 0h450v300H0z"/>
  <path d="M37.5 148.84 224.225 275 412.5 148.595 224.225 25 37.5 148.84z" style="fill: #00205B;"/>
  <path d="M84 149.128 224.417 244 366 148.944 224.417 56 84 149.128z" style="fill:#fff"/>
  <path d="m229.484 49.981-5.521-4L218.452 50l2.095-6.491-5.522-4.004 6.815-.012L223.94 33l2.118 6.484 6.818-.01-5.507 4.02 2.116 6.487z" style="fill:#fff"/>
  <path d="M234.964 190 225 197.081l-9.976-7.075 3.81 11.453-9.966 7.088 12.319-.003L225.004 220l3.804-11.454 12.324-.009-9.968-7.076 3.8-11.461z" style="fill: #00205B;"/>
  <path d="m202.7 190-9.965-7.081-9.976 7.075 3.81-11.453-9.965-7.088 12.319.003L192.74 160l3.803 11.454 12.325.009-9.968 7.076L202.7 190z" id="a" style="fill: #00205B;"/>
  <path d="m215.981 243.541-4 5.521 4.019 5.511-6.491-2.095-4.004 5.522-.012-6.815-6.493-2.099 6.484-2.118-.01-6.818 4.02 5.507 6.487-2.116z" id="b" style="fill:#fff"/>
  <path d="m233.019 243.541 4 5.521-4.019 5.511 6.491-2.095 4.004 5.522.012-6.815 6.493-2.099-6.484-2.118.01-6.818-4.02 5.507-6.487-2.116z" id="c" style="fill:#fff"/>
  <path d="m202.7 190-9.965-7.081-9.976 7.075 3.81-11.453-9.965-7.088 12.319.003L192.74 160l3.803 11.454 12.325.009-9.968 7.076L202.7 190z" style="fill: #00205B;" transform="matrix(1, 0, 0, 1, 64.52799987792969, 0)"/>
  <path d="m202.7 190-9.965-7.081-9.976 7.075 3.81-11.453-9.965-7.088 12.319.003L192.74 160l3.803 11.454 12.325.009-9.968 7.076L202.7 190z" style="fill: #00205B;" transform="matrix(1, 0, 0, 1, 32.263999938964844, -85)"/>
  <path d="m215.981 243.541-4 5.521 4.019 5.511-6.491-2.095-4.004 5.522-.012-6.815-6.493-2.099 6.484-2.118-.01-6.818 4.02 5.507 6.487-2.116z" style="fill:#fff" transform="matrix(1, 0, 0, 1, 151.47799682617188, -119)"/>
  <path d="m215.981 243.541-4 5.521 4.019 5.511-6.491-2.095-4.004 5.522-.012-6.815-6.493-2.099 6.484-2.118-.01-6.818 4.02 5.507 6.487-2.116z" style="fill:#fff" transform="matrix(1, 0, 0, 1, 124.47799682617188, -137)"/>
  <path d="m215.981 243.541-4 5.521 4.019 5.511-6.491-2.095-4.004 5.522-.012-6.815-6.493-2.099 6.484-2.118-.01-6.818 4.02 5.507 6.487-2.116z" style="fill:#fff" transform="matrix(1, 0, 0, 1, 97.47799682617188, -155)"/>
  <path d="m215.981 243.541-4 5.521 4.019 5.511-6.491-2.095-4.004 5.522-.012-6.815-6.493-2.099 6.484-2.118-.01-6.818 4.02 5.507 6.487-2.116z" style="fill:#fff" transform="matrix(1, 0, 0, 1, 70.47799682617188, -172)"/>
  <path d="m215.981 243.541-4 5.521 4.019 5.511-6.491-2.095-4.004 5.522-.012-6.815-6.493-2.099 6.484-2.118-.01-6.818 4.02 5.507 6.487-2.116z" style="fill:#fff" transform="matrix(1, 0, 0, 1, 43.47800064086914, -190)"/>
  <path d="m215.981 243.541-4 5.521 4.019 5.511-6.491-2.095-4.004 5.522-.012-6.815-6.493-2.099 6.484-2.118-.01-6.818 4.02 5.507 6.487-2.116z" style="fill:#fff" transform="matrix(1, 0, 0, 1, -120, -82)"/>
  <path d="m215.981 243.541-4 5.521 4.019 5.511-6.491-2.095-4.004 5.522-.012-6.815-6.493-2.099 6.484-2.118-.01-6.818 4.02 5.507 6.487-2.116z" style="fill:#fff" transform="matrix(1, 0, 0, 1, -96, -66)"/>
  <path d="m215.981 243.541-4 5.521 4.019 5.511-6.491-2.095-4.004 5.522-.012-6.815-6.493-2.099 6.484-2.118-.01-6.818 4.02 5.507 6.487-2.116z" style="fill:#fff" transform="matrix(1, 0, 0, 1, -72, -50)"/>
  <path d="m215.981 243.541-4 5.521 4.019 5.511-6.491-2.095-4.004 5.522-.012-6.815-6.493-2.099 6.484-2.118-.01-6.818 4.02 5.507 6.487-2.116z" style="fill:#fff" transform="matrix(1, 0, 0, 1, -48, -33)"/>
  <path d="m215.981 243.541-4 5.521 4.019 5.511-6.491-2.095-4.004 5.522-.012-6.815-6.493-2.099 6.484-2.118-.01-6.818 4.02 5.507 6.487-2.116z" style="fill:#fff" transform="matrix(1, 0, 0, 1, -24, -17)"/>
  <path d="m215.981 243.541-4 5.521 4.019 5.511-6.491-2.095-4.004 5.522-.012-6.815-6.493-2.099 6.484-2.118-.01-6.818 4.02 5.507 6.487-2.116z" style="fill:#fff" transform="matrix(1, 0, 0, 1, -144, -99.07499694824219)"/>
  <path d="m233.019 243.541 4 5.521-4.019 5.511 6.491-2.095 4.004 5.522.012-6.815 6.493-2.099-6.484-2.118.01-6.818-4.02 5.507-6.487-2.116z" style="fill:#fff" transform="matrix(1, 0, 0, 1, -151, -119)"/>
  <path d="m233.019 243.541 4 5.521-4.019 5.511 6.491-2.095 4.004 5.522.012-6.815 6.493-2.099-6.484-2.118.01-6.818-4.02 5.507-6.487-2.116z" style="fill:#fff" transform="matrix(1, 0, 0, 1, -124, -137)"/>
  <path d="m233.019 243.541 4 5.521-4.019 5.511 6.491-2.095 4.004 5.522.012-6.815 6.493-2.099-6.484-2.118.01-6.818-4.02 5.507-6.487-2.116z" style="fill:#fff" transform="matrix(1, 0, 0, 1, -97, -155)"/>
  <path d="m233.019 243.541 4 5.521-4.019 5.511 6.491-2.095 4.004 5.522.012-6.815 6.493-2.099-6.484-2.118.01-6.818-4.02 5.507-6.487-2.116z" style="fill:#fff" transform="matrix(1, 0, 0, 1, -70, -172)"/>
  <path d="m233.019 243.541 4 5.521-4.019 5.511 6.491-2.095 4.004 5.522.012-6.815 6.493-2.099-6.484-2.118.01-6.818-4.02 5.507-6.487-2.116z" style="fill:#fff" transform="matrix(1, 0, 0, 1, -43, -190)"/>
  <path d="m233.019 243.541 4 5.521-4.019 5.511 6.491-2.095 4.004 5.522.012-6.815 6.493-2.099-6.484-2.118.01-6.818-4.02 5.507-6.487-2.116z" style="fill:#fff" transform="matrix(1, 0, 0, 1, 144, -99.07499694824219)"/>
  <path d="m233.019 243.541 4 5.521-4.019 5.511 6.491-2.095 4.004 5.522.012-6.815 6.493-2.099-6.484-2.118.01-6.818-4.02 5.507-6.487-2.116z" style="fill:#fff" transform="matrix(1, 0, 0, 1, 120, -82)"/>
  <path d="m233.019 243.541 4 5.521-4.019 5.511 6.491-2.095 4.004 5.522.012-6.815 6.493-2.099-6.484-2.118.01-6.818-4.02 5.507-6.487-2.116z" style="fill:#fff" transform="matrix(1, 0, 0, 1, 96, -66)"/>
  <path d="m233.019 243.541 4 5.521-4.019 5.511 6.491-2.095 4.004 5.522.012-6.815 6.493-2.099-6.484-2.118.01-6.818-4.02 5.507-6.487-2.116z" style="fill:#fff" transform="matrix(1, 0, 0, 1, 72, -50)"/>
  <path d="m233.019 243.541 4 5.521-4.019 5.511 6.491-2.095 4.004 5.522.012-6.815 6.493-2.099-6.484-2.118.01-6.818-4.02 5.507-6.487-2.116z" style="fill:#fff" transform="matrix(1, 0, 0, 1, 48, -33)"/>
  <path d="m233.019 243.541 4 5.521-4.019 5.511 6.491-2.095 4.004 5.522.012-6.815 6.493-2.099-6.484-2.118.01-6.818-4.02 5.507-6.487-2.116z" style="fill:#fff" transform="matrix(1, 0, 0, 1, 24, -17)"/>
</svg>