<?xml version="1.0" encoding="UTF-8" standalone="no"?>
<!-- Created with Inkscape (http://www.inkscape.org/) -->

<svg
   xmlns:dc="http://purl.org/dc/elements/1.1/"
   xmlns:cc="http://creativecommons.org/ns#"
   xmlns:rdf="http://www.w3.org/1999/02/22-rdf-syntax-ns#"
   xmlns:svg="http://www.w3.org/2000/svg"
   xmlns="http://www.w3.org/2000/svg"
   xmlns:sodipodi="http://sodipodi.sourceforge.net/DTD/sodipodi-0.dtd"
   xmlns:inkscape="http://www.inkscape.org/namespaces/inkscape"
   id="svg2"
   version="1.1"
   inkscape:version="0.48.4 r9939"
   width="500"
   height="300"
   sodipodi:docname="Flag of Kumanovo Municipality.svg">
  <metadata
     id="metadata8">
    <rdf:RDF>
      <cc:Work
         rdf:about="">
        <dc:format>image/svg+xml</dc:format>
        <dc:type
           rdf:resource="http://purl.org/dc/dcmitype/StillImage" />
        <dc:title></dc:title>
      </cc:Work>
    </rdf:RDF>
  </metadata>
  <defs
     id="defs6" />
  <sodipodi:namedview
     pagecolor="#ffffff"
     bordercolor="#666666"
     borderopacity="1"
     objecttolerance="10"
     gridtolerance="10"
     guidetolerance="10"
     inkscape:pageopacity="0"
     inkscape:pageshadow="2"
     inkscape:window-width="1366"
     inkscape:window-height="706"
     id="namedview4"
     showgrid="false"
     inkscape:zoom="0.64839135"
     inkscape:cx="243.90272"
     inkscape:cy="106.43099"
     inkscape:window-x="-8"
     inkscape:window-y="-8"
     inkscape:window-maximized="1"
     inkscape:current-layer="svg2">
    <sodipodi:guide
       position="0,0"
       orientation="0,642"
       id="guide3820" />
    <sodipodi:guide
       position="642,0"
       orientation="-960,0"
       id="guide3822" />
    <sodipodi:guide
       position="642,960"
       orientation="0,-642"
       id="guide3824" />
    <sodipodi:guide
       position="0,960"
       orientation="960,0"
       id="guide3826" />
  </sodipodi:namedview>
  <rect
     style="fill:#d20f12;fill-opacity:1;stroke:none"
     id="rect3831"
     width="510.49417"
     height="308.45569"
     x="0"
     y="-8.4556885" />
  <rect
     style="fill:#efa408;fill-opacity:1;stroke:none"
     id="rect3777"
     width="118.52525"
     height="112.07133"
     x="189.93127"
     y="69.2649" />
  <path
     sodipodi:type="arc"
     style="fill:#efa408;fill-opacity:1;stroke:none"
     id="path3007"
     sodipodi:cx="53.069073"
     sodipodi:cy="154.63689"
     sodipodi:rx="71.527878"
     sodipodi:ry="70.209396"
     d="m 124.59695,154.63689 a 71.527878,70.209396 0 1 1 -143.055755,0 71.527878,70.209396 0 1 1 143.055755,0 z"
     transform="matrix(0.8156682,0,0,0.81690141,206.23678,56.331629)" />
  <path
     inkscape:connector-curvature="0"
     id="path2991"
     d="m 244.81588,241.14691 c -13.63895,-0.99445 -26.64632,-6.47871 -36.50667,-15.39218 -2.56391,-2.3177 -6.37437,-6.37093 -8.25525,-8.78118 -1.2642,-1.62002 -1.58546,-2.16562 -4.46279,-7.57962 -3.21099,-6.04179 -5.21504,-12.44385 -6.22915,-19.89938 -0.16521,-1.21459 -0.23776,-16.71934 -0.28563,-61.04223 l -0.0642,-59.414104 0.60353,-0.600633 0.60354,-0.600632 59.00396,0 59.00398,0 0.60353,0.600632 0.60355,0.600633 -0.0606,59.414104 c -0.0553,54.14993 -0.0882,59.60644 -0.37182,61.58494 -1.3257,9.24892 -4.17277,16.89302 -9.07136,24.35582 -9.61699,14.65103 -25.76363,24.46416 -43.58043,26.48601 -2.91614,0.33093 -8.79616,0.46746 -11.53419,0.26782 z m 0.65392,-2.83562 c -1.40469,-0.90145 -4.08017,-3.55796 -4.84648,-4.81208 -0.98177,-1.60677 -1.54153,-3.11964 -1.66043,-4.48766 l -0.10915,-1.25591 -4.28641,0 -4.2864,0 0.003,0.40703 c 0.006,0.87891 0.6007,2.78078 1.23172,3.93909 0.87356,1.60349 2.3275,3.27888 3.96594,4.56995 1.2718,1.00217 1.40706,1.0613 3.17466,1.38757 1.9953,0.3683 5.46908,0.78969 7.28265,0.88342 0.52371,0.0271 0.49319,-0.014 -0.46887,-0.63141 z m 9.92331,0.37353 c 0.0622,-0.0621 -0.18239,-0.32242 -0.54342,-0.57854 -1.19442,-0.84733 -4.02213,-3.7476 -4.64399,-4.76316 -0.8304,-1.35613 -1.38221,-2.92262 -1.49668,-4.24897 l -0.0953,-1.10368 -2.5381,-0.11742 c -1.39598,-0.0646 -3.33627,-0.11741 -4.31178,-0.11741 l -1.77366,0 0.1326,1.04019 c 0.16982,1.33243 0.68273,2.74273 1.4557,4.00275 0.8775,1.43041 3.33136,3.73682 5.39682,5.07256 l 1.77906,1.15052 3.26287,-0.11198 c 1.79457,-0.0616 3.3137,-0.16277 3.37586,-0.22486 z m 5.55188,-0.84056 c 1.13466,-0.20646 2.09532,-0.40081 2.13478,-0.43188 0.0394,-0.0311 -0.32973,-0.44596 -0.82039,-0.92197 -2.44341,-2.37038 -3.49512,-4.42435 -3.93993,-7.69458 l -0.11688,-0.85929 -4.20833,0 -4.20834,0 0,0.5047 c 0,0.88332 0.55109,2.58659 1.26533,3.91076 0.81618,1.51322 3.40665,4.12319 5.27858,5.31833 1.33923,0.85504 0.95218,0.84045 4.61518,0.17393 z m -28.22821,-2.08364 c -2.03538,-2.14111 -3.27492,-4.56916 -3.50193,-6.85972 -0.0808,-0.81514 -0.19216,-1.13599 -0.41311,-1.19006 -0.16638,-0.0407 -2.09896,-0.0938 -4.29462,-0.118 l -3.99211,-0.044 0.10516,0.96268 c 0.15611,1.42921 0.28385,1.95646 0.70737,2.91955 0.36261,0.82456 0.48211,0.91931 2.22108,1.76104 1.01082,0.48928 2.58041,1.18845 3.48801,1.5537 1.54277,0.62088 6.33458,2.22044 6.68366,2.23109 0.0865,0.003 -0.36508,-0.5447 -1.00351,-1.2163 z m 34.76528,0.37864 c 1.11976,-0.35105 2.27029,-0.73333 2.55675,-0.84951 l 0.52084,-0.21124 -0.72619,-1.15842 c -0.94419,-1.5062 -1.44098,-2.81231 -1.67495,-4.40353 -0.10407,-0.70782 -0.20835,-1.30098 -0.23173,-1.31811 -0.0234,-0.0171 -1.93223,-0.0799 -4.24188,-0.13945 l -4.19939,-0.10829 0.11135,1.12356 c 0.237,2.39172 1.52621,4.71506 3.76913,6.79252 0.9965,0.92299 1.31255,1.11877 1.65586,1.02573 0.23336,-0.0632 1.34046,-0.40221 2.46021,-0.75326 z m 8.5893,-3.54753 c 2.06903,-1.04655 2.17655,-1.12839 2.01638,-1.53476 -0.0931,-0.23609 -0.22363,-0.99407 -0.29014,-1.68439 l -0.12095,-1.25513 -4.19289,0 -4.19289,0 0,0.5338 c 0,1.47276 0.72941,3.49019 1.81182,5.01115 l 0.66321,0.93192 1.05994,-0.44854 c 0.58298,-0.24671 2.04347,-0.94603 3.24552,-1.55405 z m -56.30215,-1.87413 c -0.10302,-0.26136 -0.23954,-1.07128 -0.30338,-1.79981 l -0.11609,-1.3246 -2.61012,-0.0545 -2.61011,-0.0545 0.52692,0.41445 c 0.75886,0.5969 4.97793,3.29408 5.15276,3.29408 0.081,0 0.063,-0.21385 -0.04,-0.47521 z m 61.98862,-1.41001 1.49539,-1.00924 -0.95212,0 c -0.52369,0 -1.4709,-0.0523 -2.10495,-0.11622 l -1.1528,-0.11623 0,1.0964 c 0,1.54171 0.0943,1.72566 0.72159,1.40714 0.27362,-0.13894 1.17041,-0.70677 1.99289,-1.26185 z m -3.77536,-3.08758 c 0.0643,-0.45229 0.24329,-1.05816 0.39779,-1.34638 l 0.28095,-0.52402 -1.7313,-0.98287 c -0.95219,-0.54057 -2.29414,-1.28054 -2.98206,-1.64438 l -1.2508,-0.66151 -0.86859,0.95043 c -0.91176,0.99766 -2.24997,3.44014 -2.42212,4.42081 l -0.10111,0.57593 4.2802,0.0172 4.28018,0.0172 0.11686,-0.82235 z m 4.23357,0.73859 c -0.043,-0.0404 -0.62673,-0.48623 -1.29721,-0.99077 l -1.21906,-0.91736 -0.32328,0.6742 c -0.59854,1.2482 -0.54006,1.30735 1.29228,1.30735 0.89399,0 1.59026,-0.033 1.54727,-0.0734 z m -23.46737,-1.39998 c 0.66933,-2.07428 1.73814,-3.63699 3.89466,-5.69435 l 1.91934,-1.8311 -1.43374,-0.3713 c -0.78857,-0.20421 -2.12833,-0.50458 -2.97727,-0.66749 l -1.54352,-0.2962 -0.8946,0.58497 c -2.15033,1.40609 -4.76319,3.7726 -5.85438,5.30238 -0.75837,1.06322 -1.61739,2.74259 -1.78193,3.48363 -0.15654,0.70518 -0.37879,0.66855 4.58491,0.75579 l 3.65718,0.0643 0.42935,-1.3306 z m 9.66736,0.0437 c 0.36137,-1.35315 1.22415,-2.87517 2.38514,-4.20766 l 0.73487,-0.84343 -2.01344,-0.81008 c -3.25849,-1.31101 -3.32556,-1.32403 -4.05529,-0.78716 -2.83677,2.08706 -5.22257,5.16445 -5.66655,7.30921 l -0.12172,0.58793 4.20173,0 4.20175,0 0.33351,-1.24881 z m -29.207,0.0322 c 0.80127,-3.0093 3.55819,-6.32306 7.67029,-9.21952 l 0.56223,-0.39603 -0.56264,0.0663 c -0.30946,0.0365 -1.91299,0.1186 -3.56341,0.18253 -4.35284,0.1686 -4.52097,0.20825 -6.09885,1.43796 -3.31866,2.58635 -5.84287,5.72087 -6.52246,8.09946 l -0.19216,0.67262 2.09314,0.051 c 1.15123,0.028 3.05367,0.051 4.22765,0.051 l 2.1345,0 0.25171,-0.94531 z m 9.73682,0.001 c 0.81401,-2.70086 3.07115,-5.58441 6.27918,-8.02176 0.82337,-0.62556 1.47285,-1.16071 1.44329,-1.18922 -0.0295,-0.0285 -1.58343,-0.14251 -3.45307,-0.25335 -3.8874,-0.23045 -3.28822,-0.39099 -6.1488,1.64742 -1.82568,1.30097 -4.16091,3.53891 -5.13612,4.92215 -0.69356,0.98376 -1.4104,2.47502 -1.60628,3.34158 l -0.13289,0.58793 4.22142,0 4.22142,0 0.31185,-1.03475 z m -29.47165,0.62765 c 0.3909,-1.49193 1.10413,-3.15656 1.75421,-4.09429 0.44023,-0.63503 0.80043,-1.19153 0.80043,-1.23667 0,-0.14333 -2.48161,1.23752 -3.84473,2.13934 -0.72206,0.4777 -1.93962,1.38106 -2.7057,2.00747 l -1.39286,1.13892 2.3306,0.099 c 1.28184,0.0545 2.48094,0.11551 2.66468,0.13568 0.18376,0.0202 0.36077,-0.0651 0.39337,-0.18946 z m 9.9549,-0.43027 c 0.42622,-2.19138 2.77863,-5.49224 5.6007,-7.85875 0.70359,-0.59001 1.16777,-1.07203 1.03152,-1.07117 -0.68542,0.004 -5.9743,1.14694 -7.85488,1.69693 -3.08149,0.90122 -2.98998,0.85222 -4.45392,2.3847 -1.34305,1.40592 -2.66954,3.62249 -2.94238,4.91675 l -0.12394,0.58793 4.30762,0 4.30764,0 0.12764,-0.65639 z m 60.04495,-3.36871 c 3.32787,-3.26183 6.26914,-6.57698 6.99345,-7.88242 0.15677,-0.28255 -0.0534,-0.54552 -1.35179,-1.69166 -10.90596,-9.62691 -24.15666,-15.04465 -39.76844,-16.25988 -4.22935,-0.32921 -13.69618,-0.13688 -17.56443,0.35685 -8.5691,1.09373 -15.43205,3.03964 -22.41195,6.35463 -5.00673,2.37787 -9.023,4.92694 -13.17564,8.36245 l -1.92278,1.59072 0.3227,0.49171 c 1.77589,2.70606 5.87137,7.14819 9.94202,10.7835 l 0.98025,0.87544 1.34333,-1.19966 c 6.33432,-5.65684 14.00152,-8.57846 26.2349,-9.99697 3.47641,-0.40311 15.26469,-0.46645 17.91082,-0.0962 6.09496,0.8527 11.32781,2.38457 16.5042,4.83146 4.22264,1.99605 7.51784,4.00698 10.50268,6.40939 0.61891,0.49814 1.21829,0.90777 1.33198,0.9103 0.11368,0.003 1.97158,-1.7253 4.1287,-3.83961 z m -77.44331,0.28189 c -0.0572,-0.0892 0.0635,-0.52293 0.26812,-0.96378 0.20463,-0.44086 0.32583,-0.97921 0.26934,-1.19633 -0.17596,-0.67624 -2.23255,-3.51823 -2.47974,-3.42673 -0.13428,0.0497 -0.19092,-0.0155 -0.13518,-0.15563 0.13863,-0.34849 -3.93209,-4.98659 -4.3766,-4.98659 -0.42769,0 -0.25477,-0.29361 0.46371,-0.78732 0.55869,-0.38392 0.74186,-0.43475 0.89085,-0.2472 1.17555,1.47991 2.41491,2.82284 2.5376,2.74969 0.36834,-0.21958 0.8301,-2.05756 0.82667,-3.29035 -0.004,-1.36823 -0.12901,-1.70828 -0.49792,-1.35245 -0.12205,0.11774 -0.28944,0.21407 -0.37196,0.21407 -0.35625,0 -0.0874,-0.32965 0.77553,-0.9511 l 0.92556,-0.66652 0.21101,0.9804 c 0.28033,1.3025 0.0122,2.66407 -0.85956,4.36603 l -0.67383,1.31539 0.63309,0.79976 0.63309,0.79976 1.00503,-0.69745 c 1.13376,-0.78679 1.96263,-1.0594 3.22554,-1.06086 1.39886,-0.002 3.58336,1.04965 3.17276,1.52686 -0.59773,0.69473 2.40731,1.38979 3.24556,0.75069 0.50482,-0.38489 0.19808,-0.7097 -0.55839,-0.59129 -0.78035,0.12215 -0.84522,-0.16625 -0.0741,-0.3296 0.82729,-0.17527 1.31706,0.0342 1.31706,0.56323 0,0.65626 -1.03649,1.02954 -2.6181,0.94289 -1.08579,-0.0595 -1.39803,-0.1703 -2.7192,-0.965 -1.33125,-0.80076 -1.6049,-0.89701 -2.53189,-0.8905 -0.77461,0.005 -1.3158,0.14446 -2.12473,0.54583 l -1.08539,0.53855 1.10731,1.53154 c 0.60905,0.84234 1.28163,1.71212 1.49465,1.93282 l 0.38732,0.40129 -0.56801,0.46101 c -0.31239,0.25355 -0.80272,0.87503 -1.08959,1.38105 -0.28689,0.50603 -0.5684,0.84705 -0.62557,0.75784 z m 69.73121,-2.64105 c 0.18005,-2.04743 0.55428,-3.8584 1.0061,-4.86858 0.43438,-0.97121 1.34438,-1.69701 3.21457,-2.56391 1.08283,-0.50192 1.42341,-0.5687 3.04741,-0.59753 1.80359,-0.032 1.82992,-0.0264 1.94549,0.4178 0.16898,0.64938 -0.0904,2.84767 -0.47748,4.04743 -0.34345,1.0644 -1.14541,2.32724 -1.91726,3.01904 -0.82189,0.73667 -2.54681,1.35872 -4.16632,1.50246 -0.8395,0.0745 -1.80914,0.22387 -2.15474,0.33191 l -0.62838,0.19642 0.13061,-1.48504 z m 3.94663,0.30854 c 0.9359,-0.42837 2.4802,-1.81319 2.88527,-2.58728 0.81568,-1.55876 1.2859,-4.24801 0.90145,-5.15536 -0.12618,-0.29778 -0.29342,-0.32952 -1.31835,-0.25016 -1.9918,0.15422 -3.05159,0.91355 -4.11908,2.95123 -0.66787,1.27489 -1.31628,4.80703 -0.97907,5.33333 0.18537,0.28932 1.73617,0.11727 2.62978,-0.29176 z m -10.8439,-3.4528 c -2.20097,-1.08627 -2.71817,-1.41036 -2.51043,-1.57304 0.40006,-0.31327 5.56646,-10.18024 5.41517,-10.34206 -0.16807,-0.17976 -0.2395,-0.21623 2.82951,1.44461 2.825,1.52878 2.81237,1.50892 1.47099,2.31351 -0.59865,0.35909 -0.93014,0.40922 -2.70614,0.40922 l -2.02394,0 -0.55531,0.97945 c -0.30541,0.5387 -0.53399,0.99079 -0.50796,1.00465 0.026,0.0139 0.40374,0.17466 0.83932,0.35735 0.43558,0.18268 0.74694,0.40242 0.69192,0.4883 -0.055,0.0859 -0.26546,0.0708 -0.46763,-0.0336 -0.8823,-0.45546 -0.80616,0.23996 0.14728,1.34522 1.18489,1.37357 1.60392,2.84121 1.16109,4.06658 -0.16942,0.46872 -0.68227,0.96287 -0.95258,0.91783 -0.0326,-0.005 -1.30666,-0.62553 -2.83129,-1.378 z m 2.63823,-0.96388 c 0.0524,-1.32448 0.0346,-1.38584 -0.74974,-2.57787 -0.4419,-0.67161 -0.85912,-1.2211 -0.92716,-1.2211 -0.14963,0 -2.034,3.50518 -2.034,3.78351 0,0.108 0.1055,0.20167 0.23444,0.20815 0.12894,0.006 0.78301,0.28497 1.45349,0.61885 1.80684,0.89975 1.95763,0.83926 2.02297,-0.81154 z m 2.79116,-7.51152 c 0.52212,-0.25095 1.09558,-0.61222 1.27439,-0.8028 0.31463,-0.33533 0.28228,-0.36733 -1.00154,-0.99095 -0.72966,-0.35443 -1.39465,-0.64442 -1.47775,-0.64442 -0.13083,0 -1.5462,2.56948 -1.5462,2.807 0,0.0481 0.40542,0.0875 0.90092,0.0875 0.58716,0 1.23152,-0.15891 1.85018,-0.45629 z m -56.29208,6.9761 c -0.27633,-0.51544 -0.26601,-0.55851 0.27651,-1.15453 0.42727,-0.46939 0.56356,-0.79568 0.56356,-1.34927 0,-1.14142 -0.10156,-1.26216 -0.99481,-1.18294 l -0.7869,0.0698 0.70331,-0.37033 c 0.70495,-0.37121 0.83023,-0.61224 0.54421,-1.04709 -0.11688,-0.17769 -0.27853,-0.18724 -0.67957,-0.0402 -0.2894,0.10614 -0.54885,0.17035 -0.57654,0.14269 -0.49625,-0.49576 -5.71161,-6.92591 -5.71161,-7.04199 0,-0.0896 0.2256,-0.24568 0.50135,-0.3468 0.37191,-0.13639 0.55767,-0.12356 0.71954,0.0497 0.12,0.12847 1.33431,1.51572 2.69846,3.0828 1.36415,1.56708 2.50493,2.84923 2.53507,2.84923 0.0301,0 -0.0722,-0.42739 -0.22744,-0.94974 -0.16332,-0.5496 -0.29003,-1.75584 -0.30074,-2.86297 -0.0176,-1.82946 0.006,-1.95222 0.55089,-2.804 0.38389,-0.60061 0.90049,-1.08231 1.58585,-1.47872 1.25229,-0.72433 1.40133,-0.73211 1.03789,-0.0542 -0.43221,0.80618 -0.35531,1.41731 0.252,2.00311 0.29597,0.28549 0.58354,0.68655 0.63903,0.89126 0.13601,0.50169 -0.45195,1.19338 -0.87978,1.03501 -0.35465,-0.13127 -0.34998,-0.86072 0.006,-0.97372 0.13588,-0.0431 0.17479,0.11134 0.11043,0.43809 -0.0893,0.45342 -0.0678,0.47945 0.21213,0.25638 0.51013,-0.40653 0.36384,-0.88909 -0.42151,-1.3904 -0.40319,-0.25736 -0.84222,-0.72211 -0.97563,-1.03277 l -0.24255,-0.56484 -0.3323,0.71362 c -0.53819,1.1558 -0.44323,2.91734 0.31306,5.80766 0.36033,1.37715 0.65572,2.52427 0.65641,2.54914 0,0.0249 0.35993,0.051 0.79832,0.058 l 0.79708,0.0128 -0.75901,0.32602 c -0.68901,0.29595 -0.76309,0.393 -0.80345,1.05257 -0.04,0.65433 0.0308,0.78402 0.71212,1.30454 0.92778,0.70878 0.95308,1.11782 0.1189,1.92244 -0.53931,0.52022 -0.76998,0.61508 -1.49556,0.61508 -0.76096,0 -0.89035,-0.0605 -1.14496,-0.53542 z m 2.23696,-0.68128 c 0.25473,-0.64031 -0.73605,-0.83495 -1.28296,-0.25203 -0.29113,0.31031 -0.29313,0.36553 -0.0226,0.62646 0.23607,0.2277 0.389,0.24556 0.74877,0.0874 0.24867,-0.10928 0.49923,-0.31712 0.55681,-0.46187 z m 39.85125,-1.06146 c -0.61394,-1.36464 -1.30067,-4.16597 -1.29872,-5.29775 0.002,-0.79106 0.1235,-1.22174 0.54974,-1.93856 1.13429,-1.90752 3.26842,-3.69148 4.41608,-3.69148 0.19141,0 0.50368,-0.1359 0.69396,-0.302 0.3241,-0.28291 0.36248,-0.28022 0.60723,0.0427 0.47552,0.62728 1.27517,3.13966 1.37283,4.31332 0.21658,2.60253 -1.25198,5.04752 -3.757,6.25494 -0.63755,0.3073 -1.38993,0.77198 -1.67199,1.03262 l -0.51279,0.4739 -0.39934,-0.88765 z m 2.25226,-0.79195 c 0.8765,-0.43131 1.61385,-1.26392 2.33367,-2.63517 0.50912,-0.96986 0.53356,-1.12095 0.44798,-2.77078 -0.0974,-1.87708 -0.68718,-3.70084 -1.31944,-4.07977 -0.44013,-0.26378 -2.24281,0.6311 -2.84823,1.41394 -0.89526,1.15757 -1.18999,3.02304 -0.78856,4.99117 0.32273,1.58236 1.00722,3.43717 1.26846,3.43717 0.0999,0 0.50762,-0.16045 0.90612,-0.35656 z m -37.2801,-0.88055 c -0.41033,-1.32107 -0.27382,-3.29633 0.35966,-5.20388 0.87006,-2.61989 0.89899,-3.34461 0.19779,-4.95436 -0.31984,-0.7343 -0.5524,-1.36319 -0.51681,-1.39752 0.16128,-0.15556 1.24391,-0.37351 1.31181,-0.26408 0.0417,0.0673 0.89424,2.07611 1.89442,4.46403 1.00019,2.38793 1.88581,4.40965 1.96807,4.49273 0.0822,0.0831 0.3891,-0.32125 0.68188,-0.89849 0.44515,-0.87762 0.54415,-1.33314 0.60445,-2.78103 0.0585,-1.40412 0.0171,-1.77555 -0.21892,-1.96448 -0.22401,-0.17933 -0.24682,-0.32659 -0.099,-0.6395 0.18419,-0.38993 0.0891,-0.70158 -0.89728,-2.93982 -0.1122,-0.25457 1.21847,-0.70935 1.43346,-0.48991 0.0836,0.0854 1.04984,2.43459 2.1471,5.2205 1.09729,2.78592 2.08824,5.2937 2.20212,5.57285 0.22215,0.54459 0.11395,0.73826 -0.51432,0.92048 -0.34884,0.10119 -0.5283,-0.21937 -1.8703,-3.34057 -0.81643,-1.89887 -1.5631,-3.49939 -1.65923,-3.55671 -0.0962,-0.0573 -0.11936,-0.0176 -0.0516,0.0881 0.27778,0.43355 -0.27095,3.0404 -0.90402,4.2947 l -0.63864,1.26532 0.35304,0.76984 c 0.32568,0.71016 0.32842,0.77003 0.0354,0.7723 -0.17471,0.001 -0.49441,0.0482 -0.71043,0.10419 -0.44328,0.11479 -0.45849,0.0861 -2.34024,-4.42481 l -1.08444,-2.59958 -0.58888,1.78551 c -0.92314,2.79897 -0.99468,4.9901 -0.17247,5.28348 0.35059,0.12509 0.3416,0.15891 -0.16667,0.62862 l -0.53717,0.49641 -0.21878,-0.70436 z m 29.66326,-1.36396 c 0.0643,-0.73411 0.17278,-1.79296 0.24103,-2.35299 l 0.12407,-1.01823 -0.67638,0.27259 c -0.372,0.14993 -0.86896,0.27081 -1.10435,0.26862 -0.33118,-0.003 -0.25826,-0.0785 0.32217,-0.33314 0.4126,-0.18104 0.87431,-0.4738 1.02599,-0.65058 0.24926,-0.29047 0.22217,-0.36286 -0.28132,-0.75186 -0.98451,-0.76065 -2.58626,-1.03997 -4.44889,-0.77581 -0.58632,0.0831 -0.54417,-0.0614 -0.99605,3.4162 -0.16135,1.24169 -0.30915,2.26807 -0.32843,2.28084 -0.0193,0.0128 -0.35158,-0.0148 -0.7384,-0.0613 -0.42785,-0.0514 -0.7033,-0.18165 -0.7033,-0.33245 0,-0.13633 0.37978,-2.79277 0.84396,-5.90319 0.46418,-3.11042 0.84397,-5.67638 0.84397,-5.70214 0,-0.11641 0.87046,-0.0251 1.10041,0.11541 0.21589,0.13192 0.20672,0.52495 -0.058,2.48465 -0.17292,1.28037 -0.36078,2.59137 -0.41748,2.91333 l -0.10308,0.58537 0.6035,-0.20292 c 0.79775,-0.26825 2.84131,-0.0936 4.16802,0.35614 l 1.04905,0.35565 0.10135,-0.56846 c 0.0558,-0.31265 0.2025,-1.51791 0.32611,-2.67836 l 0.22472,-2.10991 0.67562,0.10035 c 0.37159,0.0552 0.69742,0.11664 0.72405,0.13655 0.0266,0.0199 -0.26471,2.6134 -0.64744,5.76331 l -0.69589,5.72711 -0.64603,0 -0.64601,0 0.11698,-1.33475 z m -16.14418,0.49508 c -0.3156,-0.1279 -0.29711,-1.64941 0.0386,-3.17742 0.14659,-0.6672 0.7384,-2.28683 1.3151,-3.59919 0.90685,-2.06359 1.02467,-2.462 0.87165,-2.94769 -0.0973,-0.30888 -0.17858,-0.82727 -0.18061,-1.15198 -0.002,-0.32471 -0.1294,-0.8335 -0.28308,-1.13065 l -0.27943,-0.54026 0.59517,0.003 c 0.32732,0.001 0.68676,0.0626 0.79874,0.13568 0.11199,0.0731 0.55912,1.2319 0.99365,2.57511 0.9555,2.95357 1.14565,3.43716 1.35153,3.43716 0.0874,0 0.11267,0.11618 0.0562,0.25818 -0.0565,0.142 0.28375,1.39874 0.75609,2.79276 0.47233,1.39403 0.85878,2.58527 0.85878,2.64721 0,0.0619 -0.31313,0.0873 -0.69588,0.0565 l -0.69586,-0.0562 -0.49115,-1.4917 c -0.27014,-0.82044 -0.53301,-1.53208 -0.58417,-1.58143 -0.0512,-0.0494 -0.57969,0.60132 -1.17448,1.44594 -0.59481,0.84462 -1.31098,1.69331 -1.5915,1.88599 -0.5674,0.38971 -1.30182,0.58411 -1.65935,0.43922 z m 2.47029,-1.92476 c 0.42071,-0.42597 0.98924,-1.17898 1.26342,-1.67336 l 0.4985,-0.89887 -0.64593,-1.9814 c -0.35528,-1.08978 -0.67966,-2.01392 -0.72086,-2.05366 -0.0412,-0.0397 -0.54159,0.8519 -1.11199,1.98141 -1.01162,2.00322 -1.54744,3.90915 -1.30436,4.63956 0.0565,0.1697 0.13413,0.41031 0.17258,0.53468 0.15619,0.50533 1.07801,0.2319 1.84864,-0.54836 z m 52.97213,0.50313 c 4.65454,-8.30742 6.96545,-17.12797 6.96348,-26.579 -0.003,-13.00803 -4.30064,-24.97431 -12.58431,-35.03713 -2.04727,-2.487 -5.97308,-6.34121 -8.42041,-8.26688 -1.08309,-0.85222 -2.11694,-1.66936 -2.29746,-1.81585 -0.31107,-0.25245 -0.32821,-0.0478 -0.32821,3.92247 l 0,4.18881 1.421,0 1.42097,0 -0.0334,0.58794 c -0.0184,0.32337 -0.0248,2.99212 -0.0144,5.93056 l 0.019,5.34263 0.51576,-0.0282 c 0.29147,-0.0159 0.69927,0.13286 0.93774,0.34214 0.38924,0.34158 0.42198,0.52627 0.42198,2.37899 0,1.78478 -0.0418,2.04317 -0.37509,2.31844 -0.3673,0.30335 -0.3751,0.53365 -0.3751,11.08098 l 0,10.7712 0.64689,-0.042 c 0.41585,-0.027 0.78427,0.0779 1.03151,0.29373 0.37906,0.33088 0.38463,0.48207 0.38463,10.43831 0,5.5564 0.0704,10.10255 0.15647,10.10255 0.39927,0 4.75749,3.35629 7.72053,5.94565 l 1.03152,0.90142 0.32097,-0.3934 c 0.17652,-0.21637 0.82268,-1.28887 1.43588,-2.38334 z m -95.84833,-2.50171 c 1.20617,-0.87846 2.80494,-1.97131 3.55279,-2.42855 l 1.35972,-0.83135 0,-9.61872 c 0,-9.31583 0.0116,-9.62881 0.36673,-9.93885 0.25227,-0.22023 0.57418,-0.29677 1.03152,-0.24527 l 0.66478,0.0749 0,-10.39919 0,-10.39919 -0.40692,-0.4178 c -0.36992,-0.3798 -0.40518,-0.60043 -0.3878,-2.42608 0.0219,-2.29468 0.21386,-2.697 1.28728,-2.697 l 0.62196,0 0.0523,-5.4272 c 0.0287,-2.98497 -0.0124,-5.42717 -0.0914,-5.42711 -0.079,6e-5 -0.12435,-0.24412 -0.10077,-0.54261 l 0.0429,-0.54271 1.55427,0 1.55426,0 0,-4.09113 0,-4.09114 -0.51576,0.32089 c -2.12564,1.32253 -7.37404,6.09525 -9.88864,8.99242 -2.47636,2.8531 -5.46364,7.25036 -7.24555,10.6654 -6.28694,12.04899 -7.8552,26.02245 -4.39718,39.17954 1.14003,4.33755 3.0953,9.17025 5.19463,12.83913 l 0.75126,1.31296 1.40329,-1.13205 c 0.77179,-0.62263 2.39016,-1.85079 3.59636,-2.72925 z m 83.59857,-20.87513 c -0.0678,-0.17083 -2.12839,-0.21202 -9.0511,-0.1809 l -8.96326,0.0403 -0.0497,5.29142 c -0.03,3.18924 0.0198,5.29143 0.12532,5.29143 0.0963,0 0.2994,0.046 0.45139,0.10229 0.234,0.0866 0.2883,-0.32211 0.35439,-2.66833 0.0866,-3.07256 0.27646,-3.76001 1.33181,-4.82117 1.2493,-1.25618 2.87391,-1.86641 4.9944,-1.87597 2.06003,-0.009 3.77241,0.63177 5.02041,1.87943 1.13828,1.138 1.18166,1.40199 1.18166,7.18941 l 0,5.24439 0.89086,0.48752 c 0.48997,0.26814 1.52382,0.86724 2.29746,1.33133 l 1.40661,0.8438 0.0488,-8.96687 c 0.0268,-4.93178 0.009,-9.06641 -0.039,-9.18807 z m -74.68662,15.50754 2.37272,-1.17587 0.002,-4.79662 c 0.002,-4.52302 0.0247,-4.83775 0.39654,-5.51756 0.59389,-1.08587 1.25698,-1.67583 2.60072,-2.31392 1.13484,-0.53888 1.35001,-0.57786 3.19012,-0.57786 1.73357,0 2.09948,0.0571 3.01325,0.47055 1.31863,0.59658 2.34122,1.46032 2.8494,2.40678 0.33711,0.62788 0.41029,1.14385 0.48034,3.38645 0.0775,2.48023 0.10469,2.64014 0.43521,2.55677 0.33494,-0.0845 0.35253,-0.35436 0.35253,-5.40448 l 0,-5.31555 -9.18982,0 -9.18984,0 0,8.78889 c 0,4.83389 0.0706,8.76176 0.15694,8.72859 0.0863,-0.0332 1.22465,-0.58944 2.52966,-1.23617 z m 68.58154,-4.16078 0,-3.43717 -1.96925,0 -1.96925,0 0,2.6231 c 0,1.97295 0.0581,2.62539 0.23443,2.63235 0.12894,0.005 0.99401,0.36426 1.92237,0.79818 0.92836,0.43391 1.70903,0.79608 1.73482,0.80482 0.0258,0.009 0.0469,-1.53084 0.0469,-3.42128 z m -61.28122,1.02353 c 0.28918,-0.0949 0.32821,-0.37722 0.32821,-2.37463 l 0,-2.26697 -1.87548,0 -1.87548,0 0,2.96905 0,2.96904 1.54727,-0.59441 c 0.851,-0.32693 1.69496,-0.64287 1.87548,-0.70208 z m 55.65479,-2.1994 0,-2.2613 -1.87548,0 -1.87548,0 0,1.60832 0,1.60832 1.82859,0.62929 c 1.00573,0.34611 1.84969,0.63995 1.87548,0.65298 0.0258,0.013 0.0469,-0.9939 0.0469,-2.23761 z m -49.73916,-1.0602 0.0548,-1.382 -1.97714,0 -1.97713,0 0,1.96797 0,1.96797 1.92236,-0.58597 1.92237,-0.58596 0.0548,-1.38201 z m 41.11196,-41.89219 c 0,-40.32016 -0.0169,-42.50492 -0.32821,-42.59347 -0.18051,-0.0513 -0.77737,-0.1134 -1.32636,-0.13793 l -0.99814,-0.0446 0.0156,4.15084 c 0.009,2.28297 0.10719,5.39459 0.21911,6.91472 0.11193,1.52013 0.15584,2.88369 0.0976,3.03014 -0.0796,0.20014 -0.43979,0.26625 -1.45052,0.26625 -1.25871,0 -1.43675,-0.0525 -2.7876,-0.82192 l -1.44301,-0.82191 0.429,-1.54957 c 0.23593,-0.85226 0.56298,-2.61932 0.72678,-3.92679 0.30456,-2.43131 0.75625,-5.64164 0.96443,-6.8546 0.0956,-0.55735 0.0607,-0.67839 -0.19597,-0.67839 -0.64662,0 -4.94927,1.29364 -6.30085,1.89443 -3.13878,1.39521 -4.22872,1.76527 -5.92192,2.01062 -0.96071,0.13921 -2.19451,0.43251 -2.74178,0.65177 -0.73339,0.29384 -1.58678,0.43297 -3.24559,0.52914 -8.07631,0.46819 -11.51759,0.78753 -12.51881,1.16171 -0.46133,0.17242 -0.4158,0.46752 0.30403,1.9703 0.55674,1.1623 0.96167,1.63194 3.3907,3.93251 l 2.75845,2.61258 -1.29616,0.92968 c -0.71287,0.51132 -1.62055,1.27603 -2.01702,1.69934 l -0.7209,0.76967 -0.99822,-1.0759 -0.99823,-1.07589 0,34.6204 0,34.62041 0.60953,-0.12075 c 1.59463,-0.31588 4.87527,-0.81578 6.1111,-0.93119 0.75651,-0.0707 1.40453,-0.21902 1.43999,-0.32971 0.0355,-0.11069 0.15685,-6.75449 0.26975,-14.76399 0.20824,-14.77356 0.40344,-20.99308 0.76653,-24.42197 0.27841,-2.62919 1.33995,-7.88695 2.24048,-11.09708 0.41428,-1.47679 0.75323,-2.71977 0.75323,-2.76217 0,-0.0424 0.54359,0.47871 1.20796,1.15804 2.07608,2.12278 4.03464,2.86418 7.1309,2.69932 2.78267,-0.14815 5.22113,-1.11633 6.36626,-2.5277 l 0.44462,-0.54799 0.41082,0.88556 c 1.3287,2.86414 2.07128,6.14898 2.42899,10.74479 0.30204,3.88079 0.57208,14.0238 0.75771,28.4626 0.0906,7.04795 0.19267,12.84034 0.2268,12.87197 0.0828,0.0768 4.47326,0.95504 4.8914,0.97846 0.3117,0.0175 0.32821,-2.11902 0.32821,-42.48174 z m -18.4641,-9.51887 c -1.96106,-0.47477 -3.56035,-1.58673 -4.78082,-3.324 -0.89398,-1.27255 -1.04031,-1.7049 -0.67575,-1.99673 0.23387,-0.18722 0.4322,-0.0973 1.17332,0.53195 2.05841,1.7477 4.42305,2.61006 6.88075,2.50936 1.32407,-0.0542 1.73675,-0.15711 2.94827,-0.73485 0.80437,-0.38359 1.93756,-1.1392 2.6415,-1.76138 1.03898,-0.91832 1.26827,-1.04837 1.45854,-0.82724 0.53477,0.62152 -0.93725,3.31299 -2.39559,4.3801 -1.60539,1.17474 -5.04944,1.7556 -7.25022,1.22279 z m 0.27196,-3.40472 c -1.19136,-0.33488 -2.35625,-0.93931 -3.63184,-1.88444 l -1.09993,-0.815 1.09993,-0.60283 c 0.66354,-0.36366 1.80685,-0.75727 2.88165,-0.99208 0.97994,-0.21409 1.87426,-0.48035 1.98739,-0.5917 0.44543,-0.43842 -0.21546,-5.39541 -0.94337,-7.07584 -0.29915,-0.69058 -0.43355,-0.7505 -0.91521,-0.40797 -0.29738,0.21148 -0.29424,0.27299 0.0483,0.94974 0.3579,0.70715 0.94821,3.94453 0.94821,5.20017 l 0,0.63114 -1.72739,0.42957 c -1.21955,0.30327 -2.22025,0.71048 -3.40371,1.38503 -1.43834,0.81983 -1.72284,0.92276 -2.00399,0.7251 -5.06621,-3.56147 -8.28657,-6.0106 -8.46508,-6.4378 -0.0701,-0.16779 -0.1334,-0.67404 -0.14066,-1.12499 -0.012,-0.74213 0.0713,-0.90286 0.87767,-1.69436 0.48996,-0.48094 1.41833,-1.23847 2.06302,-1.68339 0.6447,-0.44492 1.17217,-0.86536 1.17217,-0.93431 0,-0.11757 1.16072,-0.60922 1.22319,-0.51812 0.75691,1.10354 1.42595,1.90645 2.40926,2.89131 0.90672,0.90813 1.34734,1.2211 1.71921,1.2211 0.87617,0 4.79894,-0.77407 4.64376,-0.91635 -0.082,-0.0752 -0.72481,-0.0307 -1.42838,0.0988 -1.24342,0.22897 -1.28382,0.22471 -1.44301,-0.15185 -0.8745,-2.0686 -0.90025,-2.10614 -1.44015,-2.10008 -0.28948,0.003 -0.99049,0.16324 -1.55782,0.35554 l -1.03152,0.34964 -0.28102,-0.40077 c -0.15456,-0.22042 -0.55544,-0.63962 -0.89085,-0.93154 -0.36979,-0.32186 -0.60983,-0.7038 -0.60983,-0.97036 0,-0.72894 1.63026,-3.03403 2.88115,-4.07379 1.69805,-1.41143 3.46524,-2.70012 4.52699,-3.30119 0.88457,-0.50077 1.06006,-0.53168 3.09454,-0.54515 1.18624,-0.008 2.4308,-0.0753 2.76569,-0.14992 0.77506,-0.17265 1.73493,0.12854 2.31741,0.72717 0.38318,0.39379 0.44515,0.62675 0.41972,1.57765 -0.0165,0.6136 0.0891,2.77649 0.23443,4.80641 0.14535,2.02993 0.26428,3.80052 0.26428,3.93465 0,0.13547 -0.19614,0.24388 -0.44125,0.24388 -0.42828,0 -0.44486,-0.0571 -0.56444,-1.94471 -0.36962,-5.83472 -0.30893,-5.43354 -0.8414,-5.56245 -0.34503,-0.0835 -0.55146,-0.0259 -0.72434,0.20213 -0.13298,0.17542 -0.24179,0.26934 -0.24179,0.20872 0,-0.0606 -0.0513,-0.23923 -0.11403,-0.3969 -0.0806,-0.20249 0.0593,-0.35696 0.47626,-0.52608 l 0.59031,-0.23941 -0.92036,-0.83039 c -0.51921,-0.46844 -1.23772,-0.91539 -1.64845,-1.02539 -0.98078,-0.26268 -2.82299,-0.23476 -3.6656,0.0555 -1.28649,0.44323 -5.4725,3.67845 -6.34844,4.90648 -0.68749,0.96384 -0.69076,1.03027 -0.0471,0.95847 0.34696,-0.0387 0.63556,-0.25378 0.89085,-0.66393 0.20771,-0.33367 0.98815,-1.2088 1.73433,-1.94471 1.34541,-1.32689 2.11293,-1.69465 2.11293,-1.0124 0,0.68851 0.89307,0.98923 1.70027,0.57253 0.50713,-0.26179 0.45375,-0.58503 -0.20971,-1.27011 -0.64954,-0.67071 -0.53011,-0.94914 0.4957,-1.1556 0.68163,-0.13719 1.23968,0.29731 0.85653,0.66689 -0.33468,0.32282 -0.25771,0.82698 0.1591,1.04214 0.27118,0.14 0.58057,0.13515 1.1083,-0.0174 1.18166,-0.3415 1.63808,-0.13203 1.78603,0.81968 0.0798,0.5129 0.20707,0.77764 0.34978,0.72729 0.12342,-0.0435 0.35099,0.001 0.50572,0.0998 0.25008,0.15912 0.25008,0.19929 0,0.36155 -0.15473,0.10039 -0.49008,0.16145 -0.74526,0.13567 -0.38494,-0.0389 -0.491,-0.1797 -0.6229,-0.82714 -0.11491,-0.56395 -0.22026,-0.73274 -0.38003,-0.60882 -0.12159,0.0943 -0.48882,0.22664 -0.81607,0.29409 -0.51244,0.10562 -0.61203,0.21964 -0.71743,0.82141 -0.14233,0.8126 0.0458,1.22643 0.85645,1.88442 l 0.58397,0.47397 0.55993,-0.45446 c 0.30797,-0.24994 0.76446,-0.45445 1.01442,-0.45445 0.58472,0 0.57898,0.1442 -0.0144,0.36181 -0.3575,0.1311 -0.46887,0.30192 -0.46887,0.71914 0,0.44758 0.0772,0.54718 0.4239,0.54718 0.23314,0 0.66956,0.21973 0.96983,0.48829 l 0.54593,0.48828 -0.52755,0.13609 c -0.54181,0.13977 -3.38815,0.22036 -4.22532,0.11963 -0.3809,-0.0458 -0.47799,0.0285 -0.51747,0.39584 -0.0927,0.86273 0.1431,0.96907 1.73096,0.78071 1.54192,-0.18291 3.47574,0.0287 3.47449,0.38019 0,0.10773 -0.15501,0.4401 -0.34363,0.73859 -0.89102,1.4101 -1.30687,2.86108 -1.42579,4.97485 -0.0879,1.56266 -0.0572,2.15058 0.12324,2.36244 0.13439,0.15777 0.96144,0.41757 1.87692,0.5896 0.90017,0.16916 2.08172,0.4959 2.62567,0.72609 l 0.98903,0.41854 -1.12529,1.03785 c -1.59742,1.4733 -3.43613,2.31945 -5.20362,2.39463 -0.75856,0.0323 -1.73398,-0.0471 -2.20451,-0.17936 z m 5.06379,-2.24149 c 0,-0.57158 -0.63747,-1.42472 -1.31829,-1.76432 -0.77283,-0.38548 -1.11983,-0.34086 -1.11983,0.14397 0,0.29165 0.16375,0.47222 0.55854,0.61596 0.31268,0.11384 0.66187,0.42992 0.79327,0.71805 0.26718,0.58586 0.42376,0.72574 0.81238,0.72574 0.16504,0 0.27393,-0.17468 0.27393,-0.4394 z m -0.23869,-20.61666 c -0.25469,-0.24567 -0.60041,-0.41833 -0.76829,-0.38368 -0.23916,0.0494 -0.15448,0.21959 0.39126,0.7866 0.58941,0.61236 0.70753,0.67134 0.76829,0.38368 0.0406,-0.19216 -0.1295,-0.53411 -0.39126,-0.7866 z m 5.14639,19.77036 c -0.54593,-0.8925 -2.05716,-1.65668 -4.20439,-2.12603 l -1.82859,-0.39971 0,-1.67185 c 0,-1.34574 0.0928,-1.91205 0.4759,-2.90329 0.26174,-0.6773 0.62406,-1.41881 0.80516,-1.6478 0.29882,-0.37783 0.40364,-0.40024 1.13288,-0.2422 0.44196,0.0958 0.82274,0.20174 0.84614,0.23545 1.6679,2.40153 1.80849,2.67648 2.29752,4.49343 0.28119,1.04471 0.52834,1.9238 0.54923,1.95351 0.0209,0.0297 0.25119,0.002 0.51177,-0.0607 l 0.47378,-0.11469 -0.52136,-1.87458 c -0.55972,-2.01239 -1.03731,-3.03515 -1.91851,-4.10839 l -0.55602,-0.67721 0.65486,-1.76499 c 0.36019,-0.97075 0.71032,-1.8996 0.7781,-2.06412 0.10516,-0.25525 0.3524,-0.16902 1.68574,0.58794 1.47221,0.83579 1.63894,0.88706 2.88504,0.88706 0.72739,0 1.5375,0.0945 1.80024,0.20994 0.45096,0.19819 0.47763,0.28676 0.47665,1.58291 l -0.002,1.37296 -2.25038,3.34671 c -1.2377,1.8407 -2.52428,3.85521 -2.85906,4.4767 -0.33479,0.62148 -0.66365,1.13027 -0.73083,1.13064 -0.0672,3.6e-4 -0.29344,-0.2794 -0.50284,-0.62172 z m -7.74336,-14.81876 c 0.1434,-0.16665 0.52961,-0.29745 0.87832,-0.29745 0.77756,0 1.02321,0.3015 0.26264,0.32236 -0.30609,0.008 -0.74559,0.0731 -0.97671,0.1439 -0.37348,0.11434 -0.39175,0.0956 -0.16425,-0.16881 z m 8.0864,71.02375 c 0,-0.57211 -0.0802,-2.95325 -0.17753,-5.29143 -0.18207,-4.37436 -0.26139,-6.70731 -0.57204,-16.82402 -0.34875,-11.35749 -0.39408,-12.05658 -1.12367,-17.33064 -0.38952,-2.81581 -0.75389,-5.16368 -0.80967,-5.2175 -0.21676,-0.20909 -0.8799,0.15806 -0.8799,0.48717 0,0.19068 0.29389,2.37408 0.65308,4.85201 0.69601,4.80166 0.81244,7.16156 1.62276,32.89527 0.19963,6.33994 0.26692,7.28413 0.52388,7.35083 0.71649,0.18599 0.76371,0.12897 0.76309,-0.92169 z m -4.00452,-8.68337 c -0.29254,-21.96476 -0.33925,-23.80759 -0.70021,-27.62645 -0.19715,-2.08582 -0.35846,-3.97852 -0.35846,-4.206 0,-0.33895 -0.10154,-0.4136 -0.56264,-0.4136 -0.32604,0 -0.56188,0.0951 -0.56084,0.22613 0,0.12437 0.16543,1.77286 0.36541,3.6633 0.26064,2.46367 0.39333,5.46101 0.46852,10.58285 0.0577,3.93013 0.14679,9.58789 0.19797,12.5728 0.0512,2.9849 0.0982,7.43701 0.10447,9.89358 l 0.0114,4.46647 0.50362,0.0742 c 0.27699,0.0408 0.53779,0.0864 0.57954,0.10134 0.0418,0.0149 0.0198,-4.18568 -0.0488,-9.33465 z m -8.93386,-6.51252 c 0.002,-12.12829 0.0596,-16.02553 0.26692,-17.86422 0.14582,-1.29346 0.35825,-3.41003 0.47208,-4.70349 0.11382,-1.29346 0.24887,-2.6068 0.30009,-2.91853 0.0842,-0.51244 0.0415,-0.5741 -0.44585,-0.64309 l -0.53902,-0.0763 -0.22541,2.18077 c -0.96184,9.30533 -0.95023,9.00498 -0.95314,24.65803 l -0.003,14.87931 0.56264,0 0.56265,0 0.002,-15.51247 z m 4.68688,3.96437 c 0,-6.35145 -0.0558,-15.45519 -0.12395,-20.23054 l -0.12395,-8.68244 -0.43869,0.0809 -0.4387,0.0809 0,20.14965 0,20.14965 0.56265,0 0.56264,0 0,-11.5481 z m 24.75631,8.38229 c 0,-1.99784 -0.0374,-2.0258 -1.6637,-1.24409 -1.06353,0.5112 -1.80824,1.3909 -2.01284,2.3777 l -0.1213,0.58497 1.89892,0 1.89892,0 0,-1.71858 z m 5.56617,1.0686 c -0.0601,-0.35749 -0.32202,-0.91892 -0.58194,-1.24762 -0.51309,-0.64885 -2.17019,-1.53956 -2.86425,-1.53956 -0.4207,0 -0.43205,0.0451 -0.43205,1.71858 l 0,1.71858 1.9938,0 1.99378,0 -0.10934,-0.64998 z m -60.89275,-1.26912 0,-1.73819 -0.4606,0.11151 c -1.36822,0.33123 -2.61086,1.24188 -3.03698,2.2256 -0.48294,1.1149 -0.44822,1.13928 1.6221,1.13928 l 1.87548,0 0,-1.7382 z m 5.62572,1.33117 c -0.002,-0.96495 -1.27073,-2.30216 -2.61149,-2.75169 -1.34962,-0.4525 -1.3263,-0.47782 -1.3263,1.44014 l 0,1.71858 1.96925,0 c 1.91736,0 1.96923,-0.0107 1.96854,-0.40703 z m 45.9499,-18.31648 0,-10.40195 -1.31283,0 -1.31284,0 0,10.40195 0,10.40195 1.31284,0 1.31283,0 0,-10.40195 z m 13.3159,0 0,-10.40195 -3.56341,0 -3.56341,0 0,10.40195 0,10.40195 3.56341,0 3.56341,0 0,-10.40195 z m -65.82926,-0.18091 0,-10.40195 -3.46964,0 -3.46963,0 0,10.40195 0,10.40195 3.46963,0 3.46964,0 0,-10.40195 z m 8.95692,0.0452 -0.0484,-10.35673 -1.21904,0 -1.21906,0 -0.0484,10.35673 -0.0484,10.35672 1.31591,0 1.31589,0 -0.0484,-10.35672 z M 193.5042,160.75739 c 0.77381,-1.8585 2.61146,-5.39808 3.86449,-7.44359 6.63279,-10.82767 17.42806,-19.821 29.20818,-24.33278 l 2.01612,-0.77218 0,-2.51102 0,-2.51102 -0.93772,-1.80246 c -0.55759,-1.07177 -0.93773,-2.04416 -0.93773,-2.39866 0,-0.32791 -0.1314,-0.77713 -0.29196,-0.99826 -0.24826,-0.34187 -0.46583,-0.40206 -1.4535,-0.40209 -1.72332,-6e-5 -3.39048,0.62218 -4.12001,1.53771 -1.05914,1.32922 -1.70226,1.89949 -2.14211,1.89949 -0.3341,0 -0.43208,-0.10102 -0.43208,-0.44547 0,-1.37336 2.09947,-5.04302 3.64569,-6.37233 1.18401,-1.0179 3.43231,-2.34932 5.33874,-3.16153 l 1.32181,-0.56316 0.0513,-17.658273 0.0513,-17.658275 0.41551,-0.749402 c 0.51943,-0.936828 1.78737,-1.999576 2.66678,-2.235217 2.3216,-0.622083 4.64682,0.254709 5.61717,2.118121 0.38896,0.746936 0.39661,0.947825 0.39661,10.410996 0,7.263856 0.0556,9.70303 0.22505,9.866448 0.3115,0.300457 0.81717,0.271371 1.16816,-0.06719 0.26036,-0.251134 0.2952,-1.395295 0.29884,-9.814015 0.004,-9.194221 0.0176,-9.558399 0.38598,-10.343804 0.69619,-1.484236 2.18221,-2.341406 4.0702,-2.347772 1.33014,-0.0045 2.09727,0.24975 3.02141,1.001324 1.35198,1.099515 1.32431,0.858273 1.32893,11.590571 0.003,7.471021 0.0563,9.64992 0.23854,9.785932 0.51748,0.386222 0.90512,0.398285 1.27684,0.03973 0.36923,-0.356143 0.37705,-0.572536 0.35824,-9.900363 -0.0215,-10.645727 -0.0598,-10.303338 1.28369,-11.474075 0.96011,-0.836671 1.84393,-1.101778 3.39186,-1.017411 1.56923,0.08553 2.89283,0.82295 3.59259,2.001543 l 0.45879,0.772778 0.0531,9.720401 c 0.0525,9.603671 0.0577,9.722798 0.43946,9.919851 0.21249,0.109694 0.58948,0.150269 0.83776,0.09016 l 0.45139,-0.10928 0,-9.659894 c 0,-9.114641 0.0203,-9.705505 0.35912,-10.467991 0.80656,-1.814984 3.31912,-2.741703 5.70257,-2.103305 0.8848,0.23699 2.08276,1.257 2.62599,2.235906 l 0.40839,0.735954 0.0528,15.676947 0.0528,15.676945 1.13423,0.78527 c 1.72203,1.19224 3.43507,2.51171 3.56551,2.74634 0.20688,0.37214 0.36453,2.36655 0.23605,2.9862 -0.14372,0.69312 -0.48587,0.88457 -1.06863,0.59796 -0.50586,-0.24879 -3.32374,-1.10762 -3.64454,-1.11078 -0.18397,-0.002 -0.23444,1.68482 -0.23444,7.83646 l 0,7.83877 1.82859,0.69414 c 4.70629,1.78654 10.67556,5.13822 14.76271,8.2891 9.22122,7.10885 15.63558,15.78429 19.61915,26.53491 l 0.90494,2.4422 0.01,-47.98494 0.01,-47.984949 -57.71783,0.04552 -57.71783,0.04552 -0.0328,47.939429 -0.0328,47.93942 0.71295,-1.98994 c 0.39212,-1.09446 0.97913,-2.62925 1.30447,-3.41062 z m 91.47598,-59.24146 c -0.44563,-0.47498 -0.38346,-0.99658 0.18406,-1.543991 0.58044,-0.559883 1.29016,-0.614225 2.10813,-0.161415 l 0.56994,0.315516 0.7657,-0.721206 c 2.38904,-2.250192 3.4436,-5.300244 3.63126,-10.502589 l 0.0787,-2.180754 -1.64114,0.789222 c -2.58337,1.242341 -4.48269,1.278496 -5.82262,0.110838 -1.55751,-1.357277 -2.08876,-4.542571 -1.0972,-6.578695 0.98238,-2.017265 3.53132,-3.70432 5.59123,-3.700621 1.82695,0.0033 3.65741,1.188925 4.54074,2.941137 0.36473,0.723512 0.43962,1.21072 0.50349,3.275467 0.2223,7.186521 -2.26058,13.81754 -6.47229,17.285551 -1.00858,0.83049 -1.3384,1.00237 -1.92345,1.00237 -0.4459,0 -0.82051,-0.12192 -1.01651,-0.33083 z m 5.54344,-15.046801 c 0.54543,-0.199452 1.10869,-0.434995 1.25172,-0.523428 0.37018,-0.228888 0.48203,-1.809383 0.2083,-2.943332 -0.69467,-2.87774 -3.71284,-5.117931 -5.58984,-4.148975 -1.1732,0.605635 -1.71445,3.474235 -0.98817,5.237411 0.47737,1.158913 1.2077,2.122923 1.87242,2.47148 0.69901,0.366541 2.09832,0.326377 3.24557,-0.09316 z m -75.99791,13.944141 c -1.57973,-0.469776 -2.24935,-1.15713 -2.24935,-2.308921 0,-0.960006 0.39257,-1.202286 1.94809,-1.202286 1.25051,0 1.61167,0.273159 1.62036,1.225523 l 0.005,0.553361 0.55256,-0.633162 c 0.58188,-0.666791 0.68995,-1.071168 0.36894,-1.380797 -0.34363,-0.331448 0.0167,-0.759957 0.73778,-0.877472 1.15137,-0.187632 2.37037,-1.501481 2.9282,-3.15601 0.28597,-0.848219 0.3012,-1.138791 0.11168,-2.130958 -0.39931,-2.090304 -1.44974,-3.791915 -2.7017,-4.376504 -0.92377,-0.431352 -2.46488,-0.50159 -3.81431,-0.173839 -0.72043,0.174978 -0.89282,0.162194 -1.14933,-0.08522 -0.27733,-0.267506 -0.23788,-0.38308 0.4868,-1.426958 0.4337,-0.624732 1.65635,-2.397678 2.71697,-3.93988 1.58907,-2.310601 2.01524,-2.81387 2.4219,-2.860072 0.63781,-0.07246 1.01097,0.501886 0.6955,1.070459 -0.15118,0.272488 -0.15387,0.436841 -0.009,0.576198 0.53457,0.515629 4.84873,0.176316 5.04663,-0.396923 0.0639,-0.185148 -0.0253,-0.225094 -0.33074,-0.148051 -0.91525,0.230861 -1.24862,-0.375566 -0.61656,-1.121528 0.8488,-1.00175 2.8601,-0.453737 2.8601,0.779283 0,0.884778 -1.03763,1.959941 -2.2586,2.340302 -1.02373,0.318914 -4.07524,0.403117 -5.52463,0.152447 -0.72731,-0.125788 -0.76527,-0.106948 -1.24478,0.617683 -0.92189,1.393137 -0.90212,1.45453 0.50905,1.581638 1.3949,0.125644 3.08009,0.789677 3.89388,1.534346 2.3071,2.111124 2.42158,6.338766 0.26489,9.782598 -0.33541,0.53558 -0.72232,1.171304 -0.85981,1.412719 -0.13749,0.241416 -0.44674,0.525404 -0.68719,0.631082 -0.24046,0.10568 -0.95319,0.824028 -1.58386,1.596329 -1.64281,2.011763 -2.90305,2.731903 -4.13811,2.364613 z m -8.66366,-2.677642 c -0.99241,-0.100701 -1.08633,-0.570904 -0.3021,-1.512223 l 0.6211,-0.745499 -0.002,-7.294096 c 0,-4.011753 -0.0625,-7.353139 -0.13727,-7.425303 -0.0748,-0.07216 -0.47958,0.104755 -0.89946,0.393152 -0.41988,0.288397 -0.91381,0.627086 -1.09761,0.752642 -0.27792,0.189867 -0.38437,0.174645 -0.63256,-0.09045 -0.27824,-0.297209 -0.13978,-0.480624 2.05013,-2.715707 1.29168,-1.318334 2.46295,-2.396971 2.60282,-2.396971 0.13987,0 0.48213,0.10012 0.76056,0.222489 l 0.50625,0.222489 -0.12367,3.983517 c -0.068,2.190934 -0.2126,6.335558 -0.32128,9.210276 l -0.19762,5.226756 0.53291,0.833511 c 0.83157,1.3006 0.6959,1.472536 -1.13337,1.436261 -0.84342,-0.01673 -1.84584,-0.06211 -2.2276,-0.100843 z m 68.91459,-0.18302 c -0.86021,-0.05805 -0.98463,-0.115447 -0.98463,-0.454297 0,-0.21332 0.2321,-0.710759 0.51576,-1.10542 l 0.51576,-0.717566 0.0565,-7.489392 0.0566,-7.489392 -0.43164,0.216168 c -0.2374,0.118892 -0.80164,0.504725 -1.25387,0.857407 -0.78716,0.613889 -0.83326,0.626684 -1.08093,0.299982 -0.14228,-0.187691 -0.23646,-0.396918 -0.20927,-0.464947 0.0272,-0.06803 1.05023,-1.149959 2.27347,-2.404287 2.36568,-2.425805 2.75125,-2.637292 3.49693,-1.918034 0.34454,0.332345 0.36778,0.532108 0.27869,2.396971 -0.149,3.118873 -0.45977,11.92449 -0.49957,14.154945 -0.0278,1.560193 0.0323,2.11443 0.27851,2.566403 0.17271,0.317055 0.39901,0.627135 0.50289,0.689063 0.10388,0.06193 0.18888,0.311314 0.18888,0.554184 0,0.430646 -0.0337,0.440753 -1.35972,0.408118 -0.74785,-0.0184 -1.80281,-0.06336 -2.34435,-0.09991 z m 11.73001,63.131142 0.0551,-1.31342 -8.40102,0.0471 -8.40103,0.0471 -0.057,1.06517 c -0.0314,0.58584 -0.012,1.17826 0.043,1.31649 0.0837,0.21032 1.4547,0.24314 8.40289,0.20116 l 8.30291,-0.0502 0.0552,-1.31342 z m -57.76442,-0.0886 0.0555,-1.2211 -8.54197,0 -8.542,0 0,1.14572 c 0,0.63015 0.0571,1.20082 0.12693,1.26817 0.0698,0.0673 3.88877,0.10126 8.48654,0.0754 l 8.35959,-0.0471 0.0555,-1.2211 z m 44.11205,-7.17612 c 0,-2.57878 0.0436,-4.79829 0.0969,-4.93223 0.07,-0.17597 -0.0731,-0.23711 -0.51575,-0.22038 -0.33695,0.0127 -1.09793,0.0343 -1.69105,0.0478 l -1.0784,0.0247 0,4.76379 c 0,2.62008 0.0563,4.81806 0.12504,4.88439 0.0688,0.0663 0.78615,0.12061 1.59416,0.12061 l 1.46912,0 0,-4.6887 z m 11.53419,-0.24401 0,-4.84224 -3.09454,-0.0113 c -1.702,-0.006 -3.17894,-0.005 -3.28209,0.003 -0.12144,0.009 -0.16894,1.7372 -0.13475,4.90298 l 0.0528,4.88876 3.22929,-0.0495 3.2293,-0.0495 0,-4.84225 z m -64.04756,-0.13259 0,-4.8844 -3.18831,0 -3.18831,0 0,4.8844 0,4.88439 3.18831,0 3.18831,0 0,-4.88439 z m 8.43963,0 0,-4.8844 -1.68791,0 -1.68793,0 0,4.8844 0,4.88439 1.68793,0 1.68791,0 0,-4.88439 z m 43.14012,-8.99995 c 0.005,-2.85477 0.50156,-3.98189 2.09833,-4.76797 1.61778,-0.79643 3.41498,-0.18099 4.37483,1.49816 0.50889,0.89023 0.55585,1.13137 0.61938,3.17936 l 0.0687,2.21606 1.19978,0 1.19976,0 0,-4.04771 c 0,-2.22624 0.0528,-4.30211 0.11722,-4.61304 l 0.11722,-0.56532 -6.02497,0 -6.02498,0 0,4.61304 0,4.61303 1.12529,0 1.12529,0 0.004,-2.12561 z m 5.43169,0.1809 c -0.003,-1.68147 -0.0604,-2.04227 -0.42626,-2.66542 -0.7437,-1.26659 -2.05086,-1.31603 -2.89383,-0.10944 -0.38295,0.54812 -0.42779,0.82755 -0.42779,2.66594 l 0,2.05363 1.87547,0 1.87548,0 -0.003,-1.94471 z m -57.76163,-0.77465 c 0,-2.91477 0.13545,-3.3808 1.26955,-4.3679 0.55249,-0.48087 1.00734,-0.70035 1.64149,-0.79208 1.69416,-0.24505 3.03197,0.45986 3.76857,1.98572 0.39599,0.82028 0.44374,1.17677 0.44537,3.3252 l 0.002,2.40643 0.98463,-0.0547 0.98463,-0.0547 0.05,-4.65827 0.0501,-4.65826 -5.86402,-5e-5 -5.86404,-5e-5 0,4.70347 0,4.70348 1.26595,7e-5 1.26591,6e-5 0,-2.53846 z m 5.43889,0.18672 c 0,-2.08806 -0.0409,-2.39119 -0.36465,-2.70347 -0.71689,-0.69148 -2.58496,-0.63302 -3.21622,0.10065 -0.15062,0.17505 -0.26486,1.11371 -0.31812,2.61385 l -0.0831,2.34071 1.99104,0 1.99107,0 0,-2.35174 z m 52.98223,-9.14854 c -1.56569,-0.94726 -7.63168,-3.69501 -8.15833,-3.69552 -0.0516,-5e-5 -0.0938,0.93608 -0.0938,2.0803 l 0,2.08039 4.50114,-0.006 4.50115,-0.006 -0.75019,-0.45387 z m -49.41885,-1.71786 c 0,-1.99327 -0.002,-2.00157 -0.42198,-1.87527 -1.42108,0.42723 -8.01765,3.55105 -8.01765,3.79679 0,0.0443 1.89892,0.0806 4.21983,0.0806 l 4.2198,0 0,-2.00212 z m 7.07174,-21.80215 c 1.89176,-0.52831 3.14962,-1.13765 3.14962,-1.52574 0,-0.89203 -6.41669,0.23929 -7.73368,1.36353 -0.44211,0.37738 -0.47701,0.47111 -0.2371,0.63676 0.43102,0.2976 2.9409,0.0505 4.82116,-0.47455 z m -2.64054,-1.72035 c 1.39209,-0.42097 2.37908,-0.58934 3.9767,-0.67839 1.63598,-0.0912 2.17588,-0.1855 2.34593,-0.40983 0.74374,-0.98113 4.81859,-2.15081 7.49283,-2.15081 1.54902,0 1.76816,-0.0452 2.55474,-0.5266 1.05672,-0.64676 3.5337,-1.39184 5.58071,-1.67869 1.33647,-0.18728 1.62371,-0.17659 2.25057,0.0838 0.87158,0.36204 1.42767,0.41487 2.38265,0.22634 1.04665,-0.20663 3.77215,0.20254 4.97047,0.7462 1.07305,0.48683 2.40162,0.96804 2.67265,0.96804 0.0923,0 0.16395,-6.553619 0.16395,-14.988235 l 0,-14.988238 -0.42883,-0.614688 c -0.77963,-1.117497 -2.45856,-1.307867 -3.41324,-0.387018 l -0.47153,0.454828 0,9.753103 c 0,10.473503 0.0193,10.252232 -0.96681,11.114858 -1.4416,1.261159 -4.18239,0.876394 -5.21281,-0.731804 -0.37514,-0.585476 -0.38455,-0.836736 -0.38455,-10.262129 0,-10.725994 0.0571,-10.234776 -1.25042,-10.761732 -0.77716,-0.313212 -1.8761,-0.08896 -2.42387,0.494623 -0.34057,0.362838 -0.36255,0.86239 -0.45176,10.267035 -0.0896,9.442159 -0.11041,9.91219 -0.46477,10.477421 -1.11673,1.7813 -4.40911,1.703224 -5.59292,-0.13263 -0.4105,-0.636644 -0.41292,-0.691948 -0.45373,-10.38675 -0.0458,-10.871343 0.01,-10.428689 -1.3468,-10.780972 -0.8368,-0.217343 -1.5429,-0.03262 -2.22248,0.581417 l -0.42198,0.381291 0,9.701837 0,9.701838 -0.54136,0.823413 c -1.32063,2.008653 -4.10611,2.1111 -5.46338,0.200937 l -0.46566,-0.655336 -0.0516,-9.863455 c -0.0573,-10.949281 0.0253,-10.269484 -1.31496,-10.816527 -0.78972,-0.322322 -1.84869,-0.0734 -2.49037,0.585371 l -0.45666,0.468825 -0.0497,17.171299 c -0.0273,9.444208 -0.0167,17.171298 0.0238,17.171298 0.0404,0 0.90675,-0.25197 1.92516,-0.55994 z m 9.26473,-0.35558 c 2.72023,-0.32849 6.08544,-1.58212 5.73118,-2.13502 -0.20409,-0.31852 -2.26232,-0.23877 -4.13318,0.16015 -2.84418,0.60647 -4.94853,1.79212 -3.61907,2.03911 0.23209,0.0431 0.42419,0.0895 0.42691,0.10303 0.003,0.0136 0.72007,-0.0617 1.59416,-0.16727 z m 10.40157,-2.25296 c 2.9755,-0.60795 5.09957,-1.61108 4.40977,-2.08261 -0.61096,-0.41764 -4.76846,0.28707 -6.79591,1.15194 -1.07465,0.45843 -1.37142,0.71703 -1.17487,1.02379 0.16947,0.26447 2.05173,0.21525 3.56101,-0.0931 z m 11.76014,-0.77376 c 0.31537,-0.30419 -0.72099,-0.6794 -2.61383,-0.94634 -1.51135,-0.21314 -3.23616,-0.12039 -3.23616,0.17402 0,0.37249 0.80372,0.63776 3.00077,0.99041 0.83772,0.13446 2.62559,-0.002 2.84922,-0.21809 z"
     style="fill:#000000" />
</svg>
