<svg xmlns="http://www.w3.org/2000/svg" xmlns:xlink="http://www.w3.org/1999/xlink" width="429" height="260">
  <path d="M0 0h429v260H0z" style="fill:red;fill-opacity:1"/>
  <use height="100%" width="100%" xlink:href="#a" x="-120" transform="matrix(.95 0 0 .95 -15.258707 6.619314)"/>
  <g id="a">
    <path style="fill:#fcc917;stroke:#000;stroke-miterlimit:10;fill-opacity:1" d="m179.125 32.8 4.667-3.333s1.666-5.917 5.75-5.917c4.083 0 10.833 2.75 10.833 6.917v10s.75 5.25 8.084 6c7.333.75 29.249 2.5 29.249 2.5l-16.333 11.75 28.167 12.667-16.5 2.417 5.583 12.667s-24.916-15.167-25.583-15.25c.083 2.583.083 6.333.083 6.333l-6.583-4.5-4.25 6.5-2.25-14.75s-1.25.583-1.167 1.583c.084 1 1.25 9 1.25 9l-5.75-5.5-3.5 3.25-.083-7.667 3.917-.167s-13.667-9.5-14.334-15.5c-.644-5.798-.307-3.751 0-5.833.305-2.063 3.334-6 3.5-6.417.167-.417.584-1.25-.25-2.25-.833-1-4.5-4.5-4.5-4.5z" stroke-miterlimit="10" transform="matrix(.95 0 0 .95 10.741293 78.819314)"/>
    <path style="fill:#fcc917;stroke:#000;stroke-linecap:square;stroke-miterlimit:10;fill-opacity:1" d="M190.625 43.8s-9.583 9.298 16.25 18.167c7.373 2.531 27.095-.739 34-1.417 0 0-33.6-10.116-39.258-17.433" stroke-miterlimit="10" transform="matrix(.95 0 0 .95 10.741293 78.819314)"/>
    <path d="M198.625 45.966c3.993 2.171 7.84 4.466 11.794 6.551 1.967 1.056 3.965 2.043 6.001 2.933 2.047.865 4.125 1.654 6.371 2.016-2.282.267-4.605-.235-6.779-.919-2.191-.693-4.276-1.651-6.296-2.706-2.006-1.082-3.951-2.266-5.805-3.58-1.856-1.307-3.649-2.709-5.286-4.295zM196.208 47.216c1.613 1.336 3.235 2.608 4.89 3.82 1.664 1.199 3.351 2.348 5.117 3.352 3.515 2.044 7.272 3.58 11.409 4.245-2.085.283-4.242.058-6.295-.487-2.063-.536-4.023-1.411-5.864-2.46-1.829-1.074-3.546-2.324-5.103-3.745-1.556-1.416-2.997-2.967-4.154-4.725zM193.125 49.133c1.438 1.375 2.913 2.652 4.433 3.858 1.529 1.19 3.099 2.313 4.758 3.276 1.645.987 3.376 1.816 5.173 2.499 1.802.676 3.678 1.165 5.637 1.535-1.979.256-4.024.081-5.984-.417-1.967-.486-3.843-1.309-5.588-2.326-1.734-1.041-3.344-2.276-4.767-3.693-1.424-1.412-2.712-2.972-3.662-4.732zM213.125 69.518l18.167.865-18.167.865.864-.84.053 2.838-2-.059.218-2.83.068-.877zM182.708 33.383c.665-.398 1.406-.399 2.101-.206.343.114.684.28.961.543.277.254.499.603.521.996-.362-.146-.646-.24-.931-.331l-.846-.253c-.568-.188-1.151-.358-1.806-.749zM193.687 30.404s-3.25-1.146-6.625-.729c1.5-1.209 3.75-3.334 6.625.729z" transform="matrix(.95 0 0 .95 10.741293 78.819314)"/>
  </g>
  <use height="100%" width="100%" xlink:href="#a" x="120" transform="matrix(.95 0 0 .95 36.741293 6.619314)"/>
  <g transform="translate(-2)">
    <use transform="matrix(.95 0 0 .95 -.25870733 -23.630686)" y="75" x="-60" xlink:href="#a" width="100%" height="100%"/>
    <use transform="matrix(.95 0 0 .95 31.741293 -23.630686)" y="75" x="60" xlink:href="#a" width="100%" height="100%"/>
  </g>
  <use height="100%" width="100%" xlink:href="#a" y="150" transform="matrix(.95 0 0 .95 10.741293 -53.880686)"/>
  <path style="color:#000;font-style:normal;font-variant:normal;font-weight:400;font-stretch:normal;font-size:medium;line-height:normal;font-family:sans-serif;text-indent:0;text-align:start;text-decoration:none;text-decoration-line:none;text-decoration-style:solid;text-decoration-color:#000;letter-spacing:normal;word-spacing:normal;text-transform:none;direction:ltr;block-progression:tb;writing-mode:lr-tb;baseline-shift:baseline;text-anchor:start;white-space:normal;clip-rule:nonzero;display:inline;overflow:visible;visibility:visible;opacity:1;isolation:auto;mix-blend-mode:normal;color-interpolation:sRGB;color-interpolation-filters:linearRGB;solid-color:#000;solid-opacity:1;fill:#fff;fill-opacity:1;fill-rule:evenodd;stroke:none;stroke-width:13;stroke-linecap:butt;stroke-linejoin:miter;stroke-miterlimit:4;stroke-dasharray:none;stroke-dashoffset:0;stroke-opacity:1;color-rendering:auto;image-rendering:auto;shape-rendering:auto;text-rendering:auto;enable-background:accumulate" d="M2.1484375 67.734375S1.2387612 67.746238 0 67.78125V80.8125c1.2239555-.048525 2.1613112-.075899 2.1796875-.076172.053156.000787 7.3569042.109794 12.3457035 1.060547C29.082664 84.571163 43.235606 89.576998 58.25 92.324219c6.886866 1.260106 14.695313 1.28125 14.695312 1.28125l.070313.001953.070313-.001953s7.808449-.02115 14.695312-1.28125c15.01439-2.747221 29.16734-7.753056 43.72461-10.527344 4.9888-.950754 12.29255-1.05976 12.3457-1.060547.0564.000837 7.35609.11001 12.34375 1.060547 14.55728 2.774288 28.71022 7.780123 43.72461 10.527344 6.88687 1.260106 14.69727 1.28125 14.69727 1.28125l.06836.001953.07031-.001953s7.8104-.02115 14.69726-1.28125c15.01439-2.747221 29.16734-7.753056 43.72461-10.527344 4.98768-.950538 12.28731-1.05971 12.34375-1.060547.0564.000837 7.35609.110009 12.34375 1.060547 14.55728 2.774288 28.71217 7.780123 43.72657 10.527344 6.88687 1.260106 14.69531 1.28125 14.69531 1.28125l.07031.001953.07031-.001953s7.80845-.02115 14.69532-1.28125c15.01438-2.747221 29.16734-7.753056 43.72461-10.527344 4.98767-.950538 12.2873-1.05971 12.34375-1.060547.01568.000233.77374.020549 1.80859.058594V67.767578c-1.05014-.026151-1.77539-.033203-1.77539-.033203H427.16016s-7.80341-.03211-14.7461 1.291016c-15.80397 3.01188-30.00568 8.018685-43.63086 10.511718-5.03806.921827-12.30726 1.064092-12.42578 1.066407-.11851-.0023-7.3877-.144578-12.42578-1.066407-13.62519-2.493033-27.82688-7.499838-43.63086-10.511718-6.94268-1.323122-14.74609-1.291016-14.74609-1.291016h-.06641s-7.80145-.03211-14.74414 1.291016c-15.80397 3.01188-30.00568 8.018685-43.63086 10.511718-5.03919.922032-12.31241 1.064155-12.42773 1.066407-.11852-.0023-7.38771-.144578-12.42578-1.066407-13.62519-2.493033-27.82688-7.499838-43.63086-10.511718-6.94269-1.323122-14.7461-1.291016-14.7461-1.291016H143.81836s-7.8034-.03211-14.74609 1.291016c-15.80397 3.01188-30.005681 8.018685-43.630864 10.511718-5.03807.921827-12.307264 1.064092-12.425781 1.066407-.118517-.0023-7.387714-.144579-12.425781-1.066407-13.625239-2.493033-27.826887-7.499838-43.63086-10.511718-6.942687-1.323121-14.7460934-1.291016-14.7460934-1.291016h-.0644531z"/>
  <path d="m180.98297 57.730404-1.04823-11.516816c4.74292-6.508938 23.54532-8.098447 34.56526-8.705098 11.01994.606651 29.82235 2.19616 34.56526 8.705098l-1.04823 11.516816z" style="fill:#fcc917;fill-opacity:1;fill-rule:evenodd;stroke:#000;stroke-width:.94999999;stroke-linecap:butt;stroke-linejoin:miter;stroke-miterlimit:4;stroke-dasharray:none;stroke-opacity:1"/>
  <g transform="translate(-.37793)">
    <path style="fill:#000;fill-rule:evenodd;stroke:#000;stroke-width:1px;stroke-linecap:butt;stroke-linejoin:miter;stroke-opacity:1" d="m215.01756 19.663102-1.83663-2.820547h3.14852z"/>
    <path d="M220.10207 15.169514c2.13713.05027 3.87054 1.733377 3.87109 3.871093.00053 2.138479-1.73261 3.872495-3.87109 3.873047-.93753-.002-1.84249-.344177-2.54688-.962891.77136 6.37936 2.3702 10.700184 6.0332 13.716797.7753.741399 1.22185 1.765461 1.22266 2.837891.00053 2.138477-1.73261 3.872495-3.87109 3.873047-.92234-.0019-1.81371-.23529-2.64453-.689453.29046.78092.51533 1.427861.51562 2.189453-.00055 2.137717-1.73437 3.870542-3.93312 3.871093-2.19875-.000552-3.93257-1.733377-3.93312-3.871094.00029-.761592.22516-1.408531.51562-2.189453-.83082.454163-1.72219.687553-2.64453.689453-2.13848-.000552-3.87162-1.734568-3.87109-3.873047.00081-1.07243.44736-2.096492 1.22266-2.837891 3.663-3.016613 5.26184-7.337436 6.0332-13.716796-.70439.618713-1.60935.96089-2.54688.96289-2.13848-.000552-3.87162-1.734568-3.87109-3.873047.00055-2.137716 1.73396-3.820823 3.87109-3.871093 2.26948-.05339 3.22846 1.619555 5.22414 4.197266 1.99568-2.57771 2.95466-4.250651 5.22414-4.197265z" style="opacity:1;fill:#fcc917;fill-opacity:1;stroke:#000;stroke-width:.94999999;stroke-miterlimit:4;stroke-dasharray:none;stroke-opacity:1"/>
    <circle style="opacity:1;fill:#fcc917;fill-opacity:1;stroke:#000;stroke-width:.94999999;stroke-miterlimit:4;stroke-dasharray:none;stroke-opacity:1" cx="214.87793" cy="13.715439" r="3.5815716"/>
    <circle r="1.7693596" cy="13.715439" cx="214.87793" style="opacity:1;fill:none;fill-opacity:1;stroke:#000;stroke-width:.69999999;stroke-miterlimit:4;stroke-dasharray:none;stroke-opacity:1"/>
    <g transform="translate(-.03489654)" style="stroke:#000">
      <circle r="1.3325168" cy="38.558289" cx="208.91283" style="opacity:1;fill:none;fill-opacity:1;stroke:#000;stroke-width:.5;stroke-miterlimit:4;stroke-dasharray:none;stroke-opacity:1"/>
      <circle style="opacity:1;fill:none;fill-opacity:1;stroke:#000;stroke-width:.5;stroke-miterlimit:4;stroke-dasharray:none;stroke-opacity:1" cx="220.91283" cy="38.558289" r="1.3325168"/>
    </g>
    <circle style="opacity:1;fill:none;fill-opacity:1;stroke:#000;stroke-width:.5;stroke-miterlimit:4;stroke-dasharray:none;stroke-opacity:1" cx="214.87793" cy="43.930382" r="1.3325168"/>
  </g>
  <g transform="translate(-.364515)">
    <path d="M258.33841 21.420352c-3.81232 3.942263-3.73572 9.726644-4.77749 14.981268l-1.65148-14.450436z" style="fill:#000;fill-rule:evenodd;stroke:none;stroke-width:1px;stroke-linecap:butt;stroke-linejoin:miter;stroke-opacity:1"/>
    <path d="M248.67516 53.072175c-2.15469-.43794-3.50915-2.481041-3.08443-4.576142.15179-.746313.50086-1.335589.94086-2.043122-.90456.279811-1.82454.331216-2.72882.149596-2.09563-.425949-3.44919-2.470083-3.02326-4.565716.21413-1.050835.85548-1.965597 1.76277-2.537948 4.18988-2.227639 6.61631-6.144047 8.6413-12.242459-.81339.466222-1.76833.621536-2.68752.436993-2.09563-.425949-3.44918-2.470083-3.02325-4.565716.42579-2.094881 2.45938-3.399521 4.56379-3.023646 4.05618 1.618225 4.12611 7.357483 3.99402 11.161584-.12446 3.584492-1.7657 18.618818-5.35546 21.806576z" style="opacity:1;fill:#fcc917;fill-opacity:1;stroke:#000;stroke-width:.94999999;stroke-miterlimit:4;stroke-dasharray:none;stroke-opacity:1"/>
    <circle transform="rotate(11.4744217)" style="opacity:1;fill:#fcc917;fill-opacity:1;stroke:#000;stroke-width:.94999999;stroke-miterlimit:4;stroke-dasharray:none;stroke-opacity:1" cx="254.26271" cy="-31.491758" r="3.5815716"/>
    <circle transform="rotate(11.4744217)" r="1.7693596" cy="-31.491758" cx="254.26271" style="opacity:1;fill:none;fill-opacity:1;stroke:#000;stroke-width:.69999999;stroke-miterlimit:4;stroke-dasharray:none;stroke-opacity:1"/>
    <circle transform="rotate(11.4744217)" style="opacity:1;fill:none;fill-opacity:1;stroke:#000;stroke-width:.5;stroke-miterlimit:4;stroke-dasharray:none;stroke-opacity:1" cx="248.26271" cy="-6.6489091" r="1.3325168"/>
    <circle transform="rotate(11.4744217)" style="opacity:1;fill:none;fill-opacity:1;stroke:#000;stroke-width:.5;stroke-miterlimit:4;stroke-dasharray:none;stroke-opacity:1" cx="254.26271" cy="-1.2768159" r="1.3325168"/>
  </g>
  <g transform="matrix(-1 0 0 1 429.364515 0)">
    <path style="fill:#000;fill-rule:evenodd;stroke:none;stroke-width:1px;stroke-linecap:butt;stroke-linejoin:miter;stroke-opacity:1" d="M258.33841 21.420352c-3.81232 3.942263-3.73572 9.726644-4.77749 14.981268l-1.65148-14.450436z"/>
    <path style="opacity:1;fill:#fcc917;fill-opacity:1;stroke:#000;stroke-width:.94999999;stroke-miterlimit:4;stroke-dasharray:none;stroke-opacity:1" d="M248.67516 53.072175c-2.15469-.43794-3.50915-2.481041-3.08443-4.576142.15179-.746313.50086-1.335589.94086-2.043122-.90456.279811-1.82454.331216-2.72882.149596-2.09563-.425949-3.44919-2.470083-3.02326-4.565716.21413-1.050835.85548-1.965597 1.76277-2.537948 4.18988-2.227639 6.61631-6.144047 8.6413-12.242459-.81339.466222-1.76833.621536-2.68752.436993-2.09563-.425949-3.44918-2.470083-3.02325-4.565716.42579-2.094881 2.45938-3.399521 4.56379-3.023646 4.05618 1.618225 4.12611 7.357483 3.99402 11.161584-.12446 3.584492-1.7657 18.618818-5.35546 21.806576z"/>
    <circle r="3.5815716" cy="-31.491758" cx="254.26271" style="opacity:1;fill:#fcc917;fill-opacity:1;stroke:#000;stroke-width:.94999999;stroke-miterlimit:4;stroke-dasharray:none;stroke-opacity:1" transform="rotate(11.4744217)"/>
    <circle style="opacity:1;fill:none;fill-opacity:1;stroke:#000;stroke-width:.69999999;stroke-miterlimit:4;stroke-dasharray:none;stroke-opacity:1" cx="254.26271" cy="-31.491758" r="1.7693596" transform="rotate(11.4744217)"/>
    <circle r="1.3325168" cy="-6.6489091" cx="248.26271" style="opacity:1;fill:none;fill-opacity:1;stroke:#000;stroke-width:.5;stroke-miterlimit:4;stroke-dasharray:none;stroke-opacity:1" transform="rotate(11.4744217)"/>
    <circle r="1.3325168" cy="-1.2768159" cx="254.26271" style="opacity:1;fill:none;fill-opacity:1;stroke:#000;stroke-width:.5;stroke-miterlimit:4;stroke-dasharray:none;stroke-opacity:1" transform="rotate(11.4744217)"/>
  </g>
  <ellipse ry="6.9983892" rx="32.786976" cy="57.245117" cx="214.5" style="opacity:1;fill:#fcc917;fill-opacity:1;stroke:#000;stroke-width:.5;stroke-miterlimit:4;stroke-dasharray:none;stroke-opacity:1"/>
  <path d="M214.5 50.246094a32.786976 6.9983892 0 0 0-32.78711 7 32.786976 6.9983892 0 0 0 7.17188 4.365234 27.226612 5.9438376 0 0 1-1.61133-1.996094A27.226612 5.9438376 0 0 1 214.5 53.671875a27.226612 5.9438376 0 0 1 27.22656 5.943359 27.226612 5.9438376 0 0 1-1.59765 1.984375 32.786976 6.9983892 0 0 0 7.1582-4.353515 32.786976 6.9983892 0 0 0-32.78711-7z" style="opacity:1;fill:#000;fill-opacity:1;stroke:none;stroke-width:.5;stroke-miterlimit:4;stroke-dasharray:none;stroke-opacity:1"/>
  <path d="M214.49902 49.423828a33.629608 7.8208389 0 0 0-33.6289 7.820313 33.629608 7.8208389 0 0 0 33.6289 7.822265 33.629608 7.8208389 0 0 0 33.63086-7.822265 33.629608 7.8208389 0 0 0-33.63086-7.820313zm0 2.541016a29.719189 5.2790666 0 0 1 29.72071 5.279297 29.719189 5.2790666 0 0 1-29.72071 5.279297 29.719189 5.2790666 0 0 1-29.71875-5.279297 29.719189 5.2790666 0 0 1 29.71875-5.279297z" style="opacity:1;fill:#fcc917;fill-opacity:1;stroke:#000;stroke-width:.94999999;stroke-miterlimit:4;stroke-dasharray:none;stroke-opacity:1"/>
</svg>
