<?xml version="1.0" encoding="UTF-8" standalone="no"?>
<!-- Created with Inkscape (http://www.inkscape.org/) -->

<svg
   xmlns:osb="http://www.openswatchbook.org/uri/2009/osb"
   xmlns:dc="http://purl.org/dc/elements/1.1/"
   xmlns:cc="http://creativecommons.org/ns#"
   xmlns:rdf="http://www.w3.org/1999/02/22-rdf-syntax-ns#"
   xmlns:svg="http://www.w3.org/2000/svg"
   xmlns="http://www.w3.org/2000/svg"
   xmlns:sodipodi="http://sodipodi.sourceforge.net/DTD/sodipodi-0.dtd"
   xmlns:inkscape="http://www.inkscape.org/namespaces/inkscape"
   id="svg2985"
   version="1.1"
   inkscape:version="0.91 r13725"
   width="1000"
   height="600"
   sodipodi:docname="North-Yorkshire-Flag.svg">
  <metadata
     id="metadata2991">
    <rdf:RDF>
      <cc:Work
         rdf:about="">
        <dc:format>image/svg+xml</dc:format>
        <dc:type
           rdf:resource="http://purl.org/dc/dcmitype/StillImage" />
        <dc:title></dc:title>
      </cc:Work>
    </rdf:RDF>
  </metadata>
  <defs
     id="defs2989">
    <linearGradient
       id="linearGradient6445"
       osb:paint="solid">
      <stop
         style="stop-color:#000000;stop-opacity:1;"
         offset="0"
         id="stop6447" />
    </linearGradient>
    <linearGradient
       id="linearGradient5439"
       osb:paint="solid">
      <stop
         style="stop-color:#93b76b;stop-opacity:1;"
         offset="0"
         id="stop5441" />
    </linearGradient>
    <filter
       inkscape:collect="always"
       id="filter5728"
       style="color-interpolation-filters:sRGB">
      <feGaussianBlur
         inkscape:collect="always"
         stdDeviation="3.2896318"
         id="feGaussianBlur5730" />
    </filter>
  </defs>
  <sodipodi:namedview
     pagecolor="#ffffff"
     bordercolor="#666666"
     borderopacity="1"
     objecttolerance="10"
     gridtolerance="10"
     guidetolerance="10"
     inkscape:pageopacity="0"
     inkscape:pageshadow="2"
     inkscape:window-width="1600"
     inkscape:window-height="837"
     id="namedview2987"
     showgrid="false"
     showguides="true"
     inkscape:guide-bbox="true"
     inkscape:zoom="0.552"
     inkscape:cx="366.21034"
     inkscape:cy="550.95924"
     inkscape:window-x="-8"
     inkscape:window-y="-8"
     inkscape:window-maximized="1"
     inkscape:current-layer="svg2985"
     fit-margin-top="0"
     fit-margin-left="0"
     fit-margin-right="0"
     fit-margin-bottom="0"
     borderlayer="true">
    <inkscape:grid
       type="xygrid"
       id="grid2995"
       empspacing="5"
       visible="true"
       enabled="true"
       snapvisiblegridlinesonly="true"
       originx="0px"
       originy="0px" />
  </sodipodi:namedview>
  <path
     style="fill:#439541;fill-opacity:1;stroke:none"
     d="M 0,600 0,0 l 1000,0 0,600 z"
     id="path5810"
     inkscape:connector-curvature="0" />
  <g
     id="g3749"
     transform="matrix(-0.5,0,0,0.5,999.95119,-1.249995)">
    <g
       transform="matrix(-0.80901699,0.58778526,-0.58778526,-0.80901699,2167.566,515.71519)"
       id="g5864"
       inkscape:transform-center-x="0.15805084"
       inkscape:transform-center-y="397.64079">
      <path
         sodipodi:nodetypes="cc"
         inkscape:connector-curvature="0"
         id="path5866"
         d="m 1182.5825,358.6967 100.599,-138.46257"
         style="fill:none;stroke:#003100;stroke-width:5;stroke-linecap:butt;stroke-linejoin:miter;stroke-miterlimit:4;stroke-dasharray:none;stroke-opacity:1" />
      <path
         style="fill:#217200;fill-opacity:1;stroke:none"
         d="m 1197.5377,335.15376 c 0.1483,-0.12071 18.8711,-25.82757 41.6069,-57.12589 l 41.334,-56.90829 -38.1706,12.30144 c -20.9943,6.76469 -38.2046,12.3672 -38.2454,12.44983 -0.041,0.0809 0.4522,2.31911 1.0966,4.97339 3.7747,15.5455 4.3575,30.96826 1.8006,47.64174 -1.6274,10.6107 -4.641,22.2839 -8.3948,32.51545 -1.3961,3.80542 -1.5967,4.61343 -1.0303,4.15107 l 0,0 z"
         id="path5868"
         inkscape:connector-curvature="0" />
      <path
         sodipodi:nodetypes="ccc"
         inkscape:connector-curvature="0"
         id="path5870"
         d="m 1285,305 0,-87 -82.7418,26.88442"
         style="fill:none;stroke:#003100;stroke-width:5;stroke-linecap:square;stroke-linejoin:miter;stroke-miterlimit:4;stroke-dasharray:none;stroke-opacity:1" />
      <path
         inkscape:connector-curvature="0"
         id="path5872"
         d="m 1200.001,337.65119 c 0.069,-0.17816 18.732,-25.92861 41.4728,-57.22322 l 41.3466,-56.89928 0.096,40.10383 c 0.054,22.0571 0.044,40.15646 -0.022,40.22082 -0.064,0.0643 -2.3453,0.28658 -5.0689,0.49384 -15.951,1.21389 -30.799,5.42546 -45.8663,13.00976 -9.5884,4.82647 -19.7591,11.29993 -28.3299,18.03169 -3.1878,2.50368 -3.8943,2.94415 -3.6295,2.26256 l 0,0 z"
         style="fill:#5ab124;fill-opacity:1;stroke:none" />
    </g>
    <g
       inkscape:transform-center-y="127.86584"
       inkscape:transform-center-x="378.20329"
       id="g5854"
       transform="matrix(-0.809017,-0.58778525,0.58778525,-0.809017,1450.4679,1691.2856)">
      <path
         style="fill:none;stroke:#003100;stroke-width:5;stroke-linecap:butt;stroke-linejoin:miter;stroke-miterlimit:4;stroke-dasharray:none;stroke-opacity:1"
         d="m 1182.5825,358.6967 100.599,-138.46257"
         id="path5856"
         inkscape:connector-curvature="0"
         sodipodi:nodetypes="cc" />
      <path
         inkscape:connector-curvature="0"
         id="path5858"
         d="m 1197.5377,335.15376 c 0.1483,-0.12071 18.8711,-25.82757 41.6069,-57.12589 l 41.334,-56.90829 -38.1706,12.30144 c -20.9943,6.76469 -38.2046,12.3672 -38.2454,12.44983 -0.041,0.0809 0.4522,2.31911 1.0966,4.97339 3.7747,15.5455 4.3575,30.96826 1.8006,47.64174 -1.6274,10.6107 -4.641,22.2839 -8.3948,32.51545 -1.3961,3.80542 -1.5967,4.61343 -1.0303,4.15107 l 0,0 z"
         style="fill:#217200;fill-opacity:1;stroke:none" />
      <path
         style="fill:none;stroke:#003100;stroke-width:5;stroke-linecap:square;stroke-linejoin:miter;stroke-miterlimit:4;stroke-dasharray:none;stroke-opacity:1"
         d="m 1285,305 0,-87 -82.7418,26.88442"
         id="path5860"
         inkscape:connector-curvature="0"
         sodipodi:nodetypes="ccc" />
      <path
         style="fill:#5ab124;fill-opacity:1;stroke:none"
         d="m 1200.001,337.65119 c 0.069,-0.17816 18.732,-25.92861 41.4728,-57.22322 l 41.3466,-56.89928 0.096,40.10383 c 0.054,22.0571 0.044,40.15646 -0.022,40.22082 -0.064,0.0643 -2.3453,0.28658 -5.0689,0.49384 -15.951,1.21389 -30.799,5.42546 -45.8663,13.00976 -9.5884,4.82647 -19.7591,11.29993 -28.3299,18.03169 -3.1878,2.50368 -3.8943,2.94415 -3.6295,2.26256 l 0,0 z"
         id="path5862"
         inkscape:connector-curvature="0" />
    </g>
    <g
       transform="matrix(0.30901699,-0.95105652,0.95105652,0.30901699,110.83853,1372.5561)"
       id="g5844"
       inkscape:transform-center-x="233.66344"
       inkscape:transform-center-y="-321.74457">
      <path
         sodipodi:nodetypes="cc"
         inkscape:connector-curvature="0"
         id="path5846"
         d="m 1182.5825,358.6967 100.599,-138.46257"
         style="fill:none;stroke:#003100;stroke-width:5;stroke-linecap:butt;stroke-linejoin:miter;stroke-miterlimit:4;stroke-dasharray:none;stroke-opacity:1" />
      <path
         style="fill:#217200;fill-opacity:1;stroke:none"
         d="m 1197.5377,335.15376 c 0.1483,-0.12071 18.8711,-25.82757 41.6069,-57.12589 l 41.334,-56.90829 -38.1706,12.30144 c -20.9943,6.76469 -38.2046,12.3672 -38.2454,12.44983 -0.041,0.0809 0.4522,2.31911 1.0966,4.97339 3.7747,15.5455 4.3575,30.96826 1.8006,47.64174 -1.6274,10.6107 -4.641,22.2839 -8.3948,32.51545 -1.3961,3.80542 -1.5967,4.61343 -1.0303,4.15107 l 0,0 z"
         id="path5848"
         inkscape:connector-curvature="0" />
      <path
         sodipodi:nodetypes="ccc"
         inkscape:connector-curvature="0"
         id="path5850"
         d="m 1285,305 0,-87 -82.7418,26.88442"
         style="fill:none;stroke:#003100;stroke-width:5;stroke-linecap:square;stroke-linejoin:miter;stroke-miterlimit:4;stroke-dasharray:none;stroke-opacity:1" />
      <path
         inkscape:connector-curvature="0"
         id="path5852"
         d="m 1200.001,337.65119 c 0.069,-0.17816 18.732,-25.92861 41.4728,-57.22322 l 41.3466,-56.89928 0.096,40.10383 c 0.054,22.0571 0.044,40.15646 -0.022,40.22082 -0.064,0.0643 -2.3453,0.28658 -5.0689,0.49384 -15.951,1.21389 -30.799,5.42546 -45.8663,13.00976 -9.5884,4.82647 -19.7591,11.29993 -28.3299,18.03169 -3.1878,2.50368 -3.8943,2.94415 -3.6295,2.26256 l 0,0 z"
         style="fill:#5ab124;fill-opacity:1;stroke:none" />
    </g>
    <path
       sodipodi:nodetypes="cccccc"
       inkscape:connector-curvature="0"
       id="path6303"
       d="m 830,550 170,-120 170,120 -70,200 -205,0 z"
       style="fill:#ffffff;fill-opacity:1;stroke:none" />
    <g
       inkscape:transform-center-y="-321.65165"
       inkscape:transform-center-x="-233.79125"
       id="g5838">
      <path
         style="fill:none;stroke:#003100;stroke-width:5;stroke-linecap:butt;stroke-linejoin:miter;stroke-miterlimit:4;stroke-dasharray:none;stroke-opacity:1"
         d="m 1182.5825,358.6967 100.599,-138.46257"
         id="path2999-1-7"
         inkscape:connector-curvature="0"
         sodipodi:nodetypes="cc" />
      <path
         inkscape:connector-curvature="0"
         id="path5816"
         d="m 1197.5377,335.15376 c 0.1483,-0.12071 18.8711,-25.82757 41.6069,-57.12589 l 41.334,-56.90829 -38.1706,12.30144 c -20.9943,6.76469 -38.2046,12.3672 -38.2454,12.44983 -0.041,0.0809 0.4522,2.31911 1.0966,4.97339 3.7747,15.5455 4.3575,30.96826 1.8006,47.64174 -1.6274,10.6107 -4.641,22.2839 -8.3948,32.51545 -1.3961,3.80542 -1.5967,4.61343 -1.0303,4.15107 l 0,0 z"
         style="fill:#217200;fill-opacity:1;stroke:none" />
      <path
         style="fill:none;stroke:#003100;stroke-width:5;stroke-linecap:square;stroke-linejoin:miter;stroke-miterlimit:4;stroke-dasharray:none;stroke-opacity:1"
         d="m 1285,305 0,-87 -82.7418,26.88442"
         id="path5792"
         inkscape:connector-curvature="0"
         sodipodi:nodetypes="ccc" />
      <path
         style="fill:#5ab124;fill-opacity:1;stroke:none"
         d="m 1200.001,337.65119 c 0.069,-0.17816 18.732,-25.92861 41.4728,-57.22322 l 41.3466,-56.89928 0.096,40.10383 c 0.054,22.0571 0.044,40.15646 -0.022,40.22082 -0.064,0.0643 -2.3453,0.28658 -5.0689,0.49384 -15.951,1.21389 -30.799,5.42546 -45.8663,13.00976 -9.5884,4.82647 -19.7591,11.29993 -28.3299,18.03169 -3.1878,2.50368 -3.8943,2.94415 -3.6295,2.26256 l 0,0 z"
         id="path5814"
         inkscape:connector-curvature="0" />
    </g>
    <g
       inkscape:transform-center-y="128.16651"
       inkscape:transform-center-x="-378.15449"
       id="g5874"
       transform="matrix(0.309017,0.95105651,-0.95105651,0.309017,1271.1276,-529.55686)">
      <path
         style="fill:none;stroke:#003100;stroke-width:5;stroke-linecap:butt;stroke-linejoin:miter;stroke-miterlimit:4;stroke-dasharray:none;stroke-opacity:1"
         d="m 1182.5825,358.6967 100.599,-138.46257"
         id="path5876"
         inkscape:connector-curvature="0"
         sodipodi:nodetypes="cc" />
      <path
         inkscape:connector-curvature="0"
         id="path5878"
         d="m 1197.5377,335.15376 c 0.1483,-0.12071 18.8711,-25.82757 41.6069,-57.12589 l 41.334,-56.90829 -38.1706,12.30144 c -20.9943,6.76469 -38.2046,12.3672 -38.2454,12.44983 -0.041,0.0809 0.4522,2.31911 1.0966,4.97339 3.7747,15.5455 4.3575,30.96826 1.8006,47.64174 -1.6274,10.6107 -4.641,22.2839 -8.3948,32.51545 -1.3961,3.80542 -1.5967,4.61343 -1.0303,4.15107 l 0,0 z"
         style="fill:#217200;fill-opacity:1;stroke:none" />
      <path
         style="fill:none;stroke:#003100;stroke-width:5;stroke-linecap:square;stroke-linejoin:miter;stroke-miterlimit:4;stroke-dasharray:none;stroke-opacity:1"
         d="m 1285,305 0,-87 -82.7418,26.88442"
         id="path5880"
         inkscape:connector-curvature="0"
         sodipodi:nodetypes="ccc" />
      <path
         style="fill:#5ab124;fill-opacity:1;stroke:none"
         d="m 1200.001,337.65119 c 0.069,-0.17816 18.732,-25.92861 41.4728,-57.22322 l 41.3466,-56.89928 0.096,40.10383 c 0.054,22.0571 0.044,40.15646 -0.022,40.22082 -0.064,0.0643 -2.3453,0.28658 -5.0689,0.49384 -15.951,1.21389 -30.799,5.42546 -45.8663,13.00976 -9.5884,4.82647 -19.7591,11.29993 -28.3299,18.03169 -3.1878,2.50368 -3.8943,2.94415 -3.6295,2.26256 l 0,0 z"
         id="path5882"
         inkscape:connector-curvature="0" />
    </g>
    <g
       style="fill:#ffffff;fill-opacity:1;stroke:#6a5000;stroke-opacity:1"
       inkscape:transform-center-y="-16.253018"
       id="g5637">
      <path
         style="fill:#ffffff;fill-opacity:1;stroke:#6a5000;stroke-width:10;stroke-linecap:butt;stroke-linejoin:miter;stroke-miterlimit:4;stroke-dasharray:none;stroke-opacity:1"
         d="m 840,390 c -130,-180 50,-245 160,-245 110,0 290,65 160,245"
         id="path5479"
         inkscape:connector-curvature="0"
         sodipodi:nodetypes="czc"
         inkscape:transform-center-y="-342.5" />
      <path
         inkscape:transform-center-y="-102.39031"
         sodipodi:nodetypes="czc"
         inkscape:connector-curvature="0"
         id="path5629"
         d="M 741.32485,694.1853 C 529.96247,762.1996 523.76686,570.92332 557.75872,466.3071 591.75059,361.69088 709.19233,210.58681 840.21032,389.8472"
         style="fill:#ffffff;fill-opacity:1;stroke:#6a5000;stroke-width:10;stroke-linecap:butt;stroke-linejoin:miter;stroke-miterlimit:4;stroke-dasharray:none;stroke-opacity:1"
         inkscape:transform-center-x="308.76435" />
      <path
         inkscape:transform-center-x="190.47535"
         style="fill:#ffffff;fill-opacity:1;stroke:#6a5000;stroke-width:10;stroke-linecap:butt;stroke-linejoin:miter;stroke-miterlimit:4;stroke-dasharray:none;stroke-opacity:1"
         d="M 1000.13,882.02938 C 999.50085,1104.0645 815.67174,1050.8493 726.67987,986.19291 637.688,921.53653 530.27098,763.14907 741.24453,693.93806"
         id="path5631"
         inkscape:connector-curvature="0"
         sodipodi:nodetypes="czc"
         inkscape:transform-center-y="258.21602" />
      <path
         inkscape:transform-center-y="258.21603"
         sodipodi:nodetypes="czc"
         inkscape:connector-curvature="0"
         id="path5633"
         d="m 1258.7555,693.93808 c 210.9735,69.21099 103.5565,227.59844 14.5646,292.25482 -88.9918,64.6564 -272.8209,117.8716 -273.45009,-104.16354"
         style="fill:#ffffff;fill-opacity:1;stroke:#6a5000;stroke-width:10;stroke-linecap:butt;stroke-linejoin:miter;stroke-miterlimit:4;stroke-dasharray:none;stroke-opacity:1"
         inkscape:transform-center-x="-190.47534" />
      <path
         inkscape:transform-center-x="-308.76437"
         style="fill:#ffffff;fill-opacity:1;stroke:#6a5000;stroke-width:10;stroke-linecap:butt;stroke-linejoin:miter;stroke-miterlimit:4;stroke-dasharray:none;stroke-opacity:1"
         d="m 1159.7897,389.84717 c 131.018,-179.26032 248.4597,-28.15625 282.4516,76.45994 33.9919,104.61616 27.7963,295.89248 -183.5662,227.87821"
         id="path5635"
         inkscape:connector-curvature="0"
         sodipodi:nodetypes="czc"
         inkscape:transform-center-y="-102.39029" />
    </g>
    <g
       inkscape:transform-center-y="-321.74457"
       inkscape:transform-center-x="233.66344"
       id="g6173"
       transform="matrix(-0.5811606,0,0,-0.5811606,1581.1171,960.86932)">
      <path
         style="fill:none;stroke:#003100;stroke-width:5;stroke-linecap:butt;stroke-linejoin:miter;stroke-miterlimit:4;stroke-dasharray:none;stroke-opacity:1"
         d="m 1182.5825,358.6967 100.599,-138.46257"
         id="path6175"
         inkscape:connector-curvature="0"
         sodipodi:nodetypes="cc" />
      <path
         inkscape:connector-curvature="0"
         id="path6177"
         d="m 1197.5377,335.15376 c 0.1483,-0.12071 18.8711,-25.82757 41.6069,-57.12589 l 41.334,-56.90829 -38.1706,12.30144 c -20.9943,6.76469 -38.2046,12.3672 -38.2454,12.44983 -0.041,0.0809 0.4522,2.31911 1.0966,4.97339 3.7747,15.5455 4.3575,30.96826 1.8006,47.64174 -1.6274,10.6107 -4.641,22.2839 -8.3948,32.51545 -1.3961,3.80542 -1.5967,4.61343 -1.0303,4.15107 l 0,0 z"
         style="fill:#217200;fill-opacity:1;stroke:none" />
      <path
         style="fill:none;stroke:#003100;stroke-width:5;stroke-linecap:square;stroke-linejoin:miter;stroke-miterlimit:4;stroke-dasharray:none;stroke-opacity:1"
         d="m 1285,305 0,-87 -82.7418,26.88442"
         id="path6179"
         inkscape:connector-curvature="0"
         sodipodi:nodetypes="ccc" />
      <path
         style="fill:#5ab124;fill-opacity:1;stroke:none"
         d="m 1200.001,337.65119 c 0.069,-0.17816 18.732,-25.92861 41.4728,-57.22322 l 41.3466,-56.89928 0.096,40.10383 c 0.054,22.0571 0.044,40.15646 -0.022,40.22082 -0.064,0.0643 -2.3453,0.28658 -5.0689,0.49384 -15.951,1.21389 -30.799,5.42546 -45.8663,13.00976 -9.5884,4.82647 -19.7591,11.29993 -28.3299,18.03169 -3.1878,2.50368 -3.8943,2.94415 -3.6295,2.26256 l 0,0 z"
         id="path6181"
         inkscape:connector-curvature="0" />
    </g>
    <path
       style="fill:#d1d159;fill-opacity:1;stroke:#d1d159;stroke-width:3.20000005;stroke-linecap:butt;stroke-linejoin:miter;stroke-miterlimit:4;stroke-dasharray:none;stroke-opacity:1;filter:url(#filter5728)"
       d="m 1105,245 c -30,0 -63.0005,20 -105,20 -41.99953,0 -75,-20 -105,-20 -30,0 -45,20 -5,80 -95,-70 -35,-117 5,-117 40,0 63.00047,17 105,17 41.9995,0 65,-17 105,-17 40,0 100,47 5,117 40,-60 25,-80 -5,-80 z"
       id="path5672"
       inkscape:connector-curvature="0"
       sodipodi:nodetypes="zzzczzscz" />
    <g
       transform="matrix(0.47016879,-0.34159763,0.34159763,0.47016879,321.41319,661.15594)"
       id="g6203"
       inkscape:transform-center-x="-378.15449"
       inkscape:transform-center-y="128.16651">
      <path
         sodipodi:nodetypes="cc"
         inkscape:connector-curvature="0"
         id="path6205"
         d="m 1182.5825,358.6967 100.599,-138.46257"
         style="fill:none;stroke:#003100;stroke-width:5;stroke-linecap:butt;stroke-linejoin:miter;stroke-miterlimit:4;stroke-dasharray:none;stroke-opacity:1" />
      <path
         style="fill:#217200;fill-opacity:1;stroke:none"
         d="m 1197.5377,335.15376 c 0.1483,-0.12071 18.8711,-25.82757 41.6069,-57.12589 l 41.334,-56.90829 -38.1706,12.30144 c -20.9943,6.76469 -38.2046,12.3672 -38.2454,12.44983 -0.041,0.0809 0.4522,2.31911 1.0966,4.97339 3.7747,15.5455 4.3575,30.96826 1.8006,47.64174 -1.6274,10.6107 -4.641,22.2839 -8.3948,32.51545 -1.3961,3.80542 -1.5967,4.61343 -1.0303,4.15107 l 0,0 z"
         id="path6207"
         inkscape:connector-curvature="0" />
      <path
         sodipodi:nodetypes="ccc"
         inkscape:connector-curvature="0"
         id="path6209"
         d="m 1285,305 0,-87 -82.7418,26.88442"
         style="fill:none;stroke:#003100;stroke-width:5;stroke-linecap:square;stroke-linejoin:miter;stroke-miterlimit:4;stroke-dasharray:none;stroke-opacity:1" />
      <path
         inkscape:connector-curvature="0"
         id="path6211"
         d="m 1200.001,337.65119 c 0.069,-0.17816 18.732,-25.92861 41.4728,-57.22322 l 41.3466,-56.89928 0.096,40.10383 c 0.054,22.0571 0.044,40.15646 -0.022,40.22082 -0.064,0.0643 -2.3453,0.28658 -5.0689,0.49384 -15.951,1.21389 -30.799,5.42546 -45.8663,13.00976 -9.5884,4.82647 -19.7591,11.29993 -28.3299,18.03169 -3.1878,2.50368 -3.8943,2.94415 -3.6295,2.26256 l 0,0 z"
         style="fill:#5ab124;fill-opacity:1;stroke:none" />
    </g>
    <path
       sodipodi:nodetypes="czzsc"
       inkscape:connector-curvature="0"
       id="path5668"
       d="m 890,325 c -95,-70 -35,-117 5,-117 40,0 63.00047,17 105,17 41.9995,0 65,-17 105,-17 40,0 100,47 5,117"
       style="fill:none;stroke:#6a5000;stroke-width:10;stroke-linecap:butt;stroke-linejoin:miter;stroke-miterlimit:4;stroke-dasharray:none;stroke-opacity:1" />
    <g
       inkscape:transform-center-x="327.34386"
       transform="matrix(0.30901699,-0.95105651,0.95105651,0.30901699,110.83853,1372.5562)"
       id="g5764"
       inkscape:transform-center-y="-109.75805">
      <path
         style="fill:#d1d159;fill-opacity:1;stroke:#d1d159;stroke-width:3.20000005;stroke-linecap:butt;stroke-linejoin:miter;stroke-miterlimit:4;stroke-dasharray:none;stroke-opacity:1;filter:url(#filter5728)"
         d="m 1105,245 c -30,0 -63.0005,20 -105,20 -41.99953,0 -75,-20 -105,-20 -30,0 -45,20 -5,80 -95,-70 -35,-117 5,-117 40,0 63.00047,17 105,17 41.9995,0 65,-17 105,-17 40,0 100,47 5,117 40,-60 25,-80 -5,-80 z"
         id="path5766"
         inkscape:connector-curvature="0"
         sodipodi:nodetypes="zzzczzscz" />
      <path
         sodipodi:nodetypes="czzsc"
         inkscape:connector-curvature="0"
         id="path5768"
         d="m 890,325 c -95,-70 -35,-117 5,-117 40,0 63.00047,17 105,17 41.9995,0 65,-17 105,-17 40,0 100,47 5,117"
         style="fill:none;stroke:#6a5000;stroke-width:10;stroke-linecap:butt;stroke-linejoin:miter;stroke-miterlimit:4;stroke-dasharray:none;stroke-opacity:1" />
    </g>
    <g
       inkscape:transform-center-y="282.33571"
       id="g5770"
       transform="matrix(-0.80901699,-0.58778525,0.58778525,-0.80901699,1450.468,1691.2856)"
       inkscape:transform-center-x="207.85891">
      <path
         sodipodi:nodetypes="zzzczzscz"
         inkscape:connector-curvature="0"
         id="path5772"
         d="m 1105,245 c -30,0 -63.0005,20 -105,20 -41.99953,0 -75,-20 -105,-20 -30,0 -45,20 -5,80 -95,-70 -35,-117 5,-117 40,0 63.00047,17 105,17 41.9995,0 65,-17 105,-17 40,0 100,47 5,117 40,-60 25,-80 -5,-80 z"
         style="fill:#d1d159;fill-opacity:1;stroke:#d1d159;stroke-width:3.20000005;stroke-linecap:butt;stroke-linejoin:miter;stroke-miterlimit:4;stroke-dasharray:none;stroke-opacity:1;filter:url(#filter5728)" />
      <path
         style="fill:none;stroke:#6a5000;stroke-width:10;stroke-linecap:butt;stroke-linejoin:miter;stroke-miterlimit:4;stroke-dasharray:none;stroke-opacity:1"
         d="m 890,325 c -95,-70 -35,-117 5,-117 40,0 63.00047,17 105,17 41.9995,0 65,-17 105,-17 40,0 100,47 5,117"
         id="path5774"
         inkscape:connector-curvature="0"
         sodipodi:nodetypes="czzsc" />
    </g>
    <g
       transform="matrix(-0.1795885,0.55271657,-0.55271657,-0.1795885,1516.7022,163.19381)"
       id="g6183"
       inkscape:transform-center-x="378.20329"
       inkscape:transform-center-y="127.86584">
      <path
         sodipodi:nodetypes="cc"
         inkscape:connector-curvature="0"
         id="path6185"
         d="m 1182.5825,358.6967 100.599,-138.46257"
         style="fill:none;stroke:#003100;stroke-width:5;stroke-linecap:butt;stroke-linejoin:miter;stroke-miterlimit:4;stroke-dasharray:none;stroke-opacity:1" />
      <path
         style="fill:#217200;fill-opacity:1;stroke:none"
         d="m 1197.5377,335.15376 c 0.1483,-0.12071 18.8711,-25.82757 41.6069,-57.12589 l 41.334,-56.90829 -38.1706,12.30144 c -20.9943,6.76469 -38.2046,12.3672 -38.2454,12.44983 -0.041,0.0809 0.4522,2.31911 1.0966,4.97339 3.7747,15.5455 4.3575,30.96826 1.8006,47.64174 -1.6274,10.6107 -4.641,22.2839 -8.3948,32.51545 -1.3961,3.80542 -1.5967,4.61343 -1.0303,4.15107 l 0,0 z"
         id="path6187"
         inkscape:connector-curvature="0" />
      <path
         sodipodi:nodetypes="ccc"
         inkscape:connector-curvature="0"
         id="path6189"
         d="m 1285,305 0,-87 -82.7418,26.88442"
         style="fill:none;stroke:#003100;stroke-width:5;stroke-linecap:square;stroke-linejoin:miter;stroke-miterlimit:4;stroke-dasharray:none;stroke-opacity:1" />
      <path
         inkscape:connector-curvature="0"
         id="path6191"
         d="m 1200.001,337.65119 c 0.069,-0.17816 18.732,-25.92861 41.4728,-57.22322 l 41.3466,-56.89928 0.096,40.10383 c 0.054,22.0571 0.044,40.15646 -0.022,40.22082 -0.064,0.0643 -2.3453,0.28658 -5.0689,0.49384 -15.951,1.21389 -30.799,5.42546 -45.8663,13.00976 -9.5884,4.82647 -19.7591,11.29993 -28.3299,18.03169 -3.1878,2.50368 -3.8943,2.94415 -3.6295,2.26256 l 0,0 z"
         style="fill:#5ab124;fill-opacity:1;stroke:none" />
    </g>
    <g
       inkscape:transform-center-x="-207.85893"
       transform="matrix(-0.80901699,0.58778525,-0.58778525,-0.80901699,2167.566,515.71511)"
       id="g5776"
       inkscape:transform-center-y="282.33572">
      <path
         style="fill:#d1d159;fill-opacity:1;stroke:#d1d159;stroke-width:3.20000005;stroke-linecap:butt;stroke-linejoin:miter;stroke-miterlimit:4;stroke-dasharray:none;stroke-opacity:1;filter:url(#filter5728)"
         d="m 1105,245 c -30,0 -63.0005,20 -105,20 -41.99953,0 -75,-20 -105,-20 -30,0 -45,20 -5,80 -95,-70 -35,-117 5,-117 40,0 63.00047,17 105,17 41.9995,0 65,-17 105,-17 40,0 100,47 5,117 40,-60 25,-80 -5,-80 z"
         id="path5778"
         inkscape:connector-curvature="0"
         sodipodi:nodetypes="zzzczzscz" />
      <path
         sodipodi:nodetypes="czzsc"
         inkscape:connector-curvature="0"
         id="path5780"
         d="m 890,325 c -95,-70 -35,-117 5,-117 40,0 63.00047,17 105,17 41.9995,0 65,-17 105,-17 40,0 100,47 5,117"
         style="fill:none;stroke:#6a5000;stroke-width:10;stroke-linecap:butt;stroke-linejoin:miter;stroke-miterlimit:4;stroke-dasharray:none;stroke-opacity:1" />
    </g>
    <g
       inkscape:transform-center-y="397.64079"
       inkscape:transform-center-x="0.15805084"
       id="g6193"
       transform="matrix(0.4701688,0.34159762,-0.34159762,0.4701688,738.16234,-22.039262)">
      <path
         style="fill:none;stroke:#003100;stroke-width:5;stroke-linecap:butt;stroke-linejoin:miter;stroke-miterlimit:4;stroke-dasharray:none;stroke-opacity:1"
         d="m 1182.5825,358.6967 100.599,-138.46257"
         id="path6195"
         inkscape:connector-curvature="0"
         sodipodi:nodetypes="cc" />
      <path
         inkscape:connector-curvature="0"
         id="path6197"
         d="m 1197.5377,335.15376 c 0.1483,-0.12071 18.8711,-25.82757 41.6069,-57.12589 l 41.334,-56.90829 -38.1706,12.30144 c -20.9943,6.76469 -38.2046,12.3672 -38.2454,12.44983 -0.041,0.0809 0.4522,2.31911 1.0966,4.97339 3.7747,15.5455 4.3575,30.96826 1.8006,47.64174 -1.6274,10.6107 -4.641,22.2839 -8.3948,32.51545 -1.3961,3.80542 -1.5967,4.61343 -1.0303,4.15107 l 0,0 z"
         style="fill:#217200;fill-opacity:1;stroke:none" />
      <path
         style="fill:none;stroke:#003100;stroke-width:5;stroke-linecap:square;stroke-linejoin:miter;stroke-miterlimit:4;stroke-dasharray:none;stroke-opacity:1"
         d="m 1285,305 0,-87 -82.7418,26.88442"
         id="path6199"
         inkscape:connector-curvature="0"
         sodipodi:nodetypes="ccc" />
      <path
         style="fill:#5ab124;fill-opacity:1;stroke:none"
         d="m 1200.001,337.65119 c 0.069,-0.17816 18.732,-25.92861 41.4728,-57.22322 l 41.3466,-56.89928 0.096,40.10383 c 0.054,22.0571 0.044,40.15646 -0.022,40.22082 -0.064,0.0643 -2.3453,0.28658 -5.0689,0.49384 -15.951,1.21389 -30.799,5.42546 -45.8663,13.00976 -9.5884,4.82647 -19.7591,11.29993 -28.3299,18.03169 -3.1878,2.50368 -3.8943,2.94415 -3.6295,2.26256 l 0,0 z"
         id="path6201"
         inkscape:connector-curvature="0" />
    </g>
    <g
       inkscape:transform-center-y="-109.75814"
       id="g5782"
       transform="matrix(0.30901699,0.95105651,-0.95105651,0.30901699,1271.1275,-529.55691)"
       inkscape:transform-center-x="-327.34387">
      <path
         sodipodi:nodetypes="zzzczzscz"
         inkscape:connector-curvature="0"
         id="path5784"
         d="m 1105,245 c -30,0 -63.0005,20 -105,20 -41.99953,0 -75,-20 -105,-20 -30,0 -45,20 -5,80 -95,-70 -35,-117 5,-117 40,0 63.00047,17 105,17 41.9995,0 65,-17 105,-17 40,0 100,47 5,117 40,-60 25,-80 -5,-80 z"
         style="fill:#d1d159;fill-opacity:1;stroke:#d1d159;stroke-width:3.20000005;stroke-linecap:butt;stroke-linejoin:miter;stroke-miterlimit:4;stroke-dasharray:none;stroke-opacity:1;filter:url(#filter5728)" />
      <path
         style="fill:none;stroke:#6a5000;stroke-width:10;stroke-linecap:butt;stroke-linejoin:miter;stroke-miterlimit:4;stroke-dasharray:none;stroke-opacity:1"
         d="m 890,325 c -95,-70 -35,-117 5,-117 40,0 63.00047,17 105,17 41.9995,0 65,-17 105,-17 40,0 100,47 5,117"
         id="path5786"
         inkscape:connector-curvature="0"
         sodipodi:nodetypes="czzsc" />
    </g>
    <g
       transform="matrix(-0.1795885,-0.55271657,0.55271657,-0.1795885,842.38794,1268.6269)"
       id="g6123"
       inkscape:transform-center-x="-233.79125"
       inkscape:transform-center-y="-321.65165">
      <path
         sodipodi:nodetypes="cc"
         inkscape:connector-curvature="0"
         id="path6125"
         d="m 1182.5825,358.6967 100.599,-138.46257"
         style="fill:none;stroke:#003100;stroke-width:5;stroke-linecap:butt;stroke-linejoin:miter;stroke-miterlimit:4;stroke-dasharray:none;stroke-opacity:1" />
      <path
         style="fill:#217200;fill-opacity:1;stroke:none"
         d="m 1197.5377,335.15376 c 0.1483,-0.12071 18.8711,-25.82757 41.6069,-57.12589 l 41.334,-56.90829 -38.1706,12.30144 c -20.9943,6.76469 -38.2046,12.3672 -38.2454,12.44983 -0.041,0.0809 0.4522,2.31911 1.0966,4.97339 3.7747,15.5455 4.3575,30.96826 1.8006,47.64174 -1.6274,10.6107 -4.641,22.2839 -8.3948,32.51545 -1.3961,3.80542 -1.5967,4.61343 -1.0303,4.15107 l 0,0 z"
         id="path6127"
         inkscape:connector-curvature="0" />
      <path
         sodipodi:nodetypes="ccc"
         inkscape:connector-curvature="0"
         id="path6129"
         d="m 1285,305 0,-87 -82.7418,26.88442"
         style="fill:none;stroke:#003100;stroke-width:5;stroke-linecap:square;stroke-linejoin:miter;stroke-miterlimit:4;stroke-dasharray:none;stroke-opacity:1" />
      <path
         inkscape:connector-curvature="0"
         id="path6131"
         d="m 1200.001,337.65119 c 0.069,-0.17816 18.732,-25.92861 41.4728,-57.22322 l 41.3466,-56.89928 0.096,40.10383 c 0.054,22.0571 0.044,40.15646 -0.022,40.22082 -0.064,0.0643 -2.3453,0.28658 -5.0689,0.49384 -15.951,1.21389 -30.799,5.42546 -45.8663,13.00976 -9.5884,4.82647 -19.7591,11.29993 -28.3299,18.03169 -3.1878,2.50368 -3.8943,2.94415 -3.6295,2.26256 l 0,0 z"
         style="fill:#5ab124;fill-opacity:1;stroke:none" />
    </g>
    <path
       style="fill:#ffffff;fill-opacity:1;stroke:#6a5000;stroke-width:5.81160593;stroke-linecap:butt;stroke-linejoin:miter;stroke-miterlimit:4;stroke-dasharray:none;stroke-opacity:1"
       d="M 907.09306,734.30547 C 830.95058,838.48455 762.69808,750.66882 742.94334,689.87 723.18861,629.07117 726.78925,517.90894 849.62474,557.43616"
       id="path6135"
       inkscape:connector-curvature="0"
       sodipodi:nodetypes="czc"
       inkscape:transform-center-y="-342.5" />
    <path
       inkscape:transform-center-y="-102.39031"
       sodipodi:nodetypes="czc"
       inkscape:connector-curvature="0"
       id="path6137"
       d="m 1092.9422,734.21667 c 75.5509,104.60891 -29.058,142.38435 -92.98565,142.38435 -63.92767,0 -168.53658,-37.77544 -92.98571,-142.38436"
       style="fill:#ffffff;fill-opacity:1;stroke:#6a5000;stroke-width:5.81160593;stroke-linecap:butt;stroke-linejoin:miter;stroke-miterlimit:4;stroke-dasharray:none;stroke-opacity:1"
       inkscape:transform-center-x="308.76435" />
    <path
       inkscape:transform-center-x="190.47535"
       style="fill:#ffffff;fill-opacity:1;stroke:#6a5000;stroke-width:5.81160593;stroke-linecap:butt;stroke-linejoin:miter;stroke-miterlimit:4;stroke-dasharray:none;stroke-opacity:1"
       d="m 1150.2883,557.43614 c 122.8355,-39.52721 126.4362,71.63502 106.6815,132.43385 -19.7548,60.79882 -88.0073,148.61456 -164.1498,44.43548"
       id="path6139"
       inkscape:connector-curvature="0"
       sodipodi:nodetypes="czc"
       inkscape:transform-center-y="258.21602" />
    <path
       inkscape:transform-center-y="258.21603"
       sodipodi:nodetypes="czc"
       inkscape:connector-curvature="0"
       id="path6141"
       d="m 999.881,448.26858 c 0.3656,-129.03805 107.1999,-98.11146 158.9185,-60.5357 51.7185,37.57569 114.145,129.62425 -8.4645,169.84697"
       style="fill:#ffffff;fill-opacity:1;stroke:#6a5000;stroke-width:5.81160593;stroke-linecap:butt;stroke-linejoin:miter;stroke-miterlimit:4;stroke-dasharray:none;stroke-opacity:1"
       inkscape:transform-center-x="-190.47534" />
    <path
       inkscape:transform-center-x="-308.76437"
       style="fill:#ffffff;fill-opacity:1;stroke:#6a5000;stroke-width:5.81160593;stroke-linecap:butt;stroke-linejoin:miter;stroke-miterlimit:4;stroke-dasharray:none;stroke-opacity:1"
       d="M 849.57804,557.57985 C 726.96856,517.35712 789.39511,425.30859 841.11365,387.73284 892.83219,350.1571 999.66644,319.23048 1000.0321,448.26862"
       id="path6143"
       inkscape:connector-curvature="0"
       sodipodi:nodetypes="czc"
       inkscape:transform-center-y="-102.39029" />
    <path
       inkscape:transform-center-y="-125"
       sodipodi:nodetypes="cc"
       inkscape:connector-curvature="0"
       id="path2999"
       d="m 999.99991,442 0,110"
       style="fill:none;stroke:#6a5000;stroke-width:5.8119998;stroke-linecap:butt;stroke-linejoin:miter;stroke-miterlimit:4;stroke-dasharray:none;stroke-opacity:1" />
    <path
       transform="matrix(-0.1795885,-0.55271657,0.55271657,-0.1795885,842.38794,1268.6269)"
       sodipodi:nodetypes="zzzczzscz"
       inkscape:connector-curvature="0"
       id="path6145"
       d="m 1105,245 c -30,0 -63.0005,20 -105,20 -41.99953,0 -75,-20 -105,-20 -30,0 -45,20 -5,80 -95,-70 -35,-117 5,-117 40,0 63.00047,17 105,17 41.9995,0 65,-17 105,-17 40,0 100,47 5,117 40,-60 25,-80 -5,-80 z"
       style="fill:#d1d159;fill-opacity:1;stroke:#d1d159;stroke-width:3.20000005;stroke-linecap:butt;stroke-linejoin:miter;stroke-miterlimit:4;stroke-dasharray:none;stroke-opacity:1;filter:url(#filter5728)" />
    <path
       style="fill:none;stroke:#6a5000;stroke-width:5.81160593;stroke-linecap:butt;stroke-linejoin:miter;stroke-miterlimit:4;stroke-dasharray:none;stroke-opacity:1"
       d="m 862.18706,718.34289 c -21.62925,65.07927 -58.38224,40.35693 -65.56578,18.24827 -7.18354,-22.10866 -1.91798,-37.87441 -9.46061,-61.08824 -7.54263,-23.21382 -21.06944,-32.87358 -28.25298,-54.98224 -7.18354,-22.10866 8.01883,-63.71231 63.7699,-23.77544"
       id="path6147"
       inkscape:connector-curvature="0"
       sodipodi:nodetypes="czzsc" />
    <g
       inkscape:transform-center-y="-109.75805"
       id="g6149"
       transform="matrix(-0.58116059,0,0,-0.58116059,1581.1172,960.8693)"
       inkscape:transform-center-x="327.34386">
      <path
         sodipodi:nodetypes="zzzczzscz"
         inkscape:connector-curvature="0"
         id="path6151"
         d="m 1105,245 c -30,0 -63.0005,20 -105,20 -41.99953,0 -75,-20 -105,-20 -30,0 -45,20 -5,80 -95,-70 -35,-117 5,-117 40,0 63.00047,17 105,17 41.9995,0 65,-17 105,-17 40,0 100,47 5,117 40,-60 25,-80 -5,-80 z"
         style="fill:#d1d159;fill-opacity:1;stroke:#d1d159;stroke-width:3.20000005;stroke-linecap:butt;stroke-linejoin:miter;stroke-miterlimit:4;stroke-dasharray:none;stroke-opacity:1;filter:url(#filter5728)" />
      <path
         style="fill:none;stroke:#6a5000;stroke-width:10;stroke-linecap:butt;stroke-linejoin:miter;stroke-miterlimit:4;stroke-dasharray:none;stroke-opacity:1"
         d="m 890,325 c -95,-70 -35,-117 5,-117 40,0 63.00047,17 105,17 41.9995,0 65,-17 105,-17 40,0 100,47 5,117"
         id="path6153"
         inkscape:connector-curvature="0"
         sodipodi:nodetypes="czzsc" />
    </g>
    <g
       inkscape:transform-center-x="207.85891"
       transform="matrix(-0.1795885,0.55271657,-0.55271657,-0.1795885,1516.7021,163.19376)"
       id="g6155"
       inkscape:transform-center-y="282.33571">
      <path
         style="fill:#d1d159;fill-opacity:1;stroke:#d1d159;stroke-width:3.20000005;stroke-linecap:butt;stroke-linejoin:miter;stroke-miterlimit:4;stroke-dasharray:none;stroke-opacity:1;filter:url(#filter5728)"
         d="m 1105,245 c -30,0 -63.0005,20 -105,20 -41.99953,0 -75,-20 -105,-20 -30,0 -45,20 -5,80 -95,-70 -35,-117 5,-117 40,0 63.00047,17 105,17 41.9995,0 65,-17 105,-17 40,0 100,47 5,117 40,-60 25,-80 -5,-80 z"
         id="path6157"
         inkscape:connector-curvature="0"
         sodipodi:nodetypes="zzzczzscz" />
      <path
         sodipodi:nodetypes="czzsc"
         inkscape:connector-curvature="0"
         id="path6159"
         d="m 890,325 c -95,-70 -35,-117 5,-117 40,0 63.00047,17 105,17 41.9995,0 65,-17 105,-17 40,0 100,47 5,117"
         style="fill:none;stroke:#6a5000;stroke-width:10;stroke-linecap:butt;stroke-linejoin:miter;stroke-miterlimit:4;stroke-dasharray:none;stroke-opacity:1" />
    </g>
    <g
       inkscape:transform-center-y="282.33572"
       id="g6161"
       transform="matrix(0.47016879,0.34159762,-0.34159762,0.47016879,738.1623,-22.039248)"
       inkscape:transform-center-x="-207.85893">
      <path
         sodipodi:nodetypes="zzzczzscz"
         inkscape:connector-curvature="0"
         id="path6163"
         d="m 1105,245 c -30,0 -63.0005,20 -105,20 -41.99953,0 -75,-20 -105,-20 -30,0 -45,20 -5,80 -95,-70 -35,-117 5,-117 40,0 63.00047,17 105,17 41.9995,0 65,-17 105,-17 40,0 100,47 5,117 40,-60 25,-80 -5,-80 z"
         style="fill:#d1d159;fill-opacity:1;stroke:#d1d159;stroke-width:3.20000005;stroke-linecap:butt;stroke-linejoin:miter;stroke-miterlimit:4;stroke-dasharray:none;stroke-opacity:1;filter:url(#filter5728)" />
      <path
         style="fill:none;stroke:#6a5000;stroke-width:10;stroke-linecap:butt;stroke-linejoin:miter;stroke-miterlimit:4;stroke-dasharray:none;stroke-opacity:1"
         d="m 890,325 c -95,-70 -35,-117 5,-117 40,0 63.00047,17 105,17 41.9995,0 65,-17 105,-17 40,0 100,47 5,117"
         id="path6165"
         inkscape:connector-curvature="0"
         sodipodi:nodetypes="czzsc" />
    </g>
    <g
       inkscape:transform-center-x="-327.34387"
       transform="matrix(0.47016879,-0.34159762,0.34159762,0.47016879,321.41318,661.156)"
       id="g6167"
       inkscape:transform-center-y="-109.75814">
      <path
         style="fill:#d1d159;fill-opacity:1;stroke:#d1d159;stroke-width:3.20000005;stroke-linecap:butt;stroke-linejoin:miter;stroke-miterlimit:4;stroke-dasharray:none;stroke-opacity:1;filter:url(#filter5728)"
         d="m 1105,245 c -30,0 -63.0005,20 -105,20 -41.99953,0 -75,-20 -105,-20 -30,0 -45,20 -5,80 -95,-70 -35,-117 5,-117 40,0 63.00047,17 105,17 41.9995,0 65,-17 105,-17 40,0 100,47 5,117 40,-60 25,-80 -5,-80 z"
         id="path6169"
         inkscape:connector-curvature="0"
         sodipodi:nodetypes="zzzczzscz" />
      <path
         sodipodi:nodetypes="czzsc"
         inkscape:connector-curvature="0"
         id="path6171"
         d="m 890,325 c -95,-70 -35,-117 5,-117 40,0 63.00047,17 105,17 41.9995,0 65,-17 105,-17 40,0 100,47 5,117"
         style="fill:none;stroke:#6a5000;stroke-width:10;stroke-linecap:butt;stroke-linejoin:miter;stroke-miterlimit:4;stroke-dasharray:none;stroke-opacity:1" />
    </g>
    <path
       inkscape:transform-center-x="118.88206"
       style="fill:none;stroke:#6a5000;stroke-width:5.8119998;stroke-linecap:butt;stroke-linejoin:miter;stroke-miterlimit:4;stroke-dasharray:none;stroke-opacity:1"
       d="m 835.17391,552.9627 104.61621,33.99187"
       id="path6310"
       inkscape:connector-curvature="0"
       sodipodi:nodetypes="cc"
       inkscape:transform-center-y="-38.627125" />
    <path
       inkscape:transform-center-y="101.12712"
       sodipodi:nodetypes="cc"
       inkscape:connector-curvature="0"
       id="path6312"
       d="m 898.72899,745.62305 64.65638,-88.99186"
       style="fill:none;stroke:#6a5000;stroke-width:5.8119998;stroke-linecap:butt;stroke-linejoin:miter;stroke-miterlimit:4;stroke-dasharray:none;stroke-opacity:1"
       inkscape:transform-center-x="73.473155" />
    <path
       inkscape:transform-center-x="-73.473155"
       style="fill:none;stroke:#6a5000;stroke-width:5.8119998;stroke-linecap:butt;stroke-linejoin:miter;stroke-miterlimit:4;stroke-dasharray:none;stroke-opacity:1"
       d="m 1099.6245,743.62306 -64.6563,-88.99187"
       id="path6314"
       inkscape:connector-curvature="0"
       sodipodi:nodetypes="cc"
       inkscape:transform-center-y="101.12712" />
    <path
       inkscape:transform-center-y="-38.627125"
       sodipodi:nodetypes="cc"
       inkscape:connector-curvature="0"
       id="path6316"
       d="m 1158.041,555.0841 -104.6162,33.9918"
       style="fill:none;stroke:#6a5000;stroke-width:5.8119998;stroke-linecap:butt;stroke-linejoin:miter;stroke-miterlimit:4;stroke-dasharray:none;stroke-opacity:1"
       inkscape:transform-center-x="-118.8821" />
    <path
       inkscape:connector-curvature="0"
       id="path6318"
       d="m 1000,734 0,-54"
       style="fill:none;stroke:#6a5000;stroke-width:5.8119998;stroke-linecap:butt;stroke-linejoin:miter;stroke-miterlimit:4;stroke-dasharray:none;stroke-opacity:1" />
    <path
       inkscape:transform-center-x="-92.2525"
       inkscape:transform-center-y="29.97465"
       style="fill:none;stroke:#6a5000;stroke-width:5.8119998;stroke-linecap:butt;stroke-linejoin:miter;stroke-miterlimit:4;stroke-dasharray:none;stroke-opacity:1"
       d="m 1117.931,648.31811 -51.357,-16.68692"
       id="path6320"
       inkscape:connector-curvature="0" />
    <path
       inkscape:connector-curvature="0"
       id="path6322"
       d="m 1072.8854,509.6819 -31.7404,43.68687"
       style="fill:none;stroke:#6a5000;stroke-width:5.8119998;stroke-linecap:butt;stroke-linejoin:miter;stroke-miterlimit:4;stroke-dasharray:none;stroke-opacity:1"
       inkscape:transform-center-y="-78.474665"
       inkscape:transform-center-x="-57.0152" />
    <path
       inkscape:transform-center-x="57.01518"
       inkscape:transform-center-y="-78.47468"
       style="fill:none;stroke:#6a5000;stroke-width:5.8119998;stroke-linecap:butt;stroke-linejoin:miter;stroke-miterlimit:4;stroke-dasharray:none;stroke-opacity:1"
       d="m 927.11464,509.68187 31.74036,43.6869"
       id="path6324"
       inkscape:connector-curvature="0" />
    <path
       inkscape:connector-curvature="0"
       id="path6326"
       d="M 882.06897,648.31809 933.426,631.63121"
       style="fill:none;stroke:#6a5000;stroke-width:5.8119998;stroke-linecap:butt;stroke-linejoin:miter;stroke-miterlimit:4;stroke-dasharray:none;stroke-opacity:1"
       inkscape:transform-center-y="29.97465"
       inkscape:transform-center-x="92.252515" />
    <ellipse
       transform="matrix(1.0255324,0,0,1.0597168,-17.840904,-25.830082)"
       id="path3933"
       style="fill:#fbeb0f;fill-opacity:1;stroke:#6a5000;stroke-width:4.79623461;stroke-miterlimit:4;stroke-dasharray:none;stroke-opacity:1"
       cx="992.5"
       cy="600"
       rx="77.5"
       ry="75" />
    <path
       inkscape:connector-curvature="0"
       id="path6456"
       d="m 925.75379,634.74874 49.49747,49.49747"
       style="fill:none;stroke:#6a5000;stroke-width:2;stroke-linecap:butt;stroke-linejoin:miter;stroke-miterlimit:4;stroke-dasharray:none;stroke-opacity:1" />
    <path
       inkscape:connector-curvature="0"
       id="path6458"
       d="m 1024.7487,535.75379 49.4975,49.49747"
       style="fill:none;stroke:#6a5000;stroke-width:2;stroke-linecap:butt;stroke-linejoin:miter;stroke-miterlimit:4;stroke-dasharray:none;stroke-opacity:1" />
    <path
       inkscape:connector-curvature="0"
       id="path6460"
       d="m 992.92893,532.21825 84.85277,84.85282"
       style="fill:none;stroke:#6a5000;stroke-width:2;stroke-linecap:butt;stroke-linejoin:miter;stroke-miterlimit:4;stroke-dasharray:none;stroke-opacity:1" />
    <path
       inkscape:connector-curvature="0"
       id="path6462"
       d="M 968.18019,535.75379 1074.2462,641.81981"
       style="fill:none;stroke:#6a5000;stroke-width:2;stroke-linecap:butt;stroke-linejoin:miter;stroke-miterlimit:4;stroke-dasharray:none;stroke-opacity:1" />
    <path
       inkscape:connector-curvature="0"
       id="path6464"
       d="m 922.21825,602.92893 84.85285,84.85282"
       style="fill:none;stroke:#6a5000;stroke-width:2;stroke-linecap:butt;stroke-linejoin:miter;stroke-miterlimit:4;stroke-dasharray:none;stroke-opacity:1" />
    <path
       inkscape:connector-curvature="0"
       id="path6466"
       d="M 925.75379,578.18019 1031.8198,684.24621"
       style="fill:none;stroke:#6a5000;stroke-width:2;stroke-linecap:butt;stroke-linejoin:miter;stroke-miterlimit:4;stroke-dasharray:none;stroke-opacity:1" />
    <path
       inkscape:connector-curvature="0"
       id="path6468"
       d="M 936.36039,560.50253 1049.4975,673.63961"
       style="fill:none;stroke:#6a5000;stroke-width:2;stroke-linecap:butt;stroke-linejoin:miter;stroke-miterlimit:4;stroke-dasharray:none;stroke-opacity:1" />
    <path
       inkscape:connector-curvature="0"
       id="path6470"
       d="M 1063.6396,659.49747 950.50253,546.36039"
       style="fill:none;stroke:#6a5000;stroke-width:2;stroke-linecap:butt;stroke-linejoin:miter;stroke-miterlimit:4;stroke-dasharray:none;stroke-opacity:1" />
    <path
       style="fill:none;stroke:#6a5000;stroke-width:2;stroke-linecap:butt;stroke-linejoin:miter;stroke-miterlimit:4;stroke-dasharray:none;stroke-opacity:1"
       d="m 1024.7487,684.24619 49.4975,-49.49747"
       id="path6472"
       inkscape:connector-curvature="0" />
    <path
       style="fill:none;stroke:#6a5000;stroke-width:2;stroke-linecap:butt;stroke-linejoin:miter;stroke-miterlimit:4;stroke-dasharray:none;stroke-opacity:1"
       d="m 925.75378,585.25129 49.49749,-49.49751"
       id="path6474"
       inkscape:connector-curvature="0" />
    <path
       style="fill:none;stroke:#6a5000;stroke-width:2;stroke-linecap:butt;stroke-linejoin:miter;stroke-miterlimit:4;stroke-dasharray:none;stroke-opacity:1"
       d="m 922.21824,617.07106 84.85286,-84.8528"
       id="path6476"
       inkscape:connector-curvature="0" />
    <path
       style="fill:none;stroke:#6a5000;stroke-width:2;stroke-linecap:butt;stroke-linejoin:miter;stroke-miterlimit:4;stroke-dasharray:none;stroke-opacity:1"
       d="M 925.75378,641.8198 1031.8198,535.75378"
       id="path6478"
       inkscape:connector-curvature="0" />
    <path
       style="fill:none;stroke:#6a5000;stroke-width:2;stroke-linecap:butt;stroke-linejoin:miter;stroke-miterlimit:4;stroke-dasharray:none;stroke-opacity:1"
       d="M 992.92892,687.78173 1077.7817,602.9289"
       id="path6480"
       inkscape:connector-curvature="0" />
    <path
       style="fill:none;stroke:#6a5000;stroke-width:2;stroke-linecap:butt;stroke-linejoin:miter;stroke-miterlimit:4;stroke-dasharray:none;stroke-opacity:1"
       d="M 968.18018,684.2462 1074.2462,578.18018"
       id="path6482"
       inkscape:connector-curvature="0" />
    <path
       style="fill:none;stroke:#6a5000;stroke-width:2;stroke-linecap:butt;stroke-linejoin:miter;stroke-miterlimit:4;stroke-dasharray:none;stroke-opacity:1"
       d="M 950.50253,673.6396 1063.6396,560.50249"
       id="path6484"
       inkscape:connector-curvature="0" />
    <path
       style="fill:none;stroke:#6a5000;stroke-width:2;stroke-linecap:butt;stroke-linejoin:miter;stroke-miterlimit:4;stroke-dasharray:none;stroke-opacity:1"
       d="M 1049.4975,546.36038 936.36039,659.49746"
       id="path6486"
       inkscape:connector-curvature="0" />
  </g>
</svg>
