<?xml version="1.0" encoding="UTF-8" standalone="no"?>
<svg width="400" height="240" xmlns="http://www.w3.org/2000/svg">
  <rect style="fill:#1c2ba3" width="400" height="240" />
  <path d="m 105.851,44.085 c -1.22456,0.52936 -0.14985,10.357592 2.089,27.24 1.387,10.473 1.587,9.911 -3.325,9.304 -13.641,-1.686 -25.186,-0.634 -34.578,3.15 -6.931,2.793 -9.081,3.39 -16.302,4.522 C 50.469,88.813 43.884,89.26 42.5,89.063 41.854,88.972 39.916,88.795 38.193,88.672 33.812,88.357 28.99,86.949 23.735,84.45 17.39,81.432 10.352,80.535 1.265,81.587 L 0,81.733 v 4.676 4.675 l 0.783,-0.008 c 0.431,-0.005 1.488,-0.164 2.35,-0.353 5.384,-1.185 11.367,-0.276 17.951,2.727 1.458,0.665 3.789,1.553 5.181,1.973 1.392,0.42 3.289,1.023 4.217,1.34 1.708,0.583 2.793,0.739 10.078,1.447 3.271,0.318 4.504,0.343 6.385,0.13 1.283,-0.145 4.121,-0.432 6.308,-0.637 3.555,-0.333 6.529,-0.899 11.394,-2.166 1.445,-0.376 6.25,-2.124 9.811,-3.569 5.583,-2.265 18.046,-3.639 25.422,-2.803 3.051,0.346 8.544,1.429 9.356,1.844 2.82621,1.444264 4.12429,38.28361 6.584,40.592 l 0.604,0.568 19.249,0.12 c 18.064,0.113 19.276,0.147 19.68,0.551 0.405,0.404 0.433,1.549 0.486,19.277 0.03,10.366 0.166,22.642 0.302,27.281 0.136,4.638 0.247,11.144 0.247,14.457 0,8.862 -0.596,8.052 7.651,10.402 13.526,3.854 28.955,5.88 39.149,5.14 10.179,-0.738 11.848,-0.898 16.21,-1.548 8.546,-1.276 22.132,-4.778 23.382,-6.029 l 0.54,-0.54 c 1.45576,-22.70327 -2.25966,-46.16117 1.365,-68.649 0.394,-0.288 3.411,-0.342 19.205,-0.342 13.219,0 18.911,-0.079 19.325,-0.267 0.813,-0.371 1.037,-0.984 1.359,-3.733 0.154,-1.312 0.435,-3.228 0.624,-4.258 0.189,-1.03 0.344,-2.233 0.344,-2.675 0,-0.442 0.28,-2.96 0.622,-5.598 0.342,-2.637 0.717,-5.662 0.832,-6.722 0.218,-1.999 0.437,-3.761 1.079,-8.675 0.447,-3.424 0.767,-5.995 1.094,-8.795 0.524,-4.48 0.497,-4.465 7.419,-4.096 9.339,0.499 14.712,1.887 27.952,7.222 4.392,1.77 8.255,2.495 13.85,2.598 l 4.776,0.088 3.537,-0.878 c 1.946,-0.482 4.677,-1.339 6.068,-1.902 16.879,-6.838 35.011,-6.754 45.351,0.21 1.969,1.326 1.878,1.539 1.878,-4.397 V 85.16 l -1.988,-0.883 c -4.113,-1.829 -5.137,-2.139 -10.542,-3.191 -4.514,-0.879 -15.871,-0.897 -20.26,-0.032 -0.984,0.194 -2.33,0.421 -2.993,0.505 -3.077,0.388 -9.478,2.276 -14.369,4.236 -6.049,2.424 -9.777,2.867 -15.929,1.89 -3.309,-0.525 -4.524,-0.924 -10.459,-3.433 -7.069,-2.99 -17.976,-5.669 -23.219,-5.703 -3.282,-0.021 -7.939,-0.632 -8.471,-1.11 -1.85004,-1.66807 4.16389,-30.223845 2.502,-31.727 -1.073,-0.97 -49.344,-1.501 -50.391,-0.554 -0.483,0.437 -0.508,0.686 -0.509,5.181 -0.002,7.434 0.606,6.901 -8.305,7.28 -8.743,0.373 -8.203,0.769 -8.41,-6.173 -0.129,-4.315 -0.349,-5.957 -0.867,-6.475 -0.581,-0.582 -51.625,-0.491 -52.366,0.093 l -0.626,0.492 -0.074,5.029 c -0.099,6.755 0.847,6.138 -9.868,6.441 l -5.457,0.154 -0.663,-0.663 -0.662,-0.662 0.168,-4.985 c 0.092,-2.742 0.093,-5.179 0.002,-5.416 -0.359,-0.935 -0.915,-0.967 -19.979,-1.149 -10.205,-0.097 -21.102,-0.239 -24.217,-0.315 -3.422,-0.083 -5.874,-0.045 -6.197,0.095 m 97.261,9.653 c 12.985,0.257 12.608,0.209 12.889,1.648 0.068,0.351 0.04,2.915 -0.062,5.698 -0.197,5.34 -0.131,5.948 0.702,6.394 0.355,0.19 4.341,0.349 12.602,0.504 6.645,0.124 14.576,0.289 17.624,0.366 5.315,0.135 5.567,0.12 6.145,-0.347 l 0.602,-0.488 0.121,-6.065 c 0.148,-7.453 -0.243,-6.854 4.337,-6.648 1.789,0.08 7.916,0.254 13.615,0.385 5.699,0.132 10.769,0.303 11.268,0.38 1.623,0.252 1.653,0.643 0.683,9.134 -0.272,2.385 -0.614,5.53 -0.759,6.988 -0.676,6.777 -0.825,7.067 -3.843,7.453 -5.51,0.705 -16.861,3.969 -20.921,6.016 -6.083,3.068 -15.081,3.757 -27.031,2.07 -0.861,-0.122 -5.005,-1.361 -9.208,-2.754 -4.203,-1.393 -8.323,-2.643 -9.157,-2.779 -0.833,-0.136 -2.046,-0.41 -2.695,-0.608 -3.778,-1.154 -14.215,-1.954 -20.419,-1.565 -5.886,0.37 -6.843,0.504 -13.942,1.955 -3.409,0.697 -9.287,2.554 -13.253,4.188 -12.091,4.982 -31.859,4.661 -42.049,-0.682 -3.70765,-1.623088 -5.77701,-27.233162 -5.038,-29.824 0.665,-0.735 29.724,-0.712 30.46,0.024 0.449,0.449 0.482,0.804 0.483,5.241 0.002,5.412 0.183,6.473 1.154,6.745 1.636,0.458 35.152,0.208 35.676,-0.266 0.471,-0.426 0.499,-0.748 0.567,-6.468 0.089,-7.477 -0.249,-6.941 4.376,-6.935 1.741,0.002 8.524,0.11 15.073,0.24 m -5.368,34.946 c 4.401,0.255 6.017,0.481 11.007,1.54 3.815,0.808 5.923,1.415 9.409,2.709 4.947,1.834 8.093,2.733 11.358,3.245 1.723,0.269 3.729,0.6 4.458,0.735 7.018,1.296 20.735,-0.106 26.409,-2.699 3.467,-1.584 7.248,-2.901 12.507,-4.356 7.793,-2.156 8.54,-1.946 7.856,2.206 -0.229,1.391 -0.57,4.275 -0.995,8.418 -0.244,2.376 -0.675,6.373 -1.196,11.084 -0.125,1.127 -0.344,3.241 -0.489,4.699 -0.384,3.882 -0.713,5.804 -1.078,6.304 -0.303,0.414 -1.044,0.455 -11.368,0.624 -6.074,0.1 -15.58,0.262 -21.125,0.361 l -10.082,0.181 -0.449,0.554 c -0.429,0.53 -0.444,1.158 -0.337,14.217 0.254,31.045 0.279,55.574 0.059,56.372 -0.438,1.585 -9.006,4.208 -18.266,5.593 -1.789,0.267 -4.121,0.617 -5.181,0.777 -2.587,0.389 -17.164,0.4 -19.759,0.014 -1.06,-0.158 -3.229,-0.462 -4.819,-0.676 -7.055,-0.948 -17.873,-3.946 -19.267,-5.34 l -0.608,-0.608 -0.063,-35.292 -0.062,-35.292 -0.52,-0.421 c -0.481,-0.389 -1.989,-0.434 -20.241,-0.595 -24.634,-0.218 -22.881,0.05 -23.234,-3.558 -0.76631,-6.83165 -1.43773,-13.67306 -2.153,-20.51 -0.461,-4.335 -0.643,-4.247 5.623,-2.719 2.415,0.589 5.31,1.186 6.434,1.326 1.123,0.14 2.964,0.417 4.091,0.615 7.42,1.309 22.529,-0.567 29.518,-3.665 3.301,-1.463 9.321,-3.386 13.052,-4.17 6.312,-1.326 7.628,-1.497 14.572,-1.887 0.349,-0.02 2.572,0.076 4.939,0.214" fill="#fff" />
</svg>
