<?xml version="1.0" encoding="iso-8859-1"?>
<!DOCTYPE svg PUBLIC "-//W3C//DTD SVG 1.0//EN" "http://www.w3.org/TR/2001/REC-SVG-20010904/DTD/svg10.dtd">
<!-- Creator: CorelDRAW -->
<svg xmlns="http://www.w3.org/2000/svg" xmlns:odm="http://product.corel.com/CGS/11/cddns/" xml:space="preserve" width="1023px" height="682px" style="shape-rendering:geometricPrecision; text-rendering:geometricPrecision; image-rendering:optimizeQuality; fill-rule:evenodd"
     viewBox="0 0 1024 682">
 <defs>
  <style type="text/css">
   <![CDATA[
    .str1 {stroke:#000000;stroke-width:0}
    .str2 {stroke:#6B2910;stroke-width:2}
    .str0 {stroke:#000000;stroke-width:2}
    .fil3 {fill:none}
    .fil1 {fill:#FF0000}
    .fil5 {fill:#000000}
    .fil7 {fill:#3A6673}
    .fil4 {fill:#3B8536}
    .fil6 {fill:#3C4919}
    .fil9 {fill:#9E7D00}
    .fil8 {fill:#9E7D41}
    .fil2 {fill:#E7CA00}
    .fil0 {fill:#FFFFFF}
   ]]>
  </style>
 </defs>
 <path class="fil0" d="M0 0l1024 0 0 682 -1024 0 0 -682z"/>
 <g id="Layer 1">
  <rect class="fil1 str0" x="273" y="-23" width="136" height="718"/>
  <rect class="fil1 str0" x="-8" y="273" width="1048" height="136"/>
  <path class="fil2 str0" d="M365 265l-26 -99c-7,29 -10,59 -13,88l39 11z"/>
  <path class="fil2 str0" d="M324 263l-72 -73c8,29 21,56 32,84l40 -11z"/>
  <path class="fil2 str0" d="M288 283l-99 -28c21,22 46,38 69,56l30 -28z"/>
  <path class="fil2 str0" d="M266 317l-100 26c29,8 76,9 106,13l-6 -39z"/>
  <path class="fil2 str0" d="M277 355l-86 75c29,-7 73,-29 101,-40l-15 -35z"/>
  <path class="fil2 str0" d="M289 388l-33 106c21,-21 49,-59 67,-82l-34 -24z"/>
  <path class="fil2 str0" d="M318 408l26 108c7,-29 9,-67 13,-96l-39 -12z"/>
  <path class="fil2 str0" d="M359 419l72 73c-8,-29 -21,-56 -32,-84l-40 11z"/>
  <path class="fil2 str0" d="M395 399l99 28c-21,-22 -46,-38 -69,-56l-30 28z"/>
  <path class="fil2 str0" d="M417 365l100 -26c-29,-8 -59,-10 -88,-14l-12 40z"/>
  <path class="fil2 str0" d="M419 324l73 -72c-29,7 -56,20 -83,32l10 40z"/>
  <path class="fil3 str0" d="M339 171l1 99"/>
  <path class="fil3 str0" d="M255 195l49 85"/>
  <path class="fil3 str0" d="M194 258l85 49"/>
  <path class="fil3 str0" d="M172 343l99 0"/>
  <path class="fil3 str0" d="M196 428l85 -50"/>
  <path class="fil3 str0" d="M258 489l50 -86"/>
  <path class="fil3 str0" d="M344 511l-1 -99"/>
  <path class="fil3 str0" d="M428 487l-49 -85"/>
  <path class="fil3 str0" d="M489 424l-85 -49"/>
  <path class="fil3 str0" d="M511 339l-99 0"/>
  <path class="fil3 str0" d="M487 254l-85 50"/>
  <path class="fil2 str0" d="M382 268c8,-20 12,-41 5,-53 -6,-15 -1,-31 9,-48 -19,6 -29,17 -26,34 -1,20 -28,36 -20,56l32 11z"/>
  <path class="fil2 str0" d="M340 258c-3,-22 -10,-42 -22,-49 -13,-10 -17,-26 -16,-46 -14,15 -17,29 -6,42 9,18 -6,46 11,59l33 -6z"/>
  <path class="fil2 str0" d="M299 270c-14,-17 -30,-31 -44,-32 -16,-2 -28,-14 -37,-31 -4,20 0,34 16,39 17,11 18,43 39,45l26 -21z"/>
  <path class="fil2 str0" d="M269 301c-21,-8 -41,-12 -53,-6 -16,6 -32,2 -48,-8 6,19 16,29 33,25 21,2 47,28 67,20l1 -31z"/>
  <path class="fil2 str0" d="M275 340c-21,3 -58,13 -65,24 -11,13 -27,17 -46,17 15,13 29,17 42,5 18,-9 61,2 74,-15l-5 -31z"/>
  <path class="fil2 str0" d="M286 377c-17,14 -47,37 -47,50 -3,16 -14,28 -32,37 20,5 34,1 40,-16 11,-17 60,-29 63,-50l-24 -21z"/>
  <path class="fil2 str0" d="M306 404c-8,20 -4,51 2,63 6,15 -11,31 -21,48 19,-6 30,-20 36,-32 3,-13 26,-49 18,-68l-35 -11z"/>
  <path class="fil2 str0" d="M343 424c3,22 23,38 35,45 13,10 4,30 3,50 14,-15 20,-41 18,-54 -3,-20 -10,-44 -26,-56l-30 15z"/>
  <path class="fil2 str0" d="M384 412c14,17 30,31 44,32 16,2 28,14 37,31 4,-20 0,-34 -16,-39 -17,-11 -18,-43 -39,-45l-26 21z"/>
  <path class="fil2 str0" d="M414 381c21,8 41,12 53,6 16,-6 32,-2 48,8 -6,-19 -16,-29 -33,-25 -21,-2 -37,-28 -56,-20l-12 31z"/>
  <path class="fil2 str0" d="M425 339c21,-3 41,-10 48,-21 11,-13 27,-17 46,-17 -15,-13 -29,-17 -42,-5 -18,9 -46,-6 -58,10l6 33z"/>
  <path class="fil2 str0" d="M400 287l27 -99c-21,21 -38,46 -56,70l29 29z"/>
  <path class="fil3 str0" d="M425 193l-50 86"/>
  <path class="fil2 str0" d="M413 298c17,-14 31,-30 31,-43 3,-16 14,-28 32,-37 -20,-5 -34,-1 -40,16 -11,17 -42,18 -45,38l22 26z"/>
  <g>
   <path class="fil4" d="M284 249c-1,18 5,37 18,55 12,17 29,29 46,33 1,-17 -4,-37 -17,-55 -13,-17 -30,-28 -47,-33z"/>
   <path class="fil4" d="M411 250c-17,4 -34,16 -47,33 -12,17 -18,37 -17,54 17,-4 34,-15 47,-33 12,-17 18,-37 17,-54z"/>
   <path class="fil4" d="M451 370c-10,-15 -26,-28 -46,-34 -21,-7 -41,-6 -57,0 9,15 25,28 46,34 20,7 41,6 57,0z"/>
   <path class="fil4" d="M348 445c11,-14 18,-33 18,-54 0,-22 -7,-41 -18,-54 -12,13 -19,32 -19,54 0,21 7,40 19,54z"/>
   <path class="fil4" d="M246 370c16,7 37,8 57,1 21,-7 37,-19 46,-34 -16,-6 -36,-7 -57,-1 -20,7 -36,20 -46,34z"/>
  </g>
  <path class="fil0 str1" d="M399 404c34,-25 23,-43 13,-47 -9,-4 -19,-7 -28,-10 -34,-14 -38,-8 -35,25 1,10 0,20 1,30 1,10 16,25 49,2z"/>
  <path class="fil5" d="M375 378c6,0 5,0 6,-5 2,4 3,8 4,12 -3,-2 -7,-5 -10,-7z"/>
  <path class="fil6" d="M379 370c1,2 0,4 -1,5 -2,1 -4,1 -5,-1 -1,-1 -1,-5 -1,-8 2,1 6,3 7,4z"/>
  <path class="fil5" d="M414 361c4,5 8,12 -1,22 -3,5 -12,7 -20,13 -8,6 -13,13 -19,15 -11,5 -17,-1 -20,-6 3,5 8,10 20,5 6,-2 10,-9 19,-15 8,-6 16,-8 20,-13 8,-10 5,-17 1,-21z"/>
  <path class="fil7" d="M413 360c4,5 8,11 -1,21 -4,5 -12,7 -20,13 -8,6 -13,13 -19,16 -12,4 -17,-1 -20,-6 2,4 7,9 19,4 6,-3 8,-12 17,-18 8,-6 18,-6 22,-10 8,-10 5,-16 2,-20z"/>
  <path class="fil0 str1" d="M299 404c33,24 47,8 48,-2 1,-10 1,-20 1,-30 3,-36 -4,-39 -35,-25 -9,3 -19,6 -28,10 -9,4 -19,23 14,47z"/>
  <path class="fil5" d="M316 373c2,5 1,5 7,4 -4,3 -7,5 -11,8 1,-4 3,-8 4,-12z"/>
  <path class="fil6" d="M324 374c-1,2 -3,2 -5,1 -1,-1 -1,-3 0,-5 1,-1 5,-3 7,-4 -1,2 -1,7 -2,8z"/>
  <path class="fil5" d="M344 405c-4,5 -9,11 -21,6 -6,-2 -10,-9 -19,-15 -8,-6 -16,-9 -20,-13 -8,-10 -5,-17 -1,-21 -3,3 -7,10 2,20 4,5 12,7 20,13 8,6 13,13 19,15 12,5 17,-1 20,-5z"/>
  <path class="fil7" d="M345 404c-4,5 -9,10 -21,5 -6,-2 -10,-9 -19,-15 -8,-6 -16,-8 -20,-13 -8,-10 -5,-17 -1,-21 -3,4 -6,10 3,20 4,4 13,4 21,10 9,6 11,15 17,18 12,5 17,0 20,-4z"/>
  <path class="fil0 str1" d="M265 309c-13,40 7,48 17,46 9,-2 19,-6 29,-9 35,-8 35,-16 13,-41 -6,-7 -12,-16 -19,-23 -6,-8 -27,-11 -40,27z"/>
  <path class="fil5" d="M300 316c-4,3 -4,3 -2,8 -4,-3 -7,-5 -11,-8 5,0 9,0 13,0z"/>
  <path class="fil6" d="M301 324c-1,0 -2,-2 -2,-4 1,-2 3,-3 4,-2 2,0 5,4 6,5 -2,1 -6,2 -8,1z"/>
  <path class="fil5" d="M278 352c-6,-1 -13,-5 -12,-17 0,-7 6,-13 8,-23 4,-10 3,-18 7,-23 6,-11 14,-10 19,-8 -4,-2 -12,-3 -18,8 -4,5 -3,14 -7,23 -3,10 -8,17 -8,23 -1,13 6,16 11,17z"/>
  <path class="fil7" d="M280 353c-6,-2 -13,-5 -12,-18 0,-6 5,-12 8,-22 4,-10 3,-18 7,-24 6,-11 14,-9 19,-7 -4,-2 -11,-3 -17,8 -4,6 0,14 -4,24 -3,10 -11,15 -11,22 -1,12 5,16 10,17z"/>
  <path class="fil0 str1" d="M347 249c-42,0 -43,21 -38,30 5,9 11,17 17,25 19,31 26,29 43,0 5,-8 12,-16 17,-25 5,-9 1,-30 -39,-30z"/>
  <path class="fil5" d="M351 285c-4,-4 -4,-4 -8,0 1,-4 3,-8 4,-13 1,5 3,9 4,13z"/>
  <path class="fil6" d="M344 288c0,-1 1,-3 3,-3 2,0 4,2 4,3 0,2 -3,6 -4,8 -1,-2 -3,-6 -3,-8z"/>
  <path class="fil5" d="M310 275c-1,-6 0,-14 13,-17 6,-2 14,1 24,1 10,0 18,-3 24,-1 13,3 14,11 13,16 1,-4 0,-12 -13,-15 -6,-2 -14,1 -24,1 -10,0 -18,-3 -24,-1 -13,3 -14,11 -13,16z"/>
  <path class="fil7" d="M310 277c-1,-7 0,-14 13,-17 6,-2 14,1 24,1 10,0 18,-3 24,-1 13,3 14,10 13,16 1,-5 -1,-11 -13,-14 -6,-2 -13,4 -24,4 -10,0 -18,-6 -24,-4 -12,3 -14,9 -13,15z"/>
  <path class="fil0 str1" d="M429 307c-12,-39 -33,-34 -40,-27 -6,8 -12,16 -18,24 -24,28 -20,34 13,41 10,3 19,6 29,8 10,2 29,-7 16,-46z"/>
  <path class="fil5" d="M397 322c2,-5 2,-5 -2,-7 4,0 8,0 13,0 -4,2 -7,5 -11,7z"/>
  <path class="fil6" d="M391 316c2,0 4,1 5,3 0,1 -1,3 -3,4 -1,0 -5,-1 -8,-1 2,-2 5,-5 6,-6z"/>
  <path class="fil5" d="M394 280c6,-2 13,-4 20,7 3,5 3,14 6,23 3,10 9,17 9,23 1,13 -6,16 -12,18 5,-1 12,-5 11,-18 0,-6 -6,-12 -9,-22 -3,-10 -3,-18 -6,-24 -7,-10 -14,-9 -19,-7z"/>
  <path class="fil7" d="M392 281c6,-3 13,-4 20,7 4,5 3,13 7,23 2,10 8,16 8,23 1,13 -6,16 -11,17 4,-1 10,-4 9,-17 0,-6 -8,-11 -11,-21 -4,-10 0,-19 -4,-24 -6,-11 -13,-10 -18,-8z"/>
  <path class="fil0 str1" d="M396 350c7,-21 -4,-26 -9,-25 -6,1 -11,3 -17,5 -19,5 -19,9 -7,22 4,5 7,9 11,14 3,4 15,5 22,-16z"/>
  <path class="fil5" d="M376 347c3,-2 3,-2 2,-5 2,2 4,3 6,4 -3,0 -5,1 -8,1z"/>
  <path class="fil6" d="M376 342c1,0 1,1 1,2 0,1 -1,2 -2,2 -1,-1 -3,-2 -4,-4 2,0 4,0 5,0z"/>
  <path class="fil5" d="M389 327c3,0 7,2 6,9 0,4 -3,7 -4,13 -2,5 -2,10 -4,13 -4,6 -8,5 -11,4 3,1 7,2 11,-5 1,-2 1,-7 3,-12 2,-6 5,-9 5,-13 0,-7 -4,-9 -6,-9z"/>
  <path class="fil7" d="M388 326c3,1 7,3 6,10 0,3 -3,7 -4,12 -2,6 -2,10 -4,13 -4,6 -8,6 -11,4 3,1 6,2 10,-4 2,-3 0,-8 2,-13 1,-6 6,-9 6,-12 1,-7 -3,-9 -5,-10z"/>
  <path class="fil0 str1" d="M351 383c23,0 24,-12 21,-16 -3,-5 -6,-10 -9,-14 -11,-17 -15,-16 -24,0 -3,4 -7,9 -9,14 -3,4 -1,16 21,16z"/>
  <path class="fil5" d="M349 363c2,2 2,2 4,0 -1,3 -1,5 -2,7 -1,-2 -2,-4 -2,-7z"/>
  <path class="fil6" d="M353 361c0,1 -1,2 -2,2 -1,0 -2,-1 -2,-2 0,-1 1,-3 2,-4 0,1 2,3 2,4z"/>
  <path class="fil5" d="M371 369c1,3 0,8 -7,9 -3,1 -7,-1 -13,0 -6,-1 -10,1 -14,0 -6,-1 -7,-6 -7,-9 0,3 1,7 7,9 4,1 8,-1 14,-1 6,0 10,2 13,1 7,-2 8,-6 7,-9z"/>
  <path class="fil7" d="M371 368c1,3 0,8 -7,9 -3,1 -7,-1 -13,0 -6,-1 -10,1 -14,0 -6,-1 -7,-6 -7,-9 0,3 1,6 8,8 3,1 7,-2 13,-2 5,0 10,3 13,2 7,-2 8,-5 7,-8z"/>
  <path class="fil0 str1" d="M305 352c7,21 19,19 22,14 4,-4 7,-8 11,-13 13,-15 10,-18 -8,-22 -5,-2 -10,-4 -16,-5 -5,-1 -16,4 -9,26z"/>
  <path class="fil5" d="M323 343c-1,3 -1,3 2,5 -3,0 -5,0 -8,0 2,-2 4,-3 6,-5z"/>
  <path class="fil6" d="M326 347c-1,0 -2,-1 -2,-2 0,-1 0,-2 1,-2 1,0 3,0 5,1 -1,0 -3,2 -4,3z"/>
  <path class="fil5" d="M325 367c-3,1 -7,2 -11,-4 -2,-3 -2,-8 -4,-13 -1,-6 -4,-9 -4,-13 -1,-7 3,-9 6,-9 -3,0 -6,2 -6,9 0,4 3,7 5,13 2,5 1,10 3,13 4,6 8,5 11,4z"/>
  <path class="fil7" d="M326 366c-3,2 -7,2 -11,-4 -2,-3 -2,-7 -4,-12 -1,-6 -4,-10 -4,-13 -1,-7 3,-9 6,-10 -3,1 -6,3 -5,10 0,3 4,6 6,12 2,5 0,10 2,13 4,6 7,5 10,4z"/>
  <path class="fil0 str1" d="M322 298c-18,14 -12,24 -7,26 5,2 10,4 16,6 18,7 21,4 19,-14 0,-6 0,-11 -1,-17 0,-5 -9,-14 -27,-1z"/>
  <path class="fil5" d="M336 313c-3,0 -3,0 -4,2 -1,-2 -1,-4 -2,-6 2,1 4,2 6,4z"/>
  <path class="fil6" d="M334 317c-1,-1 -1,-2 0,-3 1,0 2,0 3,1 0,0 0,3 0,4 -1,-1 -3,-1 -3,-2z"/>
  <path class="fil5" d="M314 322c-2,-3 -4,-7 0,-12 3,-3 7,-4 12,-7 4,-4 7,-8 10,-9 7,-2 9,1 11,3 -1,-2 -4,-5 -11,-2 -3,1 -5,5 -10,8 -5,4 -9,5 -11,7 -5,6 -3,10 -1,12z"/>
  <path class="fil7" d="M315 323c-3,-3 -5,-7 0,-12 2,-3 7,-4 11,-8 5,-3 7,-7 11,-8 6,-3 9,0 11,3 -2,-2 -4,-5 -11,-2 -3,1 -4,7 -9,10 -5,3 -10,3 -12,6 -5,5 -3,8 -1,11z"/>
  <path class="fil0 str1" d="M378 297c-19,-13 -26,-4 -27,1 0,6 0,12 0,17 -2,20 2,22 19,14 5,-2 11,-4 16,-6 5,-2 10,-12 -8,-26z"/>
  <path class="fil5" d="M368 315c-1,-3 0,-3 -3,-3 2,-1 4,-3 6,-4 -1,2 -2,4 -3,7z"/>
  <path class="fil6" d="M364 314c1,-1 2,-1 3,-1 0,1 1,2 0,3 -1,1 -3,2 -4,2 0,-1 0,-3 1,-4z"/>
  <path class="fil5" d="M353 297c2,-3 5,-6 12,-4 3,2 5,6 10,9 4,3 9,4 11,7 5,6 3,9 1,12 1,-2 3,-6 -1,-11 -2,-3 -7,-4 -11,-8 -5,-3 -8,-7 -11,-8 -6,-3 -9,0 -11,3z"/>
  <path class="fil7" d="M353 298c1,-3 4,-6 11,-4 3,2 6,5 10,9 5,3 9,4 12,7 4,5 2,9 0,12 2,-2 3,-6 -1,-11 -3,-3 -8,-3 -12,-6 -5,-3 -6,-8 -10,-10 -6,-2 -9,0 -10,3z"/>
  <path class="fil8 str2" d="M340 321c0,3 -1,4 -3,4 -1,0 -3,-1 -3,-3 0,-1 2,-3 3,-3 2,0 3,2 3,3l0 -1z"/>
  <path class="fil8 str2" d="M370 337c0,4 -1,5 -3,5 -1,0 -3,-1 -3,-3 0,-2 2,-3 3,-3 2,0 3,1 3,3l0 -2z"/>
  <path class="fil8 str2" d="M367 343c1,3 0,5 -2,5 -2,0 -3,-2 -3,-3 0,-2 1,-3 3,-3 2,0 3,1 3,3l-1 -2z"/>
  <path class="fil8 str2" d="M363 348c1,3 -1,5 -2,5 -2,0 -3,-2 -3,-4 0,-1 1,-3 3,-3 1,0 3,2 3,3l-1 -1z"/>
  <path class="fil8 str2" d="M357 351c1,3 -1,4 -2,4 -2,0 -3,-1 -3,-3 0,-1 1,-3 3,-3 1,0 3,2 3,3l-1 -1z"/>
  <path class="fil8 str2" d="M351 352c1,3 -1,4 -2,4 -2,0 -3,-1 -3,-3 0,-1 1,-3 3,-3 1,0 3,2 3,3l-1 -1z"/>
  <path class="fil8 str2" d="M345 351c1,3 -1,4 -2,4 -2,0 -3,-1 -3,-3 0,-1 1,-3 3,-3 1,0 3,2 3,3l-1 -1z"/>
  <path class="fil8 str2" d="M340 347c1,4 0,5 -2,5 -2,0 -3,-1 -3,-3 0,-2 1,-3 3,-3 2,0 3,1 3,3l-1 -2z"/>
  <path class="fil8 str2" d="M337 343c0,3 -1,5 -3,5 -1,0 -3,-2 -3,-3 0,-2 2,-3 3,-3 2,0 3,1 3,3l0 -2z"/>
  <path class="fil8 str2" d="M334 337c1,3 0,5 -2,5 -2,0 -3,-2 -3,-3 0,-2 1,-3 3,-3 2,0 3,1 3,3l-1 -2z"/>
  <path class="fil8 str2" d="M334 331c1,3 0,4 -2,4 -2,0 -3,-1 -3,-3 0,-1 1,-3 3,-3 2,0 3,2 3,3l-1 -1z"/>
  <path class="fil8 str2" d="M336 325c1,3 -1,5 -2,5 -2,0 -3,-2 -3,-3 0,-2 1,-3 3,-3 1,0 3,1 3,3l-1 -2z"/>
  <path class="fil8 str2" d="M345 317c0,3 -1,5 -3,5 -1,0 -3,-2 -3,-3 0,-2 2,-3 3,-3 2,0 3,1 3,3l0 -2z"/>
  <path class="fil8 str2" d="M370 331c0,4 -1,5 -3,5 -1,0 -3,-1 -3,-3 0,-2 2,-3 3,-3 2,0 3,1 3,3l0 -2z"/>
  <path class="fil8 str2" d="M368 325c0,3 -1,5 -3,5 -1,0 -3,-2 -3,-3 0,-2 2,-3 3,-3 2,0 3,1 3,3l0 -2z"/>
  <path class="fil8 str2" d="M364 320c1,4 -1,5 -2,5 -2,0 -3,-1 -3,-3 0,-2 1,-3 3,-3 1,0 3,1 3,3l-1 -2z"/>
  <path class="fil8 str2" d="M358 317c1,3 -1,5 -2,5 -2,0 -4,-2 -4,-3 0,-2 2,-3 4,-3 1,0 3,1 3,3l-1 -2z"/>
  <path class="fil8 str2" d="M351 316c1,3 0,5 -2,5 -2,0 -3,-2 -3,-3 0,-2 1,-3 3,-3 2,0 3,1 3,3l-1 -2z"/>
  <circle class="fil8 str2" cx="350" cy="335" r="15"/>
  <circle class="fil9 str2" cx="350" cy="335" r="7"/>
 </g>
</svg>
