<?xml version="1.0" encoding="UTF-8" standalone="no"?>
<svg
   xmlns:dc="http://purl.org/dc/elements/1.1/"
   xmlns:cc="http://creativecommons.org/ns#"
   xmlns:rdf="http://www.w3.org/1999/02/22-rdf-syntax-ns#"
   xmlns:svg="http://www.w3.org/2000/svg"
   xmlns="http://www.w3.org/2000/svg"
   xmlns:xlink="http://www.w3.org/1999/xlink"
   xmlns:sodipodi="http://sodipodi.sourceforge.net/DTD/sodipodi-0.dtd"
   xmlns:inkscape="http://www.inkscape.org/namespaces/inkscape"
   width="429"
   height="260"
   id="svg2"
   version="1.1"
   inkscape:version="0.91 r13725"
   sodipodi:docname="Flag_of_Sussex.svg">
  <metadata
     id="metadata37">
    <rdf:RDF>
      <cc:Work
         rdf:about="">
        <dc:format>image/svg+xml</dc:format>
        <dc:type
           rdf:resource="http://purl.org/dc/dcmitype/StillImage" />
      </cc:Work>
    </rdf:RDF>
  </metadata>
  <defs
     id="defs35" />
  <sodipodi:namedview
     pagecolor="#ffffff"
     bordercolor="#666666"
     borderopacity="1"
     objecttolerance="10"
     gridtolerance="10"
     guidetolerance="10"
     inkscape:pageopacity="0"
     inkscape:pageshadow="2"
     inkscape:window-width="1366"
     inkscape:window-height="654"
     id="namedview33"
     showgrid="false"
     showguides="false"
     inkscape:zoom="1.7384615"
     inkscape:cx="214.5"
     inkscape:cy="130"
     inkscape:window-x="0"
     inkscape:window-y="1"
     inkscape:window-maximized="1"
     inkscape:current-layer="svg2" />
  <path
     id="path5731"
     d="m 0,0 429,0 0,260 -429,0 z"
     style="fill:#fcc917;fill-opacity:1" />
  <path
     style="fill:#0000ff;fill-opacity:1"
     d="m 0,86 429,0 0,174 -429,0 z"
     id="rect4"
     inkscape:connector-curvature="0"
     sodipodi:nodetypes="ccccc" />
  <use
     height="100%"
     width="100%"
     y="0"
     xlink:href="#martlet"
     x="-120"
     id="use6"
     transform="matrix(0.95,0,0,0.95,-15.258707,6.619314)" />
  <g
     id="martlet"
     transform="matrix(0.95,0,0,0.95,10.741293,78.819314)">
    <path
       style="fill:#fcc917;stroke:#000000;stroke-miterlimit:10;fill-opacity:1"
       inkscape:connector-curvature="0"
       d="m 179.125,32.8 4.667,-3.333 c 0,0 1.666,-5.917 5.75,-5.917 4.083,0 10.833,2.75 10.833,6.917 0,4.167 0,10 0,10 0,0 0.75,5.25 8.084,6 7.333,0.75 29.249,2.5 29.249,2.5 l -16.333,11.75 28.167,12.667 -16.5,2.417 5.583,12.667 c 0,0 -24.916,-15.167 -25.583,-15.25 0.083,2.583 0.083,6.333 0.083,6.333 l -6.583,-4.5 -4.25,6.5 -2.25,-14.75 c 0,0 -1.25,0.583 -1.167,1.583 0.084,1 1.25,9 1.25,9 l -5.75,-5.5 -3.5,3.25 -0.083,-7.667 3.917,-0.167 c 0,0 -13.667,-9.5 -14.334,-15.5 -0.644,-5.798 -0.307,-3.751 0,-5.833 0.305,-2.063 3.334,-6 3.5,-6.417 0.167,-0.417 0.584,-1.25 -0.25,-2.25 -0.833,-1 -4.5,-4.5 -4.5,-4.5 z"
       stroke-miterlimit="10"
       id="path9" />
    <path
       style="fill:#fcc917;stroke:#000000;stroke-linecap:square;stroke-miterlimit:10;fill-opacity:1"
       inkscape:connector-curvature="0"
       d="m 190.625,43.8 c 0,0 -9.583,9.298 16.25,18.167 7.373,2.531 27.095,-0.739 34,-1.417 0,0 -33.6,-10.116 -39.258,-17.433"
       stroke-miterlimit="10"
       id="path11" />
    <path
       inkscape:connector-curvature="0"
       d="m 198.625,45.966 c 3.993,2.171 7.84,4.466 11.794,6.551 1.967,1.056 3.965,2.043 6.001,2.933 2.047,0.865 4.125,1.654 6.371,2.016 -2.282,0.267 -4.605,-0.235 -6.779,-0.919 -2.191,-0.693 -4.276,-1.651 -6.296,-2.706 -2.006,-1.082 -3.951,-2.266 -5.805,-3.58 -1.856,-1.307 -3.649,-2.709 -5.286,-4.295 z"
       id="path13" />
    <path
       inkscape:connector-curvature="0"
       d="m 196.208,47.216 c 1.613,1.336 3.235,2.608 4.89,3.82 1.664,1.199 3.351,2.348 5.117,3.352 3.515,2.044 7.272,3.58 11.409,4.245 -2.085,0.283 -4.242,0.058 -6.295,-0.487 -2.063,-0.536 -4.023,-1.411 -5.864,-2.46 -1.829,-1.074 -3.546,-2.324 -5.103,-3.745 -1.556,-1.416 -2.997,-2.967 -4.154,-4.725 z"
       id="path15" />
    <path
       inkscape:connector-curvature="0"
       d="m 193.125,49.133 c 1.438,1.375 2.913,2.652 4.433,3.858 1.529,1.19 3.099,2.313 4.758,3.276 1.645,0.987 3.376,1.816 5.173,2.499 1.802,0.676 3.678,1.165 5.637,1.535 -1.979,0.256 -4.024,0.081 -5.984,-0.417 -1.967,-0.486 -3.843,-1.309 -5.588,-2.326 -1.734,-1.041 -3.344,-2.276 -4.767,-3.693 -1.424,-1.412 -2.712,-2.972 -3.662,-4.732 z"
       id="path17" />
    <polygon
       points="213.125,69.518 231.292,70.383 213.125,71.248 213.989,70.408 214.042,73.246 212.042,73.187 212.26,70.357 212.328,69.48 "
       id="polygon19" />
    <path
       inkscape:connector-curvature="0"
       d="m 182.708,33.383 c 0.665,-0.398 1.406,-0.399 2.101,-0.206 0.343,0.114 0.684,0.28 0.961,0.543 0.277,0.254 0.499,0.603 0.521,0.996 -0.362,-0.146 -0.646,-0.24 -0.931,-0.331 l -0.846,-0.253 c -0.568,-0.188 -1.151,-0.358 -1.806,-0.749 z"
       id="path21" />
    <path
       inkscape:connector-curvature="0"
       d="m 193.687,30.404 c 0,0 -3.25,-1.146 -6.625,-0.729 1.5,-1.209 3.75,-3.334 6.625,0.729 z"
       id="path23" />
  </g>
  <use
     height="100%"
     width="100%"
     y="0"
     xlink:href="#martlet"
     x="120"
     id="use25"
     transform="matrix(0.95,0,0,0.95,36.741293,6.619314)" />
  <g
     id="g5747"
     transform="translate(-2,0)">
    <use
       transform="matrix(0.95,0,0,0.95,-0.25870733,-23.630686)"
       id="use27"
       y="75"
       x="-60"
       xlink:href="#martlet"
       width="100%"
       height="100%" />
    <use
       transform="matrix(0.95,0,0,0.95,31.741293,-23.630686)"
       id="use29"
       y="75"
       x="60"
       xlink:href="#martlet"
       width="100%"
       height="100%" />
  </g>
  <use
     height="100%"
     width="100%"
     x="0"
     xlink:href="#martlet"
     y="150"
     id="use31"
     transform="matrix(0.95,0,0,0.95,10.741293,-53.880686)" />
</svg>
