<?xml version="1.0" encoding="UTF-8" standalone="no"?>
<svg
   xmlns:dc="http://purl.org/dc/elements/1.1/"
   xmlns:cc="http://creativecommons.org/ns#"
   xmlns:rdf="http://www.w3.org/1999/02/22-rdf-syntax-ns#"
   xmlns:svg="http://www.w3.org/2000/svg"
   xmlns="http://www.w3.org/2000/svg"
   xmlns:xlink="http://www.w3.org/1999/xlink"
   xmlns:sodipodi="http://sodipodi.sourceforge.net/DTD/sodipodi-0.dtd"
   xmlns:inkscape="http://www.inkscape.org/namespaces/inkscape"
   version="1.1"
   id="goose"
   x="0px"
   y="0px"
   width="720.002px"
   height="432.001px"
   viewBox="0 0 720.002 432.001"
   style="enable-background:new 0 0 720.002 432.001;"
   xml:space="preserve"
   inkscape:version="0.48.0 r9654"
   sodipodi:docname="County_Flag_of_Buckinghamshire.svg"><metadata
   id="metadata130"><rdf:RDF><cc:Work
       rdf:about=""><dc:format>image/svg+xml</dc:format><dc:type
         rdf:resource="http://purl.org/dc/dcmitype/StillImage" /></cc:Work></rdf:RDF></metadata><defs
   id="defs128" /><sodipodi:namedview
   pagecolor="#ffffff"
   bordercolor="#666666"
   borderopacity="1"
   objecttolerance="10"
   gridtolerance="10"
   guidetolerance="10"
   inkscape:pageopacity="0"
   inkscape:pageshadow="2"
   inkscape:window-width="1280"
   inkscape:window-height="962"
   id="namedview126"
   showgrid="false"
   inkscape:zoom="1.5972177"
   inkscape:cx="360.00101"
   inkscape:cy="216.0005"
   inkscape:window-x="-8"
   inkscape:window-y="-8"
   inkscape:window-maximized="1"
   inkscape:current-layer="goose" />
<symbol
   id="chain1"
   viewBox="-7.739 -10.309 15.478 20.617">
	<path
   style="fill:#FFD700;stroke:#000000;"
   d="M0,9.809c-3.998,0-7.239-4.392-7.239-9.809c0-5.418,3.241-9.809,7.239-9.809   c3.998,0,7.239,4.391,7.239,9.809C7.239,5.417,3.998,9.809,0,9.809z M0-6.904c-2.505,0-4.536,3.509-4.536,6.904   c0,3.395,2.031,6.904,4.536,6.904c2.506,0,4.537-3.51,4.537-6.904C4.536-3.396,2.505-6.904,0-6.904z"
   id="path4" />
</symbol>
<symbol
   id="chain2"
   viewBox="-2.125 -9.249 4.25 18.498">
	<path
   style="fill:#FFD700;stroke:#000000;"
   d="M-1.625-7.125c0-0.897,0.728-1.624,1.625-1.624c0.897,0,1.625,0.727,1.625,1.624   v14.25c0,0.896-0.728,1.624-1.625,1.624c-0.897,0-1.625-0.728-1.625-1.624V-7.125z"
   id="path7" />
</symbol>
<g
   id="Layer_4">
	<rect
   x="350.00101"
   width="370.00101"
   height="432.00101"
   id="rect10"
   y="0" />
	<rect
   style="fill:#cf142b"
   width="359.16"
   height="432.00101"
   id="rect12"
   x="0"
   y="0" />
</g>
<g
   id="g14">
	
		<use
   xlink:href="#chain1"
   width="15.478"
   height="20.617"
   x="-7.739"
   y="-10.309"
   transform="matrix(0.7314 0.682 0.682 -0.7314 327.9238 285.7373)"
   style="overflow:visible;"
   id="use16" />
	
		<use
   xlink:href="#chain1"
   width="15.478"
   height="20.617"
   x="-7.739"
   y="-10.309"
   transform="matrix(0.2492 0.9684 0.9684 -0.2492 383.9922 228.7822)"
   style="overflow:visible;"
   id="use18" />
</g>
<g
   id="g20">
	<path
   style="fill:#FFFFFF;stroke:#000000;"
   d="M467.44,204.272c2.37,3.893,4.183,8.201,1.057,8.84   c-2.518,0.515-5.19-0.891-7.287-2.124c-2.446-1.438-4.709-3.14-6.949-4.875c-3.417-2.646-6.408-5.872-9.189-9.167   c-1.573-1.865-3.088-3.782-4.595-5.7c-2.521-3.208-4.927-6.502-7.258-9.85c-1.158-1.663-2.299-3.337-3.433-5.017   c-0.321-0.476-3.551-4.781-3.366-5.021c0.37-0.48,0.59-1.08,1.08-1.48c6.97,2.59,14.16,5.63,21.79,3.35   c0.07-0.021,3.554,7.937,3.911,8.664c1.259,2.557,2.562,5.098,4.064,7.522c1.795,2.895,3.7,5.82,5.762,8.532   C463.596,198.696,465.673,201.369,467.44,204.272z"
   id="path22" />
	<path
   style="fill:#FFFFFF;stroke:#000000;"
   d="M467.172,214.528c0.712,1.458,0.541,3.478,0.761,5.065   c0.484,3.502,1.694,7.257,1.147,10.807c-1.4,9.08-11.97-1.94-14.76-4.681c-2.713-2.66-5.442-5.436-7.781-8.42   c-2.591-3.305-5.395-6.434-7.848-9.847c-2.535-3.526-4.902-7.167-7.228-10.833c-1.332-2.099-2.646-4.209-3.968-6.313   c-3.83-6.093-7.46-12.319-10.816-18.686c2.307-0.072,4.61-0.19,6.918-0.213c0.847-0.008,2.263-0.398,3.027,0.071   c0.52,0.319,0.704,1.088,0.999,1.594c0.554,0.948,1.178,1.845,1.793,2.754c3.491,5.159,7.111,10.236,10.854,15.216   c4.282,5.699,9.172,10.979,14.835,15.333c1.729,1.329,3.507,2.593,5.314,3.811c1.149,0.774,2.37,1.433,3.591,2.086   c0.987,0.529,2.443,1.031,3.047,2.044C467.099,214.386,467.137,214.457,467.172,214.528z"
   id="path24" />
	<path
   style="fill:#FFFFFF;stroke:#000000;"
   d="M444.61,159.28c2.14,4.32,5.529,9.12,4.68,13.95c-7.63,2.28-14.82-0.76-21.79-3.35   c-17.04-14.56-29.3-36.4-50.96-44.62c11.4-7.81,29.89,1.38,37.51,7.12c11.03,8.29,18.26,20.54,29.58,24.02   C444.04,157.33,444.2,158.34,444.61,159.28z"
   id="path26" />
	<path
   style="fill:#FFFFFF;stroke:#000000;"
   d="M444.606,214.735c0.562,1.249,0.702,2.431-0.103,3.208   c-1.408,1.358-4.442-1.774-5.757-2.285c0.077,2.623,1.2,5.133,0.938,7.779c-0.081,0.82-0.373,1.696-0.601,2.486   c-0.398,1.381-1,3.396-2.492,3.969c-1.743,0.668-3.697-1.013-4.904-2.07c-1.528-1.341-2.83-2.915-4.136-4.466   c-1.866-2.217-3.617-4.538-5.377-6.84c-1.995-2.609-3.482-5.519-5.099-8.366c-3.91-6.889-7.189-14.132-10.824-21.167   c-3.616-6.996-7.571-13.871-12.503-20.034c0.04-0.23,0.1-0.63,0.12-1.01c2.439-1.13,5.45,0.12,7.689-1.68   c5.181,2.13,9.62,5.61,15.12,7.36c0.459,0.146,1.295,2.389,1.548,2.855c0.52,0.956,1.04,1.911,1.564,2.863   c1.064,1.936,2.148,3.86,3.275,5.761c2.035,3.434,4.229,6.769,6.353,10.147c2.082,3.31,4.047,6.696,6.235,9.937   c1.536,2.273,3.187,4.323,5.059,6.3C441.529,210.345,443.662,212.634,444.606,214.735z"
   id="path28" />
	<path
   style="fill:#FFFFFF;stroke:#000000;"
   d="M427.5,169.88c-0.49,0.4-0.71,1-1.08,1.48c-3.21-0.03-6.54,0.16-9.74,0.26   c-5.5-1.75-9.939-5.23-15.12-7.36c-9.29-9.34-18.29-20.57-30.159-26.98c0-4.33,1.81-9.66,5.14-12.02   C398.2,133.48,410.46,155.32,427.5,169.88z"
   id="path30" />
	<path
   style="fill:#FFFFFF;stroke:#000000;"
   d="M421.404,216.319c-0.009,0.335-0.057,0.671-0.151,1.006   c-0.31,1.097-1.227,1.407-2.127,0.706c-0.553-0.43-0.94-0.979-1.255-1.599c-0.151-0.298-0.555-1.843-0.88-1.939   c-0.445-0.132-0.591,3.036-0.722,3.528c-0.548,2.063-1.112,5.022-3.279,6.024c-1.729,0.801-3.873-0.798-4.95-2.064   c-3.212-3.777-5.894-7.995-8.148-12.405c-0.661-1.293-1.27-2.612-1.817-3.956c-0.731-1.793-1.368-3.639-1.702-5.551   c-0.888-5.078-2.694-10.161-4.153-15.105c-0.756-2.561-1.558-5.107-2.42-7.634c-0.226-0.66-2.884-7.357-2.799-7.41   c2.02-1.26,4.54-1.78,6.75-2.97c4.563,5.701,8.304,12.018,11.687,18.475c3.402,6.494,6.599,13.094,9.952,19.614   c1.092,2.122,2.21,4.241,3.702,6.107C420.226,212.566,421.453,214.417,421.404,216.319z"
   id="path32" />
	<path
   style="fill:#FFFFFF;stroke:#000000;"
   d="M398.309,207.523c-0.095,1.635-0.538,3.241-1.479,4.607   c-1.096,1.592-2.896,2.808-4.891,2.685c-2.113-0.13-3.692-1.72-4.719-3.446c-1.517-2.55-2.102-5.486-2.835-8.323   c-0.781-3.023-1.569-6.038-2.22-9.094c-0.37-1.74-0.709-3.486-1.021-5.238c-0.205-1.151-2.126-13.929-2.064-13.934   c3.26-0.28,5.64-2.32,7.56-4.86c0.12,0,0.24,0,0.36,0c0.305,0,1.51,3.719,1.669,4.142c0.53,1.416,1.011,2.85,1.469,4.292   c0.918,2.893,1.827,5.79,2.724,8.689c0.898,2.906,1.604,5.854,2.363,8.797c0.814,3.164,2.582,6.075,2.997,9.339   C398.32,205.951,398.354,206.74,398.309,207.523z"
   id="path34" />
	<path
   style="fill:#FFFFFF;stroke:#000000;"
   d="M401.56,164.26c-2.239,1.8-5.25,0.55-7.689,1.68c-8.271-4.25-14.19-12.67-22.53-16.9   c-1.22-3.64-1.609-8.25,0.061-11.76C383.27,143.69,392.27,154.92,401.56,164.26z"
   id="path36" />
	<path
   style="fill:#FFFFFF;stroke:#000000;"
   d="M393.87,165.94c-0.021,0.38-0.08,0.78-0.12,1.01c-2.21,1.19-4.73,1.71-6.75,2.97   c-0.12,0-0.24,0-0.36,0c-4.63-1.66-8.26-4.63-12.199-7.68c-1.96-4.07-3.131-8.81-3.101-13.2   C379.68,153.27,385.6,161.69,393.87,165.94z"
   id="path38" />
	<path
   style="fill:#FFFFFF;stroke:#000000;"
   d="M386.581,210.417c-0.037,1.342-0.338,2.679-1.02,3.986   c-0.965,1.85-2.848,3.826-4.988,4.15c-2.505,0.38-3.93-1.789-4.561-3.904c-0.858-2.881-1.116-5.979-1.887-8.903   c-0.399-1.516-0.876-3.035-1.496-4.477c1.99-8.84,3.66-17.7,3.21-26.89c1.08-0.24,2.17,0.26,3.24,0.4   c0.257,0.034,0.918,6.841,1.02,7.521c0.377,2.534,0.792,5.062,1.256,7.582c0.469,2.545,0.919,5.096,1.526,7.612   c0.371,1.534,0.766,3.018,1.42,4.459C385.515,204.625,386.659,207.531,386.581,210.417z"
   id="path40" />
	<path
   style="fill:#FFFFFF;stroke:#000000;"
   d="M386.64,169.92c-1.92,2.54-4.3,4.58-7.56,4.86c-1.07-0.14-2.16-0.64-3.24-0.4   c-1.28-3.83-1.8-8.21-1.399-12.14C378.38,165.29,382.01,168.26,386.64,169.92z"
   id="path42" />
	<path
   style="fill:#FFFFFF;stroke:#000000;"
   d="M377.102,217.976c0.079,1.277-0.038,2.512-0.496,3.598   c-1.078,2.554-6.292,4.495-7.708,1.354c-0.224-0.496-0.428-1.001-0.725-1.46c-0.097-0.148-0.933-0.988-0.913-1.087   c0.66-3.309,1.28-7.099-0.318-10.298c-0.153-0.306,0.841-1.976,0.999-2.31c0.388-0.823,0.807-1.631,1.274-2.412   c0.912-1.521,2.013-2.95,3.396-4.074c0.064,1.302,0.886,2.591,1.244,3.835c0.548,1.898,1.087,3.8,1.626,5.701   C376.061,212.872,376.948,215.506,377.102,217.976z"
   id="path44" />
	<path
   style="fill:#FFFFFF;stroke:#000000;"
   d="M366.94,210.08c1.6,3.2,0.979,6.99,0.319,10.3c-2.89,0.86-3.439,4.58-6.38,5.33   c-0.17-0.07-0.53-0.229-0.78-0.54c-0.85-2.03,0.48-4.57-0.939-6.41C361.35,215.57,363.55,211.99,366.94,210.08z"
   id="path46" />
	<path
   style="fill:#FFD700;stroke:#000000;"
   d="M366.117,338.922c0.62,1.009,1.629,1.756,2.257,2.782   c-3.416,1.782-7.582,2.579-11.229,3.822c-3.38,1.152-6.863,3.476-10.344,4.143c-1.499,0.287-1.865-0.904-3.122-1.569   c-0.984-0.521-2.085-0.819-3.127-1.2c-2.023-0.737-3.78-1.417-5.938-1.576c-1.312-0.097-3.057-0.421-1.487-1.79   c0.706-0.616,1.567-0.89,2.328-1.405c0.692-0.47,1.085-1.322,1.764-1.749c0.802-0.504,2.254-0.532,3.175-0.685   c3.438-0.568,6.865-1.22,10.322-1.672c2.398-0.313,5.821-0.077,7.424-2.277c1.226-1.683,1.084-4.188,1.086-6.157   c0.004-3.291-0.117-6.581-0.113-9.872c0.002-1.452,0.202-2.986,0.027-4.431c-0.148-1.229-0.777-2.283-1.095-3.459   c-0.294-1.089-0.167-2.319-0.798-3.322c1.794,0.511,6.082,0.304,7.136,2.002c0.693,1.117,0.414,2.554,0.304,3.784   c-0.163,1.819-0.247,3.635-0.222,5.462c0.05,3.645,0.447,7.273,0.829,10.895c0.249,2.364-0.193,4.929,0.378,7.236   C365.767,338.266,365.923,338.606,366.117,338.922z"
   id="path48" />
	<path
   style="fill:#FFFFFF;stroke:#000000;"
   d="M349.2,114.12l0.36-0.63c-0.1,1.16-0.44,2.4-0.81,3.82   c-2.52,9.51-0.84,20.94-0.29,33.26c1.23,27.68-0.58,55.17-26.44,58.41l-0.18-0.9c-0.36,0-0.72,0-1.08,0   c4.07-3.49,8.48-6.64,11.16-11.52c4.87-9.81,5.77-24.65,4.32-40.68c-0.83-9.14-1.39-19.01-0.72-26.64   c0.78-8.92,5.23-14.83,13.32-15.84C348.92,113.68,348.85,114.11,349.2,114.12z"
   id="path50" />
	<path
   style="fill:#FFD700;stroke:#000000;"
   d="M345.997,325.79c0.041,0.113,0.088,0.226,0.141,0.335   c0.439,0.912,2.113,1.301,2.367,2.254c0.357,1.34-1.872,1.658-2.828,1.922c-3.202,0.883-6.43,1.317-9.723,1.694   c-2.319,0.266-4.668,0.541-6.969,0.935c-2.23,0.382-3.96,1.403-6.176,0.462c-2.835-1.205-5.363-2.101-8.505-2.198   c1.195-0.542,2.067-1.657,3.156-2.375c1.161-0.767,2.375-1.477,3.443-2.375c0.93-0.782,1.759-2.375,2.897-2.817   c0.91-0.354,2.432,0.044,3.402,0.03c1.19-0.017,2.37-0.038,3.561-0.027c4.026,0.037,8.101,0.087,9.031-4.706   c0.756-3.898,0.107-8.061-0.21-11.976c-0.07-0.867-1.195-7.146-0.65-7.546c0.826-0.606,4.877-0.008,5.515,0.801   c1.431,1.816,0.245,5.087,0.154,7.164c-0.151,3.463,0.525,6.899,0.926,10.325c0.161,1.378,0.343,2.68,0.288,4.069   C345.764,323.068,345.536,324.525,345.997,325.79z"
   id="path52" />
	<path
   style="fill:#FFFFFF;stroke:#000000;"
   d="M346.827,295.298c-0.601,3.969-4.275,8.087-8.433,5.644   c-3.255-1.914-2.203-6.007-3.061-9.021c-1.217-4.281-4.212-7.885-5.272-12.279c-0.134-0.556,12.934,1.228,13.972,1.709   c4.192,1.946,5.339,4.275,3.074,8.623c-0.855,1.29-0.328,2.215-0.213,3.722C346.934,294.215,346.909,294.755,346.827,295.298z"
   id="path54" />
	<path
   style="fill:#FFFFFF;stroke:#000000;"
   d="M279,120.96c-0.655,2.151-1.508,4.297-2.463,6.331   c-1.582,3.367-3.76,6.32-6.234,9.081c-1.125,1.254-2.302,2.524-3.702,3.478c-0.328,0.224-3.492,1.951-3.784,1.488   c-0.416-0.66-0.301-1.846-0.436-2.612c-0.202-1.148-0.253-2.322-0.409-3.477c-0.137-1.016-0.379-2.07-0.318-3.099   c0.066-1.124-4.785-3.244-5.697-2.868c-1.307,0.539-2.608,1.061-3.967,1.462c-1.367,0.404-4.087,2.297-5.127,0.407   c-0.873-1.584,0.484-4.255,1.075-5.749c0.692-1.75,1.505-3.442,2.262-5.164c1.897-4.325,4.752-7.913,7.369-11.786   c1.712-2.534,3.277-5.153,5.602-7.193c2.148-1.885,4.8-3.072,7.222-4.549c2.705-1.649,5.4-3.32,8.254-4.703   c4.463-2.163,9.358-3.751,14.25-4.551c4.391-0.718,9.116-0.931,13.237,1.023c2.709,1.284,4.869,3.125,7.025,5.165   c1.661,1.572,3.21,3.266,4.545,5.125c2.967,4.132,4.611,8.922,5.197,13.955c0.348,2.995,0.653,6.305,0.378,9.315   c-1.69,18.5-15.591,47.082-17.28,51.48s-4.26,13.674-3.24,19.8c0.907,5.449,4.653,10.996,9.603,13.537   c1.529,0.785,3.433,1.618,5.137,1.891c1.058,0.17,2.763-0.492,3.824-0.694c1.25-0.238,2.499-0.491,3.739-0.776   c2.348-0.54,4.68-1.191,6.917-2.093c4.031-1.625,7.625-4.139,10.132-7.73c2.631-3.767,3.951-8.284,4.743-12.763   c0.915-5.175,1.184-10.453,1.35-15.697c0.174-5.479,0.203-10.964,0.242-16.446c0.005-0.657,0.043-1.323,0.014-1.979   c-0.287-6.418-0.96-12.793-0.947-19.227c0.01-5.317-0.305-11.19,1.213-16.341c0.388-1.316,0.94-2.574,1.621-3.765   c1.179-2.063,3.06-4.008,4.594-5.82c1.484-1.752,3.06-3.438,4.827-4.909c3.662-3.048,8.031-4.77,12.624-5.874   c3.002-0.721,6.137-1.422,9.208-1.755c14.851-1.61,28.23,3.08,37.801,9.36c7.04,4.62,14.689,10.93,20.52,17.64   c8,9.21,16.54,19.34,23.4,29.88c7.47,11.49,11.97,24.31,18.359,35.28c0.494,0.849,0.692,2.07,1.008,3.005   c0.335,0.994,0.672,1.986,1.015,2.978c0.672,1.946,1.36,3.887,2.082,5.815c2.577,6.88,5.617,13.585,8.314,20.42   c1.401,3.55,3.237,6.976,4.404,10.61c0.279,0.869,0.882,2.497,0.088,3.278c-0.681,0.671-2.002,0.298-2.818,0.182   c-2.071-0.297-4.466-1.861-6.155-3.021c-3.468-2.381-6.888-5.067-9.991-7.906c-1.564-1.431-3.06-2.941-4.471-4.522   c-2.709-3.031-4.851-6.362-7.123-9.72c-0.893-1.319-1.428-2.788-2.334-4.105c-0.515-0.747-1.146-1.406-1.604-2.194   c-1.124-1.936-2.379-3.805-3.638-5.655c-4.513-6.629-8.015-13.609-11.167-20.976c-0.2-0.468,0.086-1.575,0.073-2.108   c-0.017-0.706-0.093-1.408-0.246-2.099c-0.584-2.625-2.081-5.043-3.258-7.435c-0.955-1.941-1.957-3.587-3.526-5.086   c-0.771-0.736-2.032-1.238-2.938-1.811c-1.015-0.643-2.019-1.303-3.002-1.995c-3.991-2.806-7.446-6.174-10.815-9.683   c-3.609-3.76-7.352-7.495-11.528-10.634c-7.62-5.74-26.109-14.93-37.51-7.12c-3.33,2.36-5.14,7.69-5.14,12.02   c-1.67,3.51-1.28,8.12-0.061,11.76c-0.03,4.39,1.141,9.13,3.101,13.2c-0.4,3.93,0.119,8.31,1.399,12.14   c0.45,9.19-1.22,18.05-3.21,26.89c-2.71,2.19-4.41,5.63-5.689,8.81c-3.391,1.91-5.591,5.49-7.78,8.68   c1.42,1.84,0.09,4.38,0.939,6.41c0.25,0.311,0.61,0.47,0.78,0.54c0.544,0.226,1.809-0.982,2.121-1.314   c0.576-0.612,1.072-1.305,1.617-1.945c0.506-0.594,1.142-1.618,1.91-1.885c1.125-0.389,1.552,0.997,2.062,1.708   c0.316,0.441,0.643,1.262,1.056,1.572c-0.286,1.134,1.526,1.064,2.151,1.03c2.059-0.109,3.607,0.051,5.531,0.765   c1.309,0.486,2.648,0.938,3.922,1.516c2.237,1.014,4.546,1.771,6.613,3.053c1.174,0.728,2.527,1.169,3.73,1.858   c2.271,1.302,4.518,2.707,7.037,3.485c1.759,0.543,3.601,0.726,5.379,1.192c3.865,1.013,7.561,2.697,11.365,3.92   c0.87,0.28,1.724,0.596,2.585,0.895c20.49,7.12,38.58,19.091,58.68,27.721c-0.13,1.189-2.069,0.569-3.239,0.72   c-6.061,8.8-19.69,2.7-30.96,1.8l-0.471,1.26l-1.33-0.18c0.181,2.28-2.359,2.12-3.96,2.88c-1.619,0.775-3.202,1.622-4.808,2.425   c-2.563,1.28-5.562,2.896-8.491,2.884c-2.833-0.012-5.974,0.516-8.586,1.654c-1.758,0.766-3.658,1.088-5.427,1.806   c-1.435,0.583-2.681,1.116-4.221,1.429c-1.725,0.351-3.452,0.653-5.193,0.907c-3.358,0.489-6.739,0.855-10.074,1.496   c-5.85,1.123-11.251,4.029-16.679,6.361c-1.388,0.597-2.978,1.472-4.003,2.608c-0.812,0.9-1.833,2.063-2.065,3.293   c-0.184,0.975,0.139,2.018,0.194,2.994c0.109,1.909,0.242,4.713-0.585,6.49c-0.402,0.863-1.462,1.815-2.422,2.013   c-1.28,0.263-2.837,0.208-4.133,0.085c-1.909-0.183-3.681-0.898-4.638-2.646c-1.141-2.084-1.135-4.53-1.777-6.763   c-0.452-1.571-1.193-3.029-1.944-4.473c-0.726-1.396-1.71-2.196-2.744-3.361c-0.841-0.948-1.515-2.087-2.35-3.056   c-1.338-1.552-3.444-2.875-5.115-4.05c-1.633-1.148-3.356-2.157-5.167-2.995c-2.942-1.36-6.062-2.299-9.118-3.36   c-3.139-1.089-6.253-2.254-9.439-3.203c-4.945-1.474-10.07-2.479-15.111-3.576c-5.183-1.129-19.341-5.406-23.424-8.683   s-9.92-10.082-12.986-13.044s-8.423-16.227-9.693-23.676c-2.61-15.38,0.95-31.48,8.28-39.96l16.56-24.48   c4.42-6.13,8.84-13.3,12.96-20.52c4.16-7.29,8.56-15.1,10.08-23.4c1.91-10.42-2.47-23.09-14.76-18.36   C282.95,105.24,281.58,112.48,279,120.96z"
   id="path56" />
	<path
   style="stroke:#000000;"
   d="M263.829,121.771c0.197,0.106,0.373,0.253,0.516,0.454c0.979,1.368,0.776,3.198,0.065,4.626   c-0.731,1.469-1.116,3.729-3.096,3.932c-4.013,0.41-4.044-5.105-2.443-7.358C259.895,121.985,262.057,120.82,263.829,121.771z    M260.164,126.335c0.497,0.095,1.092-0.143,1.59-0.877c0.792-1.168,0.603-2.783-1.092-2.595   C259.056,123.042,258.279,125.971,260.164,126.335z"
   id="path58" />
	<path
   style="fill:none;stroke:#000000;"
   d="M349.851,339.842c3.097-0.179,8.143-1.146,8.721-4.838"
   id="path60" />
	<path
   style="fill:none;stroke:#000000;"
   d="M330.572,325.623c1.306,1.142,6.552-2.116,7.501-3.457"
   id="path62" />
	<path
   style="fill:#FFD700;stroke:#000000;"
   d="M261.087,143.458c0.059,0.13,0.1,0.271,0.118,0.425   c0.141,1.146-1.065,2.021-1.685,2.825c-0.85,1.104-1.52,2.359-2.274,3.53c-1.732,2.691-3.529,5.341-5.122,8.119   c-0.813,1.418-1.576,2.865-2.258,4.351c-0.673,1.469-2.139,7.523-4.805,5.927c-1.566-0.938-1.092-2.304-0.981-3.755   c0.24-3.14,3-7.36,3.6-11.52c0.37-2.56-1.01-4.98,1.44-6.48c-0.91,1.6,0.39,2.58,1.44,3.24c0.37,0.232,1.38-1.073,1.493-1.324   c0.402-0.891,0.394-1.898,0.438-2.855c0.041-0.866,0.285-1.902-0.171-2.693c-0.286-0.497-0.923-0.766-1.46-0.814   c-0.461-0.042-1.35,0.261-1.745-0.042c-0.981-0.754,0.844-3.362,1.781-3.439c1.009-0.083,2.147,0.157,3.11,0.443   c1.563,0.464,2.947,1.353,4.329,2.193C259.159,142.088,260.641,142.469,261.087,143.458z"
   id="path64" />
	<path
   style="fill:#FFD700;stroke:#000000;"
   d="M250.277,139.054c-0.093,0.068-0.182,0.149-0.268,0.242   c-0.899,0.977-0.942,2.583-2.128,3.339c-1.305,0.831-3.006-0.077-3.533-1.432c-0.76-1.957-0.306-4.812,0.097-6.834   c0.18-0.903,0.584-2.255,1.393-2.793c1.006-0.669,2.347,0.048,3.438-0.029c1.356-0.096,2.603-0.732,3.85-1.218   c1.557-0.606,3.251-2.003,4.992-1.923c1.192,0.055,2.51,0.872,3.263,1.765c0.871,1.033,0.871,2.465,0.886,3.746   c0.02,1.613,0.294,3.205,0.502,4.8c0.148,1.141,0.855,3.199-0.108,4.165c-0.794,0.795-2.273-0.093-3.044-0.529   c-1.499-0.849-2.942-1.803-4.5-2.544C253.868,139.214,251.583,138.083,250.277,139.054z"
   id="path66" />
	<path
   d="M252.484,144.944c-0.064-0.869-0.315-1.711-0.961-2.287c-0.972-0.867-2.855-1.326-3.719-0.029   c-0.368,0.553-0.458,1.218-0.342,1.863c0.107,0.601,0.498,1.108,0.683,1.684c0.141,0.44,0.201,0.903,0.306,1.352   c0.212,0.911,0.55,1.869,1.542,2.158c1.602,0.467,2.29-1.845,2.427-2.995C252.484,146.147,252.528,145.54,252.484,144.944z"
   id="path68" />
	<path
   style="fill:none;stroke:#000000;"
   d="M323.293,246.089c4.997,0.24,10.215-1.697,14.06-4.781   c3.078-2.469,5.264-5.408,7.393-8.675c1.936-2.97,4.966-5.105,7.553-7.47c2.16-1.975,4.104-4.366,6.504-6.058"
   id="path70" />
	<path
   style="fill:none;stroke:#000000;"
   d="M334.467,238.061c0.74-1.521,3.019-2.946,4.507-3.64   c1.847-0.861,3.489-1.547,5.196-2.664c0.65-0.426,1.406-0.625,2.05-1.063"
   id="path72" />
	<path
   style="fill:none;stroke:#000000;"
   d="M298.462,216.209c1.626-1.919,3.431-3.314,5.669-4.462   c2.983-1.529,6.142-1.907,9.381-2.569c1.331-0.272,3.073-0.174,4.413-0.403"
   id="path74" />
</g>
<g
   id="g76">
	
		<use
   xlink:href="#chain1"
   width="15.478"
   height="20.617"
   x="-7.739"
   y="-10.309"
   transform="matrix(1 0 0 -1 268.668 207.8804)"
   style="overflow:visible;"
   id="use78" />
	
		<use
   xlink:href="#chain1"
   width="15.478"
   height="20.617"
   x="-7.739"
   y="-10.309"
   transform="matrix(1 0 0 -1 268.668 235.6602)"
   style="overflow:visible;"
   id="use80" />
	
		<use
   xlink:href="#chain2"
   width="4.25"
   height="18.498"
   x="-2.125"
   y="-9.249"
   transform="matrix(1 0 0 -1 269.0313 221.5156)"
   style="overflow:visible;"
   id="use82" />
	
		<use
   xlink:href="#chain1"
   width="15.478"
   height="20.617"
   x="-7.739"
   y="-10.309"
   transform="matrix(0.9308 -0.3656 -0.3656 -0.9308 273.2915 263.1826)"
   style="overflow:visible;"
   id="use84" />
	
		<use
   xlink:href="#chain2"
   width="4.25"
   height="18.498"
   x="-2.125"
   y="-9.249"
   transform="matrix(0.983 -0.1835 -0.1835 -0.983 269.5596 249.293)"
   style="overflow:visible;"
   id="use86" />
	
		<use
   xlink:href="#chain1"
   width="15.478"
   height="20.617"
   x="-7.739"
   y="-10.309"
   transform="matrix(0.8499 -0.527 -0.527 -0.8499 281.9209 289.4316)"
   style="overflow:visible;"
   id="use88" />
	
		<use
   xlink:href="#chain2"
   width="4.25"
   height="18.498"
   x="-2.125"
   y="-9.249"
   transform="matrix(0.9736 -0.2282 -0.2282 -0.9736 277.8428 276.0518)"
   style="overflow:visible;"
   id="use90" />
	
		<use
   xlink:href="#chain1"
   width="15.478"
   height="20.617"
   x="-7.739"
   y="-10.309"
   transform="matrix(-0.1432 -0.9897 -0.9897 0.1432 305.3682 301.667)"
   style="overflow:visible;"
   id="use92" />
	
		<use
   xlink:href="#chain2"
   width="4.25"
   height="18.498"
   x="-2.125"
   y="-9.249"
   transform="matrix(0.4736 -0.8807 -0.8807 -0.4736 293.4785 296.6084)"
   style="overflow:visible;"
   id="use94" />
	
		<use
   xlink:href="#chain2"
   width="4.25"
   height="18.498"
   x="-2.125"
   y="-9.249"
   transform="matrix(-0.6897 -0.7241 -0.7241 0.6897 317.3271 294.9121)"
   style="overflow:visible;"
   id="use96" />
	
		<use
   xlink:href="#chain1"
   width="15.478"
   height="20.617"
   x="-7.739"
   y="-10.309"
   transform="matrix(0.7439 -0.6682 -0.6682 -0.7439 408.2041 236.8047)"
   style="overflow:visible;"
   id="use98" />
	
		<use
   xlink:href="#chain2"
   width="4.25"
   height="18.498"
   x="-2.125"
   y="-9.249"
   transform="matrix(0.3511 -0.9363 -0.9363 -0.3511 396.3535 230.541)"
   style="overflow:visible;"
   id="use100" />
	
		<use
   xlink:href="#chain1"
   width="15.478"
   height="20.617"
   x="-7.739"
   y="-10.309"
   transform="matrix(0.9734 -0.2293 -0.2293 -0.9734 415.5752 262.6729)"
   style="overflow:visible;"
   id="use102" />
	
		<use
   xlink:href="#chain2"
   width="4.25"
   height="18.498"
   x="-2.125"
   y="-9.249"
   transform="matrix(0.9673 -0.2535 -0.2535 -0.9673 412.792 249.165)"
   style="overflow:visible;"
   id="use104" />
	
		<use
   xlink:href="#chain1"
   width="15.478"
   height="20.617"
   x="-7.739"
   y="-10.309"
   transform="matrix(1 0 0 -1 416.6152 290.7275)"
   style="overflow:visible;"
   id="use106" />
	
		<use
   xlink:href="#chain2"
   width="4.25"
   height="18.498"
   x="-2.125"
   y="-9.249"
   transform="matrix(1 0 0 -1 416.2334 276.8184)"
   style="overflow:visible;"
   id="use108" />
	
		<use
   xlink:href="#chain1"
   width="15.478"
   height="20.617"
   x="-7.739"
   y="-10.309"
   transform="matrix(1 0 0 -1 415.8701 318.7617)"
   style="overflow:visible;"
   id="use110" />
	
		<use
   xlink:href="#chain2"
   width="4.25"
   height="18.498"
   x="-2.125"
   y="-9.249"
   transform="matrix(1 0 0 -1 415.9785 304.4902)"
   style="overflow:visible;"
   id="use112" />
</g>
<g
   id="g114">
	<path
   style="fill:#FFD700;stroke:#000000;"
   d="M312.115,176.73c1.224-4.006,5.911-5.453,9.725-5.371   c-6.035,5.147-9.992,12.389-13.622,18.359c0,0-4.554-2.22-7.343-3.879c2.329-5.008-5.621-8.247-7.471-3.019   c-4.1-0.3-24.736-9.316-24.736-9.316c0.87-4.91,2.642-13.734,2.052-20.504c2.45,2.59,5.91,4.17,5.76,9.36   c0.69,0.86,4.72,1.84,4.72,1.84c-3.821,6.692,7.278,5.989,3.73,0.14c1.03-2.46,4.12-1.54,6.03-2.41c-0.21-4.23,7.29-4.98,7.29-4.98   s4.97,4.99,2.84,8.13c1.57,2.03,4.23,3.22,3.124,6.515c-6.884,4.355,3.583,10.104,2.984,1.331   C307.192,172.846,311.349,175.758,312.115,176.73z"
   id="path116" />
	<path
   style="fill:#FFD700;stroke:#000000;"
   d="M276.864,176.135l-5.854-2.366c-2.173-0.878-4.477-0.253-5.144,1.397   c-0.667,1.649,0.556,3.7,2.729,4.579l5.115,2.067"
   id="path118" />
	
		<use
   xlink:href="#chain1"
   width="15.478"
   height="20.617"
   x="-7.739"
   y="-10.309"
   transform="matrix(0.6225 0.7826 0.7826 -0.6225 273.71 181.5796)"
   style="overflow:visible;"
   id="use120" />
	
		<use
   xlink:href="#chain2"
   width="4.25"
   height="18.498"
   x="-2.125"
   y="-9.249"
   transform="matrix(0.9938 0.1111 0.1111 -0.9938 269.7959 194.3535)"
   style="overflow:visible;"
   id="use122" />
	<path
   style="fill:#FFD700;stroke:#000000;stroke-linecap:round;"
   d="M273.71,181.813l29.423,11.892   c2.175,0.879,4.477,0.253,5.144-1.396c0.667-1.65-0.553-3.7-2.729-4.58l-28.684-11.593"
   id="path124" />
</g>
</svg>