<svg xmlns="http://www.w3.org/2000/svg" width="650" height="390">
  <path style="fill:#043f9f;fill-opacity:1;fill-rule:nonzero;stroke:none" d="M0 0h649.99908v389.99951H0z"/>
  <path style="opacity:.5;fill:#ff0;fill-opacity:1;fill-rule:nonzero;stroke:none" d="M31.721742 237.50436c10.27125-.002 20.54249-2.35395 30.81373-6.04928 10.27125-3.69533 20.54249-8.62206 30.81373-12.66655 10.271238-4.0445 20.542478-7.0777 30.813718-7.80663 10.27124-.72893 20.54249.8798 30.81373 4.12692 10.27126 3.24712 20.54249 8.0401 30.81373 12.32105 10.27125 4.28094 20.54249 7.91524 30.81373 9.35103 10.27124 1.43578 20.5425.61834 30.81372-2.092 10.27125-2.71033 20.5425-7.23883 30.81375-11.63945 10.27123-4.40062 20.54248-8.53687 30.81372-10.64036 10.27125-2.10348 20.54249-2.09962 30.81374 0 10.27124 2.09963 20.54246 6.24011 30.81372 10.64036 10.27124 4.40026 20.54249 8.92566 30.81373 11.63945 10.27125 2.7138 20.54248 3.52364 30.81374 2.092 10.27123-1.43165 20.54248-5.07117 30.81372-9.35103 10.27125-4.27987 20.54248-9.07096 30.81372-12.32105 10.27126-3.25008 20.54249-4.85153 30.81374-4.12692 10.27124.72461 20.54249 3.76389 30.81372 7.80663 10.27125 4.04273 20.5425 8.96883 30.81375 12.66655 10.27122 3.69773 20.54248 6.04709 30.81372 6.04928"/>
  <path style="opacity:1;fill:#8cb9ad;fill-opacity:1;fill-rule:nonzero;stroke:none" d="M-65 139.23586c13.684211.004 27.368421 4.24967 41.052632 9.80102 13.68421 5.55135 27.368421 11.8837 41.052631 14.61304 13.684211 2.72934 27.368427 1.58488 41.052627-2.62645 13.68421-4.21133 27.36843-11.10556 41.05264-15.90254 13.68421-4.79698 27.36842-7.03739 41.05262-5.18124 13.68422 1.85615 27.36843 7.65041 41.05263 13.3587 13.68423 5.7083 27.36843 10.79352 41.05263 11.73997 13.68423.94646 27.36844-2.35109 41.05264-7.5947 13.6842-5.24362 27.36843-11.94785 41.05263-15.46877 13.68421-3.52092 27.36843-3.51494 41.05264 0 13.6842 3.51494 27.36843 10.22211 41.05263 15.46877 13.6842 5.24665 27.36841 8.5337 41.05264 7.5947 13.6842-.93898 27.3684-6.0323 41.05263-11.73997 13.6842-5.70767 27.36841-11.49539 41.05263-13.3587 13.6842-1.86332 27.36841.3884 41.05262 5.18124 13.68422 4.79283 27.36842 11.68609 41.05263 15.90254 13.68422 4.21646 27.36844 5.34913 41.05263 2.62645 13.68422-2.72269 27.36844-9.05982 41.05264-14.61304 13.68419-5.55321 27.36843-9.79723 41.05263-9.80102v35.8c-13.6842.004-27.36844 4.24781-41.05263 9.80102-13.6842 5.55322-27.36842 11.89035-41.05264 14.61304-13.68419 2.72268-27.36841 1.59001-41.05263-2.62645-13.68421-4.21645-27.36841-11.10971-41.05263-15.90254-13.68421-4.79284-27.36842-7.04456-41.05262-5.18124-13.68422 1.86331-27.36843 7.65103-41.05263 13.3587-13.68423 5.70767-27.36843 10.80099-41.05263 11.73997-13.68423.939-27.36844-2.34805-41.05264-7.5947-13.6842-5.24666-27.36843-11.95383-41.05263-15.46877-13.68421-3.51494-27.36843-3.52092-41.05264 0-13.6842 3.52092-27.36843 10.22515-41.05263 15.46877-13.6842 5.24361-27.36841 8.54116-41.05264 7.5947-13.6842-.94645-27.3684-6.03167-41.05263-11.73997-13.6842-5.70829-27.36841-11.50255-41.05263-13.3587-13.6842-1.85615-27.36841.38426-41.052617 5.18124-13.684216 4.79698-27.368428 11.69121-41.052638 15.90254s-27.368421 5.35579-41.052632 2.62645c-13.6842104-2.72934-27.368421-9.06169-41.052631-14.61304-13.684211-5.55135-27.368421-9.79702-41.052632-9.80102z"/>
  <path style="fill:#8cb9ad;fill-opacity:1;fill-rule:nonzero;stroke:none" d="M-65 210.83586c13.68421.004 27.36842 4.24967 41.05263 9.80102 13.68421 5.55135 27.3684201 11.8837 41.05263 14.61304 13.68421 2.72934 27.36843 1.58488 41.05263-2.62645 13.68421-4.21133 27.36843-11.10556 41.05264-15.90254 13.68421-4.79698 27.36842-7.03739 41.05262-5.18124 13.68422 1.85615 27.36843 7.65041 41.05263 13.3587 13.68423 5.7083 27.36843 10.79352 41.05263 11.73997 13.68423.94646 27.36844-2.35109 41.05264-7.5947 13.6842-5.24362 27.36843-11.94785 41.05263-15.46877 13.68421-3.52092 27.36843-3.51494 41.05264 0 13.6842 3.51494 27.36843 10.22211 41.05263 15.46877 13.6842 5.24665 27.36841 8.5337 41.05264 7.5947 13.6842-.93898 27.3684-6.0323 41.05263-11.73997 13.6842-5.70767 27.36841-11.49539 41.05263-13.3587 13.6842-1.86332 27.36841.3884 41.05262 5.18124 13.68422 4.79283 27.36842 11.68609 41.05263 15.90254 13.68422 4.21646 27.36844 5.34913 41.05263 2.62645 13.68422-2.72269 27.36844-9.05982 41.05264-14.61304 13.68419-5.55321 27.36843-9.79723 41.05263-9.80102v35.8c-13.6842.004-27.36844 4.24781-41.05263 9.80102-13.6842 5.55322-27.36842 11.89035-41.05264 14.61304-13.68419 2.72268-27.36841 1.59001-41.05263-2.62645-13.68421-4.21645-27.36841-11.10971-41.05263-15.90254-13.68421-4.79284-27.36842-7.04456-41.05262-5.18124-13.68422 1.86331-27.36843 7.65103-41.05263 13.3587-13.68423 5.70767-27.36843 10.80099-41.05263 11.73997-13.68423.939-27.36844-2.34805-41.05264-7.5947-13.6842-5.24666-27.36843-11.95383-41.05263-15.46877-13.68421-3.51494-27.36843-3.52092-41.05264 0-13.6842 3.52092-27.36843 10.22515-41.05263 15.46877-13.6842 5.24361-27.36841 8.54116-41.05264 7.5947-13.6842-.94645-27.3684-6.03167-41.05263-11.73997-13.6842-5.70829-27.36841-11.50255-41.05263-13.3587-13.6842-1.85615-27.36841.38426-41.05262 5.18124-13.68421 4.79698-27.36843 11.69121-41.05264 15.90254-13.68421 4.21133-27.36842 5.35579-41.05263 2.62645-13.6842099-2.72934-27.36842-9.06169-41.05263-14.61304-13.68421-5.55135-27.36842-9.79702-41.05263-9.80102z"/>
  <path style="fill:#fcdb0f;fill-opacity:1;fill-rule:nonzero;stroke:none" d="M132.45659 96c-.87114 0-5-5-8-8 0-2 1.68035-4.884601.0308-4.770366-16.23183 1.124085-28.405802 5.749128-28.405802 11.301616 0 3.198355 4.039332 6.09679 10.566812 8.19564 6.52748 2.09885 15.54311 3.39811 25.49569 3.39811 9.95259 0 18.9604-1.29926 25.48007-3.39811 6.51966-2.09885 10.55118-4.997285 10.55118-8.19564 0-5.547301-12.12773-10.168889-28.33059-11.298455C138.08047 83.1098 139.45659 86 139.45659 88c-3 3-6.23645 8.000001-7 8z" transform="translate(-.00000116)"/>
  <path style="fill:#fcdb0f;fill-opacity:1;fill-rule:nonzero;stroke:none" d="M128.45659 42v18c0 10-3 17-10 25l13.375 17 13.625-17c-7-8-10-15-10-25V42h-7zm3.5 34.8125c3.58985 0 6.5 2.91015 6.5 6.5 0 3.589852-2.91015 6.5-6.5 6.5-3.58984 0-6.5-2.910148-6.5-6.5 0-3.58985 2.91016-6.5 6.5-6.5zm0 2c-2.48527 0-4.5 2.014719-4.5 4.5 0 2.485282 2.01473 4.5 4.5 4.5 2.48528 0 4.5-2.014718 4.5-4.5 0-2.485281-2.01472-4.5-4.5-4.5zM89.296221 114.68706c0-5.01282 19.101699-9.07651 42.664829-9.07651 23.56314 0 42.66484 4.06369 42.66484 9.07651" transform="translate(-.00000116)"/>
  <g style="fill:#fcdb0f;fill-opacity:1">
    <path style="fill:#fcdb0f;fill-opacity:1;fill-rule:nonzero;stroke:none" d="M143.63491 32.486813c0 4.672708-3.69988 8.460686-8.26392 8.460686s-8.26393-3.787978-8.26393-8.460686c0-4.672709 3.69989-8.460687 8.26393-8.460687s8.26392 3.787978 8.26392 8.460687z" transform="matrix(.95657 0 0 .93432 2.46962414 1.1072947)"/>
    <path style="fill:#fcdb0f;fill-opacity:1;fill-rule:nonzero;stroke:none" d="M143.63491 32.486813c0 4.672708-3.69988 8.460686-8.26392 8.460686s-8.26393-3.787978-8.26393-8.460686c0-4.672709 3.69989-8.460687 8.26393-8.460687s8.26392 3.787978 8.26392 8.460687z" transform="matrix(.95657 0 0 .93432 13.66962444 13.768618)"/>
    <path d="M127.20946 44.12174c0 4.365811-3.53918 7.904999-7.90499 7.904999s-7.905-3.539188-7.905-7.904999c0-4.365812 3.53919-7.905 7.905-7.905s7.90499 3.539188 7.90499 7.905z" style="fill:#fcdb0f;fill-rule:nonzero;stroke:none" transform="translate(1.45658644)"/>
  </g>
  <path d="m142.32996 44.121739-11.68672-13.078261-11.68672 13.078261 11.68672 5.147826z" style="fill:#fcdb0f;fill-opacity:1;stroke:none" transform="translate(1.45658644)"/>
  <path style="fill:#fcdb0f;fill-opacity:1;fill-rule:nonzero;stroke:none" d="M69.875 52c2.620081 10.043643 6.347224 23.22164 9.75 34.96875.413941-.08269.842989-.125 1.28125-.125 3.589851 0 6.5 2.910149 6.5 6.5 0 2.752037-1.709317 5.114291-4.125 6.0625 2.541005 8.63378 4.5625 15.4375 4.5625 15.4375.0049 4.85636 19.09312 8.90625 42.65625 8.90625 23.56314 0 42.6825-4.04989 42.6875-8.90625 0 0 1.99296-6.81511 4.53125-15.4375-2.41568-.948209-4.125-3.310463-4.125-6.0625 0-3.589851 2.91015-6.5 6.5-6.5.43826 0 .86731.04231 1.28125.125 3.40485-11.751637 7.1598-24.919841 9.78125-34.96875l-1.61284-6-5.0026 4.342291L182.54341 50l-.38716 2v5c.27816 15.994437-8.76908 26.170904-17.53125 33.125h-68.25C87.61283 83.170897 78.596836 72.994437 78.875 57v-5s-.37165-1.72022-1.038693-.967068c-.254599.287466-1.276428-.292893-1.276428-.292893.244235.05139-.934235.232662-4.574523-3.016466zm110.9375 36.90625c-.23525-.03797-.47278-.0625-.71875-.0625-2.48528 0-4.5 2.014719-4.5 4.5 0 1.849203 1.12403 3.415535 2.71875 4.107615m-95.598096.01304c1.581667-.697649 2.691846-2.28091 2.691846-4.120654 0-2.485281-2.014719-4.5-4.5-4.5-.235371 0-.461882.02767-.6875.0625" transform="translate(1.45658644)"/>
  <g style="fill:#fcdb0f;fill-opacity:1">
    <path transform="translate(4e-8)" d="M69.84375 37.09375c-4.506643 0-8.15625 3.649606-8.15625 8.15625s3.649607 8.15625 8.15625 8.15625c2.253322 0 4.304587-.92958 5.78125-2.40625l2.84375 1.59375c0 4.506644 3.649607 8.15625 8.15625 8.15625s8.15625-3.649606 8.15625-8.15625-3.649607-8.15625-8.15625-8.15625c-2.253322 0-4.304577.89833-5.78125 2.375-.6346.634597-1.088227 1.050356-2.84375 3.15625.01115-2.046441 0-3.959828 0-4.71875 0-4.506644-3.649607-8.15625-8.15625-8.15625z" style="fill:#fcdb0f;fill-rule:nonzero;stroke:none"/>
  </g>
  <path style="fill:#fcdb0f;fill-opacity:1;fill-rule:nonzero;stroke:#043f9f;stroke-width:1.1503861;stroke-miterlimit:4;stroke-opacity:1;stroke-dasharray:none" d="M172.879 119.55494c0 2.26598-19.21004 4.10292-42.90682 4.10292-23.69678 0-42.906811-1.83694-42.906811-4.10292s19.210031-4.10292 42.906811-4.10292c23.69678 0 42.90682 1.83694 42.90682 4.10292z" transform="matrix(.99436 0 0 2.2122 2.72186944 -149.79345)"/>
  <g style="stroke:#043f9f;stroke-width:1.70000005;stroke-miterlimit:4;stroke-opacity:1;stroke-dasharray:none">
    <path d="M98.470097 87.635605c-7.649512 8.76217-13.630041 26.008345-13.630041 26.008345M162.631 87.635606c7.64951 8.76217 13.63004 26.008344 13.63004 26.008344" style="fill:none;stroke:#043f9f;stroke-width:1.70000005;stroke-linecap:butt;stroke-linejoin:miter;stroke-miterlimit:4;stroke-opacity:1;stroke-dasharray:none" transform="translate(1.41050594)"/>
  </g>
  <path style="fill:none;stroke:#043f9f;stroke-width:1.70000005;stroke-linecap:butt;stroke-linejoin:miter;stroke-miterlimit:4;stroke-opacity:1;stroke-dasharray:none" d="m116.46106 80 15.51321 20 15.48679-20" transform="translate(-.00000116)"/>
  <path style="fill:#fcdb0f;fill-opacity:1;fill-rule:nonzero;stroke:none;display:inline" d="M194.00069 37.09375c-4.50669 0-8.15631 3.649606-8.15631 8.15625 0 .758922-.0111 2.672309 0 4.71875-1.75554-2.105894-2.20917-2.521653-2.84377-3.15625-1.47669-1.47667-3.52796-2.375-5.7813-2.375-4.50668 0-8.15631 3.649606-8.15631 8.15625s3.64963 8.15625 8.15631 8.15625c4.50668 0 8.15631-3.649606 8.15631-8.15625L188.21939 51c1.47669 1.47667 3.52796 2.40625 5.7813 2.40625 4.50667 0 8.15631-3.649606 8.15631-8.15625s-3.64964-8.15625-8.15631-8.15625z"/>
  <g>
    <path style="fill:#fcdb0f;fill-opacity:1;fill-rule:nonzero;stroke:none" d="M132.45659 96c-.87114 0-5-5-8-8 0-2 1.68035-4.884601.0308-4.770366-16.23183 1.124085-28.405802 5.749128-28.405802 11.301616 0 3.198355 4.039332 6.09679 10.566812 8.19564 6.52748 2.09885 15.54311 3.39811 25.49569 3.39811 9.95259 0 18.9604-1.29926 25.48007-3.39811 6.51966-2.09885 10.55118-4.997285 10.55118-8.19564 0-5.547301-12.12773-10.168889-28.33059-11.298455C138.08047 83.1098 139.45659 86 139.45659 88c-3 3-6.23645 8.000001-7 8z" transform="translate(386.23649884)"/>
    <path style="fill:#fcdb0f;fill-opacity:1;fill-rule:nonzero;stroke:none" d="M128.45659 42v18c0 10-3 17-10 25l13.375 17 13.625-17c-7-8-10-15-10-25V42h-7zm3.5 34.8125c3.58985 0 6.5 2.91015 6.5 6.5 0 3.589852-2.91015 6.5-6.5 6.5-3.58984 0-6.5-2.910148-6.5-6.5 0-3.58985 2.91016-6.5 6.5-6.5zm0 2c-2.48527 0-4.5 2.014719-4.5 4.5 0 2.485282 2.01473 4.5 4.5 4.5 2.48528 0 4.5-2.014718 4.5-4.5 0-2.485281-2.01472-4.5-4.5-4.5zM89.296221 114.68706c0-5.01282 19.101699-9.07651 42.664829-9.07651 23.56314 0 42.66484 4.06369 42.66484 9.07651" transform="translate(386.23649884)"/>
    <g style="fill:#fcdb0f;fill-opacity:1">
      <path style="fill:#fcdb0f;fill-opacity:1;fill-rule:nonzero;stroke:none" d="M143.63491 32.486813c0 4.672708-3.69988 8.460686-8.26392 8.460686s-8.26393-3.787978-8.26393-8.460686c0-4.672709 3.69989-8.460687 8.26393-8.460687s8.26392 3.787978 8.26392 8.460687z" transform="matrix(.95657 0 0 .93432 388.70612414 1.1072947)"/>
      <path style="fill:#fcdb0f;fill-opacity:1;fill-rule:nonzero;stroke:none" d="M143.63491 32.486813c0 4.672708-3.69988 8.460686-8.26392 8.460686s-8.26393-3.787978-8.26393-8.460686c0-4.672709 3.69989-8.460687 8.26393-8.460687s8.26392 3.787978 8.26392 8.460687z" transform="matrix(.95657 0 0 .93432 399.90612444 13.768618)"/>
      <path d="M127.20946 44.12174c0 4.365811-3.53918 7.904999-7.90499 7.904999s-7.905-3.539188-7.905-7.904999c0-4.365812 3.53919-7.905 7.905-7.905s7.90499 3.539188 7.90499 7.905z" style="fill:#fcdb0f;fill-rule:nonzero;stroke:none" transform="translate(387.69308644)"/>
    </g>
    <path d="m142.32996 44.121739-11.68672-13.078261-11.68672 13.078261 11.68672 5.147826z" style="fill:#fcdb0f;fill-opacity:1;stroke:none" transform="translate(387.69308644)"/>
    <path style="fill:#fcdb0f;fill-opacity:1;fill-rule:nonzero;stroke:none" d="M69.875 52c2.620081 10.043643 6.347224 23.22164 9.75 34.96875.413941-.08269.842989-.125 1.28125-.125 3.589851 0 6.5 2.910149 6.5 6.5 0 2.752037-1.709317 5.114291-4.125 6.0625 2.541005 8.63378 4.5625 15.4375 4.5625 15.4375.0049 4.85636 19.09312 8.90625 42.65625 8.90625 23.56314 0 42.6825-4.04989 42.6875-8.90625 0 0 1.99296-6.81511 4.53125-15.4375-2.41568-.948209-4.125-3.310463-4.125-6.0625 0-3.589851 2.91015-6.5 6.5-6.5.43826 0 .86731.04231 1.28125.125 3.40485-11.751637 7.1598-24.919841 9.78125-34.96875l-1.61284-6-5.0026 4.342291L182.54341 50l-.38716 2v5c.27816 15.994437-8.76908 26.170904-17.53125 33.125h-68.25C87.61283 83.170897 78.596836 72.994437 78.875 57v-5s-.37165-1.72022-1.038693-.967068c-.254599.287466-1.276428-.292893-1.276428-.292893.244235.05139-.934235.232662-4.574523-3.016466zm110.9375 36.90625c-.23525-.03797-.47278-.0625-.71875-.0625-2.48528 0-4.5 2.014719-4.5 4.5 0 1.849203 1.12403 3.415535 2.71875 4.107615m-95.598096.01304c1.581667-.697649 2.691846-2.28091 2.691846-4.120654 0-2.485281-2.014719-4.5-4.5-4.5-.235371 0-.461882.02767-.6875.0625" transform="translate(387.69308644)"/>
    <g style="fill:#fcdb0f;fill-opacity:1">
      <path transform="translate(386.23650004)" d="M69.84375 37.09375c-4.506643 0-8.15625 3.649606-8.15625 8.15625s3.649607 8.15625 8.15625 8.15625c2.253322 0 4.304587-.92958 5.78125-2.40625l2.84375 1.59375c0 4.506644 3.649607 8.15625 8.15625 8.15625s8.15625-3.649606 8.15625-8.15625-3.649607-8.15625-8.15625-8.15625c-2.253322 0-4.304577.89833-5.78125 2.375-.6346.634597-1.088227 1.050356-2.84375 3.15625.01115-2.046441 0-3.959828 0-4.71875 0-4.506644-3.649607-8.15625-8.15625-8.15625z" style="fill:#fcdb0f;fill-rule:nonzero;stroke:none"/>
    </g>
    <path style="fill:#fcdb0f;fill-opacity:1;fill-rule:nonzero;stroke:#043f9f;stroke-width:1.1503861;stroke-miterlimit:4;stroke-opacity:1;stroke-dasharray:none" d="M172.879 119.55494c0 2.26598-19.21004 4.10292-42.90682 4.10292-23.69678 0-42.906811-1.83694-42.906811-4.10292s19.210031-4.10292 42.906811-4.10292c23.69678 0 42.90682 1.83694 42.90682 4.10292z" transform="matrix(.99436 0 0 2.2122 388.95836944 -149.79345)"/>
    <g style="stroke:#043f9f;stroke-width:1.70000005;stroke-miterlimit:4;stroke-opacity:1;stroke-dasharray:none">
      <path d="M98.470097 87.635605c-7.649512 8.76217-13.630041 26.008345-13.630041 26.008345M162.631 87.635606c7.64951 8.76217 13.63004 26.008344 13.63004 26.008344" style="fill:none;stroke:#043f9f;stroke-width:1.70000005;stroke-linecap:butt;stroke-linejoin:miter;stroke-miterlimit:4;stroke-opacity:1;stroke-dasharray:none" transform="translate(387.64700594)"/>
    </g>
    <path style="fill:none;stroke:#043f9f;stroke-width:1.70000005;stroke-linecap:butt;stroke-linejoin:miter;stroke-miterlimit:4;stroke-opacity:1;stroke-dasharray:none" d="m116.46106 80 15.51321 20 15.48679-20" transform="translate(386.23649884)"/>
    <path style="fill:#fcdb0f;fill-opacity:1;fill-rule:nonzero;stroke:none;display:inline" d="M194.00069 37.09375c-4.50669 0-8.15631 3.649606-8.15631 8.15625 0 .758922-.0111 2.672309 0 4.71875-1.75554-2.105894-2.20917-2.521653-2.84377-3.15625-1.47669-1.47667-3.52796-2.375-5.7813-2.375-4.50668 0-8.15631 3.649606-8.15631 8.15625s3.64963 8.15625 8.15631 8.15625c4.50668 0 8.15631-3.649606 8.15631-8.15625L188.21939 51c1.47669 1.47667 3.52796 2.40625 5.7813 2.40625 4.50667 0 8.15631-3.649606 8.15631-8.15625s-3.64964-8.15625-8.15631-8.15625z" transform="translate(386.2365)"/>
  </g>
  <g>
    <path d="M132.45659 96c-.87114 0-5-5-8-8 0-2 1.68035-4.884601.0308-4.770366-16.23183 1.124085-28.405802 5.749128-28.405802 11.301616 0 3.198355 4.039332 6.09679 10.566812 8.19564 6.52748 2.09885 15.54311 3.39811 25.49569 3.39811 9.95259 0 18.9604-1.29926 25.48007-3.39811 6.51966-2.09885 10.55118-4.997285 10.55118-8.19564 0-5.547301-12.12773-10.168889-28.33059-11.298455C138.08047 83.1098 139.45659 86 139.45659 88c-3 3-6.23645 8.000001-7 8z" style="fill:#fcdb0f;fill-opacity:1;fill-rule:nonzero;stroke:none" transform="translate(193.07774884 249.95832)"/>
    <path d="M128.45659 42v18c0 10-3 17-10 25l13.375 17 13.625-17c-7-8-10-15-10-25V42h-7zm3.5 34.8125c3.58985 0 6.5 2.91015 6.5 6.5 0 3.589852-2.91015 6.5-6.5 6.5-3.58984 0-6.5-2.910148-6.5-6.5 0-3.58985 2.91016-6.5 6.5-6.5zm0 2c-2.48527 0-4.5 2.014719-4.5 4.5 0 2.485282 2.01473 4.5 4.5 4.5 2.48528 0 4.5-2.014718 4.5-4.5 0-2.485281-2.01472-4.5-4.5-4.5zM89.296221 114.68706c0-5.01282 19.101699-9.07651 42.664829-9.07651 23.56314 0 42.66484 4.06369 42.66484 9.07651" style="fill:#fcdb0f;fill-opacity:1;fill-rule:nonzero;stroke:none" transform="translate(193.07774884 249.95832)"/>
    <g style="fill:#fcdb0f;fill-opacity:1">
      <path transform="matrix(.95657 0 0 .93432 195.54737414 251.0656147)" d="M143.63491 32.486813c0 4.672708-3.69988 8.460686-8.26392 8.460686s-8.26393-3.787978-8.26393-8.460686c0-4.672709 3.69989-8.460687 8.26393-8.460687s8.26392 3.787978 8.26392 8.460687z" style="fill:#fcdb0f;fill-opacity:1;fill-rule:nonzero;stroke:none"/>
      <path transform="matrix(.95657 0 0 .93432 206.74737444 263.726938)" d="M143.63491 32.486813c0 4.672708-3.69988 8.460686-8.26392 8.460686s-8.26393-3.787978-8.26393-8.460686c0-4.672709 3.69989-8.460687 8.26393-8.460687s8.26392 3.787978 8.26392 8.460687z" style="fill:#fcdb0f;fill-opacity:1;fill-rule:nonzero;stroke:none"/>
      <path style="fill:#fcdb0f;fill-rule:nonzero;stroke:none" d="M127.20946 44.12174c0 4.365811-3.53918 7.904999-7.90499 7.904999s-7.905-3.539188-7.905-7.904999c0-4.365812 3.53919-7.905 7.905-7.905s7.90499 3.539188 7.90499 7.905z" transform="translate(194.53433644 249.95832)"/>
    </g>
    <path style="fill:#fcdb0f;fill-opacity:1;stroke:none" d="m142.32996 44.121739-11.68672-13.078261-11.68672 13.078261 11.68672 5.147826z" transform="translate(194.53433644 249.95832)"/>
    <path transform="translate(194.53433644 249.95832)" d="M69.875 52c2.620081 10.043643 6.347224 23.22164 9.75 34.96875.413941-.08269.842989-.125 1.28125-.125 3.589851 0 6.5 2.910149 6.5 6.5 0 2.752037-1.709317 5.114291-4.125 6.0625 2.541005 8.63378 4.5625 15.4375 4.5625 15.4375.0049 4.85636 19.09312 8.90625 42.65625 8.90625 23.56314 0 42.6825-4.04989 42.6875-8.90625 0 0 1.99296-6.81511 4.53125-15.4375-2.41568-.948209-4.125-3.310463-4.125-6.0625 0-3.589851 2.91015-6.5 6.5-6.5.43826 0 .86731.04231 1.28125.125 3.40485-11.751637 7.1598-24.919841 9.78125-34.96875l-1.61284-6-5.0026 4.342291L182.54341 50l-.38716 2v5c.27816 15.994437-8.76908 26.170904-17.53125 33.125h-68.25C87.61283 83.170897 78.596836 72.994437 78.875 57v-5s-.37165-1.72022-1.038693-.967068c-.254599.287466-1.276428-.292893-1.276428-.292893.244235.05139-.934235.232662-4.574523-3.016466zm110.9375 36.90625c-.23525-.03797-.47278-.0625-.71875-.0625-2.48528 0-4.5 2.014719-4.5 4.5 0 1.849203 1.12403 3.415535 2.71875 4.107615m-95.598096.01304c1.581667-.697649 2.691846-2.28091 2.691846-4.120654 0-2.485281-2.014719-4.5-4.5-4.5-.235371 0-.461882.02767-.6875.0625" style="fill:#fcdb0f;fill-opacity:1;fill-rule:nonzero;stroke:none"/>
    <g style="fill:#fcdb0f;fill-opacity:1">
      <path style="fill:#fcdb0f;fill-rule:nonzero;stroke:none" d="M69.84375 37.09375c-4.506643 0-8.15625 3.649606-8.15625 8.15625s3.649607 8.15625 8.15625 8.15625c2.253322 0 4.304587-.92958 5.78125-2.40625l2.84375 1.59375c0 4.506644 3.649607 8.15625 8.15625 8.15625s8.15625-3.649606 8.15625-8.15625-3.649607-8.15625-8.15625-8.15625c-2.253322 0-4.304577.89833-5.78125 2.375-.6346.634597-1.088227 1.050356-2.84375 3.15625.01115-2.046441 0-3.959828 0-4.71875 0-4.506644-3.649607-8.15625-8.15625-8.15625z" transform="translate(193.07775004 249.95832)"/>
    </g>
    <path transform="matrix(.99436 0 0 2.2122 195.79961944 100.16487)" d="M172.879 119.55494c0 2.26598-19.21004 4.10292-42.90682 4.10292-23.69678 0-42.906811-1.83694-42.906811-4.10292s19.210031-4.10292 42.906811-4.10292c23.69678 0 42.90682 1.83694 42.90682 4.10292z" style="fill:#fcdb0f;fill-opacity:1;fill-rule:nonzero;stroke:#043f9f;stroke-width:1.1503861;stroke-miterlimit:4;stroke-opacity:1;stroke-dasharray:none"/>
    <g style="stroke:#043f9f;stroke-width:1.70000005;stroke-miterlimit:4;stroke-opacity:1;stroke-dasharray:none">
      <path style="fill:none;stroke:#043f9f;stroke-width:1.70000005;stroke-linecap:butt;stroke-linejoin:miter;stroke-miterlimit:4;stroke-opacity:1;stroke-dasharray:none" d="M98.470097 87.635605c-7.649512 8.76217-13.630041 26.008345-13.630041 26.008345M162.631 87.635606c7.64951 8.76217 13.63004 26.008344 13.63004 26.008344" transform="translate(194.48825594 249.95832)"/>
    </g>
    <path d="m116.46106 80 15.51321 20 15.48679-20" style="fill:none;stroke:#043f9f;stroke-width:1.70000005;stroke-linecap:butt;stroke-linejoin:miter;stroke-miterlimit:4;stroke-opacity:1;stroke-dasharray:none" transform="translate(193.07774884 249.95832)"/>
    <path d="M194.00069 37.09375c-4.50669 0-8.15631 3.649606-8.15631 8.15625 0 .758922-.0111 2.672309 0 4.71875-1.75554-2.105894-2.20917-2.521653-2.84377-3.15625-1.47669-1.47667-3.52796-2.375-5.7813-2.375-4.50668 0-8.15631 3.649606-8.15631 8.15625s3.64963 8.15625 8.15631 8.15625c4.50668 0 8.15631-3.649606 8.15631-8.15625L188.21939 51c1.47669 1.47667 3.52796 2.40625 5.7813 2.40625 4.50667 0 8.15631-3.649606 8.15631-8.15625s-3.64964-8.15625-8.15631-8.15625z" style="fill:#fcdb0f;fill-opacity:1;fill-rule:nonzero;stroke:none;display:inline" transform="translate(193.07775 249.95832)"/>
  </g>
</svg>
