<?xml version="1.0" encoding="UTF-8"?>
<svg width="600" height="360" encoding="UTF-8" version="1.1" xmlns="http://www.w3.org/2000/svg">
	<rect width="600" height="360" fill="#9e1b34"/>
	<g>
		<rect x="252" width="96" height="360"/>
		<rect y="132" width="600" height="96"/>
	</g>
	<g fill="#ffc726">
		<rect x="264" width="72" height="360"/>
		<rect y="144" width="600" height="72"/>
	</g>
	<g>
		<path transform="translate(-4.76e-6 .12403)" d="M300 132.5625c-.0499-.001-.22627.002-.4375.25-.65536.76921-1.57479 4.1875-4.90625 6.1875L300 181l5.34375-42c-3.33146-2-4.14779-5.40255-4.90625-6.1875-.24218-.25064-.39444-.24886-.4375-.25zM300 181l41.59375-7.90625c.87264-3.78645 3.86284-5.5986 4.375-6.5625.16352-.3078.10599-.4587.0937-.5-.0145-.0477-.56648-.0802-.375-.34375-.93407-.38562-4.47465-.19963-7.40625-2.75L300 181zm0 0 20.375 37.125c3.87079-.34015 6.51876 1.93577 7.59375 2.125.34326.0604.4645-.0381.5-.0625.0409-.0285-.0911-.56942.21875-.46875.0781-1.00752-1.20713-4.29878.3125-7.875L300 181zm0 0-29 30.84375c1.51964 3.57622.16028 6.79415.3125 7.875.0486.34513.18459.44252.21875.46875.0397.0301.5-.26325.5.0625.98233-.2371 3.72297-2.46514 7.59375-2.125L300 181zm0 0-38.28125-18.0625c-2.93159 2.55038-6.42534 2.27123-7.40625 2.75-.31321.15288-.36061.30315-.375.34375-.0164.0471-.0768.22247.0937.5.52905.86098 3.50236 2.77606 4.375 6.5625L300 181z" fill="#00af3a"/>
		<path transform="translate(-4.76e-6 .12403)" d="m300 181c-22 31-21.55 30.047-22 31-0.33333 0.7066-1.1405 2.6903-1.125 4.1562 0.0202 1.9108 2.5713 6.3854 4.7812 8.4062 1.5975 1.4608 5.2146 2.6837 8.625 2.625 2.9996-0.0516 6.7003-0.81737 9.7188-0.81737s6.7192 0.76577 9.7188 0.81737c3.4104 0.0587 7.0275-1.1642 8.625-2.625 2.2099-2.0208 4.761-6.4955 4.7812-8.4062 0.0155-1.466-0.79167-3.4496-1.125-4.1562-0.44973-0.95334 0 0-22-31z" fill="#9e1b34"/>
		<path transform="translate(-4.76e-6 .12403)" d="m292 222c4-1 6-2 8-4 2 2 4 3 8 4" fill="none" stroke="#405" stroke-width=".8"/>
		<path transform="translate(-4.76e-6 .12403)" d="m300 181c22.684 30.503 21.917 29.78 22.684 30.503 0.56901 0.53537 2.2062 1.916 3.6052 2.3543 1.8235 0.57125 6.8675-0.47226 9.4723-1.9496 1.8829-1.0679 4.1637-4.1301 5.1618-7.3917 0.87784-2.8687 1.2931-6.6249 2.2259-9.4957 0.93276-2.8707 2.8046-6.1537 3.7806-8.9905 1.1097-3.2253 1.0644-7.0433 0.16874-9.014-1.239-2.7262-4.7063-6.5352-6.5173-7.1449-1.3894-0.46775-3.5254-0.31308-4.3005-0.21442-1.0456 0.13312 0 0-36.281 11.344z" fill="#9e1b34"/>
		<path transform="rotate(-72 301.66 215.27)" d="m325.62 244.14c4-1 6-2 8-4 2 2 4 3 8 4" fill="none" stroke="#405" stroke-width=".8"/>
		<path transform="translate(-4.76e-6 .12403)" d="m300 181c36.02-12.148 35.096-11.641 36.02-12.148 0.685-0.37572 2.504-1.5061 3.3531-2.7012 1.1068-1.5577 1.673-6.6773 1.073-9.6111-0.43378-2.1208-2.6413-5.2362-5.4348-7.1933-2.457-1.7213-5.9011-3.2771-8.3431-5.0513-2.442-1.7742-4.9858-4.569-7.3822-6.3738-2.7246-2.0521-6.3697-3.1888-8.5207-2.946-2.9757 0.33589-7.6697 2.4565-8.8092 3.9904-0.87421 1.1769-1.3872 3.2562-1.5328 4.0237-0.19652 1.0356 0 0-0.42297 38.011z" fill="#9e1b34"/>
		<path transform="rotate(216 306.32 202.66)" d="m316.09 257.37c4-1 6-2 8-4 2 2 4 3 8 4" fill="none" stroke="#405" stroke-width=".8"/>
		<g>
			<path transform="translate(-4.76e-6 .12403)" d="m300 181c-0.42296-38.011-0.22645-36.975-0.42296-38.011-0.14566-0.76758-0.65863-2.8468-1.5328-4.0237-1.1395-1.534-5.8335-3.6546-8.8092-3.9904-2.151-0.2428-5.7961 0.89394-8.5207 2.946-2.3964 1.8048-4.9402 4.5996-7.3822 6.3738-2.442 1.7742-5.8861 3.3299-8.3431 5.0513-2.7936 1.9571-5.0011 5.0726-5.4348 7.1933-0.60008 2.9338-0.0338 8.0534 1.073 9.6112 0.84913 1.1951 2.6681 2.3255 3.3531 2.7012 0.92419 0.50692 0 0 36.02 12.148z" fill="#9e1b34"/>
			<path transform="rotate(144 305.53 195.7)" d="m293.44 251.74c4-1 6-2 8-4 2 2 4 3 8 4" fill="none" stroke="#405" stroke-width=".8"/>
		</g>
		<g>
			<path transform="translate(-4.76e-6 .12403)" d="m300 181c-36.281-11.344-35.235-11.211-36.281-11.344-0.77502-0.0987-2.911-0.25333-4.3005 0.21441-1.811 0.60968-5.2783 4.4187-6.5173 7.1449-0.89561 1.9707-0.94091 5.7887 0.16875 9.014 0.97598 2.8368 2.8479 6.1198 3.7806 8.9905 0.93275 2.8707 1.348 6.627 2.2259 9.4957 0.99805 3.2616 3.2789 6.3238 5.1618 7.3917 2.6048 1.4773 7.6488 2.5208 9.4723 1.9496 1.399-0.43826 3.0362-1.8189 3.6052-2.3543 0.7677-0.72231 0 0 22.684-30.503z" fill="#9e1b34"/>
			<path transform="rotate(72 300.3 184.02)" d="m289.46 224.41c4-1 6-2 8-4 2 2 4 3 8 4" fill="none" stroke="#405" stroke-width=".8"/>
		</g>
		<path transform="translate(-4.76e-6 .12403)" d="m282.38 156.72c0.7331 4.4116 0.48318 8.3106-0.375 11.406l18 12.875-6.6875-21.094c-3.2093-0.14043-6.9683-1.127-10.938-3.1875zm17.625 24.281 18-12.875c-0.85818-3.0956-1.1081-6.9946-0.375-11.406-3.9692 2.0605-7.7282 3.0471-10.938 3.1875l-6.6875 21.094zm0 0 17.812 13.156c2.6789-1.7728 6.2965-3.209 10.719-3.875-3.1862-3.1382-5.281-6.4286-6.4062-9.4375l-22.125 0.15625zm0 0-7 21c2.5139 2 5 5 7 9 2-4 4.4861-7 7-9l-7-21zm0 0-22.125-0.15625c-1.1253 3.0088-3.22 6.2993-6.4062 9.4375 4.4223 0.66605 8.0398 2.1022 10.719 3.875l17.812-13.156z" fill="#00ab39" stroke="#050" stroke-width=".5"/>
		<g>
			<path transform="translate(-4.76e-6 .12403)" d="m300 145c-0.26069 0-1 2-2 3l-5 5c-1 1-2.4786 2-2.5 5-0.0357 5 2.0124 6 1.9375 7-0.0851 1.1368-0.43413 2-1.9062 3-1.3854 1.0638-2.3085 1.143-3.4062 0.875-0.9742-0.23778-1.2962-2.5201-6.0625-4.0312-2.8598-0.90669-4.2712 0.20171-5.5312 0.84375l-6.3125 3.2188c-1.2601 0.64204-3.3882 0.72082-3.4688 0.96875-0.0806 0.24794 1.608 1.5837 2.25 2.8438l3.2188 6.2812c0.64204 1.2601 1.1222 2.9901 3.9688 3.9375 4.7442 1.579 6.3221-0.0676 7.25 0.3125 1.0548 0.43222 1.7851 1.0409 2.2812 2.75 0.57228 1.6302 0.34103 2.5437-0.25 3.5-0.52719 0.85304-2.7775 0.46519-5.6875 4.5312-1.746 2.4396-1.1275 4.1032-0.90625 5.5l1.125 7c0.22123 1.3968-0.41694 3.5938-0.15625 3.5938 0.2109 0.15328 1.9782-1.0288 3.375-1.25l7-1.0938c1.3968-0.22123 3.1568-0.17931 4.9375-2.5938 2.9678-4.0241 1.9142-6.0475 2.5625-6.8125 0.73703-0.86965 1.5338-1.3375 3.3125-1.2812 1.7322-0.0421 2.5222 0.42247 3.25 1.2812 0.64838 0.76499-0.4053 2.7884 2.5625 6.8125 1.7806 2.4144 3.5407 2.3725 4.9375 2.5938l7 1.0938c1.3968 0.22123 3.1907 1.4343 3.375 1.25 0.21095-0.15321-0.37748-2.1969-0.15625-3.5938l1.125-7c0.22123-1.3968 0.83977-3.0604-0.90625-5.5-2.91-4.0661-5.1602-3.6783-5.6875-4.5312-0.59103-0.95626-0.82228-1.8698-0.25-3.5 7e-3 -0.0234 0.0244-0.0395 0.0312-0.0625 0.49521-1.6558 1.2096-2.2612 2.25-2.6875 0.92791-0.38025 2.5058 1.2665 7.25-0.3125 2.8465-0.94739 3.3267-2.6774 3.9688-3.9375l3.2188-6.2812c0.64204-1.2601 2.3841-2.6202 2.25-2.8438-0.0805-0.24797-2.2087-0.32671-3.4688-0.96875l-6.3125-3.2188c-1.2601-0.64204-2.6715-1.7504-5.5312-0.84375-4.7663 1.5111-5.0884 3.7934-6.0625 4.0312-1.0978 0.26798-2.0208 0.18875-3.4062-0.875-0.0129-9e-3 -0.0185-0.0225-0.0312-0.0312-1.4398-0.98891-1.7906-1.8419-1.875-2.9688-0.0749-1 1.9732-2 1.9375-7-0.0214-3-1.5-4-2.5-5l-5-5c-1-1-1.7393-3-2-3z" fill="#ffc726"/>
			<path transform="matrix(.90278 0 0 .90278 25.556 16.818)" d="m318 182c0 7.732-6.268 14-14 14s-14-6.268-14-14 6.268-14 14-14 14 6.268 14 14z" fill="#9e1b34"/>
		</g>
	</g>
</svg>
