<?xml version="1.0" encoding="UTF-8"?>
<svg enable-background="new 0 0 800 480" version="1.1" viewBox="0 0 800 480" xml:space="preserve" xmlns="http://www.w3.org/2000/svg">
	<rect width="800" height="480" fill="#009639"/>
	<g>
		<g>
			<path d="m747.3 97.7c-12 6.8-23.3 13.2-46.4 13.2s-34.4-6.4-46.4-13.2c-13.2-7.5-26.8-15.2-53.9-15.2s-40.7 7.8-53.9 15.2c-12 6.8-23.3 13.2-46.4 13.2-23 0-34.4-6.4-46.4-13.2-13.2-7.5-26.8-15.2-53.9-15.2s-40.7 7.8-53.9 15.2c-12 6.8-23.3 13.2-46.4 13.2-23 0-34.4-6.4-46.4-13.2-13.2-7.5-26.8-15.2-53.9-15.2s-40.7 7.8-53.9 15.2c-12 6.8-23.3 13.2-46.4 13.2-23 0-34.4-6.4-46.4-13.2-13-7.4-26.4-15-52.7-15.2v106.2c22.2 0.2 33.4 6.5 45.2 13.2 13.2 7.5 26.8 15.2 53.9 15.2s40.7-7.8 53.9-15.2c12-6.8 23.3-13.2 46.4-13.2s34.4 6.4 46.4 13.2c13.2 7.5 26.8 15.2 53.9 15.2s40.7-7.8 53.9-15.2c12-6.8 23.3-13.2 46.4-13.2 23 0 34.4 6.4 46.4 13.2 13.2 7.5 26.8 15.2 53.9 15.2s40.7-7.8 53.9-15.2c12-6.8 23.3-13.2 46.4-13.2 23 0 34.4 6.4 46.4 13.2 13.2 7.5 26.8 15.2 53.9 15.2s40.7-7.8 53.9-15.2c11.8-6.7 22.9-13 45.2-13.2v-106.2c-26.3 0.2-39.7 7.8-52.7 15.2z" fill="#fff"/>
			<path d="m0 97.5v76.199c22.2 0.2 33.399 6.5012 45.199 13.201 13.2 7.5 26.8 15.199 53.9 15.199 27.1 0 40.7-7.7992 53.9-15.199 12-6.8 23.3-13.201 46.4-13.201s34.4 6.4012 46.4 13.201c13.2 7.5 26.798 15.199 53.898 15.199s40.7-7.7992 53.9-15.199c12-6.8 23.3-13.201 46.4-13.201 23 0 34.4 6.4012 46.4 13.201 13.2 7.5 26.8 15.199 53.9 15.199s40.698-7.7992 53.898-15.199c12-6.8 23.3-13.201 46.4-13.201 23 0 34.4 6.4012 46.4 13.201 13.2 7.5 26.8 15.199 53.9 15.199s40.7-7.7992 53.9-15.199c11.8-6.7 22.899-13.001 45.199-13.201v-76.199c-26.3 0.2-39.699 7.7992-52.699 15.199-12 6.8-23.3 13.201-46.4 13.201s-34.4-6.4012-46.4-13.201c-13.2-7.5-26.8-15.199-53.9-15.199s-40.7 7.7992-53.9 15.199c-12 6.8-23.298 13.201-46.398 13.201-23 0-34.4-6.4012-46.4-13.201-13.2-7.5-26.8-15.199-53.9-15.199s-40.7 7.7992-53.9 15.199c-12 6.8-23.3 13.201-46.4 13.201-23 0-34.398-6.4012-46.398-13.201-13.2-7.5-26.8-15.199-53.9-15.199s-40.7 7.7992-53.9 15.199c-12 6.8-23.3 13.201-46.4 13.201-23 0-34.4-6.4012-46.4-13.201-13-7.4-26.399-14.999-52.699-15.199z" fill="#48B8E7"/>
		</g>
		<g transform="translate(0,186.7)">
			<path d="m747.3 97.7c-12 6.8-23.3 13.2-46.4 13.2s-34.4-6.4-46.4-13.2c-13.2-7.5-26.8-15.2-53.9-15.2s-40.7 7.8-53.9 15.2c-12 6.8-23.3 13.2-46.4 13.2-23 0-34.4-6.4-46.4-13.2-13.2-7.5-26.8-15.2-53.9-15.2s-40.7 7.8-53.9 15.2c-12 6.8-23.3 13.2-46.4 13.2-23 0-34.4-6.4-46.4-13.2-13.2-7.5-26.8-15.2-53.9-15.2s-40.7 7.8-53.9 15.2c-12 6.8-23.3 13.2-46.4 13.2-23 0-34.4-6.4-46.4-13.2-13-7.4-26.4-15-52.7-15.2v106.2c22.2 0.2 33.4 6.5 45.2 13.2 13.2 7.5 26.8 15.2 53.9 15.2s40.7-7.8 53.9-15.2c12-6.8 23.3-13.2 46.4-13.2s34.4 6.4 46.4 13.2c13.2 7.5 26.8 15.2 53.9 15.2s40.7-7.8 53.9-15.2c12-6.8 23.3-13.2 46.4-13.2 23 0 34.4 6.4 46.4 13.2 13.2 7.5 26.8 15.2 53.9 15.2s40.7-7.8 53.9-15.2c12-6.8 23.3-13.2 46.4-13.2 23 0 34.4 6.4 46.4 13.2 13.2 7.5 26.8 15.2 53.9 15.2s40.7-7.8 53.9-15.2c11.8-6.7 22.9-13 45.2-13.2v-106.2c-26.3 0.2-39.7 7.8-52.7 15.2z" fill="#fff"/>
			<path d="m0 97.5v76.199c22.2 0.2 33.399 6.5012 45.199 13.201 13.2 7.5 26.8 15.199 53.9 15.199 27.1 0 40.7-7.7992 53.9-15.199 12-6.8 23.3-13.201 46.4-13.201s34.4 6.4012 46.4 13.201c13.2 7.5 26.798 15.199 53.898 15.199s40.7-7.7992 53.9-15.199c12-6.8 23.3-13.201 46.4-13.201 23 0 34.4 6.4012 46.4 13.201 13.2 7.5 26.8 15.199 53.9 15.199s40.698-7.7992 53.898-15.199c12-6.8 23.3-13.201 46.4-13.201 23 0 34.4 6.4012 46.4 13.201 13.2 7.5 26.8 15.199 53.9 15.199s40.7-7.7992 53.9-15.199c11.8-6.7 22.899-13.001 45.199-13.201v-76.199c-26.3 0.2-39.699 7.7992-52.699 15.199-12 6.8-23.3 13.201-46.4 13.201s-34.4-6.4012-46.4-13.201c-13.2-7.5-26.8-15.199-53.9-15.199s-40.7 7.7992-53.9 15.199c-12 6.8-23.298 13.201-46.398 13.201-23 0-34.4-6.4012-46.4-13.201-13.2-7.5-26.8-15.199-53.9-15.199s-40.7 7.7992-53.9 15.199c-12 6.8-23.3 13.201-46.4 13.201-23 0-34.398-6.4012-46.398-13.201-13.2-7.5-26.8-15.199-53.9-15.199s-40.7 7.7992-53.9 15.199c-12 6.8-23.3 13.201-46.4 13.201-23 0-34.4-6.4012-46.4-13.201-13-7.4-26.399-14.999-52.699-15.199z" fill="#48B8E7"/>
		</g>
	</g>
	<g>
		<path style="fill:#FFFFFF;" d="m535 67.4c-55.4 13.5-100.3 2.9-121.6-4.3-4.6-2.4-11.9-5.1-12.3-5.2l-1.1-0.2-1.1 0.2c-0.3 0-7.7 2.8-12.3 5.2-21.3 7.2-66.2 17.7-121.6 4.3-16.3-4-52.6-22.4-52.6-22.4v168.3c-0.4 51.8 17.7 96.1 52.3 134.3 17.7 19.5 37.9 35.6 61.8 47.2 19.5 9.5 38.8 19.3 58.1 29.2 3.9 2.5 13.9 6.3 14.3 6.3l1.1 0.2 1.1-0.2c0.4 0 10.5-3.8 14.3-6.3 19.3-9.9 38.6-19.8 58.1-29.2 23.9-11.6 44.1-27.7 61.8-47.2 34.6-38.2 52.7-82.5 52.3-134.3v-168.3s-36.3 18.4-52.6 22.4z"/>
		<g>
			<path d="m344.1 166.4c-7.4-9-14-18.4-18.9-29-4.1-8.9-7.9-14.3-21.3-11.1l-4.2-19.4c0-0.2-0.2-0.3-0.3-0.2l-4.2 0.9c-0.2 0-0.3 0.2-0.2 0.3l2.9 13.5c0.4 2.2 0.8 4.5 1.3 6.7-8.7 3.7-12.2 6.8-13.1 13.6-2.2 15.3-7 29.8-11.9 44.3-2.7 7.9-4 16.1-2.4 24.4 3.6 19.1 20.6 32.7 40.4 32.4 19.2-0.3 33.6-9.4 39.7-25.7 6.7-18.4 4.7-35.4-7.8-50.7z"/>
			<path d="m519.9 166.4c-7.4-9-14-18.4-18.9-29-4.1-8.9-7.9-14.3-21.3-11.1l-4.2-19.4c0-0.2-0.2-0.3-0.3-0.2l-4.2 0.9c-0.2 0-0.3 0.2-0.2 0.3l2.9 13.5c0.4 2.2 0.8 4.5 1.3 6.7-8.7 3.7-12.2 6.8-13.1 13.6-2.2 15.3-7 29.8-11.9 44.3-2.7 7.9-4 16.1-2.4 24.4 3.6 19.1 20.6 32.7 40.4 32.4 19.2-0.3 33.6-9.4 39.7-25.7 6.7-18.4 4.7-35.4-7.8-50.7z"/>
			<path d="m432.8 302c-7.4-9-14-18.4-18.9-29-4.1-8.9-7.9-14.3-21.3-11.1l-4.2-19.4c0-0.2-0.2-0.3-0.3-0.2l-4.2 0.9c-0.2 0-0.3 0.2-0.2 0.3l2.9 13.5c0.4 2.2 0.8 4.5 1.3 6.7-8.7 3.7-12.2 6.8-13.1 13.6-2.2 15.3-7 29.8-11.9 44.3-2.7 7.9-4 16.1-2.4 24.4 3.6 19.1 20.6 32.7 40.4 32.4 19.2-0.3 33.6-9.4 39.7-25.7 6.7-18.4 4.8-35.4-7.8-50.7z"/>
		</g>
		<path d="m589.8 41.3c-1.3-0.8-2.8-0.8-4.2-0.2-0.4 0.2-36 18.3-51.7 22.1-53.8 13.1-97.5 3.1-118.9-4.1-3.4-1.7-11.2-5-13.3-5.4l-1.1-0.2c-0.4-0.1-0.8-0.1-1.2 0l-1.1 0.2c-2.1 0.4-9.9 3.7-13.3 5.4-21.4 7.2-65.1 17.1-118.9 4.1-15.6-3.8-51.3-21.9-51.7-22.1-1.3-0.7-2.9-0.6-4.2 0.2s-2 2.1-2 3.6v168.3 0.3c-0.4 51.3 17.6 97.4 53.4 136.8 19.2 21.1 39.8 36.9 63.1 48.2 19.7 9.6 39.1 19.5 57.8 29.1 3.8 2.4 13.6 6.4 15.9 6.9l1.1 0.2h0.6s0.4 0 0.6 0l1.1-0.2c2.3-0.4 12.1-4.5 15.8-6.9 18.8-9.6 38.2-19.5 57.8-29.1 23.3-11.3 43.9-27.1 63.1-48.2 35.8-39.5 53.8-85.5 53.4-136.8v-0.3-168.2c0-1.5-0.8-2.9-2.1-3.7zm-6.4 171.6v0.4c0.4 50-16.3 92.9-51.2 131.4-18.4 20.3-38.2 35.4-60.5 46.3-19.8 9.6-39.3 19.6-58.2 29.3-0.1 0.1-0.3 0.1-0.4 0.2-2.9 1.9-11 5.1-12.9 5.7h-0.4c-1.9-0.6-10-3.8-12.9-5.7-0.1-0.1-0.3-0.2-0.4-0.2-18.9-9.7-38.4-19.6-58.2-29.3-22.3-10.8-42.1-26-60.5-46.3-34.9-38.4-51.6-81.4-51.2-131.4v-0.3-161.2c11.2 5.5 34.7 16.6 47.3 19.7 56.2 13.6 101.8 3.1 124-4.4l0.6-0.3c3.8-2 9.8-4.3 11.2-4.8h0.4c1.4 0.5 7.4 2.8 11.2 4.8l0.6 0.3c22.2 7.5 67.8 18 124 4.4 12.6-3.1 36.1-14.2 47.3-19.7v161.1h0.2z"/>
	</g>
</svg>
