<?xml version="1.0" encoding="UTF-8" standalone="no"?>
<!-- Created with Inkscape (http://www.inkscape.org/) -->
<svg
   xmlns:dc="http://purl.org/dc/elements/1.1/"
   xmlns:cc="http://creativecommons.org/ns#"
   xmlns:rdf="http://www.w3.org/1999/02/22-rdf-syntax-ns#"
   xmlns:svg="http://www.w3.org/2000/svg"
   xmlns="http://www.w3.org/2000/svg"
   xmlns:xlink="http://www.w3.org/1999/xlink"
   xmlns:sodipodi="http://sodipodi.sourceforge.net/DTD/sodipodi-0.dtd"
   xmlns:inkscape="http://www.inkscape.org/namespaces/inkscape"
   version="1.0"
   width="500"
   height="300"
   id="svg6530"
   sodipodi:version="0.32"
   inkscape:version="0.46"
   sodipodi:docname="Flag_of_Yorkshire2.svg"
   inkscape:output_extension="org.inkscape.output.svg.inkscape">
  <metadata
     id="metadata2541">
    <rdf:RDF>
      <cc:Work
         rdf:about="">
        <dc:format>image/svg+xml</dc:format>
        <dc:type
           rdf:resource="http://purl.org/dc/dcmitype/StillImage" />
      </cc:Work>
    </rdf:RDF>
  </metadata>
  <sodipodi:namedview
     inkscape:window-height="744"
     inkscape:window-width="1280"
     inkscape:pageshadow="2"
     inkscape:pageopacity="0.0"
     guidetolerance="10.0"
     gridtolerance="10.0"
     objecttolerance="10.0"
     borderopacity="1.0"
     bordercolor="#666666"
     pagecolor="#ffffff"
     id="base"
     showgrid="false"
     inkscape:zoom="0.90666667"
     inkscape:cx="137.86765"
     inkscape:cy="150"
     inkscape:window-x="-4"
     inkscape:window-y="-4"
     inkscape:current-layer="svg6530" />
  <defs
     id="defs6532">
    <inkscape:perspective
       sodipodi:type="inkscape:persp3d"
       inkscape:vp_x="0 : 150 : 1"
       inkscape:vp_y="0 : 1000 : 0"
       inkscape:vp_z="600 : 150 : 1"
       inkscape:persp3d-origin="300 : 100 : 1"
       id="perspective2543" />
    <linearGradient
       id="linearGradient14095">
      <stop
         style="stop-color: rgb(26, 71, 43); stop-opacity: 1;"
         offset="0"
         id="stop14097" />
      <stop
         style="stop-color: rgb(51, 115, 33); stop-opacity: 1;"
         offset="1"
         id="stop14099" />
    </linearGradient>
    <radialGradient
       cx="416.13287"
       cy="119.93148"
       r="24.143175"
       fx="416.13287"
       fy="119.93148"
       id="radialGradient14101"
       xlink:href="#linearGradient14095"
       gradientUnits="userSpaceOnUse"
       gradientTransform="matrix(1,0,0,2.97821,0,-237.249)" />
    <radialGradient
       cx="416.13287"
       cy="119.93148"
       r="24.143175"
       fx="416.13287"
       fy="119.93148"
       id="radialGradient18523"
       xlink:href="#linearGradient14095"
       gradientUnits="userSpaceOnUse"
       gradientTransform="matrix(0.796492,0,0,2.97821,84.6831,-237.249)" />
    <radialGradient
       inkscape:collect="always"
       xlink:href="#linearGradient14095"
       id="radialGradient2597"
       gradientUnits="userSpaceOnUse"
       gradientTransform="matrix(0.796492,0,0,2.97821,84.6831,-237.249)"
       cx="416.13287"
       cy="119.93148"
       fx="416.13287"
       fy="119.93148"
       r="24.143175" />
  </defs>
  <rect
     id="rect6665"
     style="fill:#0b51a1;fill-opacity:1;fill-rule:nonzero;stroke:none;stroke-width:5;stroke-miterlimit:4;stroke-dasharray:none;stroke-opacity:1"
     y="0"
     x="0"
     height="300"
     width="500" />
  <g
     id="g18472"
     transform="translate(-49.999746,1.44146e-4)">
    <g
       id="g2258"
       style="fill:#337321"
       transform="matrix(0.770979,0,0,-0.770979,-20.8275,287.029)">
      <path
         id="path2259"
         style="fill:url(#radialGradient2597);fill-opacity:1;fill-rule:evenodd;stroke:none;stroke-width:1.29518995pt;stroke-opacity:1"
         d="M 416.1135,48.028131 C 404.33353,65.828061 396.89978,91.438423 396.89978,119.95172 C 396.89978,148.46502 404.33353,174.0349 416.1135,191.83483 C 427.8973,174.03451 435.35947,148.47032 435.35947,119.95172 C 435.35947,91.433126 427.8973,65.828447 416.1135,48.028131 z" />
      <use
         xlink:href="#path2259"
         height="300"
         width="600"
         y="0"
         x="0"
         id="use13214"
         transform="matrix(0.309017,0.951057,-0.951057,0.309017,468.857,-262.182)" />
      <use
         xlink:href="#path2259"
         height="300"
         width="600"
         y="0"
         x="0"
         id="use13216"
         transform="matrix(0.309017,-0.951057,0.951057,0.309017,106.232,529.328)" />
      <use
         xlink:href="#path2259"
         height="300"
         width="600"
         y="0"
         x="0"
         id="use13218"
         transform="matrix(-0.809017,-0.587785,0.587785,-0.809017,639.858,590.877)" />
      <use
         xlink:href="#path2259"
         height="300"
         width="600"
         y="0"
         x="0"
         id="use13220"
         transform="matrix(-0.809017,0.587785,-0.587785,-0.809017,865.682,101.712)" />
    </g>
    <g
       id="g2266"
       transform="matrix(0.770979,0,0,-0.770979,-22.957,286.524)">
      <g
         id="g2267"
         transform="translate(0.260396,0)">
        <path
           id="path2268"
           style="fill:#ffffff;fill-opacity:1;fill-rule:evenodd;stroke:#000000;stroke-width:0.125;stroke-dasharray:none;stroke-opacity:1"
           d="M 418.92891,303.53125 C 474.05686,303.53125 476.09123,275.47048 469.46875,264 C 462.80603,252.45983 454.55655,241.60047 447.09375,230.40625 C 421.56044,189.74991 411.90284,192.10772 389.90625,230.40625 C 382.44343,241.60047 374.16272,252.45983 367.5,264 C 360.87751,275.47048 365.26971,303.53125 418.92891,303.53125 z" />
        <g
           id="g2269">
          <g
             id="g2273">
            <path
               id="path2274"
               style="fill:#000000;fill-opacity:1;fill-rule:evenodd;stroke:none;stroke-width:0.375;stroke-opacity:1"
               d="M 468.0879,269.76388 C 468.70542,277.93381 467.3581,288.20713 450.74115,292.13681 C 442.67732,294.31102 432.35584,290.20004 418.63133,290.62108 C 404.90681,290.20004 394.58533,294.31102 386.5215,292.13681 C 369.90455,288.20713 368.55723,277.93381 369.17475,270.42441 C 368.55723,276.61275 369.90455,286.88607 386.5215,290.81575 C 394.58533,292.98996 404.90681,288.87898 418.63133,289.30002 C 432.35584,288.87898 442.67732,292.98996 450.74115,290.81575 C 467.3581,286.88607 468.70542,276.61275 468.0879,269.76388 z" />
            <path
               id="path2275"
               style="fill:#96877d;fill-opacity:1;fill-rule:evenodd;stroke:none;stroke-width:0.375;stroke-opacity:1"
               d="M 468.0879,267.26388 C 468.70542,275.43381 467.3581,285.70713 450.74115,289.63681 C 442.67732,291.81102 432.35584,287.70004 418.63133,288.12108 C 404.90681,287.70004 394.58533,291.81102 386.5215,289.63681 C 369.90455,285.70713 368.55723,275.43381 369.17475,267.92441 C 368.55723,274.11275 370.4098,282.87033 387.02675,286.80001 C 395.09058,288.97422 404.73839,280.82128 418.46291,281.24232 C 432.18742,280.82128 442.34049,288.97422 450.40432,286.80001 C 467.02127,282.87033 468.70542,274.11275 468.0879,267.26388 z" />
          </g>
        </g>
      </g>
      <use
         xlink:href="#g2267"
         height="300"
         width="600"
         y="0"
         x="0"
         id="use12283"
         transform="matrix(0.309017,0.951057,-0.951057,0.309017,469.912,-267.185)" />
      <use
         xlink:href="#g2267"
         height="300"
         width="600"
         y="0"
         x="0"
         id="use12285"
         transform="matrix(0.309017,-0.951057,0.951057,0.309017,108.649,528.504)" />
      <use
         xlink:href="#g2267"
         height="300"
         width="600"
         y="0"
         x="0"
         id="use12287"
         transform="matrix(-0.809017,0.587785,-0.587785,-0.809017,869.104,96.5174)" />
      <use
         xlink:href="#g2267"
         height="300"
         width="600"
         y="0"
         x="0"
         id="use12289"
         transform="matrix(-0.80902,-0.587787,0.587787,-0.80902,646.991,588.729)" />
    </g>
    <use
       xlink:href="#g2258"
       height="300"
       width="600"
       y="0"
       x="0"
       id="use18549"
       transform="matrix(0.491902,0,0,-0.491902,152.429,209.499)" />
    <use
       xlink:href="#g2266"
       height="300"
       width="600"
       y="0"
       x="0"
       id="use12291"
       transform="matrix(0.558003,0,0,-0.558003,132.599,218.071)" />
    <g
       id="g2358"
       style="fill:#f7e017;stroke:#000000;stroke-opacity:1"
       transform="matrix(0.770979,0,0,-0.770979,-22.9568,287.238)">
      <g
         id="g2359"
         style="fill:#f7e017;stroke:#000000;stroke-opacity:1">
        <path
           id="path2360"
           style="fill:#f7e017;fill-opacity:1;fill-rule:evenodd;stroke:#000000;stroke-width:1pt;stroke-opacity:1"
           transform="matrix(1.21037,0,0,1.21037,-82.7718,-31.8359)"
           d="M 415.39126,165.06467 C 415.39283,166.25092 414.76087,167.34774 413.73381,167.94131 C 412.70674,168.53489 411.4409,168.53489 410.41383,167.94131 C 409.38677,167.34774 408.75481,166.25092 408.75638,165.06467 C 408.75481,163.87842 409.38677,162.7816 410.41383,162.18803 C 411.4409,161.59445 412.70674,161.59445 413.73381,162.18803 C 414.76087,162.7816 415.39283,163.87842 415.39126,165.06467 z" />
        <path
           id="path2361"
           style="fill:#f7e017;fill-opacity:1;fill-rule:evenodd;stroke:#000000;stroke-width:1pt;stroke-opacity:1"
           transform="matrix(1.21037,0,0,1.21037,-63.578,9.51364)"
           d="M 415.39126,165.06467 C 415.39283,166.25092 414.76087,167.34774 413.73381,167.94131 C 412.70674,168.53489 411.4409,168.53489 410.41383,167.94131 C 409.38677,167.34774 408.75481,166.25092 408.75638,165.06467 C 408.75481,163.87842 409.38677,162.7816 410.41383,162.18803 C 411.4409,161.59445 412.70674,161.59445 413.73381,162.18803 C 414.76087,162.7816 415.39283,163.87842 415.39126,165.06467 z" />
        <path
           id="path2362"
           style="fill:#f7e017;fill-opacity:1;fill-rule:evenodd;stroke:#000000;stroke-width:1pt;stroke-opacity:1"
           transform="matrix(1.21037,0,0,1.21037,-70.5683,13.6604)"
           d="M 415.39126,165.06467 C 415.39283,166.25092 414.76087,167.34774 413.73381,167.94131 C 412.70674,168.53489 411.4409,168.53489 410.41383,167.94131 C 409.38677,167.34774 408.75481,166.25092 408.75638,165.06467 C 408.75481,163.87842 409.38677,162.7816 410.41383,162.18803 C 411.4409,161.59445 412.70674,161.59445 413.73381,162.18803 C 414.76087,162.7816 415.39283,163.87842 415.39126,165.06467 z" />
        <path
           id="path2363"
           style="fill:#f7e017;fill-opacity:1;fill-rule:evenodd;stroke:#000000;stroke-width:1pt;stroke-opacity:1"
           transform="matrix(1.21037,0,0,1.21037,-78.7435,15.5561)"
           d="M 415.39126,165.06467 C 415.39283,166.25092 414.76087,167.34774 413.73381,167.94131 C 412.70674,168.53489 411.4409,168.53489 410.41383,167.94131 C 409.38677,167.34774 408.75481,166.25092 408.75638,165.06467 C 408.75481,163.87842 409.38677,162.7816 410.41383,162.18803 C 411.4409,161.59445 412.70674,161.59445 413.73381,162.18803 C 414.76087,162.7816 415.39283,163.87842 415.39126,165.06467 z" />
        <path
           id="path2364"
           style="fill:#f7e017;fill-opacity:1;fill-rule:evenodd;stroke:#000000;stroke-width:1pt;stroke-opacity:1"
           transform="matrix(1.21037,0,0,1.21037,-87.511,13.8974)"
           d="M 415.39126,165.06467 C 415.39283,166.25092 414.76087,167.34774 413.73381,167.94131 C 412.70674,168.53489 411.4409,168.53489 410.41383,167.94131 C 409.38677,167.34774 408.75481,166.25092 408.75638,165.06467 C 408.75481,163.87842 409.38677,162.7816 410.41383,162.18803 C 411.4409,161.59445 412.70674,161.59445 413.73381,162.18803 C 414.76087,162.7816 415.39283,163.87842 415.39126,165.06467 z" />
        <path
           id="path2365"
           style="fill:#f7e017;fill-opacity:1;fill-rule:evenodd;stroke:#000000;stroke-width:1pt;stroke-opacity:1"
           transform="matrix(1.21037,0,0,1.21037,-94.7383,10.343)"
           d="M 415.39126,165.06467 C 415.39283,166.25092 414.76087,167.34774 413.73381,167.94131 C 412.70674,168.53489 411.4409,168.53489 410.41383,167.94131 C 409.38677,167.34774 408.75481,166.25092 408.75638,165.06467 C 408.75481,163.87842 409.38677,162.7816 410.41383,162.18803 C 411.4409,161.59445 412.70674,161.59445 413.73381,162.18803 C 414.76087,162.7816 415.39283,163.87842 415.39126,165.06467 z" />
        <path
           id="path2366"
           style="fill:#f7e017;fill-opacity:1;fill-rule:evenodd;stroke:#000000;stroke-width:1pt;stroke-opacity:1"
           transform="matrix(1.21037,0,0,1.21037,-100.307,4.53747)"
           d="M 415.39126,165.06467 C 415.39283,166.25092 414.76087,167.34774 413.73381,167.94131 C 412.70674,168.53489 411.4409,168.53489 410.41383,167.94131 C 409.38677,167.34774 408.75481,166.25092 408.75638,165.06467 C 408.75481,163.87842 409.38677,162.7816 410.41383,162.18803 C 411.4409,161.59445 412.70674,161.59445 413.73381,162.18803 C 414.76087,162.7816 415.39283,163.87842 415.39126,165.06467 z" />
        <path
           id="path2367"
           style="fill:#f7e017;fill-opacity:1;fill-rule:evenodd;stroke:#000000;stroke-width:1pt;stroke-opacity:1"
           transform="matrix(1.21037,0,0,1.21037,-103.032,-2.68981)"
           d="M 415.39126,165.06467 C 415.39283,166.25092 414.76087,167.34774 413.73381,167.94131 C 412.70674,168.53489 411.4409,168.53489 410.41383,167.94131 C 409.38677,167.34774 408.75481,166.25092 408.75638,165.06467 C 408.75481,163.87842 409.38677,162.7816 410.41383,162.18803 C 411.4409,161.59445 412.70674,161.59445 413.73381,162.18803 C 414.76087,162.7816 415.39283,163.87842 415.39126,165.06467 z" />
        <path
           id="path2368"
           style="fill:#f7e017;fill-opacity:1;fill-rule:evenodd;stroke:#000000;stroke-width:1pt;stroke-opacity:1"
           transform="matrix(1.21037,0,0,1.21037,-103.624,-10.391)"
           d="M 415.39126,165.06467 C 415.39283,166.25092 414.76087,167.34774 413.73381,167.94131 C 412.70674,168.53489 411.4409,168.53489 410.41383,167.94131 C 409.38677,167.34774 408.75481,166.25092 408.75638,165.06467 C 408.75481,163.87842 409.38677,162.7816 410.41383,162.18803 C 411.4409,161.59445 412.70674,161.59445 413.73381,162.18803 C 414.76087,162.7816 415.39283,163.87842 415.39126,165.06467 z" />
        <path
           id="path2369"
           style="fill:#f7e017;fill-opacity:1;fill-rule:evenodd;stroke:#000000;stroke-width:1pt;stroke-opacity:1"
           transform="matrix(1.21037,0,0,1.21037,-101.255,-18.8031)"
           d="M 415.39126,165.06467 C 415.39283,166.25092 414.76087,167.34774 413.73381,167.94131 C 412.70674,168.53489 411.4409,168.53489 410.41383,167.94131 C 409.38677,167.34774 408.75481,166.25092 408.75638,165.06467 C 408.75481,163.87842 409.38677,162.7816 410.41383,162.18803 C 411.4409,161.59445 412.70674,161.59445 413.73381,162.18803 C 414.76087,162.7816 415.39283,163.87842 415.39126,165.06467 z" />
        <path
           id="path2370"
           style="fill:#f7e017;fill-opacity:1;fill-rule:evenodd;stroke:#000000;stroke-width:1pt;stroke-opacity:1"
           transform="matrix(1.21037,0,0,1.21037,-96.2785,-25.3195)"
           d="M 415.39126,165.06467 C 415.39283,166.25092 414.76087,167.34774 413.73381,167.94131 C 412.70674,168.53489 411.4409,168.53489 410.41383,167.94131 C 409.38677,167.34774 408.75481,166.25092 408.75638,165.06467 C 408.75481,163.87842 409.38677,162.7816 410.41383,162.18803 C 411.4409,161.59445 412.70674,161.59445 413.73381,162.18803 C 414.76087,162.7816 415.39283,163.87842 415.39126,165.06467 z" />
        <path
           id="path2371"
           style="fill:#f7e017;fill-opacity:1;fill-rule:evenodd;stroke:#000000;stroke-width:1pt;stroke-opacity:1"
           transform="matrix(1.21037,0,0,1.21037,-90.1176,-30.1772)"
           d="M 415.39126,165.06467 C 415.39283,166.25092 414.76087,167.34774 413.73381,167.94131 C 412.70674,168.53489 411.4409,168.53489 410.41383,167.94131 C 409.38677,167.34774 408.75481,166.25092 408.75638,165.06467 C 408.75481,163.87842 409.38677,162.7816 410.41383,162.18803 C 411.4409,161.59445 412.70674,161.59445 413.73381,162.18803 C 414.76087,162.7816 415.39283,163.87842 415.39126,165.06467 z" />
        <path
           id="path2372"
           style="fill:#f7e017;fill-opacity:1;fill-rule:evenodd;stroke:#000000;stroke-width:1pt;stroke-opacity:1"
           transform="matrix(1.21037,0,0,1.21037,-74.5967,-31.8359)"
           d="M 415.39126,165.06467 C 415.39283,166.25092 414.76087,167.34774 413.73381,167.94131 C 412.70674,168.53489 411.4409,168.53489 410.41383,167.94131 C 409.38677,167.34774 408.75481,166.25092 408.75638,165.06467 C 408.75481,163.87842 409.38677,162.7816 410.41383,162.18803 C 411.4409,161.59445 412.70674,161.59445 413.73381,162.18803 C 414.76087,162.7816 415.39283,163.87842 415.39126,165.06467 z" />
        <path
           id="path2373"
           style="fill:#f7e017;fill-opacity:1;fill-rule:evenodd;stroke:#000000;stroke-width:1pt;stroke-opacity:1"
           transform="matrix(1.21037,0,0,1.21037,-58.6018,2.87875)"
           d="M 415.39126,165.06467 C 415.39283,166.25092 414.76087,167.34774 413.73381,167.94131 C 412.70674,168.53489 411.4409,168.53489 410.41383,167.94131 C 409.38677,167.34774 408.75481,166.25092 408.75638,165.06467 C 408.75481,163.87842 409.38677,162.7816 410.41383,162.18803 C 411.4409,161.59445 412.70674,161.59445 413.73381,162.18803 C 414.76087,162.7816 415.39283,163.87842 415.39126,165.06467 z" />
        <path
           id="path2374"
           style="fill:#f7e017;fill-opacity:1;fill-rule:evenodd;stroke:#000000;stroke-width:1pt;stroke-opacity:1"
           transform="matrix(1.21037,0,0,1.21037,-56.1138,-5.29638)"
           d="M 415.39126,165.06467 C 415.39283,166.25092 414.76087,167.34774 413.73381,167.94131 C 412.70674,168.53489 411.4409,168.53489 410.41383,167.94131 C 409.38677,167.34774 408.75481,166.25092 408.75638,165.06467 C 408.75481,163.87842 409.38677,162.7816 410.41383,162.18803 C 411.4409,161.59445 412.70674,161.59445 413.73381,162.18803 C 414.76087,162.7816 415.39283,163.87842 415.39126,165.06467 z" />
        <path
           id="path2375"
           style="fill:#f7e017;fill-opacity:1;fill-rule:evenodd;stroke:#000000;stroke-width:1pt;stroke-opacity:1"
           transform="matrix(1.21037,0,0,1.21037,-56.3507,-13.353)"
           d="M 415.39126,165.06467 C 415.39283,166.25092 414.76087,167.34774 413.73381,167.94131 C 412.70674,168.53489 411.4409,168.53489 410.41383,167.94131 C 409.38677,167.34774 408.75481,166.25092 408.75638,165.06467 C 408.75481,163.87842 409.38677,162.7816 410.41383,162.18803 C 411.4409,161.59445 412.70674,161.59445 413.73381,162.18803 C 414.76087,162.7816 415.39283,163.87842 415.39126,165.06467 z" />
        <path
           id="path2376"
           style="fill:#f7e017;fill-opacity:1;fill-rule:evenodd;stroke:#000000;stroke-width:1pt;stroke-opacity:1"
           transform="matrix(1.21037,0,0,1.21037,-60.3791,-21.6466)"
           d="M 415.39126,165.06467 C 415.39283,166.25092 414.76087,167.34774 413.73381,167.94131 C 412.70674,168.53489 411.4409,168.53489 410.41383,167.94131 C 409.38677,167.34774 408.75481,166.25092 408.75638,165.06467 C 408.75481,163.87842 409.38677,162.7816 410.41383,162.18803 C 411.4409,161.59445 412.70674,161.59445 413.73381,162.18803 C 414.76087,162.7816 415.39283,163.87842 415.39126,165.06467 z" />
        <path
           id="path2377"
           style="fill:#f7e017;fill-opacity:1;fill-rule:evenodd;stroke:#000000;stroke-width:1pt;stroke-opacity:1"
           transform="matrix(1.21037,0,0,1.21037,-66.777,-27.9261)"
           d="M 415.39126,165.06467 C 415.39283,166.25092 414.76087,167.34774 413.73381,167.94131 C 412.70674,168.53489 411.4409,168.53489 410.41383,167.94131 C 409.38677,167.34774 408.75481,166.25092 408.75638,165.06467 C 408.75481,163.87842 409.38677,162.7816 410.41383,162.18803 C 411.4409,161.59445 412.70674,161.59445 413.73381,162.18803 C 414.76087,162.7816 415.39283,163.87842 415.39126,165.06467 z" />
      </g>
      <g
         id="g2378"
         style="fill:#f7e017;stroke:#000000;stroke-opacity:1"
         transform="translate(3.5594,3.24364)">
        <path
           id="path2379"
           style="fill:#f7e017;fill-opacity:1;fill-rule:evenodd;stroke:#000000;stroke-width:1pt;stroke-opacity:1"
           d="M 434.51074,188.39317 C 434.51074,198.99666 425.91492,207.59248 415.31143,207.59248 C 404.70794,207.59248 396.11212,198.99666 396.11212,188.39317 C 396.11212,177.78968 404.70794,169.19386 415.31143,169.19386 C 425.91492,169.19386 434.51074,177.78968 434.51074,188.39317 L 434.51074,188.39317 z" />
        <g
           id="g2380"
           style="fill:#f7e017;stroke:#000000;stroke-opacity:1">
          <path
             id="path2382"
             style="fill:#f7e017;fill-rule:evenodd;stroke:#000000;stroke-width:1pt;stroke-opacity:1"
             d="M 424.74267,188.39317 C 424.74267,193.6019 420.52016,197.82441 415.31143,197.82441 C 410.1027,197.82441 405.88019,193.6019 405.88019,188.39317 C 405.88019,183.18444 410.1027,178.96193 415.31143,178.96193 C 420.52016,178.96193 424.74267,183.18444 424.74267,188.39317 z" />
          <g
             id="g11406"
             transform="matrix(1,0,0,-1,-0.231616,377.288)">
            <path
               id="path2381"
               style="fill:#000000;fill-opacity:1;fill-rule:evenodd;stroke:none;stroke-width:1pt;stroke-opacity:1"
               d="M 422.96899,182.05431 C 424.01765,183.6759 424.79206,185.51881 424.79206,187.59231 C 424.79205,193.32269 420.13441,197.94595 414.40402,197.94595 C 411.80613,197.94595 409.51786,196.91071 407.69651,195.33174 C 409.54671,198.18761 412.60768,200.18178 416.26148,200.18178 C 421.99187,200.18178 426.64952,195.52413 426.64952,189.79374 C 426.64952,186.66124 425.16516,183.95823 422.96899,182.05431 z" />
            <path
               id="path2383"
               style="fill:#ffffff;fill-opacity:1;fill-rule:evenodd;stroke:none;stroke-width:1pt;stroke-opacity:1"
               transform="translate(-8.18888e-2,0.245666)"
               d="M 415.98364,182.95517 C 415.98364,184.39474 414.81664,185.56173 413.37707,185.56173 C 411.93751,185.56173 410.77051,184.39474 410.77051,182.95517 C 410.77051,181.5156 411.93751,180.34861 413.37707,180.34861 C 414.81664,180.34861 415.98364,181.5156 415.98364,182.95517 z" />
          </g>
        </g>
      </g>
    </g>
  </g>
</svg>
