<?xml version="1.0" encoding="UTF-8"?>
<svg id="Flag_of_the_Treinta_y_Tres" data-name="Flag of the Treinta y Tres" xmlns="http://www.w3.org/2000/svg" viewBox="0 0 900 600">
  <defs>
    <style>
      .cls-1 {
        fill: #003685;
      }

      .cls-2 {
        fill: #fff;
      }

      .cls-3 {
        fill: #b43232;
      }
    </style>
  </defs>
  <rect id="rect3" class="cls-1" width="900" height="200"/>
  <rect id="rect5" class="cls-2" y="200" width="900" height="200"/>
  <rect id="rect7" class="cls-3" y="400" width="900" height="200"/>
  <path id="LibertadOMuerte" d="m102.85,314.31c-1.38,4.23-3.13,7.18-4.69,9.02-2.12,2.39-5.24,2.85-10.3,2.85-3.86,0-6.99-.18-8.83-1.2-1.66-.92-2.12-2.76-2.12-7.73v-36.34c0-7.82.83-8.28,8.1-8.83v-2.58h-24.01v2.58c7.45.55,8.1,1.01,8.1,8.83v36.8c0,7.82-.74,8.46-8.46,9.02v2.58h41.68c.83-2.85,2.76-11.59,3.31-14.44l-2.76-.55m28.25,15v-2.48c-6.07-.46-6.62-.92-6.62-7.54v-22.54c0-6.81.64-7.08,6.62-7.64v-2.48h-20.52v2.58c5.89.46,6.44.74,6.44,7.45v22.63c0,6.62-.55,7.08-6.44,7.54v2.48h20.52m34.56-23.55c3.22-.83,8.74-3.31,8.74-9.38,0-7.08-5.61-9.75-14.17-9.75h-21.25v2.48c5.7.46,6.26.83,6.26,8v22.08c0,6.72-.55,7.08-6.62,7.64v2.48h17.66c10.12,0,20.98-2.94,20.98-12.88,0-6.62-4.97-9.66-11.59-10.49v-.18m-13.16-.74v-11.78c0-2.85.64-3.77,4.78-3.77,4.6,0,9.11,2.02,9.11,7.91s-4.14,7.64-9.66,7.64h-4.23m0,2.94h4.32c6.9,0,11.87,2.3,11.87,8.92s-4.6,9.57-10.12,9.57c-3.77,0-6.07-1.01-6.07-7.08v-11.41m68.15,9.57c-1.2,3.31-2.39,5.24-3.5,6.53-1.66,1.75-4.05,2.3-8.65,2.3-3.86,0-5.98-.18-7.18-.92-1.1-.74-1.56-2.39-1.56-5.89v-10.67h6.72c5.61,0,5.98.74,6.81,5.43h2.58v-13.89h-2.58c-.83,4.42-1.29,5.06-6.81,5.06h-6.72v-13.25c0-2.48.18-2.58,2.67-2.58h4.88c4.88,0,6.35.64,7.54,2.21.92,1.1,1.66,2.67,2.48,5.52l2.48-.18c-.37-4.23-.64-8.74-.74-10.58h-33.12v2.58c5.89.37,6.35.83,6.35,7.54v22.36c0,6.62-.46,7.18-6.99,7.73v2.48h35.51c.55-1.84,1.93-8.65,2.39-11.32l-2.58-.46m52.94,10.21c-1.66-.55-3.5-1.38-5.06-3.04-1.56-1.66-2.76-3.13-5.06-6.44-2.12-2.94-5.06-7.73-6.07-9.57,4.42-1.66,8.74-5.06,8.74-11.04,0-4.14-2.02-7.18-4.69-8.74-2.76-1.75-6.16-2.3-10.76-2.3h-20.33v2.48c5.8.46,6.35.74,6.35,7.45v22.91c0,6.44-.55,6.9-6.62,7.36v2.48h20.52v-2.48c-6.07-.46-6.62-1.01-6.62-7.36v-8.56h2.12c3.5,0,4.51.64,6.16,3.4,1.29,2.3,3.77,6.62,5.89,9.57,2.76,3.96,5.7,5.98,13.06,5.98h2.12l.28-2.12m-29.62-19.69v-15c0-2.76.37-3.59,4.23-3.59,5.34,0,9.84,2.67,9.84,9.38,0,3.22-1.2,6.26-3.59,7.73-1.93,1.1-4.14,1.47-6.72,1.47h-3.77m74.55-9.84c-.37-4.05-.83-10.4-.83-13.16h-1.93c-1.01,1.2-1.56,1.56-3.4,1.56h-27.42c-1.75,0-2.58-.18-3.59-1.56h-1.93c-.09,3.31-.55,8-.83,13.34h2.58c.74-3.4,1.38-5.15,2.3-6.44,1.2-1.66,2.58-2.39,8.28-2.39h2.85v29.62c0,6.62-.55,7.08-6.9,7.54v2.58h21.71v-2.58c-6.72-.46-7.27-.83-7.27-7.64v-29.53h4.05c4.14,0,6.07.55,7.27,2.12.83,1.1,1.66,3.13,2.39,6.72l2.67-.18m52.88,31.1v-2.48c-4.14-.28-5.89-.83-8-6.26l-14.17-35.24-2.85.64-13.52,33.03c-2.76,6.72-4.51,7.36-8.74,7.82v2.48h16.65v-2.48l-2.21-.28c-2.67-.37-3.59-1.1-2.48-4.69.74-2.48,1.47-4.69,2.21-6.53h15l2.67,6.9c1.2,3.31.64,4.05-2.12,4.42l-1.66.18v2.48h19.23m-19.5-17.57h-12.33l6.07-16.1h.18l6.07,16.1m25.99-25.12v2.48c5.61.46,6.16.83,6.16,7.64v22.54c0,6.53-.64,7.08-6.72,7.54v2.48h18.49c15,0,27.69-7.08,27.69-22.82,0-6.07-2.39-11.04-5.7-14.08-4.6-4.23-11.41-5.8-19.32-5.8h-20.61m13.62,8.37c0-2.48.37-3.68.83-4.32.64-.64,2.39-1.1,5.06-1.1,10.12,0,17.48,4.78,17.48,18.22,0,11.22-5.7,18.49-16.65,18.49-5.15,0-6.72-1.38-6.72-7.27v-24.01m83.68-9.57c-10.03,0-23,7.08-23,23.37,0,10.86,8.37,21.71,23.09,21.71,11.13,0,22.82-7.82,22.82-23,0-12.51-9.38-22.08-22.82-22.08h-.09m-.74,2.94c9.48,0,15,10.49,15,20.88,0,13.34-6.35,18.4-13.25,18.4-9.02,0-15.36-8.74-15.36-20.98s6.53-18.31,13.52-18.31h.09m127.65,40.94v-2.58c-8-.74-8.28-1.2-8.56-10.95l-.92-33.3c-.28-9.48.37-9.66,8.46-10.4v-2.58h-15.64l-21.25,46-20.98-46h-15.09v2.58c8.37.83,8.83,1.2,8,13.16l-1.29,19.14c-.74,9.57-1.29,13.62-1.75,16.84-.64,3.86-2.48,4.88-7.82,5.52v2.58h21.44v-2.58c-6.07-.64-8.28-1.29-8.46-5.7-.09-3.68-.09-7.73.28-15.27l1.38-26.22h.18l20.61,49.13h1.84l22.45-50.42h.37l.28,37.54c.09,9.75-.28,10.21-7.73,10.95v2.58h24.2m54.15-42.69h-17.94v2.48c5.34.37,6.81,1.1,7.18,4.32.28,2.21.46,4.97.46,11.32v4.23c0,10.76-3.86,17.02-12.05,17.02s-11.96-5.7-11.96-16.28v-13.16c0-6.44.46-6.81,6.26-7.45v-2.48h-20.24v2.48c5.98.64,6.44,1.01,6.44,7.45v15.18c0,7.73,2.12,12.51,5.98,15.46,3.22,2.48,7.27,3.31,11.59,3.31,4.88,0,9.38-1.75,12.51-4.88,3.77-3.77,5.06-9.66,5.06-15.82v-5.06c0-6.16.18-9.2.46-11.32.28-3.13,1.93-3.96,6.26-4.32v-2.48m40.76,30.91c-1.2,3.31-2.39,5.24-3.5,6.53-1.66,1.75-4.05,2.3-8.65,2.3-3.86,0-5.98-.18-7.18-.92-1.1-.74-1.56-2.39-1.56-5.89v-10.67h6.72c5.61,0,5.98.74,6.81,5.43h2.58v-13.89h-2.58c-.83,4.42-1.29,5.06-6.81,5.06h-6.72v-13.25c0-2.48.18-2.58,2.67-2.58h4.88c4.88,0,6.35.64,7.54,2.21.92,1.1,1.66,2.67,2.48,5.52l2.48-.18c-.37-4.23-.64-8.74-.74-10.58h-33.12v2.58c5.89.37,6.35.83,6.35,7.54v22.36c0,6.62-.46,7.18-6.99,7.73v2.48h35.51c.55-1.84,1.93-8.65,2.39-11.32l-2.58-.46m52.94,10.21c-1.66-.55-3.5-1.38-5.06-3.04-1.56-1.66-2.76-3.13-5.06-6.44-2.12-2.94-5.06-7.73-6.07-9.57,4.42-1.66,8.74-5.06,8.74-11.04,0-4.14-2.02-7.18-4.69-8.74-2.76-1.75-6.16-2.3-10.76-2.3h-20.33v2.48c5.8.46,6.35.74,6.35,7.45v22.91c0,6.44-.55,6.9-6.62,7.36v2.48h20.52v-2.48c-6.07-.46-6.62-1.01-6.62-7.36v-8.56h2.12c3.5,0,4.51.64,6.16,3.4,1.29,2.3,3.77,6.62,5.89,9.57,2.76,3.96,5.7,5.98,13.06,5.98h2.12l.28-2.12m-29.62-19.69v-15c0-2.76.37-3.59,4.23-3.59,5.34,0,9.84,2.67,9.84,9.38,0,3.22-1.2,6.26-3.59,7.73-1.93,1.1-4.14,1.47-6.72,1.47h-3.77m74.55-9.84c-.37-4.05-.83-10.4-.83-13.16h-1.93c-1.01,1.2-1.56,1.56-3.4,1.56h-27.42c-1.75,0-2.58-.18-3.59-1.56h-1.93c-.09,3.31-.55,8-.83,13.34h2.58c.74-3.4,1.38-5.15,2.3-6.44,1.2-1.66,2.58-2.39,8.28-2.39h2.85v29.62c0,6.62-.55,7.08-6.9,7.54v2.58h21.71v-2.58c-6.72-.46-7.27-.83-7.27-7.64v-29.53h4.05c4.14,0,6.07.55,7.27,2.12.83,1.1,1.66,3.13,2.39,6.72l2.67-.18m41.93,19.32c-1.2,3.31-2.39,5.24-3.5,6.53-1.66,1.75-4.05,2.3-8.65,2.3-3.86,0-5.98-.18-7.18-.92-1.1-.74-1.56-2.39-1.56-5.89v-10.67h6.72c5.61,0,5.98.74,6.81,5.43h2.58v-13.89h-2.58c-.83,4.42-1.29,5.06-6.81,5.06h-6.72v-13.25c0-2.48.18-2.58,2.67-2.58h4.88c4.88,0,6.35.64,7.54,2.21.92,1.1,1.66,2.67,2.48,5.52l2.48-.18c-.37-4.23-.64-8.74-.74-10.58h-33.12v2.58c5.89.37,6.35.83,6.35,7.54v22.36c0,6.62-.46,7.18-6.99,7.73v2.48h35.51c.55-1.84,1.93-8.65,2.39-11.32l-2.58-.46"/>
</svg>