<svg xmlns="http://www.w3.org/2000/svg" xmlns:xlink="http://www.w3.org/1999/xlink" width="800" height="480">
  <path style="fill:#fff" d="M0 0h800v480H0V0z"/>
  <path d="M0 0h400v240H0V0z" style="fill:#0000c0;fill-opacity:1"/>
  <path style="fill:#ce1124" d="M352 0v192H0v96h352v192h96V288h352v-96H448V0h-96z"/>
  <path style="fill:#ffc000;fill-opacity:1" d="M0 0v42.71875L273.6875 192H352v-42.71875L78.3125 0H0z"/>
  <g id="a">
    <path d="M177.98371-25.095439c.51382-2.515108.98677-6.335211.40726-8.832802-.36201-1.556068-1.05392-2.916533-2.01296-4.166058-.66856-.874376-1.90933-2.747205-3.06835-1.964791-1.56336 1.052462-.55177 8.381746-.75176 10.021019-.23647 1.934136.1343 1.672846-1.38966 2.846465-.77803.599948-2.11222 1.286019-3.01287 1.646571-.12116.046711 3.63326.976557 4.15292.982396 1.89035.016057 3.79237-.175167 5.65936-.456894.00584-.024816.01022-.048171.01606-.075906zM187.23545-36.203954c-.05839-2.650863.04817-7.648964-2.68882-9.094093-1.9137 4.116427-1.24806 8.100019-1.43783 12.543425-.10364 2.377894 1.51228 6.764371-1.60424 6.857793-1.26412-2.453799-.59264-6.441771-1.43783-9.140804-.97655-3.116515-3.56611-5.762998-4.4507-8.552535-1.08312-3.412839-.55616-8.059147-.55616-11.651533 0-1.697661-.04671-3.209937.47296-4.79228.55323-1.687443 2.44358-3.770472 2.26257-5.514845-1.48454-.598488-3.13111.350334-4.42297-.033574-2.19251-.655417-1.921-6.218432-1.68744-8.015355.50652-3.89017 1.86699-7.629988 2.90047-11.394621 1.25391-4.573322 2.88734-10.38887 7.61685-12.505473.19123 1.499139.15181 3.369048.79993 4.787901.27443.598488.51383 1.563367 1.26996 1.747292.32406.078826 1.94874-.344495 1.79547-.815986-1.6962-5.17035-5.3207-9.786008-4.88862-15.505208.25837-3.43766 5.01999-8.18469 9.09847-7.42709 4.64339.86562 3.62742 8.20512 3.67413 11.60336.03649 2.60562-.0146 4.949935-1.36923 7.251923-1.25974 2.147257-2.82165 3.656614-2.47861 6.33667.2175.078826.8408.2175 1.06414.21458 1.77357-1.442209 2.2144-3.88725 3.89601-5.38055 2.68006 3.903307 2.37643 10.107143 2.15893 14.646891-.14305 2.964703-2.90485 5.055031-2.37935 8.101479.59119 3.431816 2.4465 6.538113 2.72093 10.165532.54448 7.180392 1.56483 14.404576 1.45973 21.601025-.0365 2.477155-.31676 5.11488-.04088 7.577438.16787 1.510816.96926 2.922371.46274 4.514933-.54594 1.718097-.11094.554695-1.6349 1.577963-2.03485 1.367764-3.64639 2.973462-5.24333 4.783522-.98532 1.11961-4.2624 4.341226-4.67405 1.125449-.1737-1.367763 1.94582-3.214316 2.41585-4.387936-1.26996-.068607-2.27863.262751-2.972-.891893-1.25391-2.088868-.04817-7.897117-.10218-10.3334z" transform="matrix(.76518 0 0 .76518 35.29641 147.2645)"/>
    <path d="M190.44539-110.5478c.9459.31092 1.85093-1.03203 1.63197-1.89034-.13867-.53864-.93568-1.25391-1.52979-.95029-.72549.36931-.14452 2.19689-.10218 2.84063zM192.44959-106.25766c.53572-.36932.89773-1.72102.07007-1.96042-.74738-.21312-1.65533 1.40572-1.35755 2.05968.20436.44667 1.02911.07882 1.28748-.09926zM187.35223-107.71301c-.19123-.56783-.49339-2.28155-1.27872-2.23484-.3372.01897-.91963.76927-1.22617.95466-.37515.2248-.79263.44376-1.24369.42332-.3007-.01314-.9605-.25253-1.23055-.16641-.53864.17079-.39412.5109-.63936.97948.95904.40434 2.21295-.05109 3.23183.02189 1.36485.09634 1.51666 1.17362 1.56191 2.48592-.94298.14159-1.57212-1.06122-2.39249-1.28602-.93422-.25691-1.22033.80139-1.93268 1.22617.52988 1.51957.89773 3.41138 1.91224 4.71053.68462.878758 1.77941.51821 2.59686-.06422-.09926.39266-.24816.713801-.24232 1.163397.01168 1.029107.69921 2.218783.35472 3.234753.54739.179546 1.11669.179546 1.65387.443756-.43792-1.229089.2861-3.028931.28464-4.342686-.00146-1.02765-.03065-2.01442-.20582-3.00411-.26567-1.51374-.71089-3.07857-1.20427-4.54559zM181.42428-78.287855c.1197-.706507.16933-1.474323.49193-2.113683.3153-.627682.76051-1.16924 1.01743-1.853852-.58097-.716725-1.25829-.540099-1.9283.074446-1.3123 1.204274-2.21879 3.41138-2.63627 5.078387-.50652 2.02172-.99991 3.990891-.88167 6.113332.06277 1.123989-.19123 2.66546.62476 3.449333.08904.084664.22918-.100721.34888.011678.17808.169328.21895.494847.3226.700668.25691.510904.68461 1.569206 1.37214 1.675766 1.55461.242314.93714-2.582256.90211-3.309199-.16203-3.271246-.18393-6.593583.36639-9.826876zM180.06235-83.379379c-1.18529 1.648031-2.09616 3.336934-2.96762 5.187866-.85832 1.823198-1.58964 3.57195-1.96479 5.555717-.26713 1.413015-.34595 2.722389-.45835 4.139783-.99408-.945902-.43938-3.72814-.28757-4.885703.28465-2.167693.93569-4.636089 1.98815-6.565847.69045-1.264123 1.20719-2.61145 2.01442-3.814264.29049-.433539.80431-1.307915 1.38236-1.413015 1.15318-.208741.69775 1.233469.2934 1.795463z" style="fill:#fff" transform="matrix(.76518 0 0 .76518 35.29641 147.2645)"/>
    <path d="M183.48395-85.605461c.8919.411643 1.7181.925466 2.38665 1.643651 1.90933 2.047996.49047 5.945464-.5182 8.091262-.24377.516743-.47441.947362.16641 1.22325 1.33273.573672 2.53263-2.262575 2.8596-3.134032.84519-2.250897 1.77503-4.779143.12992-6.821299 2.46402.810148 3.89017 3.275625 4.31057 5.671035.04671.270049-.02481 1.084577.27151 1.22617.56783.272969.83496-1.048083.92839-1.414475.97509-3.869733-.97364-7.793477-5.07693-8.640118-1.05976-.217499-2.25674-.302163-3.32234-.414562-1.10063-.118238-1.77648-.608706-2.78516-.928386-1.00721-.31968-3.00849.147433-2.64648 1.569206.39705 1.557527 2.17061 1.411555 3.29606 1.928298zM185.06338-65.490437c.03065-.610165.5328-3.074183-.76052-2.602691-.60287.218959-1.18968 1.70496-1.18822 2.297608.00438 1.645112-.03649 3.290223-.07882 4.90322.59265.042332 1.22909.042332 1.82173 0 .19269-.548857.12262-1.175079.08905-1.741453-.06131-.982396.06861-1.877208.11678-2.856684zM180.782-57.858989c.60141.175167 1.80276.313841 2.0334-.042332.10072-.153272.0832-1.607159-.15619-1.573585.5182-.071527 1.21303.05547 1.73853.091963.08613.564914-.10364 1.156103-.06569 1.734154.60579-.032114 1.21012-.15765 1.82612.026275.05839.554696-.02919 1.126909-.19122 1.65241-.57076-.202902-1.2977-.204362-1.91224-.167868-.11386.007298-.11532 3.183662-.11678 3.477067 0 .382448.18392 1.33273-.07299 1.618836-.2321.261291-1.13421.118238-1.47286.252533-.09197-.945903-.00438-1.913701.03649-2.861063.01898-.458354.37807-1.54731.22626-1.954573-.25107-.674394-.83788-.256912-1.44805-.461274-.50944-.173707-.50507-.113858-.58535-.750299-.04671-.357633-.02482-.731323.00292-1.091875.04671.016057.09926.033574.15765.049631zM189.13455-68.304789c-.04233-.710886.23356-2.8742-1.23639-2.34286-.53863.194144-.38828.782413-.45251 1.38674-.15765 1.497679-.38683 2.989519-.44376 4.494496-.01897.484629-.35325 1.885966-.09488 2.320965.19852.334277.51236.197063.76782.436458.70358.656876.55615 2.567658.92692 3.542755.56784 1.49038 1.08896 2.996817 1.77649 4.437567.42332-.195604.41894-1.481622.94298-1.913701-1.45389-2.414387-1.63781-5.517764-1.9356-8.254751-.14743-1.360464-.16932-2.741365-.25107-4.107669zM173.28923-26.26176c.84226.52842 2.50635.553236 3.31649-.065688 1.47287-1.131288-.91087-2.374974-1.99544-2.214404-.36493.985315-2.59977 1.478702-1.32105 2.280092zM192.98969-23.190497c-.00876.020436-1.20574-.499226-1.36485-.499226-.41748 0-.62622.172248-.92546.462733-.6452.626222-.70651 1.22325.19268 1.636353.93423.4277 1.78525-.884594 2.09763-1.59986z" style="fill:#fff" transform="matrix(.76518 0 0 .76518 35.29641 147.2645)"/>
  </g>
  <use xlink:href="#a" width="800" height="480" transform="translate(-99 -54)"/>
  <use xlink:href="#a" transform="translate(99 54)" width="800" height="480"/>
  <path d="M331.18049-138.79934c2.74136 2.84939 6.31477 4.48574 9.8911 6.01699-2.58809 1.60716-7.3176 2.95303-8.62844 5.98196-1.99252 4.6069 4.35145 8.07958 6.95122 10.57426 1.32543 1.27142 2.15893 2.72968 2.82019 4.41713 2.39249 6.10895 1.24952 11.1523-4.4726 14.751988-1.10064.691911-1.62614 1.037866-2.13558.010218-.70651-1.429071.35909-3.942716.00876-5.514846-.25254-1.12983-.9605-2.30053-1.83488-3.08732-1.69182-1.52541-3.13987-1.67139-3.64785-4.00111-.57514-2.63626-1.26997-5.37179-4.00695-6.5819-2.4611-1.0875-4.30765-.00292-5.07255 2.46547-.71819 2.32389.21896 4.92074-.58827 7.25046-1.03932 2.9939-4.00841 4.35583-5.15721 7.262141-.57367 1.449508-.8846 5.11342.76052 5.981957-5.03022.645199-8.75252-5.345517-8.75982-9.786008-.0073-4.34852 2.26404-8.33795 4.74411-11.76101 1.12837-1.55461 2.04654-2.39833 2.12536-4.30035.08758-2.07719.47441-4.20255.40289-6.2812-.09489-2.76326-1.45389-3.39824-3.37781-5.06087-1.21595-1.04954-2.40417-2.17645-3.69603-3.10484-1.92684-1.38382-5.01562-1.96187-7.34242-2.37789-.99261-.17809-2.30491-.31092-3.28146-.31384-1.51082-.00584-3.41284-.01606-4.86527.11386-.86562.07736-2.54722 1.68014-3.26541 1.44804 2.68298.86708 2.94865 4.32517 2.68882 6.61548-.18685 1.64511-.24232 3.68435 2.00274 2.92383 1.44659-.49047 2.20711-2.06113 3.85514-1.98085 1.82758.08759 2.8815 1.90933 2.92237 3.60553.03357 1.36922-.77657 3.14133-1.87429 3.98651-1.3809 1.0656-2.95594.28757-4.47114.21166-1.11815-.05401-3.28 1.30062-2.76764 2.67422.38829 1.04078 2.57934 1.22325 3.5048 1.41155 1.85677.37953 5.05357.04817 4.67988 2.85231-.31676 2.37789-3.61574 2.65816-5.46375 2.42898-3.19096-.39704-4.69594-2.18813-5.83161-5.14699-.73424-1.91662-.14159-3.77485-.88021-5.6652-.79847-2.04507-1.88013-4.6901-3.66829-6.03597-1.58526-1.19113-2.69612-.01459-2.32972 1.71664.19998.94298.85686 1.46703 1.3809 2.21003.85686 1.21741 1.4568 2.57203 2.06259 3.92374 1.60424 3.58801 1.94144 7.81099 1.30353 11.66175-.39266 2.37206-1.76334 7.705895-4.9616 7.646046-1.34295-.026275-1.75167-1.681606-1.68745-2.887336.08029-1.48746 1.39988-2.16769 1.82904-3.49459.58973-1.82465.39996-3.65807.55032-5.52798.11531-1.42615 1.09625-3.82594.12845-5.13969-.80869-1.09772-1.78086-.61747-2.53554.3839-1.62176 2.14872-1.1707 5.57032-1.65679 8.07667-.35034 1.81006-.56346 3.68727-.99845 5.47105-.5547 2.28155-1.91662 5.003942-4.01571 6.249089-2.44796 1.453887-5.92065 1.38236-6.66219-1.818819-.29632-1.27726.10364-2.39541.98824-3.32818.59994-.63498 1.83779-.85685 1.58234-1.94289-2.62605.71818-4.46238-2.14434-3.22454-4.58938.66564-1.31521 3.02602-1.52249 2.67714-3.43327-2.94135-1.19844-2.67568-3.09024-1.64219-5.62141.75176-1.83488.76052-1.61884-.95466-2.15456-1.36485-.42624-2.82603-1.20719-3.80697-2.25235-1.19551-1.27434-2.31366-2.61583-3.01579-4.23613-.8408-1.93997-1.05246-4.03322-.86562-6.12501.07445-.82912 1.4028-4.9076.92985-5.3966-.39559-.40873-2.76034.3912-3.5194.15181-.61893-.19415-3.58655-2.93259-3.83032-2.82165 1.73561-.79263 3.35883-2.03778 5.27253-2.37352 1.78962-.31238 3.61428.60579 5.37325.15473 4.42005-1.12545 2.9939-6.6111 3.30482-9.91154.38829-4.14124.37953-8.42116 1.14004-12.50693.23648-1.26704 1.48455-6.24617 3.47561-4.23758.6233.62768.50507 2.6494.53718 3.5121.07007 1.87137.0219 4.0303.67585 5.80825 1.16341 3.15884 4.0741 2.70779 6.30748.91233 2.16915-1.74438 3.41284-4.73681 3.84492-7.44169.38683-2.4173.59995-5.64038 2.67422-7.35556.99115-.8189 2.11222-.54301 3.21431-.12845-.32114 2.46547-.48463 6.30455 1.26559 8.40072 1.17362 1.40572 3.72668 2.4392 5.56593 2.21295 1.91662-.23648 3.19534-2.0699 4.2697-3.49021 2.16331-2.85814 3.58801-5.43018 6.81984-7.36578 1.07874-.64666 4.47844-1.50497 4.2551 1.12691-.05839.68461-1.90932 2.1166-2.18229 3.08002-2.08157 7.32637 6.13523 6.45491 10.58739 5.4769 2.26696-.49777 5.62871-2.90194 7.97157-2.53555.27151.04233-2.01005 4.31495-2.18521 4.63171-.98386 1.79255-1.5911 3.31066-1.28018 5.36304.65541 4.33684 4.25948 4.77476 7.98324 5.19224-1.39842 4.41713-2.41293 9.10139 1.11523 12.76968zm-62.13178 13.27037c3.99965.16057 2.3341-7.18185-1.08166-4.96015-2.19834 1.43054-1.55022 4.85067 1.08166 4.96015zm3.82302-14.07759c2.09179-1.36047 3.87266-4.0522 5.44332-5.72943 1.30938-1.39842 2.68152-2.42898 4.51931-2.98806.55178-.16787.17517 3.91791.15328 4.17336-.11678 1.40279-.32844 2.86544 1.14004 3.53837 2.37206 1.08604 4.3675-.71672 6.32791-1.63635 2.51511-1.18092 5.39223-1.40863 8.11608-1.70496 2.20419-.23939 4.27554.37223 6.40966.58827 2.11806.21458 3.75879.86854 5.41266 2.31221 4.0668 3.55151 6.74102 7.90879 9.57288 12.42081.72257 1.15172 2.99828 5.76299 4.51202 5.99509.99115.15181 2.59393-1.85385 3.05228-2.60707 1.47725-2.43044.90503-6.35419.41895-8.99921-1.29478-7.05632-4.54559-12.17412-9.6342-17.16054-6.08559-5.96298-13.29518-8.3146-21.76889-6.75415-5.12656.94298-10.34654 2.7691-14.58996 5.84036-3.26249 2.36184-6.18924 5.1178-9.4926 7.40373-1.34003.92839-2.67714 1.85969-4.05366 2.73553-.68753.43792-4.08431 1.64803-3.77485 2.72531.50507 1.75897 5.42726.86561 6.61402.57659.55907-.13576 1.09917-.39267 1.62175-.72986z" style="fill:#fff" transform="matrix(.55815 .55815 -.55815 .55815 -185.8241 46.00753)"/>
  <path d="M272.43528-141.21372c1.7035-.30509 2.08594-4.03177-.20437-2.35016-.94736.69483-1.68744 2.69027.20437 2.35016zM276.31815-145.95345c1.61737.97071 4.29013-3.10338 2.34286-2.87712-.48317.05693-2.76618 2.62458-2.34286 2.87712zM282.73072-149.47431c1.64657 1.03348 5.37909-2.49905 2.48008-2.67714-1.09772-.06715-4.3821 1.48454-2.48008 2.67714zM286.19319-145.81186c-.09342-.2102 4.97621-1.84363 4.1573-3.83178-.69629-1.69182-3.55297.12262-4.20693 1.11961-.55907.84956-.32114 1.88305.04963 2.71217zM286.19465-141.48231c.82767-.37661 2.93405-1.24953 2.78078-2.46986-.15619-1.24077-1.77649-1.17216-2.50781-.49047-.40434.37515-.92838 3.25811-.27297 2.96033zM290.16511-144.30104c.91817 1.07144 4.44048-1.69621 3.57049-2.76618-1.42615-1.7546-5.21706.84226-3.57049 2.76618zM299.85477-152.40982c-1.79984-.95466-5.09444-1.23347-6.64759.32552-1.14881 1.15318-1.22179 3.10483.83204 2.97784 1.25245-.08029 2.54284-.48755 3.82156-.562.72111-.04087 1.4933.24816 2.16186.19123 1.83925-.15181 1.20427-2.20565-.16787-2.93259zM291.24093-155.06506c-.17955-.98678-3.35591 1.16632-3.56174 1.74291-.82912 2.31367 4.05658.97218 3.56174-1.74291zM299.81244-155.48984c.60286-4.27116-6.44031.67439-4.86965 1.27726 2.17499.83204 2.99828-.89336 4.86965-1.27726zM300.57003-147.0643c-1.57796-1.83488-5.91772.41164-4.02592 1.60569.58243.36785 2.55014.09927 3.07272-.36347.74154-.65833.82913-2.17499-.50652-1.78962M304.22373-145.23381c1.35317-.743-.34304-1.59548-1.27434-1.50352-.29633.0292-1.98815 1.16195-1.44805 1.32835.93422.28757 1.76335.70067 2.72239.17517zM306.54761-149.47723c.86416-.9824 1.87137-1.75897.03066-2.36914-.98824-.32698-2.15602.13284-2.93113.74154-1.44805 1.13567-1.84364 3.20994.56199 3.12674 1.44951-.04963 1.54877-.59995 2.33848-1.49914zM302.70707-153.94545c.90357.34887 3.83178.4204 4.08432-.9751.22042-1.21887-1.48162-1.5984-2.3633-1.56629-1.25828.0438-4.06096 1.63928-1.72102 2.54139zM309.87287-154.71765c-.25399.00584-.50069.05547-.73424.15765-1.34879.59119-.56346 1.86407.37369 2.39395.66563.37515 2.4538.97364 3.24497.94882 1.68452-.05109.66417-1.53709-.01314-2.18521-.67731-.64373-1.82466-1.34148-2.87128-1.31521zM309.82762-147.97663c1.82757 1.5692 4.50033-.435 1.55023-1.23639-1.05976-.28757-3.0844-.08321-1.55023 1.23639zM308.08033-144.55504c.53863 1.95312 3.51939 1.29478 2.42314-.44813-.67147-1.06852-2.91361-1.32981-2.42314.44813zM312.09895-145.20169c-.09342 2.90485 5.38493 3.29898 4.12665.75175-.5547-1.12252-4.04928-3.14425-4.12665-.75175zM316.63578-147.43362c6.55125 2.08741-1.30208-4.80541-2.07135-1.56482-.29049 1.21887 1.23785 1.29769 2.07135 1.56482zM315.23736-141.34364c-2.4319-1.46264-1.70496 2.42461.01022 2.37935 1.63343-.04379.37369-2.29177-.56637-2.37935M322.23821-142.44719c1.70204-1.08458-.90211-3.07856-2.06114-3.22746-2.70487-.34887.20291 4.4113 2.06114 3.22746zM320.39165-138.42127c.81307-1.13274-1.18383-3.53399-2.01442-1.91662-.55031 1.0729 1.14589 3.1282 2.01442 1.91662zM324.87155-138.32784c.87438-.91233-.59848-3.34132-1.80568-2.89902-1.50643.55324.41602 4.34998 1.80568 2.89902zM317.01823-135.17922c.6379 2.28448 2.47569 1.32981 1.8159-.64519-.6379-1.91517-2.40271-1.46557-1.8159.64519zM322.33747-136.88855c-1.46265.308-.83788 2.86982.39413 2.7472 1.48162-.15035.23647-2.70487-.81161-2.7472M320.08949-130.34168c1.06852 2.12098 2.30929-.62477 1.35025-1.42908-1.04809-.87729-1.79547.54156-1.35025 1.42908zM326.93415-131.89629c1.06706-.80431.2788-3.42014-1.18676-3.01872-1.93852.53134-.3007 4.14271 1.18676 3.01872z" style="fill:#fff" transform="matrix(.55815 .55815 -.55815 .55815 -185.8241 46.00753)"/>
  <g>
    <path style="fill:#fff" d="M331.18049-138.79934c2.74136 2.84939 6.31477 4.48574 9.8911 6.01699-2.58809 1.60716-7.3176 2.95303-8.62844 5.98196-1.99252 4.6069 4.35145 8.07958 6.95122 10.57426 1.32543 1.27142 2.15893 2.72968 2.82019 4.41713 2.39249 6.10895 1.24952 11.1523-4.4726 14.751988-1.10064.691911-1.62614 1.037866-2.13558.010218-.70651-1.429071.35909-3.942716.00876-5.514846-.25254-1.12983-.9605-2.30053-1.83488-3.08732-1.69182-1.52541-3.13987-1.67139-3.64785-4.00111-.57514-2.63626-1.26997-5.37179-4.00695-6.5819-2.4611-1.0875-4.30765-.00292-5.07255 2.46547-.71819 2.32389.21896 4.92074-.58827 7.25046-1.03932 2.9939-4.00841 4.35583-5.15721 7.262141-.57367 1.449508-.8846 5.11342.76052 5.981957-5.03022.645199-8.75252-5.345517-8.75982-9.786008-.0073-4.34852 2.26404-8.33795 4.74411-11.76101 1.12837-1.55461 2.04654-2.39833 2.12536-4.30035.08758-2.07719.47441-4.20255.40289-6.2812-.09489-2.76326-1.45389-3.39824-3.37781-5.06087-1.21595-1.04954-2.40417-2.17645-3.69603-3.10484-1.92684-1.38382-5.01562-1.96187-7.34242-2.37789-.99261-.17809-2.30491-.31092-3.28146-.31384-1.51082-.00584-3.41284-.01606-4.86527.11386-.86562.07736-2.54722 1.68014-3.26541 1.44804 2.68298.86708 2.94865 4.32517 2.68882 6.61548-.18685 1.64511-.24232 3.68435 2.00274 2.92383 1.44659-.49047 2.20711-2.06113 3.85514-1.98085 1.82758.08759 2.8815 1.90933 2.92237 3.60553.03357 1.36922-.77657 3.14133-1.87429 3.98651-1.3809 1.0656-2.95594.28757-4.47114.21166-1.11815-.05401-3.28 1.30062-2.76764 2.67422.38829 1.04078 2.57934 1.22325 3.5048 1.41155 1.85677.37953 5.05357.04817 4.67988 2.85231-.31676 2.37789-3.61574 2.65816-5.46375 2.42898-3.19096-.39704-4.69594-2.18813-5.83161-5.14699-.73424-1.91662-.14159-3.77485-.88021-5.6652-.79847-2.04507-1.88013-4.6901-3.66829-6.03597-1.58526-1.19113-2.69612-.01459-2.32972 1.71664.19998.94298.85686 1.46703 1.3809 2.21003.85686 1.21741 1.4568 2.57203 2.06259 3.92374 1.60424 3.58801 1.94144 7.81099 1.30353 11.66175-.39266 2.37206-1.76334 7.705895-4.9616 7.646046-1.34295-.026275-1.75167-1.681606-1.68745-2.887336.08029-1.48746 1.39988-2.16769 1.82904-3.49459.58973-1.82465.39996-3.65807.55032-5.52798.11531-1.42615 1.09625-3.82594.12845-5.13969-.80869-1.09772-1.78086-.61747-2.53554.3839-1.62176 2.14872-1.1707 5.57032-1.65679 8.07667-.35034 1.81006-.56346 3.68727-.99845 5.47105-.5547 2.28155-1.91662 5.003942-4.01571 6.249089-2.44796 1.453887-5.92065 1.38236-6.66219-1.818819-.29632-1.27726.10364-2.39541.98824-3.32818.59994-.63498 1.83779-.85685 1.58234-1.94289-2.62605.71818-4.46238-2.14434-3.22454-4.58938.66564-1.31521 3.02602-1.52249 2.67714-3.43327-2.94135-1.19844-2.67568-3.09024-1.64219-5.62141.75176-1.83488.76052-1.61884-.95466-2.15456-1.36485-.42624-2.82603-1.20719-3.80697-2.25235-1.19551-1.27434-2.31366-2.61583-3.01579-4.23613-.8408-1.93997-1.05246-4.03322-.86562-6.12501.07445-.82912 1.4028-4.9076.92985-5.3966-.39559-.40873-2.76034.3912-3.5194.15181-.61893-.19415-3.58655-2.93259-3.83032-2.82165 1.73561-.79263 3.35883-2.03778 5.27253-2.37352 1.78962-.31238 3.61428.60579 5.37325.15473 4.42005-1.12545 2.9939-6.6111 3.30482-9.91154.38829-4.14124.37953-8.42116 1.14004-12.50693.23648-1.26704 1.48455-6.24617 3.47561-4.23758.6233.62768.50507 2.6494.53718 3.5121.07007 1.87137.0219 4.0303.67585 5.80825 1.16341 3.15884 4.0741 2.70779 6.30748.91233 2.16915-1.74438 3.41284-4.73681 3.84492-7.44169.38683-2.4173.59995-5.64038 2.67422-7.35556.99115-.8189 2.11222-.54301 3.21431-.12845-.32114 2.46547-.48463 6.30455 1.26559 8.40072 1.17362 1.40572 3.72668 2.4392 5.56593 2.21295 1.91662-.23648 3.19534-2.0699 4.2697-3.49021 2.16331-2.85814 3.58801-5.43018 6.81984-7.36578 1.07874-.64666 4.47844-1.50497 4.2551 1.12691-.05839.68461-1.90932 2.1166-2.18229 3.08002-2.08157 7.32637 6.13523 6.45491 10.58739 5.4769 2.26696-.49777 5.62871-2.90194 7.97157-2.53555.27151.04233-2.01005 4.31495-2.18521 4.63171-.98386 1.79255-1.5911 3.31066-1.28018 5.36304.65541 4.33684 4.25948 4.77476 7.98324 5.19224-1.39842 4.41713-2.41293 9.10139 1.11523 12.76968zm-62.13178 13.27037c3.99965.16057 2.3341-7.18185-1.08166-4.96015-2.19834 1.43054-1.55022 4.85067 1.08166 4.96015zm3.82302-14.07759c2.09179-1.36047 3.87266-4.0522 5.44332-5.72943 1.30938-1.39842 2.68152-2.42898 4.51931-2.98806.55178-.16787.17517 3.91791.15328 4.17336-.11678 1.40279-.32844 2.86544 1.14004 3.53837 2.37206 1.08604 4.3675-.71672 6.32791-1.63635 2.51511-1.18092 5.39223-1.40863 8.11608-1.70496 2.20419-.23939 4.27554.37223 6.40966.58827 2.11806.21458 3.75879.86854 5.41266 2.31221 4.0668 3.55151 6.74102 7.90879 9.57288 12.42081.72257 1.15172 2.99828 5.76299 4.51202 5.99509.99115.15181 2.59393-1.85385 3.05228-2.60707 1.47725-2.43044.90503-6.35419.41895-8.99921-1.29478-7.05632-4.54559-12.17412-9.6342-17.16054-6.08559-5.96298-13.29518-8.3146-21.76889-6.75415-5.12656.94298-10.34654 2.7691-14.58996 5.84036-3.26249 2.36184-6.18924 5.1178-9.4926 7.40373-1.34003.92839-2.67714 1.85969-4.05366 2.73553-.68753.43792-4.08431 1.64803-3.77485 2.72531.50507 1.75897 5.42726.86561 6.61402.57659.55907-.13576 1.09917-.39267 1.62175-.72986z" transform="matrix(.55815 .55815 -.55815 .55815 60.22688 -43.89971)"/>
    <path style="fill:#fff" d="M272.43528-141.21372c1.7035-.30509 2.08594-4.03177-.20437-2.35016-.94736.69483-1.68744 2.69027.20437 2.35016zM276.31815-145.95345c1.61737.97071 4.29013-3.10338 2.34286-2.87712-.48317.05693-2.76618 2.62458-2.34286 2.87712zM282.73072-149.47431c1.64657 1.03348 5.37909-2.49905 2.48008-2.67714-1.09772-.06715-4.3821 1.48454-2.48008 2.67714zM286.19319-145.81186c-.09342-.2102 4.97621-1.84363 4.1573-3.83178-.69629-1.69182-3.55297.12262-4.20693 1.11961-.55907.84956-.32114 1.88305.04963 2.71217zM286.19465-141.48231c.82767-.37661 2.93405-1.24953 2.78078-2.46986-.15619-1.24077-1.77649-1.17216-2.50781-.49047-.40434.37515-.92838 3.25811-.27297 2.96033zM290.16511-144.30104c.91817 1.07144 4.44048-1.69621 3.57049-2.76618-1.42615-1.7546-5.21706.84226-3.57049 2.76618zM299.85477-152.40982c-1.79984-.95466-5.09444-1.23347-6.64759.32552-1.14881 1.15318-1.22179 3.10483.83204 2.97784 1.25245-.08029 2.54284-.48755 3.82156-.562.72111-.04087 1.4933.24816 2.16186.19123 1.83925-.15181 1.20427-2.20565-.16787-2.93259zM291.24093-155.06506c-.17955-.98678-3.35591 1.16632-3.56174 1.74291-.82912 2.31367 4.05658.97218 3.56174-1.74291zM299.81244-155.48984c.60286-4.27116-6.44031.67439-4.86965 1.27726 2.17499.83204 2.99828-.89336 4.86965-1.27726zM300.57003-147.0643c-1.57796-1.83488-5.91772.41164-4.02592 1.60569.58243.36785 2.55014.09927 3.07272-.36347.74154-.65833.82913-2.17499-.50652-1.78962M304.22373-145.23381c1.35317-.743-.34304-1.59548-1.27434-1.50352-.29633.0292-1.98815 1.16195-1.44805 1.32835.93422.28757 1.76335.70067 2.72239.17517zM306.54761-149.47723c.86416-.9824 1.87137-1.75897.03066-2.36914-.98824-.32698-2.15602.13284-2.93113.74154-1.44805 1.13567-1.84364 3.20994.56199 3.12674 1.44951-.04963 1.54877-.59995 2.33848-1.49914zM302.70707-153.94545c.90357.34887 3.83178.4204 4.08432-.9751.22042-1.21887-1.48162-1.5984-2.3633-1.56629-1.25828.0438-4.06096 1.63928-1.72102 2.54139zM309.87287-154.71765c-.25399.00584-.50069.05547-.73424.15765-1.34879.59119-.56346 1.86407.37369 2.39395.66563.37515 2.4538.97364 3.24497.94882 1.68452-.05109.66417-1.53709-.01314-2.18521-.67731-.64373-1.82466-1.34148-2.87128-1.31521zM309.82762-147.97663c1.82757 1.5692 4.50033-.435 1.55023-1.23639-1.05976-.28757-3.0844-.08321-1.55023 1.23639zM308.08033-144.55504c.53863 1.95312 3.51939 1.29478 2.42314-.44813-.67147-1.06852-2.91361-1.32981-2.42314.44813zM312.09895-145.20169c-.09342 2.90485 5.38493 3.29898 4.12665.75175-.5547-1.12252-4.04928-3.14425-4.12665-.75175zM316.63578-147.43362c6.55125 2.08741-1.30208-4.80541-2.07135-1.56482-.29049 1.21887 1.23785 1.29769 2.07135 1.56482zM315.23736-141.34364c-2.4319-1.46264-1.70496 2.42461.01022 2.37935 1.63343-.04379.37369-2.29177-.56637-2.37935M322.23821-142.44719c1.70204-1.08458-.90211-3.07856-2.06114-3.22746-2.70487-.34887.20291 4.4113 2.06114 3.22746zM320.39165-138.42127c.81307-1.13274-1.18383-3.53399-2.01442-1.91662-.55031 1.0729 1.14589 3.1282 2.01442 1.91662zM324.87155-138.32784c.87438-.91233-.59848-3.34132-1.80568-2.89902-1.50643.55324.41602 4.34998 1.80568 2.89902zM317.01823-135.17922c.6379 2.28448 2.47569 1.32981 1.8159-.64519-.6379-1.91517-2.40271-1.46557-1.8159.64519zM322.33747-136.88855c-1.46265.308-.83788 2.86982.39413 2.7472 1.48162-.15035.23647-2.70487-.81161-2.7472M320.08949-130.34168c1.06852 2.12098 2.30929-.62477 1.35025-1.42908-1.04809-.87729-1.79547.54156-1.35025 1.42908zM326.93415-131.89629c1.06706-.80431.2788-3.42014-1.18676-3.01872-1.93852.53134-.3007 4.14271 1.18676 3.01872z" transform="matrix(.55815 .55815 -.55815 .55815 60.22688 -43.89971)"/>
  </g>
</svg>
