<?xml version="1.0" encoding="UTF-8" standalone="no"?>
<!-- Created with Inkscape (http://www.inkscape.org/) -->
<svg
   xmlns:dc="http://purl.org/dc/elements/1.1/"
   xmlns:cc="http://creativecommons.org/ns#"
   xmlns:rdf="http://www.w3.org/1999/02/22-rdf-syntax-ns#"
   xmlns:svg="http://www.w3.org/2000/svg"
   xmlns="http://www.w3.org/2000/svg"
   xmlns:sodipodi="http://sodipodi.sourceforge.net/DTD/sodipodi-0.dtd"
   xmlns:inkscape="http://www.inkscape.org/namespaces/inkscape"
   id="svg2"
   sodipodi:version="0.32"
   inkscape:version="0.46"
   width="700"
   height="400"
   version="1.0"
   sodipodi:docname="Flag of Negotino Municipality.svg"
   inkscape:output_extension="org.inkscape.output.svg.inkscape">
  <metadata
     id="metadata7">
    <rdf:RDF>
      <cc:Work
         rdf:about="">
        <dc:format>image/svg+xml</dc:format>
        <dc:type
           rdf:resource="http://purl.org/dc/dcmitype/StillImage" />
      </cc:Work>
    </rdf:RDF>
  </metadata>
  <defs
     id="defs5">
    <inkscape:perspective
       sodipodi:type="inkscape:persp3d"
       inkscape:vp_x="0 : 526.18109 : 1"
       inkscape:vp_y="0 : 1000 : 0"
       inkscape:vp_z="744.09448 : 526.18109 : 1"
       inkscape:persp3d-origin="372.04724 : 350.78739 : 1"
       id="perspective9" />
  </defs>
  <sodipodi:namedview
     inkscape:window-height="738"
     inkscape:window-width="1280"
     inkscape:pageshadow="2"
     inkscape:pageopacity="0.0"
     guidetolerance="10.0"
     gridtolerance="10.0"
     objecttolerance="10.0"
     borderopacity="1.0"
     bordercolor="#666666"
     pagecolor="#ffffff"
     id="base"
     showgrid="false"
     inkscape:zoom="0.49772099"
     inkscape:cx="338.3338"
     inkscape:cy="164.63932"
     inkscape:window-x="0"
     inkscape:window-y="24"
     inkscape:current-layer="svg2" />
  <g
     id="g2397">
    <rect
       y="-0.30792129"
       x="0.025535356"
       height="400.47562"
       width="700.22589"
       id="rect2384"
       style="fill:#ff0000;fill-opacity:1;fill-rule:evenodd;stroke:none;stroke-linecap:round;stroke-opacity:1" />
    <rect
       y="288.04526"
       x="-55.977367"
       height="115.24752"
       width="793.56152"
       id="rect2386"
       style="fill:#ffff00;fill-opacity:1;fill-rule:evenodd;stroke:none;stroke-linecap:round;stroke-opacity:1" />
    <rect
       y="-3.3663301"
       x="-37.867046"
       height="115.24752"
       width="793.56152"
       id="rect2388"
       style="fill:#ffff00;fill-opacity:1;fill-rule:evenodd;stroke:none;stroke-linecap:round;stroke-opacity:1" />
    <path
       transform="matrix(0.9992817,-3.7896157e-2,3.7896157e-2,0.9992817,76.442961,-5.2796878)"
       d="M 235.43423,165.38898 A 24.695898,23.872702 0 1 1 186.04243,165.38898 A 24.695898,23.872702 0 1 1 235.43423,165.38898 z"
       sodipodi:ry="23.872702"
       sodipodi:rx="24.695898"
       sodipodi:cy="165.38898"
       sodipodi:cx="210.73833"
       id="path2390"
       style="fill:#ffff00;fill-opacity:1;fill-rule:evenodd;stroke:none;stroke-linecap:round;stroke-opacity:1"
       sodipodi:type="arc" />
    <path
       transform="matrix(0.9992817,-3.7896157e-2,3.7896157e-2,0.9992817,133.71306,-6.1251289)"
       d="M 235.43423,165.38898 A 24.695898,23.872702 0 1 1 186.04243,165.38898 A 24.695898,23.872702 0 1 1 235.43423,165.38898 z"
       sodipodi:ry="23.872702"
       sodipodi:rx="24.695898"
       sodipodi:cy="165.38898"
       sodipodi:cx="210.73833"
       id="path2392"
       style="fill:#ffff00;fill-opacity:1;fill-rule:evenodd;stroke:none;stroke-linecap:round;stroke-opacity:1"
       sodipodi:type="arc" />
    <path
       transform="matrix(0.9992817,-3.7896157e-2,3.7896157e-2,0.9992817,190.01049,-6.1098991)"
       d="M 235.43423,165.38898 A 24.695898,23.872702 0 1 1 186.04243,165.38898 A 24.695898,23.872702 0 1 1 235.43423,165.38898 z"
       sodipodi:ry="23.872702"
       sodipodi:rx="24.695898"
       sodipodi:cy="165.38898"
       sodipodi:cx="210.73833"
       id="path2394"
       style="fill:#ffff00;fill-opacity:1;fill-rule:evenodd;stroke:none;stroke-linecap:round;stroke-opacity:1"
       sodipodi:type="arc" />
    <path
       transform="matrix(0.9992817,-3.7896157e-2,3.7896157e-2,0.9992817,105.65623,43.416727)"
       d="M 235.43423,165.38898 A 24.695898,23.872702 0 1 1 186.04243,165.38898 A 24.695898,23.872702 0 1 1 235.43423,165.38898 z"
       sodipodi:ry="23.872702"
       sodipodi:rx="24.695898"
       sodipodi:cy="165.38898"
       sodipodi:cx="210.73833"
       id="path2396"
       style="fill:#ffff00;fill-opacity:1;fill-rule:evenodd;stroke:none;stroke-linecap:round;stroke-opacity:1"
       sodipodi:type="arc" />
    <path
       transform="matrix(0.9992817,-3.7896157e-2,3.7896157e-2,0.9992817,162.46934,43.775433)"
       d="M 235.43423,165.38898 A 24.695898,23.872702 0 1 1 186.04243,165.38898 A 24.695898,23.872702 0 1 1 235.43423,165.38898 z"
       sodipodi:ry="23.872702"
       sodipodi:rx="24.695898"
       sodipodi:cy="165.38898"
       sodipodi:cx="210.73833"
       id="path2398"
       style="fill:#ffff00;fill-opacity:1;fill-rule:evenodd;stroke:none;stroke-linecap:round;stroke-opacity:1"
       sodipodi:type="arc" />
    <path
       transform="matrix(0.9992817,-3.7896157e-2,3.7896157e-2,0.9992817,132.59903,91.152063)"
       d="M 235.43423,165.38898 A 24.695898,23.872702 0 1 1 186.04243,165.38898 A 24.695898,23.872702 0 1 1 235.43423,165.38898 z"
       sodipodi:ry="23.872702"
       sodipodi:rx="24.695898"
       sodipodi:cy="165.38898"
       sodipodi:cx="210.73833"
       id="path2400"
       style="fill:#ffff00;fill-opacity:1;fill-rule:evenodd;stroke:none;stroke-linecap:round;stroke-opacity:1"
       sodipodi:type="arc" />
  </g>
</svg>
