<?xml version="1.0" encoding="UTF-8" standalone="no"?>
<!-- Created with Inkscape (http://www.inkscape.org/) -->

<svg
   xmlns:dc="http://purl.org/dc/elements/1.1/"
   xmlns:cc="http://creativecommons.org/ns#"
   xmlns:rdf="http://www.w3.org/1999/02/22-rdf-syntax-ns#"
   xmlns:svg="http://www.w3.org/2000/svg"
   xmlns="http://www.w3.org/2000/svg"
   xmlns:xlink="http://www.w3.org/1999/xlink"
   xmlns:sodipodi="http://sodipodi.sourceforge.net/DTD/sodipodi-0.dtd"
   xmlns:inkscape="http://www.inkscape.org/namespaces/inkscape"
   width="500"
   height="1000"
   id="svg2"
   sodipodi:version="0.32"
   inkscape:version="0.48.1 "
   version="1.0"
   sodipodi:docname="Party_per_fess_or_and_gules.svg"
   inkscape:output_extension="org.inkscape.output.svg.inkscape">
  <title
     id="title3078">Per fess or and gules</title>
  <defs
     id="defs4">
    <inkscape:perspective
       sodipodi:type="inkscape:persp3d"
       inkscape:vp_x="0 : 500.62354 : 1"
       inkscape:vp_y="0 : 1000 : 0"
       inkscape:vp_z="950.80396 : 500.62354 : 1"
       inkscape:persp3d-origin="475.40198 : 333.74902 : 1"
       id="perspective51" />
    <linearGradient
       id="linearGradient2893">
      <stop
         offset="0"
         style="stop-color:#ffffff;stop-opacity:0.3137255"
         id="stop2895" />
      <stop
         offset="0"
         style="stop-color:#ffffdd;stop-opacity:0.85714287;"
         id="stop2897" />
      <stop
         offset="1"
         style="stop-color:#f6ff6b;stop-opacity:1"
         id="stop2901" />
      <stop
         offset="1"
         style="stop-color:#ffff00;stop-opacity:1"
         id="stop2899" />
    </linearGradient>
    <radialGradient
       inkscape:collect="always"
       xlink:href="#linearGradient2893"
       id="radialGradient3886"
       gradientUnits="userSpaceOnUse"
       gradientTransform="matrix(1,0,0,0.98305077,0,11.938231)"
       cx="794.46838"
       cy="704.35229"
       fx="794.46838"
       fy="704.35229"
       r="162.19252" />
  </defs>
  <sodipodi:namedview
     id="base"
     pagecolor="#ffffff"
     bordercolor="#666666"
     borderopacity="1.0"
     inkscape:pageopacity="0.0"
     inkscape:pageshadow="2"
     inkscape:zoom="0.39268516"
     inkscape:cx="353.78155"
     inkscape:cy="452.91814"
     inkscape:document-units="px"
     inkscape:current-layer="outline"
     showgrid="false"
     inkscape:window-width="1366"
     inkscape:window-height="706"
     inkscape:window-x="-8"
     inkscape:window-y="-8"
     inkscape:window-maximized="1" />
  <metadata
     id="metadata7">
    <rdf:RDF>
      <cc:Work
         rdf:about="">
        <dc:format>image/svg+xml</dc:format>
        <dc:type
           rdf:resource="http://purl.org/dc/dcmitype/StillImage" />
        <dc:title>Per fess or and gules</dc:title>
        <dc:date>2011-03-27</dc:date>
        <dc:creator>
          <cc:Agent>
            <dc:title>Owen Blacker</dc:title>
          </cc:Agent>
        </dc:creator>
        <cc:license
           rdf:resource="http://web.resource.org/cc/PublicDomain" />
        <dc:language>en-GB</dc:language>
        <dc:subject>
          <rdf:Bag>
            <rdf:li>Per fess or and gules</rdf:li>
          </rdf:Bag>
        </dc:subject>
        <dc:rights>
          <cc:Agent>
            <dc:title />
          </cc:Agent>
        </dc:rights>
        <dc:publisher>
          <cc:Agent>
            <dc:title />
          </cc:Agent>
        </dc:publisher>
        <dc:identifier />
        <dc:source />
        <dc:relation />
        <dc:coverage />
        <dc:description />
        <dc:contributor>
          <cc:Agent>
            <dc:title>Owen Blacker</dc:title>
          </cc:Agent>
        </dc:contributor>
      </cc:Work>
      <cc:License
         rdf:about="http://web.resource.org/cc/PublicDomain">
        <cc:permits
           rdf:resource="http://web.resource.org/cc/Reproduction" />
        <cc:permits
           rdf:resource="http://web.resource.org/cc/Distribution" />
        <cc:permits
           rdf:resource="http://web.resource.org/cc/DerivativeWorks" />
      </cc:License>
    </rdf:RDF>
  </metadata>
  <g
     inkscape:label="Field"
     inkscape:groupmode="layer"
     id="field"
     transform="matrix(5.1073859,0,0,5.1073859,-9.7996864,-11.34888)" />
  <g
     inkscape:label="Charges"
     inkscape:groupmode="layer"
     id="charges"
     transform="matrix(5.1073859,0,0,5.1073859,-9.7996864,-11.34888)" />
  <g
     inkscape:label="Outline"
     inkscape:groupmode="layer"
     id="outline"
     transform="matrix(5.1073859,0,0,5.1073859,-9.7996864,-11.34888)">
    <rect
       style="fill:#ffcc00;fill-opacity:1;fill-rule:evenodd;stroke:none;stroke-width:3.50000000000000000;stroke-linecap:round;stroke-miterlimit:4;stroke-opacity:1;stroke-dasharray:none;stroke-dashoffset:0"
       id="rect3890"
       width="323.41431"
       height="1097.5714"
       x="-50.931389"
       y="-44.093445"
       transform="matrix(0.19579488,0,0,0.19579488,1.9187284,2.2220526)" />
    <rect
       style="fill:#ff0000;fill-opacity:1;fill-rule:evenodd;stroke:none;stroke-width:3.50000000000000000;stroke-linecap:round;stroke-miterlimit:4;stroke-opacity:1;stroke-dasharray:none;stroke-dashoffset:0"
       id="rect3888"
       width="394.71826"
       height="1087.3851"
       x="178.25986"
       y="-36.453735"
       transform="matrix(0.19579488,0,0,0.19579488,1.9187284,2.2220526)" />
    <g
       id="g3875"
       transform="matrix(0.23545194,0,0,0.25199295,17.150072,19.939684)">
      <path
         inkscape:connector-curvature="0"
         inkscape:label="Outline"
         sodipodi:nodetypes="ccszsc"
         id="path2384"
         d="m 3.9187284,3.9778826 182.1625416,0 0.35641,92.7325464 C 186.73326,173.61625 134.69793,196.01693 95,196.01693 c -39.697059,0 -90.4129282,-26.80808 -90.7077701,-99.700269 z"
         style="fill:#006cbc;fill-opacity:1;stroke:#006cbc;stroke-width:4;stroke-opacity:1" />
      <g
         transform="translate(130.25532,-44.136102)"
         id="g3057">
        <path
           sodipodi:type="arc"
           style="fill:#ffff00;fill-opacity:1;fill-rule:evenodd;stroke:none"
           id="path2996"
           sodipodi:cx="-534.44446"
           sodipodi:cy="356.80261"
           sodipodi:rx="96.666664"
           sodipodi:ry="93.333336"
           d="m -437.77779,356.80261 c 0,51.54658 -43.27914,93.33334 -96.66667,93.33334 -53.38752,0 -96.66666,-41.78676 -96.66666,-93.33334 0,-51.54658 43.27914,-93.33333 96.66666,-93.33333 53.27914,0 96.51325,41.62357 96.66627,93.06529"
           transform="matrix(0.18004127,0,0,0.17947864,-7.6429541,7.7990977)"
           sodipodi:start="0"
           sodipodi:end="6.2803134"
           sodipodi:open="true" />
        <path
           sodipodi:type="arc"
           style="fill:#ffff00;fill-opacity:1;fill-rule:evenodd;stroke:none"
           id="path2996-1"
           sodipodi:cx="-534.44446"
           sodipodi:cy="356.80261"
           sodipodi:rx="96.666664"
           sodipodi:ry="93.333336"
           d="m -437.77779,356.80261 c 0,51.54658 -43.27914,93.33334 -96.66667,93.33334 -53.38752,0 -96.66666,-41.78676 -96.66666,-93.33334 0,-51.54658 43.27914,-93.33333 96.66666,-93.33333 53.27914,0 96.51325,41.62357 96.66627,93.06529"
           transform="matrix(0.18004127,0,0,0.17947864,29.12344,8.3159543)"
           sodipodi:start="0"
           sodipodi:end="6.2803134"
           sodipodi:open="true" />
        <path
           sodipodi:type="arc"
           style="fill:#ffff00;fill-opacity:1;fill-rule:evenodd;stroke:none"
           id="path2996-4"
           sodipodi:cx="-534.44446"
           sodipodi:cy="356.80261"
           sodipodi:rx="96.666664"
           sodipodi:ry="93.333336"
           d="m -437.77779,356.80261 c 0,51.54658 -43.27914,93.33334 -96.66667,93.33334 -53.38752,0 -96.66666,-41.78676 -96.66666,-93.33334 0,-51.54658 43.27914,-93.33333 96.66666,-93.33333 53.27914,0 96.51325,41.62357 96.66627,93.06529"
           transform="matrix(0.18004127,0,0,0.17947864,66.40622,9.104861)"
           sodipodi:start="0"
           sodipodi:end="6.2803134"
           sodipodi:open="true" />
        <path
           sodipodi:type="arc"
           style="fill:#ffff00;fill-opacity:1;fill-rule:evenodd;stroke:none"
           id="path2996-11"
           sodipodi:cx="-534.44446"
           sodipodi:cy="356.80261"
           sodipodi:rx="96.666664"
           sodipodi:ry="93.333336"
           d="m -437.77779,356.80261 c 0,51.54658 -43.27914,93.33334 -96.66667,93.33334 -53.38752,0 -96.66666,-41.78676 -96.66666,-93.33334 0,-51.54658 43.27914,-93.33333 96.66666,-93.33333 53.27914,0 96.51325,41.62357 96.66627,93.06529"
           transform="matrix(0.18004127,0,0,0.17947864,10.984122,38.638987)"
           sodipodi:start="0"
           sodipodi:end="6.2803134"
           sodipodi:open="true" />
        <path
           sodipodi:type="arc"
           style="fill:#ffff00;fill-opacity:1;fill-rule:evenodd;stroke:none"
           id="path2996-0"
           sodipodi:cx="-534.44446"
           sodipodi:cy="356.80261"
           sodipodi:rx="96.666664"
           sodipodi:ry="93.333336"
           d="m -437.77779,356.80261 c 0,51.54658 -43.27914,93.33334 -96.66667,93.33334 -53.38752,0 -96.66666,-41.78676 -96.66666,-93.33334 0,-51.54658 43.27914,-93.33333 96.66666,-93.33333 53.27914,0 96.51325,41.62357 96.66627,93.06529"
           transform="matrix(0.18004127,0,0,0.17947864,48.282608,39.780778)"
           sodipodi:start="0"
           sodipodi:end="6.2803134"
           sodipodi:open="true" />
        <path
           sodipodi:type="arc"
           style="fill:#ffff00;fill-opacity:1;fill-rule:evenodd;stroke:none"
           id="path2996-7"
           sodipodi:cx="-534.44446"
           sodipodi:cy="356.80261"
           sodipodi:rx="96.666664"
           sodipodi:ry="93.333336"
           d="m -437.77779,356.80261 c 0,51.54658 -43.27914,93.33334 -96.66667,93.33334 -53.38752,0 -96.66666,-41.78676 -96.66666,-93.33334 0,-51.54658 43.27914,-93.33333 96.66666,-93.33333 53.27914,0 96.51325,41.62357 96.66627,93.06529"
           transform="matrix(0.18004127,0,0,0.17947864,28.961779,69.652675)"
           sodipodi:start="0"
           sodipodi:end="6.2803134"
           sodipodi:open="true" />
      </g>
      <path
         sodipodi:open="true"
         sodipodi:end="6.2803134"
         sodipodi:start="0"
         transform="matrix(0.18583921,0,0,0.18566756,-9.5486303,-8.6510052)"
         d="m 956.6609,704.35229 c 0,88.05821 -72.61606,159.44349 -162.19252,159.44349 -89.57645,0 -162.19252,-71.38528 -162.19252,-159.44349 0,-88.0582 72.61607,-159.44348 162.19252,-159.44348 89.39461,0 161.93512,71.10651 162.19186,158.98558"
         sodipodi:ry="159.44348"
         sodipodi:rx="162.19252"
         sodipodi:cy="704.35229"
         sodipodi:cx="794.46838"
         id="path3065"
         style="fill:url(#radialGradient3886);fill-opacity:1;fill-rule:evenodd;stroke:none"
         sodipodi:type="arc" />
    </g>
  </g>
</svg>
