<?xml version="1.0" encoding="utf-8"?>
<svg version="1.1" id="svg1" width="324" height="216" viewBox="0 0 324 216" xmlns="http://www.w3.org/2000/svg">
  <defs id="defs1">
    <clipPath id="g">
      <path d="M -74.19,-66.626 H 197.94 V 21.432 H -74.19 Z" id="path183"/>
    </clipPath>
    <clipPath id="n">
      <path d="M -92.34,-74.53 H 179.79 V 13.528 H -92.34 Z" id="path162"/>
    </clipPath>
    <clipPath id="q">
      <path d="M -104.17,-74.681 H 167.96 V 13.377 H -104.17 Z" id="path153"/>
    </clipPath>
    <clipPath id="p">
      <path d="M -118.28,-71.25 H 153.85 V 16.808 H -118.28 Z" id="path156"/>
    </clipPath>
    <clipPath id="h">
      <path d="M -137.65,-71.162 H 134.48 V 16.896 H -137.65 Z" id="path180"/>
    </clipPath>
    <clipPath id="u">
      <path d="M -148.44,-61.759 H 123.69 V 26.299 H -148.44 Z" id="path141"/>
    </clipPath>
    <clipPath id="m">
      <path d="m -49.388,-12.279 h 272.13 v 88.058 h -272.13 z" id="path165"/>
    </clipPath>
  </defs>
  <path d="M 1e-6,216 H 324 V 0 H 1e-6 Z" fill="#2b347f" id="path239" style="stroke-width:1.33327"/>
  <g id="g2" transform="matrix(0.38523878,0,0,0.39102784,107.26306,168.15936)" style="stroke-width:2.57651">
    <g id="g616" transform="translate(-232.92683,-275.17073)" style="stroke-width:2.57651">
      <path d="M 148.89466,30.573337 H 156.518 V 65.76267 l 22.812,0.0027 v 6.702799 h -30.436 z" id="path241" style="fill:#ffffff;stroke-width:3.43526"/>
      <path transform="matrix(2.7561333,0,0,-2.7561333,204.46799,59.06667)" d="m 0,0 c -0.697,0.261 -1.664,0.456 -2.722,0.456 -1.709,0 -2.721,-0.673 -2.721,-1.845 v -0.044 c 0,-1.085 1.012,-1.693 2.294,-1.693 1.8,0 3.149,0.977 3.149,2.41 z m -0.067,-4.864 v 1.411 c -0.81,-0.933 -2.047,-1.65 -3.846,-1.65 -2.249,0 -4.228,1.238 -4.228,3.54 v 0.043 c 0,2.476 2.046,3.692 4.813,3.692 1.439,0 2.361,-0.196 3.283,-0.478 v 0.282 c 0,1.586 -1.034,2.454 -2.924,2.454 -1.327,0 -2.316,-0.282 -3.396,-0.716 L -7.107,5.82 c 1.305,0.565 2.587,0.956 4.521,0.956 3.508,0 5.218,-1.781 5.218,-4.843 v -6.797 z" clip-path="url(#g)" id="path243" style="fill:#ffffff;stroke-width:2.57644"/>
      <path transform="matrix(2.7561333,0,0,-2.7561333,254.49466,37.280004)" d="m 0,0 h -4.026 v -5.103 h 4.049 c 1.979,0 3.238,0.999 3.238,2.562 C 3.261,-0.869 2.047,0 0,0 m 3.306,-12.769 -3.868,5.299 h -3.464 v -5.298 h -2.767 l 0.001,15.2 h 7.017 c 3.621,0 5.848,-1.846 5.848,-4.821 0,-2.519 -1.553,-4.039 -3.757,-4.625 l 4.251,-5.755 z" clip-path="url(#n)" id="path245" style="fill:#ffffff;stroke-width:2.57644"/>
      <path transform="matrix(2.7561333,0,0,-2.7561333,287.10799,36.866671)" d="M 0,0 2.384,3.561 4.858,2.497 2.114,0 Z m 4.251,-6.384 c -0.18,1.693 -1.215,3.018 -3.014,3.018 -1.664,0 -2.834,-1.238 -3.081,-3.018 z m -2.654,-4.647 c 1.327,0 2.271,0.477 3.216,1.367 l 1.597,-1.368 c -1.125,-1.302 -2.677,-2.15 -4.858,-2.149 -3.442,0 -6.095,2.41 -6.095,5.972 0,3.3 2.406,5.993 5.802,5.993 3.779,0 5.691,-2.867 5.69,-6.189 0,-0.239 -0.022,-0.456 -0.044,-0.716 h -8.727 c 0.315,-1.868 1.664,-2.91 3.419,-2.91" clip-path="url(#q)" id="path247" style="fill:#ffffff;stroke-width:2.57644"/>
      <path transform="matrix(2.7561333,0,0,-2.7561333,325.98799,46.320004)" d="m 0,0 c -1.89,0 -3.374,-1.259 -3.374,-3.17 0,-1.911 1.507,-3.192 3.374,-3.192 1.889,0 3.486,1.281 3.486,3.17 C 3.486,-1.259 1.889,0 0,0 m -0.225,-13.007 c -1.957,0 -3.779,0.478 -5.308,1.368 l 1.012,1.976 c 1.26,-0.76 2.609,-1.216 4.228,-1.216 2.429,0 3.756,1.216 3.756,3.517 v 0.891 C 2.474,-7.708 1.237,-8.577 -0.72,-8.577 c -2.789,0 -5.398,1.976 -5.398,5.385 0,3.41 2.632,5.408 5.398,5.408 C 1.282,2.215 2.519,1.325 3.441,0.261 v 1.715 h 2.721 v -9.12 c 0,-4.061 -2.294,-5.863 -6.387,-5.863" clip-path="url(#p)" id="path249" style="fill:#ffffff;stroke-width:2.57644"/>
      <path d="m 349.74799,40.880004 h 7.502 V 72.47867 h -7.502 z m -0.30868,-4.848 v -6.881867 h 8.0588 v 6.884667 z" id="path251" style="fill:#ffffff;stroke-width:3.43526"/>
      <path transform="matrix(2.7561333,0,0,-2.7561333,379.38799,46.573337)" d="m 0,0 c -2.181,0 -3.576,-1.65 -3.576,-3.67 0,-2.041 1.507,-3.713 3.621,-3.713 2.204,0 3.598,1.65 3.598,3.669 C 3.644,-1.672 2.137,0 0,0 m 0,-9.664 c -3.621,10e-4 -6.297,2.672 -6.297,5.951 0,3.301 2.699,6.015 6.342,6.015 3.643,0 6.32,-2.672 6.32,-5.972 0,-3.279 -2.699,-5.994 -6.365,-5.994" clip-path="url(#h)" id="path253" style="fill:#ffffff;stroke-width:2.57644"/>
      <path transform="matrix(2.7561333,0,0,-2.7561333,409.12132,72.480003)" d="M 0,0 H -2.722 V 11.466 L 0,11.465 v -1.78 c 0.765,1.086 1.867,2.019 3.711,2.019 2.676,0 4.228,-1.737 4.228,-4.408 V 0 H 5.218 V 6.514 C 5.218,8.295 4.296,9.316 2.676,9.316 1.102,9.316 0,8.252 0,6.471 Z" clip-path="url(#u)" id="path255" style="fill:#ffffff;stroke-width:2.57644"/>
    </g>
    <path transform="matrix(2.7561333,0,0,-2.7561333,-96.805499,-66.317402)" d="M 0,0 C 0,0 191.964,3.638 191.725,-0.455 191.448,-5.183 0,0 0,0" clip-path="url(#m)" fill="#f3b729" id="path259" style="stroke-width:2.57638"/>
    <g id="g571" transform="translate(-232.92683,-275.17073)" style="stroke-width:2.57651"/>
  </g>
</svg>