<?xml version="1.0" encoding="UTF-8" standalone="no"?>
<!-- Created with Inkscape (http://www.inkscape.org/) -->

<svg
   version="1.1"
   id="svg1"
   width="324"
   height="216"
   viewBox="0 0 324 216"
   sodipodi:docname="Flag of Grand Est.svg"
   inkscape:version="1.4.2 (f4327f4, 2025-05-13)"
   xmlns:inkscape="http://www.inkscape.org/namespaces/inkscape"
   xmlns:sodipodi="http://sodipodi.sourceforge.net/DTD/sodipodi-0.dtd"
   xmlns="http://www.w3.org/2000/svg"
   xmlns:svg="http://www.w3.org/2000/svg">
  <defs
     id="defs1">
    <clipPath
       id="g">
      <path
         d="M -74.19,-66.626 H 197.94 V 21.432 H -74.19 Z"
         id="path183" />
    </clipPath>
    <clipPath
       id="n">
      <path
         d="M -92.34,-74.53 H 179.79 V 13.528 H -92.34 Z"
         id="path162" />
    </clipPath>
    <clipPath
       id="q">
      <path
         d="M -104.17,-74.681 H 167.96 V 13.377 H -104.17 Z"
         id="path153" />
    </clipPath>
    <clipPath
       id="p">
      <path
         d="M -118.28,-71.25 H 153.85 V 16.808 H -118.28 Z"
         id="path156" />
    </clipPath>
    <clipPath
       id="h">
      <path
         d="M -137.65,-71.162 H 134.48 V 16.896 H -137.65 Z"
         id="path180" />
    </clipPath>
    <clipPath
       id="u">
      <path
         d="M -148.44,-61.759 H 123.69 V 26.299 H -148.44 Z"
         id="path141" />
    </clipPath>
    <clipPath
       id="m">
      <path
         d="m -49.388,-12.279 h 272.13 v 88.058 h -272.13 z"
         id="path165" />
    </clipPath>
    <clipPath
       id="t">
      <path
         d="m -31.652,-19.054 h 272.13 v 88.058 h -272.13 z"
         id="path144" />
    </clipPath>
    <clipPath
       id="s">
      <path
         d="m -72.711,-42.722 h 272.13 v 88.058 h -272.13 z"
         id="path147" />
    </clipPath>
    <clipPath
       id="r">
      <path
         d="m -93.092,-32.578 h 272.13 V 55.48 h -272.13 z"
         id="path150" />
    </clipPath>
    <clipPath
       id="i">
      <path
         d="M -126.54,-19.766 H 145.59 V 68.292 H -126.54 Z"
         id="path177" />
    </clipPath>
    <clipPath
       id="f">
      <path
         d="M -163.31,-35.722 H 108.82 V 52.336 H -163.31 Z"
         id="path186" />
    </clipPath>
    <clipPath
       id="w">
      <path
         d="M -13.644,40.515 H 33.359 V 0 h -47.003 z"
         id="path189" />
    </clipPath>
    <clipPath
       id="v">
      <path
         d="M -39.766,40.456 H 7.237 V -0.059 h -47.003 z"
         id="path213" />
    </clipPath>
    <clipPath
       id="l">
      <path
         d="M -195.62,-62.964 H 76.51 v 88.058 h -272.13 z"
         id="path168" />
    </clipPath>
  </defs>
  <sodipodi:namedview
     id="namedview1"
     pagecolor="#505050"
     bordercolor="#eeeeee"
     borderopacity="1"
     inkscape:showpageshadow="0"
     inkscape:pageopacity="0"
     inkscape:pagecheckerboard="0"
     inkscape:deskcolor="#505050"
     inkscape:zoom="2.16"
     inkscape:cx="161.80556"
     inkscape:cy="107.87037"
     inkscape:window-width="1278"
     inkscape:window-height="1008"
     inkscape:window-x="630"
     inkscape:window-y="0"
     inkscape:window-maximized="0"
     inkscape:current-layer="svg1" />
  <path
     d="M 1e-6,216 H 324 V 0 H 1e-6 Z"
     fill="#2b347f"
     id="path239"
     style="stroke-width:1.33327" />
  <g
     id="g2"
     transform="matrix(0.38523878,0,0,0.39102784,107.26306,168.15936)"
     style="stroke-width:2.57651">
    <g
       id="g616"
       transform="translate(-232.92683,-275.17073)"
       style="stroke-width:2.57651">
      <path
         d="M 148.89466,30.573337 H 156.518 V 65.76267 l 22.812,0.0027 v 6.702799 h -30.436 z"
         id="path241"
         style="fill:#ffffff;stroke-width:3.43526" />
      <path
         transform="matrix(2.7561333,0,0,-2.7561333,204.46799,59.06667)"
         d="m 0,0 c -0.697,0.261 -1.664,0.456 -2.722,0.456 -1.709,0 -2.721,-0.673 -2.721,-1.845 v -0.044 c 0,-1.085 1.012,-1.693 2.294,-1.693 1.8,0 3.149,0.977 3.149,2.41 z m -0.067,-4.864 v 1.411 c -0.81,-0.933 -2.047,-1.65 -3.846,-1.65 -2.249,0 -4.228,1.238 -4.228,3.54 v 0.043 c 0,2.476 2.046,3.692 4.813,3.692 1.439,0 2.361,-0.196 3.283,-0.478 v 0.282 c 0,1.586 -1.034,2.454 -2.924,2.454 -1.327,0 -2.316,-0.282 -3.396,-0.716 L -7.107,5.82 c 1.305,0.565 2.587,0.956 4.521,0.956 3.508,0 5.218,-1.781 5.218,-4.843 v -6.797 z"
         clip-path="url(#g)"
         id="path243"
         style="fill:#ffffff;stroke-width:2.57644" />
      <path
         transform="matrix(2.7561333,0,0,-2.7561333,254.49466,37.280004)"
         d="m 0,0 h -4.026 v -5.103 h 4.049 c 1.979,0 3.238,0.999 3.238,2.562 C 3.261,-0.869 2.047,0 0,0 m 3.306,-12.769 -3.868,5.299 h -3.464 v -5.298 h -2.767 l 0.001,15.2 h 7.017 c 3.621,0 5.848,-1.846 5.848,-4.821 0,-2.519 -1.553,-4.039 -3.757,-4.625 l 4.251,-5.755 z"
         clip-path="url(#n)"
         id="path245"
         style="fill:#ffffff;stroke-width:2.57644" />
      <path
         transform="matrix(2.7561333,0,0,-2.7561333,287.10799,36.866671)"
         d="M 0,0 2.384,3.561 4.858,2.497 2.114,0 Z m 4.251,-6.384 c -0.18,1.693 -1.215,3.018 -3.014,3.018 -1.664,0 -2.834,-1.238 -3.081,-3.018 z m -2.654,-4.647 c 1.327,0 2.271,0.477 3.216,1.367 l 1.597,-1.368 c -1.125,-1.302 -2.677,-2.15 -4.858,-2.149 -3.442,0 -6.095,2.41 -6.095,5.972 0,3.3 2.406,5.993 5.802,5.993 3.779,0 5.691,-2.867 5.69,-6.189 0,-0.239 -0.022,-0.456 -0.044,-0.716 h -8.727 c 0.315,-1.868 1.664,-2.91 3.419,-2.91"
         clip-path="url(#q)"
         id="path247"
         style="fill:#ffffff;stroke-width:2.57644" />
      <path
         transform="matrix(2.7561333,0,0,-2.7561333,325.98799,46.320004)"
         d="m 0,0 c -1.89,0 -3.374,-1.259 -3.374,-3.17 0,-1.911 1.507,-3.192 3.374,-3.192 1.889,0 3.486,1.281 3.486,3.17 C 3.486,-1.259 1.889,0 0,0 m -0.225,-13.007 c -1.957,0 -3.779,0.478 -5.308,1.368 l 1.012,1.976 c 1.26,-0.76 2.609,-1.216 4.228,-1.216 2.429,0 3.756,1.216 3.756,3.517 v 0.891 C 2.474,-7.708 1.237,-8.577 -0.72,-8.577 c -2.789,0 -5.398,1.976 -5.398,5.385 0,3.41 2.632,5.408 5.398,5.408 C 1.282,2.215 2.519,1.325 3.441,0.261 v 1.715 h 2.721 v -9.12 c 0,-4.061 -2.294,-5.863 -6.387,-5.863"
         clip-path="url(#p)"
         id="path249"
         style="fill:#ffffff;stroke-width:2.57644" />
      <path
         d="m 349.74799,40.880004 h 7.502 V 72.47867 h -7.502 z m -0.30868,-4.848 v -6.881867 h 8.0588 v 6.884667 z"
         id="path251"
         style="fill:#ffffff;stroke-width:3.43526" />
      <path
         transform="matrix(2.7561333,0,0,-2.7561333,379.38799,46.573337)"
         d="m 0,0 c -2.181,0 -3.576,-1.65 -3.576,-3.67 0,-2.041 1.507,-3.713 3.621,-3.713 2.204,0 3.598,1.65 3.598,3.669 C 3.644,-1.672 2.137,0 0,0 m 0,-9.664 c -3.621,10e-4 -6.297,2.672 -6.297,5.951 0,3.301 2.699,6.015 6.342,6.015 3.643,0 6.32,-2.672 6.32,-5.972 0,-3.279 -2.699,-5.994 -6.365,-5.994"
         clip-path="url(#h)"
         id="path253"
         style="fill:#ffffff;stroke-width:2.57644" />
      <path
         transform="matrix(2.7561333,0,0,-2.7561333,409.12132,72.480003)"
         d="M 0,0 H -2.722 V 11.466 L 0,11.465 v -1.78 c 0.765,1.086 1.867,2.019 3.711,2.019 2.676,0 4.228,-1.737 4.228,-4.408 V 0 H 5.218 V 6.514 C 5.218,8.295 4.296,9.316 2.676,9.316 1.102,9.316 0,8.252 0,6.471 Z"
         clip-path="url(#u)"
         id="path255"
         style="fill:#ffffff;stroke-width:2.57644" />
    </g>
    <path
       transform="matrix(2.7561333,0,0,-2.7561333,-96.805499,-66.317402)"
       d="M 0,0 C 0,0 191.964,3.638 191.725,-0.455 191.448,-5.183 0,0 0,0"
       clip-path="url(#m)"
       fill="#f3b729"
       id="path259"
       style="stroke-width:2.57638" />
    <g
       id="g571"
       transform="translate(-232.92683,-275.17073)"
       style="stroke-width:2.57651">
      <path
         transform="matrix(2.7561333,0,0,-2.7561333,87.241331,190.18667)"
         d="m 0,0 c -12.931,0 -21.829,9.076 -21.829,21.355 v 0.118 c 0,11.805 9.194,21.474 21.77,21.474 7.474,0 11.982,-2.017 16.312,-5.695 L 10.5,30.312 c -3.204,2.669 -6.051,4.212 -10.856,4.212 -6.644,0 -11.923,-5.873 -11.923,-12.932 v -0.119 c 0,-7.593 5.22,-13.168 12.576,-13.168 3.321,0 6.288,0.83 8.601,2.491 v 5.932 h -9.195 v 7.889 H 17.736 V 6.584 C 13.465,2.966 7.593,0 0,0"
         clip-path="url(#t)"
         id="path261"
         style="fill:#ffffff;stroke-width:2.57644" />
      <path
         transform="matrix(2.7561333,0,0,-2.7561333,200.40133,124.94667)"
         d="m 0,0 c -5.991,0 -9.669,-3.618 -9.669,-11.211 v -11.745 h -9.016 V 8.838 h 9.016 V 2.432 c 1.839,4.39 4.805,7.237 10.144,7 V 0 Z"
         clip-path="url(#s)"
         id="path263"
         style="fill:#ffffff;stroke-width:2.57644" />
      <path
         transform="matrix(2.7561333,0,0,-2.7561333,256.57466,152.90667)"
         d="m 0,0 c -1.542,0.712 -3.559,1.186 -5.754,1.186 -3.856,0 -6.228,-1.542 -6.228,-4.389 v -0.119 c 0,-2.432 2.017,-3.856 4.923,-3.856 4.212,0 7.059,2.314 7.059,5.576 z m -0.178,-12.813 v 3.441 c -2.195,-2.432 -5.22,-4.034 -9.609,-4.034 -5.992,0 -10.915,3.441 -10.915,9.729 v 0.118 c 0,6.94 5.279,10.143 12.813,10.143 3.203,0 5.516,-0.534 7.77,-1.304 v 0.533 c 0,3.737 -2.313,5.814 -6.821,5.814 -3.441,0 -5.873,-0.653 -8.78,-1.721 l -2.254,6.881 c 3.5,1.543 6.941,2.551 12.339,2.551 9.847,0 14.177,-5.101 14.177,-13.703 v -18.448 z"
         clip-path="url(#r)"
         id="path265"
         style="fill:#ffffff;stroke-width:2.57644" />
      <path
         transform="matrix(2.7561333,0,0,-2.7561333,348.74799,188.22667)"
         d="m 0,0 v 17.736 c 0,4.271 -2.017,6.466 -5.457,6.466 -3.441,0 -5.636,-2.195 -5.636,-6.466 V 0 h -9.016 v 31.795 h 9.016 v -4.508 c 2.076,2.669 4.746,5.101 9.313,5.101 6.822,0 10.797,-4.509 10.797,-11.804 V 0 Z"
         clip-path="url(#i)"
         id="path267"
         style="fill:#ffffff;stroke-width:2.57644" />
      <path
         transform="matrix(2.7561333,0,0,-2.7561333,450.10799,144.24)"
         d="m 0,0 c 0,5.279 -3.5,8.779 -7.712,8.779 -4.211,0 -7.77,-3.44 -7.77,-8.779 v -0.119 c 0,-5.279 3.559,-8.779 7.77,-8.779 4.212,0 7.712,3.5 7.712,8.779 z m -0.119,-15.957 v 4.568 c -2.194,-2.966 -5.22,-5.161 -9.906,-5.161 -7.415,0 -14.474,5.813 -14.474,16.431 V 0 c 0,10.618 6.941,16.431 14.474,16.431 4.805,0 7.771,-2.194 9.906,-4.745 v 15.66 h 9.017 v -43.303 z"
         clip-path="url(#f)"
         id="path269"
         style="fill:#ffffff;stroke-width:2.57644" />
      <path
         transform="matrix(2.7561333,0,0,-2.7561333,631.01465,189.85333)"
         d="m 0,0 c -4.449,0 -9.432,1.483 -13.644,4.805 l 3.856,5.932 C -6.347,8.246 -2.729,6.94 0.237,6.94 c 2.611,0 3.797,0.949 3.797,2.373 v 0.119 c 0,1.957 -3.085,2.61 -6.585,3.678 -4.449,1.304 -9.491,3.38 -9.491,9.55 v 0.119 c 0,6.465 5.22,10.084 11.626,10.084 4.034,0 8.425,-1.365 11.865,-3.678 l -3.44,-6.229 c -3.145,1.839 -6.289,2.966 -8.602,2.966 -2.195,0 -3.322,-0.949 -3.322,-2.194 v -0.119 c 0,-1.779 3.025,-2.61 6.466,-3.796 4.449,-1.483 9.61,-3.619 9.61,-9.432 V 10.262 C 12.161,3.203 6.881,0 0,0"
         clip-path="url(#w)"
         mask="none"
         id="path271"
         style="fill:#ffffff;stroke-width:2.57644" />
      <path
         transform="matrix(2.7561333,0,0,-2.7561333,703.00132,189.69333)"
         d="m 0,0 c -5.517,0 -9.254,2.195 -9.254,9.55 v 15.068 h -3.796 v 7.712 h 3.796 v 8.126 h 9.017 V 32.33 H 7.237 V 24.618 H -0.237 V 11.034 c 0,-2.077 0.89,-3.085 2.907,-3.085 1.661,0 3.144,0.415 4.448,1.127 V 1.839 C 5.221,0.713 3.026,0 0,0"
         clip-path="url(#v)"
         mask="none"
         id="path273"
         style="fill:#ffffff;stroke-width:2.57644" />
      <path
         id="path275"
         clip-path="url(#l)"
         style="fill:#ffffff;stroke-width:2.57644"
         d="m -12.384269,0.02049515 -7.09e-4,-43.30469615 9.022491,-0.04039 V -0.01918907 Z M 4.195189e-5,-5.5603261e-5 -0.02405204,-9.0218378 16.223093,-9.0232551 16.247187,-5.5603261e-5 Z M -0.04814603,-16.719159 l -0.02409399,-9.021782 16.24714502,-0.0014 0.02339,9.0232 z m -0.0439361,-17.604204 -0.02409399,-9.021782 16.24714512,-0.0014 0.02409,9.023199 z"
         transform="matrix(2.7561333,0,0,-2.7561333,539.13465,69.160003)" />
    </g>
  </g>
</svg>
