<?xml version="1.0" encoding="UTF-8" standalone="no"?>
<!-- Generator: Adobe Illustrator 23.0.3, SVG Export Plug-In . SVG Version: 6.00 Build 0)  -->

<svg
   xmlns:dc="http://purl.org/dc/elements/1.1/"
   xmlns:cc="http://creativecommons.org/ns#"
   xmlns:rdf="http://www.w3.org/1999/02/22-rdf-syntax-ns#"
   xmlns:svg="http://www.w3.org/2000/svg"
   xmlns="http://www.w3.org/2000/svg"
   xmlns:sodipodi="http://sodipodi.sourceforge.net/DTD/sodipodi-0.dtd"
   xmlns:inkscape="http://www.inkscape.org/namespaces/inkscape"
   version="1.1"
   id="Layer_1"
   x="0px"
   y="0px"
   viewBox="0 0 513.1 343"
   style="enable-background:new 0 0 513.1 343;"
   xml:space="preserve"
   sodipodi:docname="Flag of the Île-de-France Region (symbol).svg"
   inkscape:version="0.92.3 (2405546, 2018-03-11)"><metadata
   id="metadata49"><rdf:RDF><cc:Work
       rdf:about=""><dc:format>image/svg+xml</dc:format><dc:type
         rdf:resource="http://purl.org/dc/dcmitype/StillImage" /></cc:Work></rdf:RDF></metadata><defs
   id="defs47" /><sodipodi:namedview
   pagecolor="#ffffff"
   bordercolor="#666666"
   borderopacity="1"
   objecttolerance="10"
   gridtolerance="10"
   guidetolerance="10"
   inkscape:pageopacity="0"
   inkscape:pageshadow="2"
   inkscape:window-width="1920"
   inkscape:window-height="1017"
   id="namedview45"
   showgrid="false"
   inkscape:zoom="1.2132607"
   inkscape:cx="280.9704"
   inkscape:cy="171.5"
   inkscape:window-x="-8"
   inkscape:window-y="-8"
   inkscape:window-maximized="1"
   inkscape:current-layer="g42" />
<style
   type="text/css"
   id="style2">
	.st0{fill:#E42313;}
	.st1{fill:#2A327B;}
	.st2{fill:#FFF;}
</style>
<g
   id="g42">
	<path
   class="st2"
   d="M 0,0 V 343 H 513.1 V 0 Z"
   id="path4"
   inkscape:connector-curvature="0"
   style="fill:#ffffff;fill-opacity:1" />
	
	
	
	
	
	
	
	
	
	
	
	
	
	
	
	
	
	<path
   class="st0"
   d="m 299.06846,124.69904 c -0.99393,0.24993 -1.98786,0.74981 -2.7333,0.99974 -0.24848,0 -0.24848,0 -0.24848,-0.24993 0.24848,-0.99975 -3.97571,2.99924 -3.97571,1.49962 0,-0.24994 0.24848,0 -0.24848,0 1.49089,0.24994 -9.19383,3.49912 -9.19383,3.24918 -0.49696,-0.99975 -0.49696,-2.49937 0.24848,-3.24918 0.74545,-2.24943 -1.73937,-5.24868 -0.74544,-4.24893 -0.49697,-0.49987 -0.74545,-1.24968 -0.24848,-1.99949 0,0 0.24848,-0.24994 0.24848,-0.24994 0.49696,0.24994 0,0 0.24848,-0.99975 0.24848,-0.24994 -0.49696,-1.24968 0.24848,-0.99975 1.24241,-1.99949 1.73937,-4.49886 0.99393,-6.74829 -1.73937,-4.24893 -0.99393,-33.991431 0,-32.741746 0.24848,-1.999496 -1.49089,-3.499117 -0.74545,-5.248676 0,-1.499621 -1.49089,-1.499621 -1.24241,-2.749306 -0.74544,-3.24918 -5.21811,-2.999243 -4.72115,-3.749054 -2.23633,0.499874 -10.9332,14.496342 -10.9332,14.746279 0.49697,-0.499874 -5.71508,8.997729 -5.71508,8.997729 -0.74544,0 -1.49089,0.999748 -1.73937,2.499369 0,0.249937 -3.47874,4.498869 -3.23026,3.749054 -1.24241,1.999495 -2.7333,3.999001 -3.72723,5.998491 0.74545,-0.49987 -1.49089,1.74956 -1.24241,1.74956 0.24849,0 -2.73329,6.7483 -2.73329,6.24842 0,-0.49987 -3.23027,3.24918 -3.72723,3.24918 -0.74545,3.24918 -12.42409,-4.7488 -12.67257,-8.24792 0,0 -0.24848,-3.24918 -1.73937,-3.74905 l -7.70294,-6.99824 c -4.72115,-6.248423 -8.44837,-6.248423 -15.40586,-12.246909 -0.74545,-1.749558 -1.73938,-3.499117 -2.7333,-5.248675 -2.7333,0.749811 -6.21205,4.748801 -5.4666,5.748549 -0.99393,0.499874 -1.24241,-0.999748 -1.73937,-1.499621 0,3.499117 0.49696,6.998233 1.24241,10.49735 -0.24849,1.249685 0.49696,7.997976 0.99392,6.99823 l 0.49697,0.499876 c 0,0 -0.74545,0.99976 0,1.74957 0.99392,1.99949 3.23026,3.24918 2.48481,5.99848 -0.99392,0.49988 0,3.99899 0,2.74931 -0.99392,5.49861 11.67865,15.74602 9.93927,23.24413 -0.74544,0.74981 2.48482,4.49887 1.73938,4.24893 -1.98786,1.49962 -4.22419,2.49937 -6.70901,2.74931 -0.74545,0.49987 -1.24241,0 -1.98786,0 -0.74544,0 -6.709,-2.49937 -8.19989,-1.49963 0,0 -4.72116,-0.99974 -4.96964,-0.74981 0.74545,-0.99974 -5.4666,1.24969 -4.47267,-0.74981 0.49696,-1.49962 -5.4666,1.74956 -3.97571,0.74981 0,0 -2.48481,1.49963 -2.48481,0.99975 0,-0.49987 -2.23634,0 -1.73938,0 -0.49696,0 -2.98178,-0.74981 -2.48481,-0.49987 -1.24241,-0.99975 -1.73938,0.24993 -3.23027,-0.49988 -0.74544,0.24994 -1.49089,0.49988 -2.23633,0.24994 h -3.72723 c 0,0 -3.23026,0.99975 -3.23026,0 0,0 -2.7333,1.9995 -3.47874,0.74981 0.24848,-0.99975 -3.23027,0.99975 -3.72723,0.99975 -0.49696,0 -2.23634,-0.74981 -1.98786,-0.24994 -0.24848,0 -2.48481,2.99924 -2.48481,2.99924 0,0 12.1756,8.99773 10.18775,7.49811 1.49089,0.99974 2.7333,1.99949 4.47267,2.99924 -0.49696,1.24968 4.47267,0 3.72723,2.99924 4.72115,-2.7493 14.16346,9.99748 17.6422,8.24792 0.49696,0 1.98785,2.24943 2.23634,1.99949 -0.74545,-0.74981 2.48481,0.99975 1.49089,0.99975 0.49696,0.49988 0.24848,0.24994 1.73937,1.9995 3.72722,0 5.4666,2.99924 6.70901,3.99899 4.22418,7.99798 -13.41802,15.99596 -14.66043,19.99495 0,0.24994 0,0.49988 -0.24848,0.24994 -0.24848,0 -2.48482,1.24968 -2.7333,2.49937 l -2.7333,3.24918 c -2.23633,-0.74981 -8.19989,8.74779 -10.68471,9.99748 l -5.71508,2.49936 c -0.49697,0.49988 -0.99393,0.99975 -1.24241,1.49963 -0.49696,0.74981 -0.99393,1.49962 -1.98785,1.99949 -1.4909,1.24969 -2.7333,2.49937 -3.97571,3.74906 l -0.99393,1.74955 1.49089,0.74981 c -0.49696,0.49988 -0.74544,0.99975 -0.99393,1.49963 -0.24848,0.49987 -0.74544,1.49962 0.49697,1.74955 0.99392,0.24994 1.73937,0.24994 1.98785,0.74981 0.24848,0.49988 4.72115,0.99975 5.21812,0.74982 l 2.48482,-1.24969 c 3.47874,-0.74981 6.95748,-0.74981 10.18775,0 3.72722,-0.74981 7.20597,-1.99949 10.68471,-3.24918 0.24848,0 6.70901,-2.24943 6.70901,-2.24943 1.73937,-0.74981 5.4666,-1.49962 6.70901,-2.74931 1.98785,-0.99974 4.47267,-1.24968 6.709,-0.99974 0.49697,0.24993 15.40587,-2.74931 15.90283,-4.74881 0.74545,0 1.24241,0.49988 1.49089,1.24969 0,2.7493 0,5.74855 -0.49696,8.49785 0,-0.74981 -1.98785,1.49963 -1.24241,2.49937 1.49089,0.49988 1.49089,0 2.23634,1.9995 -0.49697,-0.99975 0,4.49886 0,6.49836 0,0.99975 1.73937,4.49886 -0.99393,5.74855 0,0 -1.49089,3.24918 -1.73937,3.24918 0.24848,-1.49962 0.24848,0.74981 0,0.24993 1.49089,-0.74981 0.99393,3.49912 0.74544,3.99899 0.24849,-0.74981 -0.74544,0.74982 -0.74544,0.24994 -2.23634,4.49887 2.48482,4.99874 -0.24848,5.49861 1.24241,0.24994 1.73937,6.24843 1.73937,5.49862 0.24848,1.99949 0,3.99899 -0.49696,5.74855 -0.49697,-1.24969 -0.99393,2.24943 -0.74545,3.24918 0.49696,2.24943 -0.74545,6.49836 1.49089,7.4981 -0.24848,-0.74981 1.49089,1.9995 1.49089,1.9995 4.96964,1.99949 6.21204,-4.24893 8.1999,-5.49861 0.74544,0 1.49089,-2.99925 2.23633,-2.99925 0,-0.24993 2.98178,-14.49634 5.21812,-13.74653 1.73937,-2.7493 3.23026,-5.49861 4.72115,-8.24792 0,0.24994 -1.98785,-1.99949 1.98786,-3.74905 1.98785,0.74981 2.7333,-4.49886 3.23026,-7.24817 0,-1.74956 1.24241,-0.74981 1.49089,-2.74931 1.73937,-2.24943 2.98178,-4.7488 3.97571,-7.4981 0.49696,0 0.74544,-2.49937 0.99393,-2.24944 -0.99393,-0.99974 0.99392,-1.99949 0.74544,-2.7493 0.24848,-1.49962 0.24848,-2.74931 0.74545,-2.49937 0.49696,-2.74931 2.23633,-1.49962 2.73329,-1.24969 0.24849,0.24994 1.98786,-0.24993 1.98786,1.74956 -0.74545,0.99975 2.48482,1.9995 2.23633,2.49937 0,-0.49987 15.90284,18.49533 20.37551,21.99445 0.24848,0.24994 12.67257,12.49685 11.92712,12.24691 1.24241,0.74981 2.48482,3.24918 2.48482,2.99924 -0.49697,0.74981 2.48482,1.9995 2.98178,1.9995 1.98785,3.24918 1.98785,2.49937 2.98178,1.99949 0.24848,1.49962 2.7333,0.74981 3.72723,1.24969 -0.24849,-0.74981 1.98785,-1.24969 1.49089,-1.9995 0.74544,0.24994 -0.49697,-2.7493 0,-2.24943 -0.74545,-1.49962 -5.4666,-7.74804 -5.21812,-8.74779 0,-0.24994 0.74545,-0.24994 0.99393,0 0.24848,0.24993 -0.49697,-0.74981 -0.99393,-0.99975 0.74545,0 0.99393,-0.49987 0.49696,-1.24968 -0.74544,0.49987 -1.98785,-4.99874 -1.24241,-5.74855 0.24849,-1.24969 -3.72722,-17.99546 -5.71508,-19.74502 0,-1.49962 -0.49696,-2.99924 -0.74544,-4.49886 -3.23026,-1.9995 -0.49696,-5.99849 -2.7333,-6.7483 -0.49696,0.99975 -2.7333,-2.74931 -3.23026,-5.99849 -0.99393,-1.99949 0,-6.74829 -0.74545,-5.99848 -0.74544,-0.74981 3.23027,-2.49937 4.22419,-0.24994 8.44838,3.24918 24.35121,-1.9995 30.31477,2.49937 1.24241,-2.49937 4.47268,-0.49988 2.7333,-0.99975 -0.24848,0.24994 0.24849,0.49987 0.74545,0.49987 2.23633,-0.24993 4.47267,-0.24993 6.70901,0 -2.48482,-0.49987 3.72722,-0.24993 3.23026,-0.24993 3.97571,-0.24994 7.70293,-1.49962 11.18168,-3.24918 2.48481,-0.74981 1.98785,-1.9995 2.98178,-4.49887 -0.49697,1.9995 0.74544,-1.99949 -1.49089,-3.24918 -12.17561,-2.99924 -22.11488,-12.24691 -34.29048,-15.49609 -4.72116,-0.99974 -12.42409,-12.74678 -16.3998,-11.99697 7.45445,-8.49785 14.66042,-16.99571 22.11488,-24.24387 1.49089,-1.49962 16.64827,-17.99546 16.64827,-17.74552 0.49697,-0.74981 1.49089,-3.49912 1.24241,-2.49937 0,-0.49988 -0.24848,-0.99975 -0.49696,-1.49962 0,0.24993 -5.71508,-4.24893 -7.20597,-1.49963 1.98785,1.24969 -3.97571,1.74956 -5.4666,1.9995 -0.49696,0.24994 -0.74545,0.24994 -1.24241,0 -1.49089,-0.24994 -3.47874,1.24968 -4.47267,1.49962 -2.23634,-1.99949 -7.95142,1.74956 -10.43623,2.49937 -0.99393,0 -1.98786,0 -2.98178,-0.24994 -0.74545,1.49963 -0.74545,0.99975 -0.74545,0.74981 -1.24241,0.99975 -2.7333,1.49963 -4.22419,1.9995 0.24848,0 -1.98785,0.99975 -2.7333,0.74981 0,0.24994 -0.24848,1.49962 -1.73937,1.24969 -1.24241,-0.24994 -0.74545,-0.74982 -1.24241,-0.24994"
   id="path40"
   inkscape:connector-curvature="0"
   style="fill:#e42313;stroke-width:1" />
</g>
</svg>