<svg xmlns="http://www.w3.org/2000/svg" viewBox="0 0 900 600"><path d="M0,600H900V0H0Z" style="fill:#c1000a"/><path d="M467.5393,419.0427a22.5391,22.5391,0,1,0,22.6136,22.4487,22.2928,22.2928,0,0,0-22.6136-22.4487m-.09,53.9156c-18.435,0-32.8757-13.8226-32.8757-31.4669,0-17.8364,14.134-31.2876,32.8757-31.2876,18.4362,0,32.877,13.744,32.877,31.2876,0,17.6443-14.4408,31.4669-32.877,31.4669" style="fill:#fff"/><path d="M532.4545,472.8692c-13.9291,0-23.6563-9.7727-23.6563-23.7656,0-14.0973,9.7272-23.9436,23.6563-23.9436,8.2076,0,14.8583,2.5822,19.2547,7.4692l-5.22,6.1393a18.3643,18.3643,0,0,0-13.2266-5.221l-.3519.0026c-8.5221.0025-14.4781,6.3986-14.4781,15.5535,0,9.1575,5.9509,15.5535,14.47,15.5535,5.9353,0,10.7918-1.9269,14.0682-5.58l5.2754,5.2791c-4.3616,5.5706-11.1978,8.5126-19.7921,8.5126" style="fill:#fff"/><path d="M582.696,472.8692c-13.93,0-23.6576-9.7727-23.6576-23.7656,0-14.0973,9.7273-23.9436,23.6576-23.9436,8.2077,0,14.8583,2.5822,19.256,7.4692l-5.2226,6.1393a18.3567,18.3567,0,0,0-13.2253-5.221l-.3505.0026c-8.5235.0025-14.4781,6.3986-14.4781,15.5535,0,9.1575,5.9495,15.5535,14.4691,15.5535,5.9366,0,10.7931-1.9269,14.0682-5.58l5.2741,5.2791c-4.36,5.5706-11.1966,8.5126-19.7909,8.5126" style="fill:#fff"/><path d="M618.76,417.4311a5.9022,5.9022,0,1,1,5.6686-5.8544,5.6361,5.6361,0,0,1-5.6686,5.8544m-4.7727,8.0882h9.5468v46.9921H613.987Z" style="fill:#fff"/><path d="M655.9373,472.9581c-3.0521,0-13.0087-.9764-13.0087-13.5544V434.3586h-6.7125V427.31h6.7125V414.2354h9.5455V427.31h14.0541v7.0486H652.4741v23.1646c0,4.6858,1.6756,6.7765,5.43,6.7765a16.3481,16.3481,0,0,0,6.9665-1.9321l2.3947,7.2783a22.4023,22.4023,0,0,1-11.328,3.3122" style="fill:#fff"/><path d="M694.3636,451.3736c-7.0347,0-10.1719,2.0624-10.1719,6.6876,0,4.4962,3.7468,7.402,9.5456,7.402,7.4613,0,13.2832-3.9286,13.8413-9.3406l.0013-4.749ZM691.59,472.9582c-9.6615,0-16.41-5.9433-16.41-14.4508,0-8.55,6.768-13.9142,17.6642-14.0006H707.58v-1.7606c0-6.3909-4.1541-9.912-11.6954-9.912-4.5781,0-9.2684,1.58-13.9458,4.6987l-3.864-6.583c6.6352-3.9223,11.3963-5.79,20.0473-5.79,11.93,0,18.8255,5.9859,18.917,16.4267l.0864,30.9252h-9.4579v-5.9962l-2.106,1.9076c-3.2777,2.9665-8.11,4.5349-13.9716,4.5349" style="fill:#fff"/><path d="M768.471,472.5115V446.0593c0-7.33-4.5149-11.8828-11.783-11.8828-7.7643.09-13.0616,5.18-13.8414,13.2861l-.0026,25.0489h-9.6358V425.52h9.6358v9.3213l2.2685-3.0027c3.3459-4.4317,8.5956-6.6772,15.6019-6.6772,10.73,0,17.3948,6.9094,17.3948,18.0325v29.3181Z" style="fill:#fff"/><path d="M798.96,417.4311a5.9022,5.9022,0,1,1,5.6686-5.8544,5.6371,5.6371,0,0,1-5.6686,5.8544m-4.774,8.0882h9.5494v46.9921h-9.5494Z" style="fill:#fff"/><path d="M840.611,432.7467c-7.2771,0-12.54,4.295-14.0773,11.4868l-.326,1.5271h28.0436l-.1456-1.3942c-.7618-7.2757-5.8065-11.62-13.4946-11.62m.18,40.1227c-14.3659,0-24.0158-9.55-24.0158-23.7656,0-14.0071,9.7646-23.8533,23.7491-23.9436,7.17,0,12.6994,2.034,16.4268,6.0452,4.332,4.66,6.197,11.866,5.55,21.4234H826.3445l.4742,1.6173a14.8632,14.8632,0,0,0,14.7772,10.949,18.8828,18.8828,0,0,0,13.4173-5.408l5.0189,5.3513c-4.7328,5.0585-11.3783,7.731-19.24,7.731" style="fill:#fff"/><path d="M521.3105,389.487l.1474-49.5911,9.0935.1474-.1491,41.1107,21.2151.1474-.1455,8.1855Z" style="fill:#fff"/><path d="M571.3217,373.0668c-5.1686,0-7.2775,1.3247-7.2775,4.5713,0,3.1608,2.6011,5.1256,6.7908,5.1256,5.4688,0,9.7293-2.8156,10.13-6.6966l-.0018-2.8511Zm-2.1555,16.7685c-7.8722,0-13.3708-4.8736-13.3708-11.85,0-7.1332,5.3606-11.4322,14.3423-11.5031H580.816l.1474-.7407c0-4.6293-2.9255-7.0754-8.46-7.0754a19.1141,19.1141,0,0,0-10.7064,3.6925l-.4586.3116-3.5987-6.4409.39-.0616c5.37-3.1925,9.1495-4.7132,16.1117-4.7132,9.6622,0,15.2466,4.8755,15.3194,13.3783l.0708,24.803-8.7467-.1493.1473-3.5507v-.3527l-.2517.2463c-2.672,2.6216-6.69,4.0061-11.6145,4.0061" style="fill:#fff"/><path d="M626.9539,366.5425l11.1706.1493c7.5963,0,11.45-3.1776,11.45-9.4394,0-6.0343-3.854-9.0924-11.45-9.0924H626.9539ZM617.86,389.4871l.1492-49.5911,20.1149.1474c12.6959,0,19.9771,6.1966,19.9771,17,0,7.57-3.4532,13.2159-9.7257,15.8953l10.8873,16.5484H648.9576L640.2,374.8344c-.7552-.028-1.4152-.028-2.0753-.028H627.1011l-.1474,14.8281Z" style="fill:#fff"/><path d="M677.58,347.186l8.0326-11.2213,9.2072,4.03-9.2948,7.191Zm5.8659,11.41c-5.3438,0-9.3191,3.3269-10.3744,8.6856l20.1094.1754c-.3245-5.6088-4.02-8.861-9.735-8.861m.14,31.1694c-11.5324,0-19.2815-7.6706-19.2815-19.086,0-11.2494,7.8405-19.155,19.0689-19.2241,5.7578,0,10.2086,1.6457,13.2254,4.8942,3.5222,3.7915,5.025,9.63,4.46,17.3489l-.0355.4814-27.6218-.1381a10.6332,10.6332,0,0,0,10.8108,8.5121,14.0313,14.0313,0,0,0,10.162-4.202l.3785-.388,4.7267,5.2655-.3263.1548c-3.8056,4.174-9.1867,6.3813-15.5673,6.3813" style="fill:#fff"/><path d="M725.1407,358.6654c-6.058,0-10.3372,4.5117-10.4062,10.9751.0709,6.6014,4.2513,11.0347,10.4062,11.0347,6.045,0,10.2682-4.5378,10.2682-11.0385,0-6.46-4.2233-10.9713-10.2682-10.9713m-.6265,44.5271a27.3983,27.3983,0,0,1-15.5729-4.9315l-.4027-.2743,3.99-6.4913.248.3862a18.158,18.158,0,0,0,11.3906,3.9612c6.83,0,11.2415-3.978,11.2415-10.1354v-3.4462l-.2666.33c-2.6495,3.3287-6.66,5.0864-11.5995,5.0864-10.2029,0-17.059-7.3329-17.059-18.25,0-10.6821,6.7423-17.903,16.7774-17.9739,5.1444,0,9.142,1.7222,11.8829,5.1143l.2648.3266v-5.31l8.8138.1493-.1491,33.7647c0,10.7493-7.6765,17.6941-19.5594,17.6941" style="fill:#fff"/><path d="M758.7832,346.6994a5.209,5.209,0,1,1,5.0269-5.1722,4.991,4.991,0,0,1-5.0269,5.1722m-4.4806,42.7881.1473-37.9033,8.8138.1493-.1491,37.754Z" style="fill:#fff"/><path d="M790.4136,359.0826c-6.4552,0-10.9637,4.7692-10.9637,11.5964,0,6.9784,4.406,11.6673,10.9637,11.6673,6.4141,0,10.8947-4.799,10.8947-11.6673,0-6.8272-4.4806-11.5964-10.8947-11.5964m0,30.6824c-11.5995,0-19.6973-7.8758-19.6973-19.1551,0-11.4583,7.9151-19.155,19.6973-19.155,11.5566,0,19.6284,7.8777,19.6284,19.155,0,11.2792-8.0718,19.1551-19.6284,19.1551" style="fill:#fff"/><path d="M817.49,389.487l.1474-37.9015,8.8847.1474-.1474,5.5827v.4777l.27-.3937c2.7073-3.9445,7.0779-5.9447,12.9867-5.9447,8.7188,0,14.1353,5.607,14.1353,14.6322v23.4h-8.8847l.1492-21.172c0-5.3905-3.1866-8.6054-8.5286-8.6054-5.6758.0653-9.5559,3.8026-10.13,9.7529l.0018,20.1738Z" style="fill:#fff"/><path d="M439.5507,503.1805h5.5848c3.8666,0,6.05-1.6471,6.05-5.0521,0-3.2954-2.1834-4.87-6.05-4.87h-5.5848Zm5.7639-13.7208c6.3,0,9.9167,3.1174,9.9167,8.5616,0,5.6609-3.6166,8.9563-9.9167,8.9563h-5.7639v7.5594H435.327V489.46Z" style="fill:#fff"/><path d="M467.5406,517.1514c-1.1819,3.0091-3.3292,4.5143-6.1931,4.5143a6.4423,6.4423,0,0,1-4.4041-1.6123l1.7555-3.1883a4.0183,4.0183,0,0,0,2.47.9312,3.1013,3.1013,0,0,0,2.9-2.1139l.6444-1.433-7.8764-18.77h4.26l5.693,14.4366,5.2973-14.4366h4.1167Z" style="fill:#fff"/><path d="M483.3955,499.2758a6.9219,6.9219,0,0,1,6.5862-3.94v3.94c-3.8293-.2154-6.264,2.0417-6.5862,5.3023v9.9584h-4.1167V495.4786h4.1167Z" style="fill:#fff"/><path d="M498.6067,492.7558l3.7945-5.3011,4.2237,1.79-4.3668,3.5108Zm7.9473,10.8187a4.8934,4.8934,0,0,0-5.2986-4.9438,5.4188,5.4188,0,0,0-5.5835,4.9438Zm3.5792,3.0091h-14.39a5.7988,5.7988,0,0,0,5.907,4.7644,7.4021,7.4021,0,0,0,5.3694-2.221l2.1834,2.3294a10.3575,10.3575,0,0,1-7.8751,3.2244c-5.8708,0-9.7375-3.9054-9.7375-9.6372a9.25,9.25,0,0,1,9.6305-9.7083c6.6932,0,9.4154,4.3711,8.9127,11.2483" style="fill:#fff"/><path d="M532.647,502.6791v11.857h-4.1154v-10.71a4.245,4.245,0,0,0-4.5833-4.6213,5.3323,5.3323,0,0,0-5.4043,5.194v10.1377h-4.118V495.4782h4.118v3.654c1.3585-2.6505,3.7932-3.7971,7.0155-3.7971,4.4389,0,7.0875,2.7937,7.0875,7.344" style="fill:#fff"/><path d="M543.3811,492.7558l3.7945-5.3011,4.225,1.79-4.3667,3.5108Zm7.9473,10.8187c-.1417-3.08-2.1821-4.9438-5.2973-4.9438a5.418,5.418,0,0,0-5.5835,4.9438Zm3.5806,3.0091H540.5173a5.7988,5.7988,0,0,0,5.9069,4.7644,7.398,7.398,0,0,0,5.3695-2.221l2.1847,2.3294a10.36,10.36,0,0,1-7.8764,3.2244c-5.87,0-9.7362-3.9054-9.7362-9.6372a9.2493,9.2493,0,0,1,9.6293-9.7083c6.6945,0,9.4153,4.3711,8.9139,11.2483" style="fill:#fff"/><path d="M572.3749,503.5748a4.8917,4.8917,0,0,0-5.2974-4.9438,5.42,5.42,0,0,0-5.5847,4.9438Zm3.5792,3.009h-14.39a5.8,5.8,0,0,0,5.9069,4.7645,7.4005,7.4005,0,0,0,5.37-2.221l2.1847,2.328a10.3642,10.3642,0,0,1-7.8764,3.2245c-5.8709,0-9.7362-3.9042-9.7362-9.636a9.2482,9.2482,0,0,1,9.628-9.7082c6.6958,0,9.4166,4.37,8.9139,11.2482" style="fill:#fff"/><path d="M592.5967,497.234l-1.5028,3.0439a11.1981,11.1981,0,0,0-5.4778-1.6831c-1.6111,0-2.7917.5378-2.7917,1.8985,0,3.5108,10.1294,1.6122,10.0946,8.5268,0,3.9042-3.4723,5.66-7.3028,5.66a11.7726,11.7726,0,0,1-7.66-2.6505l1.4668-2.9382a10.3718,10.3718,0,0,0,6.3735,2.3642c1.7529,0,3.114-.6088,3.114-2.0417,0-3.9042-10.025-1.7193-9.9876-8.5977,0-3.8681,3.364-5.5165,7.0154-5.5165a12.034,12.034,0,0,1,6.6584,1.9347" style="fill:#fff"/><path d="M605.4427,502.2131h8.807v2.83h-8.807Z" style="fill:#fff"/><path d="M651.547,514.5366l-.0348-18.7354L643.6,511.9222h-2.7556l-7.9112-16.121v18.7354h-3.9737v-25.076H633.97l8.2695,16.6576,8.2334-16.6576H655.45v25.076Z" style="fill:#fff"/><path d="M667.0414,492.7558l3.7945-5.3011,4.225,1.79-4.3681,3.5108Zm7.9473,10.8187a4.8924,4.8924,0,0,0-5.2974-4.9438,5.42,5.42,0,0,0-5.5847,4.9438Zm3.5792,3.0091h-14.39a5.7974,5.7974,0,0,0,5.9056,4.7644,7.398,7.398,0,0,0,5.37-2.221l2.186,2.3294a10.3645,10.3645,0,0,1-7.8764,3.2244c-5.8709,0-9.7375-3.9054-9.7375-9.6372a9.2493,9.2493,0,0,1,9.6293-9.7083c6.6958,0,9.4153,4.3711,8.9139,11.2483" style="fill:#fff"/><path d="M696.8936,505.0793c0-3.69-2.3986-6.27-5.8348-6.27s-5.8361,2.6157-5.8709,6.27c.0348,3.6191,2.3986,6.1974,5.8709,6.1974,3.4361,0,5.8348-2.5783,5.8348-6.1974m4.1167,9.458h-4.1167v-3.2606a7.38,7.38,0,0,1-6.6932,3.4386c-5.4778,0-9.1292-3.9764-9.1292-9.7792,0-5.7318,3.6875-9.6373,9.057-9.6373a7.5268,7.5268,0,0,1,6.7654,3.476V487.9561H701.01Z" style="fill:#fff"/><path d="M707.27,495.4791h4.0806V514.537H707.27Zm4.4389-5.4454a2.4,2.4,0,1,1-2.3973-2.5074,2.3723,2.3723,0,0,1,2.3973,2.5074" style="fill:#fff"/><path d="M728.2108,513.3186a9.1479,9.1479,0,0,1-4.69,1.3968c-2.8626,0-5.3334-1.6471-5.3334-5.5525v-9.8875h-2.6848v-3.08h2.6848v-5.23h4.0806v5.23h5.6208v3.08h-5.6208v9.1355c0,1.9708.7527,2.58,2.0416,2.58a6.6334,6.6334,0,0,0,2.8626-.8242Z" style="fill:#fff"/><path d="M744.9613,503.5748a4.8916,4.8916,0,0,0-5.2973-4.9438,5.42,5.42,0,0,0-5.5848,4.9438Zm3.5792,3.009H734.15a5.8,5.8,0,0,0,5.907,4.7645,7.4007,7.4007,0,0,0,5.37-2.221l2.1847,2.328a10.3643,10.3643,0,0,1-7.8764,3.2245c-5.8709,0-9.7376-3.9042-9.7376-9.636a9.2493,9.2493,0,0,1,9.6293-9.7082c6.6958,0,9.4166,4.37,8.9139,11.2482" style="fill:#fff"/><path d="M756.95,499.2758a6.9218,6.9218,0,0,1,6.5862-3.94v3.94c-3.8293-.2154-6.264,2.0417-6.5862,5.3023v9.9584h-4.1167V495.4786H756.95Z" style="fill:#fff"/><path d="M771.0525,499.2758a6.9218,6.9218,0,0,1,6.5862-3.94v3.94c-3.8293-.2154-6.264,2.0417-6.5862,5.3023v9.9584h-4.1167V495.4786h4.1167Z" style="fill:#fff"/><path d="M791.67,507.8376v-1.7554h-5.1555c-2.6848,0-3.9376.7171-3.9376,2.5435,0,1.7193,1.3959,2.83,3.6875,2.83,2.9362,0,5.19-1.54,5.4056-3.6179m.0348,4.3711c-1.3585,1.6832-3.5432,2.5074-6.2989,2.5074-4.118,0-6.6957-2.5435-6.6957-5.9111,0-3.4747,2.6138-5.697,7.1945-5.7318H791.67v-.5727c0-2.4016-1.5389-3.8333-4.5459-3.8333a10.0335,10.0335,0,0,0-5.6208,1.9347l-1.682-2.8672a13.944,13.944,0,0,1,8.1973-2.399c4.9042,0,7.66,2.5074,7.6972,6.6979l.0348,12.5032h-4.0458Z" style="fill:#fff"/><path d="M819.48,502.6791v11.857h-4.1154v-10.71a4.245,4.245,0,0,0-4.5834-4.6213,5.3341,5.3341,0,0,0-5.4055,5.194v10.1377h-4.1167V495.4782h4.1167v3.654c1.36-2.6505,3.7944-3.7971,7.0166-3.7971,4.4389,0,7.0877,2.7937,7.0877,7.344" style="fill:#fff"/><path d="M830.2155,492.7558l3.7944-5.3011,4.225,1.79-4.368,3.5108Zm7.9473,10.8187a4.8924,4.8924,0,0,0-5.2973-4.9438,5.42,5.42,0,0,0-5.5848,4.9438Zm3.5792,3.0091h-14.39a5.7988,5.7988,0,0,0,5.907,4.7644,7.4,7.4,0,0,0,5.37-2.221l2.1847,2.3294a10.3648,10.3648,0,0,1-7.8765,3.2244c-5.8708,0-9.7375-3.9054-9.7375-9.6372a9.25,9.25,0,0,1,9.63-9.7083c6.6945,0,9.4154,4.3711,8.9127,11.2483" style="fill:#fff"/><path d="M859.208,503.5748a4.8916,4.8916,0,0,0-5.2973-4.9438,5.42,5.42,0,0,0-5.5848,4.9438Zm3.5792,3.009h-14.39a5.8,5.8,0,0,0,5.907,4.7645,7.4007,7.4007,0,0,0,5.37-2.221l2.1847,2.328a10.3646,10.3646,0,0,1-7.8765,3.2245c-5.8708,0-9.7375-3.9042-9.7375-9.636a9.2493,9.2493,0,0,1,9.6293-9.7082c6.6958,0,9.4167,4.37,8.914,11.2482" style="fill:#fff"/><path d="M312.4413,141.6A12.2751,12.2751,0,0,0,300.1734,153.88V446.5a12.2679,12.2679,0,1,0,24.5358,0V153.88A12.2751,12.2751,0,0,0,312.4413,141.6" style="fill:#ffd800"/><path d="M366.376,162.977a12.2751,12.2751,0,0,0-12.2679,12.2807V425.1426a12.2679,12.2679,0,1,0,24.5357,0V175.2577A12.2764,12.2764,0,0,0,366.376,162.977" style="fill:#ffd800"/><path d="M420.31,210.02a12.2737,12.2737,0,0,0-12.2679,12.2807v155.64a12.2679,12.2679,0,1,0,24.5357,0v-155.64A12.2737,12.2737,0,0,0,420.31,210.02" style="fill:#ffd800"/><path d="M475.0279,280.68a19.32,19.32,0,1,0,19.2966,19.3207A19.3085,19.3085,0,0,0,475.0279,280.68" style="fill:#ffd800"/><path d="M290.4821,108.9027a19.297,19.297,0,1,0-29.9449,1.7176c-16.6146,20.1278-38.4232,32.3526-46.85,36.5947a19.34,19.34,0,1,0-6.13,23.0312c21.3162,32.8735,27.3426,71.7259,29.04,91.1736-19.4536-1.6744-58.3241-7.662-91.1747-29.0381a19.2786,19.2786,0,1,0-23.0647,6.4868c-4.8328,9.6895-18.6879,34.8471-37.9995,47.9285a19.32,19.32,0,1,0,.0279,26.3759c19.3052,13.0964,33.1539,38.28,37.9737,47.9564a19.3347,19.3347,0,1,0,23.0626,6.489c32.8635-21.3847,71.7556-27.368,91.1984-29.04-1.6712,19.4133-7.6589,58.1883-29.0632,91.178a19.3076,19.3076,0,1,0,6.1361,23.0183c8.4224,4.2141,30.2031,16.3722,46.8542,36.5947a19.2956,19.2956,0,1,0,29.9342,1.7283c-16.5759-28.4829-43.2065-46.7039-58.7522-55.5087,29.25-50.1991,29.19-107.0057,29.1729-109.5776l-.0882-11.6351-11.6227-.1076c-2.5745-.028-59.3221-.1765-109.46,29.0662-6.5383-11.8417-18.0771-29.8754-33.7755-43.3593,15.6962-13.4731,27.2329-31.4831,33.7712-43.314,50.134,29.2447,106.8838,29.1091,109.4647,29.07l11.6227-.1054.0882-11.6372c.0172-2.572.0752-59.3785-29.1729-109.5754,15.5457-8.807,42.1785-27.028,58.7521-55.5109" style="fill:#ffd800"/></svg>