<?xml version="1.0" encoding="utf-8"?>
<svg xmlns="http://www.w3.org/2000/svg" viewBox="0 0 900 600">
  <path d="M0,600H900V0H0Z" style="fill:#c1000a"/>
  <path d="M312.4413,141.6A12.2751,12.2751,0,0,0,300.1734,153.88V446.5a12.2679,12.2679,0,1,0,24.5358,0V153.88A12.2751,12.2751,0,0,0,312.4413,141.6" style="fill:#ffd800"/>
  <path d="M366.376,162.977a12.2751,12.2751,0,0,0-12.2679,12.2807V425.1426a12.2679,12.2679,0,1,0,24.5357,0V175.2577A12.2764,12.2764,0,0,0,366.376,162.977" style="fill:#ffd800"/>
  <path d="M420.31,210.02a12.2737,12.2737,0,0,0-12.2679,12.2807v155.64a12.2679,12.2679,0,1,0,24.5357,0v-155.64A12.2737,12.2737,0,0,0,420.31,210.02" style="fill:#ffd800"/>
  <path d="M475.0279,280.68a19.32,19.32,0,1,0,19.2966,19.3207A19.3085,19.3085,0,0,0,475.0279,280.68" style="fill:#ffd800"/>
  <path d="M290.4821,108.9027a19.297,19.297,0,1,0-29.9449,1.7176c-16.6146,20.1278-38.4232,32.3526-46.85,36.5947a19.34,19.34,0,1,0-6.13,23.0312c21.3162,32.8735,27.3426,71.7259,29.04,91.1736-19.4536-1.6744-58.3241-7.662-91.1747-29.0381a19.2786,19.2786,0,1,0-23.0647,6.4868c-4.8328,9.6895-18.6879,34.8471-37.9995,47.9285a19.32,19.32,0,1,0,.0279,26.3759c19.3052,13.0964,33.1539,38.28,37.9737,47.9564a19.3347,19.3347,0,1,0,23.0626,6.489c32.8635-21.3847,71.7556-27.368,91.1984-29.04-1.6712,19.4133-7.6589,58.1883-29.0632,91.178a19.3076,19.3076,0,1,0,6.1361,23.0183c8.4224,4.2141,30.2031,16.3722,46.8542,36.5947a19.2956,19.2956,0,1,0,29.9342,1.7283c-16.5759-28.4829-43.2065-46.7039-58.7522-55.5087,29.25-50.1991,29.19-107.0057,29.1729-109.5776l-.0882-11.6351-11.6227-.1076c-2.5745-.028-59.3221-.1765-109.46,29.0662-6.5383-11.8417-18.0771-29.8754-33.7755-43.3593,15.6962-13.4731,27.2329-31.4831,33.7712-43.314,50.134,29.2447,106.8838,29.1091,109.4647,29.07l11.6227-.1054.0882-11.6372c.0172-2.572.0752-59.3785-29.1729-109.5754,15.5457-8.807,42.1785-27.028,58.7521-55.5109" style="fill:#ffd800"/>
</svg>