<?xml version="1.0" encoding="UTF-8" standalone="no"?>
<!-- Created with Inkscape (http://www.inkscape.org/) -->

<svg
   width="96.043747mm"
   height="57.414581mm"
   viewBox="0 0 96.043747 57.414581"
   version="1.1"
   id="svg1"
   xml:space="preserve"
   inkscape:version="1.4.2 (f4327f4, 2025-05-13)"
   sodipodi:docname="Coat of Arms Lovech.svg"
   xmlns:inkscape="http://www.inkscape.org/namespaces/inkscape"
   xmlns:sodipodi="http://sodipodi.sourceforge.net/DTD/sodipodi-0.dtd"
   xmlns="http://www.w3.org/2000/svg"
   xmlns:svg="http://www.w3.org/2000/svg"><sodipodi:namedview
     id="namedview1"
     pagecolor="#ffffff"
     bordercolor="#999999"
     borderopacity="1"
     inkscape:showpageshadow="2"
     inkscape:pageopacity="0"
     inkscape:pagecheckerboard="0"
     inkscape:deskcolor="#d1d1d1"
     inkscape:document-units="mm"
     inkscape:zoom="3.1267218"
     inkscape:cx="181.5"
     inkscape:cy="108.58018"
     inkscape:window-width="1920"
     inkscape:window-height="1017"
     inkscape:window-x="-8"
     inkscape:window-y="-8"
     inkscape:window-maximized="1"
     inkscape:current-layer="layer1"><inkscape:page
       x="6.0276744e-16"
       y="0"
       width="96.043747"
       height="57.414581"
       id="page2"
       margin="0"
       bleed="0" /></sodipodi:namedview><defs
     id="defs1"><style
       type="text/css"
       id="style1-2">
   <![CDATA[
    .str0 {stroke:#FFCC00;stroke-linecap:round}
    .fil1 {fill:#F8C300}
    .fil0 {fill:#9C079C}
    .fil2 {fill:#FFCC33}
   ]]>
  </style></defs><g
     inkscape:label="Capa 1"
     inkscape:groupmode="layer"
     id="layer1"
     transform="translate(0.26458332)"><path
       style="fill:#9c079c;fill-opacity:1"
       d="M -0.26458332,28.707291 V 0 H 47.75729 95.779164 v 28.707291 28.70729 H 47.75729 -0.26458332 Z"
       id="path3" /><g
       id="Layer_x0020_1"
       inkscape:label="Layer 1"
       transform="matrix(0.14049004,0,0,0.14049004,23.620163,15.320878)"
       style="clip-rule:evenodd;fill-rule:evenodd;image-rendering:optimizeQuality;shape-rendering:geometricPrecision;text-rendering:geometricPrecision"
       inkscape:groupmode="layer">
  <metadata
   id="CorelCorpID_0Corel-Layer" />
  <sodipodi:namedview
   id="base"
   pagecolor="#ffffff"
   bordercolor="#666666"
   borderopacity="1.0"
   gridtolerance="10000"
   guidetolerance="10"
   objecttolerance="10"
   inkscape:pageopacity="0.0"
   inkscape:pageshadow="2"
   inkscape:zoom="0.64"
   inkscape:cx="295.41913"
   inkscape:cy="799.53959"
   inkscape:document-units="px"
   inkscape:current-layer="g1932"
   inkscape:window-width="1022"
   inkscape:window-height="692"
   inkscape:window-x="0"
   inkscape:window-y="25"
   inkscape:showpageshadow="2"
   inkscape:pagecheckerboard="0"
   inkscape:deskcolor="#d1d1d1" />
  <g
   id="_40810288"
   transform="matrix(1.0691515,0,0,1.0691515,73.557423,-57.306472)">
   <polygon
   id="rect1957"
   class="fil0 str0"
   points="13.0243,227.441 90.4175,268.137 169.275,228.363 169.716,43.3919 13.0243,43.3919 "
   style="stroke:none" />
   <path
   id="path1918"
   class="fil1"
   d="m 166.829,231.021 c 5.5695,-3.5682 3.7529,-6.0606 3.7529,-112.635 V 11.252 H 135.712 l -0.5778,23.5551 -24.1155,-0.3199 V 11.252 C 98.5474,11.3205 74.0305,11.1046 74.0274,11.2117 L 73.3403,34.7871 H 47.4865 L 47.1009,11.252 H 11.1627 v 107.873 c 0,59.3304 0.7742,107.398 1.3365,107.874 25.4854,21.5326 79.3229,47.3301 79.3367,47.2612 0.1694,-0.8474 49.1284,-26.6683 74.9931,-43.2394 z M 21.263,228.1486 c -0.7079,-1.1351 -1.2992,-36.8253 -1.314,-79.312 L 19.9222,71.5884 h 142.828 l -0.0258,76.7227 c -0.0223,65.7909 -0.4003,77.0962 -2.6538,79.3423 -3.1051,3.095 -66.3116,38.3697 -68.6471,38.2279 C 69.2307,253.8319 41.5406,243.0081 21.2627,228.1486 Z m 133.99,-3.3642 c 2.566,-3.0763 3.0658,-7.3753 3.0658,-26.3726 v -22.6972 l -4.8176,-1.9142 c -2.9467,-1.1708 -6.8587,-1.3076 -10.0732,-0.3525 -4.7657,1.4161 -5.3053,2.3634 -5.7885,10.1612 l -0.533,8.5995 -7.57859,-0.089 -7.29345,-0.14597 -0.35796,-9.18782 c -0.4862,-7.8695 -0.9568,-8.6584 -5.8303,-9.7756 -2.9159,-0.6684 -7.957,-0.6953 -11.2026,-0.0599 -5.6068,1.0979 -5.9275,1.5853 -6.4325,9.7756 l -0.5314,8.6202 h -7.0075 -7.0074 l -0.5266,-8.4956 c -0.565,-9.1164 -2.4225,-10.6228 -13.1654,-10.6773 -8.8348,-0.0446 -11.7099,2.8779 -11.7099,11.903 l 0.04034,7.49718 -7.4455,-0.15403 -7.485639,-0.0733 -0.5272,-8.5099 c -0.445,-7.1855 -1.1681,-8.6777 -4.6464,-9.5888 -2.2657,-0.5935 -6.5825,-0.5649 -9.5928,0.0633 l -5.4735,1.1425 0.4847,25.8159 0.4847,25.8159 c 22.2398,10.4457 44.2833,24.7148 66.9665,34.0445 C 111.9789,249.5952 137.0407,239.1191 155.253,224.7844 Z M 51.455,236.4457 c 25.2383,-6.4099 53.4424,-6.3559 77.7824,0.8782 2.0627,0.613 -18.9298,5.7218 -26.8926,4.594 -8.8333,-1.3736 -15.5519,-1.4745 -20.2324,-0.3037 -8.1742,1.7066 -33.3205,-4.4921 -30.6574,-5.1685 z M 28.6785,223.6472 c -0.9623,-0.3352 -1.7496,-1.6943 -1.7496,-3.0201 0,-3.8369 14.9003,-4.9477 64.8188,-4.8321 7.2264,0.0167 19.4456,0.048 27.1537,0.0695 24.0952,0.067 36.1951,1.8573 35.5668,5.2624 -0.479,2.5957 -3.6424,2.8795 -25.9395,2.3265 -33.4539,-0.8295 -43.3902,-0.821 -73.1343,0.0621 -13.7313,0.4076 -25.7535,0.4669 -26.7159,0.1317 z M 27.4058,205.547 c -0.5004,-1.3609 -0.4166,-2.9889 0.1862,-3.618 0.9532,-0.9948 37.2366,-2.5069 63.2797,-2.6369 20.7283,-0.1036 62.3351,1.651 63.3113,2.6697 0.5854,0.6111 0.655,2.2243 0.1547,3.5852 -0.7265,1.9756 -6.3295,2.329 -27.8082,1.7541 -14.7941,-0.3961 -30.8402,-0.7202 -35.6578,-0.7202 -4.8175,0 -20.8636,0.3241 -35.6578,0.7202 -21.4786,0.5749 -27.0818,0.2215 -27.8081,-1.7541 z m 69.1589,-44.304 c 0.0569,-0.072 0.031,-4.4661 -0.029,-7.038 -0.1211,-5.2134 -0.9739,-5.5452 -5.226,-5.4897 -4.5146,0.0588 -4.8176,0.9389 -4.8176,5.6882 0,6.0911 0.0452,6.9162 0.0882,6.916 9.8605,-0.0208 0.2647,0.1709 9.9844,-0.0765 z M 158.3183,75.2451 H 23.4253 v 56.6792 h 134.893 z m -68.6507,48.0235 c -0.0173,-0.534 -0.421,-1.3236 -1.0921,-2.2321 -2.9084,-3.937 -10.8393,-10.1073 -14.1176,-7.3958 -4.5445,0 -7.2395,-3.7248 -7.2094,-9.9646 0.0456,-9.4851 1.9818,-10.6309 9.2525,-5.4746 6.4574,4.5797 8.1762,8.649 4.6213,10.9419 -2.2914,1.478 5.9491,8.6485 9.3601,10.5643 0.7502,-3.8548 0.564,-4.8915 0.564,-11.1437 0,-7.0756 -1.8227,-9.6393 -4.7868,-11.6933 -4.2063,-2.9148 -3.6269,-6.9859 1.9934,-14.0058 l 3.4143,-4.2645 c 4.3517,5.6128 13.2014,12.1862 5.3359,18.585 -2.7814,1.5536 -4.1835,3.8283 -4.1835,11.0346 0,4.9499 -0.2019,7.7288 0.1539,11.6019 2.0549,-1.9734 11.5241,-8.7313 9.4329,-10.4152 -3.5475,-3.7024 -1.918,-7.8781 4.2778,-10.9617 6.1599,-3.0657 6.1822,-3.0611 7.8833,1.6088 0.9384,2.5758 1.7061,5.6992 1.7061,6.941 0,3.2441 -3.7041,6.6459 -7.2363,6.6459 -4.035,-4.697 -14.9832,6.5021 -15.0755,9.3502 -0.0408,1.2569 -0.9417,3.5101 -2.2142,3.4483 -0.9635,0 -2.0393,-1.9137 -2.0801,-3.1706 z"
   sodipodi:nodetypes="ccccccccccccscccccscsccccccssccccscccccsscccccscccccscccssscsssscssssssccsssssssccsscscccscccsssssssccsssssssss" />
   <path
   id="flowRoot1920"
   class="fil0"
   d="m 45.8054,64.436 v -3.4401 c 1.3741,-0.3712 2.2477,-1.2704 2.6209,-2.6976 0.4919,-1.8726 0.7379,-4.9373 0.7379,-9.1941 v -3.4896 h 9.016 V 64.0895 H 54.9148 V 49.2156 h -2.4851 v 1.126 c -10e-5,3.7701 -0.3505,7.0534 -1.0517,9.85 -0.6729,2.6728 -2.5305,4.0876 -5.5726,4.2444 M 73.1845,48.733 c -0.9953,0 -1.7671,0.5362 -2.3156,1.6086 -0.5484,1.0724 -0.8226,2.5821 -0.8226,4.529 0,1.9387 0.2742,3.4442 0.8226,4.5166 0.5485,1.0725 1.3203,1.6087 2.3156,1.6087 1.0008,0 1.7755,-0.5362 2.3239,-1.6087 0.5485,-1.0724 0.8228,-2.5779 0.8228,-4.5166 0,-1.9469 -0.2743,-3.4566 -0.8228,-4.529 C 74.96,49.2692 74.1853,48.733 73.1845,48.733 m 0,-3.4525 c 2.0356,0 3.6301,0.8498 4.7837,2.5492 1.1534,1.6993 1.7302,4.0463 1.7302,7.0409 0,2.9864 -0.5768,5.3292 -1.7302,7.0286 -1.1536,1.6995 -2.7481,2.5491 -4.7837,2.5491 -2.03,0 -3.6246,-0.8496 -4.7837,-2.5491 -1.1536,-1.6994 -1.7304,-4.0422 -1.7304,-7.0286 0,-2.9946 0.5768,-5.3416 1.7304,-7.0409 1.1591,-1.6994 2.7537,-2.5492 4.7837,-2.5492 m 20.0847,7.4865 c 0.5145,0 0.9047,-0.1649 1.1704,-0.495 0.2658,-0.33 0.3987,-0.8166 0.3987,-1.4602 0,-0.6351 -0.1329,-1.1177 -0.3987,-1.4477 -0.2657,-0.3383 -0.6559,-0.5073 -1.1704,-0.5074 h -1.8067 v 3.9103 h 1.8067 m 0.1103,8.0804 c 0.6558,0 1.1478,-0.2021 1.4758,-0.6063 0.3336,-0.4042 0.5004,-1.0147 0.5004,-1.8314 0,-0.8002 -0.164,-1.3983 -0.492,-1.7943 -0.328,-0.4042 -0.8227,-0.6063 -1.4842,-0.6063 h -1.917 v 4.8383 h 1.917 m 3.0364,-6.6449 c 0.7012,0.2969 1.2439,0.8455 1.6284,1.6457 0.3846,0.8002 0.5768,1.7819 0.5768,2.9451 0,1.7818 -0.4127,3.1101 -1.2383,3.9846 -0.8256,0.8743 -2.0808,1.3116 -3.7658,1.3116 H 88.1971 V 45.6146 h 4.9024 c 1.7586,0 3.0308,0.3878 3.8168,1.1632 0.7917,0.7755 1.1874,2.0171 1.1874,3.7247 0,0.8992 -0.1441,1.6664 -0.4326,2.3017 -0.2883,0.6269 -0.7068,1.093 -1.2552,1.3983 m 11.0516,-8.5879 h 8.8126 v 3.601 h -5.5471 v 3.44 h 5.2163 v 3.601 h -5.2163 v 4.232 h 5.7336 v 3.6009 h -8.9991 V 45.6146 m 25.4961,18.4749 v -7.8329 h -4.4275 c -1.0743,0 -1.9054,-0.4909 -2.4935,-1.4726 -0.5711,-0.9486 -0.8567,-2.3758 -0.8567,-4.2815 v -4.8879 h 3.2655 v 2.6234 c 0,1.1385 0.0198,1.9716 0.0593,2.4996 0.0339,0.4538 0.0962,0.7878 0.1867,1.0023 0.1187,0.2888 0.2798,0.5156 0.4834,0.6806 0.2035,0.1568 0.4353,0.2351 0.6955,0.2351 h 3.0873 v -7.041 h 3.2655 v 18.4749 z" />
   <rect
   id="rect1959"
   class="fil2 str0"
   x="24.414301"
   y="138.11"
   width="134.91901"
   height="3.30283" />
   <rect
   id="rect1963"
   class="fil2 str0"
   x="28.010799"
   y="149.058"
   width="5.4061198"
   height="11.0643"
   sodipodi:role="line" />
   <rect
   id="rect1965"
   class="fil2 str0"
   x="48.595901"
   y="149.146"
   width="5.4061198"
   height="11.0643" />
   <rect
   id="rect1967"
   class="fil2 str0"
   x="68.3302"
   y="149.146"
   width="5.4061198"
   height="11.0643" />
   <rect
   id="rect1969"
   class="fil2 str0"
   x="108.616"
   y="149.03"
   width="5.4061198"
   height="11.0643" />
   <rect
   id="rect1971"
   class="fil2 str0"
   x="129.63499"
   y="149.146"
   width="5.4061198"
   height="11.0643" />
   <rect
   id="rect1973"
   class="fil2 str0"
   x="150.65401"
   y="149.146"
   width="5.4061198"
   height="11.0643" />
  </g>
 </g></g><style
     type="text/css"
     id="style1">
	.st0{fill:#CDA432;}
	.st1{fill:#95268F;}
	.st2{fill-rule:evenodd;clip-rule:evenodd;fill:#CDA432;}
</style></svg>
