<?xml version="1.0" encoding="UTF-8" standalone="no"?>
<!-- Created with Inkscape (http://www.inkscape.org/) -->

<svg
   width="687.91669mm"
   height="412.75003mm"
   viewBox="0 0 687.91667 412.75002"
   version="1.1"
   id="svg1"
   xml:space="preserve"
   inkscape:version="1.4.2 (f4327f4, 2025-05-13)"
   sodipodi:docname="Flag of Pazardzhik.svg"
   xmlns:inkscape="http://www.inkscape.org/namespaces/inkscape"
   xmlns:sodipodi="http://sodipodi.sourceforge.net/DTD/sodipodi-0.dtd"
   xmlns:xlink="http://www.w3.org/1999/xlink"
   xmlns="http://www.w3.org/2000/svg"
   xmlns:svg="http://www.w3.org/2000/svg"><sodipodi:namedview
     id="namedview1"
     pagecolor="#ffffff"
     bordercolor="#999999"
     borderopacity="1"
     inkscape:showpageshadow="2"
     inkscape:pageopacity="0"
     inkscape:pagecheckerboard="0"
     inkscape:deskcolor="#d1d1d1"
     inkscape:document-units="mm"
     inkscape:zoom="0.50653845"
     inkscape:cx="1300"
     inkscape:cy="780.7897"
     inkscape:window-width="1920"
     inkscape:window-height="1017"
     inkscape:window-x="-8"
     inkscape:window-y="-8"
     inkscape:window-maximized="1"
     inkscape:current-layer="layer1" /><defs
     id="defs1" /><g
     inkscape:label="Capa 1"
     inkscape:groupmode="layer"
     id="layer1"><g
       id="g3"
       transform="matrix(1.1465278,0,0,0.98273817,0,-176.89287)"><path
         fill="#ffcc00"
         d="M 0,180 H 600 V 600 H 0"
         id="path1"
         style="fill:#ffdd00;fill-opacity:1;stroke-width:0.83666" /><path
         d="m 0,240 h 600 v 60 H 0 m 0,60 h 600 v 60 H 0 m 0,60 h 600 v 60 H 0"
         id="path2"
         sodipodi:nodetypes="cccccccccccc"
         style="fill:#000000" /></g><g
       inkscape:label="Layer 1"
       id="layer1-8"
       transform="matrix(0.27742153,0,0,0.27742153,240.78048,56.320472)"><g
         style="fill:#ff0000;fill-opacity:1;stroke:#fc2b2b;stroke-width:0;stroke-miterlimit:4;stroke-dasharray:none;stroke-opacity:1"
         transform="matrix(-1,0,0,1,488.711,-4.073681)"
         id="g21612" /><g
         id="g38772"
         transform="matrix(9.622363,0,0,9.622363,-2935.77,-2977.289)"><g
           id="g35958"><path
             style="fill:#ffff00;fill-opacity:1;fill-rule:evenodd;stroke:#010101;stroke-width:0;stroke-linecap:round;stroke-linejoin:round;stroke-miterlimit:4;stroke-dasharray:none;stroke-opacity:1"
             d="m 308.9375,317 v 62.875 c 0.25043,18.92765 15.62678,34.27061 34.625,34.375 19.12797,0.10511 34.74485,-15.28308 35,-34.375 V 317 Z"
             id="rect1891"
             sodipodi:nodetypes="ccsscc" /><path
             style="fill:#ffff00;fill-opacity:0;fill-rule:evenodd;stroke:#010101;stroke-width:1;stroke-linecap:round;stroke-linejoin:round;stroke-miterlimit:4;stroke-dasharray:none;stroke-opacity:1"
             d="m 311.07679,319.10299 v 60.15573 c 0.23505,18.10906 14.66649,32.78845 32.49724,32.88833 17.95251,0.10056 32.6097,-14.62211 32.84918,-32.88833 v -60.15573 z"
             id="path2788"
             sodipodi:nodetypes="ccsscc" /><rect
             style="fill:#000000;fill-opacity:1;fill-rule:nonzero;stroke:#000000;stroke-width:0;stroke-linecap:round;stroke-linejoin:round;stroke-miterlimit:4;stroke-dasharray:none;stroke-opacity:1"
             id="rect23411"
             width="33.375"
             height="18.125"
             x="327.0625"
             y="377.9567" /><path
             style="fill:#ff0000;fill-rule:evenodd;stroke:#000000;stroke-width:1px;stroke-linecap:butt;stroke-linejoin:miter;stroke-opacity:1"
             d="m 334.17872,353.03007 h 23.79918 c -1.25658,4.68959 -0.34589,1.0543 -4.5808,27.125 h -19.2929 c -2.47487,-21.51627 -1.22334,-22.02909 -5.11243,-23.75 1.32051,-1.13794 2.6072,-3.375 5.18695,-3.375 z"
             id="path24300"
             sodipodi:nodetypes="cccccc" /><path
             style="fill:#ff0000;fill-opacity:1;fill-rule:nonzero;stroke:#000000;stroke-width:1;stroke-linecap:round;stroke-linejoin:round;stroke-miterlimit:4;stroke-dasharray:none;stroke-opacity:1"
             d="m 339.32643,345.54226 1.3125,13.65625 c -1.60379,1.04075 -2.58367,2.82509 -2.59375,4.75 -0.0156,2.98347 2.49219,5.65692 5.625,5.6875 4.72822,-0.28996 7.16676,-4.58739 4.96875,-8.625 -1.07147,0.54632 -1.54391,0.87367 -2.625,1.5 -1.5607,-0.14218 -2.3931,-0.23544 -3.82826,-0.49114 0.65072,-0.97775 3.86902,-3.32274 4.85951,-4.44766 0.71726,-1.36049 1.53125,-12.02995 1.53125,-12.02995 z"
             id="path30557"
             sodipodi:nodetypes="ccssccczcc" /><path
             sodipodi:type="arc"
             style="fill:#ff0000;fill-opacity:1;fill-rule:nonzero;stroke:#000000;stroke-width:1;stroke-linecap:round;stroke-linejoin:round;stroke-miterlimit:4;stroke-dasharray:none;stroke-opacity:1"
             id="path35011"
             sodipodi:cx="291.15121"
             sodipodi:cy="319.09244"
             sodipodi:rx="2.5853593"
             sodipodi:ry="2.5853593"
             d="m 288.56598,319.0672 a 2.5853593,2.5853593 0 0 1 2.60416,-2.56005 2.5853593,2.5853593 0 0 1 2.5664,2.59791 2.5853593,2.5853593 0 0 1 -2.59163,2.57273 2.5853593,2.5853593 0 0 1 -2.57905,-2.58535"
             sodipodi:start="3.1513541"
             sodipodi:end="3.1415927"
             sodipodi:open="true"
             transform="translate(52.59878,44.90128)"
             sodipodi:arc-type="arc" /><g
             id="g36036"><g
               id="g36061"><g
                 id="g36072"><rect
                   transform="matrix(1,0,0.07017842,0.997534,0,0)"
                   y="331.1781"
                   x="289.32092"
                   height="49.872871"
                   width="11.375"
                   id="rect35057"
                   style="fill:#000000;fill-opacity:1;fill-rule:nonzero;stroke:#000000;stroke-width:0;stroke-linecap:round;stroke-linejoin:round;stroke-miterlimit:4;stroke-dasharray:none;stroke-opacity:1" /><use
                   height="1052.3622"
                   width="744.09448"
                   transform="matrix(-1,0,0,1,687.5,0)"
                   id="use35059"
                   xlink:href="#rect35057"
                   y="0"
                   x="0" /><path
                   style="fill:#000000;fill-opacity:1;fill-rule:nonzero;stroke:#000000;stroke-width:0;stroke-linecap:round;stroke-linejoin:round;stroke-miterlimit:4;stroke-opacity:1"
                   d="m 338.0625,321.23718 h 11.375 v 21 h -11.375 z"
                   id="rect24298" /><use
                   x="0"
                   y="0"
                   xlink:href="#rect24298"
                   id="use35048"
                   transform="translate(12.875)"
                   width="744.09448"
                   height="1052.3622" /><use
                   x="0"
                   y="0"
                   xlink:href="#rect24298"
                   id="use35050"
                   transform="translate(-12.875)"
                   width="744.09448"
                   height="1052.3622" /><rect
                   y="336.61218"
                   x="320.75"
                   height="4.75"
                   width="48"
                   id="rect35065"
                   style="fill:#000000;fill-opacity:1;fill-rule:nonzero;stroke:#000000;stroke-width:0;stroke-linecap:round;stroke-linejoin:round;stroke-miterlimit:4;stroke-dasharray:none;stroke-opacity:1" /><path
                   style="fill:#000000;fill-opacity:1;fill-rule:nonzero;stroke:#000000;stroke-width:0;stroke-linecap:round;stroke-linejoin:round;stroke-miterlimit:4;stroke-opacity:1"
                   d="m 329.5,327.98718 h 29.25 v 11 H 329.5 Z"
                   id="rect35952" /></g></g></g><path
             style="fill:#ff0000;fill-opacity:1;fill-rule:nonzero;stroke:#000000;stroke-width:1;stroke-linecap:round;stroke-linejoin:round;stroke-miterlimit:4;stroke-dasharray:none;stroke-opacity:1"
             d="m 317.6875,358.71875 0.15625,22.34375 H 327.875 l 0.0625,-22.34375 c 0,-9.55618 4.35631,-15.96875 15.875,-15.96875 11.51394,0 15.4375,7.27842 15.4375,15.96875 h -0.0625 v 22.1875 h 10.625 l -0.25,-22.1875 c 0,-14.06358 -8.85893,-25.6875 -25.65625,-25.6875 -16.67233,0 -26.21875,11.14714 -26.21875,25.6875 z"
             id="path35020"
             sodipodi:nodetypes="cccczccccczc" /><path
             sodipodi:nodetypes="cccccccccccccccccc"
             id="path6367"
             d="m 313.4375,378.5 c 0,4.10934 0.84231,7.91916 2.3125,11.5 1.9556,-0.0558 3.86599,0.0312 5.78125,0.0312 1.23691,2.40902 2.84135,5.14527 4.75,7.03125 l -2.09375,5.1875 c 2.93738,2.5188 6.34743,4.48355 10.09375,5.75 l 4.1875,-4.21875 c 3.54971,0.85395 7.01144,0.66248 10.5625,0 l 4.1875,4.2188 c 3.74632,-1.26645 7.15637,-3.2312 10.09375,-5.75 l -2.09375,-5.1875 c 1.90865,-1.88598 3.51309,-4.62223 4.75,-7.03125 1.91526,0 3.82565,-0.087 5.78125,-0.0312 1.47019,-3.58084 2.3125,-7.39066 2.3125,-11.5 -1.71233,0.001 -9.62268,-0.0713 -15.5,-0.0312 0,8.39735 -6.67547,15.20533 -14.8125,15.375 -8.13416,-0.17307 -14.8125,-6.97982 -14.8125,-15.375 -5.16668,-0.0314 -10.33339,0.007 -15.5,0.0312 z"
             style="fill:#ff0000;fill-opacity:1;fill-rule:evenodd;stroke:#000000;stroke-width:1;stroke-linecap:round;stroke-linejoin:round;stroke-miterlimit:4;stroke-dasharray:none;stroke-opacity:1" /><path
             sodipodi:nodetypes="ccccc"
             id="rect36081"
             d="m 336.12499,331.17653 h 15.25002 l -2.3433,12.25 h -10.6518 z"
             style="fill:#ff0000;fill-opacity:1;fill-rule:nonzero;stroke:#000000;stroke-width:1;stroke-linecap:round;stroke-linejoin:round;stroke-miterlimit:4;stroke-opacity:1" /></g><g
           transform="translate(96.70675,-0.580806)"
           id="g37875"><path
             style="fill:#000000;fill-opacity:1;fill-rule:nonzero;stroke:#000000;stroke-width:0;stroke-linecap:round;stroke-linejoin:round;stroke-miterlimit:4;stroke-opacity:1"
             d="m 245.15625,333.65625 -2.5625,2.59375 v 1.28125 h 1.25 l 0.78125,-0.78125 4.9375,4.96875 0.78125,-0.78125 L 245.375,336 l 1.0625,-1.0625 z"
             id="rect36976"
             sodipodi:nodetypes="cccccccccc" /><path
             style="fill:#000000;fill-opacity:1;fill-rule:nonzero;stroke:#000000;stroke-width:0;stroke-linecap:round;stroke-linejoin:round;stroke-miterlimit:4;stroke-opacity:1"
             d="m 248.93025,333.65625 2.5625,2.59375 v 1.28125 h -1.25 L 249.4615,336.75 244.524,341.71875 243.74275,340.9375 248.7115,336 247.649,334.9375 Z"
             id="use37873"
             sodipodi:nodetypes="cccccccccc" /></g><g
           style="fill:none;fill-opacity:1;stroke:#ffffff;stroke-width:2;stroke-linecap:round;stroke-linejoin:round;stroke-miterlimit:4;stroke-dasharray:none;stroke-opacity:1"
           transform="matrix(1.085568,0,0,0.977656,22.67438,9.304319)"
           id="g37883"><path
             style="fill:none;fill-opacity:1;fill-rule:evenodd;stroke:#ffffff;stroke-width:2;stroke-linecap:round;stroke-linejoin:round;stroke-miterlimit:4;stroke-dasharray:none;stroke-opacity:1"
             d="m 284.4337,383.70433 c 6.1962,5.53105 8.05902,-0.29457 11.39684,-0.29457"
             id="path37879"
             sodipodi:nodetypes="cs" /><path
             style="fill:none;fill-opacity:1;fill-rule:evenodd;stroke:#ffffff;stroke-width:2;stroke-linecap:round;stroke-linejoin:round;stroke-miterlimit:4;stroke-dasharray:none;stroke-opacity:1"
             d="m 307.1011,383.70433 c -6.1962,5.53105 -8.05902,-0.29457 -11.39684,-0.29457"
             id="use37881"
             sodipodi:nodetypes="cs" /></g></g></g></g></svg>
