<?xml version="1.0" encoding="UTF-8" standalone="no"?>
<svg xmlns="http://www.w3.org/2000/svg" width="2000" height="1200" viewBox="0 0 2000 1200">
<rect width="2000" height="1200" fill="#ffffff"/>
<path d="M 0 1014 L 0 1105 L 1999 1105 L 1999 1014 Z" fill="#1f86c1" fill-rule="evenodd"/>
<path d="M 788 304 L 858 304 L 860 342 L 959 342 L 960 304 L 1026 304 L 1027 342 L 1126 342 L 1128 304 L 1200 306 L 1200 417 L 1244 418 L 1242 781 L 991 891 L 742 779 L 742 418 L 786 417 Z" fill="#1f86c1"/>

<path d="M 938 665 L 938 747 L 940 753 L 976 792 L 988 792 L 988 771 L 992 766 L 994 766 L 998 771 L 998 792 L 1010 792 L 1035 764 L 1044 756 L 1048 747 L 1048 665 L 1032 665 L 1032 734 L 1011 753 L 975 753 L 954 734 L 954 665 Z" fill="#1f86c1" fill-rule="evenodd"/>
<path d="M 1084 659 L 1080 662 L 1078 666 L 1078 668 L 1076 671 L 1076 675 L 1074 679 L 1074 698 L 1076 702 L 1076 705 L 1082 705 L 1092 709 L 1095 711 L 1101 718 L 1105 728 L 1105 740 L 1101 749 L 1096 754 L 1094 755 L 1089 755 L 1088 756 L 1083 756 L 1070 762 L 1067 765 L 1065 769 L 1065 774 L 1113 774 L 1113 767 L 1114 766 L 1114 763 L 1122 754 L 1133 754 L 1142 749 L 1146 745 L 1148 742 L 1148 739 L 1150 734 L 1149 729 L 1145 721 L 1142 718 L 1140 718 L 1137 715 L 1134 715 L 1129 713 L 1124 713 L 1123 714 L 1121 714 L 1120 713 L 1120 708 L 1119 707 L 1119 691 L 1109 681 L 1108 681 L 1086 660 Z" fill="#1f86c1" fill-rule="evenodd"/>
<path d="M 902 659 L 900 660 L 867 691 L 867 707 L 866 708 L 866 713 L 865 714 L 863 714 L 862 713 L 857 713 L 856 714 L 849 715 L 846 718 L 843 719 L 841 722 L 840 722 L 840 724 L 838 726 L 838 729 L 836 733 L 838 742 L 840 745 L 846 750 L 846 751 L 848 751 L 853 754 L 864 754 L 868 757 L 872 763 L 872 766 L 873 767 L 873 774 L 921 774 L 921 769 L 919 765 L 916 762 L 903 756 L 893 755 L 888 753 L 885 749 L 881 740 L 881 728 L 882 727 L 882 724 L 887 715 L 891 711 L 898 707 L 900 707 L 904 705 L 910 705 L 910 702 L 912 698 L 912 679 L 910 675 L 910 671 L 905 660 L 903 660 Z" fill="#1f86c1" fill-rule="evenodd"/>
<path d="M 996 543 L 996 569 L 998 571 L 999 571 L 1000 572 L 1001 572 L 1003 574 L 1004 574 L 1005 575 L 1006 575 L 1008 577 L 1009 577 L 1010 578 L 1012 578 L 1014 576 L 1015 576 L 1019 572 L 1020 572 L 1021 571 L 1022 571 L 1024 569 L 1025 569 L 1025 568 L 1026 567 L 1027 567 L 1029 565 L 1027 563 L 1027 562 L 1026 562 L 1025 561 L 1025 560 L 1024 560 L 1023 559 L 1023 558 L 1020 555 L 1020 554 L 1012 546 L 1012 545 L 1010 543 Z" fill="#1f86c1" fill-rule="evenodd"/>
<path d="M 990 543 L 976 543 L 974 545 L 974 546 L 967 553 L 967 554 L 963 558 L 963 559 L 962 560 L 961 560 L 961 561 L 960 562 L 959 562 L 959 563 L 957 565 L 959 567 L 960 567 L 961 568 L 961 569 L 962 569 L 964 571 L 965 571 L 967 573 L 968 573 L 971 576 L 972 576 L 974 578 L 975 578 L 976 577 L 978 577 L 980 575 L 981 575 L 982 574 L 983 574 L 985 572 L 986 572 L 987 571 L 988 571 L 990 569 Z" fill="#1f86c1" fill-rule="evenodd"/>
<path d="M 938 551 L 940 553 L 943 554 L 944 556 L 945 556 L 948 559 L 950 560 L 955 555 L 955 554 L 959 550 L 959 549 L 967 541 L 967 540 L 972 535 L 974 534 L 1012 534 L 1014 535 L 1019 540 L 1019 541 L 1027 549 L 1027 550 L 1031 554 L 1031 555 L 1036 560 L 1048 551 L 1047 548 L 1040 540 L 1040 539 L 1039 539 L 1038 537 L 1037 537 L 1035 535 L 1035 534 L 1031 530 L 1031 529 L 1027 525 L 1027 524 L 1026 524 L 1025 522 L 1023 521 L 1023 520 L 1020 517 L 1020 516 L 1016 512 L 1016 511 L 1015 511 L 1014 509 L 1012 508 L 1012 507 L 974 507 L 974 508 L 972 509 L 971 511 L 970 511 L 970 512 L 961 522 L 961 523 L 959 524 L 959 525 L 955 529 L 955 530 L 951 534 L 951 535 L 949 537 L 948 537 L 948 538 L 942 544 L 942 545 L 939 548 Z" fill="#1f86c1" fill-rule="evenodd"/>
<path d="M 815 492 L 810 517 L 841 630 L 825 641 L 815 656 L 812 708 L 798 720 L 798 742 L 812 751 L 816 774 L 864 774 L 861 762 L 844 760 L 831 747 L 830 725 L 841 711 L 858 707 L 859 687 L 949 604 L 1041 607 L 1127 687 L 1128 707 L 1145 711 L 1155 722 L 1155 747 L 1142 760 L 1125 762 L 1122 774 L 1171 773 L 1171 756 L 1188 742 L 1188 720 L 1174 708 L 1171 656 L 1161 641 L 1145 632 L 1176 517 L 1174 498 L 1167 488 L 1130 496 L 1123 491 L 1141 484 L 1148 475 L 1116 474 L 1091 480 L 1087 486 L 1104 493 L 1109 505 L 1100 516 L 1090 518 L 1090 523 L 1119 523 L 1132 513 L 1138 519 L 1123 531 L 1089 531 L 1013 587 L 993 577 L 973 587 L 897 531 L 863 531 L 851 522 L 851 513 L 867 523 L 897 522 L 877 505 L 882 493 L 899 486 L 891 478 L 838 475 L 863 494 L 851 496 L 829 488 Z M 1141 564 L 1142 565 L 1142 576 L 1143 577 L 1143 579 L 1144 580 L 1144 584 L 1143 585 L 1143 586 L 1142 587 L 1142 588 L 1140 590 L 1138 590 L 1137 591 L 1134 591 L 1133 590 L 1132 590 L 1129 587 L 1129 585 L 1128 584 L 1128 578 L 1129 577 L 1129 575 L 1131 573 L 1131 571 L 1137 565 L 1138 565 L 1139 564 Z M 845 564 L 848 564 L 851 567 L 852 567 L 853 568 L 853 569 L 855 571 L 855 572 L 857 574 L 857 576 L 858 577 L 858 578 L 859 579 L 859 583 L 858 584 L 858 585 L 857 586 L 857 587 L 854 590 L 853 590 L 852 591 L 849 591 L 848 590 L 847 590 L 844 587 L 844 586 L 843 585 L 843 579 L 844 578 L 844 565 Z M 1105 563 L 1106 564 L 1106 579 L 1107 580 L 1107 584 L 1106 585 L 1106 586 L 1102 590 L 1101 590 L 1100 591 L 1098 591 L 1097 590 L 1096 590 L 1095 589 L 1094 589 L 1093 588 L 1093 587 L 1091 585 L 1091 578 L 1092 577 L 1092 576 L 1093 575 L 1093 573 L 1095 571 L 1095 570 L 1096 569 L 1097 569 L 1097 568 L 1098 567 L 1099 567 L 1099 566 L 1101 564 L 1102 564 L 1103 563 Z M 1086 563 L 1087 564 L 1087 578 L 1088 579 L 1088 585 L 1083 590 L 1082 590 L 1081 591 L 1079 591 L 1078 590 L 1077 590 L 1074 587 L 1074 586 L 1072 584 L 1072 578 L 1073 577 L 1073 576 L 1074 575 L 1074 574 L 1075 573 L 1075 572 L 1076 571 L 1076 570 L 1077 569 L 1078 569 L 1078 568 L 1079 567 L 1080 567 L 1080 566 L 1082 564 L 1083 564 L 1084 563 Z M 900 563 L 902 563 L 903 564 L 904 564 L 906 566 L 906 567 L 907 567 L 910 570 L 910 571 L 912 573 L 912 575 L 914 577 L 914 585 L 912 587 L 912 588 L 910 590 L 908 590 L 907 591 L 905 591 L 904 590 L 903 590 L 899 586 L 899 584 L 898 583 L 898 581 L 899 580 L 899 573 L 900 572 L 900 568 L 899 567 L 899 564 Z M 882 563 L 884 563 L 891 570 L 891 571 L 893 573 L 893 574 L 895 576 L 895 586 L 891 590 L 889 590 L 888 591 L 886 591 L 885 590 L 884 590 L 880 586 L 880 576 L 881 575 L 881 564 Z M 863 563 L 865 563 L 867 565 L 868 565 L 872 569 L 872 570 L 874 572 L 874 573 L 875 574 L 875 575 L 876 576 L 876 586 L 872 590 L 865 590 L 862 587 L 862 586 L 861 585 L 861 577 L 862 576 L 862 564 Z M 1124 562 L 1125 563 L 1125 565 L 1124 566 L 1124 573 L 1125 574 L 1125 579 L 1126 580 L 1126 582 L 1125 583 L 1125 586 L 1121 590 L 1115 590 L 1111 586 L 1111 585 L 1110 584 L 1110 576 L 1112 574 L 1112 572 L 1113 571 L 1114 571 L 1114 570 L 1120 564 L 1121 564 L 1121 563 L 1122 562 Z" fill="#1f86c1" fill-rule="evenodd"/>
<path d="M 991 444 L 990 445 L 988 445 L 987 446 L 984 446 L 982 448 L 981 448 L 977 452 L 977 453 L 976 454 L 976 455 L 975 456 L 975 457 L 974 458 L 974 462 L 973 463 L 973 466 L 974 467 L 974 472 L 976 474 L 976 476 L 977 477 L 977 478 L 981 482 L 982 482 L 983 483 L 984 483 L 985 484 L 987 484 L 988 485 L 990 485 L 991 486 L 995 486 L 996 485 L 998 485 L 999 484 L 1001 484 L 1003 482 L 1005 482 L 1008 479 L 1008 478 L 1010 476 L 1010 474 L 1012 472 L 1012 458 L 1011 457 L 1011 456 L 1010 455 L 1010 454 L 1008 452 L 1008 451 L 1005 448 L 1004 448 L 1002 446 L 999 446 L 998 445 L 996 445 L 995 444 Z" fill="#1f86c1" fill-rule="evenodd"/>
<path d="M 849 401 L 849 412 L 866 412 L 867 411 L 869 411 L 872 408 L 872 405 L 868 401 Z" fill="#1f86c1" fill-rule="evenodd"/>
<path d="M 1131 386 L 1129 388 L 1129 390 L 1127 392 L 1127 393 L 1126 394 L 1126 395 L 1125 396 L 1125 397 L 1123 399 L 1123 401 L 1140 401 L 1137 398 L 1137 397 L 1135 395 L 1135 393 L 1133 391 L 1133 390 L 1132 389 L 1132 388 L 1131 387 Z" fill="#1f86c1" fill-rule="evenodd"/>
<path d="M 983 386 L 983 397 L 1004 397 L 1006 395 L 1006 394 L 1007 393 L 1007 390 L 1006 389 L 1006 388 L 1004 386 Z" fill="#1f86c1" fill-rule="evenodd"/>
<path d="M 925 386 L 925 387 L 923 389 L 923 391 L 921 393 L 921 394 L 920 395 L 920 396 L 919 397 L 919 398 L 917 400 L 917 401 L 934 401 L 933 400 L 933 399 L 931 397 L 931 396 L 930 395 L 930 394 L 929 393 L 929 392 L 927 390 L 927 389 L 925 387 Z" fill="#1f86c1" fill-rule="evenodd"/>
<path d="M 849 386 L 849 395 L 865 395 L 866 394 L 868 394 L 868 393 L 870 391 L 869 390 L 869 389 L 868 388 L 868 387 L 867 387 L 866 386 Z" fill="#1f86c1" fill-rule="evenodd"/>
<path d="M 788 305 L 787 417 L 743 418 L 743 779 L 991 890 L 1243 779 L 1243 418 L 1199 417 L 1199 306 L 1128 305 L 1126 344 L 1027 344 L 1026 305 L 960 305 L 959 344 L 860 344 L 858 305 Z M 930 499 L 930 502 L 929 503 L 929 505 L 925 509 L 923 509 L 922 510 L 916 510 L 915 509 L 913 509 L 908 504 L 908 502 L 909 501 L 918 501 L 919 500 L 922 500 L 923 499 L 926 499 L 927 498 L 929 498 Z M 1055 498 L 1056 497 L 1059 497 L 1060 498 L 1061 498 L 1062 499 L 1066 499 L 1067 500 L 1077 500 L 1078 501 L 1078 504 L 1077 505 L 1076 505 L 1076 506 L 1075 507 L 1074 507 L 1073 508 L 1072 508 L 1071 509 L 1062 509 L 1060 507 L 1059 507 L 1057 505 L 1057 503 L 1056 502 L 1056 501 L 1055 500 Z M 764 512 L 792 509 L 802 525 L 798 574 L 772 639 L 785 663 L 803 669 L 811 646 L 831 628 L 801 517 L 807 489 L 829 480 L 826 467 L 903 475 L 908 488 L 885 503 L 929 545 L 970 499 L 1016 499 L 1057 545 L 1101 503 L 1078 488 L 1086 473 L 1160 467 L 1157 480 L 1179 489 L 1185 517 L 1155 628 L 1175 646 L 1183 669 L 1201 663 L 1214 639 L 1188 574 L 1184 525 L 1200 507 L 1222 512 L 1219 567 L 1208 551 L 1210 516 L 1199 516 L 1192 529 L 1197 575 L 1223 647 L 1210 669 L 1184 677 L 1182 707 L 1197 715 L 1197 749 L 1180 759 L 1180 782 L 1056 783 L 1059 761 L 1096 738 L 1093 722 L 1065 703 L 1065 672 L 1076 651 L 1035 613 L 1001 613 L 1001 745 L 1024 729 L 1025 657 L 1057 658 L 1057 744 L 1013 800 L 973 800 L 929 743 L 929 659 L 961 657 L 962 730 L 985 745 L 985 613 L 951 613 L 910 651 L 921 672 L 921 703 L 890 730 L 893 746 L 927 761 L 931 782 L 807 783 L 806 759 L 789 749 L 789 715 L 804 707 L 802 677 L 776 669 L 763 647 L 789 574 L 794 528 L 776 516 L 778 551 L 767 567 Z M 991 436 L 996 436 L 997 437 L 1002 437 L 1003 438 L 1004 438 L 1005 439 L 1006 439 L 1007 440 L 1008 440 L 1009 441 L 1010 441 L 1017 448 L 1017 449 L 1019 451 L 1019 452 L 1021 455 L 1021 458 L 1022 459 L 1022 470 L 1021 471 L 1021 474 L 1019 477 L 1019 479 L 1016 482 L 1016 483 L 1015 484 L 1014 484 L 1014 485 L 1013 486 L 1012 486 L 1012 487 L 1011 488 L 1010 488 L 1009 489 L 1008 489 L 1007 490 L 1006 490 L 1003 492 L 1000 492 L 999 493 L 995 493 L 994 494 L 992 494 L 991 493 L 987 493 L 986 492 L 983 492 L 982 491 L 981 491 L 980 490 L 979 490 L 978 489 L 977 489 L 974 486 L 973 486 L 972 485 L 972 484 L 971 484 L 970 483 L 970 482 L 969 481 L 969 480 L 967 478 L 967 477 L 966 476 L 966 474 L 965 473 L 965 470 L 964 469 L 964 461 L 965 460 L 965 456 L 966 455 L 966 454 L 967 453 L 967 452 L 968 451 L 968 450 L 970 448 L 970 447 L 974 443 L 975 443 L 977 441 L 978 441 L 980 439 L 982 439 L 985 437 L 990 437 Z M 1108 413 L 1110 411 L 1110 409 L 1112 407 L 1112 406 L 1113 405 L 1113 404 L 1114 403 L 1114 402 L 1116 400 L 1116 398 L 1118 396 L 1118 394 L 1120 392 L 1120 391 L 1121 390 L 1121 389 L 1123 387 L 1123 386 L 1125 384 L 1125 382 L 1127 380 L 1135 380 L 1136 381 L 1136 382 L 1138 384 L 1138 385 L 1139 386 L 1139 387 L 1141 389 L 1141 390 L 1142 391 L 1142 392 L 1144 394 L 1144 396 L 1146 398 L 1146 399 L 1148 401 L 1148 403 L 1149 403 L 1150 404 L 1150 406 L 1152 408 L 1152 409 L 1153 410 L 1153 411 L 1155 413 L 1155 414 L 1156 415 L 1156 417 L 1155 418 L 1150 418 L 1148 416 L 1148 415 L 1146 413 L 1146 412 L 1145 411 L 1145 410 L 1144 409 L 1144 408 L 1143 407 L 1119 407 L 1118 408 L 1118 410 L 1116 412 L 1116 413 L 1115 414 L 1115 415 L 1114 416 L 1114 417 L 1113 418 L 1109 418 L 1108 417 Z M 1041 381 L 1042 380 L 1049 380 L 1050 381 L 1050 395 L 1074 395 L 1074 381 L 1075 380 L 1082 380 L 1084 383 L 1084 385 L 1083 386 L 1083 390 L 1084 391 L 1084 415 L 1083 416 L 1083 417 L 1082 418 L 1075 418 L 1074 417 L 1074 401 L 1050 401 L 1050 417 L 1049 418 L 1042 418 L 1041 417 Z M 974 417 L 974 381 L 975 380 L 1006 380 L 1008 382 L 1009 382 L 1014 387 L 1014 395 L 1013 396 L 1013 397 L 1012 398 L 1012 399 L 1011 400 L 1010 400 L 1007 403 L 983 403 L 983 417 L 982 418 L 975 418 Z M 902 414 L 903 413 L 903 412 L 905 410 L 905 409 L 906 408 L 906 406 L 908 404 L 908 403 L 910 401 L 910 399 L 912 397 L 912 396 L 913 395 L 913 394 L 914 393 L 914 392 L 915 391 L 915 390 L 916 389 L 916 388 L 918 386 L 918 385 L 919 384 L 919 383 L 922 380 L 929 380 L 931 382 L 931 383 L 933 385 L 933 386 L 934 387 L 934 388 L 936 390 L 936 391 L 937 392 L 937 393 L 939 395 L 939 396 L 940 397 L 940 398 L 942 400 L 942 401 L 943 402 L 943 403 L 944 404 L 944 405 L 946 407 L 946 408 L 948 410 L 948 411 L 949 412 L 949 413 L 950 414 L 950 417 L 949 418 L 944 418 L 943 417 L 943 416 L 942 415 L 942 414 L 940 412 L 940 411 L 939 410 L 939 409 L 937 407 L 914 407 L 912 409 L 912 410 L 911 411 L 911 412 L 910 413 L 910 414 L 908 416 L 908 417 L 907 418 L 903 418 L 902 417 Z M 839 381 L 840 380 L 868 380 L 869 381 L 871 381 L 874 384 L 875 384 L 876 385 L 876 388 L 877 389 L 877 391 L 876 392 L 876 394 L 873 397 L 872 397 L 873 397 L 878 402 L 878 403 L 879 404 L 879 409 L 878 410 L 878 412 L 874 416 L 872 416 L 870 418 L 840 418 L 839 417 Z" fill="#1f86c1" fill-rule="evenodd"/>
<path d="M 0 94 L 0 185 L 1999 185 L 1999 94 Z" fill="#1f86c1" fill-rule="evenodd"/>
<path d="M 901 564 L 901 567 L 902 568 L 902 572 L 901 573 L 901 577 L 900 578 L 900 581 L 899 582 L 899 583 L 900 584 L 900 585 L 901 586 L 901 587 L 903 589 L 905 589 L 906 590 L 907 590 L 908 589 L 909 589 L 912 586 L 912 584 L 913 583 L 913 580 L 912 579 L 912 576 L 911 575 L 911 574 L 909 572 L 909 571 L 908 570 L 908 569 L 907 569 L 903 565 L 902 565 Z" fill="#b48c2b" fill-rule="evenodd"/>
<path d="M 882 564 L 882 578 L 881 579 L 881 584 L 882 585 L 882 587 L 883 588 L 884 588 L 885 589 L 886 589 L 887 590 L 888 590 L 889 589 L 890 589 L 893 586 L 893 584 L 894 583 L 894 579 L 893 578 L 893 575 L 891 573 L 891 572 L 889 570 L 889 569 L 887 567 L 886 567 L 883 564 Z" fill="#b48c2b" fill-rule="evenodd"/>
<path d="M 1141 563 L 1133 571 L 1133 572 L 1131 574 L 1131 575 L 1130 576 L 1130 577 L 1129 578 L 1129 584 L 1130 585 L 1130 586 L 1131 587 L 1131 588 L 1132 588 L 1133 589 L 1134 589 L 1135 590 L 1137 590 L 1139 588 L 1140 588 L 1140 587 L 1141 586 L 1142 586 L 1142 577 L 1141 576 Z" fill="#b48c2b" fill-rule="evenodd"/>
<path d="M 1123 563 L 1121 565 L 1120 565 L 1115 570 L 1115 571 L 1114 572 L 1114 573 L 1112 575 L 1112 578 L 1111 579 L 1111 582 L 1112 583 L 1112 586 L 1113 586 L 1114 587 L 1114 588 L 1115 588 L 1116 589 L 1119 589 L 1120 588 L 1121 588 L 1123 586 L 1123 585 L 1124 584 L 1124 582 L 1125 581 L 1124 580 L 1124 579 L 1123 578 Z" fill="#b48c2b" fill-rule="evenodd"/>
<path d="M 1105 563 L 1102 566 L 1101 566 L 1096 571 L 1096 572 L 1094 574 L 1094 575 L 1093 576 L 1093 586 L 1094 586 L 1095 587 L 1095 588 L 1096 588 L 1097 589 L 1098 589 L 1099 590 L 1100 589 L 1102 589 L 1105 586 L 1105 584 L 1106 583 L 1106 580 L 1105 579 L 1105 577 L 1104 576 L 1104 564 Z" fill="#b48c2b" fill-rule="evenodd"/>
<path d="M 1086 563 L 1083 566 L 1082 566 L 1078 570 L 1078 571 L 1076 573 L 1076 574 L 1075 575 L 1075 576 L 1074 577 L 1074 585 L 1075 586 L 1075 587 L 1077 589 L 1079 589 L 1080 590 L 1081 589 L 1083 589 L 1086 586 L 1086 585 L 1087 584 L 1087 580 L 1086 579 L 1086 576 L 1085 575 L 1085 565 L 1086 564 Z" fill="#b48c2b" fill-rule="evenodd"/>
<path d="M 845 563 L 845 565 L 846 566 L 846 574 L 845 575 L 845 579 L 844 580 L 844 585 L 846 587 L 846 588 L 847 588 L 849 590 L 852 590 L 854 588 L 855 588 L 855 587 L 857 585 L 857 577 L 855 575 L 855 573 Z" fill="#b48c2b" fill-rule="evenodd"/>
<path d="M 863 562 L 863 579 L 862 580 L 862 583 L 863 584 L 863 586 L 865 588 L 866 588 L 867 589 L 870 589 L 871 588 L 872 588 L 874 586 L 874 585 L 875 584 L 875 577 L 874 576 L 874 575 L 873 574 L 873 573 L 872 572 L 872 571 Z" fill="#b48c2b" fill-rule="evenodd"/>
<path d="M 929 499 L 927 499 L 925 501 L 920 501 L 919 502 L 908 502 L 908 503 L 909 503 L 910 504 L 910 505 L 911 505 L 912 506 L 912 507 L 913 507 L 914 508 L 915 508 L 916 509 L 922 509 L 923 508 L 924 508 L 928 504 L 928 503 L 929 502 Z" fill="#b48c2b" fill-rule="evenodd"/>
<path d="M 1057 498 L 1057 502 L 1058 503 L 1058 504 L 1061 507 L 1063 507 L 1064 508 L 1069 508 L 1070 507 L 1072 507 L 1074 505 L 1075 505 L 1076 504 L 1076 503 L 1078 501 L 1064 501 L 1063 500 L 1062 500 L 1061 499 L 1058 499 Z" fill="#b48c2b" fill-rule="evenodd"/>
<path d="M 766 511 L 767 566 L 776 554 L 774 517 L 786 514 L 795 525 L 789 579 L 764 643 L 776 667 L 804 677 L 806 705 L 791 715 L 791 749 L 806 756 L 808 781 L 930 780 L 923 758 L 891 746 L 889 728 L 919 705 L 921 678 L 910 649 L 952 611 L 987 612 L 987 745 L 961 731 L 961 658 L 931 658 L 931 749 L 973 799 L 1013 799 L 1055 749 L 1055 658 L 1025 658 L 1025 731 L 999 745 L 1001 611 L 1035 611 L 1077 651 L 1065 697 L 1070 711 L 1093 720 L 1097 741 L 1063 758 L 1057 781 L 1178 781 L 1180 756 L 1195 749 L 1195 715 L 1180 705 L 1182 678 L 1210 667 L 1222 643 L 1197 580 L 1191 525 L 1200 514 L 1212 517 L 1210 554 L 1219 566 L 1220 511 L 1198 509 L 1186 522 L 1188 568 L 1215 640 L 1202 664 L 1183 671 L 1154 628 L 1184 517 L 1175 486 L 1156 480 L 1159 469 L 1085 475 L 1080 489 L 1101 505 L 1057 546 L 1015 500 L 971 500 L 929 546 L 885 505 L 906 489 L 901 475 L 827 469 L 830 480 L 811 486 L 802 517 L 832 628 L 803 670 L 784 664 L 771 640 L 795 580 L 800 522 L 788 509 Z M 938 664 L 955 665 L 955 733 L 975 752 L 1011 752 L 1031 733 L 1031 665 L 1032 664 L 1049 665 L 1048 752 L 1010 794 L 997 793 L 997 771 L 993 767 L 989 771 L 989 793 L 976 794 L 938 752 L 937 748 L 937 665 Z M 1082 658 L 1085 658 L 1090 663 L 1091 663 L 1118 689 L 1120 690 L 1120 706 L 1121 707 L 1121 713 L 1123 713 L 1124 712 L 1135 713 L 1141 716 L 1146 721 L 1146 722 L 1148 723 L 1150 727 L 1150 732 L 1151 733 L 1151 735 L 1150 736 L 1150 741 L 1146 747 L 1142 751 L 1140 751 L 1137 754 L 1134 754 L 1130 756 L 1121 756 L 1116 762 L 1116 764 L 1114 768 L 1114 774 L 1113 775 L 1064 775 L 1063 774 L 1063 770 L 1065 766 L 1071 760 L 1074 758 L 1076 758 L 1079 756 L 1082 756 L 1085 754 L 1093 754 L 1097 752 L 1099 750 L 1104 739 L 1104 729 L 1099 717 L 1098 717 L 1097 715 L 1093 712 L 1093 711 L 1084 707 L 1076 707 L 1074 704 L 1074 699 L 1073 698 L 1073 693 L 1072 692 L 1072 686 L 1073 685 L 1074 673 L 1076 670 L 1076 667 L 1079 661 Z M 904 658 L 907 661 L 910 667 L 910 670 L 912 673 L 912 678 L 913 679 L 913 684 L 914 685 L 914 693 L 913 694 L 913 698 L 912 699 L 912 704 L 910 707 L 902 707 L 893 711 L 893 712 L 891 713 L 888 717 L 887 717 L 882 729 L 882 739 L 887 750 L 889 752 L 893 754 L 901 754 L 904 756 L 907 756 L 915 760 L 921 766 L 923 770 L 923 774 L 922 775 L 873 775 L 872 774 L 872 768 L 871 767 L 870 762 L 865 756 L 856 756 L 852 754 L 849 754 L 840 747 L 836 741 L 836 737 L 835 736 L 836 727 L 838 723 L 843 718 L 844 718 L 845 716 L 851 713 L 855 713 L 856 712 L 862 712 L 863 713 L 865 713 L 865 707 L 866 706 L 866 690 L 868 689 L 895 663 L 896 663 L 901 658 Z M 995 542 L 996 541 L 1010 541 L 1013 544 L 1013 545 L 1017 549 L 1017 550 L 1025 558 L 1025 559 L 1028 562 L 1028 563 L 1029 564 L 1029 567 L 1028 568 L 1027 568 L 1025 570 L 1024 570 L 1021 573 L 1020 573 L 1017 576 L 1016 576 L 1015 577 L 1014 577 L 1014 578 L 1013 579 L 1009 579 L 1007 577 L 1006 577 L 1004 575 L 1002 575 L 1000 573 L 999 573 L 997 571 L 996 571 L 995 570 Z M 990 541 L 991 542 L 991 570 L 990 571 L 989 571 L 987 573 L 986 573 L 984 575 L 982 575 L 980 577 L 979 577 L 977 579 L 973 579 L 972 578 L 972 577 L 971 577 L 970 576 L 969 576 L 967 574 L 966 574 L 962 570 L 961 570 L 959 568 L 958 568 L 957 567 L 957 563 L 962 558 L 962 557 L 969 550 L 969 549 L 973 545 L 973 544 L 975 542 L 976 542 L 977 541 Z M 937 549 L 938 547 L 946 539 L 946 538 L 949 535 L 949 534 L 957 526 L 957 525 L 961 521 L 961 520 L 969 512 L 969 511 L 972 508 L 973 506 L 1012 506 L 1025 520 L 1025 521 L 1029 525 L 1029 526 L 1037 534 L 1037 535 L 1041 539 L 1041 540 L 1048 547 L 1049 549 L 1049 551 L 1044 556 L 1040 558 L 1037 561 L 1035 561 L 1033 559 L 1033 558 L 1025 550 L 1025 549 L 1022 546 L 1022 545 L 1012 535 L 974 535 L 964 545 L 964 546 L 961 549 L 961 550 L 953 558 L 953 559 L 951 561 L 949 561 L 946 558 L 942 556 L 937 551 Z M 815 490 L 830 487 L 846 494 L 863 493 L 842 484 L 837 474 L 892 477 L 901 486 L 884 493 L 878 505 L 888 516 L 897 517 L 898 523 L 865 524 L 851 514 L 853 522 L 864 530 L 900 531 L 974 586 L 992 576 L 1012 586 L 1086 531 L 1122 530 L 1137 518 L 1133 514 L 1121 524 L 1089 524 L 1088 518 L 1101 514 L 1108 500 L 1088 489 L 1088 480 L 1112 473 L 1149 474 L 1144 484 L 1123 493 L 1169 488 L 1176 500 L 1176 524 L 1146 631 L 1171 653 L 1176 668 L 1174 703 L 1177 712 L 1189 719 L 1189 742 L 1174 753 L 1172 774 L 1121 774 L 1124 761 L 1138 760 L 1150 752 L 1155 726 L 1146 713 L 1127 707 L 1126 688 L 1039 607 L 950 605 L 860 688 L 858 708 L 848 709 L 834 720 L 831 744 L 840 756 L 862 761 L 865 774 L 815 775 L 812 753 L 797 742 L 797 719 L 809 712 L 812 703 L 810 668 L 815 653 L 840 631 L 810 524 L 809 506 Z" fill="#b48c2b" fill-rule="evenodd"/>
<path d="M 991 437 L 990 438 L 987 438 L 986 439 L 983 439 L 981 441 L 979 441 L 977 443 L 976 443 L 972 447 L 972 448 L 969 451 L 969 452 L 967 454 L 967 457 L 966 458 L 966 460 L 965 461 L 965 469 L 966 470 L 966 472 L 967 473 L 967 475 L 968 476 L 968 477 L 969 478 L 969 479 L 972 482 L 972 483 L 975 486 L 976 486 L 978 488 L 979 488 L 980 489 L 981 489 L 982 490 L 984 490 L 985 491 L 986 491 L 987 492 L 999 492 L 1000 491 L 1002 491 L 1003 490 L 1005 490 L 1007 488 L 1008 488 L 1010 486 L 1011 486 L 1016 481 L 1016 480 L 1018 478 L 1018 477 L 1019 476 L 1019 474 L 1020 473 L 1020 471 L 1021 470 L 1021 460 L 1020 459 L 1020 457 L 1019 456 L 1019 454 L 1018 453 L 1018 452 L 1017 451 L 1017 450 L 1010 443 L 1009 443 L 1008 442 L 1008 441 L 1006 441 L 1004 439 L 1000 439 L 999 438 L 996 438 L 995 437 Z M 988 443 L 998 443 L 999 444 L 1000 444 L 1001 445 L 1002 445 L 1003 446 L 1004 446 L 1006 448 L 1007 448 L 1008 449 L 1008 450 L 1009 450 L 1010 451 L 1010 452 L 1011 453 L 1011 454 L 1012 455 L 1012 456 L 1013 457 L 1013 459 L 1014 460 L 1014 470 L 1013 471 L 1013 472 L 1012 473 L 1012 475 L 1010 477 L 1010 478 L 1004 484 L 1003 484 L 1002 485 L 1001 485 L 1000 486 L 997 486 L 996 487 L 990 487 L 989 486 L 986 486 L 985 485 L 984 485 L 983 484 L 982 484 L 976 478 L 976 477 L 974 475 L 974 473 L 973 472 L 973 471 L 972 470 L 972 460 L 973 459 L 973 457 L 974 456 L 974 454 L 976 452 L 976 451 L 977 450 L 978 450 L 978 449 L 979 448 L 980 448 L 982 446 L 983 446 L 984 445 L 985 445 L 986 444 L 987 444 Z" fill="#b48c2b" fill-rule="evenodd"/>
<path d="M 778 297 L 778 408 L 734 409 L 734 785 L 992 900 L 1251 785 L 1252 409 L 1208 408 L 1208 297 L 1118 297 L 1117 335 L 1037 335 L 1035 297 L 951 297 L 949 335 L 869 335 L 868 297 Z M 788 304 L 858 304 L 860 342 L 959 342 L 960 304 L 1026 304 L 1027 342 L 1126 342 L 1128 304 L 1200 306 L 1200 417 L 1244 418 L 1242 781 L 991 891 L 742 779 L 742 418 L 786 417 Z" fill="#b48c2b" fill-rule="evenodd"/>
</svg>
