<svg xmlns="http://www.w3.org/2000/svg" fill-rule="evenodd" viewBox="0 0 1200 800"><path fill="#0093dd" d="m0 0h1200v800h-1200z"/><path fill="#d81e05" d="M0 0 1200 0 0 800z"/><path fill="#fff" d="m0 800v-160l1200-640v160z"/><path d="m136.92 104.01c2.626 2.282 6.276 6.73 6.846 9.81 7.07 1.141 12.777 5.704 17.911 10.839 7.07.227 14.602-.914 19.736 3.763 6.844 3.537 13.12 8.557 20.991 9.583 11.523 1.028 23.844.684 35.14-.228 7.07-.229 12.777 1.483 19.17 3.308 9.01 3.082 20.08 3.082 30.12 2.167 8.213.685 37.989 2.395 42.32 13.12 2.281 1.825 4.335 4.107 6.958 5.248 2.282.913 1.939 3.879 4.336 4.792 8.1 8.557 28.29 17.684 37.761 5.818 2.51-3.08 1.141-8.213 1.369-12.32-10.04-20.19-41.868-23.844-61.15-21.562-6.731.228-13.234 1.825-20.308 1.369-12.435 0-32.28 2.168-43.807-3.423-6.844-2.966-13.01-5.818-20.535-7.872-14.831-4.449-10.155-20.42 2.623-20.42 17.911-7.07 35.594 13.348 50.767 7.872 9.01 0 17.226-2.282 26.353-1.711 10.724-2.055 20.992.57 31.715.684 25.326 5.249 57.954 15.516 62.973 45.976 3.765 26.24-25.1 49.741-50.765 41.18 2.053 9.469 10.494 31.943 21.1 35.936 4.792 2.966 11.294 1.141 15.628 5.134 3.537 9.354 6.276 19.17 11.523 28.18.57 4.677-12.09 21.332-14.374 28.18h-53.846c-4.906-6.731 4.449-23.386 3.308-21.333 3.879-5.133 9.241-9.01 15.06-10.61-1.939-1.597-3.08-5.133-6.05-4.792-7.643-5.931-17.11-8.213-24.07-15.515-.798 1.026-2.167 2.053-2.167 2.851-6.617 7.873-3.652 20.422-12.321 27.27-11.07 3.992-13.234 15.4-19.851 21.333h-99.37c-1.598-14.716 4.905-26.24 19.05-29.776.228-.569.914-1.369.113-1.938-5.476-4.449-12.32-17.685-18.709-20.19-4.563 6.731-5.477 13.578-10.495 19.623-5.705.8-11.294 4.792-16.429 7.985-10.722 6.161-11.978 17.341-15.06 25.1-1.369 1.028-2.966.343-4.905.343h-57.726c.457-16.998 11.523-29.09 28.52-31.14 3.652-9.241 14.262-14.602 18.254-23.73 2.167-9.469 3.765-18.824 7.53-27.608-12.548-5.361-25.44-19.16-31.602-31.487-3.651-2.396-8.213-3.536-11.07-7.3-5.476.115-14.602-5.134-19.05-3.082-3.88.343-8.557.686-11.98-1.026-5.933 2.167-11.637-19.963-3.88-25.21 3.994-2.396 9.698.912 13.12-2.054-7.528-1.938-15.402 4.793-22.13-3.879-2.851-3.536 1.826-7.415-1.256-10.723-6.387-.8-5.02-12.549-.341-15.515 2.966-.8 5.705-2.054 8.898-1.826 2.51-1.597 4.906-3.308 7.985-3.651 10.724.569 16.429-11.979 28.18-8.784 5.59.684 11.751.913 17.569.569 5.02-3.194 16.2-5.818 20.306.686m134.73 117.05c-2.623 9.697 2.168 24.07 5.02 33.426-4.335 4.564-8.897 9.697-15.06 12.891-3.763.457-8.213 1.598-11.75 2.967-.57-7.302 1.825-15.402-4.677-19.28-3.993-6.389-9.241-15.06-11.295-22.474 14.261-.684 25.897-6.274 37.761-7.53"/><path fill="#ffd700" d="m142.81 260.6c0 .34 0 .569-.344.912-4.449-.8-7.299.913-5.59-4.221l5.934 3.309m-2.167-8.9c4.22 3.879 9.581 4.449 14.03 6.389-.797 3.423-13.348-1.369-15.06-2.966-.115-1.482 1.026-5.02 1.026-3.423m150.36-2.167l4.337.343c-2.968 1.939-7.07 1.483-10.839 1.825v-2.396c.228.115 5.134-2.282 6.502.229m-74.04-4.221l-6.161 6.05c-2.282-.229-2.282.115-2.282-2.396 1.028-.343 1.597-.913 2.738-1.026v-.57c2.282-.115 3.537-2.511 5.705-2.739v.685m-73.24-1.483c2.282.798 5.02.685 7.302 1.483 4.792 2.51 11.18 5.248 16.09 8.898-6.39-2.054-14.49-5.476-21.79-4.449-3.423-.913-3.994-3.765-3.308-6.959.798 0 1.253.57 1.71 1.026m157.89 1.141c-5.134.229-16.2.912-19.964-2.851l.112-1.483c7.645-.684 13.235 3.194 19.852 4.335m46.887-7.643c-1.597 2.851-11.295 8.328-13.803 5.818 2.167-1.711 10.723-5.933 13.803-5.818m-129.94-1.141c.912 2.966-11.637 8.441-15.06 8.441-.798-.798-.798-1.939-1.938-2.395 1.368-1.254 3.422.113 5.133-.57 4.335-.457 8.443-2.624 11.865-5.476m-64 2.624c2.509 0 12.435 7.3 15.06 8.898v.569c-8.099-5.246-17.34-6.274-25.782-10.153.228-.913.228-1.825.684-2.51 3.993-.341 7.53.228 10.04 3.195m55.671-5.818c-2.966 2.509-8.328.115-10.839 2.851-1.026-.228-.912.912-1.596 1.141-2.053 0-6.162-.456-7.07-2.396 2.053 0 3.993-.455 6.05-1.254 4.449-.341 9.01-.57 13.461-1.141v.8m136.56-3.765c0 .113.113.228.227.343-2.167.798-4.791 1.254-6.844 2.623-2.738.685-4.677 2.852-7.07 3.993-2.396 1.141-5.02-.229-7.531-.457v-.569c7.645-2.739 13.12-5.362 21.22-5.933m-56.13 1.026c3.08.343 13.803 2.624 16.2 5.02-9.01-3.765-18.367 1.368-26.81-3.082-2.966-5.248 9.356-2.282 10.61-1.939m-132.11-2.167c4.108 2.624 7.985 6.617 11.865 9.126-7.645-2.738-16.429-6.844-24.529-8.213-.343-8.1 9.583-1.483 12.664-.913m128.57-5.933c4.905 1.141 9.925 3.993 15.06 5.362-6.504.228-11.98-2.852-18.824-1.939-.457-.343-5.818-2.167-3.308-4.107 2.624-.228 4.564 1.026 7.07.684m-126.52 1.028c2.852 1.369 5.363 2.966 8.443 3.992l-.228.115c5.02 3.992 10.382 8.213 15.628 11.636-.684 3.08-2.851 6.389-5.133 9.126-1.711 3.195-2.281 7.53-3.879 10.838-12.207 3.08-31.372 18.02-32.512 32.515l-48.601.228c-1.026-7.644 10.724-12.55 15.516-14.945 2.396-1.028 5.248-.8 7.644-1.598 6.617-9.469 17.454-18.14 21.789-28.18 1.711-8.099 3.88-16.884 6.617-24.756-.797-4.335 13.576.684 14.716 1.028m182.42-2.852c-1.598 1.711-4.678-.115-6.502 2.282-3.88 2.167-7.76 4.22-11.409 7.187-2.967.798-4.905-1.028-7.416-1.939 7.07-3.993 17.341-7.303 25.328-8.1v.57m-132.79-1.826c-2.51 2.511-7.871 2.167-10.495 4.564-3.992 1.026-12.549 13.918-17.57 7.07-.797-.228-2.167-.341-2.167-1.14 4.678.341 8.1-2.739 11.98-4.336v-.57c5.246-2.623 12.549-4.678 18.253-5.59m128.11-4.564c-2.965 1.485-6.844 1.256-9.697 3.423-5.362.913-8.327 6.161-13.576 7.07-.341-.798-5.133-.228-5.362-2.851 5.705 1.14 8.215-4.906 13.12-5.706 5.361-.341 10.267-1.939 15.514-2.622v.683m-133.48-2.965c-1.711.797-3.082 1.369-5.249 1.596-5.933 3.308-11.863 7.873-17.341 12.208-2.053.913-9.01 1.026-9.01-2.395 2.966.798 15.172-8.444 18.71-9.813 3.992-.34 8.669-1.368 12.892-1.596m125.83-4.108c-10.61-.685-14.489 12.777-25.554 9.926-1.369-.686-3.423-.228-4.564-1.141 2.282-1.483 6.275-.343 8.215-3.422 6.959-2.968 13.918-5.59 21.904-5.705v.341m-140.44-2.167c-1.368.8-4.448 1.941-5.589 2.623-3.764 2.739-5.705 7.987-10.154 10.383-3.194 1.369-6.617 0-9.696-.913 0-2.167 22.587-12.892 25.553-13.349.914.343-.115.8-.115 1.256m-26.01-11.295c-2.167 4.793-4.677 14.831-8.441 18.14-2.51 1.254-4.565-.569-5.477-.228 3.651-3.535 5.818-7.415 9.926-11.295-.115-1.824 2.509-5.589 3.537-6.844l.455.228m-9.696-6.502c-.8 3.308-1.826 6.959-2.739 10.267-3.308-.343-6.959 7.53-9.241 9.811-2.396.228-5.246.228-6.273-2.282 6.617-.913 15.06-16.656 19.507-21.562-.685 1.141-.115 3.08-1.254 3.765m150.02 7.872c6.959.455 21.676.569 27.04 5.932-8.443-.913-17.228.456-25.441 1.141-3.651-1.597-6.959-3.993-10.497-5.589-1.14-.572-8.897-15.631-8.213-14.375 6.732 7.416 7.987 10.04 17.11 12.892m-161.54-17.11c-1.026 6.731-9.469 23.615-17.341 15.743 9.01-3.536 11.864-7.985 16.769-15.743h.572m54.759-.685c3.08 2.396 4.677 6.275 7.985 8.1 5.133 4.222-.685 9.126-.343 12.892-2.053-.228-2.167-5.361-2.281-6.731 1.597 0-5.819-13.576-5.934-14.261h.572m125.72-4.449c.797 3.765 1.597 8.329 3.194 12.09-6.846-6.389-10.267-10.495-11.863-20.535 2.85 2.509 7.414 3.65 8.669 8.441m-73.925-9.354c3.422 6.05 4.563 11.407 6.958 17.226 0 8.213 8.67 14.03 4.792 22.818-.798-6.847-4.449-10.382-8.215-15.516-3.878-5.134-2.394-18.02-3.878-24.528h.343m-31.03.113c.34 3.423 2.167 5.59 3.991 8.9 3.195 7.415 4.793 15.743 2.626 24.07-.798 2.851-1.713 5.476-2.054 8.212-.685-4.904.456-10.722-1.026-15.4-1.369-9.811-4.564-18.824-4.792-28.52 1.256.115.684 1.938 1.256 2.737m89.67.8c2.395 6.389 4.791 13.12 9.24 18.595-3.992-2.51-7.07-4.791-11.179-7.415-2.167-5.476-5.818-10.04-9.126-15.402-.344-.456-1.256-.228-1.485-1.026 5.02-.115 9.128 1.826 12.55 5.248m-21.448-5.134c1.825 1.141 6.502 2.854 6.161 6.05 0 2.51 3.536 17.226 8.1 17.226 0 1.254 6.274 5.476 7.07 7.528-13.917-7.528-19.28-12.548-23.957-27.27 0-.113-4.678-4.106-4.564-4.791 2.967-.798 4.792 1.141 7.188 1.254m-16.656-.913c1.939.913 3.764 2.282 5.705 3.423 1.71.57 4.904 25.555 3.763 29.21-1.938-4.449-3.308-9.697-6.617-13.576-1.483-5.248-2.053-10.837-3.878-15.744-1.141-2.053-3.651-2.395-4.45-4.563 2.168-.343 3.309 1.483 5.477 1.254m-11.751-1.14c4.335 2.281 6.844 14.831 8.1 19.963 1.483 3.423 3.765 5.819 5.248 9.356.228 3.765-.684 7.531.912 11.294l-.798-.113c-3.079-10.381-13.233-18.938-13.346-29.32-1.369-3.992-5.249-11.75-9.241-13.348 3.651-.57 6.05 1.483 9.126 2.168m-154.81 9.469c-2.396.569-4.793 2.623-7.644 1.939 5.02-4.449 8.898-10.04 12.321-15.516-.115 5.134-1.825 9.697-4.677 13.577m95.94-15.516c14.49 2.51 49.06-7.756 46.661 16.884-4.108 8.329 5.134 13.577 1.939 22.02-1.939-2.737-2.51-9.24-5.933-11.863-3.423-5.249.229-11.296-.343-17.341-2.053-2.167-2.053-6.275-6.389-5.477-9.81 8.9 3.308 22.93-1.824 32.17.112 3.309-1.713 6.504-.914 9.583-.684-4.792-.227-10.495-.341-15.857-4.678-8.443-7.644-15.287-12.322-23.272-2.167-2.852-2.509-1.711-4.563-2.054-8.556 11.07 4.905 21.905.685 34.11-.912-4.22-2.053-8.669-3.993-12.548-6.617-5.705-.456-19.17-10.382-21.905-4.905 2.624-4.106 14.262-1.71 18.14-3.88 0-5.362-18.594-6.275-21.22-.228-2.282-3.08-1.37-3.651-3.423 3.082.913 6.05 1.939 9.354 2.053m-63.31-2.281c-2.167 7.3-20.535 38.446-29.776 25.21 13.689-3.308 21.561-13.462 28.861-24.869.343-.115.57-.457.914-.343m44.491-3.195c9.01 6.617 5.476 9.354 2.623 18.482 0 4.22 2.852 7.3 3.196 11.408-.685 6.617-3.652 12.206-6.618 17.796-.684 6.846-7.987 9.47-10.838 15.288h-.57c1.711-6.05 8.328-9.356 9.354-15.63 1.026-5.02 2.167-10.04 2.967-15.287 0-8.557-7.872-3.651-10.838 0-.229-2.167 1.826-3.536 2.167-5.59 6.844-5.818 8.215-18.14 7.757-26.467h.798m-5.476-3.879c.341 1.254 2.167 1.598 1.826 3.308.912 1.026-.229 2.624-.344 3.651-4.449 5.476-7.3 12.891-10.381 19.17 0 2.738-3.993 11.979-7.415 12.207 3.194-8.213 5.59-17.11 9.469-25.554 1.597-5.704 2.623-8.556-2.51-11.751-2.167 10.838-8.785 26.581-15.857 35.02h-.685c1.826-3.651 8.328-19.05 6.503-23.274-2.852-.684-2.738 3.764-5.477 3.08-1.026-2.738 5.705-16.313 7.07-18.481 5.249-4.108 13.12-.115 17.797 2.623m-89.44-1.825c4.792 4.335 7.07 13.233 1.026 17.682 0 5.818-14.15 3.08-16.998 3.08v-.57c5.248-.228 14.374-1.256 16.09-7.53.455-3.536 1.938-8.785-2.282-11.07-2.168-1.939-4.45-3.536-7.302-3.878-2.282-2.282 9.125 2.167 9.469 2.282m10.837-4.222c3.993 8.1 2.624 13.463-3.763 19.851-1.941-1.939 6.502-13.346-2.17-18.253-2.507-2.167-8.555-4.564-11.75-3.651v-.798c7.07 1.141 10.838-3.765 17.682 2.851m53.733-1.825c2.852 4.335-.341 15.174-3.308 18.938-1.71-.228-.456-2.281-1.026-3.309-.912 1.941-9.583 16.886-11.636 16.886-.57-3.765 7.871-17.226 8.099-22.362 1.256-2.395 2.396-13.574-.113-15.743h.8l7.186 5.59m-40.612-6.274c2.51 4.107 3.422 7.3 5.133 11.523h.8c-.686 3.763.797 16.199-3.082 18.937-1.71-2.395 2.852-15.402-2.623-17.226-2.51 2.396-4.108 5.361-5.591 8.215-.569.455-1.482 0-1.938.684.228-1.256 2.395-7.985 2.852-8.669.341-4.222-.343-11.637 1.938-14.946.457.913 1.711.913 2.511 1.483m28.863-.57c0 4.22-4.108 12.777-6.161 16.997-6.844 4.906-12.892 21.79-20.992 23.274 10.153-7.985 8.443-17.454 12.09-28.18 5.476-4.45 7.187-12.322 6.502-1.369.685-.115 1.028.912 1.598.341 3.079-3.08.569-9.01 3.65-12.664 1.597-.569 3.309-.341 3.309 1.598m-59.21-.913l.343.57c-5.589 3.195-11.294 5.818-16.884 9.811 0-.685-.685-2.282.569-2.624 5.59-2.053 8.329-10.837 15.516-8.784l.456 1.026m44.38-9.126c-.456 5.02-2.623 8.215-6.846 10.61-.341-4.45 4.677-7.872-.798-12.777.457-1.941 7.302-1.256 7.644 2.167m6.161.569c-.229 4.678 1.938 11.752-3.993 15.06-2.281 0-3.993.113-4.449-2.852 2.738-6.275 6.389-10.381 3.764-17.226 3.308-.115 3.082 3.194 4.678 5.02m-1.939-9.696c2.624 2.966 6.05 5.59 6.159 9.582-.227.113-.569-.115-.798.228.913.115.686 1.141.913 1.598 4.563 1.825 9.926 1.256 13.349 5.476 3.422 1.141 5.818 5.134 9.126 6.844 5.133.457 10.722-.113 15.628 1.141 21.11 15.63 38.559 13.01 63.43 12.09 7.757-.228 15.515 2.395 22.702 4.564 7.871 1.71 17.11 1.253 25.441.798 8.669.684 18.14 1.71 26.694 3.651v.569c9.354.8 10.839 9.583 18.824 13.12.798.797.798 2.623 2.167 2.623 11.523 13.12 23.386 14.831 40.27 13.918 2.737-2.167 10.154-4.678 10.609-9.01 3.88-2.851 3.196-14.602 1.826-17.91-1.482-10.495-21.561-20.878-30.802-24.528-8.328-1.256-16.884-2.167-25.44-2.852-22.703-.913-56.36 8.556-76.55-2.51-7.303-2.51-15.402-5.362-22.13-8.67 1.369-4.905 14.49-4.221 18.02-4.221 12.09 2.739 25.669 12.09 38.675 8.557 19.279-2.395 41.868-3.195 61.15-.115 19.395 4.792 43.24 13.348 49.856 34.34 6.387 22.359-17.456 43.12-39.93 37.418-5.477-.456-10.154-2.396-15.172-4.107.343 5.133 4.106 9.582 6.05 14.716 2.394 11.523 8.556 26.582 17.91 34.34.913 5.02 16.656 7.872 20.535 8.672 0 8.213 6.05 17.682 9.01 24.756-2.396 6.161-8.898 11.522-10.495 18.482l-43.01.228c.228-12.549 12.548-19.736 24.07-19.851.456-.229.115-.685.229-1.026-3.309-3.994-8.215-9.241-10.839-13.462-9.469-4.107-17.454-10.154-26.24-15.402-2.167-1.483-2.852-3.765-4.677-5.476-5.02-3.879-9.925-7.644-14.489-12.777-23.04-14.602-41.869-12.778-66.966-4.221-6.159 1.597-12.664 1.597-17.91.685-1.713-2.282-2.054-5.135-3.195-7.643.341-2.055-2.167-2.511-3.308-3.994-5.59-1.596-11.295-6.389-15.972-10.724 1.483.914 1.028 4.222 3.08 4.792 2.51 3.537 6.274 5.705 9.47 7.872 1.368.115 2.509.57 3.308 1.711.113 6.617 3.648 11.408 4.677 17.911 5.818 8.898 8.1 20.877 16.199 28.521 0 6.274-1.939 24.64 2.054 29.661 1.482-.228 2.282-2.053 3.195-3.194 2.281-5.249 10.495-11.523 16.655-10.611 1.941.229 19.05-13.348 22.246-16.541-1.026-5.933-4.791-11.637-5.704-18.14.343-7.187-3.993-14.489 0-20.877-2.282-6.161 29.548 6.275 29.776 6.389.798.685 12.435 11.18 12.32 12.207-2.282 1.825-1.824 5.02-4.677 6.274-3.992 6.39-7.871 16.428-8.669 24.415-2.396 3.993-6.731 4.792-7.531 5.476-6.731 5.02-7.643 12.663-14.14 17.454h-87.73c4.222-16.09 12.55-14.259 18.03-17.11 1.026-2.966 4.449-9.356.227-10.838-4.905-5.362-9.241-12.207-14.831-17.226-2.053-3.764-6.159-5.477-9.353-7.872-9.47-4.564-16.429-9.354-23.16-17.228-8.672-5.476-18.482-7.643-27.608-11.748-8.215-5.478-14.15-12.09-21.561-18.596l-5.249-10.838c-4.107-2.738-9.468-3.764-12.09-8.328-4.677-2.168-10.267 0-14.262-3.993 2.396-1.256 9.241-4.22 9.241-7.187-.912-.57-1.596-2.054-3.079-1.597-5.248 6.387-20.992 14.374-27.494 5.133 1.026-2.51-.457-5.362 0-8.328.569 0 1.026.115 1.483-.113-.457-.343-1.028-.229-1.483-.457-.344-1.369.456-2.281 1.483-3.194 1.481 1.026-.457 5.02 2.851 3.879 1.938 2.395 11.864-2.624 12.32-5.705 5.02-17.11-15.06-7.643-22.702-10.723 1.254-3.879.685-4.336.115-7.187 4.563-2.51 5.933-5.933 5.476-11.07 10.838-6.731 24.413 2.738 35.594 2.738-1.597-5.476 1.141-5.361-5.02-7.757-4.792.913-9.926.913-15.06.913 1.141-.569 3.764-5.361 6.05-5.248 3.195-2.852 24.413-.913 28.633-.798 2.055-1.256 3.993-2.51 6.504-2.738 1.596-1.711 3.65.456 5.704 0m-67.766 13.12c0 3.195-3.764 9.583-7.187 5.933h.115c-.115-1.141-.57-2.396-.57-3.992.913-2.055 5.818-3.195 7.643-1.941m12.321 22.362c-1.482.455-1.256-1.141-2.167-1.713-.798 1.369.228 3.536-.913 5.02-1.483-.798-2.167-2.739-2.966-4.107-1.597.684-.913 2.622-1.711 4.107-1.37-.572-3.194-3.994-3.194-5.362l11.408-.457c.113.798 0 1.825-.457 2.511m7.07 4.677c-1.483 3.079-4.107 6.73-8.215 6.73 0-4.677 3.308-6.73 8.215-6.73"/></svg>