<?xml version="1.0" encoding="UTF-8" standalone="no"?>
<!-- Generator: Adobe Illustrator 12.0.1, SVG Export Plug-In . SVG Version: 6.00 Build 51448)  -->

<svg
   xmlns:dc="http://purl.org/dc/elements/1.1/"
   xmlns:cc="http://creativecommons.org/ns#"
   xmlns:rdf="http://www.w3.org/1999/02/22-rdf-syntax-ns#"
   xmlns:svg="http://www.w3.org/2000/svg"
   xmlns="http://www.w3.org/2000/svg"
   xmlns:sodipodi="http://sodipodi.sourceforge.net/DTD/sodipodi-0.dtd"
   xmlns:inkscape="http://www.inkscape.org/namespaces/inkscape"
   version="1.1"
   id="Layer_2"
   width="860"
   height="450"
   viewBox="0 0 859.99998 450"
   overflow="visible"
   enable-background="new 0 0 224.167 401.733"
   xml:space="preserve"
   inkscape:version="0.48.1 "
   sodipodi:docname="Flag of Aracinovo Municipality.svg"
   style="overflow:visible"><metadata
   id="metadata13"><rdf:RDF><cc:Work
       rdf:about=""><dc:format>image/svg+xml</dc:format><dc:type
         rdf:resource="http://purl.org/dc/dcmitype/StillImage" /><dc:title /></cc:Work></rdf:RDF></metadata><defs
   id="defs11" /><sodipodi:namedview
   pagecolor="#ffffff"
   bordercolor="#666666"
   borderopacity="1"
   objecttolerance="10"
   gridtolerance="10"
   guidetolerance="10"
   inkscape:pageopacity="0"
   inkscape:pageshadow="2"
   inkscape:window-width="1280"
   inkscape:window-height="738"
   id="namedview9"
   showgrid="false"
   inkscape:zoom="0.64968524"
   inkscape:cx="689.61747"
   inkscape:cy="105.23142"
   inkscape:window-x="-8"
   inkscape:window-y="-8"
   inkscape:window-maximized="1"
   inkscape:current-layer="Layer_2" />



<g
   id="g3805"
   transform="matrix(1.0067511,0,0,1.0311418,778.06974,-19.889509)"><rect
     ry="0"
     y="13.852864"
     x="-777.2995"
     height="444.83081"
     width="863.49506"
     id="rect2990"
     style="fill:#ff0000;fill-opacity:1;fill-rule:nonzero;stroke:none" /><g
     transform="matrix(0.82846174,0,0,0.65445684,-426.3738,107.74517)"
     id="g3760"><polygon
       style="fill:#ff0000;stroke:#000000;stroke-width:4"
       points="112.487,398.905 222,289.392 222,2 2,2 2,288.846 2.486,288.905 "
       id="polygon3" /><polygon
       style="fill:#ffdf00;stroke:#000000;stroke-width:4"
       points="97.911,281.304 97.911,282.087 111.982,281.696 126.088,282.087 126.088,281.304 191.825,279.478 222.167,258.718 222.167,257.48 219.775,257.48 219.775,165.043 211.088,165.043 211.088,177.043 189.35,177.043 189.35,165.043 165.52,165.043 165.52,150.043 143.52,150.043 143.52,102.087 158.78,102.087 158.78,86.435 171.825,86.435 171.825,69.043 143.127,69.043 143.127,82.087 127.477,82.087 127.477,68.174 96.524,68.174 96.524,82.087 80.872,82.087 80.872,69.043 52.177,69.043 52.177,86.435 65.22,86.435 65.22,102.087 80.48,102.087 80.48,150.043 58.48,150.043 58.48,165.043 34.65,165.043 34.65,177.044 12.911,177.044 12.911,165.043 4.039,165.043 4.039,260.227 32.177,279.478 "
       id="polygon5" /><path
       inkscape:connector-curvature="0"
       d="m 2.486,288.905 110,110 109.942,-109.942 v -55.154 c -13.765,33.236 -36.906,44.148 -36.906,44.148 23.479,-43.478 6.087,-60 6.087,-60 -6.087,49.565 -39.131,32.174 -39.131,32.174 27.826,-12.174 -1.739,-80 -1.739,-80 8.384,58.357 -20,53.043 -20,53.043 25.218,-69.565 -20,-105.217 -20,-105.217 37.803,106.973 -89.544,99.378 -108.873,97.636 v 73.237 l 0.62,0.075 z"
       id="path7" /></g><rect
     y="44.636997"
     x="-795.76996"
     height="35.401756"
     width="909.67126"
     id="rect3765"
     style="fill:#000000;fill-opacity:1;fill-rule:nonzero;stroke:none" /><rect
     y="394.80655"
     x="-798.0788"
     height="35.401756"
     width="909.67126"
     id="rect3765-5"
     style="fill:#000000;fill-opacity:1;fill-rule:nonzero;stroke:none" /></g></svg>