<?xml version="1.0" encoding="UTF-8" standalone="no"?>
<!-- Created with Inkscape (http://www.inkscape.org/) -->
<svg
   xmlns:dc="http://purl.org/dc/elements/1.1/"
   xmlns:cc="http://creativecommons.org/ns#"
   xmlns:rdf="http://www.w3.org/1999/02/22-rdf-syntax-ns#"
   xmlns:svg="http://www.w3.org/2000/svg"
   xmlns="http://www.w3.org/2000/svg"
   xmlns:sodipodi="http://sodipodi.sourceforge.net/DTD/sodipodi-0.dtd"
   xmlns:inkscape="http://www.inkscape.org/namespaces/inkscape"
   id="svg2"
   sodipodi:version="0.32"
   inkscape:version="0.46"
   width="400"
   height="700"
   version="1.0"
   sodipodi:docname="Flag of Ilinden Municipality.svg"
   inkscape:output_extension="org.inkscape.output.svg.inkscape">
  <metadata
     id="metadata7">
    <rdf:RDF>
      <cc:Work
         rdf:about="">
        <dc:format>image/svg+xml</dc:format>
        <dc:type
           rdf:resource="http://purl.org/dc/dcmitype/StillImage" />
      </cc:Work>
    </rdf:RDF>
  </metadata>
  <defs
     id="defs5">
    <inkscape:perspective
       sodipodi:type="inkscape:persp3d"
       inkscape:vp_x="0 : 526.18109 : 1"
       inkscape:vp_y="0 : 1000 : 0"
       inkscape:vp_z="744.09448 : 526.18109 : 1"
       inkscape:persp3d-origin="372.04724 : 350.78739 : 1"
       id="perspective9" />
  </defs>
  <sodipodi:namedview
     inkscape:window-height="738"
     inkscape:window-width="1280"
     inkscape:pageshadow="2"
     inkscape:pageopacity="0.0"
     guidetolerance="10.0"
     gridtolerance="10.0"
     objecttolerance="10.0"
     borderopacity="1.0"
     bordercolor="#666666"
     pagecolor="#ffffff"
     id="base"
     showgrid="false"
     showguides="true"
     inkscape:guide-bbox="true"
     inkscape:zoom="0.56860683"
     inkscape:cx="241.35546"
     inkscape:cy="68.572707"
     inkscape:window-x="0"
     inkscape:window-y="24"
     inkscape:current-layer="svg2" />
  <g
     id="g2395">
    <rect
       y="-0.0021001771"
       x="-0.0017391816"
       height="700.14001"
       width="400.04102"
       id="rect2384"
       style="fill:#ef2939;fill-opacity:1;fill-rule:evenodd;stroke:none;stroke-width:1;stroke-linecap:round;stroke-miterlimit:4;stroke-dasharray:none;stroke-opacity:1" />
    <g
       transform="translate(9.1568901,-9.1568901)"
       id="g3251">
      <path
         sodipodi:type="arc"
         style="fill:#ffc618;fill-opacity:1;fill-rule:evenodd;stroke:#ffc618;stroke-width:1;stroke-linecap:round;stroke-miterlimit:4;stroke-dasharray:none;stroke-opacity:1"
         id="path3221"
         sodipodi:cx="229.68533"
         sodipodi:cy="216.59251"
         sodipodi:rx="59.519787"
         sodipodi:ry="59.138248"
         d="M 289.20512,216.59251 A 59.519787,59.138248 0 1 1 170.16555,216.59251 A 59.519787,59.138248 0 1 1 289.20512,216.59251 z"
         transform="translate(-28.996819,-35.101412)" />
      <path
         id="path3223"
         d="M 198.76032,114.23848 C 195.77129,113.8408 192.93294,112.78883 190.00112,110.99211 C 188.5082,110.07718 188.20738,109.77458 188.34678,109.3279 C 188.38142,109.21692 191.33902,92.062073 194.91923,71.206024 C 198.49945,50.34999 201.46357,33.08915 201.50618,32.848627 C 201.65096,32.03138 202.51104,32.179518 202.50439,33.020534 C 202.50341,33.145636 205.12886,50.446759 208.33872,71.467458 C 211.5486,92.488173 214.17379,109.821 214.17249,109.98488 C 214.16734,110.63693 209.71457,112.76377 206.54026,113.63037 C 204.17317,114.2766 200.944,114.529 198.76032,114.23848 L 198.76032,114.23848 z M 213.18944,109.12484 C 213.1529,109.01304 213.12156,109.10382 213.1198,109.32657 C 213.11803,109.54934 213.14794,109.64081 213.18624,109.52986 C 213.22454,109.4189 213.22597,109.23665 213.18944,109.12484 L 213.18944,109.12484 z"
         style="fill:#ffc618;fill-opacity:1;fill-rule:evenodd;stroke:#ffc618;stroke-width:1;stroke-linecap:round;stroke-miterlimit:4;stroke-dasharray:none;stroke-opacity:1" />
      <path
         id="path3227"
         d="M 203.19942,248.52209 C 206.19512,248.86594 209.05193,249.86669 212.01559,251.61038 C 213.52473,252.49831 213.83094,252.79545 213.6996,253.24457 C 213.66696,253.35615 211.01841,270.56144 207.81391,291.47851 C 204.60941,312.39556 201.95624,329.70692 201.91797,329.94817 C 201.78791,330.76789 200.92531,330.63525 200.91683,329.79425 C 200.91556,329.66915 197.97933,312.41805 194.39189,291.45849 C 190.80443,270.49892 187.8679,253.2161 187.86625,253.05222 C 187.85967,252.40019 192.27347,250.1936 195.43168,249.27004 C 197.78676,248.58134 201.01087,248.2709 203.19942,248.52209 L 203.19942,248.52209 z M 188.86461,253.89444 C 188.90316,254.00557 188.93286,253.91424 188.93061,253.69149 C 188.92838,253.46873 188.89683,253.37781 188.86053,253.48943 C 188.82423,253.60106 188.82608,253.78331 188.86461,253.89444 L 188.86461,253.89444 z"
         style="fill:#ffc618;fill-opacity:1;fill-rule:evenodd;stroke:#ffc618;stroke-width:1;stroke-linecap:round;stroke-miterlimit:4;stroke-dasharray:none;stroke-opacity:1" />
      <path
         id="path3231"
         d="M 268.06649,174.71573 C 268.24747,171.7058 269.09191,168.79895 270.67242,165.74513 C 271.47725,164.19009 271.75735,163.86822 272.21293,163.97503 C 272.32612,164.00157 289.64966,165.71373 310.70967,167.77983 C 331.76966,169.84594 349.19937,171.55695 349.44234,171.5821 C 350.26791,171.66754 350.18221,172.53606 349.34291,172.59011 C 349.21806,172.59816 332.15145,176.46505 311.41713,181.18321 C 290.68281,185.90138 273.58455,189.77031 273.421,189.78083 C 272.77028,189.82274 270.32771,185.53503 269.23434,182.43152 C 268.41901,180.11723 267.93428,176.91468 268.06649,174.71573 L 268.06649,174.71573 z M 274.20787,188.73829 C 274.31675,188.69378 274.22394,188.66907 274.00165,188.68339 C 273.77933,188.6977 273.69025,188.73413 273.80368,188.76432 C 273.91711,188.79452 274.09899,188.7828 274.20787,188.73829 L 274.20787,188.73829 z"
         style="fill:#ffc618;fill-opacity:1;fill-rule:evenodd;stroke:#ffc618;stroke-width:0.99999994;stroke-linecap:round;stroke-miterlimit:4;stroke-dasharray:none;stroke-opacity:1" />
      <path
         id="path3233"
         d="M 132.50686,181.46764 C 132.15304,184.46217 131.14278,187.31564 129.38922,190.27347 C 128.49627,191.77964 128.19811,192.08487 127.74943,191.95203 C 127.63796,191.91902 110.4416,189.21316 89.535318,185.939 C 68.629048,182.66484 51.326618,179.95401 51.085498,179.91493 C 50.266218,179.78214 50.401738,178.91999 51.242758,178.91431 C 51.367868,178.91345 68.628648,176.03472 89.600048,172.51712 C 110.57146,168.9995 127.86396,166.12056 128.02784,166.11946 C 128.67989,166.11506 130.87177,170.53618 131.7848,173.69744 C 132.46565,176.05481 132.76535,179.27993 132.50686,181.46764 L 132.50686,181.46764 z M 127.1823,167.11501 C 127.07105,167.15319 127.16228,167.18319 127.38503,167.18169 C 127.6078,167.18019 127.69882,167.14895 127.58732,167.11228 C 127.47581,167.07561 127.29356,167.07685 127.1823,167.11501 L 127.1823,167.11501 z"
         style="fill:#ffc618;fill-opacity:1;fill-rule:evenodd;stroke:#ffc618;stroke-width:1;stroke-linecap:round;stroke-miterlimit:4;stroke-dasharray:none;stroke-opacity:1" />
      <path
         id="path3235"
         d="M 234.70333,121.381 C 232.33578,119.51362 230.4317,117.16046 228.82731,114.11913 C 228.01033,112.57043 227.90606,112.15668 228.25389,111.84368 C 228.34033,111.76592 239.63839,98.522423 253.36071,82.413715 C 267.08302,66.305014 278.44078,52.973701 278.60017,52.788602 C 279.14175,52.159668 279.8058,52.725988 279.37088,53.445849 C 279.3062,53.552938 272.7348,69.771406 264.76778,89.486873 C 256.80079,109.20235 250.21298,125.44796 250.12823,125.58823 C 249.79104,126.14635 244.87636,125.70303 241.70427,124.82834 C 239.33883,124.1761 236.433,122.74523 234.70333,121.381 L 234.70333,121.381 z M 249.72173,124.34693 C 249.74736,124.23215 249.67408,124.29422 249.55889,124.48488 C 249.44368,124.67555 249.42272,124.76948 249.51228,124.69361 C 249.60185,124.61773 249.69608,124.46173 249.72173,124.34693 L 249.72173,124.34693 z"
         style="fill:#ffc618;fill-opacity:1;fill-rule:evenodd;stroke:#ffc618;stroke-width:0.99999994;stroke-linecap:round;stroke-miterlimit:4;stroke-dasharray:none;stroke-opacity:1" />
      <path
         id="path3237"
         d="M 142.326,147.02474 C 140.3013,149.25925 137.82359,150.99818 134.6798,152.39113 C 133.07892,153.10042 132.65901,153.1762 132.3705,152.8078 C 132.29883,152.71627 119.85782,140.54015 104.72385,125.74976 C 89.589901,110.95936 77.065363,98.717683 76.891585,98.546033 C 76.301109,97.962773 76.911452,97.338943 77.599926,97.822003 C 77.702337,97.893843 93.434175,105.5575 112.55951,114.85235 C 131.68488,124.14717 147.44267,131.82906 147.57683,131.92319 C 148.11062,132.29771 147.33268,137.17063 146.24342,140.27559 C 145.43115,142.59096 143.80517,145.39229 142.326,147.02474 L 142.326,147.02474 z M 146.31066,132.24397 C 146.19789,132.21056 146.25482,132.28791 146.43717,132.41585 C 146.61952,132.54382 146.7118,132.57113 146.64223,132.4766 C 146.57265,132.38207 146.42344,132.2774 146.31066,132.24397 L 146.31066,132.24397 z"
         style="fill:#ffc618;fill-opacity:1;fill-rule:evenodd;stroke:#ffc618;stroke-width:1;stroke-linecap:round;stroke-miterlimit:4;stroke-dasharray:none;stroke-opacity:1" />
      <path
         id="path3239"
         d="M 170.26764,242.82795 C 172.63592,244.69441 174.54092,247.04683 176.14648,250.08754 C 176.96405,251.63592 177.06849,252.04963 176.72077,252.36276 C 176.63438,252.44056 165.34144,265.68844 151.62537,281.80247 C 137.9093,297.91647 126.55669,311.25219 126.39738,311.43736 C 125.85606,312.06649 125.19178,311.50043 125.62642,310.78041 C 125.69106,310.6733 132.25617,294.45228 140.21555,274.73373 C 148.17492,255.01515 154.75642,238.76699 154.84112,238.62669 C 155.17809,238.06844 160.09294,238.50987 163.26538,239.38331 C 165.63107,240.03465 168.53746,241.46439 170.26764,242.82795 L 170.26764,242.82795 z M 155.2481,239.86782 C 155.22252,239.98263 155.29577,239.92053 155.41089,239.72982 C 155.52602,239.5391 155.54694,239.44517 155.45741,239.52107 C 155.36788,239.59699 155.27371,239.75302 155.2481,239.86782 L 155.2481,239.86782 z"
         style="fill:#ffc618;fill-opacity:1;fill-rule:evenodd;stroke:#ffc618;stroke-width:1;stroke-linecap:round;stroke-miterlimit:4;stroke-dasharray:none;stroke-opacity:1" />
      <path
         id="path3241"
         d="M 264.39872,208.46867 C 266.26057,206.09676 268.60926,204.18719 271.64685,202.57569 C 273.19362,201.75511 273.60714,201.64986 273.92094,201.99696 C 273.9989,202.08321 287.26877,213.35029 303.40951,227.03493 C 319.55023,240.71957 332.90804,252.04614 333.09352,252.20509 C 333.72371,252.74519 333.15895,253.41057 332.43807,252.97734 C 332.33084,252.91291 316.09705,246.37943 296.36302,238.45851 C 276.62898,230.53759 260.36801,223.98777 260.22754,223.90335 C 259.66864,223.56747 260.10047,218.65177 260.96774,215.47764 C 261.61445,213.11068 263.03854,210.20152 264.39872,208.46867 L 264.39872,208.46867 z M 261.46789,223.49395 C 261.58274,223.51931 261.52049,223.44619 261.32957,223.33144 C 261.13862,223.21667 261.04464,223.19593 261.12072,223.28532 C 261.19681,223.3747 261.35303,223.46857 261.46789,223.49395 L 261.46789,223.49395 z"
         style="fill:#ffc618;fill-opacity:1;fill-rule:evenodd;stroke:#ffc618;stroke-width:1;stroke-linecap:round;stroke-miterlimit:4;stroke-dasharray:none;stroke-opacity:1" />
      <path
         id="path3243"
         d="M 167.13059,122.83994 C 164.3112,123.90932 161.31375,124.33133 157.88038,124.14231 C 156.13205,124.04604 155.72362,123.92259 155.63419,123.46327 C 155.61198,123.34916 150.06871,106.84737 143.31585,86.792663 C 136.56299,66.737966 130.97515,50.139819 130.89843,49.907913 C 130.63776,49.119933 131.46504,48.841889 131.85854,49.585189 C 131.9171,49.695758 142.44324,63.675104 155.24997,80.650397 C 168.05674,97.625683 178.59772,111.63306 178.67439,111.7779 C 178.97949,112.3542 176.07072,116.34038 173.68865,118.61039 C 171.91233,120.30314 169.19031,122.05868 167.13059,122.83994 L 167.13059,122.83994 z M 177.40085,111.48783 C 177.3156,111.40679 177.33113,111.50156 177.43536,111.69843 C 177.53958,111.89532 177.60933,111.96162 177.59036,111.84578 C 177.57138,111.72995 177.48609,111.56888 177.40085,111.48783 L 177.40085,111.48783 z"
         style="fill:#ffc618;fill-opacity:1;fill-rule:evenodd;stroke:#ffc618;stroke-width:1;stroke-linecap:round;stroke-miterlimit:4;stroke-dasharray:none;stroke-opacity:1" />
      <path
         id="path3245"
         d="M 143.36177,221.39361 C 144.12108,224.31181 144.21759,227.3373 143.65964,230.7303 C 143.37551,232.45807 143.20876,232.85082 142.74249,232.89022 C 142.62664,232.90001 125.62357,236.63254 104.95789,241.18473 C 84.29222,245.73691 67.188529,249.50338 66.949706,249.55466 C 66.138222,249.72888 65.950955,248.87646 66.732343,248.56535 C 66.848569,248.51906 81.88092,239.56082 100.13755,228.65814 C 118.3942,217.75544 133.45601,208.78548 133.60828,208.72486 C 134.21409,208.48364 137.86358,211.80507 139.86364,214.41792 C 141.3551,216.36632 142.80704,219.26168 143.36177,221.39361 L 143.36177,221.39361 z M 133.18263,209.95972 C 133.09288,210.03573 133.18877,210.03051 133.39573,209.94811 C 133.60271,209.86571 133.67614,209.8035 133.55893,209.80989 C 133.44172,209.81628 133.2724,209.88371 133.18263,209.95972 L 133.18263,209.95972 z"
         style="fill:#ffc618;fill-opacity:1;fill-rule:evenodd;stroke:#ffc618;stroke-width:1;stroke-linecap:round;stroke-miterlimit:4;stroke-dasharray:none;stroke-opacity:1" />
      <path
         id="path3247"
         d="M 256.68906,144.48367 C 255.57637,141.68111 255.10821,138.69051 255.24431,135.25463 C 255.31363,133.50503 255.43078,133.09474 255.88865,132.99825 C 256.00242,132.97428 272.41682,127.17741 292.3651,120.11633 C 312.31338,113.05529 328.82345,107.21235 329.05416,107.13206 C 329.83802,106.85929 330.12879,107.68218 329.39163,108.0871 C 329.28199,108.14734 315.46649,118.88762 298.69054,131.95441 C 281.9146,145.02121 268.0713,155.77677 267.92765,155.85566 C 267.35614,156.1696 263.32559,153.32261 261.01915,150.97578 C 259.29922,149.22576 257.50198,146.53112 256.68906,144.48367 L 256.68906,144.48367 z M 268.19806,154.5778 C 268.27779,154.49132 268.18327,154.50829 267.98802,154.61554 C 267.79276,154.72279 267.72755,154.79356 267.84307,154.7728 C 267.9586,154.75204 268.11835,154.66428 268.19806,154.5778 L 268.19806,154.5778 z"
         style="fill:#ffc618;fill-opacity:1;fill-rule:evenodd;stroke:#ffc618;stroke-width:0.99999994;stroke-linecap:round;stroke-miterlimit:4;stroke-dasharray:none;stroke-opacity:1" />
      <path
         id="path3249"
         d="M 244.35407,235.12339 C 247.16241,234.02535 250.15543,233.57283 253.59054,233.72689 C 255.33975,233.80536 255.74942,233.92465 255.84353,234.38302 C 255.86689,234.49691 261.57789,250.94139 268.53461,270.92632 C 275.49131,290.91122 281.24787,307.45161 281.32694,307.68274 C 281.59562,308.46802 280.77122,308.75446 280.37016,308.01521 C 280.3105,307.90524 269.64255,294.0338 256.66365,277.18978 C 243.6847,260.34577 233.00164,246.44645 232.92348,246.30239 C 232.61255,245.72924 235.48058,241.71365 237.83941,239.41949 C 239.59841,237.70874 242.3024,235.92559 244.35407,235.12339 L 244.35407,235.12339 z M 234.19992,246.57948 C 234.28599,246.65965 234.26951,246.56504 234.16328,246.36924 C 234.05705,246.17342 233.98661,246.10784 234.00678,246.22348 C 234.02695,246.33911 234.11386,246.49931 234.19992,246.57948 L 234.19992,246.57948 z"
         style="fill:#ffc618;fill-opacity:1;fill-rule:evenodd;stroke:#ffc618;stroke-width:1;stroke-linecap:round;stroke-miterlimit:4;stroke-dasharray:none;stroke-opacity:1" />
    </g>
    <text
       transform="scale(1.2619093,0.79245)"
       id="text2397"
       y="863.7536"
       x="-72.220169"
       style="font-size:617.62939453px;font-style:normal;font-weight:normal;fill:#ffc618;fill-opacity:1;stroke:none;stroke-width:1px;stroke-linecap:butt;stroke-linejoin:miter;stroke-opacity:1;font-family:Bitstream Vera Sans"
       xml:space="preserve"><tspan
         y="863.7536"
         x="-72.220169"
         id="tspan2399"
         sodipodi:role="line">И</tspan></text>
  </g>
</svg>
