<?xml version="1.0" encoding="utf-8" ?>	<!-- Generator: Assembly 2.4 - http://assemblyapp.co -->	<svg version="1.1" xmlns="http://www.w3.org/2000/svg" xmlns:xlink="http://www.w3.org/1999/xlink" width="900.00" height="600.00" viewBox="0 0 900.0 600.0">		<rect x="0" y="0" width="900.00" height="600.00" fill="#ffffff" />		<g id="document" transform="scale(0.21996699183820242 0.21996699183820242) translate(2048.0 1365.3333333333333)">			<path d="M-918.975,406.558 L-1012.25,99.3585 L-755.744,-95.3029 L-1078.15,-102.4 L-1183.59,-406.558 L-1289.03,-102.4 L-1611.44,-95.3029 L-1354.94,99.3585 L-1448.21,406.558 L-1183.59,223.05 L-918.975,406.558 Z " fill="#ffffff" fill-opacity="1.00" />			<path d="M2048,1365.67 L2048,819.529 L-2048,819.529 L-2048,1365.67 L2048,1365.67 Z M2048,273.393 L2048,-272.744 L-2048,-272.744 L-2048,273.393 L2048,273.393 Z M2048,-818.881 L2048,-1365.02 L-2048,-1365.02 L-2048,-818.881 L2048,-818.881 Z " fill="#ce0000" fill-opacity="1.00" />			<path d="M-2048.01,-1365.01 L317.738,0.32581 L-2048.01,1365.67 L-2048.01,-1365.01 Z " fill="#87cefa" fill-opacity="1.00" />			<path d="M177.259,3801.69 C100.259,3801.69 30.2591,3830.69 -22.7409,3877.69 C-75.7409,3829.69 -145.741,3801.69 -222.741,3801.69 C-388.741,3801.69 -522.741,3935.69 -522.741,4101.69 L-522.741,4801.69 L-322.741,4801.69 L-322.741,4101.69 C-322.741,4046.69 -277.741,4001.69 -222.741,4001.69 C-167.741,4001.69 -122.741,4046.69 -122.741,4101.69 L-122.741,4801.69 L77.2591,4801.69 L77.2591,4101.69 C77.2591,4046.69 122.259,4001.69 177.259,4001.69 C232.259,4001.69 277.259,4046.69 277.259,4101.69 L277.259,4801.69 L477.259,4801.69 L477.259,4101.69 C477.259,3935.69 343.259,3801.69 177.259,3801.69 Z " fill="#3cb44b" fill-opacity="1.00" />			<path d="M-992.533,370.586 L-1086.6,60.7718 L-827.912,-135.546 L-1153.06,-142.704 L-1259.4,-449.45 L-1365.74,-142.704 L-1690.89,-135.546 L-1432.2,60.7718 L-1526.27,370.586 L-1259.4,185.515 L-992.533,370.586 Z " fill="#ffffff" fill-opacity="1.00" />		</g>	</svg>