<?xml version="1.0" encoding="UTF-8" standalone="no"?>
<svg
   xmlns:dc="http://purl.org/dc/elements/1.1/"
   xmlns:cc="http://creativecommons.org/ns#"
   xmlns:rdf="http://www.w3.org/1999/02/22-rdf-syntax-ns#"
   xmlns:svg="http://www.w3.org/2000/svg"
   xmlns="http://www.w3.org/2000/svg"
   width="282.22223mm"
   height="188.14815mm"
   viewBox="0 0 1000 666.66666"
   id="svg4325"
   version="1.1">
  <defs
     id="defs4327">
    <radialGradient
       fx="0"
       fy="0"
       cx="0"
       cy="0"
       r="1"
       gradientUnits="userSpaceOnUse"
       gradientTransform="matrix(45.15,0,0,-45.15,79.897,18.88)"
       spreadMethod="pad"
       id="radialGradient3073">
      <stop
         style="stop-opacity:1;stop-color:#859dbc"
         offset="0"
         id="stop3075" />
      <stop
         style="stop-opacity:1;stop-color:#003360"
         offset="1"
         id="stop3077" />
    </radialGradient>
    <clipPath
       id="clipPath3404"
       clipPathUnits="userSpaceOnUse">
      <path
         id="path3406"
         d="m 1089.221,797.102 109.834,0 0,53.291 -109.834,0 0,-53.291 z" />
    </clipPath>
    <clipPath
       id="clipPath3412"
       clipPathUnits="userSpaceOnUse">
      <path
         id="path3414"
         d="m 1108.309,841.132 71.658,0 0,-34.769 -71.658,0 0,34.769 z" />
    </clipPath>
    <clipPath
       id="clipPath3420"
       clipPathUnits="userSpaceOnUse">
      <path
         id="path3422"
         d="m 1108.309,841.132 71.658,0 0,-34.769 -71.658,0 0,34.769 z" />
    </clipPath>
    <clipPath
       id="clipPath3428"
       clipPathUnits="userSpaceOnUse">
      <path
         id="path3430"
         d="m 1100.541,852.026 85.323,0 0,-60.917 -85.323,0 0,60.917 z" />
    </clipPath>
    <clipPath
       id="clipPath4823"
       clipPathUnits="userSpaceOnUse">
      <path
         id="path4825"
         d="m 0,0 841.89,0 0,595.276 L 0,595.276 0,0 Z" />
    </clipPath>
    <clipPath
       id="clipPath4803"
       clipPathUnits="userSpaceOnUse">
      <path
         id="path4805"
         d="m 0,0 841.89,0 0,595.276 L 0,595.276 0,0 Z" />
    </clipPath>
    <clipPath
       id="clipPath4789"
       clipPathUnits="userSpaceOnUse">
      <path
         id="path4791"
         d="m 0,0 841.89,0 0,595.276 L 0,595.276 0,0 Z" />
    </clipPath>
    <clipPath
       id="clipPath6664"
       clipPathUnits="userSpaceOnUse">
      <path
         id="path6666"
         d="m 431.716,24.674 132.449,0 0,68.948 -132.449,0 0,-68.948 z" />
    </clipPath>
  </defs>
  <metadata
     id="metadata4330">
    <rdf:RDF>
      <cc:Work
         rdf:about="">
        <dc:format>image/svg+xml</dc:format>
        <dc:type
           rdf:resource="http://purl.org/dc/dcmitype/StillImage" />
        <dc:title></dc:title>
      </cc:Work>
    </rdf:RDF>
  </metadata>
  <rect
     y="0"
     x="0"
     height="666.66669"
     width="1000"
     id="rect6654"
     style="color:#000000;clip-rule:nonzero;display:inline;overflow:visible;visibility:visible;opacity:1;isolation:auto;mix-blend-mode:normal;color-interpolation:sRGB;color-interpolation-filters:linearRGB;solid-color:#000000;solid-opacity:1;fill:#ffffff;fill-opacity:1;fill-rule:nonzero;stroke:none;stroke-width:15;stroke-linecap:butt;stroke-linejoin:miter;stroke-miterlimit:4;stroke-dasharray:none;stroke-dashoffset:0;stroke-opacity:1;color-rendering:auto;image-rendering:auto;shape-rendering:auto;text-rendering:auto;enable-background:accumulate" />
  <g
     id="layer1"
     transform="translate(282.85714,-1136.1716)">
    <rect
       style="color:#000000;clip-rule:nonzero;display:inline;overflow:visible;visibility:visible;opacity:1;isolation:auto;mix-blend-mode:normal;color-interpolation:sRGB;color-interpolation-filters:linearRGB;solid-color:#000000;solid-opacity:1;fill:#ffffff;fill-opacity:1;fill-rule:nonzero;stroke:none;stroke-width:15;stroke-linecap:butt;stroke-linejoin:miter;stroke-miterlimit:4;stroke-dasharray:none;stroke-dashoffset:0;stroke-opacity:1;color-rendering:auto;image-rendering:auto;shape-rendering:auto;text-rendering:auto;enable-background:accumulate"
       id="rect4268"
       width="1000"
       height="600"
       x="-282.85715"
       y="1169.505" />
    <g
       transform="matrix(0.8008008,0,0,0.8008008,-817.39759,1765.8282)"
       id="layer1-4">
      <g
         id="g2993"
         transform="matrix(1.25,0,0,-1.25,-792.3701,538.95985)">
        <g
           id="g6660"
           transform="matrix(6.0340434,0,0,6.0340434,-1337.1941,371.94212)">
          <g
             clip-path="url(#clipPath6664)"
             id="g6662">
            <g
               transform="translate(544.6265,51.8191)"
               id="g6668">
              <path
                 id="path6670"
                 style="fill:#6ea31b;fill-opacity:1;fill-rule:nonzero;stroke:none"
                 d="m 0,0 c -1.74,-3.69 -3.17,-5.459 -3.619,-5.526 -0.359,0.34 -0.539,0.979 -0.539,1.923 0,1.95 0.76,5.174 2.272,9.637 0,0 0.158,0.48 0.218,0.657 C -1.533,6.816 -1.08,7.23 -1.08,7.23 1.868,9.961 2.618,9.757 2.623,9.754 2.75,9.586 2.809,9.293 2.809,8.898 2.809,7.204 1.717,3.639 0,0 m -10.369,3.615 c -0.904,0.754 -1.912,2.905 -1.912,8.754 0,0.772 0.02,1.607 0.055,2.515 0.027,0.621 0.041,1.231 0.041,1.835 0,1.537 -0.094,3.001 -0.262,4.389 2.518,2.41 4.901,3.231 6.899,2.346 2.396,-1.064 3.933,-4.457 3.933,-8.564 0,-0.228 -0.004,-0.46 -0.012,-0.693 C -1.709,12.285 -2.097,9.905 -2.775,7.135 -8.091,2.497 -9.447,2.849 -10.369,3.615 M -22.406,3.614 c -3.545,-2.535 -6.426,-3.955 -8.109,-4.002 -1.449,-0.039 -2.635,0.377 -3.526,1.241 -1.252,1.221 -1.916,3.309 -1.916,6.038 0,7.268 -2.117,10.558 -3.985,13.465 -1.595,2.476 -2.971,4.616 -3.023,8.785 0.081,2.857 1.404,5.428 3.538,6.846 2.82,1.877 7.031,1.822 12.179,-0.16 7.34,-2.83 11.522,-7.504 12.797,-14.269 -4.168,-4.426 -7.439,-13.407 -7.955,-17.944 m 1.979,0.047 c 0.002,10e-4 1.408,0.959 1.408,0.959 1.598,1.029 2.004,1.029 2.098,1.002 0.029,-0.055 0.058,-0.147 0.058,-0.325 0,-0.565 -0.273,-1.942 -1.607,-5.318 -1.53,-3.89 -2.352,-4.065 -2.362,-4.065 -0.172,0.138 -0.505,0.988 -0.505,3.159 0,0.305 0.005,0.642 0.021,1.006 0.037,0.856 0.139,1.902 0.307,3.182 0.205,0.138 0.582,0.4 0.582,0.4 m 24.05,7.476 c -0.345,0.211 -1.343,0.819 -4.611,-2.183 0.715,2.785 1.086,5.338 1.086,7.557 0,4.137 -1.225,7.162 -3.613,8.591 -2.614,1.564 -6.186,0.77 -9.276,-1.99 -1.5,7.151 -7.216,13.572 -14.806,16.505 -5.647,2.186 -10.299,2.186 -13.459,-0.002 -2.634,-1.825 -4.004,-5.023 -3.962,-9.253 -0.131,-4.361 1.691,-6.995 3.616,-9.783 2.199,-3.182 4.469,-6.475 4.027,-12.843 -0.279,-4.065 -0.521,-7.575 1.352,-9.375 1.041,-1.001 2.639,-1.37 4.891,-1.129 3.414,0.372 6.927,3.308 8.55,4.767 -0.004,-0.03 -0.017,-0.155 -0.017,-0.155 -0.186,-1.559 -0.336,-3.017 -0.336,-4.261 0,-1.663 0.271,-2.936 1.09,-3.522 0.338,-0.243 0.812,-0.3 1.302,-0.157 0.936,0.275 2.362,1.394 3.856,5.186 1.523,3.864 1.783,6.855 1.256,7.7 -0.168,0.263 -0.426,0.425 -0.744,0.477 -0.879,0.134 -2.375,-0.64 -4.547,-2.369 0.84,4.119 3.205,9.826 6.592,14.254 0.072,-0.846 0.123,-1.714 0.123,-2.63 0,-0.511 -0.012,-1.027 -0.032,-1.561 -0.041,-0.928 -0.06,-1.796 -0.06,-2.615 0,-5.081 0.76,-8.123 2.345,-9.484 C -9.699,1.112 -7.425,1.7 -3.359,5.176 -3.429,4.927 -3.533,4.57 -3.533,4.57 -4.539,1.183 -5.41,-2.025 -5.41,-4.27 c 0,-1.446 0.362,-2.489 1.285,-2.915 1.774,-0.821 4.344,2.502 6.157,5.885 1.672,3.114 2.929,6.681 2.929,9.268 0,1.449 -0.394,2.587 -1.338,3.169" />
            </g>
          </g>
        </g>
      </g>
    </g>
  </g>
</svg>
