<?xml version="1.0" encoding="UTF-8"?>
<svg id="Flag_of_Curacao" width="900" height="600" version="1.1" xml:space="preserve" xmlns="http://www.w3.org/2000/svg" xmlns:cc="http://creativecommons.org/ns#" xmlns:dc="http://purl.org/dc/elements/1.1/" xmlns:rdf="http://www.w3.org/1999/02/22-rdf-syntax-ns#"><metadata><rdf:RDF><cc:Work rdf:about=""><dc:format>image/svg+xml</dc:format><dc:type rdf:resource="http://purl.org/dc/dcmitype/StillImage"/></cc:Work></rdf:RDF></metadata><defs>
 <!-- the following is a regular 5-pointed star, radius 1, vertically aligned, centered at the 
	origin.  It was produced with the following bc script:
		scale=100
		x=(cosd(72)-1)*sind(144)/(cosd(144)-1)
		r=sqrt(x^2+cosd(72)^2)			(the inner radius)
		for(i=0; i<5; ++i) {phi=72*i; sind(phi); -cosd(phi); r*sind(phi+36); -r*cosd(phi+36)}
    --></defs><path d="m0 0h900v600h-900z" fill="#fff"/><path d="m0 553.33h900v46.667h-900z" fill="#21468b"/><path d="m0 460h900v46.667h-900z" fill="#ae1c28"/><path d="m0 46.667h900v-46.667h-900z" fill="#ae1c28"/><path d="m0 140h900v-46.667h-900z" fill="#21468b"/><g transform="translate(2.5,2.5)"><circle cx="447.5" cy="297.5" r="122.5" fill="#67b0e4" stroke="#fc8727" stroke-width="20"/><g transform="matrix(.98 0 0 .98 6.5 3.5)" stroke="#000" stroke-linecap="round" stroke-linejoin="round"><path d="m450 205.93-19.387 14.13v30.075l-42.577 31.442v37.394h-7.5668v5.0578h2.012v37.945h-7.9626v10.38h150.96v-10.38h-7.9612v-37.945h2.0122v-5.0578h-7.5682v-37.394l-42.577-31.442v-30.075z" fill="#fff" stroke-width="1.723"/><path d="m388.04 318.98h123.93" fill="none" stroke-width="1.723"/><path d="m388.04 281.58h123.93" fill="none" stroke-width="1.723"/><path d="m430.61 250.14h38.772" fill="none" stroke-width="1.723"/><path d="m430.61 220.06h38.772" fill="none" stroke-width="1.723"/><path d="m382.48 361.98 135.04-2e-5" fill="none" stroke-width="1.723"/><path d="m435.97 330.79h28.055v31.172h-28.055z" fill="none" stroke-width="1.3254"/><path d="m490.01 331.83h12.184v19.632h-12.184z" fill="none" stroke-width="1.3254"/><path d="m397.81 292.16h12.184v19.632h-12.184z" fill="none" stroke-width="1.3254"/><path d="m490.01 292.16h12.184v19.632h-12.184z" fill="none" stroke-width="1.3254"/><path d="m455.67 292.16h12.184v26.81h-12.184z" fill="none" stroke-width="1.3254"/><path d="m432.15 292.16h12.184v26.81h-12.184z" fill="none" stroke-width="1.3254"/><path d="m397.81 331.83h12.184v19.632h-12.184z" fill="none" stroke-width="1.3254"/><path d="m443.02 226.24h13.986v12.178h-13.986z" fill="none" stroke-width="1.3254"/><path d="m421.9 318.96h6.0557v43.001h-6.0557z" fill="none" stroke-width="1.3254"/><path d="m472.05 318.96h6.0557v43.003h-6.0557z" fill="none" stroke-width="1.3254"/><path d="m419.55 307.35h60.9v12.329h-60.9z" fill="#fff" stroke-width="1.3254"/><path d="m426.09 307.35v12.329" fill="#21468b" stroke-width="1.0603"/><path d="m423.76 307.35v12.329" fill="#21468b" stroke-width="1.0603"/><path d="m476.24 307.35v12.329" fill="#21468b" stroke-width="1.0603"/><path d="m473.91 307.35v12.329" fill="#21468b" stroke-width="1.0603"/><path d="m433.25 307.35v12.329" fill="#21468b" stroke-width="1.0603"/><path d="m430.92 307.35v12.329" fill="#21468b" stroke-width="1.0603"/><path d="m440.42 307.35v12.329" fill="#21468b" stroke-width="1.0603"/><path d="m438.09 307.35v12.329" fill="#21468b" stroke-width="1.0603"/><path d="m447.58 307.35v12.329" fill="#21468b" stroke-width="1.0603"/><path d="m445.25 307.35v12.329" fill="#21468b" stroke-width="1.0603"/><path d="m454.75 307.35v12.329" fill="#21468b" stroke-width="1.0603"/><path d="m452.42 307.35v12.329" fill="#21468b" stroke-width="1.0603"/><path d="m461.91 307.35v12.329" fill="#21468b" stroke-width="1.0603"/><path d="m459.58 307.35v12.329" fill="#21468b" stroke-width="1.0603"/><path d="m469.07 307.35v12.329" fill="#21468b" stroke-width="1.0603"/><path d="m466.75 307.35v12.329" fill="#21468b" stroke-width="1.0603"/></g></g></svg>
