<?xml version="1.0" encoding="UTF-8"?>
<svg xmlns="http://www.w3.org/2000/svg" version="1.1" xmlns:cc="http://creativecommons.org/ns#" xmlns:dc="http://purl.org/dc/elements/1.1/" xmlns:inkscape="http://www.inkscape.org/namespaces/inkscape" xmlns:rdf="http://www.w3.org/1999/02/22-rdf-syntax-ns#" xmlns:sodipodi="http://sodipodi.sourceforge.net/DTD/sodipodi-0.dtd" xmlns:svg="http://www.w3.org/2000/svg" viewBox="0 0 600 400">
  <!-- Generator: Adobe Illustrator 29.3.1, SVG Export Plug-In . SVG Version: 2.1.0 Build 151)  -->
  <defs>
    <style>
      .st0 {
        fill: #fff;
      }

      .st1 {
        fill: #0f47af;
      }

      .st2 {
        fill: #078930;
      }

      .st3 {
        fill: #fcdd09;
      }
    </style>
  </defs>
  <g id="svg1332" inkscape:version="0.92.3 (2405546, 2018-03-11)" sodipodi:docname="Flag_of_Flevoland (1) new.svg">
    <path id="path2230" class="st2" d="M0,400V0h600v400H0Z" inkscape:connector-curvature="0"/>
    <path id="path1343" class="st1" d="M0,200V0h600v200S0,200,0,200Z" inkscape:connector-curvature="0"/>
    <path id="path989" class="st3" d="M0,164.4v52.8c20.6-10,41.2-9.7,61.8.9,21.3,11,42.5,11,63.8,0,21.3-11,42.5-11,63.8,0,21.3,11,42.5,11,63.8,0,21.3-11,42.5-11,63.8,0,10.6,5.5,23.3,8.2,33.9,8.2h249v-52.8h-251c-10.6,0-21.3-2.8-31.9-8.3-21.3-11-42.5-11-63.8,0s-42.5,11-63.8,0c-21.3-11-42.5-11-63.8,0-21.3,11-42.5,11-63.8,0-10.6-5.5-21.3-8.2-31.9-8.2s-19.9,2.5-29.9,7.3Z" inkscape:connector-curvature="0"/>
    <path class="st0" d="M107.6,132.9c-5.1-4.3-8.2-13-9.1-20h2.6c2.9,0,3.9,3.7,6.1,6.6,1.7,2,3.1,3.2,4.8,3.8,2.3.8,5.9,1,8-.3,1.6,6.6-4.9,15.4-12.4,9.8ZM133.3,78.5c-3.7-4.1-9.4-6.5-14.5-6.4-8.3.6-12.4,8.8-15,12.9-4.2,6.8-5,9-5,11.3v2.7h2.7c2.6,0,2.2.2,4.1-2.8,1.8-3,5.1-5.6,8.9-5.8,9.1-.4,14.7,9.8,14.7,9.8,0,0,1.5-1.2,2.9-2.6,6.3-6.5,6.8-13.2,1.3-19.1ZM72.9,90.3c3.8.2,7,2.8,8.9,5.8,1.8,3,1.5,2.8,4.1,2.8h2.7v-2.7c0-2.3-.8-4.4-5-11.3-2.6-4.2-6.7-12.3-15-12.9-5.1,0-10.8,2.3-14.5,6.4-5.4,5.9-4.9,12.6,1.3,19.1,1.4,1.5,2.9,2.6,2.9,2.6,0,0,5.5-10.3,14.7-9.8ZM97,114.3c0-.4,0-1.4,0-1.4h-6.5s0,.9,0,1.4c-.2,3.2-1,6.8-2.2,9.8-2,4.9-2.4,8-.4,12,2,4,6,9.5,6,9.5,0,0,4-5.5,6-9.5,2-4,1.6-7-.4-12-1.2-3-2.1-6.6-2.2-9.8ZM103.7,100.5h-20c-3,0-5.5,2.5-5.5,5.5s2.5,5.5,5.5,5.5h20c3,0,5.5-2.4,5.5-5.5s-2.5-5.5-5.5-5.5ZM86.3,113c-2.9,0-3.9,3.8-6.1,6.6-1.7,2-3.1,3.2-4.8,3.8-2.3.8-5.9,1-8-.3-1.6,6.6,4.9,15.4,12.4,9.8,5.1-4.3,8.2-13,9.1-20h-2.6ZM90.1,95.9v3.1h7.3v-3.1c0-2.8.6-4.3,6.9-15.1,5.6-9.5,8.1-16.1,8.1-22.2,0-13.2-18.7-30.7-18.7-30.7,0,0-18.6,17.5-18.7,30.7,0,6,2.5,12.6,8.1,22.2,6.3,10.8,6.9,12.3,6.9,15.1Z"/>
  </g>
</svg>