<svg xmlns="http://www.w3.org/2000/svg" viewBox="0 0 1021.59275 681.05773"><defs><style>.a,.ae{fill:#fff;}.af,.b{fill:#f0c848;}.c,.d{fill:#265aa6;}.ad,.ae,.af,.d,.j,.n,.o,.q,.s{fill-rule:evenodd;}.aa,.ab,.ac,.e,.g,.i,.j,.k,.l,.m,.n,.o,.p,.q,.r,.s,.t,.u,.v,.w,.x,.y,.z{fill:none;}.e{stroke:#f0c848;stroke-width:4.66838px;}.ab,.ac,.e,.g,.i,.j,.n,.s,.t,.u,.v,.w,.x,.y{stroke-linecap:round;}.ab,.ac,.e,.g,.j,.n,.s,.t,.u,.v,.w,.x,.y{stroke-linejoin:round;}.f{fill:#fcd3a8;}.g,.i,.j{stroke:#000;}.h{fill:#1d1d1b;}.i{stroke-miterlimit:10;stroke-width:0.63342px;}.j{stroke-width:0.66444px;}.aa,.ab,.k,.l,.m,.n,.o,.p,.q,.r,.s,.t,.u,.v,.w,.x,.y,.z{stroke:#1d1d1b;}.aa,.k,.l,.m,.o,.p,.q,.r,.z{stroke-miterlimit:22.9256;}.k{stroke-width:0.7293px;}.l{stroke-width:0.72948px;}.m{stroke-width:0.71964px;}.o,.p{stroke-width:0.59658px;}.q,.r{stroke-width:0.59924px;}.ab,.s{stroke-width:1.04638px;}.u{stroke-width:1.06072px;}.v{stroke-width:0.9699px;}.w{stroke-width:0.95368px;}.x{stroke-width:0.99666px;}.y{stroke-width:0.99001px;}.z{stroke-width:0.75197px;}.aa{stroke-width:0.7188px;}.ac{stroke:#fcd3a8;stroke-width:0;}.ad{fill:#fefdf3;}</style></defs><rect class="a" width="1021.5866" height="681.05773"/><rect class="b" y="340.52887" width="1021.5866" height="340.52887"/><path class="c" d="M151.98485,510.17356c-51.17673,0-67.74073,28.00849-119.60736,28.00849A124.45053,124.45053,0,0,1,.00614,534.05314V681.05266H1021.59275V534.05318a124.45253,124.45253,0,0,1-32.37136,4.12892c-51.86938,0-68.43266-28.0085-119.60735-28.0085-51.17669,0-67.71961,28.0085-119.58691,28.0085-51.86938,0-68.43266-28.0085-119.60735-28.0085-51.17673,0-67.74072,28.0085-119.60736,28.0085-51.87,0-68.43267-28.0085-119.60735-28.0085-51.17673,0-67.74072,28.0085-119.60736,28.0085-51.86936,0-68.41226-28.0085-119.58693-28.0085Z"/><path class="d" d="M370.39583,345.37674c0,77.41859,62.9846,140.40387,140.40385,140.40387,77.41862,0,140.40338-62.98528,140.40338-140.40387V144.33339H370.39583Z"/><ellipse class="e" cx="510.07327" cy="208.58638" rx="43.02221" ry="41.52788"/><path class="a" d="M582.66325,331.03393l-2.42891-16.877-8.32874-24.885a65.63516,65.63516,0,0,0-2.20082-7.517c-.37355-.90545-1.30649-4.05029-1.61612-4.71217-.04726-.101-.542-2.035-.542-2.035l.82928-1.37232,2.10307-2.65807s-1.13077-.8797-1.31746-1.01583c-4.51736-3.29437-6.69287-5.40567-11.23557-8.6632-1.20037-.91554-2.93274-2.467-4.17509-3.32237-.08221-.05658-2.24562-1.66137-2.33506-1.69729-1.55932-1.10448-13.76925-10.61681-13.76925-10.61681l-.91164.90047-4.39681-3.03-.94843-.84007-1.10548-.20151-1.78693-.45866-1.568-.34533.88136-.78364s.917-3.55369,1.099-4.472a7.869,7.869,0,0,0,.07312-2.75685c-.09194-.58767.13387-1.41119.0223-2.056a3.53353,3.53353,0,0,0,1.47029-1.35912,6.26279,6.26279,0,0,0,.90244-2.51629,7.84687,7.84687,0,0,1,1.32133-2.35233,16.51593,16.51593,0,0,0,1.36308-2.67254,29.66519,29.66519,0,0,0,2.02513-6.02724c.00666-.03547.01174-.0714.01808-.10692.15065-.11794.04628-.33206.1128-.59117a5.18148,5.18148,0,0,0-.13651-2.76832,6.95758,6.95758,0,0,1,.00429-1.78483c.0336-.66189.78254-1.48425,1.10794-1.9956a5.62836,5.62836,0,0,0,.538-3.46416,37.63911,37.63911,0,0,0-.87819-4.15952A5.19853,5.19853,0,0,0,535.423,199.252c-.16873-.16345-.43963-.5636-.64942-.57755a1.06862,1.06862,0,0,1-.36878-.66589,7.81559,7.81559,0,0,0,.29328-2.6862c-.12681-1.056-2.01672-4.13625-3.02293-5.12537a5.34864,5.34864,0,0,0-2.99629-1.59823c-.3646-.0971-1.87574-1.66627-3.24536-2.5079a41.40816,41.40816,0,0,0-3.63-2.08762,11.8983,11.8983,0,0,0-1.24821-.78217c-.06869-.051-.13268-.09659-.18916-.13608a2.30677,2.30677,0,0,0-.7822-.39467,17.45113,17.45113,0,0,0-3.29449-1.13225,28.50927,28.50927,0,0,0-3.50567-.4124c-.59754.00305-2.39616-.09556-2.99856-.1199-.65548-.02645-2.60275.08671-2.73177.08935a13.73013,13.73013,0,0,0-3.31469.46142,33.43881,33.43881,0,0,0-9.75334,5.06132c-.78728.56575-1.2216,1.13758-2.04435,1.65214-.809.50607-1.24353.27192-2.031.81471a9.15576,9.15576,0,0,0-1.88141,1.57275,12.34838,12.34838,0,0,0-.84735,1.19409c-.06809.10428-.56283.91986-.65328,1.03671a5.92038,5.92038,0,0,0-1.09886,2.3438,4.11514,4.11514,0,0,0,.034,1.45,7.2292,7.2292,0,0,0,.17667.99492c.044.11426.15131.58395.15131.58395a9.54722,9.54722,0,0,0-1.02583.90371,9.93551,9.93551,0,0,0-1.244,1.7902,40.74208,40.74208,0,0,0-.95438,4.28837,5.50948,5.50948,0,0,0,.21659,3.69394,16.91679,16.91679,0,0,1,1.18058,2.17871,3.26251,3.26251,0,0,1,.08473,2.02156c-.71766,2.24239,1.053,6.316,1.26892,7.067a21.47465,21.47465,0,0,0,1.74259,4.29014c.372.71594.94574,1.23773,1.3364,1.94271a23.90085,23.90085,0,0,1,1.051,3.31852,2.324,2.324,0,0,0,1.74462,1.77008,9.21119,9.21119,0,0,1-.1062,2.184,4.52782,4.52782,0,0,0,.08922,1.02657s.12969,1.91473.1952,2.08094c.28056.71158.8721,2.64081.87751,2.66077a10.3489,10.3489,0,0,0,1.46276,2.44707l-1.27126.21274-1.87329.29771-2.3924,1.4794-3.95229,3.45558-.7382-.77331-.84138-.55975s-.65352.4975-.85479.65222c-.45559.35026-.84343.72023-1.34135,1.16437-.26594.1817-.79077.65791-1.053.84242-1.5681,1.10315-2.65,2.209-4.19441,3.3451-3.05652,2.24844-5.97621,4.43528-8.91364,6.83666-1.72027,1.21759-3.25793,2.28884-4.95875,3.53346-1.98251,1.12565-3.75949,2.90085-5.59514,4.23511-.98694.71738-1.953,1.46386-2.90659,2.22485q-.33448.267-.66762.53614a4.9386,4.9386,0,0,0-1.65009,1.1027,1.23485,1.23485,0,0,0-.167.12247c-.11389.10215-.58241.49641-.58241.49641s.87377.98058,1.04755,1.16509c.076.29941.518.49631.6356.78521.0943.23169-.37209,1.07355-.48833,1.40038-.19237.54108-1.20963,4.28935-1.55908,5.52571-.65149,2.30525-1.98392,6.10895-1.98392,6.10895l-4.18366,12.88243L436.909,318.46676l-4.10875,7.258s-1.1742,8.84969-1.03247,11.38617c.14846,2.65642-1.21453,15.22824-1.06609,17.88464.00714.12752.27571,5.09142.36693,5.21131-.01533.13275,2.02482,9.50345,2.02482,9.50345l1.9623,10.08667,1.067,5.75589,26.19587,5.695,23.70159-6.1672,22.02219,6.1672,22.41934-6.25682,25.52779,5.24592,26.51274-5.24592,4.57238-25.62252V341.20882Z"/><path class="b" d="M535.29708,245.71386l-1.11215-.75605c-.63711-.56067-2.66656-2.16362-2.66656-2.16362s-.911-.129-1.76695-.319c-.2444-.05422-.489-.10714-.73359-.16062l-.065-.01417c-.16445-.0359-.32874-.07262-.49327-.108a6.57164,6.57164,0,0,0-.8824-.13856c-.01588-.00586-.03192-.01058-.04779-.01677a4.97527,4.97527,0,0,0-.45238-.25922l-.43247.72179s.00464.11984.005.18041c-.05447.12154-.44068.88733-.44068.88733l-.30909.41948,2.821,3.0903s-4.1144,10.05824-5.24706,12.21659c-.008.01522-.00179.027-.00831.04192a.67165.67165,0,0,0-.25652.02622c-.85318.25734-2.57875.65747-2.57875.65747l-1.16458.00782-1.26292.141s-2.3525-.02071-3.7762.08146a43.68422,43.68422,0,0,1-5.30257.03753c-1.89767-.09428-3.78777-.29756-5.68454-.39834-.56328-.03-4.10906-.64661-4.10906-.64661l-.83515-.13444s-.55464-.135-.8316-.2028c-.10315-.16974-.22144-.33524-.3245-.50238-.26744-.43424-.526-.87377-.79082-1.30956-.61042-1.00444-4.67227-10.1083-4.67227-10.1083l2.04484-2.36863.56965-.48664-.43427-.97711s-.34062-.60537-.63361-.7379c-.40868-.185-1.02756.043-1.45277.10974a6.34516,6.34516,0,0,0-1.29336.2496,5.094,5.094,0,0,0-1.13168.72463q-1.31739.96948-2.62849,1.94725c-.44027.32825-.87215.66464-1.30224,1.00591a.76277.76277,0,0,0-.21167.16534,2.39412,2.39412,0,0,0-.585.55652.44477.44477,0,0,0-.106.25653l-.03281.09419s.06448.258.1949.27736a.02314.02314,0,0,0,.01042-.00073c.07335.05357.1318.1165.19872.17a3.22527,3.22527,0,0,0,.57191.75077c.31994.3499.64786.69272,1.00094,1.00916.17918.16062.36634.3118.55.46713.5229.61465,1.04222,1.23288,1.58221,1.83189,1.49258,1.6558,3.01893,3.28034,4.55816,4.89283q2.08952,2.1888,4.22812,4.33054c.68262.68759,1.36028,1.40269,2.05088,2.10469a4.77455,4.77455,0,0,0,.462.54374c.51362.56133,1.06884,1.08658,1.60354,1.62788,1.01966,1.03253,2.044,2.06147,3.05215,3.10523,2.02214,2.09346,3.95889,4.26361,5.962,6.3723a.62867.62867,0,0,0,.38035.19286.31589.31589,0,0,0,.44051.133,13.92616,13.92616,0,0,0,3.42476-3.82115c.13938-.16241.27533-.32556.40933-.47893q.90622-1.03725,1.80478-2.08223.9591-1.121,1.89059-2.26223c.3219-.36341.64526-.72536.96105-1.09447.61375-.71739,1.21879-1.44227,1.82636-2.16494.20425-.2041.41161-.405.61285-.61205a16.56543,16.56543,0,0,0,2.64656-3.19673c.56988-.67057,1.1404-1.341,1.68121-2.03265.048-.05332.09647-.10616.1445-.15948.97554-1.08333,1.91232-2.20141,2.87557-3.29573.91155-1.03554,1.82872-2.06554,2.73432-3.10645a35.72844,35.72844,0,0,1,2.7441-2.95845,7.69927,7.69927,0,0,0,.695-.82135c.12781-.14345.48965-.595.48965-.595S535.5773,245.96045,535.29708,245.71386Z"/><path class="b" d="M586.95931,349.27257c-.042-1.87439-.05968-5.62137-.05968-5.62137l.175-2.44238-4.41135-10.17489-2.5176-17.15219s-11.14022-33.99343-11.19851-34.16765l.00017-.00219q-.33192-1.05008-.66285-2.09778a5.88179,5.88179,0,0,1-.396-2.02842.66494.66494,0,0,0-.54643-.65641q-.14848-.39932-.32825-.16974l-.064.07286c-.02589.03192-.04738.067-.07018.10112q-.07522.11185-.15093.22314a.64218.64218,0,0,0-.105.1559q-.075.11247-.14784.22608c-.07881.12219-.112.25587-.17878.38311a1.44063,1.44063,0,0,0-.118.2724.98209.98209,0,0,1-.06416.14451c-.30268.28607-.61464.56685-.8605.84585-.42285.47967-.7975,1.0059-1.19461,1.507-.8229,1.03814-1.65149,2.07165-2.4511,3.12794-1.55,2.04739-3.12778,4.07417-4.71479,6.093q-2.36122,3.00318-4.74784,5.986c-.81248,1.01535-2.44524,3.04214-2.44524,3.04214l-1.7171,2.26654-44.4975.06985s-.23693,49.55491-.17375,49.63453c-.03029.64932-.056,1.29849-.0609,1.94863l-.00733,1.00713a4.54116,4.54116,0,0,0,.21216,1.10164,4.74488,4.74488,0,0,0,.31.93923,11.18538,11.18538,0,0,0,.64151,1.1881,4.97718,4.97718,0,0,0,1.83067,1.67452,11.3866,11.3866,0,0,0,1.2249.62531c.28282.12383,4.05336,1.215,4.36663,1.2742a7.21275,7.21275,0,0,0,2.43248.39743c.69943.0714,1.72754-.462,2.20037-.47009.36147-.00619,5.23673-.87292,5.23673-.87292s.744-.1155.71326-.40426a10.18775,10.18775,0,0,0-1.61675-.64145c-.59642-.2159-5.70806-.947-7.38656-1.14047-1.457-.16794-4.98482-.83523-4.81625-2.8259l-.00276-.01726c-.05455-.62433-.14122-1.50146-.14154-1.50944.43831.08687.85762-.29664,1.29951-.234.3486.04942,8.63881.43235,9.78767.66877,2.42928.49994,4.26054.19327,6.55045,1.16229a19.52977,19.52977,0,0,1,5.54729,3.50772c.10469.095.19017.20467.28982.3035.63158,1.30981,1.41523,2.55221,2.01571,3.89059a16.57658,16.57658,0,0,1,1.22083,5.048c.16054,1.67689.26963,3.36273.40526,5.04271.07538.93475-.04628,1.70661.03106,2.64128.03191.387-2.76353,1.82763-4.0669,2.23525-.6477.20246-1.27882.47915-1.92652.681-.40216.12529-.81542.332-1.2197.4505-.06887.02027-2.22979.47459-2.6852.49967-1.04026.05723-1.94408.36984-2.98467.42031-1.018.04942-1.77276.43061-2.79038.481-.298.01474-.5943.0451-.891.07042a20.5444,20.5444,0,0,1-2.82591-.54512c-2.1362-.57736-7.17457-1.9807-7.17457-1.9807s-2.755,4.26718-3.62426,5.43818c-1.38409,1.69129-4.681,5.28191-6.13658,5.09873-4.58147-.57657-12.61257-7.56923-12.61257-7.56923l.60726-65.39506s-6.535-7.24559-8.805-9.67031c-2.26076-2.41479-4.49205-4.85766-6.72139-7.30135-1.18647-1.30053-2.35552-2.61636-3.52392-3.93309a40.45283,40.45283,0,0,0-3.73054-4.07637.291.291,0,0,0-.31994-.03435.38474.38474,0,0,0-.43848-.083,1.22858,1.22858,0,0,0-.29812.22681.61464.61464,0,0,0-.093.07074c-.02784.02866-.06708.04551-.09281.07628a1.09825,1.09825,0,0,0-.27517.45932,7.30927,7.30927,0,0,0-.38213,1.22571,10.39681,10.39681,0,0,0-.34437,1.67192,1.28756,1.28756,0,0,0,.33118,1.15765.21714.21714,0,0,0,.12244.08459.86265.86265,0,0,0,.11788.08125c.012.00513.02524.00219.03777.00618a6.99566,6.99566,0,0,0,1.70506.93476,5.9956,5.9956,0,0,1,.91814.46208,3.21366,3.21366,0,0,1,.89845.92913c-.022.04063-.04283.08011-.06692.12106-.08793.14971-.17683.29967-.26866.44719a3.95111,3.95111,0,0,1-.77991.83974,3.68408,3.68408,0,0,1-.38425.32271c-.15908.10738-.33574.18529-.495.29194-.1086.07262-.20727.16274-.31066.24708-.05243.01091-.10225.03492-.15272.04355a6.29479,6.29479,0,0,1-.71283.0666,2.1802,2.1802,0,0,1-.62132-.014c-.03485-.00871-.06546.01588-.09916.02386a.26553.26553,0,0,0-.31262.02458c-.31115.34372-.13579.92018-.0858,1.32471.05177.41715.00879.83706.04494,1.25608.06154.71307.18512,1.427.28754,2.13547.1042.71966.18415,1.44218.28656,2.16152a3.69,3.69,0,0,0,.20874.80262,6.06185,6.06185,0,0,0,.09264.833,7.953,7.953,0,0,0,.20988.97635,4.01286,4.01286,0,0,0,.21932.66749.7432.7432,0,0,0,.1397.197c.02019.076.03793.15256.06122.22762a2.80893,2.80893,0,0,0,.41958.93158c.01775.02222.04152.02336.06155.03916a1.655,1.655,0,0,0,.12407.32189c.02247.104.04982.20735.0749.31083.09492.389.698.2426.67554-.13848a15.92039,15.92039,0,0,1-.07343-2.30456c.03158-.37221.02458-.763.08238-1.13079.02768-.17739.05894-.35283.098-.528a1.08,1.08,0,0,0,.05275-.42764.20829.20829,0,0,0-.10713-.13808l.001-.00236a5.70264,5.70264,0,0,0,.4598-1.471,6.7128,6.7128,0,0,0-.25726-1.84972c-.02-.09793-.03875-.21036-.06024-.32564l.05992-.09183q.00268-.08059.00635-.161c.00163-.26474-.01742-.52469-.00309-.79163.01107-.2076.00325-.41641.01953-.62352a1.564,1.564,0,0,1,.0368-.202c.07327-.13677.14752-.27313.21818-.41128.12016-.23422.17047-.49148.29243-.72268a2.96029,2.96029,0,0,1,.408-.62637,3.87192,3.87192,0,0,1,1.29149-.8544,5.79874,5.79874,0,0,1,.79082-.282l.15322-.04168a.917.917,0,0,1,.87678.24383.5688.5688,0,0,1,.04234.07294,16.46358,16.46358,0,0,0,.44531,3.07527c-.00293.03427-.01465.063-.01661.09793a18.23062,18.23062,0,0,0,.00179,2.20785c.08939,1.4653.2203,2.92669.36309,4.38768q.23618,2.41593.5505,4.82176.04249,1.13421.10941,2.26605a18.71047,18.71047,0,0,1-.18659,3.16662,12.769,12.769,0,0,1-2.49962,4.82168,26.53781,26.53781,0,0,1-2.78292,3.39781,15.78171,15.78171,0,0,1-2.07238,1.65434c-.508.33183-3.00955,1.48756-3.00955,1.48756l-1.602,8.54716-2.36338.31184-6.109-1.42026s-2.75357-1.46037-2.95579-6.37958c-.034-.83095.30632-4.4597.11419-5.274a12.66848,12.66848,0,0,0-.69622-1.638,15.47775,15.47775,0,0,1-.73073-3.89223c-.23739-2.12521-.37612-4.26353-.47251-6.40282a.63342.63342,0,0,0,.04527-.18806,14.673,14.673,0,0,0-.12635-2.57191.82073.82073,0,0,0,.0591-.35471,20.134,20.134,0,0,0-.12977-3.19363,6.868,6.868,0,0,1,0-1.30574l-.18024-.83429s.42513-.90545.58729-1.37331c.26263-.75679.42855-1.411.71153-2.16038.26589-.7042.52786-1.37437.80743-2.0732a8.06771,8.06771,0,0,1,.98017-2.07677c.37189-.44792.57916-.68148.947-1.13583a11.85462,11.85462,0,0,0,.8833-1.50479,9.9389,9.9389,0,0,1,1.36085-1.74348c.07881-.06619.15305-.12618.22046-.17373.56889-.40168,1.52025-.4178,1.94293-.99027a3.62222,3.62222,0,0,0,.40494-.90821,2.8869,2.8869,0,0,1,.59087-.919,16.6399,16.6399,0,0,1,2.23211-2.037,6.05879,6.05879,0,0,0,1.40986-1.18574,1.6385,1.6385,0,0,0,.64526-.6595,3.94719,3.94719,0,0,0,.26214-1.30085q.08792-.35793.17845-.71511c.09834-.38605.28965-.88029.083-1.2582a1.37419,1.37419,0,0,0-.61139-.49326,9.63753,9.63753,0,0,0-1.83792-2.29853q-1.43509-1.41557-2.87508-2.82616c-.40852-.39883-.86539-.94077-1.37518-1.35328a.62452.62452,0,0,0-.66887-.427,1.90906,1.90906,0,0,0-.4051-.13913.0686.0686,0,0,0-.07831.08752,1.72937,1.72937,0,0,0,.10958.28266.56962.56962,0,0,0-.08125.13815q-2.69778,7.84884-5.45448,15.677c-.90756,2.57639-1.82327,5.14985-2.72838,7.72705-.46583,1.3265-.94224,2.64966-1.4027,3.97811-.20239.58411-.58485,1.75984-.58485,1.75984l-.41926,1.2713-.85888,3.47988-3.3,10.161-4.007,6.94526-1.04042,11.13268s-.38214,8.09917-.60277,12.06466a65.46772,65.46772,0,0,0-.05731,6.648c.04983,1.08251.27631,3.36745.27631,3.36745l.331,1.98217,6.11091,33.85592,3.813,29.60184,138.38185-1.3349-1.576-26.81366,3.14844-3.36736,5.22951-32.29044S587.04365,353.03616,586.95931,349.27257Z"/><path class="b" d="M501.03431,286.83919c-.02687-.01017-.04315-.02474-.06717-.03565a1.40913,1.40913,0,0,0-.18643-.17463.47585.47585,0,0,0-.14246-.24537c-.44524-.4029-.87883-.819-1.31738-1.22978a17.81931,17.81931,0,0,0-1.39765-1.36444c-.0714-.08881-.14272-.178-.2146-.26621-.11715-.14979-.23552-.3013-.36057-.44319-.26059-.32459-.51614-.6547-.79106-.96577-.40029-.45289-.84723-.86914-1.25982-1.31079l-.01254.014c-.42976-.43905-.87434-.86132-1.30891-1.29394l-.003-.00423c-.24236-.25709-.495-.50409-.74246-.75606-.204-.20759-.41324-.40713-.62727-.60431-.04942-.0455-.09908-.094-.14808-.14124-.06082-.07352-.12513-.1441-.18448-.21875-.23593-.2969-.45-.60976-.66211-.924a3.61591,3.61591,0,0,0,.49725-.39883q.47026-.3976.9293-.80775c.55587-.49489,1.09619-1.0059,1.63488-1.51952q1.65882-1.58151,3.36444-3.10946c.4414-.39679-.04755-1.02658-.4883-.95136-.98221-.901-1.87431-1.90264-2.83877-2.82151-.18529-.20833-.37408-.417-.55856-.62336-.54536-.61009-1.082-1.22937-1.66834-1.80039-.38433-.37432-.74889-.75915-1.09912-1.166a4.13818,4.13818,0,0,0-.5-.56922.42683.42683,0,0,0-.69027-.17536c-1.04213.97367-2.07425,1.96-3.13136,2.91733-.52331.474-1.04482.95047-1.55852,1.43494-.29975.28266-.58884.577-.88127.8671a3.20635,3.20635,0,0,0-.29844.32206,2.17137,2.17137,0,0,0-.28991.52868c-1.214-1.1938-2.41071-2.40486-3.57333-3.64889-.37783-.40428-.75818-.80743-1.15122-1.19746a8.33888,8.33888,0,0,0-.76184-1.12859,14.64239,14.64239,0,0,0-1.77938-1.5161.4034.4034,0,0,0-.54985.00211,32.96883,32.96883,0,0,0-3.4237,3.11158c-.52542.54643-1.09847,1.05036-1.65426,1.56576-.18358.17023-.34575.35121-.5128.52966-.19978.15215-.4007.30268-.59845.45752-.313.24513-.62352.49351-.9275.74979a4.466,4.466,0,0,0-.46266.40624.93947.93947,0,0,0-.14686.22013.43458.43458,0,0,0-.01148.0552.34181.34181,0,0,0-.182.53991c2.25221,2.46054,4.79636,4.65259,7.14716,7.01707a.40549.40549,0,0,0,.13229.086.4702.4702,0,0,0,.01164.08906,3.02119,3.02119,0,0,0,.10006.28583c-.10893.09387-.21965.18423-.3153.27167q-.4191.383-.83967.7646c-.55522.50385-1.10327,1.014-1.65181,1.52506q-.832.77518-1.66688,1.54712a14.70855,14.70855,0,0,0-1.37029,1.401l-.00106.00074-.00049.00106c-.06545.079-.14222.14995-.20352.23153a.10722.10722,0,0,0-.11821.15394,8.91688,8.91688,0,0,0,.80441,1.06127c.28706.333.57289.66723.87109.99019.6048.65519,1.1211,1.36875,1.756,2.00244,1.02064,1.01869,2.0587,2.01946,3.096,3.02113a1.14869,1.14869,0,0,0,.53242.4673.33294.33294,0,0,0,.02426.03142.2671.2671,0,0,0,.374.25262,2.06528,2.06528,0,0,0,.60944-.5067c.05373-.05348.10811-.10624.16192-.15964.06187-.04779.12692-.09118.18407-.14076.2715-.23552.52827-.49139.79025-.73741q.80595-.75663,1.60508-1.5205c.54349-.51956,1.09122-1.03538,1.63113-1.55868.27664-.26809.55074-.53886.82591-.8084.12212-.11968.24122-.24391.367-.35967a2.02447,2.02447,0,0,1,.19791-.1463,10.5449,10.5449,0,0,0,.76061.83722c1.24818,1.41915,2.521,2.81623,3.84688,4.16324a.56467.56467,0,0,0,.06822.12447c.58851.70607,1.2161,1.37641,1.86128,2.0298a.60665.60665,0,0,0,.13612.19181c.60569.55407,1.17816,1.141,1.74917,1.72956l.04038.0534c.18073.23674.36863.46542.56694.68759.409.45818.87459.86311,1.26211,1.33749a.555.555,0,0,0,.87393-.09916,2.36164,2.36164,0,0,1,.13083-.25514c.02695-.04477.056-.08882.0863-.13156l.0236-.02939a2.55725,2.55725,0,0,1,.221-.2255.0578.0578,0,0,0,.0105-.0105l.03257-.02418c.0337-.02565.06659-.05219.101-.07685a2.658,2.658,0,0,0,.53893-.40624.63249.63249,0,0,0,.0451-.86254c-.02548-.02426-.06325-.02451-.093-.04242a.51765.51765,0,0,0-.14906-.246q-.66687-.61656-1.33358-1.233l-.00765-.00472q-.32361-.32519-.64786-.64973a.53245.53245,0,0,0-.15265-.37254c-1.17-1.23605-2.44181-2.37514-3.696-3.52546a.48073.48073,0,0,0-.05186-.03183,28.882,28.882,0,0,0-2.26068-2.46038c-.56808-.61913-1.134-1.241-1.69-1.87065q-.42642-.48283-.85481-.964c-.18634-.20939-.3836-.40852-.57581-.61245a3.19947,3.19947,0,0,0-.55107-.50434.3296.3296,0,0,0-.47714.1826.56031.56031,0,0,0-.40958.29642,3.54121,3.54121,0,0,1-.71681.75622c-.25083.2435-.50206.48651-.75638.72626q-.83136.78373-1.67624,1.55282c-.85432.77746-1.72866,1.5301-2.61033,2.27541q-2.05094-1.94932-3.94262-4.05585l.01734-.01222q.06936-.04993.13759-.1016a1.06115,1.06115,0,0,0,.16322-.16013.669.669,0,0,0,.15216-.24561c.15061-.128.30578-.25026.45524-.3771.60228-.51093,1.19649-1.03448,1.79282-1.55216.59747-.51875,1.1754-1.06249,1.75186-1.60435q.4218-.39651.83861-.79831.19843-.19135.39688-.38271c.13921-.13473.30276-.37017.48862-.43489a.42789.42789,0,0,0,.209-.5632.804.804,0,0,0-.50189-.43465.50265.50265,0,0,0-.101-.18659.36979.36979,0,0,1-.23145-.1914q-1.6526-1.71363-3.30786-3.42468c-1.05239-1.08788-2.11789-2.17349-3.0668-3.35467.20149-.15191.39654-.31147.59046-.4734.40152-.33516.80206-.67179,1.195-1.01705.41226-.3622.8264-.72236,1.2363-1.0874.43644-.38873.87206-.78211,1.33114-1.14471,1.48345,1.67168,3.0414,3.27342,4.64241,4.8321a.43757.43757,0,0,0,.0959.3171c.0298.03744.06814.06276.09892.09883l-.00391.00358a10.01624,10.01624,0,0,1,1.12224,1.20047.50237.50237,0,0,0,.24822.1695c.0692.09313.14409.18244.21321.27566a.469.469,0,0,0,.22054.266.45859.45859,0,0,0,.29861.11666c.00627.02752.00676.05838.03468.07287.27061.14043.50808-.16152.69036-.3245q.48492-.43339.964-.87329c.68458-.629,1.395-1.24094,2.06676-1.88123.48439-.46167.95225-.93947,1.42207-1.41531q.85091-.80547,1.70156-1.61127c.174.14816.34876.29568.51915.44792.2746.24545.54537.49635.81972.74335.06635.07571.13131.15216.19758.228q.48015.54964.96048,1.09912a.77747.77747,0,0,0,.534.33859q.48224.49174.96023.98579c-.92246,1.007-1.9,1.9606-2.86719,2.92889-.609.60969-1.22961,1.20463-1.85191,1.80055a22.90142,22.90142,0,0,0-1.71646,1.61575.1007.1007,0,0,0-.01367.07645l-.00277.00179c-.01042.012-.00985.02613-.018.03858a.11583.11583,0,0,0-.09932.19344c.01392.016.03338.02776.04819.04306a.55846.55846,0,0,0,.00456.07026.49189.49189,0,0,0,.15061.26051l.06163.06366-.0714-.0775c.06187.06757.12383.13482.18749.20084a4.58244,4.58244,0,0,0,.37074.32474l.07824.06456c.26726.30407.5115.62043.76932.93362a24.27807,24.27807,0,0,0,1.70327,1.73354q1.51018,1.49713,3.026,2.98621c.32605.38922.64737.7804,1.00794,1.14365q.27976.28184.563.55994c.06513.06993.12049.14711.1883.21508.3622.36277.73416.71446,1.10376,1.06876a.46374.46374,0,0,0,.10917.23715,28.15392,28.15392,0,0,0,2.19384,2.33288.51673.51673,0,0,0,.73546-.14727.62107.62107,0,0,0,.24594-.17739q.40432-.476.80393-.95592a.63015.63015,0,0,0,.12553-.26271A.47625.47625,0,0,0,501.03431,286.83919Zm-31.33624-4.45541c.00863-.00464.01636-.01116.02491-.01588-.00163.00985-.012.01531-.013.02524Z"/><path class="b" d="M473.38,282.37938l-.00871.00855c-.01612.01726-.02971.03582-.04526.05316Z"/><path class="b" d="M523.47355,300.17337c-.01522-.00123-.02572-.01254-.04038-.01539l-.01025.00016C523.44555,300.16531,523.44425,300.16384,523.47355,300.17337Z"/><path class="b" d="M551.72134,282.98629a3.70473,3.70473,0,0,0-.28689-.26165,1.60665,1.60665,0,0,0-.22478-.205c-.012-.0092-.021-.02116-.03321-.03028l-.00261.00366c-.05072-.03639-.09451-.07815-.14987-.11145a.58256.58256,0,0,0-.0587-.01995q-.308-.25435-.61587-.50881a1.0059,1.0059,0,0,0-.25872-.15354l-.013-.01058a.69237.69237,0,0,0-.18642-.099l-.02728-.02532c-.0092-.00765-.01229-.01734-.0223-.02474l-.03-.024c-1.51016-1.48451-3.1159-2.85514-4.68662-4.27265a.755.755,0,0,0,.097-.079c1.62332-1.86047,3.18786-3.77914,4.86043-5.594a.691.691,0,0,0,.15509-.29169c.48536-.51435.94631-1.05052,1.448-1.55a.63955.63955,0,0,0-.19978-.99638c-.00529-.00586-.00611-.012-.01156-.01791a41.48979,41.48979,0,0,0-5.01414-4.63216.53966.53966,0,0,0-.2728-.10648c-.143-.14117-.28355-.2851-.43139-.42105-.54089-.53585-1.08683-1.0668-1.62788-1.5954a.442.442,0,0,0-.81394-.18618c-.38678.62694-.8207,1.2244-1.23337,1.83563-.30968.33216-.59689.69117-.87662,1.05711-.15093.15859-.30114.31539-.45215.48057-.52217.57125-1.0624,1.12655-1.56975,1.71108a17.83573,17.83573,0,0,0-1.50536,1.97411,2.81741,2.81741,0,0,0-.19473.23332,4.43548,4.43548,0,0,0-.24244.43465c-.1607.162-.321.3241-.47934.48985a13.77165,13.77165,0,0,0-1.196-1.126.48318.48318,0,0,0-.16127-.28542q-.56235-.44048-1.1246-.88086c-.29316-.25628-.58551-.51337-.89136-.75418q-.29162-.24717-.58168-.49579-1.25718-1.18587-2.5146-2.3718c-.52477-.4949-1.33944.17234-.96658.69573q-.482.60191-.95633,1.20943c-.00976.00675-.02.001-.02955.00944-.01856.01661-.03639.035-.055.05178l-.00114-.001-.00716.00871a10.23633,10.23633,0,0,0-1.43836,1.56552,1.5831,1.5831,0,0,0-.23023.17063c-.04941.0451-.09687.09232-.143.14084a1.5512,1.5512,0,0,0-.22868.28925c-.04006.06863-.06766.14508-.1108.21151-.05634.08662-.10812.1747-.1629.26092a.29369.29369,0,0,0-.13783.098c-.02052.02557-.03908.05268-.05951.07832l-.00106-.00057-.0657.08833c-.52542.65942-1.02715,1.338-1.53141,2.01441-.36626.43164-.72308.87-1.0808,1.31738a.22336.22336,0,0,0-.09793.37132,4.63775,4.63775,0,0,0,.71429.53217,2.94163,2.94163,0,0,1,.41438.40982l.00447-.0039c.03566.03476.05414.08271.09265.11543a.48945.48945,0,0,0,.1677.07238,11.30186,11.30186,0,0,0,1.1185,1.0011.54881.54881,0,0,0,.06635.12545,10.4436,10.4436,0,0,0,1.86063,1.66126c.53877.41486,1.08226.82281,1.62665,1.2297l.37213.41389c-.101.15834-.18789.326-.27989.48976a5.82349,5.82349,0,0,1-.37253.55025,3.32688,3.32688,0,0,0-.34469.552.55423.55423,0,0,0-.11145.08125l-.435.48553.01034.00855c-.03566.041-.07481.06488-.11031.11226a.4878.4878,0,0,0-.056.12269c-.07172.09842-.13465.20434-.20157.30626-.923,1.03619-1.801,2.11366-2.68727,3.19487-.73611.89795-1.45016,1.81316-2.18008,2.71641-.69272.85708-1.51447,1.62763-2.26524,2.44418-1.39106,1.513-2.77335,3.13729-4.10489,4.70534-1.38681,1.63306-4.05549,4.8642-4.05549,4.8642l4.08823-.01044.51265-.67237s.67432-.87842,1.0156-1.31494c.05226-.06675.10086-.13636.15223-.20377.04917-.05609.09818-.11218.14809-.16746.38067-.42154.736-.8662,1.09651-1.30508.78716-.95845,1.62308-1.87,2.38621-2.85058.04323-.05552.08581-.11145.129-.16705.81614-.96081,1.60752-1.943,2.40526-2.919,1.27244-1.5568,2.57134-3.09366,3.82441-4.66586.36724-.4607.80107-.92767,1.1916-1.413a1.01886,1.01886,0,0,0,.14149-.10331c.09216-.088.17658-.18643.26279-.28022q.228-.248.44816-.50295c.32361-.37375.63525-.75687.93907-1.14682.19091-.245.35275-.51167.52086-.77242a.40987.40987,0,0,0,.24155-.13588l.151-.20434-.08035.10836a2.884,2.884,0,0,0,.24448-.37791l-.05968.10763c.05528-.0911.10811-.18277.1616-.27411.08516-.11015.17112-.21956.2527-.33256.02336-.0324.05365-.0714.08141-.10746a.4326.4326,0,0,0,.25546-.18765l.25465-.42741a.66835.66835,0,0,0,.00123-.78121.68588.68588,0,0,0-.37645-.23218c-.40273-.3372-.81662-.6534-1.2301-.97065a.53716.53716,0,0,0-.14451-.2098q-2.2181-1.97289-4.43538-3.94692a.55943.55943,0,0,0-.351-.14182c-.01751-.02068-.0377-.03672-.055-.05788-.00635-.00676-.014-.00847-.02051-.01482l-.01132-.01189c.05512-.06659.1108-.13278.166-.19929a.37046.37046,0,0,0,.21052-.1318q.46844-.58347.93671-1.167a.36133.36133,0,0,0,.33647-.15427c.29169-.40485.603-.7931.9201-1.17629q.71241-.77093,1.41955-1.5468l.00016-.00016.06464-.0705a22.53351,22.53351,0,0,0,2.28249,2.05732.49.49,0,0,0,.03656.04428c.77983.658,1.5428,1.33676,2.3061,2.01482.42912.45215.87459.88851,1.34327,1.30012a.56042.56042,0,0,0,.33842.14361.32313.32313,0,0,0,.08.10828.23884.23884,0,0,0,.3293-.01433c.23186-.23536.4445-.47845.65568-.73221q.14264-.17132.28445-.34314c.1191-.14426.25807-.26873.37554-.41373q.06461-.07974.12953-.1594a.58923.58923,0,0,0,.09956-.078c.19384-.224.36912-.46265.555-.69312a.55019.55019,0,0,0,.3744-.22364c.3048-.42992.62743-.84617.94664-1.26495a.51263.51263,0,0,0,.45142-.21777c.67692-.93671,1.3799-1.85436,2.08475-2.77006.24415-.28014.4734-.5724.73269-.83991a.48511.48511,0,0,0,.04071-.07718c.01327-.014.02564-.02866.03891-.04266.019-.02.01913-.0429.03509-.06358a41.52958,41.52958,0,0,0,4.32532,3.91616,34.53748,34.53748,0,0,1-3.09066,3.82294q-.76126.861-1.54882,1.69846c-.2952.31383-.58974.62734-.87329.95184a4.06109,4.06109,0,0,0-.86849,1.1614.439.439,0,0,0-.06968.76322l.12309.08223a.44793.44793,0,0,0,.20808.3941,27.80535,27.80535,0,0,1,3.66949,2.97383.59794.59794,0,0,0,.189.124c.12659.12033.25221.24138.38043.35992a26.76071,26.76071,0,0,0,2.024,1.7749,24.652,24.652,0,0,1-2.08386,2.71324c-.29617.35365-.59234.70754-.90186,1.0497-.23031.25457-.48186.49359-.71983.74246-.98311-.7659-1.95172-1.542-2.8916-2.36561-.11243-.09851-.22649-.19482-.33924-.29284q-.82062-.77165-1.64913-1.53279c-.23169-.21256-.46021-.42813-.69459-.63785a4.74336,4.74336,0,0,0-.9621-.78332c-.0088-.0044-.01873.00048-.02776-.00294a.50146.50146,0,0,0-.75948.01678c-4.32687,5.04829-13.86479,16.75478-13.86479,16.75478s3.36687.17145,3.3759.15a14.19473,14.19473,0,0,0,1.074-1.265q.82293-1.01649,1.64562-2.03322c1.1198-1.38389,2.21859-2.78593,3.34824-4.1616,1.11174-1.35385,2.19319-2.73262,3.308-4.0837a18.37891,18.37891,0,0,0,1.70847-2.00871c.03941-.00969.08752-.01734.13384-.02443a2.93469,2.93469,0,0,0,.53837.57435c.311.25726.6166.521.92539.78089.63964.53845,1.26951,1.09049,1.89824,1.64155,1.102.96585,2.18448,1.95442,3.2363,2.97481a.6974.6974,0,0,0,.9726-.12l.00546-.011a.53835.53835,0,0,0,.27712-.21386c.38539-.63565.76965-1.27423,1.17483-1.89849,1.55436-1.69121,3.05939-3.429,4.46063-5.24884a.75734.75734,0,0,0,.08116-.16135A.70512.70512,0,0,0,551.72134,282.98629Z"/><path class="b" d="M503.13282,309.33193a2.73929,2.73929,0,0,0-.26662.33712.322.322,0,0,0-.07246.04282c-.29584.29308-.59055.58656-.87532.89046a8.4877,8.4877,0,0,0-.53022.68377l-.60228.51182-2.33671,2.70079a26.59259,26.59259,0,0,1-2.04979,2.451c-.33239.32173-.934,1.07025-.934,1.07025l-.421.46089-1.06213,1.23864.5678.89559.72658.74237.75817.78808,1.75453-1.86289,1.28205-1.45084,1.10819-1.32339,1.84948-2.15338.05576-.04722.75134-.68417Z"/><path class="b" d="M503.96719,313.4026l-.00025.00049C503.94187,313.50721,503.91012,313.64007,503.96719,313.4026Z"/><path class="f" d="M529.57423,215.265a8.34019,8.34019,0,0,0-.01189-1.82993c-.18464-1.4071-.61595-2.77-.87858-4.16291-.07677-.40714-.11739-.81712-.17454-1.22571-.36317-6.07475-.23137-12.9535-4.06155-17.98433a6.59083,6.59083,0,0,0-3.58433-2.49831,11.9516,11.9516,0,0,0-4.7187.03053,32.1466,32.1466,0,0,1-5.17109.48813,27.9388,27.9388,0,0,1-5.46083-.67668,9.56416,9.56416,0,0,0-5.08846.05,8.4031,8.4031,0,0,0-2.827,1.59971.2685.2685,0,0,0-.35837.04005c-3.71751,4.38988-4.13148,10.08314-4.7235,15.55626-.151,1.39611-.34282,2.79009-.613,4.16845-.32051,1.63463-.8281,3.23784-1.02821,4.89511a18.84625,18.84625,0,0,0,1.18688,7.92927,5.681,5.681,0,0,0,2.14809,2.88737,8.29926,8.29926,0,0,1,2.24513,2.32,7.44153,7.44153,0,0,1,.913,2.44182,14.24776,14.24776,0,0,0-.09045,1.494,1.41216,1.41216,0,0,0,.81874,1.37078,1.1112,1.1112,0,0,0,.85668.19823,5.66917,5.66917,0,0,0,2.7401-1.65987,20.23283,20.23283,0,0,1,2.82526-2.40257,10.95163,10.95163,0,0,1,13.82044,1.76977c.84039.81459,1.792,2.34461,3.1106,2.33745a1.50966,1.50966,0,0,0,.96039-.37188.89586.89586,0,0,0,.93581-.76257,17.14355,17.14355,0,0,0-.09158-2.19254,8.20358,8.20358,0,0,1,.40477-1.25453,4.9702,4.9702,0,0,1,1.34571-1.76155,11.31826,11.31826,0,0,0,2.7362-2.4936.5567.5567,0,0,0,.30536-.34851,30.9984,30.9984,0,0,0,1.42086-6.92988c.0267-.15606.03565-.3149.05381-.47226.016-.121.02882-.24228.04144-.3635C529.56576,215.38886,529.57138,215.32707,529.57423,215.265Zm-32.0047.78545a2.60832,2.60832,0,0,0,.167-.23813.39709.39709,0,0,0,.12765-.11666,5.34521,5.34521,0,0,1,3.21253-2.1169.48125.48125,0,0,0,.44906.13066,3.08015,3.08015,0,0,1,2.16062.48024c.26581.27638.52429.55969.76925.8544a6.12562,6.12562,0,0,1,.62352.76134,4.46585,4.46585,0,0,1-.59226.373,7.06974,7.06974,0,0,1-.95966.47315,6.45489,6.45489,0,0,1-2.08337.45622A6.78679,6.78679,0,0,1,497.56953,216.0504Zm17.87043-.62849a5.11472,5.11472,0,0,0,.88655-.59836,4.88991,4.88991,0,0,1,2.32858-1.25649.59285.59285,0,0,0,.37465.21257,6.09562,6.09562,0,0,1,3.14048,1.38967c.12423.31041.29356.59942.44075.89934a5.812,5.812,0,0,1-4.33273.84927,6.0501,6.0501,0,0,1-2.39281-1.09855A4.46364,4.46364,0,0,1,515.44,215.42191Z"/><path class="f" d="M514.98194,234.20983c.096-.4734-.40892-.76851-.72805-1.00655a12.2012,12.2012,0,0,0-1.60231-1.03953c-.68108-.35812-1.43-.557-2.11007-.91725a.36822.36822,0,0,0-.42936.12358c-.11365.14548-.23275.28746-.35129.42952-.135.026-.27248.049-.3836.07783-.12065.03126-.2426.05658-.36423.08394a4.93324,4.93324,0,0,0-.66952.18016,1.97984,1.97984,0,0,0-1.06549.87524c-.04331.00057-.07677.02-.11854.02328l-.00122-.01083c-.02068.00546-.037.01669-.05747.02239a1.75332,1.75332,0,0,0-1.03928.46461c-.02508.02312-.02329.05495-.0412.08084-.0797.05918-.16575.10217-.24284.16974a.458.458,0,0,0,.02483.63793,3.85512,3.85512,0,0,0,1.96963,1.21423,13.66377,13.66377,0,0,0,2.5759.09753,17.73621,17.73621,0,0,0,2.31352-.0626,3.45858,3.45858,0,0,0,1.18468-.33183,4.796,4.796,0,0,0,.85554-.6394.30388.30388,0,0,0,.08458-.15972A.5647.5647,0,0,0,514.98194,234.20983Z"/><path class="f" d="M535.98105,216.13645a.52956.52956,0,0,0-.8277-.36643,7.91929,7.91929,0,0,0-3.31608,4.54432c-.54944,1.734-.81557,3.78492-2.22519,5.04824l-.005.00293c-.09582.07523-.186.1568-.27411.24065a.27741.27741,0,0,0-.492.10429,9.01119,9.01119,0,0,0,.483,5.24819.35415.35415,0,0,0,.67432-.05528,7.809,7.809,0,0,1,.916-1.542,6.52256,6.52256,0,0,0,.50043-1.58782,15.97619,15.97619,0,0,1,1.89848-3.75171,25.54342,25.54342,0,0,0,1.648-3.9059q.348-1.01452.64444-2.04429A4.95044,4.95044,0,0,0,535.98105,216.13645Z"/><path class="f" d="M491.61633,226.0943a4.77293,4.77293,0,0,0-1.27741-1.9409,6.15929,6.15929,0,0,1-1.06663-2.00953c-.806-2.28193-1.24745-5.07438-3.50455-6.277l-.00676-.02182c-.22672-.64468-1.347-.6661-1.30256.13856.00334.05968.01433.11691.019.17617l-.00049.00009.00074.00236a8.83763,8.83763,0,0,0,.75638,2.84325c.07213.30887.146.61749.22721.92449a17.26815,17.26815,0,0,0,1.488,3.63016,33.71751,33.71751,0,0,1,1.69724,3.5433,26.51214,26.51214,0,0,0,1.58937,3.66647.68307.68307,0,0,0,1.22774-.21615A12.89194,12.89194,0,0,0,491.61633,226.0943Z"/><path class="f" d="M470.25593,313.22744c-.08418-.65706-.1813-1.31046-.26214-1.96606-.001-.75035-.01588-1.50039-.07229-2.25074a.66408.66408,0,0,0-.09843-.27208c-.01009-.271-.02442-.54178-.03452-.81288a3.82394,3.82394,0,0,0-.16485-1.53393c-.00717-1.83856.01424-3.67778-.07653-5.51684a21.99838,21.99838,0,0,0-.34274-3.75854.71749.71749,0,0,0-1.34855-.22551.70741.70741,0,0,0-.33647.13132c-1.8288,1.39064-1.81154,3.784-1.7973,5.87105a25.06431,25.06431,0,0,1-1.239,7.34865,22.20683,22.20683,0,0,1-2.60463-13.13146.23936.23936,0,0,0-.00253-.02922c.02451.00464.04942.00146.07392.00561a3.39219,3.39219,0,0,0,.56841.23894,2.85,2.85,0,0,0,1.2411.05919c.71462-.11943,1.78426-.6363,1.81756-1.463a.82607.82607,0,0,0-.52461-1.02846c-.308-.08279-.62376-.16835-.93906-.25734-.27655-.124-.55774-.23234-.844-.33011l-.18969-.10405c-.10933-.07343-.22786-.13221-.33573-.20816a11.86,11.86,0,0,1-1.151-.83q.09475-.772.12163-1.549a12.10827,12.10827,0,0,0,.06488-1.6567c.03305-.15207.055-.30528.09142-.457a6.118,6.118,0,0,1,.73245-1.13315,5.69257,5.69257,0,0,1,.42073-.43164,4.48409,4.48409,0,0,0,.573-.23389,7.28576,7.28576,0,0,0,1.473-1.121c1.04539-.98807,2.23145-2.2645,1.92022-3.82937a.5423.5423,0,0,0-.73627-.40933,11.94107,11.94107,0,0,0-1.96353.78129c-.348.17675-.68719.36985-1.01958.5746a1.28729,1.28729,0,0,0-.4051-.00106c.37554-1.69016.4563-3.56593-.90357-4.80784a.57672.57672,0,0,0-.6508-.08752.44261.44261,0,0,0-.17324.0574l-.00911.00488a.47682.47682,0,0,0-.16421.15981.62134.62134,0,0,0-.23568.34078c-.56474,1.99618-1.04319,4.014-1.48142,6.04088a15.10186,15.10186,0,0,0-2.77845,2.01344,9.26138,9.26138,0,0,0-1.0195.70729,4.27723,4.27723,0,0,0-1.43787,2.1082,10.89892,10.89892,0,0,1-.59486.92726,2.34917,2.34917,0,0,1-.38645.38621,1.7068,1.7068,0,0,0-.5772.08255,1.46877,1.46877,0,0,0-.5128.35552,4.695,4.695,0,0,0-.6854,1.07632,14.0124,14.0124,0,0,0-1.42809,1.99056c-.00961.01189-.02117.01579-.03053.02866q-.2584.35645-.51671.71291a.63055.63055,0,0,0-.83055.38889q-.26646.803-.53307,1.606a.556.556,0,0,0-.0149.132,17.37139,17.37139,0,0,0-1.0077,2.39647c-.22876.50466-.4427,1.01575-.62278,1.54044a11.75055,11.75055,0,0,0-.5715,5.50976c.1388.99524.36927,1.97526.49017,2.97326a23.37613,23.37613,0,0,1,.09924,3.52482c-.11813,3.90769-.65307,7.582,1.58359,10.94331-1.31567,2.53837-.91341,6.00234.14728,8.49089a8.47651,8.47651,0,0,0,2.57832,3.59083l2.79914.55776,5.36812-.08649-.088-1.56751,1.602-7.22937a26.32389,26.32389,0,0,0,2.82922-1.6127,20.24364,20.24364,0,0,0,6.79366-9.84969.8.8,0,0,0,.14157-.19164,1.92942,1.92942,0,0,0,.1686-.6928l.08288-.35259c.00268-.01139-.00293-.01986-.00082-.0311a.41121.41121,0,0,0,.20581-.32108A10.44463,10.44463,0,0,0,470.25593,313.22744Z"/><path class="f" d="M534.11692,360.55882a13.67323,13.67323,0,0,0-5.24225-6.12147,9.86937,9.86937,0,0,0-2.83218-1.14316,18.1772,18.1772,0,0,0-2.5124-.86987.58246.58246,0,0,0-.49709.08629,20.03826,20.03826,0,0,0-3.71531-.67456c-1.62666-.2816-3.275-.473-4.91181-.66032q-1.57161-.17988-3.1465-.30219a7.21136,7.21136,0,0,0-2.81378.01319.22174.22174,0,0,0-.05935.4c.01734.00953.03729.01319.05479.02223l-.00146.0013a.35841.35841,0,0,0-.06611.20377,3.59752,3.59752,0,0,0,1.15806,2.368,5.47654,5.47654,0,0,0,3.11158,1.40058,16.32688,16.32688,0,0,0,2.97375.09338c.48569.0499.97171.10632,1.45627.19318a11.88711,11.88711,0,0,1,4.49775,1.861c-.24472.07652-.48317.15077-.71.20971-1.15562.30057-2.31816.57679-3.47011.8912a21.99934,21.99934,0,0,1-3.08431.73106,8.15779,8.15779,0,0,1-3.24248-.35332c-2.0066-.55823-4.27729-1.15212-5.82026-2.6315-.76819-.7366-1.45162-1.55754-2.22128-2.29609-.09435-.09053-.19343-.18814-.29568-.2803a.36.36,0,0,0-.22241-.39875,1.53392,1.53392,0,0,0-2.05251,1.18045,1.39252,1.39252,0,0,0-.09069,1.25567,6.06583,6.06583,0,0,0,1.37477,1.9733c.19644.29308.39044.58778.58827.87988a.58621.58621,0,0,0-.38955.10169,2.57941,2.57941,0,0,0-.58705.66406.49808.49808,0,0,0-.49025.482,3.3592,3.3592,0,0,0,.18244,1.39911,2.57282,2.57282,0,0,0,.32491.82811.51119.51119,0,0,0,.10884.11576,11.789,11.789,0,0,0,1.695,2.119c.07482.078.15843.14637.235.22257a1.03055,1.03055,0,0,0-1.00948,1.00721,3.22432,3.22432,0,0,0,1.13608,2.31058,10.04651,10.04651,0,0,0,1.22913,1.13641,2.27894,2.27894,0,0,0-.44654,1.96133,4.87235,4.87235,0,0,0,1.97257,2.59584,12.59281,12.59281,0,0,0,2.80857,1.86234c.04054.01783.08442.02369.12529.04022a7.40786,7.40786,0,0,0,1.70294.7629c.11438.06056.22925.12154.3473.17193a6.626,6.626,0,0,0,.99507.30668,7.99474,7.99474,0,0,1,2.08532.64045.536.536,0,0,0,.44865.04689c.13173.03712.27134.08043.38947.11292a11.84621,11.84621,0,0,0,1.84012.3499,10.445,10.445,0,0,0,2.75557-.0298,6.55975,6.55975,0,0,0,1.57488-.14124.47592.47592,0,0,0,.2395.01848c.52551-.0946,1.04189-.21916,1.55315-.36065.15753-.0311.31563-.05967.47315-.09077a13.2804,13.2804,0,0,0,1.76921-.38784c.10681-.0092.21248-.00611.31978-.02011a21.14779,21.14779,0,0,0,3.28636-.74507,16.17941,16.17941,0,0,0,4.01287-1.50853,2.77439,2.77439,0,0,0,2.19018-1.3151,6.58489,6.58489,0,0,0,.38931-2.13229c.07033-.6871.11283-1.37885.13261-2.06929A19.58533,19.58533,0,0,0,534.11692,360.55882Z"/><path d="M509.98466,248.30591c.06314,2.21847.57972,5.03918,2.642,6.30172.32342.198.619-.31007.29661-.50744a4.54761,4.54761,0,0,1-1.72748-2.29144,10.45669,10.45669,0,0,1-.62344-3.50284.294.294,0,0,0-.58767,0Z"/><path d="M536.40916,215.38739c-.99237-.96078-2.32086.0958-3.05752.85855a9.49461,9.49461,0,0,0-2.37253,4.5135c-.27738,1.11351-.4344,2.5794-1.27257,3.43022-.61453.62381-1.25684,1.00162-1.50971,1.91865a6.863,6.863,0,0,0,.07524,2.75681c.12223.81388.2326,1.92458.34435,2.82667.06883.55566.95119.56256.88151,0-.18612-1.50252-.48628-3.0684-.52307-4.58562a2.614,2.614,0,0,1,1.22949-2.1811,4.29221,4.29221,0,0,0,1.13565-2.018c.50729-1.64152.66633-3.30567,1.62758-4.76877.32732-.49821,2.02484-2.89575,2.81825-2.1276.40777.39478,1.03183-.22783.62333-.62332Z"/><path d="M484.70185,216.01071c.778-.75324,2.43727,1.55991,2.76413,2.047.9973,1.4861,1.16857,3.1703,1.68171,4.84939a4.27367,4.27367,0,0,0,1.13565,2.018,2.62554,2.62554,0,0,1,1.23347,2.05377,35.69076,35.69076,0,0,1-.52705,4.713c-.06957.56163.81257.55658.88151,0,.1121-.905.22189-2.01136.34434-2.82667a6.866,6.866,0,0,0,.07524-2.75681,4.11786,4.11786,0,0,0-1.44695-1.8626c-.88707-.86366-1.04836-2.33431-1.33533-3.48627a9.494,9.494,0,0,0-2.37253-4.5135c-.736-.76211-2.06495-1.81952-3.05751-.85855-.40833.39532.21538,1.01827.62332.62332Z"/><path d="M503.413,196.99357a7.07242,7.07242,0,0,0,3.14959,1.00079,33.34578,33.34578,0,0,0,3.76472.3407,12.5991,12.5991,0,0,0,6.75945-1.5391.29406.29406,0,0,0-.29661-.50744,12.00644,12.00644,0,0,1-6.46284,1.45886,32.04486,32.04486,0,0,1-3.42443-.29545,7.05625,7.05625,0,0,1-3.19327-.9658c-.31271-.2144-.607.29466-.29661.50744Z"/><path d="M510.05474,230.82257c-.266.57034-.90982.63712-1.46217.75548a3.17556,3.17556,0,0,0-.85024.27648,4.35728,4.35728,0,0,0-.81076.71819c-.27115.24759-.6546.25285-.95087.46875a2.11379,2.11379,0,0,0-.609.73876,13.2024,13.2024,0,0,1-.83186,1.76495c-.22337.30573.28632.59927.50744.29662a13.18078,13.18078,0,0,0,.83186-1.765,1.33227,1.33227,0,0,1,.62077-.65831,4.45409,4.45409,0,0,0,.54981-.19959,2.01041,2.01041,0,0,0,.40991-.34156,2.05378,2.05378,0,0,1,.77851-.59979,8.73908,8.73908,0,0,1,.9069-.2165,1.87827,1.87827,0,0,0,1.41719-.94191c.15889-.34065-.34754-.63942-.50745-.29661Z"/><path d="M510.30244,231.11918a1.87861,1.87861,0,0,0,1.41719.94191c.29257.06593.59071.11273.87629.20651a2.05146,2.05146,0,0,1,.80912.60978,2.03,2.03,0,0,0,.40991.34156,3.06571,3.06571,0,0,0,.50047.18024,1.31194,1.31194,0,0,1,.6701.67766,13.18018,13.18018,0,0,0,.83187,1.765c.22088.30232.731.00942.50744-.29662a13.20429,13.20429,0,0,1-.83186-1.76495,2.12249,2.12249,0,0,0-.57931-.71579c-.30333-.23016-.70063-.23608-.9806-.49172a4.79855,4.79855,0,0,0-.77482-.699,3.01417,3.01417,0,0,0-.88618-.29567c-.55237-.11836-1.19606-.185-1.46218-.75548-.15973-.34244-.66648-.04437-.50744.29661Z"/><path d="M506.64748,233.40372a41.33122,41.33122,0,0,0,7.46805-.07686c.374-.03217.37738-.62014,0-.58768a41.33029,41.33029,0,0,1-7.46805.07686c-.37623-.03615-.37374.55176,0,.58768Z"/><path d="M505.46148,234.499a3.94221,3.94221,0,0,0,2.19156,1.35263,14.90458,14.90458,0,0,0,2.97714.0313,9.35239,9.35239,0,0,0,2.90242-.11435,3.28829,3.28829,0,0,0,1.915-1.45173.29406.29406,0,0,0-.50744-.29662c-.968,1.64359-2.8881,1.26412-4.485,1.2736a13.27909,13.27909,0,0,1-2.57352.00695,3.42564,3.42564,0,0,1-2.00465-1.21733c-.23906-.29328-.65265.12468-.41555.41555Z"/><path d="M504.6603,235.95131a5.63676,5.63676,0,0,0,1.24866,1.19675.29538.29538,0,0,0,.402-.10542.30143.30143,0,0,0-.10542-.402q-.08134-.05676-.16064-.11633c-.01051-.00793-.02072-.01659-.03158-.024.06043.04126.01825.014.00466.00333q-.03894-.03069-.07729-.06214-.14954-.12264-.28957-.25629-.1363-.13012-.26283-.27-.06653-.07356-.13017-.14965-.02864-.03423-.05665-.069l-.031-.03874c-.01125-.01422-.0504-.065-.00279-.00313a.32376.32376,0,0,0-.17561-.135.30033.30033,0,0,0-.22642.02962.29658.29658,0,0,0-.135.17561.28362.28362,0,0,0,.02962.22642Z"/><path d="M515.70376,235.6547c.04546-.0591.01356-.01762.00335-.00466l-.03088.03881q-.03107.03866-.06288.07669-.06045.07227-.12353.14228-.12945.14369-.26947.27736-.13631.13011-.2819.25-.03828.03151-.07717.06229c-.00757.006-.05356.0418-.01716.01366.03748-.029-.01434.01075-.01754.01316q-.0792.05973-.16065.11633a.29388.29388,0,0,0,.29661.50744,5.63676,5.63676,0,0,0,1.24866-1.19675.29435.29435,0,0,0,.02962-.22642.29967.29967,0,0,0-.135-.17561.2966.2966,0,0,0-.22642-.02962.34793.34793,0,0,0-.17561.135Z"/><path d="M510.15659,228.42667a11.725,11.725,0,0,0-.01761,2.42.302.302,0,0,0,.29384.29384.29593.29593,0,0,0,.29384-.29384,11.72434,11.72434,0,0,1,.01761-2.42.29564.29564,0,0,0-.29384-.29383.30069.30069,0,0,0-.29384.29383Z"/><path d="M513.14419,236.63787c.636.16714,1.30824.40208,1.47332,1.11173a5.43879,5.43879,0,0,1,.049,1.65142c-.00648.07941-.01438.15863-.0224.23789-.00454.04489-.03777.17127-.001.02011-.03325.13685-.0514.27926-.07689.41771l-.20536,1.1156c-.068.36972.49821.52825.56669.15623.10049-.54594.2308-1.09406.297-1.64529a4.68747,4.68747,0,0,0-.18609-2.52389,2.49264,2.49264,0,0,0-1.738-1.10819.29409.29409,0,0,0-.15623.56668Z"/><path d="M507.56421,236.07119a2.72906,2.72906,0,0,0-1.61961.9186,2.566,2.566,0,0,0-.36175,1.43494,8.53082,8.53082,0,0,0,.157,1.85209l.19728,1.07174c.06837.37143.63485.2141.56668-.15623l-.20137-1.094c-.02681-.14562-.0459-.29541-.08087-.43935.03673.15116.0035.02478-.001-.02011-.008-.07926-.01592-.15848-.0224-.23789a5.52908,5.52908,0,0,1,.04331-1.62567c.16106-.72562.8279-.96639,1.479-1.13748a.29409.29409,0,0,0-.15623-.56668Z"/><path d="M496.74763,231.59974a29.54167,29.54167,0,0,0-.15155,5.63063c.03383.46231.0793.92426.14507,1.38319.01225.08553.03317.17308.03935.25928-.01557-.21706.01232-.11785-.02466.00953a27.1223,27.1223,0,0,0-.53542,3.06393,26.702,26.702,0,0,0-.43117,3.04975c-.01854.378.56918.37706.58768,0,.09965-2.03173.73477-4.00678.95712-6.02082a9.98292,9.98292,0,0,0-.1503-1.74486,29.54251,29.54251,0,0,1,.15155-5.63063c.04442-.37481-.54363-.37161-.58767,0Z"/><path d="M523.18044,231.59981a35.62507,35.62507,0,0,1,.12545,5.63063,12.58833,12.58833,0,0,0-.12355,1.73782c.17658,2.015.70911,4.001.7914,6.02786.01392.34287.54867.34464.53468,0-.04127-1.01661-.21878-2.03622-.35777-3.04271-.13925-1.00844-.20916-2.0722-.44319-3.06393-.02631-.11147-.00959-.23162-.02042-.02362.00419-.08041.02087-.16254.03176-.24253.06274-.4611.09364-.92872.12176-1.39289a35.62624,35.62624,0,0,0-.12544-5.63063c-.03329-.33932-.56831-.34277-.53468,0Z"/><path d="M501.17824,230.8981a16.25865,16.25865,0,0,0-1.5778,4.0157,7.572,7.572,0,0,0-.29757,1.60678,8.26878,8.26878,0,0,0,.0758,1.29463c.04643.37028.63469.37493.58768,0a9.04151,9.04151,0,0,1-.07807-1.16883,6.56191,6.56191,0,0,1,.27885-1.57635,15.656,15.656,0,0,1,1.51855-3.87532.29406.29406,0,0,0-.50744-.29661Z"/><path d="M518.76886,231.19471a15.65679,15.65679,0,0,1,1.51855,3.87532,6.63518,6.63518,0,0,1,.27834,1.53407,8.79092,8.79092,0,0,1-.07756,1.21111c-.04694.3743.54117.37089.58768,0a8.5449,8.5449,0,0,0,.077-1.25339,7.41473,7.41473,0,0,0-.29883-1.648,16.25824,16.25824,0,0,0-1.57779-4.0157.29406.29406,0,0,0-.50744.29661Z"/><polyline class="g" points="527.342 241.778 531.415 242.724 536.693 246.613 537.628 245.568 570.368 270.977 548.033 298.777"/><polyline class="g" points="464.504 287.551 496.032 322.483 503.183 322.447"/><polyline class="g" points="493.46 242.087 490.354 242.483 484.222 247.391 482.808 245.931 449.757 271.149 459.48 281.963"/><line class="g" x1="483.4834" y1="246.61731" x2="511.29053" y2="275.6943"/><line class="g" x1="536.73495" y1="246.56236" x2="483.63464" y2="308.38682"/><path class="g" d="M497.60636,258.83766a75.72619,75.72619,0,0,0,13.12164,1.541,101.62162,101.62162,0,0,0,12.47474-1.00129"/><path d="M494.2515,243.81782l-2.60259,3.01518a.43863.43863,0,0,0-.11335.42884,102.95948,102.95948,0,0,0,5.578,11.79828.44109.44109,0,0,0,.76116-.44492,101.172,101.172,0,0,1-5.48913-11.58771l-.11335.42884,2.60259-3.01518c.369-.4275-.25186-1.05369-.62333-.62333Z"/><path d="M525.78338,244.44115l2.60259,3.01518-.11335-.42884a81.16442,81.16442,0,0,1-5.33643,12.03556.44108.44108,0,0,0,.76116.44491,82.61263,82.61263,0,0,0,5.42529-12.24612.44258.44258,0,0,0-.11335-.42884l-2.60258-3.01518c-.37132-.43017-.99249.19565-.62333.62333Z"/><line class="g" x1="542.0475" y1="249.45105" x2="487.58693" y2="313.28074"/><line class="g" x1="565.41486" y1="267.7525" x2="539.79722" y2="298.7771"/><line class="g" x1="478.1946" y1="249.45105" x2="507.62983" y2="280.02586"/><line class="g" x1="455.17962" y1="267.60403" x2="488.17389" y2="302.94183"/><path d="M492.13027,208.28148c.1974-3.36479.6267-6.83871,1.14331-10.16945.79861-5.149,3.981-11.54365,10.27215-10.31474,1.602.31293,3.14372.7212,4.77091.93856a18.84914,18.84914,0,0,0,6.73829-.47646,13.22,13.22,0,0,1,3.83179-.575,7.39736,7.39736,0,0,1,4.21442,1.728,12.401,12.401,0,0,1,3.74426,6.7753,51.54333,51.54333,0,0,1,.89814,6.33747c.212,1.91687.51294,3.83031.62593,5.7563.03116.53124.86192.53482.83055,0-.113-1.92606-.41395-3.83938-.62593-5.7563-.209-1.89022-.359-3.80206-.73388-5.66886-.98615-4.911-4.07861-10.21973-9.77431-10.01675a20.85984,20.85984,0,0,0-3.67923.734,16.93662,16.93662,0,0,1-4.68363.48084,31.55508,31.55508,0,0,1-5.536-.96658c-5.36519-1.32376-9.468,2.783-10.95475,7.56383a36.95424,36.95424,0,0,0-1.18861,6.98467c-.24442,2.21082-.59369,4.42448-.724,6.6451-.03132.53393.79934.53212.83055,0Z"/><path class="h" d="M492.37374,226.47266c.019-1.24937.16291-2.55913.05776-3.80317a49.95451,49.95451,0,0,0-.98394-5.14094,14.8955,14.8955,0,0,1-.46074-3.2128,9.51179,9.51179,0,0,1,.16674-1.80256c.34423-1.36735.6414-2.74815.96188-4.12131.12136-.52-.67926-.74193-.80088-.2208a30.88491,30.88491,0,0,0-1.15829,6.14467,25.261,25.261,0,0,0,.85072,5.29957q.2321,1.2039.46346,2.40794c.03989.20756.09058.41614.12015.62546.03293.23307.00382-.0752.00839.14948.02488,1.22226-.03724,2.45193-.0558,3.67446a.41553.41553,0,0,0,.83055,0Z"/><path class="h" d="M496.82,231.98544a2.9877,2.9877,0,0,0,3.29166.76181c.97075-.33754,1.49878-1.34041,2.19214-2.044a16.78506,16.78506,0,0,1,3.47006-2.74813,4.66793,4.66793,0,0,1,1.66475-.71753l1.185-.15079c.523-.06655.52967-.89794,0-.83055a7.7037,7.7037,0,0,0-2.5.57319,15.35265,15.35265,0,0,0-3.55261,2.47529c-.78722.70363-1.40746,1.51582-2.14438,2.26122a2.12143,2.12143,0,0,1-3.01935-.16781c-.34362-.41021-.92848.18-.58729.58729Z"/><path class="h" d="M497.51992,231.48917a15.28578,15.28578,0,0,0-.35171-3.49949,2.973,2.973,0,0,0-.78267-1.58931,25.4017,25.4017,0,0,0-2.10671-1.91331,9.175,9.175,0,0,1-1.8638-1.93025c-.28124-.4533-1-.03673-.71716.41919.94289,1.51974,2.59916,2.50708,3.84784,3.74985a3.37409,3.37409,0,0,1,.64567.7774,2.27094,2.27094,0,0,1,.16026.62777,14.579,14.579,0,0,1,.33773,3.35815c-.02.53454.81055.53369.83055,0Z"/><path class="h" d="M528.97269,226.47266l-.05068-3.33683a1.78626,1.78626,0,0,1,.04277-.69283c.13373-.68373.263-1.36836.39474-2.05248.54435-2.82676,1.3811-5.624.71132-8.49383l-.86952-3.72561c-.12144-.52029-.92245-.3-.80089.2208.32049,1.37316.61766,2.754.96188,4.12131a9.51252,9.51252,0,0,1,.16675,1.80256,14.89552,14.89552,0,0,1-.46075,3.2128,49.95715,49.95715,0,0,0-.98393,5.14094c-.10516,1.244.03878,2.5538.05776,3.80317a.41553.41553,0,0,0,.83055,0Z"/><path class="h" d="M523.10863,231.39815a2.12168,2.12168,0,0,1-3.01936.16781c-.73768-.74435-1.35729-1.55771-2.14437-2.26122a15.402,15.402,0,0,0-3.55262-2.47529,7.68965,7.68965,0,0,0-2.5-.57319c-.52879-.06728-.52388.76389,0,.83055l1.185.15079a4.64854,4.64854,0,0,1,1.66476.71753,16.81565,16.81565,0,0,1,3.47005,2.74813c.69338.70372,1.22146,1.70564,2.19215,2.044a2.98753,2.98753,0,0,0,3.29166-.76181c.341-.40714-.24353-.99768-.58729-.58729Z"/><path class="h" d="M523.8265,231.48917a14.57906,14.57906,0,0,1,.33773-3.35815,2.27,2.27,0,0,1,.16026-.62777,3.37392,3.37392,0,0,1,.64567-.7774c1.24867-1.24275,2.905-2.23013,3.84784-3.74985.28259-.45547-.43561-.873-.71715-.41919a9.1738,9.1738,0,0,1-1.8638,1.93025,25.36647,25.36647,0,0,0-2.10671,1.91331,2.97191,2.97191,0,0,0-.78267,1.58931,15.28635,15.28635,0,0,0-.35172,3.49949c.02.53281.85062.53542.83055,0Z"/><path d="M521.83149,247.19432a5.71683,5.71683,0,0,1-1.58911,4.97789,5.606,5.606,0,0,1-3.261,2.1426,11.00209,11.00209,0,0,1-3.26337-.09308c-.48057-.08689-.93546-.38359-1.41426-.41964-.47041-.03542-.82827.25056-1.26893.362-1.24413.31475-2.21683-.49425-3.43142-.18625a12.35977,12.35977,0,0,1-4.00852.35122,5.23325,5.23325,0,0,1-3.25187-2.01535,5.80456,5.80456,0,0,1-1.71679-5.11943c.11154-.55391-.738-.79092-.85-.23434a6.2261,6.2261,0,0,0,1.04784,4.87836c.92429,1.30735,2.3381,2.85494,3.95563,3.27067a9.99,9.99,0,0,0,3.5715.02343,6.36624,6.36624,0,0,1,2.54709-.23158,5.04959,5.04959,0,0,0,1.9747.17824,4.54213,4.54213,0,0,1,1.883-.18889,11.19832,11.19832,0,0,0,1.95489.32411,10.14432,10.14432,0,0,0,2.96714-.10531c1.6145-.40188,3.03716-1.97156,3.95562-3.27067a6.22606,6.22606,0,0,0,1.04785-4.87836c-.1119-.55569-.96176-.32049-.85.23434Z"/><path d="M495.52663,244.99605a3.94231,3.94231,0,0,0,.36424,1.32648,5.85407,5.85407,0,0,0,1.03695,1.78854,2.177,2.177,0,0,0,.91111.61985.44087.44087,0,1,0,.23434-.85c-.11725-.03951.03167.02623-.03446-.01083-.03577-.02-.07336-.03663-.10889-.05736-.03645-.02127-.071-.045-.10623-.0682q-.0264-.01848-.0521-.03791.06923.05364.01236.00755a3.51063,3.51063,0,0,1-.36006-.37658c.06605.08122-.0309-.04231-.04174-.05742q-.04363-.06078-.085-.12312-.07366-.11069-.14107-.22536c-.10051-.17025-.19172-.34592-.27582-.52482q-.05967-.12695-.11457-.25607c.04209.099-.01778-.04507-.02477-.06259q-.02614-.06549-.05115-.13144-.08555-.22563-.15723-.45622c-.03736-.121-.072-.24318-.10008-.36676-.01088-.04793-.01781-.09684-.02883-.14464-.01579-.06849.0077.136.00669.04852-.00015-.01384-.002-.02771-.00216-.0416a.441.441,0,0,0-.88151,0Z"/><path d="M523.95587,244.99605c-.00017.01394-.00155.0277-.00216.0416-.00388.08788.02262-.1176.0067-.04852-.011.0478-.018.09671-.02884.14464-.02805.12358-.06272.24571-.10008.36676-.04744.15372-.1002.30581-.15723.45622q-.025.06594-.05114.13144c-.007.01752-.06686.16154-.02478.06259q-.0549.12908-.11457.25607c-.08409.1789-.17531.35457-.27581.52482q-.06759.1145-.14107.22536-.04144.06228-.085.12312c-.01085.01511-.1078.13864-.04175.05742a3.51054,3.51054,0,0,1-.36005.37658q-.05687.0461.01235-.00755-.02569.01944-.0521.03791c-.0352.02319-.06977.04693-.10623.0682-.03553.02073-.07311.03731-.10888.05736-.06614.03706.08278-.02868-.03447.01083a.451.451,0,0,0-.30784.54218.44509.44509,0,0,0,.54218.30784,2.85673,2.85673,0,0,0,1.444-1.35433,7.65785,7.65785,0,0,0,.74095-1.73677,2.48345,2.48345,0,0,0,.12732-.64377.441.441,0,0,0-.88152,0Z"/><path class="h" d="M496.177,244.63747a3.94658,3.94658,0,0,1-2.12334-3.05874.42173.42173,0,0,0-.40044-.30488c-.38169-.01065-.83926-1.25321-.93593-1.58542-.06057-.20816-.09552-.42647-.143-.638-.16784-.74817-.33853-1.49574-.48939-2.24758a17.844,17.844,0,0,1-.28774-5.0518.422.422,0,0,0-.30488-.40044c-1.89456-.69714-1.58978-3.11046-2.45418-4.63475-.40174-.70842-.92772-1.338-1.335-2.04322a20.86026,20.86026,0,0,1-1.264-2.95358,35.61485,35.61485,0,0,1-1.87892-5.633c-.2819-1.39311.2295-2.58254.13445-3.95852-.09708-1.40528-1.10728-2.29326-1.50141-3.61467a7.90229,7.90229,0,0,1,.07479-3.627c.39791-2.32222.78713-4.61846,2.941-5.97931a.42455.42455,0,0,0,.19084-.469,6.097,6.097,0,0,1-.31574-3.15428,10.66762,10.66762,0,0,1,1.50685-2.78505,9.3929,9.3929,0,0,1,1.65952-2.09234,5.387,5.387,0,0,1,1.77046-1.0383,8.04238,8.04238,0,0,0,1.54522-.40958c.50069-.30136.86776-.95832,1.3126-1.35132a8.36272,8.36272,0,0,1,1.13191-.8078c.97649-.61312,1.96817-1.2027,2.95776-1.79429a19.53375,19.53375,0,0,1,6.32384-2.87093,39.2642,39.2642,0,0,1,9.97943-.23565,16.47808,16.47808,0,0,1,7.22279,2.4881,33.001,33.001,0,0,1,5.12645,3.22057c.45434.40139.82047,1.07819,1.34528,1.371a9.35256,9.35256,0,0,0,1.51254.38989,6.13168,6.13168,0,0,1,3.03382,2.53636,18.10514,18.10514,0,0,1,1.71933,2.91279,5.32061,5.32061,0,0,1-.13206,3.62082.42325.42325,0,0,0,.19084.469c2.1541,1.361,2.54317,3.65726,2.94105,5.97931a7.97538,7.97538,0,0,1,.07479,3.627c-.389,1.33262-1.404,2.20482-1.50141,3.61467-.09493,1.37421.415,2.56957.13445,3.95852a35.47654,35.47654,0,0,1-1.87892,5.633,22.76529,22.76529,0,0,1-1.16938,2.79108c-.42308.76968-.99636,1.4429-1.42966,2.20572-.86322,1.5197-.56457,3.93943-2.45418,4.63475a.42507.42507,0,0,0-.30488.40044,17.86477,17.86477,0,0,1-.28775,5.0518c-.14484.72192-.31021,1.43923-.46931,2.15806-.04067.18375-.07168.37311-.12041.55481-.08173.30472-.55014,1.74613-.97856,1.75809a.42311.42311,0,0,0-.40044.30488,4.0594,4.0594,0,0,1-2.28741,3.05874c-.48965.21044-.06709.92614.4192.71715a4.80393,4.80393,0,0,0,2.66909-3.5551l-.40044.30488c1.59313-.04447,1.94607-3.09519,2.19258-4.23777a20.28561,20.28561,0,0,0,.494-6.11554l-.30488.40045c1.58758-.58419,1.98072-1.8073,2.33273-3.344.44166-1.92817,1.90275-3.36371,2.64047-5.18062a60.81681,60.81681,0,0,0,2.31081-6.43146,7.34981,7.34981,0,0,0,.35838-2.95564,10.86207,10.86207,0,0,1-.24773-1.81309c.04629-1.705,1.51075-2.92462,1.69254-4.68264a12.8,12.8,0,0,0-.36229-3.52266c-.45345-2.4543-.9889-4.60768-3.24325-6.032l.19085.469a7.63505,7.63505,0,0,0,.39554-3.20111,7.32014,7.32014,0,0,0-1.11969-2.49418c-1.10283-1.85431-2.332-3.67647-4.477-4.39636-.30861-.10357-.65954-.12631-.95977-.23954a2.10734,2.10734,0,0,1-.94531-.72336,8.51338,8.51338,0,0,0-1.3828-1.20106c-.95566-.64963-1.97089-1.22223-2.96145-1.81616-2.14541-1.28635-4.40083-2.75214-6.89049-3.22973a38.51172,38.51172,0,0,0-11.26751-.19773,17.35055,17.35055,0,0,0-6.88021,2.61353c-1.93156,1.15159-4.14124,2.1863-5.70678,3.83115a2.10734,2.10734,0,0,1-.94531.72336c-.40162.15146-.84688.1888-1.25383.34893a6.10067,6.10067,0,0,0-1.55154.90048,10.14956,10.14956,0,0,0-2.16074,2.6258,10.27926,10.27926,0,0,0-1.55255,3.01291,7.15525,7.15525,0,0,0,.35771,3.44307l.19084-.469c-2.20878,1.39552-2.76052,3.47745-3.21585,5.88393a13.72277,13.72277,0,0,0-.39846,3.60224c.15417,1.79278,1.65438,3.02222,1.70132,4.75112a10.86207,10.86207,0,0,1-.24773,1.81309,6.95471,6.95471,0,0,0,.298,2.7367,58.80831,58.80831,0,0,0,2.28981,6.44432c.72314,1.8077,2.2329,3.30262,2.67924,5.19652.37695,1.59951.70082,2.918,2.37534,3.53421l-.30488-.40045a20.28218,20.28218,0,0,0,.494,6.11554c.24675,1.14246.59707,4.19324,2.19258,4.23777l-.40044-.30488a4.68075,4.68075,0,0,0,2.505,3.5551c.48533.21074.90873-.50459.41919-.71715Z"/><path d="M526.80772,213.29149c-.28842-1.96423-1.47681-4.84375-3.54007-5.56635a9.54061,9.54061,0,0,0-1.942-.31089,5.35323,5.35323,0,0,0-1.63072-.09077,24.84013,24.84013,0,0,0-2.97852,1.05777c-1.39937.44825-3.29321,1.1067-4.2144,2.30589-1.58362,2.0615-.22971,4.77973-.51021,7.12579a13.65656,13.65656,0,0,0-.2256,4.35023,6.25731,6.25731,0,0,1,.30512,2.738,1.93787,1.93787,0,0,1-1.998,1.54578.41552.41552,0,0,0,0,.83055,2.68849,2.68849,0,0,0,2.66868-1.7674c.60674-1.5-.22613-2.96572-.28892-4.48172-.067-1.61766.50881-3.17688.42108-4.80451-.08712-1.61637-.82556-3.50642.21514-4.94945a5.99119,5.99119,0,0,1,2.50623-1.56735c1.03918-.46072,2.132-.81119,3.19048-1.22685a3.9595,3.9595,0,0,1,2.16595-.28116,4.71416,4.71416,0,0,1,2.70187.72827,7.47,7.47,0,0,1,2.353,4.58494c.07737.52689.87778.3029.80088-.22079Z"/><path d="M494.4929,213.51228a7.47425,7.47425,0,0,1,2.353-4.58494,4.72868,4.72868,0,0,1,2.70187-.72827,3.9595,3.9595,0,0,1,2.166.28116c1.05882.41578,2.15091.766,3.19048,1.22685a5.98756,5.98756,0,0,1,2.50623,1.56735c1.03969,1.44163.30208,3.33646.21514,4.94945-.08774,1.62768.48809,3.18678.42108,4.80451-.06284,1.51716-.89068,2.98089-.28892,4.48172a2.68665,2.68665,0,0,0,2.66868,1.7674.41552.41552,0,0,0,0-.83055,1.85,1.85,0,0,1-1.79226-1.01025,3.59636,3.59636,0,0,1-.04855-2.59823,9.5309,9.5309,0,0,0,.13219-3.682,15.11093,15.11093,0,0,1-.06195-4.71785,4.91311,4.91311,0,0,0-.39449-3.37936c-.803-1.32626-2.50222-1.92979-3.88167-2.46451-.896-.34734-1.80194-.68305-2.704-1.01621a6.674,6.674,0,0,0-3.43472-.04309c-2.69262.36248-4.18574,3.28223-4.549,5.756-.07677.52284.72339.74851.80088.22079Z"/><path d="M513.30247,221.59336a20.88554,20.88554,0,0,1,.72059,2.08444,2.98373,2.98373,0,0,1,.14716,1.82561c-.01431.03686.03156-.01085-.0269.01772a1.25661,1.25661,0,0,1-.13317.0625,2.23521,2.23521,0,0,1-.74367.094,2.5371,2.5371,0,0,0-1.584.54105c-.291.24215.12668.65592.41555.41555.50735-.42217,1.1521-.31409,1.75245-.40912a1.046,1.046,0,0,0,.82093-.445,2.938,2.938,0,0,0-.01825-2.03252,20.46038,20.46038,0,0,0-.784-2.31045c-.14-.34608-.70874-.19483-.56668.15622Z"/><path d="M506.48816,221.43714a20.74427,20.74427,0,0,0-.77146,2.2652,2.9797,2.9797,0,0,0-.03076,2.07777,1.02312,1.02312,0,0,0,.78885.44014c.61.10415,1.26747-.0163,1.78453.414.28874.24027.70667-.17329.41555-.41555a2.50764,2.50764,0,0,0-1.55124-.541,2.38613,2.38613,0,0,1-.7556-.08688,1.19831,1.19831,0,0,1-.154-.06966c-.06459-.03147-.01118.02283-.0269-.01772a2.91751,2.91751,0,0,1,.13423-1.78047,20.87548,20.87548,0,0,1,.73352-2.12958c.14181-.35045-.42641-.50286-.56669-.15622Z"/><path d="M525.07875,215.35132a3.25014,3.25014,0,0,1-1.333-1.564,4.95459,4.95459,0,0,0-.95467-1.43475,4.50035,4.50035,0,0,0-3.09133-1.053,21.40007,21.40007,0,0,0-2.882.26378,9.65656,9.65656,0,0,0-1.43726.28608.29409.29409,0,0,0,.15623.56668,15.76833,15.76833,0,0,1,4.02112-.52791,3.70557,3.70557,0,0,1,3.15468,1.26323c.3605.49832.57117,1.08633.88474,1.61243a3.069,3.069,0,0,0,1.18484,1.095.29406.29406,0,0,0,.29661-.50744Z"/><path d="M514.20233,214.74089l1.32241-2.15423.18762-.30565c.1984-.3232-.3097-.61875-.50744-.29661l-1.3224,2.15423-.18763.30565c-.1984.3232.3097.61875.50744.29661Z"/><path d="M513.65478,214.59259v2.62265a.294.294,0,0,0,.58767,0v-2.62265a.294.294,0,0,0-.58767,0Z"/><path d="M514.22592,216.12656a2.19048,2.19048,0,0,0,2.01509-.80651,7.59112,7.59112,0,0,1,.90059-.89211,2.09342,2.09342,0,0,1,1.36548-.32725,5.92413,5.92413,0,0,1,2.38081.39561c.81917.39133,1.05258,1.23727,1.61394,1.88248.2487.28584.66288-.13127.41555-.41555-.57561-.66159-.80808-1.47958-1.62624-1.92015a5.37849,5.37849,0,0,0-2.25445-.50623,3.17624,3.17624,0,0,0-2.35137.50561c-.66039.5338-1.30471,1.73514-2.30317,1.51742-.36866-.08039-.52616.486-.15623.56668Z"/><path d="M515.58406,216.20214a5.04747,5.04747,0,0,0,1.74262.9361,5.87595,5.87595,0,0,0,1.91765.37948,6.14744,6.14744,0,0,0,1.76534-.34362,17.89532,17.89532,0,0,0,1.84824-.67485c.34679-.14793.04771-.65431-.29661-.50744a16.54619,16.54619,0,0,1-1.65321.5991,5.89941,5.89941,0,0,1-1.56579.33854,4.86875,4.86875,0,0,1-1.63863-.28494,4.7066,4.7066,0,0,1-1.70406-.85792c-.28351-.24815-.70079.16588-.41555.41555Z"/><path class="h" d="M520.60126,214.9287a1.555,1.555,0,1,1-3.11,0c0-.85879.69619-1.19185,1.555-1.19185S520.60126,214.06991,520.60126,214.9287Z"/><path d="M495.7176,215.85876a3.08777,3.08777,0,0,0,1.18484-1.095c.30227-.50435.5077-1.06367.842-1.54939a3.672,3.672,0,0,1,3.19737-1.32627,15.73813,15.73813,0,0,1,4.02112.52791.29409.29409,0,0,0,.15623-.56668,9.66063,9.66063,0,0,0-1.43726-.28608,21.15618,21.15618,0,0,0-2.882-.26378,4.51219,4.51219,0,0,0-3.09133,1.053,4.91734,4.91734,0,0,0-.95468,1.43475,3.25148,3.25148,0,0,1-1.333,1.564.29406.29406,0,0,0,.29662.50744Z"/><path d="M506.80485,214.44428,505.48244,212.29l-.18762-.30564c-.19753-.32179-.706-.02691-.50744.29661l1.3224,2.15424.18762.30564c.19753.32179.706.02691.50745-.29661Z"/><path d="M506.25729,214.59259v2.62265a.294.294,0,0,0,.58767,0v-2.62265a.294.294,0,0,0-.58767,0Z"/><path d="M506.11759,215.55988c-.99764.21754-1.64331-.98341-2.30317-1.51742a3.175,3.175,0,0,0-2.35137-.50561,5.394,5.394,0,0,0-2.25445.50623c-.81874.43907-1.051,1.25894-1.62624,1.92015-.24723.28416.16675.70151.41555.41555.545-.62642.77889-1.46,1.56062-1.85537a5.75875,5.75875,0,0,1,2.43413-.42272,2.10731,2.10731,0,0,1,1.31364.292,6.21335,6.21335,0,0,1,.908.88134,2.23034,2.23034,0,0,0,2.0595.85249c.36934-.08053.213-.6472-.15623-.56668Z"/><path d="M504.50013,215.78659a4.7066,4.7066,0,0,1-1.70406.85792,4.86879,4.86879,0,0,1-1.63863.28494,5.89933,5.89933,0,0,1-1.56579-.33854,16.54619,16.54619,0,0,1-1.65321-.5991c-.344-.14673-.64378.35935-.29661.50744a17.96413,17.96413,0,0,0,1.79359.65834,6.27244,6.27244,0,0,0,1.82.36013,5.78043,5.78043,0,0,0,1.86251-.361,5.12861,5.12861,0,0,0,1.79776-.95456c.28512-.24956-.13192-.66381-.41555-.41555Z"/><path class="h" d="M499.89848,214.9287a1.555,1.555,0,0,0,3.11,0c0-.85879-.69619-1.19185-1.555-1.19185S499.89848,214.06991,499.89848,214.9287Z"/><line class="i" x1="506.27952" y1="208.21334" x2="514.22071" y2="208.21334"/><path class="j" d="M501.10721,245.4317s-.93355,4.00443.98209,5.25374a2.63083,2.63083,0,0,0,3.71408-.78862"/><path class="j" d="M519.91772,245.4317s.93355,4.00443-.98208,5.25374a2.63083,2.63083,0,0,1-3.71408-.78862"/><line class="g" x1="487.26558" y1="313.28074" x2="486.66119" y2="378.37725"/><line class="k" x1="514.46101" y1="317.35378" x2="503.00847" y2="317.35378"/><line class="k" x1="514.46101" y1="312.35533" x2="503.00847" y2="312.35533"/><line class="l" x1="514.46101" y1="304.0181" x2="503.00847" y2="304.0181"/><line class="l" x1="514.46101" y1="299.01724" x2="503.00847" y2="299.01724"/><line class="l" x1="514.46101" y1="332.04174" x2="503.00847" y2="332.04174"/><line class="l" x1="514.46101" y1="327.04088" x2="503.00847" y2="327.04088"/><line class="l" x1="514.46101" y1="345.38623" x2="503.00847" y2="345.38623"/><line class="l" x1="514.46101" y1="340.38537" x2="503.00847" y2="340.38537"/><line class="m" x1="509.39362" y1="354.56605" x2="503.82079" y2="354.56605"/><polyline class="n" points="567.547 274.783 580.234 314.157 582.723 331.452 587.075 341.209 587.075 359.369 581.585 392.862 578.437 396.229 579.842 420.141"/><path class="n" d="M451.49963,273.53892l-14.75656,45.4388-3.94281,6.747A202.07052,202.07052,0,0,0,430.841,354.015c.0192,1.6287.21269,4.25307.34265,5.79673l6.63449,34.96389,3.34754,26.56087"/><polyline class="o" points="496.465 294.076 483.473 280.54 476.836 286.728 473.169 282.718 479.718 276.627 472.351 268.952 476.41 265.317 483.706 272.918 490.502 266.596 494.29 270.455 487.457 276.826 499.983 289.877"/><polyline class="o" points="501.913 287.551 491.729 276.941 498.586 270.547 490.601 262.41 483.829 268.71 476.572 261.149 468.036 268.793 475.443 276.509 468.948 282.551 476.843 290.788 483.353 284.751 494.292 296.627"/><line class="p" x1="483.89708" y1="268.64747" x2="483.37219" y2="284.74288"/><line class="p" x1="491.76183" y1="276.85054" x2="475.49699" y2="276.35033"/><polyline class="q" points="516.068 298.891 533.583 278.1 526.708 272.117 530.331 268.034 537.1 273.94 543.998 265.779 548.053 269.454 541.222 277.536 548.247 283.665 544.787 287.853 537.709 281.692 523.561 299.017"/><line class="r" x1="496.14317" y1="322.14556" x2="503.31534" y2="314.02912"/><line class="r" x1="503.31534" y1="309.02495" x2="493.67714" y2="320.06914"/><polyline class="q" points="527.51 299.017 538.041 285.972 545.145 292.155 552.439 283.327 545.439 277.22 552.234 269.181 543.706 261.452 536.771 269.657 530.056 263.799 522.652 272.547 529.364 278.42 511.915 298.922"/><line class="r" x1="545.50795" y1="277.28164" x2="529.37383" y2="278.43852"/><line class="r" x1="538.13461" y1="285.99537" x2="536.93537" y2="269.69456"/><polyline class="s" points="503.183 353.239 503.183 299.017 557.254 299.017 557.254 334.842"/><path class="t" d="M448.34213,325.311a8.57385,8.57385,0,0,1-2.315-4.76229,30.17292,30.17292,0,0,1-.25085-5.37169c.01548-3.25128-.11251-6.50383-.40839-9.74166a6.41673,6.41673,0,0,1-.03216-1.33038,5.86808,5.86808,0,0,1,.21723-.94983,40.07243,40.07243,0,0,1,2.47628-6.52378,1.83607,1.83607,0,0,1,.576-.77209,1.889,1.889,0,0,1,.89955-.224l2.31015-.18022a10.10732,10.10732,0,0,1,3.78228.24683l6.72135,1.39783a4.0473,4.0473,0,0,1-3.41067,2.64311,15.149,15.149,0,0,1-4.5371-.31346,4.006,4.006,0,0,0-3.05546.40685,3.47818,3.47818,0,0,0-1.10859,2.41371,11.76358,11.76358,0,0,1-.40624,2.69087"/><path class="t" d="M449.5761,295.07306a25.33015,25.33015,0,0,1,1.87777-2.82809,2.73,2.73,0,0,1,.95606-.82529,2.901,2.901,0,0,1,1.21186-.15026,14.19943,14.19943,0,0,1,8.85862,2.05131l2.999,1.66695a.94611.94611,0,0,1,.43764.3816.80918.80918,0,0,1-.04587.6301,2.77694,2.77694,0,0,1-3.13323,1.60146"/><path class="t" d="M453.81834,304.55566a12.81987,12.81987,0,0,0,.29692-5.02685,1.25213,1.25213,0,0,1,.04956.61279"/><path class="t" d="M458.38624,303.99449l.10193-3.83785"/><path class="t" d="M453.83439,290.75456c.12035-1.83062,1.79061-3.126,3.35183-4.08948a57.93441,57.93441,0,0,1,9.76764-4.55945,3.32132,3.32132,0,0,1,.31814,1.65406,4.64323,4.64323,0,0,1-2.03773,3.26257,19.80791,19.80791,0,0,1-3.51826,1.8252,8.55507,8.55507,0,0,0-3.22177,2.258"/><path class="t" d="M458.87132,285.68956c.48312-2.02276,1.29035-4.86949,1.60853-6.92466a.56108.56108,0,0,1,.25265-.18793,1.89105,1.89105,0,0,1,1.88736.286,2.6217,2.6217,0,0,1,.92345,1.72419,6.59608,6.59608,0,0,1-.125,2.93314"/><path class="t" d="M462.73619,288.38684c-.15034.65078-.30069,1.2371-.451,1.88789a11.21412,11.21412,0,0,0-.23388,1.21447,5.609,5.609,0,0,0-.02508,1.0343,1.05835,1.05835,0,0,1-.04963.24166"/><path class="t" d="M462.03521,298.392a38.51572,38.51572,0,0,0,.85181,7.829,9.05334,9.05334,0,0,0,1.9145,4.325"/><path class="t" d="M459.15672,320.81128c-.52486-3.06793,1.11489-6.12073,3.3016-8.33568a6.19654,6.19654,0,0,1,4.935-1.78921"/><path class="t" d="M465.01919,310.83378,464.9,309.37754a13.62234,13.62234,0,0,1-.02753-2.94707,6.82282,6.82282,0,0,1,.83634-2.4607"/><path class="t" d="M465.65806,303.81177c-.02225-.10231-.15506-.68774-.1757-.791a7.12468,7.12468,0,0,1,.13815-4.091,3.203,3.203,0,0,1,3.52345-2.07482l.83668,10.32872.36589,4.51694a17.311,17.311,0,0,1-.2457,6.19782,14.05776,14.05776,0,0,1-2.386,4.39185,19.91623,19.91623,0,0,1-4.60638,4.663c-1.31545.89964-1.34981.5731-2.62346,1.531-.51294.38577-1.77515,5.07354-1.77515,8.45511"/><line class="u" x1="514.57796" y1="355.82967" x2="514.5841" y2="358.81115"/><line class="u" x1="514.46101" y1="299.01724" x2="514.5684" y2="351.18589"/><path class="v" d="M446.16637,322.45689s-3.08536,3.85849-3.50188,6.96043c-1.30731,9.73579,3.99951,29.86649,6.11181,30.78239,6.25076,2.71039,16.47886,2.3425,16.47886,2.3425"/><path class="w" d="M447.43569,325.311c-.92267,4.217-.233,8.011,2.76924,10.69363,1.47464,1.31764,7.2582,1.62924,8.56038,1.35814.12176-.02535,3.41056-.54748,2.9672-9.03229"/><path class="x" d="M445.74262,320.44823c-4.577,2.27452-8.21413,7.08825-8.98653,10.54942-.72533,3.2502.87742,23.29375,5.9084,32.76092,1.3173,2.47888,12.51513,25.54582,12.51513,25.54582l10.52917,3.887s.05681-28.959.255-31.44673c.489-6.13609,1.95111-15.27158,2.07248-21.942.0187-1.02729-.643-13.67441-2.07248-15.338"/><path class="t" d="M527.43584,353.0497a4.36459,4.36459,0,0,1,2.16742-3.24723l13.29679-1.87728,23.33042-16.1002"/><path class="t" d="M529.60326,349.80247c7.37294,0,9.44166,7.7307,10.92837,16.70482.41253,2.49012,8.84637,52.57934,8.84637,52.57934"/><path class="y" d="M542.90005,347.92519c5.34717.79,10.19555,3.99542,11.82124,11.14249.2357,1.03621,3.96059,12.95038,7.06469,27.49127,3.00452,14.07438,9.26253,33.98492,9.3592,35.17354"/><line class="t" x1="570.10901" y1="307.4429" x2="557.91289" y2="330.16905"/><polygon class="z" points="557.254 317.18 549.378 317.18 549.378 307.73 541.502 307.73 541.502 299.017 557.254 299.017 557.254 317.18"/><polygon class="z" points="514.461 317.18 522.337 317.18 522.337 307.73 530.213 307.73 530.213 299.017 514.461 299.017 514.461 317.18"/><polygon class="aa" points="546.474 326.394 539.873 326.394 539.873 318.515 531.847 318.515 531.847 326.394 525.246 326.394 525.246 333.945 531.847 333.945 531.847 341.823 539.873 341.823 539.873 333.945 546.474 333.945 546.474 326.394"/><path class="t" d="M502.613,352.92752c.79128.5379,2.33843,3.33156,3.25091,3.74457A29.658,29.658,0,0,0,511.434,358.658a6.46677,6.46677,0,0,0,2.66275.35725c.51832-.11,7.99239-1.63352,7.99239-1.63352"/><path class="t" d="M502.41976,352.927a2.32522,2.32522,0,0,0-1.97743,3.83068c1.20519,2.46341,5.32544,5.42434,5.74436,5.63794,1.77734.90621,6.09937,1.95065,5.99633,2.01779"/><path class="t" d="M500.97417,358.86551c-1.05124.74473-.54979,2.38608-.19853,3.14774.50323,1.09121,4.10039,4.29511,5.69977,5.08739a39.21541,39.21541,0,0,0,6.13234,1.551"/><path class="t" d="M502.39322,364.707c-.63773.70123-.13823,2.23113.24943,2.78734a29.24213,29.24213,0,0,0,5.62884,4.0711,65.59615,65.59615,0,0,0,7.70429,2.20194"/><path class="t" d="M504.43033,369.36467a3.10654,3.10654,0,0,0,.75847,3.3423c.85382.724,4.076,2.9863,4.076,2.9863s4.096,1.377,5.50323,1.73748a14.881,14.881,0,0,0,3.44338.62417c2.75008-.01526,8.82274-1.43622,11.575-1.957a47.65252,47.65252,0,0,0,5.66624-2.51287"/><path class="t" d="M508.30684,351.28659c-.27668,1.49058,1.12165,3.26281,2.413,3.79325a16.88048,16.88048,0,0,0,4.82419.6889,21.81251,21.81251,0,0,1,2.43966.45006,27.3908,27.3908,0,0,1,3.921,1.17725"/><path class="t" d="M508.44908,350.94374l5.99518.35791,5.755.36058s6.03056,1.015,8.127,1.9742,3.24378,2.70884,4.32155,4.1107"/><path class="t" d="M532.62686,357.74713a14.45518,14.45518,0,0,1,1.6784,2.812c1.2364,3.21416,1.41964,7.66495,1.225,11.70388-.01707.35412.203,6.98239.203,6.98239"/><line class="ab" x1="557.25397" y1="299.01724" x2="557.25397" y2="336.33063"/><path class="ac" d="M522.21833,353.04564c.02687,0,.02255-.04152-.00407-.04152"/><path class="x" d="M467.04707,328.33052s9.00429,35.03535,14.7848,44.4491c2.62454,4.27414,9.59521,11.00944,16.70022,13.20252,3.77162,1.16418,10.3504-10.16616,10.3504-10.16616"/><polyline class="x" points="544.469 392.731 535.453 393.722 531.341 376.154"/><path class="t" d="M527.445,376.58359s-4.36355,32.44073-16.1867,43.08157"/><line class="t" x1="493.67714" y1="320.06914" x2="493.07029" y2="383.05513"/><line class="t" x1="437.55013" y1="318.56344" x2="442.66449" y2="317.89992"/><path class="v" d="M467.49944,347.63583s6.48249,34.72437,14.44644,45.23023c3.84114,5.06714,9.88407,11.193,20.14207,10.456,7.71827-.55455,16.9444-25.26706,16.9444-25.26706"/><line class="v" x1="465.83624" y1="392.02486" x2="466.07865" y2="421.23669"/><line class="t" x1="565.41486" y1="360.8237" x2="578.43693" y2="396.22888"/><polygon class="ad" points="602.203 224.326 620.242 213.547 609.462 231.586 620.242 249.625 602.203 238.846 584.163 249.625 594.943 231.586 584.163 213.547 602.203 224.326"/><polygon class="ad" points="607.336 226.453 627.714 231.586 607.336 236.719 602.203 257.097 597.069 236.719 576.691 231.586 597.069 226.453 602.203 206.075 607.336 226.453"/><polygon class="a" points="431.044 219.13 431.044 230.44 430.194 230.99 430.024 231.1 420.484 228.92 419.644 229.47 419.714 229.77 422.224 240.59 416.924 241.18 414.874 241.18 409.574 240.58 412.074 229.8 412.154 229.47 411.314 228.92 401.774 231.1 401.604 230.99 400.754 230.44 400.754 219.13 401.654 218.7 401.774 218.64 411.644 221.17 412.244 220.57 412.054 219.8 409.364 209.15 409.574 209.13 414.874 208.53 416.924 208.53 422.224 209.12 422.444 209.15 419.744 219.83 419.554 220.57 420.154 221.17 430.024 218.64 430.144 218.7 431.044 219.13"/><path class="ae" d="M638.23411,404.29a140.85363,140.85363,0,0,1-8.61,15.79992,141.4973,141.4973,0,0,1-25.37,29.97,140.54625,140.54625,0,0,1-220.88-45.75c.35,0,.68.01.79.01,5.32,0,8.98-1.29992,13.74-3.37988,3.96-1.74,7.03-2.9,11.49-2.9,4.45,0,7.52,1.16,11.48,2.9,4.76,2.08,8.42,3.37988,13.74,3.37988,5.31,0,8.97-1.29992,13.73-3.37988,3.96-1.74,7.03-2.9,11.49-2.9,4.45,0,7.53,1.16,11.49,2.9,4.75,2.08,8.42,3.37988,13.73,3.37988,5.32,0,8.98-1.29992,13.74-3.37988,3.96-1.73,7.03-2.9,11.48-2.9,4.46,0,7.53,1.16,11.49,2.9,4.76,2.08,8.42,3.37988,13.74,3.37988,5.31,0,8.97-1.29992,13.73-3.37988,3.96-1.74,7.03-2.9,11.49-2.9,4.45,0,7.53,1.16,11.49,2.9,4.75,2.08,8.42,3.37988,13.73,3.37988s8.98-1.29992,13.73-3.37988c3.97-1.73,7.04-2.9,11.49-2.9,4.46,0,7.53,1.16,11.49,2.9,4.76,2.08,8.42,3.37988,13.73,3.37988C636.70408,404.31991,637.54411,404.29989,638.23411,404.29Z"/><path class="d" d="M604.25413,450.0599a140.77719,140.77719,0,0,1-29.86,20.4701c-.71-.28-1.43-.59-2.18-.92-3.96-1.73-7.04-2.8999-11.49-2.8999-4.46,0-7.53,1.16992-11.49,2.8999-4.76,2.08008-8.42,3.38-13.73,3.38-5.32,0-8.98-1.29993-13.74-3.38-3.96-1.73-7.03-2.8999-11.49-2.8999-4.45,0-7.52,1.16992-11.48,2.8999-4.76,2.08008-8.42,3.38-13.74,3.38-5.31,0-8.98-1.29993-13.73-3.38-3.96-1.73-7.04-2.8999-11.49-2.8999-4.46,0-7.53,1.16992-11.49,2.8999-.55.24-1.09.47-1.61.68006a141.05628,141.05628,0,0,1-28.89-19.78,53.27186,53.27186,0,0,1,5.46,2.12c3.89,1.7,6.93,2.87,11.31,2.87,4.37,0,7.41-1.17005,11.3-2.87,4.83-2.11,8.53-3.40991,13.92-3.40991s9.09,1.29993,13.92005,3.40991c3.88,1.7,6.93,2.87,11.3,2.87,4.38,0,7.42-1.17005,11.31-2.87,4.83-2.11,8.52-3.40991,13.91-3.40991,5.4,0,9.09,1.29993,13.92,3.40991,3.88995,1.7,6.93,2.87,11.31,2.87,4.37,0,7.41-1.17005,11.3-2.87,4.83-2.11,8.53-3.40991,13.92-3.40991s9.09,1.29993,13.91,3.40991c3.89,1.7,6.93995,2.87,11.31,2.87,4.38,0,7.42-1.17005,11.31-2.87A46.71237,46.71237,0,0,1,604.25413,450.0599Z"/><path class="d" d="M629.62412,420.08993a139.07216,139.07216,0,0,1-10.02,13.92005,22.26837,22.26837,0,0,0-8.44-1.64c-4.45,0-7.52,1.17005-11.49,2.9-4.75,2.07995-8.42,3.38-13.73,3.38s-8.98-1.3-13.73-3.38c-3.96-1.73-7.04-2.9-11.49-2.9-4.46,0-7.53,1.17005-11.49,2.9-4.76,2.07995-8.42,3.38-13.73,3.38-5.32,0-8.98-1.3-13.74-3.38-3.96-1.73-7.03-2.9-11.49-2.9-4.45,0-7.52,1.17005-11.48,2.9-4.76,2.07995-8.42,3.38-13.74,3.38-5.31,0-8.98-1.3-13.73-3.38-3.96-1.73-7.04-2.9-11.49-2.9-4.46,0-7.53,1.17005-11.49,2.9-4.76,2.07995-8.42,3.38-13.73,3.38-5.32,0-8.98-1.3-13.74-3.38-3.96-1.73-7.03-2.9-11.48-2.9a21.87992,21.87992,0,0,0-7.63995,1.3501,140.138,140.138,0,0,1-9.96-13.92017c1.18-.42993,2.39-.92993,3.68-1.5,4.83-2.11987,8.52-3.40991,13.92-3.40991,5.39,0,9.08,1.29,13.91,3.40991,3.89,1.70008,6.93,2.87012,11.31,2.87012,4.37,0,7.41-1.17,11.3-2.87012,4.83-2.11987,8.53-3.40991,13.92-3.40991s9.09,1.29,13.92005,3.40991c3.88,1.70008,6.93,2.87012,11.3,2.87012,4.38,0,7.42-1.17,11.31-2.87012,4.83-2.11987,8.52-3.40991,13.91-3.40991,5.4,0,9.09,1.29,13.92,3.40991,3.88995,1.70008,6.93,2.87012,11.31,2.87012,4.37,0,7.41-1.17,11.3-2.87012,4.83-2.11987,8.53-3.40991,13.92-3.40991s9.09,1.29,13.91,3.40991c3.89,1.70008,6.93995,2.87012,11.31,2.87012,4.38,0,7.42-1.17,11.31-2.87012,4.81995-2.11987,8.52-3.40991,13.91-3.40991,5.4,0,9.09,1.29,13.92,3.40991A48.76742,48.76742,0,0,0,629.62412,420.08993Z"/><path class="v" d="M639.29394,404.26s-2.33268.05553-2.9055.05553c-5.31391,0-8.97618-1.29713-13.73381-3.37879-3.96077-1.73256-7.03239-2.9012-11.4877-2.9012-4.45594,0-7.52756,1.17015-11.48833,2.90231-4.75763,2.08143-8.42053,3.37768-13.73445,3.37768s-8.97681-1.29713-13.73444-3.37879c-3.96013-1.73256-7.03239-2.9012-11.4877-2.9012s-7.52692,1.16864-11.48769,2.9012c-4.75827,2.08166-8.4199,3.37879-13.73445,3.37879-5.31391,0-8.97617-1.29713-13.73381-3.37879-3.96077-1.73256-7.033-2.9012-11.48769-2.9012-4.45659,0-7.52757,1.17015-11.489,2.90231-4.757,2.08143-8.4199,3.37768-13.73381,3.37768s-8.97681-1.29713-13.73445-3.37879c-3.96077-1.73256-7.03238-2.9012-11.48769-2.9012s-7.52757,1.16864-11.4877,2.9012c-4.75827,2.08166-8.42053,3.37879-13.73445,3.37879s-8.97681-1.29713-13.73444-3.37879c-3.96077-1.73256-7.03239-2.9012-11.4877-2.9012s-7.52756,1.16864-11.48769,2.9012c-4.75827,2.08166-8.4199,3.37879-13.73445,3.37879-.27368,0-1.87887-.01766-1.87887-.01766"/><path class="af" d="M510.79969,491.611a145.621,145.621,0,0,1-81.792-24.98974,146.78636,146.78636,0,0,1-53.01074-64.3711,145.35389,145.35389,0,0,1-11.499-56.93994l.00293-206.80713H657.09754l.00293,206.96a145.59217,145.59217,0,0,1-24.99023,81.63769,146.7508,146.7508,0,0,1-64.3711,53.01074A145.33814,145.33814,0,0,1,510.79969,491.611ZM370.11024,345.31116c0,77.57617,63.11328,140.68945,140.68945,140.68945s140.68945-63.11328,140.68945-140.68945V144.11292H370.11024Z"/><path class="h" d="M365.0886,137.91516h0M656.50989,139.091l.00251,206.371a145.01789,145.01789,0,0,1-24.88886,81.30993,146.17766,146.17766,0,0,1-64.11273,52.79847,145.49176,145.49176,0,0,1-138.174-13.43616,146.17515,146.17515,0,0,1-52.798-64.11328,144.75593,144.75593,0,0,1-11.45286-56.71082l.00263-206.21911H656.50989M510.8,486.58838c77.90033,0,141.27686-63.37671,141.27686-141.27722V143.52478H369.52274V345.31116c0,77.90051,63.37668,141.27722,141.27725,141.27722M657.68562,137.91516H363.91291l-.00266,207.3949a146.20194,146.20194,0,0,0,25.09025,82.12,147.35262,147.35262,0,0,0,64.62908,53.223,146.66723,146.66723,0,0,0,139.29029-13.5448A147.35583,147.35583,0,0,0,646.14252,402.479a145.91183,145.91183,0,0,0,11.5456-57.016h.00055l-.00305-207.54786ZM510.8,485.41272c-77.25256,0-140.10156-62.84961-140.10156-140.10156V144.70056h280.2027v200.6106c0,77.252-62.84912,140.10156-140.10114,140.10156Z"/></svg>