<?xml version="1.0" encoding="UTF-8" standalone="no"?>
<!-- Created with Inkscape (http://www.inkscape.org/) -->

<svg
   xmlns:dc="http://purl.org/dc/elements/1.1/"
   xmlns:cc="http://creativecommons.org/ns#"
   xmlns:rdf="http://www.w3.org/1999/02/22-rdf-syntax-ns#"
   xmlns:svg="http://www.w3.org/2000/svg"
   xmlns="http://www.w3.org/2000/svg"
   xmlns:sodipodi="http://sodipodi.sourceforge.net/DTD/sodipodi-0.dtd"
   xmlns:inkscape="http://www.inkscape.org/namespaces/inkscape"
   width="870"
   height="520"
   id="svg2"
   sodipodi:version="0.32"
   inkscape:version="0.48.1 "
   version="1.0"
   sodipodi:docname="Coat of arms of Bitola Municipality.svg"
   inkscape:output_extension="org.inkscape.output.svg.inkscape">
  <defs
     id="defs4">
    <inkscape:perspective
       sodipodi:type="inkscape:persp3d"
       inkscape:vp_x="0 : 526.18109 : 1"
       inkscape:vp_y="0 : 1000 : 0"
       inkscape:vp_z="744.09448 : 526.18109 : 1"
       inkscape:persp3d-origin="372.04724 : 350.78739 : 1"
       id="perspective10" />
    <inkscape:perspective
       id="perspective2390"
       inkscape:persp3d-origin="372.04724 : 350.78739 : 1"
       inkscape:vp_z="744.09448 : 526.18109 : 1"
       inkscape:vp_y="0 : 1000 : 0"
       inkscape:vp_x="0 : 526.18109 : 1"
       sodipodi:type="inkscape:persp3d" />
  </defs>
  <sodipodi:namedview
     id="base"
     pagecolor="#ffffff"
     bordercolor="#666666"
     borderopacity="1.0"
     gridtolerance="10000"
     guidetolerance="10"
     objecttolerance="10"
     inkscape:pageopacity="0.0"
     inkscape:pageshadow="2"
     inkscape:zoom="0.35355339"
     inkscape:cx="1126.3895"
     inkscape:cy="532.34267"
     inkscape:document-units="px"
     inkscape:current-layer="layer1"
     showgrid="false"
     inkscape:window-width="1280"
     inkscape:window-height="778"
     inkscape:window-x="0"
     inkscape:window-y="26"
     inkscape:window-maximized="0">
    <inkscape:grid
       type="xygrid"
       id="grid3170"
       visible="true"
       enabled="true"
       empspacing="5"
       snapvisiblegridlinesonly="true" />
  </sodipodi:namedview>
  <metadata
     id="metadata7">
    <rdf:RDF>
      <cc:Work
         rdf:about="">
        <dc:format>image/svg+xml</dc:format>
        <dc:type
           rdf:resource="http://purl.org/dc/dcmitype/StillImage" />
        <dc:title></dc:title>
      </cc:Work>
    </rdf:RDF>
  </metadata>
  <g
     inkscape:label="Layer 1"
     inkscape:groupmode="layer"
     id="layer1"
     transform="translate(-868.5625,-339.5938)">
    <rect
       style="fill:#ffffff;fill-opacity:1;fill-rule:nonzero;stroke:#ff20ff;stroke-width:1.58898282;stroke-linecap:round;stroke-linejoin:miter;stroke-miterlimit:4;stroke-opacity:1;stroke-dasharray:none;stroke-dashoffset:0"
       id="rect2997"
       width="1091.9839"
       height="752.57263"
       x="769.4621"
       y="214.60684"
       ry="0" />
    <g
       id="g2990"
       transform="matrix(0.60403964,0,0,0.61633882,647.02962,250.02339)">
      <path
         sodipodi:nodetypes="ccsccc"
         id="rect2396"
         d="m 870.5625,250.21875 0,377.84375 c 0.0676,126.70546 102.93506,229.53125 229.6563,229.53125 126.7211,0 229.5573,-102.82577 229.625,-229.53125 l 0,-377.84375 -459.2813,0 z"
         style="fill:#ffffff;fill-opacity:1;stroke:#ffff00;stroke-width:4;stroke-miterlimit:4;stroke-opacity:1;stroke-dasharray:none"
         inkscape:connector-curvature="0" />
      <path
         style="fill:#cc3333;fill-opacity:1;stroke:#005d35;stroke-width:0;stroke-miterlimit:4;stroke-opacity:1;stroke-dasharray:none"
         d="m 946.17992,350.21875 0,253.42515 c 0.0454,84.98314 69.03998,153.94985 154.03378,153.94985 84.9936,0 153.9673,-68.9667 154.0127,-153.94985 l 0,-253.42515 -308.04648,0 z"
         id="path3175"
         sodipodi:nodetypes="ccsccc"
         inkscape:connector-curvature="0" />
      <path
         id="rect3185"
         d="m 997.71875,351.34375 -50.53125,136.875 101.0313,0 -50.50005,-136.875 z m 102.75005,0 -50.5313,136.875 101.0313,0 -50.5,-136.875 z m 102.7812,0 -50.5312,136.875 101.0312,0 -50.5,-136.875 z M 997.71875,488.375 947.5625,624.21875 c 0.0462,0.34435 0.10776,0.68762 0.15625,1.03125 l 100.50005,0 -50.50005,-136.875 z m 102.75005,0 -50.5313,136.875 101.0313,0 -50.5,-136.875 z m 102.7812,0 -50.5312,136.875 99.9687,0 c 0.098,-0.696 0.1924,-1.39481 0.2813,-2.09375 L 1203.25,488.375 z M 997.71875,625.4375 973.5,691.09375 c 16.96271,24.50188 40.8431,43.8508 68.8125,55.21875 l -44.59375,-120.875 z m 102.75005,0 -46.2188,125.15625 c 14.5173,4.53729 29.9629,7 45.9688,7 16.1553,0 31.7413,-2.50592 46.375,-7.125 l -46.125,-125.03125 z m 102.7812,0 -44.5312,120.625 c 27.9091,-11.48278 51.7039,-30.92158 68.5624,-55.5 l -24.0312,-65.125 z"
         style="fill:#ffff00;fill-opacity:1;stroke:#005d35;stroke-width:0;stroke-miterlimit:4;stroke-opacity:1;stroke-dasharray:none"
         inkscape:connector-curvature="0" />
      <path
         id="path3179"
         d="m 870.5625,250.21875 0,102.15625 459.2813,0 0,-102.15625 -459.2813,0 z"
         style="fill:#0066cc;fill-opacity:1;stroke:#005d35;stroke-width:0;stroke-miterlimit:4;stroke-opacity:1;stroke-dasharray:none"
         inkscape:connector-curvature="0" />
      <path
         id="rect3211"
         d="m 881.5,265.375 0,54.75 -10.9375,0 0,17.25 10.9375,0 4.5,0 11.75,0 0,-45 0,-10.5 52.5,0 0,10.5 -35.5,0 0,45 72.25,0 1.5,0 14.75,0 0,-45 0,-10.5 52.5,0 0,10.5 -35.5,0 0,45 69.25,0 4.5,0 11.75,0 0,-45 0,-10.5 52.5,0 0,10.5 -35.5,0 0,45 70.75,0 3,0 13.25,0 0,-45 0,-10.5 52.5,0 0,10.5 -35.5,0 0,45 69.25,0 4.5,0 11.75,0 0,-45 0,-10.5 17.5938,0 0,-16.5 -33.8438,0 0,54.75 -52.5,0 0,-10.25 35,0 0,-44.5 -85,0 0,54.75 -54,0 0,-10.25 35,0 0,-44.5 -85,0 0,54.75 -52.5,0 0,-10.25 35,0 0,-44.5 -85,0 0,54.75 -55.5,0 0,-10.25 35,0 0,-44.5 -85,0 z m 447.75,27 0,45 0.5938,0 0,-45 -0.5938,0 z"
         style="fill:#ffff00;fill-opacity:1;stroke:#005d35;stroke-width:0;stroke-miterlimit:4;stroke-opacity:1;stroke-dasharray:none"
         inkscape:connector-curvature="0" />
    </g>
  </g>
</svg>
