<?xml version="1.0" encoding="UTF-8" standalone="no"?>
<!-- Created with Inkscape (http://www.inkscape.org/) -->

<svg
   xmlns:dc="http://purl.org/dc/elements/1.1/"
   xmlns:cc="http://creativecommons.org/ns#"
   xmlns:rdf="http://www.w3.org/1999/02/22-rdf-syntax-ns#"
   xmlns:svg="http://www.w3.org/2000/svg"
   xmlns="http://www.w3.org/2000/svg"
   xmlns:xlink="http://www.w3.org/1999/xlink"
   xmlns:sodipodi="http://sodipodi.sourceforge.net/DTD/sodipodi-0.dtd"
   xmlns:inkscape="http://www.inkscape.org/namespaces/inkscape"
   width="1000"
   height="500.00006"
   id="svg2"
   version="1.1"
   inkscape:version="0.48.4 r9939"
   sodipodi:docname="Flag_of_Kratovo_Municipality.svg">
  <defs
     id="defs4">
    <linearGradient
       id="linearGradient3730">
      <stop
         style="stop-color:#000000;stop-opacity:1;"
         offset="0"
         id="stop3732" />
      <stop
         style="stop-color:#000000;stop-opacity:0;"
         offset="1"
         id="stop3734" />
    </linearGradient>
    <linearGradient
       inkscape:collect="always"
       id="linearGradient3718">
      <stop
         style="stop-color:#000000;stop-opacity:1;"
         offset="0"
         id="stop3720" />
      <stop
         style="stop-color:#000000;stop-opacity:0;"
         offset="1"
         id="stop3722" />
    </linearGradient>
    <inkscape:perspective
       sodipodi:type="inkscape:persp3d"
       inkscape:vp_x="0 : 526.18109 : 1"
       inkscape:vp_y="0 : 1000 : 0"
       inkscape:vp_z="744.09448 : 526.18109 : 1"
       inkscape:persp3d-origin="372.04724 : 350.78739 : 1"
       id="perspective10" />
    <inkscape:perspective
       id="perspective2824"
       inkscape:persp3d-origin="0.5 : 0.33333333 : 1"
       inkscape:vp_z="1 : 0.5 : 1"
       inkscape:vp_y="0 : 1000 : 0"
       inkscape:vp_x="0 : 0.5 : 1"
       sodipodi:type="inkscape:persp3d" />
    <inkscape:perspective
       id="perspective3612"
       inkscape:persp3d-origin="0.5 : 0.33333333 : 1"
       inkscape:vp_z="1 : 0.5 : 1"
       inkscape:vp_y="0 : 1000 : 0"
       inkscape:vp_x="0 : 0.5 : 1"
       sodipodi:type="inkscape:persp3d" />
    <inkscape:perspective
       id="perspective3643"
       inkscape:persp3d-origin="0.5 : 0.33333333 : 1"
       inkscape:vp_z="1 : 0.5 : 1"
       inkscape:vp_y="0 : 1000 : 0"
       inkscape:vp_x="0 : 0.5 : 1"
       sodipodi:type="inkscape:persp3d" />
    <inkscape:perspective
       id="perspective3665"
       inkscape:persp3d-origin="0.5 : 0.33333333 : 1"
       inkscape:vp_z="1 : 0.5 : 1"
       inkscape:vp_y="0 : 1000 : 0"
       inkscape:vp_x="0 : 0.5 : 1"
       sodipodi:type="inkscape:persp3d" />
    <inkscape:perspective
       id="perspective3687"
       inkscape:persp3d-origin="0.5 : 0.33333333 : 1"
       inkscape:vp_z="1 : 0.5 : 1"
       inkscape:vp_y="0 : 1000 : 0"
       inkscape:vp_x="0 : 0.5 : 1"
       sodipodi:type="inkscape:persp3d" />
    <inkscape:perspective
       id="perspective3711"
       inkscape:persp3d-origin="0.5 : 0.33333333 : 1"
       inkscape:vp_z="1 : 0.5 : 1"
       inkscape:vp_y="0 : 1000 : 0"
       inkscape:vp_x="0 : 0.5 : 1"
       sodipodi:type="inkscape:persp3d" />
    <inkscape:perspective
       id="perspective3733"
       inkscape:persp3d-origin="0.5 : 0.33333333 : 1"
       inkscape:vp_z="1 : 0.5 : 1"
       inkscape:vp_y="0 : 1000 : 0"
       inkscape:vp_x="0 : 0.5 : 1"
       sodipodi:type="inkscape:persp3d" />
    <inkscape:perspective
       id="perspective3755"
       inkscape:persp3d-origin="0.5 : 0.33333333 : 1"
       inkscape:vp_z="1 : 0.5 : 1"
       inkscape:vp_y="0 : 1000 : 0"
       inkscape:vp_x="0 : 0.5 : 1"
       sodipodi:type="inkscape:persp3d" />
    <inkscape:perspective
       id="perspective3777"
       inkscape:persp3d-origin="0.5 : 0.33333333 : 1"
       inkscape:vp_z="1 : 0.5 : 1"
       inkscape:vp_y="0 : 1000 : 0"
       inkscape:vp_x="0 : 0.5 : 1"
       sodipodi:type="inkscape:persp3d" />
    <inkscape:perspective
       id="perspective3799"
       inkscape:persp3d-origin="0.5 : 0.33333333 : 1"
       inkscape:vp_z="1 : 0.5 : 1"
       inkscape:vp_y="0 : 1000 : 0"
       inkscape:vp_x="0 : 0.5 : 1"
       sodipodi:type="inkscape:persp3d" />
    <inkscape:perspective
       id="perspective3851"
       inkscape:persp3d-origin="0.5 : 0.33333333 : 1"
       inkscape:vp_z="1 : 0.5 : 1"
       inkscape:vp_y="0 : 1000 : 0"
       inkscape:vp_x="0 : 0.5 : 1"
       sodipodi:type="inkscape:persp3d" />
    <inkscape:perspective
       id="perspective3873"
       inkscape:persp3d-origin="0.5 : 0.33333333 : 1"
       inkscape:vp_z="1 : 0.5 : 1"
       inkscape:vp_y="0 : 1000 : 0"
       inkscape:vp_x="0 : 0.5 : 1"
       sodipodi:type="inkscape:persp3d" />
    <inkscape:perspective
       id="perspective3897"
       inkscape:persp3d-origin="0.5 : 0.33333333 : 1"
       inkscape:vp_z="1 : 0.5 : 1"
       inkscape:vp_y="0 : 1000 : 0"
       inkscape:vp_x="0 : 0.5 : 1"
       sodipodi:type="inkscape:persp3d" />
    <inkscape:perspective
       id="perspective3933"
       inkscape:persp3d-origin="0.5 : 0.33333333 : 1"
       inkscape:vp_z="1 : 0.5 : 1"
       inkscape:vp_y="0 : 1000 : 0"
       inkscape:vp_x="0 : 0.5 : 1"
       sodipodi:type="inkscape:persp3d" />
    <inkscape:perspective
       id="perspective3960"
       inkscape:persp3d-origin="0.5 : 0.33333333 : 1"
       inkscape:vp_z="1 : 0.5 : 1"
       inkscape:vp_y="0 : 1000 : 0"
       inkscape:vp_x="0 : 0.5 : 1"
       sodipodi:type="inkscape:persp3d" />
    <inkscape:perspective
       id="perspective3997"
       inkscape:persp3d-origin="0.5 : 0.33333333 : 1"
       inkscape:vp_z="1 : 0.5 : 1"
       inkscape:vp_y="0 : 1000 : 0"
       inkscape:vp_x="0 : 0.5 : 1"
       sodipodi:type="inkscape:persp3d" />
    <inkscape:perspective
       id="perspective4019"
       inkscape:persp3d-origin="0.5 : 0.33333333 : 1"
       inkscape:vp_z="1 : 0.5 : 1"
       inkscape:vp_y="0 : 1000 : 0"
       inkscape:vp_x="0 : 0.5 : 1"
       sodipodi:type="inkscape:persp3d" />
    <inkscape:perspective
       id="perspective4041"
       inkscape:persp3d-origin="0.5 : 0.33333333 : 1"
       inkscape:vp_z="1 : 0.5 : 1"
       inkscape:vp_y="0 : 1000 : 0"
       inkscape:vp_x="0 : 0.5 : 1"
       sodipodi:type="inkscape:persp3d" />
    <inkscape:perspective
       id="perspective4070"
       inkscape:persp3d-origin="0.5 : 0.33333333 : 1"
       inkscape:vp_z="1 : 0.5 : 1"
       inkscape:vp_y="0 : 1000 : 0"
       inkscape:vp_x="0 : 0.5 : 1"
       sodipodi:type="inkscape:persp3d" />
    <inkscape:perspective
       id="perspective4106"
       inkscape:persp3d-origin="0.5 : 0.33333333 : 1"
       inkscape:vp_z="1 : 0.5 : 1"
       inkscape:vp_y="0 : 1000 : 0"
       inkscape:vp_x="0 : 0.5 : 1"
       sodipodi:type="inkscape:persp3d" />
    <inkscape:perspective
       id="perspective4128"
       inkscape:persp3d-origin="0.5 : 0.33333333 : 1"
       inkscape:vp_z="1 : 0.5 : 1"
       inkscape:vp_y="0 : 1000 : 0"
       inkscape:vp_x="0 : 0.5 : 1"
       sodipodi:type="inkscape:persp3d" />
    <inkscape:perspective
       id="perspective4152"
       inkscape:persp3d-origin="0.5 : 0.33333333 : 1"
       inkscape:vp_z="1 : 0.5 : 1"
       inkscape:vp_y="0 : 1000 : 0"
       inkscape:vp_x="0 : 0.5 : 1"
       sodipodi:type="inkscape:persp3d" />
    <inkscape:perspective
       id="perspective4179"
       inkscape:persp3d-origin="0.5 : 0.33333333 : 1"
       inkscape:vp_z="1 : 0.5 : 1"
       inkscape:vp_y="0 : 1000 : 0"
       inkscape:vp_x="0 : 0.5 : 1"
       sodipodi:type="inkscape:persp3d" />
    <inkscape:perspective
       id="perspective2884"
       inkscape:persp3d-origin="0.5 : 0.33333333 : 1"
       inkscape:vp_z="1 : 0.5 : 1"
       inkscape:vp_y="0 : 1000 : 0"
       inkscape:vp_x="0 : 0.5 : 1"
       sodipodi:type="inkscape:persp3d" />
    <inkscape:perspective
       id="perspective2907"
       inkscape:persp3d-origin="0.5 : 0.33333333 : 1"
       inkscape:vp_z="1 : 0.5 : 1"
       inkscape:vp_y="0 : 1000 : 0"
       inkscape:vp_x="0 : 0.5 : 1"
       sodipodi:type="inkscape:persp3d" />
    <inkscape:perspective
       id="perspective2929"
       inkscape:persp3d-origin="0.5 : 0.33333333 : 1"
       inkscape:vp_z="1 : 0.5 : 1"
       inkscape:vp_y="0 : 1000 : 0"
       inkscape:vp_x="0 : 0.5 : 1"
       sodipodi:type="inkscape:persp3d" />
    <inkscape:perspective
       id="perspective2952"
       inkscape:persp3d-origin="0.5 : 0.33333333 : 1"
       inkscape:vp_z="1 : 0.5 : 1"
       inkscape:vp_y="0 : 1000 : 0"
       inkscape:vp_x="0 : 0.5 : 1"
       sodipodi:type="inkscape:persp3d" />
    <inkscape:perspective
       id="perspective2991"
       inkscape:persp3d-origin="0.5 : 0.33333333 : 1"
       inkscape:vp_z="1 : 0.5 : 1"
       inkscape:vp_y="0 : 1000 : 0"
       inkscape:vp_x="0 : 0.5 : 1"
       sodipodi:type="inkscape:persp3d" />
    <inkscape:perspective
       id="perspective3020"
       inkscape:persp3d-origin="0.5 : 0.33333333 : 1"
       inkscape:vp_z="1 : 0.5 : 1"
       inkscape:vp_y="0 : 1000 : 0"
       inkscape:vp_x="0 : 0.5 : 1"
       sodipodi:type="inkscape:persp3d" />
    <inkscape:perspective
       id="perspective3043"
       inkscape:persp3d-origin="0.5 : 0.33333333 : 1"
       inkscape:vp_z="1 : 0.5 : 1"
       inkscape:vp_y="0 : 1000 : 0"
       inkscape:vp_x="0 : 0.5 : 1"
       sodipodi:type="inkscape:persp3d" />
    <inkscape:perspective
       id="perspective3082"
       inkscape:persp3d-origin="0.5 : 0.33333333 : 1"
       inkscape:vp_z="1 : 0.5 : 1"
       inkscape:vp_y="0 : 1000 : 0"
       inkscape:vp_x="0 : 0.5 : 1"
       sodipodi:type="inkscape:persp3d" />
    <inkscape:perspective
       id="perspective3107"
       inkscape:persp3d-origin="0.5 : 0.33333333 : 1"
       inkscape:vp_z="1 : 0.5 : 1"
       inkscape:vp_y="0 : 1000 : 0"
       inkscape:vp_x="0 : 0.5 : 1"
       sodipodi:type="inkscape:persp3d" />
    <inkscape:perspective
       id="perspective3136"
       inkscape:persp3d-origin="0.5 : 0.33333333 : 1"
       inkscape:vp_z="1 : 0.5 : 1"
       inkscape:vp_y="0 : 1000 : 0"
       inkscape:vp_x="0 : 0.5 : 1"
       sodipodi:type="inkscape:persp3d" />
    <inkscape:perspective
       id="perspective3158"
       inkscape:persp3d-origin="0.5 : 0.33333333 : 1"
       inkscape:vp_z="1 : 0.5 : 1"
       inkscape:vp_y="0 : 1000 : 0"
       inkscape:vp_x="0 : 0.5 : 1"
       sodipodi:type="inkscape:persp3d" />
    <inkscape:perspective
       id="perspective3180"
       inkscape:persp3d-origin="0.5 : 0.33333333 : 1"
       inkscape:vp_z="1 : 0.5 : 1"
       inkscape:vp_y="0 : 1000 : 0"
       inkscape:vp_x="0 : 0.5 : 1"
       sodipodi:type="inkscape:persp3d" />
    <inkscape:perspective
       id="perspective3203"
       inkscape:persp3d-origin="0.5 : 0.33333333 : 1"
       inkscape:vp_z="1 : 0.5 : 1"
       inkscape:vp_y="0 : 1000 : 0"
       inkscape:vp_x="0 : 0.5 : 1"
       sodipodi:type="inkscape:persp3d" />
    <inkscape:perspective
       id="perspective3233"
       inkscape:persp3d-origin="0.5 : 0.33333333 : 1"
       inkscape:vp_z="1 : 0.5 : 1"
       inkscape:vp_y="0 : 1000 : 0"
       inkscape:vp_x="0 : 0.5 : 1"
       sodipodi:type="inkscape:persp3d" />
    <inkscape:perspective
       id="perspective3264"
       inkscape:persp3d-origin="0.5 : 0.33333333 : 1"
       inkscape:vp_z="1 : 0.5 : 1"
       inkscape:vp_y="0 : 1000 : 0"
       inkscape:vp_x="0 : 0.5 : 1"
       sodipodi:type="inkscape:persp3d" />
    <inkscape:perspective
       id="perspective3286"
       inkscape:persp3d-origin="0.5 : 0.33333333 : 1"
       inkscape:vp_z="1 : 0.5 : 1"
       inkscape:vp_y="0 : 1000 : 0"
       inkscape:vp_x="0 : 0.5 : 1"
       sodipodi:type="inkscape:persp3d" />
    <inkscape:perspective
       id="perspective3309"
       inkscape:persp3d-origin="0.5 : 0.33333333 : 1"
       inkscape:vp_z="1 : 0.5 : 1"
       inkscape:vp_y="0 : 1000 : 0"
       inkscape:vp_x="0 : 0.5 : 1"
       sodipodi:type="inkscape:persp3d" />
    <inkscape:perspective
       id="perspective3334"
       inkscape:persp3d-origin="0.5 : 0.33333333 : 1"
       inkscape:vp_z="1 : 0.5 : 1"
       inkscape:vp_y="0 : 1000 : 0"
       inkscape:vp_x="0 : 0.5 : 1"
       sodipodi:type="inkscape:persp3d" />
    <inkscape:perspective
       id="perspective3364"
       inkscape:persp3d-origin="0.5 : 0.33333333 : 1"
       inkscape:vp_z="1 : 0.5 : 1"
       inkscape:vp_y="0 : 1000 : 0"
       inkscape:vp_x="0 : 0.5 : 1"
       sodipodi:type="inkscape:persp3d" />
    <inkscape:perspective
       id="perspective3386"
       inkscape:persp3d-origin="0.5 : 0.33333333 : 1"
       inkscape:vp_z="1 : 0.5 : 1"
       inkscape:vp_y="0 : 1000 : 0"
       inkscape:vp_x="0 : 0.5 : 1"
       sodipodi:type="inkscape:persp3d" />
    <inkscape:perspective
       id="perspective3444"
       inkscape:persp3d-origin="0.5 : 0.33333333 : 1"
       inkscape:vp_z="1 : 0.5 : 1"
       inkscape:vp_y="0 : 1000 : 0"
       inkscape:vp_x="0 : 0.5 : 1"
       sodipodi:type="inkscape:persp3d" />
    <inkscape:perspective
       id="perspective3470"
       inkscape:persp3d-origin="0.5 : 0.33333333 : 1"
       inkscape:vp_z="1 : 0.5 : 1"
       inkscape:vp_y="0 : 1000 : 0"
       inkscape:vp_x="0 : 0.5 : 1"
       sodipodi:type="inkscape:persp3d" />
    <inkscape:perspective
       id="perspective3500"
       inkscape:persp3d-origin="0.5 : 0.33333333 : 1"
       inkscape:vp_z="1 : 0.5 : 1"
       inkscape:vp_y="0 : 1000 : 0"
       inkscape:vp_x="0 : 0.5 : 1"
       sodipodi:type="inkscape:persp3d" />
    <inkscape:perspective
       id="perspective3550"
       inkscape:persp3d-origin="0.5 : 0.33333333 : 1"
       inkscape:vp_z="1 : 0.5 : 1"
       inkscape:vp_y="0 : 1000 : 0"
       inkscape:vp_x="0 : 0.5 : 1"
       sodipodi:type="inkscape:persp3d" />
    <inkscape:perspective
       id="perspective3680"
       inkscape:persp3d-origin="0.5 : 0.33333333 : 1"
       inkscape:vp_z="1 : 0.5 : 1"
       inkscape:vp_y="0 : 1000 : 0"
       inkscape:vp_x="0 : 0.5 : 1"
       sodipodi:type="inkscape:persp3d" />
    <radialGradient
       inkscape:collect="always"
       xlink:href="#linearGradient3718"
       id="radialGradient3724"
       cx="208.22098"
       cy="653.32489"
       fx="208.22098"
       fy="653.32489"
       r="87.453125"
       gradientTransform="matrix(0.33416752,-0.1927608,0.16980533,0.29437276,27.702242,468.39341)"
       gradientUnits="userSpaceOnUse" />
    <radialGradient
       inkscape:collect="always"
       xlink:href="#linearGradient3730"
       id="radialGradient3736"
       cx="220.64117"
       cy="596.88947"
       fx="220.64117"
       fy="596.88947"
       r="91.507492"
       gradientTransform="matrix(0.25548947,0.10405141,-0.10752436,0.26401701,228.44983,373.54605)"
       gradientUnits="userSpaceOnUse" />
    <radialGradient
       inkscape:collect="always"
       xlink:href="#linearGradient3730"
       id="radialGradient3797"
       gradientUnits="userSpaceOnUse"
       gradientTransform="matrix(0.25548947,0.10405141,-0.10752436,0.26401701,228.44983,373.54605)"
       cx="220.64117"
       cy="596.88947"
       fx="220.64117"
       fy="596.88947"
       r="91.507492" />
    <inkscape:perspective
       id="perspective2906"
       inkscape:persp3d-origin="0.5 : 0.33333333 : 1"
       inkscape:vp_z="1 : 0.5 : 1"
       inkscape:vp_y="0 : 1000 : 0"
       inkscape:vp_x="0 : 0.5 : 1"
       sodipodi:type="inkscape:persp3d" />
    <radialGradient
       inkscape:collect="always"
       xlink:href="#linearGradient3730"
       id="radialGradient3732"
       gradientUnits="userSpaceOnUse"
       gradientTransform="matrix(0.25548947,0.10405141,-0.10752436,0.26401701,228.44983,373.54605)"
       cx="220.64117"
       cy="596.88947"
       fx="220.64117"
       fy="596.88947"
       r="91.507492" />
    <inkscape:perspective
       id="perspective3759"
       inkscape:persp3d-origin="0.5 : 0.33333333 : 1"
       inkscape:vp_z="1 : 0.5 : 1"
       inkscape:vp_y="0 : 1000 : 0"
       inkscape:vp_x="0 : 0.5 : 1"
       sodipodi:type="inkscape:persp3d" />
    <inkscape:perspective
       id="perspective3813"
       inkscape:persp3d-origin="0.5 : 0.33333333 : 1"
       inkscape:vp_z="1 : 0.5 : 1"
       inkscape:vp_y="0 : 1000 : 0"
       inkscape:vp_x="0 : 0.5 : 1"
       sodipodi:type="inkscape:persp3d" />
  </defs>
  <sodipodi:namedview
     id="base"
     pagecolor="#ffffff"
     bordercolor="#666666"
     borderopacity="1.0"
     inkscape:pageopacity="0.0"
     inkscape:pageshadow="2"
     inkscape:zoom="0.42351576"
     inkscape:cx="-203.48553"
     inkscape:cy="441.51022"
     inkscape:document-units="px"
     inkscape:current-layer="layer2"
     showgrid="false"
     showguides="true"
     inkscape:guide-bbox="true"
     inkscape:snap-bbox="true"
     inkscape:window-width="1366"
     inkscape:window-height="706"
     inkscape:window-x="-8"
     inkscape:window-y="-8"
     inkscape:window-maximized="1"
     inkscape:bbox-nodes="true"
     inkscape:snap-object-midpoints="true"
     inkscape:snap-center="true"
     inkscape:snap-midpoints="true"
     inkscape:snap-smooth-nodes="true"
     inkscape:object-nodes="true"
     inkscape:object-paths="true"
     inkscape:bbox-paths="true"
     inkscape:snap-bbox-edge-midpoints="true"
     inkscape:snap-bbox-midpoints="true"
     inkscape:snap-intersection-paths="true"
     inkscape:snap-global="false"
     borderlayer="true"
     fit-margin-top="0"
     fit-margin-left="0"
     fit-margin-right="0"
     fit-margin-bottom="0"
     inkscape:snap-nodes="false" />
  <metadata
     id="metadata7">
    <rdf:RDF>
      <cc:Work
         rdf:about="">
        <dc:format>image/svg+xml</dc:format>
        <dc:type
           rdf:resource="http://purl.org/dc/dcmitype/StillImage" />
        <dc:title></dc:title>
      </cc:Work>
    </rdf:RDF>
  </metadata>
  <g
     inkscape:groupmode="layer"
     id="layer2"
     inkscape:label="Capa2"
     transform="translate(198.28621,-391.49559)">
    <g
       id="g3237"
       transform="matrix(0.83333342,0,0,0.83333342,-33.047685,148.58253)">
      <rect
         y="291.49564"
         x="-198.28621"
         height="299.99997"
         width="1199.9999"
         id="rect2830-1"
         style="fill:#008ddd;fill-opacity:1;stroke:none" />
      <rect
         y="591.49567"
         x="-198.28621"
         height="299.99997"
         width="1199.9999"
         id="rect2830-1-1"
         style="fill:#ffffff;fill-opacity:1;stroke:none" />
    </g>
    <g
       transform="matrix(0.69383776,0,0,0.71117764,182.88008,464.2367)"
       id="g4006">
      <path
         style="fill:#e27712;fill-opacity:1;stroke:none"
         d="m 27.29103,355.42412 -10.0346,-47.81128 90.449,-0.95567 235.7115,0.95567 c 0.8155,25.34195 -4.6341,48.0212 -16.5762,67.94118 -11.7215,19.55206 -29.6978,36.44583 -54.1437,50.58999 l -88.3999,56.41235 -78.0252,-44.91669 -49.355,-38.22697 z"
         id="path3012"
         inkscape:connector-curvature="0"
         sodipodi:nodetypes="ccccsccccc" />
      <path
         style="fill:#008ddd;fill-opacity:1;stroke:none"
         d="m 113.47883,319.31737 67.6495,0 67.6494,0 -2.3203,15.40214 c -10.0088,-1.13198 -44.3025,2.72633 -62.4287,0.51341 l -64.3624,0 c 0,-6.20753 -6.1875,-9.70801 -6.1875,-15.91555 z"
         id="path3784"
         inkscape:connector-curvature="0"
         sodipodi:nodetypes="ccccccc" />
      <path
         style="fill:#008ddd;fill-opacity:1;stroke:none"
         d="m 140.71633,346.1374 40.4824,0 40.4823,0 c 1.3434,1.45641 1.2364,2.82751 0.3552,4.15307 -1.7445,2.62422 -6.5234,5.06994 -9.0914,7.64572 -5.9894,-1.06611 -19.1635,5.27472 -30.0105,3.19057 l -32.9079,-4.64064 c 0,-5.8463 -9.3101,-4.50243 -9.3101,-10.34872 z"
         id="path3784-1"
         inkscape:connector-curvature="0"
         sodipodi:nodetypes="cccscccc" />
      <path
         style="fill:#00903e;fill-opacity:1;stroke:none"
         d="m 273.39003,390.40508 c -0.8897,-3.54522 4.6563,-21.14035 9.46,-32.95226 l 16.6043,-18.05863 2.0864,14.97147 c 0.5612,4.0268 -0.1348,2.06413 -1.2673,5.87771 -1.3788,4.64296 1.7515,13.71137 1.0777,11.027 -0.2662,-1.06055 -18.4105,1.60837 -19.0405,1.60837 -1.3777,0 16.8326,-6.72452 17.9694,-1.79969 1.0435,4.5206 0.7566,12.45525 -0.9775,11.0161 -1.7836,-1.48026 -7.1024,4.86645 -6.2083,7.43126 0.4312,1.23676 -8.5782,4.31556 -8.7157,5.51177 -0.3259,2.83552 -9.7915,16.19514 -10.4444,13.59417 z"
         id="path3804"
         inkscape:connector-curvature="0"
         sodipodi:nodetypes="cccsssssscccc" />
      <path
         style="fill:#00903e;fill-opacity:1;stroke:none"
         d="m 223.90543,414.04183 c -0.8897,-3.54521 8.1929,-24.40493 12.9966,-36.21684 l 16.6043,-18.05863 2.0864,14.97147 c 0.5612,4.0268 -0.3282,1.77655 1.4532,5.33361 7.2821,14.54113 -12.123,42.27649 -12.7968,39.59212 -0.2662,-1.06054 -7.2565,-26.41265 -7.8865,-26.41265 -1.3777,0 16.8326,-6.72452 17.9694,-1.79969 1.0435,4.5206 0.7566,12.45525 -0.9775,11.0161 -1.7836,-1.48027 -7.1024,4.86645 -6.2083,7.43125 1.9026,2.0542 -6.3392,17.25754 -11.1641,15.84964 -0.3259,2.83552 -13.0561,17.82743 -13.709,15.22646 z"
         id="path3804-7"
         inkscape:connector-curvature="0"
         sodipodi:nodetypes="cccsssssscccc" />
      <path
         style="fill:#00903e;fill-opacity:1;stroke:none"
         d="m 164.78633,430.42282 c -1.4193,-3.36834 1.3821,-21.6029 4.3307,-34.00865 l 13.66,-20.37694 10.8716,13.93491 c 2.5009,3.20557 6.7103,9.4059 6.1718,13.34747 5.9839,9.37416 8.0301,39.28548 -0.08,36.97944 2.6225,8.68864 -9.7543,14.999 -8.5406,17.26776 0.5236,0.90053 -1.8559,9.11945 -4.3948,12.97776 -0.8729,1.32636 -1.7645,0.77716 -2.5636,0.59842 -1.8919,3.08623 -7.2688,3.81297 -6.7229,-0.23351 0.3101,-2.29936 -0.3836,-5.09138 -1.5164,-7.92323 -2.5874,-6.46828 -7.4652,-13.14433 -7.9021,-14.63169 z"
         id="path3804-4"
         inkscape:connector-curvature="0"
         sodipodi:nodetypes="cccscccscsscc" />
      <path
         style="fill:#00903e;fill-opacity:1;stroke:none"
         d="m 119.16333,419.89042 c -5.9773,-2.50426 -13.7011,-22.397 -12.5325,-33.42374 l 0.069,-24.53186 1.5761,-6.40918 c 0.9709,-3.94817 17.8884,19.0255 19.6258,22.60423 -4.148,3.9332 12.5569,12.7591 7.4989,15.42234 -0.4116,0.0646 1.9963,3.722 3.7699,7.02313 1.2743,2.37185 2.2211,4.55978 1.5594,5.09897 1.1527,0.62182 1.7498,16.04654 2.4555,17.02216 1.6727,2.31263 1.7969,22.36821 -0.44,20.88915 l -9.3796,-11.87674 z"
         id="path3804-0"
         inkscape:connector-curvature="0"
         sodipodi:nodetypes="cccsccsccccc" />
      <path
         style="fill:#00903e;fill-opacity:1;stroke:none"
         d="m 77.12463,393.7832 c -4.5159,0.64733 -14.1987,-14.25824 -16.1596,-30.09079 l 2.2204,-24.51687 9.4208,6.2033 c 3.3957,2.23595 4.233,5.19185 5.8542,8.82473 1.9737,4.42296 7.8026,9.54499 5.5444,7.94485 -0.8922,-0.63219 -12.9346,13.19959 -13.413,13.60948 -1.0463,0.89636 8.4076,-16.05822 12.4751,-13.05789 3.7337,2.75405 5.9577,12.50297 3.7045,12.5383 -2.3176,0.0363 0.4931,4.77993 2.8407,6.14594 1.1322,0.65866 -0.986,11.03478 -0.3122,12.03264 1.5974,2.36535 2.0129,16.49282 -0.1751,14.94241 z"
         id="path3804-9"
         inkscape:connector-curvature="0"
         sodipodi:nodetypes="cccsssssscccc" />
      <rect
         style="fill:#008ddd;fill-opacity:1;stroke:none"
         id="rect3845"
         width="322.05298"
         height="230.45457"
         x="19.634617"
         y="78.661934" />
      <path
         style="fill:#e27712;fill-opacity:1;stroke:#e27712;stroke-width:1.12699997;stroke-linecap:round;stroke-linejoin:round;stroke-miterlimit:4;stroke-opacity:1;stroke-dasharray:none;stroke-dashoffset:0"
         d="m 291.73893,248.85407 c -3.3689,-1.16494 -5.1873,-2.70297 -7.8639,-6.65144 -1.1973,-1.76626 -2.1916,-3.88614 -2.201,-4.69259 -0.01,-0.52205 0.1706,-0.56758 1.6208,-0.41772 2.1413,0.22126 4.9915,1.24149 6.3383,2.26874 2.032,1.54989 6.5646,8.59118 6.1783,9.59787 -0.2368,0.61699 -2.1257,0.56835 -4.0725,-0.10486 z"
         id="path3954-8"
         inkscape:connector-curvature="0" />
      <path
         style="fill:#e27712;fill-opacity:1;stroke:#e27712;stroke-width:1.12699997;stroke-linecap:round;stroke-linejoin:round;stroke-miterlimit:4;stroke-opacity:1;stroke-dasharray:none;stroke-dashoffset:0"
         d="m 57.04123,247.62028 c -3.3689,-1.16495 -5.1873,-2.70297 -7.8639,-6.65145 -1.1973,-1.76626 -2.1916,-3.88613 -2.201,-4.69259 -0.01,-0.52204 0.1706,-0.56758 1.6208,-0.41772 2.1413,0.22127 4.9915,1.2415 6.3383,2.26874 2.032,1.54989 6.5646,8.59118 6.1783,9.59788 -0.2368,0.61698 -2.1257,0.56834 -4.0725,-0.10486 z"
         id="path3954"
         inkscape:connector-curvature="0" />
      <path
         style="fill:#f5f000;fill-opacity:1;stroke:#f5f000;stroke-width:1.12699997;stroke-linecap:round;stroke-linejoin:round;stroke-miterlimit:4;stroke-opacity:1;stroke-dasharray:none;stroke-dashoffset:0"
         d="m 61.53903,282.97783 0,-12.32335 -3.0212,-1.04802 c -3.8427,-1.33298 -5.9451,-2.39133 -8.367,-4.21187 -3.4506,-2.59388 -6.758,-6.8531 -7.4711,-9.62113 -0.9093,-3.52997 -1.3685,-13.29039 -2.246,-47.7433 -0.6664,-26.16438 -0.6546,-31.08473 0.08,-33.01728 0.4478,-1.17871 2.4081,-4.03028 2.7706,-4.03028 0.3764,0 0.5565,3.88301 0.8913,19.22133 0.3476,15.91675 0.4932,18.61975 1.0427,19.34833 0.3339,0.44285 6.0669,2.17291 6.3297,1.91015 0.066,-0.0657 -0.05,-6.79405 -0.2566,-14.9518 -0.351,-13.84255 -0.2692,-29.4244 0.1601,-30.48835 0.3075,-0.76229 3.3165,-2.59714 3.5745,-2.17971 0.1222,0.19771 0.312,7.84913 0.4218,17.00317 0.211,17.58898 0.3164,19.58891 1.0328,19.58891 0.5902,0 3.2853,-2.55375 4.6338,-4.39088 l 1.092,-1.48755 -0.1792,-8.9191 c -0.099,-4.90551 -0.2572,-12.23246 -0.3526,-16.28211 l -0.1734,-7.36301 3.3264,0 3.3263,0 -0.1996,16.32897 -0.1996,16.32898 1.1276,1.41975 c 1.364,1.71735 4.1513,4.33297 4.6372,4.35153 0.1933,0.007 0.4658,-0.30047 0.6056,-0.68412 0.1398,-0.38366 0.2607,-8.6496 0.2686,-18.36877 l 0.014,-17.67122 1.028,0.0479 c 0.5654,0.0264 1.2984,0.29266 1.6289,0.59177 1.2374,1.1198 1.3144,2.35676 1.2637,20.28674 -0.051,18.06405 0.2146,25.51872 0.9343,26.20479 0.6591,0.62825 3.9461,-0.14625 4.5628,-1.07511 0.5115,-0.77033 0.8612,-11.15847 0.9713,-28.84994 0.028,-4.51856 0.1435,-8.88917 0.2564,-9.71247 l 0.2054,-1.4969 1.5096,1.7516 c 2.5606,2.97103 2.4245,0.54847 2.0551,36.5843 -0.3539,34.5122 -0.639,44.07202 -1.4124,47.34235 -1.2482,5.27866 -7.6136,11.54001 -14.2813,14.048 l -2.7521,1.03513 -0.081,12.42294 -0.081,12.42295 -4.3368,0 -4.3368,0 0,-12.32335 0,0 z m 1.7613,-15.14414 c 0.1046,-0.27259 -0.048,-1.82977 -0.3394,-3.46039 -0.6048,-3.38589 -1.3345,-4.68321 -3.9653,-7.04991 -3.5997,-3.23838 -8.0213,-5.65466 -10.889,-5.95064 -1.5756,-0.16261 -1.727,-0.11875 -2.2277,0.64538 -0.6809,1.03927 -0.4881,2.38371 0.7844,5.46956 1.3245,3.21198 2.5528,5.00106 4.8683,7.09087 3.2041,2.89185 5.1114,3.66569 9.1661,3.71903 1.9442,0.0256 2.4493,-0.0645 2.6026,-0.4639 l 0,0 z m 9.405,-0.45638 c 6.4979,-1.80066 10.1772,-5.84148 12.1307,-13.3225 0.8517,-3.26178 0.7135,-3.80999 -0.8924,-3.54075 -3.9244,0.65797 -9.9971,3.5626 -12.334,5.8995 -2.2895,2.28952 -3.8998,5.61392 -4.1044,8.47328 -0.085,1.19081 -0.071,2.38276 0.031,2.64878 0.2638,0.68749 2.3475,0.62368 5.1694,-0.15831 l 0,0 z m -10.6932,-17.65649 c 0.7636,-0.84373 0.6865,-3.39039 -0.172,-5.68501 -1.906,-5.09408 -7.1802,-9.10582 -14.2704,-10.8544 -2.3644,-0.58311 -2.9447,-0.64043 -3.0264,-0.29893 -0.1633,0.68327 1.7356,7.11507 2.6198,8.87356 2.0142,4.00551 4.1007,5.84178 8.642,7.60534 3.0293,1.17637 5.3463,1.31054 6.207,0.35944 l 0,0 z m 11.3016,-0.49461 c 5.1452,-1.72094 7.8545,-4.47834 10.2193,-10.40057 1.008,-2.52433 1.2792,-5.38467 0.5771,-6.08678 -0.9065,-0.90653 -3.1448,-0.33914 -7.9637,2.0188 -5.6414,2.76034 -9.3546,7.55664 -9.5991,12.39901 -0.1655,3.2768 -0.134,3.31777 2.3551,3.06276 1.1432,-0.11713 3.1283,-0.56408 4.4113,-0.99322 l 0,0 z m -11.1548,-17.32234 c 0.7149,-0.86149 0.2456,-4.10426 -0.9427,-6.51251 -1.3157,-2.66655 -5.1138,-6.58006 -8.058,-8.30275 -2.4432,-1.42962 -6.7954,-2.85137 -7.8886,-2.57701 -0.7109,0.17842 -0.7802,0.34193 -0.7802,1.83877 0,2.93161 1.6285,7.01481 4.1902,10.50582 1.5912,2.16856 5.2285,4.07673 9.6057,5.03933 2.52,0.55416 3.419,0.5561 3.8736,0.008 l 0,1e-5 z m 10.1028,-1.24049 c 4.9187,-1.85141 7.71,-4.32683 9.78,-8.67347 1.427,-2.99631 2.8595,-8.33063 2.2754,-8.47275 -0.7505,-0.18258 -8.0832,2.42412 -10.0548,3.57439 -2.6296,1.53412 -5.5234,4.44972 -6.6468,6.69694 -1.1727,2.34573 -1.5133,6.07388 -0.6428,7.03575 0.7741,0.8554 2.7486,0.79534 5.289,-0.16086 l 0,0 z m -5.4849,-13.09484 c 3.2712,-3.82694 4.4301,-8.30207 3.4096,-13.16587 -0.4081,-1.94544 -2.7664,-6.67918 -3.8209,-7.66986 -0.9971,-0.93671 -1.646,-0.67188 -3.0887,1.26054 -2.7172,3.63952 -3.7715,6.97753 -3.5255,11.16154 0.1859,3.16231 1.0173,5.46514 2.893,8.01308 1.751,2.3786 2.3889,2.44043 4.1325,0.40057 z"
         id="path3952"
         inkscape:connector-curvature="0" />
      <path
         style="fill:#ffffff;fill-opacity:1;stroke:#ffffff;stroke-width:1.70000005;stroke-linecap:round;stroke-linejoin:round;stroke-miterlimit:4;stroke-opacity:1;stroke-dasharray:none;stroke-dashoffset:0"
         d="m 131.56853,224.16732 c -5.6795,-7.09446 -9.0946,-14.32903 -9.1152,-19.31001 0,-0.99658 -0.2193,-2.82312 -0.4783,-4.05898 l -0.4709,-2.24702 10.8147,-0.003 c 12.2878,-0.004 17.7274,-0.37877 21.2849,-1.46847 6.8224,-2.08979 13.7589,-7.42056 15.9565,-12.26273 0.3858,-0.85 0.7049,-2.30552 0.7093,-3.23451 0.01,-1.49795 -0.1898,-1.92656 -1.7388,-3.78794 -0.9607,-1.15437 -3.0235,-3.27131 -4.5839,-4.7043 -3.9759,-3.65091 -6.4722,-6.68735 -7.7384,-9.41253 -0.5972,-1.28529 -1.3566,-2.88313 -1.6875,-3.55074 -0.331,-0.66762 -1.943,-2.65405 -3.5823,-4.41431 -4.3439,-4.66456 -7.1689,-9.43285 -6.362,-10.73843 0.5065,-0.81945 0.8236,-0.62015 11.2741,7.08479 3.8308,2.82431 7.1069,5.04742 7.2804,4.94022 0.1734,-0.1072 0.3153,-0.72505 0.3153,-1.37301 0,-2.33809 -2.5242,-4.73993 -15.6392,-14.88101 -8.0851,-6.25174 -10.0466,-8.01976 -11.6115,-10.466 -1.1916,-1.86281 -2.6866,-5.4529 -2.3929,-5.74654 0.2026,-0.20263 1.4459,0.64039 7.8985,5.3555 3.1671,2.3143 6.6585,4.71586 7.7588,5.3368 2.8535,1.61041 4.2604,1.45467 3.7891,-0.41941 -0.2211,-0.87896 -2.2653,-2.54623 -14.6314,-11.93371 -14.4271,-10.95207 -20.8308,-16.85771 -20.8308,-19.21084 0,-0.97045 3.8219,0.13854 18.1559,5.26831 17.4028,6.22798 25.2118,8.47911 36.4916,10.5195 3.4604,0.62595 7.3444,1.44511 8.631,1.82034 5.208,1.51887 7.9558,4.30153 13.1208,13.28719 2.4412,4.24692 5.6553,8.98268 6.8803,10.13745 1.5533,1.46431 3.5478,2.151 6.2161,2.14025 6.1931,-0.0249 12.103,-4.08107 17.1032,-11.73842 3.8884,-5.95471 8.4638,-9.88688 11.5042,-9.88688 3.2425,0 7.7169,3.32432 8.9521,6.65118 0.3671,0.98868 1.1428,2.64503 1.7239,3.68076 0.5811,1.03574 0.9583,2.04199 0.8384,2.23611 -0.12,0.19412 -1.3846,0.6956 -2.8102,1.11439 -1.4257,0.41879 -3.261,1.14758 -4.0785,1.61953 -3.8302,2.21124 -7.4426,8.25186 -9.2903,15.5352 -0.3147,1.2403 -1.0415,5.36583 -1.6152,9.16783 -1.2897,8.54788 -2.2437,13.21116 -3.841,18.777 -5.2402,18.25842 -14.0493,26.63356 -30.1105,28.62716 -4.5819,0.56873 -15.6627,0.15289 -21.966,-0.82434 -3.5234,-0.54626 -6.651,-0.77853 -10.4261,-0.77428 -11.7934,0.0133 -17.9498,2.52543 -26.4565,10.79564 -2.0935,2.03539 -3.8865,3.70071 -3.9844,3.70071 -0.098,0 -0.6637,-0.6067 -1.2573,-1.34821 z m 106.8052,-91.77138 c 0.4805,-0.47986 -0.3521,-1.31427 -1.5507,-1.55398 -1.511,-0.3022 -3.7001,0.38353 -3.5593,1.11493 0.062,0.32475 0.5173,0.70975 1.0106,0.85557 1.0562,0.31217 3.6318,0.0505 4.0994,-0.41652 l 0,0 z"
         id="path3851"
         inkscape:connector-curvature="0" />
      <path
         style="fill:#00903e;fill-opacity:1;stroke:#00903e;stroke-opacity:1"
         d="m 89.19643,302.88344 -5.1547,-0.32732 9.4719,-6.70943 c 5.2095,-3.69019 9.806,-6.90803 10.2145,-7.15075 0.4085,-0.24272 2.5669,0.21673 4.7965,1.021 2.2297,0.80427 4.3016,1.46231 4.6043,1.46231 0.3027,0 5.2592,-3.93817 11.0145,-8.7515 l 10.4642,-8.7515 2.6786,0.35464 c 2.617,0.34649 2.85,0.23826 10.1512,-4.71499 l 7.4727,-5.06963 5.3206,5.29848 c 2.9263,2.91417 5.5692,5.29848 5.873,5.29848 0.3039,0 1.799,-1.2278 3.3226,-2.72844 l 2.7701,-2.72844 9.2102,4.28641 c 16.1001,7.49291 15.2422,7.36773 22.4277,3.27229 l 4.4419,-2.53166 2.4835,1.96521 c 1.3658,1.08086 2.5984,1.96521 2.7389,1.96521 0.1405,0 2.1728,-1.56673 4.5162,-3.48162 5.6896,-4.64911 6.6542,-5.05864 9.0261,-3.8321 1.0294,0.53234 5.555,3.83969 10.0569,7.34967 4.5019,3.50997 8.3759,6.38177 8.6089,6.38177 0.233,0 1.9452,-1.18144 3.8047,-2.62543 1.8596,-1.44399 3.6875,-2.62543 4.062,-2.62543 0.3746,0 7.2338,5.18522 15.2428,11.52272 l 14.5617,11.52273 -4.0819,0.36511 c -5.0401,0.45081 -182.9622,0.41544 -190.0996,-0.0378 l 0,0 z"
         id="path3849"
         inkscape:connector-curvature="0" />
      <path
         style="fill:#e27712;fill-opacity:1;stroke:#e27712;stroke-width:0.92699999;stroke-linecap:round;stroke-linejoin:round;stroke-miterlimit:4;stroke-opacity:1;stroke-dasharray:none;stroke-dashoffset:0"
         d="m 303.69843,248.97042 c -0.3452,-0.41603 -0.2984,-0.80248 0.2947,-2.42892 1.5725,-4.31277 4.4617,-7.24122 9.4449,-9.57312 2.5962,-1.21493 3.3845,-1.12031 3.5124,0.42164 0.2794,3.36989 -4.8311,9.35692 -9.468,11.09183 -2.5888,0.96856 -3.3085,1.06149 -3.784,0.48857 z"
         id="path3956-2"
         inkscape:connector-curvature="0" />
      <rect
         style="fill:#f5f000;fill-opacity:1;stroke:#e27712;stroke-width:0.52499998;stroke-linecap:round;stroke-linejoin:round;stroke-miterlimit:4;stroke-opacity:1;stroke-dasharray:none;stroke-dashoffset:0"
         id="rect4004"
         width="322.40826"
         height="43.716373"
         x="19.154148"
         y="33.648785" />
      <path
         style="fill:#000000"
         d="m 14.78933,29.899211 0.3124,146.249999 c 0.3089,141.81384 0.3682,146.55097 2.3126,155.9375 3.7428,18.0754 9.2975,31.67385 19.2187,47.03125 17.9199,27.73873 42.6104,47.63521 100.2187,80.78125 9.3506,5.37965 23.8989,13.82727 32.3126,18.78125 l 15.2812,9.03125 16.7188,-11.1875 c 9.1862,-6.15195 20.2879,-13.3909 24.6874,-16.09375 15.0272,-9.23081 40.9908,-25.85826 47.5,-30.40625 29.0888,-20.32279 49.4522,-42.14242 59.9063,-64.21875 5.1086,-10.78796 6.5134,-14.55547 10.3125,-27.625 l 2.2812,-7.78125 0.2813,-150.25 0.2813,-150.249999 -165.8126,0 -165.8124,0 z m 7.5624,7 158.5,0 158.5,0 0,19.5 0,19.5 -158.5,0 -158.5,0 0,-19.5 0,-19.5 z m 233,4 0,13.5 0,13.5 3,0 c 2.9706,0 3,-0.05555 3,-5.5 l 0,-5.5 7,0 7,0 0,5.5 c 0,5.4444 0.0308,5.5 3,5.5 l 3,0 0,-13.5 0,-13.5 -3,0 c -2.9695,0 -3,0.05556 -3,5.5 l 0,5.5 -7,0 -7,0 0,-5.5 c 0,-5.4444 -0.0297,-5.5 -3,-5.5 l -3,0 z m -20,0.9375 -10.25,0.28125 -10.25,0.28125 -0.2812,12.4375 c -0.1553,6.84449 -0.0572,13.03199 0.2188,13.75 0.3672,0.95826 3.2342,1.29245 10.7812,1.28125 10.8017,-0.01609 13.4821,-0.73271 12.4688,-3.375 -0.4973,-1.29479 -2.2563,-1.59375 -9.1563,-1.59375 l -8.5313,0 0,-4 0,-4 6.5,0 c 5.8339,0 6.5,-0.20512 6.5,-2 0,-1.79487 -0.6661,-2 -6.5,-2 l -6.5,0 0,-3 0,-3 7.5,0 c 7.3614,0 7.5,-0.04327 7.5,-2.53125 l 0,-2.53125 z m -63,0.0625 0,14.0625 0,14.0625 2.75,-0.3125 c 2.6359,-0.30325 2.7767,-0.57271 3.0626,-6.5625 l 0.2812,-6.25 6.9688,0 6.9374,0 0,6.5625 0,6.5625 2.75,-0.3125 2.75,-0.3125 0.2813,-13.75 0.2813,-13.75 -3.0313,0 c -3.0042,0 -3.0313,0.04417 -3.0313,5.5 l 0,5.5 -7,0 -7,0 0,-5.5 c 0,-5.4444 -0.0297,-5.5 -3,-5.5 l -3,0 z m -72.9374,0.375 c -4.1803,-0.03908 -8.3669,0.5797 -10.3438,1.875 -4.3856,2.87356 -5.9925,6.21805 -5.9375,12.375 0.0425,4.72311 0.5118,6.06273 2.9063,8.59375 1.5566,1.64631 3.7128,3.35451 4.8124,3.8125 3.2554,1.35519 13.3168,1.08324 17.0313,-0.46875 8.9456,-3.73772 10.0969,-18.53454 1.875,-24.09375 -1.9703,-1.3322 -6.1644,-2.05467 -10.3437,-2.09375 z m 35.9374,0.5625 0,6.09375 c 0,9.40353 -1.6433,14.66021 -5.0937,16.1875 -1.6038,0.70993 -2.9063,2.05685 -2.9063,3.03125 0,3.00143 6.1136,2.30906 9.3438,-1.0625 3.2662,-3.40919 4.6562,-7.90709 4.6562,-14.9375 l 0,-5.25 3.4688,0 3.4688,0 0.2812,11.25 0.2812,11.25 3,0 3,0 0,-13 0,-13 -9.75,-0.28125 -9.75,-0.28125 z m -87,0.0625 0,3.8125 c 0,4.41614 -2.5,13.66115 -4.5937,16.9375 -0.7908,1.2375 -2.3185,2.25 -3.4063,2.25 -1.5036,0 -2,0.68809 -2,2.84375 0,1.55833 0.3204,3.13333 0.6876,3.5 1.2491,1.2496 5.3914,0.66081 5.9687,-0.84375 0.4574,-1.19193 2.568,-1.5 10.3437,-1.5 7.7763,0 9.9176,0.30807 10.375,1.5 0.337,0.87687 1.8217,1.5 3.5938,1.5 2.7861,0 3.0312,-0.28467 3.0312,-3.4375 0,-2.79616 -0.4155,-3.48954 -2.25,-3.75 -2.1612,-0.30696 -2.2596,-0.75592 -2.5312,-11.5625 l -0.2812,-11.25 -9.4688,0 -9.4688,0 z m 250,0 0,12.84375 c 0,7.05833 0.3204,13.13333 0.6876,13.5 1.7122,1.71264 6.3124,0.09401 6.3124,-2.21875 0,-0.91955 2.9255,-4.58177 6.5,-8.125 l 6.5,-6.4375 0,8.15625 c 0,8.6759 0.6082,9.83611 4.5626,8.84375 2.4326,-0.61088 2.4374,-0.66192 2.4374,-13.59375 l 0,-12.96875 -3.5,0 c -2.175,0 -3.5,0.48633 -3.5,1.28125 0,0.70339 -2.9248,4.17553 -6.5,7.71875 l -6.5,6.4375 0,-7.71875 0,-7.71875 -3.5,0 -3.5,0 z m -199.0937,3.4375 c 4.2521,-0.10792 7.9352,2.28208 9.0313,6.25 1.2761,4.62385 -0.5973,10.34389 -3.9376,12.03125 -7.2007,3.63819 -15,-0.90025 -15,-8.71875 0,-4.73109 2.2618,-7.70224 6.9063,-9.09375 1.0181,-0.30503 2.0187,-0.44384 3,-0.46875 z m -41.4063,0.5625 3.5,0 0,9.5 0,9.5 -5.5937,0 c -4.9286,0 -5.5342,-0.21074 -4.9375,-1.75 1.3534,-3.49106 3.5312,-12.73331 3.5312,-14.96875 0,-1.95037 0.5195,-2.28125 3.5,-2.28125 z m 282.5,35 0,111.499999 0,111.5 -21.25,0 -21.25,0 -7,-4.65625 c -3.8436,-2.5657 -13.0745,-9.68542 -20.5,-15.8125 -7.4248,-6.12708 -14.0932,-11.50319 -14.8124,-11.9375 -0.7991,-0.48226 -2.8242,0.22783 -5.2188,1.8125 -2.1565,1.42708 -4.2347,2.59375 -4.625,2.59375 -0.3904,0 -4.7978,-3.08176 -9.7812,-6.84375 -4.9846,-3.76199 -9.5794,-7.13426 -10.2188,-7.5 -0.6394,-0.36574 -3.5348,1.36602 -6.4375,3.84375 -2.9027,2.47773 -5.5774,4.5 -5.9375,4.5 -0.3601,0 -1.4332,-0.89302 -2.4062,-1.96875 -1.7473,-1.93075 -1.8566,-1.91034 -8.4063,1.625 l -6.6563,3.59375 -12.3437,-6.0625 -12.375,-6.0625 -2.5937,2.4375 -2.625,2.40625 -5.2188,-5.125 -5.1875,-5.125 -8.625,5.84375 c -7.6394,5.18924 -8.8334,5.71262 -10.625,4.59375 -1.8183,-1.1356 -2.9122,-0.53601 -10.6875,6.03125 -14.2972,12.0759 -12.701,11.21726 -17.7188,9.8125 l -4.4062,-1.25 -13.2812,9.3125 c -7.3107,5.12182 -14.8228,10.35679 -16.6876,11.625 -3.3101,2.25214 -3.9576,2.3125 -27.7812,2.3125 -18.5928,0 -24.5121,-0.29718 -24.875,-1.25 -0.2616,-0.6875 -0.3601,-50.74999 -0.2188,-111.25 l 0.25,-109.999999 159.75,-0.25 159.75,-0.25 z m -224,17.0625 c -1.6117,0.05443 -2.216,0.50629 -2.7812,1.562499 -1.5903,2.97146 0.7344,7.12554 8.125,14.375 3.6446,3.575 6.6468,6.95 6.6562,7.5 0.0715,3.83404 2.8119,9.19581 7.0313,13.8125 2.7155,2.97125 4.6589,5.65408 4.3437,5.96875 -0.3143,0.31467 -0.2545,2.40867 0.125,4.65625 0.4955,2.92954 2.0583,5.60622 5.5313,9.40625 2.6646,2.91543 5.1691,6.6072 5.5625,8.21875 0.4222,1.72926 3.5204,5.63185 7.5625,9.53125 8.5614,8.25937 8.7774,10.05311 1.8437,15 -6.3854,4.55638 -10.4351,5.40625 -26,5.40625 -7.9746,0 -15.0534,0.36227 -15.75,0.8125 -2.339,1.51334 -0.9057,15.40608 2.1876,21.09375 3.3316,6.12798 7.8491,11.63256 10.8124,13.21875 2.0734,1.10942 2.7636,0.7058 8.25,-4.5625 8.6774,-8.33196 11.3353,-9.487 21.5,-9.5 4.6755,-0.006 13.0479,0.53133 18.5938,1.21875 33.6021,4.16497 49.5921,-11.12937 54.3125,-51.96875 1.6283,-14.08732 6.8153,-22.28125 14.0937,-22.28125 5.087,0 7.074,-2.72827 4.25,-5.875 -1.0575,-1.17918 -2.9606,-4.33376 -4.2187,-7 -2.943,-6.23706 -7.0312,-8.92491 -12.75,-8.34375 -5.4189,0.55069 -9.9824,4.03109 -15.375,11.71875 -4.3534,6.20617 -9.1355,9.96875 -12.6563,9.96875 -3.221,0 -5.7651,-2.90966 -10.4062,-11.90625 -5.0656,-9.81935 -9.6543,-13.51003 -18.1562,-14.59375 -13.4801,-1.71815 -42.8471,-10.52407 -52.0626,-15.625 -1.0293,-0.57004 -4.2246,-1.294409 -7.125,-1.593749 -1.1202,-0.11568 -2.0172,-0.19778 -2.75,-0.21875 -0.2741,-0.0079 -0.5192,-0.0078 -0.75,0 z m 1.7813,4.062499 c 1.0294,-0.0458 4.3684,0.85847 8.0625,2.21875 26.7193,9.83887 35.1919,12.35055 49.625,14.65625 9.8661,1.57611 12.457,3.58599 18.4688,14.4375 2.8693,5.18052 6.2741,10.13539 7.5937,11 6.5695,4.30451 17.6345,-1.11374 22.8437,-11.1875 2.0931,-4.04664 8.2241,-9.255 10.9063,-9.25 3.5419,0.006 8.6142,3.64746 9.3437,6.71875 0.3643,1.52956 1.3068,3.52961 2.0938,4.4375 1.6234,1.87282 1.1411,2.31677 -3.5,3.3125 -6.545,1.40419 -11.7523,10.31893 -13.3438,22.84375 -4.788,37.68986 -15.3653,50.87785 -40.9062,50.96875 -5.2489,0.0187 -12.6101,-0.5456 -16.3438,-1.25 -8.7672,-1.65426 -18.8237,-0.90103 -25.125,1.875 -2.7409,1.2077 -7.2798,4.41581 -10.0624,7.15625 l -5.0626,5 -3,-3.78125 c -4.0833,-5.13638 -7.4397,-12.41579 -7.3437,-15.90625 0.0437,-1.58447 -0.2148,-4.0341 -0.5625,-5.4375 l -0.625,-2.53125 14.3438,0.0312 c 11.9411,0.043 15.2303,-0.27068 19.75,-1.9375 6.9186,-2.55192 13.8775,-8.87554 14.7187,-13.34375 0.5872,-3.11956 0.1933,-3.74316 -6.4375,-10 -4.9446,-4.66575 -7.3656,-7.74824 -8.0312,-10.28125 -0.5933,-2.25429 -2.6685,-5.20199 -5.5,-7.8125 -4.1042,-3.78261 -6.8017,-9.26058 -5.3126,-10.75 0.299,-0.2984 4.3811,2.42477 9.0938,6.0625 4.7127,3.63773 8.7963,6.625 9.0625,6.625 0.2662,0 0.4687,-0.71124 0.4687,-1.5625 0,-2.00404 -3.4285,-5.17638 -14.5,-13.46875 -4.9494,-3.70763 -9.9871,-7.79421 -11.1874,-9.09375 -2.2044,-2.3849 -4.7177,-7.81362 -3.9688,-8.5625 0.2228,-0.22285 4.3106,2.56171 9.0625,6.1875 7.7598,5.92086 10.5937,7.12665 10.5937,4.5 0,-0.48122 -4.6123,-4.24795 -10.25,-8.375 -18.4467,-13.50461 -27.1429,-21.57581 -25.2812,-23.4375 0.047,-0.047 0.1654,-0.056 0.3125,-0.0625 z m 117.7187,27.875 c -1.375,0 -2.5,0.45 -2.5,1 0,0.55 1.125,1 2.5,1 1.375,0 2.5,-0.45 2.5,-1 0,-0.55 -1.125,-1 -2.5,-1 z m -81.0937,132.96875 5.5937,5.5 5.5626,5.53125 3.0312,-3.03125 3,-3.03125 11.625,5.53125 c 6.3954,3.03998 12.3144,5.53125 13.1562,5.53125 0.8424,0 3.7891,-1.32065 6.5313,-2.9375 l 5,-2.9375 2.5625,2.03125 2.5938,2.03125 3.5937,-2.84375 c 9.1587,-7.24761 6.954,-7.42187 18.5,1.53125 l 10.25,7.9375 3.5313,-2.90625 c 1.9413,-1.6006 3.9164,-2.90625 4.375,-2.90625 0.4575,0 6.7452,4.84832 14,10.78125 7.2536,5.93293 14.2963,11.55793 15.6562,12.5 2.3415,1.62205 -2.9149,1.71875 -99.4375,1.71875 -56.1846,0 -101.4929,-0.37431 -100.9687,-0.84375 0.522,-0.46838 5.5116,-4.05162 11.0937,-7.96875 l 10.1563,-7.125 4.5624,1.5625 4.5938,1.53125 9.2812,-7.75 c 5.1002,-4.27079 10.0203,-8.38561 10.9376,-9.15625 1.2257,-1.03079 2.1751,-1.13421 3.5937,-0.375 1.5909,0.85145 3.2976,0.0754 9.7813,-4.4375 l 7.8437,-5.46875 z m 141.5937,33.65625 c 0.126,0.12354 0.2504,0.25074 0.375,0.375 l 0.1563,0 c -0.1741,-0.12769 -0.3562,-0.24816 -0.5313,-0.375 z m 0.375,0.375 c -0.0837,-0.0625 -0.2455,-0.18952 -0.375,-0.28125 l 0,0.28125 0.375,0 z m -276.375,12.96875 41.2188,0.28125 41.2188,0.25 1.5312,4.0625 c 2.9577,7.85332 10.0692,18.3139 17.4062,25.59375 21.7251,21.55399 54.0247,29.87877 82.9376,21.40625 24.6578,-7.22588 44.1114,-23.72767 54.625,-46.34375 l 2.4062,-5.21875 39.8438,0 39.8124,0 0,3.25 c -0.009,1.7875 -0.6472,7.3 -1.4062,12.25 -7.0305,45.84888 -31.9964,76.58133 -93.5938,115.21875 -9.625,6.03741 -24.9248,15.62886 -34,21.3125 -9.0745,5.68365 -18.8239,12.05386 -21.6874,14.15625 -2.8646,2.10239 -5.7895,3.80265 -6.5,3.78125 -1.3557,-0.0408 -50.8424,-28.80064 -73.5,-42.71875 -31.0993,-19.10313 -57.3828,-42.69793 -70.5313,-63.28125 -10.4627,-16.37871 -17.4631,-37.09265 -19.1563,-56.71875 l -0.625,-7.28125 z m 161.5,0.0312 c 49.3098,0 72.5,0.32719 72.5,1.03125 0,0.56935 -0.7054,2.14435 -1.5937,3.5 l -1.625,2.46875 -69.375,0 -69.3437,0 -1.5313,-2.9375 c -0.8391,-1.62269 -1.5313,-3.19769 -1.5313,-3.5 0,-0.30231 32.625,-0.5625 72.5,-0.5625 z m 0,11 c 36.5752,0 66.5,0.23276 66.5,0.53125 0,0.29848 -1.8138,2.99848 -4.0312,6 l -4.0312,5.46875 -58.8438,0 -58.8438,0 -3.625,-5.25 c -1.9918,-2.89226 -3.625,-5.59226 -3.625,-6 0,-0.40774 29.9255,-0.75 66.5,-0.75 z m -120.25,13.09375 -0.5937,4.6875 c -2.3346,18.70883 -1.4151,34.97436 2.375,42.15625 2.3899,4.52882 7.0373,9.60299 13.7187,15 2.8877,2.33225 5.25,4.98453 5.25,5.875 0,0.89046 1.9173,3.56011 4.25,5.9375 l 4.25,4.3125 0.8438,-3.28125 c 0.4753,-1.80657 0.6661,-9.35625 0.4062,-16.78125 -0.4319,-12.37554 -0.7577,-14.31409 -4.0624,-23.40625 -5.1874,-14.26756 -15.3998,-28.87477 -22.8126,-32.65625 l -3.625,-1.84375 z m 239.8438,1 c -3.4501,-0.15089 -16.4293,13.6775 -21,22.75 -6.7831,13.46408 -10.5636,32.24571 -9,44.65625 0.4157,3.3 0.7976,6.7875 0.8438,7.75 0.0459,0.9625 0.4827,1.75 0.9687,1.75 1.5856,0 8.0937,-7.94336 8.0937,-9.875 0,-1.03516 1.222,-2.6963 2.6876,-3.65625 4.4174,-2.89481 11.3538,-9.66525 14.2812,-13.9375 5.6942,-8.31024 7.1665,-19.90615 5.0625,-39.90625 -0.513,-4.87699 -1.1239,-9.06143 -1.375,-9.3125 -0.14,-0.13997 -0.3325,-0.20869 -0.5625,-0.21875 z m -174.5938,1.9375 54.5,0.0312 54.5,0 -4,3.46875 -4,3.4375 -46.5,-0.0312 -46.5,0 -4,-3.46875 -4,-3.4375 z m -60.9062,4.75 c 2.9704,0.12169 12.1245,12.66746 16.5312,23.15625 3.0789,7.32674 6.5055,23.01115 5.5626,25.46875 -0.3351,0.87172 -1.2886,1.59375 -2.0938,1.59375 -2.1493,0 -2.9382,-3.69845 -1.5312,-7.09375 1.4635,-3.53466 0.5157,-5.05772 -1.4688,-2.34375 -1.3552,1.8534 -1.4329,1.82127 -2.0625,-0.6875 -0.3835,-1.52802 -0.0478,-4.08389 0.8437,-6.21875 1.1983,-2.86678 1.2708,-3.65625 0.25,-3.65625 -0.7123,0 -1.7695,1.00074 -2.3124,2.21875 -0.9139,2.04715 -1.0966,1.84879 -2.7813,-2.5625 -1.7006,-4.45298 -1.7341,-5.01046 -0.2187,-8.1875 0.974,-2.0435 1.2333,-3.64333 0.6562,-4 -0.5289,-0.32683 -1.4729,0.60016 -2.125,2.03125 l -1.1875,2.59375 -1.1875,-2.8125 c -0.6424,-1.53758 -0.9791,-4.58125 -0.75,-6.78125 0.3715,-3.56891 0.2619,-3.82661 -1,-2.28125 -1.2907,1.58079 -1.5044,1.38432 -2.5938,-2.25 -1.4054,-4.69281 -3.6523,-5.4827 -2.75,-0.96875 0.3388,1.69231 0.1755,3 -0.375,3 -1.1947,0 -1.3016,-7.98691 -0.125,-9.84375 0.1112,-0.17452 0.2609,-0.29594 0.4376,-0.34375 0.0824,-0.0224 0.1854,-0.0352 0.2812,-0.0312 z m 232,0.25 c 0.1321,-0.0321 0.2459,-0.0253 0.3438,0 0.1034,0.027 0.1576,0.0912 0.2187,0.1875 1.0901,1.71764 1.0928,11.0504 0,10.375 -0.4765,-0.29433 -0.6711,-1.67438 -0.4063,-3.0625 0.7309,-3.82 -1.4151,-3.04318 -2.75,1 -1.0102,3.06258 -1.3925,3.3691 -2.75,2.25 -1.3958,-1.15122 -1.5125,-0.83553 -0.9687,2.71875 0.387,2.52929 0.151,4.87418 -0.6875,6.40625 l -1.3438,2.4375 -0.6874,-2.1875 c -0.3799,-1.1951 -1.3376,-2.15625 -2.125,-2.15625 -1.8013,0 -1.7782,0.96275 0.0937,3.4375 1.9192,2.53747 1.8279,5.16597 -0.375,10.0625 l -1.8125,4 -0.6875,-2.75 c -0.3813,-1.5125 -1.1164,-2.75 -1.6563,-2.75 -1.26,0 -1.2335,0.97624 0.125,4.875 0.6077,1.74178 0.7972,4.31712 0.4376,5.75 -0.6214,2.47398 -0.7319,2.52704 -2.0313,0.75 -1.871,-2.55871 -2.8697,-1.23723 -1.4375,1.90625 0.6404,1.40552 0.887,3.74069 0.5312,5.15625 -0.6893,2.74787 -1.309,3.02462 -3.4687,1.65625 -3.37,-2.13508 2.3379,-23.88632 9.3125,-35.46875 4.4279,-7.35327 10.1434,-14.11264 12.125,-14.59375 z m -116.8438,6 c 21.5879,-0.0175 39.25,0.17367 39.25,0.4375 0,0.98832 -7.7856,4.40129 -16,7 -11.5824,3.66449 -27.9531,4.31715 -39.5,1.59375 -9.1808,-2.16555 -18.2427,-5.39834 -21.0624,-7.53125 -1.7165,-1.2982 2.5911,-1.4719 37.3124,-1.5 z m -74.8437,4.1875 c -0.2779,-0.008 -0.5117,0.0434 -0.6563,0.1875 -0.3127,0.31313 -0.7759,8.57883 -1.0312,18.34375 -0.8523,32.59314 3.6924,43.76566 23.625,58.21875 4.479,3.24777 6.1562,5.11122 6.1562,6.78125 0,1.45362 1.75,3.93577 4.75,6.75 2.613,2.45066 5.1565,4.45975 5.625,4.46875 0.4698,0.009 0.6662,-7.28125 0.4376,-16.21875 -0.3569,-13.90146 -0.8364,-17.69526 -3.2188,-26.25 -5.0076,-17.98143 -12.4178,-31.37408 -24.1562,-43.71875 -4.6339,-4.87244 -9.5863,-8.50488 -11.5313,-8.5625 z m -40.8437,1.28125 c 0.0952,0.007 0.2097,0.0541 0.3124,0.0937 0.7057,0.27061 2.2889,2.56773 3.5313,5.125 1.5611,3.21303 1.7793,4.25482 0.7187,3.375 -0.8433,-0.70026 -2.0163,-0.9697 -2.625,-0.59375 -0.6835,0.42279 0.1149,1.61035 2.125,3.09375 2.6422,1.94887 5.875,6.95474 5.875,9.09375 0,0.24931 -1.3812,-0.5213 -3.0624,-1.71875 -4.6447,-3.30699 -4.9883,-1.26541 -0.4376,2.59375 2.2002,1.86558 4.2695,3.39825 4.5938,3.40625 0.603,0.0152 2.9062,4.60269 2.9062,5.78125 0,0.35912 -0.5279,0.0975 -1.1874,-0.5625 -0.6606,-0.66 -1.8981,-1.1955 -2.75,-1.1875 -0.959,0.009 -0.1231,1.24975 2.1874,3.25 2.0562,1.77931 4.4115,4.9375 5.25,7 0.8396,2.0625 1.1468,3.75 0.6563,3.75 -0.4904,0 -4.0833,-2.93344 -7.9687,-6.53125 -5.4115,-5.00983 -7.5372,-7.79908 -9.0626,-11.875 -3.4541,-9.23335 -4.0326,-24.31321 -1.0624,-24.09375 z m 233,0.75 c 0.087,-5.8e-4 0.1703,0.004 0.25,0.0312 0.8097,0.28097 1.1519,3.28275 1.0624,9.4375 -0.1757,12.1402 -3.2925,19.3272 -11.2812,26.09375 -9.7749,8.2795 -9.3387,8.09851 -7.4375,2.96875 1.0367,-2.79709 2.9098,-5.31782 5,-6.75 1.8316,-1.25503 3.0483,-2.71751 2.7187,-3.25 -0.375,-0.60701 -1.0064,-0.55659 -1.6874,0.125 -1.8694,1.86892 -2.6914,1.19724 -1.5626,-1.28125 0.5957,-1.30608 3.0716,-4.03263 5.5,-6.0625 2.429,-2.02986 4.1553,-4.16333 3.8126,-4.71875 -0.3723,-0.60212 -1.5267,-0.14356 -2.8438,1.09375 -1.2149,1.14137 -2.5097,2.0625 -2.875,2.0625 -1.4921,0 1.8894,-5.71157 5.2188,-8.8125 3.0897,-2.87858 3.266,-3.26815 1.2812,-2.84375 -1.963,0.41973 -2.2095,0.16929 -1.6562,-1.6875 0.9947,-3.34281 3.1858,-6.39759 4.5,-6.40625 z m -41.0938,0.78125 c -2.0267,-0.11365 -6.9048,3.2901 -11.6875,8.3125 -11.0939,11.65 -17.5902,23.45201 -22.6875,41.1875 -2.7941,9.7218 -4.6132,27.3178 -3.8125,36.71875 0.2693,3.1625 0.5882,5.75 0.7187,5.75 0.1316,0 2.5496,-2.09273 5.375,-4.65625 3.3331,-3.02314 5.125,-5.48276 5.125,-6.96875 0,-1.59583 1.4039,-3.24276 4.5938,-5.4375 14.4156,-9.91821 21.661,-21.21295 23.5938,-36.78125 1.0355,-8.34701 0.639,-36.67344 -0.5313,-37.84375 -0.1653,-0.16529 -0.398,-0.26501 -0.6875,-0.28125 z m -148.1562,2.96875 c 1.9069,0 12.5956,12.87687 17.9062,21.59375 5.4156,8.8891 8.4857,16.0494 10.875,25.40625 1.8097,7.08728 3.2678,18.04012 2.3438,17.46875 -0.3937,-0.24294 -1.2991,0.27402 -2.0313,1.15625 -1.178,1.41937 -1.5348,1.17005 -3,-2.25 -1.4459,-3.37488 -1.4802,-4.30555 -0.2813,-7.25 1.6466,-4.04028 1.6555,-4.125 0.3438,-4.125 -0.5677,0 -1.39,0.99335 -1.8438,2.21875 -0.7946,2.14944 -0.8811,2.1285 -2.5312,-1.0625 -1.5787,-3.05281 -1.6079,-3.67824 -0.1562,-7.9375 1.0136,-2.97612 1.2489,-4.93798 0.625,-5.5625 -0.8955,-0.89488 -1.6367,0.31875 -3.1876,5.21875 -0.2365,0.74919 -1.5881,-1.56768 -3,-5.125 -2.1828,-5.50311 -2.3893,-6.80658 -1.3437,-8.84375 0.6759,-1.31687 1.5252,-3.41875 1.9063,-4.65625 0.9574,-3.11286 -1.1863,-2.90875 -2.625,0.25 -0.627,1.375 -1.4488,2.5 -1.8438,2.5 -1.527,0 -3.1967,-6.23425 -2.6875,-10.03125 0.5801,-4.32488 -0.8224,-6.38362 -2.0625,-3.03125 -0.6565,1.77464 -1.055,1.34853 -2.7188,-2.9375 -1.0688,-2.75565 -2.5074,-5 -3.2187,-5 -1.0309,0 -1.0156,0.70759 0.125,3.4375 1.2825,3.06926 1.2751,3.47002 -0.1875,4.03125 -1.3827,0.53061 -1.2975,0.82772 0.625,1.84375 2.2941,1.2124 7.8419,11.6875 6.1875,11.6875 -0.4923,0 -1.1909,-0.45 -1.5313,-1 -0.7575,-1.22647 -3.5,-1.32269 -3.5,-0.125 0,0.47692 1.7691,2.03371 3.9376,3.46875 2.5767,1.70558 4.6784,4.22314 6.0312,7.28125 1.1382,2.57305 1.9248,4.82519 1.75,5 -0.1748,0.1748 -2.0231,-1.0748 -4.0938,-2.78125 -2.2594,-1.86285 -4.1101,-2.73364 -4.6562,-2.1875 -0.5461,0.54613 1.3093,2.63558 4.6562,5.25 5.0906,3.97538 9.3656,9.22749 9.375,11.5 0.003,0.49774 -0.807,0.16024 -1.8124,-0.75 -1.9835,-1.79462 -4.5395,-2.26044 -4,-0.71875 0.1828,0.5245 2.0577,2.25939 4.1874,3.84375 2.5607,1.90433 4.6524,4.72352 6.1563,8.28125 2.4992,5.91186 4.1516,7.248 4.6563,3.8125 0.1793,-1.22612 0.8755,-2.39858 1.5624,-2.625 0.9212,-0.30334 1.25,1.43669 1.25,6.65625 0,3.89583 -0.1162,7.09375 -0.2812,7.09375 -1.1518,0 -2.7088,-2.81685 -2.7188,-4.9375 -0.008,-1.77827 -1.015,-3.20002 -3.3124,-4.6875 -12.5,-8.09138 -21.5166,-18.64955 -24.3438,-28.5 -1.9039,-6.63387 -3.1988,-42.875 -1.5312,-42.875 z m 144.6874,2.5 0.7813,7 c 1.1244,9.95128 -0.0404,27.51897 -2.3125,34.875 -2.3785,7.70071 -6.597,14.19147 -12.1562,18.6875 -5.7127,4.61937 -11.8126,9.0335 -11.8126,8.5625 0,-0.21001 1.1384,-2.88884 2.5,-5.96875 1.6711,-3.77755 3.6002,-6.34061 5.9688,-7.875 3.3088,-2.14357 4.4924,-3.78125 2.75,-3.78125 -0.4276,0 -1.7285,0.67473 -2.9062,1.5 -2.1421,1.50001 -2.146,1.49928 -0.6563,-2.25 1.019,-2.56475 3.4017,-5.14549 7.5625,-8.1875 3.3464,-2.44663 5.5593,-4.62613 4.9062,-4.84375 -0.6523,-0.21762 -2.7232,0.76076 -4.5937,2.1875 -1.8706,1.42675 -3.6255,2.59375 -3.9063,2.59375 -1.0012,0 3.7123,-9.50951 5.2813,-10.65625 4.8179,-3.52118 5.542,-4.23925 4.9375,-4.84375 -0.3645,-0.36453 -1.5858,-0.1686 -2.7188,0.4375 l -2.0624,1.09375 2.0312,-4.75 c 1.1139,-2.62404 3.0092,-5.59061 4.2188,-6.59375 1.4455,-1.19985 1.7889,-2.01959 1,-2.34375 -0.8671,-0.35584 -0.9317,-1.18762 -0.2188,-3.0625 0.5713,-1.50274 0.6047,-2.98856 0.0938,-3.5 -0.5118,-0.51143 -1.6214,1.10252 -2.6563,3.8125 -1.447,3.78877 -1.9687,4.37175 -2.7187,3.03125 -1.4801,-2.64405 -2.939,-0.79479 -2.25,2.875 0.6313,3.3658 -1.0397,10.5 -2.4688,10.5 -0.4191,0 -1.2802,-1.125 -1.9062,-2.5 -0.627,-1.375 -1.5946,-2.5 -2.1563,-2.5 -1.4112,0 -1.2996,0.52371 1,5.03125 l 2,3.9375 -2.8437,6.25 -2.8438,6.28125 -0.75,-3.25 c -0.4123,-1.81192 -1.388,-3.25 -2.1875,-3.25 -1.2301,0 -1.2046,0.51641 0.0937,3.625 1.8415,4.40685 1.8611,7.09107 0.0938,10.28125 l -1.3438,2.4375 -0.6874,-2.1875 c -0.3798,-1.1951 -1.3543,-2.15625 -2.1563,-2.15625 -1.2408,0 -1.2023,0.46877 0.1875,3.15625 1.3975,2.70256 1.4597,3.71326 0.375,7 -1.4061,4.26053 -1.6404,4.39881 -4.3125,2.375 -1.8181,-1.37701 -1.8167,-1.67685 0.125,-11.3125 3.6914,-18.31769 12.3171,-35.31176 23.7187,-46.71875 l 5,-5 z m -70.5312,9.5 c -0.4512,0 -2.8288,3.0375 -5.2812,6.75 -19.7799,29.93502 -21.9796,59.51595 -6.0626,81.375 2.7895,3.83003 3.375,5.52155 3.375,9.75 l 0,5.125 7.5,0 7.5,0 0,-5.5625 c 0,-5.02132 0.3961,-6.032 3.9376,-10.25 7.5148,-8.95208 12.0759,-21.31201 12.0624,-32.65625 -0.008,-7.63756 -3.0775,-20.56365 -6.875,-28.9375 -3.2664,-7.20519 -14.8785,-25.59375 -16.1562,-25.59375 z m 0.0312,7.21875 c 3.2817,0.66116 15.3329,24.14299 17.5,34.375 2.0213,9.53838 1.8742,19.01674 -0.4062,26.34375 -1.9134,6.14778 -8.4613,17.27813 -12.125,20.59375 -1.3736,1.24311 -1.9688,3.07965 -1.9688,6.125 l 0,4.34375 -4,0 -4,0 0,-4.625 c 0,-3.70208 -0.6878,-5.54466 -3.5,-9.375 -1.9277,-2.62677 -4.7402,-7.43434 -6.25,-10.65625 -2.5507,-5.44584 -2.75,-6.7585 -2.75,-18.84375 0,-11.58129 0.298,-13.87306 2.75,-21 2.9943,-8.69959 12.5264,-26.63982 14.4688,-27.25 0.087,-0.0273 0.1759,-0.0526 0.2812,-0.0312 z m -1.0624,4.03125 c -0.6773,0.14897 -0.9376,1.83896 -0.9376,5.875 0,6.01259 -0.0675,6.22885 -1.5624,4.09375 -0.8631,-1.23158 -1.9897,-2.00319 -2.5,-1.6875 -0.5109,0.31569 0.1895,2.22881 1.5624,4.25 1.8663,2.74562 2.4988,4.93849 2.4688,8.6875 l -0.0312,5.03125 -2.9376,-3.4375 c -4.3188,-5.05227 -4.8997,-2.87355 -0.625,2.34375 2.7071,3.30301 3.625,5.35876 3.625,8.0625 l 0,3.65625 -2.4062,-2.8125 c -3.634,-4.22213 -4.2809,-1.98446 -0.6875,2.375 2.6312,3.19203 3.0937,4.58884 3.0937,9.125 l 0,5.375 -5.1562,-6.09375 c -4.6775,-5.53114 -6.8438,-7.25269 -6.8438,-5.4375 0,0.36444 2.7002,3.91675 6,7.90625 5.3234,6.43536 5.9968,7.7489 5.9688,11.59375 -0.0342,4.65794 -0.2352,4.59109 -4.3438,-1.59375 -0.7132,-1.07456 -1.5371,-1.48385 -1.875,-0.9375 -0.3342,0.54064 0.9231,2.92492 2.8126,5.3125 2.1938,2.7722 3.4374,5.41884 3.4374,7.34375 0,2.95398 -0.0335,2.99797 -2,1.21875 -3.1075,-2.8127 -3.6684,-0.83156 -0.6562,2.3125 2.0333,2.12236 2.6562,3.81354 2.6562,7 0,2.3074 0.4502,4.1875 1,4.1875 0.5505,0 1,-2.19917 1,-4.875 0,-3.35095 0.6229,-5.655 2,-7.40625 2.6185,-3.32784 2.5886,-5.98845 -0.0312,-2.84375 -1.9568,2.34888 -1.9688,2.34223 -1.9688,0.1875 0,-1.1911 1.8016,-4.82446 4,-8.0625 2.1993,-3.23804 3.613,-6.13625 3.125,-6.4375 -0.4873,-0.30124 -2.2945,1.58054 -4,4.1875 l -3.0937,4.75 0,-3.71875 c -0.008,-2.66097 1.2813,-5.8454 4.5625,-11.25 5.6772,-9.35112 5.37,-12.12122 -0.375,-3.40625 l -4.1875,6.375 0,-5.3125 c -0.007,-4.37485 0.6142,-6.26606 3.5625,-10.875 2.2382,-3.49881 3.2165,-5.93972 2.625,-6.53125 -0.5915,-0.59153 -1.8533,0.50965 -3.3438,2.90625 l -2.375,3.8125 -0.3124,-2.78125 c -0.205,-1.78076 0.9514,-5.12517 3.2187,-9.25 3.8102,-6.93177 2.7122,-9.44678 -1.1875,-2.71875 l -2.1562,3.75 -0.0313,-3.21875 c -0.0126,-1.77279 0.952,-5.2411 2.1563,-7.71875 2.2862,-4.7061 1.7273,-7.51963 -0.8126,-4.0625 -1.3469,1.83386 -1.4313,1.54301 -1.1562,-3.40625 0.2024,-3.64271 -0.124,-5.51538 -0.9688,-5.8125 -0.1141,-0.0402 -0.2163,-0.0525 -0.3124,-0.0312 z m -94.6563,12.21875 c 0.5435,-0.0815 0.7187,1.3226 0.7187,4.84375 0,3.135 -0.1954,5.6875 -0.4374,5.6875 -1.8509,0 -2.4471,-8.52172 -0.7188,-10.25 0.1658,-0.16585 0.3121,-0.26245 0.4375,-0.28125 z m 188.5,1 c 0.0698,-0.0218 0.1416,-0.0168 0.2187,0.0312 0.5505,0.33992 1,2.58992 1,5 0,2.41008 -0.4495,4.66008 -1,5 -0.6208,0.38401 -1,-1.50929 -1,-5 0,-3.05437 0.2925,-4.87839 0.7813,-5.03125 z m -51.8437,31.09375 c 0.1797,-0.0309 0.4031,-0.003 0.6562,0.0937 0.9484,0.36393 1.3853,1.35144 1.0938,2.46875 -0.2685,1.02415 -0.1278,1.875 0.3124,1.875 0.441,0 0.4181,1.63276 -0.0312,3.625 -1.5656,6.94175 -2.9688,6.2681 -2.9688,-1.40625 0,-4.97547 0.1558,-6.52243 0.9376,-6.65625 z"
         id="path2991"
         inkscape:connector-curvature="0" />
      <path
         style="fill:#e27712;fill-opacity:1;stroke:#e27712;stroke-width:1.227;stroke-linecap:round;stroke-linejoin:round;stroke-miterlimit:4;stroke-opacity:1;stroke-dasharray:none;stroke-dashoffset:0"
         d="m 291.12293,266.76815 c -2.0147,-0.78918 -4.81,-3.0049 -6.0325,-4.78179 -1.1599,-1.68587 -2.4931,-5.09825 -2.4931,-6.38128 0,-0.7694 0.1247,-0.92299 0.7493,-0.92299 1.8652,0 7.0741,3.1264 9.2106,5.52825 1.5801,1.77618 3.1414,4.97607 3.0055,6.15977 -0.091,0.79491 -0.2168,0.87362 -1.4946,0.93654 -0.8067,0.0397 -2.0489,-0.18738 -2.9452,-0.5385 z"
         id="path3958-4"
         inkscape:connector-curvature="0" />
      <path
         style="fill:#e27712;fill-opacity:1;stroke:#e27712;stroke-width:0.92699999;stroke-linecap:round;stroke-linejoin:round;stroke-miterlimit:4;stroke-opacity:1;stroke-dasharray:none;stroke-dashoffset:0"
         d="m 69.00073,247.73663 c -0.3452,-0.41604 -0.2984,-0.80249 0.2947,-2.42893 1.5725,-4.31276 4.4617,-7.24121 9.4449,-9.57312 2.5962,-1.21493 3.3845,-1.1203 3.5124,0.42164 0.2794,3.3699 -4.8311,9.35693 -9.468,11.09183 -2.5888,0.96856 -3.3085,1.06149 -3.784,0.48858 z"
         id="path3956"
         inkscape:connector-curvature="0" />
      <path
         style="fill:#e27712;fill-opacity:1;stroke:#e27712;stroke-width:1.227;stroke-linecap:round;stroke-linejoin:round;stroke-miterlimit:4;stroke-opacity:1;stroke-dasharray:none;stroke-dashoffset:0"
         d="m 56.42523,265.53435 c -2.0147,-0.78917 -4.81,-3.0049 -6.0325,-4.78178 -1.1599,-1.68588 -2.4931,-5.09826 -2.4931,-6.38129 0,-0.76939 0.1247,-0.92299 0.7493,-0.92299 1.8652,0 7.0741,3.12641 9.2106,5.52826 1.5801,1.77618 3.1414,4.97606 3.0055,6.15977 -0.091,0.7949 -0.2168,0.87362 -1.4946,0.93653 -0.8067,0.0397 -2.0489,-0.18738 -2.9452,-0.5385 z"
         id="path3958"
         inkscape:connector-curvature="0" />
      <path
         style="fill:#e27712;fill-opacity:1;stroke:#e27712;stroke-width:0.354;stroke-linecap:round;stroke-linejoin:round;stroke-miterlimit:4;stroke-opacity:1;stroke-dasharray:none;stroke-dashoffset:0"
         d="m 70.29673,266.16886 c -0.4983,-0.12026 -0.6483,-0.39624 -0.7317,-1.34598 -0.113,-1.28775 0.1155,-2.27256 0.8486,-3.65832 1.4957,-2.82686 4.5372,-5.79112 7.4364,-7.24748 1.2882,-0.64707 3.4648,-1.21921 4.735,-1.24463 0.4583,-0.009 0.5342,0.004 0.6066,0.10274 0.6691,0.91473 -2.7884,7.72414 -5.2511,10.34209 -0.5163,0.54882 -0.9615,0.86168 -1.8694,1.31381 -1.7524,0.87262 -3.558,1.49076 -4.987,1.70729 -0.3048,0.0462 -0.5672,0.0814 -0.5833,0.0783 -0.016,-0.003 -0.1079,-0.0246 -0.2041,-0.0478 z"
         id="path3960"
         inkscape:connector-curvature="0" />
      <path
         style="fill:#e27712;fill-opacity:1;stroke:#e27712;stroke-width:0.366;stroke-linecap:round;stroke-linejoin:round;stroke-miterlimit:4;stroke-opacity:1;stroke-dasharray:none;stroke-dashoffset:0"
         d="m 58.36883,230.15063 c -0.5685,-0.12044 -1.2634,-0.35081 -2.3331,-0.7735 -2.2425,-0.88609 -3.5204,-1.72458 -5.2225,-3.42675 -2.1354,-2.13548 -3.4861,-4.40759 -4.0236,-6.76819 -0.1964,-0.86286 -0.228,-1.70907 -0.074,-1.98984 0.3304,-0.60332 1.405,-0.47594 3.8343,0.45449 1.9341,0.74074 3.2297,1.5542 4.9737,3.1228 0.6036,0.54288 1.6518,1.65519 2.2418,2.3788 1.0975,1.34612 2.0456,2.95204 2.4422,4.1367 0.4412,1.31755 0.2897,2.49526 -0.3607,2.80522 -0.2889,0.1377 -0.9795,0.16586 -1.4779,0.0603 z"
         id="path3962"
         inkscape:connector-curvature="0" />
      <path
         style="fill:#e27712;fill-opacity:1;stroke:#e27712;stroke-width:0.52499998;stroke-linecap:round;stroke-linejoin:round;stroke-miterlimit:4;stroke-opacity:1;stroke-dasharray:none;stroke-dashoffset:0"
         d="m 64.58063,216.88887 c -0.767,-0.4817 -2.5718,-3.47008 -3.1424,-5.20349 -0.6426,-1.95173 -0.644,-3.79919 0,-6.07309 0.3309,-1.17701 0.6625,-1.9873 2.5055,-6.12288 l 0.6921,-1.55304 0.5593,0.7073 c 2.1333,2.69805 2.3972,3.11263 2.7419,4.30759 0.3065,1.06275 0.3696,1.80756 0.3325,3.9239 -0.053,3.03812 -0.3415,5.19108 -0.9457,7.06656 -0.3295,1.02257 -0.6809,1.66567 -1.1927,2.18292 -0.7601,0.7681 -1.1962,0.98372 -1.5457,0.76423 z"
         id="path3966"
         inkscape:connector-curvature="0" />
      <path
         style="fill:#e27712;fill-opacity:1;stroke:#e27712;stroke-width:0.421;stroke-linecap:round;stroke-linejoin:round;stroke-miterlimit:4;stroke-opacity:1;stroke-dasharray:none;stroke-dashoffset:0"
         d="m 69.77173,229.26159 c -0.4534,-0.10425 -0.5943,-0.16933 -0.8226,-0.3797 -0.3436,-0.31675 -0.4618,-0.70247 -0.4062,-1.32542 0.181,-2.02668 1.5095,-4.34033 3.8225,-6.65703 1.921,-1.92401 3.8843,-3.24375 5.9513,-4.00047 1.0872,-0.39805 2.2952,-0.58328 2.8381,-0.4352 0.7612,0.20763 0.9284,1.24032 0.4401,2.71842 -0.5701,1.72584 -1.6867,3.56615 -3.3088,5.45359 -1.5976,1.85877 -3.9834,3.53523 -6.0536,4.25374 -0.9204,0.31941 -1.9879,0.48082 -2.4608,0.37207 z"
         id="path3964"
         inkscape:connector-curvature="0" />
      <path
         style="fill:#000000"
         d="m 23.93813,110.74897 c -0.083,0.0227 -0.1673,0.0398 -0.25,0.0625 0.061,0.20086 0.1413,0.39545 0.1874,0.59375 0.022,0.0915 0.043,0.18941 0.063,0.28125 z m 36.5624,49.625 0,17.34375 c 0,16.07502 1.6836,17.4788 -2,19.15625 -1.9899,1.8038 -2,1.74802 -2,-16.75 l 0,-18.5625 -2.25,0.5625 c -1.4615,1.13692 -2.4527,1.82329 -3.2168,2.54678 -1.8139,1.71754 -1.1155,4.13024 -1.5332,22.42197 -0.4011,17.56477 1.3133,24.62082 -1.25,22.03125 -0.6896,0.19051 -1.2257,-0.0581 -1.5817,-0.75463 -0.6872,-1.34492 -0.9407,-11.84683 -1.0433,-25.74537 -0.1185,-15.56567 -0.7282,-16.93404 -5,-11.15625 l -2.2812,3.0625 0.6875,39.1875 c 0.7861,44.09027 0.7758,44.04343 8.4063,51.375 2.2986,2.20881 5.9538,4.59607 8.125,5.3125 l 3.9374,1.28125 0,12.84375 0,12.84375 6,0 6,0 0,-12.78125 0,-12.8125 3.3438,-1.1875 c 4.9805,-1.80096 11.1428,-7.60524 13.5312,-12.6875 2.0525,-4.36626 2.125,-5.80875 2.125,-44.15625 l 0,-39.6875 -2.5312,-3.34375 c -1.403,-1.83941 -2.9892,-3.34375 -3.5,-3.34375 -0.5332,0 -1.0324,8.84547 -1.1875,20.75 -0.2455,18.82961 -0.4419,20.75708 -2.0313,21.0625 -1.6253,0.31247 -1.75,-1.2821 -1.75,-22.625 l 0,-20.09981 c 0.3428,-2.42746 -1.0555,-3.26961 -3.125,-3.99394 -1.7316,-0.60381 -3.5715,-1.27346 -3.5,-1.09375 0.052,0.13067 0.086,0.62085 0.1086,1.41355 0.079,2.77454 0.017,9.25522 0.091,16.99893 0.1111,11.59484 0.1415,17.17216 -0.5337,17.97029 -0.2665,0.31511 -0.7407,-0.15945 -1.5413,-1.38277 -0.8009,-0.52107 -1.2204,-1.24231 -1.4289,-2.6059 -0.3731,-2.4396 -0.071,-6.93525 -0.071,-16.0191 l 0,-17.375 -4.5,0 z m 1.0021,1.52086 3.1584,-0.0958 3.6061,0.19166 -0.1916,16.2854 -0.096,16.38124 2.2709,2.81042 c 1.5109,1.6006 3.0861,2.90625 3.5,2.90625 0.4148,0 0.6901,-8.32518 0.75,-18.5 0.04,-6.72489 -0.6522,-13.50606 -0.4365,-16.7553 0.1097,-1.65264 0.2445,-1.94751 1.2491,-1.7447 1.1928,0.24079 1.9681,0.59165 2.4658,1.57699 1.1565,2.29006 0.8127,8.00736 0.7216,23.73551 -0.1186,20.47699 0.1797,22.85511 1.5938,22.3125 0.8699,-0.33385 2.2199,-0.625 3,-0.625 1.1786,0 1.4062,-3.49679 1.4062,-20.71875 l 0.3539,-20.51651 1.7087,1.82901 c 1.6657,1.5879 2.4292,2.49439 2.6975,5.62937 0.3925,4.58664 -0.4576,12.77761 -0.4254,36.02175 0.054,39.09544 -0.4796,42.14886 -2.3034,45.72388 -2.1739,4.26123 -8.2867,9.53495 -12.9375,11.15625 l -3.0938,1.0625 0,12.40625 0,12.40625 -4.5,0 -4.5,0 0,-12.25 0,-12.28125 -5.25,-1.84375 c -5.3982,-1.91562 -10.5981,-6.49885 -13.2812,-11.6875 -1.2131,-2.34583 -1.8347,-10.4671 -2.5083,-43.25208 -0.5353,-26.05522 -1.1771,-34.5807 -0.355,-38.51176 0.2844,-1.36006 0.7899,-2.15869 1.6133,-2.92366 1.8208,-3.20668 2.3547,-3.46758 2.1562,6.40625 0.3561,4.20832 0.625,12.72794 0.625,18.9375 0,6.20956 0.3379,11.48734 0.75,11.71875 0.4125,0.23142 1.9876,0.70098 3.5,1.0625 l 2.75,0.65625 -0.575,-23.88331 c -0.3113,-12.93174 0.2074,-21.90218 0.4376,-21.90218 0.23,0 2.28,-1.79314 3.15,-2.12699 1.4074,-0.54009 0.9874,1.73118 0.9874,18.28748 0,10.23385 0.3651,18.59375 0.8126,18.59375 0.447,0 2.0962,-1.34041 3.6562,-2.96875 l 2.0772,-3.03332 -0.4313,-16.44582 z m 3.9042,34.38539 c -0.7204,0.0266 -1.4975,0.96761 -2.6875,2.71875 -3.612,5.31556 -4.0049,11.18851 -1.125,16.3125 1.2724,2.26403 2.7945,3.94007 3.375,3.75 0.5805,-0.19007 2.0439,-1.82981 3.2812,-3.65625 2.6889,-3.96791 2.9417,-9.75067 0.625,-14.3125 -1.6932,-3.33557 -2.5424,-4.84675 -3.4687,-4.8125 z m -0.7813,1.59375 1.9688,2.5 c 1.5854,1.99721 1.941,3.66346 1.6562,8.28125 -0.2173,3.53634 -0.9988,6.40515 -1.9687,7.375 -1.447,1.44699 -1.6961,1.37798 -3.0937,-0.78125 -2.7934,-4.31539 -2.9866,-7.4074 -0.7188,-12.53125 z m 19.9063,15.59375 -4.5625,1.375 c -8.3707,2.5192 -13.4688,7.84351 -13.4688,14.09375 0,3.10458 2.7405,3.22383 8.625,0.375 4.285,-2.07407 7.2864,-6.54373 8.7813,-13.125 z m -38.8437,1.0625 c -0.1277,-0.004 -0.241,0.016 -0.3438,0.0312 -0.6854,0.10175 -0.8244,0.6757 -0.8125,1.96875 0.035,3.72182 3.5784,10.53288 6.4375,12.40625 1.4349,0.94015 4.0388,2.04733 5.8125,2.46875 5.1598,1.22591 5.7385,1.09578 5.6875,-1.28125 -0.1307,-6.12601 -7.4053,-13.43941 -15.2188,-15.3125 -0.6783,-0.16266 -1.1806,-0.27035 -1.5624,-0.28125 z m 35.0937,1.84375 c 2.3168,0 0.9389,4.43861 -2.625,8.46875 -3.6454,4.12222 -9.6563,6.01068 -9.6563,3.03125 0,-4.61374 7.3587,-11.5 12.2813,-11.5 z m -33.4687,0.40625 c 0.71,-0.0808 1.9827,0.31799 4,1.125 4.1466,1.65916 9.1874,7.59052 9.1874,10.78125 0,2.01844 -1.3979,2.09472 -5.5624,0.28125 -3.5002,-1.52398 -7.1757,-5.74829 -8.0626,-9.28125 -0.4715,-1.87888 -0.4758,-2.80232 0.4376,-2.90625 z m 35.4687,15.59375 c -0.9546,0 -4.0505,1.16468 -6.875,2.59375 -5.5793,2.82288 -9.4063,8.06739 -9.4063,12.90625 0,2.60448 0.1664,2.68768 3.75,2.03125 5.8587,-1.07301 9.5561,-3.67773 12,-8.5 2.7423,-5.40929 2.9645,-9.03125 0.5313,-9.03125 z m -38.25,0.21875 0.625,2.65625 c 1.6742,7.22086 4.2489,11.16726 8.5625,13.125 6.1594,2.79545 8.7812,2.65455 8.7812,-0.53125 0,-6.0957 -6.0066,-12.34393 -13.7187,-14.21875 z m 36.875,2.0625 c 0.8943,-0.0714 1.0937,0.43474 1.0937,1.8125 0,3.16178 -4.6671,8.89062 -8.5937,10.53125 -5.8234,2.43315 -6.5586,1.65184 -3.875,-3.96875 1.5353,-3.21544 6.1776,-6.92255 10.2187,-8.125 0.4653,-0.1383 0.8582,-0.2262 1.1563,-0.25 z m -33.9375,0.84375 c 0.8213,-0.0165 2.4169,0.27887 4.0938,0.78125 3.1376,0.94005 4.7296,2.2639 7,5.84375 1.6173,2.55095 2.9374,5.02643 2.9374,5.46875 0,1.4869 -4.4501,0.78668 -7.6874,-1.1875 -3.0924,-1.88539 -8.0319,-9.62455 -6.875,-10.78125 0.077,-0.0775 0.2574,-0.11951 0.5312,-0.125 z m 37.1562,15.0625 c -1.9013,-0.0261 -7.5915,2.1179 -10.8437,4.21875 -3.5803,2.31275 -6.2813,7.00929 -6.2813,10.96875 0,2.36352 0.266,2.53427 3.25,1.96875 7.1193,-1.34899 11.0956,-4.76259 13.3438,-11.53125 0.899,-2.70664 1.3875,-5.17456 1.0938,-5.46875 -0.099,-0.099 -0.2905,-0.15252 -0.5626,-0.15625 z m -37.0624,0.8125 c -2.5598,0 -2.6199,2.16907 -0.1563,7.59375 1.7136,3.77324 5.399,7.29915 9.0937,8.6875 0.8253,0.31 2.7988,0.61285 4.375,0.65625 2.4988,0.0688 2.8068,-0.22651 2.2813,-2.1875 -0.3317,-1.2375 -0.615,-2.76095 -0.625,-3.40625 -0.042,-3.63002 -10.2124,-11.34375 -14.9687,-11.34375 z m 35.1562,1.25 c 0.244,0.006 0.3931,0.0185 0.4688,0.0937 0.9429,0.94291 -3.79,9.70753 -6.0313,11.15625 -1.1747,0.75924 -3.3936,1.69062 -4.9063,2.0625 -2.4624,0.60551 -2.75,0.39857 -2.75,-1.90625 0,-3.42952 5.2324,-9.2377 9.625,-10.6875 1.4511,-0.47876 2.8617,-0.73823 3.5938,-0.71875 z m -34.2812,0.53125 c 0.7561,-0.0714 2.0711,0.44627 4,1.46875 4.5661,2.42047 7.4344,5.59309 8.5624,9.5 0.5414,1.87354 0.2734,2.253 -1.6562,2.25 -3.7476,-0.006 -8.6608,-3.62878 -10.3438,-7.65625 -1.5448,-3.69731 -1.8232,-5.4435 -0.5624,-5.5625 z m 56.3124,48.875 c 0.1183,0.13031 0.2269,0.21457 0.3438,0.34375 0.1524,-0.0314 0.3407,-0.0562 0.4688,-0.0937 0.2495,-0.0735 0.4765,-0.15401 0.7187,-0.25 -0.4834,-0.005 -1.063,0.005 -1.5313,0 z"
         id="path2991-4"
         inkscape:connector-curvature="0"
         sodipodi:nodetypes="ccccccscsccsscscccccccccccccccsccsscsccsssscsscccccccccsssssscssccsssccccccccccssccscccsscssccccsccsccscccccccccscccccccscccssssccscccsssccsccssccsssccssccsccscsscsccsscsccsscccscscsccccccccc" />
      <path
         style="fill:#f5f000;fill-opacity:1;stroke:#f5f000;stroke-opacity:1"
         d="m 296.32793,284.01086 0,-12.22038 -2.5577,-0.84004 c -4.9542,-1.62716 -8.6518,-3.8461 -11.8367,-7.1033 -2.0304,-2.07641 -4.1171,-5.34914 -4.4809,-7.02748 -0.9285,-4.28438 -1.3593,-13.56276 -2.2369,-48.16946 -0.6476,-25.5375 -0.6303,-30.95157 0.1037,-32.6167 0.5146,-1.16736 2.4026,-3.81082 2.7216,-3.81082 0.4233,0 0.579,3.16851 0.9218,18.7563 0.3642,16.55818 0.5134,19.22153 1.1107,19.8188 0.4162,0.4162 4.8402,1.72769 5.828,1.72769 0.5036,0 0.5216,-0.6418 0.2889,-10.30821 -0.3041,-12.6276 -0.3094,-33.57283 -0.01,-34.6884 0.2752,-1.02179 3.2534,-3.05562 3.6158,-2.46926 0.1285,0.20796 0.3295,7.86877 0.4466,17.02401 0.2125,16.61867 0.3501,19.28334 1.0071,19.5012 0.5213,0.17285 3.6387,-2.80226 4.7485,-4.53172 l 0.9714,-1.51382 -0.1692,-10.03068 c -0.093,-5.51688 -0.2422,-12.786 -0.3315,-16.1536 l -0.1623,-6.12293 3.3145,0 3.3144,0 -0.1838,16.43369 -0.1839,16.4337 2.6923,2.78974 c 1.4808,1.53435 2.8504,2.78879 3.0437,2.78763 0.1932,-0.001 0.4666,-0.316 0.6075,-0.69965 0.1408,-0.38365 0.2617,-8.6496 0.2686,-18.36877 l 0.013,-17.67122 0.792,-0.0923 c 1.1424,-0.13308 2.3868,0.98305 2.8,2.51154 0.242,0.89539 0.374,7.72824 0.4232,21.91739 0.075,21.66989 0.1534,22.94159 1.4095,22.94159 1.5958,0 3.7454,-0.70614 4.0912,-1.34397 0.4056,-0.7481 0.8064,-13.37163 0.8483,-26.71297 0.014,-4.43331 0.1153,-9.21833 0.2255,-10.63338 l 0.2003,-2.57282 1.0643,1.02271 c 0.5854,0.5625 1.4361,1.65051 1.8905,2.41781 l 0.8262,1.3951 -0.097,18.44627 c -0.1509,28.79627 -0.6301,57.2683 -1.0068,59.81856 -0.6441,4.36072 -1.8487,6.71269 -5.1569,10.06832 -3.2337,3.27998 -6.0916,5.15617 -10.1708,6.67689 l -2.1702,0.80902 -0.081,12.31213 -0.081,12.31213 -4.3368,0 -4.3367,0 0,-12.22039 z m 1.3697,-14.62963 c 0.5783,-0.22192 0.6243,-1.27187 0.1569,-3.58593 -0.7238,-3.58394 -0.9099,-3.96837 -2.9884,-6.17163 -3.5828,-3.79804 -9.3179,-7.10544 -12.3208,-7.10544 -1.1631,0 -1.4826,0.13504 -1.928,0.8147 -0.505,0.77084 -0.505,0.9243 1e-4,2.85008 0.9077,3.46094 2.4513,6.24794 4.7829,8.6357 2.4098,2.46789 4.4137,3.75666 6.7062,4.31302 1.714,0.41595 4.7986,0.55361 5.5911,0.2495 z m 10.571,-1.07073 c 4.4524,-1.36445 7.7712,-4.19146 9.6226,-8.19674 1.1214,-2.42584 2.3083,-6.40205 2.3083,-7.73275 l 0,-0.87272 -1.6276,0.2133 c -3.5818,0.46941 -9.7611,3.47656 -12.2566,5.96472 -2.8337,2.82531 -4.6962,7.90327 -3.966,10.8128 0.2074,0.82628 0.2517,0.84101 1.9831,0.66004 0.974,-0.1018 2.7453,-0.4837 3.9362,-0.84865 l 0,0 z m -11.4684,-17.35036 c 1.4807,-1.63624 0.034,-6.77005 -2.8649,-10.16268 -1.648,-1.92905 -5.1775,-4.36631 -7.6774,-5.30166 -2.1514,-0.80493 -6.6962,-1.96718 -6.8991,-1.76431 -0.2341,0.23412 0.8139,4.35153 1.8128,7.12196 1.063,2.94853 2.3364,4.99913 4.1322,6.65441 1.5637,1.44136 2.573,1.99995 5.7537,3.18435 2.8559,1.06344 4.9349,1.16044 5.7427,0.26793 z m 9.9417,-0.15788 c 4.8192,-1.23013 8.3817,-4.04298 10.4078,-8.2177 1.5538,-3.20162 2.1198,-5.02027 2.1198,-6.81117 0,-1.29639 -0.1205,-1.61108 -0.7832,-2.04527 -0.7369,-0.48283 -0.9021,-0.47408 -2.7975,0.14814 -4.1824,1.37298 -7.2719,3.14911 -9.7778,5.62107 -3.1516,3.10898 -4.421,5.6311 -4.5798,9.09925 -0.083,1.81812 0,2.52038 0.31,2.73171 0.4991,0.33631 2.5517,0.12462 5.1007,-0.52603 l 0,0 z m -9.6389,-19.83825 c 0,-3.2217 -1.2885,-5.68825 -4.7911,-9.17196 -2.2078,-2.19584 -3.2031,-2.92559 -5.6118,-4.11468 -2.9762,-1.46921 -5.9703,-2.31872 -6.9064,-1.95951 -0.4013,0.15399 -0.5155,0.59947 -0.5104,1.99074 0.01,2.19023 1.0407,5.25102 2.7304,8.09228 2.1948,3.69049 4.0145,5.09534 8.4238,6.50315 2.8181,0.89976 3.0447,0.94026 4.9603,0.88609 l 1.7052,-0.0482 0,-2.17789 z m 10.8558,0.47075 c 4.4069,-1.75063 6.8027,-3.97604 8.839,-8.21065 1.0058,-2.09155 2.9452,-8.46834 2.6617,-8.75179 -0.2356,-0.23564 -7.9147,2.50739 -9.8837,3.53051 -2.8562,1.48421 -5.9951,4.5548 -7.209,7.05219 -0.9141,1.88059 -1.3407,4.67522 -0.9507,6.22887 0.4157,1.6565 2.6243,1.70743 6.5427,0.15087 l 0,0 z m -5.8492,-13.41336 c 2.0422,-2.64768 2.9368,-4.95396 3.1369,-8.08733 0.2032,-3.18233 -0.2785,-5.29558 -1.9887,-8.72438 -2.2032,-4.41697 -3.0992,-4.81675 -5.0377,-2.24766 -2.817,3.73348 -3.9205,7.16131 -3.6775,11.4232 0.1311,2.29922 0.3313,3.10758 1.2476,5.03713 1.3112,2.76093 3.1463,4.92462 4.0636,4.79119 0.3553,-0.0517 1.3516,-1.01994 2.2558,-2.19215 z"
         id="path3950"
         inkscape:connector-curvature="0" />
      <path
         style="fill:#e27712;fill-opacity:1;stroke:#e27712;stroke-width:0.354;stroke-linecap:round;stroke-linejoin:round;stroke-miterlimit:4;stroke-opacity:1;stroke-dasharray:none;stroke-dashoffset:0"
         d="m 304.99443,267.40265 c -0.4983,-0.12025 -0.6483,-0.39623 -0.7317,-1.34597 -0.113,-1.28776 0.1155,-2.27256 0.8486,-3.65833 1.4957,-2.82686 4.5372,-5.79111 7.4364,-7.24748 1.2882,-0.64706 3.4648,-1.21921 4.735,-1.24462 0.4583,-0.009 0.5342,0.004 0.6066,0.10273 0.6691,0.91474 -2.7884,7.72414 -5.2511,10.3421 -0.5163,0.54882 -0.9615,0.86168 -1.8694,1.31381 -1.7524,0.87262 -3.558,1.49076 -4.987,1.70729 -0.3048,0.0462 -0.5672,0.0814 -0.5833,0.0783 -0.016,-0.003 -0.1079,-0.0246 -0.2041,-0.0478 z"
         id="path3960-5"
         inkscape:connector-curvature="0" />
      <path
         style="fill:#000000"
         d="m 258.73683,111.90127 c -0.083,0.0227 -0.1673,0.0398 -0.25,0.0625 0.061,0.20086 0.1413,0.39545 0.1874,0.59375 0.022,0.0915 0.043,0.18941 0.063,0.28125 z m 36.5624,49.625 0,17.34375 c 0,16.07502 1.6836,17.4788 -2,19.15625 -1.9899,1.8038 -2,1.74802 -2,-16.75 l 0,-18.5625 -2.25,0.5625 c -1.4615,1.13692 -2.4527,1.82329 -3.2168,2.54678 -1.8139,1.71754 -1.1155,4.13024 -1.5332,22.42197 -0.4011,17.56477 1.3133,24.62082 -1.25,22.03126 -0.6896,0.1905 -1.2257,-0.0581 -1.5817,-0.75463 -0.6872,-1.34493 -0.9407,-11.84684 -1.0433,-25.74538 -0.1185,-15.56567 -0.7282,-16.93404 -5,-11.15625 l -2.2812,3.0625 0.6875,39.1875 c 0.7861,44.09027 0.7758,44.04343 8.4063,51.375 2.2986,2.20881 5.9538,4.59607 8.125,5.3125 l 3.9374,1.28125 0,12.84375 0,12.84375 6,0 6,0 0,-12.78125 0,-12.8125 3.3438,-1.1875 c 4.9805,-1.80096 11.1428,-7.60524 13.5312,-12.6875 2.0525,-4.36626 2.125,-5.80875 2.125,-44.15625 l 0,-39.6875 -2.5312,-3.34375 c -1.403,-1.83941 -2.9892,-3.34375 -3.5,-3.34375 -0.5332,0 -1.0324,8.84547 -1.1875,20.75 -0.2455,18.82961 -0.4419,20.75709 -2.0313,21.06251 -1.6253,0.31247 -1.75,-1.28211 -1.75,-22.62501 l 0,-20.09981 c 0.3428,-2.42746 -1.0555,-3.26961 -3.125,-3.99394 -1.7316,-0.60381 -3.5715,-1.27346 -3.5,-1.09375 0.052,0.13067 0.086,0.62085 0.1086,1.41355 0.079,2.77454 0.017,9.25522 0.091,16.99893 0.1111,11.59484 0.1415,17.17216 -0.5337,17.9703 -0.2665,0.3151 -0.7407,-0.15946 -1.5413,-1.38278 -0.8009,-0.52106 -1.2204,-1.24231 -1.4289,-2.6059 -0.3731,-2.4396 -0.071,-6.93525 -0.071,-16.0191 l 0,-17.375 -4.5,0 z m 1.0021,1.52086 3.1584,-0.0958 3.6061,0.19166 -0.1916,16.2854 -0.096,16.38124 2.2709,2.81042 c 1.5109,1.60061 3.0861,2.90626 3.5,2.90626 0.4148,0 0.6901,-8.32519 0.75,-18.50001 0.04,-6.72489 -0.6522,-13.50606 -0.4365,-16.7553 0.1097,-1.65264 0.2445,-1.94751 1.2491,-1.7447 1.1928,0.24079 1.9681,0.59165 2.4658,1.57699 1.1565,2.29006 0.8127,8.00736 0.7216,23.73551 -0.1186,20.47699 0.1797,22.85511 1.5938,22.3125 0.8699,-0.33384 2.2199,-0.62499 3,-0.62499 1.1786,0 1.4062,-3.4968 1.4062,-20.71876 l 0.3539,-20.51651 1.7087,1.82901 c 1.6657,1.5879 2.4292,2.49439 2.6975,5.62937 0.3925,4.58664 -0.4576,12.77761 -0.4254,36.02175 0.054,39.09544 -0.4796,42.14886 -2.3034,45.72388 -2.1739,4.26123 -8.2867,9.53495 -12.9375,11.15625 l -3.0938,1.0625 0,12.40625 0,12.40625 -4.5,0 -4.5,0 0,-12.25 0,-12.28125 -5.25,-1.84375 c -5.3982,-1.91562 -10.5981,-6.49885 -13.2812,-11.6875 -1.2131,-2.34583 -1.8347,-10.4671 -2.5083,-43.25207 -0.5353,-26.05523 -1.1771,-34.58071 -0.355,-38.51177 0.2844,-1.36006 0.7899,-2.15869 1.6133,-2.92366 1.8208,-3.20668 2.3547,-3.46758 2.1562,6.40625 0.3561,4.20832 0.625,12.72794 0.625,18.9375 0,6.20957 0.3379,11.48735 0.75,11.71876 0.4125,0.23142 1.9876,0.70098 3.5,1.06249 l 2.75,0.65625 -0.575,-23.88331 c -0.3113,-12.93174 0.2074,-21.90218 0.4376,-21.90218 0.23,0 2.28,-1.79314 3.15,-2.12699 1.4074,-0.54009 0.9874,1.73118 0.9874,18.28748 0,10.23385 0.3651,18.59376 0.8126,18.59376 0.447,0 2.0962,-1.34042 3.6562,-2.96876 l 2.0772,-3.03332 -0.4313,-16.44582 z m 3.9042,34.38539 c -0.7204,0.0266 -1.4975,0.96761 -2.6875,2.71875 -3.612,5.31557 -4.0049,11.18852 -1.125,16.3125 1.2724,2.26403 2.7945,3.94007 3.375,3.75 0.5805,-0.19007 2.0439,-1.82981 3.2812,-3.65625 2.6889,-3.96791 2.9417,-9.75066 0.625,-14.31249 -1.6932,-3.33558 -2.5424,-4.84676 -3.4687,-4.81251 z m -0.7813,1.59375 1.9688,2.50001 c 1.5854,1.99721 1.941,3.66346 1.6562,8.28125 -0.2173,3.53633 -0.9988,6.40514 -1.9687,7.37499 -1.447,1.44699 -1.6961,1.37798 -3.0937,-0.78125 -2.7934,-4.31539 -2.9866,-7.40739 -0.7188,-12.53124 z m 19.9063,15.59375 -4.5625,1.375 c -8.3707,2.5192 -13.4688,7.84351 -13.4688,14.09375 0,3.10458 2.7405,3.22383 8.625,0.375 4.285,-2.07407 7.2864,-6.54373 8.7813,-13.125 z m -38.8437,1.0625 c -0.1277,-0.004 -0.241,0.016 -0.3438,0.0312 -0.6854,0.10175 -0.8244,0.6757 -0.8125,1.96875 0.035,3.72182 3.5784,10.53288 6.4375,12.40625 1.4349,0.94015 4.0388,2.04733 5.8125,2.46875 5.1598,1.22591 5.7385,1.09578 5.6875,-1.28125 -0.1307,-6.12601 -7.4053,-13.43941 -15.2188,-15.3125 -0.6783,-0.16265 -1.1806,-0.27035 -1.5624,-0.28125 z m 35.0937,1.84375 c 2.3168,0 0.9389,4.43861 -2.625,8.46875 -3.6454,4.12222 -9.6563,6.01068 -9.6563,3.03125 0,-4.61374 7.3587,-11.5 12.2813,-11.5 z m -33.4687,0.40625 c 0.71,-0.0808 1.9827,0.318 4,1.125 4.1466,1.65916 9.1874,7.59052 9.1874,10.78125 0,2.01844 -1.3979,2.09472 -5.5624,0.28125 -3.5002,-1.52398 -7.1757,-5.74829 -8.0626,-9.28125 -0.4715,-1.87888 -0.4758,-2.80232 0.4376,-2.90625 z m 35.4687,15.59375 c -0.9546,0 -4.0505,1.16468 -6.875,2.59375 -5.5793,2.82288 -9.4063,8.06739 -9.4063,12.90625 0,2.60448 0.1664,2.68768 3.75,2.03125 5.8587,-1.07301 9.5561,-3.67773 12,-8.5 2.7423,-5.40929 2.9645,-9.03125 0.5313,-9.03125 z m -38.25,0.21875 0.625,2.65625 c 1.6742,7.22086 4.2489,11.16726 8.5625,13.125 6.1594,2.79545 8.7812,2.65455 8.7812,-0.53125 0,-6.0957 -6.0066,-12.34393 -13.7187,-14.21875 z m 36.875,2.0625 c 0.8943,-0.0714 1.0937,0.43475 1.0937,1.8125 0,3.16178 -4.6671,8.89062 -8.5937,10.53125 -5.8234,2.43315 -6.5586,1.65184 -3.875,-3.96875 1.5353,-3.21544 6.1776,-6.92255 10.2187,-8.125 0.4653,-0.1383 0.8582,-0.22619 1.1563,-0.25 z m -33.9375,0.84375 c 0.8213,-0.0165 2.4169,0.27887 4.0938,0.78125 3.1376,0.94005 4.7296,2.2639 7,5.84375 1.6173,2.55095 2.9374,5.02643 2.9374,5.46875 0,1.4869 -4.4501,0.78668 -7.6874,-1.1875 -3.0924,-1.88539 -8.0319,-9.62455 -6.875,-10.78125 0.077,-0.0775 0.2574,-0.11951 0.5312,-0.125 z m 37.1562,15.0625 c -1.9013,-0.0261 -7.5915,2.1179 -10.8437,4.21875 -3.5803,2.31275 -6.2813,7.00929 -6.2813,10.96875 0,2.36352 0.266,2.53427 3.25,1.96875 7.1193,-1.34899 11.0956,-4.76259 13.3438,-11.53125 0.899,-2.70664 1.3875,-5.17456 1.0938,-5.46875 -0.099,-0.099 -0.2905,-0.15252 -0.5626,-0.15625 z m -37.0624,0.8125 c -2.5598,0 -2.6199,2.16907 -0.1563,7.59375 1.7136,3.77324 5.399,7.29915 9.0937,8.6875 0.8253,0.31 2.7988,0.61285 4.375,0.65625 2.4988,0.0688 2.8068,-0.22651 2.2813,-2.1875 -0.3317,-1.2375 -0.615,-2.76095 -0.625,-3.40625 -0.042,-3.63002 -10.2124,-11.34375 -14.9687,-11.34375 z m 35.1562,1.25 c 0.244,0.006 0.3931,0.0185 0.4688,0.0937 0.9429,0.94291 -3.79,9.70753 -6.0313,11.15625 -1.1747,0.75924 -3.3936,1.69062 -4.9063,2.0625 -2.4624,0.60551 -2.75,0.39857 -2.75,-1.90625 0,-3.42952 5.2324,-9.2377 9.625,-10.6875 1.4511,-0.47876 2.8617,-0.73823 3.5938,-0.71875 z m -34.2812,0.53125 c 0.7561,-0.0714 2.0711,0.44627 4,1.46875 4.5661,2.42047 7.4344,5.59309 8.5624,9.5 0.5414,1.87354 0.2734,2.253 -1.6562,2.25 -3.7476,-0.006 -8.6608,-3.62878 -10.3438,-7.65625 -1.5448,-3.69731 -1.8232,-5.4435 -0.5624,-5.5625 z m 56.3124,48.875 c 0.1183,0.13031 0.2269,0.21457 0.3438,0.34375 0.1524,-0.0314 0.3407,-0.0562 0.4688,-0.0937 0.2495,-0.0735 0.4765,-0.15401 0.7187,-0.25 -0.4834,-0.005 -1.063,0.005 -1.5313,0 z"
         id="path2991-4-8"
         inkscape:connector-curvature="0"
         sodipodi:nodetypes="ccccccscsccsscscccccccccccccccsccsscsccsssscsscccccccccsssssscssccsssccccccccccssccscccsscssccccsccsccscccccccccscccccccscccssssccscccsssccsccssccsssccssccsccscsscsccsscsccsscccscscsccccccccc" />
      <path
         style="fill:#e27712;fill-opacity:1;stroke:#e27712;stroke-width:0.366;stroke-linecap:round;stroke-linejoin:round;stroke-miterlimit:4;stroke-opacity:1;stroke-dasharray:none;stroke-dashoffset:0"
         d="m 293.06653,231.38443 c -0.5685,-0.12044 -1.2634,-0.35081 -2.3331,-0.77351 -2.2425,-0.88608 -3.5204,-1.72457 -5.2225,-3.42675 -2.1354,-2.13547 -3.4861,-4.40758 -4.0236,-6.76818 -0.1964,-0.86286 -0.228,-1.70908 -0.074,-1.98984 0.3304,-0.60332 1.405,-0.47594 3.8343,0.45449 1.9341,0.74074 3.2297,1.55419 4.9737,3.1228 0.6036,0.54287 1.6518,1.65518 2.2418,2.37879 1.0975,1.34613 2.0456,2.95204 2.4422,4.13671 0.4412,1.31755 0.2897,2.49525 -0.3607,2.80522 -0.2889,0.1377 -0.9795,0.16586 -1.4779,0.0603 z"
         id="path3962-5"
         inkscape:connector-curvature="0" />
      <path
         style="fill:#e27712;fill-opacity:1;stroke:#e27712;stroke-width:0.52499998;stroke-linecap:round;stroke-linejoin:round;stroke-miterlimit:4;stroke-opacity:1;stroke-dasharray:none;stroke-dashoffset:0"
         d="m 299.27833,218.12266 c -0.767,-0.48169 -2.5718,-3.47007 -3.1424,-5.20349 -0.6426,-1.95173 -0.644,-3.79919 0,-6.07308 0.3309,-1.17702 0.6625,-1.98731 2.5055,-6.12288 l 0.6921,-1.55304 0.5593,0.70729 c 2.1333,2.69805 2.3972,3.11264 2.7419,4.3076 0.3065,1.06274 0.3696,1.80755 0.3325,3.9239 -0.053,3.03812 -0.3415,5.19107 -0.9457,7.06656 -0.3295,1.02257 -0.6809,1.66566 -1.1927,2.18292 -0.7601,0.7681 -1.1962,0.98372 -1.5457,0.76422 z"
         id="path3966-1"
         inkscape:connector-curvature="0" />
      <path
         style="fill:#e27712;fill-opacity:1;stroke:#e27712;stroke-width:0.421;stroke-linecap:round;stroke-linejoin:round;stroke-miterlimit:4;stroke-opacity:1;stroke-dasharray:none;stroke-dashoffset:0"
         d="m 304.46943,230.49539 c -0.4534,-0.10426 -0.5943,-0.16933 -0.8226,-0.3797 -0.3436,-0.31675 -0.4618,-0.70248 -0.4062,-1.32542 0.181,-2.02668 1.5095,-4.34033 3.8225,-6.65704 1.921,-1.924 3.8843,-3.24374 5.9513,-4.00047 1.0872,-0.39804 2.2952,-0.58327 2.8381,-0.43519 0.7612,0.20763 0.9284,1.24032 0.4401,2.71842 -0.5701,1.72583 -1.6867,3.56614 -3.3088,5.45358 -1.5976,1.85878 -3.9834,3.53523 -6.0536,4.25375 -0.9204,0.31941 -1.9879,0.48081 -2.4608,0.37207 z"
         id="path3964-7"
         inkscape:connector-curvature="0" />
    </g>
  </g>
</svg>
