<?xml version="1.0" encoding="UTF-8" standalone="no"?>
<!-- Created with Inkscape (http://www.inkscape.org/) -->

<svg
   xmlns:dc="http://purl.org/dc/elements/1.1/"
   xmlns:cc="http://creativecommons.org/ns#"
   xmlns:rdf="http://www.w3.org/1999/02/22-rdf-syntax-ns#"
   xmlns:svg="http://www.w3.org/2000/svg"
   xmlns="http://www.w3.org/2000/svg"
   xmlns:sodipodi="http://sodipodi.sourceforge.net/DTD/sodipodi-0.dtd"
   xmlns:inkscape="http://www.inkscape.org/namespaces/inkscape"
   id="svg2"
   version="1.1"
   inkscape:version="0.48.2 r9819"
   width="432"
   height="216"
   sodipodi:docname="Mk-nova.gif">
  <metadata
     id="metadata8">
    <rdf:RDF>
      <cc:Work
         rdf:about="">
        <dc:format>image/svg+xml</dc:format>
        <dc:type
           rdf:resource="http://purl.org/dc/dcmitype/StillImage" />
        <dc:title></dc:title>
      </cc:Work>
    </rdf:RDF>
  </metadata>
  <defs
     id="defs6" />
  <sodipodi:namedview
     pagecolor="#ffffff"
     bordercolor="#666666"
     borderopacity="1"
     objecttolerance="10"
     gridtolerance="10"
     guidetolerance="10"
     inkscape:pageopacity="0"
     inkscape:pageshadow="2"
     inkscape:window-width="1366"
     inkscape:window-height="706"
     id="namedview4"
     showgrid="false"
     inkscape:zoom="0.51405247"
     inkscape:cx="66.587015"
     inkscape:cy="116.10364"
     inkscape:window-x="-8"
     inkscape:window-y="-8"
     inkscape:window-maximized="1"
     inkscape:current-layer="svg2">
    <sodipodi:guide
       position="0,0"
       orientation="0,432"
       id="guide2987" />
    <sodipodi:guide
       position="432,0"
       orientation="-216,0"
       id="guide2989" />
    <sodipodi:guide
       position="432,216"
       orientation="0,-432"
       id="guide2991" />
    <sodipodi:guide
       position="0,216"
       orientation="216,0"
       id="guide2993" />
  </sodipodi:namedview>
  <text
     xml:space="preserve"
     style="font-size:49.8631134px;font-style:normal;font-weight:normal;line-height:125%;letter-spacing:0px;word-spacing:0px;fill:#000000;fill-opacity:1;stroke:none;font-family:Sans"
     x="44.153912"
     y="116.9389"
     id="text4197"
     sodipodi:linespacing="125%"
     transform="scale(1.0388148,0.96263548)"><tspan
       sodipodi:role="line"
       id="tspan4199"
       x="44.153912"
       y="116.9389"
       style="font-size:24.9315567px;fill:#ffffff;font-family:Times New Roman;-inkscape-font-specification:Times New Roman" /></text>
  <g
     id="g4213">
    <rect
       y="0"
       x="0"
       height="216"
       width="432"
       id="rect4189"
       style="fill:#ce1829;fill-opacity:1;stroke:#f7de10;stroke-width:0.59299999000000003;stroke-linecap:round;stroke-linejoin:round;stroke-miterlimit:4;stroke-opacity:1;stroke-dasharray:none;stroke-dashoffset:0" />
    <path
       style="fill:#f7de10;fill-opacity:1"
       sodipodi:nodetypes="csccc"
       inkscape:connector-curvature="0"
       d="m 98.238987,40.371658 c -0.485522,1.778431 2.692163,6.73933 5.497413,6.727464 2.80525,-0.01186 6.40915,-3.469993 6.89466,-5.248422 l 0.27217,-36.6688782 z"
       id="path3875" />
    <path
       style="fill:#f7de10;fill-opacity:1"
       sodipodi:nodetypes="csccc"
       inkscape:connector-curvature="0"
       d="m 89.43759,41.667077 c 0.107096,1.840401 3.176809,5.071299 5.831746,4.165276 2.654939,-0.906018 6.796794,-2.894084 6.689684,-4.73448 L 88.305468,3.6268715 z"
       id="path3875-2" />
    <path
       style="fill:#f7de10;fill-opacity:1"
       sodipodi:nodetypes="csccc"
       inkscape:connector-curvature="0"
       d="m 81.857751,45.849092 c 0.895858,1.611206 4.196955,-1.025443 6.194827,-2.994726 1.997878,-1.969278 5.968916,-0.254257 5.073056,-1.865454 L 61.313601,4.0521074 z"
       id="path3875-4" />
    <path
       style="fill:#f7de10;fill-opacity:1"
       sodipodi:nodetypes="csccc"
       inkscape:connector-curvature="0"
       d="m 80.501785,56.223798 c 1.40191,1.197162 4.042871,-1.544873 5.227694,-4.08766 1.184828,-2.542784 1.116754,-5.295155 -0.285159,-6.492305 L 16.617753,6.898098 z"
       id="path3875-5" />
    <path
       style="fill:#f7de10;fill-opacity:1"
       sodipodi:nodetypes="csccc"
       inkscape:connector-curvature="0"
       d="m 76.191783,63.249653 c 1.747021,0.588613 4.446173,-3.3608 4.598249,-6.16195 0.152083,-2.801149 -0.955465,-4.619313 -2.702485,-5.207914 L 16.175773,46.093475 z"
       id="path3875-51" />
    <path
       style="fill:#f7de10;fill-opacity:1"
       sodipodi:nodetypes="csccc"
       inkscape:connector-curvature="0"
       d="m 79.469302,72.491775 c 1.843019,0.04276 2.2338,-3.169454 1.546446,-5.889217 -0.687348,-2.719765 -4.30213,-4.774644 -6.145144,-4.817397 L 15.671273,79.413343 z"
       id="path3875-7" />
    <path
       style="fill:#f7de10;fill-opacity:1"
       sodipodi:nodetypes="csccc"
       inkscape:connector-curvature="0"
       d="m 85.227855,80.054402 c 1.695734,-0.72323 0.716578,-5.531775 -1.033983,-7.72383 -1.750585,-2.192036 -4.869628,-2.718715 -6.565347,-1.995479 L 16.953576,117.24306 z"
       id="path3875-1" />
    <path
       style="fill:#f7de10;fill-opacity:1"
       sodipodi:nodetypes="csccc"
       inkscape:connector-curvature="0"
       d="m 95.409402,81.288927 c 1.322477,-1.28437 -2.986646,-1.566924 -5.408086,-2.983324 -2.421455,-1.41637 -5.558545,-1.780666 -6.881012,-0.496286 L 15.194136,186.83738 z"
       id="path3875-15" />
    <path
       style="fill:#f7de10;fill-opacity:1"
       sodipodi:nodetypes="csccc"
       inkscape:connector-curvature="0"
       d="m 103.29056,81.743357 c 0.72313,-1.695772 -3.360195,-0.290487 -6.140936,-0.660655 -2.780749,-0.370132 -5.814768,0.506668 -6.537877,2.202441 L 70.116108,210.09607 z"
       id="path3875-15-2" />
    <path
       style="fill:#f7de10;fill-opacity:1"
       sodipodi:nodetypes="csccc"
       inkscape:connector-curvature="0"
       d="m 110.6225,80.619505 c 0.0184,-1.843427 -3.21512,1.018907 -5.92554,1.742234 -2.71041,0.723364 -5.177086,2.695561 -5.195414,4.538981 l 29.647094,124.98853 z"
       id="path3875-15-2-7" />
    <path
       style="fill:#f7de10;fill-opacity:1"
       sodipodi:nodetypes="csccc"
       inkscape:connector-curvature="0"
       d="m 115.46521,73.705823 c -0.70361,-1.703959 -1.30045,3.140014 -3.51256,4.86518 -2.21206,1.725184 -4.6572,3.55908 -3.95357,5.26302 L 196.11633,207.7789 z"
       id="path3875-15-2-6" />
    <path
       style="fill:#f7de10;fill-opacity:1"
       sodipodi:nodetypes="csccc"
       inkscape:connector-curvature="0"
       d="m 120.37034,69.685448 c -1.28247,-1.32432 -4.40778,2.354053 -5.82766,4.773453 -1.41986,2.41942 -3.36452,1.458712 -2.08204,2.783022 L 317.51891,209.62016 z"
       id="path3875-15-2-1" />
    <path
       style="fill:#f7de10;fill-opacity:1"
       sodipodi:nodetypes="csccc"
       inkscape:connector-curvature="0"
       d="m 119.82365,59.906467 c -1.70396,-0.703627 -0.25192,2.732964 -0.59016,5.517768 -0.3382,2.784813 -5.41495,5.178228 -3.71099,5.881838 l 268.86586,48.980907 z"
       id="path3875-15-2-4" />
    <path
       style="fill:#f7de10;fill-opacity:1"
       sodipodi:nodetypes="csccc"
       inkscape:connector-curvature="0"
       d="m 120.64185,52.887337 c -1.84322,-0.03295 -8.14663,5.114158 -7.4448,7.830217 0.70186,2.716055 6.12136,2.992067 7.96458,3.024996 L 381.90581,7.666634 z"
       id="path3875-15-2-2" />
    <path
       style="fill:#f7de10;fill-opacity:1"
       sodipodi:nodetypes="csccc"
       inkscape:connector-curvature="0"
       d="m 108.08921,39.507351 c -1.07064,1.500748 -1.98911,4.051019 0.64712,5.010128 2.63622,0.959115 7.65059,4.785437 8.72125,3.284691 L 139.13234,3.588735 z"
       id="path3875-3" />
    <path
       style="fill:#f7de10;fill-opacity:1"
       sodipodi:nodetypes="csccc"
       inkscape:connector-curvature="0"
       d="m 113.73937,46.546147 c -1.49306,1.081354 -4.31094,5.773628 -2.11772,7.522773 2.19318,1.749149 10.9548,-0.43367 12.44785,-1.515028 L 187.74708,4.3499359 z"
       id="path3875-22" />
    <path
       transform="matrix(0.7039295,0,0,0.90054673,27.259217,1.6664805)"
       d="m 137.57751,67.21022 a 33.939827,25.757904 0 1 1 -67.879649,0 33.939827,25.757904 0 1 1 67.879649,0 z"
       sodipodi:ry="25.757904"
       sodipodi:rx="33.939827"
       sodipodi:cy="67.21022"
       sodipodi:cx="103.63769"
       id="path2995"
       style="fill:#f7de10;fill-opacity:1;stroke:#ce1829;stroke-width:7.69349241;stroke-miterlimit:4;stroke-opacity:1;stroke-dasharray:none"
       sodipodi:type="arc" />
    <path
       sodipodi:nodetypes="cssscsscsscscscccccccssccccccccccsccscc"
       inkscape:connector-curvature="0"
       id="path4195"
       d="m 42.79137,103.17178 c -0.10574,-12.256641 0.22276,-28.761001 0.20619,-42.678271 -0.009,-7.42341 0.0373,-14.14065 -0.92183,-19.20165 -0.31604,-1.66757 -1.21837,-3.0825 -2.03678,-4.40406 -1.21035,-1.95447 -2.74183,-3.57175 -4.66567,-4.77705 1.04235,-0.13373 2.13644,-0.23113 3.27462,-0.25588 2.13205,-0.0464 4.41879,0.16222 6.81,0.86442 2.54034,0.746 5.19857,2.04912 7.91443,4.19556 1.67379,-0.66805 4.00258,-2.08857 6.73474,-3.328 1.65014,-0.74858 3.44742,-1.4311 5.33641,-1.84188 1.76941,-0.38478 3.61928,-0.53114 5.50406,-0.27006 -1.42334,1.23286 -2.58836,2.66773 -3.55613,4.25714 -0.67987,1.11659 -1.38955,2.26528 -1.76874,3.56212 -0.28963,0.64321 -0.7215,1.26661 -0.79622,1.98272 -1.3279,12.72642 -0.0638,35.54351 -0.51987,53.22862 l 32.42615,-0.1413 40.3436,0.75809 c 0.461,-16.53692 0.51672,-33.18054 0.23312,-49.63234 0.12504,-5.70355 -2.16288,-10.60144 -6.14627,-14.3605 5.63992,0.66853 11.32779,0.8096 16.5783,5.76153 6.18329,-4.43069 12.41709,-7.90176 18.9993,-4.75284 -1.80711,1.45014 -3.35713,3.28121 -4.6809,5.44334 -0.7346,1.19983 -1.88077,2.38254 -2.00006,3.89681 -1.97405,25.05764 0.30278,81.804361 -0.52961,117.744651 -0.003,4.35723 0.53965,7.2632 1.67683,10.52091 1.45666,4.14169 3.25629,7.74987 5.53374,10.61478 -21.05467,-6.32682 -38.40505,-1.51858 -57.29039,1.70922 9.48096,-3.07681 25.29739,-26.33396 26.75638,-32.24587 0.44889,-4.37771 0.66169,-8.99303 0.86141,-13.13329 l 0.21172,-19.56438 -38.95924,0.10586 -33.45445,0.10586 0.21173,25.42757 c 1.56534,10.69262 1.60171,15.62256 7.75572,24.37356 1.1901,1.69232 18.69572,15.26382 19.02729,15.23945 -22.13017,-5.41516 -36.06278,-5.89526 -56.58576,-2.43482 2.33369,-2.63649 3.75225,-5.11149 4.70491,-7.50427 1.51197,-3.79755 1.85041,-7.38801 2.81127,-11.08831 z"
       style="fill:#003994;fill-opacity:1;stroke:none" />
    
  </g>
</svg>
