<?xml version="1.0" encoding="UTF-8" standalone="no"?>
<!-- Created with Inkscape (http://www.inkscape.org/) -->

<svg
   xmlns:dc="http://purl.org/dc/elements/1.1/"
   xmlns:cc="http://creativecommons.org/ns#"
   xmlns:rdf="http://www.w3.org/1999/02/22-rdf-syntax-ns#"
   xmlns:svg="http://www.w3.org/2000/svg"
   xmlns="http://www.w3.org/2000/svg"
   xmlns:sodipodi="http://sodipodi.sourceforge.net/DTD/sodipodi-0.dtd"
   xmlns:inkscape="http://www.inkscape.org/namespaces/inkscape"
   id="svg2"
   version="1.1"
   inkscape:version="0.48.2 r9819"
   width="432"
   height="216"
   sodipodi:docname="Mk-nova.gif">
  <metadata
     id="metadata8">
    <rdf:RDF>
      <cc:Work
         rdf:about="">
        <dc:format>image/svg+xml</dc:format>
        <dc:type
           rdf:resource="http://purl.org/dc/dcmitype/StillImage" />
        <dc:title></dc:title>
      </cc:Work>
    </rdf:RDF>
  </metadata>
  <defs
     id="defs6" />
  <sodipodi:namedview
     pagecolor="#ffffff"
     bordercolor="#666666"
     borderopacity="1"
     objecttolerance="10"
     gridtolerance="10"
     guidetolerance="10"
     inkscape:pageopacity="0"
     inkscape:pageshadow="2"
     inkscape:window-width="1366"
     inkscape:window-height="706"
     id="namedview4"
     showgrid="false"
     inkscape:zoom="0.51405247"
     inkscape:cx="66.587015"
     inkscape:cy="116.10364"
     inkscape:window-x="-8"
     inkscape:window-y="-8"
     inkscape:window-maximized="1"
     inkscape:current-layer="svg2">
    <sodipodi:guide
       position="0,0"
       orientation="0,432"
       id="guide2987" />
    <sodipodi:guide
       position="432,0"
       orientation="-216,0"
       id="guide2989" />
    <sodipodi:guide
       position="432,216"
       orientation="0,-432"
       id="guide2991" />
    <sodipodi:guide
       position="0,216"
       orientation="216,0"
       id="guide2993" />
  </sodipodi:namedview>
  <text
     xml:space="preserve"
     style="font-size:49.8631134px;font-style:normal;font-weight:normal;line-height:125%;letter-spacing:0px;word-spacing:0px;fill:#000000;fill-opacity:1;stroke:none;font-family:Sans"
     x="44.153912"
     y="116.9389"
     id="text4197"
     sodipodi:linespacing="125%"
     transform="scale(1.0388148,0.96263548)"><tspan
       sodipodi:role="line"
       id="tspan4199"
       x="44.153912"
       y="116.9389"
       style="font-size:24.9315567px;fill:#ffffff;font-family:Times New Roman;-inkscape-font-specification:Times New Roman" /></text>
  <g
     id="g4213">
    <rect
       y="0"
       x="0"
       height="216"
       width="432"
       id="rect4189"
       style="fill:#ce1829;fill-opacity:1;stroke:#f7de10;stroke-width:0.59299999000000003;stroke-linecap:round;stroke-linejoin:round;stroke-miterlimit:4;stroke-opacity:1;stroke-dasharray:none;stroke-dashoffset:0" />
    <path
       style="fill:#f7de10;fill-opacity:1"
       sodipodi:nodetypes="csccc"
       inkscape:connector-curvature="0"
       d="m 98.238987,40.371658 c -0.485522,1.778431 2.692163,6.73933 5.497413,6.727464 2.80525,-0.01186 6.40915,-3.469993 6.89466,-5.248422 l 0.27217,-36.6688782 z"
       id="path3875" />
    <path
       style="fill:#f7de10;fill-opacity:1"
       sodipodi:nodetypes="csccc"
       inkscape:connector-curvature="0"
       d="m 89.43759,41.667077 c 0.107096,1.840401 3.176809,5.071299 5.831746,4.165276 2.654939,-0.906018 6.796794,-2.894084 6.689684,-4.73448 L 88.305468,3.6268715 z"
       id="path3875-2" />
    <path
       style="fill:#f7de10;fill-opacity:1"
       sodipodi:nodetypes="csccc"
       inkscape:connector-curvature="0"
       d="m 81.857751,45.849092 c 0.895858,1.611206 4.196955,-1.025443 6.194827,-2.994726 1.997878,-1.969278 5.968916,-0.254257 5.073056,-1.865454 L 61.313601,4.0521074 z"
       id="path3875-4" />
    <path
       style="fill:#f7de10;fill-opacity:1"
       sodipodi:nodetypes="csccc"
       inkscape:connector-curvature="0"
       d="m 80.501785,56.223798 c 1.40191,1.197162 4.042871,-1.544873 5.227694,-4.08766 1.184828,-2.542784 1.116754,-5.295155 -0.285159,-6.492305 L 16.617753,6.898098 z"
       id="path3875-5" />
    <path
       style="fill:#f7de10;fill-opacity:1"
       sodipodi:nodetypes="csccc"
       inkscape:connector-curvature="0"
       d="m 76.191783,63.249653 c 1.747021,0.588613 4.446173,-3.3608 4.598249,-6.16195 0.152083,-2.801149 -0.955465,-4.619313 -2.702485,-5.207914 L 16.175773,46.093475 z"
       id="path3875-51" />
    <path
       style="fill:#f7de10;fill-opacity:1"
       sodipodi:nodetypes="csccc"
       inkscape:connector-curvature="0"
       d="m 79.469302,72.491775 c 1.843019,0.04276 2.2338,-3.169454 1.546446,-5.889217 -0.687348,-2.719765 -4.30213,-4.774644 -6.145144,-4.817397 L 15.671273,79.413343 z"
       id="path3875-7" />
    <path
       style="fill:#f7de10;fill-opacity:1"
       sodipodi:nodetypes="csccc"
       inkscape:connector-curvature="0"
       d="m 85.227855,80.054402 c 1.695734,-0.72323 0.716578,-5.531775 -1.033983,-7.72383 -1.750585,-2.192036 -4.869628,-2.718715 -6.565347,-1.995479 L 16.953576,117.24306 z"
       id="path3875-1" />
    <path
       style="fill:#f7de10;fill-opacity:1"
       sodipodi:nodetypes="csccc"
       inkscape:connector-curvature="0"
       d="m 95.409402,81.288927 c 1.322477,-1.28437 -2.986646,-1.566924 -5.408086,-2.983324 -2.421455,-1.41637 -5.558545,-1.780666 -6.881012,-0.496286 L 15.194136,186.83738 z"
       id="path3875-15" />
    <path
       style="fill:#f7de10;fill-opacity:1"
       sodipodi:nodetypes="csccc"
       inkscape:connector-curvature="0"
       d="m 103.29056,81.743357 c 0.72313,-1.695772 -3.360195,-0.290487 -6.140936,-0.660655 -2.780749,-0.370132 -5.814768,0.506668 -6.537877,2.202441 L 70.116108,210.09607 z"
       id="path3875-15-2" />
    <path
       style="fill:#f7de10;fill-opacity:1"
       sodipodi:nodetypes="csccc"
       inkscape:connector-curvature="0"
       d="m 110.6225,80.619505 c 0.0184,-1.843427 -3.21512,1.018907 -5.92554,1.742234 -2.71041,0.723364 -5.177086,2.695561 -5.195414,4.538981 l 29.647094,124.98853 z"
       id="path3875-15-2-7" />
    <path
       style="fill:#f7de10;fill-opacity:1"
       sodipodi:nodetypes="csccc"
       inkscape:connector-curvature="0"
       d="m 115.46521,73.705823 c -0.70361,-1.703959 -1.30045,3.140014 -3.51256,4.86518 -2.21206,1.725184 -4.6572,3.55908 -3.95357,5.26302 L 196.11633,207.7789 z"
       id="path3875-15-2-6" />
    <path
       style="fill:#f7de10;fill-opacity:1"
       sodipodi:nodetypes="csccc"
       inkscape:connector-curvature="0"
       d="m 120.37034,69.685448 c -1.28247,-1.32432 -4.40778,2.354053 -5.82766,4.773453 -1.41986,2.41942 -3.36452,1.458712 -2.08204,2.783022 L 317.51891,209.62016 z"
       id="path3875-15-2-1" />
    <path
       style="fill:#f7de10;fill-opacity:1"
       sodipodi:nodetypes="csccc"
       inkscape:connector-curvature="0"
       d="m 119.82365,59.906467 c -1.70396,-0.703627 -0.25192,2.732964 -0.59016,5.517768 -0.3382,2.784813 -5.41495,5.178228 -3.71099,5.881838 l 268.86586,48.980907 z"
       id="path3875-15-2-4" />
    <path
       style="fill:#f7de10;fill-opacity:1"
       sodipodi:nodetypes="csccc"
       inkscape:connector-curvature="0"
       d="m 120.64185,52.887337 c -1.84322,-0.03295 -8.14663,5.114158 -7.4448,7.830217 0.70186,2.716055 6.12136,2.992067 7.96458,3.024996 L 381.90581,7.666634 z"
       id="path3875-15-2-2" />
    <path
       style="fill:#f7de10;fill-opacity:1"
       sodipodi:nodetypes="csccc"
       inkscape:connector-curvature="0"
       d="m 108.08921,39.507351 c -1.07064,1.500748 -1.98911,4.051019 0.64712,5.010128 2.63622,0.959115 7.65059,4.785437 8.72125,3.284691 L 139.13234,3.588735 z"
       id="path3875-3" />
    <path
       style="fill:#f7de10;fill-opacity:1"
       sodipodi:nodetypes="csccc"
       inkscape:connector-curvature="0"
       d="m 113.73937,46.546147 c -1.49306,1.081354 -4.31094,5.773628 -2.11772,7.522773 2.19318,1.749149 10.9548,-0.43367 12.44785,-1.515028 L 187.74708,4.3499359 z"
       id="path3875-22" />
    <path
       transform="matrix(0.7039295,0,0,0.90054673,27.259217,1.6664805)"
       d="m 137.57751,67.21022 a 33.939827,25.757904 0 1 1 -67.879649,0 33.939827,25.757904 0 1 1 67.879649,0 z"
       sodipodi:ry="25.757904"
       sodipodi:rx="33.939827"
       sodipodi:cy="67.21022"
       sodipodi:cx="103.63769"
       id="path2995"
       style="fill:#f7de10;fill-opacity:1;stroke:#ce1829;stroke-width:7.69349241;stroke-miterlimit:4;stroke-opacity:1;stroke-dasharray:none"
       sodipodi:type="arc" />
    <path
       sodipodi:nodetypes="cssscsscsscscscccccccssccccccccccsccscc"
       inkscape:connector-curvature="0"
       id="path4195"
       d="m 42.79137,103.17178 c -0.10574,-12.256641 0.22276,-28.761001 0.20619,-42.678271 -0.009,-7.42341 0.0373,-14.14065 -0.92183,-19.20165 -0.31604,-1.66757 -1.21837,-3.0825 -2.03678,-4.40406 -1.21035,-1.95447 -2.74183,-3.57175 -4.66567,-4.77705 1.04235,-0.13373 2.13644,-0.23113 3.27462,-0.25588 2.13205,-0.0464 4.41879,0.16222 6.81,0.86442 2.54034,0.746 5.19857,2.04912 7.91443,4.19556 1.67379,-0.66805 4.00258,-2.08857 6.73474,-3.328 1.65014,-0.74858 3.44742,-1.4311 5.33641,-1.84188 1.76941,-0.38478 3.61928,-0.53114 5.50406,-0.27006 -1.42334,1.23286 -2.58836,2.66773 -3.55613,4.25714 -0.67987,1.11659 -1.38955,2.26528 -1.76874,3.56212 -0.28963,0.64321 -0.7215,1.26661 -0.79622,1.98272 -1.3279,12.72642 -0.0638,35.54351 -0.51987,53.22862 l 32.42615,-0.1413 40.3436,0.75809 c 0.461,-16.53692 0.51672,-33.18054 0.23312,-49.63234 0.12504,-5.70355 -2.16288,-10.60144 -6.14627,-14.3605 5.63992,0.66853 11.32779,0.8096 16.5783,5.76153 6.18329,-4.43069 12.41709,-7.90176 18.9993,-4.75284 -1.80711,1.45014 -3.35713,3.28121 -4.6809,5.44334 -0.7346,1.19983 -1.88077,2.38254 -2.00006,3.89681 -1.97405,25.05764 0.30278,81.804361 -0.52961,117.744651 -0.003,4.35723 0.53965,7.2632 1.67683,10.52091 1.45666,4.14169 3.25629,7.74987 5.53374,10.61478 -21.05467,-6.32682 -38.40505,-1.51858 -57.29039,1.70922 9.48096,-3.07681 25.29739,-26.33396 26.75638,-32.24587 0.44889,-4.37771 0.66169,-8.99303 0.86141,-13.13329 l 0.21172,-19.56438 -38.95924,0.10586 -33.45445,0.10586 0.21173,25.42757 c 1.56534,10.69262 1.60171,15.62256 7.75572,24.37356 1.1901,1.69232 18.69572,15.26382 19.02729,15.23945 -22.13017,-5.41516 -36.06278,-5.89526 -56.58576,-2.43482 2.33369,-2.63649 3.75225,-5.11149 4.70491,-7.50427 1.51197,-3.79755 1.85041,-7.38801 2.81127,-11.08831 z"
       style="fill:#003994;fill-opacity:1;stroke:none" />
    <path
       inkscape:connector-curvature="0"
       id="path4201"
       d="m 46.347829,112.37156 0,-0.19344 0.333142,-0.001 c 0.464842,-0.002 0.899695,-0.0646 1.183615,-0.17085 0.292594,-0.10948 0.642639,-0.41324 0.730006,-0.63348 0.179751,-0.45314 0.181949,-0.53506 0.181949,-6.78139 0,-6.175071 -0.0059,-6.406219 -0.171719,-6.726877 -0.235296,-0.455012 -0.837154,-0.720034 -1.730414,-0.761971 l -0.526579,-0.02472 0,-0.187184 0,-0.187183 3.653814,0 3.653815,0 0,0.187732 0,0.187732 -0.548072,0.02138 c -0.442327,0.01726 -0.614423,0.0437 -0.891961,0.137038 -0.601686,0.202353 -0.848412,0.454612 -0.972524,0.994333 -0.03276,0.142473 -0.05523,1.146092 -0.06802,3.039266 l -0.01911,2.82656 4.011696,-0.011 4.011697,-0.011 0.01214,-2.06333 c 0.01236,-2.099822 -0.03546,-3.638059 -0.123194,-3.963146 -0.05994,-0.222111 -0.279137,-0.484882 -0.524337,-0.628579 -0.358621,-0.210166 -0.701118,-0.295151 -1.288235,-0.319656 l -0.548072,-0.02287 0,-0.187261 0,-0.18726 3.653814,0 3.653815,0 0,0.193437 0,0.193438 -0.388687,0 c -0.748252,0 -1.443245,0.224803 -1.729735,0.559502 -0.172103,0.201063 -0.23521,0.390229 -0.290449,0.870629 -0.05767,0.501523 -0.05428,11.69302 0.0037,12.23038 0.07263,0.67307 0.25462,0.95489 0.761442,1.17908 0.345154,0.15268 0.613932,0.20819 1.138636,0.23518 l 0.505086,0.026 0,0.18712 0,0.18711 -3.653814,0 -3.653815,0 0,-0.19344 0,-0.19344 0.354635,-8.5e-4 c 0.43777,-0.001 0.891272,-0.063 1.160151,-0.15841 0.281508,-0.0999 0.593634,-0.34641 0.713492,-0.56344 0.210031,-0.38031 0.227296,-0.63341 0.25198,-3.69411 l 0.02297,-2.84783 -4.024213,0 -4.024214,0 0.0011,2.65439 c 0.0014,3.33116 0.02981,3.68016 0.326387,4.00843 0.332234,0.36775 0.848967,0.55378 1.639116,0.59012 l 0.526579,0.0242 0,0.18718 0,0.18719 -3.653815,0 -3.653814,0 0,-0.19344 0,0 z"
       style="fill:#ffffff;fill-opacity:1;stroke:none" />
    <path
       inkscape:connector-curvature="0"
       id="path4203"
       d="m 72.756856,112.86137 c -3.031431,-0.34189 -5.618645,-2.30248 -6.686232,-5.06681 -0.1594,-0.41274 -0.32681,-1.03742 -0.432272,-1.61299 -0.108771,-0.59363 -0.131575,-2.18013 -0.04071,-2.83252 0.238571,-1.71296 0.917069,-3.12382 2.086864,-4.339396 1.326052,-1.377953 2.787272,-2.162235 4.706973,-2.526377 0.671825,-0.127436 2.128349,-0.160434 2.815586,-0.06379 1.840632,0.258849 3.420593,1.064252 4.774254,2.433731 0.665636,0.673415 1.139959,1.34974 1.541931,2.19862 0.50099,1.05797 0.733652,2.16439 0.733407,3.48771 -2.58e-4,1.43018 -0.25297,2.59364 -0.814145,3.74834 -1.042899,2.14591 -3.190651,3.8555 -5.526177,4.39876 -0.881042,0.20494 -2.230069,0.27954 -3.159475,0.17472 l 0,0 z m 2.184282,-0.83411 c 1.585235,-0.3035 2.932592,-1.33525 3.641049,-2.78816 0.380605,-0.78054 0.574589,-1.4786 0.736178,-2.64916 0.105237,-0.76234 0.104772,-2.70987 -8.47e-4,-3.54635 -0.15615,-1.23668 -0.410224,-2.16999 -0.819144,-3.00903 -0.728949,-1.495679 -1.734079,-2.337817 -3.248327,-2.721573 -0.423956,-0.107443 -0.510061,-0.114288 -1.418539,-0.112757 -0.904157,0.0015 -0.994006,0.0089 -1.378725,0.113256 -0.904313,0.245286 -1.504182,0.587463 -2.126268,1.212865 -1.376462,1.383797 -2.022872,3.519589 -1.939603,6.408619 0.02826,0.98049 0.100184,1.61757 0.26934,2.38573 0.444177,2.01707 1.478139,3.5667 2.850394,4.27199 0.555772,0.28564 0.932384,0.39215 1.830522,0.51769 0.255121,0.0357 1.253917,-0.0161 1.60397,-0.0831 l 0,0 z"
       style="fill:#ffffff;fill-opacity:1;stroke:none" />
    <path
       inkscape:connector-curvature="0"
       id="path4205"
       d="m 83.750509,112.37156 0,-0.19344 0.340778,0 c 1.130599,0 1.777497,-0.32016 1.981511,-0.98067 0.163294,-0.52869 0.176956,-1.12576 0.159524,-6.97175 -0.01804,-6.051075 -0.0142,-5.949496 -0.242143,-6.396304 -0.248038,-0.486194 -0.876308,-0.738264 -1.842049,-0.739053 l -0.397621,-3.24e-4 0,-0.196266 0,-0.196265 4.50279,0.01826 c 3.7723,0.0153 4.594187,0.02937 5.066175,0.08673 1.818402,0.220971 3.070284,0.727234 3.917863,1.584392 0.756246,0.764792 1.08448,1.530907 1.085143,2.532778 0.001,1.5156 -0.920198,2.71062 -2.588687,3.35817 -0.253648,0.0984 -0.454109,0.18605 -0.445468,0.1947 0.0086,0.009 0.196827,0.0618 0.418193,0.11805 0.573688,0.14589 1.126644,0.34667 1.491062,0.54141 1.713676,0.91578 2.386635,2.80105 1.619245,4.53625 -0.280236,0.63367 -0.922159,1.39346 -1.508116,1.78504 -1.019453,0.68127 -2.078955,0.95279 -4.165747,1.06753 -0.425562,0.0234 -2.712957,0.0429 -5.083101,0.0434 l -4.309352,8.3e-4 0,-0.19344 z m 9.284988,-0.72745 c 1.014165,-0.20241 1.649139,-0.49922 2.24175,-1.04787 0.649779,-0.60158 0.95307,-1.28866 0.952539,-2.1579 -3.44e-4,-0.54325 -0.08243,-0.9138 -0.308491,-1.39243 -0.616406,-1.30506 -1.96268,-2.02895 -4.132394,-2.222 -0.562764,-0.0501 -2.415631,-0.0302 -2.955291,0.0316 l -0.225676,0.0259 0,3.2794 0,3.27941 0.225676,0.0493 c 0.249361,0.0545 1.233262,0.2019 1.536752,0.23028 0.10639,0.01 0.667358,0.0134 1.246595,0.008 0.783186,-0.008 1.146823,-0.0291 1.41854,-0.0833 z m -0.748975,-7.679 c 1.509655,-0.1468 2.402899,-0.59529 2.978678,-1.49557 0.623153,-0.97435 0.624717,-2.27478 0.0039,-3.203046 -0.276327,-0.413144 -0.798193,-0.90082 -1.222521,-1.142429 -1.174565,-0.668788 -3.165527,-0.860292 -5.084245,-0.489038 l -0.354918,0.06867 0.01103,3.077719 0.01103,3.07772 0.231522,0.0333 c 0.797855,0.11481 2.599145,0.15302 3.425573,0.0726 z"
       style="fill:#ffffff;fill-opacity:1;stroke:none" />
    <path
       inkscape:connector-curvature="0"
       id="path4207"
       d="m 100.84114,112.36081 1.4e-4,-0.20418 0.35449,-0.0702 c 0.56092,-0.11107 0.83757,-0.23536 1.11686,-0.50176 0.26089,-0.24885 0.62204,-0.77744 0.94551,-1.38391 0.10719,-0.20095 1.59317,-3.3984 3.30218,-7.10544 l 3.10728,-6.740056 0.215,0.01274 0.21499,0.01274 3.0566,6.770301 c 1.68113,3.72367 3.15911,6.96213 3.28439,7.19658 0.29189,0.5462 0.53157,0.89802 0.78354,1.15013 0.32696,0.32715 0.87978,0.56427 1.46638,0.62897 l 0.27112,0.0299 0.0131,0.20418 0.0131,0.20419 -3.35526,0 -3.35527,0 0,-0.18884 c 0,-0.20903 0.0378,-0.24102 0.28474,-0.24102 0.22548,0 0.78724,-0.12585 0.96378,-0.21592 0.21423,-0.10929 0.41769,-0.35203 0.45305,-0.54052 0.0896,-0.47734 -0.0601,-0.94162 -0.90988,-2.82215 l -0.59728,-1.32182 -3.3373,0 -3.33731,0 -0.50668,1.0854 c -0.75594,1.61937 -0.96876,2.12625 -1.04231,2.48244 -0.085,0.41182 -0.0506,0.59872 0.15149,0.82241 0.26522,0.29357 0.65108,0.43192 1.39174,0.499 l 0.36045,0.0327 0.0131,0.20418 0.0131,0.20419 -2.66749,0 -2.66749,0 1.4e-4,-0.20419 0,0 z m 11.2622,-5.97852 c 0,-0.0431 -2.86233,-6.36582 -2.898,-6.40149 -0.0138,-0.01377 -0.0327,-0.01699 -0.0421,-0.0071 -0.0144,0.0151 -2.91243,6.232834 -2.97865,6.390594 -0.0179,0.0427 0.58821,0.0537 2.94809,0.0537 1.63385,0 2.97063,-0.0161 2.97063,-0.0357 z"
       style="fill:#ffffff;fill-opacity:1;stroke:none" />
    <path
       inkscape:connector-curvature="0"
       id="path4209"
       d="m 137.07789,117.00331 c -0.08,-0.38332 -0.35926,-1.15758 -0.55993,-1.55218 -0.26003,-0.51134 -0.70782,-1.13631 -1.10764,-1.54592 -0.50481,-0.51715 -1.21897,-0.91277 -2.0277,-1.12325 -0.82787,-0.21546 -0.87943,-0.21696 -7.43879,-0.21696 l -6.12331,0 0,-0.18884 c 0,-0.22209 0.0302,-0.24102 0.38476,-0.24102 0.32858,0 0.92796,-0.10666 1.22597,-0.21816 0.31752,-0.1188 0.48797,-0.26976 0.60605,-0.53675 0.21606,-0.48857 0.21193,-0.35618 0.21193,-6.78915 0,-5.578883 -0.005,-6.039283 -0.0748,-6.309115 -0.088,-0.342558 -0.20022,-0.575272 -0.34024,-0.705869 -0.25198,-0.23504 -0.818,-0.388607 -1.7235,-0.467606 l -0.29015,-0.02531 0,-0.190016 0,-0.190016 3.65381,0 3.65382,0 0,0.190016 0,0.190016 -0.29016,0.02531 c -0.97455,0.08502 -1.53021,0.2487 -1.76949,0.521225 -0.15461,0.176088 -0.28777,0.578473 -0.34775,1.050788 -0.0318,0.250579 -0.0425,2.283247 -0.0339,6.469397 0.0104,5.08185 0.0225,6.12819 0.0721,6.24835 0.0881,0.21343 0.25634,0.2636 1.05335,0.31402 0.91884,0.0581 5.87743,0.0215 6.25921,-0.0463 0.34413,-0.0611 0.47899,-0.15486 0.53619,-0.37285 0.0292,-0.11126 0.0441,-2.26985 0.0441,-6.37964 0,-5.75519 -0.005,-6.235093 -0.0749,-6.532864 -0.10299,-0.441671 -0.26332,-0.753109 -0.45523,-0.88426 -0.28232,-0.192932 -0.76786,-0.306677 -1.65137,-0.38685 l -0.29015,-0.02633 0,-0.190016 0,-0.190016 3.6753,0 3.67531,0 0,0.18977 0,0.189769 -0.33314,0.02801 c -1.17271,0.09858 -1.7043,0.310071 -1.89293,0.753078 -0.26471,0.621692 -0.27538,0.921984 -0.2558,7.200162 0.019,6.08327 0.0127,5.93768 0.27624,6.46436 0.10298,0.20582 0.15595,0.25923 0.35885,0.36182 0.26292,0.13292 0.73261,0.22375 1.38468,0.26775 l 0.41912,0.0283 0,2.46768 0,2.46769 -0.19262,0 c -0.1755,0 -0.19481,-0.0105 -0.21728,-0.11821 l 0,0 z"
       style="fill:#ffffff;fill-opacity:1;stroke:none" />
    <path
       inkscape:connector-curvature="0"
       id="path4211"
       d="m 138.50508,112.37351 c 0,-0.22082 -0.0177,-0.21381 0.65831,-0.26026 0.4816,-0.0331 0.98501,-0.16101 1.23308,-0.31334 0.23641,-0.14517 0.40338,-0.43419 0.50713,-0.87786 0.067,-0.28671 0.0732,-0.80982 0.0732,-6.24499 0,-4.738835 -0.0114,-5.993925 -0.0569,-6.23954 -0.0691,-0.373305 -0.25663,-0.784652 -0.41425,-0.908633 -0.25855,-0.203374 -0.86115,-0.354996 -1.6674,-0.419536 l -0.33314,-0.02667 0,-0.189769 0,-0.18977 3.6968,0 3.6968,0 0,0.18977 0,0.189769 -0.33314,0.02756 c -1.6025,0.132564 -1.97411,0.394354 -2.11629,1.490897 -0.0317,0.244087 -0.0427,1.923381 -0.0344,5.253381 l 0.0121,4.89461 3.91173,-4.63383 c 2.15145,-2.5486 3.94288,-4.673803 3.98096,-4.722663 0.0593,-0.07609 0.0642,-0.156656 0.0344,-0.561683 -0.0965,-1.311018 -0.45884,-1.615614 -2.04877,-1.722414 l -0.44061,-0.0296 0,-0.1879 0,-0.1879 3.6968,0 3.6968,0 0,0.18977 0,0.189769 -0.33314,0.02719 c -0.8029,0.06554 -1.31899,0.190446 -1.61337,0.390484 -0.19821,0.134688 -0.33988,0.40782 -0.44491,0.857747 -0.0763,0.327007 -0.0803,0.636156 -0.0803,6.297453 0,5.56145 0.005,5.97339 0.0763,6.25447 0.16567,0.65305 0.36661,0.89332 0.88098,1.05341 0.28815,0.0897 0.81938,0.17141 1.11987,0.17228 0.35264,0.001 0.39451,0.0266 0.39451,0.24085 l 0,0.18843 -3.6968,0 -3.6968,0 0,-0.19149 c 0,-0.22082 -0.0177,-0.21381 0.65831,-0.26026 0.64584,-0.0444 1.22032,-0.22773 1.43516,-0.45806 0.13722,-0.14711 0.27035,-0.47302 0.34629,-0.84772 0.0568,-0.28047 0.0689,-1.03605 0.0841,-5.28144 0.0115,-3.20853 0.003,-4.95414 -0.0242,-4.95414 -0.0231,0 -1.81847,2.10934 -3.98971,4.68741 l -3.9477,4.68742 0.003,0.54613 c 0.004,0.70071 0.0761,0.96617 0.32231,1.18863 0.0967,0.0873 0.2635,0.19639 0.37077,0.24237 0.2279,0.0977 0.87748,0.21066 1.2166,0.21159 0.13004,3.4e-4 0.30897,0.0126 0.39763,0.0273 0.15761,0.026 0.16119,0.0308 0.16119,0.21445 l 0,0.18782 -3.6968,0 -3.6968,0 0,-0.19149 0,0 z"
       style="fill:#ffffff;fill-opacity:1;stroke:none" />
  </g>
</svg>
