<?xml version="1.0" encoding="UTF-8" standalone="no"?>
<!-- Created with Inkscape (http://www.inkscape.org/) -->

<svg
   xmlns:dc="http://purl.org/dc/elements/1.1/"
   xmlns:cc="http://creativecommons.org/ns#"
   xmlns:rdf="http://www.w3.org/1999/02/22-rdf-syntax-ns#"
   xmlns:svg="http://www.w3.org/2000/svg"
   xmlns="http://www.w3.org/2000/svg"
   xmlns:sodipodi="http://sodipodi.sourceforge.net/DTD/sodipodi-0.dtd"
   xmlns:inkscape="http://www.inkscape.org/namespaces/inkscape"
   id="svg2"
   version="1.1"
   inkscape:version="0.48.2 r9819"
   width="400"
   height="800"
   sodipodi:docname="Flag_of_Prilep.png">
  <metadata
     id="metadata8">
    <rdf:RDF>
      <cc:Work
         rdf:about="">
        <dc:format>image/svg+xml</dc:format>
        <dc:type
           rdf:resource="http://purl.org/dc/dcmitype/StillImage" />
        <dc:title></dc:title>
      </cc:Work>
    </rdf:RDF>
  </metadata>
  <defs
     id="defs6" />
  <sodipodi:namedview
     pagecolor="#ffffff"
     bordercolor="#666666"
     borderopacity="1"
     objecttolerance="10"
     gridtolerance="10"
     guidetolerance="10"
     inkscape:pageopacity="0"
     inkscape:pageshadow="2"
     inkscape:window-width="1366"
     inkscape:window-height="706"
     id="namedview4"
     showgrid="false"
     inkscape:zoom="0.25"
     inkscape:cx="0.025390625"
     inkscape:cy="440.42"
     inkscape:window-x="-8"
     inkscape:window-y="-8"
     inkscape:window-maximized="1"
     inkscape:current-layer="svg2">
    <sodipodi:guide
       position="0,0"
       orientation="0,400"
       id="guide2987" />
    <sodipodi:guide
       position="400,0"
       orientation="-800,0"
       id="guide2989" />
    <sodipodi:guide
       position="400,800"
       orientation="0,-400"
       id="guide2991" />
    <sodipodi:guide
       position="0,800"
       orientation="800,0"
       id="guide2993" />
  </sodipodi:namedview>
  <rect
     style="fill:#000098;fill-opacity:1;stroke:none;stroke-width:7.29999999999999980;stroke-linecap:round;stroke-linejoin:miter;stroke-miterlimit:4;stroke-opacity:1;stroke-dasharray:none;stroke-dashoffset:0"
     id="rect3999"
     width="400"
     height="800"
     x="0"
     y="0" />
  <g
     transform="matrix(0.70674996,0,0,0.68372516,-828.31196,-317.62495)"
     id="g3867">
    <path
       sodipodi:nodetypes="cccsscsccc"
       inkscape:connector-curvature="0"
       d="m 1321.6035,648.26087 268.7144,0.32775 c 0.4104,38.74204 32.4666,49.73561 57.304,52.70358 l 0.2277,393.018 c 0.023,38.9329 -53.6851,64.6561 -101.5197,77.9297 -43.6405,12.1098 -82.8183,27.0221 -83.7947,45.3289 -11.004,-30.9946 -98.0976,-39.844 -166.0592,-75.4248 -16.0405,-8.3979 -33.1291,-38.9473 -31.0617,-57.4082 l -0.5718,-380.27255 c 17.7707,2.23489 55.9705,-13.91454 56.761,-56.20238 z"
       id="path3440"
       style="fill:#000098;fill-opacity:1;stroke:#ffffff;stroke-opacity:1;stroke-width:6.75401342;stroke-miterlimit:4;stroke-dasharray:none" />
    <path
       style="fill:#ffffff;fill-opacity:1;stroke:#000098;stroke-width:0.37657487;stroke-opacity:1"
       d="m 1316.184,1118.0433 -4.9587,-12.0148 c 3.1331,-5.7274 5.5923,-9.5412 9.2763,-16.3076 0.8044,0.8978 7.3038,11.3516 10.3103,16.0498 l -4.8487,11.5301 c -2.8995,6.895 -4.7014,12.7571 -4.7436,12.7571 -0.042,0 -2.3083,-5.4066 -5.0356,-12.0146 z"
       id="path3832-1-8-4"
       inkscape:connector-curvature="0"
       sodipodi:nodetypes="ccccsscc" />
    <path
       style="fill:#ffffff;fill-opacity:1;stroke:#000098;stroke-width:0.44374633;stroke-opacity:1"
       d="m 1326.2454,1120.9357 -6.1605,-13.4287 c 3.8925,-6.4015 6.9477,-10.6641 11.5245,-18.2268 0.9994,1.0035 9.074,12.6875 12.8092,17.9386 l -6.0239,12.887 c -3.6022,7.7064 -5.8408,14.2584 -5.8933,14.2584 -0.052,0 -2.8677,-6.0428 -6.256,-13.4285 z"
       id="path3832-1-8-2"
       inkscape:connector-curvature="0"
       sodipodi:nodetypes="ccccsscc" />
    <path
       style="fill:#ffffff;fill-opacity:1;stroke:#000098;stroke-width:0.54709977;stroke-opacity:1"
       d="m 1337.1928,1128.4296 -7.2516,-17.3413 c 4.5818,-8.2666 8.1782,-13.7712 13.5655,-23.5373 1.1764,1.2958 10.6811,16.3841 15.0778,23.1652 l -7.0907,16.6418 c -4.2402,9.9517 -6.8753,18.4127 -6.9371,18.4127 -0.062,0 -3.3756,-7.8035 -7.3639,-17.3411 z"
       id="path3832-1-8"
       inkscape:connector-curvature="0"
       sodipodi:nodetypes="ccccsscc" />
    <path
       style="fill:#ffffff;fill-opacity:1;stroke:#000098;stroke-width:0.62194228;stroke-opacity:1"
       d="m 1349.6621,1133.809 -8.1467,-19.9479 c 5.1474,-9.5092 9.1877,-15.8411 15.2401,-27.0752 1.3216,1.4905 11.9996,18.8468 16.939,26.6472 l -7.9659,19.1432 c -4.7637,11.4476 -7.724,21.1804 -7.7934,21.1804 -0.07,0 -3.7924,-8.9764 -8.2731,-19.9478 z"
       id="path3832-1-48"
       inkscape:connector-curvature="0"
       sodipodi:nodetypes="ccccsscc" />
    <path
       style="fill:#ffffff;fill-opacity:1;stroke:#000098;stroke-width:0.61534405;stroke-opacity:1"
       d="m 1363.2957,1135.2189 -7.7422,-20.5474 c 4.8918,-9.7949 8.7314,-16.3171 14.4833,-27.8888 1.256,1.5353 11.4036,19.4131 16.0977,27.4479 l -7.5703,19.7185 c -4.5271,11.7916 -7.3404,21.8169 -7.4064,21.8169 -0.066,0 -3.604,-9.2461 -7.8621,-20.5472 z"
       id="path3832-1-9"
       inkscape:connector-curvature="0"
       sodipodi:nodetypes="ccccsscc" />
    <path
       style="fill:#ffffff;fill-opacity:1;stroke:#000098;stroke-width:0.70717144;stroke-opacity:1"
       d="m 1378.5786,1141.8415 -8.9377,-23.5075 c 5.6472,-11.206 10.0797,-18.6677 16.7197,-31.9065 1.45,1.7565 13.1646,22.2098 18.5836,31.4021 l -8.7394,22.5591 c -5.2261,13.4904 -8.4739,24.9599 -8.55,24.9599 -0.076,0 -4.1605,-10.5781 -9.0762,-23.5072 z"
       id="path3832-1-0"
       inkscape:connector-curvature="0"
       sodipodi:nodetypes="ccccsscc" />
    <path
       style="fill:#ffffff;fill-opacity:1;stroke:#ffffff;stroke-width:0.55285937;stroke-linecap:round;stroke-linejoin:miter;stroke-miterlimit:4;stroke-opacity:1;stroke-dasharray:none;stroke-dashoffset:0"
       d="m 1427.111,928.00447 c -1.785,-0.5464 -5.9854,-3.2633 -14.7289,-9.527 -5.5734,-3.9928 -7.9818,-5.4338 -9.9287,-5.9407 -0.4865,-0.1267 -2.6022,-0.4323 -4.7016,-0.6792 -3.8573,-0.4535 -5.4736,-0.8765 -5.3104,-1.3895 0.049,-0.1538 0.5459,-0.5152 1.1044,-0.8031 1.3215,-0.6815 1.8262,-1.5919 1.6667,-3.007 -0.144,-1.278 -0.5999,-1.9272 -2.2251,-3.1684 -1.7189,-1.3128 -1.9355,-2.5156 -0.7657,-4.2515 0.5458,-0.8099 3.8868,-3.7393 4.2763,-3.7495 0.1301,0 0.8019,0.8263 1.493,1.8436 2.771,4.0794 5.2327,5.2719 5.8847,2.8507 0.5535,-2.0554 -0.734,-6.1216 -4.7443,-14.9836 -4.9736,-10.991 -6.7471,-17.8619 -5.8571,-22.6923 0.1207,-0.6552 0.5768,-1.9021 1.0135,-2.771 3.6447,-7.2513 13.8889,-10.2966 19.742,-5.8687 2.8088,2.1248 4.8127,5.7366 3.6967,6.6627 -0.4128,0.3426 -1.0344,0.033 -2.2256,-1.109 -2.4512,-2.35 -7.4095,-3.1185 -10.6667,-1.6535 -1.6005,0.7199 -3.1626,2.2591 -3.8889,3.8319 -0.3879,0.8399 -0.4818,1.4527 -0.482,3.1441 -10e-5,1.943 0.056,2.212 0.7424,3.5803 0.8926,1.7784 3.2492,4.1599 4.8254,4.8764 0.8604,0.3911 1.5837,0.5011 3.7453,0.5694 3.0708,0.097 4.5077,-0.1405 6.4734,-1.0702 3.7434,-1.7703 5.877,-5.6692 7.1114,-12.9951 0.2605,-1.5463 0.5006,-2.8393 0.5335,-2.8733 0.033,-0.034 0.4573,0.5631 0.9431,1.3269 2.3042,3.6223 2.5911,4.5127 2.4345,7.5552 -0.1636,3.1787 -1.0658,5.5645 -3.9518,10.4506 -2.4326,4.1184 -3.2195,6.4654 -2.9733,8.8682 0.304,2.967 1.4061,3.9919 3.3434,3.1093 0.7766,-0.3539 1.1572,-1.1618 2.6355,-5.5956 0.8718,-2.6148 1.9201,-5.1062 3.4429,-8.1823 2.9021,-5.8625 3.3405,-7.2072 3.4791,-10.6712 l 0.1084,-2.71 1.982,1.0451 c 2.0866,1.1002 3.3893,2.2943 3.6202,3.3189 0.4316,1.9142 0.5723,2.2539 0.9885,2.386 0.8339,0.2647 1.7664,-0.1516 3.5863,-1.6009 2.1246,-1.6921 2.7278,-1.9784 5.0162,-2.3807 2.6563,-0.467 10.1811,-0.8468 13.5453,-0.6836 7.8856,0.3824 12.4193,1.8012 17.7588,5.5575 2.7897,1.9626 4.5398,2.8514 5.201,2.6415 0.2475,-0.079 0.6077,-0.3836 0.8005,-0.6779 0.4944,-0.7546 0.2441,-1.8221 -0.9348,-3.9872 -0.5366,-0.9854 -0.9756,-1.9534 -0.9756,-2.1511 0,-0.9932 2.6212,-1.5311 3.5159,-0.7215 0.2566,0.2321 0.5739,0.8292 0.705,1.3268 0.3128,1.1869 1.3365,3.0093 3.7054,6.5964 3.7595,5.6927 5.4402,8.8047 6.4464,11.9364 0.2624,0.8166 0.6975,1.8117 0.9669,2.2115 0.4282,0.6353 0.611,0.7269 1.4523,0.7269 1.3839,0 1.8251,-0.66 1.9563,-2.9261 0.1892,-3.2687 -0.9771,-6.0373 -5.3818,-12.7752 -4.0646,-6.2175 -4.6158,-7.2595 -4.6242,-8.74 -0.01,-1.0286 0.1005,-1.3855 0.6124,-2.0573 1.1739,-1.5402 2.0998,-0.8074 3.0599,2.4219 0.9249,3.1112 1.8943,4.7143 4.2672,7.057 1.7147,1.6928 2.3783,2.1762 4.3367,3.1591 5.2191,2.6192 8.3988,2.2789 12.242,-1.3103 2.3402,-2.1855 3.1169,-3.7774 3.1174,-6.3892 2e-4,-1.6882 -0.077,-2.0458 -0.7251,-3.3634 -1.1898,-2.418 -3.86,-4.3927 -7.1158,-5.2623 -1.4469,-0.3865 -2.3969,-0.1491 -6.2324,1.5571 -3.5324,1.5713 -4.4628,1.8066 -4.6999,1.1887 -0.2835,-0.7387 -0.1244,-2.5618 0.2953,-3.3845 0.5318,-1.0424 2.504,-2.8697 4.0488,-3.7513 5.0406,-2.8766 10.1413,-2.4445 14.0691,1.192 3.5049,3.2449 5.3299,7.6757 5.0452,12.2488 -0.3009,4.8334 -2.3386,10.3698 -7.9274,21.5387 -2.5227,5.0414 -4.1671,8.8106 -4.6086,10.5639 -0.329,1.3067 0.1117,2.5411 0.9854,2.7605 1.4303,0.3589 3.0233,-1.1718 5.1807,-4.9779 l 1.4109,-2.4893 1.5432,1.5136 c 2.2279,2.1849 3.2644,3.5422 3.2644,4.2747 0,0.7384 -0.8375,1.5102 -2.8828,2.6568 -3.5238,1.9755 -3.5117,4.346 0.039,7.5465 1.5431,1.3911 1.7195,1.624 1.3759,1.8163 -0.4122,0.2307 -7.5043,0.5498 -12.7643,0.5744 l -3.0649,0.014 -5.228,4.4937 c -5.9589,5.122 -8.3392,7.0835 -9.7615,8.044 -1.8545,1.2525 -3.7247,2.0583 -5.362,2.3104 -1.684,0.2592 -2.583,0.1665 -8.7042,-0.8971 -4.2303,-0.7351 -8.2893,-0.982 -16.1199,-0.9807 -12.2982,0 -19.1434,0.7141 -29.4041,3.058 -4.4906,1.0258 -4.9177,1.0835 -5.8683,0.7925 l 0,0 z"
       id="path3779"
       inkscape:connector-curvature="0" />
    <path
       style="fill:#ffffff;fill-opacity:1;stroke:#ffffff;stroke-width:0.55285937;stroke-linecap:round;stroke-linejoin:miter;stroke-miterlimit:4;stroke-opacity:1;stroke-dasharray:none;stroke-dashoffset:0"
       d="m 1425.9573,927.01167 c -1.899,-0.9504 -5.4522,-3.2881 -11.5127,-7.5744 -9.8045,-6.9344 -9.8932,-6.9782 -15.9243,-7.8638 -2.4408,-0.3584 -4.6891,-0.7471 -4.9961,-0.8638 l -0.5582,-0.2123 0.9302,-0.5546 c 1.1528,-0.6875 1.5912,-1.5032 1.5912,-2.9608 0,-1.4716 -0.3201,-2.0422 -2.0787,-3.7054 -1.5867,-1.5008 -1.7876,-2.0954 -1.1346,-3.3582 0.3718,-0.719 3.6321,-3.7706 4.0297,-3.7717 0.1449,-5e-4 0.7324,0.6212 1.3056,1.3814 3.0559,4.053 5.1801,5.1954 6.3181,3.3978 0.3651,-0.5767 0.4194,-0.9621 0.3336,-2.368 -0.1305,-2.138 -1.0807,-4.9406 -3.8542,-11.3683 -5.2612,-12.1929 -6.6031,-16.3352 -6.8493,-21.1423 -0.2067,-4.0375 0.7934,-6.6113 3.6871,-9.4885 4.2418,-4.2177 10.4044,-5.5021 15.1831,-3.1646 2.2578,1.1045 5.174,4.5977 5.174,6.1978 0,0.837 -0.3388,0.7482 -1.9036,-0.4988 -1.7221,-1.3724 -3.0211,-1.9298 -5.3294,-2.2867 -3.3649,-0.5202 -6.2596,0.4017 -8.3497,2.6593 -1.4902,1.6096 -1.8877,2.741 -1.8875,5.3724 2e-4,1.772 0.078,2.1707 0.6669,3.4154 0.8088,1.7097 3.2956,4.364 4.7859,5.1083 0.6926,0.3459 1.6942,0.5798 3.042,0.7106 7.2519,0.7035 11.5381,-2.0525 13.8209,-8.8867 0.264,-0.7906 0.7556,-2.7753 1.0924,-4.4104 l 0.6124,-2.973 0.7905,1.3144 c 1.8257,3.0353 1.8368,3.0708 1.8221,5.8478 -0.019,3.6797 -0.5102,5.1114 -3.7504,10.943 -1.0149,1.8264 -2.1121,4.1169 -2.4383,5.09 -0.5206,1.5529 -0.5803,2.0167 -0.4886,3.795 0.1143,2.2183 0.5268,3.2526 1.5189,3.8095 0.7857,0.441 2.119,0.1466 2.8335,-0.6258 0.5873,-0.6347 0.7936,-1.1197 2.6395,-6.2047 0.596,-1.642 2.0324,-5.0255 3.192,-7.5189 1.1595,-2.4934 2.3258,-5.1803 2.5917,-5.9709 0.4268,-1.269 0.8591,-4.249 0.8763,-6.0411 l 0.01,-0.6232 1.3326,0.7326 c 2.2959,1.2622 3.0817,2.0916 3.7314,3.9381 0.4973,1.4136 0.6618,1.6577 1.2155,1.8037 0.8628,0.2275 1.7355,-0.1652 3.9625,-1.7832 2.1714,-1.5776 2.859,-1.8855 4.9063,-2.1966 5.3684,-0.8159 14.3199,-0.8399 18.9078,-0.051 4.5734,0.7867 7.1478,1.8638 12.1629,5.0886 1.642,1.0559 3.2638,2.0388 3.604,2.1843 0.9583,0.41 1.7944,0.3212 2.3284,-0.2472 0.7643,-0.8136 0.6286,-1.9083 -0.549,-4.4275 -0.9932,-2.1246 -1.0148,-2.214 -0.6082,-2.5116 0.2537,-0.1856 0.8183,-0.2826 1.4169,-0.2435 0.8923,0.058 1.0338,0.1449 1.37,0.839 1.4247,2.9418 2.0252,4.0054 4.1077,7.2752 3.8358,6.0228 4.9692,8.1273 6.3424,11.7759 0.9671,2.5698 1.4149,3.0633 2.7796,3.0633 1.6985,0 2.2886,-1.0029 2.2773,-3.87 -0.013,-3.3399 -0.7274,-4.9664 -5.4973,-12.5202 -3.4533,-5.4687 -4.0614,-6.5525 -4.3289,-7.7145 -0.2202,-0.9569 0.096,-2.2277 0.6883,-2.7634 0.4196,-0.3798 0.4656,-0.3809 0.8636,-0.021 0.2312,0.2092 0.7436,1.2944 1.1386,2.4115 1.2775,3.6126 2.0722,4.9054 4.5141,7.3434 1.9342,1.9311 2.4963,2.3511 4.3691,3.2647 2.853,1.3917 4.4667,1.7925 6.624,1.6452 1.3592,-0.093 1.9752,-0.2633 3.096,-0.8567 1.9023,-1.0071 4.5705,-3.5838 5.3939,-5.2089 0.5958,-1.1759 0.6494,-1.4732 0.6494,-3.6037 0,-1.9848 -0.075,-2.4739 -0.5152,-3.3681 -1.9281,-3.915 -7.2259,-6.573 -10.68,-5.3585 -0.5322,0.1871 -2.2736,0.8837 -3.8698,1.548 -1.5961,0.6643 -3.064,1.2078 -3.2618,1.2078 -0.49,0 -0.4922,-1.9763 0,-3.0065 0.8301,-1.7494 4.3218,-4.2136 7.1472,-5.044 1.5153,-0.4453 4.4545,-0.4556 5.9192,-0.021 5.1287,1.5231 9.3343,7.6016 9.351,13.5155 0.013,4.606 -1.663,9.3548 -7.8326,22.1914 -4.7664,9.9174 -5.4208,11.945 -4.3104,13.3566 0.3772,0.4795 0.6395,0.5827 1.4819,0.5827 0.9556,0 1.1053,-0.084 2.2567,-1.2716 0.6782,-0.6994 1.8372,-2.2922 2.5755,-3.5396 l 1.3424,-2.268 2.015,2.0829 c 2.0824,2.1525 2.5299,2.9571 2.0025,3.5999 -0.1656,0.2019 -1.113,0.8919 -2.1054,1.5334 -2.3077,1.4919 -3.0014,2.3711 -3.0014,3.8043 0,1.4122 0.4726,2.2646 2.3035,4.1555 l 1.5232,1.5731 -0.9479,0.1362 c -0.5214,0.075 -4.0068,0.204 -7.7454,0.287 l -6.7973,0.1508 -5.0339,4.3018 c -8.961,7.6579 -11.1612,9.2928 -13.5699,10.0834 -2.1083,0.692 -3.1048,0.673 -8.4919,-0.162 -6.2035,-0.9615 -10.3616,-1.2483 -18.0195,-1.2428 -11.4471,0.01 -17.2136,0.5667 -27.5108,2.6638 -3.5412,0.7212 -6.6376,1.3083 -6.8808,1.3047 -0.2433,0 -1.1107,-0.341 -1.9277,-0.7499 l 0,0 z"
       id="path3781"
       inkscape:connector-curvature="0" />
    <path
       style="fill:#ffffff;fill-opacity:1;stroke:#ffffff;stroke-width:0.55285937;stroke-linecap:round;stroke-linejoin:miter;stroke-miterlimit:4;stroke-opacity:1;stroke-dasharray:none;stroke-dashoffset:0"
       d="m 1407.1917,868.18027 c -0.7461,-0.587 -1.4865,-2.1549 -1.4865,-3.1481 0,-1.5074 1.7713,-2.9689 3.3427,-2.7581 1.1539,0.1547 2.0577,0.8586 2.6358,2.0528 0.599,1.2375 0.4816,2.3339 -0.3421,3.1936 -1.0436,1.0893 -3.1734,1.4279 -4.1499,0.6598 l 0,0 z"
       id="path3784"
       inkscape:connector-curvature="0" />
    <path
       style="fill:#ffffff;fill-opacity:1;stroke:#ffffff;stroke-width:0.55285937;stroke-linecap:round;stroke-linejoin:miter;stroke-miterlimit:4;stroke-opacity:1;stroke-dasharray:none;stroke-dashoffset:0"
       d="m 1508.8699,867.66507 c -1.6014,-1.6712 -1.8131,-3.6636 -0.494,-4.6485 0.7222,-0.5391 2.6886,-0.7342 3.778,-0.3747 1.0111,0.3338 1.9117,1.3937 1.9117,2.25 0,1.1879 -1.0633,2.8004 -2.2557,3.4208 -1.1212,0.5833 -1.9316,0.4048 -2.94,-0.6476 z"
       id="path3786"
       inkscape:connector-curvature="0" />
    <path
       style="fill:#ffffff;fill-opacity:1;stroke:#ffffff;stroke-width:0.55285937;stroke-linecap:round;stroke-linejoin:miter;stroke-miterlimit:4;stroke-opacity:1;stroke-dasharray:none;stroke-dashoffset:0"
       d="m 1410.9178,1003.1196 c -0.4966,-0.4966 -0.4363,-2.0075 0.1902,-4.76947 0.6886,-3.0351 1.3971,-5.4636 6.7661,-23.18936 2.4498,-8.0883 5.789,-19.3335 7.4204,-24.9892 1.6314,-5.6558 3.1331,-10.6613 3.337,-11.1234 1.8135,-4.1096 9.7923,-5.2073 36.0085,-4.9541 14.1704,0.1369 17.8231,0.3445 19.35,1.1001 1.5476,0.7658 1.8647,1.6294 2.6584,7.2395 1.398,9.882 4.0114,21.2138 8.9503,38.8086 3.1384,11.18056 4.4855,16.43966 4.6811,18.27566 l 0.1329,1.24757 -0.7385,0.1622 c -0.9456,0.2077 -9.1601,-0.025 -20.5493,-0.5816 -11.6729,-0.57057 -27.0245,-0.76937 -34.0562,-0.44077 -9.3116,0.43497 -15.7268,1.07397 -26.8471,2.67397 -3.3935,0.4883 -6.347,0.8878 -6.5632,0.8878 -0.2162,0 -0.5494,-0.1564 -0.7406,-0.3475 z"
       id="path3788"
       inkscape:connector-curvature="0" />
    <path
       style="fill:#ffffff;fill-opacity:1;stroke:#ffffff;stroke-width:0.55285937;stroke-linecap:round;stroke-linejoin:miter;stroke-miterlimit:4;stroke-opacity:1;stroke-dasharray:none;stroke-dashoffset:0"
       d="m 1395.0965,1068.5756 c -0.6192,-2.2994 -0.6969,-3.4007 -0.4628,-6.5545 0.7088,-9.5486 2.8159,-18.617 8.5533,-36.8128 2.7425,-8.6974 3.1875,-9.7989 4.142,-10.2518 2.3855,-1.132 16.0403,-4.32 21.8622,-5.1043 10.2928,-1.3865 33.8956,-2.1092 47.1694,-1.4443 4.3171,0.2163 17.479,1.3274 21.0086,1.7735 3.5621,0.4503 5.9966,1.1884 6.695,2.0299 0.1387,0.1672 0.561,1.294 0.9384,2.504 1.1383,3.6497 1.6866,5.1591 5.1371,14.1419 7.2124,18.7761 9.0042,26.0652 9.0103,36.6546 l 0,3.2619 -2.4879,0 c -2.6296,10e-5 -62.1206,0.3319 -99.282,0.5538 l -22.0476,0.1317 -0.2379,-0.8836 0,0 z"
       id="path3790"
       inkscape:connector-curvature="0" />
    <path
       style="fill:#ffffff;fill-opacity:1;stroke:#ffffff;stroke-width:0.55285937;stroke-linecap:round;stroke-linejoin:miter;stroke-miterlimit:4;stroke-opacity:1;stroke-dasharray:none;stroke-dashoffset:0"
       d="m 1310.4941,1069.4258 c -2.311,-0.084 -4.2764,-0.1652 -4.3676,-0.181 -0.3374,-0.059 -0.1495,-1.805 0.3974,-3.6921 0.7154,-2.4687 2.5941,-7.6538 6.7735,-18.6938 l 3.315,-8.7568 1.032,-0.2508 c 0.5676,-0.138 2.3502,-0.5978 3.9612,-1.0219 3.7176,-0.9786 5.803,-1.3368 10.8923,-1.8708 12.5072,-1.3123 31.0357,-1.162 37.2289,0.302 1.9699,0.4657 6.2414,1.9422 7.7364,2.6742 1.5145,0.7416 1.8697,1.2644 3.3299,4.9011 2.1015,5.234 7.0142,22.1947 7.0465,24.327 0.021,1.4006 -0.2896,1.6035 -2.8222,1.8431 -5.5653,0.5265 -62.6935,0.8484 -74.5233,0.4198 z"
       id="path3792"
       inkscape:connector-curvature="0" />
    <path
       style="fill:#ffffff;fill-opacity:1;stroke:#ffffff;stroke-width:0.55285937;stroke-linecap:round;stroke-linejoin:miter;stroke-miterlimit:4;stroke-opacity:1;stroke-dasharray:none;stroke-dashoffset:0"
       d="m 1369.0972,1026.3755 c -11.0203,-1.5147 -17.2859,-1.6967 -37.4819,-1.089 -5.6547,0.1702 -10.3114,0.2793 -10.3482,0.2425 -0.037,-0.037 0.2917,-1.4972 0.73,-3.2454 2.2815,-9.0998 8.0783,-27.18027 9.3237,-29.08097 0.3987,-0.6086 0.7685,-0.7532 4.9565,-1.9377 5.7515,-1.62676 9.7233,-2.12566 16.8975,-2.12226 6.6844,0 11.7717,0.5548 13.7301,1.4887 0.9301,0.4435 1.3199,1.40446 2.5407,6.26376 2.1502,8.55877 5.2846,25.13897 5.2896,27.98077 0,1.1905 -0.626,1.5222 -2.9518,1.5589 -1.1125,0.018 -2.3213,-0.01 -2.6862,-0.059 l 0,0 z"
       id="path3794"
       inkscape:connector-curvature="0" />
    <path
       style="fill:#ffffff;fill-opacity:1;stroke:#ffffff;stroke-width:0.55285937;stroke-linecap:round;stroke-linejoin:miter;stroke-miterlimit:4;stroke-opacity:1;stroke-dasharray:none;stroke-dashoffset:0"
       d="m 1326.9521,983.39797 c -2.0134,-0.7494 -6.1571,-3.8294 -8.1692,-6.0722 -0.625,-0.6966 -1.5515,-1.9625 -2.0589,-2.813 -2.0503,-3.4371 -4.4362,-4.7542 -8.6181,-4.7574 -1.8837,0 -3.1709,-0.315 -3.4399,-0.8378 -0.1067,-0.2075 -0.2624,-0.9134 -0.3459,-1.5686 -0.2133,-1.6731 -1.0438,-3.1882 -2.2224,-4.0541 -1.6286,-1.1965 -1.6102,-1.292 0.8425,-4.3743 1.6622,-2.089 2.1252,-3.0984 2.1298,-4.6441 0.01,-1.5472 -0.1756,-2.1809 -1.8983,-6.6768 -2.0281,-5.2927 -2.5221,-7.2511 -2.6667,-10.5724 -0.1759,-4.0385 0.4081,-6.216 2.2355,-8.3347 1.5449,-1.7912 4.4152,-2.6716 7.367,-2.2595 3.3367,0.4657 4.8617,1.4309 5.8935,3.7302 0.8396,1.8707 0.9644,3.2338 0.3979,4.3443 -0.6117,1.199 -2.2516,2.6631 -3.2985,2.945 -1.4722,0.3964 -2.5502,-0.07 -4.6238,-1.9986 -0.7695,-0.7159 -1.4943,-1.3015 -1.6107,-1.3015 -0.3291,0 -1.1153,1.2162 -1.2627,1.9531 -0.5059,2.5294 3.0144,6.1998 6.3301,6.6001 1.8403,0.2221 4.6739,-0.9695 7.0037,-2.9452 1.3338,-1.1311 2.0489,-2.2003 2.4122,-3.6068 l 0.26,-1.0061 0.8971,0.9347 c 0.4935,0.5141 1.2066,1.5831 1.5848,2.3754 0.6219,1.3031 0.7084,1.7524 0.9063,4.7045 0.4015,5.992 0.6454,7.0721 1.4804,6.5572 1.1385,-0.702 2.3742,-4.4134 2.8243,-8.483 0.3096,-2.7986 0.6102,-3.3245 1.9005,-3.3245 0.9811,0 1.9842,-0.5028 3.2551,-1.6315 2.894,-2.5703 7.6924,-3.8137 15.6211,-4.048 5.2261,-0.1544 8.547,0.2274 14.035,1.6136 4.9881,1.26 6.4554,1.408 7.6937,0.7763 1.1413,-0.5823 1.7003,-0.5927 2.2511,-0.042 0.5566,0.5566 0.7379,1.2267 1.7989,6.6487 1.0123,5.1727 1.5605,7.0341 2.3467,7.9685 0.6651,0.7903 1.1743,0.8267 1.9718,0.1407 0.9043,-0.7778 0.9293,-2.1569 0.1249,-6.8992 -0.5884,-3.4695 -0.7881,-5.3587 -0.7182,-6.7939 0.034,-0.7089 0.8363,-0.4073 2.7911,1.0502 2.2664,1.6896 3.491,2.1235 5.9629,2.1123 4.9234,-0.022 8.6412,-3.0404 8.9103,-7.2338 0.1601,-2.494 -0.3806,-3.0306 -2.6054,-2.5856 -1.0193,0.2039 -2.0421,1.3323 -2.5429,2.8055 -0.6431,1.892 -1.1122,2.2299 -3.2289,2.3261 -2.2415,0.1017 -2.7197,-0.1705 -3.0562,-1.7394 -0.4213,-1.9645 -0.3109,-4.2245 0.2564,-5.2496 0.6347,-1.1469 2.3651,-2.6229 3.9253,-3.3481 3.0459,-1.4159 7.2526,-0.5292 10.2356,2.1575 1.2919,1.1637 1.7883,2.4239 1.7499,4.443 -0.052,2.7377 -0.5833,4.8631 -2.7389,10.9563 -2.9238,8.2646 -3.5213,10.1458 -3.6458,11.4782 -0.08,0.8553 -0.034,1.5603 0.1218,1.8504 0.138,0.2577 1.187,1.0196 2.3311,1.6929 1.9042,1.1207 3.0035,2.0744 3.0035,2.6057 0,0.1143 -0.5339,0.7726 -1.1863,1.4629 -0.6525,0.6903 -1.3084,1.4895 -1.4577,1.776 -0.4286,0.8225 -0.086,1.8983 1.1064,3.4735 0.6024,0.7959 1.0953,1.5353 1.0953,1.643 0,0.2555 -1.2496,0.3992 -4.644,0.5339 -3.2476,0.1289 -5.5495,0.6601 -7.9053,1.8241 -1.3324,0.6584 -1.9995,1.2005 -3.6698,2.9826 -1.1228,1.1978 -2.8696,2.8785 -3.8817,3.7348 -1.7802,1.5061 -5.9579,4.3844 -7.5422,5.1965 -1.1889,0.6094 -3.4638,0.6506 -7.1872,0.1302 -5.2598,-0.7351 -9.6875,-0.9792 -15.2589,-0.8412 -5.8978,0.146 -9.2863,0.5153 -15.5851,1.6983 -5.6862,1.068 -6.9588,1.1982 -7.9839,0.8166 l 0,0 z"
       id="path3796"
       inkscape:connector-curvature="0" />
    <path
       style="fill:#ffffff;fill-opacity:1;stroke:#ffffff;stroke-width:0.55285937;stroke-linecap:round;stroke-linejoin:miter;stroke-miterlimit:4;stroke-opacity:1;stroke-dasharray:none;stroke-dashoffset:0"
       d="m 1543.9634,982.29617 c -0.2682,-0.1491 -0.8178,-0.7355 -1.2213,-1.303 -1.1008,-1.5483 -1.6242,-1.8685 -3.2667,-1.9985 -2.6126,-0.2068 -6.5227,-2.4151 -10.0202,-5.659 -1.0717,-0.994 -2.3654,-2.093 -2.8749,-2.4423 -2.658,-1.822 -5.8959,-2.8547 -9.7206,-3.1002 -1.4312,-0.092 -2.7049,-0.2698 -2.8305,-0.3954 -0.157,-0.157 -0.012,-0.774 0.4659,-1.9755 0.8512,-2.1422 0.7858,-2.7882 -0.4475,-4.4216 -1.1074,-1.4668 -1.2051,-1.7093 -0.9104,-2.2599 0.1678,-0.3137 4.4625,-3.8968 5.5162,-4.6023 0.042,-0.028 -1.0246,-3.367 -2.3699,-7.42 -3.2342,-9.7437 -3.6403,-11.4198 -3.661,-15.1092 -0.015,-2.7239 0.018,-2.9479 0.6265,-4.2663 0.7587,-1.6431 1.4425,-2.2742 3.1688,-2.9247 1.0695,-0.403 1.5957,-0.464 3.2653,-0.3783 2.4184,0.124 3.7894,0.5674 5.508,1.7814 1.9354,1.3671 2.6743,2.381 2.6743,3.6695 0,1.4604 -1.3507,3.2645 -3.0761,4.1086 -2.0376,0.997 -3.1057,0.408 -3.4729,-1.915 -0.3211,-2.0309 -2.1696,-4.1512 -3.4107,-3.9122 -0.6407,0.1234 -1.7856,2.2097 -2.0858,3.8009 -0.4718,2.5002 0.3179,5.2791 2.028,7.1368 1.0956,1.1902 2.3456,1.7955 4.2437,2.0551 2.8987,0.3964 5.951,-0.4004 8.0163,-2.0928 1.7906,-1.4673 3.4788,-1.7693 4.372,-0.7823 0.205,0.2265 0.4779,1.0953 0.6065,1.9307 0.5031,3.2687 1.6573,2.6852 2.6323,-1.3307 0.591,-2.4343 0.9836,-3.453 1.3308,-3.453 0.1431,0 0.7115,0.4976 1.2632,1.1058 1.4308,1.5772 1.8012,1.538 6.0448,-0.6398 3.71,-1.9039 4.8726,-2.3241 7.7134,-2.7876 2.8327,-0.4621 10.5712,-0.852 13.8391,-0.6972 5.0937,0.2413 7.6069,0.9449 11.2656,3.1539 2.2962,1.3864 3.3608,1.8552 4.2129,1.8552 0.6711,0 1.7757,-0.9563 1.9788,-1.7132 l 0.1634,-0.6088 0.1919,0.6635 c 0.1056,0.3648 0.5376,3.0759 0.96,6.0246 0.8166,5.6994 1.2009,7.5046 1.926,9.0472 0.3722,0.7919 0.5589,0.9611 1.0607,0.9611 0.7147,0 1.6973,-0.8862 2.1376,-1.9279 0.3606,-0.8533 0.3919,-3.6597 0.069,-6.2316 -0.1273,-1.0149 -0.2019,-1.8736 -0.1659,-1.9082 0.036,-0.035 1.0723,0.6121 2.3028,1.4372 3.1655,2.1224 4.3025,2.5315 7.0623,2.5412 2.1361,0.01 2.2894,-0.025 3.9262,-0.834 2.2552,-1.1146 4.1439,-2.8765 5.0445,-4.7058 0.6298,-1.2793 0.6867,-1.562 0.5892,-2.9253 -0.1443,-2.0166 -1.1803,-3.7206 -2.7132,-4.4626 -0.9064,-0.4388 -1.1427,-0.4703 -1.8776,-0.2501 -0.9939,0.2978 -1.3064,0.7369 -1.9564,2.749 -0.591,1.8298 -1.2139,2.7171 -2.2967,3.2716 -2.1058,1.0784 -4.5362,-0.1037 -5.7288,-2.7864 -0.6712,-1.5098 -0.6943,-4.0138 -0.05,-5.4181 1.9435,-4.2368 8.6113,-5.6152 13.4476,-2.78 1.2735,0.7465 3.3727,3.0273 3.9269,4.2664 0.6802,1.521 0.6282,3.9109 -0.1528,7.0237 -0.3351,1.3357 -1.7925,5.9273 -3.2385,10.2036 -1.446,4.2763 -2.6292,7.8969 -2.6292,8.0458 0,0.1489 0.8463,1.3132 1.8805,2.5874 1.0343,1.2741 1.9375,2.5433 2.007,2.8203 0.087,0.3446 -0.1891,1.102 -0.8726,2.3979 -0.5494,1.0417 -1.0602,2.2739 -1.1351,2.7382 -0.2721,1.6876 -0.3486,1.8566 -0.9461,2.09 -0.3311,0.1294 -1.8188,0.3101 -3.3061,0.4017 -3.4945,0.2152 -4.5076,0.6931 -8.089,3.8159 -5.7984,5.0559 -6.9468,5.9635 -8.604,6.7998 -2.3952,1.2088 -3.4632,1.2994 -6.9627,0.5903 -5.3328,-1.0806 -11.6771,-1.4301 -18.8641,-1.0394 -5.9336,0.3227 -8.8355,0.7133 -13.2686,1.7861 -3.9269,0.9504 -4.492,1.0148 -5.2423,0.5978 l 0,0 z m -7.9897,-30.3492 c 0.5527,-0.9492 0.7076,-2.7212 0.521,-5.9572 -0.1689,-2.9285 -0.3524,-3.3642 -1.1958,-2.8402 -0.9457,0.5876 -2.0174,5.3305 -1.6931,7.493 0.1769,1.1794 0.8861,2.1348 1.5164,2.0427 0.2534,-0.037 0.6366,-0.3693 0.8515,-0.7383 z"
       id="path3798"
       inkscape:connector-curvature="0" />
    <path
       style="fill:#ffffff;fill-opacity:1;stroke:#ffffff;stroke-width:0.55285937;stroke-linecap:round;stroke-linejoin:miter;stroke-miterlimit:4;stroke-opacity:1;stroke-dasharray:none;stroke-dashoffset:0"
       d="m 1538.7014,1028.3829 c -0.1216,-0.034 -0.4837,-0.1192 -0.8047,-0.1896 l -0.5837,-0.1279 0.6248,-2.9321 c 0.3436,-1.6127 1.5185,-6.7635 2.611,-11.4462 1.8319,-7.8528 3.1081,-13.90757 3.4491,-16.36457 0.6731,-4.8503 1.8181,-5.6398 11.0682,-7.63206 4.6929,-1.0108 8.0795,-1.4568 12.0523,-1.5872 4.5099,-0.148 6.3832,0.045 11.4108,1.1775 l 3.5602,0.8018 2.3871,7.87696 c 4.675,15.42667 8.0734,27.32777 8.0734,28.27287 0,0.4254 -1.319,0.3512 -6.7448,-0.3792 -7.1101,-0.9571 -13.6268,-1.2562 -20.1355,-0.9243 -6.0479,0.3083 -9.5441,0.7261 -18.6489,2.2281 -7.4248,1.2249 -8.0123,1.3115 -8.3193,1.2259 z"
       id="path3800"
       inkscape:connector-curvature="0" />
    <path
       style="fill:#ffffff;fill-opacity:1;stroke:#ffffff;stroke-width:0.55285937;stroke-linecap:round;stroke-linejoin:miter;stroke-miterlimit:4;stroke-opacity:1;stroke-dasharray:none;stroke-dashoffset:0"
       d="m 1530.0768,1069.0559 c -3.0226,-0.4391 -3.7231,-0.6142 -4.2415,-1.06 l -0.5655,-0.4865 0.482,-1.8686 c 0.2651,-1.0277 1.6638,-5.4511 3.1082,-9.8297 1.4444,-4.3787 3.0781,-9.4297 3.6305,-11.2246 1.6673,-5.4177 1.8017,-5.5611 6.2618,-6.679 7.2936,-1.8281 18.4881,-2.8473 31.4621,-2.8643 10.9741,-0.014 18.2899,0.5587 23.8776,1.8706 2.3296,0.5469 2.451,0.6608 3.8775,3.6384 2.0628,4.3054 5.7632,13.5911 7.8875,19.7923 0.7817,2.2821 2.3941,7.7988 2.3941,8.1913 0,0.085 -11.7676,0.2174 -26.1502,0.2939 -14.3826,0.077 -31.8226,0.1804 -38.7554,0.2308 -6.9329,0.05 -12.9038,0.048 -13.2687,0 l 0,0 z"
       id="path3802"
       inkscape:connector-curvature="0" />
    <path
       style="fill:#ffffff;fill-opacity:1;stroke:#000098;stroke-width:0.79574513;stroke-opacity:1"
       d="m 1394.3633,1147.7389 -10.2356,-25.9905 c 6.4673,-12.3896 11.5435,-20.6396 19.1478,-35.2767 1.6605,1.9421 15.0764,24.5558 21.2824,34.719 l -10.0086,24.942 c -5.9851,14.9153 -9.7045,27.5963 -9.7917,27.5963 -0.087,0 -4.7647,-11.6955 -10.3943,-25.9902 z"
       id="path3832-1-4"
       inkscape:connector-curvature="0"
       sodipodi:nodetypes="ccccsscc" />
    <path
       style="fill:#ffffff;fill-opacity:1;stroke:#000098;stroke-width:0.83684158;stroke-opacity:1"
       d="m 1410.9287,1151.5608 -10.7331,-27.4121 c 6.7816,-13.0674 12.1045,-21.7687 20.0784,-37.2065 1.7412,2.0484 15.809,25.8991 22.3166,36.6183 l -10.4949,26.3063 c -6.276,15.7312 -10.1762,29.1059 -10.2676,29.1059 -0.091,0 -4.9963,-12.3353 -10.8994,-27.412 z"
       id="path3832-1-7"
       inkscape:connector-curvature="0"
       sodipodi:nodetypes="ccccsscc" />
    <path
       style="fill:#ffffff;fill-opacity:1;stroke:#000098;stroke-width:0.88183647;stroke-opacity:1"
       d="m 1425.8535,1156.1378 -11.3311,-28.8327 c 7.1594,-13.7446 12.779,-22.8968 21.1971,-39.1346 1.8382,2.1545 16.6898,27.2412 23.56,38.5159 l -11.0796,27.6696 c -6.6257,16.5464 -10.7432,30.6142 -10.8397,30.6142 -0.097,0 -5.2746,-12.9745 -11.5067,-28.8325 z"
       id="path3832-1"
       inkscape:connector-curvature="0"
       sodipodi:nodetypes="ccccsscc" />
    <path
       style="fill:#ffffff;fill-opacity:1;stroke:#000098;stroke-width:0.37657487;stroke-opacity:1"
       d="m 1602.982,1115.4026 4.9587,-12.0148 c -3.1331,-5.7274 -5.5923,-9.5412 -9.2763,-16.3076 -0.8044,0.8978 -7.3038,11.3516 -10.3103,16.0498 l 4.8487,11.5301 c 2.8995,6.895 4.7014,12.7571 4.7436,12.7571 0.042,0 2.3083,-5.4066 5.0356,-12.0146 z"
       id="path3832-1-8-4-1"
       inkscape:connector-curvature="0"
       sodipodi:nodetypes="ccccsscc" />
    <path
       style="fill:#ffffff;fill-opacity:1;stroke:#000098;stroke-width:0.44374633;stroke-opacity:1"
       d="m 1592.9206,1118.295 6.1605,-13.4287 c -3.8925,-6.4015 -6.9477,-10.6641 -11.5245,-18.2268 -0.9994,1.0035 -9.074,12.6875 -12.8092,17.9386 l 6.0239,12.887 c 3.6022,7.7064 5.8408,14.2584 5.8933,14.2584 0.052,0 2.8677,-6.0428 6.256,-13.4285 z"
       id="path3832-1-8-2-7"
       inkscape:connector-curvature="0"
       sodipodi:nodetypes="ccccsscc" />
    <path
       style="fill:#ffffff;fill-opacity:1;stroke:#000098;stroke-width:0.54709977;stroke-opacity:1"
       d="m 1581.9732,1125.7889 7.2516,-17.3413 c -4.5818,-8.2666 -8.1782,-13.7712 -13.5655,-23.5373 -1.1764,1.2958 -10.6811,16.3841 -15.0778,23.1652 l 7.0907,16.6418 c 4.2402,9.9517 6.8753,18.4127 6.9371,18.4127 0.062,0 3.3756,-7.8035 7.3639,-17.3411 z"
       id="path3832-1-8-40"
       inkscape:connector-curvature="0"
       sodipodi:nodetypes="ccccsscc" />
    <path
       style="fill:#ffffff;fill-opacity:1;stroke:#000098;stroke-width:0.62194228;stroke-opacity:1"
       d="m 1569.5039,1131.1683 8.1467,-19.9479 c -5.1474,-9.5092 -9.1877,-15.8411 -15.2401,-27.0752 -1.3216,1.4905 -11.9996,18.8468 -16.939,26.6472 l 7.9659,19.1432 c 4.7637,11.4476 7.724,21.1804 7.7934,21.1804 0.07,0 3.7924,-8.9764 8.2731,-19.9478 z"
       id="path3832-1-48-9"
       inkscape:connector-curvature="0"
       sodipodi:nodetypes="ccccsscc" />
    <path
       style="fill:#ffffff;fill-opacity:1;stroke:#000098;stroke-width:0.61534405;stroke-opacity:1"
       d="m 1555.8703,1132.5782 7.7422,-20.5474 c -4.8918,-9.7949 -8.7314,-16.3171 -14.4833,-27.8888 -1.256,1.5353 -11.4036,19.4131 -16.0977,27.4479 l 7.5703,19.7185 c 4.5271,11.7916 7.3404,21.8169 7.4064,21.8169 0.066,0 3.604,-9.2461 7.8621,-20.5472 z"
       id="path3832-1-9-4"
       inkscape:connector-curvature="0"
       sodipodi:nodetypes="ccccsscc" />
    <path
       style="fill:#ffffff;fill-opacity:1;stroke:#000098;stroke-width:0.70717144;stroke-opacity:1"
       d="m 1540.5874,1139.2008 8.9377,-23.5075 c -5.6472,-11.206 -10.0797,-18.6677 -16.7197,-31.9065 -1.45,1.7565 -13.1646,22.2098 -18.5836,31.4021 l 8.7394,22.5591 c 5.2261,13.4904 8.4739,24.9599 8.55,24.9599 0.076,0 4.1605,-10.5781 9.0762,-23.5072 z"
       id="path3832-1-0-8"
       inkscape:connector-curvature="0"
       sodipodi:nodetypes="ccccsscc" />
    <path
       style="fill:#ffffff;fill-opacity:1;stroke:#000098;stroke-width:0.79574513;stroke-opacity:1"
       d="m 1524.8027,1145.0982 10.2356,-25.9905 c -6.4673,-12.3896 -11.5435,-20.6396 -19.1478,-35.2767 -1.6605,1.9421 -15.0764,24.5558 -21.2824,34.719 l 10.0086,24.942 c 5.9851,14.9153 9.7045,27.5963 9.7917,27.5963 0.087,0 4.7647,-11.6955 10.3943,-25.9902 z"
       id="path3832-1-4-8"
       inkscape:connector-curvature="0"
       sodipodi:nodetypes="ccccsscc" />
    <path
       style="fill:#ffffff;fill-opacity:1;stroke:#000098;stroke-width:0.83684158;stroke-opacity:1"
       d="m 1508.2373,1148.9201 10.7331,-27.4121 c -6.7816,-13.0674 -12.1045,-21.7687 -20.0784,-37.2065 -1.7412,2.0484 -15.809,25.8991 -22.3166,36.6183 l 10.4949,26.3063 c 6.276,15.7312 10.1762,29.1059 10.2676,29.1059 0.091,0 4.9963,-12.3353 10.8994,-27.412 z"
       id="path3832-1-7-2"
       inkscape:connector-curvature="0"
       sodipodi:nodetypes="ccccsscc" />
    <path
       style="fill:#ffffff;fill-opacity:1;stroke:#000098;stroke-width:0.88183647;stroke-opacity:1"
       d="m 1493.3125,1153.4971 11.3311,-28.8327 c -7.1594,-13.7446 -12.779,-22.8968 -21.1971,-39.1346 -1.8382,2.1545 -16.6898,27.2412 -23.56,38.5159 l 11.0796,27.6696 c 6.6257,16.5464 10.7432,30.6142 10.8397,30.6142 0.097,0 5.2746,-12.9745 11.5067,-28.8325 z"
       id="path3832-1-45"
       inkscape:connector-curvature="0"
       sodipodi:nodetypes="ccccsscc" />
    <path
       style="fill:#ffffff;fill-opacity:1;stroke:#000098;stroke-opacity:1"
       d="m 1448.2354,1164.6149 -12.9263,-32.5019 c 4.7671,-14.6786 9.5341,-29.3572 14.3012,-44.0358 l 9.88,-0.079 c 7.7391,-0.062 9.9131,-0.2371 10.0322,0.062 5.3089,15.3765 10.4252,27.7524 16.8445,43.3554 l -12.6394,31.1907 c -7.5584,18.6521 -12.2555,34.5102 -12.3656,34.5102 -0.1102,0 -6.0172,-14.6258 -13.1266,-32.5018 z"
       id="path3832"
       inkscape:connector-curvature="0"
       sodipodi:nodetypes="ccccccsscc" />
    <path
       style="fill:#ffffff;fill-opacity:1;stroke:none"
       d="m 1429.1624,777.16566 c -9.7503,-22.71754 -37.3366,-89.41163 -39.9211,-99.53693 4.2679,-1.35089 32.1467,-8.91969 35.4182,-9.51331 5.1674,29.49649 13.6137,78.61411 16.3964,104.74 -1.4665,-1.09754 0.6309,0.96468 -11.8935,4.31024 z"
       id="path3081"
       inkscape:connector-curvature="0"
       sodipodi:nodetypes="ccccc" />
    <path
       style="fill:#ffffff;fill-opacity:1;stroke:none"
       d="m 1409.9833,809.9433 c -21.2989,-15.73072 -91.2749,-64.47389 -101.3012,-73.08693 3.3801,-3.95881 26.2398,-28.58604 29.1052,-31.1868 23.8364,26.24194 63.8857,72.81408 81.2766,92.70596 -2.1317,-0.17281 1.2229,0.55782 -9.0806,11.56777 z"
       id="path3081-5"
       inkscape:connector-curvature="0"
       sodipodi:nodetypes="ccccc" />
    <path
       style="fill:#ffffff;fill-opacity:1;stroke:none"
       d="m 1318.1096,829.91598 c -11.68,-1.21925 -36.1843,-1.49944 -41.3717,-2.93324 0.3435,-2.91148 6.8134,-38.64822 7.2474,-40.74427 10.598,3.38153 21.692,7.25005 46.095,14.373 -0.7212,0.52089 -10.7239,20.95068 -11.9707,29.30451 z"
       id="path3081-1"
       inkscape:connector-curvature="0"
       sodipodi:nodetypes="ccccc" />
    <path
       style="fill:#ffffff;fill-opacity:1;stroke:none"
       d="m 1467.2456,751.24673 c 4.8459,-30.6272 10.697,-76.84403 13.0234,-84.05282 3.7665,0.87068 38.011,9.05834 40.7018,10.04485 -9.6841,22.74347 -26.8869,65.43749 -35.6562,81.77693 -0.6002,-1.42699 -7.2908,-4.76711 -18.069,-7.76896 z"
       id="path3081-7"
       inkscape:connector-curvature="0"
       sodipodi:nodetypes="ccccc" />
    <path
       style="fill:#ffffff;fill-opacity:1;stroke:none"
       d="m 1503.2991,782.36141 c 12.4601,-13.39357 57.7002,-65.35352 65.3827,-73.41759 2.7227,2.74435 27.6514,30.15606 29.4022,32.42501 -21.1429,14.26568 -67.0284,44.60359 -82.6816,53.3727 0.2528,-1.5273 -4.5839,-4.09519 -12.1033,-12.38012 z"
       id="path3081-7-1"
       inkscape:connector-curvature="0"
       sodipodi:nodetypes="ccccc" />
    <path
       style="fill:#ffffff;fill-opacity:1;stroke:none"
       d="m 1540.5903,816.81582 c 18.4352,-5.19557 73.5348,-23.03378 82.9194,-24.92814 0.8493,3.77142 7.4113,40.23757 7.6897,43.08995 -28.3508,0.58471 -55.5728,2.25164 -71.9507,1.62456 1.0254,-1.15979 -16.6879,-8.77284 -18.6584,-19.78637 z"
       id="path3081-7-1-1"
       inkscape:connector-curvature="0"
       sodipodi:nodetypes="ccccc" />
    <path
       style="fill:#ffffff;fill-opacity:1;stroke:none"
       d="m 1523.1872,747.66029 c -52.7991,63.25097 -38.9045,40.46781 -3.3117,-1.25907 l 33.8297,-43.10011 2.9087,2.53667 c 0.6775,0.59089 3.1058,2.66429 3.0956,2.70873 -0.012,0.0444 -17.4709,16.77966 -36.5223,39.11378 z"
       id="path3985"
       inkscape:connector-curvature="0"
       sodipodi:nodetypes="cccscc" />
    <path
       style="fill:#ffffff;fill-opacity:1;stroke:none"
       d="m 1518.8616,744.30365 c -40.3807,54.04296 -56.1517,68.40233 -3.3859,-1.04286 l 30.9793,-45.19232 3.0663,2.34379 c 0.7141,0.54595 3.2712,2.45842 3.2638,2.50342 -0.012,0.0449 -16.3522,17.87157 -33.9235,41.38797 z"
       id="path3985-2"
       inkscape:connector-curvature="0"
       sodipodi:nodetypes="cccscc" />
    <path
       style="fill:#ffffff;fill-opacity:1;stroke:none"
       d="m 1515.1476,739.94008 c -47.1591,67.24102 -36.7732,46.9687 -3.4349,-0.86793 l 28.8266,-44.89702 c 1.9375,1.11963 3.462,1.97629 4.8173,2.8165 0,0.0455 -13.8663,18.56228 -30.209,42.94845 z"
       id="path3985-2-3"
       inkscape:connector-curvature="0"
       sodipodi:nodetypes="ccccc" />
    <path
       style="fill:#ffffff;fill-opacity:1;stroke:none"
       d="m 1510.5452,737.38311 c -41.7838,66.17375 -31.8231,49.2672 -3.4716,-0.70681 l 26.7016,-46.19241 c 1.9877,1.02807 3.5504,1.81271 4.9434,2.5888 0,0.0457 -12.9856,19.18869 -28.1734,44.31042 z"
       id="path3985-2-3-2"
       inkscape:connector-curvature="0"
       sodipodi:nodetypes="ccccc" />
    <path
       style="fill:#ffffff;fill-opacity:1;stroke:none"
       d="m 1506.5296,735.62293 c -26.9427,48.35396 -42.1152,76.95649 -3.5141,-0.45117 l 23.254,-48.02053 c 2.0575,0.88004 3.6734,1.54836 5.1194,2.22057 0,0.0457 -11.5483,20.0865 -24.8593,46.25113 z"
       id="path3985-2-3-21"
       inkscape:connector-curvature="0"
       sodipodi:nodetypes="ccccc" />
    <path
       style="fill:#ffffff;fill-opacity:1;stroke:none"
       d="m 1465.0935,727.96466 c -3.4835,48.28761 -6.9714,44.5047 -3.4179,0.93319 l 1.9515,-54.75637 3.8447,0.33664 c 0.8956,0.0784 4.0792,0.32368 4.0971,0.3656 0.017,0.043 -4.2349,23.85067 -6.4754,53.12094 z"
       id="path3985-6"
       inkscape:connector-curvature="0"
       sodipodi:nodetypes="cccscc" />
    <path
       style="fill:#ffffff;fill-opacity:1;stroke:none"
       d="m 1459.6208,727.79998 c -0.3618,48.41173 -4.0864,44.86162 -3.3505,1.15161 l -1.5844,-54.76817 3.8585,0.0879 c 0.8987,0.0206 4.0916,0.0599 4.1121,0.10061 0.017,0.0433 -2.6877,24.07412 -3.0357,53.42801 z"
       id="path3985-2-8"
       inkscape:connector-curvature="0"
       sodipodi:nodetypes="cccscc" />
    <path
       style="fill:#ffffff;fill-opacity:1;stroke:none"
       d="m 1454.0492,726.46133 c 2.1202,48.36665 -1.7815,45.01219 -3.2871,1.32184 l -3.15,-53.26155 c 2.2252,-0.23644 3.9618,-0.44212 5.5519,-0.56143 0.027,0.0368 -0.272,23.16805 0.8852,52.50114 z"
       id="path3985-2-3-5"
       inkscape:connector-curvature="0"
       sodipodi:nodetypes="ccccc" />
    <path
       style="fill:#ffffff;fill-opacity:1;stroke:none"
       d="m 1448.8238,727.10591 c 2.2642,43.48983 2.5837,50.11914 -3.2218,1.47366 l -5.6303,-53.0567 c 2.2118,-0.34 3.9369,-0.62638 5.5197,-0.81972 0.027,0.0369 0.8087,23.15551 3.3324,52.40276 z"
       id="path3985-2-3-2-7"
       inkscape:connector-curvature="0"
       sodipodi:nodetypes="ccccc" />
    <path
       style="fill:#ffffff;fill-opacity:1;stroke:none"
       d="m 1444.5419,728.04875 c 6.1278,50.2813 6.2378,46.38733 -3.1055,1.70529 l -9.4932,-52.50333 c 2.1811,-0.50074 3.8806,-0.91246 5.445,-1.22096 0.027,0.0369 2.499,23.03445 7.1537,52.019 z"
       id="path3985-2-3-21-6"
       inkscape:connector-curvature="0"
       sodipodi:nodetypes="ccccc" />
    <path
       style="fill:#ffffff;fill-opacity:1;stroke:none"
       d="m 1406.5966,737.92333 c 30.0274,58.95166 36.0165,77.23457 -2.4747,2.53548 l -26.0454,-48.20486 3.4858,-1.65663 c 0.8119,-0.38593 3.6814,-1.78657 3.7181,-1.75949 0.037,0.0285 8.426,22.71105 21.3162,49.0855 z"
       id="path3985-6-1"
       inkscape:connector-curvature="0"
       sodipodi:nodetypes="cccscc" />
    <path
       style="fill:#ffffff;fill-opacity:1;stroke:none"
       d="m 1401.7941,740.55264 c 40.787,69.85947 24.2149,49.21023 -2.306,2.68971 l -29.1003,-46.42449 3.3716,-1.87811 c 0.7854,-0.43733 3.5586,-2.0203 3.5968,-1.99559 0.037,0.0287 9.8733,22.12024 24.4379,47.60845 z"
       id="path3985-2-8-8"
       inkscape:connector-curvature="0"
       sodipodi:nodetypes="cccsccc" />
    <path
       style="fill:#ffffff;fill-opacity:1;stroke:none"
       d="m 1396.3118,742.21973 c 39.091,57.40976 39.1293,63.195 -2.1652,2.80438 l -29.6874,-44.33252 c 1.7991,-1.3307 3.1924,-2.38746 4.5032,-3.29555 0.042,0.018 11.4975,20.11564 27.3494,44.82369 z"
       id="path3985-2-3-5-9"
       inkscape:connector-curvature="0"
       sodipodi:nodetypes="ccccc" />
    <path
       style="fill:#ffffff;fill-opacity:1;stroke:none"
       d="m 1392.1323,745.42165 c 53.2843,72.36312 38.8102,55.67247 -2.0319,2.90223 l -31.7225,-42.89987 c 1.735,-1.41322 3.0776,-2.53374 4.3446,-3.50198 0.042,0.0181 12.4231,19.55758 29.4098,43.49962 z"
       id="path3985-2-3-2-7-2"
       inkscape:connector-curvature="0"
       sodipodi:nodetypes="ccccc" />
    <path
       style="fill:#ffffff;fill-opacity:1;stroke:none"
       d="m 1388.6908,748.62962 c 35.8263,46.122 62.4527,75.62802 -1.8143,3.04309 l -34.7732,-40.46657 c 1.6272,-1.53628 2.8841,-2.75192 4.0769,-3.81013 0.042,0.0181 13.8193,18.59722 32.5106,41.23361 z"
       id="path3985-2-3-21-6-7"
       inkscape:connector-curvature="0"
       sodipodi:nodetypes="ccccc" />
    <path
       style="fill:#ffffff;fill-opacity:1;stroke:none"
       d="m 1563.1787,801.78635 c -8.589,3.1694 -15.4821,5.57 -20.7352,7.27949 -0.5189,0.16888 -1.082,0.20523 -1.5089,0.48648 -3.7559,2.47458 -0.047,-1.54379 -0.8265,-2.34802 -0.3623,-0.37362 1.2492,-0.73974 1.7619,-0.94733 4.9205,-1.99224 11.2883,-4.41741 19.0479,-7.1985 l 50.679,-20.82574 1.2804,3.64084 c 0.2983,0.84802 1.3891,3.84903 1.3583,3.88267 -0.032,0.0338 -23.4719,5.9882 -51.0569,16.03011 z"
       id="path3985-6-1-9"
       inkscape:connector-curvature="0"
       sodipodi:nodetypes="cssssccscc" />
    <path
       style="fill:#ffffff;fill-opacity:1;stroke:none"
       d="m 1561.0696,796.73373 c -6.1138,2.67363 -12.3486,5.37616 -18.2498,7.77765 -0.403,0.16399 -0.8044,0.32657 -1.2041,0.48765 -0.5158,0.20782 -1.0286,0.41313 -1.5384,0.61571 -0.8537,-1.29453 -5.3508,0.75467 -1.2151,-1.98549 0.5661,-0.37504 1.2461,-0.61248 1.9077,-0.94187 0.337,-0.1678 0.6807,-0.33943 1.031,-0.51465 4.5193,-2.26043 10.1432,-5.1166 16.8367,-8.01535 l 49.2302,-24.0511 1.5127,3.55059 c 0.3522,0.82707 1.6344,3.75151 1.6058,3.7869 -0.032,0.0338 -23.0367,7.48965 -49.9166,19.28996 z"
       id="path3985-2-8-8-5"
       inkscape:connector-curvature="0"
       sodipodi:nodetypes="csscsssccsccc" />
    <path
       style="fill:#ffffff;fill-opacity:1;stroke:none"
       d="m 1559.989,791.10639 c -7.5625,3.6147 -13.75,6.52071 -18.6142,8.75058 -0.5453,0.25001 -1.064,0.51483 -1.5862,0.72457 -1.2433,0.49942 -3.2503,1.4566 -2.7757,1.72924 1.3904,0.79864 -5.9302,0.6436 -1.5258,-1.79905 5.0346,-2.79213 12.3796,-6.80905 21.941,-11.85375 l 47.2116,-24.85517 c 1.1339,1.92919 2.0381,3.426 2.8032,4.82512 -0.022,0.0399 -21.2143,9.31587 -47.4539,22.47846 z"
       id="path3985-2-3-5-9-4"
       inkscape:connector-curvature="0"
       sodipodi:nodetypes="csssscccc" />
    <path
       style="fill:#ffffff;fill-opacity:1;stroke:none"
       d="m 1557.2449,786.61302 c -10.2533,5.30589 -18.2035,9.41796 -23.5703,12.12365 -0.3264,0.16456 -0.6439,0.32252 -0.9505,0.47803 -5.8125,2.94874 -4.0557,1.76543 -1.7339,-0.49395 0.3058,-0.29754 0.7402,-0.4662 1.1382,-0.71552 4.7479,-2.97389 12.1551,-7.4904 22.4443,-13.71836 l 46.0011,-27.02979 c 1.2227,1.87414 2.1957,3.32725 3.0252,4.68914 -0.022,0.0399 -20.7568,10.29507 -46.3541,24.6668 z"
       id="path3985-2-3-2-7-2-3"
       inkscape:connector-curvature="0"
       sodipodi:nodetypes="csssscccc" />
    <path
       style="fill:#ffffff;fill-opacity:1;stroke:none"
       d="m 1554.6186,783.10212 c -10.8838,6.62497 -18.8025,11.4881 -23.9728,14.62755 -0.4968,0.30161 -0.9043,0.74882 -1.4143,0.85714 -4.2807,0.9091 -6.6771,3.26253 -1.0925,-0.4083 0.6604,-0.43409 1.3354,-0.97525 2.0919,-1.52561 4.8449,-3.5249 12.1056,-8.7635 21.5525,-15.67537 l 43.9025,-30.31971 c 1.3565,1.77989 2.433,3.15779 3.3598,4.45537 -0.022,0.0399 -19.9487,11.78462 -44.4271,27.98893 z"
       id="path3985-2-3-21-6-7-1"
       inkscape:connector-curvature="0"
       sodipodi:nodetypes="csssscccc" />
    <path
       style="fill:#ffffff;fill-opacity:1;stroke:none"
       d="m 1567.5212,862.47022 c -46.6581,-12.91685 -42.2628,-15.59224 -0.2424,-3.53468 l 53.3019,12.68765 -1.0866,3.70331 c -0.2529,0.86261 -1.12,3.93575 -1.1646,3.9451 -0.046,0.009 -22.5511,-8.84519 -50.8083,-16.80138 z"
       id="path3985-6-1-2"
       inkscape:connector-curvature="0"
       sodipodi:nodetypes="cccscc" />
    <path
       style="fill:#ffffff;fill-opacity:1;stroke:none"
       d="m 1568.7595,856.91029 c -47.394,-9.88071 -43.1805,-12.83388 -0.4698,-3.51162 l 54.0092,9.22329 -0.8453,3.76568 c -0.1968,0.87712 -0.8639,3.99988 -0.9078,4.0119 -0.046,0.008 -23.0746,-7.3722 -51.7862,-13.48922 z"
       id="path3985-2-8-8-3"
       inkscape:connector-curvature="0"
       sodipodi:nodetypes="cccscc" />
    <path
       style="fill:#ffffff;fill-opacity:1;stroke:none"
       d="m 1571.1684,851.93768 c -47.8383,-7.43829 -43.7817,-10.60373 -0.6492,-3.48301 l 52.8401,7.39182 c -0.2056,2.22829 -0.346,3.97135 -0.542,5.55389 -0.042,0.0193 -22.6616,-4.82547 -51.6489,-9.4627 z"
       id="path3985-2-3-5-9-3"
       inkscape:connector-curvature="0"
       sodipodi:nodetypes="ccccc" />
    <path
       style="fill:#ffffff;fill-opacity:1;stroke:none"
       d="m 1571.5646,846.68757 c -43.0852,-6.33749 -49.6477,-7.32871 -0.8109,-3.44876 l 53.1273,4.91965 c -0.1018,2.2354 -0.1606,3.98317 -0.2825,5.57311 -0.042,0.0193 -22.8619,-3.76338 -52.0339,-7.044 z"
       id="path3985-2-3-2-7-2-4"
       inkscape:connector-curvature="0"
       sodipodi:nodetypes="ccccc" />
    <path
       style="fill:#ffffff;fill-opacity:1;stroke:none"
       d="m 1571.4828,842.30383 c -50.5042,-3.88574 -46.7079,-3.01173 -1.061,-3.38031 l 53.3449,1.02345 c 0.062,2.23698 0.1311,3.9842 0.1256,5.57874 -0.042,0.0193 -23.0758,-2.08235 -52.4095,-3.22188 z"
       id="path3985-2-3-21-6-7-11"
       inkscape:connector-curvature="0"
       sodipodi:nodetypes="ccccc" />
    <path
       style="fill:#ffffff;fill-opacity:1;stroke:none"
       d="m 1356.1539,778.15419 c 62.2409,41.12569 82.1607,57.89011 -0.9048,3.42553 l -46.4113,-29.12137 2.2175,-3.15875 c 0.5165,-0.7358 2.3238,-3.3682 2.369,-3.36271 0.046,0.007 18.52,15.61409 42.7296,32.2173 z"
       id="path3985-6-1-3"
       inkscape:connector-curvature="0"
       sodipodi:nodetypes="cccscc" />
    <path
       style="fill:#ffffff;fill-opacity:1;stroke:none"
       d="m 1353.2696,783.03467 c 82.0666,47.5111 56.5129,37.23351 -0.682,3.47667 l -48.1929,-26.06718 2.0091,-3.29526 c 0.468,-0.76747 2.1017,-3.51111 2.1471,-3.50842 0.046,0.007 19.4885,14.38701 44.7187,29.39417 z"
       id="path3985-2-8-8-8"
       inkscape:connector-curvature="0"
       sodipodi:nodetypes="cccsccc" />
    <path
       style="fill:#ffffff;fill-opacity:1;stroke:none"
       d="m 1349.3197,787.86593 c 106.1521,53.13354 56.4583,33.03452 -0.5029,3.50709 l -47.6734,-23.95742 c 0.9102,-2.04427 1.6021,-3.65025 2.2956,-5.0862 0.046,-0.005 19.9146,11.84241 45.8807,25.53653 z"
       id="path3985-2-3-5-9-7"
       inkscape:connector-curvature="0"
       sodipodi:nodetypes="ccccc" />
    <path
       style="fill:#ffffff;fill-opacity:1;stroke:none"
       d="m 1347.2596,792.71119 c 38.7728,19.82846 44.6702,22.87319 -0.3386,3.5266 l -48.7389,-21.70817 c 0.8138,-2.08451 1.4303,-3.721 2.056,-5.18774 0.046,-0.005 20.4452,10.90082 47.0215,23.36931 z"
       id="path3985-2-3-2-7-2-42"
       inkscape:connector-curvature="0"
       sodipodi:nodetypes="ccccc" />
    <path
       style="fill:#ffffff;fill-opacity:1;stroke:none"
       d="m 1345.9304,796.88935 c 46.5862,19.88713 43.2711,17.84113 -0.08,3.54198 l -50.1952,-18.08782 c 0.6594,-2.13851 1.1545,-3.81556 1.6712,-5.32404 0.045,-0.005 21.1872,9.3773 48.6039,19.86988 z"
       id="path3985-2-3-21-6-7-7"
       inkscape:connector-curvature="0"
       sodipodi:nodetypes="ccccc" />
    <path
       style="fill:#ffffff;fill-opacity:1;stroke:none"
       d="m 1334.6414,834.36336 c 48.4106,0.49998 44.8499,4.21449 1.1422,3.35385 l -54.7726,1.42791 0.099,-3.85817 c 0.023,-0.89866 0.072,-4.09138 0.1123,-4.11186 0.042,-0.0201 24.0664,2.75648 53.4191,3.18827 z"
       id="path3985-6-1-7"
       inkscape:connector-curvature="0"
       sodipodi:nodetypes="cccscc" />
    <path
       style="fill:#ffffff;fill-opacity:1;stroke:none"
       d="m 1334.8145,839.83577 c 48.3419,-2.62333 45.0282,1.31298 1.3559,3.27315 l -54.5663,4.95772 -0.1501,-3.85648 c -0.035,-0.89827 -0.1925,-4.08756 -0.1527,-4.11049 0.042,-0.02 24.1941,1.19846 53.5136,-0.26394 z"
       id="path3985-2-8-8-9"
       inkscape:connector-curvature="0"
       sodipodi:nodetypes="cccscc" />
    <path
       style="fill:#ffffff;fill-opacity:1;stroke:none"
       d="m 1333.8218,845.47931 c 48.144,-5.09791 45.0365,-0.99677 1.522,3.19942 l -52.966,6.42748 c -0.3732,-2.20641 -0.6856,-3.92701 -0.9026,-5.50679 0.035,-0.0293 23.1407,-1.15674 52.3466,-4.12011 z"
       id="path3985-2-3-5-9-31"
       inkscape:connector-curvature="0"
       sodipodi:nodetypes="ccccc" />
    <path
       style="fill:#ffffff;fill-opacity:1;stroke:none"
       d="m 1334.7874,850.65505 c 43.2675,-4.94099 49.8644,-5.66854 1.6695,3.1248 l -52.6088,8.89049 c -0.4757,-2.18657 -0.8679,-3.89079 -1.1584,-5.4587 0.035,-0.0293 23.0616,-2.23467 52.0977,-6.55659 z"
       id="path3985-2-3-2-7-2-9"
       inkscape:connector-curvature="0"
       sodipodi:nodetypes="ccccc" />
    <path
       style="fill:#ffffff;fill-opacity:1;stroke:none"
       d="m 1335.9923,854.87072 c 49.8079,-9.21597 45.9146,-9.08563 1.8935,2.99444 l -51.8182,12.71185 c -0.6342,-2.14609 -1.1499,-3.81688 -1.5542,-5.35932 0.035,-0.0293 22.8364,-3.91426 51.4789,-10.34697 z"
       id="path3985-2-3-21-6-7-8"
       inkscape:connector-curvature="0"
       sodipodi:nodetypes="ccccc" />
    <path
       style="fill:#000098;fill-opacity:1;stroke:#000098;stroke-width:2.5;stroke-miterlimit:4;stroke-opacity:1;stroke-dasharray:none"
       d="m 1617.3875,881.70686 c -11.8769,-3.29511 -40.4992,-5.55879 -46.1643,-9.11827 -1.8486,-1.16153 -31.9393,-5.48932 -34.7344,-7.95525 -6.227,-5.49356 0.3918,-14.52509 -3.9044,-16.92465 -7.0029,-3.91129 16.3794,-15.91716 12.5675,-19.77759 -3.8243,-3.87298 -4.9908,-6.80385 -5.7913,-14.55028 -0.6904,-6.68174 -1.2522,-8.5208 -3.1177,-10.20618 -2.2071,-1.99392 -4.8667,-2.79652 -10.7595,-3.24687 -10.4246,-0.79669 -13.8271,-2.86264 -20.1312,-12.22338 -1.7462,-2.59285 -3.6746,-4.9301 -5.0533,-6.12442 -2.8881,-2.50203 -21.8489,12.58984 -22.807,9.37265 -0.967,-3.24703 6.25,-11.82513 3.8294,-13.99605 -3.902,-3.49945 -7.052,-22.33429 -10.4893,-23.75083 -0.7892,-0.32521 -2.4189,-0.52053 -4.1099,-0.49257 -3.2526,0.0538 -3.0495,11.16867 -6.7678,13.44185 -5.5876,3.4159 -11.8707,-3.57768 -17.0633,3.36289 -4.4703,5.975 1.7599,22.99252 -3.7979,24.72915 -2.2915,0.71604 -3.829,2.80505 -5.3861,4.34392 -2.9458,2.91129 -12.1385,-9.97886 -13.3264,-0.15514 -1.1595,9.58867 -1.629,11.08813 -3.7467,11.96532 -1.719,0.71201 -4.3156,0.25726 -8.3258,-1.45809 -4.2656,-1.82459 8.8972,6.18424 5.6885,10.39941 -3.8625,5.07389 -19.5353,-1.10454 -23.3071,-1.10454 -3.5095,0 -6.7011,6.8022 -13.2087,0.23411 -5.697,-5.74993 -4.0509,-13.58784 -8.4615,-15.81452 -5.6493,-2.85205 -12.6778,-5.17836 -17.7596,-5.8781 -2.2878,-0.31501 -8.7837,0.64245 -12.7737,1.88275 -2.8653,0.89071 -3.6771,1.35846 -6.7252,3.87518 -7.0055,5.78414 -8.6081,8.18563 -9.6418,14.44862 -0.894,5.41671 -1.7602,8.13038 -4.2108,13.19071 -4.9101,10.13934 -10.0643,15.71122 -23.0253,24.89125 -3.1697,2.24503 -6.7761,5.04306 -8.0142,6.21782 -2.3296,2.21044 -3.4424,14.67751 -1.5141,12.63104 1.5087,-1.60107 13.1902,-2.8383 19.4604,-5.4027 10.1449,-4.14908 0.5423,4.67895 11.6802,-36.88516 1.2539,-4.67937 3.9075,-8.57352 4.4955,-11.90148 0.2355,-1.33297 0.6037,-3.42676 0.8182,-4.65288 0.5252,-3.00219 1.7464,-5.28332 4.3118,-8.05429 2.7558,-2.97656 8.335,-7.7115 9.705,-8.23633 3.3581,-1.28646 38.2701,12.93 42.2279,12.72974 3.8572,-0.19517 -25.4503,-15.30097 -21.9649,-14.40723 10.4725,2.68541 18.1149,6.89607 23.5604,12.98094 5.4713,6.11359 7.5555,7.52976 11.0935,7.53803 1.9546,0.005 2.613,-0.18504 4.4416,-1.27897 2.0529,-1.22818 4.7861,-4.09517 6.7883,-7.1207 0.5141,-0.77685 1.3261,-1.66889 1.8044,-1.98232 0.8132,-0.53282 1.0961,-0.46862 4.3527,0.98763 2.5387,1.13528 4.1217,1.60077 5.8396,1.7172 4.0324,0.27328 4.466,-0.56469 5.666,-10.952 1.5641,-13.53834 3.9594,-18.27142 10.3029,-20.35891 3.115,-1.02505 5.8434,-2.35586 7.5683,-3.69144 0.6979,-0.54037 3.0471,-3.33633 5.2205,-6.21324 2.1733,-2.87691 5.0019,-6.25383 6.2858,-7.50426 2.7149,-2.64421 7.0056,-5.59542 10.9842,-7.55503 2.694,-1.32693 2.9543,-1.38019 6.7446,-1.38019 l 3.9425,0 3.1564,1.81622 c 1.736,0.99892 5.174,3.17162 7.6399,4.82821 10.3063,6.92377 13.1721,9.94019 14.3808,15.13695 0.5315,2.28479 2.2807,4.78307 5.157,7.36528 1.0876,0.9764 3.3077,3.73792 4.9335,6.1367 4.4051,6.49946 8.0016,9.59297 12.5888,10.82817 0.8544,0.23005 3.7378,0.58451 6.4078,0.7877 2.241,0.17055 4.1261,0.41928 5.7252,0.76488 0.1277,0.0276 0.2536,0.0558 0.3776,0.0847 2.155,0.50089 3.7706,1.19094 5.0339,2.11995 2.3779,1.74872 3.0081,3.51686 3.8301,10.74486 0.8025,7.05773 1.5493,9.51542 3.8026,12.51424 2.8495,3.79228 9.7176,9.04325 16.9711,12.97506 4.1529,2.25112 5.842,3.45476 9.7142,6.92215 5.3134,4.75791 7.6699,6.69424 10.2395,8.41381 5.7962,3.8788 25.9397,24.51926 38.001,27.65145 2.643,0.68634 4.8988,1.34123 5.0128,1.45531 0.5091,0.50906 -1.9625,0.0628 -6.2687,-1.13195 z"
       id="path3785"
       inkscape:connector-curvature="0"
       sodipodi:nodetypes="cssssccsscsscsssssscscssssssscsscsscssssssccsccssssccsscsscsscsssscsssssccc" />
    <path
       sodipodi:nodetypes="ccsssscssccccsscssscssccsccssccscc"
       style="fill:#000098;fill-opacity:1;stroke:#000098;stroke-opacity:1"
       d="m 1546.295,901.60021 c 4.259,-141.63166 -231.1712,-28.48359 -264.3373,-16.622 -0.6766,-0.087 0.4362,-1.1038 3.465,-3.1648 9.9463,-6.7681 15.9311,-12.2912 20.3229,-18.7548 3.0813,-4.5348 6.5562,-12.2447 7.5977,-16.8573 2.3135,-10.2459 3.2324,-11.8739 9.5901,-16.9883 4.0401,-3.2501 6.4881,-4.3241 12.4122,-5.4454 4.4939,-0.8507 8.4542,-0.4137 14.4471,1.5941 8.3965,2.8131 11.9848,4.9263 18.0392,10.6235 7.8054,7.345 9.7512,8.6196 13.1358,8.6052 4.6327,-0.02 7.0321,-1.5832 12.9713,-8.4518 l 1.5564,-1.8001 4.0569,1.4003 c 4.6036,1.5889 6.74,1.7392 8.8933,0.6257 2.0183,-1.0437 2.5307,-2.5308 3.7739,-10.9532 2.2451,-15.2095 3.4896,-17.6005 10.6657,-20.4926 5.3816,-2.1687 6.9665,-3.4894 12.7867,-10.6552 7.5997,-9.3565 14.4235,-14.2605 20.876,-15.0028 3.3641,-0.387 5.3858,0.5296 14.3701,6.5153 8.0947,5.3929 11.7316,9.1348 13.5171,13.9073 1.1269,3.012 2.2269,4.7068 5.0168,7.7296 1.9654,2.1295 4.8429,5.6055 6.3945,7.7245 5.9433,8.1168 9.6679,10.1767 20.4811,11.327 2.8686,0.3052 6.086,0.9727 7.1497,1.4834 3.1694,1.5215 3.8979,3.0314 4.9808,10.3232 1.117,7.5213 1.6112,9.3943 3.124,11.8422 1.7352,2.8076 7.4316,7.9445 12.3141,11.1046 2.4921,1.6129 6.3303,4.0919 8.5293,5.5088 2.1989,1.4168 5.9261,4.1979 8.2827,6.1802 2.3565,1.9822 6.7116,5.4802 9.6778,7.7734 2.9663,2.2931 8.4747,6.903 12.2408,10.2443 5.925,5.2565 13.2436,11.1119 16.5209,13.2177 1.3521,0.8688 4.2808,1.0096 -52.8526,-2.542 z"
       id="path4201"
       inkscape:connector-curvature="0" />
  </g>
</svg>
