<?xml version="1.0" encoding="UTF-8" standalone="no"?>
<!-- Created with Inkscape (http://www.inkscape.org/) -->

<svg
   version="1.1"
   id="svg1"
   width="324"
   height="216"
   viewBox="0 0 324 216"
   sodipodi:docname="Flag_of_Vestfold_County_2024.svg"
   inkscape:version="1.4.2 (f4327f4, 2025-05-13)"
   xmlns:inkscape="http://www.inkscape.org/namespaces/inkscape"
   xmlns:sodipodi="http://sodipodi.sourceforge.net/DTD/sodipodi-0.dtd"
   xmlns="http://www.w3.org/2000/svg"
   xmlns:svg="http://www.w3.org/2000/svg">
  <defs
     id="defs1" />
  <sodipodi:namedview
     id="namedview1"
     pagecolor="#505050"
     bordercolor="#eeeeee"
     borderopacity="1"
     inkscape:showpageshadow="0"
     inkscape:pageopacity="0"
     inkscape:pagecheckerboard="0"
     inkscape:deskcolor="#505050"
     inkscape:zoom="2.32"
     inkscape:cx="161.85345"
     inkscape:cy="107.11207"
     inkscape:window-width="1288"
     inkscape:window-height="1001"
     inkscape:window-x="623"
     inkscape:window-y="0"
     inkscape:window-maximized="0"
     inkscape:current-layer="svg1" />
  <rect
     style="fill:#ee363d;stroke-width:1.5;stroke-linecap:square;fill-opacity:1"
     id="rect1"
     width="324"
     height="216"
     x="0"
     y="0" />
  <path
     class="st1"
     d="m 231.39801,69.28786 c -1.13182,0.650623 -2.3232,1.242106 -3.45501,1.892729 -2.44234,1.301246 -4.88468,2.54334 -7.38657,3.54885 -1.25095,0.47318 -2.50191,1.005511 -3.75285,1.596994 -2.08493,1.00551 -4.11027,2.306756 -5.53993,4.140333 -1.42966,1.833565 -2.14449,4.140333 -1.84665,6.447089 0.29785,2.602492 1.72751,4.909248 3.51459,6.683673 1.96578,1.951869 2.20405,3.371418 0.95309,5.559883 -0.35741,0.650619 -0.65525,1.360389 -0.95309,2.188449 -0.35742,-3.489707 -2.56148,-6.68367 -6.0165,-8.162359 -2.74016,-1.182954 -5.59948,-0.946371 -8.16095,0.118351 l -6.79088,2.661644 c -0.53613,0.236583 -1.01268,0.650623 -1.25096,1.182954 -0.23827,0.532319 -0.23827,1.182954 0,1.715273 l 3.09759,7.570907 c 0.89354,2.2476 2.79976,4.08118 5.24209,5.14583 3.63371,1.53784 7.62485,0.82806 10.48416,-1.59698 -0.0596,0.23659 -0.1787,0.47318 -0.23828,0.70977 -0.83397,2.36589 -1.78706,4.7318 -2.5019,7.15685 -0.9531,3.13482 -2.74017,9.46362 -3.75286,13.07162 -0.7744,2.77994 -1.78706,5.50073 -2.74017,8.22153 -0.65525,1.77442 -1.42965,3.25311 -2.85931,4.49521 -1.78708,1.47869 -4.16985,2.3659 -6.55262,2.3659 0,0 -8.69707,0 -8.69707,0 -0.17871,0 -8.04184,0.53234 -10.12676,-13.24906 0,0 -4.40812,-34.542199 -4.88466,-37.203843 2.14448,2.42506 5.24207,4.022044 8.75666,4.140334 3.21673,0.11835 6.25476,-0.946359 8.51838,-2.898228 0,0 7.44614,-6.742824 7.44614,-6.742824 0.53611,-0.473192 0.89354,-1.182954 0.89354,-1.951881 0.0596,-0.768915 -0.23828,-1.47869 -0.71484,-2.011009 l -6.07604,-6.506241 c -2.26362,-2.543352 -5.36122,-4.258625 -8.99494,-4.436069 -4.28898,-0.177443 -8.10139,1.833577 -10.48416,5.02754 0,-0.177444 0,-1.892717 0,-2.011009 0,-2.01102 0.83397,-3.312266 3.33587,-4.613524 3.03803,-1.656133 5.24208,-4.258625 6.25475,-7.452587 1.01268,-3.016531 0.83396,-6.269658 -0.41698,-9.227037 -0.53612,-1.360386 -1.31052,-2.602492 -2.08492,-3.785446 -0.83396,-1.242094 -1.66793,-2.425048 -2.5019,-3.608002 -2.08491,-3.075671 -4.0507,-6.328797 -5.65907,-9.700204 -1.60837,-3.371417 -3.455,-7.984929 -3.51457,-8.22152 0,0.236591 -1.90622,4.850103 -3.51457,8.22152 -1.60838,3.371407 -3.51459,6.624533 -5.65907,9.700204 -0.83397,1.182954 -1.66795,2.365908 -2.50191,3.608002 -0.7744,1.242106 -1.5488,2.4842 -2.08492,3.785446 -1.25095,2.957379 -1.37008,6.210506 -0.41699,9.227037 1.01268,3.193962 3.21673,5.796454 6.25476,7.452587 2.56148,1.360398 3.33588,2.661644 3.33588,4.613524 0,0.177432 0,1.892717 0,2.011009 -2.3232,-3.193963 -6.19519,-5.204983 -10.48417,-5.02754 -3.63372,0.177443 -6.73131,1.892717 -8.99493,4.436069 l -6.07605,6.506241 c -0.47655,0.532319 -0.7744,1.242094 -0.71484,2.011009 0.0596,0.709775 0.35743,1.41955 0.89354,1.951881 0,0 7.44614,6.742824 7.44614,6.742824 2.20406,1.951869 5.30165,3.016528 8.51839,2.898228 3.51458,-0.17744 6.61217,-1.715274 8.75666,-4.140334 -0.53614,2.602504 -4.88467,37.203843 -4.88467,37.203843 -2.08492,13.7814 -9.94804,13.24906 -10.12676,13.24906 0,0 -8.69707,0 -8.69707,0 -2.38277,0 -4.76553,-0.88721 -6.55262,-2.3659 -1.48922,-1.2421 -2.26362,-2.72079 -2.8593,-4.49521 -0.95311,-2.7208 -1.96579,-5.44159 -2.74019,-8.22153 -1.01267,-3.608 -2.79974,-9.9368 -3.75285,-13.07162 -0.71483,-2.42505 -1.66793,-4.79096 -2.5019,-7.15685 -0.0596,-0.23659 -0.1787,-0.47318 -0.23828,-0.70977 2.79975,2.3659 6.85045,3.13482 10.48416,1.59698 2.44234,-1.00551 4.34855,-2.89823 5.24208,-5.14583 l 3.09759,-7.570907 c 0.23828,-0.532319 0.23828,-1.182953 0,-1.715273 -0.23827,-0.532331 -0.71482,-1.00551 -1.25094,-1.182953 l -6.79088,-2.661644 c -2.56147,-1.064662 -5.42078,-1.242106 -8.16096,-0.118351 -3.45501,1.478689 -5.65907,4.672652 -6.0165,8.162358 -0.29783,-0.82806 -0.59568,-1.53783 -0.95309,-2.188449 -1.25095,-2.129325 -1.01267,-3.608014 0.95309,-5.559883 1.84665,-1.774424 3.21675,-4.140333 3.51459,-6.683673 0.29784,-2.306755 -0.41698,-4.613524 -1.84664,-6.447089 -1.42966,-1.833577 -3.45501,-3.134823 -5.53994,-4.140333 -1.25094,-0.591483 -2.50189,-1.064663 -3.75284,-1.596994 -2.56147,-1.00551 -5.003801,-2.247603 -7.386561,-3.54885 C 94.806052,70.589106 93.614677,69.938483 92.482856,69.28786 90.636221,68.28235 88.84915,67.2177 87.062069,66.093898 97.963212,85.671749 113.27247,125.2415 117.14446,182.79211 c 0,0 0.11914,1.65614 0.11914,1.65614 H 160.68948 162 206.7364 c 0,0 0.0596,-1.65614 0.11913,-1.65614 3.93155,-57.55061 19.18124,-97.120361 30.0824,-116.698212 -1.90621,1.123802 -3.75286,2.188452 -5.53992,3.193962 z"
     id="path2"
     style="fill:#ffd600;stroke-width:1" />
</svg>
