<svg width="1500" height="900" xmlns="http://www.w3.org/2000/svg">
  <path style="opacity:1;fill:#000;fill-opacity:1;stroke:none;stroke-width:0;stroke-miterlimit:0;stroke-opacity:1;stroke-dasharray:none;stroke-dashoffset:0" transform="translate(0 -152.36217)" d="M-.00000362 152.36217h1500v900h-1500z"/>
  <rect style="fill:#ffce08;fill-opacity:1;stroke:none" width="1499.0352" height="440" y="382.36218" ry="0" rx="0" transform="translate(0 -152.36217)"/>
  <path style="fill:#ffce08;fill-opacity:1;stroke:red;stroke-width:0;stroke-miterlimit:0;stroke-opacity:1;stroke-dasharray:none;stroke-dashoffset:0" d="M0 710h1500v80H0z"/>
  <path style="fill:#ffce08;fill-opacity:1;stroke:none;stroke-width:0;stroke-miterlimit:0;stroke-opacity:1;stroke-dasharray:none;stroke-dashoffset:0" d="M0 110h1500v80H0z"/>
  <path d="M746.08013 309.31245c-8.18648.93493-15.11786 1.94151-23.71875 4.40625-.18133 0-.57626-.558-.90625-1.25-2.74318-5.75251-11.15138-12.9336-19.9375-17.03125-3.29192-1.53528-10.5255-4.02218-11.6875-4.0625v.00005c-.0775-.003-.13581.011-.15625.0312-.46955.46489-1.35271 8.71376-1.6875 15.6875-1.00264 20.88561 2.96935 39.00987 11.25 51.28125l1.75 2.59375-1.9375 5.65625c-6.99242 20.40048-10.008 37.66828-10 57.03125.005 11.46735.61404 18.36423 2.5 28.3125 3.29942 17.40416 11.17565 37.06495 19.625 48.90625 5.76466 8.07886 14.59495 12.60399 26.3125 14.53125 2.89459.57629 4.18876.93799 7.21875 1.15625 3.6354.2292 7.1458.3334 10.9062-.0625 3.03-.21826 4.3554-.54871 7.25-1.125 11.7175-1.92726 20.5478-6.48364 26.3125-14.5625 8.4493-11.8413 16.3256-31.47084 19.625-48.875 1.886-9.94827 2.4952-16.84515 2.5-28.3125.01-19.36297-3.0076-36.66202-10-57.0625l-1.9375-5.625 1.75-2.625c8.2806-12.27138 12.2526-30.36439 11.25-51.25-.3348-6.97374-1.218-15.25386-1.6875-15.71875-.0204-.0202-.0788-.003-.15625 0-1.16206.0403-8.39566 2.52722-11.6875 4.0625-8.7862 4.09765-17.1943 11.27874-19.9375 17.03125-.33.692-.7561 1.25-.9375 1.25-7.34164-2.32286-15.63108-3.43966-23.6875-4.40625-3.14609-.35951-5.21855-.2232-8.18745.0312z" style="fill:#0b5e94;fill-opacity:1;stroke:none" transform="translate(-.00001092)"/>
  <path style="fill:none;stroke:#ff0;stroke-width:7;stroke-linecap:butt;stroke-linejoin:miter;stroke-miterlimit:4;stroke-dasharray:none;stroke-opacity:1" d="M679.94976 390.58579c-34.99807 7.69016-50.01331 17.36148-83.34683 35.47887-35.30818 19.19065-92.13846 62.63754-122.174 98.00641" transform="matrix(-1 0 0 1 1495.82398908 -.03942)"/>
  <path style="fill:none;stroke:#ff0;stroke-width:7;stroke-linecap:butt;stroke-linejoin:miter;stroke-miterlimit:4;stroke-dasharray:none;stroke-opacity:1" d="M190.6005 328.20711C366.66421 316.16912 504.00001 366.16667 591.50001 428.75" transform="matrix(-1 0 0 1 1495.82398908 -.03942)"/>
  <path style="fill:none;stroke:#ff0;stroke-width:5;stroke-linecap:butt;stroke-linejoin:miter;stroke-miterlimit:4;stroke-dasharray:none;stroke-opacity:1" d="M434.4246 319.4727C460.36913 333.86205 481.47565 337.47565 502.5 348c41.26761 17.17985 79.45396 35.18629 87.50001 46.625 18.48323-15.55433 51.28072-29.47947 76.69239-30.66053M308.34315 426.62132c56.625-9.91667 145.56728-16.31282 202.00061-13.65257 46.43783 2.18907 62.65625 5.57292 76.40625 13.53125 3.87838 1.93919 4.62838 2.18919 4.25 1.75" transform="matrix(-1 0 0 1 1495.82398908 -.03942)"/>
  <path d="M727.18072 310.27295c-11.29348 2.44718-20.5061 9.54593-20.5061 9.54593-6.71751-11.31371-6.71752-17.32411-6.71752-17.32411M773.58458 310.36133c11.29348 2.44718 20.5061 9.54593 20.5061 9.54593 6.71751-11.31371 6.71752-17.32411 6.71752-17.32411" style="fill:none;stroke:#ffce08;stroke-width:4;stroke-linecap:butt;stroke-linejoin:miter;stroke-miterlimit:4;stroke-dasharray:none;stroke-opacity:1" transform="translate(-.00001092)"/>
  <g style="fill:#0b5e94;fill-opacity:1">
    <path d="M613.625 351.15615c-26.11925-6.99171-80.49241-16.40284-139.875-24.3125-13.3131-1.77328-27.18155-3.72297-40.5312-5.1873-15.46227-8.73753-26.52-16.72502-35.65625-26.3125l-1.25-1.34375-.375.375c-.25121.26222-.2851.4024-.1875.5.0976.0976.0507.33439-.15625.84375-.691 1.70055-.94875 3.79141-1.03125 8.53125-.0667 3.83196.0452 7.38259.375 11.5l.15625 1.8125-2.125-.75c-11.96658-4.13995-28.06946-7.69519-44.875-9.9375-7.64071-1.01948-15.50649-1.79186-23.53125-2.3125l-.6563-.0626c-45.44422-2.38484-90.43058 2.67633-131.71875 11.3749-4.6678.99394-10.47998 2.2857-10.6875 2.375-.1362.0586.28313.20571 1.78125.6875 20.41601 10.50173 43.71776 21.91383 62 34 27.51211 18.61723 48.28616 43.91298 55.1875 67.125.44366 1.49217.88245 2.89184.96875 3.125.0863.23315.24705.4375.375.4375 8.45918.69806 17.35242 1.24634 25.5 2.28135 20.34114 2.60789 42.94259 8.20897 61.25 15.1875 29.1614 11.11593 52.2722 26.68355 67.5625 45.5 7.81033 10.85163 13.89896 20.35723 17.8125 31.84375 26.7938-4.40961 56.44805-6.5026 82.4375-2.25015 75.59857 12.36959 140.22917 65.86983 182.84977 106.02439l.14039-97.87558c-21.2069-1.9562-34.33872-10.03218-45.83387-30.38717-6.18908-10.95929-10.54196-25.86848-12.40625-32.29289-1.25536-4.32604-1.87012-7.43491-2.59375-12.75-1.8174-13.34876-2.23084-34.58145.3125-49.25 1.9127-11.03137 5.43747-22.2082 8.8437-32.1248-27.91207 3.39926-51.68789-11.35238-74.06249-16.37515z" style="fill:#0b5e94;fill-opacity:1;stroke:none" transform="translate(4.51756717)"/>
    <g style="fill:#0b5e94;fill-opacity:1">
      <path style="fill:#0b5e94;fill-opacity:1;stroke:#ffce08;stroke-width:7;stroke-linecap:butt;stroke-linejoin:miter;stroke-miterlimit:4;stroke-dasharray:none;stroke-opacity:1" d="M683.69976 390.33579c-34.99807 7.69016-53.76331 17.61148-87.09683 35.72887-35.30818 19.19065-92.13846 62.63754-122.174 98.00641M190.6005 328.20711C366.66421 316.16912 504.00001 366.16667 591.50001 428.75" transform="translate(4.51756717)"/>
      <path style="fill:#0b5e94;fill-opacity:1;stroke:#ffce08;stroke-width:5;stroke-linecap:butt;stroke-linejoin:miter;stroke-miterlimit:4;stroke-dasharray:none;stroke-opacity:1" d="M434.4246 319.4727C460.36913 333.86205 481.47565 337.47565 502.5 348c41.26761 17.17985 79.45396 35.18629 87.50001 46.625 18.48323-15.55433 51.28072-29.47947 76.69239-30.66053M308.34315 426.62132c56.625-9.91667 145.56728-16.31282 202.00061-13.65257 46.43783 2.18907 62.65625 5.57292 76.40625 13.53125 3.87838 1.93919 4.62838 2.18919 4.25 1.75" transform="translate(4.51756717)"/>
    </g>
  </g>
  <path d="M715.51758 365c19.11092 15.55635 46.35355 15.2028 69 0" style="fill:none;stroke:#ffce08;stroke-width:4;stroke-linecap:butt;stroke-linejoin:miter;stroke-miterlimit:4;stroke-dasharray:none;stroke-opacity:1" transform="translate(-.00001092)"/>
  <g style="fill:#0b5e94;fill-opacity:1">
    <path style="fill:#0b5e94;fill-opacity:1;stroke:none" d="M613.625 351.15615c-26.11925-6.99171-80.49241-16.40284-139.875-24.3125-13.3131-1.77328-27.18155-3.72297-40.5312-5.1873-15.46227-8.73753-26.52-16.72502-35.65625-26.3125l-1.25-1.34375-.375.375c-.25121.26222-.2851.4024-.1875.5.0976.0976.0507.33439-.15625.84375-.691 1.70055-.94875 3.79141-1.03125 8.53125-.0667 3.83196.0452 7.38259.375 11.5l.15625 1.8125-2.125-.75c-11.96658-4.13995-28.06946-7.69519-44.875-9.9375-7.64071-1.01948-15.50649-1.79186-23.53125-2.3125l-.6563-.0626c-45.44422-2.38484-90.43058 2.67633-131.71875 11.3749-4.6678.99394-10.47998 2.2857-10.6875 2.375-.1362.0586.28313.20571 1.78125.6875 20.41601 10.50173 43.71776 21.91383 62 34 27.51211 18.61723 48.28616 43.91298 55.1875 67.125.44366 1.49217.88245 2.89184.96875 3.125.0863.23315.24705.4375.375.4375 8.45918.69806 17.35242 1.24634 25.5 2.28135 20.34114 2.60789 42.94259 8.20897 61.25 15.1875 29.1614 11.11593 52.2722 26.68355 67.5625 45.5 7.81033 10.85163 13.89896 20.35723 17.8125 31.84375 26.7938-4.40961 56.44805-6.5026 82.4375-2.25015 75.59857 12.36959 140.22917 65.86983 182.84977 106.02439l.14039-97.87558c-21.2069-1.9562-34.33872-10.03218-45.83387-30.38717-6.18908-10.95929-10.54196-25.86848-12.40625-32.29289-1.25536-4.32604-1.87012-7.43491-2.59375-12.75-1.8174-13.34876-2.23084-34.58145.3125-49.25 1.9127-11.03137 5.43747-22.2082 8.8437-32.1248-27.91207 3.39926-51.68789-11.35238-74.06249-16.37515z" transform="matrix(-1 0 0 1 1494.51758907 0)"/>
    <g style="fill:#0b5e94;fill-opacity:1">
      <path d="M683.69976 390.33579c-34.99807 7.69016-53.76331 17.61148-87.09683 35.72887-35.30818 19.19065-92.13846 62.63754-122.174 98.00641M190.6005 328.20711C366.66421 316.16912 504.00001 366.16667 591.50001 428.75" style="fill:#0b5e94;fill-opacity:1;stroke:#ffce08;stroke-width:7;stroke-linecap:butt;stroke-linejoin:miter;stroke-miterlimit:4;stroke-dasharray:none;stroke-opacity:1" transform="matrix(-1 0 0 1 1494.51758907 0)"/>
      <path d="M434.4246 319.4727C460.36913 333.86205 481.47565 337.47565 502.5 348c41.26761 17.17985 79.45396 35.18629 87.50001 46.625 18.48323-15.55433 51.28072-29.47947 76.69239-30.66053M308.34315 426.62132c56.625-9.91667 145.56728-16.31282 202.00061-13.65257 46.43783 2.18907 62.65625 5.57292 76.40625 13.53125 3.87838 1.93919 4.62838 2.18919 4.25 1.75" style="fill:#0b5e94;fill-opacity:1;stroke:#ffce08;stroke-width:5;stroke-linecap:butt;stroke-linejoin:miter;stroke-miterlimit:4;stroke-dasharray:none;stroke-opacity:1" transform="matrix(-1 0 0 1 1494.51758907 0)"/>
    </g>
  </g>
  <g>
    <path d="M672.45291 578.96995c2.64438-4.04176 1.8136-30.52902 3.93198-47.87616 1.64581-13.47733 16.80371-26.965 23.46056-34.0859l20.27346.62331c-.3131 4.89501 1.2488 14.54001 4.8107 19.93502-11.54163.67399-30.39389 11.92446-33.56308 17.79899-2.69662 4.99855-5.65686 47.97235-5.65686 47.97235-.96282 3.04861-12.84711 10.57742-15.26344 13.39582-3.26264 3.80553-7.35783 12.75814-8.16054 15.76041-1.9571-5.37602-1.32407-21.014.73222-23.25255zM827.30406 578.96995c-2.64438-4.04176-1.8136-30.52902-3.93198-47.87616-1.64581-13.47733-17.65938-27.23003-24.31623-34.35093l-19.41779.88834c.3131 4.89501-1.2488 14.54001-4.8107 19.93502 11.54163.67399 30.39389 11.92446 33.56308 17.79899 2.69662 4.99855 5.65686 47.97235 5.65686 47.97235.96282 3.04861 12.84711 10.57742 15.26344 13.39582 3.26264 3.80553 7.35783 12.75814 8.16054 15.76041 1.9571-5.37602 1.32407-21.014-.73222-23.25255z" style="fill:#0b5e94;fill-opacity:1;fill-rule:evenodd;stroke:#ffce08;stroke-width:5;stroke-linecap:butt;stroke-linejoin:miter;stroke-miterlimit:4;stroke-dasharray:none;stroke-opacity:1" transform="translate(.29535346)"/>
  </g>
  <g transform="translate(5.23682487)">
    <circle style="opacity:1;fill:#ffce08;fill-opacity:1;stroke:none;stroke-width:.8;stroke-linecap:round;stroke-miterlimit:4;stroke-dasharray:none;stroke-opacity:1" cx="716.43701" cy="329.71838" r="4.5"/>
    <circle style="opacity:1;fill:#ffce08;fill-opacity:1;stroke:none;stroke-width:.8;stroke-linecap:round;stroke-miterlimit:4;stroke-dasharray:none;stroke-opacity:1" cx="773.43701" cy="329.71838" r="4.5"/>
  </g>
  <g>
    <path style="fill:#ffce08;fill-opacity:1;fill-rule:evenodd;stroke:none;stroke-width:1px;stroke-linecap:butt;stroke-linejoin:miter;stroke-opacity:1" d="M789.86579-341.6126c-1.72564.31734-6.21441.93554-10.92333-.10981-5.46829-1.21393-9.6809-12.52169-9.87989-19.20524-.14699-4.93698 3.8771-14.44842 10.08332-14.53123 3.09569-.0413 7.28347-.17931 9.00673 2.16666.66695.90796.93727 1.66134 1.43923 2.88753.1302.31804.56936.48799.81584.49983.23003.0111.30665.0116.46005.0116.1534 0 .23002-.0005.46005-.0116.24648-.0118.68564-.18179.81584-.49983.50196-1.22619.77228-1.97957 1.43923-2.88753 1.72326-2.34597 5.91104-2.20796 9.00673-2.16666 6.20622.0828 10.23031 9.59425 10.08332 14.53123-.19899 6.68355-4.4116 17.99131-9.87989 19.20524-4.70892 1.04535-9.19769.42715-10.92333.10981-.47795-.0882-.66662-.0902-1.00195-.0902-.33533 0-.524.002-1.00195.0902z" transform="translate(-40.69390393 708.55785)"/>
    <g transform="translate(-40.701192 708.55785)" style="fill:#000;stroke:none">
      <ellipse transform="rotate(6.571)" ry="4.125" rx="7.25" cy="-448.95776" cx="735.20306" style="opacity:1;fill:#0b5e94;fill-opacity:1;stroke:none;stroke-width:1;stroke-linecap:square;stroke-linejoin:miter;stroke-miterlimit:4;stroke-dasharray:none;stroke-dashoffset:7.05;stroke-opacity:1"/>
      <ellipse transform="scale(-1 1) rotate(6.571073)" ry="4.125" rx="7.25" cy="-267.94922" cx="-836.15594" style="opacity:1;fill:#0b5e94;fill-opacity:1;stroke:none;stroke-width:1;stroke-linecap:square;stroke-linejoin:miter;stroke-miterlimit:4;stroke-dasharray:none;stroke-dashoffset:7.05;stroke-opacity:1"/>
    </g>
  </g>
</svg>
