<svg xmlns="http://www.w3.org/2000/svg" width="500" height="300">
  <path d="m-1830.0001 932.00003 3184.0002-2M-3100-330l95 575M-3125-330h-60" style="fill:none;stroke:#000;stroke-width:1px;stroke-linecap:butt;stroke-linejoin:miter;stroke-opacity:1"/>
  <g style="opacity:1">
    <path style="fill:#0035ad;fill-opacity:1;stroke:none" d="M-3100-923.86792h2948.1133v1768.8679H-3100z" transform="translate(525.76 156.688) scale(.1696)"/>
    <path d="M-2150.5971-32.633836c2.373-2.55 3.0104-6.178916 4.1802-9.3414 1.1699-3.162516 2.5874-6.875208 4.9541-9.5587 3.0673-3.47791 5.5097-8.33082 9.827-11.80873l-7.4232-5.0098c-2.9819-2.4146-15.451-3.8006-19.0609-3.1228-7.9889 1.5-22.7358 9.022967-27.4316 18.0977-4.9658 9.596404-7.5048 13.59023-7.5674 15.21273 2.7901 5.445067 15.2196-7.204325 11.0937 8.0971-.9543 3.539032 6.5466-.714089 8.1109-1.2 8.5065-2.642299 14.3894-3.335857 23.3172-1.3661z" style="fill:#ffce00;fill-opacity:1;stroke:#00204e;stroke-width:3;stroke-miterlimit:4;stroke-opacity:1;stroke-dasharray:none" transform="translate(525.95382312 154.99066864) scale(.1696)"/>
    <g style="stroke:#00204e;stroke-width:3;stroke-miterlimit:4;stroke-opacity:1;stroke-dasharray:none">
      <path style="fill:#ffce00;fill-opacity:1;stroke:#00204e;stroke-width:3;stroke-miterlimit:4;stroke-opacity:1;stroke-dasharray:none" d="M-2067.9003-751.6613c66.1338-3.8202 84.3564-10.5368 105.8744-29.44021 6.6571-5.84821 6.304-7.15967 8.8306-12.14651-15.0602 8.74717-41.4831 20.85173-78.3097 20.50688-13.8224-.12944-27.9463-.21033-57.2489-2.35845-29.8373-2.18732-68.5317-3.63202-83.4072.45414-13.0755 3.59172-29.3608 8.3898-33.7018 14.23792-.6937 1.1224-1.6627 11.36196 1.2695 9.86726 4.0399-.79086 17.3146-4.61253 23.6066-5.82133 9.4585-1.8172 14.2259 1.79119 24.1473 2.26869 18.8547.9074 34.1401 3.01056 45.4976 8.96376 2.9978 1.5714 13.653-3.69705 17.4416-4.05345 2.75-.2587 14.4166-1.80959 26-2.4787z" transform="translate(525.95382312 154.99066864) scale(.1696)"/>
      <path style="fill:#ffce00;fill-opacity:1;stroke:#00204e;stroke-width:3;stroke-miterlimit:4;stroke-opacity:1;stroke-dasharray:none" d="M-1971.5373-695.03641c3.9886-.87277 13.2754-3.07826 15.3891-4.50446l10.6119-7.1602c-38.6066 9.641-85.4779-7.05247-140.3319-34.64606-32.295-17.73208-49.4306-20.8214-77.3856-21.0595-11.3396-.097-18.1169 1.48049-25.2718 3.12886-14.22 3.276-21.2082 6.87573-21.662 10.60132-.3535 2.9031 5.7219 10.49605 10.3682 13.3821 2.9542 1.3976 7.498 5.03627 23.1568 2.69706 7.9813-1.1923 45.6939-5.79011 55.6435 16.90392 10.0103 1.52502 19.5418 4.92979 30.4331 8.05163 17.6868 5.06968 65.2428 12.61168 70.1857 13.44227 21.4408 3.60283 41.7651.71619 48.863-.83694z" transform="translate(525.95382312 154.99066864) scale(.1696)"/>
    </g>
    <path d="M-2579.2264-340.48468c-.2582 1.62754-.4278 3.70173.5778 3.70829 1.0713.007 9.6877-3.15976 13.3252-4.97545 3.4445-1.71933 12.133-2.56733 13.0684-3.3091 1.014-.8041 3.0169-6.38109 3.8565-8.73838 1.8497-5.19258 4.1147-9.33698 6.2595-13.06522.4961-.86243 2.5116-2.68771 3.1928-3.41284.8997-2.35548 5.2465-6.92067 3.3177-8.12711-3.1824-1.9907-16.2928-6.92086-18.6553-7.82306-4.2055-1.6061-9.3787 2.39368-15.6135 5.04358-7.9966 3.3986-10.5493 7.66846-15.4151 18.15936-3.0207 6.51305-5.7565 13.93335-4.896 15.66033 1.3198.25936 6.4696-1.08694 9.0578-1.08694.8978 0 3.3665.30065 3.7481.2027-1.0794 3.91378-1.1515 3.52643-1.8239 7.76384zM-2602.6373-580.25107c2.8028 6.21576 11.4382 14.2428 12.3552 15.6407 2.0521 3.12835 3.8509 5.26697 6.8568 8.07821 2.7036 2.52846 9.9933-.68846 17.7143-1.89981 3.8167-.59881 14.3138-4.213 14.4657-4.365.152-.1519-.1171-4.7265.013-8.0269.2375-6.01281-1.2807-7.74102-3.7216-12.69893-1.1323-2.29993-5.5043-5.4854-7.6967-7.00877-3.2685-2.27108-10.0849-3.34293-18.2411-3.5482-10.1756-.25609-19.045-.0234-18.7462 4.9118.061 1.00234 3.757 3.6096 4.6291 4.6557-2.8875.5162-8.739 1.79884-7.6287 4.2612z" style="fill:#ffce00;fill-opacity:1;stroke:#00204e;stroke-width:3;stroke-linecap:round;stroke-miterlimit:4;stroke-opacity:1;stroke-dasharray:none" transform="translate(525.95382312 154.99066864) scale(.1696)"/>
    <path d="M-2564.5658-573.15277c-4.7135-4.0345-5.627-10.1828-30.9596-11.0588" style="fill:#ffce00;fill-opacity:1;stroke:#00204e;stroke-width:3;stroke-linecap:round;stroke-miterlimit:4;stroke-opacity:1;stroke-dasharray:none" transform="translate(525.95382312 154.99066864) scale(.1696)"/>
    <path d="M-2442.0293-577.10677c-1.2354-1.1538-4.8521-5.07201-9.1105-6.4942-5.0504-1.6867-10.2481-4.4579-13.6755-8.9222m-8.0106 2.6985c-2.0178.50736-7.2539.71744-22.6995 1.054-9.3161.203-27.7538-1.34796-36.375-4.3484-2.4403-.84929-10.0752-3.9026-11.0838-3.837-1.0086.066-5.1675 2.46101-8.1726 4.6939l-7.8389 5.8246c2.3532 4.89761 4.1367 9.69124 4.0626 15.6357-.042 3.37816-2.2564 7.69743.027 10.4109 2.5459 3.02563 9.4211 10.71863 12.0415 9.96237 2.8606-.82558 5.1972-2.00314 9.5601-2.78397 11.4297-2.04555 29.1347-3.2327 42.4043-2.8434 10.3869.3048 27.9874 4.3083 31.8299 6.3648 3.7056 1.9831 11.2142 11.21185 19.6398 24.1387 21.9675 33.7034 28.0759 42.07769 28.7418 48.6401 1.6413-1.091 15.7158-7.6004 16.3324-9.9379 5.3685-20.354 15.6106-30.46384 21.2846-45.893 1.4286-3.88461 2.2629-4.49777 2.1444-7.99665l-15.742-9.99906c-12.7597-8.10474-24.215-19.97898-34.3632-30.67018-10.8969-11.47998-15.2478-14.02391-26.2334-14.85481-6.3115-.4773-10.503-1.36372-13.3736-2.8282-3.3859-1.72737-5.3936-2.95998-6.5183-3.83534-.6878 3.31809.3891 8.99385 1.9366 11.07858-2.7053 1.30579-5.7862 1.56705-7.6045 2.02426z" style="fill:#fff;stroke:#00204e;stroke-width:3;stroke-linecap:round;stroke-miterlimit:4;stroke-opacity:1;stroke-dasharray:none" transform="translate(525.95382312 154.99066864) scale(.1696)"/>
    <path d="M-2373.3474-90.975266c-.1169 1.687326 7.6534-1.427919 13.4022-1.5557 3.2615-.0725 7.3051 3.450986 9.8296 4.2565 1.0264.327511 4.8636-4.816619 6.6634-7.569204 3.1248-4.7791 5.7457-9.38374 7.9714-11.6034 2.5977-2.59063 10.969-7.5923 10.5865-8.5892-.9512-2.4788-20.0488-11.74855-25.0686-10.557-19.8067 4.7015-21.7928 9.4493-24.8438 13.7741-2.4691 3.4999-7.1562 14.4997-7.1562 15.873204 0 .5683 3.3723 2.147468 9.2942 1.008098-.7529 1.064964-.5649 3.319949-.6787 4.962602z" style="fill:#ffce00;fill-opacity:1;stroke:#00204e;stroke-width:3;stroke-linecap:round;stroke-miterlimit:4;stroke-opacity:1;stroke-dasharray:none" transform="translate(525.95382312 154.99066864) scale(.1696)"/>
    <path d="M-2372.4295-96.31357c4.7234-8.62582 8.4799-19.3598 19.7709-18.8313" style="fill:#ffce00;fill-opacity:1;stroke:#00204e;stroke-width:3;stroke-linecap:round;stroke-miterlimit:4;stroke-opacity:1;stroke-dasharray:none" transform="translate(525.95382312 154.99066864) scale(.1696)"/>
    <path d="M-2307.6714-120.74397c3.9757-5.29687 11.028-11.1948 22.0881-18.4697 11.7463-7.7263 21.549-11.7783 33.6831-15.9034 9.3022-3.1624 29.0355-6.5889 40-7.8007 3.4375-.3799 15.125 1.4819 12.375-3.9181-.1815-.35644-2.7536-2.7044-6.1191-5.1208-3.3655-2.4165-6.6326-4.8436-7.2604-5.3936-.6277-.55-4.0702-3.5343-7.65-6.6318-7.9646-6.8916-17.4705-18.0591-19.7205-23.3415-1.0464-2.45663 1.5319-3.7817 5.125-5.8236 10.6261-6.0386 26.2095-11.52374 36.375-12.0233 2.3333-.11467 18.9338-.72565 21.2671-.84032 44.1587-46.57576-24.7791-110.71385-55.5346-98.98136l-7.4597 4.91158-6.7008 3.6783c-9.2856 5.09719-21.4524 12.4804-27.0667 17.0843-17.5988 14.432-36.6117 30.7768-43.0049 40.1609-1.5117 1.9563-4.6886 6.3318-6.6016 8.8068-1.913 2.475-4.3612 7.2-5.4405 10.5-1.7176 5.2514.237 22.6295-7.688 29.8577 2.7867.52991 4.7684.18444 7.2672-.35608 4.2498-.91929 10.2873-5.59912 13.5846-9.35062 4.3844-4.9475 4.6714-7.8708 4.7134-11.2579.027-2.1872.4063-2.7147 1.6173-2.25.87.3338 1.77.6069 2 .6069 1.369 0 .026 5.9934-2.1906 9.7758-3.0646 5.2295-4.8489 7.2821 2.1896 16.837 9.2993 12.624 16.5579 17.4936 25.2416 25.7967 3.5461 3.3907 4.3036 3.7309 5.7093 2.5643 2.6812-2.2252.8932-1.3048-1.6172 1.3673-1.9625 2.089-6.688 4.41062-50.4145 24.7679 0 0-12.362 5.20874-22 10.2423-2.6325 1.37484-2.5192 5.49546-2.8262 8.4494-.2757 2.65332.04 7.59575.04 7.59575l6.0896 1.31295c5.2994 1.14259 12.7179 5.1789 17.6867 8.9729 4.0105 3.0623 4.8046 2.9427 9.3911 2.9427 5.0921 0 6.0608.27863 7.9728-2.2687z" style="fill:#fff;stroke:#00204e;stroke-width:3;stroke-miterlimit:4;stroke-opacity:1;stroke-dasharray:none" transform="translate(525.95382312 154.99066864) scale(.1696)"/>
    <path d="M-2069.1465-238.5107c4.9505-9.90451 7.9033-18.81328 9.834-24.08305 2.1289-5.81092 4.0887-7.73354 4.4687-23.375.2807-11.5557-.2399-14.875-1.0312-18.125M-2165.284-191.15717c2.0796-7.06574 2.2428-22.1386-4.1848-26.78033" style="fill:#fff;stroke:#00204e;stroke-width:3;stroke-linecap:round;stroke-linejoin:round;stroke-miterlimit:4;stroke-opacity:1;stroke-dasharray:none" transform="translate(525.95382312 154.99066864) scale(.1696)"/>
    <path d="M-2226.6562-762.96875c-17.7713.033-37.9959 8.50497-52.4063 17.8125-3.2875 2.1756-9.2523 3.04895-21.7813 5.71875-2.1999.4688-13.6126 4.00495-22.6874 6.78125-9.075 2.7763-18.3635 5.0608-20.6563 5.0625-3.0684-1-7.4742 1.1243-13.2813 4.125-9.3685 4.8412-13.4853 9.27355-12.9687 19.6875.2015 4.06104.2316 4.70704.4063 5.65625.2343 1.27502.3132 2.24787 1.4062 2.625.6696.23105 2.2906.40443 4.3125.46875l.375 8.5625c.3701 1.7134 3.1363 6.0093 4.0313 7.875 1.4274 2.9759 1.9726 2.31601 7.75 3.46875 3.0446.6075 4.6332 1.03675 6.3124 1.53125.9975 3.68719 2.0802 8.7488 2.0938 9.9375.082 7.22563-1.8637 11.22405-4.5938 16.59375-6.6898 13.1593-8.104 26.26385-.4687 36.03125l6.5937 6.4375.7188-2.5c.4008-1.375-2.6155-9.9408-1.9688-12.3125.6472-2.3717 3.4851-5.6581 5.375-7.75 3.1569-3.49414 3.9389-4.63289 3.5626-6.75 2.7991 10.0419 13.3155 19.58146 15.375 20.21875.8229.2546-1.3672-6.89895-1.3438-9.09375.049-4.6265 2.4991-12.1738 5.5-19.5 3.5133-8.5767 4.3213-14.6343 2.7188-20.0625-1.2239-4.1447-1.7084-6.498-4.25-6.125-1.7134.25148-1.4312-.15839-2.0626-.21875 3.614-.0933 10.7303.70241 14.1563 1.59375 11.0086 3.8176 26.3683 9.53031 35.5313 15.9375l-5.5938 11c-8.0925 15.94205-21.3173 29.59963-41.9688 47.84375-26.1763 23.12505-55.2953 36.88007-76.25 63.9375-6.3341 8.17899-12.7887 23.81338-15.3437 32.75l-2.6875 9.34375c-16.5085 1.73518-36.5025 2.6805-65.5938 2.09375-8.6768-.17501-19.1359-.0991-27.8124.875-7.4168.8326-9.0298 7.02353-19.3438 12.21875-1.2988.65419-5.6061 2.67687-8.0312 3.6875.9765.37765 1.1102.88356 2.0312 1.15625 2.087.61788 2.9255 1.28928 5.9062 2.5.6456.26219 1.7185.53086 3 .8125-4.6671 7.56975-4.6937 7.14369-6.3437 10.03125-1.6499 2.88744-6.0099 8.53814-9.5 13.3125-3.49 4.77434-8.808 12.6493-12.25 17.5-3.4419 4.8506-17.4284 22.54309-17.8437 24.5-.9305 4.38369-.4174 6.0337.375 12.375.5904 4.7258 3.2663 1.625 5.1874 1.625 4.0209 0 11.9762 3.25175 17.6876 7.21875l5.6562 3.90625 5.3438-3.15625c2.9519-1.7271 6.05-3.48585 6.875-3.90625.8249-.4204 2.7464-4.30665 4.2812-8.65625 3.5665-10.1077 12.4913-28.9759 16.75-35.1875 4.4547-6.4975 11.6143-13.88365 16.4688-17.21875l4-2.75 19.5.40625c21.2312.43068 41.1769 2.96318 57.2812 7.15625-1.1256.0318-.1207 9.54167.7188 15.53125 1.0479 7.47772 8.7872 20.98272 18.4687 32.4375 3.1389 3.71377 5.0639 7.25092 5.7187 9.8125 1.0456 4.08963 1.9565 7.88725 1.5 11.34375 5.7457-3.14504 9.2886-11.0587 9.625-16.75 2.8439 2.44535 5.6177 4.98188 8.5313 7.34375 8.7607 7.10169 25.6777 17.4182 37.6563 22.625 11.6361 5.05795 31.7975 13.51311 38.7812 15.59375 4.125 1.22896 10.1387 2.68544 11.4375 3.1875 4.116 1.59108 8.6438 3.4922 12.0313 4.625 9.0583 3.0292 13.188 6.43626 20.4062 10.90625 22.032 13.6436 34.3762 26.07455 46.5938 40.53125l6.8437 7.65625c-6.4262 24.70691-3.4276 56.00484 5.125 75.34375 3.0106 6.80758 3.1087 8.24269 3.4375 13.3125.1337 2.06249.4998 6.36834-.4375 10.78125 5.0309-3.56053 12.9253-13.1914 15.1875-19.4375l7.7188 4.71875c4.6639 2.85828 9.074 5.25171 12.6562 7.4375 3.4825 2.12495 11.8249 5.90239 17.875 8.84375 6.05 2.94134 12.0311 6.49989 15.4688 8.71875 5.4546 3.52074 5.7256 1.83018 5.875 4.53125.625 11.2975-3.9797 20.12596-7.9688 27.3125-10.4976 18.91181-27.782 36.207853-40.9062 44.21875-4.7785 2.916703-6.6164 2.174311-6.1563 7.375.2098 2.371035-.7187 7.84375-.7187 7.84375-1.6252-.405981 2.0318.683502 4.125.78125 5.3728.2509 16.9965 6.514266 21.75 9.84375 1.4068.985416 4.0874-.880298 10.2187-.8125 4.9651.0549 9.6843.262119 10.9063 1.03125 4.317 2.717467 6.7638 1.117191 6.7812-.75.01-.96251 1.0492-5.605717 2.1562-10 2.0323-8.066517 5.4343-15.23655 11.5938-26.78125 1.6175-3.03171 3.3438-5.477 3.3438-5.75 0-.4619 4.359-6.73445 12.1562-17.46875 7.9084-10.8874 16.7438-21.17375 25.5938-29.78125 5.2433-5.0997 12.9981-10.82045 12.7812-11.03125-.217-.2108-6.3826-4.21505-9.875-6.78125-12.9701-9.5305-19.2745-17.28365-27.4375-31.21875-6.0757-10.3719-6.9959-12.61694.094-25.9375 2.669-5.01467 6.1869-9.63347 8.4376-14.0625 1.4104.59173 12.8384 15.2892 17.9062 26.875 2.8896 6.60614 12.1033 19.82645 24.375 22.84375-1.5369-2.2017-4.1671-9.2017-5.125-11.625-1.5071-3.8124-3.7101-2.74875-3.5312-23.34375.04-4.6266.054-10.95443 1.2187-15.09375 1.1116-3.3356 2.395-6.94838 4-14.5 1.091-5.13287 5.0607-21.04714 3.5937-31.59375-1.8713-13.45509-2.2897-17.64521-11.1874-36.46875-8.6223-18.24047-28.7325-46.02598-47.125-61.5625-25.2922-21.36474-53.3857-44.85611-81.5-64.3125-32.1699-22.26293-53.2721-43.13445-58.8126-57.90625-5.2901-14.0695-2.6388-34.10335 7.0313-42.59375 4.7092-4.1347 11.2059-8.25205 16.625-9.15625 3.8781-.647 7.8945.6686 7.25-1.25-.3967-1.1808-3.18-6.20425-3.6875-12.09375-.6332-7.34861-.1118-12.07091 1.2812-15.71875 3.2021-8.38466 10.6533-16.31425 20.125-19.09375 4.0022-1.1744 6.2901-1.68938 8.5938-2.09375-2.566-9.57288 1.4211-24.82 10.375-42.9375 7.0069-14.1777 11.2247-23.83172 11.2812-33.59375.033-5.76137-2.5125-15.06802-4-18.90625 3.3648-1.17003 8.5475-1.52049 11.1563-1.0625 12.5042 2.19519 16.0887 1.14458 19.4687-3.5 8.2414-11.32444 19.1873-25.30115 19.6876-31.65625.018-.66192-4.1486-.28781-9.2813.0625 4.3871-.4387 8.9092-1.83953 6.1563-2.78125-7.1168-2.43441-13.4977-2.95922-30.0938-.78125-22.1836 2.91125-30.3475 4.61407-43.25 10.03125-2.9726-.71763-6.0882-1.43202-8.9062-2.15625-9.1177-2.34305-12.1132-4.2196-19.7188-12.1875-1.5303-1.60324-3.9408-2.9529-2.2812-5.0625l1.9687-2.5-1.3125-4.3125c-5.823-2.38288-12.4469-4.2951-19.9062-4.28125zM-2242.0938-748c.336 2.8493 1.9179 7.87342 3.125 9.3125 1.863 2.22091 4.9261 6.01437 9.6563 9.65625 4.2177 3.2473 5.765 5.06263 10.2187 6.40625 2.0067.60539 3.2506 1.13311 4.875 1.34375-1.5664.26186-3.1278.14036-3.7187.28125-5.2064 1.24141-7.8887 3.60978-13.625 8.9375-2.2801 2.11773-5.5581 5.82751-7.6875 9.5-2.2842 3.93945-3.3505 7.85808-3.625 10.03125-1.591-4.64071-1.4524-3.95876-3.7188-7.5625-4.427-7.03943-6.826-9.10717-10.3124-12.53125-4.3878-4.30892-9.9069-7.83303-23.875-7.65625-9.3495.11832-29.6612 1.74594-39.5938 2.34375-23.3144 1.4032-21.5322 1.53914-24.7812 5.5-1.0523 1.28283-3.6373 2.30823-5.125 2.28125-1.9147-.0347-4.4107-.30904-4.125-1.0625 1.6887-4.45372 6.3648-5.33991 34.6874-6.875 16.1775-.87682 27.4013-2.35411 39.0938-3.125 21.5766-1.42258 34.8902-14.39311 36.8125-21.375.5911-2.14685 1.053-2.44831 1.7187-5.40625zm-76.8437 79.3125c-.3614.0227-.9068.12553-1.8125.34375.2059-.20592.8665-.30242 1.8125-.34375z" style="fill:#fff;stroke:#00204e;stroke-width:3;stroke-linecap:round;stroke-linejoin:round;stroke-miterlimit:4;stroke-opacity:1;stroke-dasharray:none" transform="translate(525.95382312 154.99066864) scale(.1696)"/>
    <path d="M-2188.9375-270.90625c2.6979-8.91667 4.5886-12.76036 5.4687-15 5.1281-13.05051 8.8341-19.76975 17.7188-28.09375M-2370.9011-383.48643c2.3732-7.37994 2.2365-13.81386 3.2761-18.10732M-2406.4812-435.8689c6.6593 1.74707 11.5331 3.77931 16.3874 6.0564 6.5654 3.0796 11.3549 7.63145 20.0938 15.78125 6.0026 5.598 10.4103 8.12752 10.75 8.4375 10.9598 10 3.5841-.77245 3.125-2.5-.7408-2.7875-.3551-6.79999.4375-9 2.9277-8.12669 2.7847-16.3213-2.6563-18.375-3.3065-1.248-6.9108-5.24978-4.0312-4.125 3.2002 1.25 8.8203 5.98891 10.2812 12 1.2326 5.07141.5703 7.0435 6.0313 10.75 3.2574 2.2109 9.3614 4.08033 12.3437 5.03125 2.2293.71083 6.3417 3.33305 9 4.96875 2.6584 1.6358 5.9898 4.23664 8.8126 8.3125.4071-5.57888.9572-9.37089-5.25-16.9375-4.1767-5.09137-4.4574-9.69754-5-16.03125-.5534-6.45953-1.8041-11.09375 3.5-14.09375" style="fill:#fff;stroke:#00204e;stroke-width:3;stroke-linecap:round;stroke-linejoin:round;stroke-miterlimit:4;stroke-opacity:1;stroke-dasharray:none" transform="translate(525.95382312 154.99066864) scale(.1696)"/>
    <path d="M-2268.823-651.09635c6.2202 5.85586 14.994 14.49244 16.9088 19.02221 1.644 3.88933 3.4633 10.70434 3.2099 17.32934 3.6339-.6515 4.5732-.12649 7.1694-.64 8.2876-1.63924 17.7326-7.81675 22.9823-12.81435 5.7973-5.519 13.6263-14.50261 16.4687-24.91789 1.3883-5.08706 2.7159-10.64348 2.0178-14.66865" style="fill:none;stroke:#00204e;stroke-width:3;stroke-linecap:round;stroke-linejoin:round;stroke-miterlimit:4;stroke-opacity:1;stroke-dasharray:none" transform="translate(525.95382312 154.99066864) scale(.1696)"/>
    <path d="M-2520.6462-462.90998c1.8911.33376 4.3377.50192 6.5142.54918 3.689.0801 4.5252-.53464 6.1375-.69011M-2176.5508-732.40967c-1.559 1.06579-3.8069 1.9314-5.4608 2.66698-5.1305 2.2818-6.271 3.47361-9.2323 4.26777-1.7053.45733-3.6315.30822-6.0061.25612" style="fill:#fff;stroke:#00204e;stroke-width:3;stroke-linecap:round;stroke-linejoin:round;stroke-miterlimit:4;stroke-opacity:1;stroke-dasharray:none" transform="translate(525.95382312 154.99066864) scale(.1696)"/>
    <path d="M-2345.8384-673.61059c6.2742 2.43534 8.2871 3.22559 8.8072 3.82934M-2362.7237-693.83142c5.095-.35399 11.7543-.16297 14.4425.20642" style="fill:none;stroke:#00204e;stroke-width:3;stroke-linecap:round;stroke-linejoin:round;stroke-miterlimit:4;stroke-opacity:1;stroke-dasharray:none" transform="translate(525.95382312 154.99066864) scale(.1696)"/>
    <path d="M-2109.2481-739.03058c-6.7232.40305-14.8907 1.46226-18.6152 2.62-10.6191 3.30085-23.8286 7.56976-31.2758 13.70526-5.8633 4.83058-8.0265 7.65818-11.7341 11.44118-1.21 1.23459-6.0645 7.48264-6.0643 9.04534" style="fill:#fff;stroke:#00204e;stroke-width:3;stroke-linecap:round;stroke-linejoin:round;stroke-miterlimit:4;stroke-opacity:1;stroke-dasharray:none" transform="translate(525.95382312 154.99066864) scale(.1696)"/>
    <path style="fill:#fff" d="M-2244.4002-719.1923v-10.592l-3.25 1.8932c-4.4105 2.5692-6.2895 8.064-4.3471 12.7128 1.2707 3.0411 4.9376 6.5781 6.8196 6.5781.4276 0 .7775-4.7664.7775-10.5921zM-2236.1704-710.5663c5.9745-4.6996 5.6819-13.2876-.5829-17.1076-1.7308-1.0553-3.4844-1.9205-3.8969-1.9226-.4125 0-.75 4.7213-.75 10.4963 0 11.4537.4937 12.2593 5.2298 8.5339z" transform="translate(525.95382312 154.99066864) scale(.1696)"/>
    <path d="M-2577.5781-348.00872c.3885-1.428.7892-2.49172 1.7888-5.75316 1.8724-6.109 6.4872-13.47609 9.005-15.21926 1.1622-.80467 2.5225-1.60318 4.909-1.47853" style="fill:none;stroke:#00204e;stroke-width:3;stroke-linecap:round;stroke-miterlimit:4;stroke-opacity:1;stroke-dasharray:none" transform="translate(525.95382312 154.99066864) scale(.1696)"/>
    <path d="M-2413.473-486.17954c3.2061-.20624 11.7804-1.31276 13.9594-1.59099 15.8834-2.02815 25.8073-5.95397 46.6074-15.04197 8.1024-3.5401 9.8124-3.89813 17.0624-3.84375 4.4293.0332 10.1019.82067 13.0581 1.83303 5.0311 1.72297 9.5459 3.40051 13.3466 5.78493" style="fill:#fff;stroke:#00204e;stroke-width:3;stroke-linecap:round;stroke-linejoin:round;stroke-miterlimit:4;stroke-opacity:1;stroke-dasharray:none" transform="translate(525.95382312 154.99066864) scale(.1696)"/>
    <path style="fill:#fff;fill-opacity:1;stroke:#00204e;stroke-width:3.45822239;stroke-miterlimit:4;stroke-opacity:1;stroke-dasharray:none" d="M-2329.2097-789.6983a11.313709 11.313709 0 1 1-22.6274 0 11.313709 11.313709 0 1 1 22.6274 0z" transform="translate(604.67559147 187.86164685) scale(.19617)"/>
    <path style="fill:none;stroke:#00204e;stroke-width:3;stroke-linecap:butt;stroke-linejoin:miter;stroke-miterlimit:4;stroke-opacity:1;stroke-dasharray:none" d="M-2243.0369-732.42262v25.10229" transform="translate(525.95382312 154.99066864) scale(.1696)"/>
    <path d="M-2336.6344-643.15035c.1725 3.96432 1.551 7.34442 2.2981 10.25305M-2165.375-697c6.25-5 17.125-6.375 17.125-6.375M-2041.875-273.625c7.125 4.5 7.125 36.75 7.125 36.75M-2163.875-57.500001c-9.4583.666667-14.4167 11.708333-17.5 24.625" style="fill:none;stroke:#00204e;stroke-width:3;stroke-linecap:round;stroke-linejoin:miter;stroke-miterlimit:4;stroke-opacity:1;stroke-dasharray:none" transform="translate(525.95382312 154.99066864) scale(.1696)"/>
    <g>
      <path d="M-2150.5971-32.633836c2.373-2.55 3.0104-6.178916 4.1802-9.3414 1.1699-3.162516 2.5874-6.875208 4.9541-9.5587 3.0673-3.47791 5.5097-8.33082 9.827-11.80873l-7.4232-5.0098c-2.9819-2.4146-15.451-3.8006-19.0609-3.1228-7.9889 1.5-22.7358 9.022967-27.4316 18.0977-4.9658 9.596404-7.5048 13.59023-7.5674 15.21273 2.7901 5.445067 15.2196-7.204325 11.0937 8.0971-.9543 3.539032 6.5466-.714089 8.1109-1.2 8.5065-2.642299 14.3894-3.335857 23.3172-1.3661z" style="fill:#ffce00;fill-opacity:1;stroke:#00204e;stroke-width:3;stroke-miterlimit:4;stroke-opacity:1;stroke-dasharray:none" transform="translate(736.79959336 154.99066864) scale(.1696)"/>
      <g style="stroke:#00204e;stroke-width:3;stroke-miterlimit:4;stroke-opacity:1;stroke-dasharray:none">
        <path style="fill:#ffce00;fill-opacity:1;stroke:#00204e;stroke-width:3;stroke-miterlimit:4;stroke-opacity:1;stroke-dasharray:none" d="M-2067.9003-751.6613c66.1338-3.8202 84.3564-10.5368 105.8744-29.44021 6.6571-5.84821 6.304-7.15967 8.8306-12.14651-15.0602 8.74717-41.4831 20.85173-78.3097 20.50688-13.8224-.12944-27.9463-.21033-57.2489-2.35845-29.8373-2.18732-68.5317-3.63202-83.4072.45414-13.0755 3.59172-29.3608 8.3898-33.7018 14.23792-.6937 1.1224-1.6627 11.36196 1.2695 9.86726 4.0399-.79086 17.3146-4.61253 23.6066-5.82133 9.4585-1.8172 14.2259 1.79119 24.1473 2.26869 18.8547.9074 34.1401 3.01056 45.4976 8.96376 2.9978 1.5714 13.653-3.69705 17.4416-4.05345 2.75-.2587 14.4166-1.80959 26-2.4787z" transform="translate(736.79959336 154.99066864) scale(.1696)"/>
        <path style="fill:#ffce00;fill-opacity:1;stroke:#00204e;stroke-width:3;stroke-miterlimit:4;stroke-opacity:1;stroke-dasharray:none" d="M-1971.5373-695.03641c3.9886-.87277 13.2754-3.07826 15.3891-4.50446l10.6119-7.1602c-38.6066 9.641-85.4779-7.05247-140.3319-34.64606-32.295-17.73208-49.4306-20.8214-77.3856-21.0595-11.3396-.097-18.1169 1.48049-25.2718 3.12886-14.22 3.276-21.2082 6.87573-21.662 10.60132-.3535 2.9031 5.7219 10.49605 10.3682 13.3821 2.9542 1.3976 7.498 5.03627 23.1568 2.69706 7.9813-1.1923 45.6939-5.79011 55.6435 16.90392 10.0103 1.52502 19.5418 4.92979 30.4331 8.05163 17.6868 5.06968 65.2428 12.61168 70.1857 13.44227 21.4408 3.60283 41.7651.71619 48.863-.83694z" transform="translate(736.79959336 154.99066864) scale(.1696)"/>
      </g>
      <path d="M-2579.2264-340.48468c-.2582 1.62754-.4278 3.70173.5778 3.70829 1.0713.007 9.6877-3.15976 13.3252-4.97545 3.4445-1.71933 12.133-2.56733 13.0684-3.3091 1.014-.8041 3.0169-6.38109 3.8565-8.73838 1.8497-5.19258 4.1147-9.33698 6.2595-13.06522.4961-.86243 2.5116-2.68771 3.1928-3.41284.8997-2.35548 5.2465-6.92067 3.3177-8.12711-3.1824-1.9907-16.2928-6.92086-18.6553-7.82306-4.2055-1.6061-9.3787 2.39368-15.6135 5.04358-7.9966 3.3986-10.5493 7.66846-15.4151 18.15936-3.0207 6.51305-5.7565 13.93335-4.896 15.66033 1.3198.25936 6.4696-1.08694 9.0578-1.08694.8978 0 3.3665.30065 3.7481.2027-1.0794 3.91378-1.1515 3.52643-1.8239 7.76384zM-2602.6373-580.25107c2.8028 6.21576 11.4382 14.2428 12.3552 15.6407 2.0521 3.12835 3.8509 5.26697 6.8568 8.07821 2.7036 2.52846 9.9933-.68846 17.7143-1.89981 3.8167-.59881 14.3138-4.213 14.4657-4.365.152-.1519-.1171-4.7265.013-8.0269.2375-6.01281-1.2807-7.74102-3.7216-12.69893-1.1323-2.29993-5.5043-5.4854-7.6967-7.00877-3.2685-2.27108-10.0849-3.34293-18.2411-3.5482-10.1756-.25609-19.045-.0234-18.7462 4.9118.061 1.00234 3.757 3.6096 4.6291 4.6557-2.8875.5162-8.739 1.79884-7.6287 4.2612z" style="fill:#ffce00;fill-opacity:1;stroke:#00204e;stroke-width:3;stroke-linecap:round;stroke-miterlimit:4;stroke-opacity:1;stroke-dasharray:none" transform="translate(736.79959336 154.99066864) scale(.1696)"/>
      <path d="M-2564.5658-573.15277c-4.7135-4.0345-5.627-10.1828-30.9596-11.0588" style="fill:#ffce00;fill-opacity:1;stroke:#00204e;stroke-width:3;stroke-linecap:round;stroke-miterlimit:4;stroke-opacity:1;stroke-dasharray:none" transform="translate(736.79959336 154.99066864) scale(.1696)"/>
      <path d="M-2442.0293-577.10677c-1.2354-1.1538-4.8521-5.07201-9.1105-6.4942-5.0504-1.6867-10.2481-4.4579-13.6755-8.9222m-8.0106 2.6985c-2.0178.50736-7.2539.71744-22.6995 1.054-9.3161.203-27.7538-1.34796-36.375-4.3484-2.4403-.84929-10.0752-3.9026-11.0838-3.837-1.0086.066-5.1675 2.46101-8.1726 4.6939l-7.8389 5.8246c2.3532 4.89761 4.1367 9.69124 4.0626 15.6357-.042 3.37816-2.2564 7.69743.027 10.4109 2.5459 3.02563 9.4211 10.71863 12.0415 9.96237 2.8606-.82558 5.1972-2.00314 9.5601-2.78397 11.4297-2.04555 29.1347-3.2327 42.4043-2.8434 10.3869.3048 27.9874 4.3083 31.8299 6.3648 3.7056 1.9831 11.2142 11.21185 19.6398 24.1387 21.9675 33.7034 28.0759 42.07769 28.7418 48.6401 1.6413-1.091 15.7158-7.6004 16.3324-9.9379 5.3685-20.354 15.6106-30.46384 21.2846-45.893 1.4286-3.88461 2.2629-4.49777 2.1444-7.99665l-15.742-9.99906c-12.7597-8.10474-24.215-19.97898-34.3632-30.67018-10.8969-11.47998-15.2478-14.02391-26.2334-14.85481-6.3115-.4773-10.503-1.36372-13.3736-2.8282-3.3859-1.72737-5.3936-2.95998-6.5183-3.83534-.6878 3.31809.3891 8.99385 1.9366 11.07858-2.7053 1.30579-5.7862 1.56705-7.6045 2.02426z" style="fill:#fff;stroke:#00204e;stroke-width:3;stroke-linecap:round;stroke-miterlimit:4;stroke-opacity:1;stroke-dasharray:none" transform="translate(736.79959336 154.99066864) scale(.1696)"/>
      <path d="M-2373.3474-90.975266c-.1169 1.687326 7.6534-1.427919 13.4022-1.5557 3.2615-.0725 7.3051 3.450986 9.8296 4.2565 1.0264.327511 4.8636-4.816619 6.6634-7.569204 3.1248-4.7791 5.7457-9.38374 7.9714-11.6034 2.5977-2.59063 10.969-7.5923 10.5865-8.5892-.9512-2.4788-20.0488-11.74855-25.0686-10.557-19.8067 4.7015-21.7928 9.4493-24.8438 13.7741-2.4691 3.4999-7.1562 14.4997-7.1562 15.873204 0 .5683 3.3723 2.147468 9.2942 1.008098-.7529 1.064964-.5649 3.319949-.6787 4.962602z" style="fill:#ffce00;fill-opacity:1;stroke:#00204e;stroke-width:3;stroke-linecap:round;stroke-miterlimit:4;stroke-opacity:1;stroke-dasharray:none" transform="translate(736.79959336 154.99066864) scale(.1696)"/>
      <path d="M-2372.4295-96.31357c4.7234-8.62582 8.4799-19.3598 19.7709-18.8313" style="fill:#ffce00;fill-opacity:1;stroke:#00204e;stroke-width:3;stroke-linecap:round;stroke-miterlimit:4;stroke-opacity:1;stroke-dasharray:none" transform="translate(736.79959336 154.99066864) scale(.1696)"/>
      <path d="M-2307.6714-120.74397c3.9757-5.29687 11.028-11.1948 22.0881-18.4697 11.7463-7.7263 21.549-11.7783 33.6831-15.9034 9.3022-3.1624 29.0355-6.5889 40-7.8007 3.4375-.3799 15.125 1.4819 12.375-3.9181-.1815-.35644-2.7536-2.7044-6.1191-5.1208-3.3655-2.4165-6.6326-4.8436-7.2604-5.3936-.6277-.55-4.0702-3.5343-7.65-6.6318-7.9646-6.8916-17.4705-18.0591-19.7205-23.3415-1.0464-2.45663 1.5319-3.7817 5.125-5.8236 10.6261-6.0386 26.2095-11.52374 36.375-12.0233 2.3333-.11467 18.9338-.72565 21.2671-.84032 44.1587-46.57576-24.7791-110.71385-55.5346-98.98136l-7.4597 4.91158-6.7008 3.6783c-9.2856 5.09719-21.4524 12.4804-27.0667 17.0843-17.5988 14.432-36.6117 30.7768-43.0049 40.1609-1.5117 1.9563-4.6886 6.3318-6.6016 8.8068-1.913 2.475-4.3612 7.2-5.4405 10.5-1.7176 5.2514.237 22.6295-7.688 29.8577 2.7867.52991 4.7684.18444 7.2672-.35608 4.2498-.91929 10.2873-5.59912 13.5846-9.35062 4.3844-4.9475 4.6714-7.8708 4.7134-11.2579.027-2.1872.4063-2.7147 1.6173-2.25.87.3338 1.77.6069 2 .6069 1.369 0 .026 5.9934-2.1906 9.7758-3.0646 5.2295-4.8489 7.2821 2.1896 16.837 9.2993 12.624 16.5579 17.4936 25.2416 25.7967 3.5461 3.3907 4.3036 3.7309 5.7093 2.5643 2.6812-2.2252.8932-1.3048-1.6172 1.3673-1.9625 2.089-6.688 4.41062-50.4145 24.7679 0 0-12.362 5.20874-22 10.2423-2.6325 1.37484-2.5192 5.49546-2.8262 8.4494-.2757 2.65332.04 7.59575.04 7.59575l6.0896 1.31295c5.2994 1.14259 12.7179 5.1789 17.6867 8.9729 4.0105 3.0623 4.8046 2.9427 9.3911 2.9427 5.0921 0 6.0608.27863 7.9728-2.2687z" style="fill:#fff;stroke:#00204e;stroke-width:3;stroke-miterlimit:4;stroke-opacity:1;stroke-dasharray:none" transform="translate(736.79959336 154.99066864) scale(.1696)"/>
      <path d="M-2069.1465-238.5107c4.9505-9.90451 7.9033-18.81328 9.834-24.08305 2.1289-5.81092 4.0887-7.73354 4.4687-23.375.2807-11.5557-.2399-14.875-1.0312-18.125M-2165.284-191.15717c2.0796-7.06574 2.2428-22.1386-4.1848-26.78033" style="fill:#fff;stroke:#00204e;stroke-width:3;stroke-linecap:round;stroke-linejoin:round;stroke-miterlimit:4;stroke-opacity:1;stroke-dasharray:none" transform="translate(736.79959336 154.99066864) scale(.1696)"/>
      <path d="M-2226.6562-762.96875c-17.7713.033-37.9959 8.50497-52.4063 17.8125-3.2875 2.1756-9.2523 3.04895-21.7813 5.71875-2.1999.4688-13.6126 4.00495-22.6874 6.78125-9.075 2.7763-18.3635 5.0608-20.6563 5.0625-3.0684-1-7.4742 1.1243-13.2813 4.125-9.3685 4.8412-13.4853 9.27355-12.9687 19.6875.2015 4.06104.2316 4.70704.4063 5.65625.2343 1.27502.3132 2.24787 1.4062 2.625.6696.23105 2.2906.40443 4.3125.46875l.375 8.5625c.3701 1.7134 3.1363 6.0093 4.0313 7.875 1.4274 2.9759 1.9726 2.31601 7.75 3.46875 3.0446.6075 4.6332 1.03675 6.3124 1.53125.9975 3.68719 2.0802 8.7488 2.0938 9.9375.082 7.22563-1.8637 11.22405-4.5938 16.59375-6.6898 13.1593-8.104 26.26385-.4687 36.03125l6.5937 6.4375.7188-2.5c.4008-1.375-2.6155-9.9408-1.9688-12.3125.6472-2.3717 3.4851-5.6581 5.375-7.75 3.1569-3.49414 3.9389-4.63289 3.5626-6.75 2.7991 10.0419 13.3155 19.58146 15.375 20.21875.8229.2546-1.3672-6.89895-1.3438-9.09375.049-4.6265 2.4991-12.1738 5.5-19.5 3.5133-8.5767 4.3213-14.6343 2.7188-20.0625-1.2239-4.1447-1.7084-6.498-4.25-6.125-1.7134.25148-1.4312-.15839-2.0626-.21875 3.614-.0933 10.7303.70241 14.1563 1.59375 11.0086 3.8176 26.3683 9.53031 35.5313 15.9375l-5.5938 11c-8.0925 15.94205-21.3173 29.59963-41.9688 47.84375-26.1763 23.12505-55.2953 36.88007-76.25 63.9375-6.3341 8.17899-12.7887 23.81338-15.3437 32.75l-2.6875 9.34375c-16.5085 1.73518-36.5025 2.6805-65.5938 2.09375-8.6768-.17501-19.1359-.0991-27.8124.875-7.4168.8326-9.0298 7.02353-19.3438 12.21875-1.2988.65419-5.6061 2.67687-8.0312 3.6875.9765.37765 1.1102.88356 2.0312 1.15625 2.087.61788 2.9255 1.28928 5.9062 2.5.6456.26219 1.7185.53086 3 .8125-4.6671 7.56975-4.6937 7.14369-6.3437 10.03125-1.6499 2.88744-6.0099 8.53814-9.5 13.3125-3.49 4.77434-8.808 12.6493-12.25 17.5-3.4419 4.8506-17.4284 22.54309-17.8437 24.5-.9305 4.38369-.4174 6.0337.375 12.375.5904 4.7258 3.2663 1.625 5.1874 1.625 4.0209 0 11.9762 3.25175 17.6876 7.21875l5.6562 3.90625 5.3438-3.15625c2.9519-1.7271 6.05-3.48585 6.875-3.90625.8249-.4204 2.7464-4.30665 4.2812-8.65625 3.5665-10.1077 12.4913-28.9759 16.75-35.1875 4.4547-6.4975 11.6143-13.88365 16.4688-17.21875l4-2.75 19.5.40625c21.2312.43068 41.1769 2.96318 57.2812 7.15625-1.1256.0318-.1207 9.54167.7188 15.53125 1.0479 7.47772 8.7872 20.98272 18.4687 32.4375 3.1389 3.71377 5.0639 7.25092 5.7187 9.8125 1.0456 4.08963 1.9565 7.88725 1.5 11.34375 5.7457-3.14504 9.2886-11.0587 9.625-16.75 2.8439 2.44535 5.6177 4.98188 8.5313 7.34375 8.7607 7.10169 25.6777 17.4182 37.6563 22.625 11.6361 5.05795 31.7975 13.51311 38.7812 15.59375 4.125 1.22896 10.1387 2.68544 11.4375 3.1875 4.116 1.59108 8.6438 3.4922 12.0313 4.625 9.0583 3.0292 13.188 6.43626 20.4062 10.90625 22.032 13.6436 34.3762 26.07455 46.5938 40.53125l6.8437 7.65625c-6.4262 24.70691-3.4276 56.00484 5.125 75.34375 3.0106 6.80758 3.1087 8.24269 3.4375 13.3125.1337 2.06249.4998 6.36834-.4375 10.78125 5.0309-3.56053 12.9253-13.1914 15.1875-19.4375l7.7188 4.71875c4.6639 2.85828 9.074 5.25171 12.6562 7.4375 3.4825 2.12495 11.8249 5.90239 17.875 8.84375 6.05 2.94134 12.0311 6.49989 15.4688 8.71875 5.4546 3.52074 5.7256 1.83018 5.875 4.53125.625 11.2975-3.9797 20.12596-7.9688 27.3125-10.4976 18.91181-27.782 36.207853-40.9062 44.21875-4.7785 2.916703-6.6164 2.174311-6.1563 7.375.2098 2.371035-.7187 7.84375-.7187 7.84375-1.6252-.405981 2.0318.683502 4.125.78125 5.3728.2509 16.9965 6.514266 21.75 9.84375 1.4068.985416 4.0874-.880298 10.2187-.8125 4.9651.0549 9.6843.262119 10.9063 1.03125 4.317 2.717467 6.7638 1.117191 6.7812-.75.01-.96251 1.0492-5.605717 2.1562-10 2.0323-8.066517 5.4343-15.23655 11.5938-26.78125 1.6175-3.03171 3.3438-5.477 3.3438-5.75 0-.4619 4.359-6.73445 12.1562-17.46875 7.9084-10.8874 16.7438-21.17375 25.5938-29.78125 5.2433-5.0997 12.9981-10.82045 12.7812-11.03125-.217-.2108-6.3826-4.21505-9.875-6.78125-12.9701-9.5305-19.2745-17.28365-27.4375-31.21875-6.0757-10.3719-6.9959-12.61694.094-25.9375 2.669-5.01467 6.1869-9.63347 8.4376-14.0625 1.4104.59173 12.8384 15.2892 17.9062 26.875 2.8896 6.60614 12.1033 19.82645 24.375 22.84375-1.5369-2.2017-4.1671-9.2017-5.125-11.625-1.5071-3.8124-3.7101-2.74875-3.5312-23.34375.04-4.6266.054-10.95443 1.2187-15.09375 1.1116-3.3356 2.395-6.94838 4-14.5 1.091-5.13287 5.0607-21.04714 3.5937-31.59375-1.8713-13.45509-2.2897-17.64521-11.1874-36.46875-8.6223-18.24047-28.7325-46.02598-47.125-61.5625-25.2922-21.36474-53.3857-44.85611-81.5-64.3125-32.1699-22.26293-53.2721-43.13445-58.8126-57.90625-5.2901-14.0695-2.6388-34.10335 7.0313-42.59375 4.7092-4.1347 11.2059-8.25205 16.625-9.15625 3.8781-.647 7.8945.6686 7.25-1.25-.3967-1.1808-3.18-6.20425-3.6875-12.09375-.6332-7.34861-.1118-12.07091 1.2812-15.71875 3.2021-8.38466 10.6533-16.31425 20.125-19.09375 4.0022-1.1744 6.2901-1.68938 8.5938-2.09375-2.566-9.57288 1.4211-24.82 10.375-42.9375 7.0069-14.1777 11.2247-23.83172 11.2812-33.59375.033-5.76137-2.5125-15.06802-4-18.90625 3.3648-1.17003 8.5475-1.52049 11.1563-1.0625 12.5042 2.19519 16.0887 1.14458 19.4687-3.5 8.2414-11.32444 19.1873-25.30115 19.6876-31.65625.018-.66192-4.1486-.28781-9.2813.0625 4.3871-.4387 8.9092-1.83953 6.1563-2.78125-7.1168-2.43441-13.4977-2.95922-30.0938-.78125-22.1836 2.91125-30.3475 4.61407-43.25 10.03125-2.9726-.71763-6.0882-1.43202-8.9062-2.15625-9.1177-2.34305-12.1132-4.2196-19.7188-12.1875-1.5303-1.60324-3.9408-2.9529-2.2812-5.0625l1.9687-2.5-1.3125-4.3125c-5.823-2.38288-12.4469-4.2951-19.9062-4.28125zM-2242.0938-748c.336 2.8493 1.9179 7.87342 3.125 9.3125 1.863 2.22091 4.9261 6.01437 9.6563 9.65625 4.2177 3.2473 5.765 5.06263 10.2187 6.40625 2.0067.60539 3.2506 1.13311 4.875 1.34375-1.5664.26186-3.1278.14036-3.7187.28125-5.2064 1.24141-7.8887 3.60978-13.625 8.9375-2.2801 2.11773-5.5581 5.82751-7.6875 9.5-2.2842 3.93945-3.3505 7.85808-3.625 10.03125-1.591-4.64071-1.4524-3.95876-3.7188-7.5625-4.427-7.03943-6.826-9.10717-10.3124-12.53125-4.3878-4.30892-9.9069-7.83303-23.875-7.65625-9.3495.11832-29.6612 1.74594-39.5938 2.34375-23.3144 1.4032-21.5322 1.53914-24.7812 5.5-1.0523 1.28283-3.6373 2.30823-5.125 2.28125-1.9147-.0347-4.4107-.30904-4.125-1.0625 1.6887-4.45372 6.3648-5.33991 34.6874-6.875 16.1775-.87682 27.4013-2.35411 39.0938-3.125 21.5766-1.42258 34.8902-14.39311 36.8125-21.375.5911-2.14685 1.053-2.44831 1.7187-5.40625zm-76.8437 79.3125c-.3614.0227-.9068.12553-1.8125.34375.2059-.20592.8665-.30242 1.8125-.34375z" style="fill:#fff;stroke:#00204e;stroke-width:3;stroke-linecap:round;stroke-linejoin:round;stroke-miterlimit:4;stroke-opacity:1;stroke-dasharray:none" transform="translate(736.79959336 154.99066864) scale(.1696)"/>
      <path d="M-2188.9375-270.90625c2.6979-8.91667 4.5886-12.76036 5.4687-15 5.1281-13.05051 8.8341-19.76975 17.7188-28.09375M-2370.9011-383.48643c2.3732-7.37994 2.2365-13.81386 3.2761-18.10732M-2406.4812-435.8689c6.6593 1.74707 11.5331 3.77931 16.3874 6.0564 6.5654 3.0796 11.3549 7.63145 20.0938 15.78125 6.0026 5.598 10.4103 8.12752 10.75 8.4375 10.9598 10 3.5841-.77245 3.125-2.5-.7408-2.7875-.3551-6.79999.4375-9 2.9277-8.12669 2.7847-16.3213-2.6563-18.375-3.3065-1.248-6.9108-5.24978-4.0312-4.125 3.2002 1.25 8.8203 5.98891 10.2812 12 1.2326 5.07141.5703 7.0435 6.0313 10.75 3.2574 2.2109 9.3614 4.08033 12.3437 5.03125 2.2293.71083 6.3417 3.33305 9 4.96875 2.6584 1.6358 5.9898 4.23664 8.8126 8.3125.4071-5.57888.9572-9.37089-5.25-16.9375-4.1767-5.09137-4.4574-9.69754-5-16.03125-.5534-6.45953-1.8041-11.09375 3.5-14.09375" style="fill:#fff;stroke:#00204e;stroke-width:3;stroke-linecap:round;stroke-linejoin:round;stroke-miterlimit:4;stroke-opacity:1;stroke-dasharray:none" transform="translate(736.79959336 154.99066864) scale(.1696)"/>
      <path d="M-2268.823-651.09635c6.2202 5.85586 14.994 14.49244 16.9088 19.02221 1.644 3.88933 3.4633 10.70434 3.2099 17.32934 3.6339-.6515 4.5732-.12649 7.1694-.64 8.2876-1.63924 17.7326-7.81675 22.9823-12.81435 5.7973-5.519 13.6263-14.50261 16.4687-24.91789 1.3883-5.08706 2.7159-10.64348 2.0178-14.66865" style="fill:none;stroke:#00204e;stroke-width:3;stroke-linecap:round;stroke-linejoin:round;stroke-miterlimit:4;stroke-opacity:1;stroke-dasharray:none" transform="translate(736.79959336 154.99066864) scale(.1696)"/>
      <path d="M-2520.6462-462.90998c1.8911.33376 4.3377.50192 6.5142.54918 3.689.0801 4.5252-.53464 6.1375-.69011M-2176.5508-732.40967c-1.559 1.06579-3.8069 1.9314-5.4608 2.66698-5.1305 2.2818-6.271 3.47361-9.2323 4.26777-1.7053.45733-3.6315.30822-6.0061.25612" style="fill:#fff;stroke:#00204e;stroke-width:3;stroke-linecap:round;stroke-linejoin:round;stroke-miterlimit:4;stroke-opacity:1;stroke-dasharray:none" transform="translate(736.79959336 154.99066864) scale(.1696)"/>
      <path d="M-2345.8384-673.61059c6.2742 2.43534 8.2871 3.22559 8.8072 3.82934M-2362.7237-693.83142c5.095-.35399 11.7543-.16297 14.4425.20642" style="fill:none;stroke:#00204e;stroke-width:3;stroke-linecap:round;stroke-linejoin:round;stroke-miterlimit:4;stroke-opacity:1;stroke-dasharray:none" transform="translate(736.79959336 154.99066864) scale(.1696)"/>
      <path d="M-2109.2481-739.03058c-6.7232.40305-14.8907 1.46226-18.6152 2.62-10.6191 3.30085-23.8286 7.56976-31.2758 13.70526-5.8633 4.83058-8.0265 7.65818-11.7341 11.44118-1.21 1.23459-6.0645 7.48264-6.0643 9.04534" style="fill:#fff;stroke:#00204e;stroke-width:3;stroke-linecap:round;stroke-linejoin:round;stroke-miterlimit:4;stroke-opacity:1;stroke-dasharray:none" transform="translate(736.79959336 154.99066864) scale(.1696)"/>
      <path style="fill:#fff" d="M-2244.4002-719.1923v-10.592l-3.25 1.8932c-4.4105 2.5692-6.2895 8.064-4.3471 12.7128 1.2707 3.0411 4.9376 6.5781 6.8196 6.5781.4276 0 .7775-4.7664.7775-10.5921zM-2236.1704-710.5663c5.9745-4.6996 5.6819-13.2876-.5829-17.1076-1.7308-1.0553-3.4844-1.9205-3.8969-1.9226-.4125 0-.75 4.7213-.75 10.4963 0 11.4537.4937 12.2593 5.2298 8.5339z" transform="translate(736.79959336 154.99066864) scale(.1696)"/>
      <path d="M-2577.5781-348.00872c.3885-1.428.7892-2.49172 1.7888-5.75316 1.8724-6.109 6.4872-13.47609 9.005-15.21926 1.1622-.80467 2.5225-1.60318 4.909-1.47853" style="fill:none;stroke:#00204e;stroke-width:3;stroke-linecap:round;stroke-miterlimit:4;stroke-opacity:1;stroke-dasharray:none" transform="translate(736.79959336 154.99066864) scale(.1696)"/>
      <path d="M-2413.473-486.17954c3.2061-.20624 11.7804-1.31276 13.9594-1.59099 15.8834-2.02815 25.8073-5.95397 46.6074-15.04197 8.1024-3.5401 9.8124-3.89813 17.0624-3.84375 4.4293.0332 10.1019.82067 13.0581 1.83303 5.0311 1.72297 9.5459 3.40051 13.3466 5.78493" style="fill:#fff;stroke:#00204e;stroke-width:3;stroke-linecap:round;stroke-linejoin:round;stroke-miterlimit:4;stroke-opacity:1;stroke-dasharray:none" transform="translate(736.79959336 154.99066864) scale(.1696)"/>
      <path style="fill:#fff;fill-opacity:1;stroke:#00204e;stroke-width:3.45822239;stroke-miterlimit:4;stroke-opacity:1;stroke-dasharray:none" d="M-2329.2097-789.6983a11.313709 11.313709 0 1 1-22.6274 0 11.313709 11.313709 0 1 1 22.6274 0z" transform="translate(815.52136171 187.86164685) scale(.19617)"/>
      <path style="fill:none;stroke:#00204e;stroke-width:3;stroke-linecap:butt;stroke-linejoin:miter;stroke-miterlimit:4;stroke-opacity:1;stroke-dasharray:none" d="M-2243.0369-732.42262v25.10229" transform="translate(736.79959336 154.99066864) scale(.1696)"/>
      <path d="M-2336.6344-643.15035c.1725 3.96432 1.551 7.34442 2.2981 10.25305M-2165.375-697c6.25-5 17.125-6.375 17.125-6.375M-2041.875-273.625c7.125 4.5 7.125 36.75 7.125 36.75M-2163.875-57.500001c-9.4583.666667-14.4167 11.708333-17.5 24.625" style="fill:none;stroke:#00204e;stroke-width:3;stroke-linecap:round;stroke-linejoin:miter;stroke-miterlimit:4;stroke-opacity:1;stroke-dasharray:none" transform="translate(736.79959336 154.99066864) scale(.1696)"/>
    </g>
    <g>
      <path style="fill:#ffce00;fill-opacity:1;stroke:#00204e;stroke-width:3;stroke-miterlimit:4;stroke-opacity:1;stroke-dasharray:none" d="M-2150.5971-32.633836c2.373-2.55 3.0104-6.178916 4.1802-9.3414 1.1699-3.162516 2.5874-6.875208 4.9541-9.5587 3.0673-3.47791 5.5097-8.33082 9.827-11.80873l-7.4232-5.0098c-2.9819-2.4146-15.451-3.8006-19.0609-3.1228-7.9889 1.5-22.7358 9.022967-27.4316 18.0977-4.9658 9.596404-7.5048 13.59023-7.5674 15.21273 2.7901 5.445067 15.2196-7.204325 11.0937 8.0971-.9543 3.539032 6.5466-.714089 8.1109-1.2 8.5065-2.642299 14.3894-3.335857 23.3172-1.3661z" transform="translate(636.30217886 285.39551334) scale(.1696)"/>
      <g style="stroke:#00204e;stroke-width:3;stroke-miterlimit:4;stroke-opacity:1;stroke-dasharray:none">
        <path d="M-2067.9003-751.6613c66.1338-3.8202 84.3564-10.5368 105.8744-29.44021 6.6571-5.84821 6.304-7.15967 8.8306-12.14651-15.0602 8.74717-41.4831 20.85173-78.3097 20.50688-13.8224-.12944-27.9463-.21033-57.2489-2.35845-29.8373-2.18732-68.5317-3.63202-83.4072.45414-13.0755 3.59172-29.3608 8.3898-33.7018 14.23792-.6937 1.1224-1.6627 11.36196 1.2695 9.86726 4.0399-.79086 17.3146-4.61253 23.6066-5.82133 9.4585-1.8172 14.2259 1.79119 24.1473 2.26869 18.8547.9074 34.1401 3.01056 45.4976 8.96376 2.9978 1.5714 13.653-3.69705 17.4416-4.05345 2.75-.2587 14.4166-1.80959 26-2.4787z" style="fill:#ffce00;fill-opacity:1;stroke:#00204e;stroke-width:3;stroke-miterlimit:4;stroke-opacity:1;stroke-dasharray:none" transform="translate(636.30217886 285.39551334) scale(.1696)"/>
        <path d="M-1971.5373-695.03641c3.9886-.87277 13.2754-3.07826 15.3891-4.50446l10.6119-7.1602c-38.6066 9.641-85.4779-7.05247-140.3319-34.64606-32.295-17.73208-49.4306-20.8214-77.3856-21.0595-11.3396-.097-18.1169 1.48049-25.2718 3.12886-14.22 3.276-21.2082 6.87573-21.662 10.60132-.3535 2.9031 5.7219 10.49605 10.3682 13.3821 2.9542 1.3976 7.498 5.03627 23.1568 2.69706 7.9813-1.1923 45.6939-5.79011 55.6435 16.90392 10.0103 1.52502 19.5418 4.92979 30.4331 8.05163 17.6868 5.06968 65.2428 12.61168 70.1857 13.44227 21.4408 3.60283 41.7651.71619 48.863-.83694z" style="fill:#ffce00;fill-opacity:1;stroke:#00204e;stroke-width:3;stroke-miterlimit:4;stroke-opacity:1;stroke-dasharray:none" transform="translate(636.30217886 285.39551334) scale(.1696)"/>
      </g>
      <path style="fill:#ffce00;fill-opacity:1;stroke:#00204e;stroke-width:3;stroke-linecap:round;stroke-miterlimit:4;stroke-opacity:1;stroke-dasharray:none" d="M-2579.2264-340.48468c-.2582 1.62754-.4278 3.70173.5778 3.70829 1.0713.007 9.6877-3.15976 13.3252-4.97545 3.4445-1.71933 12.133-2.56733 13.0684-3.3091 1.014-.8041 3.0169-6.38109 3.8565-8.73838 1.8497-5.19258 4.1147-9.33698 6.2595-13.06522.4961-.86243 2.5116-2.68771 3.1928-3.41284.8997-2.35548 5.2465-6.92067 3.3177-8.12711-3.1824-1.9907-16.2928-6.92086-18.6553-7.82306-4.2055-1.6061-9.3787 2.39368-15.6135 5.04358-7.9966 3.3986-10.5493 7.66846-15.4151 18.15936-3.0207 6.51305-5.7565 13.93335-4.896 15.66033 1.3198.25936 6.4696-1.08694 9.0578-1.08694.8978 0 3.3665.30065 3.7481.2027-1.0794 3.91378-1.1515 3.52643-1.8239 7.76384zM-2602.6373-580.25107c2.8028 6.21576 11.4382 14.2428 12.3552 15.6407 2.0521 3.12835 3.8509 5.26697 6.8568 8.07821 2.7036 2.52846 9.9933-.68846 17.7143-1.89981 3.8167-.59881 14.3138-4.213 14.4657-4.365.152-.1519-.1171-4.7265.013-8.0269.2375-6.01281-1.2807-7.74102-3.7216-12.69893-1.1323-2.29993-5.5043-5.4854-7.6967-7.00877-3.2685-2.27108-10.0849-3.34293-18.2411-3.5482-10.1756-.25609-19.045-.0234-18.7462 4.9118.061 1.00234 3.757 3.6096 4.6291 4.6557-2.8875.5162-8.739 1.79884-7.6287 4.2612z" transform="translate(636.30217886 285.39551334) scale(.1696)"/>
      <path style="fill:#ffce00;fill-opacity:1;stroke:#00204e;stroke-width:3;stroke-linecap:round;stroke-miterlimit:4;stroke-opacity:1;stroke-dasharray:none" d="M-2564.5658-573.15277c-4.7135-4.0345-5.627-10.1828-30.9596-11.0588" transform="translate(636.30217886 285.39551334) scale(.1696)"/>
      <path style="fill:#fff;stroke:#00204e;stroke-width:3;stroke-linecap:round;stroke-miterlimit:4;stroke-opacity:1;stroke-dasharray:none" d="M-2442.0293-577.10677c-1.2354-1.1538-4.8521-5.07201-9.1105-6.4942-5.0504-1.6867-10.2481-4.4579-13.6755-8.9222m-8.0106 2.6985c-2.0178.50736-7.2539.71744-22.6995 1.054-9.3161.203-27.7538-1.34796-36.375-4.3484-2.4403-.84929-10.0752-3.9026-11.0838-3.837-1.0086.066-5.1675 2.46101-8.1726 4.6939l-7.8389 5.8246c2.3532 4.89761 4.1367 9.69124 4.0626 15.6357-.042 3.37816-2.2564 7.69743.027 10.4109 2.5459 3.02563 9.4211 10.71863 12.0415 9.96237 2.8606-.82558 5.1972-2.00314 9.5601-2.78397 11.4297-2.04555 29.1347-3.2327 42.4043-2.8434 10.3869.3048 27.9874 4.3083 31.8299 6.3648 3.7056 1.9831 11.2142 11.21185 19.6398 24.1387 21.9675 33.7034 28.0759 42.07769 28.7418 48.6401 1.6413-1.091 15.7158-7.6004 16.3324-9.9379 5.3685-20.354 15.6106-30.46384 21.2846-45.893 1.4286-3.88461 2.2629-4.49777 2.1444-7.99665l-15.742-9.99906c-12.7597-8.10474-24.215-19.97898-34.3632-30.67018-10.8969-11.47998-15.2478-14.02391-26.2334-14.85481-6.3115-.4773-10.503-1.36372-13.3736-2.8282-3.3859-1.72737-5.3936-2.95998-6.5183-3.83534-.6878 3.31809.3891 8.99385 1.9366 11.07858-2.7053 1.30579-5.7862 1.56705-7.6045 2.02426z" transform="translate(636.30217886 285.39551334) scale(.1696)"/>
      <path style="fill:#ffce00;fill-opacity:1;stroke:#00204e;stroke-width:3;stroke-linecap:round;stroke-miterlimit:4;stroke-opacity:1;stroke-dasharray:none" d="M-2373.3474-90.975266c-.1169 1.687326 7.6534-1.427919 13.4022-1.5557 3.2615-.0725 7.3051 3.450986 9.8296 4.2565 1.0264.327511 4.8636-4.816619 6.6634-7.569204 3.1248-4.7791 5.7457-9.38374 7.9714-11.6034 2.5977-2.59063 10.969-7.5923 10.5865-8.5892-.9512-2.4788-20.0488-11.74855-25.0686-10.557-19.8067 4.7015-21.7928 9.4493-24.8438 13.7741-2.4691 3.4999-7.1562 14.4997-7.1562 15.873204 0 .5683 3.3723 2.147468 9.2942 1.008098-.7529 1.064964-.5649 3.319949-.6787 4.962602z" transform="translate(636.30217886 285.39551334) scale(.1696)"/>
      <path style="fill:#ffce00;fill-opacity:1;stroke:#00204e;stroke-width:3;stroke-linecap:round;stroke-miterlimit:4;stroke-opacity:1;stroke-dasharray:none" d="M-2372.4295-96.31357c4.7234-8.62582 8.4799-19.3598 19.7709-18.8313" transform="translate(636.30217886 285.39551334) scale(.1696)"/>
      <path style="fill:#fff;stroke:#00204e;stroke-width:3;stroke-miterlimit:4;stroke-opacity:1;stroke-dasharray:none" d="M-2307.6714-120.74397c3.9757-5.29687 11.028-11.1948 22.0881-18.4697 11.7463-7.7263 21.549-11.7783 33.6831-15.9034 9.3022-3.1624 29.0355-6.5889 40-7.8007 3.4375-.3799 15.125 1.4819 12.375-3.9181-.1815-.35644-2.7536-2.7044-6.1191-5.1208-3.3655-2.4165-6.6326-4.8436-7.2604-5.3936-.6277-.55-4.0702-3.5343-7.65-6.6318-7.9646-6.8916-17.4705-18.0591-19.7205-23.3415-1.0464-2.45663 1.5319-3.7817 5.125-5.8236 10.6261-6.0386 26.2095-11.52374 36.375-12.0233 2.3333-.11467 18.9338-.72565 21.2671-.84032 44.1587-46.57576-24.7791-110.71385-55.5346-98.98136l-7.4597 4.91158-6.7008 3.6783c-9.2856 5.09719-21.4524 12.4804-27.0667 17.0843-17.5988 14.432-36.6117 30.7768-43.0049 40.1609-1.5117 1.9563-4.6886 6.3318-6.6016 8.8068-1.913 2.475-4.3612 7.2-5.4405 10.5-1.7176 5.2514.237 22.6295-7.688 29.8577 2.7867.52991 4.7684.18444 7.2672-.35608 4.2498-.91929 10.2873-5.59912 13.5846-9.35062 4.3844-4.9475 4.6714-7.8708 4.7134-11.2579.027-2.1872.4063-2.7147 1.6173-2.25.87.3338 1.77.6069 2 .6069 1.369 0 .026 5.9934-2.1906 9.7758-3.0646 5.2295-4.8489 7.2821 2.1896 16.837 9.2993 12.624 16.5579 17.4936 25.2416 25.7967 3.5461 3.3907 4.3036 3.7309 5.7093 2.5643 2.6812-2.2252.8932-1.3048-1.6172 1.3673-1.9625 2.089-6.688 4.41062-50.4145 24.7679 0 0-12.362 5.20874-22 10.2423-2.6325 1.37484-2.5192 5.49546-2.8262 8.4494-.2757 2.65332.04 7.59575.04 7.59575l6.0896 1.31295c5.2994 1.14259 12.7179 5.1789 17.6867 8.9729 4.0105 3.0623 4.8046 2.9427 9.3911 2.9427 5.0921 0 6.0608.27863 7.9728-2.2687z" transform="translate(636.30217886 285.39551334) scale(.1696)"/>
      <path style="fill:#fff;stroke:#00204e;stroke-width:3;stroke-linecap:round;stroke-linejoin:round;stroke-miterlimit:4;stroke-opacity:1;stroke-dasharray:none" d="M-2069.1465-238.5107c4.9505-9.90451 7.9033-18.81328 9.834-24.08305 2.1289-5.81092 4.0887-7.73354 4.4687-23.375.2807-11.5557-.2399-14.875-1.0312-18.125M-2165.284-191.15717c2.0796-7.06574 2.2428-22.1386-4.1848-26.78033" transform="translate(636.30217886 285.39551334) scale(.1696)"/>
      <path style="fill:#fff;stroke:#00204e;stroke-width:3;stroke-linecap:round;stroke-linejoin:round;stroke-miterlimit:4;stroke-opacity:1;stroke-dasharray:none" d="M-2226.6562-762.96875c-17.7713.033-37.9959 8.50497-52.4063 17.8125-3.2875 2.1756-9.2523 3.04895-21.7813 5.71875-2.1999.4688-13.6126 4.00495-22.6874 6.78125-9.075 2.7763-18.3635 5.0608-20.6563 5.0625-3.0684-1-7.4742 1.1243-13.2813 4.125-9.3685 4.8412-13.4853 9.27355-12.9687 19.6875.2015 4.06104.2316 4.70704.4063 5.65625.2343 1.27502.3132 2.24787 1.4062 2.625.6696.23105 2.2906.40443 4.3125.46875l.375 8.5625c.3701 1.7134 3.1363 6.0093 4.0313 7.875 1.4274 2.9759 1.9726 2.31601 7.75 3.46875 3.0446.6075 4.6332 1.03675 6.3124 1.53125.9975 3.68719 2.0802 8.7488 2.0938 9.9375.082 7.22563-1.8637 11.22405-4.5938 16.59375-6.6898 13.1593-8.104 26.26385-.4687 36.03125l6.5937 6.4375.7188-2.5c.4008-1.375-2.6155-9.9408-1.9688-12.3125.6472-2.3717 3.4851-5.6581 5.375-7.75 3.1569-3.49414 3.9389-4.63289 3.5626-6.75 2.7991 10.0419 13.3155 19.58146 15.375 20.21875.8229.2546-1.3672-6.89895-1.3438-9.09375.049-4.6265 2.4991-12.1738 5.5-19.5 3.5133-8.5767 4.3213-14.6343 2.7188-20.0625-1.2239-4.1447-1.7084-6.498-4.25-6.125-1.7134.25148-1.4312-.15839-2.0626-.21875 3.614-.0933 10.7303.70241 14.1563 1.59375 11.0086 3.8176 26.3683 9.53031 35.5313 15.9375l-5.5938 11c-8.0925 15.94205-21.3173 29.59963-41.9688 47.84375-26.1763 23.12505-55.2953 36.88007-76.25 63.9375-6.3341 8.17899-12.7887 23.81338-15.3437 32.75l-2.6875 9.34375c-16.5085 1.73518-36.5025 2.6805-65.5938 2.09375-8.6768-.17501-19.1359-.0991-27.8124.875-7.4168.8326-9.0298 7.02353-19.3438 12.21875-1.2988.65419-5.6061 2.67687-8.0312 3.6875.9765.37765 1.1102.88356 2.0312 1.15625 2.087.61788 2.9255 1.28928 5.9062 2.5.6456.26219 1.7185.53086 3 .8125-4.6671 7.56975-4.6937 7.14369-6.3437 10.03125-1.6499 2.88744-6.0099 8.53814-9.5 13.3125-3.49 4.77434-8.808 12.6493-12.25 17.5-3.4419 4.8506-17.4284 22.54309-17.8437 24.5-.9305 4.38369-.4174 6.0337.375 12.375.5904 4.7258 3.2663 1.625 5.1874 1.625 4.0209 0 11.9762 3.25175 17.6876 7.21875l5.6562 3.90625 5.3438-3.15625c2.9519-1.7271 6.05-3.48585 6.875-3.90625.8249-.4204 2.7464-4.30665 4.2812-8.65625 3.5665-10.1077 12.4913-28.9759 16.75-35.1875 4.4547-6.4975 11.6143-13.88365 16.4688-17.21875l4-2.75 19.5.40625c21.2312.43068 41.1769 2.96318 57.2812 7.15625-1.1256.0318-.1207 9.54167.7188 15.53125 1.0479 7.47772 8.7872 20.98272 18.4687 32.4375 3.1389 3.71377 5.0639 7.25092 5.7187 9.8125 1.0456 4.08963 1.9565 7.88725 1.5 11.34375 5.7457-3.14504 9.2886-11.0587 9.625-16.75 2.8439 2.44535 5.6177 4.98188 8.5313 7.34375 8.7607 7.10169 25.6777 17.4182 37.6563 22.625 11.6361 5.05795 31.7975 13.51311 38.7812 15.59375 4.125 1.22896 10.1387 2.68544 11.4375 3.1875 4.116 1.59108 8.6438 3.4922 12.0313 4.625 9.0583 3.0292 13.188 6.43626 20.4062 10.90625 22.032 13.6436 34.3762 26.07455 46.5938 40.53125l6.8437 7.65625c-6.4262 24.70691-3.4276 56.00484 5.125 75.34375 3.0106 6.80758 3.1087 8.24269 3.4375 13.3125.1337 2.06249.4998 6.36834-.4375 10.78125 5.0309-3.56053 12.9253-13.1914 15.1875-19.4375l7.7188 4.71875c4.6639 2.85828 9.074 5.25171 12.6562 7.4375 3.4825 2.12495 11.8249 5.90239 17.875 8.84375 6.05 2.94134 12.0311 6.49989 15.4688 8.71875 5.4546 3.52074 5.7256 1.83018 5.875 4.53125.625 11.2975-3.9797 20.12596-7.9688 27.3125-10.4976 18.91181-27.782 36.207853-40.9062 44.21875-4.7785 2.916703-6.6164 2.174311-6.1563 7.375.2098 2.371035-.7187 7.84375-.7187 7.84375-1.6252-.405981 2.0318.683502 4.125.78125 5.3728.2509 16.9965 6.514266 21.75 9.84375 1.4068.985416 4.0874-.880298 10.2187-.8125 4.9651.0549 9.6843.262119 10.9063 1.03125 4.317 2.717467 6.7638 1.117191 6.7812-.75.01-.96251 1.0492-5.605717 2.1562-10 2.0323-8.066517 5.4343-15.23655 11.5938-26.78125 1.6175-3.03171 3.3438-5.477 3.3438-5.75 0-.4619 4.359-6.73445 12.1562-17.46875 7.9084-10.8874 16.7438-21.17375 25.5938-29.78125 5.2433-5.0997 12.9981-10.82045 12.7812-11.03125-.217-.2108-6.3826-4.21505-9.875-6.78125-12.9701-9.5305-19.2745-17.28365-27.4375-31.21875-6.0757-10.3719-6.9959-12.61694.094-25.9375 2.669-5.01467 6.1869-9.63347 8.4376-14.0625 1.4104.59173 12.8384 15.2892 17.9062 26.875 2.8896 6.60614 12.1033 19.82645 24.375 22.84375-1.5369-2.2017-4.1671-9.2017-5.125-11.625-1.5071-3.8124-3.7101-2.74875-3.5312-23.34375.04-4.6266.054-10.95443 1.2187-15.09375 1.1116-3.3356 2.395-6.94838 4-14.5 1.091-5.13287 5.0607-21.04714 3.5937-31.59375-1.8713-13.45509-2.2897-17.64521-11.1874-36.46875-8.6223-18.24047-28.7325-46.02598-47.125-61.5625-25.2922-21.36474-53.3857-44.85611-81.5-64.3125-32.1699-22.26293-53.2721-43.13445-58.8126-57.90625-5.2901-14.0695-2.6388-34.10335 7.0313-42.59375 4.7092-4.1347 11.2059-8.25205 16.625-9.15625 3.8781-.647 7.8945.6686 7.25-1.25-.3967-1.1808-3.18-6.20425-3.6875-12.09375-.6332-7.34861-.1118-12.07091 1.2812-15.71875 3.2021-8.38466 10.6533-16.31425 20.125-19.09375 4.0022-1.1744 6.2901-1.68938 8.5938-2.09375-2.566-9.57288 1.4211-24.82 10.375-42.9375 7.0069-14.1777 11.2247-23.83172 11.2812-33.59375.033-5.76137-2.5125-15.06802-4-18.90625 3.3648-1.17003 8.5475-1.52049 11.1563-1.0625 12.5042 2.19519 16.0887 1.14458 19.4687-3.5 8.2414-11.32444 19.1873-25.30115 19.6876-31.65625.018-.66192-4.1486-.28781-9.2813.0625 4.3871-.4387 8.9092-1.83953 6.1563-2.78125-7.1168-2.43441-13.4977-2.95922-30.0938-.78125-22.1836 2.91125-30.3475 4.61407-43.25 10.03125-2.9726-.71763-6.0882-1.43202-8.9062-2.15625-9.1177-2.34305-12.1132-4.2196-19.7188-12.1875-1.5303-1.60324-3.9408-2.9529-2.2812-5.0625l1.9687-2.5-1.3125-4.3125c-5.823-2.38288-12.4469-4.2951-19.9062-4.28125zM-2242.0938-748c.336 2.8493 1.9179 7.87342 3.125 9.3125 1.863 2.22091 4.9261 6.01437 9.6563 9.65625 4.2177 3.2473 5.765 5.06263 10.2187 6.40625 2.0067.60539 3.2506 1.13311 4.875 1.34375-1.5664.26186-3.1278.14036-3.7187.28125-5.2064 1.24141-7.8887 3.60978-13.625 8.9375-2.2801 2.11773-5.5581 5.82751-7.6875 9.5-2.2842 3.93945-3.3505 7.85808-3.625 10.03125-1.591-4.64071-1.4524-3.95876-3.7188-7.5625-4.427-7.03943-6.826-9.10717-10.3124-12.53125-4.3878-4.30892-9.9069-7.83303-23.875-7.65625-9.3495.11832-29.6612 1.74594-39.5938 2.34375-23.3144 1.4032-21.5322 1.53914-24.7812 5.5-1.0523 1.28283-3.6373 2.30823-5.125 2.28125-1.9147-.0347-4.4107-.30904-4.125-1.0625 1.6887-4.45372 6.3648-5.33991 34.6874-6.875 16.1775-.87682 27.4013-2.35411 39.0938-3.125 21.5766-1.42258 34.8902-14.39311 36.8125-21.375.5911-2.14685 1.053-2.44831 1.7187-5.40625zm-76.8437 79.3125c-.3614.0227-.9068.12553-1.8125.34375.2059-.20592.8665-.30242 1.8125-.34375z" transform="translate(636.30217886 285.39551334) scale(.1696)"/>
      <path style="fill:#fff;stroke:#00204e;stroke-width:3;stroke-linecap:round;stroke-linejoin:round;stroke-miterlimit:4;stroke-opacity:1;stroke-dasharray:none" d="M-2188.9375-270.90625c2.6979-8.91667 4.5886-12.76036 5.4687-15 5.1281-13.05051 8.8341-19.76975 17.7188-28.09375M-2370.9011-383.48643c2.3732-7.37994 2.2365-13.81386 3.2761-18.10732M-2406.4812-435.8689c6.6593 1.74707 11.5331 3.77931 16.3874 6.0564 6.5654 3.0796 11.3549 7.63145 20.0938 15.78125 6.0026 5.598 10.4103 8.12752 10.75 8.4375 10.9598 10 3.5841-.77245 3.125-2.5-.7408-2.7875-.3551-6.79999.4375-9 2.9277-8.12669 2.7847-16.3213-2.6563-18.375-3.3065-1.248-6.9108-5.24978-4.0312-4.125 3.2002 1.25 8.8203 5.98891 10.2812 12 1.2326 5.07141.5703 7.0435 6.0313 10.75 3.2574 2.2109 9.3614 4.08033 12.3437 5.03125 2.2293.71083 6.3417 3.33305 9 4.96875 2.6584 1.6358 5.9898 4.23664 8.8126 8.3125.4071-5.57888.9572-9.37089-5.25-16.9375-4.1767-5.09137-4.4574-9.69754-5-16.03125-.5534-6.45953-1.8041-11.09375 3.5-14.09375" transform="translate(636.30217886 285.39551334) scale(.1696)"/>
      <path style="fill:none;stroke:#00204e;stroke-width:3;stroke-linecap:round;stroke-linejoin:round;stroke-miterlimit:4;stroke-opacity:1;stroke-dasharray:none" d="M-2268.823-651.09635c6.2202 5.85586 14.994 14.49244 16.9088 19.02221 1.644 3.88933 3.4633 10.70434 3.2099 17.32934 3.6339-.6515 4.5732-.12649 7.1694-.64 8.2876-1.63924 17.7326-7.81675 22.9823-12.81435 5.7973-5.519 13.6263-14.50261 16.4687-24.91789 1.3883-5.08706 2.7159-10.64348 2.0178-14.66865" transform="translate(636.30217886 285.39551334) scale(.1696)"/>
      <path style="fill:#fff;stroke:#00204e;stroke-width:3;stroke-linecap:round;stroke-linejoin:round;stroke-miterlimit:4;stroke-opacity:1;stroke-dasharray:none" d="M-2520.6462-462.90998c1.8911.33376 4.3377.50192 6.5142.54918 3.689.0801 4.5252-.53464 6.1375-.69011M-2176.5508-732.40967c-1.559 1.06579-3.8069 1.9314-5.4608 2.66698-5.1305 2.2818-6.271 3.47361-9.2323 4.26777-1.7053.45733-3.6315.30822-6.0061.25612" transform="translate(636.30217886 285.39551334) scale(.1696)"/>
      <path style="fill:none;stroke:#00204e;stroke-width:3;stroke-linecap:round;stroke-linejoin:round;stroke-miterlimit:4;stroke-opacity:1;stroke-dasharray:none" d="M-2345.8384-673.61059c6.2742 2.43534 8.2871 3.22559 8.8072 3.82934M-2362.7237-693.83142c5.095-.35399 11.7543-.16297 14.4425.20642" transform="translate(636.30217886 285.39551334) scale(.1696)"/>
      <path style="fill:#fff;stroke:#00204e;stroke-width:3;stroke-linecap:round;stroke-linejoin:round;stroke-miterlimit:4;stroke-opacity:1;stroke-dasharray:none" d="M-2109.2481-739.03058c-6.7232.40305-14.8907 1.46226-18.6152 2.62-10.6191 3.30085-23.8286 7.56976-31.2758 13.70526-5.8633 4.83058-8.0265 7.65818-11.7341 11.44118-1.21 1.23459-6.0645 7.48264-6.0643 9.04534" transform="translate(636.30217886 285.39551334) scale(.1696)"/>
      <path d="M-2244.4002-719.1923v-10.592l-3.25 1.8932c-4.4105 2.5692-6.2895 8.064-4.3471 12.7128 1.2707 3.0411 4.9376 6.5781 6.8196 6.5781.4276 0 .7775-4.7664.7775-10.5921zM-2236.1704-710.5663c5.9745-4.6996 5.6819-13.2876-.5829-17.1076-1.7308-1.0553-3.4844-1.9205-3.8969-1.9226-.4125 0-.75 4.7213-.75 10.4963 0 11.4537.4937 12.2593 5.2298 8.5339z" style="fill:#fff" transform="translate(636.30217886 285.39551334) scale(.1696)"/>
      <path style="fill:none;stroke:#00204e;stroke-width:3;stroke-linecap:round;stroke-miterlimit:4;stroke-opacity:1;stroke-dasharray:none" d="M-2577.5781-348.00872c.3885-1.428.7892-2.49172 1.7888-5.75316 1.8724-6.109 6.4872-13.47609 9.005-15.21926 1.1622-.80467 2.5225-1.60318 4.909-1.47853" transform="translate(636.30217886 285.39551334) scale(.1696)"/>
      <path style="fill:#fff;stroke:#00204e;stroke-width:3;stroke-linecap:round;stroke-linejoin:round;stroke-miterlimit:4;stroke-opacity:1;stroke-dasharray:none" d="M-2413.473-486.17954c3.2061-.20624 11.7804-1.31276 13.9594-1.59099 15.8834-2.02815 25.8073-5.95397 46.6074-15.04197 8.1024-3.5401 9.8124-3.89813 17.0624-3.84375 4.4293.0332 10.1019.82067 13.0581 1.83303 5.0311 1.72297 9.5459 3.40051 13.3466 5.78493" transform="translate(636.30217886 285.39551334) scale(.1696)"/>
      <path transform="translate(715.02394722 318.26649155) scale(.19617)" d="M-2329.2097-789.6983a11.313709 11.313709 0 1 1-22.6274 0 11.313709 11.313709 0 1 1 22.6274 0z" style="fill:#fff;fill-opacity:1;stroke:#00204e;stroke-width:3.45822239;stroke-miterlimit:4;stroke-opacity:1;stroke-dasharray:none"/>
      <path d="M-2243.0369-732.42262v25.10229" style="fill:none;stroke:#00204e;stroke-width:3;stroke-linecap:butt;stroke-linejoin:miter;stroke-miterlimit:4;stroke-opacity:1;stroke-dasharray:none" transform="translate(636.30217886 285.39551334) scale(.1696)"/>
      <path style="fill:none;stroke:#00204e;stroke-width:3;stroke-linecap:round;stroke-linejoin:miter;stroke-miterlimit:4;stroke-opacity:1;stroke-dasharray:none" d="M-2336.6344-643.15035c.1725 3.96432 1.551 7.34442 2.2981 10.25305M-2165.375-697c6.25-5 17.125-6.375 17.125-6.375M-2041.875-273.625c7.125 4.5 7.125 36.75 7.125 36.75M-2163.875-57.500001c-9.4583.666667-14.4167 11.708333-17.5 24.625" transform="translate(636.30217886 285.39551334) scale(.1696)"/>
    </g>
    <g>
      <path d="m-1849.9999 844.99999-1232.8437-206.31245L-3100 845l17.1563 206.3125z" style="fill:#ffce00;fill-opacity:1;stroke:none" transform="translate(525.76 156.688) scale(.1696)"/>
      <path d="M-3100-405.00003-3306.3125 827.8437-3100 845l206.3125-17.1563z" style="fill:#ffce00;fill-opacity:1;stroke:none" transform="translate(525.76 156.688) scale(.1696)"/>
      <path d="m-2499.9999-194.23041-730.8847 905.92922L-3100 845l180.8847 46.69882z" style="fill:#ffce00;fill-opacity:1;stroke:none" transform="translate(525.76 156.688) scale(.1696)"/>
      <path d="m-2060.7695 245-1085.9292 419.11541L-3100 845l133.3013 130.88459z" style="fill:#ffce00;fill-opacity:1;stroke:none" transform="translate(525.76 156.688) scale(.1696)"/>
      <path style="fill:#ffce00;fill-opacity:1;stroke:none" d="M-2483.4775 741.21015c18.4194-5.39894 70.9752-11.87999 140.2484-23.29404 151.8432-25.0191 147.0284-117.42733 278.2902-146.46052 30.8242-6.81788 48.9668-10.30733 70.8115-12.2573.1453-.0168.4558-.21555.3313-.29712-13.6901-8.97613-68.5677-22.83348-111.1446-18.50325-93.9002 9.55002-128.0969 62.02625-207.5807 72.33711-55.0603 7.1426-119.8021-4.36114-177.5441-23.53223L-3100 845zM-2617.9708 446.85411c13.2522-13.88532 55.5264-45.77598 109.8117-90.29743 118.9905-97.58878 68.6166-175.20925 167.7761-265.983634 23.2856-21.316557 37.2528-33.409809 55.1959-46.020883.1174-.0872.287-.414572.1384-.422963-16.3441-.928507-70.7981 14.509476-105.5057 39.548015-76.545 55.220665-79.9221 117.764755-143.6016 166.436125-44.1123 33.71582-105.9322 56.12419-165.5238 68.39254L-3100 845zM-2881.623 259.18094c4.5341-18.65114 25.1993-67.40636 49.951-133.10572 54.2544-144.009609-28.1809-186.043962 12.3065-314.23663 9.5077-30.10348 15.557-47.56014 24.7906-67.45321.058-.13422.041-.50253-.092-.43549-14.6186 7.36793-54.0582 47.96463-71.5966 87.00243-38.6796 86.094998-10.3322 141.948326-41.1446 215.938716-21.3444 51.254907-63.6778 101.571074-109.1515 141.991574L-3100 845z" transform="translate(525.76 156.688) scale(.1696)"/>
    </g>
  </g>
</svg>
