<?xml version="1.0" encoding="UTF-8"?><svg id="a" xmlns="http://www.w3.org/2000/svg" width="1000" height="600" viewBox="0 0 1000 600"><defs><style>.b{fill:#fff;}.c{fill:#fccf1e;}.d{fill:#114b99;}</style></defs><rect class="b" width="1000" height="600"/><path class="d" d="M1000,600H0v-170h1000v170ZM1000,0H0v170h1000V0ZM201.33,237.58l8.52,26.24h27.59s-22.32,16.21-22.32,16.21l8.52,26.24-22.32-16.21-22.32,16.21,8.52-26.24-22.32-16.21h27.59s8.52-26.24,8.52-26.24ZM259.21,300.67h-27.59s22.32,16.21,22.32,16.21l-8.52,26.24,22.32-16.21,22.32,16.21-8.52-26.24,22.32-16.21h-27.59s-8.52-26.24-8.52-26.24l-8.52,26.24ZM325.8,339.64h-27.59s22.32,16.21,22.32,16.21l-8.52,26.24,22.32-16.21,22.32,16.21-8.52-26.24,22.32-16.21h-27.59s-8.52-26.24-8.52-26.24l-8.52,26.24ZM391.94,377.61h-27.59s22.32,16.21,22.32,16.21l-8.52,26.24,22.32-16.21,22.32,16.21-8.52-26.24,22.32-16.21h-27.59s-8.52-26.24-8.52-26.24l-8.52,26.24Z"/><path class="c" d="M663.85,464.99c-.24.25-3.17-3.14-6.5-7.52-21.66-28.48-41.99-50.91-56.46-62.29-11.38-8.94-20.39-12.47-20.39-7.99,0,1.27,6.15,7.41,17.37,17.32,9.55,8.44,18.05,16.2,18.88,17.25,1.83,2.3,3,2.74-15.1-5.72-7.48-3.49-28.61-12.75-46.97-20.57-57.91-24.68-66.66-30.1-107.44-66.56-26.4-23.61-45.72-35.63-70.65-43.97-5.71-1.91-14.06-4.06-18.56-4.78-4.5-.72-8.06-1.65-7.92-2.07.64-1.86,12.15-9.62,20.4-13.76,36.06-18.08,82.68-14.78,126.28,8.93,43.08,23.42,94.78,73.22,133.68,128.77,9.38,13.39,21.3,33.04,26.31,43.36,4.12,8.48,7.84,18.82,7.07,19.61ZM807.97,242.29c-32.87-21.44-96.66-46.87-173.09-57.3-18.76-2.56-63.57-2.59-77.63-.05-14.37,2.59-20.05,3.93-20.05,4.74,0,.4,5.55,1.32,12.33,2.05,29.37,3.14,58.74,10.06,88.13,20.77,31.83,11.59,55.6,16.83,90.38,19.93,11.69,1.04,18.72,1.18,30.06,4.21,9.71,2.59,20.47,6.74,20.59,6.42.08-.22-4.76-2.31-10.87-6.43-2.28-1.54-4.26-3.04-3.95-3.92.21-.6,1.42-.68,1.86-.71,10.61-.71,47.21,17.86,47.21,17.86,4.95,2.51,13.64,6.92,14.04,6.23.58-.99-16.21-11.94-19.02-13.78ZM630.85,167.81c-40.07-8.1-81.07-11.9-136.67-12.67-57.05-.78-84.21,1.57-104.45,9.05-10.02,3.7-31.63,17.52-28.48,18.2,1,.21,7.12-.15,13.6-.81,30.32-3.09,81.99-2.41,112.99,1.47,15.39,1.93,15.92,1.9,25.57-1.43,20.11-6.94,38.01-9.41,68.09-9.4,22.03,0,37.07.91,63.78,3.81,8.21.89,15.16,1.39,15.43,1.11.73-.75-21.03-7.55-29.86-9.34ZM472.87,195.81c-2.42-1.13-7.81-2.77-11.98-3.64-9.16-1.91-17.84-.81-25.82,3.26-5.13,2.62-11.28,7.48-10.5,8.28.23.23,2.89-.25,5.91-1.07,4.84-1.31,7.91-1.72,10.67-1.12,1.39.3,2.55.95,4.89,2.15,3.31,1.69,3.54,2.31,4.82,2.57,3.09.63,5.43-2.19,8.39-4.08,2.82-1.8,7.35-3.5,14.77-2.71,4.31.75,8.61,1.51,12.92,2.26-4.69-1.97-9.39-3.94-14.08-5.9ZM398.35,222.33c-18.34-9.49-38.07-14.85-58.05-15.77-48.17-2.22-90.42,23.44-106.77,64.84-2.81,7.11-6.53,21.55-6.53,25.33,0,2.24,1.62.9,4.47-3.71,1.63-2.63,6.1-7.96,9.94-11.84,8.34-8.43,21.19-15.43,32.92-17.94,10.52-2.25,32.16-1.46,46.1,1.68,5.69,1.28,10.48,2.15,10.64,1.93s2.4-3.48,4.99-7.24c10.65-15.5,30.32-25.39,60.64-30.52l11.08-1.87-9.42-4.88Z"/></svg>