<?xml version="1.0" encoding="UTF-8"?><svg id="a" xmlns="http://www.w3.org/2000/svg" width="1000" height="600" viewBox="0 0 1000 600"><defs><style>.b{fill:#fff;}.c{fill:#fccf1e;}.d{fill:#114b99;}</style></defs><rect class="b" width="1000" height="600"/><path class="d" d="M1000,600H0v-170h1000v170ZM1000,0H0v170h1000V0ZM201.33,237.58l8.52,26.24h27.59s-22.32,16.21-22.32,16.21l8.52,26.24-22.32-16.21-22.32,16.21,8.52-26.24-22.32-16.21h27.59s8.52-26.24,8.52-26.24ZM259.21,300.67h-27.59s22.32,16.21,22.32,16.21l-8.52,26.24,22.32-16.21,22.32,16.21-8.52-26.24,22.32-16.21h-27.59s-8.52-26.24-8.52-26.24l-8.52,26.24ZM325.8,339.64h-27.59s22.32,16.21,22.32,16.21l-8.52,26.24,22.32-16.21,22.32,16.21-8.52-26.24,22.32-16.21h-27.59s-8.52-26.24-8.52-26.24l-8.52,26.24ZM391.94,377.61h-27.59s22.32,16.21,22.32,16.21l-8.52,26.24,22.32-16.21,22.32,16.21-8.52-26.24,22.32-16.21h-27.59s-8.52-26.24-8.52-26.24l-8.52,26.24Z"/><path class="c" d="M663.85,464.99c-.24.25-3.17-3.14-6.5-7.52-21.66-28.48-41.99-50.91-56.46-62.29-11.38-8.94-20.39-12.47-20.39-7.99,0,1.27,6.15,7.41,17.37,17.32,9.55,8.44,18.05,16.2,18.88,17.25,1.83,2.3,3,2.74-15.1-5.72-7.48-3.49-28.61-12.75-46.97-20.57-57.91-24.68-66.66-30.1-107.44-66.56-26.4-23.61-45.72-35.63-70.65-43.97-5.71-1.91-14.06-4.06-18.56-4.78-4.5-.72-8.06-1.65-7.92-2.07.64-1.86,12.15-9.62,20.4-13.76,36.06-18.08,82.68-14.78,126.28,8.93,43.08,23.42,94.78,73.22,133.68,128.77,9.38,13.39,21.3,33.04,26.31,43.36,4.12,8.48,7.84,18.82,7.07,19.61ZM807.97,242.29c-32.87-21.44-96.66-46.87-173.09-57.3-18.76-2.56-63.57-2.59-77.63-.05-14.37,2.59-20.05,3.93-20.05,4.74,0,.4,5.55,1.32,12.33,2.05,29.37,3.14,58.74,10.06,88.13,20.77,31.83,11.59,55.6,16.83,90.38,19.93,11.69,1.04,18.72,1.18,30.06,4.21,9.71,2.59,20.47,6.74,20.59,6.42.08-.22-4.76-2.31-10.87-6.43-2.28-1.54-4.26-3.04-3.95-3.92.21-.6,1.42-.68,1.86-.71,10.61-.71,47.21,17.86,47.21,17.86,4.95,2.51,13.64,6.92,14.04,6.23.58-.99-16.21-11.94-19.02-13.78ZM630.85,167.81c-40.07-8.1-81.07-11.9-136.67-12.67-57.05-.78-84.21,1.57-104.45,9.05-10.02,3.7-31.63,17.52-28.48,18.2,1,.21,7.12-.15,13.6-.81,30.32-3.09,81.99-2.41,112.99,1.47,15.39,1.93,15.92,1.9,25.57-1.43,20.11-6.94,38.01-9.41,68.09-9.4,22.03,0,37.07.91,63.78,3.81,8.21.89,15.16,1.39,15.43,1.11.73-.75-21.03-7.55-29.86-9.34ZM472.87,195.81c-2.42-1.13-7.81-2.77-11.98-3.64-9.16-1.91-17.84-.81-25.82,3.26-5.13,2.62-11.28,7.48-10.5,8.28.23.23,2.89-.25,5.91-1.07,4.84-1.31,7.91-1.72,10.67-1.12,1.39.3,2.55.95,4.89,2.15,3.31,1.69,3.54,2.31,4.82,2.57,3.09.63,5.43-2.19,8.39-4.08,2.82-1.8,7.35-3.5,14.77-2.71,4.31.75,8.61,1.51,12.92,2.26-4.69-1.97-9.39-3.94-14.08-5.9ZM398.35,222.33c-18.34-9.49-38.07-14.85-58.05-15.77-48.17-2.22-90.42,23.44-106.77,64.84-2.81,7.11-6.53,21.55-6.53,25.33,0,2.24,1.62.9,4.47-3.71,1.63-2.63,6.1-7.96,9.94-11.84,8.34-8.43,21.19-15.43,32.92-17.94,10.52-2.25,32.16-1.46,46.1,1.68,5.69,1.28,10.48,2.15,10.64,1.93s2.4-3.48,4.99-7.24c10.65-15.5,30.32-25.39,60.64-30.52l11.08-1.87-9.42-4.88ZM264.88,535.67c-1.6,0-2.96-.2-4.1-.59s-1.78-1.05-1.92-1.98c.19-.78.65-1.34,1.38-1.68.73-.34,1.6-.5,2.61-.5s1.89.12,2.61.36,1.6.7,2.61,1.37l1.81,1.51v.34h-1.31v-.39c1.45-1.34,2.5-3.17,3.16-5.48.65-2.31.98-5.46.98-9.45v-5.81c0-1.94-.01-4.1-.04-6.48-.03-2.38-.05-5.18-.07-8.38-.03-3.2-.08-7.02-.18-11.46h6.6c-.1,3.06-.16,6.15-.18,9.28-.03,3.13-.04,6.32-.04,9.56v11.79c0,2.8-.16,5.08-.47,6.85-.31,1.77-.79,3.23-1.41,4.39-.63,1.16-1.43,2.18-2.39,3.07-1.35,1.3-2.85,2.24-4.5,2.82-1.65.58-3.36.87-5.15.87ZM263.94,488.72v-1.68h22.57v1.68l-10.23.61h-1.67l-10.67-.61ZM307.12,530.7c-2.23,0-4.35-.34-6.36-1.01-2.01-.67-3.77-1.65-5.29-2.94-1.52-1.29-2.72-2.86-3.6-4.72-.88-1.86-1.32-3.97-1.32-6.34s.44-4.44,1.32-6.3c.88-1.86,2.08-3.44,3.6-4.74s3.28-2.3,5.29-2.98c2.01-.68,4.13-1.03,6.36-1.03s4.39.34,6.38,1.01c1.99.67,3.76,1.65,5.29,2.94,1.54,1.29,2.73,2.87,3.6,4.74.86,1.87,1.29,3.99,1.29,6.36s-.43,4.44-1.29,6.3c-.86,1.86-2.06,3.43-3.6,4.72-1.54,1.29-3.3,2.28-5.29,2.96-1.99.68-4.12,1.03-6.38,1.03ZM307.12,529.35c1.92,0,3.62-.36,5.09-1.09s2.69-1.71,3.67-2.96c.98-1.25,1.72-2.7,2.23-4.34.51-1.65.76-3.4.76-5.27s-.25-3.59-.76-5.23c-.51-1.65-1.25-3.1-2.23-4.37-.98-1.26-2.2-2.25-3.67-2.96s-3.17-1.07-5.09-1.07-3.62.36-5.09,1.07c-1.47.71-2.7,1.7-3.7,2.96-1,1.26-1.74,2.72-2.23,4.37-.49,1.65-.73,3.39-.73,5.23s.24,3.63.73,5.27c.49,1.65,1.23,3.09,2.23,4.34,1,1.25,2.23,2.24,3.7,2.96,1.47.72,3.17,1.09,5.09,1.09ZM328.34,502.49v-1.18h15.04v1.18l-7.09.43h-1.01l-6.94-.43ZM328.34,530.07v-1.18l6.94-.47h1.01l7.09.47v1.18h-15.04ZM333.5,530.07c.07-2.21.1-4.42.1-6.64v-15.5c0-2.22-.03-4.43-.1-6.62h4.71c-.03,2.19-.06,4.39-.08,6.62-.02,2.23-.02,4.46-.02,6.7v.95c0,2.82,0,5.38.02,7.7.02,2.32.04,4.58.08,6.79h-4.71ZM335.89,515.81v-1.3h22.84v1.3h-22.84ZM351.18,502.49v-1.18h15.04v1.18l-6.94.43h-1.06l-7.04-.43ZM351.18,530.07v-1.18l7.04-.47h1.06l6.94.47v1.18h-15.04ZM356.3,530.07c.07-2.21.11-4.47.13-6.77.02-2.3.03-4.88.03-7.72v-.95c0-2.24,0-4.47-.03-6.7-.02-2.22-.06-4.43-.13-6.62h4.76c-.07,2.19-.11,4.39-.13,6.62-.02,2.23-.03,4.46-.03,6.7v2.13c0,2.24,0,4.46.03,6.68.02,2.21.06,4.42.13,6.64h-4.76ZM400.06,530.34l-22.74-26.11-.1-.04-1.22-1.46-4.96-.24v-1.18h8.91l21.37,24.69-.86.24-.1-11.77v-13.15h1.87v29.03h-2.18ZM371.08,530.07v-1.18l5.37-.47h1.11l6.53.47v1.18h-13.02ZM375.95,530.07v-27.85h1.82l.15,15.25v12.6h-1.98ZM394.23,502.49v-1.18h12.92v1.18l-5.32.43h-1.01l-6.58-.43ZM422.29,530.7c-2.09,0-4.09-.22-5.98-.67-1.89-.45-3.46-.99-4.71-1.62l.3-5.89h2.08l1.57,6.48-2.28-.83-.3-1.3c1.65.95,3.12,1.59,4.41,1.92,1.28.33,2.82.49,4.61.49,2.73,0,4.95-.48,6.63-1.44,1.69-.96,2.53-2.39,2.53-4.29,0-.97-.23-1.81-.68-2.51-.46-.7-1.21-1.34-2.25-1.94-1.05-.59-2.5-1.18-4.36-1.76l-2.18-.67c-3.01-1-5.28-2.17-6.84-3.5-1.55-1.33-2.33-3-2.33-5,0-1.66.53-3.05,1.6-4.17s2.48-1.96,4.25-2.53c1.77-.57,3.76-.85,5.95-.85,1.92,0,3.61.19,5.06.57,1.45.38,2.8.92,4.05,1.6l-.2,5.61h-2.18l-1.57-6.24,2.38.87.15,1.26c-1.32-.82-2.52-1.39-3.62-1.72-1.1-.33-2.37-.49-3.82-.49-2.36,0-4.31.44-5.85,1.32-1.54.88-2.3,2.18-2.3,3.89,0,1.5.57,2.7,1.7,3.59,1.13.9,2.69,1.67,4.69,2.33l2.28.71c2.57.84,4.58,1.68,6.05,2.51,1.47.83,2.51,1.74,3.11,2.73.61.99.91,2.15.91,3.5,0,1.63-.53,3.06-1.6,4.27-1.06,1.21-2.56,2.14-4.48,2.78-1.92.65-4.19.97-6.79.97ZM438.09,508.81l.41-7.5h30.34l.46,7.5h-2.18l-1.82-7.5,2.08,1.38h-27.4l2.13-1.38-1.82,7.5h-2.18ZM445.59,530.07v-1.18l7.45-.47h1.27l7.5.47v1.18h-16.21ZM451.31,530.07c.07-2.21.11-4.42.13-6.64.02-2.21.03-4.44.03-6.68v-2.13c0-2.24,0-4.47-.03-6.7-.02-2.22-.06-4.43-.13-6.62h4.71c-.03,2.19-.06,4.39-.08,6.62-.02,2.23-.03,4.46-.03,6.7v2.13c0,2.24,0,4.46.03,6.68.02,2.21.04,4.42.08,6.64h-4.71ZM489.4,530.7c-2.23,0-4.35-.34-6.36-1.01-2.01-.67-3.77-1.65-5.29-2.94-1.52-1.29-2.72-2.86-3.6-4.72-.88-1.86-1.32-3.97-1.32-6.34s.44-4.44,1.32-6.3c.88-1.86,2.08-3.44,3.6-4.74s3.28-2.3,5.29-2.98c2.01-.68,4.13-1.03,6.36-1.03s4.39.34,6.38,1.01c1.99.67,3.76,1.65,5.29,2.94,1.54,1.29,2.73,2.87,3.6,4.74.86,1.87,1.29,3.99,1.29,6.36s-.43,4.44-1.29,6.3-2.06,3.43-3.6,4.72c-1.54,1.29-3.3,2.28-5.29,2.96-1.99.68-4.12,1.03-6.38,1.03ZM489.4,529.35c1.92,0,3.62-.36,5.09-1.09s2.69-1.71,3.67-2.96c.98-1.25,1.72-2.7,2.23-4.34.51-1.65.76-3.4.76-5.27s-.25-3.59-.76-5.23c-.51-1.65-1.25-3.1-2.23-4.37-.98-1.26-2.2-2.25-3.67-2.96s-3.17-1.07-5.09-1.07-3.62.36-5.09,1.07c-1.47.71-2.7,1.7-3.7,2.96-1,1.26-1.74,2.72-2.23,4.37-.49,1.65-.73,3.39-.73,5.23s.24,3.63.73,5.27c.49,1.65,1.23,3.09,2.23,4.34,1,1.25,2.23,2.24,3.7,2.96,1.47.72,3.17,1.09,5.09,1.09ZM539.54,530.34l-22.74-26.11-.1-.04-1.21-1.46-4.96-.24v-1.18h8.91l21.37,24.69-.86.24-.1-11.77v-13.15h1.87v29.03h-2.18ZM510.57,530.07v-1.18l5.37-.47h1.11l6.53.47v1.18h-13.02ZM515.43,530.07v-27.85h1.82l.15,15.25v12.6h-1.97ZM533.71,502.49v-1.18h12.92v1.18l-5.32.43h-1.01l-6.58-.43ZM561.47,530.07v-1.64l6.89-.6h1.2l7.66.6v1.64h-15.74ZM566.53,530.07l17.15-40.23h3.94l17.43,40.23h-6.32l-15.46-37h1.41l-.28.77-14.9,36.23h-2.95ZM574.12,516.42l.28-1.75h21.36l.28,1.75h-21.93ZM590,530.07v-1.64l9.42-.6h2.04l9.14.6v1.64h-20.59ZM608.87,508.81l.41-7.5h30.34l.46,7.5h-2.18l-1.82-7.5,2.08,1.38h-27.4l2.13-1.38-1.82,7.5h-2.18ZM616.37,530.07v-1.18l7.45-.47h1.27l7.5.47v1.18h-16.21ZM622.09,530.07c.07-2.21.11-4.42.13-6.64.02-2.21.03-4.44.03-6.68v-2.13c0-2.24,0-4.47-.03-6.7-.02-2.22-.06-4.43-.13-6.62h4.71c-.03,2.19-.06,4.39-.08,6.62-.02,2.23-.03,4.46-.03,6.7v2.13c0,2.24,0,4.46.03,6.68.02,2.21.04,4.42.08,6.64h-4.71ZM660.18,530.7c-2.23,0-4.35-.34-6.36-1.01-2.01-.67-3.77-1.65-5.29-2.94-1.52-1.29-2.72-2.86-3.6-4.72-.88-1.86-1.32-3.97-1.32-6.34s.44-4.44,1.32-6.3c.88-1.86,2.08-3.44,3.6-4.74s3.28-2.3,5.29-2.98c2.01-.68,4.13-1.03,6.36-1.03s4.39.34,6.38,1.01c1.99.67,3.76,1.65,5.29,2.94,1.54,1.29,2.73,2.87,3.6,4.74.86,1.87,1.29,3.99,1.29,6.36s-.43,4.44-1.29,6.3-2.06,3.43-3.6,4.72c-1.54,1.29-3.3,2.28-5.29,2.96-1.99.68-4.12,1.03-6.38,1.03ZM660.18,529.35c1.92,0,3.62-.36,5.09-1.09s2.69-1.71,3.67-2.96c.98-1.25,1.72-2.7,2.23-4.34.51-1.65.76-3.4.76-5.27s-.25-3.59-.76-5.23c-.51-1.65-1.25-3.1-2.23-4.37-.98-1.26-2.2-2.25-3.67-2.96s-3.17-1.07-5.09-1.07-3.62.36-5.09,1.07-2.7,1.7-3.7,2.96c-1,1.26-1.74,2.72-2.23,4.37s-.73,3.39-.73,5.23.25,3.63.73,5.27,1.23,3.09,2.23,4.34c1,1.25,2.23,2.24,3.7,2.96s3.17,1.09,5.09,1.09ZM681.4,502.49v-1.18h15.24v1.18l-7.09.43h-1.17l-6.99-.43ZM681.4,530.07v-1.18l6.99-.47h.56v1.66h-7.55ZM686.57,530.07c.07-2.21.1-4.4.1-6.58v-15.56c0-2.22-.03-4.43-.1-6.62h4.71c-.03,2.19-.06,4.41-.08,6.68-.02,2.26-.03,4.65-.03,7.15v2.29c0,1.9,0,3.92.03,6.08.02,2.16.04,4.34.08,6.56h-4.71ZM688.95,530.07v-1.34h17.73l-2.13.95,1.77-7.31h2.23l-.35,7.7h-19.25ZM712.5,502.49v-1.18h15.24v1.18l-7.09.43h-1.17l-6.99-.43ZM712.5,530.07v-1.18l6.99-.47h.56v1.66h-7.55ZM717.67,530.07c.07-2.21.1-4.4.1-6.58v-15.56c0-2.22-.03-4.43-.1-6.62h4.71c-.03,2.19-.06,4.41-.08,6.68-.02,2.26-.03,4.65-.03,7.15v2.29c0,1.9,0,3.92.03,6.08.02,2.16.04,4.34.08,6.56h-4.71ZM720.05,530.07v-1.34h17.73l-2.13.95,1.77-7.31h2.23l-.35,7.7h-19.25Z"/></svg>