<?xml version="1.0" encoding="UTF-8"?>
<svg width="300" height="200.77" version="1.1" viewBox="0 0 79.375 53.121" xml:space="preserve" xmlns="http://www.w3.org/2000/svg" xmlns:xlink="http://www.w3.org/1999/xlink"><defs/><g transform="translate(-95.78 -129.12)"><path d="m95.788 129.12h79.357v53.112h-79.357z" fill="#fff" stroke-linecap="square" stroke-miterlimit="6" stroke-width=".062426" style="paint-order:fill markers stroke"/><path d="M95.78 155.809h79.374v26.429H95.78Z" fill="#5eb6e4" stroke-linecap="square" stroke-miterlimit="6" stroke-width=".044042" style="paint-order:fill markers stroke"/><g transform="matrix(.57442 0 0 .57442 86.896 70.585)"><g transform="translate(32.942 81.53)" fill="#1353b4"><g fill="#1353b4" style="paint-order:markers fill stroke"><path transform="matrix(-.25464 0 0 .25464 122.45 -19.618)" d="M184.9 208.088V415.75c0 19.087 13.424 30.412 27.738 30.412h33.338c20.858 0 32.194 10.38 32.194 22.903 0-12.523 11.334-22.903 32.192-22.903h33.337c.448 0 .894-.012 1.339-.034 13.801-.682 26.4-11.887 26.4-30.377V208.088H278.17Z" color-rendering="auto" dominant-baseline="auto" fill="#0b52b5" fill-rule="evenodd" image-rendering="auto" shape-rendering="auto" style="font-feature-settings:normal;font-variant-alternates:normal;font-variant-caps:normal;font-variant-east-asian:normal;font-variant-ligatures:normal;font-variant-numeric:normal;font-variant-position:normal;font-variation-settings:normal;inline-size:0;isolation:auto;mix-blend-mode:normal;paint-order:markers fill stroke;shape-margin:0;shape-padding:0;text-decoration-color:#000;text-decoration-line:none;text-decoration-style:solid;text-indent:0;text-orientation:mixed;text-transform:none;white-space:normal"/></g></g><path d="M108.306 114.98v52.88c0 4.86-3.42 7.743-7.064 7.743h-8.49c-5.31 0-8.196 2.643-8.196 5.832 0-3.19-2.887-5.832-8.198-5.832h-8.49a6.43 6.43 0 0 1-.34-.01c-3.515-.172-6.723-3.025-6.723-7.734v-52.88h23.75z" color-rendering="auto" dominant-baseline="auto" fill-opacity="0" image-rendering="auto" shape-rendering="auto" stroke="#544002" stroke-linecap="square" stroke-width=".3175" style="font-feature-settings:normal;font-variant-alternates:normal;font-variant-caps:normal;font-variant-east-asian:normal;font-variant-ligatures:normal;font-variant-numeric:normal;font-variant-position:normal;font-variation-settings:normal;inline-size:0;isolation:auto;mix-blend-mode:normal;paint-order:markers fill stroke;shape-margin:0;shape-padding:0;text-decoration-color:#000;text-decoration-line:none;text-decoration-style:solid;text-indent:0;text-orientation:mixed;text-transform:none;white-space:normal"/><g transform="matrix(-.60336 0 0 .60476 3.558 -8.01)" fill="#fff" stroke="#70511d"><g stroke-width=".70903"><path d="m-122.67 220.31v51.125l3.86 25.563h-30.871l3.859-25.563v-51.125z" fill="#ee6c6c" stroke="none" style="paint-order:markers fill stroke"/><path d="m-134.24 297h-15.435l3.859-25.563v-51.125h11.576z" fill="#d02e2e" stroke="none" style="paint-order:markers fill stroke"/><path d="m-128.45 220.31v51.125l4.842 25.563h-21.26l4.842-25.563v-51.125z" fill="#e94545" stroke="none" style="paint-order:markers fill stroke"/><g fill="none" stroke="#920000" stroke-width=".70903"><g transform="translate(.978)"><path transform="matrix(-.60154 0 0 .601 355.97 132.13)" d="m797.31 146.72v85.069l-6.415 42.534h51.319l-6.415-42.534v-85.07z" stroke-linecap="square" stroke-width="1.1792" style="paint-order:markers fill stroke"/><path d="m-123.64 252.26h-23.153" stroke-width=".70903"/><path d="m-123.64 226.7h-23.153" stroke-width=".70903"/><path d="m-122.68 277.83h-25.082" stroke-width=".70903"/><path d="m-123.64 265.04h-23.153" stroke-width=".70903"/><path d="m-123.64 239.48h-23.153" stroke-width=".70903"/><path d="m-120.75 290.61h-28.94" stroke-width=".70903"/><path d="m-123.64 258.65h-23.153" stroke-width=".70903"/><path d="m-123.64 233.09h-23.153" stroke-width=".70903"/><path d="m-121.71 284.22h-27.01" stroke-width=".70903"/><path d="m-123.64 271.44h-23.153" stroke-width=".70903"/><path d="m-123.64 245.87h-23.153" stroke-width=".70903"/></g><g transform="translate(.978 19.172)"><path d="m-135.22 271.44v-6.39"/><path d="m-127.5 271.44v-6.39"/><path d="m-142.94 271.44v-6.39"/></g><g transform="translate(-2.881 12.781)"><path d="m-135.22 271.44v-6.39"/><path d="m-127.5 271.44v-6.39"/></g><g transform="translate(-2.881)"><path d="m-135.22 271.44v-6.39"/><path d="m-127.5 271.44v-6.39"/></g><g transform="translate(.978 -6.39)"><path d="m-135.22 271.44v-6.39"/><path d="m-127.5 271.44v-6.39"/><path d="m-142.94 271.44v-6.39"/></g><g transform="translate(-2.881 -12.781)"><path d="m-135.22 271.44v-6.39"/><path d="m-127.5 271.44v-6.39"/></g><g transform="translate(.978 -19.172)"><path d="m-135.22 271.44v-6.39"/><path d="m-127.5 271.44v-6.39"/><path d="m-142.94 271.44v-6.39"/></g><g transform="translate(-2.881 -25.563)"><path d="m-135.22 271.44v-6.39"/><path d="m-127.5 271.44v-6.39"/></g><g transform="translate(.978 -31.954)"><path d="m-135.22 271.44v-6.39"/><path d="m-127.5 271.44v-6.39"/><path d="m-142.94 271.44v-6.39"/></g><g transform="translate(-2.881 -38.344)"><path d="m-135.22 271.44v-6.39"/><path d="m-127.5 271.44v-6.39"/></g><g transform="translate(.978 -44.735)"><path d="m-135.22 271.44v-6.39"/><path d="m-127.5 271.44v-6.39"/><path d="m-142.94 271.44v-6.39"/></g><g transform="translate(-10.599 25.563)"><path d="m-119.78 271.44v-6.39"/><path d="m-135.22 271.44v-6.39"/><path d="m-127.5 271.44v-6.39"/><path d="m-112.07 271.44v-6.39"/></g><g transform="matrix(1 0 0 -1 .978 542.87)"><path d="m-135.22 271.44v-6.39"/><path d="m-127.5 271.44v-6.39"/><path d="m-142.94 271.44v-6.39"/></g></g></g><path d="M-122.44 271.435c.22 0 .4-.39.4-.872 0-.481-.18-.872-.4-.872h-23.603c-.22 0-.4.39-.4.872s.18.872.4.872z" fill="#e94545" stroke="#920000" stroke-width=".70903"/><path d="m-138.7 297h8.908v-13.961c0-3.133-1.754-5.172-4.45-5.172-2.697 0-4.452 2.039-4.455 5.172z" fill="#1a1a1a" stroke="#920000" stroke-width=".70903"/><path d="m-130.38 245.87v-8.301c0-2.715-1.52-4.48-3.856-4.48s-3.856 1.765-3.859 4.48l-3e-3 8.3z" fill="#1a1a1a" stroke="#920000" stroke-linecap="square" stroke-width=".70903"/><g transform="matrix(.80093 0 0 .80104 10.115 53.043)" stroke="#920000" stroke-width=".8852"><path d="M-194.731 209.237c-.47-.843-.659-1.72-1.106-2.53-.49-.887-1.705-1.687-2.175-2.53h35.382c-.572.843-1.598 1.643-2.088 2.53-.448.81-.738 1.687-1.106 2.53z" fill="#e94545"/><path d="m-162.55 195.64v8.542h-35.381v-8.542l4.012 2.84 4.011-2.84v4.968h5.543v-4.968l4.125 2.84 4.124-2.84v4.968h5.618v-4.968l3.974 2.84z" fill="#e94545"/><path d="M-173.83 204.177c.775-.002 1.4.67 1.581 1.557h.006l.003.47.018 3.077-3.158.009-.017-3.077-.003-.47c.171-.888.794-1.564 1.57-1.566z" fill="#d02e2e"/><path d="M-193.133 204.177c-.774-.002-1.4.67-1.58 1.557h-.007l-.003.47-.017 3.077 3.157.009.018-3.077.003-.47c-.171-.888-.794-1.564-1.57-1.566z" fill="#d02e2e"/><path d="M-180.277 204.177c.774-.002 1.4.67 1.58 1.557h.007l.003.47.017 3.077-3.157.009-.018-3.077-.003-.47c.171-.888.794-1.564 1.57-1.566z" fill="#d02e2e"/><path d="M-167.382 204.177c.775-.002 1.4.67 1.581 1.557h.006l.003.47.018 3.077-3.158.009-.017-3.077-.003-.47c.17-.888.794-1.564 1.57-1.566z" fill="#d02e2e"/><path d="M-186.685 204.177c-.774-.002-1.4.67-1.58 1.557h-.007l-.003.47-.017 3.077 3.157.009.018-3.077.003-.47c-.171-.888-.795-1.564-1.57-1.566z" fill="#d02e2e"/></g></g></g><g transform="rotate(-90)" stroke-linecap="round" stroke-linejoin="round" stroke-miterlimit="6"></g></g><style type="text/css">.st2,.st3{stroke-linecap:square}.st4{stroke:#000;stroke-width:1.5}.st7,.st8{stroke-linecap:round}.st9{stroke:#fff;stroke-width:1.5}.st2{stroke-miterlimit:282}.st18,.st24,.st26,.st7{stroke-width:1.8814;stroke-miterlimit:282}.st18,.st24,.st26{stroke:#a00;stroke-width:.1793}.st24,.st26{stroke:#806600;stroke-width:.7}.st26{stroke:#a80;stroke-width:1.4887}.st2{stroke-width:1}.st2,.st7{stroke:maroon}.st9{fill:#fff}.st1{fill:none;stroke:maroon;stroke-width:1.0549;stroke-miterlimit:282}.st2{fill:#1353b4}.st3{fill:none;stroke:#540;stroke-width:2;stroke-miterlimit:282}.st4{fill:#e4c900}.st7{fill:#806600}.st8{fill:#d1b948;stroke:#806600;stroke-width:1.4155;stroke-miterlimit:282}.st9{adobe-knockout:true}.st14{fill:#f6c058}.st18{adobe-knockout:false}.st18,.st24{fill:#fff}.st26{fill:none}</style></svg>
