<?xml version="1.0" encoding="UTF-8"?>
<svg width="300" height="200.77" version="1.1" viewBox="0 0 79.375 53.121" xml:space="preserve" xmlns="http://www.w3.org/2000/svg" xmlns:xlink="http://www.w3.org/1999/xlink"><defs/><g transform="translate(-95.78 -129.12)"><path d="m95.788 129.12h79.357v53.112h-79.357z" fill="#fff" stroke-linecap="square" stroke-miterlimit="6" stroke-width=".062426" style="paint-order:fill markers stroke"/><path d="M95.78 155.809h79.374v26.429H95.78Z" fill="#5eb6e4" stroke-linecap="square" stroke-miterlimit="6" stroke-width=".044042" style="paint-order:fill markers stroke"/><g transform="matrix(.57442 0 0 .57442 86.896 70.585)"><g transform="translate(32.942 81.53)" fill="#1353b4"><g fill="#1353b4" style="paint-order:markers fill stroke"><path transform="matrix(-.25464 0 0 .25464 122.45 -19.618)" d="M184.9 208.088V415.75c0 19.087 13.424 30.412 27.738 30.412h33.338c20.858 0 32.194 10.38 32.194 22.903 0-12.523 11.334-22.903 32.192-22.903h33.337c.448 0 .894-.012 1.339-.034 13.801-.682 26.4-11.887 26.4-30.377V208.088H278.17Z" color-rendering="auto" dominant-baseline="auto" fill="#0b52b5" fill-rule="evenodd" image-rendering="auto" shape-rendering="auto" style="font-feature-settings:normal;font-variant-alternates:normal;font-variant-caps:normal;font-variant-east-asian:normal;font-variant-ligatures:normal;font-variant-numeric:normal;font-variant-position:normal;font-variation-settings:normal;inline-size:0;isolation:auto;mix-blend-mode:normal;paint-order:markers fill stroke;shape-margin:0;shape-padding:0;text-decoration-color:#000;text-decoration-line:none;text-decoration-style:solid;text-indent:0;text-orientation:mixed;text-transform:none;white-space:normal"/></g></g><path d="M108.306 114.98v52.88c0 4.86-3.42 7.743-7.064 7.743h-8.49c-5.31 0-8.196 2.643-8.196 5.832 0-3.19-2.887-5.832-8.198-5.832h-8.49a6.43 6.43 0 0 1-.34-.01c-3.515-.172-6.723-3.025-6.723-7.734v-52.88h23.75z" color-rendering="auto" dominant-baseline="auto" fill-opacity="0" image-rendering="auto" shape-rendering="auto" stroke="#544002" stroke-linecap="square" stroke-width=".3175" style="font-feature-settings:normal;font-variant-alternates:normal;font-variant-caps:normal;font-variant-east-asian:normal;font-variant-ligatures:normal;font-variant-numeric:normal;font-variant-position:normal;font-variation-settings:normal;inline-size:0;isolation:auto;mix-blend-mode:normal;paint-order:markers fill stroke;shape-margin:0;shape-padding:0;text-decoration-color:#000;text-decoration-line:none;text-decoration-style:solid;text-indent:0;text-orientation:mixed;text-transform:none;white-space:normal"/><g transform="matrix(-.60336 0 0 .60476 3.558 -8.01)" fill="#fff" stroke="#70511d"><g stroke-width=".70903"><path d="m-122.67 220.31v51.125l3.86 25.563h-30.871l3.859-25.563v-51.125z" fill="#ee6c6c" stroke="none" style="paint-order:markers fill stroke"/><path d="m-134.24 297h-15.435l3.859-25.563v-51.125h11.576z" fill="#d02e2e" stroke="none" style="paint-order:markers fill stroke"/><path d="m-128.45 220.31v51.125l4.842 25.563h-21.26l4.842-25.563v-51.125z" fill="#e94545" stroke="none" style="paint-order:markers fill stroke"/><g fill="none" stroke="#920000" stroke-width=".70903"><g transform="translate(.978)"><path transform="matrix(-.60154 0 0 .601 355.97 132.13)" d="m797.31 146.72v85.069l-6.415 42.534h51.319l-6.415-42.534v-85.07z" stroke-linecap="square" stroke-width="1.1792" style="paint-order:markers fill stroke"/><path d="m-123.64 252.26h-23.153" stroke-width=".70903"/><path d="m-123.64 226.7h-23.153" stroke-width=".70903"/><path d="m-122.68 277.83h-25.082" stroke-width=".70903"/><path d="m-123.64 265.04h-23.153" stroke-width=".70903"/><path d="m-123.64 239.48h-23.153" stroke-width=".70903"/><path d="m-120.75 290.61h-28.94" stroke-width=".70903"/><path d="m-123.64 258.65h-23.153" stroke-width=".70903"/><path d="m-123.64 233.09h-23.153" stroke-width=".70903"/><path d="m-121.71 284.22h-27.01" stroke-width=".70903"/><path d="m-123.64 271.44h-23.153" stroke-width=".70903"/><path d="m-123.64 245.87h-23.153" stroke-width=".70903"/></g><g transform="translate(.978 19.172)"><path d="m-135.22 271.44v-6.39"/><path d="m-127.5 271.44v-6.39"/><path d="m-142.94 271.44v-6.39"/></g><g transform="translate(-2.881 12.781)"><path d="m-135.22 271.44v-6.39"/><path d="m-127.5 271.44v-6.39"/></g><g transform="translate(-2.881)"><path d="m-135.22 271.44v-6.39"/><path d="m-127.5 271.44v-6.39"/></g><g transform="translate(.978 -6.39)"><path d="m-135.22 271.44v-6.39"/><path d="m-127.5 271.44v-6.39"/><path d="m-142.94 271.44v-6.39"/></g><g transform="translate(-2.881 -12.781)"><path d="m-135.22 271.44v-6.39"/><path d="m-127.5 271.44v-6.39"/></g><g transform="translate(.978 -19.172)"><path d="m-135.22 271.44v-6.39"/><path d="m-127.5 271.44v-6.39"/><path d="m-142.94 271.44v-6.39"/></g><g transform="translate(-2.881 -25.563)"><path d="m-135.22 271.44v-6.39"/><path d="m-127.5 271.44v-6.39"/></g><g transform="translate(.978 -31.954)"><path d="m-135.22 271.44v-6.39"/><path d="m-127.5 271.44v-6.39"/><path d="m-142.94 271.44v-6.39"/></g><g transform="translate(-2.881 -38.344)"><path d="m-135.22 271.44v-6.39"/><path d="m-127.5 271.44v-6.39"/></g><g transform="translate(.978 -44.735)"><path d="m-135.22 271.44v-6.39"/><path d="m-127.5 271.44v-6.39"/><path d="m-142.94 271.44v-6.39"/></g><g transform="translate(-10.599 25.563)"><path d="m-119.78 271.44v-6.39"/><path d="m-135.22 271.44v-6.39"/><path d="m-127.5 271.44v-6.39"/><path d="m-112.07 271.44v-6.39"/></g><g transform="matrix(1 0 0 -1 .978 542.87)"><path d="m-135.22 271.44v-6.39"/><path d="m-127.5 271.44v-6.39"/><path d="m-142.94 271.44v-6.39"/></g></g></g><path d="M-122.44 271.435c.22 0 .4-.39.4-.872 0-.481-.18-.872-.4-.872h-23.603c-.22 0-.4.39-.4.872s.18.872.4.872z" fill="#e94545" stroke="#920000" stroke-width=".70903"/><path d="m-138.7 297h8.908v-13.961c0-3.133-1.754-5.172-4.45-5.172-2.697 0-4.452 2.039-4.455 5.172z" fill="#1a1a1a" stroke="#920000" stroke-width=".70903"/><path d="m-130.38 245.87v-8.301c0-2.715-1.52-4.48-3.856-4.48s-3.856 1.765-3.859 4.48l-3e-3 8.3z" fill="#1a1a1a" stroke="#920000" stroke-linecap="square" stroke-width=".70903"/><g transform="matrix(.80093 0 0 .80104 10.115 53.043)" stroke="#920000" stroke-width=".8852"><path d="M-194.731 209.237c-.47-.843-.659-1.72-1.106-2.53-.49-.887-1.705-1.687-2.175-2.53h35.382c-.572.843-1.598 1.643-2.088 2.53-.448.81-.738 1.687-1.106 2.53z" fill="#e94545"/><path d="m-162.55 195.64v8.542h-35.381v-8.542l4.012 2.84 4.011-2.84v4.968h5.543v-4.968l4.125 2.84 4.124-2.84v4.968h5.618v-4.968l3.974 2.84z" fill="#e94545"/><path d="M-173.83 204.177c.775-.002 1.4.67 1.581 1.557h.006l.003.47.018 3.077-3.158.009-.017-3.077-.003-.47c.171-.888.794-1.564 1.57-1.566z" fill="#d02e2e"/><path d="M-193.133 204.177c-.774-.002-1.4.67-1.58 1.557h-.007l-.003.47-.017 3.077 3.157.009.018-3.077.003-.47c-.171-.888-.794-1.564-1.57-1.566z" fill="#d02e2e"/><path d="M-180.277 204.177c.774-.002 1.4.67 1.58 1.557h.007l.003.47.017 3.077-3.157.009-.018-3.077-.003-.47c.171-.888.794-1.564 1.57-1.566z" fill="#d02e2e"/><path d="M-167.382 204.177c.775-.002 1.4.67 1.581 1.557h.006l.003.47.018 3.077-3.158.009-.017-3.077-.003-.47c.17-.888.794-1.564 1.57-1.566z" fill="#d02e2e"/><path d="M-186.685 204.177c-.774-.002-1.4.67-1.58 1.557h-.007l-.003.47-.017 3.077 3.157.009.018-3.077.003-.47c-.171-.888-.795-1.564-1.57-1.566z" fill="#d02e2e"/></g></g></g><g transform="rotate(-90)" stroke-linecap="round" stroke-linejoin="round" stroke-miterlimit="6"><path d="M-173.138 104.967v-.914h.295q.07.434.32.648.25.215.695.215.36 0 .548-.153.188-.152.188-.447 0-.232-.129-.361-.126-.13-.527-.24l-.52-.143q-.508-.145-.715-.4-.207-.259-.207-.734 0-.574.341-.892.344-.32.962-.32.304 0 .633.057.33.057.684.17v.853h-.294q-.07-.398-.297-.581-.228-.186-.649-.186-.344 0-.52.134-.175.132-.175.395 0 .24.122.367.12.124.591.259l.522.142q.483.134.7.418.217.285.217.783 0 .584-.361.889-.362.302-1.067.302-.339 0-.675-.064-.336-.065-.682-.197zm3.294.186v-.312h.445v-3.233h-.445v-.312h3.122v.91h-.32v-.556h-1.46v1.237h.909v-.49h.318v1.333h-.318v-.491h-.91v1.56h1.504v-.555h.318v.91zm5.933-1.883q.207.033.349.152.142.12.248.344l.506 1.075h.357v.312h-1.142l-.556-1.165q-.16-.362-.274-.46-.11-.1-.31-.1h-.142v1.413h.447v.312h-1.788v-.312h.445v-3.233h-.445v-.312h1.982q.604 0 .933.271.33.269.33.765 0 .403-.235.638-.232.233-.705.3zm-.964-.153h.305q.326 0 .501-.196.176-.196.176-.56 0-.365-.176-.559-.175-.194-.501-.194h-.305zm4.92.153q.206.033.349.152.142.12.248.344l.506 1.075h.357v.312h-1.142l-.556-1.165q-.16-.362-.274-.46-.111-.1-.31-.1h-.142v1.413h.447v.312h-1.788v-.312h.444v-3.233h-.444v-.312h1.982q.604 0 .932.271.331.269.331.765 0 .403-.235.638-.232.233-.705.3zm-.964-.153h.305q.325 0 .501-.196t.176-.56q0-.365-.176-.559-.176-.194-.501-.194h-.305zm2.359 2.036v-.312h.282l1.307-3.545h.556l1.31 3.545h.33v.312h-1.625v-.312h.339l-.287-.788h-1.303l-.291.788h.413v.312zm1.023-1.413h1.075l-.535-1.475zm6.085-2.444v.312h-.29l-1.31 3.545h-.552l-1.31-3.545h-.328v-.312h1.627v.312h-.335l.935 2.556.946-2.556h-.414v-.312zm-.514 3.857v-.312h.282l1.307-3.545h.555l1.31 3.545h.331v.312h-1.625v-.312h.338l-.286-.788h-1.303l-.292.788h.414v.312zm1.023-1.413h1.075l-.535-1.475zm2.928 1.413v-.312h.444v-3.233h-.444v-.312h1.788v.312h-.447v3.191h1.366v-.61h.316v.964zm3.348 0v-.312h.445v-3.233h-.445v-.312h1.788v.312h-.447v3.191h1.367v-.61h.315v.964zm3.349 0v-.312h.444v-3.233h-.444v-.312h3.121v.91h-.32v-.556h-1.46v1.237h.91v-.49h.317v1.333h-.318v-.491h-.91v1.56h1.505v-.555h.317v.91z" fill="#1d1d1d" style="-inkscape-stroke:none;paint-order:fill markers stroke"/><path d="M-171.887 101.09c-.435 0-.796.116-1.054.357-.258.24-.385.581-.385.99 0 .337.073.615.236.819a.136.136 0 0 0 .002.002c.164.203.428.344.783.445a.136.136 0 0 0 .002 0l.518.143c.257.071.419.154.467.203a.136.136 0 0 0 .002.002c.057.057.088.136.088.266 0 .167-.045.267-.137.341-.093.075-.243.121-.463.121-.274 0-.47-.064-.607-.181-.138-.118-.23-.299-.274-.567a.136.136 0 0 0-.135-.115h-.295a.136.136 0 0 0-.134.137v.914a.136.136 0 0 0 .111.111l-.023.016c.237.09.47.158.703.203.232.045.467.068.7.068.49 0 .88-.104 1.155-.334a.136.136 0 0 0 0-.002c.274-.23.41-.575.41-.992 0-.352-.076-.645-.244-.865-.168-.22-.432-.372-.773-.467l-.52-.143h-.002c-.303-.086-.491-.182-.529-.22v-.002c-.05-.054-.084-.135-.084-.272 0-.145.039-.225.121-.287a.136.136 0 0 0 .002 0c.083-.063.224-.107.436-.107.26 0 .442.058.562.156a.136.136 0 0 0 .002 0c.12.096.205.256.248.5a.136.136 0 0 0 .135.111h.293a.136.136 0 0 0 .137-.134v-.854a.136.136 0 0 0-.094-.129 5.155 5.155 0 0 0-.703-.176 3.844 3.844 0 0 0-.656-.058zm2.043.07a.136.136 0 0 0-.136.135v.314a.136.136 0 0 0 .136.135h.309v2.961h-.309a.136.136 0 0 0-.136.135v.314a.136.136 0 0 0 .136.135h3.162a.136.136 0 0 0 .137-.135v-.91a.136.136 0 0 0-.137-.137h-.316a.136.136 0 0 0-.137.137v.42h-1.232v-1.289h.638v.355a.136.136 0 0 0 .135.135h.319a.136.136 0 0 0 .136-.135v-1.334a.136.136 0 0 0-.136-.136h-.319a.136.136 0 0 0-.135.136v.356h-.638v-.967h1.187v.42a.136.136 0 0 0 .137.137h.32a.136.136 0 0 0 .137-.137v-.91a.136.136 0 0 0-.137-.135zm3.627 0a.136.136 0 0 0-.135.135v.314a.136.136 0 0 0 .135.135h.309v2.961h-.309a.136.136 0 0 0-.135.135v.314a.136.136 0 0 0 .135.135h1.79a.136.136 0 0 0 .136-.135v-.314a.136.136 0 0 0-.137-.135h-.31v-1.143h.006c.11 0 .174.027.218.067a.136.136 0 0 0 .002.002c.038.032.135.178.239.412a.136.136 0 0 0 .002.004l.554 1.166a.136.136 0 0 0 .123.076h1.143a.136.136 0 0 0 .096-.094.136.136 0 0 0 .095.094h1.788a.136.136 0 0 0 .136-.135v-.314a.136.136 0 0 0-.136-.135h-.311v-1.142h.006c.11 0 .175.026.219.066a.136.136 0 0 0 .002.002c.037.032.136.178.24.412a.136.136 0 0 0 0 .004l.557 1.166a.136.136 0 0 0 .123.076h2.107a.136.136 0 0 0 .137-.134v-.315a.136.136 0 0 0-.137-.135h-.217l.19-.515h1.113l.188.515h-.145a.136.136 0 0 0-.135.135v.315a.136.136 0 0 0 .135.134h1.625a.136.136 0 0 0 .137-.134v-.315a.136.136 0 0 0-.137-.135h-.234l-1.278-3.457a.136.136 0 0 0-.129-.088h-.554a.136.136 0 0 0-.127.088l-1.276 3.457h-.392l-.47-.998a1.113 1.113 0 0 0-.284-.388c-.03-.025-.074-.027-.108-.047.169-.06.362-.095.473-.205.184-.185.276-.44.276-.735 0-.36-.13-.664-.381-.869-.25-.207-.594-.303-1.018-.303h-1.982a.136.136 0 0 0-.137.135v.315a.136.136 0 0 0 .137.134h.308v2.961h-.308a.136.136 0 0 0-.096.094.136.136 0 0 0-.096-.094h-.27l-.47-.998a1.113 1.113 0 0 0-.283-.388c-.03-.025-.074-.027-.108-.047.168-.06.363-.095.473-.205.184-.185.275-.44.275-.735 0-.36-.13-.664-.38-.869-.25-.207-.597-.303-1.02-.303zm10.975 0a.136.136 0 0 0-.137.135v.314a.136.136 0 0 0 .137.135h.232l1.278 3.457a.136.136 0 0 0 .128.088h.553a.136.136 0 0 0 .127-.088l1.278-3.457h.195a.136.136 0 0 0 .135-.135v-.314a.136.136 0 0 0-.135-.135h-1.031a.136.136 0 0 0-.137.135v.314a.136.136 0 0 0 .137.135h.216l-.748 2.026-.742-2.026h.14a.136.136 0 0 0 .137-.135v-.314a.136.136 0 0 0-.136-.135zm4.865 0a.136.136 0 0 0-.127.088l-1.275 3.457h-.188a.136.136 0 0 0-.135.135v.314a.136.136 0 0 0 .135.135h1.031a.136.136 0 0 0 .137-.135v-.314a.136.136 0 0 0-.137-.135h-.216l.19-.516h1.112l.188.516h-.145a.136.136 0 0 0-.134.135v.314a.136.136 0 0 0 .134.135h1.625a.136.136 0 0 0 .084-.082.136.136 0 0 0 .082.082h3.024a.136.136 0 0 0 .137-.135v-.965a.136.136 0 0 0-.137-.136h-.315a.136.136 0 0 0-.136.136v.475h-1.096v-2.92h.312a.136.136 0 0 0 .135-.135v-.314a.136.136 0 0 0-.135-.135h-1.789a.136.136 0 0 0-.136.135v.314a.136.136 0 0 0 .136.135h.309v2.961h-.309a.136.136 0 0 0-.082.082.136.136 0 0 0-.084-.082h-.234l-1.277-3.457a.136.136 0 0 0-.13-.088zm5.711 0a.136.136 0 0 0-.137.135v.314a.136.136 0 0 0 .137.135h.307v2.961h-.307a.136.136 0 0 0-.137.135v.314a.136.136 0 0 0 .137.135h3.021a.136.136 0 0 0 .137-.135v-.965a.136.136 0 0 0-.137-.136h-.314a.136.136 0 0 0-.137.136v.475h-1.093v-2.92h.31a.136.136 0 0 0 .137-.135v-.314a.136.136 0 0 0-.137-.135zm3.348 0a.136.136 0 0 0-.137.135v.314a.136.136 0 0 0 .137.135h.308v2.961h-.308a.136.136 0 0 0-.137.135v.314a.136.136 0 0 0 .137.135h3.162a.136.136 0 0 0 .136-.135v-.91a.136.136 0 0 0-.136-.137h-.317a.136.136 0 0 0-.136.137v.42h-1.233v-1.289h.639v.355a.136.136 0 0 0 .135.135h.318a.136.136 0 0 0 .137-.135v-1.334a.136.136 0 0 0-.137-.136h-.318a.136.136 0 0 0-.135.136v.356h-.639v-.967h1.19v.42a.136.136 0 0 0 .134.137h.32a.136.136 0 0 0 .137-.137v-.91a.136.136 0 0 0-.136-.135zm-30.569.201c.195 0 .398.018.61.055.183.032.376.084.572.143v.61h-.084c-.06-.22-.135-.427-.287-.55-.184-.15-.434-.217-.735-.217-.246 0-.448.048-.6.162a.613.613 0 0 0-.23.504c0 .183.048.346.159.461a.136.136 0 0 0 .002.002c.125.128.329.201.65.293a.136.136 0 0 0 .002 0l.521.143c.304.084.508.21.63.369.12.159.189.388.189.701 0 .361-.106.61-.315.785-.207.173-.528.27-.978.27a3.421 3.421 0 0 1-1.22-.227v-.676h.081c.06.246.143.474.309.616.197.169.465.246.783.246.259 0 .474-.054.633-.182a.69.69 0 0 0 .24-.553.636.636 0 0 0-.168-.457c-.121-.123-.311-.198-.588-.275a.136.136 0 0 0-.002 0l-.517-.143c-.324-.092-.536-.217-.647-.355-.112-.14-.176-.351-.176-.648 0-.356.1-.607.297-.791.2-.186.481-.286.87-.286zm2.18.07h2.85v.637h-.05v-.418a.136.136 0 0 0-.136-.136h-1.459a.136.136 0 0 0-.137.136v1.237a.136.136 0 0 0 .137.136h.908a.136.136 0 0 0 .137-.136v-.354h.045v1.06h-.045v-.355a.136.136 0 0 0-.137-.135h-.908a.136.136 0 0 0-.137.135v1.56a.136.136 0 0 0 .137.138h1.504a.136.136 0 0 0 .135-.137v-.418h.047v.637h-2.891v-.041h.309a.136.136 0 0 0 .134-.137v-3.23a.136.136 0 0 0-.134-.137h-.309zm3.627 0h1.846c.382 0 .658.086.845.24a.136.136 0 0 0 .002 0c.189.154.28.36.28.661 0 .242-.066.412-.196.541-.127.127-.33.22-.627.262a.136.136 0 0 0-.004.27c.118.018.209.06.284.122.075.063.148.16.212.297l.506 1.074a.136.136 0 0 0 .123.079h.221v.04h-.92l-.517-1.087v.004c-.11-.247-.193-.407-.307-.506a.583.583 0 0 0-.4-.137h-.143a.136.136 0 0 0-.137.137v1.412a.136.136 0 0 0 .137.137h.31v.04h-1.515v-.04h.308a.136.136 0 0 0 .137-.137v-3.23a.136.136 0 0 0-.137-.137h-.308zm3.955 0h1.848c.382 0 .658.086.845.24.19.154.282.36.282.661 0 .242-.066.412-.196.541-.127.127-.332.22-.629.262a.136.136 0 0 0-.002.27c.118.018.209.06.284.122.075.063.146.16.21.297l.508 1.074a.136.136 0 0 0 .123.079h.157v.04h-.856l-.517-1.083c-.11-.248-.197-.41-.311-.508a.588.588 0 0 0-.398-.135h-.143a.136.136 0 0 0-.135.137v1.412a.136.136 0 0 0 .135.136h.313v.041h-1.518v-.04h.309a.136.136 0 0 0 .136-.137v-3.23a.136.136 0 0 0-.136-.137h-.31zm5.248 0h.367l1.278 3.458a.136.136 0 0 0 .127.088h.195v.04h-1.354v-.04h.203a.136.136 0 0 0 .127-.182l-.287-.79a.136.136 0 0 0-.127-.089h-1.302a.136.136 0 0 0-.127.09l-.293.787a.136.136 0 0 0 .127.184h.277v.04h-.693v-.04h.08a.136.136 0 0 0 .129-.088zm1.772 0h1.355v.042h-.201a.136.136 0 0 0-.127.181l.935 2.557a.136.136 0 0 0 .256 0l.946-2.555a.136.136 0 0 0-.13-.183h-.277v-.041h.76v.04h-.154a.136.136 0 0 0-.127.089l-1.277 3.457h-.364l-1.277-3.457a.136.136 0 0 0-.127-.088h-.191zm4.822 0h.367l1.277 3.458a.136.136 0 0 0 .127.088h.196v.04h-1.354v-.04h.203a.136.136 0 0 0 .127-.182l-.287-.79a.136.136 0 0 0-.127-.089h-1.303a.136.136 0 0 0-.127.09l-.293.787a.136.136 0 0 0 .13.184h.277v.04h-.76v-.04h.146a.136.136 0 0 0 .127-.088zm2.404 0h1.516v.042h-.31a.136.136 0 0 0-.138.136v3.19a.136.136 0 0 0 .137.136h1.367a.136.136 0 0 0 .135-.136v-.473h.043v.692h-2.75v-.041h.309a.136.136 0 0 0 .134-.137v-3.23a.136.136 0 0 0-.134-.137h-.309zm3.348 0h1.515v.042h-.31a.136.136 0 0 0-.135.136v3.19a.136.136 0 0 0 .135.136h1.367a.136.136 0 0 0 .137-.136v-.473h.043v.692h-2.752v-.041h.308a.136.136 0 0 0 .137-.137v-3.23a.136.136 0 0 0-.137-.137h-.308zm3.35 0h2.849v.637h-.049v-.418a.136.136 0 0 0-.137-.136h-1.459a.136.136 0 0 0-.136.136v1.237a.136.136 0 0 0 .136.136h.909a.136.136 0 0 0 .136-.136v-.354h.045v1.06h-.045v-.355a.136.136 0 0 0-.136-.135h-.909a.136.136 0 0 0-.136.135v1.56a.136.136 0 0 0 .136.138h1.504a.136.136 0 0 0 .135-.137v-.418h.047v.637h-2.89v-.041h.308a.136.136 0 0 0 .135-.137v-3.23a.136.136 0 0 0-.135-.137h-.309zm-23.694.042a.136.136 0 0 0-.137.136v1.508a.136.136 0 0 0 .137.137h.305c.244 0 .458-.08.603-.242.145-.162.21-.388.21-.653 0-.264-.066-.487-.212-.648-.145-.16-.357-.238-.601-.238zm3.955 0a.136.136 0 0 0-.135.136v1.508a.136.136 0 0 0 .135.137h.307c.244 0 .456-.08.601-.242.145-.162.211-.388.211-.653 0-.264-.065-.487-.21-.648-.146-.16-.358-.238-.602-.238zm-3.818.271h.168c.19 0 .311.052.4.15.089.098.14.244.14.465 0 .221-.05.371-.14.471-.09.1-.21.15-.4.15h-.168zm3.955 0h.17c.19 0 .311.052.4.15.089.098.14.244.14.465 0 .221-.053.371-.142.471-.09.1-.209.15-.398.15h-.17zm3.787.385a.136.136 0 0 0-.129.09l-.54 1.474a.136.136 0 0 0 .128.184h1.074a.136.136 0 0 0 .129-.184l-.535-1.474a.136.136 0 0 0-.127-.09zm6.594 0a.136.136 0 0 0-.13.09l-.538 1.474a.136.136 0 0 0 .127.184h1.076a.136.136 0 0 0 .127-.184l-.535-1.474a.136.136 0 0 0-.127-.09zm-6.596.533.342.941h-.686zm6.594 0 .342.941h-.686z" fill="#161616" style="-inkscape-stroke:none;paint-order:fill markers stroke"/></g></g><style type="text/css">.st2,.st3{stroke-linecap:square}.st4{stroke:#000;stroke-width:1.5}.st7,.st8{stroke-linecap:round}.st9{stroke:#fff;stroke-width:1.5}.st2{stroke-miterlimit:282}.st18,.st24,.st26,.st7{stroke-width:1.8814;stroke-miterlimit:282}.st18,.st24,.st26{stroke:#a00;stroke-width:.1793}.st24,.st26{stroke:#806600;stroke-width:.7}.st26{stroke:#a80;stroke-width:1.4887}.st2{stroke-width:1}.st2,.st7{stroke:maroon}.st9{fill:#fff}.st1{fill:none;stroke:maroon;stroke-width:1.0549;stroke-miterlimit:282}.st2{fill:#1353b4}.st3{fill:none;stroke:#540;stroke-width:2;stroke-miterlimit:282}.st4{fill:#e4c900}.st7{fill:#806600}.st8{fill:#d1b948;stroke:#806600;stroke-width:1.4155;stroke-miterlimit:282}.st9{adobe-knockout:true}.st14{fill:#f6c058}.st18{adobe-knockout:false}.st18,.st24{fill:#fff}.st26{fill:none}</style></svg>
