<svg xmlns="http://www.w3.org/2000/svg" width="1000" height="600" preserveAspectRatio="xMidYMid slice" viewBox="0 0 566.228516 339.458984"><style>.R{fill:#de192a}.W{fill:#fff}.B{fill:#00aaed}.Y{fill:#fab727}.K{fill:#282525}</style><path class="R" d="M0 339.458984h566.228516V0H0z"/><path class="W" d="M316.700606 224.020147c-.26.023-.516.042-.777.067.261-.024.517-.044.777-.067m-15.189-146.807c.067.007.131.014.18.021-.05-.007-.112-.014-.18-.021m91.481 206.904c1.715 1.581 3.906 9.119 2.085 12.694-2.715-1.688-5.562-1.457-6.791 1.436-.71 1.669-.872 4.967-.952 4.967-.122-.145-.261-.292-.416-.441.155.149.294.296.416.441 0 0 1.466 3.717 1.362 4.917-.74 0-19.981.01-19.981.01.05-1.507 1.18-3.415 2.705-5.238-2.075-.006-11.71-.031-11.856-.031-.295-2.176 6.213-8.047 8.486-8.804.007-.002.014.004.02 0 .001-.001.002-.001.002-.001l.592.102-.619-.107.329-.535c.505-.82.997-1.569 1.458-2.27 1.404-2.135 2.512-3.822 2.784-5.756 1.544-11.026-3.051-27.584-12.353-34.663l-2.847-2.259c.985.428 1.947.844 2.879 1.248-10.296-4.463-24.455-10.527-26.703-13.875-1.298-1.933-3.394-5.526-4.989-8.316-.097.02-5.522 1.127-7.426 1.127-.348 0-.592-.031-.768-.095-1.088-.397-4.004-3.982-4.487-4.581-4.145.379-8.499.936-12.21 1.421-.378.049-2.129.296-4.77.642l-.395 33.692-6.019 4.638-5.443-4.81-.066-32.076c-9.118 1.005-20.07 1.967-27.782 1.835h-.001c-1.999 0-6.659-.165-6.702-.167.109-.102.219-.199.329-.298-2.583 2.345-5.098 5.173-6.703 8.357-1.172-.422-3.816-1.43-3.816-1.43l-4.666-1.683s-.003-.026-.007-.063c.228-1.48.746-2.902 1.558-4.164l.83-1.23c.736-.594 1.092-1.495 1.092-2.355 0-.307-.055-.614-.143-.913l-.004-.013c-.342-1.132-1.308-2.096-2.892-2.135-.315.015-.596.079-.862.162l21.739-30.684c-.502-1.318-.68-2.832-.548-4.789 2.857-2.719 6.464-4.674 9.531-4.913-.044-.416-.047-.665-.047-.665 2.186-7.114 10.212-19.04 15.332-23.056-3.284-1.368-5.358-4.42-6.254-5.458l9.722-12.977.505-2.666c5.709-.176 12.729-.664 12.729-.664l.008-.012c1.724-.144 3.093-.297 4.007-.447 3.096-.508 4.716-1.781 4.561-3.617-.091-1.086-.625-1.748-1.686-1.571-1.086.181-2.281.332-3.536.459-5.521.558-12.21.633-16.081.619h-.001l.011-43.757c0-.02.23.118.645.382-.07-.637-.119-1.286-.13-1.953 0 0 2.278.701 3.793.702 5.328.001 7.016-4.468 8.504-9.034l.25-.856v-.001c.055-.641.49-1.221 1.184-1.327l.001-.001c-.47-.043-1.274-.063-1.394-.026 0 0-.756.088-.518-.568.239-.655.446-1.068.578-1.753.53-2.747 1.661-3.816 1.685-3.839h-5.642l6.034-12.755c.591.679 1.473 1.513 2.513 2.399l-.121-.147c2.333-1.937 6.933-4.189 11.297-4.924 4.138 3.683 8.814 8.251 10.12 13.376.363 1.422-.04 2.976-.428 4.479-.533 2.059-1.19 4.133 1.094 5.866 0 0-.72.229-1.869.474.052-.011.11-.023.159-.033.731 7.623 8.415 8.228 12.009 8.267.01.343-.009.679-.019 1.017 3.051.256 7.355 2.526 8.869 5.234l-9.859.001-21.122.002c-.284 4.192-.506 8.635-.548 13.139v.018c-.063 6.82.303 13.769 1.518 20.193.616 3.262 1.446 6.392 2.561 9.293-.106-.281-1.019-2.643.008.025.068.165.144.326.213.49-1.605 1.145-3.181 2.51-4.884 3.416l.011-.006c3.658 5.745 6.257 12.743 7.826 19.224h-4.93c-.25 4.824-6.919 11.367-13.566 12.376l-.001 6.742c.005 1.838.016 5.66-2.886 6.157l-.778.024-.103 8.908 29.346.562c.072.079.16.144.24.216-.036 9.207.614 12.174 5.059 16.669l3.013-.387.631-3.104c-2.56-1.755-3.726-4.918-3.986-13.242.019-.018.042-.033.061-.053v.001c2.637.07 5.936.189 11.499 1.112.034.034.095.199.18.435-.103 9.745 1.479 13.535 4.598 16.636l.003.001 3.121.699 1.201-3.203c-3.14-3.108-4.108-6.079-4.108-13.574.006-.005.013-.014.019-.019 8.676 2.098 18.881 8.186 24.824 12.265v.003c.235 8.838-2.889 17.009-2.546 23.487.262 4.947 2.609 6.885 11.502 14.881 3.15.491 4.731 3.345 6.002 5.65 1.328 2.411 1.659 2.114 1.596 9.569-.064 7.417-.371 14.42 1.421 21.233m-124.827-229.575 95.846-2.501 3.881-4.487-4.757-4.689-95.037-.223c-.479 1.575-.486 4.127.092 5.975-.361 1.391-.325 4.049-.025 5.925m-14.323-14.377c.041 2.049 1.101 2.571 2.081 2.931-.98-.359-2.04-.883-2.081-2.931m29.245 47.37c1.499.539 4.155 1.764 4.155 1.764l-.005 18.148c-1.974-1.156-14.528-8.533-16.524-10.179-.033-.024-.083-.068-.122-.099-.044.475-.075.959-.075 1.46v.638l-8.51-3.56-1.888-8.779.554.028c.221.012.442.017.662.017 4.844 0 9.285-2.809 12.989-5.557-3.674 2.724-8.071 5.506-12.869 5.553-.084-.137-.167-.273-.227-.389-1.248-2.434-2.049-3.938-3.11-5.799-1.574-2.757-3.582-6.474-4.79-9.734h-8.76s3.568-9.642 5.784-13.356c-1.556-.406-3.473-1.573-4.412-3.178-1.042-1.783-.323-2.619-.323-2.619l5.541-.124s.004-1.204-.004-1.66h.001c-.366.015-.672-.028-.886-.118-1.848-.779-4.35-2.353-5.613-4.138 2.172-4.028 6.451-5.11 9.182-5.753 0 .015.003.026.003.041.164-.424.578-1.004.578-1.004l7.396 1.251.018.069c-.59 2.583-.914 5.411-.954 8.41-.122 9.264 3.554 16.56 8.726 20.003.043.562.139 2.176.139 2.176h-2.721c2.062 2.157 7.279 10.22 7.279 10.22l.097.105c.28-.216.628-.349 1.006-.349 1.013 0 1.99.846 2.431 1.681.363.686.379 1.362.044 1.852l-.28.268.354.382c1.21.917 3.205 1.635 5.134 2.329m-63.146-12.739-10.466-3.476.238-2.381 2.178.965c.027.012.072.024.103.036-.154-.07-.31-.139-.444-.213l.671-2.922c4.201 2.05 9.211-.766 13.533.673 2.598.866 3.928 2.731 4.237 4.588v-.003c20.857 7.934 37.595 27.305 38.211 60.495-2.612-.158-5.186-.364-7.739-.608h-.004c-13.744-1.313-26.791-3.897-40.668-8.019 1.237-4.031 1.93-7.923.871-11.808-.342.05-.686.098-1.033.127-5.5.462-8.676-2.558-9.232-2.338-.77.305-1.709.738-2.692 1.29-.677-.862-1.44-1.747-2.259-2.696 5.115-3.424 14.441-10.164 20.195-14.35 2.298 3.734 4.219 8.916 3.695 13.865 1.671-1.375 3.123-3.726 3.451-4.352-.087-1.638-.599-3.846-.927-5.251-.65-2.791-1.678-5.098-2.748-6.793 3.449-2.527 7.144-6.492 6.994-11.375l-3.74-2.517c.625 3.575-1.288 6.689-5.924 10.177-2.928-3.776-7.596-8.99-11.88-10.334 1.681-.994 3.616-2.047 5.379-2.78m-27.611 19.915c2.881-3.01 10.707-8.655 12.057-10.235.26-.304.477-.573.679-.827 0-.001.001-.002.001-.003v.001c.845-1.063 1.287-1.724 2.118-2.25 2.49-1.576 4.756-1.045 6.469-.091 2.624 1.461 6.542 5.633 9.278 9.057-.005.029-.004.061-.008.09-6.344 4.506-17.135 11.971-20.072 14.021-3.184-4.182-6.779-7.644-10.522-9.763m-7.039 15.015c.139-.107.215-.273.28-.453h.001c-.003.291.004.572.01.831-.619.031-1.099.27-1.442.701-1.239 1.553.181 5.843.181 5.843s1.136.242 1.642.242c1.186 0 1.498-.653 1.579-1.042.386-1.856.798-2.694 1.638-3.323 2.027-1.519 3.543-1.609 5.536-1.824 2.95-.318 3.706-1.26 4.162-1.921.286-.414.408-.732.48-.952-.008-.108-.018-.215-.016-.324l-.696-.94c-2.611-3.664-5.925-6.914-9.345-9.179-1.367 1.202-2.416 2.111-2.734 2.341-2.502 1.805-4.37 4.006-3.323 10.376 0 0 1.148.326 2.047-.376m6.699 9.067.876-.392-.741-1.569.411-.171c2.085-.868 4.505-2.288 5.801-3.749.462-.521 1.05-1.079 1.272-1.286.005-.006.01-.017.014-.022.788-.788 1.966-.978 2.446-1.024.086.007.166.018.252.023.723.887 1.521 1.833 2.215 2.8-1.057.916-1.989 1.972-2.596 3.159-.601 1.176-1.283 2.36-2.533 3.21-1.008.687-3.518 1.643-5.313 1.643h-.001c-.891-.001-1.547-.23-1.948-.683-.352-.394-.488-.933-.408-1.599l.029-.243zm61.668 41.743c.296-3.063 1.27-5.989 2.887-8.446.366-.553.778-1.075 1.223-1.569 1.013-4.297 1.729-8.404 2.184-12.343-13.692-.523-30.12-1.889-44.178-5.153-2.696 4.826-5.891 9.2-8.202 12.541-5.427 7.844-9.734 15.612-10.65 17.288 10.761-3.592 34.724-6.424 56.736-2.318m13.934-14.794c.293-2.488.478-4.933.568-7.337-2.582-.045-5.33-.118-8.199-.227-.456 3.938-1.18 8.048-2.193 12.343 2.477-2.75 6.103-4.535 9.824-4.779m-115.373 45.522c-.433-.212-.902-.282-1.186-.282-1.608 0-3.089.936-3.775 2.385-.597 1.261-.564 2.729.728 3.938 1.307-1.887 2.764-3.972 4.233-6.041m102.315-15.737-19.125 40.19-5.263 10.252c-5.157-1.059-13.764-3.988-13.764-3.988s-3.823 3.285-6.725 4.201c-1.549.49-19.912-10.505-26.057-25.821-1.66-4.137-5.179-6.478-8.654-8.365-1.693-.92-7.274-.004-9.937 2.121-3.089 2.465-6.466 7.596-7.347 8.771-.666.889.586 5.819.545 8.424-.017 1.189-1.787 4.5-2.677 3.984-3.868-2.246-6.379.933-6.944 2.658-.299.909.707 2.681 1.137 2.996.01.007.004.011-.006.014.018-.003.026-.007.014-.016 1.173.933 2.497 2.541 2.964 3.209 0 0-14.597 12.774-14.657 12.839-2.144-2.69-1.86-10.208-.774-14.49-.446-6.521 1.119-10.794 3.337-14.43l-12.599 5.812c-1.624-2.895 4.172-13.642 4.172-13.642l.088-.026c-.031.003-.067.005-.098.008.495-1.474 3.006-8.86 6.448-13.851 5.088-7.377 32.743-16.563 32.743-16.563 4.69-1.654 11.608.549 13.9 2.927 1.359 1.409 4.997 5.782 5.572 6.476-.402 3.222-.391 6.982-.34 7.722-.01-.007-.054-.041-.126-.096.086.066.134.103.134.103s0-.011-.001-.02c-.003-.204-.052-2.56.07-4.702 18.126-7.233 37.8-10.593 63.97-6.697m-104.803 45.421c.058.015-.049-.038 0 0m64.965 21.996s5.622-4.561 11.274-3.775l5.339-7.793c-6.931-.05-23.973 8.784-16.613 11.568m23.093-4.735c.008.033.02.065.027.098-.007-.031-.011-.063-.019-.095zm1.708 4.048 5.042 1.416.559-2.537-7.26-2.745c.307 1.338.852 2.649 1.659 3.866m94.27-51.892c1.24.078 8.025.517 11.727 1.149.005-.002.009-.006.014-.01.342-9.51-1.908-15.484-6.148-20.345-5.382-.517-11.825-.728-11.825-.728 3.873 5.038 6.06 11.75 6.024 19.639v.096c.078.06.138.133.208.199m-22.217-7.196-7.228 6.471c1.659.035 16.548.341 24.634.561 0-.027.001-.055.001-.082.139-9.025-1.824-12.362-4.478-16.418-3.481 4.422-7.968 7.465-12.929 9.468m95.438 16.993c1.515-.419 4.213-.699 4.213-.699s-2.948 6.468-8.245 9.501c-2.255 1.292-4.831 1.929-7.631 1.929-4.265 0-8.764-1.563-12.343-4.29-4.114-3.134-7.032-7.609-7.84-12.009-2.025-1.145-6.726-3.737-6.726-3.737-.191.403-.005.912.37 1.629 1.974 3.767 4.036 7.676 5.224 11.43-4.529-3.662-15.395-9.531-23.796-11.549l-.001-.001c.346-9.856-2.047-15.946-5.327-20.422.011.003.024.005.034.007 4.167 1 6.833 1.042 26.129 12.796 5.823 3.548 13.898 9.36 16.653 9.241 2.754-.119 4.841-3.78 4.541-6.719-.624-6.07-4.24-10.744-8.068-15.693-4.228-5.467-8.6-11.12-8.739-18.889-.134-7.453 3.505-14.888 9.732-19.889 3.228-2.592 10.286-6.882 14.835-7.492l1 1.875c-3.875 2-5.801 5.002-6.581 9.042-.46 7.236 3.409 12.728 7.153 18.04 2.721 3.862 5.522 7.836 6.69 12.514-.012-2.471-2.199-4.971-.901-8.115.646-1.568 2.144-3.238 2.144-3.238s-.63 2.444 1.207 5.889c9.071 17.012 3.862 33.011-3.767 38.849.013 0 .027.004.04 0"/><path class="B" d="M347.662106 197.538047c-.96-.203-1.73-.687-2.302-1.294-.133 9.934 1.451 13.754 4.598 16.881l.003.001 3.121.699 1.2-3.203c-3.141-3.108-4.108-6.081-4.107-13.581-.582.491-1.422.728-2.513.497m-118.985-96.07c.424 1.913.879 4.486.66 6.553 1.795-1.476 3.379-4.171 3.465-4.337-.081-1.69-.605-3.822-.942-5.266-.649-2.791-1.677-5.097-2.748-6.793 3.449-2.526 7.144-6.492 6.994-11.375-1.207-.867-2.457-1.705-3.74-2.517.624 3.575-1.287 6.69-5.924 10.177-2.927-3.776-7.595-8.99-11.88-10.334-1.85 1.095-3.796 2.373-4.536 2.845 1.362-.101 2.596.311 3.628.886 2.623 1.46 6.539 5.629 9.276 9.053l.003.001c.216-1.294 1.243-2.457 3.244-2.457.084 0 .158.02.239.026.008-.005.015-.011.022-.017-.007.005-.013.011-.021.017 1.63.135 2.543 1.578 2.57 2.955.006.306-.041.619-.124.924-.306 1.129-1.227 2.135-2.891 2.201l-.13.003-.003-.001c-.069.05-.131.095-.201.146 1.337 2.175 2.447 4.644 3.039 7.31m-30.031 5.096.697.94c0-.003.001-.005.001-.008.011-.374.083-.746.219-1.096.003-.008.008-.013.011-.021.067-.167.145-.328.24-.483.016-.025.037-.046.054-.072.088-.132.181-.262.291-.379.039-.043.09-.076.132-.116.099-.093.194-.187.309-.267.074-.052.163-.089.243-.134.097-.056.187-.118.294-.162.12-.05.256-.081.387-.118.084-.023.159-.056.247-.074.228-.044.472-.068.733-.068.096 0 .18.014.267.026h-.001c2.209.161 3.047 2.224 2.558 3.911l.066.097c5.164-3.452 14.691-10.341 20.445-14.528-1.848-.001-2.952-1.586-2.952-3.12 0-.146.018-.292.038-.439-6.353 4.514-17.157 11.985-20.074 14.022-3.182-4.183-6.778-7.645-10.52-9.764-1.08.955-2.123 1.877-3.029 2.674 3.42 2.265 6.733 5.515 9.344 9.179m7.096 12.793-5.477 8.732.457.196c20.654 8.859 55.596 10.184 74.587 10.184 13.382-.023 24.867-.679 28.665-1.303 3.096-.508 4.716-1.781 4.562-3.617-.092-1.086-.626-1.748-1.687-1.571-8.278 1.381-22.81 1.044-22.81 1.044-28.08 0-50.671-3.926-77.976-13.551Zm112.673 17.592c-4.772-12.392-4.474-28.893-3.539-42.668l51.432-.005c3.258 36.03-5.492 59.217-25.68 69.983-9.499-6.016-17.62-16.173-22.213-27.31m-50.394 45.219c-.029.09-.092.527-.048.943-3.068.239-6.675 2.194-9.532 4.913-.132 1.957.046 3.472.548 4.788l-16.226 22.905-5.512 7.78c-.237.074-.447.181-.647.3-.046.028-.09.056-.134.087-.39.263-.694.606-.912.996-.009.016-.019.033-.028.051-.113.211-.207.43-.269.66l-.818 1.197c-1.425-.254-2.866-.525-4.297-.819l5.263-10.252 20.592-43.274c-.332-.628-.634-1.277-.902-1.944-16.049-2.79-41.356-3.536-63.663 5.621 1.908-6.757 4.354-11.248 5.3-13.205 10.671-3.622 34.786-6.511 56.922-2.381.297-3.063 1.27-5.988 2.888-8.444 2.553-3.873 7.232-6.377 11.922-6.377 4.302 0 8.154 2.338 10.242 5.942l-1.706 2.278c.895 1.038 2.97 4.089 6.254 5.458-5.056 3.964-12.935 15.635-15.237 22.777m11.847 14.132c.154.164.292.337.401.528 1.292 2.252-.735 5.446-3.271 5.281-.932-.06-1.585-.265-2.304-.57-.121.439-2.239 7.961-6.396 14.179l12.661.001s1.722-6.789 6.038-10.565l-.025-15.675Zm31.684-13.131-7.23 6.472c1.659.034 16.55.341 24.635.56 0-.028.001-.055.001-.082.139-9.025-1.824-12.362-4.479-16.418.006-.008.012-.014.018-.021-3.482 4.433-7.977 7.482-12.945 9.489m17.112 11.674-29.348-.563.002-.16-.001.001.094-8.008h.001l.009-.741.776-.024c2.902-.497 2.892-4.319 2.887-6.157l.001-6.742c6.646-1.009 13.315-7.552 13.565-12.376h4.931c2.017.014 3.142.191 3.876 1.05 1.921 2.245 1.657 6.247.645 9.321.331-.005.993-.012 1.291-.013h.142c3.873 5.038 6.061 11.75 6.024 19.639v.096c-.492-.379-1.149-.633-1.978-.683-1.134-.069-1.991.231-2.608.718-1.432 1.132-1.508 3.324-.309 4.642m4.955.151c-.567.527-1.35.889-2.348.916-1.014 0-1.797-.342-2.369-.851-.036 9.207.614 12.173 5.06 16.668l3.012-.387.631-3.104c-2.559-1.755-3.725-4.918-3.986-13.242m11.873-3.478c-3.456-.495-7.93-.965-11.726-1.153 1.269 1.202 1.189 3.334-.085 4.579 2.636.07 5.935.189 11.499 1.112-1.262-1.517-1.295-3.687.312-4.538m2.34-.325c1.042.124 1.818.574 2.364 1.17.006.002.012.004.018.005.345-9.856-2.047-15.946-5.327-20.422-1.332-.316-3.341-.575-5.527-.785 4.24 4.861 6.49 10.835 6.149 20.345.568-.295 1.333-.43 2.323-.313m2.365 1.172c8.403 2.014 19.281 7.889 23.814 11.553.584 1.842.96 3.647 1.006 5.378-5.943-4.079-16.148-10.167-24.824-12.265 1.236-1.059 1.27-3.279.004-4.666"/><path class="Y" d="M269.998006 69.137647s3.131-4.582 3.929-5.87c-2.548.475-6.141-1.587-6.141-4.16l.037-21.498c0-2.304 3.806-3.679 5.598-3.184l-4.889-5.687c-4.951 3.718-7.535 11.193-7.653 20.129-.125 9.5 3.739 16.943 9.119 20.27m77.834 122.054c-5.128-.61-4.35 5.461-.17 6.346 4.437.939 4.775-5.8.17-6.346m-113.846-135.696v-12.407c-3.914.002-6.215 3.017-6.256 5.979-.042 3.014 2.21 6.452 6.256 6.428m11.365-3.595 5.806-.13s.004-1.204-.004-1.661c-.365.015-.67-.028-.884-.118-1.848-.779-4.35-2.353-5.614-4.137l-10.156.639c-.576 1.902-.522 3.495-.06 5.43zm-19.509 42.112.13-.003c2.113-.083 3.043-1.679 3.015-3.125-.029-1.445-1.023-2.98-2.81-2.98-2.273 0-3.29 1.5-3.29 2.988 0 1.533 1.105 3.12 2.955 3.12m-27.458 18.522c.486-.369 2.002-1.576 2.76-2.156.344.136.735.217 1.177.225 2.09 2.562 4.828 5.611 3.752 8.256l-.242.527 3.473 1.195s1.294-.932 1.037-3.867c-.257-2.921-2.368-5.284-4.947-8.268 0 0-.042.073-.118.182.633-1.783-.27-4.123-2.772-4.123-2.569 0-3.565 2.294-3.011 4.07-.816.636-2.105 1.61-2.568 1.94-.52.373-.452 1.055-.109 1.54.266.375 1.07.856 1.568.479m.869 23.654c.112 0 .226-.005.344-.013 2.726-.201 3.898-2.199 3.832-3.971-.065-1.757-1.378-3.537-3.764-3.537-.074 0-.148.001-.225.004-2.849.129-4.085 1.987-4.045 3.77.041 1.816 1.407 3.746 3.858 3.747m153.401-5.208-7.637-.016.001-11.14 7.293-.018c2.27.023 3.314 1.195 3.314 1.195l-.004-11.074s-1.373 1.5-3.801 1.581l-6.775.003v-7.116c.133-2.839 1.184-4.115 1.184-4.115l-11.678-.015s1.489 1.091 1.7 3.502l.046 7.867-6.945.007c-2.583-.081-3.797-1.901-3.797-1.901v11.556s1.282-1.467 3.64-1.504l7.083-.004.04 11.282-8.254-.067c-1.561-.035-2.411-1.114-2.411-1.114v11.044s1.25-1.695 3.791-1.842l6.865.011.007 8.105c-.076 1.968-1.88 3.262-1.88 3.262l12.47-.043s-1.862-1.518-1.862-3.179l-.011-8.148 7.804.007c2.078 0 2.947 1.481 2.947 1.481l-.002-10.597s-1.134.99-3.128.99m-98.12 44.547 1.467-3.084s0 .001.001.002c-.332-.628-.625-1.281-.896-1.946-16.048-2.791-41.36-3.538-63.67 5.62-.003.016-.009.031-.013.047-.488 1.581-.738 3.939-.859 6.058 18.126-7.233 37.8-10.594 63.97-6.697m-116.495 61.468 2.309 2.984 14.764-13.041-2.408-2.789zm2.563-28.92-12.599 5.812 1.814 3.564 8.435-4.33c.6-1.874 1.417-3.517 2.35-5.046m123.816 35.047-3.877-9.215-2.901 8.271-20.041-7.525c.177-1.663.726-3.267 1.63-4.672l.831-1.23c.736-.593 1.09-1.496 1.091-2.355.001-1.484-1.031-3.012-3.039-3.062-1.572.077-2.522 1.082-2.84 2.24l-12.499 18.294 16.984.111.107-1.189c-1.013-1.363-1.68-2.866-2.032-4.402l17.937 6.78-10.493 9.949 13.586-5.711 9.09 15.87-2.547-17.604 13.767-5.749zm67.163-53.639c-5.034-.306-4.895 6.423-.31 6.426 4.261-.119 4.73-6.158.31-6.426m40.233 113.421-12.25-.033.044 3.317h10.13c.558-1.096 1.264-2.21 2.076-3.284m-3.098 5.237-.005 2.938 19.96.052.025-3.001zm-81.835-148.068h12.836l-.086 7.333c-2.866-.013-4.085 1.628-4.083 3.039.003 1.976 1.392 3.203 4.007 3.461l-.061 5.158-12.539-.067-.02-5.006c2.423-.177 4.068-1.365 3.962-3.454-.111-2.206-1.731-2.93-3.987-2.947l-.029-7.515z"/><path class="K" d="M173.284206 181.583947c-1.602 1.533-5.623 4.515-8.921 4.729-2.265.148-3.081-.879-2.962-1.218.137-.39 1.258.451 2.646.409 3.094-.094 8.04-3.358 8.915-4.04.421-.327.458-.011.322.12m194.654 59.936c-.133-.264.268-.477.415-.224-.009-.018-.012-.024.001.001 1.46 2.589 3.095 5.108 5.367 7.062.768.661 2.236 1.735 3.774 2.904 1.56-.139 3.114.331 4.421 1.458 2.4 2.07 1.738 5.32-.076 8.037-.481.72-1.068.459-.699-.22.722-1.327 2.799-4.626.43-7.065-1.735-1.787-4.425-1.793-7.597.031-.279.161-.644-.267-.368-.509.856-.749 1.788-1.238 2.74-1.514-1.499-1.07-3.343-2.661-4.363-3.761-2.645-2.858-3.121-4.284-4.045-6.2m-41.959-130.714c.669.562 1.777 1.211 3.359 1.26l7.386-.006-.048-8.295c-.125-1.445-.666-2.452-1.135-3.073l9.937.012c-.34.685-.774 1.888-.858 3.672v7.562l7.2-.004c1.547-.051 2.692-.63 3.376-1.103l.003 9.31c-.591-.356-1.542-.745-2.884-.759l-7.722.018-.001 11.99 8.062.015c1.208 0 2.126-.338 2.703-.638l.001 8.75c-.536-.42-1.36-.835-2.521-.835l-8.23-.008.012 8.575c0 1.095.685 2.104 1.257 2.756l-10.363.036c.551-.624 1.181-1.597 1.228-2.816l-.008-8.547-7.288-.011c-1.58.09-2.695.724-3.367 1.257v-9.11c.461.302 1.124.596 1.977.615l8.69.07-.043-12.136-7.507.005c-1.474.023-2.557.559-3.216 1.014zm3.216 9.412 6.659-.003.037 10.427-7.817-.063c-1.33-.03-2.058-.916-2.087-.952l-.759-.965v13.565l.767-1.041c.012-.015 1.159-1.537 3.448-1.669l6.441.01.007 7.664c-.067 1.73-1.688 2.922-1.704 2.934l-1.072.774 14.977-.051-.917-.75c-.017-.015-1.706-1.413-1.706-2.851l-.01-7.722 7.378.006c1.793 0 2.551 1.222 2.58 1.272l.793 1.35-.003-13.098-.704.615c-.011.009-1.035.886-2.848.886l-7.214-.016.001-10.292 6.865-.017c2.033.022 2.963 1.014 3 1.054l.744.834-.005-13.285-.739.807c-.012.013-1.278 1.369-3.487 1.443l-6.35.002v-6.671c.123-2.637 1.08-3.854 1.087-3.864l.573-.695-13.859-.016 1.027.767c.054.041 1.34 1.025 1.528 3.164l.043 7.439-6.504.007c-2.318-.073-3.412-1.648-3.458-1.714l-.777-1.147v14.074l.745-.853c.012-.014 1.182-1.325 3.32-1.359m81.266 79.76c-.927 1.724-3.634 6.236-7.718 8.619-2.063 1.203-9.913 4.486-19.51-2.336-6.786-4.824-7.709-11.94-7.709-11.94l-7.298-4.054s-.758.817.184 2.417c0 0 3.57 6.506 4.744 10.04-5.229-3.827-15.077-8.826-22.504-10.688.233-8.017-1.292-14.233-4.778-19.428 6.447 1.045 23.081 11.468 29.531 15.398 5.201 3.169 9.765 6.425 12.318 6.407 3.547-.024 5.249-4.947 4.945-7.186-.836-6.165-4.286-10.91-8.151-15.907-4.189-5.416-8.517-11.011-8.654-18.64-.131-7.323 3.448-14.631 9.574-19.551 3.209-2.576 9.9-6.628 14.334-7.358l.66 1.235c-3.554 1.955-5.6 4.87-6.423 9.136-.477 7.441 3.436 12.995 7.221 18.366 2.693 3.82 5.477 7.771 6.626 12.372l.855 3.423s.061-1.749-.018-3.528c-.118-2.653-2.124-5.242-.933-7.951.314-.716.793-1.476 1.223-2.061.031 1.104.343 2.749 1.361 4.751 11.66 22.939-1.275 37.144-4.649 39.073 2.687-.366 3.864-.495 4.769-.609m-36.817 4.19c.492 1.574.786 2.978.9 4.29-4.014-2.701-14.344-9.245-23.569-11.67.338-.492.537-1.097.576-1.748.042-.682-.091-1.37-.387-1.991 8.442 2.283 18.479 7.924 22.479 11.118zm-.46 18.245c-.67 3.734-1.303 6.906-1.137 10.394.293 6.152 4.956 8.945 11.736 15.258 3.347.24 5.305 4.615 6.205 6.136 1.002 1.694 1.214 2.112 1.158 8.679 0 0-.641 15.8 1.466 21.466 1.601 1.292 3.638 8.348 2.271 11.859-1.045-.574-7.164-3.448-7.852 6.095-2.167-1.96-6.7-4.192-9.175-4.72 2.16-2.368 3.52-6.127 3.765-10.483.68-12.057 1.372-25.59-11.065-33.019-4.476-2.674-33.114-13.464-36.611-18.363-2.378-3.331-7.118-12.087-7.166-12.175l-.004-.008c-.181-.406-1.512-3.387-2.66-5.825-1.201-2.553-3.038-2.984-3.243-3.025-.238-.049-.454.103-.5.334-.046.23.103.454.334.5.064.012 1.599.34 2.64 2.552.885 1.881 1.877 4.081 2.375 5.191-4.854-.229-11.551.414-26.348 2.4l.364-30.947c5.964.11 25.955.483 28.738.553-.313 11.852 2.425 13.736 5.33 16.912 1.267-.16 3.525-.454 3.525-.454s.481-2.39.745-3.661c-3.53-2.403-3.606-6.599-4.019-12.685 6.23.173 9.987.906 10.874 1.062.136 3.157-.645 12.094 4.813 17.074 1.073.239 3.606.807 3.606.807s.914-2.408 1.425-3.8c-4.02-3.737-4.02-7.987-4.173-12.952 8.995 2.181 20.523 9.611 23.944 11.907.088 4.819-.671 9.098-1.361 12.938m15.065 88.294h-19.112l.003-2.141 19.127-.009zm-28.221-4.943-.033-2.465 10.538.028c-.654.827-1.081 1.448-1.556 2.437zm8.079-11.265.486.089c3.814.654 6.668 3.944 6.696 3.977 0 0-2.395 1.916-4.01 3.851-1.422-.004-9.269.037-11.273.032.438-2.141 5.998-7.171 8.101-7.949m8.948 3.817c1.963.12 7.974 2.902 9.911 5.121.364.933 1.16 3.15 1.292 4.269-2.69.001-16.355.009-19.073.01.494-2.965 4.811-7.318 7.87-9.4m-4.018-12.755c1.405-11.165-3.096-27.892-12.516-35.061l-.31-.246c4.486 1.944 8.283 3.605 9.918 4.559 12.064 7.033 11.308 20.422 10.642 32.236-.252 4.502-1.851 9.09-4.766 10.99 0 0-3.258-3.702-7.268-4.289.502-.816 3.934-5.279 4.3-8.189m-51.859-57.223c-.289 0-.498-.024-.623-.069-.629-.23-2.316-2.042-3.795-3.83 2.501-.215 4.614-.334 6.438-.365l.129-.001c.69 0 2.244.065 2.838.09.259.466.93 1.667 1.784 3.171-1.823.359-5.379 1.004-6.771 1.004m-34.596-68.69c-4.452 0-7.335-3.551-9.036-5.729l9.579-12.788.46-2.428c5.193-.17 11.386-.585 12.292-.646l7.811 3.746c-5.858 5.935-8.304 11.023-8.392 17.845Zm12.629 7.344c-1.661.091-2.616.709-3.141 1.234-.612.613-.949 1.401-.947 2.22.003 2.121 1.42 3.474 4.002 3.837l-.051 4.354-11.695-.062-.017-4.198c2.559-.312 4.066-1.766 3.96-3.86-.105-2.091-1.447-3.212-3.988-3.339l-.027-6.68h11.979zm-.076 6.433c-1.535-.239-3.16-.968-3.163-2.981 0-.59.249-1.165.7-1.618.415-.414 1.181-.902 2.528-.983zm-1.01 86.206-5.578 4.299-5.036-4.452-.13-80.052 11.682.061zm-10.788-91.603c2.081.107 3.053.899 3.135 2.532.111 2.175-1.876 2.789-3.114 2.96zm-33.74 60.844c4.569-3.864 6.52-4.885 8.943-6.487 2.096-1.386 4.111-3.481 5.983-6.242l12.767.001s1.487-6.048 5.261-9.979l.043 21.048c-10.918 1.196-22.715 2.258-32.997 1.659m-7.643 7.922c-.92-.337-2.311-.863-3.016-1.132 2.762-5.319 7.043-9.898 11.272-14.06 5.916-5.824 12.64-12.399 15.231-22.788.922.516 3.391 2.407 4.742 2.962-.687 2.331-4.772 14.935-12.11 19.898-1.025.693-11.74 6.756-16.119 15.12m11.943 5.936 2.68-7.641 3.568 8.483 12.388-1.008-11.596 4.843 2.275 15.721-8.168-14.26-11.783 4.954 9.293-8.811-18.352-6.937-.01-.042c-.19-.928-.263-1.861-.215-2.782zm-13.675.412-4.456-1.251c-.564-.875-1.001-1.817-1.304-2.809l6.142 2.321Zm-4.853.41-15.794-.103 11.198-16.39c.241 1.404 1.307 2.749 3.318 2.783.273-.006.532-.034.777-.084-4.092 6.528-.06 12.31.559 13.155zm-24.741-1.093c-1.477-.631-1.338-1.387-1.291-1.643.56-3.065 11.172-8.524 17.144-8.984l-4.715 6.883c-.372-.041-.753-.063-1.137-.063-4.72 0-9.027 3.064-10.001 3.807m16.152-16.795 4.889-9.522h6.271l-4.957 6.998c-1.386.549-1.792 1.409-2.112 2.268l-.624.913c-1.15-.207-2.311-.424-3.467-.657m-13.668-3.884c2.954-3.028 5.633-9.828 11.858-10.888 1.002-.171.569-.924-.163-.834-6.428.788-9.678 8.538-12.726 11.622-.257.218-3.854 3.246-6.551 4.097l.005-.004c-1.835 0-19.57-10.693-25.54-25.57-1.703-4.245-5.258-6.633-8.846-8.581-.498-.27-5.448-1.656-10.404 2.163-2.676 2.062-7.298 8.65-7.422 8.848-.811 1.289.449 5.971.46 8.673.005 1.102-1.54 3.619-2.05 3.619-.94-.549-1.885-.869-2.793-.829-3.047.134-6.242 3.421-4.142 6.348-.032-.004-5.836-1.306-11.146 1.413-.404-8.065 2.343-12.501 5.699-17.044.121-.176 11.042-16.225 16.249-22.829 2.153-2.728 13.389-6.462 18.338-3.66 1.711.968 13.004 9.499 13.004 9.499v-.012s13.688 11.087 15.988 11.563c.461.096.795-.59.168-.834-.816-.317-4.081-2.512-7.861-5.393 10.26-2.763 15.414.116 16.365.73.561.362.901-.46.467-.711-1.383-.802-6.648-3.829-17.687-.672-1.657-1.269-7.457-5.773-7.457-5.773-.013-1.117-.018-2.867.049-4.201 29.113-11.882 55.833-7.687 62.928-6.656 0 0-21.856 46.233-23.985 49.622-3.57-.734-10.71-2.997-12.805-3.706m-64.99 2.315c-10.109 8.845-13.109 11.477-14.008 12.268-1.701-2.767-1.463-9.525-.484-13.558 2.715-1.272 4.723-1.752 7.588-1.825l.146-.001c.895 0 2.301.177 3.233.295.511.065.823.104 1.001.115.973.806 1.999 2.017 2.524 2.706m2.392 2.803-14.108 12.462-1.786-2.307 14.043-12.301zm-24.511-10.019-1.42-2.79 10.98-5.066c-.692 1.269-1.24 2.523-1.662 3.801zm2.445-16.242c2.445-.346 7.609.206 11.33 2.036-.981 1.438-3.07 4.499-3.461 5.066l-12.09 5.576c-.707-2.562 2.666-9.754 4.221-12.678m18.019-8.612c-.849 1.204-1.683 2.396-2.476 3.536-.225-.667-.057-1.304.164-1.77.441-.931 1.313-1.584 2.312-1.766m-11.504-5.407c4.948-7.177 32.251-16.308 32.526-16.4 5.371-1.787 11.898 1.196 13.461 2.818 1.296 1.345 4.668 5.391 5.434 6.312-.304 2.54-.357 5.281-.344 6.715-.832-.632-6.722-5.238-11.713-8.496-3.783-2.469-14.898-.537-19.391 3.886-.185.183-5.605 7.554-6.865 9.289-.483-.169-3.405-.832-5.197 2.444-.637 1.165-.501 2.997.562 4.167-.604.877-2.41 3.5-3.173 4.611-3.909-1.954-8.889-2.529-11.487-2.212 1.01-2.926 3.274-8.909 6.187-13.134m52.823-10.181c28.332-11.476 58.123-6.398 63.017-5.558.239.577.477 1.095.723 1.573l-1.242 2.609c-7.227-1.062-34.289-5.336-63.252 6.521.002-.03-.028-1.57.754-5.145m5.254-13.176c26.214-7.04 49.084-3.672 56.161-2.379-.239 3.055.183 6.182 1.227 9.071-4.945-.825-34.924-5.648-62.339 5.444 1.613-5.434 4.85-11.929 4.951-12.136m10.882-17.452c1.999-2.92 5.841-8.354 8.067-12.297 11.727 2.692 26.355 4.399 43.488 5.073-.459 3.811-1.164 7.757-2.098 11.733-.45.508-3.734 4.386-4.095 9.717-8.623-1.577-31.918-4.465-55.472 2.088 1.493-2.681 5.425-9.473 10.11-16.314m60.868-1.095h-.093c.185-1.761.321-3.539.407-5.3 2.213.032 4.297.047 6.207.047 3.605-.007 7.206-.059 10.717-.154l-.234 1.238-7.024 9.375c-1.523-2.116-5.006-5.206-9.98-5.206m-10.277 4.466c.802-3.607 1.416-7.152 1.825-10.563 2.45.091 4.928.16 7.382.205-.094 2.182-.264 4.372-.509 6.524-3.167.291-6.309 1.686-8.698 3.834m9.234 32.466c-5.846-1.771-10.438-6.156-12.514-11.966-4.104-11.488 2.364-23.351 13.235-23.542 3.608-.064 7.654 2.096 9.73 5.49l-1.74 2.323s2.891 4.138 6.004 5.542c-5.08 4.337-12.354 15.26-14.715 22.153m5.548 9.964c-2.484-2.233-4.32-4.916-4.943-9.105 2.115-6.793 9.86-18.478 14.977-22.627 1.025.396 2.077.604 3.132.62l.115 14.459c-2.789 1.219-10.489 12.47-13.281 16.653m7.215 8.859c.962-1.514.619-3.31-.059-4.137l6.097-5.855.023 14.487c-3.778 3.404-5.538 8.931-5.937 10.33l-11.551-.001c3.424-5.371 5.379-11.475 5.889-13.185 3.204 1.238 4.745-.392 5.538-1.639m-6.543-8.302c.575-.861 1.62-2.416 2.876-4.236 6.364-9.118 8.824-11.453 9.719-12.038l-.007 13.398-6.688 6.422c-.867-.83-3.345-1.829-3.705-2.039-.757-.443-1.478-.938-2.195-1.507m-11.816 4.208c-2.67-2.378-3.516-4.476-3.297-8.156 2.732-2.56 6.047-4.31 8.784-4.648.947 4.608 3.709 8.182 8.095 10.837.903.546 3.655 1.499 4.167 2.631.415.919.455 1.994-.124 2.994-.591 1.022-1.553 1.697-2.611 1.655-2.575-.102-5.048-2.287-7.207-3.552-2.113-1.239-5.371-2.247-7.807-1.761m-21.773 32.665c.751-.633 1.476-1.955 1.094-3.47l20.786-28.351c2.402-.389 4.777.377 6.422 1.2-2.587 10.251-8.82 16.396-14.849 22.344 0 0-8.64 8.145-11.695 14.601l-3.997-1.441c.235-1.323.723-2.585 1.448-3.711zm.347-2.643c0 1.259-.809 2.55-2.615 2.595h-.004c-1.724-.03-2.515-1.282-2.535-2.511-.021-1.289.853-2.638 2.563-2.721 1.772.045 2.593 1.398 2.591 2.637m18.175-32.724c.546 1.11 1.359 2.132 2.547 3.212l-20.345 27.734c-.58-1.022-1.638-1.656-2.916-1.707zm-.387-.924-15.969 22.543h-6.461l19.947-41.92c2.57 4.426 6.623 7.632 11.516 9.101-.006.08-.012.166-.014.256-2.986.365-6.56 2.288-9.481 5.07 0 0-.344 2.859.462 4.95m-57.624-64.854 5.032-8.024.001.001c27.354 9.643 49.676 13.518 78.117 13.575 9.094.019 14.736.083 23.138-1.072.203-.028.833 0 .935 1.21.179 2.121-2.558 2.892-4.206 3.161-3.725.612-15.013 1.275-28.597 1.298-18.957 0-53.834-1.319-74.42-10.149m-1.324 7.857c-2.407.232-3.709-1.706-3.744-3.32-.036-1.577 1.257-3.279 3.638-3.335 2.348-.056 3.488 1.569 3.546 3.124.057 1.574-.998 3.296-3.44 3.531m3.591-24.801c1.048-.208 1.867-.823 2.334-1.744 2.357 2.728 4.196 4.918 4.427 7.545.172 1.966-.377 2.922-.68 3.293-.93-.301-1.869-.607-2.818-.92l.041-.088c1.093-2.685-1.219-5.549-3.304-8.086m-3.989 8.47c-.913.676-3.381 1.548-5.072 1.569-2.114.028-2-1.265-1.936-1.806l.001-.001c2.067-.896 3.529-1.69 4.966-2.523 1.775-1.03 2.766-4.7 2.819-4.779.665-.662 1.722-.834 2.155-.877 0 0 1.361 1.658 1.866 2.338-2.894 2.539-2.348 4.266-4.799 6.079m-.732-5.989c-.401.964-.964 2.016-1.756 2.506-1.061.655-2.186 1.249-3.607 1.903l-.372-.787c1.846-.768 4.271-2.106 5.735-3.622m-9.51-1.246c-.901.744-1.389 1.602-1.799 3.575-.097.468-.529.964-2.475.52-.39-1.287-.999-4.14-.178-5.212.497-.647 1.547-.56 1.547-.56s-.357-3.31.852-4.283c.796-.641 1.842-.723 2.465-.239.619.482.638 1.284.054 2.205-.126.199-.067.461.131.587.199.127.462.068.587-.132.984-1.548.515-2.736-.251-3.331-.914-.71-2.553-.79-3.605.326-.73.774-1.062 1.835-1.108 3.521-.448.714-1.452.583-1.527.574-.938-6.114.977-8.064 3.197-9.666.28-.202 1.039-.849 2.522-2.151 6.052 4.199 9.583 9.727 9.583 9.727-1.414 4.007-6.229 1.425-9.995 4.539m3.459-16.955c3.252 1.902 6.568 4.955 9.646 8.874-.115.013-1.089.069-1.979.834-.83.713-.931 1.439-.956 1.517 0 0-3.654-5.47-9.1-9.115.738-.65 1.549-1.367 2.389-2.11m14.213-7.911c.548-.219 1.3-.732 2.013-1.922.553-.919.878-1.396 1.754-1.231.186 1.502.844 2.191 1.608 2.949-1.1.528-2.125.776-3.188.776-.414 0-.836-.037-1.289-.113-.379-.062-.684-.261-.898-.459m-6.764 1.565c2.073-1.655 3.876-3.096 4.666-3.908.27 1.306.839 4 4.285 3.765 3.971-.27 5.512-2.349 5.805-2.23.196.051.301.216.876.397.426.135 1.214-.494.606-.899-.375-.251-1-.517-1.599-.887-.973-.601-2.921-1.855-4.419-1.827-1.268.024-1.56.788-2.171 1.665-.603.863-1.432 1.237-1.987 1.399-.61-1.013-.708-1.995-.461-2.49 1.775-2.763 4.866-4.081 8.013-2.192 2.53 1.518 6.353 5.488 8.914 8.654-4.825 3.422-19.419 13.562-19.419 13.562-3.146-4.071-6.562-7.262-9.924-9.274 1.623-1.595 4.37-3.785 6.815-5.735m14.781-10.845c4.008 1.359 8.404 6.244 10.974 9.472-1.519.172-2.411 1.011-2.83 1.961-2.601-3.173-6.302-7.093-8.897-8.537-.823-.459-1.653-.753-2.479-.882.882-.567 2.071-1.323 3.232-2.014m7.479-3.547c.515 1.757 2.169 2.99 4.091 2.99 1.178-.003 2.196-.417 2.971-1.203.879.506 1.787 1.057 2.822 1.71.471 3.166-1.222 6.062-5.459 9.327-2.904-3.702-7.007-8.167-10.963-9.828 2.747-1.579 4.527-2.331 6.538-2.996m-12.161-3.469.146-1.458 1.661.736.08.027c2.617 1.189 7.436 1.644 10.139 2.342-.041.336-.049.668-.021.993l-1.973.691zm2.588-3.621c1.022.411 3.553.933 6.936.336 3.513-.619 5.342-.132 6.164.143 3.189 1.062 4.336 3.726 3.97 5.737-.835 4.58-7.244 3.58-6.778-.758 2.176.5 2.41 1.266 2.77 1.229.118-.012.237-.049.321-.146.154-.177.145-.458-.043-.6-3.2-2.451-8.216-1.639-13.82-3.845zm8.666 45.052c4.255-.656 6.794-2.696 8.442-4.123 1.516-1.314 2.985-3.455 3.579-4.486.765-.625 1.595.053 1.618.076.17.161.438.154.6-.014.162-.17.156-.438-.013-.601-.035-.035-1.033-.93-2.268-.399-.093-1.437-.599-3.416-.87-4.587-.708-3.069-1.76-5.194-2.595-6.588 2.622-1.983 6.566-5.756 6.841-10.656 16.444 12.12 24.36 29.072 23.534 50.406-13.42-1.309-26.07-3.805-39.731-7.837.997-3.336 1.815-7.219.863-11.191m7.375-21.561c.026 1.287-.77 2.619-2.605 2.691l-.119.003c-1.58-.003-2.526-1.372-2.526-2.695 0-1.183.75-2.564 2.866-2.564 1.515 0 2.36 1.321 2.384 2.565m2.885 7.621s.834 3.556.924 5.066c-.241.407-1.277 2.101-2.552 3.414.015-1.511-.225-3.362-.726-5.619-.52-2.342-1.462-4.682-2.806-6.964 1.314-.141 2.323-.861 2.812-1.988.776 1.344 1.715 3.372 2.348 6.091m-4.064-10.792c3.961-3.136 5.699-6.013 5.511-9.148.972.63 1.909 1.266 2.792 1.897.033 4.674-3.667 8.373-6.274 10.395-.027-1.276-.727-2.619-2.029-3.144m-23.572 16.602c.689-.478 13.867-9.633 18.673-13.037.14 1.289.957 2.535 2.282 2.979-6.196 4.504-14.086 10.186-18.881 13.431.045-.806-.166-1.603-.61-2.241-.362-.521-.865-.907-1.464-1.132m-3.448 6.121c-.446.349-1.664 1.268-2.296 1.728-.687.5-1.538-.851-.893-1.313.724-.518 1.431-1.064 2.138-1.607.248.487.607.892 1.051 1.192m-.599-2.848c0-.702.242-1.355.68-1.837.493-.543 1.206-.83 2.061-.83 1.759 0 2.546 1.286 2.546 2.559 0 1.298-.835 2.695-2.667 2.695-1.8 0-2.62-1.341-2.62-2.587m19.832 4.228c-5.204.362-8.479-2.452-9.129-2.35-.539.084-1.648.636-2.651 1.18-.546-.68-1.142-1.379-1.734-2.065 4.834-3.258 13.116-9.224 19.435-13.819 1.376 2.333 3.598 7.088 3.414 13.046-2.537 2.324-5.757 3.759-9.335 4.008m-8.266 4.802c-.148-1.671-.789-3.221-2.125-5.091.512-.256.941-.446 1.246-.575 3.361 1.951 6.192 2.362 7.98 2.362.495 0 .983-.03 1.461-.092.679 3.349.018 6.662-.726 9.299-2.615-.774-5.392-1.63-8.27-2.55.321-.743.567-1.831.434-3.353m19.154-43.918c13.864 5.458 36.387 20.329 37.284 59.395-2.244-.14-4.497-.318-6.861-.54.968-24.612-9.524-43.429-31.196-55.948.545-.825.814-1.841.773-2.907m40.554 24.273c.55-5.064 3.565-8.678 6.544-11.553l.061.065c1.318 1.007 3.343 1.735 5.302 2.441 1.199.431 3.181 1.322 3.873 1.636l-.005 17.133c-3.004-1.766-13.796-8.137-15.775-9.722m-8.661-1.583-1.727-8.019h.002c.228.012.456.017.684.017 4.969-.001 9.482-2.851 13.242-5.64.24-.206.525-.31.827-.31.836 0 1.683.75 2.056 1.454.287.543.312 1.059.069 1.415-3.647 3.405-7.438 7.83-7.438 14.312zm-3.89-14.83c-2.093-3.667-3.583-6.651-4.542-9.098h12.895c1.888 2.064 6.125 8.52 6.961 9.804-3.473 2.553-7.621 5.131-12.109 5.263-.031-.054-.06-.105-.085-.153-1.318-2.569-2.105-4.036-3.12-5.816m-13.306-9.948c.803-2.126 3.955-10.206 5.827-13.199-.639-.215-3.383-.832-4.701-3.125-.622-1.083-.537-1.714-.436-1.984l5.712-.127s.003-1.147 0-1.688c1.534-.208 3.614-1.259 5.283-3.684.617-.895.817-1.891.55-2.731-.209-.654-.687-1.147-1.346-1.388-.953-.348-1.748-.778-1.801-2.473.088-.2.233-.44.35-.62l6.717 1.136c-.547 2.521-.844 5.251-.881 8.123-.115 8.731 3.228 16.462 8.74 20.245.029.418.07 1.077.098 1.515zm-10.402-19.124c-.375-1.733-.362-3.106.046-4.599l9.626-.606c1.324 1.736 3.764 3.295 5.654 4.091.177.075.387.122.627.142.002.27.002.583.002.829l-5.392.121zm18.662-10.865c.215 2.084 1.578 2.584 2.337 2.862.413.151.698.443.827.847.185.579.021 1.323-.439 1.991-1.707 2.479-3.838 3.332-5.147 3.358-1.019.021-4.625-2.277-5.858-3.869 2.029-3.513 5.773-4.588 8.28-5.189m15.033-11.311 3.938 4.581c-2.106.076-5.014 1.503-5.014 3.706l-.037 21.497c0 2.563 3.13 4.628 5.745 4.655-.93 1.422-2.612 3.895-3.225 4.797-5.413-3.569-8.69-11.062-8.576-19.684.117-8.892 2.724-15.984 7.169-19.552m94.488 13.968 3.905 3.85-98.357 1.048c-.416-1.562-.452-3.646-.087-5.12zm.851 8.331-95.281 2.486c-.237-1.749-.237-3.827.001-5.068l98.422-1.05Zm-76.145 39.501c1.985 11.031 12.49 16.966 21.78 16.967 1.232 0 2.714-.073 3.954-.157-.038 6.392.3 12.988 1.405 19.173-.124-.013-4.164-.624-7.013-.11-2.392.431-3.81 3.128-4.756 5.043-6.939.686-15.379.594-15.379.594zm3.884-2.267c5.612 0 7.399-4.731 8.729-8.779.151.248.344.46.575.59-.049.12-.075.232-.089.33-.088.652.309 1.169.355 1.226l.279.347c-.196.148-.458.351-.651.783-.44 1.149.102 2.367 1.281 2.917.664.346 1.434.534 2.21.534 1.908 0 3.645-.943 3.718-.984 2.661-1.202 4.646-3.298 5.74-6.062 2.012.856 4.241 1.043 5.803 1.043h.002c2.02 0 3.833-.269 5.126-.529.713 5.25 4.732 7.997 11.959 8.174.008 1.859-.184 3.071-.753 4.933l-21.788.002s-.748 8.762-.628 13.683c-1.621.142-2.56.176-3.971.176-10.128-.001-20.719-7.073-21.248-18.943.791.213 2.245.559 3.351.559m14.839-5.041c-.64-.804-1.03-1.648-1.374-2.393-.5-1.084-.932-2.008-1.992-2.021-.677-.007-1.62.55-1.657.55-.252 0-.645-.667-.64-1.367.036-.406.312-.835.779-.942.357.017 1.201.439 2.061.208 1.327.59 2.717 3.105 2.717 3.105 1.21 1.987 1.995.893 1.992.433-.001-.225.005-.745-.002-1.088.339-.063.995-.047 1.38.243.977.736 1.225 1.288 1.535 1.816-.378.471-1.484 1.597-1.885 1.725-.551.176-1.914.678-2.914-.269m-3.886-2.046c-.078-.594-.75-.625-.89-.471-.095-.748 1.202-1.076 1.41-1.046.489.071.757.523 1.22 1.526.347.75.777 1.683 1.507 2.596.434.457.945.723 1.562.817-.528.249-1.774.763-3.056.763h-.016c-.641 0-1.274-.155-1.835-.447-.792-.37-1.143-1.118-.872-1.829.173-.581 1.156-.489.97-1.909m-1.931-6.824c.404-2.097 1.175-3.164 1.454-3.494h2.507s-.007 2.05-.007 2.717c3.612-.18 3.866-1.343 4.45-1.135.178 2.119.861 3.696 1.901 4.816.557.603 1.231 1.111 2.049 1.544-.311.796-.701 1.527-1.18 2.214-.205-.427-.688-1.192-1.644-1.787-.438-.272-1.646-.795-2.863-.001-.861-.663-2.528-2.103-2.872-3.126l-.571-1.696-.253 1.772c-.009.39-.634.39-1.79.045-.288-.085-1.469-.092-1.775-.037.071-.209.489-1.286.594-1.832m5.321-3.16c-.001-.002-.002-.004-.004-.006 1.106-.203 2.017.258 2.366.51-.165.099-.943.642-2.19.838.232-.519-.025-1.042-.172-1.342m-9.024-1.183 5.476-11.578c7.533 7.291 12.976 8.985 13.145 8.904.169-.081.573-.238 1.183-.238 1.392 0 2.077 1.149 2.108 2.216.034 1.164-.702 2.383-2.422 2.491-1.966-.019-2.402-1.795-2.402-1.795zm18.922-14.548c4.402 3.929 8.635 8.222 9.838 13.027.815 3.258-2.719 7.003.208 10.041-1.172.303-3.592.829-6.243.829h-.092c-2.519 0-5.949-.466-8.002-2.68-1.27-1.37-1.813-3.225-1.698-5.82h3.578c.53 1.085 1.695 1.795 2.992 1.795 2.31-.135 3.304-1.838 3.259-3.364-.044-1.512-1.075-3.042-2.958-3.042-.386 0-.792.067-1.209.199-2.403-.703-6.974-3.78-10.197-6.484 2.293-1.757 6.47-3.777 10.524-4.501m21.593 33.464c2.488.404 5.088 1.635 7.271 3.861h-7.889c.392-1.61.537-2.374.618-3.861m28.08 5.68c2.952 34.481-5.389 57.349-24.797 67.992-8.944-5.821-16.918-15.72-21.402-26.591-4.671-12.135-4.379-28.377-3.528-41.396zm-55.303 46.23c-.679-.011-1.372-.124-2.062-.367l-6.586-3.161c1.042-.103 1.889-.208 2.53-.313 4.512-.74 5.016-2.869 4.916-4.072-.108-1.265-.757-1.99-1.783-1.99-.125 0-2.136.296-3.142.41.891-1.739 2.121-3.776 3.902-4.101 2.696-.492 5.899.087 7.047.168.82 4.931 2.667 9.499 2.709 9.6-2.236 1.651-4.752 3.87-7.531 3.826m10.877 18.221h-17.527c.241-6.924 3.772-13.199 10.023-18.213 0 0 .045-.023.065-.033 3.107 4.975 5.734 11.419 7.439 18.246m4.095 1.751c2.594 3.033.921 9.609-.971 12.018-5.127 6.527-12.844 10.573-22.955 12.041 2.314-1.136 2.305-4.533 2.301-6.267l.001-6.381c6.232-1.138 12.94-7.258 13.531-12.312h4.54c2.118.015 2.982.233 3.553.901m7.998 28.019c-.452-.205-.961-.325-1.526-.359-.117-.007-.232-.011-.344-.011-.698 0-1.325.133-1.874.395.023-8.18-1.728-11.63-4.39-15.725.528-.739 1.017-1.731 1.41-2.853.306-.004.683-.008.917-.009 3.724 4.929 5.726 11.33 5.807 18.562m-27.723-.18 6.37-5.703c5.166-2.097 9.424-5.161 12.665-9.111 2.272 3.489 4.173 6.781 4.093 15.341-6.958-.187-18.385-.429-23.128-.527m4.199-4.9-9.854 8.822.078-6.667c3.495-.414 6.772-1.137 9.776-2.155m-6.096-23.84h12.671c-.587 4.3-6.371 10.238-12.673 11.446zm-.85-1.042-.003 19.737c.004 1.721.014 5.3-2.476 5.73l-.333.011s.298-25.52.298-25.522c.091-6.393 2.544-11.428 8.459-17.327.501.12 1.034.184 1.56.184.402 0 .804-.037 1.209-.11-5.422 4.92-8.424 10.863-8.714 17.297m25.176 34.945-27.606-.529 4.248-3.803c4.66.097 16.281.341 23.54.533-.346.502-.555 1.1-.606 1.731-.06.721.087 1.436.424 2.068m3.427 1.084c-1.984-.005-3.022-1.442-3.021-2.862.001-1.356.807-2.824 3.307-2.715h.004c-.097-.007.067.003.001 0 2.028.124 2.725 1.523 2.707 2.684-.024 1.395-1.06 2.836-2.998 2.893m5.869 12.937-.516 2.535-2.5.322c-4.157-4.254-4.787-7.264-4.792-15.409.574.309 1.229.465 1.945.465.725-.02 1.377-.196 1.951-.524v.001c.291 7.29 1.352 10.708 3.912 12.61m7.158-12.942c-4.488-.702-7.447-.869-9.751-.939.373-.606.567-1.303.562-2.015-.005-.602-.155-1.186-.435-1.688 3.005.179 6.577.53 9.803.965-.292.351-.487.764-.579 1.23-.154.778-.012 1.647.4 2.447m-5.142-23.914c4.333 5.033 6.177 11.055 5.948 19.453-3.495-.547-9.13-.939-11.113-1.066-.003-7.424-1.928-13.962-5.581-19.064 1.923.077 6.644.29 10.746.677m14.638 39.163-.975 2.6-2.642-.593c-2.727-2.747-4.413-6.31-4.393-15.566l.001.001c.54.383 1.144.646 1.795.783.308.066.609.099.896.099.461 0 .893-.086 1.283-.256.062 6.827 1.005 9.849 4.035 12.932m-5.314-13.527c-.229 0-.472-.026-.724-.08-2.084-.441-3.21-2.278-3.059-3.727.122-1.158 1.014-1.822 2.448-1.822.203 0 .416.014.643.04 2.038.242 3.016 1.87 2.928 3.354-.062 1.031-.684 2.235-2.236 2.235m-3.837-24.879c3.674 5.077 5.328 11.185 5.175 19.148-.554-.376-1.208-.616-1.93-.701-.259-.032-.503-.046-.734-.046-.431 0-.832.051-1.195.153.197-8.17-1.544-14.158-5.595-19.189 1.845.197 3.28.41 4.279.635m-111.076-117.263c-1.422-.085-2.678-.645-3.652-1.632-1.119-1.136-1.775-2.764-1.754-4.355.036-2.59 1.939-5.336 5.406-5.546zm178.029 105.785c-2.201-4.092-.044-9.209.025-9.324 0 0-5.309 5.253-5.486 7.797-1.156-1.957-2.466-3.816-3.742-5.627-3.645-5.17-7.413-10.516-6.991-17.274 1.476-6.877 6.972-8.786 6.972-8.786l-1.801-3.377s-6.108.14-16.011 7.764c-6.373 4.906-10.253 12.826-10.111 20.687.144 8.102 4.62 13.887 8.952 19.485 3.737 4.832 7.266 9.396 7.86 15.18.143 1.408-.779 5.274-3.72 5.632-1.431.001-9.405-5.034-13.26-7.418-25.174-15.568-26.558-15.207-45.5-16.049l-1.378-.061c.924-3.704.494-7.031-1.188-8.995-.884-1.035-2.098-1.316-3.855-1.38-1.676-6.632-4.231-12.953-7.235-17.912.598-.388 2.051-1.356 3.193-2.191 8.369 18.512 21.477 25.85 22.274 26.328 31.416-16.353 27.9-57.06 26.562-71.969-4.041 0-17.434.002-20.68.002-2.009-2.872-5.898-4.677-8.453-5.166-.003-.164-.023-1.176-.023-1.176s-10.7.907-11.894-6.5c.77-.208 1.213-.369 2.664-.822-1.345-1.345-3.604-1.6-2.346-5.38.469-1.409.977-3.506.586-5.583-1.212-6.432-10.777-14.189-10.777-14.189s-6.485.937-11.583 4.723c-.7-.627-2.66-2.789-2.66-2.789l-7.353 15.543h5.391c-.367.774-.687 1.658-.842 2.66-.169 1.103-1.452 2.605.168 3.391-.145.441-.219.879-.237 1.02-1.55 4.756-3.002 8.139-7.645 8.35-.852 0-4.529-.987-4.529-.987l-.42 1.431c-.932-.413-2.204-.962-3.094-1.281-1.71-.616-3.474-1.249-4.496-1.903.308-.732.238-1.604-.214-2.458-.581-1.099-1.829-2.21-3.309-2.21-.225 0-.448.03-.667.087-.969-1.479-3.642-5.522-5.605-8.079h1.666l-.131-2.126 5.408-8.143s-1.403.529-2.814.499c-1.616-.035-3.697-.565-4.483-3.24l.006-3.51c8.033-.208 95.706-2.491 95.706-2.491l4.771-5.507-5.736-5.665s-86.1-.185-94.718-.204l.008-3.923c.68-1.513 1.93-2.21 3.712-2.279 1.602-.061 3.914.967 3.914.967l-7.749-9.038s-5.105 2.509-7.587 11.893c-2.458-.38-7.134-1.22-7.134-1.22s-.546.777-.781 1.183c-2.318.551-6.697 1.704-9.119 5.662l-9.093.573s-.002-1.832-.002-3.332c-1.514-.375-7.934.289-8.237 6.904-.152 3.305 1.723 7.68 8.239 7.411-.016-2.773 0-3.539 0-3.539l9.345-.019c-.02.582.143 1.216.486 1.871.792 1.508 2.379 2.853 4.086 3.505-2.204 4.22-5.754 13.768-5.754 13.768h9.506c.989 2.512 2.499 5.538 4.608 9.234.843 1.48 1.542 2.767 2.513 4.643l-.892-.045 2.269 10.552 10.364 4.335v-1.708c3.675 2.448 12.308 7.54 14.737 8.966l-.005 24.045c-4.445-.006-12.695-.172-17.072-.421-.815-29.165-14.76-51.112-38.33-60.308-.583-2.193-2.26-4.061-4.762-4.792-5.787-1.688-9.73 1.788-14.535-1.211-.096.498-.695 3.026-.695 3.026l-1.983-.877-.455 4.533 8.809 2.926c-2.643 1.354-6.766 4.021-7.539 4.525-1.098.1-3.344.331-6.046 4.363-.537.478-3.439 3.05-4.663 3.936-2.827 2.043-7.374 6.146-10.381 8.861-1.262 1.139-2.352 2.121-2.6 2.298-4.87 3.476-4.238 7.793-3.682 11.601l.059.399s.486.093.525.101c-.876 2.23.302 5.5.575 6.199l.099.256.264.08c.782.239 1.482.359 2.083.359 1.407 0 2.355-.68 2.602-1.865.354-1.706.723-2.285 1.284-2.749 2.054-1.697 4.968-1.51 5.783-1.714.053.361.196.719.426 1.042.136.194.324.376.537.53-1.416.97-4.137 2.391-5.246 2.945l-.496.247.734 1.555-.704.283s-.438 1.935.46 3.103c.569.739 1.497 1.114 2.82 1.114h.004c5.686-.217 7.825-3.42 8.725-5.429.298-.665.925-1.451 1.527-2.047.914 1.489 1.17 2.615.838 3.452-.047.076-4.547 7.292-5.85 9.301-3.491.174-5.004 2.523-4.953 4.781.049 2.172 1.602 4.947 4.973 4.707 4.545-.324 5.093-3.698 5.045-5.002-.02-.511-.121-1.013-.299-1.485 3.062 1.102 6.457 2.11 10.125 3.004-2.122 3.618-5.207 8.079-6.275 9.572-3.92 5.477-7.588 11.544-11.891 18.969-3.474 5.993-5.098 11.151-5.856 14.719-1.309-1.558-3.302-3.904-4.254-4.894-1.503-1.564-5.591-3.643-10.697-3.877-3.146-.145-8.642 2.017-17.915 5.905-10.377 4.352-17.141 8.385-19.563 11.731-3.467 4.791-5.644 11.341-6.555 14.05-.447.804-5.17 9.415-4.434 13.483l-.157.072 2.734 5.371 7.353-3.774c-.488 2.288-.642 4.722-.471 7.401-.986 4.025-1.316 11.013.49 14.395l-.068.06 3.523 4.553 16.293-14.392-3.112-3.601c-.497-.678-1.899-2.333-2.809-3.079-.631-.518-.848-1.701-.493-2.694.24-.671 1.487-3.46 5.404-1.279 1.776.989 3.614-3.749 3.705-5.02.075-1.058-.706-7.565-.677-7.966l.026-.037c1.432-1.989 4.923-6.879 7.08-8.463 2.263-1.663 7.736-2.715 8.781-2.066 2.114 1.314 6.403 3.191 8.271 7.903 5.909 14.916 23.531 26.459 26.88 26.459h.001c2.991-.184 6.987-4.042 7.036-4.084 7.838 2.738 13.956 4.008 16.152 4.417l-1.973 2.876c-5.853.284-18.253 5.768-18.834 10.164-.355 2.688 2.937 3.513 2.937 3.513s4.787-3.774 9.28-3.994l-3.257 4.768 19.761.129.12-1.33 4.5 1.264.537-2.443 8.118 3.069-13.293 12.604 17.791-7.481 11.244 19.628-3.183-21.997 18.831-7.863-20.274 1.646-4.597-10.926-3.417 9.745-9.719-3.65c1.253-2.304 3.131-4.645 5.59-6.969 9.336.731 25.76-.754 33.133-1.575l.051 31.418 6.39 5.648 7.049-5.432.391-33.321c5.948-.849 11.181-1.482 15.566-1.882 1.764 2.163 3.5 4.245 4.612 4.48 1.873.397 4.684-.214 7.995-.863 2.106 3.669 3.676 6.277 4.671 7.758 2.142 3.19 19.657 11.398 24.133 12.932 11.164 7.908 15.352 20.908 14.731 35.934-.073 1.742-3.059 6.164-4.257 7.904-6.049 2.996-8.817 8.602-8.817 8.602l.07 5.303h9.221c-.063.221-.126.462-.126.462l-.006 4.481h21.937l.037-4.414s-.433-2.806-1.337-4.607c.164-2.947.908-6.394 3.484-6.394 1.533 0 3.626 1.59 3.626 1.59s3.765-6.477-1.569-14.649c-1.51-5.894-1.437-11.971-1.363-18.342.041-.328.969-8.07-1.323-11.826 0 0-2.701-6.426-6.75-6.73-2.385-2.537-11.124-8.327-10.997-13.982.077-3.416.592-6.683 1.174-10.139.649-3.871 1.321-7.873 1.371-12.525.051-4.783-1.289-8.335-5.826-17.167.997.552 4.076 2.294 4.076 2.294.995 4.676 4.068 9.149 8.142 12.173 9.432 7.002 17.807 4.34 21.043 2.422 6.296-3.73 9.359-11.529 9.359-11.529s-1.848.193-2.779.312c5.813-6.674 10.481-21.193 1.567-37.766"/></svg>