<?xml version="1.0" encoding="UTF-8"?>
<svg id="svg862" width="900" height="599.99994" version="1.1" viewBox="0 0 674.99998 449.99995" xmlns="http://www.w3.org/2000/svg">
 <defs id="defs827">
  <clipPath id="clip0">
   <rect id="rect824" width="319" height="213"/>
  </clipPath>
  <clipPath id="clip0-5">
   <rect id="rect824-6" width="319" height="213"/>
  </clipPath>
  <clipPath id="clip0-5-2">
   <rect id="rect824-6-9" width="319" height="213"/>
  </clipPath>
 </defs>
 <g id="surface0" transform="matrix(2.1452052,0,0,2.0666741,-9.320468,-71.889106)" clip-path="url(#clip0)">
  <path id="rect11040" d="M 4.3447909,107.3653 H 319 v 72.58039 H 4.3447909 Z" fill="#d92319" fill-rule="evenodd" stroke-width="2.25"/>
 </g>
 <g id="text2026" transform="scale(1.0188223 .98152544)" fill="#2e110f" stroke-width="1.57918" aria-label="HAO">
  <path id="path1039" d="m214.43826 226.01105h41.45326v-25.52994q0-6.84308-0.85538-9.01444-0.65799-1.64497-2.76356-2.82935-2.82934-1.57917-5.98769-1.57917h-3.15834v-2.43456h38.16332v2.43456h-3.15835q-3.15834 0-5.98769 1.51337-2.10556 1.05278-2.89515 3.22415-0.72378 2.10556-0.72378 8.68544v57.57397q0 6.77728 0.85538 8.94864 0.65799 1.64497 2.69775 2.82935 2.89515 1.57918 6.05349 1.57918h3.15835v2.43455h-38.16332v-2.43455h3.15834q5.4613 0 7.96166-3.22415 1.64497-2.10556 1.64497-10.13302v-27.17491h-41.45326v27.17491q0 6.77728 0.85538 8.94864 0.65799 1.64497 2.76356 2.82935 2.82934 1.57918 5.98769 1.57918h3.22414v2.43455h-38.22912v-2.43455h3.15835q5.5271 0 8.02745-3.22415 1.57918-2.10556 1.57918-10.13302v-57.57397q0-6.84308-0.85539-9.01444-0.65799-1.64497-2.69775-2.82935-2.89515-1.57917-6.05349-1.57917h-3.15835v-2.43456h38.22912v2.43456h-3.22414q-3.15835 0-5.98769 1.51337-2.03977 1.05278-2.82935 3.22415-0.78959 2.10556-0.78959 8.68544z"/>
  <path id="path1041" d="m345.70692 243.97413h-34.54438l-6.05349 14.08095q-2.23716 5.19811-2.23716 7.76426 0 2.03977 1.90816 3.61894 1.97397 1.51337 8.42225 1.97397v2.43455h-28.0961v-2.43455q5.5929-0.98699 7.23787-2.56616 3.35574-3.15834 7.43527-12.83077l31.38604-73.43149h2.30296l31.05705 74.22108q3.75053 8.94864 6.77727 11.64639 3.09255 2.63195 8.55385 2.96095v2.43455h-35.20237v-2.43455q5.32971-0.2632 7.17207-1.77657 1.90817-1.51338 1.90817-3.68474 0-2.89515-2.63195-9.14603zm-1.84237-4.86911-15.13373-36.05776-15.52852 36.05776z"/>
  <path id="path1043" d="m430.65321 182.58383q17.37089 0 30.07006 13.22556 12.76498 13.15977 12.76498 32.89942 0 20.33183-12.83078 33.75479-12.83077 13.42297-31.05704 13.42297-18.42367 0-30.99125-13.09397-12.50178-13.09397-12.50178-33.8864 0-21.25302 14.47575-34.67598 12.56757-11.64639 30.07006-11.64639zm-1.25018 4.80331q-11.97538 0-19.21326 8.88285-9.01443 11.0542-9.01443 32.37302 0 21.84521 9.34343 33.6232 7.17207 8.94864 18.95006 8.94864 12.56758 0 20.72663-9.80403 8.22485-9.80402 8.22485-30.92544 0-22.898-9.01444-34.1496-7.23787-8.94864-20.00284-8.94864z"/>
 </g>
 <g id="surface0-8" transform="matrix(2.1452052,0,0,2.0666741,-9.320468,-221.88908)" clip-path="url(#clip0-5)" fill="#ffffff">
  <path id="rect11040-8" d="M 4.3447909,107.3653 H 319 v 72.58039 H 4.3447909 Z" fill-rule="evenodd" stroke-width="2.25"/>
 </g>
 <g id="surface0-8-7" transform="matrix(2.1452052,0,0,2.0666741,-9.320468,78.110877)" clip-path="url(#clip0-5-2)" fill="#ffffff">
  <path id="rect11040-8-3" d="M 4.3447909,107.3653 H 319 v 72.58039 H 4.3447909 Z" fill-rule="evenodd" stroke-width="2.25"/>
 </g>
</svg>
