<svg xmlns="http://www.w3.org/2000/svg" width="900" height="600">
  <path style="fill:#fff;fill-opacity:1" transform="scale(-1 1)" d="M-900 0H0v600h-900z"/>
  <path style="fill:#00ab59;fill-opacity:1" d="M0-2.3077106h225v602.30774H0z"/>
  <path style="fill:#00ab59;fill-opacity:1" transform="scale(-1 1)" d="M-900-2.3077106h225v602.30774h-225z"/>
  <path style="fill:#00ab59;fill-opacity:1;fill-rule:nonzero;stroke:none" d="M434.85683 528.03973c-12.4945-5.30194-29.5023 4.57654-28.9075-13.12887-5.5884-5.38635-5.5594-12.71672-10.5603-18.32472-2.4742-8.16119-13.9783-4.90994-18.2663-8.81397-.3576-7.3726-6.5237-12.01889-8.0963-17.97606-5.3319-7.12631-18.7301-1.39762-18.0731-13.15832-4.3167-6.40384-7.4757-12.39495-8.4292-19.82056-4.7768-7.44294-6.6359-16.07787-10.3051-24.09194-5.7216-6.88138-17.0427-6.61565-22.5163-15.27711-5.2294-5.00116-6.4317-13.24256-13.5819-15.7236-4.7789-5.57319-7.0087-14.40673-14.633-16.89513-2.655-10.2628-15.1725-9.91069-11.9963-21.9706-3.2648-6.54315.5068-21.67667-12.789-20.96617.7747-11.18138 6.8695-24.69013-1.3775-33.25856-9.8522-8.38183 2.124-31.33198 2.2705-44.75967 6.5682-9.68845 22.1011 2.06967 30.3484-2.62069 8.9653-4.76462 17.8447-8.6809 30.1331-3.74251 7.5894 7.43428 29.577 1.46052 23.0848 17.78745 13.1127 2.92315 26.8159 5.55496 35.2735 15.88944-1.3507 11.26119 4.0869 18.79312 5.6676 29.11161 2.2385 9.14607 8.4665 14.05599 15.9168 19.44088 15.5954 16.49462 12.7638-15.30336 15.554-26.62842 3.5287-11.91189-17.1758-13.50399-4.6601-24.47096 5.339-14.30373 17.0413-12.85352 31.2655-8.70268 1.2748-12.45688 14.034-8.47727 21.6516-11.75674 13.9412-2.08955 16.6427 15.51294 12.1696 28.53532-2.3359 11.97805 2.2491 24.00797 5.582 33.75889 16.2626 13.33764 13.6456-19.84027 16.5033-29.36131 1.3114-11.951 1.1834-27.47454 17.0621-18.96617 13.0562.13103 29.8167 10.00678 40.1699 3.79152 7.2254-4.2257 14.9391-2.99907 21.2025-8.02901 8.1486-2.48029 14.962-5.61354 21.3039-8.97539 11.94177 2.19924 16.18217 13.34353 26.84697 17.48432-1.3772 8.59157-5.4101 18.84009 6.9125 17.2011 5.4377 3.71917 7.8644 12.4054 12.9549 18.87746-5.5739 1.9348-14.8473 5.01205-18.5042 12.41386-6.6866 3.90524-7.3808 13.30155-14.6945 16.01942-3.9667 9.37922-2.8321 25.31436-16.64587 22.7421-9.5853-4.59148-15.4324 3.54311-21.1103 7.71833-6.5136 11.13877 11.0819 15.50088 6.8115 27.31228 5.9768 8.76961 1.6084 20.3576-5.195 27.3133-3.7709 11.78696-12.8075 7.78801-21.1568 12.0299-13.063-2.00672-21.5546 7.17566-19.9788 21.94689-1.6436 11.89461-18.6742 8.79989-14.8567 25.90811.2965 13.34083-5.4179 22.28904-12.7737 30.78894-5.2921 5.87747-9.2268 12.69276-19.8894 7.74626.8987 12.94503-12.1015 5.35159-18.4807 10.72723-9.1154 1.21617-15.8036 9.79275-27.7831 3.5255l-3.422-.65096-.0001-.00018z"/>
  <path style="fill:none;stroke:none" d="M287.12783 183.60178c107.5141-80.30301 227.2141-80.72134 351.89917 21.31436"/>
  <g style="font-size:75px;font-style:normal;font-variant:normal;font-weight:400;font-stretch:normal;line-height:125%;letter-spacing:0;word-spacing:0;fill:#00ab59;fill-opacity:1;stroke:none;font-family:Elephant;-inkscape-font-specification:Elephant">
    <path d="m310.62203 149.6795 1.34145 10.70308c.21214 1.81218.26835 3.08376.16862 3.81476-.0998.73104-.38985 1.24193-.8702 1.53267-.45952.27814-.9869.32624-1.58213.14429-.38148-.11155-1.46509-.71134-3.25085-1.79935-1.78579-1.08798-3.32314-2.08378-4.61202-2.9874l-9.76738-6.80171c-1.34772-.95358-2.33487-1.24076-2.96145-.86154-.66836.40457-.69886 1.17928-.0915 2.32415 1.34552 2.55308 2.65037 4.87392 3.91456 6.96251 1.31473 2.17218 2.31041 3.58144 2.98703 4.2278.42431.37101.81977.58826 1.18639.65172.3666.0635 1.24684.0444 2.64074-.0573.90414-.0621 1.62169.34545 2.15266 1.22265 1.41586 2.33927-.87336 5.32298-6.86767 8.95117-5.05445 3.05931-8.27065 3.45067-9.64861 1.17408-.35397-.58481-.47943-1.08676-.37637-1.50587.10305-.41909.5396-1.2184 1.30963-2.39794.49962-.73046.70518-1.4399.61668-2.12833-.0885-.68841-.52326-1.86642-1.30431-3.53403-.82336-1.78465-2.30506-4.63341-4.4451-8.54629-2.14003-3.91283-4.03177-7.22686-5.67521-9.94209-2.0606-3.40441-3.71859-5.5543-4.97398-6.44969-.4408-.30391-.84451-.48763-1.21113-.55115-.36659-.0634-.98521-.06-1.85585.0103-1.91272.18748-3.21042-.28273-3.8931-1.41062-.44244-.73098-.57023-1.56684-.38338-2.50758.18689-.94067.66397-1.81445 1.43124-2.62137.75467-.82771 1.83951-1.80539 3.25452-2.93302 1.41506-1.12755 2.65517-2.01371 3.72035-2.65849 2.67344-1.61809 4.69637-2.54287 6.06881-2.77433.66946-.11977 1.26829-.097 1.79649.0684.52821.16549 1.41972.62471 2.67454 1.37765l13.77919 8.05486c1.50655.88605 2.48409 1.39309 2.9326 1.52111.4485.1281.91294.0468 1.39333-.24405.41771-.25279.69363-.63383.82775-1.14311.13409-.5092.1613-1.32472.0816-2.44658l-.79732-11.28928c-.12699-1.43559-.20806-2.37107-.24323-2.80645-.24077-2.708-.0685-4.71005.5169-6.00616.73044-1.66919 2.77701-3.52148 6.1397-5.55688 5.91075-3.57755 9.68154-4.0192 11.31236-1.32496.36658.60577.54562 1.1609.53714 1.66539-.009.50464-.20985 1.23291-.6039 2.18482-.51833 1.3126-.48562 2.73396.0981 4.26409 1.26416 3.17311 3.14778 6.82736 5.65089 10.96276 3.22362 5.32602 6.29969 9.84237 9.22822 13.54907.71944.90584 1.31717 1.45726 1.79321 1.65426.47593.19708 1.47188.32198 2.98783.3747 1.05525.0462 1.83574.487 2.34146 1.32241.88487 1.46207.53944 3.08377-1.03631 4.86513-.80032.94101-1.72233 1.79873-2.76604 2.57314-1.0438.77447-2.71442 1.857-5.01185 3.24756-3.5298 2.13649-6.31316 3.47872-8.35007 4.0267-2.26289.59914-3.80518.2199-4.62686-1.13772-.30343-.50125-.42779-.9896-.37307-1.46506.0547-.47541.34499-1.45734.87102-2.94579.27753-.76727.13626-1.83755-.42379-3.21084-.56012-1.37324-1.75037-3.56367-3.57076-6.57131-1.01137-1.67086-1.75339-2.71997-2.22605-3.14735-.47272-.4273-.9597-.48927-1.46094-.18591-.58484.35401-.90541 1.0974-.96172 2.23016-.0563 1.13284.0994 3.22888.4671 6.28813zM354.90575 89.933548c5.94425-2.008385 11.71122-2.062827 17.3009-.163326 3.79611 1.320189 7.26003 3.52567 10.39176 6.61645 3.07758 3.083383 5.24159 6.475408 6.49202 10.176078 1.84429 5.45859 1.68915 10.94847-.46542 16.46966-1.81837 4.68605-4.92121 8.65933-9.30851 11.91983-2.70177 1.99521-5.57918 3.5086-8.63224 4.54016-4.00142 1.352-8.11069 1.81271-12.3278 1.38215-5.09765-.5196-9.58317-2.39279-13.45658-5.61957-3.75713-3.11143-6.43673-7.03792-8.03881-11.77948-1.85995-5.50479-1.93985-10.88948-.2397-16.1541 1.50952-4.68473 4.31494-8.699248 8.41629-12.043575 2.73923-2.265513 6.02858-4.046937 9.86809-5.344277zm.0684 11.070872c-1.94289.6565-3.18794 2.04355-3.73515 4.16115-.44129 1.59226-.36106 3.27886.2407 5.05979.88308 2.61366 2.43687 5.4581 4.66136 8.5333 2.22446 3.07527 4.59559 5.66931 7.11339 7.78213 1.09992.8911 2.28941 1.49422 3.56846 1.80938 1.279.31519 2.46205.28913 3.54916-.0782 1.75781-.59391 2.95177-1.73177 3.58187-3.41357.63003-1.68175.58167-3.59815-.14509-5.74922-.94564-2.79864-2.41652-5.66464-4.41263-8.59802-1.99617-2.9333-4.09809-5.30262-6.30578-7.10795-1.35565-1.11388-2.74847-1.88024-4.17845-2.29907-1.43001-.41874-2.74262-.45198-3.93784-.0997zM424.17266 75.537741c6.25371-.508911 11.86216.835007 16.82537 4.031756 3.36334 2.200289 6.18997 5.179055 8.47988 8.936309 2.23917 3.736962 3.51721 7.552109 3.83413 11.445453.46732 5.742751-1.01283 11.031611-4.44047 15.866591-2.89918 4.10613-6.87194 7.20961-11.91831 9.31045-3.10456 1.28145-6.26284 2.05288-9.47484 2.31429-4.20974.34261-8.30824-.20564-12.29552-1.64476-4.82003-1.73876-8.71832-4.64256-11.6949-8.71139-2.89169-3.92876-4.54053-8.38733-4.94652-13.37574-.47133-5.791372.7553-11.035101 3.6799-15.731209 2.5992-4.179648 6.29341-7.39518 11.08263-9.646605 3.20637-1.534631 6.82925-2.466345 10.86865-2.795145zm-2.61497 10.757826c-2.04405.166396-3.58796 1.210602-4.63176 3.132622-.81379 1.437975-1.14443 3.093786-.99193 4.967437.22377 2.74973 1.04238 5.885794 2.45584 9.408214 1.41341 3.52246 3.08568 6.61355 5.0168 9.27326.85136 1.13097 1.85935 2.00423 3.02399 2.61978 1.16458.61558 2.31873.87683 3.46244.78373 1.84932-.15049 3.28331-.9653 4.30197-2.44442 1.01859-1.47909 1.43582-3.35015 1.25168-5.61319-.23967-2.94435-.97261-6.08126-2.19885-9.410757-1.2263-3.329437-2.6918-6.137289-4.39651-8.423567-1.04551-1.409055-2.21125-2.489929-3.49722-3.242626-1.28602-.752614-2.5515-1.102774-3.79645-1.050483zM485.94946 107.71952c-.9146-.15566-1.54536.0218-1.89228.53229-.34696.51056-.69251 1.77668-1.03662 3.79837-.52034 3.05662-.73339 5.47211-.63916 7.24648.0384.50184.15538.90562.35102 1.21133.19558.30572.59756.70848 1.20594 1.20828 1.30884 1.04005 1.85266 2.20991 1.63146 3.50957-.27043 1.58848-1.46679 2.5426-3.5891 2.86238-2.12235.31977-5.57826.072-10.36775-.74328-8.90511-1.51586-13.07087-3.95854-12.4973-7.32804.0983-.57763.30956-1.0184.63372-1.32232.32414-.30391 1.0088-.68886 2.05397-1.15485 1.17779-.5177 2.03413-1.22014 2.56902-2.10732.53487-.88717 1.07322-2.48576 1.61503-4.79577.41122-1.68832 1.51405-7.80334 3.30852-18.345081.56946-3.345397.78815-5.648485.65606-6.909273-.13212-1.260709-.70462-2.262093-1.7175-3.004154-.97296-.685647-1.60409-1.269812-1.8934-1.752497-.28933-.482597-.37664-1.060867-.26192-1.734812.15158-.890464.62667-1.60827 1.42528-2.153421.79859-.545055 1.83825-.869576 3.11898-.973563 1.07997-.08853 2.52251.02082 4.32761.328038.79422.135246 2.75933.593582 5.89534 1.375008.59348.150606 1.54006.336502 2.83975.55769 2.16608.36877 5.0788.715994 8.73817 1.041674 2.31509.220778 3.92994.408987 4.84456.564625 5.15048.876787 9.19949 2.841437 12.14705 5.893955 2.65148 2.754559 3.63925 6.117416 2.96332 10.088579-.37698 2.214269-1.24959 4.139817-2.61784 5.776652-1.36835 1.63688-3.05696 2.75486-5.06581 3.35396-.83577.254-1.2987.64574-1.38879 1.17521-.11885.69799.37453 1.36396 1.48016 1.99791 2.37139 1.34477 3.98904 3.04414 4.85295 5.0981.86381 2.05398 1.22274 5.03738 1.07681 8.9502-.0538 1.62535.0839 2.70751.41322 3.24648.32921.53897 1.20307 1.15207 2.62158 1.8393.43266.22225.7655.59466.99855 1.11725.23294.52258.30027 1.07268.202 1.65032-.12706.74609-.5439 1.44905-1.25053 2.10887-.70674.6598-1.55424 1.12848-2.54251 1.40602-2.18153.5945-5.02922.59267-8.54308-.005-4.69327-.79891-7.83974-2.60992-9.43942-5.43305-.72615-1.26281-1.26472-2.79087-1.6157-4.58418-.35104-1.79332-.6566-4.54474-.91666-8.25428-.16439-2.38066-.59388-4.11304-1.28847-5.19714-.69466-1.08408-1.83007-1.79742-3.40623-2.14004zm1.04025-18.768338-1.82899 8.344116c-.0123.07223-.0308.180535-.0553.324916-.14752.866468-.11949 1.465605.0841 1.797412.20352.331856.69038.563323 1.46058.694404 2.11794.36055 3.75148.0752 4.90064-.856023 1.14909-.931185 1.9285-2.600181 2.33823-5.006994.79067-4.645061-.46262-7.248246-3.75988-7.809563-.93868-.159742-1.63742-.0558-2.09622.311835-.45886.367708-.80657 1.101006-1.04314 2.199897zM541.64854 91.423778l17.50662 6.916122c3.54215 1.399406 6.15415 2.34598 7.83601 2.83974 1.68176.49382 3.38438.81864 5.10788.97446.5306.0522.93216.13206 1.2047.23967 1.18067.46649 1.974 1.51491 2.37997 3.14524.68226 2.65835.44484 5.45207-.71227 8.38117-.58313 1.47594-1.35508 2.5163-2.31583 3.12108-.96087.60482-1.98623.69194-3.07608.26135-.74936-.29601-1.2735-.68026-1.57242-1.15277-.29902-.47246-.58965-1.38135-.87189-2.72665-.39812-1.91599-1.26258-3.4322-2.59337-4.54861-1.3309-1.11637-3.74471-2.36528-7.24145-3.74674-2.61127-1.03155-4.38461-1.194-5.32002-.48732-.49256.38295-.93316.98327-1.32179 1.80095-.38871.81774-1.26478 2.95228-2.62824 6.40362-.53825 1.3624-.64533 2.29792-.32124 2.80655.32402.50867 1.45107 1.14423 3.38115 1.90669.95363.37677 1.72466.45168 2.3131.22474.58837-.22691 1.14116-.82884 1.6584-1.80579.67918-1.25416 1.20037-2.0917 1.56358-2.51263.36311-.42089.84352-.72329 1.44122-.90721.63825-.22031 1.27529-.2049 1.91111.0463.93092.3678 1.55072 1.12454 1.85941 2.27021.21665.84688.15995 2.1698-.17007 3.96877-.33013 1.799-.85398 3.60675-1.57156 5.42325-1.41735 3.58762-3.13532 6.30832-5.15389 8.16211-1.10648 1.00665-2.28412 1.26329-3.53294.76993-.77205-.30499-1.22716-.71448-1.36533-1.22845-.13823-.51398-.0401-1.42679.29434-2.73843.67301-2.70037-.31878-4.57532-2.9754-5.62486-1.02181-.40365-1.84786-.35592-2.47814.14319-.63034.49913-1.29085 1.62288-1.98154 3.37126-.42163 1.06721-.89278 2.47578-1.41345 4.2257-.52073 1.74994-.80925 2.92877-.86557 3.53652-.0875.75295.28837 1.44612 1.12755 2.07952.83913.63339 2.35996 1.38514 4.56251 2.25527 3.40592 1.34554 6.14442 1.92209 8.2155 1.72965 2.071-.19246 4.10448-1.22007 6.10043-3.08283 1.15601-1.06581 2.07919-1.72485 2.76954-1.97715.69025-.25229 1.44411-.21697 2.26159.10596.95362.37675 1.57895 1.10286 1.87602 2.17833.29695 1.07546.19877 2.23762-.29454 3.48648-.53828 1.36237-1.563 2.92631-3.07417 4.69181-1.51128 1.76548-3.09175 3.24112-4.74141 4.42691-.82728.56569-1.46278.91182-1.90649 1.03841-.4438.12655-.9268.0867-1.449-.11963-.43146-.17045-1.02898-.48525-1.79254-.94441-1.34561-.84659-3.21972-1.78385-5.62236-2.81178l-28.88251-11.41026c-1.15803-.45748-1.95402-1.06726-2.38796-1.82932-.43395-.76206-.46703-1.60857-.0992-2.53954.26013-.65848.58475-1.08149.97384-1.26903.38909-.18754 1.16152-.31551 2.31731-.38392.7978-.0261 1.44654-.18978 1.94623-.49113.49967-.30135 1.00628-.83621 1.51984-1.60459 2.10382-3.13263 4.30394-7.60537 6.60035-13.41821 3.46253-8.76464 5.10185-14.50892 4.91797-17.232878-.0477-.543793-.17186-.960356-.37256-1.249688-.20073-.289257-.68317-.729225-1.44732-1.319907-1.14179-.897277-1.44805-2.015772-.91878-3.35549.28703-.726561.7584-1.288474 1.4141-1.685741.65565-.397179 1.37132-.547576 2.147-.451191.96626.14553 2.72096.72061 5.2641 1.725243zM618.09686 157.32538l-1.79235 16.26861c-.1472 1.51063-.14403 2.56265.01 3.15605.15344.59335.57804 1.18729 1.2738 1.78182 1.36232 1.14276 1.65028 2.3608.86386 3.65415-.92606 1.52274-2.50986 2.05975-4.7514 1.61102-2.24164-.4488-5.44843-1.94168-9.62037-4.47865-4.71438-2.86684-8.08791-5.18974-10.1206-6.96873-.92886-.82201-1.52654-1.70693-1.79304-2.65477-.26656-.94787-.15247-1.82856.34228-2.64209.38052-.62581.83711-1.01249 1.36977-1.16005.5326-.14759 1.32577-.10101 2.37951.13974 1.18334.26242 2.01604-.003 2.49811-.79536.84986-1.39763.50609-2.73534-1.03131-4.01313-1.66263-1.35393-4.14186-3.033-7.43769-5.03722-2.7744-1.68711-4.53424-2.52869-5.27954-2.52474-.46063.006-.981.20353-1.56111.59366-.58015.39014-1.02243.83553-1.32685 1.33617-.27909.45892-.3712.81008-.27632 1.0535.0948.2434.53733.81966 1.3275 1.72876 1.0441 1.14925 1.22367 2.2871.5387 3.41355-1.50954 2.48232-5.23683 1.91587-11.1819-1.69935-3.37931-2.05497-5.72211-3.79395-7.02839-5.21692-1.19381-1.32601-1.3404-2.72954-.43976-4.2106.39323-.64665.85933-1.04898 1.39831-1.20699.53897-.158 1.31445-.12932 2.32644.086 1.64765.34475 3.08409.29676 4.30933-.14399 1.22523-.44073 3.34708-1.68634 6.36557-3.73683l10.29138-6.9857c3.7835-2.55674 6.4876-4.54837 8.1123-5.9749 1.62464-1.42649 2.96115-2.97823 4.00953-4.65523 1.11173-1.78124 1.97917-2.96102 2.60233-3.53935.62308-.57827 1.48178-.99188 2.57612-1.24082 2.32724-.5849 4.60689-.19872 6.83895 1.15855 2.1068 1.28121 3.61873 3.32928 4.53578 6.14421 1.30004 3.87658 1.19055 12.79643-.32846 26.75959zm-24.17524-9.30062 6.13282 3.72939c1.1264.68499 1.84183.77717 2.14631.27653.41857-.68838.66381-2.85372.73572-6.49603.0391-1.66202-.002-2.8158-.1239-3.46133-.12182-.64552-.39131-1.09514-.80847-1.34885-.75099-.45665-1.80174-.13839-3.15224.95477-.19764.13702-.95042.69361-2.25836 1.66979-2.17002 1.59495-3.38186 2.60102-3.63553 3.01821-.31716.52151.004 1.07401.96365 1.65752z" style="fill:#00ab59;font-family:Cooper Black;-inkscape-font-specification:Cooper Black"/>
  </g>
  <path transform="matrix(16.72896 0 0 -17.9388 -1237.5090126 2268.7280616)" style="font-style:normal;font-variant:normal;font-weight:400;font-stretch:normal;letter-spacing:normal;word-spacing:normal;text-anchor:start;fill:#3d995c;fill-opacity:1;fill-rule:evenodd;stroke:#3d995c;stroke-width:0;stroke-linecap:butt;stroke-linejoin:miter;stroke-miterlimit:10.43299961;stroke-opacity:1;stroke-dasharray:none;stroke-dashoffset:0" d="m98.695 106.82-.687-.28s.371-.2.773-.29c.403-.12 2.099-.2 2.099-.2l-2.185.77z"/>
  <path style="font-style:normal;font-variant:normal;font-weight:400;font-stretch:normal;letter-spacing:normal;word-spacing:normal;text-anchor:start;fill:#00ab59;fill-opacity:1;stroke:#000;stroke-width:.17251;stroke-linecap:butt;stroke-linejoin:miter;stroke-miterlimit:10.43299961;stroke-opacity:1;stroke-dasharray:none;stroke-dashoffset:0" d="m98.695 106.82-.687-.28s.371-.2.773-.29c.403-.12 2.099-.2 2.099-.2l-2.185.77z" transform="matrix(16.72896 0 0 -17.9388 -1237.5090126 2268.7280616)"/>
  <path style="font-style:normal;font-variant:normal;font-weight:400;font-stretch:normal;letter-spacing:normal;word-spacing:normal;text-anchor:start;fill:#00ab59;fill-opacity:1;stroke:#000;stroke-width:.17251;stroke-linecap:butt;stroke-linejoin:miter;stroke-miterlimit:10.43299961;stroke-opacity:1;stroke-dasharray:none;stroke-dashoffset:0" d="m101.69 105.44.01.01.01.01h.01l.02.02.04.02.03.03.04.03.05.03.05.04.06.04.06.05.06.05.07.05.06.06.08.06.07.06.08.07.07.07.08.08.08.07.08.08.08.09.08.08.07.09.08.09.08.1.07.09.07.1.07.1.06.11.07.1.06.11s-1.5-.2-1.99-1.09c0 0 .89 1.29.98 1.89 0 0-1.29-1.09-1.5-1.61 0 0 .72 1.61.52 2.22 0 0-1.06-.72-.95-1.82 0 0-.662 1.62-1.15 1.7-.0096-.0203-.246659-1.14802.79787-1.97232l.009.0641s-1.55258.95824-2.01358.61824c0 0 .691-1.09 2.187-1.18 0 0-2.273.17-2.589-.12 0 0 1.207-.49 1.695-.4 0 0 1.214.11 2.104-.29z" transform="matrix(16.72896 0 0 -17.9388 -1237.5090126 2268.7280616)"/>
  <path style="font-style:normal;font-variant:normal;font-weight:400;font-stretch:normal;letter-spacing:normal;word-spacing:normal;text-anchor:start;fill:#ed6e00;fill-opacity:1;fill-rule:evenodd;stroke:#f60;stroke-width:0;stroke-linecap:butt;stroke-linejoin:miter;stroke-miterlimit:10.43299961;stroke-opacity:1;stroke-dasharray:none;stroke-dashoffset:0" d="m102.09 98.246.14.098.14.108.13.12.12.13.11.14.11.149.09.158.09.165.09.173.07.18.07.187.06.196.05.19.05.21.03.2.04.21.02.21.02.22.01.22v.43l-.01.22-.01.22-.02.22-.03.21-.03.22-.04.21-.05.21-.05.2-.06.2-.07.19-.07.19c-.6 1.5-2.07 1.65-3.156 1.5-.575-.09-.836-.2-1.555-1.09-.688-.9-.891-1.41-.774-3 .086-1.61 1.09-2.788 1.782-3.394.693-.605 1.903-.519 2.703 0z" transform="matrix(16.72896 0 0 -17.9388 -1237.5090126 2268.7280616)"/>
  <path transform="matrix(16.72896 0 0 -17.9388 -1237.5090126 2268.7280616)" style="font-style:normal;font-variant:normal;font-weight:400;font-stretch:normal;letter-spacing:normal;word-spacing:normal;text-anchor:start;fill:none;stroke:#000;stroke-width:.17251;stroke-linecap:butt;stroke-linejoin:miter;stroke-miterlimit:10.43299961;stroke-opacity:1;stroke-dasharray:none;stroke-dashoffset:0" d="m102.09 98.246.14.098.14.108.13.12.12.13.11.14.11.149.09.158.09.165.09.173.07.18.07.187.06.196.05.19.05.21.03.2.04.21.02.21.02.22.01.22v.43l-.01.22-.01.22-.02.22-.03.21-.03.22-.04.21-.05.21-.05.2-.06.2-.07.19-.07.19c-.6 1.5-2.07 1.65-3.156 1.5-.575-.09-.836-.2-1.555-1.09-.688-.9-.891-1.41-.774-3 .086-1.61 1.09-2.788 1.782-3.394.693-.605 1.903-.519 2.703 0z"/>
  <path transform="matrix(16.72896 0 0 -17.9388 -1237.5090126 2268.7280616)" style="font-style:normal;font-variant:normal;font-weight:400;font-stretch:normal;letter-spacing:normal;word-spacing:normal;text-anchor:start;fill:none;stroke:#000;stroke-width:.086256;stroke-linecap:butt;stroke-linejoin:miter;stroke-miterlimit:10.43299961;stroke-opacity:1;stroke-dasharray:none;stroke-dashoffset:0" d="M100.74 105.67s2.5-1.93 2.56-2.19M99.242 105.47s2.328-3.02 4.258-3.8M98.438 104.78s2.442-3.48 4.882-4.6M97.832 103.69s2.156-3.6 4.918-4.838M97.605 102.19s1.981-3.858 4.485-3.944"/>
  <path transform="matrix(16.72896 0 0 -17.9388 -1237.5090126 2268.7280616)" style="font-style:normal;font-variant:normal;font-weight:400;font-stretch:normal;letter-spacing:normal;word-spacing:normal;text-anchor:start;fill:none;stroke:#000;stroke-width:.086256;stroke-linecap:butt;stroke-linejoin:miter;stroke-miterlimit:10.43299961;stroke-opacity:1;stroke-dasharray:none;stroke-dashoffset:0" d="M100.59 105.73s-2.18-2.13-2.899-2.45M101.89 105.44s-2.101-3.08-4.257-3.88M102.69 104.72s-2.04-3.4-4.655-4.54M103.3 103.54s-1.96-3.36-4.546-4.661M103.53 102.05s-1.79-3.46-4.143-3.804M99.762 104.46h-.002l-.001-.01h-.002l-.002-.01-.002-.01-.003-.01-.003-.01-.004-.01-.004-.01-.005-.01-.005-.02-.006-.01-.006-.02-.006-.01-.007-.02-.008-.01-.008-.02-.008-.01-.009-.02-.01-.01-.01-.02-.011-.01-.012-.02-.012-.01-.012-.02-.013-.01-.014-.01-.015-.02-.015-.01-.016-.01c-.086-.09.141-.23.172-.38M98.984 103.69v-.01h-.001l-.001-.01-.002-.01-.002-.01h-.002l-.002-.02-.003-.01-.003-.01-.004-.01-.004-.01-.005-.02-.005-.01-.006-.02-.007-.01-.007-.02-.007-.01-.009-.02-.009-.01-.009-.02-.011-.02-.011-.01-.012-.02-.013-.01-.014-.01-.014-.02-.015-.01-.017-.01-.017-.02-.018-.01c-.086-.08.144-.23.199-.37"/>
  <path transform="matrix(16.72896 0 0 -17.9388 -1237.5090126 2268.7280616)" style="font-style:normal;font-variant:normal;font-weight:400;font-stretch:normal;letter-spacing:normal;word-spacing:normal;text-anchor:start;fill:none;stroke:#000;stroke-width:.086256;stroke-linecap:butt;stroke-linejoin:miter;stroke-miterlimit:10.43299961;stroke-opacity:1;stroke-dasharray:none;stroke-dashoffset:0" d="M98.379 104.52h-.001v-.01h-.001l-.001-.01h-.001l-.001-.01-.002-.01-.002-.01-.003-.01-.003-.02-.003-.01-.003-.01-.005-.01-.004-.02-.005-.01-.006-.02-.006-.01-.007-.02-.007-.01-.008-.02-.008-.02-.009-.01-.01-.02-.01-.01-.011-.02-.012-.01-.012-.02-.014-.01-.014-.01-.015-.01-.015-.02c-.117-.08.113-.22.172-.37M99.129 105.27h-.001l-.001-.01h-.001l-.002-.01h-.002l-.002-.01-.003-.01-.003-.01-.004-.01-.004-.02-.005-.01-.005-.01-.005-.01-.006-.02-.007-.01-.007-.02-.007-.01-.009-.02-.008-.01-.009-.02-.01-.02-.01-.01-.011-.02-.011-.01-.012-.02-.013-.01-.013-.02-.014-.01-.015-.01-.015-.01-.016-.02c-.117-.08.114-.23.172-.37M99.934 105.73h-.005l-.002-.01H99.918l-.003-.01h-.004l-.005-.01h-.005l-.006-.01h-.006l-.006-.01h-.007l-.008-.01-.008-.01-.008-.01h-.01l-.009-.01-.011-.01-.01-.01-.012-.01-.012-.01-.012-.01-.014-.01-.013-.01-.015-.02-.015-.01-.016-.01c-.117-.06.113-.23.172-.38M100.74 105.3v-.01l-.01-.01v-.03l-.01-.01v-.02l-.01-.01v-.01l-.01-.02-.01-.01v-.02l-.01-.01-.01-.02-.01-.01v-.02l-.01-.01-.01-.02-.01-.01-.01-.02-.01-.02-.02-.01-.01-.01-.01-.02-.02-.01-.01-.01-.02-.02-.01-.01c-.09-.08.14-.23.17-.4M101.71 104.41v-.04l-.01-.01v-.02l-.01-.01v-.01l-.01-.02v-.01l-.01-.01-.01-.02v-.01l-.01-.02-.01-.01-.01-.02-.01-.02-.01-.01-.01-.02-.01-.01-.01-.02-.01-.01-.01-.02-.02-.01-.01-.01-.02-.02-.01-.01-.02-.01c-.08-.06.12-.23.18-.37M102.58 103.6v-.02h-.01v-.04l-.01-.01v-.01l-.01-.01v-.02l-.01-.01v-.01l-.01-.02v-.01l-.01-.02-.01-.01-.01-.02-.01-.01-.01-.02-.01-.01-.01-.02-.02-.02-.01-.01-.01-.02-.02-.01-.02-.02-.01-.01-.02-.01c-.09-.06.14-.21.2-.38M100.74 103.43v-.01l-.01-.01v-.02l-.01-.01v-.02l-.01-.01v-.02l-.01-.01-.01-.01v-.02l-.01-.01-.01-.02-.01-.01v-.02l-.01-.01-.01-.02-.01-.01-.01-.02-.01-.02-.02-.01-.01-.02-.01-.01-.02-.02-.01-.01-.02-.02-.01-.01c-.09-.05.14-.23.17-.37M99.902 102.5H99.9v-.01h-.002l-.002-.01-.002-.01-.003-.01-.003-.01-.004-.01-.004-.01-.004-.01-.005-.02-.006-.01-.006-.01-.006-.02-.007-.01-.007-.02-.008-.01-.009-.02-.009-.02-.01-.01-.01-.02-.011-.01-.011-.02-.013-.01-.012-.01-.014-.02-.014-.01-.015-.01-.015-.02-.016-.01c-.113-.06.117-.23.176-.37M100.77 101.59v-.01h-.01v-.03l-.01-.01v-.02l-.01-.01v-.01l-.01-.02v-.01l-.01-.01v-.02l-.01-.01-.01-.02-.01-.02v-.01l-.01-.02-.01-.01-.01-.02-.01-.01-.02-.02-.01-.01-.01-.02-.01-.01-.02-.01-.01-.02-.02-.01-.01-.01c-.09-.06.11-.23.17-.37M101.69 102.62v-.01l-.01-.01v-.02l-.01-.01v-.01l-.01-.01v-.03l-.01-.01-.01-.02v-.01l-.01-.02-.01-.01-.01-.02v-.01l-.01-.02-.01-.02-.01-.01-.01-.02-.02-.01-.01-.02-.01-.01-.01-.01-.02-.02-.01-.01-.02-.01-.01-.01c-.09-.09.14-.23.17-.38M102.61 101.87h-.01v-.03l-.01-.01v-.02l-.01-.01v-.02l-.01-.01v-.01l-.01-.02v-.01l-.01-.02-.01-.01-.01-.02v-.01l-.01-.02-.01-.01-.01-.02-.01-.01-.02-.02-.01-.01-.01-.02-.01-.01-.02-.01-.01-.02-.02-.01-.01-.01c-.09-.09.14-.23.17-.37M103.41 101.18v-.02h-.01v-.03l-.01-.01v-.02l-.01-.01v-.01l-.01-.01v-.02l-.01-.01-.01-.02v-.01l-.01-.02-.01-.01-.01-.02-.01-.01-.01-.02-.01-.02-.01-.01-.01-.01-.01-.02-.02-.01-.01-.02-.02-.01-.01-.01-.02-.01c-.09-.06.12-.23.18-.38M103.3 102.94v-.01l-.01-.01v-.05l-.01-.01v-.02l-.01-.02v-.01l-.01-.02v-.01l-.01-.02-.01-.01v-.02l-.01-.01-.01-.02-.01-.01-.01-.02-.01-.01-.01-.02-.01-.01-.02-.02-.01-.01-.01-.01-.02-.02-.02-.01c-.11-.08.12-.23.18-.37M101.74 100.69v-.02l-.01-.01v-.02l-.01-.01v-.03l-.01-.01v-.01l-.01-.02-.01-.01v-.02l-.01-.01-.01-.02-.01-.01-.01-.02-.01-.01-.01-.02-.01-.02-.01-.01-.01-.02-.01-.01-.01-.01-.02-.02-.01-.01-.02-.01-.01-.01c-.12-.09.11-.23.17-.375M100.8 99.801v-.007l-.01-.002v-.034l-.01-.01v-.011l-.01-.012v-.013l-.01-.013v-.014l-.01-.014v-.015l-.01-.015-.01-.016-.01-.015-.01-.016v-.015l-.01-.016-.01-.016-.02-.015-.01-.015-.01-.015-.01-.014-.01-.014-.02-.013-.01-.012-.02-.012-.01-.011c-.12-.086.11-.231.17-.375M102.78 100v-.01l-.01-.006v-.032l-.01-.01v-.022l-.01-.013v-.013l-.01-.013v-.014l-.01-.014v-.015l-.01-.015-.01-.015-.01-.015-.01-.016-.01-.015-.01-.016-.01-.015-.01-.016-.02-.015-.01-.015-.02-.014-.01-.015-.02-.014-.02-.013c-.09-.059.14-.203.2-.375M101.86 99.137v-.012l-.01-.006v-.024l-.01-.011v-.022l-.01-.013v-.013l-.01-.014v-.014l-.01-.014-.01-.015-.01-.015v-.016l-.01-.015-.01-.016-.01-.015-.01-.015-.01-.016-.01-.015-.02-.014-.01-.014-.01-.014-.02-.013-.01-.013-.02-.011-.01-.011c-.09-.09.14-.231.17-.375M99.73 99.223v-.007l-.001-.002v-.003l-.001-.006-.001-.007-.002-.008-.001-.009-.003-.011-.002-.011-.003-.011-.003-.013-.004-.013-.004-.014-.005-.014-.005-.014-.005-.015-.006-.015-.007-.016-.007-.015-.008-.016-.008-.015-.009-.016-.01-.015-.01-.015-.012-.014-.011-.014-.013-.014-.013-.013-.014-.013-.015-.011-.016-.011c-.117-.086.114-.231.172-.375M98.84 100.03h-.002l-.001-.01h-.002l-.002-.01-.002-.01-.003-.007-.003-.01-.004-.01-.004-.011-.005-.011-.005-.013-.005-.013-.006-.013-.007-.014-.007-.015-.008-.014-.008-.015-.008-.016-.009-.015-.01-.016-.01-.015-.011-.016-.011-.016-.013-.015-.012-.016-.013-.015-.014-.015-.015-.015-.015-.014-.016-.014c-.086-.058.145-.23.172-.375M98.094 101.32h-.002l-.001-.01h-.002l-.002-.01-.002-.01h-.003l-.003-.01-.004-.01-.004-.01-.005-.02-.005-.01-.005-.01-.006-.01-.007-.02-.007-.01-.008-.02-.008-.01-.008-.02-.009-.01-.01-.02-.01-.01-.011-.02-.012-.02-.012-.01-.012-.02-.013-.01-.014-.02-.015-.01-.015-.01-.016-.02c-.086-.06.145-.2.172-.37M98.898 101.76l-.001-.01h-.001l-.002-.01-.002-.01h-.003l-.002-.01-.004-.01-.003-.02-.005-.01-.004-.01-.005-.01-.006-.02-.006-.01-.006-.02-.007-.01-.008-.02-.008-.01-.009-.02-.009-.01-.009-.02-.011-.01-.011-.02-.011-.01-.012-.02-.013-.01-.013-.02-.014-.01-.014-.01-.015-.02-.016-.01c-.117-.06.113-.23.172-.37M99.762 100.75h-.001l-.001-.01h-.001l-.002-.01h-.002l-.002-.01-.003-.01-.003-.01-.004-.01-.004-.01-.005-.01-.005-.01-.006-.02-.006-.01-.006-.01-.007-.02-.008-.01-.008-.02-.008-.01-.009-.02-.01-.01-.01-.02-.011-.02-.012-.01-.012-.02-.012-.01-.013-.02-.014-.01-.015-.02-.015-.01-.016-.01c-.086-.06.141-.2.172-.38M98.094 102.88h-.001v-.01h-.001l-.001-.01h-.001l-.002-.01-.002-.01-.003-.01-.003-.01-.003-.01-.004-.01-.004-.01-.005-.02-.005-.01-.006-.01-.006-.02-.007-.01-.008-.02-.008-.01-.009-.02-.01-.02-.01-.01-.012-.02-.012-.01-.012-.02-.014-.01-.015-.02-.015-.01-.016-.02-.018-.01-.018-.02c-.086-.05.145-.23.172-.37"/>
</svg>
