<svg xmlns="http://www.w3.org/2000/svg" width="900" height="600" viewBox="0 0 1152 768">
  <path style="fill:#008ccc;fill-opacity:1;stroke:none" d="M0 0h768v576H0z" transform="matrix(-1.5 0 0 1.33333 1152 0)"/>
  <path d="M0 0h768v576L0 0z" style="fill:#f5e617;fill-opacity:1;fill-rule:evenodd;stroke:none" transform="matrix(-1.5 0 0 1.33333 1152 0)"/>
  <g style="font-size:100px;font-style:normal;font-variant:normal;font-weight:700;font-stretch:normal;line-height:145.00000477%;letter-spacing:-3px;word-spacing:0;fill:#000;fill-opacity:1;stroke:none;font-family:DejaVu Serif;-inkscape-font-specification:DejaVu Serif Bold">
    <path d="M-500.98242 56.119747c2.89708.423212 5.33848 1.383498 7.32422 2.880859 1.98561 1.497427 3.71087 3.662139 5.17578 6.494141l10.64453 20.3125h7.4707v5.908203h-23.97461l-11.62109-22.021484c-2.24614-4.557265-4.15857-7.462536-5.73731-8.715821-1.57881-1.253223-3.76794-1.87985-6.56738-1.879882h-2.97851v26.708984h9.375v5.908203h-37.5v-5.908203h9.32617V24.723263h-9.32617V18.81506h41.60156c8.46349.000072 14.99831 1.700917 19.60449 5.102539 4.60605 3.401757 6.90911 8.227598 6.90918 14.477539-.00007 5.078173-1.63581 9.090213-4.90723 12.036132-3.27154 2.946002-8.21132 4.842159-14.81933 5.688477zm-20.26367-2.880859h6.39648c4.55725.000038 8.06473-1.23694 10.52246-3.710938 2.45763-2.473914 3.68647-6.005811 3.68653-10.595703-.00006-4.589786-1.2289-8.105408-3.68653-10.546875-2.45773-2.44134-5.96521-3.662042-10.52246-3.662109h-6.39648zM-469.16797 91.71545v-5.908203h9.32617V24.723263h-9.32617V18.81506h65.52735v17.1875h-6.73829V25.504513h-30.66406v23.388672h19.0918v-9.277344h6.68945v25.195312h-6.68945V55.53381h-19.0918v29.492187h31.5918V74.52795h6.68945v17.1875zM-401.46484 91.71545v-5.908203h5.95703l27.4414-66.992187h11.66993l27.49023 66.992187h6.93359v5.908203h-34.13086v-5.908203h7.12891l-6.00586-14.892578h-27.39258l-6.10351 14.892578h8.6914v5.908203zm21.48437-26.708984h22.60742l-11.23047-27.88086zM-282.63867 87.223263c6.2174.000004 10.83979-2.620436 13.86719-7.861328 3.02728-5.240868 4.54095-13.248673 4.54101-24.023438-.00006-10.807244-1.51373-18.831325-4.54101-24.072266-3.0274-5.240819-7.64979-7.861259-13.86719-7.861328-6.18494.000069-10.79919 2.644923-13.84278 7.934571-3.04364 5.289768-4.56545 13.289435-4.56542 23.999023-.00003 10.677109 1.52178 18.6605 4.56542 23.950195 3.04359 5.289721 7.65784 7.934575 13.84278 7.934571zm0 5.908203c-12.27217-.000002-21.8913-3.352863-28.85742-10.058594-6.96616-6.705714-10.44923-15.950496-10.44922-27.734375-.00001-11.783806 3.4912-21.036726 10.47363-27.758789 6.9824-6.721934 16.59339-10.082934 28.83301-10.083008 12.27208.000074 21.89121 3.352936 28.85742 10.058594 6.96607 6.705787 10.44914 15.966845 10.44922 27.783203-.00008 11.783879-3.49129 21.028661-10.47363 27.734375-6.98249 6.705731-16.59348 10.058592-28.83301 10.058594zM-723.00819 236.71545v-5.9082h9.32617v-61.08399h-9.32617v-5.9082h41.5039c8.10542.00007 14.55072 1.92878 19.33594 5.78613 4.78509 3.85749 7.17766 9.02513 7.17774 15.50293-.00008 6.51046-2.40079 11.71065-7.20215 15.60059-4.8015 3.89-11.23866 5.83499-19.31153 5.83496h-13.3789v24.26758h11.76758v5.9082zm28.125-36.08398h5.46875c4.23173.00003 7.609-1.40784 10.13183-4.22364 2.52274-2.81571 3.78413-6.58361 3.78418-11.30371-.00005-4.68744-1.2533-8.42279-3.75976-11.20605-2.50656-2.78314-5.89197-4.17474-10.15625-4.17481h-5.46875zM-642.80507 169.72326h-9.27734v-5.9082h37.5v5.9082h-9.32617v36.47461c-.00003 9.08205 1.41598 15.43784 4.24804 19.06738 2.832 3.62957 7.68225 5.44435 14.55079 5.44434 6.70567.00001 11.4664-1.83105 14.28222-5.49316 2.81569-3.6621 4.22357-10.00161 4.22363-19.01856v-36.47461h-9.27734v-5.9082h25.39063v5.9082h-9.32618v37.5c-.00007 11.13283-2.40892 19.0674-7.22656 23.80371-4.81777 4.73633-12.90696 7.10449-24.26758 7.1045-11.2956-.00001-19.36851-2.39258-24.21875-7.17774-4.85027-4.78514-7.2754-12.72784-7.27539-23.82812zM-566.50819 236.71545v-5.9082h9.32617v-61.08399h-9.32617v-5.9082h37.5v5.9082h-9.375v26.61133l30.9082-26.61133h-7.8125v-5.9082h27.19727v5.9082h-9.7168l-26.17188 22.50977 35.59571 38.57422h7.17773v5.9082h-24.70703l-32.4707-35.40039v29.49219h9.375v5.9082z" style="text-align:center;line-height:145.00000477%;text-anchor:middle;font-family:DejaVu Serif;-inkscape-font-specification:DejaVu Serif Bold" transform="matrix(1.28 0 0 1.28 1079.83 213.59172)"/>
    <path d="M-488.06288 236.71545v-5.9082h5.95703l27.44141-66.99219h11.66992l27.49023 66.99219h6.9336v5.9082h-34.13086v-5.9082h7.1289l-6.00585-14.89258h-27.39258l-6.10352 14.89258h8.69141v5.9082zm21.48438-26.70898h22.60742l-11.23047-27.88086zM-345.90052 201.11975c2.89708.42321 5.33848 1.38349 7.32422 2.88086 1.98561 1.49742 3.71087 3.66213 5.17578 6.49414l10.64453 20.3125h7.4707v5.9082h-23.97461l-11.62109-22.02148c-2.24614-4.55727-4.15857-7.46254-5.7373-8.71582-1.57882-1.25323-3.76795-1.87985-6.56739-1.87989h-2.97851v26.70899h9.375v5.9082h-37.5v-5.9082h9.32617v-61.08399h-9.32617v-5.9082h41.60156c8.46349.00007 14.99831 1.70092 19.60449 5.10254 4.60605 3.40176 6.90911 8.2276 6.90918 14.47754-.00007 5.07817-1.63581 9.09021-4.90722 12.03613-3.27155 2.946-8.21133 4.84216-14.81934 5.68848zm-20.26367-2.88086h6.39648c4.55725.00004 8.06473-1.23694 10.52246-3.71094 2.45763-2.47391 3.68647-6.00581 3.68653-10.5957-.00006-4.58979-1.2289-8.10541-3.68653-10.54688-2.45773-2.44134-5.96521-3.66204-10.52246-3.66211h-6.39648zM-306.07825 169.72326h-9.27735v-5.9082h37.5v5.9082h-9.32617v36.47461c-.00003 9.08205 1.41598 15.43784 4.24805 19.06738 2.83199 3.62957 7.68224 5.44435 14.55078 5.44434 6.70567.00001 11.46641-1.83105 14.28222-5.49316 2.81569-3.6621 4.22357-10.00161 4.22364-19.01856v-36.47461h-9.27735v-5.9082h25.39063v5.9082h-9.32617v37.5c-.00008 11.13283-2.40893 19.0674-7.22657 23.80371-4.81777 4.73633-12.90695 7.10449-24.26757 7.1045-11.29561-.00001-19.36852-2.39258-24.21875-7.17774-4.85028-4.78514-7.27541-12.72784-7.27539-23.82812zM-229.78138 236.71545v-5.9082h9.32617v-61.08399h-9.32617v-5.9082h37.5v5.9082h-9.375v24.51172h29.00391v-24.51172h-9.32618v-5.9082h37.5v5.9082h-9.375v61.08399h9.375v5.9082h-37.5v-5.9082h9.32618v-29.88282h-29.00391v29.88282h9.375v5.9082zM-143.71888 236.71545v-5.9082h5.95703l27.44141-66.99219h11.669923l27.490235 66.99219h6.933594v5.9082h-34.13086v-5.9082h7.128906l-6.005859-14.89258h-27.392579l-6.10352 14.89258h8.69141v5.9082zm21.48437-26.70898h22.607431l-11.230471-27.88086z" style="text-align:center;line-height:145.00000477%;text-anchor:middle;font-family:DejaVu Serif;-inkscape-font-specification:DejaVu Serif Bold" transform="matrix(1.28 0 0 1.28 1079.83 213.59172)"/>
  </g>
</svg>
