<?xml version="1.0" encoding="UTF-8" standalone="no"?>
<!DOCTYPE svg PUBLIC "-//W3C//DTD SVG 1.1//EN" "http://www.w3.org/Graphics/SVG/1.1/DTD/svg11.dtd">
<svg xmlns="http://www.w3.org/2000/svg" xmlns:xlink="http://www.w3.org/1999/xlink" version="1.1" width="437" height="221" viewBox="-2.0945849199999884 -2.267365405000021 436.18916984 220.53473081">
<desc>Created with SVGMaker Editor 3.1.0</desc>
<defs>
</defs>
<g transform="matrix(1 0 0 1 216 108)" data-editor-group="true">
<g transform="translate(0,0)" style="">
<rect transform="translate(0,0)" style="fill: rgb(252,254,4)" x="-216.5946" y="-108.7674" width="200.2259" height="217.4229"/>
<rect transform="translate(0,0)" style="fill: rgb(204,55,54)" x="-68.6917" y="-108.7369" width="285.2863" height="217.5042"/>
<g transform="matrix(1 0 0 1 -99.68228 -0.90966)" data-editor-group="true">
<g transform="translate(0,0)" style="">
<path transform="translate(0,0)" style="stroke: rgb(255,242,0); stroke-width: 1.70000005; stroke-linecap: round; stroke-linejoin: round; fill: rgb(255,242,0)" stroke-linecap="round" d="M69.6198-27.8532C68.6929-28.6923 66.1123-31.0358 63.8854-33.0609 58.4228-38.0285 57.8431-37.9931 60.1796-32.8345 60.7669-31.5378 62.659-29.198 62.5832-29.1195 62.5074-29.041 59.2316-29.9212 58.2904-30.2971 57.1982-30.7334 58.516-29.7239 57.197-33.712 56.5472-35.677 55.6323-36.0536 55.3676-34.7168 55.1177-33.455 54.2498-31.0406 54.0928-32.958 53.8876-35.4642 52.755-28.6736 53.3803-34.6675 53.4528-35.3628 53.2273-36.0337 53.0404-36.1498 52.6407-36.3979 50.9217-33.854 50.194-33.0308 43.1499-25.0618 49.2389-32.1039 47.6554-31.6616 46.385-31.3068 43.044-29.5329 42.9555-29.6218 42.867-29.7107 45.4719-31.6023 45.8943-32.0572 48.4571-34.8175 51.3381-38.2626 49.7759-38.2621 49.1275-38.262 45.5608-36.2874 37.6769-31.5633L32.3692-28.3829 27.1897-30.1894C24.341-31.183 20.5731-31.9061 20.5713-32.0283 20.5692-32.1505 27.7452-34.0336 34.7624-35.981 41.7795-37.9283 47.9887-39.7553 48.5604-40.041 49.9644-40.7423 49.877-41.5501 48.3714-41.788 47.6957-41.8948 31.0084-41.8166 11.2884-41.6143-8.4315-41.4119-24.662-41.3429-24.7795-41.4609-25.3371-42.021-20.9099-51.6959-17.5971-57.1565L-15.696-60.2903-14.0435-58.76C-11.529-56.4316-9.6065-55.9781-6.7263-57.0341-5.5995-57.4472-5.0386-57.4188-2.946-56.8427 5.8446-54.4227 47.8976-43.9587 48.8327-43.9587 49.4997-43.9587 49.9759-44.157 49.973-44.4334 49.9687-44.8229 37.1832-52.203 18.1291-62.8142L14.8214-64.6563 16.806-64.9295C17.8976-65.0798 21.2822-65.2359 24.3274-65.2765 29.259-65.3423 29.9925-65.2688 31.0383-64.6036 31.684-64.1928 35.9773-60.2769 40.5789-55.9016 48.988-47.9059 51.3011-45.9209 51.7195-46.3412 52.0377-46.6608 50.5926-49.7155 47.0969-56.1127 43.7873-62.1692 43.0513-63.708 43.4652-63.7047 43.6166-63.7037 45.0028-63.3159 46.5456-62.8433L49.3507-61.984 50.0673-59.3326C51.2881-54.8152 53.3957-48.3853 53.8264-47.864 54.5445-46.9947 55.2703-48.06 55.2724-49.9866 55.2735-50.9532 55.3836-53.401 55.5171-55.426L55.7598-59.108 57.3108-58.3226C58.1638-57.8906 58.9023-57.5032 58.9519-57.4616 59.0015-57.42 58.5337-55.2945 57.9123-52.7381 56.6258-47.4452 56.5792-46.9969 57.316-46.9969 58.0673-46.9969 59.2929-48.6342 61.6969-52.8495 62.9133-54.9822 64.0899-56.5928 64.5322-56.7307 64.948-56.8603 66.1736-57.7205 67.2556-58.6422L69.2231-60.3181 69.8409-59.118C70.5447-57.7506 71.3462-58.854 63.8708-50.8992 59.7522-46.5166 59.219-45.7456 59.9092-45.1705 60.346-44.8066 62.822-46.0673 71.8115-51.2308L73.7985-52.3721 74.9262-49.9766 76.0539-47.581 69.348-45.7829C61.7527-43.7464 60.9409-43.4434 60.9409-42.6449 60.9409-41.8976 61.6971-41.7677 67.5564-41.508 70.2593-41.3882 73.6289-41.184 75.0443-41.0541L77.6179-40.8181 76.7045-39.8249C76.2021-39.2787 75.4806-38.2857 75.1011-37.6182 74.7217-36.9507 74.2912-36.4791 74.1445-36.5702 73.6722-36.8634 61.9502-39.7812 61.2445-39.7812 59.6919-39.7812 60.779-38.6065 64.2486-36.5348 66.2758-35.3243 68.9665-33.637 70.2279-32.7852L72.5215-31.2364 71.9134-28.782 71.3053-26.3276Z"/>
<path transform="translate(0,0)" style="fill: rgb(6,170,229)" stroke-linecap="round" d="M24.8119 64.9683C21.6392 62.7106 17.6261 61.1562 12.0932 60.0419 2.0588 58.0211-2.7729 55.656-8.7901 49.8198-14.732 44.0567-18.3744 37.5245-21.1115 27.7228-21.6659 25.7371-22.1196 23.9708-22.1196 23.7975-22.1196 23.6242-21.3395 23.5608-20.3861 23.6567L-18.6526 23.8311-18.4998 17.9379C-18.4032 14.2099-18.5739 11.6189-18.9645 10.8857-19.4346 10.0033-19.4271 9.0785-18.9331 7.0099-16.5351-3.0322-4.3355-6.3265 2.7882 1.1444 5.8101 4.3136 6.1049 5.6951 5.7621 15.0783L5.4554 23.4728 9.5833 23.6519C11.8536 23.7505 13.8101 23.7306 13.9311 23.6078 14.4561 23.0747 14.1166 11.2805 13.5664 10.9389 12.661 10.3768 13.5114 5.9409 15.0285 3.3122 15.7585 2.0472 17.3176 0.3123 18.4931-0.5431 23.6943-4.3282 30.4533-3.7064 34.9574 0.9715 38.2738 4.4159 38.6208 5.9255 38.2848 15.4491L38.0017 23.4731 42.1465 23.6521 46.2914 23.8311 46.0397 15.5495C45.8824 10.3766 46.0055 6.5548 46.367 5.3683 46.6854 4.3236 48.028 2.345 49.3505 0.9715 53.8546-3.7064 60.6136-4.3282 65.8147-0.5431 66.9902 0.3123 68.5671 2.0667 69.319 3.3556 70.8657 6.007 71.688 10.3512 70.7531 10.9316 70.3699 11.1695 70.1569 13.4925 70.1569 17.4325L70.1569 23.5631 72.5995 23.5631 75.0422 23.5631 74.6675 25.3047C73.7987 29.3422 71.0382 36.9217 69.2977 40.0483 63.3431 50.7452 54.4864 57.1453 41.956 59.806 35.576 61.1607 31.1556 62.8562 28.3014 65.0432L26.6718 66.2919ZM17.7019 57.0202C18.9615 54.256 19.1272 54.1003 19.9813 54.8768 21.2962 56.0723 22.3135 55.9176 23.7923 54.2973L25.0854 52.8805 23.3519 53.2122C22.3557 53.4029 21.6184 53.3217 21.6184 53.0215 21.6184 52.7341 22.1705 52.499 22.8452 52.499 24.6234 52.499 25.3521 51.5022 25.3521 49.0696 25.3521 47.4025 25.2099 47.0691 24.7121 47.5692 24.36 47.9229 23.7065 48.2122 23.2599 48.2122 22.6926 48.2122 22.8051 47.9608 23.6333 47.3781 25.0372 46.3902 25.1241 45.4276 23.9692 43.6569 23.3228 42.6658 22.6833 42.3707 21.2956 42.4232 19.1866 42.5028 18.1725 43.4601 18.5718 44.9943 18.7257 45.5853 18.634 46.0688 18.3681 46.0688 18.1022 46.0688 17.8847 45.466 17.8847 44.7292 17.8847 43.0014 17.6166 43.0405 15.6042 45.0623 13.9705 46.7036 13.9557 46.764 14.8203 48.2774 15.305 49.1257 15.4651 49.8198 15.1762 49.8198 14.8872 49.8198 14.5127 49.4581 14.3438 49.016 13.7551 47.4749 13.021 48.2269 13.1853 50.2027 13.3328 51.9763 13.5426 52.2322 15.1114 52.5519 17.4916 53.0369 17.6001 53.2314 16.7231 55.4404L15.9626 57.3558 13.4091 53.6015C10.7648 49.7135 8.0233 46.9509 5.7992 45.9328 4.6484 45.406 4.5478 45.1094 4.8448 43.1196 5.1431 41.1213 5.0318 40.7997 3.7503 39.9562 2.017 38.8152 1.504 39.1806 2.3183 40.976 2.6882 41.7917 2.7222 42.3179 2.4049 42.3179 2.1178 42.3179 1.883 41.9737 1.883 41.553 1.883 41.1323 1.2908 40.3202 0.567 39.7483-1.3557 38.2288-1.7324 35.0546-0.32 32.2733 1.6715 28.3517 5.1057 26.5033 7.4874 28.0712 9.0274 29.0848 9.3464 30.3346 7.8209 29.3775 6.4051 28.4892 4.9708 29.186 5.1792 30.6608 5.2881 31.4307 4.9784 32.0631 4.3253 32.4047 2.8387 33.1821 2.7249 34.0973 3.9806 35.1773 4.5871 35.699 5.0833 36.5525 5.0833 37.0739 5.0833 37.5954 5.5311 38.3029 6.0783 38.6463 6.657 39.0093 6.9698 39.6682 6.8259 40.2209 6.6783 40.788 7.0085 41.441 7.6446 41.8401 8.2309 42.2079 8.6092 42.7743 8.4853 43.0986 8.3615 43.4229 8.6114 44.1636 9.0407 44.7446 9.6653 45.5898 10.0141 45.6829 10.786 45.2103 11.3166 44.8855 11.8293 44.0871 11.9254 43.4361 12.0215 42.785 12.4415 42.1207 12.8588 41.9599 13.2761 41.799 13.6175 41.1484 13.6175 40.514 13.6175 39.8796 14.1212 39.0446 14.7368 38.6584 15.4159 38.2323 15.7587 37.5824 15.6086 37.0058 15.4647 36.4531 15.7776 35.7942 16.3562 35.4312 17.6681 34.6081 17.6463 32.6498 16.3216 32.3017 15.7042 32.1395 15.4077 31.7276 15.5812 31.2733 15.7404 30.8566 15.5742 30.1569 15.2123 29.7186 14.4698 28.8198 12.5509 28.6348 12.5509 29.462 12.5509 30.2032 10.4274 28.9414 9.2305 27.4892 6.6357 24.3406 0.9083 26.2881-1.6378 31.1846-2.3164 32.4897-2.536 32.58-3.7164 32.0397L-5.0362 31.4356-3.9058 29.5981C-2.7826 27.7724-2.782 27.7518-3.8123 26.3655-5.391 24.2412-6.3079 24.1615-6.0139 26.1741-5.7123 28.2386-6.411 28.4117-6.8305 26.3764-7.2384 24.397-5.074 18.2046-3.9743 18.2046-3.5235 18.2046-2.6176 18.5826-1.961 19.0446-0.3413 20.1844 1.2917 19.8384 2.594 18.0795 3.926 16.2805 3.5204 15.7566 1.377 16.5073 0.395 16.8512-0.2504 16.8757-0.2504 16.5692-0.2504 16.2898 0.0773 16.0612 0.4777 16.0612 0.8782 16.0612 1.8094 15.5843 2.5471 15.0014 3.7341 14.0634 3.8569 13.6474 3.6148 11.3844 3.2835 8.286 3.2262 8.2052 2.1371 9.2993 1.6622 9.7765 0.9416 10.1669 0.5358 10.1669 0.063 10.1669 0.2682 9.6946 1.1073 8.8516 2.6798 7.2719 2.7516 6.4065 1.4063 5.2492 0.8506 4.7713 0.1729 3.9798-0.0997 3.4904-0.54 2.7001-0.8517 2.6791-2.8894 3.3026-5.5656 4.1216-6.7177 5.8636-5.6834 7.5273-5.2611 8.2067-5.2352 8.5593-5.6075 8.5593-5.9187 8.5593-6.4382 7.7958-6.762 6.8625L-7.3508 5.1657-8.3344 6.386C-8.8754 7.0572-9.318 7.9414-9.318 8.3508-9.318 8.7602-9.5581 9.0952-9.8514 9.0952-10.8385 9.0952-10.3956 11.7226-9.2235 12.8196-8.5848 13.4174-8.198 14.043-8.3641 14.2098-8.5301 14.3766-9.3527 13.8711-10.1921 13.0865-11.6648 11.71-11.7242 11.6991-11.887 12.7758-12.188 14.7662-10.802 16.8476-9.0474 17.0402-8.1695 17.1366-7.2503 17.4107-7.0048 17.6494-6.4474 18.1914-8.2668 24.1526-8.8745 23.7753-9.1184 23.6238-9.318 23.7384-9.318 24.03-9.318 24.3636-9.9083 24.39-10.911 24.1011-12.6424 23.6022-13.5963 24.3021-12.5786 25.3246-12.2521 25.6525-11.985 26.288-11.985 26.7367-11.985 27.3066-12.2353 27.1936-12.8153 26.3616-13.5898 25.2508-16.2521 24.6449-16.2521 25.5795-16.2521 25.8043-16.7922 26.2289-17.4522 26.5229-18.2103 26.8607-18.602 27.4503-18.5155 28.1236-18.4402 28.7099-18.3269 29.6411-18.2637 30.1929-18.0803 31.7947-16.0345 32.8801-14.626 32.1228-13.6882 31.6186-13.5082 31.6372-13.7008 32.2187-13.8323 32.6157-14.5998 33.0611-15.4064 33.2084L-16.8729 33.4764-14.9109 35.2179C-12.6091 37.2611-12.0686 37.3333-10.1901 35.8488-9.4171 35.238-8.7847 34.9948-8.7847 35.3084-8.7847 35.622-9.2647 36.1798-9.8514 36.5479-11.4016 37.5205-11.1629 38.0311-9.158 38.0311-7.0491 38.0311-6.1206 37.2231-6.1095 35.3786-6.0963 33.1535-5.3771 32.4214-4.2837 33.5199-2.1388 35.6747-1.7349 39.3303-3.5841 39.8526-4.6794 40.162-4.7027 40.24-3.8508 40.7455-3.3374 41.0502-2.9247 41.7094-2.9336 42.2106-2.9486 43.0515-2.9917 43.0495-3.4935 42.1839-4.054 41.2171-7.2997 40.8159-7.0511 41.7442-6.9778 42.0181-7.3682 42.5797-7.9187 42.9923-8.8269 43.6728-8.8534 43.9263-8.2049 45.7278-7.4216 47.904-5.5972 48.7989-4.2439 47.6706-3.6265 47.1558-3.4508 47.1537-3.4508 47.661-3.4508 48.0194-3.9308 48.4387-4.5175 48.5928-6.0144 48.9861-5.846 49.6564-4.0106 50.6098-1.9253 51.6932-1.3495 51.6447 0.1153 50.2623 0.7942 49.6214 1.3498 49.3508 1.3498 49.6608 1.3498 49.9708 0.9897 50.5246 0.5497 50.8915-0.7352 51.9627-0.3973 52.6523 1.2134 52.2461 3.3883 51.6977 4.0167 50.959 4.0167 48.9504 4.0167 46.8571 4.233 46.7869 6.4663 48.1551 8.5293 49.4188 11.3696 52.9066 13.6042 56.9198 14.5477 58.6144 15.5501 60.0009 15.8317 60.0009 16.1133 60.0009 16.955 58.6596 17.702 57.0202ZM74.9995 22.2682C74.9766 21.7033 75.1024 21.3868 75.2796 21.5649 75.4569 21.7429 75.4758 22.2051 75.3218 22.5919 75.1515 23.0194 75.0251 22.8924 74.9995 22.2682ZM75.5329 20.1248C75.5099 19.5599 75.6358 19.2434 75.813 19.4215 75.9903 19.5995 76.0092 20.0617 75.8552 20.4485 75.6849 20.876 75.5585 20.749 75.5329 20.1248ZM76.0698 18.2046C76.0538 17.7626 76.2732 17.0392 76.5576 16.5971 77.1877 15.6176 77.1877 16.4636 76.5576 17.9367 76.2553 18.6434 76.0892 18.7346 76.0698 18.2046ZM-24.7096 15.1235C-25.2916 13.7571-25.2785 13.7255-24.5285 14.6901-24.0837 15.2622-23.7198 15.9253-23.7198 16.1637-23.7198 16.9781-24.0816 16.5979-24.7096 15.1235ZM77.8184 13.7985C77.9915 13.2563 77.7196 12.5931 77.1593 12.191 75.8838 11.2756 74.1941 8.6117 74.6184 8.1854 74.8049 7.9981 74.9574 8.1255 74.9574 8.4685 74.9574 8.8115 75.7816 10.0086 76.789 11.1288 78.1797 12.6752 78.4886 13.3528 78.0721 13.9436 77.6225 14.5815 77.5768 14.5553 77.8184 13.7985ZM-23.7198 11.0023C-23.7198 10.8723-23.4797 10.617-23.1864 10.4348-22.893 10.2527-22.653 10.359-22.653 10.6711-22.653 10.9832-22.893 11.2386-23.1864 11.2386-23.4797 11.2386-23.7198 11.1323-23.7198 11.0023ZM-21.8186 7.8664C-21.6183 7.3379-21.32 7.0406-21.1558 7.2055-20.9916 7.3705-21.1555 7.8029-21.52 8.1664-22.0468 8.6917-22.1081 8.6301-21.8186 7.8664ZM-20.4352 3.7367C-20.4352 2.9999-20.3141 2.6985-20.1662 3.0669-20.0182 3.4353-20.0182 4.0381-20.1662 4.4065-20.3141 4.7749-20.4352 4.4735-20.4352 3.7367ZM72.8659 3.5134C72.843 2.9485 72.9688 2.6321 73.1461 2.8101 73.3233 2.9882 73.3423 3.4503 73.1882 3.8372 73.0179 4.2646 72.8916 4.1377 72.866 3.5134ZM72.3325 1.37C72.3096 0.8051 72.4354 0.4887 72.6127 0.6667 72.7899 0.8448 72.8089 1.307 72.6548 1.6938 72.4846 2.1212 72.3582 1.9943 72.3326 1.37ZM-19.3684-1.086C-19.3684-1.8228-19.2474-2.1242-19.0994-1.7558-18.9514-1.3874-18.9514-0.7845-19.0994-0.4161-19.2474-0.0477-19.3684-0.3492-19.3684-1.086ZM-18.8153-4.569C-18.8261-5.4531-18.7155-5.8797-18.5694-5.5169-18.4233-5.1541-18.4144-4.4307-18.5496-3.9094-18.6848-3.388-18.8044-3.6848-18.8152-4.569ZM71.3276-5.1048C71.317-5.989 71.4274-6.4156 71.5735-6.0528 71.7196-5.69 71.7285-4.9666 71.5933-4.4452 71.458-3.9239 71.3385-4.2207 71.3276-5.1048ZM-18.3438-14.6478C-18.3669-18.4228-18.1796-21.3834-17.9274-21.2269-17.6753-21.0703-14.0452-22.0919-9.8605-23.497L-2.2521-26.0518 15.9505-23.4242 34.1531-20.7967 44.8127-22.092C55.2486-23.3602 55.5844-23.3685 60.8144-22.486 63.7525-21.9902 67.2966-21.4185 68.6901-21.2156L71.2237-20.8467 71.2237-14.9852 71.2237-9.1237 26.73-9.1237C-8.3658-9.1237-17.8204-8.9822-18.0326-8.4539-18.1806-8.0855-18.3206-10.8728-18.3438-14.6478ZM71.1348-23.5513C71.037-23.8239 69.2442-25.463 66.7835-26.4073 62.4226-28.0806 62.4799-27.9705 60.5156-32.5779 59.3101-35.4056 57.6375-37.84 58.0303-38.0838 58.3703-38.295 62.0274-34.6954 65.307-31.4108 68.4438-28.2695 71.373-26.2981 71.4838-25.8394 71.6892-26.0457 71.7571-25.6859 71.7571-24.7527 71.7571-23.089 71.4874-22.5685 71.1348-23.5513ZM-18.8153-25.4671C-18.8261-26.3513-18.7155-26.7779-18.5694-26.4151-18.4233-26.0523-18.4144-25.3289-18.5496-24.8075-18.6848-24.2862-18.8044-24.583-18.8152-25.4671ZM33.3656-27.4428C32.6867-27.6951 32.2261-27.9956 32.3421-28.1106 32.8196-28.5842 49.0947-38.1449 49.5725-38.2325 49.8579-38.2848 52.2499-39.1042 52.3481-38.6617 52.4463-38.2191 48.8189-35.0937 46.8271-33.108 43.5024-29.7935 42.8528-29.3946 38.9026-28.2408 35.9266-27.3716 34.2192-27.1255 33.3656-27.4428ZM72.1103-27.7445C-190.687 78.7281-59.2883 25.4918 72.1103-27.7445ZM72.9751-31.1972C72.5273-31.3375 70.3783-33.1519 67.0899-35.0818 59.8997-39.3016 59.2066-39.6912 60.5978-39.7752 60.8009-39.8205 69.8339-37.5295 73.627-36.5911L74.7268-36.1841 73.525-33.237C72.864-31.616 72.9841-30.6981 72.9751-31.1972ZM49.8881-31.8426C48.6572-30.8229 52.5589-36.8869 53.0297-36.8505 52.8898-36.4665 53.2385-31.138 52.1224-32.2992 51.3344-31.6694 50.2481-32.1409 49.8881-31.8426ZM56.1554-32.3753C55.7317-32.7912 55.3635-31.9415 55.1601-32.0661 54.4731-32.4869 55.5565-36.0986 55.8534-36.5018 56.3693-36.7006 57.7118-31.8333 58.0802-30.3752 58.6471-28.1053 57.3692-31.184 56.1554-32.3753ZM-20.9774-34.2671C-21.3104-35.3838-22.5641-37.4173-23.7634-38.7861L-25.944-41.2747-6.7838-41.2747C3.7544-41.2747 20.6965-41.4343 30.8656-41.6294 47.7143-41.9526 49.3547-41.9069 49.3547-41.1142 49.3547-40.543 48.5764-40.0365 47.0878-39.639 45.841-39.3061 39.3602-37.5 32.686-35.6256L20.5511-32.2175 9.2814-36.4782C3.083-38.8215-2.1874-40.7389-2.4307-40.7389-3.2676-40.7389-18.9982-33.617-19.6847-32.9273-20.2454-32.364-20.4834-32.6107-20.9774-34.2671ZM69.4564-41.6427C58.9451-42.2121 59.2597-41.8431 60.3714-42.4523 60.4869-42.5156 61.5093-43.1862 62.6317-43.4874 63.4334-43.7025 66.8412-44.8766 70.2858-45.8155L76.5488-47.5226 77.6199-44.6465C79.1726-42.3799 79.4772-41.009 78.9279-40.9789 78.0095-40.9286 73.3006-41.5277 69.4564-41.6427ZM22.9519-50.4268C8.577-54.2191-3.6091-57.265-4.1177-57.336-4.7097-57.4187-5.1164-57.5904-5.4206-57.6625-7.6691-58.1952 3.4964-62.6743 10.9506-64.3066L13.8842-64.9491 31.7528-54.931C41.5805-49.421 49.7254-44.8137 49.8525-44.6924 49.9796-44.5712 50.5395-44.0327 50.2659-43.7741 49.9758-43.5003 38.1802-46.4094 22.9519-50.4268ZM59.1463-45.19C58.9623-45.4891 62.0216-48.7866 65.2059-52.0539L70.9954-57.9943 72.4403-55.3275 74.0856-52.7613 67.1926-48.8431C63.5086-46.7491 60.4068-45.0257 60.2928-45.0257 60.1787-45.0257 59.3303-44.8908 59.1463-45.19ZM-23.6769-47.1691C-22.8994-48.8093-22.653-49.1133-22.653-48.4325-22.653-48.145-23.0263-47.4417-23.4825-46.8696-24.2646-45.8888-24.2757-45.9059-23.6769-47.1691ZM41.2036-55.6277C33.0152-63.7115 31.0921-65.3504 29.5727-65.5402 28.5715-65.6652 29.4326-65.6689 31.4861-65.5485 36.8937-65.2312 43.6813-64.2321 43.0592-63.845 42.7539-63.6549 44.7192-60.0602 47.2955-55.2559 50.3224-49.6115 52.4901-45.2996 52.3335-45.3322 51.8548-45.4318 47.6514-49.2622 41.2036-55.6277ZM56.7218-46.3943C56.7287-46.6153 57.4091-49.9474 58.0947-52.3607 58.8228-55.2787 59.2658-57.5651 59.2528-57.7102 58.9652-57.999 59.859-57.8396 61.1982-57.3558L63.8-56.8119 61.4854-53.078C60.5616-51.449 59.4344-49.4546 58.9807-48.646 58.2305-47.3093 56.6902-45.4176 56.7218-46.3943ZM52.8998-50.5181C52.4611-52.0654 51.63-54.3157 51.298-55.642 50.2478-59.0757 49.8104-60.9391 49.5398-62.047 53.1972-61.9542 55.6155-59.2519 55.6444-59.4864 55.7646-60.4645 55.2304-54.0054 55.222-53.3313 55.082-48.7693 55.0461-46.7013 54.6467-46.7655 54.1899-46.8389 53.384-48.8106 52.8998-50.5181ZM-20.7518-53.2205C-20.5515-53.7489-20.2533-54.0463-20.089-53.8814-19.9248-53.7164-20.0887-53.284-20.4532-52.9205-20.98-52.3952-21.0413-52.4568-20.7518-53.2205ZM-17.5798-58.6239C-17.0755-59.3969-16.5621-60.0295-16.4389-60.0295-16.053-60.0295-17.2949-57.9643-17.9107-57.582-18.2329-57.3819-18.084-57.8508-17.5798-58.6239ZM68.0233-60.2974C68.3885-60.7395 68.8074-61.1012 68.954-61.1012 69.1007-61.1012 68.922-60.7395 68.5567-60.2974 68.1915-59.8553 67.7727-59.4936 67.626-59.4936 67.4793-59.4936 67.658-59.8553 68.0233-60.2974ZM22.5518-65.7661C23.2119-65.8938 24.292-65.8938 24.9521-65.7661 25.6122-65.6384 25.0721-65.5339 23.752-65.5339 22.4318-65.5339 21.8918-65.6384 22.5518-65.7661Z"/>
<path transform="translate(0,0)" style="fill: rgb(255,242,0)" stroke-linecap="round" d="M69.8975 17.2179C66.8359 8.4469 68.1752 14.9086 66.525 2.0735 61.5582-3.2158 55.307-3.6447 50.0829 1.2648 47.813 3.398 47.202 20.4492 46.4355 24.2146L46.0166 26.2722 43.3614 26.2722 40.7061 26.2722 38.3248 24.7565C35.0718 22.6859 36.5003 4.1132 34.6647 2.1578 32.1764-0.4929 30.152-2.2178 26.6243-2.4208 31.4424 29.7041 31.0508 50.8922 23.2385 58.0787 16.7391 64.0576 3.5513 60.9707-13.3179 41.1989-16.6838 37.2538-18.8642 31.09-21.3865 23.8545-21.6221 23.7883-22.8104 20.6793-23.8384 17.7698-24.7297 15.2474-25.54 12.8326-25.426 12.7654-24.4162 12.1696-23.2656 10.4197-22.2243 8.35-20.3607 4.6459-18.8472-0.0825-19.1169-1.0533-19.1179-1.3351-19.0122-2.5474-18.771-3.6657L-17.8451-9.7608 20.6307-9.7735C42.0762-9.7806 62.3193-9.7424 65.3309-9.7116L71.39-9.6497 71.5788-4.1525C71.6052-3.3823 71.8167-2.2292 71.8767-1.5753 71.9748-0.5058 71.9588-0.4205 71.7167-0.7249 71.5678-0.9121 71.8201-0.2413 71.7025-0.1682 71.3617 0.0434 71.1924 0.2767 71.7798 0.8888 72.4024 1.5376 72.8719 2.583 73.5299 4.7855 74.1949 7.0111 76.0142 9.3072 76.7361 11.2305L77.7466 12.9505C77.2595 13.9796 78.3101 15.265 76.8112 16.2139 75.7395 16.8924 75.4152 22.0576 74.7045 22.5348 73.9495 23.0417 74.1069 24.2529 73.951 24.4095 73.7394 24.6221 73.2791 24.6942 72.1331 24.6942L69.4885 24.929Z"/>
<path transform="translate(0,0)" style="fill: rgb(210,202,71)" stroke-linecap="round" d="M25.0967 64.9123C22.5114 62.8693 16.9798 60.7008 11.6489 59.6404 2.6766 57.8556-2.6096 55.3832-7.9638 50.4672-15.5441 43.5072-19.4605 35.8708-22.7833 21.5708-23.3607 19.0862-24.2818 16.0343-24.8301 14.7889L-25.8272 12.5244-24.2807 11.0359C-22.4543 9.2781-21.0846 5.8213-19.735-0.4362-18.1414-5.3859-19.121-12.3151-18.2381-13.1607 6.8116-37.1517 62.8526 0.9706 71.5005-15.708 71.4849-7.5672 71.6952-4.0249 72.3754-0.9721 73.8694 5.7338 74.9307 8.5406 76.8034 10.7385 78.5614 12.8018 78.5775 12.8669 77.7469 14.5397 77.282 15.4758 75.9655 19.9008 74.8212 24.3729 73.3643 30.0668 71.9337 34.164 70.0484 38.0417 67.7126 42.846 66.7066 44.2347 62.4502 48.5305 58.2743 52.745 56.79 53.8524 52.477 55.9713 48.885 57.736 45.8403 58.7716 42.019 59.5287 35.5672 60.8068 32.1384 62.0535 28.88 64.3056L26.4524 65.9836ZM17.2462 56.7657C18.712 53.3584 19.0948 51.8763 18.3972 52.3095 18.0724 52.5112 17.8066 52.5715 17.8066 52.4435 17.8066 51.743 21.6216 43.9423 21.8513 44.1731 22.0019 44.3243 21.4621 46.3792 20.6519 48.7395 19.4037 52.3754 19.2876 53.1626 19.8915 53.8936 20.7859 54.9762 22.2726 55.0032 23.1405 53.9525 23.702 53.2728 23.5886 53.1488 22.4058 53.1488 21.6364 53.1488 21.007 52.9076 21.007 52.6129 21.007 52.3182 21.5929 52.0771 22.309 52.0771 23.5649 52.0771 24.344 51.3971 24.5355 50.1339 24.5858 49.8019 24.8072 48.9598 25.0275 48.2626 25.3837 47.1349 25.3319 47.075 24.5577 47.7204 24.0791 48.1195 23.2939 48.2943 22.8128 48.1088 22.0707 47.8227 22.163 47.5621 23.4218 46.3901 24.2898 45.5819 24.6798 44.8632 24.3616 44.658 24.0625 44.4651 23.649 43.7642 23.4428 43.1005 23.1387 42.1214 22.7981 41.953 21.6374 42.2075 18.9709 42.7923 18.7934 42.9376 18.9683 44.3924 19.1933 46.2637 17.948 46.6674 17.4987 44.8689L17.1515 43.479 15.8789 44.8584C14.4284 46.4308 14.3509 46.8581 15.2528 48.309 16.0804 49.6403 15.2773 50.5087 14.3705 49.263 13.4818 48.042 13.0061 48.0756 13.0061 49.3595 13.0061 50.7718 14.4184 52.0771 15.9464 52.0771 16.6415 52.0771 17.3488 52.3023 17.5182 52.5776 17.8596 53.1325 16.2913 57.4356 15.7476 57.4356 15.5589 57.4356 14.8555 56.3958 14.1844 55.1249 12.4231 51.7896 8.4175 47.3848 6.0357 46.1641 4.9056 45.5849 3.1913 45.1326 2.2262 45.1589 0.5989 45.2034 0.6567 45.258 3.0209 45.9112 7.3046 47.0948 10.3774 50.0627 13.9812 56.4973 14.765 57.8969 15.5999 59.0423 15.8364 59.0426 16.0729 59.0429 16.7073 58.0183 17.2462 56.7657ZM2.3734 50.9865C3.0823 50.6054 3.4051 49.8628 3.4051 48.6132 3.4051 46.8788 3.2755 46.7574 0.6048 45.9898-0.9354 45.5472-3.0956 45.0209-4.1957 44.8204-5.2958 44.6199-6.1959 44.237-6.1959 43.9695-6.1959 43.7019-5.6559 43.6189-4.9958 43.785-4.3357 43.9511-3.1956 44.1249-2.4622 44.1714-1.7288 44.2178-1.0041 44.4328-0.8517 44.649-0.6994 44.8653 0.4151 44.9088 1.6248 44.7458 3.2802 44.5228 3.971 44.126 4.4172 43.142 5.075 41.6917 4.516 40.0898 3.1713 39.5714 2.5369 39.3269 2.4387 39.5872 2.6898 40.848 3.0928 42.8724 2.1072 42.9434 1.1601 40.9582 0.7734 40.1477 0.1603 39.5087-0.2025 39.5382-0.5652 39.5676-1.628 39.6279-2.5641 39.6721-4.1328 39.7462-4.1888 39.8094-3.2776 40.4788-2.6649 40.9289-2.4186 41.5448-2.6301 42.0985-2.9371 42.9022-3.0817 42.8811-4.0697 41.8885-5.2018 40.7513-5.5764 40.826-7.5986 42.5923-8.742 43.5911-8.751 43.6797-7.8874 45.4257-6.9551 47.3108-5.3687 47.8166-4.169 46.6114-3.6712 46.1113-3.529 46.1874-3.529 46.9542-3.529 47.4964-3.9339 48.2375-4.4288 48.601-5.2447 49.2004-5.2075 49.3-4.0287 49.6701-3.3138 49.8945-2.5602 50.3428-2.3541 50.6663-2.1117 51.0467-1.4259 50.7218-0.4124 49.7463 1.3458 48.0541 2.5759 48.7255 0.9744 50.5033-0.0625 51.6543 0.6644 51.9054 2.3734 50.9865ZM11.2576 43.974C12.077 43.1508 11.507 41.8959 10.3136 41.8959 9.1376 41.8959 8.5347 42.7315 8.9417 43.797 9.2959 44.7244 10.4248 44.8106 11.2576 43.974ZM9.7095 39.881C9.8376 38.9792 9.6134 38.6808 8.8076 38.6808 7.5309 38.6808 6.9249 39.4913 7.3566 40.6215 7.8129 41.816 9.5106 41.2817 9.7095 39.881ZM13.2175 40.5079C13.651 39.373 13.1668 38.6808 11.9393 38.6808 11.3872 38.6808 10.8006 38.9002 10.6356 39.1683 10.1257 39.9971 10.9365 41.3601 11.9393 41.3601 12.4633 41.3601 13.0385 40.9766 13.2175 40.5079ZM-1.4905 36.1355C-1.5856 32.4956-0.5856 30.2315 1.9881 28.2594 4.0278 26.6964 6.3496 26.5038 8.1214 27.7505 9.874 28.9838 10.1363 28.3028 8.4285 26.9532 6.5752 25.4887 4.5443 25.5171 2.2965 27.0388 0.6778 28.1347-1.5548 30.8554-2.0431 32.3272-2.1547 32.6634-2.9711 32.459-4.0793 31.8176-5.0968 31.2287-6.7693 30.6021-7.7961 30.425-9.3807 30.1518-9.2096 30.3118-6.6641 31.4834-3.5552 32.9143-2.8062 33.8824-2.1692 37.2935-1.6483 40.0832-1.3985 39.6571-1.4905 36.1355ZM7.9389 36.798C7.9389 36.1022 7.5233 35.6743 6.7388 35.5624 5.8549 35.4363 5.5387 35.6599 5.5387 36.4108 5.5387 36.9716 5.707 37.5996 5.9127 37.8062 6.6202 38.5171 7.9389 37.8609 7.9389 36.798ZM11.3097 36.6659C11.4378 35.7641 11.2135 35.4657 10.4077 35.4657 9.1311 35.4657 8.5251 36.2762 8.9568 37.4064 9.4131 38.6009 11.1108 38.0666 11.3097 36.6659ZM14.873 36.798C14.873 36.1022 14.4574 35.6743 13.6728 35.5624 12.789 35.4363 12.4727 35.6599 12.4727 36.4108 12.4727 36.9716 12.641 37.5996 12.8468 37.8062 13.5543 38.5171 14.873 37.8609 14.873 36.798ZM-7.6063 36.9281C-7.0964 36.5535-6.5722 35.3802-6.4414 34.3207L-6.2035 32.3943-11.0114 30.3688C-13.6557 29.2549-15.7301 28.2539-15.6212 28.1445-15.5124 28.0351-14.1818 28.2335-12.6644 28.5854-11.147 28.9373-10.1551 29.3802-10.4603 29.5696-10.7654 29.7591-9.7275 29.8973-8.1538 29.8767-3.8457 29.8204-2.4941 28.2588-4.578 25.7458L-5.627 24.4808-5.6448 26.2669C-5.6671 28.5066-6.6561 28.2908-7.4671 25.8695-8.0021 24.272-8.2939 24.074-10.3297 23.9279-12.8376 23.7478-12.8752 23.7793-11.9432 25.2785-11.459 26.0574-11.4453 26.4857-11.8903 26.9327-12.3352 27.3797-12.5805 27.2515-12.8376 26.4376-13.2209 25.2245-15.2051 24.3392-15.7302 25.147-15.9136 25.4291-16.6264 25.9578-17.3141 26.3219-18.2571 26.8211-18.48 27.269-18.2207 28.1437-18.0317 28.7815-17.8223 29.5446-17.7554 29.8393-17.4219 31.3091-16.6606 31.8079-15.1989 31.5142-13.3722 31.1472-12.9877 32.4988-14.7583 33.0633-15.6327 33.3421-15.7269 33.5652-15.2264 34.1711-14.8816 34.5884-14.2689 34.9299-13.8648 34.9299-13.4607 34.9299-13.13 35.171-13.13 35.4657-13.13 36.2924-11.2079 36.0993-10.4631 35.1978-9.7149 34.2922-8.3295 34.1152-8.3295 34.9253-8.3295 35.2175-8.8096 35.7578-9.3963 36.1259-9.983 36.494-10.4631 36.9783-10.4631 37.2022-10.4631 37.8503-8.6212 37.6736-7.6063 36.9281ZM5.9237 34.3287C6.7431 33.5055 6.1731 32.2506 4.9797 32.2506 3.8037 32.2506 3.2008 33.0862 3.6078 34.1517 3.962 35.0791 5.0909 35.1653 5.9237 34.3287ZM9.5391 33.5829C9.5391 32.8871 9.1235 32.4592 8.3389 32.3473 7.4551 32.2212 7.1388 32.4448 7.1388 33.1957 7.1388 33.7565 7.3071 34.3845 7.5129 34.5911 8.2204 35.302 9.5391 34.6458 9.5391 33.5829ZM13.2175 34.0777C13.6482 32.9502 13.1686 32.2506 11.9649 32.2506 10.7715 32.2506 10.2015 33.5055 11.0209 34.3287 11.8713 35.183 12.8374 35.0726 13.2175 34.0777ZM16.6436 33.4508C16.7717 32.549 16.5474 32.2506 15.7416 32.2506 14.465 32.2506 13.859 33.0611 14.2907 34.1913 14.747 35.3858 16.4447 34.8515 16.6436 33.4508ZM7.9389 30.3678C7.9389 29.672 7.5233 29.2441 6.7388 29.1322 5.8549 29.0061 5.5387 29.2297 5.5387 29.9806 5.5387 30.5414 5.707 31.1694 5.9127 31.376 6.6202 32.0869 7.9389 31.4307 7.9389 30.3678ZM11.2576 31.1136C12.077 30.2904 11.507 29.0355 10.3136 29.0355 9.1376 29.0355 8.5347 29.8711 8.9417 30.9366 9.2959 31.864 10.4248 31.9502 11.2576 31.1136ZM14.873 30.3678C14.873 29.672 14.4574 29.2441 13.6728 29.1322 12.789 29.0061 12.4727 29.2297 12.4727 29.9806 12.4727 30.5414 12.641 31.1694 12.8468 31.376 13.5543 32.0869 14.873 31.4307 14.873 30.3678ZM-5.4302 18.1411C-3.442 12.298-4.0082 11.7324-6.0923 17.4797-7.7228 21.9763-8.3833 25.0448-7.3109 23.1412-7.0618 22.6991-6.2155 20.4491-5.4302 18.1411ZM-18.9973 17.0375L-18.9973 10.9339-20.871 10.7141C-22.2651 10.5506-23.009 10.7769-23.7768 11.598-24.7984 12.6904-24.796 12.7397-23.5388 16.4478-22.8403 18.5082-22.1282 20.8571-21.9563 21.6676-21.7173 22.7948-21.3329 23.1412-20.3206 23.1412L-18.9973 23.1412ZM13.5395 16.9789L13.5395 10.8166 9.8058 10.8166 6.072 10.8166 6.072 16.9789 6.072 23.1412 9.8058 23.1412 13.5395 23.1412ZM46.0763 16.9789L46.0763 10.8166 42.3426 10.8166 38.6088 10.8166 38.6088 16.9789 38.6088 23.1412 42.3426 23.1412 46.0763 23.1412ZM74.8751 20.8638C75.1887 19.6112 75.8989 17.2973 76.4532 15.7218L77.4611 12.8571 75.7115 10.5544C74.7161 9.2444 73.5541 6.7385 73.016 4.7414 72.4958 2.8108 71.7421 1.1047 71.3412 0.9501 70.9403 0.7956 70.6159 0.2395 70.6204-0.2855 70.6273-1.0967 70.7054-1.1193 71.1402-0.4362 71.4819 0.1007 71.5429-0.6108 71.324-2.5796 71.1437-4.2006 70.947-5.5899 70.8869-5.667 70.8267-5.7442 50.7599-5.8073 26.2939-5.8073L-18.1897-5.8073-18.8376-1.6482C-19.403 1.9814-20.6019 6.2671-21.9123 9.343-22.2343 10.0989-22.0421 10.2808-20.9212 10.2808-19.672 10.2808-19.5295 10.0765-19.519 8.2713-19.4835 2.1956-13.3722-3.6156-6.996-3.6366-3.1639-3.6492-0.8376-2.8522 1.7248-0.6487 4.371 1.6268 5.9638 4.5151 6.4212 7.8677L6.7504 10.2808 9.5789 10.2808 12.4074 10.2808 12.7656 7.8807C13.3029 4.2815 16.0056 0.1599 19.0764-1.7431 22.9135-4.1209 27.6336-4.2979 31.6711-2.2154 35.4678-0.2571 37.8325 2.8724 38.6986 7.085L39.3557 10.2808 42.0759 10.2808 44.7961 10.2808 45.4531 7.085C46.7477 0.7882 52.0722-3.6571 58.3066-3.6461 65.1974-3.634 71.1456 1.8264 71.1456 8.1399 71.1456 10.1444 71.2146 10.2233 73.1458 10.4263L75.146 10.6365 72.8791 10.7265 70.6122 10.8166 70.6122 16.9789 70.6122 23.1412 72.4585 23.1412C74.1856 23.1412 74.3417 22.9941 74.8751 20.8638ZM6.2425 0.5924C5.283-0.3716 6.9558-3.6513 8.407-3.6513 8.7201-3.6513 8.4429-3.276 7.7909-2.8172 7.1389-2.3584 6.6054-1.5144 6.6054-0.9417 6.6054-0.0262 6.9922 0.0996 9.8058 0.0996 13.345 0.0996 13.9056-0.6043 11.9393-2.5796 11.3526-3.1691 11.0754-3.6513 11.3233-3.6513 12.2632-3.6513 13.618-1.5451 13.449-0.3465 13.2897 0.7834 12.9652 0.9184 10.0679 1.0596 8.1397 1.1535 6.6158 0.9674 6.2425 0.5924ZM38.8905 0.6598C38.6641 0.2919 39.7465 0.0996 42.0444 0.0996 45.6842 0.0996 45.98-0.1335 44.9801-2.213 44.4284-3.3602 44.4341-3.3622 45.2669-2.3156 45.7342-1.7283 46.0475-0.7638 45.9631-0.1722 45.8313 0.751 45.3439 0.9258 42.5224 1.0617 40.6365 1.1525 39.0882 0.9812 38.8905 0.6598ZM38.6088-1.444C38.6088-1.9666 40.6827-3.9161 40.906-3.6034 40.9923-3.4824 40.5108-2.8495 39.8359-2.1969 39.161-1.5443 38.6088-1.2055 38.6088-1.444ZM9.2724-3.6513C9.2724-3.9461 9.5124-4.1872 9.8058-4.1872 10.0991-4.1872 10.3392-3.9461 10.3392-3.6513 10.3392-3.3566 10.0991-3.1155 9.8058-3.1155 9.5124-3.1155 9.2724-3.3566 9.2724-3.6513ZM41.8092-3.6513C41.8092-3.9461 42.0492-4.1872 42.3426-4.1872 42.6359-4.1872 42.876-3.9461 42.876-3.6513 42.876-3.3566 42.6359-3.1155 42.3426-3.1155 42.0492-3.1155 41.8092-3.3566 41.8092-3.6513ZM2.3613 17.2036C2.9098 16.1741 2.8323 16.134 0.9716 16.4847-0.5807 16.7772-0.9473 16.6985-0.7554 16.1137-0.6214 15.7054-0.0079 15.2966 0.6078 15.2052 2.2101 14.9675 2.9756 13.8126 3.1578 11.3588 3.3337 8.9897 2.8078 8.263 1.8 9.4829 1.4375 9.9217 0.8103 10.2808 0.4061 10.2808-0.688 10.2808-0.4819 9.0271 0.7381 8.2617 2.0008 7.4696 2.1113 6.2252 1.0166 5.1255 0.583 4.6899 0.0018 3.927-0.275 3.4301-0.742 2.5916-0.9442 2.5884-3.087 3.3856-5.3299 4.2199-5.393 4.3077-5.2949 6.4588-5.2393 7.6767-5.3899 8.6732-5.6296 8.6732-6.2611 8.6732-7.1121 7.4999-7.3785 6.2619-7.5702 5.3712-7.7749 5.5256-8.5906 7.1767-9.1304 8.2692-9.7725 9.0387-10.0176 8.8866-10.9284 8.321-10.4244 10.6563-9.3963 11.7649-8.2786 12.9701-7.9638 14.5676-8.8441 14.5676-9.1272 14.5676-9.6157 14.0853-9.9297 13.4959-10.6372 12.1677-11.5298 12.1011-11.5298 13.3766-11.5298 15.2046-9.9761 16.711-8.0906 16.711-6.314 16.711-6.3097 16.7045-4.3111 11.069-3.2106 7.9659-2.1043 5.2992-1.8528 5.143-1.274 4.7836-1.1735 4.2241-2.9321 11.1495L-4.4453 17.1089-2.2536 18.1858C0.1389 19.3614 1.349 19.1038 2.3613 17.2036ZM70.6122-8.2061L70.6122-9.5457 26.3409-9.5457-17.9305-9.5457-17.9305-8.2061-17.9305-6.8664 26.3409-6.8664 70.6122-6.8664Z"/>
<path transform="translate(0,0)" style="fill: rgb(3,164,79)" stroke-linecap="round" d="M26.142 65.6084C25.7925 64.6935 20.6912 61.85 17.935 61.0337 15.911 60.4343 15.7461 60.268 16.4235 59.5094 16.8416 59.0412 17.594 57.6232 18.0954 56.3583 18.9343 54.2421 19.0795 54.1245 19.9156 54.8847 21.0685 55.9328 21.7862 55.9248 23.426 54.8454 24.9648 53.8325 25.1272 53.0456 23.8073 52.9976 23.0501 52.9701 23.0861 52.8775 23.9976 52.5074 24.8119 52.1768 25.2065 51.4142 25.4302 49.7384 25.7726 47.1741 25.5689 46.6267 24.6251 47.5748 24.278 47.9236 23.6219 48.1936 23.1672 48.1749 22.66 48.1541 22.8044 47.9536 23.5406 47.6564 24.9481 47.088 25.0621 45.8058 23.9111 43.4879 23.1735 42.0026 22.8927 41.8533 21.3775 42.1414 19.047 42.5845 18.211 43.362 18.4899 44.8273 18.6194 45.5083 18.5187 46.0655 18.266 46.0655 18.0134 46.0655 17.8066 45.4627 17.8066 44.7259 17.8066 42.9906 17.3316 43.0366 15.538 44.9457 14.0278 46.5531 13.6731 47.8975 14.6063 48.4769 14.8996 48.659 15.1397 49.0616 15.1397 49.3716 15.1397 49.6816 14.6956 49.3843 14.1528 48.7109L13.166 47.4865 12.9095 48.8342C12.4829 51.0761 13.2725 52.3261 15.3643 52.7204 17.4758 53.1183 17.4623 53.0844 16.534 55.6639L15.876 57.4925 14.4486 55.0456C12.4707 51.655 8.0134 46.8734 6.0811 46.0693 4.3372 45.3436 4.1791 44.937 5.024 43.3511 5.7153 42.0534 5.0398 40.6683 3.0897 39.3847L1.6643 38.4464 1.9926 40.5144C2.2656 42.2338 2.2294 42.363 1.7779 41.2805 1.4793 40.5643 0.7909 39.666 0.2483 39.2841-0.2944 38.9023-0.8972 37.7394-1.0913 36.7-1.7333 33.2619 0.9695 29.0026 4.639 27.6697 5.6949 27.2862 8.739 28.6247 8.739 29.4725 8.739 29.7823 8.3289 29.7418 7.7429 29.3742 6.3817 28.5202 5.0053 29.1607 5.0053 30.6481 5.0053 31.3232 4.5252 32.1768 3.9385 32.5449 2.5759 33.3998 2.5759 34.618 3.9385 35.4729 4.5252 35.841 5.0053 36.6708 5.0053 37.3168 5.0053 37.9996 5.429 38.6265 6.0173 38.8141 6.6911 39.0289 6.9409 39.4761 6.7649 40.1524 6.5992 40.7888 6.8916 41.4133 7.548 41.8251 8.1326 42.1919 8.4929 42.8762 8.3634 43.3736 8.2358 43.8638 8.4966 44.5694 8.943 44.9416 10.033 45.8504 11.9393 45.1788 11.9393 43.886 11.9393 43.3164 12.4281 42.3594 13.0256 41.7592 13.623 41.159 13.957 40.4163 13.7678 40.1088 13.5786 39.8013 13.9506 39.1791 14.5944 38.7261 15.3263 38.211 15.6683 37.5313 15.507 36.912 15.3382 36.2634 15.5984 35.8103 16.2612 35.599 17.6476 35.1569 17.6341 32.6637 16.2434 32.2984 15.626 32.1362 15.3294 31.7243 15.503 31.27 15.9927 29.988 14.5624 28.7932 12.9305 29.1211 11.7848 29.3513 10.975 29.0078 9.2498 27.5597 8.0332 26.5386 6.5962 25.7032 6.0563 25.7032 3.4092 25.7032-0.1875 28.2416-1.7218 31.1926-2.3928 32.4831-2.6156 32.5821-3.5411 32.0015-4.8002 31.2115-4.8851 30.3625-3.7957 29.4542-2.6183 28.4726-2.8081 27.5348-4.5801 25.5777L-6.1646 23.8278-6.2261 25.9712C-6.2842 27.9951-6.3126 28.0308-6.7366 26.6124-7.1775 25.1374-5.7613 19.6938-4.6449 18.5722-4.3872 18.3133-3.4384 18.498-2.4874 18.992-0.1739 20.1939 1.1578 19.8717 2.8078 17.711L4.2052 15.881 1.8049 16.231-0.5953 16.5809 1.2543 15.7604C2.2716 15.3091 3.2448 14.7109 3.417 14.4311 3.6823 13.9998 3.696 12.0444 3.4578 8.5966 3.4192 8.0373 3.0752 8.1447 2.1706 8.9985 1.4916 9.6393 0.5915 10.1563 0.1704 10.1473-0.328 10.1367-0.2228 9.9188 0.4715 9.5233 1.937 8.6884 2.3207 8.0069 2.3302 6.2213 2.3359 5.1402 2.1228 4.7735 1.6046 4.9733 1.1683 5.1415 0.6216 4.7063 0.2556 3.8994-0.2558 2.7718-0.6047 2.6016-1.811 2.8917-2.6092 3.0836-3.6223 3.2701-4.0623 3.3062-5.8498 3.4527-6.8684 6.5944-5.5558 7.913-5.0597 8.4114-5.0594 8.556-5.5542 8.556-5.9054 8.556-6.5101 7.7747-6.898 6.8196L-7.6033 5.0832-8.6203 6.6857C-9.1796 7.567-9.9632 8.4923-10.3617 8.7419-11.3108 9.3363-10.7471 11.6481-9.2637 13.2447-7.6693 14.9607-8.5191 14.7421-10.3054 12.9768L-11.7964 11.5032-11.9735 12.7597C-12.3707 15.5778-10.2489 18.1662-8.1918 17.3732-6.8659 16.862-6.6893 17.8905-7.6241 20.6797-8.6371 23.7023-9.1632 24.1935-10.9964 23.8278-12.869 23.4542-13.9851 24.232-12.8885 25.1463-12.4345 25.5248-12.0784 26.2269-12.0969 26.7066-12.1212 27.3317-12.2602 27.2567-12.5878 26.4419-13.363 24.5137-15.477 24.3984-17.4171 26.1786-18.7735 27.4232-19.0276 27.9779-18.7068 28.9933-18.4871 29.6889-18.4025 30.2929-18.5189 30.3357-18.6353 30.3784-18.256 30.9401-17.676 31.584-16.8695 32.4793-16.2423 32.6817-15.009 32.4448-13.8437 32.2208-13.6184 32.281-14.1967 32.6618-14.6367 32.9516-15.4168 33.1924-15.9302 33.1969-17.3003 33.209-17.0673 34.2066-15.5302 34.9102-14.7968 35.2459-14.1967 35.8436-14.1967 36.2383-14.1967 37.2293-11.2975 37.1625-10.463 36.1523-10.0978 35.7102-9.5283 35.3562-9.1975 35.3655-8.8667 35.3748-9.2562 35.8772-10.0629 36.4819-12.0457 37.9681-11.9085 38.3908-9.5295 38.1246-6.8939 37.8297-6.3958 37.356-5.9809 34.7493-5.6715 32.8051-5.5367 32.6429-4.765 33.2858-3.7232 34.1537-2.4621 37.0345-2.4621 38.5464-2.4621 39.2781-2.8121 39.6353-3.5289 39.6353-4.776 39.6353-4.9582 40.6009-3.7956 41.0491-3.3555 41.2187-3.0028 41.7537-3.0117 42.238-3.0261 43.0189-3.0893 43.0124-3.5716 42.1806-4.3927 40.7644-6.5945 41.0276-8.0532 42.7165-9.2137 44.06-9.2574 44.2964-8.5487 45.3957-8.1212 46.0588-7.9264 46.6014-8.1157 46.6014-8.3051 46.6014-8.1612 46.9631-7.796 47.4052-6.9984 48.3707-5.0557 48.4568-4.169 47.5659-3.6826 47.0773-3.5289 47.0749-3.5289 47.5557-3.5289 47.9037-4.129 48.3398-4.8624 48.5247-6.6709 48.9807-6.5405 49.4529-4.3109 50.521-1.7806 51.7332-0.6214 51.6584 0.3785 50.2183 0.8389 49.5552 1.2282 49.2846 1.2436 49.6169 1.259 49.9492 0.9116 50.5213 0.4715 50.8882-1.4232 52.4679 0.622 53.1612 2.7531 51.6616 3.5878 51.0742 3.9386 50.2815 3.9386 48.9823 3.9386 47.9675 4.1599 47.1372 4.4305 47.1372 4.701 47.1372 5.9612 47.9312 7.2308 48.9017 9.5833 50.6999 15.6219 59.5683 14.7033 59.8759 13.4249 60.304 3.8653 57.6466 0.2563 55.8598-4.8609 53.3264-11.6466 46.9387-15.0527 41.4486-17.1579 38.0553-20.6273 28.9841-21.6116 24.5972-21.8956 23.3312-21.4911 24.1468-20.1986 23.9974L-18.7305 23.8278-18.5792 17.7422C-18.4873 14.0482-18.648 11.39-18.9881 10.9783-19.8438 9.9426-18.6588 5.2845-16.8365 2.5207-12.494-4.0655-2.4578-4.6942 2.7742 1.2922 5.5317 4.4474 5.7395 5.3961 5.7738 14.9862L5.8054 23.8278 9.8059 23.8278 13.8063 23.8278 13.959 17.9346C14.0556 14.2066 13.8849 11.6156 13.4943 10.8824 12.6356 9.2704 13.7333 4.901 15.673 2.2111 21.1576-5.3952 32.7941-4.3706 37.0734 4.0955 38.4523 6.8233 38.4678 6.981 38.1971 15.5025L37.9227 24.1435 42.1329 23.9856 46.3431 23.8278 46.4944 17.7422C46.5941 13.7358 46.4364 11.4032 46.0331 10.915 45.6502 10.4515 45.5494 9.3174 45.7644 7.8911 47.4331-3.1795 61.9706-6.8148 68.4789 2.2111 70.4186 4.901 71.5163 9.2704 70.6576 10.8824 70.267 11.6156 70.0963 14.2066 70.1929 17.9346L70.3456 23.8278 72.3458 23.9941C73.4459 24.0855 75.1486 23.8059 75.1486 24.1118 75.1486 25.5756 70.8278 37.4171 69.3062 40.1141 63.3365 50.6952 52.455 57.6586 40.4758 59.6588 36.0352 60.4003 30.6081 62.4086 30.6081 63.3103 30.6081 63.5862 30.3924 63.678 30.1289 63.5143 29.8654 63.3507 28.9175 63.904 28.0225 64.7439 26.9404 65.7594 26.3104 66.049 26.1421 65.6084ZM-18.246-15.0214L-18.2659-20.6478-10.2307-23.2503-2.1955-25.8528 16.2795-23.2048 34.7544-20.5568 44.5491-21.8642 54.3439-23.1717 62.7448-21.9309 71.6138-20.6902 71.6138-15.0426 71.6138-9.3949 26.4598-9.3949-18.226-9.3949-18.246-15.0214Z"/>
<path transform="translate(0,0)" style="stroke: rgb(204,204,204); stroke-width: 0.40000001; fill: rgb(255,255,255)" stroke-linecap="round" d="M-18.5667-27.3004L-19.747-33.0201-12.3483-36.6246-2.7578-40.8701C5.0193-38.2082 12.7963-35.1469 20.5734-32.2289L33.9604-27.4884 43.6219-30.195 54.6193-33.396 63.1973-28.6735 71.8104-23.6683 71.5643-23.0837 71.494-20.6271C56.0595-20.9295 43.5357-13.5152 25.1729-21.5807L-18.0545-20.9449Z"/>
<path transform="translate(0,0)" style="stroke: rgb(204,204,204); stroke-width: 1.79999995; fill: none" stroke-linecap="round" d="M25.4324 65.0471C22.8471 63.0042 17.3155 60.8356 11.9846 59.7752 3.0123 57.9904-2.2739 55.518-7.6281 50.6021-15.2085 43.6421-19.1248 36.0057-22.4477 21.7057-23.025 19.2211-23.9461 16.1692-24.4945 14.9237L-25.4915 12.6593-23.945 11.1708C-22.1186 9.4129-20.749 5.9561-19.3994-0.3014-18.6876-11.8462-15.6253-29.9945-23.8413-39.4729L-25.6917-41.5306-24.8245-44.1536C-23.7241-47.4821-19.9955-54.9194-17.598-58.5681L-15.7542-61.3743-13.5873-59.2379C-10.5867-56.2795-8.9548-56.3583-2.2833-59.7838 7.4097-64.7609 16.7179-66.5541 30.1436-66.031 41.2659-65.5977 48.3215-63.8075 56.9904-59.2192 62.325-56.3957 64.0693-56.4071 66.9878-59.2847L69.2021-61.4678 71.331-58.079C74.0618-53.732 75.5112-50.8824 77.6648-45.6264L79.4026-41.3853 78.1085-40.3627C76.1306-38.7996 74.2693-35.2154 73.003-30.5307 72.0136-26.8705 71.8539-24.8233 71.8362-15.5731 71.8206-7.4323 72.0309-3.89 72.7111-0.8372 74.2051 5.8686 75.2664 8.6754 77.1391 10.8733 78.897 12.9366 78.9132 13.0018 78.0825 14.6746 77.6177 15.6107 76.3012 20.0356 75.1569 24.5078 73.7 30.2017 72.2694 34.2989 70.3841 38.1765 68.0483 42.9808 67.0423 44.3696 62.7858 48.6654 58.61 52.8799 57.1257 53.9873 52.8126 56.1062 49.2207 57.8708 46.176 58.9065 42.3547 59.6635 35.9029 60.9417 32.4741 62.1883 29.2157 64.4404L26.788 66.1184Z"/>
<path transform="translate(0,0)" style="fill: rgb(0,0,0)" stroke-linecap="round" d="M-18.2055-14.9568L-18.2256-20.6765-10.1555-23.3221-2.0854-25.9678 16.4697-23.2759 35.0248-20.5839 44.862-21.913 54.6993-23.2422 63.1366-21.9809 71.574-20.7196 71.574-14.9783 71.574-9.2371 26.6943-9.2371-18.1855-9.2371-18.2055-14.9568Z"/>
<path transform="translate(0,0)" style="stroke: rgb(204,204,204); stroke-width: 0.5; stroke-linecap: round; stroke-linejoin: round; fill: rgb(255,242,0)" stroke-linecap="round" d="M61.7385-41.4853C61.7385-37.8447 58.8361-34.8935 55.2558-34.8935 51.6755-34.8935 48.773-37.8447 48.773-41.4853 48.773-45.1258 51.6755-48.0771 55.2558-48.0771 58.8361-48.0771 61.7385-45.1258 61.7385-41.4853Z"/>
</g>
</g>
<path transform="translate(0,0)" style="stroke-width: 0; fill: rgb(252,254,4)" vector-effect="non-scaling-stroke" stroke-linecap="round" d="M-172.4402 7.2207L-135.1013 7.2207C-130.2104 7.2207-126.2452 15.0327-126.2452 24.6702-126.2452 34.3069-130.2104 42.1189-135.1017 42.1189L-172.4402 42.1189C-177.332 42.1189-181.2972 34.3069-181.2972 24.6702-181.2972 15.0336-177.332 7.2207-172.4402 7.2207Z"/>
</g>
</g>
</svg>