<?xml version="1.0" encoding="UTF-8" standalone="no"?>
<svg xmlns="http://www.w3.org/2000/svg" width="700" height="400">
  <path fill="#fff" fill-rule="evenodd" stroke="#fffefe" stroke-opacity=".98941806" stroke-width="5.80000019" d="M-13.395749-13.354551h746.33459v426.75031h-746.33459z"/>
  <g transform="translate(231.5551 73.539182)">
    <path fill="#fff" fill-rule="evenodd" stroke="#fffefe" stroke-opacity=".98941806" stroke-width="5.80000019" d="M109.60717 36.228115H227.3334v71.041687H109.60717z"/>
    <path fill="#c7b56f" d="M99.74074 241.7671475c-44.09918-2.37614-72.62541-7.56747-79.05724-14.3872-14.84428-15.73952-19.44489-133.962682-7.34859-188.838858 3.73485-16.943566 6.46875-20.561316 18.23903-24.135595 9.62734-2.9235286 27.66262-5.8726649 47.1668-7.7127329 18.11383-1.7088982 74.650365-1.7125013 92.000005-.00586 36.9554499 3.6352093 52.7933 7.3382849 58.32338 13.6366919 8.55764 9.746613 13.47951 46.495329 13.60068 101.548374.10315 46.86312-2.80623 77.18778-9.2563 96.47884-2.30607 6.89707-3.21008 8.34656-6.66776 10.69111-9.29727 6.30419-35.69321 10.55696-79.5 12.80863-21.49285 1.10473-25.58262 1.09755-47.500005-.0834zm-4.1267-68.42828 2.93375-16.21407c13.333338 0 57.973992-145.9445244 41.843654-1.57252l41.301397.0542 1.361648 12.17438c.581121 5.19575-1.49389 11.49816-1.13543 14.38566l-.259188 3.33717 3.790441.72869 3.517172-.27326.273261-17.58717-1.464072-18.14438-28.752828.4338-31.572521-1.24717-.07527-16.22924.588848-10.68178-28.712632.19628-31.75503-1.37398 1.82253-12.45353-1.12171-11.177693 11.87878-2.133789c6.37739-1.145574 26.473465-2.129929 42.047172-.348143l31.640524 1.393083-.312118 16.712822-.704674 12.29647 2.33575-.0981 4.200436.4907-2.332569-17.09089.611683-16.305752-13.268587-.768164-15.010556-2.307785.957629-3.440173c.001-4.098587 5.33405-14.545611 10.0202-19.629491 15.09218-16.373078 41.76592-16.766238 57.4603499-.846941 5.66661 5.747809 10.4852 15.529569 11.23666 22.810488l.56181 5.443401h9.0094001l-.62271-6.668468c-.46156-4.942762-1.67821-8.79917-4.70137-14.901923-8.5739201-17.307889-24.79736-27.429609-43.96513-27.429609-22.75585 0-42.01825 15.082998-47.55296 37.235301l-1.6828 6.735301-30.12284 3.89593-27.17858-.716715.5084 12.10018-3.02469 16.4184-14.57141.58885-13.68814.49071 1.81062 13.70762c2.32042 17.5672-.54966 16.14309-.35927 17.43556.0654.44412.0899-.22214 2.40611-.57956l1.99274-.3075-.41025-11.11877 1.35629-15.04442 41.9361-.19628 43.997062.58885 1.39375 12.59189-4.074916 10.39155-16.735196 1.68097-14.51199-.48802 1.78943 18.14437c34.480674 3.16317-1.7352 11.53593-1.7352 18.03593l4.14792-.97604 4.31059-.32535-2.21761-12.14721z"/>
    <path fill="#fff" d="M28.958687 143.30891v-24.54656H130.72501v24.54656l.0256 5.51699c-1.75907 0-21.95845-.11416-10.90884-.11416l-.0256-.65192v-19.79561H40.563239v29.67463H28.958687z" color="#000" overflow="visible" style="marker:none"/>
    <path fill="#fff" d="M161.95792 113.10823V88.561667H60.19159v24.546563l-.04295 5.88132c1.75907 0 6.119081 2.14007 10.960887.11138l-.0091-1.24179V98.063528h79.252943v29.674632h11.60455zm-73.065914 60.03415v-24.54656H190.65832v24.54656l-.0655 14.70973c-6.90647.0708-7.12322.0478-10.90883-.016l.0655-9.94278v-19.79561h-79.25293v29.67463H88.892006z" color="#000" overflow="visible" style="marker:none"/>
  </g>
</svg>