<?xml version="1.0" encoding="UTF-8" standalone="no"?>
<svg
   xmlns:dc="http://purl.org/dc/elements/1.1/"
   xmlns:cc="http://creativecommons.org/ns#"
   xmlns:rdf="http://www.w3.org/1999/02/22-rdf-syntax-ns#"
   xmlns:svg="http://www.w3.org/2000/svg"
   xmlns="http://www.w3.org/2000/svg"
   xmlns:sodipodi="http://sodipodi.sourceforge.net/DTD/sodipodi-0.dtd"
   xmlns:inkscape="http://www.inkscape.org/namespaces/inkscape"
   id="svg2"
   sodipodi:version="0.32"
   inkscape:version="1.0.2 (e86c870879, 2021-01-15, custom)"
   width="493.91388"
   height="691.26013"
   version="1.0"
   sodipodi:docname="svg.svg"
   inkscape:output_extension="org.inkscape.output.svg.inkscape">
  <metadata
     id="metadata7">
    <rdf:RDF>
      <cc:Work
         rdf:about="">
        <dc:format>image/svg+xml</dc:format>
        <dc:type
           rdf:resource="http://purl.org/dc/dcmitype/StillImage" />
      </cc:Work>
    </rdf:RDF>
  </metadata>
  <defs
     id="defs5" />
  <sodipodi:namedview
     inkscape:window-height="1017"
     inkscape:window-width="1920"
     inkscape:pageshadow="2"
     inkscape:pageopacity="0.0"
     guidetolerance="10.0"
     gridtolerance="10.0"
     objecttolerance="10.0"
     borderopacity="1.0"
     bordercolor="#666666"
     pagecolor="#ffffff"
     id="base"
     showgrid="false"
     inkscape:zoom="0.47455215"
     inkscape:cx="345.75767"
     inkscape:cy="356.52346"
     inkscape:window-x="-8"
     inkscape:window-y="-4"
     inkscape:current-layer="svg2"
     showguides="true"
     inkscape:guide-bbox="true"
     inkscape:document-rotation="0"
     inkscape:window-maximized="1" />
  <path
     style="fill:#4d4d4d;fill-opacity:1;fill-rule:evenodd;stroke:none;stroke-width:0;stroke-linecap:round;stroke-linejoin:round;stroke-miterlimit:40;stroke-dasharray:none;stroke-opacity:1"
     d="M 225.9655,684.32431 C 199.94063,670.2901 188.41891,662.78969 157.84687,639.98025 150.27625,634.33196 134.9986,620.47214 122.33734,607.7663 100.146,585.49682 94.40555,578.88002 78.75602,557.5316 77.9088,556.37585 75.03201,552.59608 72.36307,549.13203 61.71614,535.31324 47.90973,510.39479 34.558328,480.90077 22.735092,454.78261 13.684546,425.34016 8.1736035,395.06873 0.45096852,352.64849 -0.82917648,332.84521 0.41215452,275.00454 1.0670455,244.48945 2.1812205,180.78821 2.8880905,133.44619 3.5950115,86.104204 4.8688805,46.634836 5.7190545,45.736524 8.3902055,42.913934 47.98971,29.854587 74.10618,23.183375 174.13119,-2.3670496 267.5315,-6.7237946 362.20284,9.7449024 399.91257,16.304802 455.68233,32.198552 486.22107,45.08889 l 7.69281,3.246998 -0.88594,118.134392 c -1.21104,161.5598 -2.16875,191.32159 -7.04307,218.90673 -4.8757,27.59155 -13.43693,57.84424 -23.17069,81.87751 -11.37608,28.08891 -40.69977,80.94169 -50.9312,91.79882 -1.38661,1.47143 -5.33723,6.4542 -8.77905,11.07294 -9.85818,13.22903 -45.10393,49.74519 -57.18378,59.24489 -26.59331,20.91288 -53.04787,38.17158 -82.22738,53.64431 -20.30336,10.76599 -20.19665,10.76236 -37.72727,1.30883 z"
     id="path2488" />
  <path
     style="fill:#ffffff;fill-opacity:1;fill-rule:evenodd;stroke:none;stroke-width:0;stroke-linecap:round;stroke-linejoin:round;stroke-miterlimit:40;stroke-dasharray:none;stroke-opacity:1"
     d="m 277.9962,669.624 c 42.71123,-24.86224 58.84254,-37.18707 91.64935,-70.0229 24.2947,-24.31622 35.22461,-37.12413 47.54803,-55.71761 21.01706,-31.71078 37.38749,-65.03983 48.74619,-99.24302 19.97645,-60.15234 21.73206,-80.81169 22.51521,-264.91164 L 489.00817,49.659888 471.24024,42.713675 C 454.08815,36.008284 408.42316,23.041348 377.74999,16.166388 331.85167,5.8789404 259.45159,1.9024864 195.57409,6.1607054 159.8332,8.5432534 96.12009,19.718585 61.43276,29.689191 38.2847,36.342895 10.391166,46.564143 8.2441095,49.179527 5.0467665,53.074214 2.8474645,319.088 5.7335595,352.83596 10.15652,404.55508 22.558913,449.14761 45.14712,494.54703 c 36.36914,73.09719 85.75199,126.33162 160.38321,172.89199 24.13749,15.05891 35.45377,19.41464 44.03441,16.94963 3.33068,-0.95681 16.12484,-7.60088 28.43146,-14.76463 z"
     id="path839" />
  <path
     style="fill:#eb4a5a;fill-opacity:1;fill-rule:evenodd;stroke:#eb4a5a;stroke-width:6.7123;stroke-linecap:round;stroke-linejoin:round;stroke-miterlimit:40;stroke-dasharray:none;stroke-opacity:1"
     d="m 237.7531,665.75366 c -2.10292,-1.22269 -9.82191,-5.62413 -17.15331,-9.781 -7.33142,-4.15685 -15.98379,-9.58429 -19.22751,-12.06092 -3.24379,-2.47663 -6.49676,-4.50298 -7.229,-4.50298 -1.19627,0 -21.70834,-14.86969 -24.03884,-17.4264 -0.52413,-0.57497 -7.38546,-6.3227 -15.24739,-12.77269 -16.62242,-13.63713 -46.85324,-45.97414 -57.92234,-61.95777 -4.22206,-6.09662 -8.21439,-11.51891 -8.87189,-12.04961 -5.07776,-4.09845 -33.75495,-57.47064 -39.91933,-74.29535 -0.77773,-2.12272 -2.34377,-6.03046 -3.48007,-8.68387 -2.82369,-6.59382 -11.926621,-36.09202 -13.696586,-44.38423 -4.968117,-23.27567 -7.449506,-37.21808 -8.585879,-48.24374 -1.224257,-11.87874 -1.260742,-213.95305 -0.04227,-234.46452 0.315227,-5.30683 0.671378,-22.04189 0.791391,-37.189046 l 0.218244,-27.540311 5.241283,-2.128619 c 2.88272,-1.170783 6.956618,-2.85639 9.053137,-3.745801 14.55522,-6.174851 53.02617,-16.88282 75.28399,-20.954517 6.81367,-1.246469 15.39032,-3.039955 19.05924,-3.985558 3.6689,-0.945625 10.53022,-2.186493 15.24739,-2.757476 4.71714,-0.570961 18.43981,-2.492993 30.49478,-4.271163 23.32526,-3.440645 119.05988,-4.791892 134.36762,-1.896564 4.19303,0.793089 13.62734,2.206645 20.96516,3.141274 13.3303,1.697916 27.55649,4.254492 41.93036,7.535322 4.19296,0.957076 12.25689,2.698658 17.91985,3.870222 19.96595,4.130635 68.89997,21.840184 73.46917,23.526018 1.24696,0.460074 3.41896,1.588018 5.20543,1.749614 3.22086,0.291344 3.34642,6.649688 2.37571,140.389255 -1.10863,152.73207 -1.84152,164.98909 -12.31641,206.00073 -7.53599,29.50524 -12.07169,43.15053 -19.88266,59.81635 -3.70392,7.90306 -6.73447,14.97038 -6.73447,15.70513 0,2.22664 -21.06169,39.672 -23.97083,42.61753 -1.49165,1.51033 -2.71219,3.49034 -2.71219,4.40008 0,0.90974 -1.10026,2.80158 -2.4451,4.20409 -1.34484,1.40249 -4.49907,5.58938 -7.00944,9.30415 -10.51903,15.56567 -59.04627,67.452 -63.15056,67.52194 -0.62311,0.0106 -3.62498,2.22345 -6.67075,4.91743 -15.91296,14.07504 -79.95378,53.47438 -85.83088,52.80513 -0.91383,-0.10411 -3.38215,-1.18954 -5.48505,-2.41219 z m 17.57396,-138.50298 c 21.50541,-12.22984 34.44247,-25.05931 41.89933,-41.55083 3.49744,-7.73499 6.49867,-11.33416 11.69316,-14.02292 13.30284,-6.88576 28.90617,-28.9315 28.90617,-40.84109 0,-4.57178 0.22804,-4.56988 10.32461,0.0871 14.39513,6.63976 29.69982,26.55488 29.69982,38.64683 0,12.71953 19.00373,-9.62294 22.0169,-25.88493 0.80929,-4.36798 2.35607,-6.89978 4.21522,-6.89978 4.86957,0 23.16368,19.94397 24.50015,26.70973 1.5489,7.84161 4.83067,7.77025 8.07805,-0.17566 1.40974,-3.44943 3.85459,-9.20295 5.43301,-12.78559 7.63666,-17.33343 18.35913,-65.19534 21.66754,-96.71696 3.269,-31.14517 3.97338,-80.88891 3.70754,-261.750056 l -0.04,-27.274774 -10.0061,-3.951845 c -5.50329,-2.17349 -12.15023,-4.499882 -14.77089,-5.169779 -2.62065,-0.669896 -6.48013,-1.94374 -8.57673,-2.830784 C 411.56525,43.315516 352.1247,30.732644 305.42502,25.605642 283.1354,23.15853 204.43813,24.3275 182.49294,27.431625 c -7.3378,1.037918 -19.77396,2.774408 -27.63589,3.858847 -19.09322,2.633608 -64.42585,12.544861 -81.00176,17.709755 -7.3378,2.286384 -17.34448,5.154865 -22.23705,6.374394 -4.89255,1.219519 -9.26908,3.293048 -10.32377,3.663331 -10.268165,3.604983 -12.378145,4.25569 -4.68897,1.446023 1.68446,-0.615509 -4.142163,1.085491 -5.219333,2.412183 -2.488937,3.065539 -3.901371,47.465422 -5.294585,166.440872 -1.123688,95.95984 -0.548276,109.28161 6.626775,153.41507 4.074553,25.06238 13.893143,58.61153 22.562313,77.09297 4.70964,10.04037 5.0149,10.30253 6.74097,5.78924 4.23042,-11.0618 6.52786,-14.75023 13.84712,-22.2313 4.25214,-4.34616 9.58992,-8.39429 11.86161,-8.99578 3.53785,-0.93674 4.31722,-0.0833 5.43282,5.94893 1.64663,8.9037 5.79019,19.02878 10.58173,25.8576 3.79089,5.40274 7.27588,6.96208 7.27588,3.25559 0,-4.37783 10.35229,-23.15482 15.97798,-28.98085 3.2556,-3.37146 10.50531,-8.32849 16.11065,-11.01568 10.87788,-5.21481 13.50454,-4.36571 13.66622,4.41764 0.19787,10.75008 18.56036,35.37635 28.84187,38.68037 1.90228,0.61131 6.64407,7.24902 10.5373,14.75045 3.89326,7.50144 10.22719,16.71414 14.07547,20.47265 7.45805,7.28402 31.69864,23.2541 35.57664,23.43841 1.27841,0.0608 5.56249,-1.73098 9.5201,-3.98164 z"
     id="path2472"
     sodipodi:nodetypes="csssssssssssscccsssssssssssssssssssssscccssssssssssscccsssssssssssssssssssssssssscc" />
  <path
     style="fill:#eb4a5a;fill-opacity:1;fill-rule:evenodd;stroke:#eb4a5a;stroke-width:6.7123;stroke-linecap:round;stroke-linejoin:round;stroke-miterlimit:40;stroke-dasharray:none;stroke-opacity:1"
     d="m 230.01577,486.47612 c -13.46993,-16.15609 -15.58998,-33.24378 -6.63633,-53.48869 3.03608,-6.86485 5.00389,-13.3273 4.37287,-14.36107 -0.63106,-1.03374 -2.06702,-0.19321 -3.19112,1.86788 -1.75477,3.21732 -9.1888,10.96583 -22.53252,23.48548 -3.11514,2.92277 -3.33538,2.79096 -3.33538,-1.99587 0,-3.98788 -1.16314,-5.41528 -5.24128,-6.43216 -11.8844,-2.96335 -19.53571,-12.26818 -19.53571,-23.75753 0,-3.23675 0.40241,-5.88508 0.89427,-5.88508 0.49178,0 4.39152,1.84566 8.66594,4.10147 13.62129,7.18855 30.88523,0.90312 36.30833,-13.21914 3.87144,-10.08147 8.68653,-63.94353 6.68307,-74.75649 -1.2522,-6.75848 -1.58978,-7.02527 -7.39617,-5.84555 -4.1479,0.84278 -10.4812,5.76153 -19.90196,15.45707 -13.07693,13.45835 -13.81794,14.69253 -13.81794,23.01456 0,4.83645 -0.85767,8.7936 -1.90593,8.7936 -1.04825,0 -1.91474,-4.12484 -1.92552,-9.16631 -0.0179,-8.34858 -0.86799,-10.06806 -9.52962,-19.27438 -5.23057,-5.55944 -9.51002,-10.55266 -9.51002,-11.09606 0,-3.23398 5.83985,0.20823 13.87492,8.17832 l 9.24104,9.16631 4.87333,-5.78924 c 2.68035,-3.18409 8.20006,-9.4289 12.26607,-13.87734 6.30946,-6.90285 7.39273,-9.36156 7.39273,-16.77845 0,-7.92068 -0.88622,-9.58067 -10.00609,-18.74239 -9.93882,-9.98438 -26.49987,-21.60276 -49.24248,-34.54591 -28.69776,-16.33234 -54.31254,-48.27995 -70.08467,-87.41196 -2.99233,-7.42434 -2.83486,-7.67217 2.58931,-4.07368 6.23196,4.13439 6.01384,2.35675 -1.58511,-12.91767 -3.48604,-7.00713 -7.3242,-16.55936 -8.5293,-21.22724 -5.14666,-19.93503 -3.95977,-28.082986 2.35998,-16.20125 3.25371,6.11733 8.13281,9.90411 10.14107,7.87074 0.48848,-0.49459 -0.9208,-3.4713 -3.13168,-6.61501 -2.21084,-3.14369 -4.01976,-7.05018 -4.01976,-8.68108 0,-1.63092 -0.77028,-3.447276 -1.71174,-4.036406 -2.68698,-1.68141 -4.65325,-27.2762 -2.4067,-31.3285 1.86655,-3.366774 2.02257,-3.351589 3.40488,0.330997 1.27405,3.39418 7.15912,13.492323 14.52847,24.929373 3.83225,5.94752 20.44601,24.702306 27.91321,31.510356 3.7801,3.44643 13.73425,10.81473 22.12032,16.37396 8.38607,5.55924 15.67622,10.60082 16.20036,11.20349 0.52411,0.60273 4.32326,3.65506 8.44249,6.78303 4.11921,3.128 12.0188,11.24207 17.55454,18.03129 9.49771,11.6483 10.05802,12.93658 9.94099,22.85696 -0.11015,9.33897 0.5705,11.23843 6.09558,17.01012 6.92858,7.23785 17.93731,13.24418 21.63878,11.80603 3.23058,-1.25522 8.46531,-33.65743 8.02648,-49.68325 -0.29157,-10.64827 -1.33118,-14.23502 -6.48124,-22.36106 -6.19352,-9.77237 -8.05852,-14.95569 -3.84689,-10.69142 6.71202,6.79597 7.05848,-1.30741 0.54882,-12.83681 -6.46461,-11.44954 -6.00037,-11.96179 2.88185,-3.1801 4.19303,4.14557 7.6237,8.29157 7.6237,9.21335 0,2.20048 5.45684,6.24236 7.37837,7.2975 24.07628,13.22057 -0.60884,-8.72672 -3.35571,-5.69594 -3.8785,4.27937 8.97804,16.50557 10.94381,11.12518 1.57309,-4.30552 1.71266,-4.24 4.79165,2.25057 3.85857,8.134 12.23647,17.88723 17.40738,20.26509 3.05021,1.40267 2.01642,1.88038 -5.17401,2.39096 -8.56837,0.60841 -9.04313,0.94721 -10.21897,7.29335 -1.23334,6.65686 1.81182,39.79716 3.98388,43.35558 1.83845,3.01182 6.62358,2.20874 14.04303,-2.35676 13.1596,-8.09759 18.94009,-18.69546 16.20829,-29.71589 -0.69559,-2.80618 -0.3154,-4.63589 0.96336,-4.63589 1.16189,0 2.11255,-1.17833 2.11255,-2.61849 0,-4.60419 29.53909,-32.82486 42.1467,-40.26559 15.9424,-9.40883 20.85698,-13.25322 37.64594,-29.44819 12.71542,-12.26554 27.45317,-31.888466 34.47436,-45.901684 3.44683,-6.879384 5.74113,-3.601647 5.76638,8.238248 0.0215,10.06552 -2.61841,20.694826 -8.04617,32.397516 -6.34757,13.68606 -1.84314,13.21047 7.67492,-0.8103 2.07848,-3.06184 2.27492,-2.00509 1.30108,7.00426 -1.19704,11.07523 -9.58071,31.31538 -17.33316,41.84681 -2.4871,3.37858 -4.52206,6.63506 -4.52206,7.23655 0,2.83975 4.77266,0.5623 8.82906,-4.21318 5.56506,-6.55153 5.76664,-3.3313 0.54482,8.7049 -3.75356,8.65211 -5.21057,11.62339 -10.1479,20.69479 -4.41879,8.11873 -18.96559,26.54654 -28.41576,35.99673 -9.88793,9.8881 -37.45881,29.58767 -47.74836,34.11661 -7.22864,3.18171 -27.03375,18.4852 -35.9878,27.80795 -10.87867,11.32665 -9.19651,20.77887 6.94066,39.00062 l 11.22901,12.67949 9.17795,-8.6923 c 8.29572,-7.85661 13.15326,-10.64595 13.15326,-7.55295 0,0.62661 -4.41299,5.44593 -9.80667,10.70951 -8.40786,8.20516 -9.87399,10.72627 -10.27883,17.67572 -0.64365,11.04897 -0.63127,11.00016 -2.78558,11.00016 -1.04825,0 -1.90592,-4.2925 -1.90592,-9.53892 0,-8.79291 -0.84432,-10.54659 -10.79528,-22.42288 -6.18885,-7.3862 -13.66632,-14.09853 -17.52355,-15.73033 -10.52371,-4.45205 -12.32883,-0.55476 -10.91683,23.57027 3.25088,55.54332 4.2136,59.37766 17.17645,68.40781 6.79222,4.73159 8.99806,5.31741 15.49368,4.11476 4.1657,-0.77124 9.84626,-2.90982 12.62358,-4.75234 4.86318,-3.22631 5.09401,-3.20853 6.25057,0.48102 2.80717,8.95507 -8.23005,23.84737 -19.45584,26.25146 -5.40299,1.15707 -6.19425,2.10444 -6.19425,7.41613 v 6.08958 l -5.24128,-5.22842 c -2.88272,-2.87564 -8.02873,-7.78911 -11.43555,-10.91885 -3.40684,-3.12973 -6.19426,-7.494 -6.19426,-9.69837 0,-2.27611 -1.23531,-4.00794 -2.85888,-4.00794 -3.79241,0 -3.61905,1.80747 1.23414,12.86582 5.36544,12.22561 5.88008,33.57428 1.02876,42.67493 -3.9858,7.47693 -14.20222,17.78972 -17.62354,17.78972 -1.32369,0 -4.75979,-2.82225 -7.63572,-6.27167 z"
     id="path2474"
     sodipodi:nodetypes="csssssssssssssssssscccssssssssssssssssssssssssssssssssssssssssssssssssssssssssscccssssssssssssscccssssssc" />
  <ellipse
     style="fill:#ffffff;fill-opacity:1;fill-rule:evenodd;stroke:#eb4a5a;stroke-width:0;stroke-linecap:round;stroke-linejoin:round;stroke-miterlimit:40;stroke-dasharray:none;stroke-opacity:1"
     id="path3260"
     cx="241.36438"
     cy="144.63911"
     rx="2.9085543"
     ry="2.8592563" />
</svg>
