<?xml version="1.0" encoding="UTF-8" standalone="no"?>
<!-- Created with Inkscape (http://www.inkscape.org/) -->

<svg
   xmlns:dc="http://purl.org/dc/elements/1.1/"
   xmlns:cc="http://creativecommons.org/ns#"
   xmlns:rdf="http://www.w3.org/1999/02/22-rdf-syntax-ns#"
   xmlns:svg="http://www.w3.org/2000/svg"
   xmlns="http://www.w3.org/2000/svg"
   xmlns:xlink="http://www.w3.org/1999/xlink"
   xmlns:sodipodi="http://sodipodi.sourceforge.net/DTD/sodipodi-0.dtd"
   xmlns:inkscape="http://www.inkscape.org/namespaces/inkscape"
   id="svg2"
   version="1.1"
   inkscape:version="0.48.4 r9939"
   width="432"
   height="216"
   sodipodi:docname="Flag_of_Kisela_Voda_Municipality.svg">
  <metadata
     id="metadata8">
    <rdf:RDF>
      <cc:Work
         rdf:about="">
        <dc:format>image/svg+xml</dc:format>
        <dc:type
           rdf:resource="http://purl.org/dc/dcmitype/StillImage" />
        <dc:title />
      </cc:Work>
    </rdf:RDF>
  </metadata>
  <defs
     id="defs6">
    <clipPath
       clipPathUnits="userSpaceOnUse"
       id="clipPath2999">
      <path
         inkscape:connector-curvature="0"
         d="m 0,581.1 411,0 L 411,0 0,0 0,581.1 z"
         id="path3001" />
    </clipPath>
    <clipPath
       clipPathUnits="userSpaceOnUse"
       id="clipPath3153">
      <path
         inkscape:connector-curvature="0"
         d="m 0,581.1 411,0 L 411,0 0,0 0,581.1 z"
         id="path3155" />
    </clipPath>
    <clipPath
       clipPathUnits="userSpaceOnUse"
       id="clipPath3457">
      <path
         inkscape:connector-curvature="0"
         d="m 175.748,557.953 57.423,0 0,-71.137 -57.423,0 0,71.137"
         id="path3459" />
    </clipPath>
    <clipPath
       clipPathUnits="userSpaceOnUse"
       id="clipPath3481">
      <path
         inkscape:connector-curvature="0"
         d="m 0,581.1 411,0 L 411,0 0,0 0,581.1 z"
         id="path3483" />
    </clipPath>
    <clipPath
       clipPathUnits="userSpaceOnUse"
       id="clipPath3497">
      <path
         inkscape:connector-curvature="0"
         d="m 0,581.1 411,0 L 411,0 0,0 0,581.1 z"
         id="path3499" />
    </clipPath>
    <clipPath
       clipPathUnits="userSpaceOnUse"
       id="clipPath3513">
      <path
         inkscape:connector-curvature="0"
         d="m 0,581.1 411,0 L 411,0 0,0 0,581.1 z"
         id="path3515" />
    </clipPath>
    <clipPath
       clipPathUnits="userSpaceOnUse"
       id="clipPath3529">
      <path
         inkscape:connector-curvature="0"
         d="m 0,581.1 411,0 L 411,0 0,0 0,581.1 z"
         id="path3531" />
    </clipPath>
    <clipPath
       clipPathUnits="userSpaceOnUse"
       id="clipPath3541">
      <path
         inkscape:connector-curvature="0"
         d="m 0,227.48 411,0 0,-200.904 -411,0 0,200.904 z"
         id="path3543" />
    </clipPath>
    <clipPath
       clipPathUnits="userSpaceOnUse"
       id="clipPath3573">
      <path
         inkscape:connector-curvature="0"
         d="m 0,227.48 411,0 0,-200.904 -411,0 0,200.904 z"
         id="path3575" />
    </clipPath>
    <clipPath
       clipPathUnits="userSpaceOnUse"
       id="clipPath3589">
      <path
         inkscape:connector-curvature="0"
         d="m 0,227.48 411,0 0,-200.904 -411,0 0,200.904 z"
         id="path3591" />
    </clipPath>
    <clipPath
       clipPathUnits="userSpaceOnUse"
       id="clipPath3609">
      <path
         inkscape:connector-curvature="0"
         d="m 0,227.48 411,0 0,-200.904 -411,0 0,200.904 z"
         id="path3611" />
    </clipPath>
    <clipPath
       clipPathUnits="userSpaceOnUse"
       id="clipPath3641">
      <path
         inkscape:connector-curvature="0"
         d="m 0,227.48 411,0 0,-200.904 -411,0 0,200.904 z"
         id="path3643" />
    </clipPath>
    <clipPath
       clipPathUnits="userSpaceOnUse"
       id="clipPath3677">
      <path
         inkscape:connector-curvature="0"
         d="m 0,227.48 411,0 0,-200.904 -411,0 0,200.904 z"
         id="path3679" />
    </clipPath>
    <clipPath
       clipPathUnits="userSpaceOnUse"
       id="clipPath3701">
      <path
         inkscape:connector-curvature="0"
         d="m 0,227.48 411,0 0,-200.904 -411,0 0,200.904 z"
         id="path3703" />
    </clipPath>
    <clipPath
       clipPathUnits="userSpaceOnUse"
       id="clipPath3717">
      <path
         inkscape:connector-curvature="0"
         d="m 0,581.1 411,0 L 411,0 0,0 0,581.1 z"
         id="path3719" />
    </clipPath>
    <clipPath
       clipPathUnits="userSpaceOnUse"
       id="clipPath3731">
      <path
         inkscape:connector-curvature="0"
         d="m 0,581.1 411,0 L 411,0 0,0 0,581.1 z"
         id="path3733" />
    </clipPath>
    <radialGradient
       gradientTransform="matrix(1.353218,0,0,1.348928,-77.62935,-85.74693)"
       gradientUnits="userSpaceOnUse"
       xlink:href="#linearGradient2893"
       id="radialGradient3163"
       fy="226.33101"
       fx="221.44487"
       r="300"
       cy="226.33101"
       cx="221.44487" />
    <linearGradient
       id="linearGradient2893">
      <stop
         id="stop2895"
         offset="0"
         style="stop-color:#ffffff;stop-opacity:0.3137255" />
      <stop
         id="stop2897"
         offset="0.19"
         style="stop-color:#ffffff;stop-opacity:0.25098041" />
      <stop
         id="stop2901"
         offset="0.60000002"
         style="stop-color:#6b6b6b;stop-opacity:0.1254902" />
      <stop
         id="stop2899"
         offset="1"
         style="stop-color:#000000;stop-opacity:0.1254902" />
    </linearGradient>
  </defs>
  <sodipodi:namedview
     pagecolor="#ffffff"
     bordercolor="#666666"
     borderopacity="1"
     objecttolerance="10"
     gridtolerance="10"
     guidetolerance="10"
     inkscape:pageopacity="0"
     inkscape:pageshadow="2"
     inkscape:window-width="1366"
     inkscape:window-height="705"
     id="namedview4"
     showgrid="false"
     inkscape:zoom="1.7165069"
     inkscape:cx="238.56335"
     inkscape:cy="93.942046"
     inkscape:window-x="-8"
     inkscape:window-y="-8"
     inkscape:window-maximized="1"
     inkscape:current-layer="svg2">
    <sodipodi:guide
       position="0,0"
       orientation="0,432"
       id="guide2987" />
    <sodipodi:guide
       position="432,0"
       orientation="-216,0"
       id="guide2989" />
    <sodipodi:guide
       position="432,216"
       orientation="0,-432"
       id="guide2991" />
    <sodipodi:guide
       position="0,216"
       orientation="216,0"
       id="guide2993" />
  </sodipodi:namedview>
  <rect
     style="fill:#e4302b;fill-opacity:1;fill-rule:evenodd;stroke:#ffffff;stroke-width:0.10000000000000001;stroke-linejoin:miter;stroke-miterlimit:4;stroke-opacity:1;stroke-dasharray:none"
     id="rect2995"
     width="432"
     height="216"
     x="0"
     y="0" />
  <text
     xml:space="preserve"
     style="font-size:40px;font-style:normal;font-weight:normal;line-height:125%;letter-spacing:0px;word-spacing:0px;fill:#000000;fill-opacity:1;stroke:none;font-family:Sans"
     x="-319.89874"
     y="131.92406"
     id="text3575"
     sodipodi:linespacing="125%"><tspan
       sodipodi:role="line"
       id="tspan3577"
       x="-319.89874"
       y="131.92406"
       style="font-style:normal;font-variant:normal;font-weight:normal;font-stretch:normal;font-family:TITUS Cyberbit Basic;-inkscape-font-specification:TITUS Cyberbit Basic" /></text>
  <text
     xml:space="preserve"
     style="font-size:40px;font-style:normal;font-weight:normal;line-height:125%;letter-spacing:0px;word-spacing:0px;fill:#000000;fill-opacity:1;stroke:none;font-family:Sans"
     x="-530.43036"
     y="95.012657"
     id="text3579"
     sodipodi:linespacing="125%"><tspan
       sodipodi:role="line"
       id="tspan3581"
       x="-530.43036"
       y="95.012657"
       style="font-family:Maced;-inkscape-font-specification:Maced" /></text>
  <text
     xml:space="preserve"
     style="font-size:40px;font-style:normal;font-weight:normal;line-height:125%;letter-spacing:0px;word-spacing:0px;fill:#ffff00;fill-opacity:1;stroke:none;font-family:Sans"
     x="126.4557"
     y="43.746845"
     id="text3181"
     sodipodi:linespacing="125%"><tspan
       sodipodi:role="line"
       id="tspan3183"
       x="126.4557"
       y="43.746845"
       style="font-size:24px;font-style:normal;font-variant:normal;font-weight:normal;font-stretch:normal;fill:#ffff00;fill-opacity:1;font-family:Staroslovenska;-inkscape-font-specification:Staroslovenska" /></text>
  <path
     style="fill:#ffffff;fill-opacity:1"
     d="m 212.26317,191.17319 c -19.79603,-4.98319 -36.60279,-16.73973 -47.78483,-33.42635 -6.68345,-9.97342 -10.50236,-19.75832 -12.61187,-32.31504 -0.68691,-4.08855 -0.70051,-4.90229 -0.80318,-47.752611 l -0.10413,-43.593289 65.04304,0 65.04304,0 -0.10414,43.593289 c -0.10291,42.997371 -0.11393,43.651391 -0.8115,47.851301 -1.44918,8.72477 -3.78154,15.97693 -7.59433,23.61419 -9.69402,19.41735 -27.00762,34.0677 -48.09502,40.69706 -1.70695,0.53665 -4.1209,1.20564 -5.36426,1.4867 -1.24336,0.28119 -2.48011,0.56366 -2.74841,0.62804 -0.26817,0.064 -2.09689,-0.28823 -4.0638,-0.78329 z m 8.03548,-4.98894 c 8.16277,-2.20472 17.70673,-6.69247 23.8591,-11.21888 0.91294,-0.67155 2.52225,-1.85697 3.57621,-2.63435 4.4241,-3.26241 11.79766,-11.25753 15.58985,-16.9037 3.27986,-4.88335 8.06268,-14.14977 7.55928,-14.64521 -0.0931,-0.0921 -24.79029,-0.16766 -54.88114,-0.16766 -30.09096,0 -54.78742,0.0755 -54.88114,0.16766 -0.22799,0.22436 1.95049,5.17747 3.59152,8.16611 9.14262,16.64988 24.06528,29.38464 41.69899,35.58472 4.65492,1.63671 9.2182,2.78655 10.2408,2.58049 0.44704,-0.0896 2.08795,-0.50824 3.64653,-0.92918 z m -13.23705,-5.45214 c -0.35772,-0.0921 -1.45493,-0.50338 -2.43833,-0.91435 -0.98351,-0.41096 -2.34779,-0.83832 -3.03189,-0.94979 -1.00288,-0.16331 -1.32777,-0.40035 -1.67717,-1.2233 -0.56515,-1.33108 -0.27993,-2.69325 0.6955,-3.3223 1.01463,-0.65427 3.11164,-0.3855 5.43641,0.69702 2.20127,1.02479 3.12512,1.01187 5.37295,-0.0755 2.57321,-1.24429 5.94961,-1.23994 8.39211,0.0128 2.11098,1.08124 3.24188,1.09212 5.32995,0.0512 0.90192,-0.44988 2.3478,-0.90052 3.21284,-1.00125 1.38977,-0.1619 1.67081,-0.087 2.41298,0.64339 1.60966,1.58397 0.55008,4.37078 -1.6648,4.37833 -0.49984,0 -1.71343,0.38715 -2.69682,0.85649 -2.4795,1.18324 -5.28279,1.1812 -7.89301,-0.0128 -2.32685,-1.05781 -3.568,-1.0733 -5.80333,-0.0717 -1.76697,0.79148 -4.45646,1.23252 -5.64739,0.92637 z m -9.4599,-11.28952 c -2.20091,-0.33968 -3.66809,-0.83511 -6.38355,-2.15595 -1.60024,-0.77829 -2.97431,-1.17774 -4.71066,-1.36934 -1.99166,-0.21975 -2.60972,-0.42632 -3.2953,-1.10108 -1.14878,-1.1305 -1.16593,-3.01269 -0.0392,-4.2072 0.77709,-0.82333 0.90241,-0.84791 3.5696,-0.70265 2.77867,0.15141 3.02515,0.22667 8.9396,2.72998 1.59755,0.67616 2.45083,0.8241 4.71397,0.81669 2.88281,-0.0128 2.64734,0.0589 8.77778,-2.53697 1.76232,-0.7463 2.69131,-0.91678 5.59543,-1.02723 3.90087,-0.14821 6.25478,0.36912 9.99908,2.19729 4.02387,1.96473 8.12393,1.92173 12.26125,-0.12875 2.82338,-1.39942 5.63476,-2.13407 8.11523,-2.12076 2.51711,0.0128 3.69187,0.97744 3.69187,3.02934 0,1.95565 -1.11338,2.75659 -4.24231,3.05237 -1.47221,0.13912 -3.02699,0.60218 -5.03911,1.50078 -4.16757,1.8612 -5.04732,2.07609 -8.55199,2.08952 -3.67605,0.0141 -5.03935,-0.30551 -8.98775,-2.10769 -2.87925,-1.31418 -2.98302,-1.3353 -6.50214,-1.32877 -3.52194,0.0128 -3.61848,0.0269 -6.37264,1.33465 -1.538,0.73043 -3.36672,1.47493 -4.06368,1.65462 -1.8754,0.48315 -5.58808,0.67245 -7.47622,0.38115 z m -5.33706,-12.83625 c -2.88586,-0.30204 -4.86245,-0.91062 -7.96039,-2.4507 -3.37198,-1.67612 -4.58165,-2.03717 -7.72932,-2.30684 -2.33126,-0.19979 -2.99992,-0.38051 -3.65792,-0.98883 -1.67093,-1.54494 -1.60931,-4.03865 0.13757,-5.57104 0.58769,-0.5154 1.14462,-0.6105 3.30963,-0.56519 3.43851,0.0717 5.93553,0.73401 9.97495,2.64473 4.03366,1.90804 5.2339,2.20215 9.01863,2.20996 3.60623,0.0128 4.56059,-0.23806 9.26548,-2.38261 4.49799,-2.05037 6.5166,-2.49742 11.21611,-2.48476 4.37633,0.0128 6.64854,0.55445 11.043,2.63642 4.18447,1.9824 5.20316,2.23696 8.95088,2.23696 3.75116,0 4.73381,-0.24266 9.10304,-2.24848 5.18649,-2.38082 10.22009,-3.35212 12.50443,-2.41269 1.89131,0.77766 2.64268,3.07208 1.63416,4.99112 -0.69487,1.32276 -1.556,1.67114 -4.7811,1.93492 -2.49444,0.20388 -3.29284,0.44194 -6.66458,1.98726 -2.10707,0.96566 -4.34288,1.91316 -4.96867,2.10578 -2.1209,0.65248 -6.72682,0.98781 -9.41863,0.68576 -3.54669,-0.39817 -4.76799,-0.76179 -8.66334,-2.57883 -4.47447,-2.08721 -5.59716,-2.33013 -9.96626,-2.15645 -3.62974,0.14437 -3.67091,0.15499 -7.61465,1.96038 -5.60377,2.56525 -9.52595,3.29811 -14.73302,2.75313 z m -19.17649,-31.33451 0,-4.47931 -8.49024,0 -8.49011,0 0.21831,1.83969 c 0.12006,1.01187 0.42952,2.97148 0.68765,4.35477 0.25813,1.38303 0.46934,2.57089 0.46934,2.63948 0,0.0678 3.51116,0.12416 7.80247,0.12416 l 7.80258,0 0,-4.47931 z m 101.56595,3.59951 c 0.33323,-1.58474 1.16446,-6.946 1.16581,-7.51901 0,-0.51885 -0.61746,-0.55981 -8.4514,-0.55981 l -8.45275,0 0,4.47931 0,4.47929 7.77673,0 7.77662,0 0.18499,-0.87978 z m -77.18313,-8.56901 c 0,-5.51972 -0.24146,-6.52404 -1.89818,-7.89606 -2.84016,-2.35202 -6.97515,-1.75548 -8.89513,1.28346 -0.68557,1.08507 -0.75699,1.61686 -0.85708,6.38286 l -0.10904,5.19924 5.8799,0 5.8799,0 0,-4.9695 z m 24.37573,-4.70904 c -0.0122,-8.70481 -0.0661,-9.80716 -0.60435,-10.95828 -0.71019,-1.52228 -1.43521,-2.20446 -3.04746,-2.86743 -2.23299,-0.91819 -4.50496,-0.53448 -6.20455,1.04809 -1.83277,1.70658 -1.84023,1.75803 -1.84023,12.52177 l 0,9.93439 5.85184,0 5.85185,0 -0.0122,-9.67854 z m 24.38992,5.15636 c 0,-5.50872 -0.2999,-6.63833 -2.19967,-8.284 -2.33101,-2.01925 -5.21185,-2.04177 -7.60584,-0.0589 -1.65683,1.3719 -1.89818,2.37622 -1.89818,7.89594 l 0,4.96949 5.85185,0 5.85184,0 0,-4.52206 z m -73.14847,-7.32345 c 0,-2.52583 0.0331,-2.62989 2.05401,-6.47897 2.30921,-4.39753 3.12648,-5.11822 6.18214,-5.45048 0.92374,-0.10111 4.89799,-0.62317 8.8318,-1.16173 3.93382,-0.538447 7.18893,-0.979112 7.23365,-0.979112 0.0454,0 0.0808,-2.201512 0.0808,-4.892192 0,-6.685295 0.68545,-9.14739 3.46497,-12.447418 1.55123,-1.841738 3.99238,-3.761934 6.12566,-4.818854 1.91987,-0.950947 5.75715,-2.157868 6.86146,-2.157868 0.76361,0 0.77843,-0.05504 0.77843,-2.879589 l 0,-2.87959 -1.2354,0 c -0.67943,0 -1.41377,0.175599 -1.63172,0.390105 -0.31166,0.306786 -0.56856,0.207212 -1.20293,-0.465873 -0.95779,-1.016733 -0.98878,-1.443315 -0.17458,-2.403733 0.62077,-0.732472 1.64386,-0.981408 1.64386,-0.399961 0,0.175983 0.5851,0.31997 1.30044,0.31997 l 1.30033,0 0,-1.420917 c 0,-0.781491 -0.14627,-1.509996 -0.32501,-1.618658 -0.54861,-0.333663 -0.36276,-1.146383 0.40636,-1.777873 0.95461,-0.783667 1.19362,-0.767924 2.35698,0.155889 0.78358,0.622147 0.89544,0.854572 0.56895,1.18222 -0.22359,0.224234 -0.40637,1.0989 -0.40637,1.943489 0,1.494638 0.0269,1.53585 0.97971,1.53585 0.53881,0 1.27228,-0.179951 1.63002,-0.399705 0.57028,-0.350558 0.74817,-0.281701 1.44684,0.559816 0.43811,0.52782 0.80184,1.033115 0.80821,1.122835 0.0122,0.08959 -0.36116,0.559049 -0.8169,1.042841 -0.66499,0.705851 -0.9497,0.815664 -1.44159,0.556617 -0.33715,-0.177646 -1.06143,-0.322912 -1.60966,-0.322912 l -0.99663,0 0,2.843369 0,2.843112 1.53126,0.226027 c 6.50949,0.960673 12.80691,5.838274 14.87991,11.524884 0.44374,1.217289 0.62015,2.919137 0.73813,7.118917 0.0858,3.035478 0.24808,5.523557 0.3619,5.52893 0.11393,0.01284 4.18766,0.558792 9.05293,1.229704 7.49141,1.03312 9.01495,1.33376 9.94971,1.96409 0.81298,0.54831 1.60097,1.72054 2.99097,4.44949 1.7437,3.42314 1.8988,3.90605 2.03871,6.34471 l 0.15142,2.63962 8.57453,0 8.5744,0 -0.0122,-4.23933 -0.0122,-4.23933 -3.16494,-1.24659 c -1.74088,-0.68576 -6.60309,-2.64781 -10.80508,-4.36028 -4.20188,-1.71247 -11.29733,-4.593467 -15.76762,-6.402314 -4.47018,-1.808718 -8.2184,-3.374133 -8.32952,-3.478571 -0.11148,-0.104949 -0.29169,-1.089812 -0.40134,-2.18948 l -0.19945,-1.999804 19.33869,0 19.33882,0 0,-10.078371 c 0,-5.543135 -0.0551,-10.078498 -0.12398,-10.078498 -0.13073,0 -17.51512,7.029581 -31.30297,12.657702 -4.50019,1.836875 -8.3039,3.339703 -8.45275,3.339447 -0.14898,-1.27e-4 -0.6786,-0.714809 -1.17709,-1.588195 -0.49837,-0.873387 -1.04624,-1.673181 -1.21738,-1.777234 -0.17116,-0.10367 -0.45746,-0.458451 -0.63645,-0.787379 -0.28263,-0.519885 1.60293,-2.373783 14.38178,-14.140052 14.07955,-12.963975 25.64469,-23.643502 27.70985,-25.587504 l 0.96906,-0.912294 -13.66632,0 -13.66632,0 -5.30986,9.198585 c -2.92053,5.059216 -7.42403,12.869905 -10.00802,17.357272 -2.58388,4.487367 -4.90337,8.476095 -5.15428,8.863897 l -0.45623,0.705212 -2.52188,-1.160846 c -1.38695,-0.63853 -2.57408,-1.199115 -2.63802,-1.246087 -0.0637,-0.04735 1.80139,-7.560601 4.14514,-16.69724 2.34364,-9.136511 4.26118,-16.703896 4.26118,-16.816397 0,-0.112629 -6.87592,-0.204396 -15.27991,-0.204396 -8.40388,0 -15.27991,0.07808 -15.27991,0.172911 0,0.09471 1.90185,7.642642 4.22638,16.772241 2.32452,9.129728 4.22637,16.682651 4.22637,16.784529 0,0.102389 -0.18291,0.185197 -0.40637,0.185326 -0.33617,1.27e-4 -1.41267,0.48008 -4.87654,2.173482 -0.13414,0.06655 -0.24379,-0.032 -0.24379,-0.217579 0,-0.185197 -0.70787,-1.529066 -1.57304,-2.986202 -1.25108,-2.107314 -12.20085,-21.024625 -15.16218,-26.194804 -0.3619,-0.631875 -1.3791,-2.395669 -2.26045,-3.91936 l -1.60243,-2.770544 -13.46063,0 c -8.01282,0 -13.41689,0.119028 -13.35257,0.293092 0.06,0.161135 4.05853,3.922686 8.88619,8.359115 4.82791,4.4363 9.95033,9.163772 11.38322,10.505208 2.40868,2.255139 3.86313,3.597471 10.08018,9.303407 5.54986,5.093388 7.63022,7.016527 9.98279,9.22815 l 2.51184,2.361496 -0.92619,1.171469 c -0.76434,0.966945 -1.25316,1.747284 -2.20751,3.524262 -0.0343,0.06271 -2.44729,-0.854572 -5.36426,-2.037304 -21.35546,-8.658862 -34.42847,-13.913386 -34.61628,-13.913386 -0.06,0 -0.10903,4.535363 -0.10903,10.078498 l 0,10.078371 19.26237,-2.56e-4 19.26248,-2.56e-4 -0.16245,2.107697 -0.16257,2.107953 -2.92604,1.210377 c -2.88268,1.192715 -12.25953,5.003029 -23.08237,9.379694 -3.03974,1.22919 -6.98973,2.84183 -8.77778,3.58351 l -3.25106,1.34847 -0.0906,4.20926 -0.0906,4.20925 8.62463,0 8.62476,0 0,-2.56705 z"
     id="path3819"
     inkscape:connector-curvature="0" />
</svg>
