<?xml version="1.0" encoding="UTF-8" standalone="no"?>
<!-- Created with Inkscape (http://www.inkscape.org/) -->

<svg
   xmlns:dc="http://purl.org/dc/elements/1.1/"
   xmlns:cc="http://creativecommons.org/ns#"
   xmlns:rdf="http://www.w3.org/1999/02/22-rdf-syntax-ns#"
   xmlns:svg="http://www.w3.org/2000/svg"
   xmlns="http://www.w3.org/2000/svg"
   xmlns:sodipodi="http://sodipodi.sourceforge.net/DTD/sodipodi-0.dtd"
   xmlns:inkscape="http://www.inkscape.org/namespaces/inkscape"
   id="svg2"
   version="1.1"
   inkscape:version="0.48.2 r9819"
   width="482"
   height="920"
   sodipodi:docname="Map_of_Saraj_Municipality,_Macedonia.svg">
  <metadata
     id="metadata8">
    <rdf:RDF>
      <cc:Work
         rdf:about="">
        <dc:format>image/svg+xml</dc:format>
        <dc:type
           rdf:resource="http://purl.org/dc/dcmitype/StillImage" />
        <dc:title></dc:title>
      </cc:Work>
    </rdf:RDF>
  </metadata>
  <defs
     id="defs6">
    <inkscape:perspective
       sodipodi:type="inkscape:persp3d"
       inkscape:vp_x="0 : 526.18109 : 1"
       inkscape:vp_y="0 : 1000 : 0"
       inkscape:vp_z="744.09448 : 526.18109 : 1"
       inkscape:persp3d-origin="372.04724 : 350.78739 : 1"
       id="perspective2408" />
    <inkscape:perspective
       id="perspective2417"
       inkscape:persp3d-origin="372.04724 : 350.78739 : 1"
       inkscape:vp_z="744.09448 : 526.18109 : 1"
       inkscape:vp_y="0 : 1000 : 0"
       inkscape:vp_x="0 : 526.18109 : 1"
       sodipodi:type="inkscape:persp3d" />
    <inkscape:perspective
       sodipodi:type="inkscape:persp3d"
       inkscape:vp_x="0 : 526.18109 : 1"
       inkscape:vp_y="0 : 1000 : 0"
       inkscape:vp_z="744.09448 : 526.18109 : 1"
       inkscape:persp3d-origin="372.04724 : 350.78739 : 1"
       id="perspective5603" />
    <inkscape:perspective
       id="perspective5601"
       inkscape:persp3d-origin="372.04724 : 350.78739 : 1"
       inkscape:vp_z="744.09448 : 526.18109 : 1"
       inkscape:vp_y="0 : 1000 : 0"
       inkscape:vp_x="0 : 526.18109 : 1"
       sodipodi:type="inkscape:persp3d" />
    <inkscape:perspective
       id="perspective10"
       inkscape:persp3d-origin="372.04724 : 350.78739 : 1"
       inkscape:vp_z="744.09448 : 526.18109 : 1"
       inkscape:vp_y="0 : 1000 : 0"
       inkscape:vp_x="0 : 526.18109 : 1"
       sodipodi:type="inkscape:persp3d" />
  </defs>
  <sodipodi:namedview
     pagecolor="#ffffff"
     bordercolor="#666666"
     borderopacity="1"
     objecttolerance="10"
     gridtolerance="10"
     guidetolerance="10"
     inkscape:pageopacity="0"
     inkscape:pageshadow="2"
     inkscape:window-width="1366"
     inkscape:window-height="706"
     id="namedview4"
     showgrid="false"
     inkscape:zoom="0.25414997"
     inkscape:cx="502.8142"
     inkscape:cy="561.03479"
     inkscape:window-x="-8"
     inkscape:window-y="-8"
     inkscape:window-maximized="1"
     inkscape:current-layer="svg2">
    <sodipodi:guide
       position="0,0"
       orientation="0,482"
       id="guide4161" />
    <sodipodi:guide
       position="482,0"
       orientation="-920,0"
       id="guide4163" />
    <sodipodi:guide
       position="482,920"
       orientation="0,-482"
       id="guide4165" />
    <sodipodi:guide
       position="0,920"
       orientation="920,0"
       id="guide4167" />
  </sodipodi:namedview>
  <g
     id="g4139"
     transform="matrix(1.0032703,0,0,1.0008992,1108.3586,260.73133)">
    <rect
       y="-259.02243"
       x="-1103.1162"
       height="917.69879"
       width="478.79938"
       id="rect3990"
       style="fill:#dd211c;fill-opacity:1;stroke:none" />
    <path
       transform="matrix(0.94912824,0,0,0.98680032,-52.487355,51.135824)"
       d="m -692.38147,139.97707 c 0,85.55204 -71.98066,154.90568 -160.77332,154.90568 -88.79265,0 -160.77331,-69.35364 -160.77331,-154.90568 0,-85.552052 71.98066,-154.905689 160.77331,-154.905689 88.79266,0 160.77332,69.353637 160.77332,154.905689 z"
       sodipodi:ry="154.90569"
       sodipodi:rx="160.77332"
       sodipodi:cy="139.97707"
       sodipodi:cx="-853.15479"
       id="path3988"
       style="fill:#fbfaf7;fill-opacity:1;stroke:none"
       sodipodi:type="arc" />
    <path
       sodipodi:nodetypes="csscssssscssssssssssssssssssccssssssssssssssssssssssssssscssssssssssscsssssssscssssssssssssssccc"
       inkscape:connector-curvature="0"
       id="path4603"
       d="m -887.3938,311.75531 c -10.4552,-6.19518 -22.1082,-14.11707 -24.0915,-16.37772 -0.9191,-1.04769 -0.4967,-1.78691 2.8675,-5.01804 l 3.9454,-3.78936 -1.2802,-2.89858 c -0.7042,-1.59423 -1.3499,-4.92476 -1.435,-7.40117 -0.2696,-7.8478 0.8338,-27.68487 1.62,-29.12423 0.4157,-0.76103 1.0161,-5.74692 1.3343,-11.07973 0.3181,-5.33282 1.1209,-11.15068 1.784,-12.9286 0.6631,-1.77791 1.1079,-3.31334 0.9885,-3.41206 -0.1195,-0.0987 -3.2283,-1.60441 -6.9086,-3.34599 -7.8154,-3.69837 -14.224,-8.87623 -18.645,-15.06437 -3.2348,-4.52769 -6.7346,-12.87376 -6.7346,-16.06008 0,-1.87494 5.0255,-8.10021 16.0355,-19.86371 3.5507,-3.79374 6.4559,-7.36943 6.4559,-7.94597 0,-2.1669 -1.8294,-9.57491 -3.5398,-14.33462 -2.4792,-6.89902 -1.8107,-8.27647 6.4553,-13.302 8.7281,-5.30641 10.4127,-6.84601 10.4127,-9.51649 0,-1.26322 -1.269,-3.87221 -2.9841,-6.13547 -5.3371,-7.04245 -6.3769,-9.65936 -6.8308,-17.191532 -0.3032,-5.029604 -0.7517,-7.097749 -1.6066,-7.408116 -2.2926,-0.832242 -5.2064,1.610795 -7.4815,6.272814 -1.7429,3.57146 -3.087,5.117854 -5.7142,6.574364 -4.9625,2.75124 -6.2043,2.5399 -6.2043,-1.05589 0,-4.227644 -1.2423,-7.762282 -3.6986,-10.523928 -2.7237,-3.062067 -2.6887,-4.643115 0.1583,-7.155081 3.3401,-2.94713 4.8933,-3.524678 12.2869,-4.568887 3.6653,-0.517642 10.4127,-1.794844 14.9943,-2.83822 5.9465,-1.354222 10.7237,-1.897346 16.695,-1.898073 l 8.365,-0.0013 3.7137,3.602884 c 4.6552,4.516169 12.4094,8.549337 18.3173,9.856508 4.9499,1.09519 7.4104,1.699825 7.1818,3.489932 -0.057,0.448563 -0.8826,0.01022 -0.7831,1.30282 0.094,1.216634 -0.8724,2.578168 -0.667,4.786502 0.062,0.661369 0.3987,1.340148 0.3056,1.89078 -0.9443,5.586583 0.4413,7.598943 2.1294,7.929653 0.1675,0.0328 0.3975,-0.0282 0.4804,0.0975 0.5055,0.76593 0.7331,1.25874 0.8451,1.62307 0.2095,0.68147 -1.9516,-1.9419 -0.1684,1.77847 0.5067,1.05718 0.308,2.2635 1.0801,2.67712 1.3427,0.71928 3.3285,1.94398 8.0588,2.38818 5.2006,0.48836 5.1126,0.62427 10.8684,6.52885 3.767,3.86436 6.3426,7.45824 7.2676,9.89313 0.9866,2.59738 1.4198,3.54364 3.4573,4.84364 1.6272,1.03822 5.0984,3.81365 6.346,5.34679 1.2927,1.58841 1.6573,2.69966 3.0372,3.08052 0.6151,0.16978 1.4203,-0.30544 2.7896,-0.0291 2.5345,0.51137 3.0618,-0.0269 3.5133,1.36532 1.1526,3.55382 2.5695,5.13403 7.5611,3.75322 4.4307,-1.22564 6.0393,0.34032 6.7612,3.82045 0.4261,2.05469 0.1796,2.33768 -1.6964,3.14629 -2.0486,0.88301 -2.8967,1.79009 -2.6636,5.99125 0.2354,4.24265 1.0917,4.70695 4.295,6.96231 3.6297,2.55562 5.8936,7.50363 5.8936,12.08423 0,1.92114 1.2926,2.86314 2.5821,2.86314 1.4443,0 0.6717,-0.57799 -0.1385,1.1043 -0.5086,1.05592 -0.6279,2.67827 -0.353,3.35604 0.5627,1.38717 5.5068,2.01299 7.8572,0.82334 1.1028,-0.55825 2.4013,0.7267 5.0944,1.6599 3.3526,1.16168 3.1217,2.15878 4.4406,1.60005 3.1701,-1.34297 3.342,0.67244 4.8717,2.75604 1.8165,2.47429 2.1363,3.46907 5.1972,2.74078 1.5488,-0.36854 3.5094,-0.41287 5.5576,-2.34456 1.5975,-1.50662 2.6562,-0.10289 4.2744,-0.0524 0.8473,0.0265 0.6536,-0.37376 -0.3212,0.18921 -4.5296,2.61583 -1.6342,-1.29639 -0.6865,3.60292 0.035,0.18079 -0.341,0.20147 -0.534,0.30609 -0.4777,0.25908 -0.061,1.1028 -0.039,1.75845 0.088,2.63368 0.6394,4.85998 0.3478,5.03045 -1.7502,-1.13018 -1.5234,4.56548 -1.931,10.13927 -0.1365,1.86716 -0.5416,3.78009 -0.8139,5.60583 -0.1532,1.02727 0.6538,1.99505 1.175,2.94614 0.3158,0.57636 0.1815,1.26678 0.3029,1.85823 0.049,0.23653 -0.1823,0.44182 -0.2828,0.64619 -0.5241,1.06522 0.032,1.98218 0.049,2.77441 0.021,1.01169 0.3353,1.81998 0.5619,2.47388 0.2626,0.75821 -0.4495,1.3412 -0.8206,1.76497 -0.5918,0.6758 -1.4294,1.00358 -2.5009,1.3201 -1.0636,0.005 -3.7655,0.53421 -6.0042,1.17669 -2.2386,0.6425 -9.2844,1.49531 -15.6572,1.89516 -6.7587,0.42405 -12.0958,1.12642 -12.8079,1.68556 -0.6715,0.52722 -1.9408,2.49804 -2.8206,4.37963 -1.7538,3.75063 -4.7427,5.85957 -11.1808,7.88899 -4.4382,1.39899 -4.4395,1.40377 -2.5956,9.44646 0.53,2.31221 0.229,2.68956 -5.5122,6.90966 -3.3401,2.45515 -7.5931,4.85258 -9.4512,5.32764 -1.858,0.47505 -3.8065,0.97478 -4.3299,1.1105 -0.5234,0.13573 -1.4803,1.77967 -2.1265,3.6532 -1.074,3.11389 -1.7387,3.68648 -7.7399,6.66741 -3.6107,1.79353 -9.4711,3.99678 -13.0229,4.8961 -9.2861,2.35122 -19.5355,6.23946 -22.3474,8.47783 -1.3341,1.06192 -4.0966,4.66856 -6.1389,8.01473 -6.1286,10.04119 -5.2235,9.89857 -17.3229,2.72916 l 0,0 z"
       style="fill:#dd211c;fill-opacity:1;stroke:none" />
    <g
       transform="matrix(2.1424665,0,0,2.0867787,2260.2347,126.54076)"
       id="g4121">
      <path
         sodipodi:type="star"
         style="fill:#fecb00;fill-opacity:1;stroke:none"
         id="path3992"
         sodipodi:sides="5"
         sodipodi:cx="-524.11151"
         sodipodi:cy="134.80583"
         sodipodi:r1="17.137753"
         sodipodi:r2="6.4375648"
         sodipodi:arg1="1.088283"
         sodipodi:arg2="1.6839649"
         inkscape:flatsided="false"
         inkscape:rounded="0"
         inkscape:randomized="0"
         d="m -516.15947,149.98699 -8.67902,-8.78477 -11.25385,5.85769 5.67286,-10.96888 -9.04863,-8.89293 12.18503,2.00564 5.6615,-11.35382 1.85791,12.20843 12.54762,1.87588 -11.03679,5.53959 z"
         transform="matrix(0.57780083,-0.09359623,0.10055291,0.6207467,-1236.9328,-122.5904)" />
      <path
         sodipodi:type="star"
         style="fill:#fecb00;fill-opacity:1;stroke:none"
         id="path3992-1"
         sodipodi:sides="5"
         sodipodi:cx="-524.11151"
         sodipodi:cy="134.80583"
         sodipodi:r1="17.137753"
         sodipodi:r2="6.4375648"
         sodipodi:arg1="1.088283"
         sodipodi:arg2="1.6839649"
         inkscape:flatsided="false"
         inkscape:rounded="0"
         inkscape:randomized="0"
         d="m -516.15947,149.98699 -8.67902,-8.78477 -11.25385,5.85769 5.67286,-10.96888 -9.04863,-8.89293 12.18503,2.00564 5.6615,-11.35382 1.85791,12.20843 12.54762,1.87588 -11.03679,5.53959 z"
         transform="matrix(0.58286138,0.05372764,-0.05772102,0.62618339,-1202.8694,-70.323772)" />
      <path
         sodipodi:type="star"
         style="fill:#fecb00;fill-opacity:1;stroke:none"
         id="path3992-7"
         sodipodi:sides="5"
         sodipodi:cx="-524.11151"
         sodipodi:cy="134.80583"
         sodipodi:r1="17.137753"
         sodipodi:r2="6.4375648"
         sodipodi:arg1="1.088283"
         sodipodi:arg2="1.6839649"
         inkscape:flatsided="false"
         inkscape:rounded="0"
         inkscape:randomized="0"
         d="m -516.15947,149.98699 -8.67902,-8.78477 -11.25385,5.85769 5.67286,-10.96888 -9.04863,-8.89293 12.18503,2.00564 5.6615,-11.35382 1.85791,12.20843 12.54762,1.87588 -11.03679,5.53959 z"
         transform="matrix(0.46549911,-0.35485861,0.38123399,0.50009799,-1302.7654,-285.42688)" />
      <path
         sodipodi:type="star"
         style="fill:#fecb00;fill-opacity:1;stroke:none"
         id="path3992-4"
         sodipodi:sides="5"
         sodipodi:cx="-524.11151"
         sodipodi:cy="134.80583"
         sodipodi:r1="17.137753"
         sodipodi:r2="6.4375648"
         sodipodi:arg1="1.088283"
         sodipodi:arg2="1.6839649"
         inkscape:flatsided="false"
         inkscape:rounded="0"
         inkscape:randomized="0"
         d="m -516.15947,149.98699 -8.67902,-8.78477 -11.25385,5.85769 5.67286,-10.96888 -9.04863,-8.89293 12.18503,2.00564 5.6615,-11.35382 1.85791,12.20843 12.54762,1.87588 -11.03679,5.53959 z"
         transform="matrix(0.56348139,-0.15843854,0.17021471,0.60536295,-1198.0959,-206.45465)" />
      <path
         sodipodi:type="star"
         style="fill:#fecb00;fill-opacity:1;stroke:none"
         id="path3992-0"
         sodipodi:sides="5"
         sodipodi:cx="-524.11151"
         sodipodi:cy="134.80583"
         sodipodi:r1="17.137753"
         sodipodi:r2="6.4375648"
         sodipodi:arg1="1.088283"
         sodipodi:arg2="1.6839649"
         inkscape:flatsided="false"
         inkscape:rounded="0"
         inkscape:randomized="0"
         d="m -516.15947,149.98699 -8.67902,-8.78477 -11.25385,5.85769 5.67286,-10.96888 -9.04863,-8.89293 12.18503,2.00564 5.6615,-11.35382 1.85791,12.20843 12.54762,1.87588 -11.03679,5.53959 z"
         transform="matrix(0.58525944,-0.00924354,0.00993058,0.62875968,-1139.1092,-131.08596)" />
      <path
         sodipodi:type="star"
         style="fill:#fecb00;fill-opacity:1;stroke:none"
         id="path3992-9"
         sodipodi:sides="5"
         sodipodi:cx="-524.11151"
         sodipodi:cy="134.80583"
         sodipodi:r1="17.137753"
         sodipodi:r2="6.4375648"
         sodipodi:arg1="1.088283"
         sodipodi:arg2="1.6839649"
         inkscape:flatsided="false"
         inkscape:rounded="0"
         inkscape:randomized="0"
         d="m -516.15947,149.98699 -8.67902,-8.78477 -11.25385,5.85769 5.67286,-10.96888 -9.04863,-8.89293 12.18503,2.00564 5.6615,-11.35382 1.85791,12.20843 12.54762,1.87588 -11.03679,5.53959 z"
         transform="matrix(0.55614716,0.1825223,-0.19608852,0.59748359,-1101.2058,-16.366193)" />
      <path
         sodipodi:type="star"
         style="fill:#fecb00;fill-opacity:1;stroke:none"
         id="path3992-48"
         sodipodi:sides="5"
         sodipodi:cx="-524.11151"
         sodipodi:cy="134.80583"
         sodipodi:r1="17.137753"
         sodipodi:r2="6.4375648"
         sodipodi:arg1="1.088283"
         sodipodi:arg2="1.6839649"
         inkscape:flatsided="false"
         inkscape:rounded="0"
         inkscape:randomized="0"
         d="m -516.15947,149.98699 -8.67902,-8.78477 -11.25385,5.85769 5.67286,-10.96888 -9.04863,-8.89293 12.18503,2.00564 5.6615,-11.35382 1.85791,12.20843 12.54762,1.87588 -11.03679,5.53959 z"
         transform="matrix(0.55071491,-0.19831073,0.21305046,0.59164758,-1138.3044,-197.42374)" />
      <path
         sodipodi:type="star"
         style="fill:#fecb00;fill-opacity:1;stroke:none"
         id="path3992-8"
         sodipodi:sides="5"
         sodipodi:cx="-524.11151"
         sodipodi:cy="134.80583"
         sodipodi:r1="17.137753"
         sodipodi:r2="6.4375648"
         sodipodi:arg1="1.088283"
         sodipodi:arg2="1.6839649"
         inkscape:flatsided="false"
         inkscape:rounded="0"
         inkscape:randomized="0"
         d="m -516.15947,149.98699 -8.67902,-8.78477 -11.25385,5.85769 5.67286,-10.96888 -9.04863,-8.89293 12.18503,2.00564 5.6615,-11.35382 1.85791,12.20843 12.54762,1.87588 -11.03679,5.53959 z"
         transform="matrix(0.56197966,-0.1636854,0.17585156,0.6037496,-1116.6037,-157.03677)" />
      <path
         sodipodi:type="star"
         style="fill:#fecb00;fill-opacity:1;stroke:none"
         id="path3992-8-2"
         sodipodi:sides="5"
         sodipodi:cx="-524.11151"
         sodipodi:cy="134.80583"
         sodipodi:r1="17.137753"
         sodipodi:r2="6.4375648"
         sodipodi:arg1="1.088283"
         sodipodi:arg2="1.6839649"
         inkscape:flatsided="false"
         inkscape:rounded="0"
         inkscape:randomized="0"
         d="m -516.15947,149.98699 -8.67902,-8.78477 -11.25385,5.85769 5.67286,-10.96888 -9.04863,-8.89293 12.18503,2.00564 5.6615,-11.35382 1.85791,12.20843 12.54762,1.87588 -11.03679,5.53959 z"
         transform="matrix(0.58313072,0.05072086,-0.05449076,0.62647275,-1072.2806,-20.839423)" />
      <path
         sodipodi:type="star"
         style="fill:#fecb00;fill-opacity:1;stroke:none"
         id="path3992-8-4"
         sodipodi:sides="5"
         sodipodi:cx="-524.11151"
         sodipodi:cy="134.80583"
         sodipodi:r1="17.137753"
         sodipodi:r2="6.4375648"
         sodipodi:arg1="1.088283"
         sodipodi:arg2="1.6839649"
         inkscape:flatsided="false"
         inkscape:rounded="0"
         inkscape:randomized="0"
         d="m -516.15947,149.98699 -8.67902,-8.78477 -11.25385,5.85769 5.67286,-10.96888 -9.04863,-8.89293 12.18503,2.00564 5.6615,-11.35382 1.85791,12.20843 12.54762,1.87588 -11.03679,5.53959 z"
         transform="matrix(0.5144809,-0.27914773,0.29989579,0.55272042,-1163.234,-158.01197)" />
      <path
         sodipodi:type="star"
         style="fill:#fecb00;fill-opacity:1;stroke:none"
         id="path3992-8-5"
         sodipodi:sides="5"
         sodipodi:cx="-524.11151"
         sodipodi:cy="134.80583"
         sodipodi:r1="17.137753"
         sodipodi:r2="6.4375648"
         sodipodi:arg1="1.088283"
         sodipodi:arg2="1.6839649"
         inkscape:flatsided="false"
         inkscape:rounded="0"
         inkscape:randomized="0"
         d="m -516.15947,149.98699 -8.67902,-8.78477 -11.25385,5.85769 5.67286,-10.96888 -9.04863,-8.89293 12.18503,2.00564 5.6615,-11.35382 1.85791,12.20843 12.54762,1.87588 -11.03679,5.53959 z"
         transform="matrix(0.56197966,-0.1636854,0.17585156,0.6037496,-1137.6467,-83.293078)" />
      <path
         sodipodi:type="star"
         style="fill:#fecb00;fill-opacity:1;stroke:none"
         id="path3992-8-51"
         sodipodi:sides="5"
         sodipodi:cx="-524.11151"
         sodipodi:cy="134.80583"
         sodipodi:r1="17.137753"
         sodipodi:r2="6.4375648"
         sodipodi:arg1="1.088283"
         sodipodi:arg2="1.6839649"
         inkscape:flatsided="false"
         inkscape:rounded="0"
         inkscape:randomized="0"
         d="m -516.15947,149.98699 -8.67902,-8.78477 -11.25385,5.85769 5.67286,-10.96888 -9.04863,-8.89293 12.18503,2.00564 5.6615,-11.35382 1.85791,12.20843 12.54762,1.87588 -11.03679,5.53959 z"
         transform="matrix(0.58414065,0.03733288,-0.04010769,0.62755775,-1120.3004,31.993921)" />
      <path
         sodipodi:type="star"
         style="fill:#fecb00;fill-opacity:1;stroke:none"
         id="path3992-8-7"
         sodipodi:sides="5"
         sodipodi:cx="-524.11151"
         sodipodi:cy="134.80583"
         sodipodi:r1="17.137753"
         sodipodi:r2="6.4375648"
         sodipodi:arg1="1.088283"
         sodipodi:arg2="1.6839649"
         inkscape:flatsided="false"
         inkscape:rounded="0"
         inkscape:randomized="0"
         d="m -516.15947,149.98699 -8.67902,-8.78477 -11.25385,5.85769 5.67286,-10.96888 -9.04863,-8.89293 12.18503,2.00564 5.6615,-11.35382 1.85791,12.20843 12.54762,1.87588 -11.03679,5.53959 z"
         transform="matrix(0.53349896,-0.24081717,0.25871625,0.57315203,-1237.7577,-105.93352)" />
      <path
         sodipodi:type="star"
         style="fill:#fecb00;fill-opacity:1;stroke:none"
         id="path3992-8-1"
         sodipodi:sides="5"
         sodipodi:cx="-524.11151"
         sodipodi:cy="134.80583"
         sodipodi:r1="17.137753"
         sodipodi:r2="6.4375648"
         sodipodi:arg1="1.088283"
         sodipodi:arg2="1.6839649"
         inkscape:flatsided="false"
         inkscape:rounded="0"
         inkscape:randomized="0"
         d="m -516.15947,149.98699 -8.67902,-8.78477 -11.25385,5.85769 5.67286,-10.96888 -9.04863,-8.89293 12.18503,2.00564 5.6615,-11.35382 1.85791,12.20843 12.54762,1.87588 -11.03679,5.53959 z"
         transform="matrix(0.58325443,-0.04927795,0.05294061,0.62660565,-1208.0187,-26.689364)" />
      <path
         sodipodi:type="star"
         style="fill:#fecb00;fill-opacity:1;stroke:none"
         id="path3992-8-15"
         sodipodi:sides="5"
         sodipodi:cx="-524.11151"
         sodipodi:cy="134.80583"
         sodipodi:r1="17.137753"
         sodipodi:r2="6.4375648"
         sodipodi:arg1="1.088283"
         sodipodi:arg2="1.6839649"
         inkscape:flatsided="false"
         inkscape:rounded="0"
         inkscape:randomized="0"
         d="m -516.15947,149.98699 -8.67902,-8.78477 -11.25385,5.85769 5.67286,-10.96888 -9.04863,-8.89293 12.18503,2.00564 5.6615,-11.35382 1.85791,12.20843 12.54762,1.87588 -11.03679,5.53959 z"
         transform="matrix(0.57441534,0.1125214,-0.12088471,0.61710958,-1206.4198,37.411561)" />
      <path
         sodipodi:type="star"
         style="fill:#fecb00;fill-opacity:1;stroke:none"
         id="path3992-8-27"
         sodipodi:sides="5"
         sodipodi:cx="-524.11151"
         sodipodi:cy="134.80583"
         sodipodi:r1="17.137753"
         sodipodi:r2="6.4375648"
         sodipodi:arg1="1.088283"
         sodipodi:arg2="1.6839649"
         inkscape:flatsided="false"
         inkscape:rounded="0"
         inkscape:randomized="0"
         d="m -516.15947,149.98699 -8.67902,-8.78477 -11.25385,5.85769 5.67286,-10.96888 -9.04863,-8.89293 12.18503,2.00564 5.6615,-11.35382 1.85791,12.20843 12.54762,1.87588 -11.03679,5.53959 z"
         transform="matrix(0.56197966,-0.1636854,0.17585156,0.6037496,-1259.096,-129.19802)" />
    </g>
  </g>
</svg>
