<?xml version="1.0" encoding="UTF-8" standalone="no"?>
<!-- Created with Inkscape (http://www.inkscape.org/) -->

<svg
   xmlns:dc="http://purl.org/dc/elements/1.1/"
   xmlns:cc="http://creativecommons.org/ns#"
   xmlns:rdf="http://www.w3.org/1999/02/22-rdf-syntax-ns#"
   xmlns:svg="http://www.w3.org/2000/svg"
   xmlns="http://www.w3.org/2000/svg"
   xmlns:sodipodi="http://sodipodi.sourceforge.net/DTD/sodipodi-0.dtd"
   xmlns:inkscape="http://www.inkscape.org/namespaces/inkscape"
   version="1.1"
   width="600"
   height="300"
   id="svg2"
   inkscape:version="0.48.4 r9939"
   sodipodi:docname="Coat_of_arms_of_Šuto_Orizari_Municipality.svg">
  <sodipodi:namedview
     pagecolor="#ffffff"
     bordercolor="#666666"
     borderopacity="1"
     objecttolerance="10"
     gridtolerance="10"
     guidetolerance="10"
     inkscape:pageopacity="0"
     inkscape:pageshadow="2"
     inkscape:window-width="1366"
     inkscape:window-height="705"
     id="namedview7"
     showgrid="true"
     inkscape:zoom="0.65487074"
     inkscape:cx="404.56382"
     inkscape:cy="92.67096"
     inkscape:window-x="-8"
     inkscape:window-y="-8"
     inkscape:window-maximized="1"
     inkscape:current-layer="svg2"
     showguides="true"
     inkscape:guide-bbox="true">
    <sodipodi:guide
       position="0,0"
       orientation="0,600"
       id="guide3024" />
    <sodipodi:guide
       position="600,0"
       orientation="-300,0"
       id="guide3026" />
    <sodipodi:guide
       position="600,300"
       orientation="0,-600"
       id="guide3028" />
    <sodipodi:guide
       position="0,300"
       orientation="300,0"
       id="guide3030" />
    <inkscape:grid
       type="xygrid"
       id="grid3802"
       empspacing="5"
       visible="true"
       enabled="true"
       snapvisiblegridlinesonly="true" />
  </sodipodi:namedview>
  <metadata
     id="metadata86">
    <rdf:RDF>
      <cc:Work
         rdf:about="">
        <dc:format>image/svg+xml</dc:format>
        <dc:type
           rdf:resource="http://purl.org/dc/dcmitype/StillImage" />
        <dc:title></dc:title>
      </cc:Work>
    </rdf:RDF>
  </metadata>
  <defs
     id="defs4" />
  <g
     transform="matrix(1,0,0,0.94766246,-1488.9788,-520.8021)"
     id="g6366" />
  <rect
     style="fill:#ffffff;fill-opacity:1;stroke:none;stroke-width:12.67099953000000000;stroke-linejoin:round;stroke-miterlimit:4;stroke-opacity:1;stroke-dasharray:none"
     id="rect3032"
     width="600"
     height="300"
     x="0"
     y="0" />
  <g
     id="g2998"
     transform="matrix(0.62628938,0,0,0.64458164,218.56311,54.359854)">
    <path
       sodipodi:nodetypes="ccccccscc"
       inkscape:connector-curvature="0"
       style="fill:#0090ca;fill-opacity:1;stroke:none"
       id="path3866"
       d="m 13.46808,39.1223 c 19.763765,64.2473 -62.614557,159.80108 100.8996,234.45732 11.66129,2.41187 11.47386,5.53424 15.63232,10.88089 4.15846,-5.34665 3.97103,-8.46902 15.63233,-10.88089 C 319.4168,210.77592 224.82225,97.220173 246.53192,39.1223 L 220.21826,12.481384 C 199.95176,20.945161 167.1007,26.471103 130,26.471103 c -37.100703,0 -69.951747,-5.525942 -90.218261,-13.989719 z" />
    <path
       sodipodi:nodetypes="cssscsssscccssssssscc"
       inkscape:connector-curvature="0"
       id="path4092"
       d="m 126.54466,279.88806 c -2.70217,-2.94373 -5.93122,-5.4489 -10.48717,-6.58841 -6.06555,-1.51709 -29.403519,-13.74576 -43.451694,-23.00315 -13.080359,-8.61962 -27.766548,-22.23401 -34.491308,-30.25685 -0.714604,-0.85255 -1.346533,-1.72456 -2.040293,-2.60673 l 2.804263,-2.90895 c 1.29777,-1.34621 42.486034,-46.4114 94.460182,-85.52689 1.27856,-0.96223 2.76937,-1.71338 3.85484,-2.87518 54.32417,-58.143656 97.93561,-87.928413 98.10127,-88.227586 l 3.1126,-5.621227 3.01564,2.897935 4.25616,3.913392 -0.11641,3.778416 c -0.1783,5.787253 -3.68053,14.223232 -3.26124,23.725783 0.4037,9.149268 1.56361,13.08844 6.25277,43.699477 3.50352,22.87113 2.00969,26.98379 3.95188,40.90522 3.30749,23.70777 -5.78695,45.27966 -17.97272,62.02998 -18.31209,25.17145 -51.4639,48.37547 -94.68391,62.33462 -2.21242,0.71456 -3.59655,2.05375 -6.37039,3.57213 l -3.58585,4.04508 z"
       style="color:#000000;fill:#01aa57;fill-opacity:1;fill-rule:nonzero;stroke:none;stroke-width:2;marker:none;visibility:visible;display:inline;overflow:visible;enable-background:accumulate" />
    <path
       sodipodi:nodetypes="cssscccccssccsscccccc"
       inkscape:connector-curvature="0"
       id="path4315"
       d="M 25.337262,99.527142 C 27.267075,88.124158 35.082114,74.492292 45.693237,64.019909 77.011724,33.110994 134.13396,23.500196 180.27534,41.376483 c 26.75671,10.366201 47.04517,29.298219 54.33896,50.706001 0.86548,2.540165 1.78882,5.890263 2.05186,7.444658 l 0.47847,2.826118 -23.07961,0.26409 c 2.21148,-22.413142 -23.41234,-29.446267 -23.55395,-0.26409 l -20.1135,0 c -0.75011,-11.747259 0.12195,-22.626402 -2.66463,-31.051826 -3.28491,-9.932383 -19.17244,-12.727425 -23.43269,-0.909296 -2.46523,6.83869 -1.69264,16.638197 -1.95568,31.961122 l -13.98927,0 c -0.81418,-14.599983 0.50473,-24.452501 -2.59092,-31.689112 -4.90351,-11.457514 -16.95864,-10.932989 -22.77183,-2.166049 -4.711968,7.106179 -2.61128,19.73882 -2.46287,33.855161 l -23.024629,0 c 0.921036,-22.727034 -23.769436,-30.553312 -25.406513,0 l -27.23945,0 0.478472,-2.826118 z"
       style="color:#000000;fill:#fbfcff;fill-opacity:1;fill-rule:nonzero;stroke:#000100;stroke-width:0.49132374;stroke-miterlimit:4;stroke-opacity:1;stroke-dasharray:none;marker:none;visibility:visible;display:inline;overflow:visible;enable-background:accumulate" />
    <path
       style="opacity:0;color:#000000;fill:#000000;fill-opacity:1;fill-rule:nonzero;stroke:none;stroke-width:2;marker:none;visibility:visible;display:inline;overflow:visible;enable-background:accumulate"
       d="m 103.70821,175.71607 c -0.19855,0.21586 -0.88563,0.68467 -1.52691,1.04176 -2.597708,1.44651 -5.72085,3.6535 -6.134947,4.33532 -0.547717,0.90179 0.105269,1.92273 0.947108,1.48083 0.517915,-0.27187 0.613512,-0.1119 0.720476,1.20553 0.118317,1.45726 1.83722,6.20794 2.410733,6.66278 0.152,0.12056 1.25466,-0.0264 2.45034,-0.32652 2.72717,-0.68459 2.83998,-0.36104 0.19658,0.56379 -2.42282,0.84766 -3.511119,1.78062 -2.7662,2.37139 0.28798,0.2284 0.58444,2.27423 0.66738,4.60544 0.44784,12.58815 -3.043608,21.51591 -11.761199,30.07387 -4.202664,4.12607 -6.8981,6.06005 -12.227709,8.77482 -6.409513,3.26482 -13.044329,5.09062 -20.387073,5.61021 -9.442752,0.66816 -16.67852,-0.61822 -26.492723,-4.70995 -2.026762,-0.845 -4.253834,-1.58559 -4.949039,-1.64577 l -1.264018,-0.10942 1.624904,-1.54071 c 2.225178,-2.10985 6.81668,-5.9265 5.714345,-4.74992 -1.016471,1.08491 -1.098749,2.20649 -0.212401,2.89501 0.987602,0.76719 3.628015,1.31277 5.604541,1.15808 1.538266,-0.12038 1.941946,-0.29222 2.452023,-1.04381 0.86198,-1.27011 4.441952,-9.27284 6.014709,-13.44538 0.727696,-1.93061 1.6592,-3.95325 2.069992,-4.49476 0.410792,-0.54151 6.110545,-5.8543 12.66611,-11.80621 11.178284,-10.14895 12.053448,-10.88324 14.078648,-11.81232 1.187691,-0.54487 3.250826,-1.54432 4.584751,-2.22102 1.333917,-0.67669 2.690984,-1.2224 3.015684,-1.21269 0.770796,0.023 4.416528,-1.48394 5.734497,-2.37042 0.838267,-0.56382 0.926656,-0.72844 0.471922,-0.87888 -0.421715,-0.1395 -0.367796,-0.37306 0.219038,-0.94824 0.982852,-0.96335 1.379703,-2.57365 0.944854,-3.834 -0.362938,-1.05194 -0.800776,-1.22859 -2.081624,-0.8399 -0.655965,0.19906 -0.318038,-0.24736 1.674317,-2.21207 2.158236,-2.12904 2.533815,-2.39506 2.775155,-1.97053 0.430238,0.75672 4.383305,5.24765 4.59618,5.22151 0.103693,-0.0128 2.065448,-0.96751 4.359522,-2.12175 2.294054,-1.15421 4.008574,-1.92194 3.810054,-1.70607 z m -13.185483,12.53059 c -1.64323,-0.13874 -2.790762,0.15681 -7.826167,2.01568 -9.562205,3.52999 -17.322493,7.14952 -15.815733,7.37675 0.434562,0.0655 0.404494,0.16203 -0.123203,0.3954 -1.71731,0.75947 -1.537533,0.83025 1.507282,0.59349 1.778463,-0.13829 3.355813,-0.15449 3.505218,-0.036 0.149414,0.1185 4.123172,-0.0353 8.83058,-0.34185 6.269208,-0.4082 9.146867,-0.77133 10.756655,-1.35738 2.078475,-0.75667 2.951117,-1.53551 1.898342,-1.69427 -0.314255,-0.0474 -0.256088,-0.17318 0.170464,-0.36849 0.948814,-0.43435 2.08471,-2.21959 1.767381,-2.77774 -0.164287,-0.28899 -0.73968,-0.41563 -1.438788,-0.31665 l -1.165008,0.16492 0.898142,-0.54744 c 1.229363,-0.74933 1.230947,-1.14312 0.0086,-2.11251 -0.728086,-0.57743 -1.636318,-0.88096 -2.973806,-0.9939 z m 0.249831,12.63082 c -2.883728,-0.49717 -28.939917,0.64639 -28.19468,1.23742 0.491254,0.3896 21.895428,6.76695 25.563543,7.61664 1.26354,0.29267 2.749594,0.43574 3.30234,0.31792 1.333198,-0.28418 2.664604,-1.6531 3.309489,-3.40275 1.103295,-2.99342 -0.38413,-5.14915 -3.980692,-5.76923 l 0,0 z m -10.929964,9.54632 c -12.731941,-4.19329 -17.727298,-5.70745 -17.711064,-5.36849 0.02307,0.48179 19.498394,15.81672 21.014063,16.54658 1.8709,0.90088 3.152522,0.72744 4.857289,-0.65731 1.837816,-1.49283 2.62159,-3.47471 2.12649,-5.37713 -0.478869,-1.84011 -0.908074,-2.05472 -10.286798,-5.14363 l 0,0 z m -21.18601,-3.58434 c -0.04018,-0.005 2.236163,4.29755 5.058652,9.55981 5.607577,10.45479 7.659261,13.71482 9.028366,14.34565 2.257663,1.04024 5.594494,0.19126 6.962131,-1.77135 0.813555,-1.16748 0.999197,-3.34792 0.385805,-4.53135 -0.609982,-1.17683 -7.811757,-7.29583 -15.163317,-12.88352 -3.409167,-2.59123 -6.231415,-4.71487 -6.271637,-4.71924 l 0,0 z m -2.19287,3.45474 c -0.355131,0.34808 -0.176127,13.23601 0.244605,17.61074 0.462675,4.81082 1.369782,7.31481 2.955773,8.1591 3.372666,1.79542 6.609755,0.75958 7.735411,-2.47527 0.676826,-1.945 -1.352759,-6.79521 -7.760121,-18.54472 -2.681166,-4.91659 -2.809583,-5.10867 -3.175668,-4.74985 z m -7.146167,5.46097 c -4.986636,11.69248 -6.56524,16.49758 -6.153203,18.7296 0.296911,1.60834 2.103285,2.85872 4.411431,3.05362 1.038075,0.0877 2.243046,0.0429 2.677719,-0.0995 1.4868,-0.48692 2.513985,-1.87351 2.774615,-3.74539 0.386558,-2.77644 -0.624188,-23.56744 -1.129719,-23.23818 -0.244131,0.159 -1.40549,2.54393 -2.580843,5.29983 l 0,0 z"
       id="path3090"
       inkscape:connector-curvature="0" />
    <path
       sodipodi:nodetypes="cccc"
       style="fill:#ffe600"
       id="use3767-3"
       d="M 250.72068,171.9081 61.196891,182.49122 251.76767,155.2632 c -0.0257,4.15077 0.13209,9.48476 -1.04699,16.6449 z"
       inkscape:connector-curvature="0" />
    <path
       sodipodi:nodetypes="ccccc"
       style="fill:#ffe600"
       id="use3767-3-8-0"
       d="M 117.6816,27.687913 89.372467,146.19533 142.28465,26.714229 c -11.00209,0.251632 -16.38882,0.246301 -24.39611,-0.0068 z"
       inkscape:connector-curvature="0" />
    <path
       sodipodi:nodetypes="cccc"
       style="fill:#ffe600"
       id="use3767-3-8"
       d="M 66.419178,21.251132 68.056184,191.08258 89.823192,25.116779 C 81.843447,24.153033 73.782835,22.806658 66.419178,21.251132 z"
       inkscape:connector-curvature="0" />
    <path
       sodipodi:nodetypes="ccccc"
       style="fill:#ffe600"
       id="use3767"
       d="M 240.67542,34.180165 36.330506,217.08614 36.259205,216.99305 224.52899,18.119416 z"
       inkscape:connector-curvature="0" />
    <path
       inkscape:connector-curvature="0"
       id="path3843"
       d="m 45.748634,157.1064 c 0.104101,9.5e-4 0.295025,0.0528 0.424276,0.11466 0.129242,0.0619 3.392974,2.1341 7.252733,4.6051 4.765389,3.05075 7.111433,4.58547 7.309628,4.78175 1.599679,1.58423 1.374428,4.24236 -0.468157,5.52464 -0.194077,0.13506 -0.454116,0.25279 -0.793161,0.35912 -0.904609,0.28369 -1.798222,0.16736 -2.630827,-0.34245 -0.366989,-0.22471 -0.734218,-0.61093 -4.284088,-4.50568 -2.135486,-2.34296 -4.774543,-5.23512 -5.864584,-6.42702 -1.891723,-2.06852 -1.986048,-2.1814 -2.073322,-2.48098 -0.249403,-0.85537 0.293163,-1.63911 1.127502,-1.62914 l 0,0 z"
       style="color:#000000;fill:#fe0000;fill-opacity:1;fill-rule:nonzero;stroke:none;stroke-width:2;marker:none;visibility:visible;display:inline;overflow:visible;enable-background:accumulate" />
    <path
       sodipodi:nodetypes="ccccc"
       style="fill:#ffe600"
       id="use3767-3-8-0-0"
       d="M 247.37218,119.43531 111.72069,163.68616 245.767,95.742623 c 0.61326,2.617796 1.53502,7.024097 5.08348,22.705397 z"
       inkscape:connector-curvature="0" />
    <path
       transform="matrix(0.71539506,0,0,0.68286198,200.07665,38.441055)"
       d="m -119.6656,206.64021 c 0,29.91119 -25.63339,54.159 -57.25379,54.159 -31.62039,0 -57.25379,-24.24781 -57.25379,-54.159 0,-29.91118 25.6334,-54.15899 57.25379,-54.15899 31.6204,0 57.25379,24.24781 57.25379,54.15899 z"
       sodipodi:ry="54.158993"
       sodipodi:rx="57.253792"
       sodipodi:cy="206.64021"
       sodipodi:cx="-176.91939"
       id="path3793"
       style="fill:#ff0000;fill-opacity:0;fill-rule:evenodd;stroke:#fe0000;stroke-width:17.89999962;stroke-linecap:square;stroke-linejoin:miter;stroke-miterlimit:4;stroke-opacity:1;stroke-dasharray:none;stroke-dashoffset:0"
       sodipodi:type="arc" />
    <path
       transform="matrix(0.80764249,0,0,0.85526947,256.29283,17.069416)"
       d="m -217.66758,190.13461 c 0,4.27303 -4.15677,7.737 -9.2844,7.737 -5.12763,0 -9.2844,-3.46397 -9.2844,-7.737 0,-4.27302 4.15677,-7.737 9.2844,-7.737 5.12763,0 9.2844,3.46398 9.2844,7.737 z"
       sodipodi:ry="7.736999"
       sodipodi:rx="9.284399"
       sodipodi:cy="190.13461"
       sodipodi:cx="-226.95198"
       id="path3795"
       style="fill:#ff0000;fill-opacity:0;fill-rule:evenodd;stroke:#fe0000;stroke-width:17.89999962;stroke-linecap:square;stroke-linejoin:miter;stroke-miterlimit:4;stroke-opacity:1;stroke-dasharray:none;stroke-dashoffset:0"
       sodipodi:type="arc" />
    <path
       inkscape:connector-curvature="0"
       id="path3843-1"
       d="m 36.618172,178.99465 c 0.08178,-0.061 0.264874,-0.13399 0.406529,-0.16245 0.141637,-0.0285 4.055501,-0.35014 8.697552,-0.71471 5.731216,-0.45012 8.574426,-0.64616 8.858656,-0.61077 2.294083,0.28556 3.875249,2.49146 3.286276,4.58473 -0.06204,0.22047 -0.186941,0.4666 -0.380979,0.75073 -0.517716,0.75807 -1.291239,1.19776 -2.277252,1.2945 -0.434606,0.0426 -0.97614,-0.0405 -6.317569,-0.96976 -3.213228,-0.55903 -7.182,-1.24731 -8.819497,-1.52951 -2.841824,-0.48977 -2.989956,-0.52177 -3.255989,-0.70352 -0.759742,-0.5188 -0.854745,-1.4518 -0.197723,-1.93924 l 0,0 z"
       style="color:#000000;fill:#fe0000;fill-opacity:1;fill-rule:nonzero;stroke:none;stroke-width:2;marker:none;visibility:visible;display:inline;overflow:visible;enable-background:accumulate" />
    <path
       inkscape:connector-curvature="0"
       id="path3843-11"
       d="m 71.729356,213.35492 c -0.06758,-0.0751 -0.151699,-0.24554 -0.187325,-0.37853 -0.0356,-0.133 -0.529265,-3.82645 -1.096878,-8.20774 -0.70082,-5.40923 -1.019728,-8.0938 -0.993639,-8.36436 0.210551,-2.18359 2.47406,-3.76788 4.704449,-3.29279 0.235122,0.0493 0.49937,0.15859 0.806527,0.33131 0.819754,0.46031 1.313901,1.17543 1.454818,2.10528 0.06212,0.40985 -0.0041,0.92592 -0.773176,6.02053 -0.46262,3.06476 -1.031708,6.85005 -1.264635,8.41177 -0.404246,2.71033 -0.432148,2.85185 -0.613291,3.11093 -0.517032,0.73992 -1.497053,0.86668 -2.036937,0.26378 l 0,0 z"
       style="color:#000000;fill:#fe0000;fill-opacity:1;fill-rule:nonzero;stroke:none;stroke-width:2;marker:none;visibility:visible;display:inline;overflow:visible;enable-background:accumulate" />
    <path
       inkscape:connector-curvature="0"
       id="path3843-1-9"
       d="m 98.666177,203.87024 c -0.104051,0.002 -0.296677,-0.0438 -0.427943,-0.10179 -0.131271,-0.0579 -3.46324,-2.0302 -7.404404,-4.38296 -4.865895,-2.90479 -7.262527,-4.36763 -7.467242,-4.5578 -1.652321,-1.53494 -1.516878,-4.19853 0.281497,-5.536 0.189416,-0.14087 0.445351,-0.26642 0.780641,-0.38299 0.894588,-0.31089 1.791644,-0.2218 2.641029,0.26257 0.37439,0.21349 0.754468,0.58835 4.433936,4.37356 2.213452,2.27704 4.948754,5.08776 6.078463,6.246 1.960545,2.01015 2.058639,2.1201 2.155967,2.41688 0.278169,0.84737 -0.237701,1.64715 -1.071946,1.66249 l 0,0 z"
       style="color:#000000;fill:#fe0000;fill-opacity:1;fill-rule:nonzero;stroke:none;stroke-width:2;marker:none;visibility:visible;display:inline;overflow:visible;enable-background:accumulate" />
    <path
       inkscape:connector-curvature="0"
       id="path4112"
       d="m 126.81442,282.08062 c -3.18659,-4.2821 -4.90844,-5.44027 -10.02889,-6.74577 C 107.08806,272.86238 76.506669,255.51434 60.859418,243.6094 23.218345,214.97081 7.03995,181.89822 8.8405519,137.27013 9.2418105,127.32489 10.160946,118.40234 13.981188,87.367146 15.606556,74.162849 15.604195,52.86902 13.976597,45.95424 13.29984,43.079068 12.587884,40.335855 12.394471,39.858211 12.118023,39.175502 25.544981,24.908587 37.822357,12.839621 l 1.512457,-1.486783 10.253048,3.3113 c 41.294576,13.3364 109.313358,14.22229 154.270118,2.009245 4.08732,-1.11037 9.47049,-2.80401 11.9626,-3.763643 l 4.53109,-1.744788 5.30454,5.313129 c 2.9175,2.922221 9.07244,9.126367 13.67767,13.786992 l 8.37312,8.473864 -1.4132,5.886394 c -3.11394,12.970524 -2.65801,22.830401 2.6713,57.769709 4.6652,30.58538 5.22482,36.83642 4.78355,53.43358 -0.50305,18.92141 -2.82705,30.07315 -9.03003,43.33064 -5.96072,12.73972 -13.04359,22.3446 -24.30814,32.96364 -12.1616,11.46467 -24.90148,20.08606 -42.83629,28.98838 -10.18561,5.05582 -27.00121,12.06749 -32.96661,13.74619 -6.61448,1.86137 -7.92808,2.80624 -13.52388,9.72773 l -1.25253,1.54926 -3.01675,-4.05384 z m 14.97693,-8.69076 c 11.5761,-3.38835 32.389,-12.53244 45.95213,-20.18893 17.4406,-9.84536 35.87134,-25.4361 44.73877,-37.84496 14.40069,-20.15195 20.04415,-40.54738 19.09805,-69.02015 -0.45899,-13.81296 -0.91334,-17.6951 -5.72323,-48.901227 -4.64144,-30.113312 -4.88126,-40.128864 -1.35629,-56.643446 0.37468,-1.755373 -3.36369,-5.943417 -18.70252,-20.952186 l -6.0084,-5.879117 -6.98572,2.354225 C 192.28219,23.230085 168.93967,26.590959 137.2691,27.18966 98.463839,27.923237 66.280952,23.62852 41.057536,14.350494 40.269655,14.060685 36.34741,17.604641 27.412134,26.679836 l -12.539696,12.736059 1.146911,4.877817 c 1.568002,6.668721 2.127948,24.599893 1.098657,35.182294 -0.457988,4.708681 -1.761175,16.099848 -2.895973,25.313704 -4.122668,33.47352 -4.094123,50.92236 0.112367,68.6851 8.074318,34.09541 31.639919,61.26664 74.144335,85.48868 10.866598,6.19256 25.504525,13.23695 31.596135,15.2054 2.63136,0.85031 4.52644,2.09888 6.71751,4.42586 l 3.0521,3.24141 3.69359,-3.55583 c 2.96328,-2.85276 4.59515,-3.81971 8.25328,-4.89047 z"
       style="color:#000000;fill:#000000;fill-opacity:1;fill-rule:nonzero;stroke:none;stroke-width:2;marker:none;visibility:visible;display:inline;overflow:visible;enable-background:accumulate" />
  </g>
</svg>
