<?xml version="1.0" encoding="utf-8"?>
<svg xmlns="http://www.w3.org/2000/svg" width="900" height="600">
  <path fill="#fff" d="M0 0h900v600H0z"/>
  <path fill="#bf0a30" d="M0 300h900v300H0z"/>
  <path fill="#002868" d="M0 600h285l95-300L285 0H0Z"/>
  <ellipse fill="#f3e529" transform="matrix(2.7784 0 0 2.2367 -19.3738 39.1056)" cx="60.4209" cy="116.6445" rx="40.4908" ry="40.2385"/>
  <g fill="#002868">
    <path d="M124.1292 252.2192c3.9157 3.355 6.9923 8.1079 6.9923 10.3445 0 2.5163 3.0766 4.4734 6.9923 5.0325 3.9157.5592 9.7892 2.2367 13.4252 3.9142 4.7547 2.5162 6.9923 2.5162 9.5095 0 1.9578-1.957 6.9922-3.355 11.4673-3.355 7.5517 0 8.111.8387 6.9923 8.1079-.839 6.1508.5594 9.2262 6.7126 14.2587 4.1953 3.355 7.8313 8.108 7.8313 10.3446 0 3.0754-1.6781 2.2366-5.3141-2.2367-4.7548-5.8712-5.0344-5.8712-4.7548-1.1183.2797 3.0754 2.2376 8.9466 4.4751 13.1404 2.797 6.1508 3.0766 8.3875 0 12.022-3.636 4.4734-18.18 6.1509-15.6627 1.6775.839-1.3979-3.636-2.2366-10.3486-1.6775-7.272.2796-14.8236-1.1183-20.1378-4.1937-4.475-2.7958-13.1454-5.8712-19.019-6.71-5.8735-1.1183-11.4673-3.9142-12.3064-6.1508-.839-1.957-3.0766-3.9142-5.314-3.9142-2.2376 0-11.1877-5.5916-19.8582-12.3016-8.6704-6.9896-17.0611-11.7425-18.1799-10.9037-3.0766 1.6775-3.636 1.3979 14.8236 14.8178 8.111 6.1509 16.2221 11.1834 18.18 11.1834 1.9578 0 5.3141 2.2366 7.272 4.7529 4.7547 6.4304 26.291 15.9362 44.1911 19.5708 3.9157.8387 16.7815 6.4304 28.8082 12.3016 12.0268 5.8712 22.9347 10.9037 23.7738 10.9037 1.1188 0 2.2375-9.7854 2.5172-21.5278.5594-17.3342-.2797-23.2054-4.7547-30.4746-3.0766-4.7529-7.5517-9.5058-9.5095-10.3445-2.5173-1.1183-3.3563-3.9142-2.5173-7.2692 2.5173-9.7854-1.3984-19.5708-8.6704-21.5279-3.636-.8387-11.1876.5592-16.7815 2.7959l-10.3485 4.4733-15.1034-11.1833c-15.9424-11.7425-27.13-15.377-15.383-4.753z"/>
  </g>
  <path id="star" fill="#f3e529" transform="translate(40.8607 46.811) scale(.7176)" d="m149.999 108.6106 7.9112 24.3453 25.5986.001-20.7091 15.0472 7.9094 24.346-20.7102-15.0457-20.7102 15.0457 7.9095-24.346-20.7091-15.0472 25.5985-.001z"/>
  <path fill="#f3e529" transform="matrix(0.7175999879837036, 0, 0, 0.7175999879837036, 40.86069869995117, 346.8110008239746)" d="m149.999 108.6106 7.9112 24.3453 25.5986.001-20.7091 15.0472 7.9094 24.346-20.7102-15.0457-20.7102 15.0457 7.9095-24.346-20.7091-15.0472 25.5985-.001z"/>
  <path fill="#f3e529" transform="matrix(0.7175999879837036, 0, 0, 0.7175999879837036, 214.61069869995117, 196.8110008239746)" d="m149.999 108.6106 7.9112 24.3453 25.5986.001-20.7091 15.0472 7.9094 24.346-20.7102-15.0457-20.7102 15.0457 7.9095-24.346-20.7091-15.0472 25.5985-.001z"/>
</svg>