<?xml version="1.0" encoding="UTF-8" standalone="no"?>
<svg
   xmlns:dc="http://purl.org/dc/elements/1.1/"
   xmlns:cc="http://creativecommons.org/ns#"
   xmlns:rdf="http://www.w3.org/1999/02/22-rdf-syntax-ns#"
   xmlns:svg="http://www.w3.org/2000/svg"
   xmlns="http://www.w3.org/2000/svg"
   xmlns:sodipodi="http://sodipodi.sourceforge.net/DTD/sodipodi-0.dtd"
   xmlns:inkscape="http://www.inkscape.org/namespaces/inkscape"
   width="1037.4"
   height="691.59998"
   viewBox="-1 -1 524.08911 349.00927"
   id="svg2"
   version="1.1"
   inkscape:version="0.48.5 r10040"
   sodipodi:docname="Bandiera Calabria.svg">
  <metadata
     id="metadata64">
    <rdf:RDF>
      <cc:Work
         rdf:about="">
        <dc:format>image/svg+xml</dc:format>
        <dc:type
           rdf:resource="http://purl.org/dc/dcmitype/StillImage" />
      </cc:Work>
    </rdf:RDF>
  </metadata>
  <defs
     id="defs62" />
  <sodipodi:namedview
     pagecolor="#ffffff"
     bordercolor="#666666"
     borderopacity="1"
     objecttolerance="10"
     gridtolerance="10"
     guidetolerance="10"
     inkscape:pageopacity="0"
     inkscape:pageshadow="2"
     inkscape:window-width="1920"
     inkscape:window-height="1001"
     id="namedview60"
     showgrid="false"
     inkscape:zoom="0.35355339"
     inkscape:cx="525.33681"
     inkscape:cy="382.79737"
     inkscape:window-x="-9"
     inkscape:window-y="-9"
     inkscape:window-maximized="1"
     inkscape:current-layer="svg2" />
  <g
     style="font-size:72.7480545px;font-style:normal;font-variant:normal;font-weight:normal;font-stretch:normal;text-indent:0;text-align:start;text-decoration:none;line-height:125%;letter-spacing:0px;word-spacing:0px;text-transform:none;direction:ltr;block-progression:tb;writing-mode:lr-tb;text-anchor:start;baseline-shift:baseline;color:#000000;fill:#000000;fill-opacity:1;fill-rule:nonzero;stroke:none;stroke-width:1px;marker:none;visibility:visible;display:inline;overflow:visible;enable-background:accumulate;font-family:Garamond;-inkscape-font-specification:Garamond"
     id="text3010-1"
     transform="translate(-418.3013,585.31871)">
    <rect
       style="fill:#0a4fa2;fill-opacity:1;fill-rule:evenodd;stroke:none"
       id="rect4108"
       width="524.08911"
       height="349.39273"
       x="417.3013"
       y="-586.49976" />
    <g
       style="font-size:72.7480545px;font-style:normal;font-variant:normal;font-weight:normal;font-stretch:normal;text-indent:0;text-align:start;text-decoration:none;line-height:125%;letter-spacing:0px;word-spacing:0px;text-transform:none;direction:ltr;block-progression:tb;writing-mode:lr-tb;text-anchor:start;baseline-shift:baseline;color:#000000;fill:#000000;fill-opacity:1;fill-rule:nonzero;stroke:none;stroke-width:1px;marker:none;visibility:visible;display:inline;overflow:visible;enable-background:accumulate;font-family:Garamond;-inkscape-font-specification:Garamond"
       id="g3301"
       transform="matrix(0.49588149,0,0,0.49575714,320.63821,-208.15134)">
      <path
         inkscape:connector-curvature="0"
         id="ellipse4-8"
         d="m 875.17217,-412.30161 c 0,92.00819 -67.96249,166.59558 -151.79845,166.59558 -83.83593,0 -151.79839,-74.58739 -151.79839,-166.59558 0,-92.00817 67.96246,-166.59555 151.79839,-166.59555 83.83596,0 151.79845,74.58738 151.79845,166.59555 z"
         style="fill:#d5d6d8;fill-opacity:1" />
      <path
         sodipodi:nodetypes="ccccc"
         inkscape:connector-curvature="0"
         id="path4218-8"
         d="m 715.79403,-566.65123 4.44488,-12.21217 c 2.04662,-0.13047 4.16718,-0.0391 6.27031,0 l 4.44488,12.21217 z"
         style="fill:#0a4fa2;fill-opacity:1;stroke:none" />
      <path
         sodipodi:nodetypes="sccsccs"
         inkscape:connector-curvature="0"
         id="ellipse4-5-2"
         d="m 723.38775,-256.16609 c 41.64231,0 79.10112,-19.6797 105.09681,-51.03793 l -210.22165,-210.2008 c 26.00328,-31.34016 63.47253,-51.03226 105.12797,-51.03226 41.64605,0 79.10789,19.68326 105.09035,51.05053 l -210.19762,210.18648 c 25.99733,31.35128 63.4587,51.03398 105.10414,51.03398 z"
         style="fill:#deb308;fill-opacity:1;stroke:none" />
      <path
         sodipodi:nodetypes="cccccccccccccccc"
         inkscape:connector-curvature="0"
         id="polygon8-4"
         d="m 744.93384,-443.37099 0,3.92268 -43.24558,0 0,-3.92268 18.70965,0 0,-55.65074 -16.67763,-4.38347 9.29756,-25.64652 -8.61056,1.05978 18.90377,-50.91865 18.90387,50.91865 -8.61066,-1.05978 9.29736,25.64652 -16.67733,4.38347 0,55.65074 z"
         style="fill:#32b457;fill-opacity:1" />
      <path
         inkscape:connector-curvature="0"
         id="polyline10-5"
         d="m 740.86525,-491.81899 -17.5542,6.01199 -17.5542,-6.01199"
         style="fill:none;stroke:#32b457;stroke-width:3.05672693;stroke-miterlimit:4;stroke-opacity:1;stroke-dasharray:none" />
      <path
         inkscape:connector-curvature="0"
         id="polyline12-5"
         d="m 740.86525,-496.47271 -17.5542,6.01199 -17.5542,-6.01199"
         style="fill:none;stroke:#32b457;stroke-width:3.05672693;stroke-miterlimit:4;stroke-opacity:1;stroke-dasharray:none" />
      <path
         id="polygon28-7"
         d="m 650.92993,-449.94297 -8.75368,41.87386 8.75368,42.91967 -20.8848,0 8.80125,-42.91967 -8.80125,-41.87386 z"
         inkscape:connector-curvature="0" />
      <path
         id="circle30-4-1"
         d="m 632.21344,-453.1057 c 0,1.87905 -1.52327,3.40234 -3.40233,3.40234 -1.87906,0 -3.40233,-1.52329 -3.40233,-3.40234 0,-1.87905 1.52327,-3.40234 3.40233,-3.40234 1.87906,0 3.40233,1.52329 3.40233,3.40234 z"
         inkscape:connector-curvature="0" />
      <path
         id="circle32-0-7"
         d="m 655.88989,-453.1057 c 0,1.87905 -1.52329,3.40234 -3.40234,3.40234 -1.87905,0 -3.40236,-1.52329 -3.40236,-3.40234 0,-1.87905 1.52331,-3.40234 3.40236,-3.40234 1.87905,0 3.40234,1.52329 3.40234,3.40234 z"
         inkscape:connector-curvature="0" />
      <path
         id="circle34-9"
         d="m 632.21344,-361.94301 c 0,1.87907 -1.52327,3.40234 -3.40233,3.40234 -1.87906,0 -3.40233,-1.52327 -3.40233,-3.40234 0,-1.87905 1.52327,-3.40232 3.40233,-3.40232 1.87906,0 3.40233,1.52327 3.40233,3.40232 z"
         inkscape:connector-curvature="0" />
      <path
         id="circle36-4"
         d="m 655.88989,-361.94301 c 0,1.87907 -1.52329,3.40234 -3.40234,3.40234 -1.87905,0 -3.40236,-1.52327 -3.40236,-3.40234 0,-1.87905 1.52331,-3.40232 3.40236,-3.40232 1.87905,0 3.40234,1.52327 3.40234,3.40232 z"
         inkscape:connector-curvature="0" />
      <path
         id="polygon38-8"
         d="m 598.06969,-417.82642 41.87386,8.7529 42.91891,-8.75367 0,20.88478 -42.91891,-8.80045 -41.87386,8.80045 z"
         inkscape:connector-curvature="0" />
      <path
         id="circle40-8"
         d="m 598.30968,-395.708 c 0,1.87929 -1.52344,3.40274 -3.40273,3.40274 -1.87926,0 -3.40271,-1.52345 -3.40271,-3.40274 0,-1.87926 1.52345,-3.40271 3.40271,-3.40271 1.87929,0 3.40273,1.52345 3.40273,3.40271 z"
         inkscape:connector-curvature="0" />
      <path
         id="circle42-2"
         d="m 598.30968,-419.38442 c 0,1.87928 -1.52344,3.40272 -3.40273,3.40272 -1.87926,0 -3.40271,-1.52344 -3.40271,-3.40272 0,-1.87928 1.52345,-3.40272 3.40271,-3.40272 1.87929,0 3.40273,1.52344 3.40273,3.40272 z"
         inkscape:connector-curvature="0" />
      <path
         id="circle44-4"
         d="m 689.47162,-395.708 c 0,1.87929 -1.52345,3.40274 -3.40273,3.40274 -1.87925,0 -3.40273,-1.52345 -3.40273,-3.40274 0,-1.87926 1.52348,-3.40271 3.40273,-3.40271 1.87928,0 3.40273,1.52345 3.40273,3.40271 z"
         inkscape:connector-curvature="0" />
      <path
         id="circle46-5"
         d="m 689.47123,-419.38481 c 0,1.87905 -1.52328,3.40233 -3.40234,3.40233 -1.87906,0 -3.40233,-1.52328 -3.40233,-3.40233 0,-1.87906 1.52327,-3.40234 3.40233,-3.40234 1.87906,0 3.40234,1.52328 3.40234,3.40234 z"
         inkscape:connector-curvature="0" />
      <path
         inkscape:connector-curvature="0"
         id="rect48-1"
         d="m 800.74891,-455.29964 14.25569,0 0,94.39566 -14.25569,0 z" />
      <path
         inkscape:connector-curvature="0"
         id="rect50"
         d="m 760.67893,-415.22965 94.39565,0 0,14.25567 -94.39565,0 z" />
      <path
         inkscape:connector-curvature="0"
         id="rect52"
         d="m 795.64385,-449.13502 24.4658,0 0,11.17338 -24.4658,0 z" />
      <path
         inkscape:connector-curvature="0"
         id="rect54"
         d="m 795.64385,-378.242 24.4658,0 0,11.17336 -24.4658,0 z" />
      <path
         inkscape:connector-curvature="0"
         id="rect56"
         d="m 766.84354,-420.33471 11.17338,0 0,24.46581 -11.17338,0 z" />
      <path
         inkscape:connector-curvature="0"
         id="rect58"
         d="m 837.7366,-420.33471 11.17335,0 0,24.46581 -11.17335,0 z" />
      <path
         style="fill:#00aeef;fill-opacity:1"
         inkscape:connector-curvature="0"
         id="path18-1"
         d="m 697.82297,-310.72937 h 51.52975 v 45.3909 c 0,0 -0.27011,2.8059 -3.80875,2.8059 h -10.5148 c 0,0 -10.21148,-2.64779 -16.47992,-10.96946 -6.26844,-8.32167 -19.61416,-8.60537 -20.72628,-8.60537 v -28.62197 z" />
      <path
         inkscape:connector-curvature="0"
         id="line20-5"
         d="m 707.78698,-303.09397 0,27.22402"
         style="fill:none;stroke:#deb308;stroke-width:3.05672693;stroke-miterlimit:4;stroke-opacity:1;stroke-dasharray:none" />
      <path
         inkscape:connector-curvature="0"
         id="line22-2"
         d="m 718.30312,-303.09397 0,33.77895"
         style="fill:none;stroke:#deb308;stroke-width:3.05672693;stroke-miterlimit:4;stroke-opacity:1;stroke-dasharray:none" />
      <path
         inkscape:connector-curvature="0"
         id="line24-7"
         d="m 728.81927,-303.03019 0,39.82722"
         style="fill:none;stroke:#deb308;stroke-width:3.05672693;stroke-miterlimit:4;stroke-opacity:1;stroke-dasharray:none" />
      <path
         inkscape:connector-curvature="0"
         id="line26-6"
         d="m 739.3354,-303.09397 0,41.84482"
         style="fill:none;stroke:#deb308;stroke-width:3.05672693;stroke-miterlimit:4;stroke-opacity:1;stroke-dasharray:none" />
      <path
         style="fill:#00aeef;fill-opacity:1"
         inkscape:connector-curvature="0"
         id="path16-1"
         d="m 700.09572,-315.22402 c 0,0 -9.14133,0 -14.66632,-5.48832 -5.52498,-5.48834 -5.42452,-14.9682 -5.42452,-14.9682 h 86.82466 c 0,0 0.10059,9.47986 -5.42454,14.9682 -5.52501,5.48832 -14.66633,5.48832 -14.66633,5.48832 h -46.64295 z" />
      <path
         inkscape:connector-curvature="0"
         id="rect14"
         d="m 673.38269,-349.99193 100.53879,0 0,10.63651 -100.53879,0 z"
         style="fill:#00aeef;fill-opacity:1" />
    </g>
  </g>
</svg>
