<?xml version="1.0" encoding="UTF-8" standalone="no"?>
<!-- Created with Inkscape (http://www.inkscape.org/) -->

<svg
   xmlns:dc="http://purl.org/dc/elements/1.1/"
   xmlns:cc="http://creativecommons.org/ns#"
   xmlns:rdf="http://www.w3.org/1999/02/22-rdf-syntax-ns#"
   xmlns:svg="http://www.w3.org/2000/svg"
   xmlns="http://www.w3.org/2000/svg"
   xmlns:sodipodi="http://sodipodi.sourceforge.net/DTD/sodipodi-0.dtd"
   xmlns:inkscape="http://www.inkscape.org/namespaces/inkscape"
   id="svg2"
   version="1.1"
   inkscape:version="0.48.1 "
   width="475"
   height="216"
   sodipodi:docname="Flag of Bosilovo Municipality.svg">
  <metadata
     id="metadata8">
    <rdf:RDF>
      <cc:Work
         rdf:about="">
        <dc:format>image/svg+xml</dc:format>
        <dc:type
           rdf:resource="http://purl.org/dc/dcmitype/StillImage" />
        <dc:title />
      </cc:Work>
    </rdf:RDF>
  </metadata>
  <defs
     id="defs6" />
  <sodipodi:namedview
     pagecolor="#ffffff"
     bordercolor="#666666"
     borderopacity="1"
     objecttolerance="10"
     gridtolerance="10"
     guidetolerance="10"
     inkscape:pageopacity="0"
     inkscape:pageshadow="2"
     inkscape:window-width="1280"
     inkscape:window-height="738"
     id="namedview4"
     showgrid="false"
     inkscape:zoom="8.2042297"
     inkscape:cx="65.110392"
     inkscape:cy="227.79932"
     inkscape:window-x="-8"
     inkscape:window-y="-8"
     inkscape:window-maximized="1"
     inkscape:current-layer="svg2" />
  <path
     sodipodi:nodetypes="ccccccccc"
     inkscape:connector-curvature="0"
     id="path3003"
     d="m -2.1350058,113.04609 0,-117.5048865 220.3185458,0 220.31858,0 -144.35637,112.8789465 144.35637,122.13082 -220.31858,0 -220.3185458,0 z"
     style="fill:#fdca00" />
  <path
     inkscape:connector-curvature="0"
     id="path2993"
     d="m 0.17381443,162.28205 0.0516,-53.72679 52.03431057,52.47733 52.034315,52.47732 -17.869725,-22.99007 c -9.82834,-12.64453 -19.11121,-24.63198 -20.62858,-26.63877 l -2.75887,-3.64872 3.97727,-6.15095 c 2.1875,-3.38303 4.12864,-6.60487 4.31365,-7.15967 0.2906,-0.87143 47.097385,21.71535 121.294355,58.53104 l 21,10.41996 -106.75,0.0681 -106.75000557,0.0681 0.0516,-53.72678 z M 199.50066,205.67638 c -8.86683,-5.58728 -39.95386,-24.94404 -69.08228,-43.01501 l -52.960775,-32.85631 0.95158,-4.81059 0.95159,-4.81059 6.1307,-0.57668 c 3.37188,-0.31717 45.034955,-2.83791 92.584595,-5.60162 47.54963,-2.76372 86.66213,-5.2331 86.91666,-5.48752 0.25453,-0.25442 0.25453,-0.67074 0,-0.92516 -0.25453,-0.25442 -39.36703,-2.7238 -86.91666,-5.48752 -47.54964,-2.763711 -89.212715,-5.284442 -92.584595,-5.601615 l -6.1307,-0.576671 -0.95007,-4.802922 -0.95006,-4.802921 48.080765,-29.839905 c 26.44442,-16.411948 57.68012,-35.811249 69.41266,-43.109557 l 21.33189,-13.26965139 129.41811,0 129.41811,0 0,107.95334239 0,107.95335 -129.75,-0.0869 -129.75,-0.0869 -16.12152,-10.15871 z M 0.17381443,53.82892 0.12221443,0.10213761 106.87222,-0.00551767 l 106.75,0.06804959 -21,10.59566508 C 118.67344,47.96946 71.618465,70.060666 71.327865,69.189231 c -0.18501,-0.554789 -2.12615,-3.776637 -4.31365,-7.159661 l -3.97727,-6.150954 2.75887,-3.648714 c 1.51737,-2.006793 10.80024,-13.994244 20.62858,-26.638779 L 104.29412,2.6010574 52.259805,55.07838 0.22549443,107.5557 z"
     style="fill:#3265ca"
     sodipodi:nodetypes="ccccsscsssccccccscccsssssscccsscccccccccccccssscsscccc" />
  <path
     inkscape:connector-curvature="0"
     id="path2991"
     d="m 0.27787772,162.0265 -0.0209,-53.69711 35.26530028,35.43745 c 19.39592,19.4906 43.33129,43.63556 53.18973,53.65546 l 17.924442,18.218 -53.168842,0.0417 -53.16883028,0.0417 -0.0209,-53.69713 z m -0.0851,-108.393213 -0.0634,-54.03823962 51.03665028,-0.0114 c 18.53613,-0.14658 37.08128,-0.0219 55.638242,-0.014 L 88.571238,18.098967 c -9.85905,10.01927 -33.74013,34.21777 -53.10542,53.73874 L 0.25620772,107.33038 z"
     style="fill:#007f00;fill-opacity:1"
     sodipodi:nodetypes="ccsscccccccccsscc" />
</svg>
