<?xml version="1.0" encoding="UTF-8" standalone="no"?>
<!-- Created with Inkscape (http://www.inkscape.org/) -->

<svg
   xmlns:dc="http://purl.org/dc/elements/1.1/"
   xmlns:cc="http://creativecommons.org/ns#"
   xmlns:rdf="http://www.w3.org/1999/02/22-rdf-syntax-ns#"
   xmlns:svg="http://www.w3.org/2000/svg"
   xmlns="http://www.w3.org/2000/svg"
   xmlns:xlink="http://www.w3.org/1999/xlink"
   xmlns:sodipodi="http://sodipodi.sourceforge.net/DTD/sodipodi-0.dtd"
   xmlns:inkscape="http://www.inkscape.org/namespaces/inkscape"
   width="875"
   height="483"
   id="svg2"
   version="1.1"
   inkscape:version="0.48.1 "
   sodipodi:docname="Flag of Bogdanci Municipality.svg">
  <defs
     id="defs4">
    <linearGradient
       id="linearGradient3643">
      <stop
         id="stop3645"
         style="stop-color:#ffffff;stop-opacity:0.501960814"
         offset="0" />
      <stop
         id="stop3651"
         style="stop-color:#ffffff;stop-opacity:0.250980407"
         offset="0.5" />
      <stop
         id="stop3647"
         style="stop-color:#ffffff;stop-opacity:0"
         offset="1" />
    </linearGradient>
    <filter
       color-interpolation-filters="sRGB"
       id="filter3638">
      <feGaussianBlur
         id="feGaussianBlur3640"
         stdDeviation="11.94918959888058" />
    </filter>
    <radialGradient
       cx="5.1977611"
       cy="-638.9823"
       r="375.80225"
       fx="5.1977611"
       fy="-638.9823"
       id="radialGradient3650"
       xlink:href="#linearGradient3643"
       gradientUnits="userSpaceOnUse"
       gradientTransform="matrix(1.9999999,0,0,2.2585722,-5.1977609,1489.1972)" />
    <radialGradient
       cx="5.1977611"
       cy="-638.9823"
       r="375.80225"
       fx="5.1977611"
       fy="-638.9823"
       id="radialGradient3656"
       xlink:href="#linearGradient3643"
       gradientUnits="userSpaceOnUse"
       gradientTransform="matrix(2,7.2251366e-8,-4.1413591e-8,1.1463753,-5.1977873,-73.097748)" />
    <radialGradient
       cx="5.1977611"
       cy="-638.9823"
       r="375.80225"
       fx="5.1977611"
       fy="-638.9823"
       id="radialGradient3705"
       xlink:href="#linearGradient3643"
       gradientUnits="userSpaceOnUse"
       gradientTransform="matrix(1.9999999,0,0,2.2585722,-5.1977609,1489.1972)" />
    <radialGradient
       cx="5.1977611"
       cy="-638.9823"
       r="375.80225"
       fx="5.1977611"
       fy="-638.9823"
       id="radialGradient3600"
       xlink:href="#linearGradient3643"
       gradientUnits="userSpaceOnUse"
       gradientTransform="matrix(1.9999999,0,0,2.2585722,-1.1977609,1452.3772)" />
    <filter
       color-interpolation-filters="sRGB"
       id="filter3628">
      <feGaussianBlur
         stdDeviation="7.949999999999998"
         id="feGaussianBlur3630" />
    </filter>
    <radialGradient
       cx="14.197762"
       cy="70.170868"
       r="375"
       fx="14.197762"
       fy="70.170868"
       id="radialGradient3644"
       xlink:href="#linearGradient3643"
       gradientUnits="userSpaceOnUse"
       gradientTransform="matrix(1.9733333,0,0,2.2666667,-13.819154,-143.24356)" />
    <radialGradient
       cx="14.197762"
       cy="70.170868"
       r="375"
       fx="14.197762"
       fy="70.170868"
       id="radialGradient3651"
       xlink:href="#linearGradient3643"
       gradientUnits="userSpaceOnUse"
       gradientTransform="matrix(1.9733333,0,0,2.2666667,-13.819154,-143.24356)" />
    <radialGradient
       cx="14.197762"
       cy="70.170868"
       r="375"
       fx="14.197762"
       fy="70.170868"
       id="radialGradient3605"
       xlink:href="#linearGradient3643"
       gradientUnits="userSpaceOnUse"
       gradientTransform="matrix(1.9733333,0,0,2.2666667,-15.056915,-151.09397)" />
    <filter
       color-interpolation-filters="sRGB"
       id="filter3619">
      <feGaussianBlur
         id="feGaussianBlur3621"
         stdDeviation="1.335" />
    </filter>
    <filter
       color-interpolation-filters="sRGB"
       id="filter3629">
      <feGaussianBlur
         id="feGaussianBlur3631"
         stdDeviation="2.67" />
    </filter>
    <radialGradient
       cx="12.96"
       cy="590.75311"
       r="125"
       fx="12.96"
       fy="590.75311"
       id="radialGradient3670"
       xlink:href="#linearGradient3643"
       gradientUnits="userSpaceOnUse"
       gradientTransform="matrix(1.976583,0,0,2.2960001,-12.656516,-785.40919)" />
    <radialGradient
       cx="12.96"
       cy="590.75311"
       r="125"
       fx="12.96"
       fy="590.75311"
       id="radialGradient3679"
       xlink:href="#linearGradient3643"
       gradientUnits="userSpaceOnUse"
       gradientTransform="matrix(1.976583,0,0,2.2960001,-12.656516,-785.40919)" />
    <radialGradient
       cx="12.96"
       cy="590.75311"
       r="125"
       fx="12.96"
       fy="590.75311"
       id="radialGradient3682"
       xlink:href="#linearGradient3643"
       gradientUnits="userSpaceOnUse"
       gradientTransform="matrix(1.976583,0,0,2.2960001,-12.656516,-785.40919)" />
    <radialGradient
       cx="12.96"
       cy="590.75311"
       r="125"
       fx="12.96"
       fy="590.75311"
       id="radialGradient3695"
       xlink:href="#linearGradient3643"
       gradientUnits="userSpaceOnUse"
       gradientTransform="matrix(1.976583,0,0,2.2960001,-12.656516,-785.40919)" />
    <radialGradient
       cx="12.96"
       cy="590.75311"
       r="125"
       fx="12.96"
       fy="590.75311"
       id="radialGradient3614"
       xlink:href="#linearGradient3643"
       gradientUnits="userSpaceOnUse"
       gradientTransform="matrix(1.976583,0,0,2.2960001,-19.570516,-1350.3232)" />
    <filter
       color-interpolation-filters="sRGB"
       id="filter3622">
      <feGaussianBlur
         stdDeviation="5.34"
         id="feGaussianBlur3624" />
    </filter>
    <radialGradient
       cx="12.96"
       cy="590.75311"
       r="125"
       fx="12.96"
       fy="590.75311"
       id="radialGradient3631"
       xlink:href="#linearGradient3643"
       gradientUnits="userSpaceOnUse"
       gradientTransform="matrix(1.976583,0,0,2.2960001,-19.570516,-1350.3232)" />
    <radialGradient
       cx="12.96"
       cy="590.75311"
       r="125"
       fx="12.96"
       fy="590.75311"
       id="radialGradient3463"
       xlink:href="#linearGradient3643"
       gradientUnits="userSpaceOnUse"
       gradientTransform="matrix(1.976583,0,0,2.2960001,-21.616516,-1352.3692)" />
    <radialGradient
       cx="12.96"
       cy="590.75311"
       r="125"
       fx="12.96"
       fy="590.75311"
       id="radialGradient2847"
       xlink:href="#linearGradient3643"
       gradientUnits="userSpaceOnUse"
       gradientTransform="matrix(1.976583,0,0,2.2960001,-21.616516,-1352.3692)" />
    <marker
       markerUnits="strokeWidth"
       refX="10"
       refY="5"
       markerWidth="4"
       markerHeight="3"
       orient="auto"
       viewBox="0 0 10 10"
       id="ArrowStart">
      <path
         inkscape:connector-curvature="0"
         d="M 10,0 0,5 10,10 z"
         id="path2391" />
    </marker>
    <marker
       markerUnits="strokeWidth"
       refX="0"
       refY="5"
       markerWidth="4"
       markerHeight="3"
       orient="auto"
       viewBox="0 0 10 10"
       id="ArrowEnd">
      <path
         inkscape:connector-curvature="0"
         d="M 0,0 10,5 0,10 z"
         id="path2388" />
    </marker>
    <marker
       markerUnits="strokeWidth"
       refX="10"
       refY="5"
       markerWidth="4"
       markerHeight="3"
       orient="auto"
       viewBox="0 0 10 10"
       id="marker5053">
      <path
         inkscape:connector-curvature="0"
         d="M 10,0 0,5 10,10 z"
         id="path4900" />
    </marker>
    <marker
       markerUnits="strokeWidth"
       refX="0"
       refY="5"
       markerWidth="4"
       markerHeight="3"
       orient="auto"
       viewBox="0 0 10 10"
       id="marker5050">
      <path
         inkscape:connector-curvature="0"
         d="M 0,0 10,5 0,10 z"
         id="path4897" />
    </marker>
    <marker
       markerUnits="strokeWidth"
       refX="10"
       refY="5"
       markerWidth="4"
       markerHeight="3"
       orient="auto"
       viewBox="0 0 10 10"
       id="marker5838">
      <path
         inkscape:connector-curvature="0"
         d="M 10,0 0,5 10,10 z"
         id="path5137" />
    </marker>
    <marker
       markerUnits="strokeWidth"
       refX="0"
       refY="5"
       markerWidth="4"
       markerHeight="3"
       orient="auto"
       viewBox="0 0 10 10"
       id="marker5835">
      <path
         inkscape:connector-curvature="0"
         d="M 0,0 10,5 0,10 z"
         id="path5134" />
    </marker>
    <marker
       markerUnits="strokeWidth"
       refX="10"
       refY="5"
       markerWidth="4"
       markerHeight="3"
       orient="auto"
       viewBox="0 0 10 10"
       id="marker6377">
      <path
         inkscape:connector-curvature="0"
         d="M 10,0 0,5 10,10 z"
         id="path6216" />
    </marker>
    <marker
       markerUnits="strokeWidth"
       refX="0"
       refY="5"
       markerWidth="4"
       markerHeight="3"
       orient="auto"
       viewBox="0 0 10 10"
       id="marker6374">
      <path
         inkscape:connector-curvature="0"
         d="M 0,0 10,5 0,10 z"
         id="path6213" />
    </marker>
    <linearGradient
       id="linearGradient3643-5">
      <stop
         id="stop3645-8"
         style="stop-color:#ffffff;stop-opacity:0.501960814"
         offset="0" />
      <stop
         id="stop3651-8"
         style="stop-color:#ffffff;stop-opacity:0.250980407"
         offset="0.5" />
      <stop
         id="stop3647-4"
         style="stop-color:#ffffff;stop-opacity:0"
         offset="1" />
    </linearGradient>
    <filter
       color-interpolation-filters="sRGB"
       id="filter3638-7">
      <feGaussianBlur
         stdDeviation="11.94918959888058"
         id="feGaussianBlur3640-1" />
    </filter>
    <radialGradient
       cx="5.1977611"
       cy="-638.9823"
       r="375.80225"
       fx="5.1977611"
       fy="-638.9823"
       id="radialGradient3650-2"
       xlink:href="#linearGradient3643-5"
       gradientUnits="userSpaceOnUse"
       gradientTransform="matrix(1.9999999,0,0,2.2585722,-5.1977609,1489.1972)" />
    <radialGradient
       cx="5.1977611"
       cy="-638.9823"
       r="375.80225"
       fx="5.1977611"
       fy="-638.9823"
       id="radialGradient3656-6"
       xlink:href="#linearGradient3643-5"
       gradientUnits="userSpaceOnUse"
       gradientTransform="matrix(2,7.2251366e-8,-4.1413591e-8,1.1463753,-5.1977873,-73.097748)" />
    <radialGradient
       cx="5.1977611"
       cy="-638.9823"
       r="375.80225"
       fx="5.1977611"
       fy="-638.9823"
       id="radialGradient3705-7"
       xlink:href="#linearGradient3643-5"
       gradientUnits="userSpaceOnUse"
       gradientTransform="matrix(1.9999999,0,0,2.2585722,-5.1977609,1489.1972)" />
    <radialGradient
       cx="5.1977611"
       cy="-638.9823"
       r="375.80225"
       fx="5.1977611"
       fy="-638.9823"
       id="radialGradient3600-9"
       xlink:href="#linearGradient3643-5"
       gradientUnits="userSpaceOnUse"
       gradientTransform="matrix(1.9999999,0,0,2.2585722,-1.1977609,1452.3772)" />
    <filter
       color-interpolation-filters="sRGB"
       id="filter3628-7">
      <feGaussianBlur
         id="feGaussianBlur3630-7"
         stdDeviation="7.949999999999998" />
    </filter>
    <radialGradient
       cx="14.197762"
       cy="70.170868"
       r="375"
       fx="14.197762"
       fy="70.170868"
       id="radialGradient3644-1"
       xlink:href="#linearGradient3643-5"
       gradientUnits="userSpaceOnUse"
       gradientTransform="matrix(1.9733333,0,0,2.2666667,-13.819154,-143.24356)" />
    <radialGradient
       cx="14.197762"
       cy="70.170868"
       r="375"
       fx="14.197762"
       fy="70.170868"
       id="radialGradient3651-2"
       xlink:href="#linearGradient3643-5"
       gradientUnits="userSpaceOnUse"
       gradientTransform="matrix(1.9733333,0,0,2.2666667,-13.819154,-143.24356)" />
    <radialGradient
       cx="14.197762"
       cy="70.170868"
       r="375"
       fx="14.197762"
       fy="70.170868"
       id="radialGradient3605-9"
       xlink:href="#linearGradient3643-5"
       gradientUnits="userSpaceOnUse"
       gradientTransform="matrix(1.9733333,0,0,2.2666667,-15.056915,-151.09397)" />
    <filter
       color-interpolation-filters="sRGB"
       id="filter3619-0">
      <feGaussianBlur
         stdDeviation="1.335"
         id="feGaussianBlur3621-6" />
    </filter>
    <filter
       color-interpolation-filters="sRGB"
       id="filter3629-3">
      <feGaussianBlur
         stdDeviation="2.67"
         id="feGaussianBlur3631-7" />
    </filter>
    <radialGradient
       cx="12.96"
       cy="590.75311"
       r="125"
       fx="12.96"
       fy="590.75311"
       id="radialGradient3670-0"
       xlink:href="#linearGradient3643-5"
       gradientUnits="userSpaceOnUse"
       gradientTransform="matrix(1.976583,0,0,2.2960001,-12.656516,-785.40919)" />
    <radialGradient
       cx="12.96"
       cy="590.75311"
       r="125"
       fx="12.96"
       fy="590.75311"
       id="radialGradient3679-8"
       xlink:href="#linearGradient3643-5"
       gradientUnits="userSpaceOnUse"
       gradientTransform="matrix(1.976583,0,0,2.2960001,-12.656516,-785.40919)" />
    <radialGradient
       cx="12.96"
       cy="590.75311"
       r="125"
       fx="12.96"
       fy="590.75311"
       id="radialGradient3682-8"
       xlink:href="#linearGradient3643-5"
       gradientUnits="userSpaceOnUse"
       gradientTransform="matrix(1.976583,0,0,2.2960001,-12.656516,-785.40919)" />
    <radialGradient
       cx="12.96"
       cy="590.75311"
       r="125"
       fx="12.96"
       fy="590.75311"
       id="radialGradient3695-9"
       xlink:href="#linearGradient3643-5"
       gradientUnits="userSpaceOnUse"
       gradientTransform="matrix(1.976583,0,0,2.2960001,-12.656516,-785.40919)" />
    <radialGradient
       cx="12.96"
       cy="590.75311"
       r="125"
       fx="12.96"
       fy="590.75311"
       id="radialGradient3614-8"
       xlink:href="#linearGradient3643-5"
       gradientUnits="userSpaceOnUse"
       gradientTransform="matrix(1.976583,0,0,2.2960001,-19.570516,-1350.3232)" />
    <filter
       color-interpolation-filters="sRGB"
       id="filter3622-9">
      <feGaussianBlur
         id="feGaussianBlur3624-0"
         stdDeviation="5.34" />
    </filter>
    <radialGradient
       cx="12.96"
       cy="590.75311"
       r="125"
       fx="12.96"
       fy="590.75311"
       id="radialGradient3631-1"
       xlink:href="#linearGradient3643-5"
       gradientUnits="userSpaceOnUse"
       gradientTransform="matrix(1.976583,0,0,2.2960001,-19.570516,-1350.3232)" />
    <radialGradient
       cx="12.96"
       cy="590.75311"
       r="125"
       fx="12.96"
       fy="590.75311"
       id="radialGradient3463-1"
       xlink:href="#linearGradient3643-5"
       gradientUnits="userSpaceOnUse"
       gradientTransform="matrix(1.976583,0,0,2.2960001,-21.616516,-1352.3692)" />
    <radialGradient
       cx="12.96"
       cy="590.75311"
       r="125"
       fx="12.96"
       fy="590.75311"
       id="radialGradient2847-9"
       xlink:href="#linearGradient3643-5"
       gradientUnits="userSpaceOnUse"
       gradientTransform="matrix(1.976583,0,0,2.2960001,-21.616516,-1352.3692)" />
    <filter
       color-interpolation-filters="sRGB"
       id="filter3858">
      <feGaussianBlur
         id="feGaussianBlur3860"
         stdDeviation="5.299812353401095" />
    </filter>
  </defs>
  <sodipodi:namedview
     id="base"
     pagecolor="#ffffff"
     bordercolor="#666666"
     borderopacity="1.0"
     inkscape:pageopacity="0.0"
     inkscape:pageshadow="2"
     inkscape:zoom="0.33109927"
     inkscape:cx="433.33487"
     inkscape:cy="259.41135"
     inkscape:document-units="px"
     inkscape:current-layer="layer1"
     showgrid="false"
     inkscape:window-width="1280"
     inkscape:window-height="738"
     inkscape:window-x="-8"
     inkscape:window-y="-8"
     inkscape:window-maximized="1" />
  <metadata
     id="metadata7">
    <rdf:RDF>
      <cc:Work
         rdf:about="">
        <dc:format>image/svg+xml</dc:format>
        <dc:type
           rdf:resource="http://purl.org/dc/dcmitype/StillImage" />
        <dc:title />
      </cc:Work>
    </rdf:RDF>
  </metadata>
  <g
     inkscape:label="Layer 1"
     inkscape:groupmode="layer"
     id="layer1"
     transform="translate(0,-569.36218)">
    <g
       id="g3155">
      <rect
         ry="0"
         y="569.47675"
         x="-0.025965024"
         height="453.7413"
         width="858.59497"
         id="rect2985"
         style="fill:#0000cc;stroke:none;fill-opacity:1" />
      <rect
         ry="0"
         y="810.96234"
         x="437.53098"
         height="241.4882"
         width="437.55948"
         id="rect2985-1"
         style="fill:#0000cc;stroke:none;fill-opacity:1" />
      <rect
         ry="0"
         y="569.4762"
         x="437.53302"
         height="241.4882"
         width="437.55948"
         id="rect2985-8"
         style="fill:#ff0000;stroke:none;fill-opacity:1" />
      <rect
         ry="0"
         y="810.96558"
         x="-0.027797822"
         height="241.4882"
         width="437.55948"
         id="rect2985-15"
         style="fill:#ff0000;stroke:none;fill-opacity:1" />
      <g
         transform="matrix(1.0009531,0,0,0.99436315,338.70555,708.9027)"
         id="g4109">
        <g
           transform="translate(-1795.2552,-483.24635)"
           id="g6366" />
        <path
           style="opacity:0;color:#000000;fill:#ffc728;fill-opacity:1;fill-rule:nonzero;stroke:none;stroke-width:2;marker:none;visibility:visible;display:inline;overflow:visible;enable-background:accumulate"
           d="m -237.88697,332.32053 c -0.20156,-0.21688 -0.4877,-1.79308 -0.45999,-2.53399 0.0442,-1.18258 0.2654,-2.01937 1.06771,-4.03903 0.86615,-2.18032 1.19,-3.42873 1.05512,-4.0672 -0.0808,-0.38049 -0.12947,-0.4013 -0.65208,-0.27559 -0.47097,0.11325 -0.57588,0.086 -0.62938,-0.16308 -0.0613,-0.28531 0.0299,-0.32173 1.98444,-0.7919 1.93212,-0.4648 2.05219,-0.47636 2.11084,-0.20327 0.0444,0.20672 -0.0487,0.33036 -0.32528,0.43208 l -0.38748,0.14251 1.89138,4.30253 c 1.04024,2.36638 1.92312,4.24153 1.96195,4.16698 0.0388,-0.0745 -0.004,-2.09898 -0.095,-4.49876 -0.0912,-2.39978 -0.15862,-4.48877 -0.15002,-4.64217 0.0119,-0.21426 -0.0685,-0.25871 -0.34716,-0.1917 -0.26856,0.0645 -0.37944,0.01 -0.42698,-0.2118 -0.0611,-0.28479 0.0301,-0.3217 1.91379,-0.77489 1.88383,-0.45317 1.98109,-0.4616 2.04225,-0.17678 0.0521,0.2424 -0.0299,0.3217 -0.43295,0.41865 -0.44335,0.10661 -0.48138,0.15408 -0.35098,0.43826 0.2659,0.57943 3.90513,8.8325 3.91501,8.87845 0.005,0.0249 0.23219,-0.009 0.50415,-0.074 0.34537,-0.0831 0.50903,-0.0513 0.54268,0.10534 0.0403,0.18829 -0.25795,0.29792 -1.85922,0.68312 -1.60125,0.38521 -1.9151,0.42282 -1.95554,0.23454 -0.0267,-0.12459 0.0774,-0.25449 0.2344,-0.29226 0.15994,-0.0385 0.26116,-0.16766 0.23325,-0.29768 -0.0651,-0.30334 -3.24298,-7.51621 -3.33993,-7.58082 -0.0413,-0.0274 -0.0839,0.0507 -0.0948,0.17381 -0.0282,0.31996 0.28351,7.97397 0.33382,8.19796 0.023,0.1026 0.20084,0.14826 0.39511,0.10152 0.21979,-0.0528 0.37141,1.7e-4 0.40139,0.13933 0.0407,0.18939 -0.28149,0.30359 -2.07115,0.73411 -1.78962,0.43051 -2.12679,0.47491 -2.16746,0.28552 -0.0323,-0.15063 0.0942,-0.25853 0.38521,-0.32854 0.34496,-0.0829 0.40775,-0.15428 0.30784,-0.34925 -0.069,-0.13476 -0.81008,-1.81403 -1.64678,-3.73173 -0.83669,-1.91772 -1.58075,-3.53051 -1.65343,-3.58397 -0.18374,-0.13515 -0.83262,2.82983 -0.82901,3.788 0.003,0.51728 0.19839,1.53065 0.57476,2.9675 l 0.57182,2.18192 -1.20861,0.29074 c -0.74639,0.17961 -1.26025,0.23512 -1.34363,0.14545 z"
           id="path4206"
           inkscape:connector-curvature="0" />
        <g
           id="g4666"
           transform="translate(302.85995,59.285009)">
          <path
             sodipodi:nodetypes="csscsccscssccscc"
             style="fill:#ff0000;fill-opacity:1;stroke:#ffc728;stroke-width:1.5;stroke-miterlimit:4;stroke-opacity:1;stroke-dasharray:none"
             id="path3866"
             d="m -301.68236,-35.107899 c 1.20244,1.048953 3.44123,5.298003 3.5759,11.862719 0.31466,15.3383271 1.04157,50.619418 0.1212,80.476679 -0.15611,5.064233 -2.2388,9.461337 -3.80387,13.27949 2.87284,61.499141 49.28412,85.498171 75.59371,95.932571 4.48228,1.77767 7.39319,2.41802 11.76232,4.59684 12.52183,4.07815 7.23287,4.67182 16.03418,1.39711 0.91819,-0.56121 3.34038,-1.26904 4.34236,-1.69418 33.13913,-14.0609 77.64515,-26.98779 83.11562,-100.232341 -1.49095,-4.87919 -3.73197,-9.72866 -3.67057,-14.800098 0.97067,-80.17918 -0.25854,-61.0879611 0.59848,-77.947801 0.27245,-5.359875 2.13241,-8.274453 3.03663,-10.805233 l -0.0631,-24.471033 c -16.19179,0.02145 -66.85509,-0.200964 -95.50761,-0.02876 -28.66583,0.172286 -79.48432,-0.100881 -95.14354,-0.03324 z"
             inkscape:connector-curvature="0" />
          <path
             sodipodi:nodetypes="ccsssc"
             inkscape:connector-curvature="0"
             d="m -288.48144,-30.475557 164.63051,1.067974 -0.33637,105.556465 c -0.0949,29.772448 -29.22413,74.228608 -79.09063,76.111128 -40.04649,1.5118 -88.37508,-41.58378 -85.47942,-78.95906 z"
             id="path3201"
             style="fill:#0000cc;fill-opacity:1;stroke:none" />
          <g
             transform="matrix(0.9068693,0,0,0.95975914,-28.105833,-2.3181873)"
             style="fill:#ffc728;fill-opacity:1"
             id="g4192">
            <path
               style="color:#000000;fill:#ffc728;fill-opacity:1;fill-rule:nonzero;stroke:none;stroke-width:2;marker:none;visibility:visible;display:inline;overflow:visible;enable-background:accumulate"
               d="m -274.5499,-34.796888 c -2.005,-0.01572 -4.00431,-0.03129 -4.4429,-0.0346 l -0.79744,-0.006 0,-0.476396 0,-0.476395 0.95279,0 0.95279,0 0,-7.083791 0,-7.083791 -0.95279,0 -0.95279,0 0,-0.482605 0,-0.482605 0.71459,0.02727 c 1.12377,0.04288 8.38773,0.03274 9.124,-0.01274 0.99348,-0.06137 1.90084,-0.05529 2.0663,0.01385 0.16969,0.0709 0.30757,0.286163 0.34141,0.533005 0.029,0.211732 -0.0208,0.391137 -0.29651,1.066637 -0.23339,0.57193 -0.29324,0.81611 -0.41455,1.691182 -0.16842,1.214976 -0.23326,1.426209 -0.48662,1.585378 -0.18029,0.113269 -0.48628,0.08932 -0.63581,-0.04976 -0.12917,-0.120144 -0.14068,-0.148601 -0.37056,-0.916327 -0.52801,-1.763385 -1.1775,-2.605996 -2.21499,-2.873624 -0.20251,-0.05224 -0.52498,-0.0736 -1.33379,-0.08835 l -1.06671,-0.01946 0,2.897665 0,2.897665 0.2382,0.205595 c 0.92369,0.797265 1.11998,0.869105 4.16688,1.525077 1.09928,0.236666 1.71648,0.388841 1.84858,0.455782 0.39179,0.198533 0.7298,0.633337 0.90963,1.1701 0.19121,0.570712 0.21499,0.928328 0.20195,3.036385 l -0.0122,1.96868 -0.1367,0.27758 c -0.15697,0.318751 -0.38438,0.528673 -0.72059,0.66517 -0.20924,0.08495 -0.28735,0.08944 -1.62825,0.09363 -0.77466,0.0024 -3.04893,-0.0085 -5.05394,-0.02417 l 0,0 z m 3.35665,-1.049191 c 0.7102,-0.336683 0.70307,-0.31016 0.70307,-2.616182 0,-2.03429 -0.006,-2.083422 -0.29149,-2.360219 -0.0946,-0.09171 -0.38457,-0.286622 -0.64446,-0.433136 -0.25989,-0.146514 -0.7335,-0.413987 -1.05248,-0.594385 -0.71212,-0.402741 -1.09251,-0.683999 -1.54032,-1.138929 l -0.34455,-0.350021 0,3.775623 c 0,2.982564 0.0109,3.779687 0.0518,3.794968 0.11633,0.04346 1.30263,0.09449 2.02067,0.08693 l 0.76753,-0.0081 0.33025,-0.156557 0,0 z"
               id="path4176"
               inkscape:connector-curvature="0" />
            <path
               style="color:#000000;fill:#ffc728;fill-opacity:1;fill-rule:nonzero;stroke:none;stroke-width:2;marker:none;visibility:visible;display:inline;overflow:visible;enable-background:accumulate"
               d="m -253.54204,-34.316419 c -0.67183,-0.315893 -2.44067,-1.787352 -3.88666,-3.233219 -0.90182,-0.901755 -1.18472,-1.273905 -1.57547,-2.072542 -0.4765,-0.973869 -0.6536,-1.773142 -0.6563,-2.961936 -0.002,-0.7979 0.0311,-1.082377 0.20698,-1.788886 0.27733,-1.114052 0.88331,-2.278254 1.74262,-3.347899 0.56032,-0.697475 1.47309,-1.565345 2.79307,-2.65567 0.23741,-0.1961 0.57543,-0.487326 0.75116,-0.64717 0.46234,-0.420539 0.82227,-0.568584 1.13302,-0.466028 0.11186,0.03692 0.37166,0.270495 0.96584,0.868356 0.44706,0.44982 1.22294,1.181062 1.7242,1.624982 1.49418,1.323289 2.21174,2.138349 2.68579,3.050735 0.4463,0.858962 0.63967,1.630254 0.6773,2.70143 0.0615,1.751467 -0.33452,3.029122 -1.35812,4.381268 -0.41145,0.543512 -1.02443,1.188638 -2.4744,2.604163 -2.06168,2.012699 -2.26769,2.159334 -2.72903,1.942416 l 0,0 z m 1.89355,-3.056074 c 0.62794,-0.334136 1.17022,-0.788914 1.63832,-1.373972 0.44281,-0.553443 0.68167,-1.080336 0.77027,-1.69911 0.0812,-0.5672 -0.0889,-1.177553 -0.54172,-1.943075 -0.39508,-0.667997 -0.82834,-1.183338 -3.228,-3.839541 -0.96761,-1.07105 -1.29542,-1.489929 -1.51799,-1.939695 -0.0869,-0.175664 -0.16223,-0.324966 -0.16735,-0.33178 -0.0303,-0.04043 -0.62933,0.144035 -0.90969,0.28014 -1.27432,0.618652 -2.0971,2.222347 -1.82617,3.559445 0.18074,0.891977 0.75361,1.884754 1.83138,3.173745 0.24766,0.296194 0.96395,1.060498 1.59175,1.698453 0.6278,0.637955 1.22947,1.284067 1.33704,1.435802 0.22151,0.312459 0.46194,0.807433 0.50549,1.040636 0.035,0.187338 0.0541,0.185077 0.51667,-0.06105 z"
               id="path4178"
               inkscape:connector-curvature="0" />
            <path
               style="color:#000000;fill:#ffc728;fill-opacity:1;fill-rule:nonzero;stroke:none;stroke-width:2;marker:none;visibility:visible;display:inline;overflow:visible;enable-background:accumulate"
               d="m -240.96088,-35.303553 0.0117,-0.466039 0.96315,-0.01112 0.96314,-0.01112 0,-7.083028 0,-7.083027 -0.9735,0 -0.9735,0 0,-0.476396 0,-0.476395 4.77196,0 c 4.96846,0 5.59376,-0.01718 6.37154,-0.175041 0.24239,-0.0492 0.60316,-0.0896 0.81483,-0.09125 0.32425,-0.0025 0.39703,0.0098 0.49711,0.08421 0.1734,0.128935 0.26758,0.318801 0.29079,0.586218 0.0183,0.210483 -0.004,0.307334 -0.19434,0.838637 -0.31778,0.887866 -0.4022,1.191862 -0.49854,1.795257 -0.23577,1.47666 -0.30149,1.698613 -0.54904,1.854135 -0.10026,0.06298 -0.18231,0.07927 -0.33358,0.06622 -0.32302,-0.02787 -0.40165,-0.140021 -0.63009,-0.898669 -0.58333,-1.937265 -1.17566,-2.726001 -2.25916,-3.00825 -0.21082,-0.05492 -0.52838,-0.07297 -1.53945,-0.08753 l -1.27384,-0.01834 0,7.087386 0,7.087386 0.95279,0 0.95279,0 0,0.476395 0,0.476396 -3.68824,0 -3.68825,0 0.0117,-0.466039 0,0 z"
               id="path4180"
               inkscape:connector-curvature="0" />
            <path
               style="color:#000000;fill:#ffc728;fill-opacity:1;fill-rule:nonzero;stroke:none;stroke-width:2;marker:none;visibility:visible;display:inline;overflow:visible;enable-background:accumulate"
               d="m -221.85053,-30.808931 c -0.079,-0.03984 -0.17574,-0.128355 -0.21506,-0.196708 -0.0401,-0.06978 -0.16165,-0.614743 -0.27713,-1.24277 -0.18295,-0.994945 -0.23633,-1.205435 -0.4833,-1.905582 -0.1527,-0.432898 -0.30282,-0.876735 -0.3336,-0.986304 -0.1097,-0.390569 0.0534,-0.750791 0.3902,-0.861954 0.10207,-0.03369 0.28985,-0.03823 0.6249,-0.01512 0.72876,0.05026 0.87989,0.04418 1.00936,-0.04066 0.26149,-0.171333 0.35694,-0.472162 0.52626,-1.658567 0.37138,-2.602246 1.28091,-4.991704 3.00389,-7.891592 1.1545,-1.943097 1.51739,-3.291323 1.05697,-3.926913 -0.24013,-0.331496 -0.59944,-0.422783 -1.66409,-0.422783 l -0.74001,0 0,-0.476396 0,-0.476395 3.76973,0 3.76974,0 0,0.476395 0,0.476396 -0.64692,0 -0.64693,0 0.0276,0.279623 c 0.1036,1.049474 0.32068,2.654769 0.52517,3.883657 0.59541,3.578131 1.73275,8.245467 2.29652,9.424343 0.1499,0.313445 0.36216,0.579959 0.4619,0.579959 0.0298,0 0.21549,-0.05593 0.41276,-0.124277 0.41258,-0.142957 0.80722,-0.166082 1.01353,-0.05939 0.0752,0.03888 0.15702,0.134351 0.20417,0.238198 0.12701,0.279759 0.10346,0.522212 -0.10939,1.126102 -0.43826,1.24341 -0.54022,1.622813 -0.6979,2.597106 -0.12166,0.751751 -0.18559,0.938026 -0.38074,1.109366 -0.17869,0.156898 -0.31211,0.190418 -0.51544,0.1295 -0.29883,-0.08953 -0.42855,-0.348802 -0.5772,-1.153591 -0.27311,-1.478685 -0.89541,-2.343009 -1.92639,-2.675607 -0.55032,-0.177537 -0.84423,-0.200582 -2.83633,-0.222395 -2.36698,-0.02592 -3.48609,0.03663 -4.13166,0.230941 -0.29608,0.08912 -0.64277,0.315794 -0.89339,0.584124 -0.45949,0.491971 -0.65996,0.924107 -0.99482,2.144412 -0.19508,0.710895 -0.29118,0.897104 -0.54187,1.049966 -0.16135,0.09839 -0.29539,0.100321 -0.48054,0.0069 l 0,0 z m 8.44943,-5.024582 c 0,-0.02376 -0.18525,-0.736804 -0.41165,-1.584532 -0.81499,-3.051522 -1.0384,-4.020989 -1.65778,-7.193946 -0.16212,-0.83053 -0.30495,-1.520233 -0.31739,-1.532675 -0.0242,-0.02416 -0.0597,0.02024 -0.45981,0.573735 -1.26752,1.753594 -2.61204,4.984748 -3.01835,7.25366 -0.0994,0.555232 -0.1019,1.398441 -0.005,1.711995 0.13077,0.423244 0.43305,0.669667 0.94471,0.770144 0.27288,0.05358 4.9253,0.05512 4.9253,0.0016 z"
               id="path4182"
               inkscape:connector-curvature="0" />
            <path
               style="color:#000000;fill:#ffc728;fill-opacity:1;fill-rule:nonzero;stroke:none;stroke-width:2;marker:none;visibility:visible;display:inline;overflow:visible;enable-background:accumulate"
               d="m -199.00956,-34.548216 c -1.3947,-0.277312 -2.10098,-1.535347 -1.88404,-3.355885 0.13261,-1.112848 0.50517,-2.239003 1.2399,-3.747938 0.64859,-1.331992 1.25862,-2.358504 2.85089,-4.79724 1.22356,-1.874027 1.41901,-2.317358 1.41785,-3.216074 -8.9e-4,-0.691134 0.0977,-0.62394 -0.91563,-0.62394 l -0.86511,0 0,-0.455682 0,-0.455683 3.5419,0 3.54189,0 0,0.455683 0,0.455682 -0.89548,0 c -0.83262,0 -0.89412,0.0051 -0.87607,0.0725 0.0107,0.03987 0.95891,3.302068 2.10718,7.249325 l 2.08778,7.17683 0.79744,1.66e-4 0.79745,1.65e-4 0,0.476396 0,0.476395 -3.43969,0 -3.43969,0 0.0117,-0.466039 0.0117,-0.466039 0.86385,-0.01121 0.86386,-0.01121 -0.0282,-0.113066 c -0.0438,-0.175872 -1.63723,-5.697681 -1.66439,-5.767666 -0.0298,-0.07678 -0.0381,-0.05209 -0.26206,0.782252 -0.23832,0.887684 -0.52382,1.639937 -0.95302,2.511089 -0.57237,1.161737 -1.25664,2.151613 -1.936,2.800673 -0.78527,0.750241 -1.51769,1.077562 -2.38998,1.068089 -0.22989,-0.0025 -0.49274,-0.0194 -0.58411,-0.03757 l 0,0 z m 2.40311,-3.608572 c 0.65289,-0.244143 1.31734,-1.040834 1.94771,-2.335332 0.5148,-1.057172 0.81294,-1.925376 0.9892,-2.880644 l 0.098,-0.531207 -0.51795,-1.815257 c -0.28487,-0.998392 -0.52627,-1.824299 -0.53644,-1.835351 -0.0476,-0.05173 -0.89548,1.194104 -1.51614,2.227738 -1.3296,2.214314 -2.04764,3.842108 -2.27062,5.147547 -0.14613,0.855482 -0.0523,1.397606 0.30678,1.772349 0.34186,0.356779 0.94515,0.457429 1.49944,0.250157 l 0,0 z"
               id="path4184"
               inkscape:connector-curvature="0" />
            <path
               style="color:#000000;fill:#ffc728;fill-opacity:1;fill-rule:nonzero;stroke:none;stroke-width:2;marker:none;visibility:visible;display:inline;overflow:visible;enable-background:accumulate"
               d="m -178.9384,-35.31391 0,-0.476395 0.95279,0 0.95279,0 0,-7.083791 0,-7.083791 -0.95279,0 -0.95279,0 0,-0.476396 0,-0.476395 3.52118,0 3.52119,0 0,0.476395 0,0.476396 -0.8078,0 -0.8078,0 0,2.816946 0,2.816946 2.54768,0 2.54767,0 0,-2.816946 0,-2.816946 -0.76637,0 -0.76638,0 0,-0.476396 0,-0.476395 3.50047,0 3.50047,0 0,0.476395 0,0.476396 -0.95279,0 -0.95279,0 0,7.083791 0,7.083791 0.95279,0 0.95279,0 0,0.476395 0,0.476396 -3.50047,0 -3.50047,0 0,-0.476396 0,-0.476395 0.7666,0 0.7666,0 -0.0106,-3.717955 -0.0106,-3.717954 -2.53732,-0.01067 -2.53732,-0.01067 0,3.727735 0,3.727735 0.79744,0.01125 0.79744,0.01125 0.0117,0.466039 0.0117,0.466039 -3.52254,0 -3.52254,0 0,-0.476396 z"
               id="path4186"
               inkscape:connector-curvature="0" />
            <path
               style="color:#000000;fill:#ffc728;fill-opacity:1;fill-rule:nonzero;stroke:none;stroke-width:2;marker:none;visibility:visible;display:inline;overflow:visible;enable-background:accumulate"
               d="m -139.71545,-29.462532 c -0.0759,-0.05127 -0.17883,-0.177095 -0.22881,-0.279624 -0.05,-0.102528 -0.22478,-0.708379 -0.38843,-1.346334 -0.37946,-1.479264 -0.54862,-2.026955 -0.76073,-2.462974 -0.30051,-0.617762 -0.73426,-0.956579 -1.49971,-1.17148 l -0.33141,-0.09304 -6.3692,-0.0119 -6.3692,-0.0119 0,-0.475261 0,-0.47526 0.9528,0 0.95279,0 0,-7.083791 0,-7.083791 -0.95279,0 -0.9528,0 0,-0.476396 0,-0.476395 3.52119,0 3.52118,0 0,0.476395 0,0.476396 -0.8078,0 -0.8078,0 0,7.083791 0,7.083791 2.50625,0 2.50626,0 0,-7.083791 0,-7.083791 -0.78709,0 -0.78709,0 0,-0.476396 0,-0.476395 3.52118,0 3.52119,0 0,0.476395 0,0.476396 -0.9528,0 -0.95279,0 0,7.083791 0,7.083791 0.63175,-2.48e-4 c 0.3719,-1.66e-4 0.91287,-0.03412 1.31526,-0.0826 0.86952,-0.104748 1.25147,-0.105826 1.47061,-0.0041 0.33534,0.155592 0.56745,0.513998 0.62173,0.960039 0.0428,0.351864 -0.0679,0.844162 -0.456,2.026759 -0.40911,1.246762 -0.53203,1.715367 -0.6435,2.453202 -0.0927,0.613517 -0.19344,0.870713 -0.38747,0.989023 -0.17693,0.107888 -0.435,0.101828 -0.60677,-0.01425 l 0,-6e-6 z"
               id="path4188"
               inkscape:connector-curvature="0" />
            <path
               style="color:#000000;fill:#ffc728;fill-opacity:1;fill-rule:nonzero;stroke:none;stroke-width:2;marker:none;visibility:visible;display:inline;overflow:visible;enable-background:accumulate"
               d="m -130.68096,-35.31391 0,-0.476395 0.95279,0 0.95279,0 0,-7.083791 0,-7.083791 -0.95279,0 -0.95279,0 0,-0.476396 0,-0.476395 3.52118,0 3.52119,0 0,0.476395 0,0.476396 -0.8078,0 -0.80781,0 0,4.328983 c 0,2.380941 0.014,4.327958 0.0311,4.326703 0.0171,-0.0013 1.16355,-1.390319 2.54768,-3.086811 l 2.51661,-3.08453 0,-1.242173 0,-1.242172 -0.78708,0 -0.78709,0 0,-0.476396 0,-0.476395 3.52118,0 3.52118,0 0,0.476395 0,0.476396 -0.95279,0 -0.95279,0 0,7.083791 0,7.083791 0.95279,0 0.95279,0 0,0.476395 0,0.476396 -3.52254,0 -3.52254,0 0.0117,-0.466039 0.0117,-0.466039 0.77673,-0.01127 0.77673,-0.01127 0,-5.082609 c 0,-4.360192 -0.008,-5.073987 -0.0581,-5.021949 -0.0319,0.03336 -1.17839,1.427687 -2.54768,3.0985 l -2.48963,3.03784 0,1.984129 0,1.984128 0.79745,0.01125 0.79744,0.01125 0.0117,0.466039 0.0117,0.466039 -3.52254,0 -3.52254,0 0,-0.476396 z"
               id="path4190"
               inkscape:connector-curvature="0" />
          </g>
          <g
             transform="matrix(0.99997827,-0.00659238,0.00659238,0.99997827,-0.97895275,-1.3384316)"
             id="g4638">
            <path
               inkscape:connector-curvature="0"
               id="path4210"
               d="m -255.20307,149.4765 c -0.53744,-0.44515 -0.72981,-1.05699 -0.5569,-1.7711 0.066,-0.27319 0.43835,-0.97053 0.66904,-1.253 0.90437,-1.10893 2.11489,-1.97077 4.92173,-3.50404 0.98187,-0.53635 1.20946,-0.68185 1.47759,-0.94455 0.18802,-0.18425 0.41941,-0.53486 0.4989,-0.75615 l 0.0471,-0.13114 -0.50257,-0.30139 -0.50257,-0.30141 0.15188,-0.28534 0.15187,-0.28531 2.04088,1.22395 2.04091,1.22394 -0.15188,0.28534 -0.15188,0.28532 -0.51899,-0.31126 c -0.40484,-0.24277 -0.52051,-0.30225 -0.52497,-0.27202 -0.005,0.0219 -0.51026,2.32754 -1.1266,5.12441 l -1.12063,5.08521 0.46103,0.27656 0.461,0.27653 -0.15187,0.28532 -0.15188,0.28533 -1.97941,-1.18708 -1.97942,-1.18709 0.15187,-0.28531 0.15189,-0.28535 0.50571,0.3033 c 0.47036,0.28209 0.50657,0.29941 0.5165,0.24987 0.006,-0.0293 0.19527,-0.88207 0.42075,-1.89489 0.52092,-2.33966 0.50327,-2.25704 0.48131,-2.25065 -0.0101,0.002 -0.13936,0.1378 -0.28693,0.29957 -1.4623,1.60273 -3.3708,2.61988 -4.53754,2.41834 -0.35097,-0.0607 -0.63386,-0.19048 -0.9058,-0.41573 z m 2.33468,-1.45854 c 0.23728,0.0677 0.47557,0.0528 0.79905,-0.0498 0.8333,-0.26454 2.02761,-1.19179 2.77085,-2.15187 l 0.16189,-0.20906 0.28923,-1.28266 c 0.15908,-0.70545 0.28755,-1.29025 0.2855,-1.29948 -0.003,-0.0217 -0.046,-0.002 -0.54744,0.25092 -1.09321,0.55308 -2.42641,1.41718 -3.1672,2.0529 -0.36688,0.31482 -0.72182,0.68844 -0.93985,0.9892 -0.34337,0.47382 -0.42318,0.94951 -0.2152,1.2835 0.12961,0.20811 0.31588,0.34583 0.56325,0.41637 l 0,0 z"
               style="color:#000000;fill:#ffc728;fill-opacity:1;fill-rule:nonzero;stroke:none;stroke-width:2;marker:none;visibility:visible;display:inline;overflow:visible;enable-background:accumulate" />
            <path
               inkscape:connector-curvature="0"
               id="path4212"
               d="m -242.5239,155.45993 0.11438,-0.30446 0.5898,0.25086 0.5898,0.25085 1.72607,-4.59428 1.72606,-4.59426 -0.58979,-0.25085 -0.58981,-0.25086 0.11438,-0.30444 0.11436,-0.30442 2.16263,0.91979 2.16257,0.91976 -0.11438,0.30444 -0.11437,0.30442 -0.48495,-0.20623 -0.48493,-0.20626 -0.74867,1.99269 -0.74867,1.99271 0.26088,0.11093 0.26086,0.11095 0.16188,-0.13851 c 0.089,-0.0763 0.27403,-0.25389 0.41107,-0.39492 0.36206,-0.37254 1.59439,-1.5364 1.99866,-1.88762 0.90547,-0.78661 1.49641,-1.05801 2.20188,-1.0112 0.18163,0.0119 0.25849,0.0354 0.61381,0.18696 0.44088,0.18794 0.66583,0.33222 0.92624,0.59395 0.10904,0.10951 0.13179,0.14807 0.10533,0.17752 -0.42701,0.47325 -0.58291,0.68678 -0.75325,1.03163 -0.0973,0.19696 -0.20602,0.43482 -0.24163,0.52856 -0.0933,0.24614 -0.10561,0.25461 -0.26732,0.18583 -0.10787,-0.046 -0.21198,-0.13331 -0.47713,-0.4005 -0.31588,-0.31838 -0.3564,-0.35023 -0.58996,-0.46389 -0.24319,-0.11829 -0.25717,-0.12154 -0.46186,-0.10587 -0.41523,0.0314 -1.11517,0.42157 -1.94338,1.08229 -0.52971,0.4226 -1.16817,0.99548 -1.15043,1.03228 0.006,0.0176 0.13187,0.12147 0.27457,0.23131 0.59652,0.45945 1.17363,1.06712 1.53569,1.61696 0.24407,0.37066 0.50607,0.97305 0.60046,1.38047 0.0848,0.36557 0.12502,0.86972 0.10226,1.27754 -0.0313,0.55411 -0.18967,1.31744 -0.37769,1.82019 -0.14939,0.39941 -0.1758,0.35181 0.31013,0.55851 l 0.41636,0.17707 -0.1144,0.30442 -0.11436,0.30444 -1.91357,-0.81385 -1.91356,-0.81387 0.11438,-0.30443 0.11437,-0.30445 0.27524,0.11707 0.27523,0.11704 0.16351,-0.43601 c 0.37646,-1.00396 0.60667,-2.0533 0.59612,-2.71711 -0.004,-0.28184 -0.0721,-0.66718 -0.16428,-0.93379 -0.13088,-0.38101 -0.4949,-0.91212 -0.85568,-1.24954 -0.16912,-0.15812 -0.47,-0.39861 -0.53147,-0.42475 -0.044,-0.0186 -0.0913,0.0999 -0.92498,2.31891 l -0.87864,2.33866 0.43253,0.18395 0.43251,0.18397 -0.11439,0.30443 -0.11435,0.30445 -2.11019,-0.89748 -2.11015,-0.89749 0.11437,-0.30444 z"
               style="color:#000000;fill:#ffc728;fill-opacity:1;fill-rule:nonzero;stroke:none;stroke-width:2;marker:none;visibility:visible;display:inline;overflow:visible;enable-background:accumulate" />
            <path
               inkscape:connector-curvature="0"
               id="path4214"
               d="m -223.55309,163.00982 c -0.56094,-0.14501 -1.08948,-0.32782 -1.51666,-0.52471 l -0.22602,-0.1042 0.0666,-0.3361 c 0.14484,-0.73419 -0.005,-1.3265 -0.66224,-2.62965 -0.75029,-1.48612 -0.88008,-1.86342 -0.9224,-2.68056 -0.0438,-0.84808 0.23874,-2.03473 0.68208,-2.86668 0.84666,-1.58884 2.48695,-2.41292 4.51447,-2.26804 0.42602,0.0305 1.12859,0.16212 1.50724,0.28256 1.55761,0.49532 2.65485,1.55607 2.96014,2.86171 l 0.0575,0.24626 0.35384,0.0696 0.35382,0.0696 -0.0551,0.3227 -0.0551,0.32267 -1.83163,-0.36009 -1.83161,-0.3601 0.0549,-0.32154 0.0549,-0.32154 0.23432,0.0372 0.23435,0.0372 -0.0248,-0.26261 c -0.10363,-1.0897 -0.65809,-1.73628 -1.65706,-1.93265 -0.48483,-0.0953 -0.89206,-0.023 -1.27371,0.22641 -0.5559,0.36318 -1.03501,1.12735 -1.30168,2.07637 -0.0906,0.32248 -0.27866,1.44869 -0.24951,1.49351 0.008,0.0131 0.13859,-0.0404 0.28878,-0.11912 0.51483,-0.27059 1.10585,-0.41146 1.69625,-0.4044 0.35424,0.005 0.97232,0.12534 1.27104,0.24894 0.9067,0.37527 1.59157,1.13812 1.77632,1.97859 l 0.0416,0.18713 0.30074,0.059 0.30071,0.059 -0.0577,0.33755 -0.0577,0.33755 -1.83725,-0.36901 -1.83726,-0.36899 0.0482,-0.3316 0.0482,-0.3316 0.27843,0.0548 c 0.21424,0.042 0.28005,0.0452 0.28517,0.0153 0.019,-0.11126 -0.11792,-0.46898 -0.26722,-0.6991 -0.20649,-0.31786 -0.33816,-0.39804 -0.73054,-0.44546 -0.48844,-0.0591 -0.92543,0.0172 -1.29192,0.22376 -0.33854,0.19138 -0.32251,0.1537 -0.31641,0.72864 0.006,0.56339 0.0245,0.8889 0.0928,1.63369 0.088,0.95251 0.0782,1.62422 -0.0352,2.29736 -0.0579,0.34432 -0.0922,0.47962 -0.15785,0.62082 -0.12465,0.26746 -0.12492,0.27981 -0.007,0.35738 0.1603,0.10547 0.85651,0.23108 1.20179,0.21698 1.00892,-0.0414 1.71524,-0.52012 2.23031,-1.51171 0.22832,-0.43956 0.24329,-0.40313 -0.20151,-0.49058 l -0.37465,-0.0736 0.0527,-0.30802 0.0527,-0.308 1.9565,0.38466 1.9565,0.38464 -0.052,0.304 -0.052,0.304 -0.28543,-0.0292 -0.28541,-0.0291 -0.21274,0.2462 c -1.03734,1.20058 -2.51299,1.94819 -3.88414,1.96772 -0.27537,0.004 -1.00547,-0.10321 -1.40199,-0.2056 z"
               style="color:#000000;fill:#ffc728;fill-opacity:1;fill-rule:nonzero;stroke:none;stroke-width:2;marker:none;visibility:visible;display:inline;overflow:visible;enable-background:accumulate" />
            <path
               inkscape:connector-curvature="0"
               id="path4216"
               d="m -212.81441,166.51044 c -0.0995,-0.0296 -0.17524,-0.10747 -0.21556,-0.22132 -0.0203,-0.0556 -0.0578,-0.44047 -0.0841,-0.85469 -0.0511,-0.78922 -0.0789,-0.98631 -0.23712,-1.67002 -0.14661,-0.63372 -0.10769,-0.8425 0.17879,-0.9507 0.12774,-0.048 0.32043,-0.033 0.76151,0.0592 0.253,0.0531 0.28633,0.0538 0.37416,0.01 0.10803,-0.055 0.21423,-0.2067 0.27565,-0.39405 0.0225,-0.0688 0.10943,-0.39342 0.19306,-0.72147 0.4457,-1.74796 1.20801,-3.31606 2.48292,-5.10755 0.78339,-1.10083 1.05413,-1.63873 1.12243,-2.22993 0.0449,-0.39156 -0.0519,-0.60612 -0.34935,-0.77007 -0.0929,-0.0514 -0.24519,-0.0843 -0.6988,-0.15167 l -0.58003,-0.0862 0.0349,-0.32295 0.0349,-0.32293 2.47971,0.31236 2.47973,0.3124 -0.035,0.32589 -0.0351,0.32593 -0.42313,-0.0533 -0.42315,-0.0533 -0.005,0.21727 c -0.0281,1.53303 0.0856,3.78041 0.29176,5.7649 0.23882,2.2988 0.48387,3.67623 0.71144,4.00094 0.0784,0.112 0.14449,0.12154 0.40229,0.0584 0.30644,-0.075 0.4809,-0.0665 0.62556,0.0313 0.13728,0.0927 0.19115,0.22043 0.17662,0.41887 -0.0129,0.17915 -0.0459,0.26943 -0.27221,0.74957 -0.25386,0.53867 -0.40597,0.95457 -0.55613,1.52047 -0.13992,0.52757 -0.19741,0.65504 -0.34318,0.76138 -0.0867,0.0633 -0.13036,0.0742 -0.24257,0.0606 -0.25282,-0.0319 -0.35258,-0.23718 -0.38333,-0.78902 -0.0641,-1.1429 -0.44878,-1.83934 -1.18294,-2.13854 -0.39857,-0.16248 -0.73546,-0.22186 -2.27982,-0.40188 -1.54637,-0.18019 -1.77717,-0.19178 -2.1921,-0.10999 -0.32444,0.0639 -0.6104,0.25673 -0.85899,0.57904 -0.20737,0.26884 -0.35871,0.58024 -0.59295,1.22018 -0.12485,0.34103 -0.25036,0.55117 -0.35522,0.59463 -0.0944,0.0391 -0.20532,0.0506 -0.28004,0.0283 l 0,0 z m 5.83698,-2.8 c 0.002,-0.008 -0.078,-0.58282 -0.17592,-1.27595 -0.26967,-1.91019 -0.33261,-2.48283 -0.48173,-4.35689 -0.0753,-0.94833 -0.14257,-1.73174 -0.14939,-1.74092 -0.0222,-0.0295 -0.47061,0.49758 -0.76318,0.89698 -0.82372,1.12441 -1.7082,2.89977 -2.07814,4.17118 -0.13942,0.47902 -0.20176,1.0647 -0.13988,1.30883 0.0765,0.29945 0.27447,0.48041 0.63771,0.58266 0.17716,0.0499 3.14756,0.44024 3.15039,0.41405 l 0,0 z"
               style="color:#000000;fill:#ffc728;fill-opacity:1;fill-rule:nonzero;stroke:none;stroke-width:2;marker:none;visibility:visible;display:inline;overflow:visible;enable-background:accumulate" />
            <path
               inkscape:connector-curvature="0"
               id="path4218"
               d="m -194.5663,165.40176 c -0.75073,-0.38994 -2.90471,-2.26495 -3.38625,-2.94762 -0.48857,-0.69267 -0.74677,-1.36053 -0.86507,-2.23739 -0.17971,-1.32958 0.18721,-2.70888 1.05748,-3.97891 0.38108,-0.55618 0.88211,-1.1141 1.73195,-1.92863 0.15488,-0.14836 0.3695,-0.3638 0.47698,-0.47867 0.32158,-0.34363 0.63491,-0.46164 0.84149,-0.31702 0.0513,0.036 0.28147,0.2516 0.51165,0.4794 0.23017,0.22778 0.76785,0.7129 1.19486,1.07803 1.41787,1.21236 1.90681,1.81232 2.24902,2.75969 0.26269,0.72713 0.3491,1.67418 0.22709,2.48788 -0.10421,0.69503 -0.34837,1.28647 -0.81479,1.97427 -0.0974,0.14367 -0.51783,0.66344 -0.9343,1.15509 -1.26532,1.49373 -1.75525,1.9909 -2.00239,2.03198 -0.0805,0.0139 -0.14543,-0.004 -0.28762,-0.0781 l 0,0 z m 1.63022,-2.45263 c 0.37789,-0.33221 0.73862,-0.82289 0.89206,-1.21325 0.32913,-0.83739 0.16102,-1.51508 -0.62162,-2.50599 -0.21437,-0.27144 -0.85698,-0.97256 -1.87941,-2.05066 -0.7875,-0.8304 -1.06861,-1.18179 -1.18654,-1.48303 -0.0238,-0.0605 -0.0564,-0.10967 -0.0733,-0.10875 -0.0166,-1.9e-4 -0.12316,0.0335 -0.2372,0.0717 -0.42875,0.14591 -0.78886,0.43672 -1.05336,0.8507 -0.29936,0.46843 -0.40789,0.83659 -0.40038,1.35821 0.004,0.28374 0.0177,0.38597 0.0776,0.58527 0.14144,0.47589 0.41592,0.95527 0.89448,1.56398 0.38809,0.49343 0.76235,0.89366 1.61711,1.72918 0.91147,0.89094 1.06692,1.09202 1.20904,1.56416 l 0.0382,0.12582 0.26983,-0.16315 c 0.14847,-0.0894 0.35286,-0.23562 0.45418,-0.32462 l 0,0 z"
               style="color:#000000;fill:#ffc728;fill-opacity:1;fill-rule:nonzero;stroke:none;stroke-width:2;marker:none;visibility:visible;display:inline;overflow:visible;enable-background:accumulate" />
            <path
               inkscape:connector-curvature="0"
               id="path4220"
               d="m -183.24129,162.58681 -0.12674,-0.30116 0.56669,-0.26016 0.56671,-0.26014 -1.91244,-4.54446 -1.91247,-4.54445 -0.5667,0.26014 -0.56671,0.26015 -0.12674,-0.30116 -0.12674,-0.30113 2.1123,-0.96945 2.1123,-0.96944 0.12674,0.30113 0.12675,0.30115 -0.47654,0.21873 -0.47653,0.21878 0.76037,1.80682 0.76039,1.80685 1.53268,-0.70345 1.53272,-0.70345 -0.76036,-1.80683 -0.7604,-1.80684 -0.46366,0.2128 -0.46369,0.21282 -0.12674,-0.30116 -0.12674,-0.30112 2.11231,-0.96947 2.11228,-0.96944 0.12673,0.30112 0.12674,0.30115 -0.5796,0.26603 -0.57957,0.266 1.91247,4.5445 1.91244,4.54445 0.57959,-0.26604 0.57959,-0.266 0.12674,0.30115 0.12673,0.30113 -2.11227,0.96945 -2.11232,0.96947 -0.12674,-0.30114 -0.12673,-0.30117 0.46377,-0.21291 0.4638,-0.21294 -1.01181,-2.38553 -1.01182,-2.38554 -1.52923,0.69342 -1.52923,0.69348 1.00815,2.39564 1.00816,2.39564 0.47655,-0.21877 0.47656,-0.21877 0.12674,0.30118 0.12684,0.3011 -2.1123,0.96946 -2.11231,0.96946 -0.12674,-0.30113 z"
               style="color:#000000;fill:#ffc728;fill-opacity:1;fill-rule:nonzero;stroke:none;stroke-width:2;marker:none;visibility:visible;display:inline;overflow:visible;enable-background:accumulate" />
            <path
               inkscape:connector-curvature="0"
               id="path4222"
               d="m -167.23129,156.00358 -0.14584,-0.2905 0.54755,-0.30559 0.54754,-0.30558 -2.20087,-4.38377 -2.20087,-4.38379 -0.54751,0.30558 -0.54755,0.30558 -0.14582,-0.29048 -0.14584,-0.29053 2.04092,-1.1388 2.04094,-1.1388 0.14582,0.2905 0.1458,0.2905 -0.46043,0.25697 -0.46042,0.25697 1.34855,2.6861 c 1.17257,2.33562 1.3508,2.6784 1.36492,2.62748 0.009,-0.0322 0.24279,-1.26512 0.51958,-2.73967 l 0.50323,-2.68103 -0.38721,-0.77281 -0.38718,-0.77276 -0.44802,0.24999 -0.44801,0.24995 -0.14581,-0.2905 -0.14584,-0.29048 2.04091,-1.13882 2.04094,-1.13879 0.14581,0.29049 0.14582,0.29048 -0.56002,0.31249 -0.55999,0.31249 2.20085,4.38379 2.20087,4.38378 0.56,-0.31248 0.56,-0.3125 0.14584,0.29052 0.14582,0.29051 -2.04093,1.13879 -2.04093,1.13881 -0.14581,-0.29049 -0.14582,-0.2905 0.44801,-0.24998 0.44798,-0.25006 -1.58037,-3.14788 c -0.93935,-1.87101 -1.58443,-3.13261 -1.59021,-3.11028 -0.007,0.0208 -0.23969,1.25334 -0.52056,2.7392 l -0.5107,2.70162 0.62003,1.23498 0.62001,1.23501 0.46044,-0.25698 0.46044,-0.25698 0.14583,0.29052 0.14583,0.2905 -2.04092,1.13881 -2.04092,1.13879 -0.14581,-0.2905 z"
               style="color:#000000;fill:#ffc728;fill-opacity:1;fill-rule:nonzero;stroke:none;stroke-width:2;marker:none;visibility:visible;display:inline;overflow:visible;enable-background:accumulate" />
            <path
               inkscape:connector-curvature="0"
               id="path4224"
               d="m -152.16342,147.60424 c -1.46369,0.64745 -2.70799,0.35135 -3.42314,-0.81541 l -0.13492,-0.22012 0.88808,-0.51537 0.8881,-0.51536 0.18872,0.32536 c 0.32637,0.56229 0.71149,0.93692 1.07952,1.05012 0.261,0.0802 0.567,0.0463 0.80401,-0.0894 0.39419,-0.22545 0.32147,-0.8934 -0.25321,-2.3249 -0.0823,-0.20376 -0.69675,-1.41376 -1.86407,-3.66765 l -1.74186,-3.36335 -0.55667,0.32301 -0.55665,0.32304 -0.15027,-0.28798 -0.15027,-0.28796 2.12163,-1.23118 2.12165,-1.23117 0.15026,0.28797 0.15023,0.28797 -0.54529,0.31645 -0.54533,0.31647 1.71065,3.2621 c 1.56251,2.97825 1.72033,3.28858 1.81631,3.56956 0.63197,1.84633 0.11257,3.3163 -1.49383,4.22758 -0.16369,0.0928 -0.39054,0.20998 -0.50412,0.26027 l 0,0 z"
               style="color:#000000;fill:#ffc728;fill-opacity:1;fill-rule:nonzero;stroke:none;stroke-width:2;marker:none;visibility:visible;display:inline;overflow:visible;enable-background:accumulate" />
            <path
               style="color:#000000;fill:#ffc728;fill-opacity:1;fill-rule:nonzero;stroke:none;stroke-width:2;marker:none;visibility:visible;display:inline;overflow:visible;enable-background:accumulate"
               d="m -271.04596,136.6057 c -0.085,-0.097 -0.40425,-0.40994 -0.70929,-0.69526 l -0.55452,-0.51897 -0.0108,-0.12613 c -0.0466,-0.53462 0.95781,-1.66622 2.11165,-2.37898 0.77063,-0.47606 1.48575,-0.72888 3.12976,-1.10646 2.1044,-0.48335 2.76994,-0.70057 3.3567,-1.09563 0.23469,-0.15802 0.59074,-0.51824 0.69127,-0.69942 l 0.0528,-0.0947 -0.41421,-0.38294 -0.41424,-0.38295 0.20339,-0.24665 0.20343,-0.24665 1.6288,1.5058 1.62883,1.5058 -0.2034,0.24667 -0.20338,0.24667 -0.33232,-0.30721 c -0.25688,-0.2375 -0.33543,-0.29866 -0.3456,-0.27007 -0.009,0.0204 -0.98777,1.9104 -2.17881,4.19997 -1.19103,2.28957 -2.16532,4.17608 -2.16508,4.19229 2.9e-4,0.0161 1.58196,-1.28686 3.51491,-2.89561 1.93301,-1.60878 3.5334,-2.93867 3.55647,-2.95538 0.038,-0.0274 0.0197,-0.0512 -0.20538,-0.25903 l -0.24735,-0.22864 0.20339,-0.24666 0.20341,-0.24665 1.52235,1.40736 1.52236,1.40741 -0.20339,0.24666 -0.20337,0.24665 -0.36434,-0.33681 -0.36435,-0.33682 -0.0465,0.0853 c -0.0255,0.0469 -1.06057,2.03774 -2.29988,4.42397 l -2.25329,4.33857 0.38233,0.36366 0.38239,0.36365 -0.20298,0.24616 -0.203,0.24614 -1.52236,-1.40739 -1.52234,-1.4074 0.20338,-0.24665 0.2034,-0.24666 0.25552,0.2362 c 0.14051,0.12991 0.26142,0.22899 0.26844,0.22048 0.0172,-0.0208 3.88861,-7.44609 3.90937,-7.498 0.0102,-0.0223 0.008,-0.0398 -7.2e-4,-0.039 -0.0174,8.8e-4 -6.29336,5.24095 -6.32858,5.28364 -0.0145,0.0174 0.0706,0.10978 0.27727,0.30083 l 0.29809,0.27555 -0.2034,0.24669 -0.20341,0.24665 -1.66076,-1.53533 -1.66076,-1.53534 0.2034,-0.24666 0.2034,-0.24667 0.30057,0.27787 c 0.30025,0.27758 0.30058,0.27783 0.33291,0.21882 0.2798,-0.51103 3.76103,-7.22213 3.75112,-7.23144 -0.007,-0.009 -0.15566,0.0332 -0.32901,0.0902 -1.47776,0.48336 -2.62827,1.09794 -3.53594,1.88883 -0.40217,0.35044 -0.89975,0.97904 -1.42696,1.80276 -0.53847,0.8413 -1.14296,1.63008 -1.30663,1.70499 -0.0554,0.025 -0.13676,0.0345 -0.18115,0.0208 -0.1245,-0.0385 -0.32263,-0.19517 -0.49295,-0.38974 l 0,0 z"
               id="path4208"
               inkscape:connector-curvature="0" />
            <path
               style="color:#000000;fill:#ffc728;fill-opacity:1;fill-rule:nonzero;stroke:none;stroke-width:2;marker:none;visibility:visible;display:inline;overflow:visible;enable-background:accumulate"
               d="m -141.85499,140.89694 c -0.59094,0.3541 -1.19572,0.30666 -1.75754,-0.13783 -0.21265,-0.1682 -0.68133,-0.80071 -0.84363,-1.13777 -0.30226,-0.62933 -0.55611,-1.43553 -0.74179,-2.35601 -0.19205,-0.95194 -0.30131,-1.83344 -0.46789,-3.77523 -0.10337,-1.20312 -0.14426,-1.48036 -0.27359,-1.84518 -0.0905,-0.255 -0.30976,-0.61662 -0.47383,-0.77939 l -0.0969,-0.0967 -0.45229,0.37548 -0.45229,0.37548 -0.19228,-0.25865 -0.19226,-0.25862 1.83667,-1.52482 1.83665,-1.5248 0.19228,0.25862 0.19229,0.25864 -0.46708,0.38776 c -0.36433,0.30239 -0.45975,0.39278 -0.43513,0.40881 0.0179,0.0113 1.84234,1.39689 4.05513,3.07846 l 4.02319,3.05747 0.415,-0.34457 0.41498,-0.34455 0.19229,0.25865 0.19227,0.25862 -1.78135,1.47889 -1.78135,1.47891 -0.19228,-0.25864 -0.19225,-0.25863 0.45515,-0.37783 c 0.42334,-0.35143 0.45201,-0.38017 0.41236,-0.40888 -0.0233,-0.0173 -0.75123,-0.57218 -1.61717,-1.23355 -0.86591,-0.66135 -1.59893,-1.21637 -1.62887,-1.23333 -0.0465,-0.0262 -0.0468,-0.0121 -0.001,0.0965 0.49096,1.18844 0.70667,1.9515 0.82797,2.92898 0.21981,1.77092 -0.11484,2.92059 -1.00547,3.45424 z m -0.39755,-2.84691 c 0.0577,-0.0802 0.12897,-0.2109 0.15856,-0.29026 0.29849,-0.80062 -0.0472,-2.69142 -0.74085,-4.05105 l -0.12186,-0.23874 -1.01863,-0.78217 c -0.56025,-0.43018 -1.02398,-0.77752 -1.03055,-0.77185 -0.0418,0.0368 0.0664,1.37151 0.1817,2.24425 0.17044,1.28636 0.42424,2.36448 0.7322,3.11045 0.13961,0.33821 0.18811,0.42647 0.37604,0.68445 0.2023,0.27842 0.22556,0.30192 0.38275,0.38571 0.19576,0.10491 0.33966,0.1334 0.50515,0.1 0.23083,-0.0466 0.42126,-0.17588 0.57529,-0.39097 l 0,0 z"
               id="path4226"
               inkscape:connector-curvature="0" />
          </g>
          <rect
             y="-19.772446"
             x="-212.63431"
             height="145.33215"
             width="11.576446"
             id="rect4300"
             style="fill:#0000cc;fill-opacity:1;fill-rule:nonzero;stroke:#ffc728;stroke-width:2;stroke-miterlimit:4;stroke-opacity:1;stroke-dasharray:none" />
          <rect
             transform="matrix(0,1,-1,0,0,0)"
             y="131.94351"
             x="46.701511"
             height="149.1655"
             width="11.576446"
             id="rect4300-8"
             style="fill:#0000cc;fill-opacity:1;fill-rule:nonzero;stroke:#ffc728;stroke-width:2;stroke-miterlimit:4;stroke-opacity:1;stroke-dasharray:none" />
          <rect
             transform="matrix(0.68307946,0.73034407,-0.73034407,0.68307946,0,0)"
             y="114.20186"
             x="-108.69303"
             height="145.33215"
             width="11.576446"
             id="rect4300-5"
             style="fill:#0000cc;fill-opacity:1;fill-rule:nonzero;stroke:#ffc728;stroke-width:2;stroke-miterlimit:4;stroke-opacity:1;stroke-dasharray:none" />
          <rect
             transform="matrix(0.71717767,-0.69689037,0.69689037,0.71717767,0,0)"
             y="-178.87772"
             x="-190.89185"
             height="145.33215"
             width="11.576446"
             id="rect4300-0"
             style="fill:#0000cc;fill-opacity:1;fill-rule:nonzero;stroke:#ffc728;stroke-width:2;stroke-miterlimit:4;stroke-opacity:1;stroke-dasharray:none" />
          <path
             transform="translate(-7.3668292,-1.0524042)"
             d="m -164.17505,51.589409 c 0,20.342936 -16.02003,36.834144 -35.78174,36.834144 -19.76171,0 -35.78174,-16.491208 -35.78174,-36.834144 0,-20.342936 16.02003,-36.834145 35.78174,-36.834145 19.76171,0 35.78174,16.491209 35.78174,36.834145 z"
             sodipodi:ry="36.834145"
             sodipodi:rx="35.781742"
             sodipodi:cy="51.589409"
             sodipodi:cx="-199.95679"
             id="path4298"
             style="fill:#ffc728;fill-opacity:1;fill-rule:nonzero;stroke:none"
             sodipodi:type="arc" />
          <path
             transform="matrix(0.19970233,-0.09346922,0.41452976,0.76927155,-137.03051,-48.291249)"
             inkscape:transform-center-y="-5.4121807"
             inkscape:transform-center-x="0.75080892"
             d="m -443.83034,47.951665 -63.83443,0.894156 31.14285,-55.7293096 z"
             inkscape:randomized="0"
             inkscape:rounded="0"
             inkscape:flatsided="true"
             sodipodi:arg2="1.5567898"
             sodipodi:arg1="0.50959226"
             sodipodi:r2="18.429218"
             sodipodi:r1="36.858437"
             sodipodi:cy="29.971333"
             sodipodi:cx="-476.00568"
             sodipodi:sides="3"
             id="path4362"
             style="fill:#ffc728;fill-opacity:1;stroke:#ffc728;stroke-width:2;stroke-linecap:round;stroke-linejoin:miter;stroke-miterlimit:4;stroke-opacity:1;stroke-dasharray:none;stroke-dashoffset:0"
             sodipodi:type="star" />
          <path
             transform="matrix(0.09691755,-0.19805178,0.80534423,0.33916707,-217.90885,-65.266074)"
             inkscape:transform-center-y="0.13701818"
             inkscape:transform-center-x="6.0660678"
             d="m -443.83034,47.951665 -63.83443,0.894156 31.14285,-55.7293096 z"
             inkscape:randomized="0"
             inkscape:rounded="0"
             inkscape:flatsided="true"
             sodipodi:arg2="1.5567898"
             sodipodi:arg1="0.50959226"
             sodipodi:r2="18.429218"
             sodipodi:r1="36.858437"
             sodipodi:cy="29.971333"
             sodipodi:cx="-476.00568"
             sodipodi:sides="3"
             id="path4362-5"
             style="fill:#ffc728;fill-opacity:1;stroke:#ffc728;stroke-width:2;stroke-linecap:round;stroke-linejoin:miter;stroke-miterlimit:4;stroke-opacity:1;stroke-dasharray:none;stroke-dashoffset:0"
             sodipodi:type="star" />
          <path
             inkscape:transform-center-x="0.74403897"
             transform="matrix(-0.19962774,-0.09362841,0.32579986,-0.81084406,-326.20923,65.28369)"
             inkscape:transform-center-y="9.8802655"
             d="m -443.83034,47.951665 -63.83443,0.894156 31.14285,-55.7293096 z"
             inkscape:randomized="0"
             inkscape:rounded="0"
             inkscape:flatsided="true"
             sodipodi:arg2="1.5567898"
             sodipodi:arg1="0.50959226"
             sodipodi:r2="18.429218"
             sodipodi:r1="36.858437"
             sodipodi:cy="29.971333"
             sodipodi:cx="-476.00568"
             sodipodi:sides="3"
             id="path4362-3"
             style="fill:#ffc728;fill-opacity:1;stroke:#ffc728;stroke-width:2;stroke-linecap:round;stroke-linejoin:miter;stroke-miterlimit:4;stroke-opacity:1;stroke-dasharray:none;stroke-dashoffset:0"
             sodipodi:type="star" />
          <path
             transform="matrix(-0.06483041,-0.21074756,0.81938423,-0.30368259,-295.95003,-25.689722)"
             inkscape:transform-center-y="-0.47012122"
             inkscape:transform-center-x="6.3234241"
             d="m -443.83034,47.951665 -63.83443,0.894156 31.14285,-55.7293096 z"
             inkscape:randomized="0"
             inkscape:rounded="0"
             inkscape:flatsided="true"
             sodipodi:arg2="1.5567898"
             sodipodi:arg1="0.50959226"
             sodipodi:r2="18.429218"
             sodipodi:r1="36.858437"
             sodipodi:cy="29.971333"
             sodipodi:cx="-476.00568"
             sodipodi:sides="3"
             id="path4362-6"
             style="fill:#ffc728;fill-opacity:1;stroke:#ffc728;stroke-width:2;stroke-linecap:round;stroke-linejoin:miter;stroke-miterlimit:4;stroke-opacity:1;stroke-dasharray:none;stroke-dashoffset:0"
             sodipodi:type="star" />
          <path
             inkscape:transform-center-x="-2.4526549"
             transform="matrix(0.18810135,0.11504522,-0.41312176,0.7700286,-90.706329,50.752316)"
             inkscape:transform-center-y="-6.2160046"
             d="m -443.83034,47.951665 -63.83443,0.894156 31.14285,-55.7293096 z"
             inkscape:randomized="0"
             inkscape:rounded="0"
             inkscape:flatsided="true"
             sodipodi:arg2="1.5567898"
             sodipodi:arg1="0.50959226"
             sodipodi:r2="18.429218"
             sodipodi:r1="36.858437"
             sodipodi:cy="29.971333"
             sodipodi:cx="-476.00568"
             sodipodi:sides="3"
             id="path4362-2"
             style="fill:#ffc728;fill-opacity:1;stroke:#ffc728;stroke-width:2;stroke-linecap:round;stroke-linejoin:miter;stroke-miterlimit:4;stroke-opacity:1;stroke-dasharray:none;stroke-dashoffset:0"
             sodipodi:type="star" />
          <path
             transform="matrix(0.06370426,0.2110907,-0.82099399,0.29930336,-115.95644,130.05541)"
             inkscape:transform-center-y="0.51687907"
             inkscape:transform-center-x="-6.3560172"
             d="m -443.83034,47.951665 -63.83443,0.894156 31.14285,-55.7293096 z"
             inkscape:randomized="0"
             inkscape:rounded="0"
             inkscape:flatsided="true"
             sodipodi:arg2="1.5567898"
             sodipodi:arg1="0.50959226"
             sodipodi:r2="18.429218"
             sodipodi:r1="36.858437"
             sodipodi:cy="29.971333"
             sodipodi:cx="-476.00568"
             sodipodi:sides="3"
             id="path4362-34"
             style="fill:#ffc728;fill-opacity:1;stroke:#ffc728;stroke-width:2;stroke-linecap:round;stroke-linejoin:miter;stroke-miterlimit:4;stroke-opacity:1;stroke-dasharray:none;stroke-dashoffset:0"
             sodipodi:type="star" />
          <path
             transform="matrix(-0.20670239,0.07675703,-0.34996894,-0.80070929,-281.51522,145.9052)"
             inkscape:transform-center-y="5.9636694"
             inkscape:transform-center-x="-0.030729003"
             d="m -443.83034,47.951665 -63.83443,0.894156 31.14285,-55.7293096 z"
             inkscape:randomized="0"
             inkscape:rounded="0"
             inkscape:flatsided="true"
             sodipodi:arg2="1.5567898"
             sodipodi:arg1="0.50959226"
             sodipodi:r2="18.429218"
             sodipodi:r1="36.858437"
             sodipodi:cy="29.971333"
             sodipodi:cx="-476.00568"
             sodipodi:sides="3"
             id="path4362-59"
             style="fill:#ffc728;fill-opacity:1;stroke:#ffc728;stroke-width:2;stroke-linecap:round;stroke-linejoin:miter;stroke-miterlimit:4;stroke-opacity:1;stroke-dasharray:none;stroke-dashoffset:0"
             sodipodi:type="star" />
          <path
             transform="matrix(-0.09218217,0.20029968,-0.81317917,-0.319927,-191.53157,172.10671)"
             inkscape:transform-center-y="-0.34614651"
             inkscape:transform-center-x="-6.2149675"
             d="m -443.83034,47.951665 -63.83443,0.894156 31.14285,-55.7293096 z"
             inkscape:randomized="0"
             inkscape:rounded="0"
             inkscape:flatsided="true"
             sodipodi:arg2="1.5567898"
             sodipodi:arg1="0.50959226"
             sodipodi:r2="18.429218"
             sodipodi:r1="36.858437"
             sodipodi:cy="29.971333"
             sodipodi:cx="-476.00568"
             sodipodi:sides="3"
             id="path4362-35"
             style="fill:#ffc728;fill-opacity:1;stroke:#ffc728;stroke-width:2;stroke-linecap:round;stroke-linejoin:miter;stroke-miterlimit:4;stroke-opacity:1;stroke-dasharray:none;stroke-dashoffset:0"
             sodipodi:type="star" />
          <g
             style="fill:none;stroke:#0000cc;stroke-width:7.72825289;stroke-miterlimit:4;stroke-opacity:1;stroke-dasharray:none"
             transform="matrix(0.36122914,0.01137674,-0.01124743,0.37802723,224.93396,31.730517)"
             id="g4589">
            <path
               sodipodi:type="arc"
               style="fill:none;stroke:#0000cc;stroke-width:7.97993994;stroke-linecap:round;stroke-linejoin:miter;stroke-miterlimit:4;stroke-opacity:1;stroke-dasharray:none;stroke-dashoffset:0"
               id="path4530"
               sodipodi:cx="-1212.1523"
               sodipodi:cy="-215.60039"
               sodipodi:rx="41.433571"
               sodipodi:ry="42.315136"
               d="m -1170.7188,-215.60039 c 0,23.37001 -18.5504,42.31514 -41.4335,42.31514 -22.8832,0 -41.4336,-18.94513 -41.4336,-42.31514 0,-23.37 18.5504,-42.31513 41.4336,-42.31513 3.0386,0 6.0681,0.34139 9.0337,1.01801"
               sodipodi:start="0"
               sodipodi:end="4.932184"
               sodipodi:open="true"
               transform="matrix(-0.57169861,0.79302711,-0.74253551,-0.61057348,-2046.7434,859.10835)" />
            <path
               sodipodi:type="arc"
               style="fill:none;stroke:#0000cc;stroke-width:7.97993994;stroke-linecap:round;stroke-linejoin:miter;stroke-miterlimit:4;stroke-opacity:1;stroke-dasharray:none;stroke-dashoffset:0"
               id="path4530-2"
               sodipodi:cx="-1212.1523"
               sodipodi:cy="-215.60039"
               sodipodi:rx="41.433571"
               sodipodi:ry="42.315136"
               d="m -1170.7188,-215.60039 c 0,23.37001 -18.5504,42.31514 -41.4335,42.31514 -22.8832,0 -41.4336,-18.94513 -41.4336,-42.31514 0,-23.37 18.5504,-42.31513 41.4336,-42.31513 3.0386,0 6.0681,0.34139 9.0337,1.01801"
               sodipodi:start="0"
               sodipodi:end="4.932184"
               sodipodi:open="true"
               transform="matrix(0.79302711,0.57169861,-0.61057348,0.74253551,-420.70765,940.93188)" />
            <path
               sodipodi:type="arc"
               style="fill:none;stroke:#0000cc;stroke-width:7.97993994;stroke-linecap:round;stroke-linejoin:miter;stroke-miterlimit:4;stroke-opacity:1;stroke-dasharray:none;stroke-dashoffset:0"
               id="path4530-0"
               sodipodi:cx="-1212.1523"
               sodipodi:cy="-215.60039"
               sodipodi:rx="41.433571"
               sodipodi:ry="42.315136"
               d="m -1170.7188,-215.60039 c 0,23.37001 -18.5504,42.31514 -41.4335,42.31514 -22.8832,0 -41.4336,-18.94513 -41.4336,-42.31514 0,-23.37 18.5504,-42.31513 41.4336,-42.31513 3.0386,0 6.0681,0.34139 9.0337,1.01801"
               sodipodi:start="0"
               sodipodi:end="4.932184"
               sodipodi:open="true"
               transform="matrix(0.57169861,-0.79302711,0.74253551,0.61057348,-339.06456,-684.55017)" />
            <path
               sodipodi:type="arc"
               style="fill:none;stroke:#0000cc;stroke-width:7.97993994;stroke-linecap:round;stroke-linejoin:miter;stroke-miterlimit:4;stroke-opacity:1;stroke-dasharray:none;stroke-dashoffset:0"
               id="path4530-4"
               sodipodi:cx="-1212.1523"
               sodipodi:cy="-215.60039"
               sodipodi:rx="41.433571"
               sodipodi:ry="42.315136"
               d="m -1170.7188,-215.60039 c 0,23.37001 -18.5504,42.31514 -41.4335,42.31514 -22.8832,0 -41.4336,-18.94513 -41.4336,-42.31514 0,-23.37 18.5504,-42.31513 41.4336,-42.31513 3.0386,0 6.0681,0.34139 9.0337,1.01801"
               sodipodi:start="0"
               sodipodi:end="4.932184"
               sodipodi:open="true"
               transform="matrix(-0.79302711,-0.57169861,0.61057348,-0.74253551,-1965.0324,-767.16481)" />
          </g>
        </g>
      </g>
    </g>
  </g>
</svg>
