<?xml version="1.0" encoding="UTF-8" standalone="no"?>
<!-- Created with Inkscape (http://www.inkscape.org/) -->

<svg
   xmlns:dc="http://purl.org/dc/elements/1.1/"
   xmlns:cc="http://creativecommons.org/ns#"
   xmlns:rdf="http://www.w3.org/1999/02/22-rdf-syntax-ns#"
   xmlns:svg="http://www.w3.org/2000/svg"
   xmlns="http://www.w3.org/2000/svg"
   xmlns:xlink="http://www.w3.org/1999/xlink"
   xmlns:sodipodi="http://sodipodi.sourceforge.net/DTD/sodipodi-0.dtd"
   xmlns:inkscape="http://www.inkscape.org/namespaces/inkscape"
   width="500"
   height="1000"
   id="svg2"
   version="1.1"
   inkscape:version="0.48.1 "
   sodipodi:docname="Gevgelija.svg">
  <defs
     id="defs4">
    <linearGradient
       id="linearGradient3730">
      <stop
         style="stop-color:#000000;stop-opacity:1;"
         offset="0"
         id="stop3732" />
      <stop
         style="stop-color:#000000;stop-opacity:0;"
         offset="1"
         id="stop3734" />
    </linearGradient>
    <linearGradient
       inkscape:collect="always"
       id="linearGradient3718">
      <stop
         style="stop-color:#000000;stop-opacity:1;"
         offset="0"
         id="stop3720" />
      <stop
         style="stop-color:#000000;stop-opacity:0;"
         offset="1"
         id="stop3722" />
    </linearGradient>
    <inkscape:perspective
       sodipodi:type="inkscape:persp3d"
       inkscape:vp_x="0 : 526.18109 : 1"
       inkscape:vp_y="0 : 1000 : 0"
       inkscape:vp_z="744.09448 : 526.18109 : 1"
       inkscape:persp3d-origin="372.04724 : 350.78739 : 1"
       id="perspective10" />
    <inkscape:perspective
       id="perspective2824"
       inkscape:persp3d-origin="0.5 : 0.33333333 : 1"
       inkscape:vp_z="1 : 0.5 : 1"
       inkscape:vp_y="0 : 1000 : 0"
       inkscape:vp_x="0 : 0.5 : 1"
       sodipodi:type="inkscape:persp3d" />
    <inkscape:perspective
       id="perspective3612"
       inkscape:persp3d-origin="0.5 : 0.33333333 : 1"
       inkscape:vp_z="1 : 0.5 : 1"
       inkscape:vp_y="0 : 1000 : 0"
       inkscape:vp_x="0 : 0.5 : 1"
       sodipodi:type="inkscape:persp3d" />
    <inkscape:perspective
       id="perspective3643"
       inkscape:persp3d-origin="0.5 : 0.33333333 : 1"
       inkscape:vp_z="1 : 0.5 : 1"
       inkscape:vp_y="0 : 1000 : 0"
       inkscape:vp_x="0 : 0.5 : 1"
       sodipodi:type="inkscape:persp3d" />
    <inkscape:perspective
       id="perspective3665"
       inkscape:persp3d-origin="0.5 : 0.33333333 : 1"
       inkscape:vp_z="1 : 0.5 : 1"
       inkscape:vp_y="0 : 1000 : 0"
       inkscape:vp_x="0 : 0.5 : 1"
       sodipodi:type="inkscape:persp3d" />
    <inkscape:perspective
       id="perspective3687"
       inkscape:persp3d-origin="0.5 : 0.33333333 : 1"
       inkscape:vp_z="1 : 0.5 : 1"
       inkscape:vp_y="0 : 1000 : 0"
       inkscape:vp_x="0 : 0.5 : 1"
       sodipodi:type="inkscape:persp3d" />
    <inkscape:perspective
       id="perspective3711"
       inkscape:persp3d-origin="0.5 : 0.33333333 : 1"
       inkscape:vp_z="1 : 0.5 : 1"
       inkscape:vp_y="0 : 1000 : 0"
       inkscape:vp_x="0 : 0.5 : 1"
       sodipodi:type="inkscape:persp3d" />
    <inkscape:perspective
       id="perspective3733"
       inkscape:persp3d-origin="0.5 : 0.33333333 : 1"
       inkscape:vp_z="1 : 0.5 : 1"
       inkscape:vp_y="0 : 1000 : 0"
       inkscape:vp_x="0 : 0.5 : 1"
       sodipodi:type="inkscape:persp3d" />
    <inkscape:perspective
       id="perspective3755"
       inkscape:persp3d-origin="0.5 : 0.33333333 : 1"
       inkscape:vp_z="1 : 0.5 : 1"
       inkscape:vp_y="0 : 1000 : 0"
       inkscape:vp_x="0 : 0.5 : 1"
       sodipodi:type="inkscape:persp3d" />
    <inkscape:perspective
       id="perspective3777"
       inkscape:persp3d-origin="0.5 : 0.33333333 : 1"
       inkscape:vp_z="1 : 0.5 : 1"
       inkscape:vp_y="0 : 1000 : 0"
       inkscape:vp_x="0 : 0.5 : 1"
       sodipodi:type="inkscape:persp3d" />
    <inkscape:perspective
       id="perspective3799"
       inkscape:persp3d-origin="0.5 : 0.33333333 : 1"
       inkscape:vp_z="1 : 0.5 : 1"
       inkscape:vp_y="0 : 1000 : 0"
       inkscape:vp_x="0 : 0.5 : 1"
       sodipodi:type="inkscape:persp3d" />
    <inkscape:perspective
       id="perspective3851"
       inkscape:persp3d-origin="0.5 : 0.33333333 : 1"
       inkscape:vp_z="1 : 0.5 : 1"
       inkscape:vp_y="0 : 1000 : 0"
       inkscape:vp_x="0 : 0.5 : 1"
       sodipodi:type="inkscape:persp3d" />
    <inkscape:perspective
       id="perspective3873"
       inkscape:persp3d-origin="0.5 : 0.33333333 : 1"
       inkscape:vp_z="1 : 0.5 : 1"
       inkscape:vp_y="0 : 1000 : 0"
       inkscape:vp_x="0 : 0.5 : 1"
       sodipodi:type="inkscape:persp3d" />
    <inkscape:perspective
       id="perspective3897"
       inkscape:persp3d-origin="0.5 : 0.33333333 : 1"
       inkscape:vp_z="1 : 0.5 : 1"
       inkscape:vp_y="0 : 1000 : 0"
       inkscape:vp_x="0 : 0.5 : 1"
       sodipodi:type="inkscape:persp3d" />
    <inkscape:perspective
       id="perspective3933"
       inkscape:persp3d-origin="0.5 : 0.33333333 : 1"
       inkscape:vp_z="1 : 0.5 : 1"
       inkscape:vp_y="0 : 1000 : 0"
       inkscape:vp_x="0 : 0.5 : 1"
       sodipodi:type="inkscape:persp3d" />
    <inkscape:perspective
       id="perspective3960"
       inkscape:persp3d-origin="0.5 : 0.33333333 : 1"
       inkscape:vp_z="1 : 0.5 : 1"
       inkscape:vp_y="0 : 1000 : 0"
       inkscape:vp_x="0 : 0.5 : 1"
       sodipodi:type="inkscape:persp3d" />
    <inkscape:perspective
       id="perspective3997"
       inkscape:persp3d-origin="0.5 : 0.33333333 : 1"
       inkscape:vp_z="1 : 0.5 : 1"
       inkscape:vp_y="0 : 1000 : 0"
       inkscape:vp_x="0 : 0.5 : 1"
       sodipodi:type="inkscape:persp3d" />
    <inkscape:perspective
       id="perspective4019"
       inkscape:persp3d-origin="0.5 : 0.33333333 : 1"
       inkscape:vp_z="1 : 0.5 : 1"
       inkscape:vp_y="0 : 1000 : 0"
       inkscape:vp_x="0 : 0.5 : 1"
       sodipodi:type="inkscape:persp3d" />
    <inkscape:perspective
       id="perspective4041"
       inkscape:persp3d-origin="0.5 : 0.33333333 : 1"
       inkscape:vp_z="1 : 0.5 : 1"
       inkscape:vp_y="0 : 1000 : 0"
       inkscape:vp_x="0 : 0.5 : 1"
       sodipodi:type="inkscape:persp3d" />
    <inkscape:perspective
       id="perspective4070"
       inkscape:persp3d-origin="0.5 : 0.33333333 : 1"
       inkscape:vp_z="1 : 0.5 : 1"
       inkscape:vp_y="0 : 1000 : 0"
       inkscape:vp_x="0 : 0.5 : 1"
       sodipodi:type="inkscape:persp3d" />
    <inkscape:perspective
       id="perspective4106"
       inkscape:persp3d-origin="0.5 : 0.33333333 : 1"
       inkscape:vp_z="1 : 0.5 : 1"
       inkscape:vp_y="0 : 1000 : 0"
       inkscape:vp_x="0 : 0.5 : 1"
       sodipodi:type="inkscape:persp3d" />
    <inkscape:perspective
       id="perspective4128"
       inkscape:persp3d-origin="0.5 : 0.33333333 : 1"
       inkscape:vp_z="1 : 0.5 : 1"
       inkscape:vp_y="0 : 1000 : 0"
       inkscape:vp_x="0 : 0.5 : 1"
       sodipodi:type="inkscape:persp3d" />
    <inkscape:perspective
       id="perspective4152"
       inkscape:persp3d-origin="0.5 : 0.33333333 : 1"
       inkscape:vp_z="1 : 0.5 : 1"
       inkscape:vp_y="0 : 1000 : 0"
       inkscape:vp_x="0 : 0.5 : 1"
       sodipodi:type="inkscape:persp3d" />
    <inkscape:perspective
       id="perspective4179"
       inkscape:persp3d-origin="0.5 : 0.33333333 : 1"
       inkscape:vp_z="1 : 0.5 : 1"
       inkscape:vp_y="0 : 1000 : 0"
       inkscape:vp_x="0 : 0.5 : 1"
       sodipodi:type="inkscape:persp3d" />
    <inkscape:perspective
       id="perspective2884"
       inkscape:persp3d-origin="0.5 : 0.33333333 : 1"
       inkscape:vp_z="1 : 0.5 : 1"
       inkscape:vp_y="0 : 1000 : 0"
       inkscape:vp_x="0 : 0.5 : 1"
       sodipodi:type="inkscape:persp3d" />
    <inkscape:perspective
       id="perspective2907"
       inkscape:persp3d-origin="0.5 : 0.33333333 : 1"
       inkscape:vp_z="1 : 0.5 : 1"
       inkscape:vp_y="0 : 1000 : 0"
       inkscape:vp_x="0 : 0.5 : 1"
       sodipodi:type="inkscape:persp3d" />
    <inkscape:perspective
       id="perspective2929"
       inkscape:persp3d-origin="0.5 : 0.33333333 : 1"
       inkscape:vp_z="1 : 0.5 : 1"
       inkscape:vp_y="0 : 1000 : 0"
       inkscape:vp_x="0 : 0.5 : 1"
       sodipodi:type="inkscape:persp3d" />
    <inkscape:perspective
       id="perspective2952"
       inkscape:persp3d-origin="0.5 : 0.33333333 : 1"
       inkscape:vp_z="1 : 0.5 : 1"
       inkscape:vp_y="0 : 1000 : 0"
       inkscape:vp_x="0 : 0.5 : 1"
       sodipodi:type="inkscape:persp3d" />
    <inkscape:perspective
       id="perspective2991"
       inkscape:persp3d-origin="0.5 : 0.33333333 : 1"
       inkscape:vp_z="1 : 0.5 : 1"
       inkscape:vp_y="0 : 1000 : 0"
       inkscape:vp_x="0 : 0.5 : 1"
       sodipodi:type="inkscape:persp3d" />
    <inkscape:perspective
       id="perspective3020"
       inkscape:persp3d-origin="0.5 : 0.33333333 : 1"
       inkscape:vp_z="1 : 0.5 : 1"
       inkscape:vp_y="0 : 1000 : 0"
       inkscape:vp_x="0 : 0.5 : 1"
       sodipodi:type="inkscape:persp3d" />
    <inkscape:perspective
       id="perspective3043"
       inkscape:persp3d-origin="0.5 : 0.33333333 : 1"
       inkscape:vp_z="1 : 0.5 : 1"
       inkscape:vp_y="0 : 1000 : 0"
       inkscape:vp_x="0 : 0.5 : 1"
       sodipodi:type="inkscape:persp3d" />
    <inkscape:perspective
       id="perspective3082"
       inkscape:persp3d-origin="0.5 : 0.33333333 : 1"
       inkscape:vp_z="1 : 0.5 : 1"
       inkscape:vp_y="0 : 1000 : 0"
       inkscape:vp_x="0 : 0.5 : 1"
       sodipodi:type="inkscape:persp3d" />
    <inkscape:perspective
       id="perspective3107"
       inkscape:persp3d-origin="0.5 : 0.33333333 : 1"
       inkscape:vp_z="1 : 0.5 : 1"
       inkscape:vp_y="0 : 1000 : 0"
       inkscape:vp_x="0 : 0.5 : 1"
       sodipodi:type="inkscape:persp3d" />
    <inkscape:perspective
       id="perspective3136"
       inkscape:persp3d-origin="0.5 : 0.33333333 : 1"
       inkscape:vp_z="1 : 0.5 : 1"
       inkscape:vp_y="0 : 1000 : 0"
       inkscape:vp_x="0 : 0.5 : 1"
       sodipodi:type="inkscape:persp3d" />
    <inkscape:perspective
       id="perspective3158"
       inkscape:persp3d-origin="0.5 : 0.33333333 : 1"
       inkscape:vp_z="1 : 0.5 : 1"
       inkscape:vp_y="0 : 1000 : 0"
       inkscape:vp_x="0 : 0.5 : 1"
       sodipodi:type="inkscape:persp3d" />
    <inkscape:perspective
       id="perspective3180"
       inkscape:persp3d-origin="0.5 : 0.33333333 : 1"
       inkscape:vp_z="1 : 0.5 : 1"
       inkscape:vp_y="0 : 1000 : 0"
       inkscape:vp_x="0 : 0.5 : 1"
       sodipodi:type="inkscape:persp3d" />
    <inkscape:perspective
       id="perspective3203"
       inkscape:persp3d-origin="0.5 : 0.33333333 : 1"
       inkscape:vp_z="1 : 0.5 : 1"
       inkscape:vp_y="0 : 1000 : 0"
       inkscape:vp_x="0 : 0.5 : 1"
       sodipodi:type="inkscape:persp3d" />
    <inkscape:perspective
       id="perspective3233"
       inkscape:persp3d-origin="0.5 : 0.33333333 : 1"
       inkscape:vp_z="1 : 0.5 : 1"
       inkscape:vp_y="0 : 1000 : 0"
       inkscape:vp_x="0 : 0.5 : 1"
       sodipodi:type="inkscape:persp3d" />
    <inkscape:perspective
       id="perspective3264"
       inkscape:persp3d-origin="0.5 : 0.33333333 : 1"
       inkscape:vp_z="1 : 0.5 : 1"
       inkscape:vp_y="0 : 1000 : 0"
       inkscape:vp_x="0 : 0.5 : 1"
       sodipodi:type="inkscape:persp3d" />
    <inkscape:perspective
       id="perspective3286"
       inkscape:persp3d-origin="0.5 : 0.33333333 : 1"
       inkscape:vp_z="1 : 0.5 : 1"
       inkscape:vp_y="0 : 1000 : 0"
       inkscape:vp_x="0 : 0.5 : 1"
       sodipodi:type="inkscape:persp3d" />
    <inkscape:perspective
       id="perspective3309"
       inkscape:persp3d-origin="0.5 : 0.33333333 : 1"
       inkscape:vp_z="1 : 0.5 : 1"
       inkscape:vp_y="0 : 1000 : 0"
       inkscape:vp_x="0 : 0.5 : 1"
       sodipodi:type="inkscape:persp3d" />
    <inkscape:perspective
       id="perspective3334"
       inkscape:persp3d-origin="0.5 : 0.33333333 : 1"
       inkscape:vp_z="1 : 0.5 : 1"
       inkscape:vp_y="0 : 1000 : 0"
       inkscape:vp_x="0 : 0.5 : 1"
       sodipodi:type="inkscape:persp3d" />
    <inkscape:perspective
       id="perspective3364"
       inkscape:persp3d-origin="0.5 : 0.33333333 : 1"
       inkscape:vp_z="1 : 0.5 : 1"
       inkscape:vp_y="0 : 1000 : 0"
       inkscape:vp_x="0 : 0.5 : 1"
       sodipodi:type="inkscape:persp3d" />
    <inkscape:perspective
       id="perspective3386"
       inkscape:persp3d-origin="0.5 : 0.33333333 : 1"
       inkscape:vp_z="1 : 0.5 : 1"
       inkscape:vp_y="0 : 1000 : 0"
       inkscape:vp_x="0 : 0.5 : 1"
       sodipodi:type="inkscape:persp3d" />
    <inkscape:perspective
       id="perspective3444"
       inkscape:persp3d-origin="0.5 : 0.33333333 : 1"
       inkscape:vp_z="1 : 0.5 : 1"
       inkscape:vp_y="0 : 1000 : 0"
       inkscape:vp_x="0 : 0.5 : 1"
       sodipodi:type="inkscape:persp3d" />
    <inkscape:perspective
       id="perspective3470"
       inkscape:persp3d-origin="0.5 : 0.33333333 : 1"
       inkscape:vp_z="1 : 0.5 : 1"
       inkscape:vp_y="0 : 1000 : 0"
       inkscape:vp_x="0 : 0.5 : 1"
       sodipodi:type="inkscape:persp3d" />
    <inkscape:perspective
       id="perspective3500"
       inkscape:persp3d-origin="0.5 : 0.33333333 : 1"
       inkscape:vp_z="1 : 0.5 : 1"
       inkscape:vp_y="0 : 1000 : 0"
       inkscape:vp_x="0 : 0.5 : 1"
       sodipodi:type="inkscape:persp3d" />
    <inkscape:perspective
       id="perspective3550"
       inkscape:persp3d-origin="0.5 : 0.33333333 : 1"
       inkscape:vp_z="1 : 0.5 : 1"
       inkscape:vp_y="0 : 1000 : 0"
       inkscape:vp_x="0 : 0.5 : 1"
       sodipodi:type="inkscape:persp3d" />
    <inkscape:perspective
       id="perspective3680"
       inkscape:persp3d-origin="0.5 : 0.33333333 : 1"
       inkscape:vp_z="1 : 0.5 : 1"
       inkscape:vp_y="0 : 1000 : 0"
       inkscape:vp_x="0 : 0.5 : 1"
       sodipodi:type="inkscape:persp3d" />
    <radialGradient
       inkscape:collect="always"
       xlink:href="#linearGradient3718"
       id="radialGradient3724"
       cx="208.22098"
       cy="653.32489"
       fx="208.22098"
       fy="653.32489"
       r="87.453125"
       gradientTransform="matrix(0.33416752,-0.1927608,0.16980533,0.29437276,27.702242,468.39341)"
       gradientUnits="userSpaceOnUse" />
    <radialGradient
       inkscape:collect="always"
       xlink:href="#linearGradient3730"
       id="radialGradient3736"
       cx="220.64117"
       cy="596.88947"
       fx="220.64117"
       fy="596.88947"
       r="91.507492"
       gradientTransform="matrix(0.25548947,0.10405141,-0.10752436,0.26401701,228.44983,373.54605)"
       gradientUnits="userSpaceOnUse" />
    <radialGradient
       inkscape:collect="always"
       xlink:href="#linearGradient3730"
       id="radialGradient3797"
       gradientUnits="userSpaceOnUse"
       gradientTransform="matrix(0.25548947,0.10405141,-0.10752436,0.26401701,228.44983,373.54605)"
       cx="220.64117"
       cy="596.88947"
       fx="220.64117"
       fy="596.88947"
       r="91.507492" />
    <inkscape:perspective
       id="perspective2906"
       inkscape:persp3d-origin="0.5 : 0.33333333 : 1"
       inkscape:vp_z="1 : 0.5 : 1"
       inkscape:vp_y="0 : 1000 : 0"
       inkscape:vp_x="0 : 0.5 : 1"
       sodipodi:type="inkscape:persp3d" />
    <radialGradient
       inkscape:collect="always"
       xlink:href="#linearGradient3730"
       id="radialGradient3732"
       gradientUnits="userSpaceOnUse"
       gradientTransform="matrix(0.25548947,0.10405141,-0.10752436,0.26401701,228.44983,373.54605)"
       cx="220.64117"
       cy="596.88947"
       fx="220.64117"
       fy="596.88947"
       r="91.507492" />
    <inkscape:perspective
       id="perspective3759"
       inkscape:persp3d-origin="0.5 : 0.33333333 : 1"
       inkscape:vp_z="1 : 0.5 : 1"
       inkscape:vp_y="0 : 1000 : 0"
       inkscape:vp_x="0 : 0.5 : 1"
       sodipodi:type="inkscape:persp3d" />
    <inkscape:perspective
       id="perspective3813"
       inkscape:persp3d-origin="0.5 : 0.33333333 : 1"
       inkscape:vp_z="1 : 0.5 : 1"
       inkscape:vp_y="0 : 1000 : 0"
       inkscape:vp_x="0 : 0.5 : 1"
       sodipodi:type="inkscape:persp3d" />
  </defs>
  <sodipodi:namedview
     id="base"
     pagecolor="#ffffff"
     bordercolor="#666666"
     borderopacity="1.0"
     inkscape:pageopacity="0.0"
     inkscape:pageshadow="2"
     inkscape:zoom="0.85202385"
     inkscape:cx="505.57664"
     inkscape:cy="738.08078"
     inkscape:document-units="px"
     inkscape:current-layer="layer2"
     showgrid="false"
     showguides="true"
     inkscape:guide-bbox="true"
     inkscape:snap-bbox="true"
     inkscape:window-width="1366"
     inkscape:window-height="706"
     inkscape:window-x="-8"
     inkscape:window-y="-8"
     inkscape:window-maximized="1"
     inkscape:bbox-nodes="true"
     inkscape:snap-object-midpoints="true"
     inkscape:snap-center="true"
     inkscape:snap-midpoints="true"
     inkscape:snap-smooth-nodes="true"
     inkscape:object-nodes="true"
     inkscape:object-paths="true"
     inkscape:bbox-paths="true"
     inkscape:snap-bbox-edge-midpoints="true"
     inkscape:snap-bbox-midpoints="true"
     inkscape:snap-intersection-paths="true"
     inkscape:snap-global="true"
     borderlayer="true"
     fit-margin-top="0"
     fit-margin-left="0"
     fit-margin-right="0"
     fit-margin-bottom="0" />
  <metadata
     id="metadata7">
    <rdf:RDF>
      <cc:Work
         rdf:about="">
        <dc:format>image/svg+xml</dc:format>
        <dc:type
           rdf:resource="http://purl.org/dc/dcmitype/StillImage" />
        <dc:title />
      </cc:Work>
    </rdf:RDF>
  </metadata>
  <g
     inkscape:groupmode="layer"
     id="layer2"
     inkscape:label="Capa2"
     transform="translate(198.28621,108.50435)">
    <g
       id="g3237"
       transform="matrix(5.6963789e-4,0.83333322,0.83333322,-5.6963789e-4,-439.07366,57.078148)">
      <rect
         y="291.49564"
         x="-198.28621"
         height="299.99997"
         width="1199.9999"
         id="rect2830-1"
         style="fill:#006ad5;fill-opacity:1;stroke:none" />
      <rect
         y="591.49567"
         x="-198.28621"
         height="299.99997"
         width="1199.9999"
         id="rect2830-1-1"
         style="fill:#e6e6e6;fill-opacity:1;stroke:none" />
    </g>
    <g
       transform="matrix(0.87846382,-7.7526032e-4,7.7526032e-4,0.87846382,-58.910263,-571.8719)"
       id="g3188">
      <g
         id="g3163">
        <path
           inkscape:connector-curvature="0"
           style="fill:#ffffff;stroke:none"
           d="m 10.963042,728.19285 0,163.25539 0,1.24197 0,0.036 -0.320161,38.25025 -0.07115,0.14183 c -0.01,1.30821 0.02277,2.6344 0.07115,3.93864 0.0066,0.14089 -0.0066,0.2849 0,0.42579 2.236012,53.37718 52.790429,102.83838 114.049219,105.48978 l 5.6206,0 c 61.25879,-2.6515 111.8132,-52.1126 114.04921,-105.48978 0.008,-0.14089 -0.007,-0.2849 0,-0.42579 0.0484,-1.30424 0.0814,-2.63043 0.0711,-3.93864 l -0.0711,-0.14183 -0.32016,-38.99538 0,-0.035 0,-0.49685 0,-163.25537 -233.078708,0 z"
           id="path3540-1" />
        <path
           inkscape:connector-curvature="0"
           style="fill:#cccccc;fill-opacity:1;stroke:none"
           d="m 24.117198,736.60162 0,66.37967 0,52.82422 0,34.23261 0,1.13146 0,0.0435 0,43.99432 c 4.325328,47.6825 47.900024,90.8803 100.447882,93.4907 1.0416,10e-5 2.08505,-0.01 3.13624,-0.044 l 0,-0.2218 0,-13.4002 0,-58.83664 0,-100.39043 0,-119.18169 -103.584122,-0.0221 z"
           id="rect3514-7" />
        <g
           id="g3039">
          <path
             id="path3842-4"
             d="m 224.54589,961.16555 c -52.43361,0.13531 -72.96419,39.99775 -93.73059,53.77825 -2.42285,1.816 -4.50832,1.2475 -6.02772,0.1553 -36.803541,-34.41438 -50.124512,-52.94297 -94.308908,-53.84479 14.644577,36.49884 51.624124,65.52499 94.531258,67.46679 l 4.98236,0 c 42.94208,-1.9434 79.93928,-31.01498 94.5536,-67.55555 z"
             style="fill:#438360;fill-opacity:1;fill-rule:nonzero;stroke:none"
             inkscape:connector-curvature="0" />
          <path
             id="path3324-0"
             d="m 116.57491,961.34931 c -8.30302,0.70917 -18.116769,2.77736 -24.723738,11.53185 -1.136755,1.56037 0.05692,2.12459 0.889354,2.4128 19.793484,11.78099 27.350794,19.76688 33.225844,33.92144 l 3.69961,0 c 5.87506,-14.15456 13.46795,-22.14045 33.26144,-33.92144 0.83262,-0.28821 2.02611,-0.85243 0.88927,-2.4128 -6.60688,-8.75449 -16.42063,-10.82268 -24.72366,-11.53185 -7.49965,-0.21507 -15.01903,-0.30572 -22.51812,0 z"
             style="fill:#438360;fill-opacity:1;fill-rule:nonzero;stroke:none"
             inkscape:connector-curvature="0" />
        </g>
        <path
           inkscape:connector-curvature="0"
           style="fill:#ff0000;fill-opacity:1;stroke:none"
           d="m 125.14812,747.2828 c 0.28222,31.84461 -18.75942,41.55059 -29.73954,34.09883 -7.056513,-4.03392 -12.288346,-13.1438 -21.80671,-21.39605 7.956748,30.06746 8.780334,52.78136 -41.300967,30.44404 1.305526,3.82983 23.585912,22.80134 33.332476,25.12169 21.341561,-16.89092 40.324061,-22.15962 62.253971,-22.17656 0.0121,6.7e-4 0.0235,-7.5e-4 0.0356,0 0.11994,-2.8e-4 0.23595,-1.9e-4 0.35575,0 21.92856,0.018 40.87781,5.28649 62.21832,22.17656 9.74663,-2.32035 32.06253,-21.29186 33.36806,-25.12169 -50.08131,22.33732 -49.25773,-0.37658 -41.30097,-30.44404 -9.51837,8.25225 -14.78579,17.36213 -21.8423,21.39605 -10.98012,7.45176 -30.02176,-2.25422 -29.73954,-34.09883 l -2.59688,0 -0.6403,0 -2.59688,0 z"
           id="path2979-9" />
        <path
           inkscape:connector-curvature="0"
           style="fill:#006ad5;fill-opacity:1;stroke:none"
           d="m 94.839377,834.00232 c -0.864577,0.11903 -1.700979,0.90684 -2.490177,2.05798 l -46.210154,45.02738 c -1.466517,1.37794 -1.926533,2.97957 0,3.26437 26.730629,-0.98858 31.317104,4.11662 42.048036,11.42541 2.82193,1.54902 2.930832,1.83051 5.371614,0.21299 16.173584,-11.65278 25.232724,-8.79044 34.328654,-9.36743 9.0338,0.52741 18.08732,-2.20587 34.15072,9.36743 2.44078,1.61752 2.51417,1.33603 5.33603,-0.21299 10.73093,-7.30879 15.3174,-12.41399 42.0481,-11.42541 1.92647,-0.2848 1.46645,-1.88643 0,-3.26437 L 163.21198,836.0603 c -0.90187,-1.31559 -1.84247,-2.1438 -2.84592,-2.05798 -0.78045,0.0672 -1.6172,0.67994 -2.49012,2.02249 l -24.72373,23.87972 c -3.78495,2.64424 -6.79879,2.64953 -10.74324,0 L 97.685306,836.02481 c -0.872914,-1.34255 -1.709734,-1.95578 -2.490186,-2.02249 -0.125417,-0.009 -0.232251,-0.017 -0.355743,0 z"
           id="path3069-4"
           sodipodi:nodetypes="ccccccccccccsccccsc" />
        <g
           id="g3159">
          <path
             id="path3219-8"
             d="m 54.59375,889.59375 c -8.586846,0.33021 -16.903581,4.50643 -30.46875,8.28125 l 0,14.375 c 12.62104,-6.53075 35.161627,-12.57014 59.34375,5.8125 1.959127,1.2206 6.428759,4.21747 10.34375,1.84375 25.11242,-12.42847 41.24932,-13.76187 70.125,-0.25 2.3738,1.17196 3.49909,1.24321 5.5625,0 15.20793,-10.35091 33.01079,-21.87688 62.59375,-6.8125 l 0.0937,0 0,-14.03125 c -31.37981,-12.44096 -39.45873,-12.58239 -64.5,5.9375 -0.90451,0.45578 -1.31762,0.57589 -2.5625,-0.0312 -28.6667,-14.04666 -41.71057,-14.82142 -71.6875,0 -2.419362,0.57434 -4.641073,0.72792 -6.46875,-0.21875 C 72.149358,892.80389 63.234947,889.2615 54.5937,889.5938 z"
             style="opacity:0.99545456;fill:#274b87;fill-opacity:1;stroke:none"
             inkscape:connector-curvature="0" />
          <path
             id="path3219-7-8"
             d="M 56.21875,917.59375 C 47.032264,917.41584 38.543369,921.86276 24.125,925.875 l 0,9.34375 c 0.145406,1.60296 0.361505,3.19434 0.59375,4.78125 12.723306,-6.41317 34.930803,-12.04436 58.75,6.0625 1.959137,1.2205 6.459999,4.24863 10.375,1.875 25.11243,-12.42847 41.21807,-13.76177 70.09375,-0.25 2.37381,1.17205 3.49909,1.2433 5.5625,0 15.20794,-10.35082 33.01072,-21.87689 62.59375,-6.8125 l 0.0937,0 0,-14.03125 c -31.37981,-12.44105 -39.45867,-12.58239 -64.5,5.9375 -0.90452,0.45578 -1.31762,0.57589 -2.5625,-0.0312 -28.6667,-14.04666 -41.71058,-14.82141 -71.6875,0 -2.419362,0.57425 -4.641074,0.72792 -6.46875,-0.21875 -13.893133,-10.96493 -22.595963,-14.77958 -30.75,-14.9375 z"
             style="fill:#274b87;fill-opacity:1;stroke:none"
             inkscape:connector-curvature="0" />
        </g>
      </g>
      <g
         id="g3175">
        <path
           inkscape:connector-curvature="0"
           style="fill:#f1d50e;fill-opacity:1;stroke:none"
           d="m 0,691.3622 0,35.05686 0,1.77408 0,210.23438 0,2.30645 c 0.27203699,58.41898 56.066683,110.36393 124.61451,111.62823 l 5.86972,0 c 69.13846,-1.3292 125.28357,-54.20834 124.50783,-113.26051 l 0,-0.67417 0,-210.23438 0,-36.83094 -254.99206,0 z m 10.956705,36.83094 233.078645,0 0,163.25547 0,0.49676 0,0.0359 0.32015,38.99538 0.0711,0.14193 c 0.01,1.30812 -0.0228,2.63431 -0.0711,3.93854 -0.008,0.14099 0.007,0.285 0,0.42589 -2.23601,53.37717 -52.79035,102.83829 -114.04914,105.48969 l -5.62066,0 C 63.426907,1038.3214 12.872566,988.86023 10.636554,935.48306 c -0.0076,-0.1408 0.0066,-0.2849 0,-0.42579 -0.04838,-1.30424 -0.08139,-2.63043 -0.07115,-3.93854 l 0.07115,-0.14203 0.320151,-38.25015 0,-0.035 0,-1.24188 0,-163.2555 z"
           id="path3351-2" />
        <g
           id="g3747-4"
           transform="matrix(1.1383574,0,0,1.1354432,-90.421876,309.42717)">
         
        </g>
      </g>
    </g>
  </g>
</svg>
