<?xml version="1.0" encoding="UTF-8" standalone="no"?>
<!-- Created with Inkscape (http://www.inkscape.org/) -->

<svg
   xmlns:dc="http://purl.org/dc/elements/1.1/"
   xmlns:cc="http://creativecommons.org/ns#"
   xmlns:rdf="http://www.w3.org/1999/02/22-rdf-syntax-ns#"
   xmlns:svg="http://www.w3.org/2000/svg"
   xmlns="http://www.w3.org/2000/svg"
   xmlns:sodipodi="http://sodipodi.sourceforge.net/DTD/sodipodi-0.dtd"
   xmlns:inkscape="http://www.inkscape.org/namespaces/inkscape"
   id="svg2"
   version="1.1"
   inkscape:version="0.48.4 r9939"
   width="2131"
   height="1406"
   sodipodi:docname="Flag of Radoviš Municipality.svg"
   inkscape:export-filename="ј.png"
   inkscape:export-xdpi="90"
   inkscape:export-ydpi="90">
  <metadata
     id="metadata8">
    <rdf:RDF>
      <cc:Work
         rdf:about="">
        <dc:format>image/svg+xml</dc:format>
        <dc:type
           rdf:resource="http://purl.org/dc/dcmitype/StillImage" />
        <dc:title></dc:title>
      </cc:Work>
    </rdf:RDF>
  </metadata>
  <defs
     id="defs6" />
  <sodipodi:namedview
     pagecolor="#ffffff"
     bordercolor="#666666"
     borderopacity="1"
     objecttolerance="10"
     gridtolerance="10"
     guidetolerance="10"
     inkscape:pageopacity="0"
     inkscape:pageshadow="2"
     inkscape:window-width="1366"
     inkscape:window-height="705"
     id="namedview4"
     showgrid="false"
     inkscape:zoom="0.15925102"
     inkscape:cx="53.734429"
     inkscape:cy="62.501362"
     inkscape:window-x="-8"
     inkscape:window-y="-8"
     inkscape:window-maximized="1"
     inkscape:current-layer="svg2">
    <sodipodi:guide
       position="0,0"
       orientation="0,2131"
       id="guide3013" />
    <sodipodi:guide
       position="2131,0"
       orientation="-1406,0"
       id="guide3015" />
    <sodipodi:guide
       position="2131,1406"
       orientation="0,-2131"
       id="guide3017" />
    <sodipodi:guide
       position="0,1406"
       orientation="1406,0"
       id="guide3019" />
  </sodipodi:namedview>
  <rect
     style="fill:#ffffff;fill-opacity:1;stroke:none"
     id="rect3021"
     width="2131"
     height="1406"
     x="0"
     y="0" />
  <path
     inkscape:connector-curvature="0"
     id="path2993"
     d="m 0.35594814,703.16384 0,-703.0000028 538.49999186,0 538.49996,0 0,53.9999998 0,54.000003 -52.5,0 -52.50001,0 0,54.5 0,54.5 52.50001,0 52.5,0 0,54.5 0,54.5 -52.5,0 -52.50001,0 0,54.5 0,54.5 52.50001,0 52.5,0 0,54.5 0,54.5 -52.5,0 -52.50001,0 0,54.5 0,54.5 52.50001,0 52.5,0 0,54 0,54.00003 -52.5,0 -52.50001,0 0,55 0,55 52.50001,0 52.5,0 0,54 0,53.99995 -52.5,0 -52.50001,0 0,54.99998 0,55 52.00001,0 52,0 0,54.5 0,54.5 -52.5,0 -52.50001,0 0,54.5 0,54.5 52.50001,0 52.5,0 0,49.5 0,49.5 -537.99996,0 -537.99999186,0 0,-702.99996 z M 1572.5834,1090.0474 c -14.017,-6.9383 -16.2981,-25.3037 -4.3368,-34.916 3.935,-3.1623 4.1093,-3.5411 4.1093,-8.9341 0,-5.6115 -0.013,-5.6363 -3.75,-6.923 -5.3002,-1.8251 -13.678,-7.6718 -16.7341,-11.6785 -3.0838,-4.0431 -7.4924,-13.2309 -7.5061,-15.6435 -0.01,-1.1641 -1.3689,-2.0772 -4.2598,-2.8551 -9.9789,-2.6855 -21.0183,-12.65689 -24.5671,-22.19038 l -1.9518,-5.243 -5.8655,-0.2767 c -5.5774,-0.2632 -5.9473,-0.1316 -7.5275,2.6774 -4.5929,8.1646 -17.983,11.5824 -26.8381,6.8504 -6.8585,-3.665 -10.3554,-9.3375 -10.8155,-17.5442 -0.3502,-6.24605 -0.1461,-7.04955 2.9697,-11.69375 4.4278,-6.5997 10.291,-9.8482 17.7621,-9.8413 6.6845,0.01 10.4563,1.7844 15.4062,7.2634 3.4973,3.8711 3.9464,4.0628 9.4249,4.0238 l 5.7526,-0.041 2.353,-5.0144 c 4.6469,-9.903 18.8977,-20.741 30.3943,-23.1156 l 5.7527,-1.1882 0,-56.8247 0,-56.8246 -2.25,-0.8479 c -1.2375,-0.4663 -3.66,-1.1544 -5.3834,-1.5291 -2.7931,-0.6073 -3.2459,-0.3767 -4.1692,2.1226 -0.5696,1.5421 -7.1179,17.4289 -14.5518,35.3039 l -13.5161,32.5 2.6011,2.7278 c 3.3858,3.5508 4.3013,11.8761 1.8311,16.6528 -1.948,3.767 -6.9704,7.1103 -10.6893,7.1156 -1.4451,0 -3.1686,0.6557 -3.8299,1.4526 -1.9191,2.3123 -7.7217,3.7812 -12.049,3.0501 -5.1574,-0.8714 -9.4728,-4.9848 -11.0781,-10.5597 -0.7031,-2.4416 -2.0407,-5.5642 -2.9725,-6.9392 -6.1132,-9.0208 0.5672,-22 11.3235,-22 l 3.5303,0 4.4945,-10.75 c 16.3712,-39.1569 24.8314,-60.4819 24.4125,-61.5342 -0.2662,-0.6687 -2.1349,-2.0885 -4.1527,-3.155 l -3.6686,-1.9391 -29.6403,29.6404 c -27.8519,27.8519 -29.5438,29.7488 -28.0408,31.4391 3.0376,3.4159 5.0468,9.7291 5.0498,15.8672 0.01,19.1788 -19.2301,32.6085 -35.5598,24.8214 -3.2716,-1.5601 -3.8027,-1.5624 -7.6242,-0.033 -5.5481,2.2199 -15.4698,2.098 -20.6479,-0.2538 -5.0624,-2.2992 -10.7143,-8.0152 -13.3894,-13.5411 -2.6169,-5.4057 -2.6943,-15.5637 -0.1567,-20.5616 1.682,-3.3128 1.6859,-3.6872 0.072,-7 -6.2529,-12.834 -0.2489,-27.7503 13.674,-33.9714 3.9385,-1.7598 6.3459,-2.118 12.4666,-1.8548 6.4595,0.2778 8.2135,0.7614 11.8161,3.258 l 4.2306,2.9318 29.623,-29.623 29.623,-29.623 -1.9391,-3.6686 c -1.0665,-2.0177 -2.5083,-3.8949 -3.204,-4.1715 -0.6958,-0.2766 -13.9708,4.7785 -29.5,11.2337 -15.5293,6.4551 -31.4436,13.0705 -35.365,14.7009 -7.094,2.9495 -7.1323,2.9861 -7.6169,7.2848 -0.6436,5.7099 -3.7708,9.8929 -8.9434,11.9626 -4.8017,1.9212 -9.3722,1.4483 -12.9584,-1.3409 -1.2932,-1.0058 -3.9932,-2.1308 -6,-2.5 -10.1171,-1.8611 -15.0886,-13.5693 -9.3514,-22.0234 1.375,-2.0262 2.5017,-4.6765 2.5037,-5.8896 0.01,-3.2651 3.4899,-8.3923 6.9024,-10.157 3.5047,-1.8123 10.2919,-2.0281 13.4096,-0.4264 1.2014,0.6172 3.4914,2.3047 5.089,3.75 1.5975,1.4453 2.6452,2.1652 2.3281,1.5997 -0.3316,-0.5913 5.869,-3.6385 14.5953,-7.1726 25.0534,-10.14639 53.9235,-22.21754 54.4888,-22.78279 0.2915,-0.29153 -0.1328,-2.66451 -0.9429,-5.27327 l -1.4729,-4.74321 -57.0858,-0.25814 -57.0858,-0.25814 -0.6735,4.49118 c -1.8497,12.33498 -16.1436,30.64437 -25.806,33.05567 -2.6211,0.6541 -2.75,0.9697 -2.75,6.7319 0,5.8225 0.1486,6.1729 4.0262,9.492 2.2144,1.8954 4.6293,4.6386 5.3664,6.0959 6.9957,13.8315 -3.5073,30.5015 -19.1292,30.3611 -19.297,-0.1734 -27.4681,-25.1692 -12.1847,-37.2738 3.7017,-2.9318 3.9213,-3.4107 3.9213,-8.5531 0,-4.3248 -0.3606,-5.5536 -1.75,-5.963 -12.0616,-3.5539 -23.0533,-14.54061 -26.1834,-26.17157 -0.8772,-3.25972 -1.6251,-4.25 -3.2099,-4.25 -2.5248,0 -10.7221,-4.03278 -15.3093,-7.53165 -3.9887,-3.04231 -9.8363,-11.42832 -11.6579,-16.71835 -1.2787,-3.7136 -1.3439,-3.75 -6.7143,-3.75 -5.1601,0 -5.6119,0.21454 -9.3175,4.4243 -9.632,10.94254 -25.5133,9.60874 -33.7477,-2.83431 -2.1559,-3.25774 -2.61,-5.10026 -2.61,-10.58999 0,-5.56295 0.4445,-7.31777 2.7276,-10.76775 5.0196,-7.58519 15.005,-11.54698 23.2705,-9.23279 4.7651,1.33414 12.5019,7.26179 12.5019,9.57846 0,1.07957 1.5053,1.41797 6.25,1.40501 l 6.25,-0.0171 2.4683,-5.73294 c 4.2662,-9.90897 14.0997,-18.69241 24.2981,-21.70366 3.4001,-1.00393 4.3091,-1.78673 4.7999,-4.13386 2.2779,-10.89137 12.4252,-21.49164 25.1837,-26.30782 2.5286,-0.95452 2.75,-1.46938 2.75,-6.39547 0,-5.04928 -0.2304,-5.54255 -4.0063,-8.57694 -14.6336,-11.75989 -7.943,-35.37678 10.4544,-36.90244 11.6428,-0.9655 20.4662,5.75425 23.0057,17.52061 1.0867,5.03516 -1.7563,13.23585 -6.0915,17.57106 -2.0326,2.03257 -4.0706,3.69559 -4.529,3.69559 -0.4583,0 -0.8253,2.8125 -0.8156,6.25 l 0.018,6.25 4.9391,2.33525 c 9.8158,4.64101 20.908,19.13326 23.223,30.3416 l 1.2028,5.82315 57.2001,0 57.2002,0 1.2124,-5.05398 c 0.6669,-2.77968 1.0493,-5.20285 0.8498,-5.38481 -0.3765,-0.34341 -38.6576,-16.28803 -59.0061,-24.57689 l -11.6435,-4.74289 -2.5175,2.51752 c -3.0394,3.0394 -11.0224,4.17677 -15.7043,2.23746 -4.1496,-1.71885 -7.9913,-6.53995 -7.9913,-10.02873 0,-1.58337 -1.125,-4.53664 -2.5,-6.56282 -2.8661,-4.22348 -3.1714,-8.55374 -0.9738,-13.81338 1.6574,-3.96677 6.5787,-7.58179 10.3294,-7.58774 1.2956,-0.002 3.6927,-1.12874 5.3268,-2.50374 2.2739,-1.91342 4.1072,-2.5 7.8133,-2.5 8.3151,0 13.7784,4.87374 14.9652,13.35026 l 0.5391,3.85027 12,4.96461 c 6.6,2.73054 15.6,6.46798 20,8.30544 30.5621,12.76283 39.8156,16.53601 39.9731,16.29931 0.099,-0.14844 1.2223,-2.00251 2.4968,-4.12015 l 2.3172,-3.85027 -29.8206,-29.83303 -29.8206,-29.83303 -2.3796,1.87172 c -3.973,3.12522 -11.9824,5.30564 -16.9753,4.62127 -9.3714,-1.28449 -17.39,-6.52644 -21.9897,-14.37517 -3.4541,-5.89407 -3.7765,-14.77036 -0.7564,-20.82762 1.9707,-3.95258 1.9789,-4.19556 0.27,-8 -2.5433,-5.66206 -2.4048,-15.8339 0.2852,-20.93842 6.8457,-12.99044 21.6924,-18.93945 33.6838,-13.49695 4.2809,1.94298 4.2867,1.94285 8.376,-0.18862 11.2186,-5.84746 25.8717,-0.0357 32.1555,12.75365 4.4752,9.10828 4.1213,18.57701 -0.9751,26.08687 l -2.5048,3.69113 29.5689,29.56894 29.569,29.56895 3.629,-1.95438 c 1.996,-1.0749 3.8249,-2.46483 4.0644,-3.08873 0.409,-1.0659 -6.5364,-18.65424 -22.1367,-56.05835 l -6.7284,-16.1323 -4.9335,-0.47404 c -5.912,-0.56807 -9.0995,-3.18166 -11.4789,-9.41203 -1.5549,-4.07153 -1.5512,-4.63676 0.057,-8.84933 0.9453,-2.475 2.0739,-4.5 2.5081,-4.5 0.4342,0 1.0754,-1.78826 1.4249,-3.97391 0.8244,-5.15514 5.6812,-10.69615 10.5167,-11.99822 3.8826,-1.04548 7.3014,-0.4359 12.6035,2.24725 1.65,0.83498 5.025,2.16501 7.5,2.95561 6.5692,2.09845 9.3031,6.4667 8.7746,14.02029 -0.3165,4.52387 -0.9664,6.3397 -3.0456,8.50991 l -2.6431,2.75889 12.7875,30.99009 c 7.0331,17.04455 13.739,33.12883 14.902,35.74285 l 2.1146,4.75275 4.805,-1.78394 4.805,-1.78395 0.2582,-57.21881 c 0.2571,-57.008 0.2506,-57.21873 -1.7817,-57.21873 -3.9189,0 -14.3019,-4.14637 -19.8964,-7.94553 -6.5651,-4.45828 -12.2477,-10.78839 -15.0856,-16.80447 l -2.0048,-4.25 -5.8961,0 c -5.6609,0 -5.9773,0.13748 -7.9295,3.44631 -2.2668,3.84194 -7.9707,7.1793 -13.8871,8.12537 -11.8694,1.89799 -23.2771,-8.14343 -23.2771,-20.48913 0,-8.86141 4.2765,-15.43134 12.5,-19.20371 8.4965,-3.89759 19.304,-1.12172 24.3614,6.25718 2.6007,3.79445 2.7228,3.84624 8.5042,3.60686 l 5.8655,-0.24288 1.8644,-5 c 3.5289,-9.46442 13.9477,-18.95216 24.1053,-21.95136 3.6131,-1.0668 4.281,-1.73479 5.3478,-5.34782 3.0074,-10.18515 12.0434,-20.18259 21.9548,-24.29062 l 5.4966,-2.27823 0,-5.74789 c 0,-5.34712 -0.2266,-5.908 -3.25,-8.0441 -4.6146,-3.26035 -6.4353,-5.73007 -7.81,-10.5941 -2.5529,-9.03346 1.8775,-19.65688 10.101,-24.22032 13.0899,-7.26394 29.2668,1.71511 30.7416,17.06323 0.6044,6.29047 -3.1267,14.33064 -8.2557,17.79011 -3.3436,2.25525 -3.5269,2.67452 -3.5269,8.06599 l 0,5.68708 5.4966,2.27823 c 9.9114,4.10803 18.9474,14.10547 21.9548,24.29062 1.0668,3.61303 1.7347,4.28102 5.3478,5.34782 11.4914,3.393 20.4666,12.2169 25.1252,24.70136 0.9572,2.56524 1.4141,2.74958 6.8008,2.74368 5.333,-0.006 5.902,-0.22983 7.4367,-2.9275 2.4913,-4.37915 9.0636,-8.28534 14.8807,-8.8443 6.6523,-0.63919 12.8488,1.80868 17.4385,6.88882 4.4921,4.97223 5.5233,7.63432 5.5024,14.2044 -0.029,9.1909 -6.6753,17.31494 -16.2335,19.84325 -8.0135,2.11973 -17.1074,-1.41486 -21.121,-8.20922 -1.633,-2.76451 -2.1329,-2.94913 -7.9846,-2.94913 -6.1952,0 -6.252,0.0259 -7.4756,3.40962 -4.0057,11.07763 -23.6914,25.59038 -34.7119,25.59038 l -2.4733,0 0.2582,57.21881 0.2582,57.21881 4.8006,1.7823 4.8005,1.78229 1.6019,-3.7511 c 12.1096,-28.35677 27.9848,-67.84262 27.4355,-68.23967 -5.6284,-4.06872 -6.9097,-13.94055 -2.6275,-20.24246 1.8142,-2.66984 3.6874,-4.02379 6.75,-4.87904 2.3315,-0.65106 6.5536,-2.27201 9.3826,-3.60212 4.0352,-1.89726 5.9745,-2.26438 9,-1.70372 4.6327,0.85852 11.3564,7.05169 11.3564,10.4604 0,1.25388 1.1864,4.30416 2.6364,6.7784 1.5363,2.62163 2.6363,6.01118 2.6363,8.12382 0,7.61565 -6.1027,14.04196 -13.342,14.04954 -3.4774,0.004 -3.6493,0.19042 -6.6781,7.25374 -12.9375,30.17101 -26.4201,63.87099 -25.9959,64.97666 0.2815,0.73356 2.136,2.20843 4.1211,3.27747 l 3.6093,1.94372 29.6622,-29.61824 29.6621,-29.61825 -2.1736,-2.76327 c -7.4473,-9.4678 -5.7776,-24.82968 3.7442,-34.44712 7.2973,-7.37066 17.2028,-9.33626 26.3762,-5.23398 4.7393,2.11937 4.7752,2.12018 9,0.20239 11.7557,-5.33622 27.5018,0.75672 33.3972,12.92304 2.6762,5.5228 2.9392,15.63035 0.5506,21.16111 -1.6738,3.87574 -1.7673,4.82601 -0.628,6.38409 0.7362,1.00681 1.8617,4.1681 2.5011,7.0251 4.7188,21.08609 -22.3155,38.36671 -40.6051,25.9551 l -3.8003,-2.57897 -29.3368,29.32422 c -16.1353,16.12832 -29.3369,29.78512 -29.3369,30.34844 0,0.56332 1.1209,2.67381 2.4909,4.68998 l 2.491,3.66576 5.759,-2.38261 c 3.1675,-1.31044 19.2591,-7.97772 35.7591,-14.81618 l 30,-12.43356 0.6586,-4.55821 c 1.1716,-8.10834 6.3615,-12.67669 14.4013,-12.67669 3.5274,0 5.5957,0.64401 8.029,2.5 1.8027,1.375 4.23,2.5 5.394,2.5 3.6377,0 7.4504,2.64689 9.7779,6.78812 2.8908,5.14358 2.8575,10.02171 -0.098,14.3773 -1.2856,1.89448 -2.622,5.19746 -2.9697,7.33997 -1.6257,10.01838 -15.032,14.10767 -23.3657,7.12717 l -2.8271,-2.36803 -25,10.35681 c -27.8976,11.55717 -44.8168,18.65268 -45.3627,19.02401 -0.1995,0.13568 0.1829,2.52099 0.8498,5.30067 l 1.2124,5.05398 57.2867,0 57.2867,0 0.6384,-4.25686 c 1.5219,-10.14915 10.3699,-23.36544 19.9527,-29.80351 3.2251,-2.1668 6.4876,-3.93963 7.25,-3.93963 1.0376,0 1.3765,-1.57123 1.348,-6.25 -0.037,-6.08871 -0.1355,-6.31744 -3.8211,-8.86314 -12.2601,-8.4684 -9.2526,-29.34613 5.0906,-35.33913 21.2057,-8.86031 39.2653,20.07621 21.7356,34.82648 -1.7163,1.44418 -3.536,2.62579 -4.0438,2.62579 -0.5078,0 -0.9233,2.71114 -0.9233,6.02475 0,5.65413 0.1692,6.08861 2.75,7.06284 12.639,4.77105 21.2535,13.58824 24.7568,25.33904 1.051,3.52521 1.6969,4.0982 6.3188,5.60492 9.9856,3.25527 19.2577,11.87731 23.3561,21.71845 l 2.1863,5.25 5.3128,0 c 5.0494,0 5.5484,-0.24323 10.066,-4.90682 7.3587,-7.5965 16.6374,-9.02245 25.207,-3.87382 4.865,2.92286 6.8373,5.10559 9.0823,10.05117 6.125,13.4927 -4.5912,28.72947 -20.2058,28.72947 -5.019,0 -13.3604,-4.5036 -15.8739,-8.57053 -2.017,-3.26353 -2.3981,-3.42947 -7.8779,-3.42947 l -5.7584,0 -1.3573,4.11264 c -3.3272,10.08164 -13.8663,20.04919 -24.4671,23.14022 -4.2195,1.23035 -5.0439,1.88362 -5.5597,4.40546 -1.9605,9.58619 -10.6581,19.72461 -21.1662,24.67261 l -6.7302,3.1691 0.018,5.5 c 0.017,5.2872 0.1739,5.6078 4.0457,8.2871 10.7908,7.4674 10.3636,25.0683 -0.8017,33.0284 -12.9701,9.2469 -29.7399,1.8575 -32.7997,-14.4528 -1.1244,-5.9933 1.1167,-11.8129 6.5911,-17.1159 4.7005,-4.5534 4.9068,-4.9836 4.9068,-10.2332 l 0,-5.4799 -5.204,-2.6371 c -10.4669,-5.304 -22.0134,-21.14295 -23.5016,-32.23857 l -0.5578,-4.15806 -56.8931,0 -56.8931,0 -1.048,2.75 c -3.0733,8.06443 -4.0719,7.1244 16.7529,15.77018 10.3645,4.30303 24.6946,10.25395 31.8446,13.22415 20.1633,8.3763 20.1567,8.3743 21.6109,6.622 3.7742,-4.5476 13.0995,-5.7549 18.5906,-2.4068 3.408,2.078 6.2985,6.6426 6.2985,9.9464 0,1.1029 1.125,3.663 2.5,5.6892 5.7372,8.4542 0.7657,20.1624 -9.3514,22.0235 -2.0068,0.3691 -4.7068,1.4941 -6,2.5 -3.9031,3.0356 -8.518,3.3712 -13.3657,0.972 -5.3668,-2.6561 -7.9196,-6.1235 -8.5362,-11.5944 l -0.4809,-4.2664 -12.1329,-5.0683 c -6.6731,-2.7875 -19.3329,-8.0286 -28.1329,-11.6469 -8.8,-3.6182 -19.2471,-7.9683 -23.2158,-9.6667 -3.9687,-1.6985 -7.8073,-2.8612 -8.5302,-2.5838 -0.7229,0.2774 -2.1939,2.1375 -3.2688,4.1335 l -1.9544,3.629 29.6296,29.6296 29.6296,29.6295 2.855,-1.9416 c 4.963,-3.3753 8.2681,-4.3441 14.8191,-4.3441 8.101,0 13.7899,2.3947 19.8266,8.3459 7.7162,7.6069 9.4697,17.8169 4.675,27.2213 -1.8441,3.6171 -1.8427,3.7536 0.078,7.5185 2.6772,5.248 2.63,14.5026 -0.1038,20.3185 -2.5762,5.4807 -7.9767,10.951 -13.4059,13.5792 -5.1733,2.5044 -14.82,2.6862 -20.5647,0.3876 -3.8324,-1.5334 -4.3159,-1.5187 -8.2449,0.25 -5.34,2.404 -14.9895,2.4336 -19.461,0.06 -8.3355,-4.4251 -13.3094,-11.1334 -15.3663,-20.7246 -1.3073,-6.0958 -0.031,-12.5466 3.5726,-18.0509 l 2.3531,-3.5948 -29.7369,-29.7245 -29.7369,-29.7245 -3.6745,2.1681 c -2.021,1.1924 -3.6746,2.7191 -3.6746,3.3927 0,1.2689 6.9005,18.4235 18.535,46.0777 3.7023,8.8 7.5257,18.025 8.4965,20.5 1.6636,4.2413 2.0333,4.5389 6.4295,5.1761 7.5172,1.0896 11.0847,4.4325 12.9278,12.114 0.693,2.8883 -2.0894,10.7889 -4.2755,12.1399 -0.6123,0.3784 -1.1133,1.8459 -1.1133,3.261 0,3.4302 -3.2941,8.5933 -6.6172,10.3718 -4.189,2.2419 -11.4134,1.8449 -14.7921,-0.8128 -1.5732,-1.2375 -4.0372,-2.2516 -5.4756,-2.2537 -3.6308,0 -8.7185,-3.3286 -10.5666,-6.9024 -0.8517,-1.647 -1.5485,-5.2512 -1.5485,-8.0094 0,-4.1102 0.5243,-5.612 2.9064,-8.3251 l 2.9065,-3.3103 -14.6346,-35.3039 c -14.2572,-34.3932 -14.6997,-35.2908 -17.1565,-34.7973 -1.387,0.2787 -3.7593,0.9782 -5.2718,1.5546 l -2.75,1.048 0,56.9369 0,56.9368 4.25,0.6947 c 6.3244,1.0336 13.2397,4.2718 19.4934,9.1278 6.0003,4.6594 12.9044,13.102 13.8742,16.966 0.5527,2.2022 1.0906,2.3873 6.9343,2.3873 5.8756,0 6.4548,-0.2027 7.9865,-2.7957 4.7101,-7.9735 16.7618,-10.9651 25.9616,-6.4445 7.976,3.9193 11.8929,10.7285 11.3227,19.68325 -0.4909,7.7092 -4.3193,13.8359 -10.8227,17.3199 -3.8326,2.0531 -5.4979,2.3437 -11.2285,1.9589 -7.4379,-0.4994 -12.5738,-3.4197 -15.6562,-8.9022 -1.5264,-2.715 -1.938,-2.8579 -7.4809,-2.5964 l -5.8655,0.2767 -1.935,5.198 c -2.1527,5.7831 -9.2469,14.27518 -14.9141,17.85268 -2.0371,1.286 -6.0024,3.09 -8.8118,4.0089 -3.3789,1.1052 -5.1083,2.2241 -5.1088,3.3056 0,3.5245 -5.9219,13.8822 -10.3725,18.1471 -4.4739,4.2873 -13.7304,9.9204 -16.3767,9.9662 -0.8696,0.015 -1.25,1.9998 -1.25,6.5216 0,4.8682 0.3474,6.5 1.3836,6.5 0.761,0 2.9811,1.7681 4.9335,3.9292 9.5042,10.52 6.472,26.0901 -6.3459,32.5854 -6.0726,3.0772 -12.0225,3.2009 -17.7437,0.369 z m -20.4603,-331.13356 -0.2672,-25.25 -25.3628,-0.26741 -25.3628,-0.26741 0.6827,2.76741 c 1.3924,5.64498 9.6166,18.98755 15.9888,25.93954 7.5603,8.2483 13.9987,13.2194 23.9962,18.5277 11.4518,6.0805 10.6343,7.7787 10.3251,-21.44983 z m 67.761,21.88883 c 12.7719,-6.1573 23.8167,-15.868 32.3354,-28.42935 4.4114,-6.50506 9.1095,-15.75879 9.1266,-17.97665 0.01,-0.99669 -5.3798,-1.21014 -25.2402,-1 l -25.25,0.26717 -0.2672,25.25 c -0.2131,20.14263 -0.01,25.25003 1.0282,25.25003 0.7125,0 4.4327,-1.5125 8.2672,-3.3612 z m -67.761,-131.38883 c 0.2102,-19.8654 0,-25.24532 -1,-25.22804 -4.0043,0.0694 -20.0907,9.79641 -28.0317,16.95006 -8.1174,7.31254 -19.4909,24.03966 -21.279,31.29539 l -0.6821,2.76741 25.3628,-0.26741 25.3628,-0.26741 0.2672,-25.25 z m 109.223,24.5 c -0.032,-4.09435 -8.0504,-17.4135 -16.2366,-26.97022 -7.4443,-8.69058 -24.1673,-20.3396 -32.033,-22.31377 l -2.7206,-0.68283 0,24.94175 c 0,13.71795 0.3,25.24174 0.6667,25.6084 0.3666,0.36667 11.8416,0.66667 25.5,0.66667 19.2052,0 24.8311,-0.28329 24.8235,-1.25 z"
     style="fill:#a30203" />
</svg>
