<?xml version="1.0" encoding="UTF-8" standalone="no"?>
<!-- Created with Inkscape (http://www.inkscape.org/) -->

<svg
   xmlns:dc="http://purl.org/dc/elements/1.1/"
   xmlns:cc="http://creativecommons.org/ns#"
   xmlns:rdf="http://www.w3.org/1999/02/22-rdf-syntax-ns#"
   xmlns:svg="http://www.w3.org/2000/svg"
   xmlns="http://www.w3.org/2000/svg"
   xmlns:sodipodi="http://sodipodi.sourceforge.net/DTD/sodipodi-0.dtd"
   xmlns:inkscape="http://www.inkscape.org/namespaces/inkscape"
   id="svg2"
   version="1.1"
   inkscape:version="0.48.2 r9819"
   width="200"
   height="400"
   sodipodi:docname="Coat of arms of Strumica Municipality.svg">
  <metadata
     id="metadata8">
    <rdf:RDF>
      <cc:Work
         rdf:about="">
        <dc:format>image/svg+xml</dc:format>
        <dc:type
           rdf:resource="http://purl.org/dc/dcmitype/StillImage" />
        <dc:title></dc:title>
      </cc:Work>
    </rdf:RDF>
  </metadata>
  <defs
     id="defs6">
    <filter
       id="filter4102"
       color-interpolation-filters="sRGB">
      <feGaussianBlur
         id="feGaussianBlur4104"
         stdDeviation="5.7400007" />
    </filter>
  </defs>
  <sodipodi:namedview
     pagecolor="#ffffff"
     bordercolor="#666666"
     borderopacity="1"
     objecttolerance="10"
     gridtolerance="10"
     guidetolerance="10"
     inkscape:pageopacity="0"
     inkscape:pageshadow="2"
     inkscape:window-width="1366"
     inkscape:window-height="706"
     id="namedview4"
     showgrid="false"
     inkscape:zoom="0.97631856"
     inkscape:cx="-58.01323"
     inkscape:cy="219.00242"
     inkscape:window-x="-8"
     inkscape:window-y="-8"
     inkscape:window-maximized="1"
     inkscape:current-layer="svg2"
     showguides="false">
    <sodipodi:guide
       position="0,0"
       orientation="0,200"
       id="guide4177" />
    <sodipodi:guide
       position="200,0"
       orientation="-400,0"
       id="guide4179" />
    <sodipodi:guide
       position="200,400"
       orientation="0,-200"
       id="guide4181" />
    <sodipodi:guide
       position="0,400"
       orientation="400,0"
       id="guide4183" />
    <sodipodi:guide
       position="0,0"
       orientation="0,200"
       id="guide4187" />
    <sodipodi:guide
       position="200,0"
       orientation="-400,0"
       id="guide4189" />
    <sodipodi:guide
       position="200,400"
       orientation="0,-200"
       id="guide4191" />
    <sodipodi:guide
       position="0,400"
       orientation="400,0"
       id="guide4193" />
  </sodipodi:namedview>
  <text
     xml:space="preserve"
     style="font-size:48px;font-style:normal;font-weight:normal;line-height:125%;letter-spacing:0px;word-spacing:0px;fill:#000000;fill-opacity:1;stroke:none;font-family:Sans"
     x="447.94925"
     y="310.08752"
     id="text4098"
     sodipodi:linespacing="125%"><tspan
       sodipodi:role="line"
       id="tspan4100"
       x="447.94925"
       y="310.08752"
       style="font-size:24px;font-family:Times New Roman;-inkscape-font-specification:Times New Roman" /></text>
  <rect
     style="fill:#ffffff;fill-opacity:1;stroke:#ffcc00;stroke-width:5.87089586;stroke-linecap:square;stroke-linejoin:miter;stroke-miterlimit:4;stroke-opacity:1;stroke-dasharray:none;stroke-dashoffset:0"
     id="rect4185"
     width="194.31572"
     height="394.17432"
     x="2.8715277"
     y="2.9769258" />
  <g
     id="g4128"
     transform="matrix(0.65110658,0,0,0.63473415,-234.76449,45.769318)">
    <path
       sodipodi:nodetypes="ccsssc"
       inkscape:connector-curvature="0"
       d="m 438.28475,20.30283 153.41206,0 -0.86648,127.11373 c -0.22479,32.97749 -39.13098,67.54554 -77.4008,67.29746 -35.7163,-0.23153 -73.28166,-31.75857 -73.68875,-67.29746 z"
       id="path3201"
       style="fill:#000099;fill-opacity:1;stroke:#000099;stroke-width:1.17622364;stroke-linecap:butt;stroke-linejoin:miter;stroke-miterlimit:4;stroke-opacity:1;stroke-dasharray:none" />
    <path
       sodipodi:nodetypes="ccsssc"
       inkscape:connector-curvature="0"
       d="m 442.14523,53.137305 145.55169,0 -0.71824,96.465055 c -0.17685,23.75303 -36.48822,65.26246 -80.03808,59.83066 -29.3873,-3.66537 -63.22676,-31.63821 -63.58846,-60.38262 z"
       id="path3201-5"
       style="fill:none;stroke:#ffcc00;stroke-width:2.41110873;stroke-linecap:butt;stroke-linejoin:miter;stroke-miterlimit:4;stroke-opacity:1;stroke-dasharray:none" />
    <g
       transform="translate(3.0986327,0)"
       id="g4078">
      <path
         style="fill:#ffcc00;fill-opacity:1;stroke:#ffcc00;stroke-width:0.4504188;stroke-linecap:square;stroke-linejoin:miter;stroke-miterlimit:4;stroke-opacity:1;stroke-dasharray:none;stroke-dashoffset:0"
         d="m 549.0013,170.77793 c -1.22141,-0.51356 -2.45824,-3.11768 -3.39027,-7.13812 -0.36473,-1.57329 -0.43543,-2.23906 -0.45361,-4.27122 -0.0238,-2.66151 -0.1693,-3.25448 -0.95043,-3.87355 -0.42203,-0.33447 -0.53757,-0.34837 -2.15443,-0.2592 -6.02592,0.33237 -6.46546,0.30772 -8.13769,-0.45637 -1.57358,-0.719 -2.34619,-1.73151 -2.34619,-3.07466 0,-0.9401 -0.15949,-1.65539 -0.36888,-1.65442 -0.0961,4.5e-4 -0.57293,0.64695 -1.05962,1.43668 -2.67641,4.34293 -5.97281,7.03723 -6.89252,5.63358 -0.19069,-0.29103 -0.22618,-0.56966 -0.14644,-1.14948 0.10399,-0.75609 0.0957,-0.77586 -0.68378,-1.63662 -1.03702,-1.14512 -1.0197,-1.65093 0.10347,-3.02162 0.65687,-0.80162 1.56354,-1.25365 4.40871,-2.19804 6.7023,-2.22465 15.81065,-4.34524 16.67157,-3.88144 0.54472,0.29345 1.47432,1.70988 2.60017,3.96189 1.31753,2.6354 1.67841,3.13401 2.54614,3.51785 0.8022,0.35485 3.53619,0.42215 4.56975,0.11248 0.72049,-0.21586 1.23832,-0.77171 1.23832,-1.32924 0,-0.50349 0.38986,-1.2291 0.73065,-1.35987 0.53792,-0.20642 1.12806,1.00071 1.1344,2.32043 0.007,1.45929 0.404,1.68715 1.31147,0.75276 0.93868,-0.96653 0.68063,-1.9826 -0.86632,-3.41114 -1.29458,-1.1955 -2.25946,-1.03376 -3.8134,0.63922 -0.89692,0.96564 -1.16426,1.16492 -1.56268,1.16492 -1.0553,0 -2.91833,-1.14629 -3.35351,-2.06337 -0.71301,-1.50256 0.12173,-2.82895 2.02959,-3.22503 1.39524,-0.28965 4.39762,0.27561 8.31459,1.56538 3.02501,0.99607 5.09933,2.01745 6.07354,2.99056 1.10639,1.10513 0.91085,1.18515 -1.82376,0.74634 -1.22778,-0.19701 -2.37758,-0.3121 -2.55512,-0.25576 -0.4909,0.15581 -0.52467,0.52184 -0.19536,2.11717 0.26764,1.2966 0.27632,1.50399 0.0759,1.81349 -0.19499,0.30104 -0.36033,0.34928 -1.19349,0.34813 -0.53194,-7.3e-4 -1.77092,-0.0733 -2.7533,-0.16122 -2.49534,-0.22338 -6.23363,-0.23092 -6.64008,-0.0134 -0.80826,0.43257 -0.43561,1.50373 0.97006,2.78844 1.0789,0.98605 2.50078,1.67681 3.72856,1.81137 1.67825,0.18393 2.11828,0.50819 1.47709,1.08846 -0.43467,0.39337 -1.6009,0.46187 -2.85894,0.16794 -0.58917,-0.13766 -1.11336,-0.20795 -1.16487,-0.1562 -0.0515,0.0517 0.0804,0.23519 0.29315,0.40766 1.35451,1.09805 3.48806,1.53117 4.47618,0.90867 0.90482,-0.57001 1.10539,-1.49341 0.72672,-3.34576 -0.0615,-0.30097 -0.0132,-0.57594 0.13638,-0.77659 0.23042,-0.30899 0.23464,-0.30903 0.79956,-0.007 0.75511,0.40346 2.04393,1.83109 2.1696,2.40329 0.0673,0.30651 0.0154,0.58706 -0.1576,0.85104 -0.32639,0.49813 -1.82973,1.4514 -3.31975,2.10505 -1.70852,0.74951 -2.46134,0.66105 -5.88399,-0.69137 -1.87251,-0.73989 -2.73448,-1.01174 -2.84801,-0.89821 -0.0895,0.0895 -0.20146,0.72666 -0.2487,1.41581 -0.0782,1.14127 -0.0485,1.32938 0.33318,2.10953 0.26388,0.53934 0.77194,1.17586 1.37203,1.71891 1.55627,1.40834 1.81228,2.01971 1.20367,2.87443 -0.42476,0.59651 -1.0519,0.7982 -1.67167,0.53761 l 0,0 z"
         id="path3970"
         inkscape:connector-curvature="0" />
      <path
         style="fill:#ffcc00;fill-opacity:1;stroke:#ffcc00;stroke-width:0.4504188;stroke-linecap:square;stroke-linejoin:miter;stroke-miterlimit:4;stroke-opacity:1;stroke-dasharray:none;stroke-dashoffset:0"
         d="m 523.18157,147.76492 c -0.65637,-0.22771 -0.81793,-1.15103 -0.31359,-1.7922 0.73121,-0.92958 3.33676,-2.1667 4.99141,-2.36994 0.85608,-0.10515 0.88341,-0.0963 1.44688,0.46715 0.51928,0.51928 0.62914,0.56414 1.14656,0.46818 1.154,-0.21403 2.39795,-1.04947 4.29984,-2.88776 2.37172,-2.29241 2.71805,-2.49028 2.71805,-1.55289 0,0.22128 0.17386,1.03086 0.38636,1.79908 0.2125,0.76822 0.38723,1.48413 0.38829,1.59091 0.003,0.26409 -0.48903,0.24676 -1.81803,-0.0641 -1.24308,-0.29072 -1.86733,-0.16247 -2.01826,0.41467 -0.1911,0.73078 -2.88258,1.90738 -7.03396,3.07495 -2.81246,0.791 -3.79423,0.99045 -4.19355,0.85191 z"
         id="path3972"
         inkscape:connector-curvature="0" />
      <path
         style="fill:#ffcc00;fill-opacity:1;stroke:#ffcc00;stroke-width:0.4504188;stroke-linecap:square;stroke-linejoin:miter;stroke-miterlimit:4;stroke-opacity:1;stroke-dasharray:none;stroke-dashoffset:0"
         d="m 554.55557,145.55646 c -0.74021,-0.55232 -2.29836,-0.802 -7.29989,-1.16977 -4.76894,-0.35067 -6.40519,-0.80275 -6.97943,-1.92836 -0.38041,-0.74567 -0.41702,-1.83142 -0.0781,-2.31535 0.58032,-0.82852 1.94564,-1.04394 3.15068,-0.49711 0.37128,0.16847 1.16155,0.72608 1.75617,1.23912 0.59461,0.51304 1.22947,0.9328 1.4108,0.9328 0.20202,0 0.60455,-0.31102 1.03954,-0.80323 0.39042,-0.44177 0.93157,-1.05326 1.20255,-1.35885 l 0.49269,-0.55563 0.1124,0.99347 c 0.13039,1.15251 0.60935,1.82063 1.41582,1.97496 0.3983,0.0762 0.57202,0.0171 0.89307,-0.30396 0.32799,-0.32799 0.39838,-0.54428 0.39742,-1.22106 -10e-4,-0.75361 -0.17499,-2.15576 -0.40927,-3.29977 -0.0814,-0.39744 0.0289,-0.31509 0.83233,0.62127 2.07742,2.42123 2.70468,3.73121 2.80608,5.86023 0.0645,1.35543 -0.0239,2.1353 -0.24108,2.12589 -0.0624,-0.003 -0.28826,-0.1353 -0.50182,-0.29465 z"
         id="path3974"
         inkscape:connector-curvature="0" />
      <path
         style="fill:#ffcc00;fill-opacity:1;stroke:#ffcc00;stroke-width:0.4504188;stroke-linecap:square;stroke-linejoin:miter;stroke-miterlimit:4;stroke-opacity:1;stroke-dasharray:none;stroke-dashoffset:0"
         d="m 560.74359,146.24989 c -1.41767,-0.55505 -2.03733,-0.85971 -2.52229,-1.2401 -0.24373,-0.19117 -0.26063,-0.27251 -0.0975,-0.4691 0.46819,-0.56414 1.90465,-0.1086 3.15221,0.99964 0.71968,0.63931 1.1818,1.25352 0.93435,1.24185 -0.0671,-0.003 -0.72714,-0.2427 -1.46681,-0.53229 z"
         id="path3976"
         inkscape:connector-curvature="0" />
      <path
         style="fill:#ffcc00;fill-opacity:1;stroke:#ffcc00;stroke-width:0.4504188;stroke-linecap:square;stroke-linejoin:miter;stroke-miterlimit:4;stroke-opacity:1;stroke-dasharray:none;stroke-dashoffset:0"
         d="m 558.42973,167.41045 c -0.7573,-0.82914 -0.49794,-1.58744 0.40262,-1.17712 0.43544,0.1984 0.62127,0.70365 0.47426,1.2894 -0.12926,0.51499 -0.3271,0.48966 -0.87688,-0.11228 z"
         id="path3978"
         inkscape:connector-curvature="0" />
      <path
         style="fill:#ffcc00;fill-opacity:1;stroke:#ffcc00;stroke-width:0.4504188;stroke-linecap:square;stroke-linejoin:miter;stroke-miterlimit:4;stroke-opacity:1;stroke-dasharray:none;stroke-dashoffset:0"
         d="m 536.73925,164.80271 c -1.18782,-0.59356 -2.88099,-2.13817 -3.47053,-3.16602 -0.61443,-1.07126 -0.61478,-1.84124 -10e-4,-2.41451 0.97668,-0.91235 3.7299,-2.08003 6.06027,-2.57024 2.10361,-0.44251 3.4618,-0.21142 3.67166,0.62472 0.22796,0.90827 -0.9089,1.41684 -3.82022,1.70897 -2.74104,0.27504 -3.69544,0.6532 -4.06086,1.60904 -0.392,1.02536 0.63424,2.11454 2.93888,3.11913 1.93363,0.84286 2.09045,0.98361 1.4595,1.30988 -0.75007,0.38788 -1.7124,0.31132 -2.77761,-0.22097 l 0,0 z"
         id="path3980"
         inkscape:connector-curvature="0" />
      <path
         style="fill:#ffcc00;fill-opacity:1;stroke:#ffcc00;stroke-width:0.4504188;stroke-linecap:square;stroke-linejoin:miter;stroke-miterlimit:4;stroke-opacity:1;stroke-dasharray:none;stroke-dashoffset:0"
         d="m 539.26751,161.64768 c -0.68329,-0.49963 0.50237,-1.5025 1.77637,-1.5025 0.46927,0 0.73536,0.10085 1.02176,0.38725 0.47522,0.47522 0.3232,0.89006 -0.42127,1.14958 -0.67559,0.23551 -2.03467,0.21588 -2.37686,-0.0343 l 0,0 z"
         id="path3982"
         inkscape:connector-curvature="0" />
      <path
         style="fill:#ffcc00;fill-opacity:1;stroke:#ffcc00;stroke-width:0.4504188;stroke-linecap:square;stroke-linejoin:miter;stroke-miterlimit:4;stroke-opacity:1;stroke-dasharray:none;stroke-dashoffset:0"
         d="m 532.2965,181.74112 c -0.66484,-0.21398 -0.84892,-0.43123 -0.96757,-1.14189 -0.0598,-0.35814 -0.31514,-1.34811 -0.56744,-2.19994 -0.77022,-2.60044 -0.93911,-5.68592 -0.33845,-6.18312 0.67694,-0.56033 0.93655,-0.941 1.55903,-2.28603 1.19385,-2.57966 1.51791,-3.15676 1.9497,-3.47212 0.37614,-0.27471 0.49008,-0.28744 1.05595,-0.1179 0.8043,0.24098 3.10426,2.40725 3.10426,2.92382 0,0.23649 -0.33634,0.61393 -1.08901,1.22206 -0.61431,0.49634 -1.13045,1.04497 -1.18407,1.25861 -0.18131,0.72239 0.0733,1.60622 1.08126,3.75423 2.02797,4.32149 2.00852,5.35404 -0.11336,6.01998 -0.91009,0.28562 -3.84247,0.43079 -4.4903,0.2223 l 0,0 z"
         id="path3984"
         inkscape:connector-curvature="0" />
      <path
         style="fill:#ffcc00;fill-opacity:1;stroke:#ffcc00;stroke-width:0.4504188;stroke-linecap:square;stroke-linejoin:miter;stroke-miterlimit:4;stroke-opacity:1;stroke-dasharray:none;stroke-dashoffset:0"
         d="m 543.21744,174.63699 c -0.76657,-0.3953 -0.75416,-0.95399 0.0297,-1.33715 0.48144,-0.23533 0.67533,-0.25278 1.20979,-0.10886 0.35005,0.0943 0.86087,0.37342 1.13515,0.62037 0.47227,0.4252 0.48455,0.46334 0.2316,0.71988 -0.39775,0.40339 -1.9101,0.46476 -2.60626,0.10576 z"
         id="path3986"
         inkscape:connector-curvature="0" />
      <path
         style="fill:#ffcc00;fill-opacity:1;stroke:#ffcc00;stroke-width:0.4504188;stroke-linecap:square;stroke-linejoin:miter;stroke-miterlimit:4;stroke-opacity:1;stroke-dasharray:none;stroke-dashoffset:0"
         d="m 545.46953,179.89717 c -0.61853,-0.072 -0.85424,-0.28897 -0.85424,-0.7863 0,-1.26456 2.35296,-2.96806 4.09963,-2.96806 0.96653,0 1.64709,-0.16234 1.64709,-0.39291 0,-0.10931 -0.55971,-0.64051 -1.24381,-1.18044 -0.6841,-0.53992 -1.21961,-1.0533 -1.19001,-1.14084 0.0333,-0.0985 0.87776,-0.15917 2.21454,-0.15917 1.85554,0 2.22133,0.0411 2.58969,0.29086 0.9391,0.6368 0.63484,1.72314 -0.92641,3.30761 -1.91619,1.9447 -4.60619,3.2307 -6.33648,3.02925 z"
         id="path3988"
         inkscape:connector-curvature="0" />
      <path
         style="fill:#ffcc00;fill-opacity:1;stroke:#ffcc00;stroke-width:0.4504188;stroke-linecap:square;stroke-linejoin:miter;stroke-miterlimit:4;stroke-opacity:1;stroke-dasharray:none;stroke-dashoffset:0"
         d="m 547.31465,187.81281 c -0.7864,-0.14061 -1.41533,-0.53682 -1.64206,-1.03444 -0.38927,-0.85436 0.75993,-2.57726 2.59026,-3.88336 1.49343,-1.06569 4.36522,-2.66744 4.99394,-2.78539 0.30948,-0.0581 0.83287,-0.27611 1.16307,-0.48456 1.25022,-0.78923 3.25762,-3.82725 3.94296,-5.96732 0.40762,-1.27285 0.77143,-1.91598 1.39212,-2.46094 1.07025,-0.9397 2.06458,-0.46859 2.42675,1.14978 0.38166,1.70542 -0.38506,4.18118 -1.9212,6.20364 -0.8067,1.06208 -1.72302,1.79059 -3.32535,2.64377 -1.60171,0.85284 -2.89791,2.0776 -4.02366,3.80188 -1.14947,1.76062 -1.4332,2.07406 -2.25855,2.49513 -0.69547,0.3548 -2.2927,0.50877 -3.33828,0.32181 l 0,0 z"
         id="path3990"
         inkscape:connector-curvature="0" />
    </g>
    <path
       sodipodi:nodetypes="sscccsscsscs"
       inkscape:connector-curvature="0"
       id="path4074"
       d="m 513.20596,100.8676 c 0,-14.38786 -0.11092,-30.665954 -0.24649,-36.173541 l -0.2465,-10.828219 36.79856,-0.32577 37.12433,0.162885 0.62529,34.596355 c 0.33252,18.39817 -0.16992,34.59222 -0.71194,35.71588 l -1.01147,2.09683 -19.46963,0.23028 c -10.70829,0.12665 -26.98294,0.3326 -36.16589,0.45766 l -16.69626,0.22739 z"
       style="fill:#ffcc00;fill-opacity:1;stroke:#ffcc00;stroke-width:0.98838234;stroke-linecap:square;stroke-linejoin:miter;stroke-miterlimit:4;stroke-opacity:1;stroke-dasharray:none;stroke-dashoffset:0" />
    <g
       transform="matrix(0.64308029,0,0,0.67506416,641.26287,-6.073116)"
       id="g3863">
      <path
         sodipodi:type="arc"
         style="fill:#000099;fill-opacity:1;stroke:none"
         id="path3774"
         sodipodi:cx="-139.27118"
         sodipodi:cy="140.66949"
         sodipodi:rx="38.033897"
         sodipodi:ry="37.194916"
         d="m -101.23728,140.66949 c 0,20.54219 -17.02836,37.19492 -38.0339,37.19492 -21.00554,0 -38.0339,-16.65273 -38.0339,-37.19492 0,-20.54218 17.02836,-37.19491 38.0339,-37.19491 21.00554,0 38.0339,16.65273 38.0339,37.19491 z"
         transform="matrix(0.97058823,0,0,0.96992481,-5.2148553,3.1120174)" />
      <g
         id="g3838"
         transform="matrix(1.8335101,0,0,1.782032,-405.95834,46.951817)">
        <path
           sodipodi:nodetypes="ccccccccc"
           inkscape:connector-curvature="0"
           id="path3780"
           d="m 143.49955,51.824257 0,-20.853573 1.44023,0 1.44022,0 0,20.853573 0,21.124375 -1.44022,0 -1.44023,0 z"
           style="fill:#ffcc00;fill-opacity:1;stroke:none" />
        <path
           sodipodi:nodetypes="ccccccccc"
           inkscape:connector-curvature="0"
           id="path3780-7"
           d="m 144.54705,53.180384 -20.87551,0.01075 -7.9e-4,-1.440226 -7.8e-4,-1.440226 20.87552,-0.01075 21.28995,-0.01075 7.9e-4,1.440226 7.8e-4,1.440226 z"
           style="fill:#ffcc00;fill-opacity:1;stroke:none" />
        <path
           sodipodi:nodetypes="ccccccccc"
           inkscape:transform-center-y="-5.59982"
           inkscape:transform-center-x="7.7210352"
           inkscape:connector-curvature="0"
           id="path3780-7-4"
           d="m 144.1922,52.783781 -14.75048,-14.711715 1.01254,-1.024221 1.01253,-1.024222 14.75047,14.711715 14.75047,14.711715 -1.01253,1.024225 -1.01253,1.024219 z"
           style="fill:#ffcc00;fill-opacity:1;stroke:none" />
        <path
           sodipodi:nodetypes="ccccccccc"
           inkscape:transform-center-y="-5.59982"
           inkscape:transform-center-x="-7.7210358"
           inkscape:connector-curvature="0"
           id="path3780-7-4-0"
           d="m 145.81304,53.02624 15.02676,-14.847115 -1.01253,-1.024221 -1.01254,-1.024222 -15.02676,14.847115 -14.75047,14.711715 1.01253,1.024225 1.01254,1.024219 z"
           style="fill:#ffcc00;fill-opacity:1;stroke:none" />
        <path
           transform="matrix(1.1375,0,0,1.0941176,-19.994586,-5.1869739)"
           d="m 150.17624,52.329342 c 0,3.073193 -2.34477,5.564507 -5.23718,5.564507 -2.89242,0 -5.23719,-2.491314 -5.23719,-5.564507 0,-3.073193 2.34477,-5.564508 5.23719,-5.564508 2.89241,0 5.23718,2.491315 5.23718,5.564508 z"
           sodipodi:ry="5.5645075"
           sodipodi:rx="5.2371836"
           sodipodi:cy="52.329342"
           sodipodi:cx="144.93906"
           id="path3836"
           style="fill:#ffcc00;fill-opacity:1;stroke:none"
           sodipodi:type="arc" />
      </g>
    </g>
    <path
       sodipodi:nodetypes="csssccsccccc"
       inkscape:connector-curvature="0"
       id="path4076"
       d="m 505.93854,207.84865 c -15.35547,-2.39389 -32.21034,-10.29219 -44.23309,-22.47338 -7.29403,-7.39016 -12.73071,-15.00115 -15.65627,-23.16997 -1.90727,-5.32552 -1.91161,-7.32904 -2.28735,-20.46012 -0.19665,-6.87253 0.72008,-12.43313 0.84268,-12.55598 0.23568,-0.23614 67.57624,-0.95837 67.78907,-0.72704 0.0683,0.0743 0.24591,18.09351 0.39465,40.04278 l 0.27044,39.90776 -1.98006,-0.0357 c -1.08904,-0.0197 -3.40207,-0.25739 -5.14007,-0.52835 l 0.16289,0.81445 z"
       style="fill:#ffcc00;fill-opacity:1;stroke:#ffcc00;stroke-opacity:1" />
    <g
       transform="matrix(1.2936217,0,0,1.2353586,531.86473,35.88433)"
       id="g3941">
      <g
         id="g3909"
         transform="translate(12.224012,-31.347744)">
        <path
           inkscape:connector-curvature="0"
           id="path3874"
           d="m -32.131767,141.61533 c -1.091085,-1.5206 -1.523519,-2.0015 -1.799784,-2.0015 -0.158203,0 -0.943655,0.14685 -1.926446,0.36018 -0.624235,0.13549 -1.292538,0.13878 -1.546221,0.008 -0.395121,-0.20433 -1.377043,-1.39042 -3.568834,-4.31089 -1.905328,-2.53878 -2.48695,-3.22595 -3.003373,-3.54839 -0.138904,-0.0867 -0.323168,-0.0396 -2.358319,0.60265 -5.045674,1.5924 -10.231943,2.96484 -15.449143,4.08828 -1.775403,0.3823 -1.906393,0.39822 -2.344148,0.28489 -0.356283,-0.0922 -0.521458,-0.17839 -1.518854,-0.79211 -0.418408,-0.25746 -2.637218,-1.31967 -2.756607,-1.31967 -0.03328,0 -0.09307,0.0416 -0.132869,0.0924 -0.0398,0.0508 -0.451409,0.58606 -0.91469,1.18946 -0.463282,0.6034 -1.148968,1.48401 -1.523748,1.95693 l -0.681419,0.85983 -0.346412,-0.27325 c -0.190527,-0.1503 -0.34805,-0.28824 -0.35005,-0.30655 -0.002,-0.0183 0.196225,-0.28227 0.440502,-0.58658 0.244277,-0.30431 0.880751,-1.12521 1.414386,-1.82422 0.965719,-1.26499 1.785847,-2.28114 1.841094,-2.28114 0.118338,0 3.101319,1.46327 3.567457,1.74998 0.853899,0.52521 1.137008,0.66151 1.373983,0.66151 0.230675,0 2.362413,-0.45094 4.622171,-0.97777 4.722149,-1.10089 8.987788,-2.28398 13.646863,-3.78502 0.659081,-0.21234 1.260326,-0.38543 1.3361,-0.38464 0.404753,0.004 1.096062,0.52767 1.848673,1.39984 0.247461,0.28677 1.199084,1.51859 2.114716,2.73737 0.915633,1.21879 1.985145,2.59725 2.376695,3.06326 0.680093,0.80941 0.723837,0.84816 0.97885,0.86697 0.146819,0.0108 0.673479,-0.0724 1.170356,-0.18495 0.496877,-0.11254 1.144122,-0.22077 1.438323,-0.24052 0.490797,-0.0329 0.565199,-0.0211 0.9022,0.14381 0.267121,0.13069 0.46334,0.29757 0.71948,0.61189 0.410033,0.50317 2.262559,3.07639 2.231326,3.09939 -0.01163,0.009 -0.164682,0.12317 -0.340108,0.25469 -0.175426,0.13152 -0.341624,0.23913 -0.36933,0.23913 -0.0277,0 -0.519474,-0.65377 -1.09282,-1.45281 l 0,0 z"
           style="fill:#000099;fill-opacity:1;stroke:#000099;stroke-width:0.18900919;stroke-linecap:round;stroke-linejoin:round;stroke-miterlimit:4;stroke-opacity:1;stroke-dasharray:none;stroke-dashoffset:0" />
        <path
           inkscape:connector-curvature="0"
           id="path3878"
           d="m -44.444949,147.8712 c -0.168102,-0.14797 -0.296879,-0.30551 -0.286172,-0.35009 0.01071,-0.0446 0.887515,-1.03069 1.94846,-2.19135 1.060946,-1.16065 2.698898,-2.95369 3.639895,-3.98452 l 1.710902,-1.87424 0.238053,0.18879 c 0.130928,0.10384 0.287088,0.24334 0.34702,0.31003 0.103983,0.11569 -0.04465,0.28969 -3.24905,3.80365 -3.399609,3.72803 -3.988171,4.36677 -4.023745,4.36677 -0.01085,0 -0.15726,-0.12107 -0.325363,-0.26904 l 0,0 z"
           style="fill:#000099;fill-opacity:1;stroke:#000099;stroke-width:0.18900919;stroke-linecap:round;stroke-linejoin:round;stroke-miterlimit:4;stroke-opacity:1;stroke-dasharray:none;stroke-dashoffset:0" />
        <path
           sodipodi:nodetypes="cscsccccscscscscccsscscscscccccc"
           inkscape:connector-curvature="0"
           id="path3907"
           d="m -59.339807,134.30535 c -0.01148,-0.79356 -0.02089,-1.72139 -0.02091,-2.06184 -2.8e-5,-0.45671 -0.01037,-0.62757 -0.03946,-0.65171 -0.04815,-0.04 -1.664601,-0.88959 -1.692479,-0.88959 -0.01505,0 -1.186594,4.4496 -1.523918,5.93039 l -0.04365,0.19163 -0.46309,-0.10966 c -0.254699,-0.0603 -0.466794,-0.11241 -0.471322,-0.11577 -0.0072,-0.005 0.730736,-2.6723 1.397177,-5.51368 0.103168,-0.43986 0.187438,-0.81594 0.187267,-0.83574 -1.58e-4,-0.0198 -0.124432,-0.10239 -0.276135,-0.18353 l -0.275824,-0.14753 -1.824911,0.37474 c -1.003702,0.2061 -1.827425,0.37893 -1.830496,0.38406 -0.0031,0.005 0.01191,0.9812 0.03329,2.16906 0.02138,1.18785 0.03594,2.16268 0.03234,2.16627 -0.0036,0.004 -0.222639,0.0166 -0.486767,0.0289 l -0.480232,0.0224 -7.97e-4,-0.23332 c -4.38e-4,-0.12833 -0.02081,-1.29034 -0.04528,-2.58225 -0.02447,-1.29191 -0.03967,-2.35374 -0.0338,-2.35961 0.0059,-0.006 1.082519,-0.23057 2.392537,-0.49932 l 2.38185,-0.48863 2.001085,1.05022 c 1.635457,0.85834 2.001101,1.06183 2.001177,1.1137 6.3e-5,0.0349 0.01565,0.94335 0.03467,2.01878 0.01902,1.07542 0.03488,2.11496 0.03525,2.3101 l 6.68e-4,0.3548 -0.483685,0 -0.483685,0 -0.02087,-1.44283 z"
           style="fill:#000099;fill-opacity:1;stroke:#000099;stroke-width:0.09145813;stroke-linecap:square;stroke-linejoin:miter;stroke-miterlimit:4;stroke-opacity:1;stroke-dasharray:none;stroke-dashoffset:0" />
      </g>
      <path
         sodipodi:type="star"
         style="fill:#000099;fill-opacity:1;stroke:#000099;stroke-width:2.9000001;stroke-linecap:square;stroke-linejoin:miter;stroke-miterlimit:4;stroke-opacity:1;stroke-dasharray:none;stroke-dashoffset:0"
         id="path3914"
         sodipodi:sides="5"
         sodipodi:cx="-49.370007"
         sodipodi:cy="90.322205"
         sodipodi:r1="16.29335"
         sodipodi:r2="6.2669835"
         sodipodi:arg1="0.96850898"
         sodipodi:arg2="1.6387901"
         inkscape:flatsided="false"
         inkscape:rounded="0"
         inkscape:randomized="0"
         d="m -40.139354,103.74861 -9.65644,-7.173903 -9.491053,6.675353 3.838782,-11.400674 -9.281538,-6.963729 12.028937,0.127895 3.754747,-10.979178 3.595511,11.479721 11.602099,0.178224 -9.80679,6.966963 z"
         transform="matrix(0.1146802,-0.00399121,0.00380505,0.12029118,-45.047478,83.003258)" />
      <path
         sodipodi:type="star"
         style="fill:#000099;fill-opacity:1;stroke:#000099;stroke-width:2.9000001;stroke-linecap:square;stroke-linejoin:miter;stroke-miterlimit:4;stroke-opacity:1;stroke-dasharray:none;stroke-dashoffset:0"
         id="path3914-4"
         sodipodi:sides="5"
         sodipodi:cx="-49.370007"
         sodipodi:cy="90.322205"
         sodipodi:r1="16.29335"
         sodipodi:r2="6.2669835"
         sodipodi:arg1="0.96850898"
         sodipodi:arg2="1.6387901"
         inkscape:flatsided="false"
         inkscape:rounded="0"
         inkscape:randomized="0"
         d="m -40.139354,103.74861 -9.65644,-7.173903 -9.491053,6.675353 3.838782,-11.400674 -9.281538,-6.963729 12.028937,0.127895 3.754747,-10.979178 3.595511,11.479721 11.602099,0.178224 -9.80679,6.966963 z"
         transform="matrix(0.1146802,-0.00399121,0.00380505,0.12029118,-38.023966,76.358967)" />
      <path
         sodipodi:type="star"
         style="fill:#000099;fill-opacity:1;stroke:#000099;stroke-width:2.9000001;stroke-linecap:square;stroke-linejoin:miter;stroke-miterlimit:4;stroke-opacity:1;stroke-dasharray:none;stroke-dashoffset:0"
         id="path3914-8"
         sodipodi:sides="5"
         sodipodi:cx="-49.370007"
         sodipodi:cy="90.322205"
         sodipodi:r1="16.29335"
         sodipodi:r2="6.2669835"
         sodipodi:arg1="0.96850898"
         sodipodi:arg2="1.6387901"
         inkscape:flatsided="false"
         inkscape:rounded="0"
         inkscape:randomized="0"
         d="m -40.139354,103.74861 -9.65644,-7.173903 -9.491053,6.675353 3.838782,-11.400674 -9.281538,-6.963729 12.028937,0.127895 3.754747,-10.979178 3.595511,11.479721 11.602099,0.178224 -9.80679,6.966963 z"
         transform="matrix(0.1146802,-0.00399121,0.00380505,0.12029118,-33.526172,83.926291)" />
    </g>
    <g
       style="fill:#ffcc00;fill-opacity:1;stroke:#ffcc00;stroke-opacity:1"
       transform="matrix(0.88188902,0,0,0.84731748,129.91129,1.877126)"
       id="g4091">
      <path
         style="fill:#ffcc00;fill-opacity:1;stroke:#ffcc00;stroke-width:0.4504188;stroke-linecap:square;stroke-linejoin:miter;stroke-miterlimit:4;stroke-opacity:1;stroke-dasharray:none;stroke-dashoffset:0"
         d="m 391.42989,132.65209 c -2.97834,-0.18883 -3.28631,-0.64137 -1.26164,-1.85388 1.35411,-0.81093 1.48495,-1.91007 1.60394,-13.474 l 0.0931,-9.0472 -4.73177,0 c -6.97186,0 -8.85329,0.30355 -10.75113,1.73459 -0.98138,0.74001 -1.08521,0.78385 -1.26711,0.5351 -0.28828,-0.39426 -0.43816,-3.19301 -0.33363,-6.23027 0.12793,-3.71731 0.15593,-3.76967 1.46309,-2.73641 0.4195,0.33159 0.98215,0.71637 1.25034,0.85505 1.34682,0.69646 4.71779,1.0161 10.78964,1.02306 l 3.53346,0.004 -0.006,-6.251514 c -0.006,-6.97542 -0.21208,-13.34816 -0.46508,-14.3991 -0.29924,-1.24308 -0.57467,-1.64231 -1.39961,-2.02868 -1.54878,-0.72541 -1.58861,-1.24322 -0.13545,-1.76066 1.68104,-0.59859 7.71866,-0.50777 9.26755,0.13939 0.75431,0.31517 0.60538,0.67469 -0.52795,1.27446 -1.73304,0.91716 -1.76826,1.16933 -1.86886,13.3811 l -0.0798,9.691954 5.56741,-0.097 c 7.87079,-0.13708 8.65949,-0.29112 9.38133,-1.83228 0.19525,-0.41687 0.48503,-0.87562 0.64395,-1.01944 0.26424,-0.23914 0.3101,-0.24036 0.53616,-0.0143 0.54272,0.54271 0.7172,1.79003 0.78816,5.63407 0.0658,3.56367 -0.0215,4.58185 -0.39277,4.58185 -0.0726,0 -0.53239,-0.3109 -1.02173,-0.69088 -1.8918,-1.46901 -3.84276,-1.79418 -10.76464,-1.79418 l -4.70821,0 0.004,8.19296 c 0.004,8.42755 0.131,11.46825 0.53923,12.87251 0.23896,0.822 0.63782,1.26678 1.61211,1.79771 0.58498,0.31877 0.65121,0.84499 0.13124,1.04268 -1.09714,0.41713 -4.72537,0.64445 -7.48922,0.46922 l 0,0 z"
         id="path3968"
         inkscape:connector-curvature="0" />
      <path
         sodipodi:type="arc"
         style="fill:#ffcc00;fill-opacity:1;stroke:#ffcc00;stroke-width:2.9000001;stroke-linecap:square;stroke-linejoin:miter;stroke-miterlimit:4;stroke-opacity:1;stroke-dasharray:none;stroke-dashoffset:0"
         id="path3992"
         sodipodi:cx="215.03615"
         sodipodi:cy="206.00847"
         sodipodi:rx="1.6308267"
         sodipodi:ry="1.7861435"
         d="m 216.66697,206.00847 c 0,0.98646 -0.73014,1.78614 -1.63082,1.78614 -0.90068,0 -1.63083,-0.79968 -1.63083,-1.78614 0,-0.98646 0.73015,-1.78614 1.63083,-1.78614 0.90068,0 1.63082,0.79968 1.63082,1.78614 z"
         transform="matrix(1.3072072,0,0,1.2105103,112.84975,-176.32605)" />
      <path
         sodipodi:type="arc"
         style="fill:#ffcc00;fill-opacity:1;stroke:#ffcc00;stroke-width:2.9000001;stroke-linecap:square;stroke-linejoin:miter;stroke-miterlimit:4;stroke-opacity:1;stroke-dasharray:none;stroke-dashoffset:0"
         id="path3992-8"
         sodipodi:cx="215.03615"
         sodipodi:cy="206.00847"
         sodipodi:rx="1.6308267"
         sodipodi:ry="1.7861435"
         d="m 216.66697,206.00847 c 0,0.98646 -0.73014,1.78614 -1.63082,1.78614 -0.90068,0 -1.63083,-0.79968 -1.63083,-1.78614 0,-0.98646 0.73015,-1.78614 1.63083,-1.78614 0.90068,0 1.63082,0.79968 1.63082,1.78614 z"
         transform="matrix(1.3072072,0,0,1.2105103,88.263702,-143.75291)" />
      <path
         sodipodi:type="arc"
         style="fill:#ffcc00;fill-opacity:1;stroke:#ffcc00;stroke-width:2.9000001;stroke-linecap:square;stroke-linejoin:miter;stroke-miterlimit:4;stroke-opacity:1;stroke-dasharray:none;stroke-dashoffset:0"
         id="path3992-8-2"
         sodipodi:cx="215.03615"
         sodipodi:cy="206.00847"
         sodipodi:rx="1.6308267"
         sodipodi:ry="1.7861435"
         d="m 216.66697,206.00847 c 0,0.98646 -0.73014,1.78614 -1.63082,1.78614 -0.90068,0 -1.63083,-0.79968 -1.63083,-1.78614 0,-0.98646 0.73015,-1.78614 1.63083,-1.78614 0.90068,0 1.63082,0.79968 1.63082,1.78614 z"
         transform="matrix(1.3072072,0,0,1.2105103,137.92107,-143.65256)" />
      <path
         sodipodi:type="arc"
         style="fill:#ffcc00;fill-opacity:1;stroke:#ffcc00;stroke-width:2.9000001;stroke-linecap:square;stroke-linejoin:miter;stroke-miterlimit:4;stroke-opacity:1;stroke-dasharray:none;stroke-dashoffset:0"
         id="path3992-8-4"
         sodipodi:cx="215.03615"
         sodipodi:cy="206.00847"
         sodipodi:rx="1.6308267"
         sodipodi:ry="1.7861435"
         d="m 216.66697,206.00847 c 0,0.98646 -0.73014,1.78614 -1.63082,1.78614 -0.90068,0 -1.63083,-0.79968 -1.63083,-1.78614 0,-0.98646 0.73015,-1.78614 1.63083,-1.78614 0.90068,0 1.63082,0.79968 1.63082,1.78614 z"
         transform="matrix(1.3072072,0,0,1.2105103,113.34911,-111.12565)" />
    </g>
    <g
       transform="matrix(1.08332,0,0,1.1112246,-43.078792,-2.8711627)"
       id="g4118">
      
    </g>
  </g>
  <rect
     style="fill:none;stroke:#000099;stroke-width:7.03495598;stroke-linecap:square;stroke-linejoin:miter;stroke-miterlimit:4;stroke-opacity:1;stroke-dasharray:none;stroke-dashoffset:0"
     id="rect4195"
     width="181.56221"
     height="381.43576"
     x="9.2883615"
     y="9.4237309" />
</svg>
