<?xml version="1.0" encoding="UTF-8" standalone="no"?>
<!DOCTYPE svg PUBLIC "-//W3C//DTD SVG 1.1//EN" "http://www.w3.org/Graphics/SVG/1.1/DTD/svg11.dtd">
<svg xmlns="http://www.w3.org/2000/svg" xmlns:xlink="http://www.w3.org/1999/xlink" version="1.1" width="703" height="503" viewBox="-1.5 -1.5 703 503">
<desc>Created with SVGMaker Editor 3.1.0</desc>
<defs>
</defs>
<g transform="matrix(1 0 0 1 350 250)" data-editor-group="true">
<g transform="translate(0,0)" style="">
<rect transform="translate(0,0)" style="fill: rgb(254,224,0); fill-rule: evenodd" x="-350" y="-250" width="700" height="250"/>
<rect transform="translate(0,0)" style="fill: rgb(5,13,129); fill-rule: evenodd" x="-350" y="0" width="700" height="250"/>
<circle transform="translate(0,0)" style="fill: rgb(255,255,255); fill-rule: evenodd" cx="0" cy="0" r="166"/>
<path transform="translate(0,0)" style="fill: rgb(248,166,9); fill-rule: evenodd" stroke-linecap="round" d="M-40.4289-166.537L0.0384-82.1887 40.4345-166.537C27.4907-169.6663 13.9068-171.3732 0.0384-171.3732-13.9011-171.3732-27.4851-169.6663-40.4289-166.537Z"/>
<path transform="translate(0,0)" style="fill: rgb(5,13,129); fill-rule: evenodd" stroke-linecap="round" d="M112.6138 24.0644L135.87 29.9673C116.6676 48.1741 136.2256 58.5576 143.1243 49.5965 136.0122 52.7257 135.0877 40.4931 144.0488 42.4845 148.5294 43.4801 149.1695 48.9564 148.1027 52.7969 146.1113 59.7666 138.6437 60.9757 132.314 60.6201 113.3961 59.411 110.0534 34.5901 112.6138 24.0644ZM-53.9493 98.527C-52.8825 108.9817-54.1626 118.5829-55.9406 127.9707-50.6066 120.7165-45.2726 113.5333-39.8675 106.2791-44.917 103.5054-48.8997 101.3007-53.9493 98.527ZM-96.1234 95.6822C-94.7721 94.1176-93.6342 92.4107-92.7097 90.7749-89.936 85.5121-87.8024 79.8225-86.2377 73.9195L-74.0051 85.2276ZM-98.1859 55.9261L-107.147 39.9953C-107.5026 42.0577-108.0716 44.0491-108.6405 45.8982-110.2763 51.0189-112.9077 55.855-116.8193 59.5533-117.2461 59.98-117.6728 60.3356-118.1706 60.7623ZM0.0308 114.3868C-2.5295 114.3868-4.6631 113.7467-6.6545 112.8933-2.1028 133.9448-11.9173 147.5998-30.1952 156.9877-18.6737 161.966-2.1028 162.7484 0.0308 162.7484 2.0933 162.7484 18.6643 161.966 30.1857 156.9877 11.9078 147.5998 2.0933 133.9448 6.645 112.8933 4.6536 113.7467 2.52 114.3868 0.0308 114.3868ZM-16.469 105.4968L-42.4278 117.3027C-27.2081 121.0009-25.7146 132.1668-31.0486 138.7098-35.6714 144.2572-43.8502 147.1731-47.9752 141.4124-40.8632 144.4705-40.4365 132.0245-49.3976 134.0159-53.0958 134.7982-54.9449 140.7723-52.9536 144.4705-51.0333 148.0977-47.5485 149.9468-43.5657 150.4446-21.7319 152.9338-7.7924 127.1173-16.469 105.4968ZM-60.9901 87.7168L-87.1623 101.3007C-56.7941 102.4386-74.7163 135.865-86.38 127.2595-78.6279 128.0418-82.1128 116.0225-90.0071 120.7165-93.2075 122.5656-93.1364 128.8241-90.1493 131.74-82.6106 139.0654-68.8845 131.9534-64.3328 123.3479-60.5634 116.2359-57.2208 103.5765-60.9901 87.7168ZM-89.4381 62.3269L-115.7525 67.5898C-93.7765 77.191-108.925 100.0917-118.5262 92.9085-110.7741 93.6909-114.259 81.6716-122.1533 86.2944-125.4249 88.2146-125.3537 94.7577-122.3667 97.6736-114.828 104.9989-102.1686 96.8201-97.6169 88.2146-93.8476 81.1026-90.8605 72.0704-89.4381 62.3269ZM-112.5521 24.0644L-135.8795 29.9673C-116.6771 48.1741-136.2351 58.5576-143.1337 49.5965-136.0217 52.7257-135.0972 40.4931-144.0583 42.4845-148.5389 43.4801-149.1789 48.9564-148.1121 52.7969-146.1208 59.7666-138.6532 60.9757-132.3235 60.6201-113.4056 59.411-110.063 34.5901-112.5521 24.0644ZM53.9398 98.527C52.873 108.9817 54.1531 118.5829 55.9311 127.9707 50.5971 120.7165 45.2631 113.5333 39.858 106.2791 44.9075 103.5054 48.8903 101.3007 53.9398 98.527ZM96.1139 95.6822C94.7627 94.1176 93.6247 92.4107 92.7002 90.7749 89.9265 85.5121 87.7929 79.8225 86.2283 73.9195L73.9956 85.2276ZM98.1764 55.9261L107.1375 39.9953C107.5643 42.0577 108.0621 44.0491 108.6311 45.8982 110.2668 51.0189 112.8983 55.855 116.8099 59.5533 117.2366 59.98 117.6633 60.3356 118.1611 60.7623ZM16.4595 105.4968L42.4183 117.3027C27.1987 121.0009 25.7051 132.1668 31.0391 138.7098 35.6619 144.2572 43.8407 147.1731 47.9657 141.4124 40.8537 144.4705 40.427 132.0245 49.3881 134.0159 53.0863 134.7982 54.9355 140.7723 53.0152 144.4705 51.095 148.0977 47.539 149.9468 43.5563 150.4446 21.7224 152.9338 7.854 127.1173 16.4595 105.4968ZM60.9806 87.7168L87.1528 101.3007C56.7846 102.4386 74.7068 135.865 86.3705 127.2595 78.6184 128.0418 82.1033 116.0225 89.9976 120.7165 93.2691 122.5656 93.1269 128.8241 90.1399 131.74 82.6011 139.0654 68.875 131.9534 64.3233 123.3479 60.6251 116.2359 57.2113 103.5765 60.9806 87.7168ZM89.4287 62.3269L115.7431 67.5898C93.767 77.191 108.9155 100.0917 118.5167 92.9085 110.7647 93.6909 114.2495 81.6716 122.1438 86.2944 125.4154 88.2146 125.3442 94.7577 122.3572 97.6736 114.8185 104.9989 102.1591 96.8201 97.6075 88.2146 93.8381 81.1026 90.851 72.0704 89.4287 62.3269ZM0.0308-175.0005C96.6829-175.0005 174.986-96.6263 174.986 0.0258L165.7404 0.0258C165.7404-91.5056 91.4911-165.6838 0.0308-165.6838-91.5006-165.6838-165.6788-91.5056-165.6788 0.0258L-174.9955 0.0258C-174.9955-96.6263-96.6213-175.0005 0.0308-175.0005Z"/>
<path transform="translate(0,0)" style="fill: rgb(29,30,33); fill-rule: evenodd" stroke-linecap="round" d="M-0.5963 51.8749L8.2225 36.7974 67.3944 35.2328C71.1637 34.7349 74.4353 33.597 77.2089 30.9656 81.2628 27.1962 84.0365 20.4398 86.4545 15.5325 88.5881 11.2653 91.2196 5.2201 89.5127 0.384 88.6593-2.0341 86.5257-4.0255 84.3209-1.6785 82.7563-0.0427 81.4761 3.7266 80.4093 5.8602 79.4137 8.2783 78.2046 11.052 75.7865 12.3321 74.293 13.1145 72.6573 13.1856 70.9504 13.1856L58.0777 13.1856C56.0152 13.1856 53.7393 13.4701 52.1747 11.9054 50.8234 10.6253 50.8234 8.9184 50.8234 7.2115 50.8234 6.1447 50.7523 5.3624 51.179 4.2956 51.9613 2.6598 53.4549 1.9486 55.1617 1.593 55.7307 1.5219 56.4419 1.3797 56.8686 0.9529 57.2242 0.6685 57.5798 0.2417 57.8643-0.1139 58.4333-0.9673 59.0022-1.7496 59.6423-2.6031 61.1358-4.4522 62.7716-6.1591 65.3319-6.3724 66.6832-6.4435 66.6832-6.2302 68.0345-7.0836 68.0345-7.1547 68.1767-7.2259 68.2478-7.2259 68.3901-7.5815 68.6745-9.1461 68.7457-9.5728 69.3857-11.9198 69.9547-14.2667 70.8081-16.5426 72.3728-20.7387 74.9331-22.0188 79.2714-22.8723 83.183-23.5835 86.4545-25.077 90.5084-23.5835 93.5665-22.4455 97.976-17.0404 100.0385-14.409 101.4609-12.631 102.8121-10.7819 104.1634-8.9327 105.088-7.6526 106.0125-6.3013 106.866-4.95 111.7733 3.2288 110.5642 10.1985 107.3638 18.6618 100.4652 36.5841 89.9394 53.0128 76.4266 66.5967 31.4788 111.5445-32.7426 111.5445-77.6193 66.5967-91.2032 53.0128-101.729 36.5841-108.6276 18.6618-111.828 10.1985-113.0371 3.2288-108.1298-4.95-107.2763-6.3013-106.3518-7.6526-105.4272-8.9327-104.0759-10.7819-102.7247-12.631-101.3023-14.409-99.1687-17.0404-94.8303-22.4455-91.7722-23.5835-87.7183-25.077-84.4468-23.5835-80.5352-22.8723-76.1969-22.0188-73.6366-20.7387-72.0719-16.5426-71.2185-14.2667-70.6495-11.9198-70.0095-9.5728-69.9383-9.1461-69.6539-7.5815-69.4405-7.2259-69.4405-7.2259-69.2983-7.1547-69.2271-7.0836-67.947-6.2302-67.947-6.4435-66.5957-6.3724-64.0354-6.1591-62.3996-4.4522-60.9061-2.6031-60.266-1.7496-59.6971-0.9673-59.057-0.1139-58.8436 0.2417-58.488 0.6685-58.1324 0.9529-57.7057 1.3797-56.9945 1.5219-56.4255 1.593-54.7187 1.9486-53.2251 2.6598-52.4428 4.2956-52.0161 5.3624-52.0872 6.1447-52.0872 7.2115-52.0872 8.9184-52.0872 10.6253-53.3674 11.9054-55.0031 13.4701-57.279 13.1856-59.3415 13.1856L-72.2142 13.1856C-73.9211 13.1856-75.4857 13.1145-77.0503 12.3321-79.4684 11.052-80.6775 8.2783-81.6731 5.8602-82.6688 3.7266-84.0201-0.0427-85.5847-1.6785-87.7183-4.0255-89.9231-2.0341-90.7765 0.384-92.4834 5.2201-89.8519 11.2653-87.7183 15.5325-85.3003 20.4398-82.5266 27.1962-78.4727 30.9656-75.6991 33.597-72.4275 34.7349-68.6582 35.2328-49.5269 35.6595-30.3245 36.2996-11.1932 36.7263L-9.4152 36.7974ZM-19.6565-60.7081C-19.5854-60.8503-19.0875-61.4904-18.9453-61.6327-16.3139-63.4107-16.9539-59.1435-15.6027-58.1478-13.7535-56.6543-15.6738-55.2319-16.8117-55.1607-18.163-55.0185-18.9453-53.0983-18.8031-52.4582L-18.8031-40.2255C-18.8031-35.9583-23.5681-36.6695-25.5595-37.8786-25.9151-32.6157-16.4561-30.9088-15.3893-38.0919-15.3893-39.5855-15.9583-43.0703-13.9669-42.0747-12.6867-41.4346-12.6156-37.8786-13.8958-36.1717-16.5983-32.4023-19.372-28.7041-22.0746-24.9347-22.9991-23.9391-27.1241-22.2322-30.1111-22.73-33.7383-23.299-32.8848-27.7795-35.943-27.8507-39.2856-27.9218-41.277-25.7171-41.4192-24.3658-38.6455-25.5037-35.943-24.508-37.8632-22.8011-39.0011-22.3033-41.5615-21.5921-41.6326-18.2495-39.2856-20.3119-35.4451-20.8098-36.2275-16.9693-36.5119-15.6891-35.3029-14.0534-32.6003-13.7689-29.5422-13.4133-37.6499-20.3119-25.7017-19.3874-22.2879-19.174-18.163-18.8184-17.3807-17.1827-16.385-15.0491-15.6027-14.9779-14.9626-14.9779-13.1135-14.9068-14.1091-20.6675-15.6738-20.952-18.8742-21.4499-22.0746-21.1654-18.6608-25.4326-16.5983-27.9929-14.5359-30.5532-12.4734-33.1135-9.3441-36.3139-6.7127-34.2515-5.8592-31.5489-5.2903-29.842-5.0769-27.7795-6.0726-27.2817-7.7083-26.4283-7.2105-23.7257-7.7795-22.73-8.2062-21.9477-9.5575-21.8055-9.7708-21.521-11.051-19.8141-7.6372-20.1697-6.926-20.2408-5.2903-20.3119-5.148-18.4628-6.4282-17.8939-7.8506-17.2538-6.2148-16.3292-6.7838-15.7603-8.5618-13.7689-11.2643-11.4931-13.1846-9.6439-14.5359-8.2927-16.2427-10.2129-17.7363-10.0707-21.5767-9.7862-17.3095-6.8703-17.2384-6.8703-15.1759-7.0125-15.4604-4.8789-16.1005-3.8121-17.0251-2.1763-16.2427-0.4695-15.5315 0.1706-14.2514 1.2374-13.2557 3.1577-13.2557-0.3272-13.2557-3.0298-13.9669-4.4522-12.6867-5.9457-10.1975-8.3638-7.6372-10.7819-5.0769-13.1999-4.2235-13.9823-3.1567-13.9823-2.9433-12.7732-2.5877-11.1375-3.8679-8.1504-5.2903-6.3013-6.2859-4.95-7.6372-3.9543-6.5704-3.5987-6.2148-3.4565-3.5834-3.1009-4.7213-2.1052-5.717-1.2518-5.9303-0.3272-6.5704 0.3129-8.5618 2.5176-8.0639 3.371-9.3441 5.3624-10.2687 6.7848-9.4152 8.9184-8.4195 9.0606-6.4993 8.6339-8.3484 7.2115-6.2859 6.3581-5.5747 6.0736-4.5079 4.9357-3.939 5.3624-2.9433 6.0736-2.5877 8.8473-2.8722 9.4873-3.5834 12.6166-1.5209 14.9636-0.5963 15.7459 0.2571 14.9636 2.3196 12.6166 1.6084 9.4873 1.3239 8.8473 1.6795 6.0736 2.6752 5.3624 3.3153 4.9357 4.3109 6.0736 5.0221 6.3581 7.0846 7.2115 5.2355 8.6339 7.2269 9.0606 8.1514 8.9184 9.0049 6.7848 8.1514 5.3624 6.8001 3.371 7.298 2.5176 5.3066 0.3129 4.7377-0.3272 4.4532-1.2518 3.4575-2.1052 2.3196-3.1009 4.951-3.4565 5.3066-3.5987 6.3734-3.9543 5.0221-4.95 4.0265-6.3013 2.6752-8.1504 1.3239-11.1375 1.6795-12.7732 1.8929-13.9823 2.9597-13.9823 3.8131-13.1999L11.4941-5.9457C12.7031-4.4522 11.9919-3.0298 11.9919-0.3272 11.9919 3.1577 13.0587 1.2374 14.2677 0.1706 14.9789-0.4695 15.8324-2.1763 14.8367-3.8121 14.1966-4.8789 13.9121-7.0125 15.9746-6.8703 16.0457-6.8703 20.3129-9.7862 16.4725-10.0707 14.9789-10.2129 13.2721-8.2927 11.9208-9.6439 10.0005-11.4931 7.298-13.7689 5.52-15.7603 5.0221-16.3292 6.5868-17.2538 5.1644-17.8939 3.8842-18.4628 4.0976-20.3119 5.6622-20.2408 6.3734-20.1697 9.7872-19.8141 8.507-21.521 8.3648-21.8055 6.9424-21.9477 6.5157-22.73 5.9467-23.7257 6.4445-26.4283 4.8088-27.2817 3.8131-27.7795 4.0265-29.842 4.5954-31.5489 5.4489-34.2515 8.0803-36.3139 11.2096-33.1135 13.2721-30.5532 15.3345-27.9929 17.397-25.4326 20.8108-21.1654 17.6104-21.4499 14.4811-20.952 12.9165-20.6675 11.8497-14.9068 13.6988-14.9779 14.3389-14.9779 15.1212-15.0491 16.1169-17.1827 16.8992-18.8184 21.0241-19.174 24.509-19.3874 36.3861-20.3119 28.2784-13.4133 31.3365-13.7689 34.0391-14.0534 35.2481-15.6891 34.9637-16.9693 34.1813-20.8098 38.0218-20.3119 40.3688-18.2495 40.2977-21.5921 37.7373-22.3033 36.5994-22.8011 34.6792-24.508 37.3817-25.5037 40.1554-24.3658 40.0132-25.7171 38.0218-27.9218 34.6792-27.8507 31.621-27.7795 32.4745-23.299 28.9185-22.73 25.8603-22.2322 21.7353-23.9391 20.8108-24.9347 18.1082-28.7041 15.3345-32.4023 12.632-36.1717 11.3518-37.8786 11.4229-41.4346 12.7031-42.0747 14.6945-43.0703 14.1966-39.5855 14.1966-38.0919 15.1923-30.9088 24.6513-32.6157 24.2957-37.8786 22.3043-36.6695 17.5393-35.9583 17.5393-40.2255L17.5393-52.4582C17.6815-53.0983 16.8992-55.0185 15.5479-55.1607 14.4811-55.2319 12.4897-56.6543 14.41-58.1478 15.6901-59.1435 15.1212-63.4107 17.7526-61.6327 17.8237-61.4904 18.3216-60.8503 18.3927-60.7081 18.2505-60.9926 18.4638-65.3309 18.3927-65.8287 18.2505-66.5399 18.4638-69.8826 16.9703-68.6024 16.4725-68.1757 16.7569-67.0378 16.8281-66.0421 17.1125-63.7663 14.9789-63.0551 14.9078-66.0421 14.8367-67.2511 14.9078-68.6735 14.9789-69.0291 15.0501-70.0959 15.9746-70.8071 17.0414-70.8071 17.6815-70.8071 18.7483-70.3093 19.5306-70.0959 19.9573-66.2555 21.0953-60.4947 22.5888-57.5077 22.3043-60.4947 22.2332-65.4731 22.2332-68.8869 22.5177-68.7447 22.9444-68.6735 23.2289-68.6735 23.5133-65.1175 24.2245-60.5659 25.7892-57.5077 25.5047-60.7792 25.5758-66.0421 25.6469-69.6692 26.9271-70.0248 26.6426-71.8739 28.7762-71.4472 29.843-71.2339 31.621-71.6606 31.8344-72.7274 31.9055-73.4386 32.1189-74.2209 32.3322-74.9321 32.5456-75.4299 32.8301-76.2123 33.399-76.2834 34.5369-76.5679 34.4658-75.4299 34.5369-75.0743 34.8925-71.2339 29.4163-69.3136 28.2073-68.3179 28.4206-65.1887 27.9939-47.7643 34.8214-45.5595 32.6167-49.4 31.3365-58.859 31.7633-67.3223 32.9723-67.8201 33.4701-68.3891 34.4658-69.3136 34.8214-52.5293 37.9507-39.3721 43.8537-37.4519 40.4399-45.4884 39.3731-55.7297 39.3731-67.9623 39.302-70.1671 41.4356-70.4515 41.5067-68.6735 42.0757-58.7167 42.3601-50.9647 46.414-47.5509 44.2804-52.8138 43.9248-59.5702 43.9959-68.8869 44.3515-71.6606 45.0627-74.0787 42.9291-74.5765 41.3645-74.861 40.2265-77.7058 39.9421-79.1993 39.5865-80.8351 41.2933-80.1239 41.6489-79.4127 43.2136-76.3545 45.6317-76.7812 42.7869-79.9105 41.7912-81.0484 43.2847-81.1907 41.6489-81.7596 37.4529-83.1109 39.1597-82.8975 36.6705-84.3911 35.746-84.96 34.3947-84.5333 34.8214-86.738 34.9637-87.4492 37.4529-87.0225 39.1597-85.8135 42.3601-83.6799 39.9421-87.1647 43.6403-87.0225 44.1381-87.0225 48.192-88.2315 48.2631-88.516 48.4053-89.7251 48.192-92.1431 48.6187-93.0677 48.9032-93.7789 47.9786-95.9125 46.9118-92.1431 46.5562-90.7919 43.0002-91.2186 44.2804-94.8457 45.1338-97.3349 42.6446-98.1172 41.7201-98.5439 38.9464-99.753 40.0843-98.0461 37.9507-96.5526 36.5283-95.5569 32.19-100.0375 39.2309-101.4599 41.0089-101.8155 42.0757-100.8198 43.3558-99.8241 44.2093-99.184 51.3213-94.1345 51.8902-93.0677 52.4592-92.1431 52.8148-90.5074 53.7393-87.5915 54.0238-86.8091 54.8773-80.9773 55.1617-77.5635 55.5173-72.2295 52.4592-75.2877 52.4592-79.8394 52.4592-80.9062 53.0993-85.8846 52.0325-86.1691 49.97-86.738 49.401-84.3199 46.9829-84.5333 45.9161-84.6044 42.4313-82.0441 46.2006-82.6131 48.192-82.9687 50.1122-84.1777 50.1122-80.1239 50.1122-78.0614 47.7653-78.7726 47.8364-76.7101 47.9786-72.2295 45.7028-70.8783 45.845-66.8955 46.4851-50.7513 50.7523-35.4605 56.513-30.6955 51.3924-40.0833 49.1877-56.4409 49.1165-73.1541 49.1165-76.639 51.2501-76.1411 51.179-73.5097 50.8945-56.1564 53.7393-42.0747 58.86-34.2515 55.2329-43.6393 54.3083-56.512 53.9527-69.4559 53.7393-75.1455 57.6509-69.7403 56.9397-77.7058 56.513-82.3997 55.5885-88.8005 53.9527-93.2099 52.8859-96.0547 47.4808-99.0418 46.414-99.753 45.5605-100.3931 41.7201-102.8823 41.2933-103.0956 39.0886-103.8779 38.3774-103.0245 37.0261-102.5978 35.0348-101.9577 33.6124-100.0375 32.2611-98.8995 31.0521-97.8327 32.6167-94.2767 33.2568-93.2811 34.3236-90.5074 31.9055-86.8091 30.2697-86.8091 28.2073-86.8091 28.065-87.4492 26.856-87.307 21.9487-86.6669 26.4293-84.8178 20.6685-85.1023 18.6772-85.7423 14.9789-88.3027 15.4768-90.7207 15.6901-91.9298 15.5479-93.0677 18.0371-92.7121 17.7526-95.3435 14.9078-96.197 15.6901-98.1883 16.188-99.3263 17.3259-99.0418 19.5306-97.4771 19.5306-99.4685 17.6104-100.8198 18.1793-103.6646 18.8905-107.0072 21.8065-106.296 24.6513-106.296 26.287-106.296 28.5629-107.5051 27.7805-109.6387 28.2784-109.6387 28.7762-109.4964 29.2741-109.1408 30.7676-108.2163 32.19-107.5051 33.6835-107.4339 35.177-107.4339 36.6705-108.074 38.0218-109.7098 38.3063-109.9231 38.2352-110.3499 37.9507-110.5632 37.7373-110.7766 37.3106-110.7766 37.0973-110.4921 35.9593-109.2119 34.8214-108.7141 33.6835-108.7141 32.5456-108.7852 31.2654-109.3542 29.9853-110.2076 29.0607-110.7766 28.2073-110.9188 27.4249-110.9188 27.3538-111.4878 27.4961-111.9856 27.9228-112.4123 29.4874-113.9059 33.2568-113.977 33.2568-111.2744 35.2481-112.9813 34.1813-115.6127 32.9012-116.3239 31.8344-116.8929 29.843-117.0351 28.065-116.3951 26.856-116.3951 26.5715-118.5287 24.2245-118.5998 15.7613-119.0976 16.5436-113.6214 7.9381-117.8886 7.6536-115.5416 10.7829-113.977 10.7829-112.1279 10.7829-109.0697 7.2269-111.0611 9.076-107.3628 10.0717-104.8736 5.1644-105.6559 3.1019-102.0999 4.3109-102.3133 4.8088-102.4555 6.1601-102.2422 7.8669-101.6021 6.8001-99.6107 4.951-98.1883 3.742-97.1927 2.5329-97.3349 2.0351-97.1927 1.1105-96.8371 1.8929-95.8414 1.8929-94.5612 1.8929-92.641 1.2528-92.3565-0.5963-89.7962-2.5166-92.3565-3.1567-92.641-3.1567-94.5612-3.1567-95.8414-2.3743-96.8371-3.2989-97.1927-3.7967-97.3349-5.0058-97.1927-6.2148-98.1883-8.0639-99.6107-9.1307-101.6021-7.4239-102.2422-6.0726-102.4555-5.5747-102.3133-4.3657-102.0999-6.4282-105.6559-11.3355-104.8736-10.3398-107.3628-8.4907-111.0611-12.0467-109.0697-12.0467-112.1279-12.0467-113.977-8.9174-115.5416-9.2019-117.8886-17.8074-113.6214-17.0251-119.0976-25.4883-118.5998-27.8353-118.5287-28.1198-116.3951-29.3288-116.3951-31.1068-117.0351-33.0982-116.8929-34.165-116.3239-35.4451-115.6127-36.5119-112.9813-34.4495-111.2744-34.4495-113.977-30.6801-113.9059-29.1155-112.4123-28.7599-111.9856-28.6176-111.4878-28.6887-110.9188-29.4711-110.9188-30.3245-110.7766-31.2491-110.2076-32.5292-109.3542-33.8094-108.7852-34.9473-108.7141-36.0852-108.7141-37.2231-109.2119-38.3611-110.4921-38.5744-110.7766-39.0011-110.7766-39.2145-110.5632-39.499-110.3499-39.499-109.9231-39.2856-109.7098-37.9343-108.074-36.4408-107.4339-34.9473-107.4339-33.4538-107.5051-32.0314-108.2163-30.5379-109.1408-30.04-109.4964-29.5422-109.6387-29.0443-109.6387-29.8267-107.5051-27.5508-106.296-25.9151-106.296-23.0703-106.296-20.0832-107.0072-19.4431-103.6646-18.8742-100.8198-20.7944-99.4685-20.7944-97.4771-18.5897-99.0418-17.4518-99.3263-16.9539-98.1883-16.1716-96.197-19.0164-95.3435-19.3009-92.7121-16.8117-93.0677-16.9539-91.9298-16.7406-90.7207-16.2427-88.3027-19.941-85.7423-21.9323-85.1023-27.6931-84.8178-23.2125-86.6669-28.1198-87.307-29.3288-87.4492-29.4711-86.8091-31.5335-86.8091-33.1693-86.8091-35.5874-90.5074-34.5206-93.2811-33.8805-94.2767-32.3159-97.8327-33.5249-98.8995-34.8762-100.0375-36.2986-101.9577-38.2899-102.5978-39.6412-103.0245-40.3524-103.8779-42.486-103.0956-42.9839-102.8823-46.8243-100.3931-47.6778-99.753-48.7446-99.0418-54.1497-96.0547-55.2165-93.2099-56.8523-88.8005-57.7768-82.3997-58.2035-77.7058-58.9147-69.7403-55.0031-75.1455-55.2165-69.4559-55.5721-56.512-56.4967-43.6393-60.1238-34.2515-55.0031-42.0747-52.0872-56.1564-52.4428-73.5097-52.5139-76.1411-50.3803-76.639-50.3803-73.1541-50.4515-56.4409-52.6562-40.0833-57.7768-30.6955-52.0161-35.4605-47.7489-50.7513-47.1088-66.8955-46.9666-70.8783-49.2424-72.2295-49.1002-76.7101-48.9579-78.7726-51.376-78.0614-51.376-80.1239-51.376-84.1777-49.4558-82.9687-47.4644-82.6131-43.6951-82.0441-47.1799-84.6044-48.2467-84.5333-50.5937-84.3199-51.2338-86.738-53.2963-86.1691-54.3631-85.8846-53.723-80.9062-53.723-79.8394-53.723-75.2877-56.7811-72.2295-56.3544-77.5635-56.1411-80.9773-55.2165-86.8091-55.0031-87.5915-54.0786-90.5074-53.6519-92.1431-53.154-93.0677-52.5851-94.1345-45.4731-99.184-44.5485-99.8241-43.3395-100.8198-42.2727-101.8155-40.4947-101.4599-33.3827-100.0375-37.7921-95.5569-39.1434-96.5526-41.277-98.0461-40.2102-99.753-42.9839-98.5439-43.9084-98.1172-46.3976-97.3349-45.5442-94.8457-44.264-91.2186-47.7489-90.7919-48.1756-92.1431-49.2424-95.9125-50.167-93.7789-49.8825-93.0677-49.4558-92.1431-49.6691-89.7251-49.4558-88.516-49.4558-88.2315-45.4019-87.0225-44.9041-87.0225-41.2059-87.1647-43.6239-83.6799-40.4235-85.8135-38.7167-87.0225-36.2275-87.4492-36.0852-86.738-35.6585-84.5333-37.0098-84.96-37.9343-84.3911-40.4235-82.8975-38.7167-83.1109-42.9127-81.7596-44.5485-81.1907-43.055-81.0484-44.0507-79.9105-46.8955-76.7812-44.4774-76.3545-42.9127-79.4127-42.5571-80.1239-40.8503-80.8351-41.2059-79.1993-41.4903-77.7058-42.6283-74.861-44.1929-74.5765-46.3265-74.0787-45.5442-71.6606-45.2597-68.8869-45.1886-59.5702-45.5442-52.8138-47.6778-47.5509-43.5528-50.9647-43.2683-58.7167-42.6994-68.6735-42.6283-70.4515-40.5658-70.1671-40.6369-67.9623-40.6369-55.7297-41.7037-45.4884-45.0463-37.4519-39.2145-39.3721-36.0852-52.5293-35.7296-69.3136-34.7339-68.3891-34.2361-67.8201-33.0271-67.3223-32.6003-58.859-33.8805-49.4-36.0852-45.5595-29.2577-47.7643-29.6844-65.1887-29.3999-68.3179-30.6801-69.3136-36.1563-71.2339-35.8007-75.0743-35.7296-75.4299-35.8007-76.5679-34.6628-76.2834-34.0939-76.2123-33.8094-75.4299-33.596-74.9321-33.3827-74.2209-33.1693-73.4386-33.0271-72.7274-32.8848-71.6606-31.1068-71.2339-30.04-71.4472-27.9064-71.8739-28.1909-70.0248-26.9107-69.6692-26.8396-66.0421-26.7685-60.7792-27.053-57.5077-25.4883-60.5659-24.7771-65.1175-24.4927-68.6735-24.2082-68.6735-23.7815-68.7447-23.4259-68.8869-23.4259-65.4731-23.5681-60.4947-23.8526-57.5077-22.3591-60.4947-21.2211-66.2555-20.7944-70.0959-20.0121-70.3093-18.9453-70.8071-18.3052-70.8071-17.2384-70.8071-16.3139-70.0959-16.2427-69.0291-16.1716-68.6735-16.1005-67.2511-16.1716-66.0421-16.2427-63.0551-18.3052-63.7663-18.0919-66.0421-18.0207-67.0378-17.7363-68.1757-18.2341-68.6024-19.7276-69.8826-19.5143-66.5399-19.6565-65.8287-19.7276-65.3309-19.5143-60.9926-19.6565-60.7081ZM18.7483-119.8799C20.1707-119.9511 21.5931-120.0222 23.0866-120.0933 25.078-122.5825 26.9982-125.0006 28.9896-127.4187 26.0025-126.3519 24.0112-127.0631 23.3711-129.1255 21.7353-127.4187 19.6729-127.4898 18.2505-128.8411 16.8992-127.3475 14.9078-127.0631 13.1298-128.5566 12.7031-126.423 10.7829-125.4984 7.6536-126.2807 9.9294-124.076 12.1341-121.8713 14.3389-119.6666 15.8324-119.7377 17.2548-119.8088 18.7483-119.8799ZM15.1212-121.5868C14.0544-122.5825 13.0587-123.5782 12.063-124.5739 12.7742-124.8583 13.4854-125.3562 13.9833-125.9963 15.4768-125.4984 17.0414-125.6407 18.3216-126.4941 19.8151-125.7829 21.3797-125.7829 22.8021-126.423 23.3711-125.854 24.0823-125.4984 24.7935-125.2851 23.9401-124.1471 23.0155-123.0803 22.1621-121.9424 20.953-121.8713 19.8151-121.8002 18.6061-121.7291 17.4681-121.7291 16.2591-121.6579 15.1212-121.5868ZM22.4465-82.8975C19.9573-81.6174 19.1039-77.7058 22.1621-76.7812 24.509-75.9989 27.4961-78.2747 25.4336-80.4795 24.9357-80.9773 23.2289-79.9105 23.8689-81.4751 24.0112-81.973 25.1491-82.6842 25.6469-82.6842 26.6426-82.6842 27.2827-82.9687 27.4961-81.6885 27.5672-81.3329 28.1361-78.8437 28.2073-78.7015 28.5629-78.2747 28.5629-77.848 29.4874-77.7058 30.4831-77.6347 31.6921-78.5592 31.621-79.9105 31.5499-81.4751 31.3365-82.8264 33.4701-82.5419 33.7546-82.4708 33.399-81.973 34.2525-81.6174 35.0348-81.2618 35.8882-81.973 35.6749-82.9687 35.177-84.8178 34.5369-83.751 33.8257-84.8178 32.8301-86.3113 30.8387-84.96 30.5542-83.182 30.4831-82.7553 29.5585-82.3286 29.0607-82.6842 28.634-83.1109 29.7008-85.2445 28.2073-85.1734 27.4961-85.1734 26.1448-84.8178 25.5758-84.6755 24.8646-84.3911 23.1577-83.3954 22.4465-82.8975ZM19.8862-115.186C18.9617-115.186 18.1793-114.4748 18.1793-113.6925 18.1793-112.8391 18.9617-112.199 19.8862-112.199 20.8108-112.199 21.5931-112.8391 21.5931-113.6925 21.5931-114.4748 20.8108-115.186 19.8862-115.186ZM-19.941-119.8799C-21.4345-119.9511-22.8569-120.0222-24.3504-120.0933-26.2707-122.5825-28.262-125.0006-30.2534-127.4187-27.2663-126.3519-25.275-127.0631-24.5638-129.1255-22.9991-127.4187-20.9367-127.4898-19.5143-128.8411-18.163-127.3475-16.1005-127.0631-14.3936-128.5566-13.9669-126.423-12.0467-125.4984-8.9174-126.2807-11.1932-124.076-13.3979-121.8713-15.6027-119.6666-17.0962-119.7377-18.5186-119.8088-19.941-119.8799ZM-16.3139-121.5868L-13.3268-124.5739C-14.038-124.8583-14.6781-125.3562-15.2471-125.9963-16.6695-125.4984-18.2341-125.6407-19.5854-126.4941-21.0078-125.7829-22.6435-125.7829-24.0659-126.423-24.6349-125.854-25.275-125.4984-26.0573-125.2851-25.2039-124.1471-24.2793-123.0803-23.3547-121.9424-22.2168-121.8713-21.0078-121.8002-19.8699-121.7291-18.6608-121.7291-17.5229-121.6579-16.3139-121.5868ZM-23.7103-82.8975C-21.2211-81.6174-20.3677-77.7058-23.3547-76.7812-25.7017-75.9989-28.7599-78.2747-26.6974-80.4795-26.1995-80.9773-24.4927-79.9105-25.0616-81.4751-25.275-81.973-26.3418-82.6842-26.9107-82.6842-27.9064-82.6842-28.5465-82.9687-28.7599-81.6885-28.831-81.3329-29.3288-78.8437-29.4711-78.7015-29.8267-78.2747-29.8267-77.848-30.7512-77.7058-31.7469-77.6347-32.9559-78.5592-32.8848-79.9105-32.8137-81.4751-32.6003-82.8264-34.7339-82.5419-34.9473-82.4708-34.6628-81.973-35.5163-81.6174-36.2986-81.2618-37.152-81.973-36.8675-82.9687-36.4408-84.8178-35.8007-83.751-35.0184-84.8178-34.0939-86.3113-32.1025-84.96-31.818-83.182-31.7469-82.7553-30.8223-82.3286-30.3245-82.6842-29.8267-83.1109-30.9646-85.2445-29.4711-85.1734-28.7599-85.1734-27.4086-84.8178-26.8396-84.6755-26.1284-84.3911-24.4215-83.3954-23.7103-82.8975ZM-21.15-115.186C-20.1543-115.186-19.4431-114.4748-19.4431-113.6925-19.4431-112.8391-20.1543-112.199-21.15-112.199-22.0746-112.199-22.8569-112.8391-22.8569-113.6925-22.8569-114.4748-22.0746-115.186-21.15-115.186ZM-121.9982-20.6675C-121.4292-21.3076-121.0736-21.7343-120.9314-21.9477-120.6469-22.2322-120.3624-22.6589-120.0779-23.2279L-117.0198-21.1654C-117.5176-20.4542-118.0866-19.6719-118.7267-18.9607-119.3667-18.1783-119.8646-17.6805-120.1491-17.396-119.7223-16.0447-119.6512-14.409-119.9357-12.4887-120.2913-9.5728-121.287-7.4392-122.9939-5.9457-125.0563-4.2388-127.6878-3.5276-130.8882-3.9543-133.9463-4.3099-136.2933-5.519-137.7868-7.4392-139.2803-9.3595-139.8493-11.8487-139.4226-14.9779-139.067-18.1072-137.9291-20.3831-136.0088-21.8766-134.0886-23.3701-131.5994-23.9391-128.4701-23.5835-125.6964-23.2279-123.5628-22.2322-121.9982-20.6675ZM-125.6253-16.5426C-126.3365-17.1115-127.5455-17.5383-129.2524-17.7516-131.1727-17.965-132.5239-17.7516-133.4485-17.1827-134.3731-16.5426-134.8709-15.618-135.0843-14.409-135.2265-13.1999-134.8709-12.2043-134.1597-11.4219-133.4485-10.5685-132.1683-10.0707-130.3903-9.7862-128.3279-9.5728-126.8343-9.7151-125.9098-10.3551-124.9852-10.9241-124.4874-11.8487-124.274-13.0577L-124.274-14.1956C-124.843-13.7689-125.3408-13.0577-125.9098-12.062L-127.9011-13.1999C-127.7589-13.7689-127.5455-14.1245-127.4033-14.409-127.1899-14.6935-126.7632-15.1913-126.1231-15.9736-125.9098-16.1159-125.7675-16.3292-125.6253-16.5426ZM-118.0866-38.0919L-119.9357-31.62-117.162-29.842-118.7978-24.0813-135.1554-36.1717-133.3774-42.3591-113.1082-44.066-114.8151-38.0919ZM-122.4249-37.9497L-129.5369-37.8786-123.5628-33.967ZM-112.2547-45.844L-129.1813-54.5207-124.7719-63.2684C-123.9184-64.9042-123.1361-66.0421-122.4249-66.7533-121.7137-67.4645-120.8603-67.8912-119.8646-68.0335-118.7978-68.1757-117.731-67.9623-116.6642-67.3934-115.7396-66.9667-115.0284-66.3266-114.5306-65.5443-114.0327-64.8331-113.8194-63.9796-113.7483-63.0551-113.6771-62.4861-113.7483-61.7749-113.9616-60.8503-113.4638-61.4193-113.0371-61.7038-112.6815-61.9171-112.4681-62.0594-111.9703-62.1305-111.3302-62.2727-110.6901-62.415-110.2634-62.4861-109.9078-62.4861L-103.7203-62.5572-106.7785-56.5831-113.3215-56.4409C-114.175-56.4409-114.8151-56.3698-115.1707-56.1564-115.5974-55.9431-115.953-55.5875-116.1663-55.0896L-116.4508-54.5918-109.5522-51.1069ZM-119.6512-56.2275L-118.5133-58.5034C-118.3711-58.7167-118.2288-59.2146-118.0155-59.9969-117.9443-60.3525-117.9443-60.7081-118.0866-61.1348-118.2999-61.4904-118.5844-61.7749-118.94-61.9171-119.509-62.2016-120.0068-62.2727-120.4335-62.0594-120.9314-61.846-121.4292-61.2771-121.9271-60.3525L-123.065-58.0055ZM-118.0866-75.1455L-114.6728-79.9105-108.841-75.7855-111.1168-84.96-106.5651-91.3608-104.7871-81.5463-90.8476-80.5506-95.0437-74.6476-103.7915-75.9278-102.938-71.5895-99.1687-68.8869-102.5824-64.1219ZM-93.3368-104.0913L-89.0696-108.1451-81.2464-99.8952C-80.4641-99.1129-79.824-98.1883-79.3973-97.2638-78.9706-96.2681-78.7572-95.2724-78.8283-94.2056-78.8283-93.1388-79.0417-92.2143-79.3973-91.4319-79.9663-90.3651-80.8197-89.2272-81.9576-88.0893-82.6688-87.5203-83.4511-86.8091-84.3046-86.1691-85.158-85.529-86.0115-85.0311-86.7938-84.8178-87.6472-84.6044-88.5007-84.5333-89.4252-84.6044-90.3498-84.7467-91.1321-84.96-91.8433-85.3867-92.9101-85.9557-93.8347-86.6669-94.4747-87.307L-102.2979-95.5569-98.0307-99.6107-89.9942-91.1475C-89.283-90.4363-88.5007-90.0095-87.7183-90.0095-86.8649-90.0095-86.0826-90.294-85.3714-91.0052-84.6602-91.7164-84.2335-92.4987-84.2335-93.2811-84.2335-94.0634-84.5891-94.9168-85.3003-95.628ZM72.4439-118.9554L79.5559-113.9059C80.9783-112.9102 81.974-111.9145 82.5429-110.9188 83.183-109.9231 83.4675-108.8563 83.5386-107.7184 83.6097-106.5805 83.3964-105.5137 82.9697-104.3758 82.6141-103.2379 81.974-102.1711 81.2628-101.1043 80.0537-99.3974 78.9869-98.2595 77.9201-97.6194 76.9245-96.9793 75.8577-96.6237 74.7197-96.4815 73.5818-96.3392 72.5861-96.4103 71.6616-96.7659 70.4525-97.1927 69.3857-97.7616 68.5323-98.3306L61.4203-103.4512ZM74.7197-112.0567L68.6745-103.5935 69.8836-102.74C70.8793-102.0288 71.6616-101.6021 72.2305-101.531 72.8706-101.4599 73.4396-101.6021 74.0797-101.9577 74.7197-102.3844 75.5021-103.1667 76.3555-104.4469 77.5645-106.0827 78.0624-107.3628 77.9913-108.3585 77.849-109.3542 77.2089-110.2787 75.9288-111.2033ZM100.6074-95.628L104.6613-91.3608 96.4825-83.5376C95.629-82.7553 94.7756-82.1863 93.7799-81.7596 92.8553-81.3329 91.7885-81.1195 90.7929-81.1195 89.7261-81.1195 88.8015-81.3329 88.0192-81.7596 86.8813-82.2575 85.8145-83.1109 84.6765-84.3199 84.0365-84.96 83.3964-85.7423 82.7563-86.5958 82.0451-87.5203 81.6184-88.3738 81.405-89.1561 81.1917-89.9384 81.1205-90.7919 81.1917-91.7164 81.2628-92.641 81.5473-93.4944 81.9029-94.1345 82.5429-95.2724 83.183-96.1259 83.8942-96.7659L92.073-104.5891 96.1269-100.3219 87.7347-92.3565C86.9524-91.6453 86.5968-90.863 86.5968-90.0095 86.5257-89.2272 86.8813-88.4449 87.5925-87.6626 88.3037-86.9514 89.0149-86.5958 89.8683-86.5958 90.6506-86.5247 91.4329-86.8803 92.2153-87.5915ZM93.4243-75.2166L108.9285-86.2402 114.6181-78.2747C115.6849-76.7812 116.3961-75.5722 116.6805-74.5765 116.965-73.6519 116.965-72.6563 116.6094-71.6606 116.2538-70.736 115.6137-69.8826 114.6181-69.1714 113.7646-68.5313 112.9112-68.1757 111.9866-68.1046 111.1332-68.0335 110.2086-68.1757 109.3552-68.5313 108.8573-68.8158 108.2173-69.2425 107.5772-69.8115 107.7905-69.1003 107.9328-68.5313 107.8617-68.1757 107.8617-67.8912 107.7905-67.4645 107.6483-66.8244 107.4349-66.1843 107.2927-65.7576 107.1505-65.4731L104.3057-59.9258 100.4652-65.3309 103.3811-71.305C103.7367-72.0162 103.9501-72.5851 103.9501-73.0119 103.9501-73.5097 103.7367-74.0075 103.4522-74.4343L103.1677-74.861 96.8381-70.3804ZM106.0837-76.9235L107.5061-74.9321C107.6483-74.7187 108.075-74.292 108.644-73.7942 108.9285-73.5097 109.2841-73.3675 109.7108-73.3675 110.0664-73.3675 110.4931-73.4386 110.7776-73.7231 111.2754-74.0787 111.5599-74.5054 111.631-75.0032 111.631-75.5011 111.3465-76.2123 110.7776-77.0657L109.2129-79.1993ZM105.088-58.0767L122.4413-65.8999 126.4951-56.9387C127.2774-55.303 127.7041-53.9517 127.7753-52.956 127.9175-51.9603 127.7041-51.0358 127.2063-50.1112 126.6373-49.2578 125.855-48.5466 124.7171-48.0487 123.7214-47.622 122.7969-47.4798 121.9434-47.5509 121.0189-47.622 120.2365-47.9776 119.4542-48.4755 118.9564-48.8311 118.4585-49.3289 117.9607-50.0401 118.0318-49.3289 118.0318-48.7599 117.8896-48.3332 117.8896-48.1199 117.6762-47.6931 117.3917-47.1242 117.1073-46.4841 116.8228-46.1285 116.6805-45.844L112.8401-41.0079 110.0664-47.0531 114.0491-52.3159C114.6181-52.956 114.9025-53.525 114.9737-53.8806 115.0448-54.3784 114.9737-54.8763 114.7603-55.3741L114.5469-55.8719 107.5061-52.6715ZM117.8185-57.2943L118.8853-55.0896C118.9564-54.8051 119.2409-54.3784 119.7387-53.7383 119.9521-53.4539 120.3077-53.2405 120.6633-53.0983 121.09-53.0271 121.4456-53.0983 121.8723-53.2405 122.4413-53.525 122.7969-53.8806 122.868-54.3784 123.0102-54.8763 122.868-55.5875 122.4413-56.5831L121.3745-58.9301ZM131.6157-44.2794L135.8829-29.1308 131.9713-28.064 129.2688-37.523 126.3529-36.6695 128.8421-27.9218 125.1438-26.855 122.6546-35.6027 119.0275-34.6071 121.8012-24.8636 117.6762-23.6546 113.2668-39.0876ZM136.7364-42.4303L137.6609-39.1587 134.6028-38.2342 133.6782-41.5057ZM138.301-37.0963L139.2256-33.8247 136.0963-32.9713 135.1717-36.2428ZM124.077-22.3033L125.1438-16.7559C124.2904-16.5426 123.6503-16.187 123.2236-15.7603 122.5124-15.1202 122.2279-14.1956 122.3701-13.0577 122.5124-12.2043 122.7257-11.6353 123.2236-11.2086 123.6503-10.7819 124.1481-10.6396 124.646-10.7107 125.1438-10.7819 125.5705-11.0663 125.855-11.4931 126.2106-11.9909 126.424-13.0577 126.6373-14.6223 126.8507-17.2538 127.4197-19.174 128.202-20.3831 128.9843-21.5921 130.1933-22.3033 131.6157-22.5167 132.6114-22.6589 133.536-22.4455 134.4605-22.0188 135.4562-21.521 136.2385-20.8098 136.8786-19.743 137.5187-18.6762 137.9454-17.1115 138.1588-15.1913 138.5144-12.7732 138.2299-10.853 137.5187-9.5017 136.8075-8.0793 135.4562-7.1547 133.536-6.6569L132.4692-12.1331C133.3226-12.4176 133.8916-12.7732 134.2472-13.2711 134.6028-13.84 134.6739-14.4801 134.6028-15.3335 134.5317-15.9736 134.3183-16.4715 133.9627-16.7559 133.6071-17.1115 133.2515-17.1827 132.8248-17.1827 132.5403-17.1115 132.3269-16.9693 132.1136-16.6137 131.9002-16.3292 131.758-15.6891 131.6157-14.6223 131.4024-11.9909 131.1179-10.0707 130.6912-8.9327 130.2645-7.7237 129.6244-6.8703 128.8421-6.2302 128.1309-5.6612 127.2063-5.2345 126.1395-5.1634 124.9305-4.95 123.7925-5.1634 122.7257-5.7323 121.5878-6.2302 120.6633-7.0836 120.0232-8.2215 119.312-9.3595 118.8853-10.853 118.6719-12.7021 118.2452-15.9025 118.6008-18.1783 119.6676-19.6007 120.7344-20.952 122.2279-21.8766 124.077-22.3033Z"/>
<path transform="translate(0,0)" style="fill: rgb(249,40,6); fill-rule: evenodd" stroke-linecap="round" d="M0.0346 58.0684L-10.6334 39.8617C-31.4004 39.3638-47.4736 38.866-68.2406 38.3681-81.2556 36.8746-84.456 27.9846-89.9322 16.961-92.4925 11.7693-95.124 5.1551-93.1326-0.6767-91.4257-5.584-86.3762-7.7887-82.678-3.806-80.7577-1.8147-79.6198 1.5991-78.1974 4.5861-75.9927 9.6357-75.2815 9.9913-71.5832 9.9913L-58.7105 9.9913C-54.7278 9.9913-54.5856 10.3469-54.5856 7.2176-54.5856 5.8663-54.3011 5.084-56.3636 4.7284-59.9907 4.0172-60.204 2.5948-62.7644-0.6056-66.3204-5.1573-66.1781-1.7435-70.3031-4.4461-72.0811-5.584-71.9388-6.7931-72.4367-8.7844-73.0056-11.0603-73.5746-13.265-74.428-15.3986-75.3526-17.9589-76.4194-19.0257-80.4732-19.7369-83.8159-20.377-86.9452-21.7994-90.0033-20.6615-93.4882-19.3102-102.8049-6.5797-104.7963-3.3082-109.1346 3.9461-107.9256 9.9913-105.0096 17.53-99.0356 33.1764-89.4344 49.6762-74.7836 64.3269-31.756 107.4257 31.7541 107.4257 74.7817 64.3269 89.4324 49.6762 99.1048 33.1764 105.0077 17.53 107.9236 9.9913 109.2038 3.9461 104.7944-3.3082 102.8741-6.5797 93.4863-19.3102 90.0014-20.6615 86.9432-21.7994 83.814-20.377 80.4713-19.7369 76.4175-19.0257 75.3507-17.9589 74.4261-15.3986 73.5727-13.265 73.0037-11.0603 72.4348-8.7844 71.9369-6.7931 72.0792-5.584 70.3012-4.4461 66.1762-1.7435 66.3896-5.1573 62.7624-0.6056 60.2021 2.5948 59.9888 4.0172 56.3616 4.7284 54.2992 5.084 54.5836 5.8663 54.5836 7.2176 54.5836 10.3469 54.7259 9.9913 58.7086 9.9913L71.5813 9.9913C75.2796 9.9913 75.9908 9.6357 78.1955 4.5861 79.6179 1.5991 80.7558-1.8147 82.676-3.806 86.3743-7.7887 91.4238-5.584 93.1307-0.6767 95.122 5.1551 92.4906 11.7693 89.9303 16.961 84.454 27.9846 81.2536 36.8746 68.3098 38.3681L10.6315 39.8617ZM66.1051 1.6702C67.1719 1.6702 68.0253 2.5237 68.0253 3.5193 68.0253 4.5861 67.1719 5.4396 66.1051 5.4396 65.0383 5.4396 64.1848 4.5861 64.1848 3.5193 64.1848 2.5237 65.0383 1.6702 66.1051 1.6702ZM-66.107 1.6702C-67.1738 1.6702-68.0272 2.5237-68.0272 3.5193-68.0272 4.5861-67.1738 5.4396-66.107 5.4396-65.0402 5.4396-64.1868 4.5861-64.1868 3.5193-64.1868 2.5237-65.0402 1.6702-66.107 1.6702Z"/>
<polygon transform="translate(0,0)" style="fill: rgb(244,235,232); fill-rule: evenodd" points="14.4746,51.6004 60.1337,49.3957 60.347,54.0896 15.2569,55.6543 0.0373,78.1282 -15.2535,55.6543 -60.3436,54.0896 -60.1303,49.3957 -14.4712,51.6004 0.0373,73.0076"/>
<path transform="translate(0,0)" style="stroke-width: 0; fill: rgb(255,255,255)" vector-effect="non-scaling-stroke" stroke-linecap="round" d="M60.0544-139.7065L145.0544-54.7065 60.0544-54.7065Z"/>
<path transform="translate(0,0)" style="stroke-width: 0; fill: rgb(255,255,255)" vector-effect="non-scaling-stroke" stroke-linecap="round" d="M-67.6044-134.3587L-152.6044-42.4687-67.6044-42.4687Z"/>
<path transform="translate(0,0)" style="stroke-width: 0; fill: rgb(255,255,255)" vector-effect="non-scaling-stroke" stroke-linecap="round" d="M-157.7712-46.723L-157.7712-1.723-112.7712-1.723-112.7712-46.723Z"/>
<path transform="translate(0,0)" style="stroke-width: 0; fill: rgb(255,255,255)" vector-effect="non-scaling-stroke" stroke-linecap="round" d="M126.8457-84.7472L159.8213-37.6392 126.8457 9.4688 93.8701-37.6392Z"/>
</g>
</g>
</svg>