<?xml version="1.0" encoding="UTF-8" standalone="no"?>
<!-- Created with Inkscape (http://www.inkscape.org/) -->

<svg
   width="87.3125mm"
   height="62.706249mm"
   viewBox="0 0 87.3125 62.706249"
   version="1.1"
   id="svg1"
   xml:space="preserve"
   inkscape:version="1.4.2 (f4327f4, 2025-05-13)"
   sodipodi:docname="Flag of Fier.svg"
   xmlns:inkscape="http://www.inkscape.org/namespaces/inkscape"
   xmlns:sodipodi="http://sodipodi.sourceforge.net/DTD/sodipodi-0.dtd"
   xmlns="http://www.w3.org/2000/svg"
   xmlns:svg="http://www.w3.org/2000/svg"><sodipodi:namedview
     id="namedview1"
     pagecolor="#ffffff"
     bordercolor="#999999"
     borderopacity="1"
     inkscape:showpageshadow="2"
     inkscape:pageopacity="0"
     inkscape:pagecheckerboard="0"
     inkscape:deskcolor="#d1d1d1"
     inkscape:document-units="mm"
     inkscape:zoom="3.4388186"
     inkscape:cx="165.02761"
     inkscape:cy="118.5"
     inkscape:window-width="1920"
     inkscape:window-height="1017"
     inkscape:window-x="-8"
     inkscape:window-y="-8"
     inkscape:window-maximized="1"
     inkscape:current-layer="layer1" /><defs
     id="defs1" /><g
     inkscape:label="Capa 1"
     inkscape:groupmode="layer"
     id="layer1"><path
       style="fill:#ffffff"
       d="M 0,31.353125 V 0 H 43.65625 87.3125 V 31.353125 62.706249 H 43.65625 0 Z"
       id="path20" /><g
       id="g21"
       transform="matrix(0.18369731,0,0,0.18369731,26.719174,8.3450365)">
	<path
   fill-rule="evenodd"
   clip-rule="evenodd"
   fill="#eb7a2e"
   d="m 0.25,0.25 c 30.65,0 61.3,0 91.951,0 30.65,0 61.3,0 91.951,0 0,56.894 0,118.511 0,175.405 0,48.178 -61.301,48.154 -91.951,74.595 C 61.55,223.81 0.25,223.833 0.25,175.656 c 0,-56.895 0,-118.512 0,-175.406 z"
   id="path1" />
	<g
   id="g10">
		<path
   fill-rule="evenodd"
   clip-rule="evenodd"
   fill="#007a6d"
   d="m 92.201,10.763 c 18.948,0 35.949,4.185 47.553,10.813 l -8.592,28.728 c -10.672,-4.367 -24.22,-6.98 -38.961,-6.98 -14.743,0 -28.289,2.613 -38.961,6.98 L 44.648,21.576 C 56.251,14.948 73.252,10.763 92.201,10.763 Z"
   id="path2" />
		<path
   fill-rule="evenodd"
   clip-rule="evenodd"
   fill="#fedc18"
   d="m 92.201,10.763 c 18.948,0 35.949,4.185 47.553,10.813 l -1.787,5.973 -1.347,-1.573 -2.554,-0.093 c 0.587,-0.342 1.118,-0.761 1.428,-1.327 0.47,-0.861 0.643,-1.982 -0.568,-2.497 -1.211,-0.515 -1.898,0.389 -2.191,1.324 -0.188,0.604 -0.129,1.261 0.025,1.906 l -1.524,-1.854 -2.056,-0.062 c 0.42,-0.371 0.774,-0.795 0.962,-1.298 0.344,-0.918 0.355,-2.053 -0.916,-2.391 -1.272,-0.338 -1.824,0.654 -1.982,1.621 -0.078,0.479 -0.006,0.969 0.143,1.45 l -1.599,-1.188 -1.974,-0.101 c 0.395,-0.401 0.72,-0.85 0.872,-1.367 0.276,-0.939 0.208,-2.073 -1.084,-2.319 -1.292,-0.247 -1.772,0.781 -1.861,1.758 -0.041,0.459 0.053,0.918 0.218,1.365 l -1.632,-1.004 -2.085,0.112 c 0.365,-0.372 0.664,-0.788 0.814,-1.266 0.294,-0.936 0.247,-2.069 -1.042,-2.34 -1.287,-0.271 -1.787,0.749 -1.894,1.724 -0.051,0.465 0.038,0.932 0.2,1.389 l -1.656,-1.013 -1.991,0.423 c 0.347,-0.391 0.626,-0.821 0.754,-1.306 0.25,-0.947 0.148,-2.078 -1.15,-2.288 -1.299,-0.209 -1.75,0.833 -1.81,1.812 -0.029,0.479 0.088,0.953 0.279,1.413 l -1.728,-0.94 -2.075,0.54 c 0.391,-0.412 0.711,-0.871 0.854,-1.396 0.257,-0.946 0.165,-2.077 -1.134,-2.296 -1.297,-0.22 -1.756,0.819 -1.823,1.797 -0.04,0.581 0.136,1.157 0.398,1.708 l -1.931,-0.944 -1.884,0.543 c 0.354,-0.434 0.634,-0.908 0.738,-1.435 0.189,-0.961 0.019,-2.084 -1.291,-2.211 -1.31,-0.128 -1.694,0.94 -1.692,1.921 0,0.574 0.211,1.129 0.505,1.653 l -1.892,-0.958 -1.882,0.819 c 0.313,-0.469 0.55,-0.972 0.603,-1.509 0.097,-0.976 -0.183,-2.075 -1.499,-2.075 -1.315,0 -1.595,1.1 -1.499,2.075 0.052,0.522 0.276,1.012 0.577,1.469 l -1.892,-0.905 -1.892,0.905 c 0.301,-0.457 0.525,-0.946 0.577,-1.469 0.096,-0.976 -0.184,-2.075 -1.5,-2.075 -1.315,0 -1.595,1.1 -1.499,2.075 0.053,0.537 0.289,1.04 0.603,1.509 l -1.881,-0.819 -1.89,0.959 c 0.294,-0.524 0.505,-1.079 0.506,-1.653 0.001,-0.98 -0.384,-2.049 -1.693,-1.921 -1.31,0.127 -1.481,1.249 -1.292,2.211 0.104,0.526 0.384,1.001 0.738,1.435 l -1.884,-0.543 -1.931,0.944 c 0.263,-0.551 0.439,-1.127 0.399,-1.708 -0.068,-0.978 -0.527,-2.017 -1.824,-1.797 -1.297,0.219 -1.39,1.35 -1.133,2.296 0.143,0.525 0.463,0.984 0.854,1.396 l -2.074,-0.54 -1.729,0.94 c 0.192,-0.459 0.309,-0.935 0.28,-1.413 -0.061,-0.979 -0.511,-2.021 -1.81,-1.812 -1.299,0.21 -1.4,1.341 -1.15,2.288 0.128,0.485 0.407,0.915 0.754,1.306 l -1.991,-0.423 -1.657,1.013 c 0.162,-0.457 0.25,-0.924 0.2,-1.389 -0.106,-0.975 -0.606,-1.994 -1.894,-1.724 -1.288,0.271 -1.335,1.404 -1.041,2.34 0.15,0.478 0.449,0.894 0.813,1.266 L 64.075,19.9 62.443,20.904 c 0.165,-0.447 0.259,-0.906 0.217,-1.365 -0.088,-0.977 -0.569,-2.005 -1.862,-1.758 -1.292,0.246 -1.36,1.38 -1.083,2.319 0.152,0.518 0.477,0.966 0.872,1.367 l -1.974,0.101 -1.599,1.188 c 0.148,-0.481 0.22,-0.971 0.142,-1.45 -0.157,-0.967 -0.71,-1.959 -1.981,-1.621 -1.271,0.338 -1.259,1.473 -0.916,2.391 0.188,0.503 0.542,0.927 0.962,1.298 l -2.056,0.062 -1.524,1.854 c 0.154,-0.646 0.214,-1.303 0.025,-1.906 -0.293,-0.936 -0.98,-1.839 -2.191,-1.324 -1.211,0.515 -1.038,1.636 -0.568,2.497 0.31,0.566 0.841,0.985 1.428,1.327 L 47.78,25.977 46.433,27.55 44.646,21.577 C 56.251,14.948 73.252,10.763 92.201,10.763 Z m 40.333,34.952 -1.372,4.588 c -10.672,-4.367 -24.22,-6.98 -38.961,-6.98 -14.743,0 -28.289,2.613 -38.961,6.98 l -1.373,-4.588 2.267,0.244 0.953,-1.065 c 0.197,0.901 0.758,1.746 1.946,1.431 1.271,-0.338 1.259,-1.473 0.916,-2.392 -0.023,-0.061 -0.048,-0.119 -0.075,-0.178 l 1.676,0.123 1.035,-0.979 c 0.098,0.965 0.583,1.964 1.858,1.721 1.293,-0.247 1.361,-1.381 1.084,-2.32 -0.023,-0.077 -0.05,-0.152 -0.08,-0.226 l 1.182,0.244 1.044,-0.847 c 0.002,0.047 0.006,0.095 0.011,0.143 0.106,0.974 0.606,1.993 1.894,1.723 1.288,-0.271 1.336,-1.404 1.041,-2.34 -0.017,-0.052 -0.035,-0.104 -0.056,-0.155 l 1.176,0.253 0.895,-0.74 c -0.006,0.104 -0.007,0.209 0,0.313 0.06,0.979 0.511,2.021 1.81,1.812 1.299,-0.209 1.4,-1.34 1.15,-2.288 -0.024,-0.093 -0.055,-0.184 -0.09,-0.273 l 1.285,0.441 1.051,-0.696 c -0.001,0.072 0,0.146 0.005,0.219 0.067,0.978 0.526,2.017 1.823,1.797 1.276,-0.215 1.387,-1.313 1.146,-2.25 l 1.331,0.503 1.394,-0.983 c -0.009,0.086 -0.014,0.172 -0.015,0.258 -0.001,0.981 0.383,2.049 1.693,1.922 1.31,-0.128 1.482,-1.249 1.292,-2.212 l -0.016,-0.071 1.282,0.628 1.563,-1.021 c -0.049,0.161 -0.083,0.325 -0.1,0.492 -0.096,0.977 0.183,2.076 1.499,2.076 1.316,0 1.595,-1.1 1.5,-2.076 -0.024,-0.249 -0.089,-0.49 -0.182,-0.725 l 2.146,1.008 2.146,-1.008 c -0.093,0.234 -0.157,0.476 -0.182,0.725 -0.096,0.977 0.184,2.076 1.499,2.076 1.316,0 1.596,-1.1 1.499,-2.076 -0.017,-0.167 -0.051,-0.331 -0.1,-0.492 l 1.563,1.021 1.282,-0.628 -0.016,0.071 c -0.19,0.963 -0.019,2.084 1.291,2.212 1.31,0.127 1.694,-0.94 1.693,-1.922 -0.001,-0.086 -0.006,-0.172 -0.015,-0.258 l 1.394,0.983 1.33,-0.503 c -0.241,0.937 -0.131,2.035 1.146,2.25 1.299,0.22 1.757,-0.819 1.824,-1.797 0.006,-0.072 0.007,-0.146 0.006,-0.219 l 1.051,0.696 1.284,-0.441 c -0.035,0.09 -0.065,0.181 -0.09,0.273 -0.25,0.948 -0.148,2.079 1.15,2.288 1.298,0.209 1.75,-0.833 1.81,-1.812 0.007,-0.104 0.006,-0.209 -0.001,-0.313 l 0.896,0.74 1.175,-0.253 c -0.021,0.051 -0.039,0.104 -0.056,0.155 -0.294,0.936 -0.246,2.069 1.041,2.34 1.287,0.271 1.788,-0.749 1.895,-1.723 0.005,-0.048 0.01,-0.096 0.012,-0.143 l 1.044,0.847 1.182,-0.244 c -0.029,0.073 -0.056,0.148 -0.079,0.226 -0.276,0.939 -0.208,2.073 1.084,2.32 1.275,0.243 1.761,-0.756 1.857,-1.721 l 1.035,0.979 1.677,-0.123 c -0.027,0.059 -0.053,0.117 -0.075,0.178 -0.344,0.919 -0.355,2.054 0.916,2.392 1.188,0.315 1.749,-0.529 1.946,-1.431 l 0.953,1.065 z"
   id="path3" />
		<g
   id="g5">
			<path
   fill-rule="evenodd"
   clip-rule="evenodd"
   fill="#b87956"
   d="m 92.201,37.216 c 5.224,0 9.487,-4.261 9.487,-9.486 0,-5.225 -4.263,-9.486 -9.487,-9.486 -5.225,0 -9.486,4.262 -9.486,9.486 -0.001,5.226 4.261,9.486 9.486,9.486 z"
   id="path4" />
			<path
   fill-rule="evenodd"
   clip-rule="evenodd"
   fill="#fedc18"
   d="m 92.201,26.399 c 0.735,0 1.331,0.596 1.331,1.331 0,0.735 -0.596,1.332 -1.331,1.332 -0.735,0 -1.332,-0.597 -1.332,-1.332 0,-0.735 0.596,-1.331 1.332,-1.331 z m 0,-6.533 c -1.531,0 -2.25,1.341 -2.114,2.529 0.138,1.207 1.151,2.271 2.114,3.193 0.962,-0.922 1.976,-1.986 2.114,-3.193 0.135,-1.188 -0.584,-2.529 -2.114,-2.529 z m 6.811,11.797 c 0.766,-1.326 -0.036,-2.618 -1.133,-3.096 -1.115,-0.484 -2.544,-0.138 -3.823,0.234 0.317,1.295 0.731,2.705 1.708,3.428 0.961,0.712 2.482,0.76 3.248,-0.566 z M 85.39,23.798 c 0.765,-1.326 2.286,-1.278 3.247,-0.566 0.977,0.724 1.392,2.133 1.709,3.428 -1.28,0.372 -2.708,0.719 -3.823,0.234 -1.097,-0.477 -1.899,-1.769 -1.133,-3.096 z m 13.622,0 c 0.766,1.326 -0.036,2.618 -1.133,3.096 -1.115,0.484 -2.544,0.138 -3.823,-0.234 0.317,-1.295 0.731,-2.704 1.708,-3.428 0.961,-0.712 2.482,-0.76 3.248,0.566 z M 85.39,31.663 c -0.766,-1.326 0.036,-2.618 1.133,-3.096 1.114,-0.484 2.542,-0.138 3.823,0.234 -0.317,1.295 -0.732,2.705 -1.709,3.428 -0.961,0.712 -2.482,0.76 -3.247,-0.566 z m 6.811,3.932 c -1.531,0 -2.25,-1.341 -2.114,-2.529 0.138,-1.207 1.151,-2.271 2.114,-3.193 0.962,0.923 1.976,1.986 2.114,3.193 0.135,1.188 -0.584,2.529 -2.114,2.529 z"
   id="path5" />
		</g>
		<g
   id="g7">
			<path
   fill-rule="evenodd"
   clip-rule="evenodd"
   fill="#b87956"
   d="m 133.122,27.918 c 1.608,-0.398 3.222,-0.332 4.701,0.111 l -5.113,17.098 c -2.92,-0.877 -5.316,-3.229 -6.104,-6.404 -1.183,-4.783 1.733,-9.619 6.516,-10.805 z"
   id="path6" />
			<path
   fill-rule="evenodd"
   clip-rule="evenodd"
   fill="#fedc18"
   d="m 134.966,35.363 c 0.226,-0.056 0.452,-0.046 0.66,0.017 l -0.718,2.398 c -0.41,-0.122 -0.746,-0.453 -0.856,-0.898 -0.166,-0.672 0.243,-1.35 0.914,-1.517 z M 133.489,29.4 c -1.398,0.346 -1.751,1.732 -1.358,2.786 0.398,1.07 1.564,1.813 2.651,2.437 0.671,-1.06 1.355,-2.26 1.208,-3.393 -0.144,-1.115 -1.103,-2.177 -2.501,-1.83 z m -5.329,5.13 c 0.399,-1.385 1.799,-1.685 2.837,-1.252 1.055,0.438 1.752,1.633 2.334,2.742 -1.084,0.63 -2.31,1.269 -3.437,1.078 -1.108,-0.186 -2.133,-1.185 -1.734,-2.568 z m 1.779,7.178 c -0.999,-1.038 -0.56,-2.399 0.334,-3.082 0.907,-0.694 2.29,-0.701 3.542,-0.65 0.003,1.253 -0.057,2.635 -0.784,3.515 -0.717,0.867 -2.093,1.255 -3.092,0.217 z"
   id="path7" />
		</g>
		<g
   id="g9">
			<path
   fill-rule="evenodd"
   clip-rule="evenodd"
   fill="#b87956"
   d="m 51.279,27.918 c -1.608,-0.398 -3.222,-0.332 -4.702,0.111 l 5.113,17.098 c 2.921,-0.877 5.316,-3.229 6.103,-6.404 1.186,-4.783 -1.731,-9.619 -6.514,-10.805 z"
   id="path8" />
			<path
   fill-rule="evenodd"
   clip-rule="evenodd"
   fill="#fedc18"
   d="m 49.436,35.363 c -0.226,-0.056 -0.452,-0.046 -0.66,0.017 l 0.717,2.398 c 0.41,-0.122 0.746,-0.453 0.857,-0.898 0.166,-0.672 -0.244,-1.35 -0.914,-1.517 z M 50.913,29.4 c 1.397,0.346 1.75,1.732 1.358,2.786 -0.399,1.07 -1.564,1.813 -2.651,2.437 -0.671,-1.06 -1.355,-2.26 -1.208,-3.393 0.144,-1.115 1.103,-2.177 2.501,-1.83 z m 5.328,5.13 c -0.399,-1.385 -1.798,-1.685 -2.836,-1.252 -1.056,0.438 -1.752,1.633 -2.335,2.742 1.084,0.63 2.311,1.269 3.437,1.078 1.109,-0.186 2.133,-1.185 1.734,-2.568 z m -1.778,7.178 c 0.999,-1.038 0.559,-2.399 -0.334,-3.082 -0.908,-0.694 -2.291,-0.701 -3.543,-0.65 -0.003,1.253 0.057,2.635 0.785,3.515 0.716,0.867 2.093,1.255 3.092,0.217 z"
   id="path9" />
		</g>
	</g>
	<path
   fill-rule="evenodd"
   clip-rule="evenodd"
   fill="#161813"
   d="m 40.368,51.289 c 34.555,0 69.11,0 103.665,0 0,21.427 0,47.018 0,68.444 0,28.509 -23.324,47.669 -51.833,47.669 -28.509,0 -51.833,-19.161 -51.833,-47.669 0.001,-21.427 0.001,-47.018 0.001,-68.444 z"
   id="path10" />
	<path
   fill-rule="evenodd"
   clip-rule="evenodd"
   fill="#019541"
   d="m 42.38,53.301 c 0,22.144 0,44.287 0,66.432 0,27.954 23.082,45.656 49.821,45.656 26.739,0 49.82,-17.702 49.82,-45.656 0,-22.145 0,-44.288 0,-66.432 -33.213,0 -66.427,0 -99.641,0 z"
   id="path11" />
	<g
   id="g14">
		<path
   fill-rule="evenodd"
   clip-rule="evenodd"
   fill="#fedc18"
   d="m 92.201,126.621 c 13.591,0 24.676,-11.086 24.676,-24.677 0,-13.592 -11.085,-24.677 -24.676,-24.677 -13.591,0 -24.677,11.085 -24.677,24.677 0,13.591 11.085,24.677 24.677,24.677 z"
   id="path12" />
		<g
   id="g13">
			<polygon
   fill-rule="evenodd"
   clip-rule="evenodd"
   fill="#ffffff"
   points="110.47,97.94 109.074,97.94 109.074,97.114 110.47,97.114 110.47,95.92 113.939,95.92 113.939,94.268 92.201,83.435 70.461,94.268 70.461,95.92 73.674,95.92 73.674,97.921 75.07,97.921 75.07,98.748 74.042,98.748 74.042,100.474 75.07,100.474 75.07,110.958 73.105,110.958 73.105,115.089 111.663,115.089 111.663,109.801 109.074,109.801 109.074,99.593 110.47,99.593 "
   id="polygon12" />
			<path
   fill-rule="evenodd"
   clip-rule="evenodd"
   fill="#b87956"
   d="m 84.728,98.435 v 13.147 h 3.88 V 98.435 H 87.57 v -1.267 h 3.599 v 1.267 h -1.038 v 13.147 h 3.88 V 98.435 h -1.037 v -1.267 h 3.598 v 1.267 h -1.037 v 13.147 h 3.882 V 98.435 h -1.038 v -1.267 h 3.599 v 1.267 h -1.037 v 13.147 h 5.287 V 99.629 h -1.192 v -1.708 h 1.192 v -0.826 h -1.395 V 95.92 H 79.954 v 2.001 h -1.396 v 0.826 h 1.047 v 1.727 h -1.047 v 11.108 h 4.646 V 98.435 h -1.038 v -1.267 h 3.599 v 1.267 z M 74.323,94.746 h 3.136 l 14.935,-6.618 14.934,6.618 h 3.137 L 92.395,86.372 Z M 73.16,95.259 V 94.72 l 19.234,-8.914 19.233,8.914 v 0.539 c -1.469,0 -2.937,0 -4.407,0 l -14.826,-6.57 -14.827,6.57 c -1.469,0 -2.938,0 -4.407,0 z m 6.794,-0.257 12.439,-5.113 12.439,5.113 z"
   id="path13" />
		</g>
	</g>
	<path
   fill-rule="evenodd"
   clip-rule="evenodd"
   fill="#ffffff"
   d="m 82.85,138.233 c 3.629,2.057 8.809,0.403 10.117,-1.285 -2.441,-1.729 -7.216,-2.43 -10.117,1.285 z M 79.579,65.804 c -1.64,0.605 -6.05,2.396 -5.044,7.944 2.031,-0.869 5.142,-2.746 5.044,-7.944 z m -7.932,6.04 c -2.301,1.083 -5.664,3.442 -3.906,8.606 1.719,-1.089 5.253,-4.05 3.906,-8.606 z m -6.243,6.463 c 1.971,4.116 -0.241,7.058 -1.832,8.404 -2.766,-3.787 0.193,-6.917 1.832,-8.404 z M 91.609,66.87 c -2.163,3.724 -7.763,3.454 -9.834,2.755 2.747,-4.593 8.484,-3.466 9.834,-2.755 z m -3.085,6.225 c -3.038,2.796 -8.083,1.779 -10.256,0.68 2.882,-4.062 8.841,-1.651 10.256,-0.68 z m -6.948,3.381 c -2.771,3.172 -7.777,2.285 -9.44,1.999 2.863,-4.763 7.847,-2.755 9.44,-1.999 z m -6.389,3.653 c -1.229,3.613 -6.584,4.672 -8.339,4.625 0.935,-5.534 6.635,-4.738 8.339,-4.625 z m -4.701,5.362 c -1.391,0.07 -6.578,0.192 -6.943,5.579 1.681,-0.265 6.962,-1.837 6.943,-5.579 z M 61.129,85.39 c -1.318,1.56 -3.308,4.842 0.276,8.813 0.875,-1.605 3.018,-6.404 -0.276,-8.813 z m 6.768,5.26 c 0.717,4.716 -3.792,7.647 -5.382,8.205 -0.92,-6.598 4.009,-7.767 5.382,-8.205 z m -10.22,1.607 c 4.01,2.189 3.281,6.583 2.81,8.464 -4.594,-2.777 -3.505,-6.868 -2.81,-8.464 z m 8.274,5.61 c -1.354,0.621 -5.108,1.826 -3.987,7.599 1.148,-0.779 4.703,-2.884 3.987,-7.599 z m -9.963,2.983 c 5.534,0.39 5.667,6.162 5.71,7.399 -4.979,-0.519 -5.578,-4.793 -5.71,-7.399 z m 9.357,3.7 c 3.104,3.319 0.338,8.124 -0.608,9.104 -3.216,-4.395 -1.003,-7.895 0.608,-9.104 z m -8.182,4.306 c 0.131,2.604 1.117,7.633 6.224,7.417 -0.043,-1.237 -0.69,-7.027 -6.224,-7.417 z m 2.681,8.519 c 4.946,-0.95 7.797,4.345 8.188,5.747 -6.08,0.454 -7.414,-3.123 -8.188,-5.747 z m 7.925,-5.921 c -1.886,1.926 -3.052,6.105 1.044,9.361 0.652,-1.017 2.06,-6.042 -1.044,-9.361 z m 2.974,7.932 c 4.628,1.354 3.9,6.361 3.56,7.727 -4.023,-2.155 -4.014,-4.554 -3.56,-7.727 z m -6.97,5.481 c 1.637,2.366 4.201,4.126 8.611,2.956 -0.795,-1.329 -4.454,-5.487 -8.611,-2.956 z m 4.278,5.471 c 4.229,-3.007 8.917,-0.816 10.153,0.716 -2.132,2.364 -8.166,1.762 -10.153,-0.716 z m 6.574,4.26 c 3.458,-3.264 8.108,-1.881 10.08,-0.532 -1.215,2.345 -6.35,3.303 -10.08,0.532 z m 1.92,-9.814 c 0.06,4.404 2.034,6.895 6.515,6.902 -0.356,-1.789 -0.712,-5.822 -6.515,-6.902 z m 7.667,4.766 c 5.767,-1.142 8.454,3.389 8.939,5.213 -3.693,0.397 -8.126,-1.322 -8.939,-5.213 z"
   id="path14" />
	<g
   id="g16">
		<path
   fill-rule="evenodd"
   clip-rule="evenodd"
   fill="#ffffff"
   d="m 98.563,64.222 c 5.872,0.983 11.291,3.306 15.933,6.641 l -0.919,1.851 c -0.46,-0.337 -0.929,-0.664 -1.406,-0.979 l -0.658,1.229 c 0.488,0.325 0.968,0.663 1.438,1.013 l -0.867,1.746 c -0.483,-0.367 -0.977,-0.721 -1.48,-1.061 l -0.659,1.23 c 0.515,0.352 1.019,0.717 1.511,1.098 l -1.046,2.105 c -3.97,-3.166 -8.781,-5.322 -14.047,-6.072 l 0.561,-2.244 c 0.869,0.131 1.727,0.297 2.569,0.496 l 0.364,-1.341 c -0.853,-0.203 -1.718,-0.373 -2.595,-0.509 l 0.468,-1.867 c 0.888,0.142 1.765,0.317 2.629,0.524 l 0.364,-1.34 c -0.873,-0.211 -1.759,-0.39 -2.655,-0.536 z m 19.091,9.174 -1.381,1.498 c 0.524,0.467 1.034,0.949 1.531,1.445 l 0.209,0.212 -0.995,0.967 -0.195,-0.197 c -0.483,-0.482 -0.979,-0.951 -1.49,-1.405 l -1.3,1.409 c 0.491,0.437 0.971,0.887 1.435,1.352 l 0.176,0.178 -0.995,0.967 -0.162,-0.163 c -0.451,-0.451 -0.916,-0.889 -1.394,-1.313 l -1.561,1.692 c 3.52,3.108 6.284,7.051 7.985,11.519 l 2.115,-0.909 c -0.253,-0.658 -0.527,-1.306 -0.822,-1.941 l 1.253,-0.597 c 0.303,0.651 0.585,1.315 0.846,1.989 l 1.763,-0.757 c -0.271,-0.697 -0.563,-1.384 -0.877,-2.058 l 1.254,-0.597 c 0.321,0.69 0.621,1.393 0.899,2.105 l 1.874,-0.805 C 125.611,82.348 122.1,77.361 117.654,73.396 Z m 11.575,18.92 c 0.798,3.075 1.224,6.302 1.224,9.628 0,2.711 -0.283,5.356 -0.819,7.908 l -2.023,-0.302 c 0.167,-0.783 0.31,-1.577 0.426,-2.378 l -1.385,-0.129 c -0.113,0.776 -0.253,1.544 -0.417,2.302 l -1.9,-0.282 c 0.159,-0.724 0.295,-1.456 0.406,-2.197 l -1.384,-0.129 c -0.109,0.716 -0.242,1.423 -0.398,2.121 l -2.283,-0.34 c 0.486,-2.113 0.744,-4.313 0.744,-6.574 0,-2.877 -0.417,-5.656 -1.192,-8.282 l 2.297,-0.344 c 0.168,0.594 0.32,1.193 0.454,1.8 l 1.39,-0.144 c -0.136,-0.628 -0.289,-1.249 -0.46,-1.863 l 1.91,-0.285 c 0.174,0.643 0.33,1.293 0.468,1.95 l 1.388,-0.144 c -0.14,-0.679 -0.298,-1.35 -0.474,-2.014 z m -0.956,22.375 c -2.066,5.848 -5.513,11.042 -9.949,15.192 l -1.47,-1.419 c 0.321,-0.3 0.639,-0.605 0.95,-0.916 0.35,-0.35 0.693,-0.707 1.028,-1.071 l -1.012,-0.951 c -0.325,0.354 -0.658,0.701 -0.998,1.041 -0.316,0.316 -0.641,0.627 -0.969,0.932 l -1.381,-1.334 c 0.338,-0.311 0.669,-0.629 0.994,-0.953 0.326,-0.326 0.646,-0.659 0.958,-0.999 l -1.011,-0.952 c -0.303,0.33 -0.612,0.653 -0.929,0.97 -0.33,0.33 -0.668,0.653 -1.013,0.969 l -1.659,-1.603 c 3.816,-3.459 6.716,-7.913 8.285,-12.952 l 2.086,1.033 c -0.216,0.664 -0.452,1.318 -0.71,1.963 l 1.226,0.671 c 0.269,-0.66 0.516,-1.331 0.741,-2.012 l 1.734,0.858 c -0.239,0.703 -0.5,1.397 -0.782,2.079 l 1.225,0.67 c 0.292,-0.698 0.563,-1.407 0.813,-2.128 z m -13.946,18.456 -1.086,-1.73 c -0.645,0.462 -1.306,0.902 -1.981,1.321 l -0.667,-1.22 c 0.65,-0.405 1.288,-0.832 1.91,-1.28 l -1.021,-1.627 c -0.589,0.427 -1.192,0.834 -1.811,1.222 l -0.667,-1.221 c 0.593,-0.374 1.172,-0.768 1.737,-1.18 l -1.226,-1.953 c -4.065,2.996 -8.935,4.963 -14.225,5.521 l 0.458,2.264 c 0.83,-0.093 1.65,-0.218 2.461,-0.374 l 0.285,1.358 c -0.813,0.157 -1.638,0.285 -2.471,0.381 l 0.381,1.886 c 0.837,-0.101 1.666,-0.231 2.483,-0.391 l 0.286,1.358 c -0.821,0.16 -1.652,0.293 -2.493,0.397 l 0.405,2.006 c 6.372,-0.812 12.251,-3.192 17.242,-6.738 z"
   id="path15" />
		<path
   fill-rule="evenodd"
   clip-rule="evenodd"
   fill="#b87956"
   d="m 101.209,72.037 c 2.383,0.717 4.67,1.718 6.816,2.98 l 2.084,-4.581 c -2.353,-1.339 -4.846,-2.41 -7.436,-3.191 z m 14.588,9.451 c 1.372,1.582 2.585,3.298 3.614,5.121 l 4.601,-2.03 c -1.279,-2.338 -2.814,-4.53 -4.573,-6.533 z m 7.245,15.521 c 0.259,1.63 0.389,3.279 0.389,4.935 0,0.874 -0.036,1.747 -0.108,2.617 l 5.014,0.137 c 0.068,-0.916 0.103,-1.835 0.103,-2.754 0,-1.733 -0.122,-3.462 -0.367,-5.174 z m -2.745,18.581 c -1.109,2.279 -2.495,4.416 -4.121,6.362 l 3.88,3.17 c 1.742,-2.091 3.245,-4.372 4.477,-6.799 z m -13.065,13.732 c -2.319,1.276 -4.79,2.251 -7.356,2.9 l 1.417,4.81 c 2.726,-0.704 5.356,-1.726 7.845,-3.044 z"
   id="path16" />
	</g>
	<g
   id="g20">
		<path
   fill-rule="evenodd"
   clip-rule="evenodd"
   fill="#ffffff"
   d="m 54.007,207.413 c 0.822,-2.589 4.488,-3.986 8.573,-3.642 -0.484,2.538 -0.969,4.947 -1.453,7.484 -0.994,2.801 -5.983,1.771 -8.2,1.04 -9.749,-3.212 -19.498,-6.663 -29.248,-10.146 2.88,-2.995 6.805,-5.512 11.183,-7.82 -2.202,-4.641 -4.274,-9.318 -4.465,-14.55 6.404,2.23 13.221,4.621 19.644,6.858 0.261,6.453 0.522,12.896 0.768,19.142 0.128,3.26 4.843,4.279 7.215,4.792 l 0.429,0.094 c 0.494,0.106 0.983,-0.199 1.092,-0.684 0.109,-0.484 -0.203,-0.965 -0.697,-1.071 l -0.429,-0.094 c -1.191,-0.257 -3.115,-0.674 -4.412,-1.403 z m 76.388,0 c -0.822,-2.589 -4.488,-3.986 -8.573,-3.642 0.484,2.538 0.969,4.947 1.453,7.484 0.993,2.801 5.983,1.771 8.199,1.04 9.75,-3.212 19.499,-6.663 29.248,-10.146 -2.88,-2.995 -6.805,-5.512 -11.183,-7.82 2.202,-4.641 4.273,-9.318 4.465,-14.55 -6.405,2.23 -13.221,4.621 -19.644,6.858 -0.262,6.453 -0.522,12.896 -0.769,19.142 -0.128,3.26 -4.842,4.279 -7.215,4.792 l -0.429,0.094 c -0.494,0.106 -0.983,-0.199 -1.093,-0.684 -0.108,-0.484 0.203,-0.965 0.697,-1.071 l 0.429,-0.094 c 1.193,-0.257 3.118,-0.674 4.415,-1.403 z m -38.194,-7.54 c 14.551,0 33.403,0.68 39.583,5.26 0.249,-6.318 0.497,-12.454 0.745,-18.581 l 0.232,-5.771 c -11.549,-3.754 -25.515,-5.951 -40.56,-5.951 -15.046,0 -29.011,2.197 -40.561,5.951 l 0.232,5.771 c 0.248,6.127 0.496,12.263 0.746,18.581 6.179,-4.581 25.03,-5.26 39.583,-5.26 z"
   id="path17" />
		<g
   id="g19">
			<path
   fill-rule="evenodd"
   clip-rule="evenodd"
   fill="#019541"
   d="m 56.063,186.63 1.281,-3.731 1.433,-0.307 -1.415,3.713 2.815,2.857 -1.432,0.306 z m 0.677,3.266 -1.4,-6.569 -1.284,0.273 1.401,6.569 z m 7.431,-1.443 -0.208,-1.162 -2.288,0.41 -0.293,-1.637 2.288,-0.41 -0.206,-1.144 -2.288,0.41 -0.27,-1.507 2.288,-0.409 -0.208,-1.163 -3.571,0.64 1.185,6.612 z m -2.808,-7.204 -0.187,-1.041 0.93,-0.167 0.187,1.042 z m -1.58,0.283 -0.187,-1.042 0.93,-0.166 0.187,1.041 z m 4.735,4.75 1.184,-0.196 0.015,0.097 c 0.045,0.279 0.155,0.491 0.328,0.636 0.173,0.146 0.382,0.198 0.624,0.159 0.263,-0.043 0.457,-0.154 0.583,-0.336 0.127,-0.18 0.169,-0.405 0.125,-0.673 -0.069,-0.427 -0.427,-0.684 -1.071,-0.771 -0.083,-0.01 -0.149,-0.021 -0.198,-0.028 -0.542,-0.076 -0.961,-0.243 -1.258,-0.498 -0.297,-0.255 -0.482,-0.609 -0.555,-1.062 -0.101,-0.622 -0.009,-1.148 0.275,-1.582 0.283,-0.432 0.712,-0.694 1.286,-0.787 0.538,-0.087 0.993,0.012 1.366,0.296 0.373,0.282 0.627,0.723 0.761,1.322 l -1.175,0.19 -0.009,-0.055 c -0.035,-0.213 -0.126,-0.373 -0.275,-0.484 -0.149,-0.109 -0.327,-0.146 -0.532,-0.113 -0.213,0.033 -0.37,0.129 -0.471,0.281 -0.102,0.154 -0.134,0.347 -0.097,0.576 0.016,0.098 0.042,0.182 0.081,0.252 0.036,0.069 0.088,0.131 0.154,0.182 0.146,0.117 0.434,0.199 0.862,0.249 0.189,0.019 0.336,0.038 0.439,0.054 0.48,0.082 0.852,0.248 1.116,0.502 0.263,0.253 0.431,0.604 0.504,1.053 0.11,0.684 0.01,1.264 -0.302,1.738 -0.312,0.477 -0.783,0.765 -1.411,0.866 -0.593,0.097 -1.102,-0.026 -1.532,-0.368 -0.429,-0.342 -0.701,-0.843 -0.817,-1.5 z m 6.165,-1.558 0.346,2.708 -1.302,0.166 -0.853,-6.663 1.303,-0.167 0.345,2.7 2.146,-0.274 -0.345,-2.7 1.302,-0.166 0.854,6.663 -1.303,0.167 -0.347,-2.709 z m 4.916,2.18 -0.627,-6.688 1.307,-0.123 0.628,6.688 z m 5.826,-0.491 -3.401,0.262 -0.515,-6.698 1.3,-0.1 0.425,5.521 2.101,-0.161 z m 4.15,-0.24 -3.405,0.203 -0.401,-6.706 1.301,-0.077 0.33,5.527 2.104,-0.126 z m 0.757,-0.004 -0.172,-6.716 1.313,-0.034 0.172,6.716 z m 5.193,-0.105 0.057,-6.718 1.313,0.012 -0.057,6.717 z m 10.003,-1.786 c 0.166,-0.165 0.294,-0.355 0.383,-0.57 0.09,-0.215 0.141,-0.455 0.152,-0.724 0.026,-0.608 -0.152,-1.129 -0.534,-1.563 -0.383,-0.435 -0.865,-0.663 -1.45,-0.688 -0.567,-0.024 -1.063,0.166 -1.482,0.572 -0.419,0.404 -0.642,0.898 -0.666,1.483 -0.003,0.056 0,0.112 0.007,0.169 0.007,0.057 0.019,0.119 0.038,0.185 0.148,-0.043 0.291,-0.072 0.433,-0.091 0.141,-0.018 0.281,-0.022 0.421,-0.017 0.488,0.021 0.949,0.132 1.391,0.334 0.437,0.205 0.874,0.507 1.307,0.91 z m -3.261,-0.236 c 0.063,-0.007 0.128,-0.012 0.194,-0.014 0.064,-0.002 0.131,-0.001 0.193,0.002 0.332,0.014 0.671,0.092 1.017,0.232 0.347,0.141 0.707,0.348 1.082,0.623 -0.142,0.049 -0.282,0.085 -0.419,0.107 -0.136,0.024 -0.269,0.033 -0.401,0.027 -0.346,-0.015 -0.663,-0.106 -0.949,-0.275 -0.288,-0.168 -0.527,-0.402 -0.717,-0.702 z m 3.359,1.919 c -0.263,0.157 -0.549,0.273 -0.855,0.347 -0.308,0.073 -0.629,0.103 -0.964,0.089 -0.379,-0.017 -0.743,-0.097 -1.093,-0.241 -0.349,-0.144 -0.674,-0.345 -0.975,-0.604 -0.408,-0.356 -0.712,-0.777 -0.912,-1.262 -0.202,-0.486 -0.29,-1.012 -0.266,-1.576 0.02,-0.466 0.13,-0.903 0.329,-1.317 0.2,-0.412 0.479,-0.783 0.841,-1.113 0.334,-0.306 0.705,-0.532 1.113,-0.679 0.409,-0.148 0.842,-0.212 1.3,-0.192 0.474,0.021 0.911,0.121 1.31,0.304 0.399,0.181 0.755,0.441 1.068,0.781 0.333,0.354 0.578,0.749 0.734,1.18 0.156,0.431 0.224,0.899 0.202,1.403 -0.019,0.44 -0.104,0.838 -0.256,1.195 -0.152,0.359 -0.374,0.678 -0.663,0.957 0.118,0.065 0.241,0.113 0.368,0.146 0.129,0.032 0.265,0.053 0.409,0.059 l 0.136,0.006 -0.046,1.069 c -0.019,-0.001 -0.047,0 -0.085,0.001 -0.039,0 -0.068,0 -0.085,0 -0.268,-0.012 -0.536,-0.064 -0.804,-0.155 -0.267,-0.094 -0.536,-0.227 -0.806,-0.398 z m 5.78,-1.836 -0.588,-2.228 -1.011,2.078 z m -2.165,1.049 2.479,0.232 0.397,1.451 1.401,0.131 -1.931,-6.928 -1.131,-0.106 -3.222,6.444 1.354,0.127 z m 6.303,-1.426 0.289,0.037 c 0.527,0.067 0.941,0.023 1.239,-0.132 0.297,-0.155 0.471,-0.416 0.518,-0.783 0.045,-0.354 -0.036,-0.629 -0.244,-0.827 -0.208,-0.196 -0.555,-0.326 -1.04,-0.389 l -0.486,-0.062 z m -0.438,3.42 -1.303,-0.167 0.853,-6.663 1.582,0.202 c 0.503,0.064 0.876,0.129 1.116,0.196 0.242,0.066 0.444,0.151 0.609,0.253 0.354,0.225 0.612,0.509 0.771,0.851 0.157,0.343 0.208,0.729 0.153,1.156 -0.066,0.515 -0.264,0.934 -0.594,1.255 -0.329,0.323 -0.743,0.501 -1.245,0.537 l 1.336,2.799 -1.556,-0.199 -1.327,-3.313 z m 5.824,-2.582 2.496,-3.057 1.449,0.211 -2.613,2.991 1.649,3.656 -1.449,-0.21 z m -0.498,3.298 0.964,-6.648 -1.299,-0.188 -0.964,6.648 z m 5.078,-5.99 -0.752,4.196 c -0.09,0.496 -0.127,0.857 -0.114,1.085 0.012,0.228 0.063,0.44 0.152,0.637 0.152,0.34 0.359,0.607 0.624,0.804 0.266,0.195 0.602,0.33 1.011,0.403 0.409,0.073 0.771,0.064 1.088,-0.027 0.315,-0.093 0.603,-0.271 0.863,-0.537 0.152,-0.153 0.276,-0.342 0.369,-0.566 0.093,-0.224 0.183,-0.569 0.266,-1.034 l 0.752,-4.195 -1.293,-0.232 -0.684,3.814 c -0.106,0.596 -0.244,0.998 -0.411,1.208 -0.167,0.208 -0.403,0.286 -0.71,0.23 -0.307,-0.055 -0.502,-0.209 -0.586,-0.463 -0.084,-0.255 -0.073,-0.681 0.033,-1.275 l 0.684,-3.814 z m 8.836,1.751 -0.246,1.155 -1.238,-0.264 -1.156,5.413 -1.284,-0.273 1.155,-5.414 -1.238,-0.265 0.247,-1.154 z"
   id="path18" />
			
		</g>
	</g>
</g></g></svg>
