<?xml version="1.0" encoding="UTF-8" standalone="no"?>
<!-- Created with Inkscape (http://www.inkscape.org/) -->

<svg
   width="133.35001mm"
   height="95.25mm"
   viewBox="0 0 133.35001 95.25"
   version="1.1"
   id="svg1"
   xml:space="preserve"
   inkscape:version="1.4.2 (f4327f4, 2025-05-13)"
   sodipodi:docname="Flag of Gjirokastër.svg"
   xmlns:inkscape="http://www.inkscape.org/namespaces/inkscape"
   xmlns:sodipodi="http://sodipodi.sourceforge.net/DTD/sodipodi-0.dtd"
   xmlns="http://www.w3.org/2000/svg"
   xmlns:svg="http://www.w3.org/2000/svg"><sodipodi:namedview
     id="namedview1"
     pagecolor="#ffffff"
     bordercolor="#999999"
     borderopacity="1"
     inkscape:showpageshadow="2"
     inkscape:pageopacity="0"
     inkscape:pagecheckerboard="0"
     inkscape:deskcolor="#d1d1d1"
     inkscape:document-units="mm"
     inkscape:zoom="2.2638889"
     inkscape:cx="252.22086"
     inkscape:cy="180"
     inkscape:window-width="1920"
     inkscape:window-height="1017"
     inkscape:window-x="-8"
     inkscape:window-y="-8"
     inkscape:window-maximized="1"
     inkscape:current-layer="layer1" /><defs
     id="defs1"><style
       type="text/css"
       id="style1">
   <![CDATA[
    .fil7 {fill:#056BA9}
    .fil0 {fill:#0D120B}
    .fil2 {fill:#8D4354}
    .fil6 {fill:#8E9396}
    .fil3 {fill:#BFDEF3}
    .fil1 {fill:#C3C6C7}
    .fil4 {fill:white}
    .fil5 {fill:#056BA9;fill-rule:nonzero}
   ]]>
  </style></defs><g
     inkscape:label="Capa 1"
     inkscape:groupmode="layer"
     id="layer1"><path
       style="fill:#ffffff"
       d="M 0,47.625 V 0 H 66.675003 133.35001 V 47.625 95.25 H 66.675003 0 Z"
       id="path10" /><g
       style="clip-rule:evenodd;fill-rule:evenodd;image-rendering:optimizeQuality;shape-rendering:geometricPrecision;text-rendering:geometricPrecision"
       id="g1"
       transform="matrix(0.01469862,0,0,0.01657472,44.215512,6.8429014)"><g
         id="Layer_x0020_1"
         inkscape:label="Layer 1"
         inkscape:groupmode="layer">
  <metadata
   id="CorelCorpID_0Corel-Layer" />
  <g
   id="_799469728">
   <g
   id="g2">
    <path
   class="fil0"
   d="m 1528,0 h -41 v 104 h -43 V 0 h -121 v 104 h -44 V 0 h -122 v 189 l 57,52 v 366 c -55,4 -109,9 -163,16 l 19,138 -70,10 -20,-139 c -64,9 -128,20 -191,33 l 29,139 -70,15 -29,-140 c -6,2 -13,3 -20,5 L 620,352 644,247 C 630,186 609,128 595,66 543,79 489,93 436,108 l 33,105 -47,16 -34,-107 c -61,18 -122,37 -182,58 l 35,108 -48,16 -34,-107 C 105,216 52,236 0,257 17,318 38,376 60,437 l 77,72 107,314 c -40,15 -81,32 -120,50 24,64 47,122 75,185 17,36 76,55 90,92 35,94 65,206 97,304 -19,6 -47,16 -76,27 17,45 29,80 46,125 389,-136 789,-185 1172,-188 382,3 782,52 1172,188 17,-45 29,-80 46,-125 -30,-11 -57,-21 -76,-27 32,-98 62,-210 97,-304 13,-37 73,-56 89,-92 29,-63 52,-121 76,-185 -40,-18 -80,-35 -121,-50 l 107,-314 78,-72 c 22,-61 42,-119 60,-180 -53,-21 -106,-41 -159,-60 l -34,107 -48,-16 35,-108 c -61,-21 -121,-40 -182,-58 l -34,107 -48,-16 34,-105 c -54,-15 -107,-29 -160,-42 -13,62 -35,120 -48,181 l 24,105 -80,332 c -6,-2 -13,-3 -20,-5 l -29,140 -69,-15 29,-139 c -64,-13 -127,-24 -192,-33 l -19,139 -71,-10 20,-138 c -54,-7 -109,-12 -163,-16 V 241 l 57,-52 V 0 h -123 v 104 h -43 V 0 h -121 v 104 h -44 V 0 Z m 0,1275 c -51,1 -100,2 -150,3 v -131 -8 -45 c 0,-24 7,-47 18,-66 7,-13 13,-19 13,-19 24,-29 61,-48 102,-48 h 17 17 c 40,0 77,19 102,48 0,0 6,6 13,19 11,19 18,42 18,66 v 45 8 131 c -50,-1 -100,-2 -150,-3 z"
   id="path1" />
    <path
   class="fil1"
   d="m 364,1589 c 368,-127 754,-180 1142,-185 1,0 13,0 22,0 9,0 20,0 22,0 388,5 774,58 1142,185 12,-32 24,-66 35,-98 -55,-21 -112,-40 -168,-56 -142,-42 -280,-73 -418,-96 -202,-32 -403,-46 -613,-47 -210,1 -411,15 -614,47 -137,23 -276,54 -417,96 -57,16 -114,35 -169,56 12,32 24,66 36,98 z M 313,497 360,642 313,657 266,512 Z m 200,-60 44,145 -47,15 -44,-146 z M 1671,322 h 49 v 152 h -49 z m -336,0 h 49 v 152 h -49 z m 168,0 h 49 v 152 h -49 z m 1240,175 -47,145 47,15 46,-145 z m -200,-60 -44,145 47,15 44,-146 z M 478,1067 c -62,20 -123,42 -182,66 3,4 5,8 6,12 10,26 19,53 28,80 59,-22 118,-43 177,-61 z m 219,-61 c -69,17 -137,36 -203,56 l 28,97 c 65,-20 130,-38 196,-54 z m 256,-51 c -29,5 -57,10 -85,15 -52,10 -104,21 -155,33 l 21,99 c 54,-13 109,-25 164,-35 22,-4 44,-8 66,-12 z m 199,-26 c -61,6 -122,14 -183,24 l 11,100 c 59,-10 118,-18 177,-24 z m 176,-15 c -53,3 -107,7 -160,13 l 6,100 c 31,-3 63,-6 95,-8 11,-40 31,-76 59,-105 z m -921,300 c -24,8 -48,17 -72,26 9,30 18,59 27,89 24,-8 48,-16 72,-23 z m 207,-65 c -64,18 -128,38 -191,60 l 27,92 c 63,-20 127,-38 189,-53 z m 223,-54 c -70,15 -139,31 -207,50 l 25,99 c 67,-16 133,-30 199,-42 z m 223,-38 c -53,8 -106,16 -159,26 -16,3 -32,6 -48,9 l 17,107 c 14,-2 28,-5 42,-7 53,-9 106,-16 159,-22 z m 205,-22 c -63,5 -126,12 -188,20 l 10,113 c 58,-6 115,-11 173,-15 v -72 c 0,-15 2,-31 5,-46 z m -720,255 c -59,16 -118,34 -178,54 10,35 21,70 32,104 60,-19 119,-37 177,-53 z m 201,-50 c -61,13 -123,28 -186,45 l 32,106 c 60,-15 119,-29 177,-41 z m 233,-42 c -21,3 -43,7 -65,10 -50,8 -101,18 -152,28 l 23,110 c 43,-8 85,-16 127,-23 26,-4 53,-8 80,-12 z m 187,-21 c -57,5 -114,11 -170,19 l 12,113 c 55,-7 109,-13 164,-18 z m 94,-8 c -26,2 -52,4 -78,6 l 6,115 c 24,-2 48,-4 72,-6 v 0 z m -30,-680 v 117 139 h 4 l 71,-5 V 601 c 40,-2 81,-3 121,-4 V 489 h -27 -79 z m 169,-16 h 89 v -98 h -89 z m -169,-98 v 98 h 90 v -98 z m 0,-127 v 111 h 90 v -52 h 79 v 52 h 27 V 248 Z M 683,687 656,575 c -71,18 -143,39 -214,62 v 0 l 32,106 v 0 l 41,137 68,-20 -41,-137 c 47,-13 94,-25 141,-36 z m -459,26 81,238 65,-24 -49,-133 c 45,-17 91,-32 137,-46 L 426,642 c -68,22 -135,46 -202,71 z M 572,581 c 27,-8 54,-15 81,-22 L 626,448 c -29,7 -58,15 -87,23 z m -197,60 c 21,-6 41,-13 62,-20 19,-6 39,-12 59,-18 L 463,494 c -19,5 -38,11 -56,17 -22,7 -45,15 -67,22 z m -193,-51 37,107 c 27,-10 54,-20 82,-30 L 266,559 c -28,10 -56,20 -84,31 z m 217,-93 3,-1 c 19,-6 37,-12 56,-18 l -11,-37 76,-23 11,38 c 29,-8 59,-16 88,-24 l -16,-68 c -70,19 -139,39 -207,61 -7,2 -13,4 -20,6 z m -244,13 22,64 c 28,-10 56,-20 84,-31 l -14,-40 76,-25 12,39 c 16,-5 32,-10 49,-15 l -20,-66 c -71,23 -140,48 -209,74 z m -72,-74 65,60 c 80,-31 162,-60 246,-87 69,-22 140,-43 210,-61 l 20,-86 C 537,284 450,309 363,336 269,366 175,400 83,436 Z M 20,267 c 15,52 34,104 53,156 93,-37 188,-71 286,-102 88,-29 178,-54 268,-76 -13,-54 -31,-106 -44,-159 -42,11 -84,22 -127,33 l 34,105 -79,26 -34,-108 c -50,15 -101,31 -151,48 l 35,109 -78,26 -34,-107 c -44,15 -87,32 -129,49 z m 1508,484 h 68 V 611 c 47,0 94,2 140,4 v 138 l 99,7 h 7 V 621 c 49,4 98,8 147,14 l -19,138 98,14 19,-139 c 55,8 109,17 163,28 l -29,139 97,20 29,-139 c 50,11 100,23 149,37 l -41,136 95,28 41,-136 c 42,13 84,26 126,41 l -50,133 93,35 50,-133 c 35,14 70,28 104,43 -19,51 -39,101 -61,151 -81,-31 -166,-60 -249,-86 -122,-37 -238,-68 -329,-86 -130,-27 -259,-45 -389,-56 -118,-10 -236,-15 -358,-16 -122,1 -241,6 -358,16 -130,11 -259,29 -389,56 -91,18 -208,49 -329,86 -83,26 -168,55 -250,86 -22,-50 -42,-100 -61,-151 35,-15 70,-29 105,-43 l 49,133 93,-35 -49,-133 c 42,-15 84,-28 126,-41 l 41,136 95,-28 -41,-136 c 49,-14 99,-26 148,-37 l 30,139 97,-20 -30,-139 c 55,-11 109,-20 164,-28 l 19,139 98,-14 -19,-138 c 49,-6 98,-10 147,-14 v 139 h 6 l 99,-7 V 615 c 47,-2 94,-4 141,-4 v 140 z m 0,52 c 121,1 239,6 356,16 130,12 258,30 388,56 90,18 206,48 327,86 82,25 167,54 248,85 l -3,6 c -12,26 -50,42 -74,67 -180,-72 -376,-127 -579,-165 -159,-30 -321,-49 -482,-58 -42,-35 -97,-57 -156,-57 h -25 -26 c -59,0 -113,22 -155,57 -161,9 -324,28 -482,58 -203,38 -400,93 -579,165 -24,-25 -62,-41 -74,-67 l -3,-6 c 81,-31 165,-60 248,-85 121,-38 237,-68 327,-86 129,-26 258,-44 387,-56 118,-10 236,-15 357,-16 z m 1050,264 c 62,20 123,42 182,66 -3,4 -5,8 -7,12 -9,26 -18,53 -27,80 -59,-22 -118,-43 -177,-61 z m -219,-61 c 69,17 137,36 203,56 l -29,97 c -65,-20 -130,-38 -195,-54 z m -256,-51 c 28,5 57,10 85,15 52,10 104,21 155,33 l -21,99 c -55,-13 -109,-25 -164,-35 -22,-4 -44,-8 -66,-12 z m -199,-26 c 61,6 122,14 183,24 l -11,100 c -59,-10 -118,-18 -178,-24 z m -177,-15 c 54,3 107,7 161,13 l -6,100 c -32,-3 -63,-6 -95,-8 -11,-40 -32,-76 -60,-105 z m 921,300 c 25,8 49,17 73,26 -10,30 -19,59 -28,89 -24,-8 -48,-16 -71,-23 z m -206,-65 c 64,18 128,38 191,60 l -27,92 c -64,-20 -127,-38 -190,-53 z m -223,-54 c 69,15 138,31 207,50 l -25,99 c -67,-16 -133,-30 -199,-42 z m -224,-38 c 54,8 107,16 160,26 16,3 32,6 48,9 l -18,107 c -13,-2 -27,-5 -41,-7 -53,-9 -106,-16 -159,-22 z m -204,-22 c 63,5 126,12 188,20 l -10,113 c -58,-6 -116,-11 -174,-15 v -72 c 0,-15 -1,-31 -4,-46 z m 720,255 c 59,16 118,34 178,54 -11,35 -21,70 -32,104 -60,-19 -119,-37 -178,-53 z m -202,-50 c 62,13 124,28 186,45 l -31,106 c -60,-15 -119,-29 -178,-41 z m -233,-42 c 22,3 44,7 65,10 51,8 102,18 153,28 l -24,110 c -42,-8 -84,-16 -126,-23 -27,-4 -53,-8 -80,-12 z m -186,-21 c 57,5 113,11 170,19 l -12,113 c -55,-7 -110,-13 -165,-18 z m -95,-8 c 26,2 53,4 79,6 l -7,115 c -24,-2 -48,-4 -72,-6 v 0 z M 1528,856 h 25 c 124,0 226,101 226,225 v 202 c -28,-1 -57,-3 -85,-4 v -185 c 0,-82 -67,-150 -149,-150 h -17 -17 c -82,0 -149,68 -149,150 v 185 c -29,1 -57,3 -85,4 v -202 c 0,-124 101,-225 225,-225 z m 0,-367 h 39 46 v 108 c -10,0 -21,0 -31,0 v 140 h -54 -54 V 597 c -11,0 -21,0 -32,0 V 489 h 46 z m 297,0 v 117 139 h -4 l -71,-5 V 601 c -40,-2 -80,-3 -120,-4 V 489 h 26 79 z m -169,-16 h -89 v -98 h 89 z m 169,-98 v 98 h -90 v -98 z m -212,-16 h -46 v -52 h -39 -40 v 52 h -46 V 248 h 86 85 z m 212,-111 v 111 h -90 v -52 h -79 v 52 h -26 V 248 Z m 55,-64 -52,47 h -300 -300 l -53,-47 h 353 z m 492,503 27,-112 c 72,18 144,39 215,62 v 0 l -32,106 v 0 l -41,137 -69,-20 41,-137 c -46,-13 -93,-25 -141,-36 z m 459,26 -81,238 -65,-24 50,-133 c -46,-17 -92,-32 -138,-46 l 32,-106 c 69,22 136,46 202,71 z M 2484,581 c -27,-8 -54,-15 -81,-22 l 27,-111 c 29,7 58,15 87,23 z m 196,60 c -20,-6 -41,-13 -61,-20 -20,-6 -39,-12 -59,-18 l 33,-109 c 18,5 37,11 56,17 22,7 44,15 66,22 z m 193,-51 -36,107 c -27,-10 -55,-20 -82,-30 l 35,-108 c 28,10 56,20 83,31 z m -216,-93 -3,-1 c -19,-6 -38,-12 -57,-18 l 12,-37 -76,-23 -12,38 c -29,-8 -58,-16 -87,-24 l 16,-68 c 69,19 139,39 207,61 7,2 13,4 19,6 z m 243,13 -21,64 c -28,-10 -56,-20 -84,-31 l 13,-40 -75,-25 -13,39 c -16,-5 -32,-10 -48,-15 l 20,-66 c 70,23 140,48 208,74 z m 72,-74 -64,60 c -80,-31 -163,-60 -246,-87 -70,-22 -140,-43 -210,-61 l -20,-86 c 87,22 174,47 260,74 95,30 189,64 280,100 z m 64,-169 c -16,52 -34,104 -53,156 -93,-37 -189,-71 -286,-102 -89,-29 -178,-54 -268,-76 12,-54 30,-106 43,-159 43,11 85,22 127,33 l -33,105 78,26 35,-108 c 50,15 100,31 150,48 l -34,109 78,26 34,-107 c 43,15 86,32 129,49 z M 1528,16 h 29 v 100 h 66 V 16 h 98 v 100 h 67 V 16 h 95 V 168 H 1528 1173 V 16 h 95 v 100 h 66 V 16 h 98 v 100 h 67 V 16 Z"
   id="path2" />
   </g>
   <g
   id="g10">
    <path
   class="fil2"
   d="M 1479,4879 C 1282,4710 1038,4618 799,4527 581,4443 328,4350 170,4171 47,4031 0,3864 0,3680 0,3014 0,2348 0,1682 v -75 h 75 c 484,0 969,0 1453,0 484,0 968,0 1453,0 h 75 v 75 c 0,666 0,1332 0,1998 0,184 -47,351 -170,491 -158,179 -411,272 -629,356 -239,91 -484,183 -680,352 l -49,42 z"
   id="path3"
   style="fill:#eba904;fill-opacity:1" />
    <path
   class="fil3"
   d="M 1528,4822 C 972,4345 75,4457 75,3680 c 0,-671 0,-1328 0,-1998 484,0 969,0 1453,0 484,0 968,0 1453,0 0,670 0,1327 0,1998 0,777 -897,665 -1453,1142 z"
   id="path4" />
    <path
   class="fil4"
   d="M 1528,4822 C 972,4345 75,4457 75,3680 c 0,-119 0,-203 0,-264 l 813,-435 103,-617 386,-96 39,-10 4,-74 h 108 108 l 4,74 39,10 386,96 102,617 814,435 c 0,61 0,145 0,264 0,777 -897,665 -1453,1142 z"
   id="path5" />
    <path
   class="fil5"
   d="m 2169,4134 c 58,2 100,16 142,30 57,19 52,19 108,0 46,-15 91,-30 156,-30 24,0 45,2 65,5 6,38 11,75 15,110 l 1,15 c -3,2 -7,5 -11,7 -21,-6 -44,-10 -70,-10 -45,0 -80,12 -115,24 -93,31 -96,31 -189,0 -35,-12 -69,-23 -113,-24 2,-42 6,-85 11,-127 z M 689,4403 c 13,1 26,-4 55,-14 46,-15 91,-30 156,-30 h 1 c 0,43 0,85 -2,126 -72,-28 -142,-54 -210,-82 z m 651,-43 c 53,2 93,16 134,29 56,19 51,19 108,0 41,-13 80,-27 134,-29 -56,93 -119,184 -188,253 -69,-69 -132,-160 -188,-253 z m 815,-1 h 1 c 65,0 109,15 155,30 30,10 42,15 56,14 -68,28 -139,54 -210,82 -2,-41 -3,-83 -2,-126 z M 613,3707 c 8,2 16,5 23,7 49,17 52,19 89,7 33,26 59,68 79,107 -7,2 -13,5 -19,7 -93,31 -97,31 -189,0 -25,-9 -50,-17 -79,-21 21,-38 54,-85 96,-107 z m 1718,14 c 37,12 39,10 88,-7 8,-2 16,-5 24,-7 41,22 75,69 95,107 -28,4 -53,12 -78,21 -93,31 -96,31 -189,0 -6,-2 -13,-5 -19,-7 19,-39 46,-81 79,-107 z M 474,3909 h 7 c 65,0 109,15 155,30 57,19 52,19 108,0 30,-10 60,-20 95,-25 13,39 23,81 32,124 -32,4 -59,13 -86,22 -93,31 -97,31 -189,0 -35,-12 -70,-24 -115,-24 -16,0 -31,2 -45,4 10,-45 23,-89 38,-131 z m 639,44 c 11,0 24,-5 50,-14 46,-15 91,-30 155,-30 65,0 110,15 156,30 56,19 51,19 108,0 46,-15 91,-30 155,-30 65,0 110,15 156,30 25,9 38,14 50,14 -23,40 -44,79 -64,115 -8,-2 -17,-5 -27,-8 -35,-12 -70,-24 -115,-24 -45,0 -79,12 -115,24 -92,31 -96,31 -188,0 -36,-12 -70,-24 -116,-24 -45,0 -79,12 -115,24 -9,3 -18,6 -26,8 -20,-36 -42,-75 -64,-115 z m 1104,-39 c 35,5 64,15 94,25 57,19 52,19 108,0 46,-15 91,-30 156,-30 h 6 c 16,42 29,86 39,131 -14,-2 -29,-4 -45,-4 -45,0 -80,12 -115,24 -93,31 -96,31 -189,0 -27,-9 -54,-18 -86,-22 8,-43 19,-85 32,-124 z M 416,4139 c 20,-3 41,-5 65,-5 65,0 109,15 155,30 57,19 52,19 108,0 43,-14 85,-28 142,-30 6,42 9,85 12,127 -45,1 -79,12 -113,24 -93,31 -97,31 -189,0 -35,-12 -70,-24 -115,-24 -26,0 -49,4 -70,10 -4,-2 -8,-5 -12,-7 l 2,-15 c 4,-35 9,-72 15,-110 z m 804,8 c 29,-8 60,-13 98,-13 65,0 110,15 156,30 56,19 51,19 108,0 46,-15 91,-30 155,-30 39,0 70,5 99,13 -20,37 -42,76 -64,117 -11,-2 -23,-3 -35,-3 -45,0 -79,12 -115,24 -92,31 -96,31 -188,0 -36,-12 -70,-24 -116,-24 -12,0 -23,1 -34,3 -23,-41 -44,-80 -64,-117 z"
   id="path6" />
    <path
   class="fil6"
   d="m 1528,4655 c 129,-118 237,-317 346,-515 113,-206 226,-412 358,-522 93,-78 219,-64 345,-50 120,14 240,27 340,-35 25,-15 15,-40 -12,-24 -55,35 -114,49 -182,48 -53,-268 -240,-292 -272,-23 -51,-1 -116,8 -162,23 l -100,-564 792,423 c 0,90 0,174 0,264 0,38 -2,74 -7,108 -31,-153 -167,-84 -167,95 v 263 c -36,37 -77,70 -122,100 -101,-888 -598,-722 -558,250 -34,13 -68,27 -103,41 v -54 c 0,-143 -45,-188 -89,-181 -42,7 -84,60 -84,169 v 144 c -114,56 -224,122 -323,207 -99,-85 -209,-151 -323,-207 v -144 c 0,-109 -42,-162 -84,-169 -45,-7 -90,38 -90,181 v 54 c -34,-14 -68,-28 -102,-41 40,-972 -457,-1138 -558,-250 -45,-30 -86,-63 -123,-100 v -263 c 0,-179 -136,-248 -167,-95 -4,-34 -6,-70 -6,-108 0,-90 0,-174 0,-264 l 791,-423 -99,564 c -46,-15 -112,-24 -162,-23 -33,-269 -219,-245 -272,23 -68,1 -127,-13 -182,-48 -27,-16 -37,9 -12,24 100,62 220,49 340,35 126,-14 251,-28 345,50 132,110 245,316 358,522 109,198 217,397 346,515 z m -106,-2509 -6,112 -58,14 -24,152 h 194 194 l -25,-152 -57,-14 -6,-112 h 37 v -287 l -143,-103 -143,103 v 287 z m 106,38 h -76 v -38 h 76 75 v 38 z m -565,349 344,-86 -249,1401 c -13,-8 -24,-19 -34,-34 -56,-84 -115,-157 -179,-211 -19,-15 -38,-27 -58,-37 59,-338 121,-695 176,-1033 z m 364,-86 h 201 200 l 251,1412 c -72,14 -122,-32 -234,-39 -88,-6 -142,42 -217,42 -70,0 -121,-41 -197,-42 1,-38 -3,-81 -3,-110 0,-32 15,-17 21,-55 3,-23 29,-12 41,-24 19,-19 16,-51 -3,-64 -14,-10 -33,-9 -49,0 -31,18 -18,44 -28,56 -12,14 -32,19 -34,33 -3,24 31,29 37,50 5,20 3,80 3,114 h -5 c -112,7 -162,53 -234,39 z m -361,64 37,-222 80,-20 -6,74 61,-16 6,-74 78,-19 -6,74 62,-16 6,-74 66,-16 -39,222 z m 1127,22 -344,-86 249,1401 c 12,-8 24,-19 34,-34 56,-84 115,-157 179,-211 19,-15 38,-27 58,-37 -59,-338 -121,-695 -176,-1033 z m -4,-22 -36,-222 -80,-20 6,74 -62,-16 -6,-74 -78,-19 6,74 -61,-16 -6,-74 -67,-16 40,222 z"
   id="path7" />
    <rect
   class="fil4"
   x="1484"
   y="1924"
   width="87.689102"
   height="94.042503"
   id="rect7" />
    <g
   id="g9">
     <path
   class="fil7"
   d="m 2502,2026 27,-8 -32,105 -1,1 -38,129 h -1 l -38,131 -122,66 101,-21 -23,88 v 0 l -28,118 h -1 l -24,103 -10,5 c -369,168 -669,453 -885,793 -36,56 -65,31 -42,-19 271,-619 646,-1173 1141,-1635 l 60,-57 -47,158 z"
   id="path8" />
     <path
   class="fil4"
   d="m 2541,1899 c -498,465 -870,1019 -1139,1634 217,-345 522,-638 900,-811 l 14,-57 -218,71 230,-117 15,-64 -270,114 281,-158 13,-52 -213,44 246,-134 25,-86 -136,43 150,-88 23,-76 -168,96 184,-148 17,-59 -60,17 84,-96 z"
   id="path9" />
    </g>
   </g>
  </g>
 </g></g></g></svg>
