<?xml version="1.0" encoding="UTF-8"?>
<svg width="700" height="500" xmlns="http://www.w3.org/2000/svg">
<rect width="700" height="500" fill="#2c2c74"/>
<g transform="matrix(154.86657,0,0,154.88576,48.198816,-11.006513)">
<path d="m1.9488 0.55529c0.50756 0 0.93695 0.33462 1.0796 0.7953-0.082035-0.042626-0.19081-0.094189-0.27567-0.12417-0.048595-0.017189-0.069421-0.027169-0.10976-0.058319-0.027118-0.020949-0.054098-0.041795-0.088394-0.052213-0.034945-0.01063-0.058358-0.00887-0.07937-0.00729-0.021823 0.00165-0.060425-0.00802-0.077858-0.021713-0.022067-0.017315-0.046008-0.032063-0.13614-0.033421-0.049768-7.481e-4 -0.12394-0.15054-0.20604-0.08678-0.066992 0.052024-0.11924 0.13445-0.17602 0.17655-0.02498 0.01852-0.045398 0.036772-0.062972 0.052476-0.057949 0.051807-0.057673 0.045343-0.11047-0.022894-0.022933-0.029634-0.043346-0.056008-0.072591-0.062311-0.029874-0.00643-0.057425 0.018756-0.087752 0.046492-0.022811 0.020465-0.031032 0.00824-0.03887-0.00578-0.016791-0.030043-0.040465-0.045555-0.085264-0.022488-0.016957 0.00873-0.03535 0.019902-0.054614 0.031594-0.038429 0.023343-0.080803 0.049071-0.12715 0.06172-0.10046 0.027413-0.24699 0.053047-0.3497 0.06828 0.16019-0.42929 0.57387-0.73503 1.059-0.73503zm0.026354 1.6811c-0.022224 0.021185-0.048882 0.016779-0.068406 0.00291-0.01628 0.022189-0.037689 0.023941-0.054756 0.014406-0.00752 0.030063-0.034524 0.041189-0.057224 0.042386 0.029138 0.049492 0.088783 0.076669 0.14674 0.076669 0.056732 0 0.11667-0.027724 0.14643-0.075327-0.027169 0.00169-0.050043-0.016331-0.061217-0.04439-0.024307 0.00954-0.041106 7.244e-4 -0.051575-0.016649zm1.0797-0.78331c0.015661 0.074957 0.023933 0.15263 0.023933 0.23224 0 0.61457-0.49059 1.1145-1.1015 1.1297v-0.12716c0.086532-0.12534 0.18294-0.20965 0.27458-0.30464 0.086216-0.079146 0.12063-0.080669 0.16846-0.13397 0.042842-0.047756 0.067646-0.10346 0.099484-0.15918-0.020595 0.011138-0.041461 0.023677-0.065618 0.052618-0.01026 0.023079-0.023996 0.047031-0.048421 0.073653-0.027476 0.014004-0.057713 0.023583-0.082425 0.04202-0.026055 0.019421-0.042213 0.050047-0.067819 0.070059-0.028941 0.022614-0.052595 0.011504-0.066587 0.020965-0.01848 0.012484-0.015307 0.0435-0.031063 0.059283-0.027102 0.02715-0.054362-0.00161-0.076886 0.025197-0.053988 0.064268-0.069937 0.13439-0.1037 0.19838v-0.22852c0.079992-0.013032 0.14326-0.068921 0.15892-0.14008-0.040579 0.0099-0.072701-6.732e-4 -0.090217-0.046595-0.026713 0.00666-0.048425 4.685e-4 -0.064807-0.019441-0.03076 0.01965-0.057622 0.018591-0.081008-0.00162-0.01839 0.02472-0.040654 0.031327-0.066429 0.016205-0.01774 0.046118-0.048571 0.05835-0.087209 0.05039 0.015937 0.074787 0.084374 0.13292 0.16973 0.14259v0.30556c-0.031122-0.061878-0.047898-0.12896-0.09972-0.19065-0.022528-0.026811-0.049784 0.00195-0.076886-0.025201-0.01576-0.015784-0.012587-0.046795-0.031063-0.059284-0.013992-0.00946-0.037646 0.00165-0.066587-0.020965-0.02561-0.020012-0.041768-0.050634-0.067819-0.070059-0.024717-0.018437-0.054949-0.028012-0.082425-0.042016-0.024425-0.026626-0.038161-0.050575-0.048421-0.073657-0.024158-0.028937-0.045024-0.04148-0.065618-0.052618 0.031835 0.055713 0.056638 0.11142 0.099484 0.15918 0.047827 0.053307 0.082236 0.054831 0.16846 0.13397 0.090244 0.093539 0.1851 0.17672 0.2706 0.29892v0.046539c-0.60907-0.017205-1.0975-0.51631-1.0975-1.1295 0-0.10864 0.01537-0.21369 0.043992-0.31314 0.10824-0.011205 0.28856-0.045535 0.39716-0.075173 0.056795-0.015504 0.11413-0.043087 0.157-0.06913 0.079461-0.048244 0.032291 0.055791 0.063618 0.057429 0.044382 0.00233 0.10363-0.14187 0.1692-0.057142 0.032016 0.041374 0.063591 0.081567 0.12117 0.080528 0.036197-6.496e-4 0.061689-0.023437 0.097102-0.055087 0.046653-0.041697 0.081004-0.067083 0.12427-0.11549 0.017413-0.019476 0.037437-0.040484 0.057472-0.061953 0.052102-0.055839 0.047587-0.047382 0.11753 0.013646 0.032193 0.028079 0.065713 0.042268 0.096079 0.041366 0.061858-0.00185 0.074354 0.00795 0.085843 0.016965 0.036067 0.028319 0.08639 0.041598 0.13182 0.038173 0.054051-0.00405 0.072898 0.011268 0.11442 0.043343 0.046661 0.036024 0.07537 0.050398 0.1314 0.070213 0.10218 0.036094 0.23078 0.10001 0.32806 0.15321z" fill="#d2ab66"/>
<path d="m1.5596 1.5811c0.098839 0.11675 0.19356 0.10277 0.267 0.32627 0.020441 0.062205-0.00201 0.10667 0.034484 0.20834 0.00925 0.025768 0.021008 0.073559-0.01424 0.061779-0.013595-0.00455-0.035504-0.015961-0.051815-0.00394-0.011252 0.0083-0.00986 0.026579-0.010937 0.04052-0.00167 0.021453-0.018602 0.015102-0.033803 0.012272-0.026366-0.00491-0.017429-0.011819-0.028945-0.035543-0.041673-0.085839-0.1122-0.14123-0.13706-0.24416-0.00789-0.032658-0.020264-0.071701-0.0052-0.10261 0.011236-0.023075 0.019512-0.035933 0.012071-0.057846-0.034134-0.061098-0.049693-0.12791-0.031555-0.20508zm0.64504-0.049083c2.283e-4 0.052382 0.00398 0.11315-0.015039 0.17214-0.018721 0.058075-0.050646 0.053882-0.05026 0.11193 0.00482 0.042091 0.00419 0.080465-2.874e-4 0.12259-0.00474 0.044587-0.032445 0.084217-0.039335 0.12853-0.00549 0.035327-0.00405 0.06985-0.016028 0.10284 0.00194 0.041205-2.362e-4 0.064839 0.057847 0.052583 0.15284-0.11785 0.1954-0.3297 0.063102-0.69061zm-0.20889-0.026456c0.00774 0.010016 0.00765 0.039028 0.02015 0.041059 0.015465 0.00251 0.024772-0.011752 0.04137-0.00452 0.033752 0.014701 0.057748 0.039783 0.082146 0.069724 0.012677 0.015547 0.031776 0.042677 0.025532 0.06424-0.024528 0.084665-0.042307 0.075465-0.057476 0.12653-0.00809 0.027264 0.014717 0.069492-0.00828 0.16642-0.00951 0.040079-0.018429 0.081205-0.031858 0.1202-0.00652 0.018945-0.016929 0.035996-0.023583 0.054874-0.00793 0.022457-0.030721 0.025016-0.048012 0.010646-0.00788-0.0088-0.011858-0.025555-0.023642-0.026402-0.011343-8.189e-4 -0.010815 0.017469-0.019236 0.025079-0.024098 0.02176-0.074079-0.043555-0.077866-0.085902-0.00594-0.066445-0.010004-0.11758-0.02339-0.17253-0.00999-0.040996-0.027555-0.083335-0.051417-0.11892-0.012606-0.018799-0.023095-0.037598-0.038847-0.057677 0.026402-0.087067 0.089193-0.141 0.14644-0.19529 0.037201-0.035276 0.057878-0.056516 0.087972-0.017536z" fill="#a31b1f"/>
</g>
</svg>
