<?xml version="1.0" encoding="UTF-8" standalone="no"?>
<!-- Created with Inkscape (http://www.inkscape.org/) -->

<svg
   width="238.125mm"
   height="170.08928mm"
   viewBox="0 0 238.125 170.08928"
   version="1.1"
   id="svg1"
   xml:space="preserve"
   inkscape:version="1.4.2 (f4327f4, 2025-05-13)"
   sodipodi:docname="Flag of Lezhë.svg"
   xmlns:inkscape="http://www.inkscape.org/namespaces/inkscape"
   xmlns:sodipodi="http://sodipodi.sourceforge.net/DTD/sodipodi-0.dtd"
   xmlns="http://www.w3.org/2000/svg"
   xmlns:svg="http://www.w3.org/2000/svg"><sodipodi:namedview
     id="namedview1"
     pagecolor="#ffffff"
     bordercolor="#999999"
     borderopacity="1"
     inkscape:showpageshadow="2"
     inkscape:pageopacity="0"
     inkscape:pagecheckerboard="0"
     inkscape:deskcolor="#d1d1d1"
     inkscape:document-units="mm"
     inkscape:zoom="1.2677778"
     inkscape:cx="449.99998"
     inkscape:cy="321.42856"
     inkscape:window-width="1920"
     inkscape:window-height="1017"
     inkscape:window-x="-8"
     inkscape:window-y="-8"
     inkscape:window-maximized="1"
     inkscape:current-layer="layer1" /><defs
     id="defs1"><style
       type="text/css"
       id="style1">
   <![CDATA[
    .fil5 {fill:#0B0E13}
    .fil3 {fill:#1F2124}
    .fil2 {fill:#8F8880}
    .fil7 {fill:#C31D11}
    .fil0 {fill:#C3BAB1}
    .fil6 {fill:#F0E100}
    .fil4 {fill:#0B0E13;fill-rule:nonzero}
    .fil8 {fill:#7D750C;fill-rule:nonzero}
    .fil1 {fill:#8F8880;fill-rule:nonzero}
   ]]>
  </style></defs><g
     inkscape:label="Capa 1"
     inkscape:groupmode="layer"
     id="layer1"><path
       style="fill:#5383d7;fill-opacity:1"
       d="M 0,85.04464 V 0 H 119.0625 238.125 v 85.04464 85.04464 H 119.0625 0 Z"
       id="path14" /><g
       style="clip-rule:evenodd;fill-rule:evenodd;image-rendering:optimizeQuality;shape-rendering:geometricPrecision;text-rendering:geometricPrecision"
       id="g1"
       transform="matrix(0.01764883,0,0,0.01764883,72.45194,41.619693)"><g
         id="Layer_x0020_1"
         inkscape:label="Layer 1"
         inkscape:groupmode="layer">
  <metadata
   id="CorelCorpID_0Corel-Layer" />
  <g
   id="_620246624">
   <g
   id="g4">
    <g
   id="g2">
     <path
   class="fil0"
   d="M 983,756 H 2641 4300 V 0 h -805 v 282 78 12 H 3006 V 360 282 0 h -365 -364 v 282 78 12 H 1787 V 360 282 0 H 983 Z M 3783,625 h 228 V 331 c 0,-62 -51,-114 -114,-114 v 0 c -62,0 -114,52 -114,114 z m -2512,0 h 228 V 331 c 0,-62 -51,-114 -114,-114 v 0 c -63,0 -114,52 -114,114 z m 1256,0 h 228 V 331 c 0,-62 -51,-114 -114,-114 v 0 c -63,0 -114,52 -114,114 z"
   id="path1"
   style="fill:#c8c8c8;fill-opacity:1" />
     <path
   class="fil1"
   d="m 4300,70 h -40 v 66 h 40 v 13 h -110 v 66 h 110 v 12 h -40 v 66 h 40 v 13 h -110 v 66 h 110 v 12 h -40 v 66 h 40 v 13 h -110 v 66 h 110 v 13 h -40 v 66 h 40 v 12 h -110 v 66 h 110 v 13 h -40 v 57 h -13 v -57 h -128 v 57 h -12 v -57 h -128 v 57 h -12 v -57 h -128 v 57 h -13 v -57 h -127 v 57 h -13 v -57 h -127 v 57 h -13 v -57 h -127 v 57 h -13 v -57 h -128 v 57 h -12 v -57 h -128 v 57 h -13 v -57 h -127 v 57 h -13 v -57 h -127 v 57 h -13 v -57 h -127 v 57 h -13 v -57 h -128 v 57 h -12 v -57 h -128 v 57 h -13 v -57 h -127 v 57 h -13 v -57 h -127 v 57 h -13 v -57 h -127 v 57 h -13 v -57 h -128 v 57 h -12 v -57 h -128 v 57 h -12 v -57 h -128 v 57 h -13 v -57 h -127 v 57 h -13 v -57 h -127 v 57 h -13 v -57 h -128 v 57 h -12 v -57 h -128 v 57 h -12 v -57 h -40 v -13 h 110 V 620 H 983 v -12 h 40 v -66 h -40 v -13 h 110 V 463 H 983 v -13 h 40 v -66 h -40 v -12 h 110 V 306 H 983 v -13 h 40 v -66 h -40 v -12 h 110 V 149 H 983 v -13 h 40 V 70 H 983 V 57 h 110 V 0 h 12 v 57 h 128 V 0 h 13 v 57 h 127 V 0 h 13 v 57 h 127 V 0 h 13 v 57 h 127 V 0 h 13 v 57 h 121 v 13 h -51 v 66 h 51 v 13 h -121 v 66 h 121 v 12 h -51 v 66 h 51 v 13 h -121 v 66 h 121 7 12 128 13 127 13 127 13 50 77 v -66 h -77 v -13 h 7 v -66 h -7 v -12 h 77 v -66 h -77 v -13 h 7 V 70 h -7 V 57 h 77 V 0 h 13 v 57 h 128 V 0 h 12 v 57 h 128 V 0 h 12 v 57 h 128 V 0 h 13 v 57 h 127 V 0 h 13 v 57 h 78 v 13 h -8 v 66 h 8 v 13 h -78 v 66 h 78 v 12 h -8 v 66 h 8 v 13 h -78 v 66 h 78 49 13 128 12 128 12 128 13 6 121 v -66 h -121 v -13 h 51 v -66 h -51 v -12 h 121 v -66 h -121 v -13 h 51 V 70 h -51 V 57 h 121 V 0 h 13 v 57 h 127 V 0 h 13 v 57 h 127 V 0 h 13 v 57 h 128 V 0 h 12 v 57 h 128 V 0 h 13 v 57 h 110 z m -53,0 h -128 v 66 h 128 z m -140,0 h -128 v 66 h 128 z m -140,0 h -128 v 66 h 128 z m -141,0 h -127 v 66 h 127 z m -140,0 h -127 v 66 h 127 z m -701,0 h -127 v 66 h 127 z m -140,0 h -127 v 66 h 127 z m -140,0 h -128 v 66 h 128 z m -140,0 h -128 v 66 h 128 z m -141,0 h -127 v 66 h 127 z m -700,0 h -128 v 66 h 128 z m -141,0 h -127 v 66 h 127 z m -140,0 h -127 v 66 h 127 z m -140,0 h -128 v 66 h 128 z m -140,0 h -128 v 66 h 128 z m -58,550 v 66 h 128 v -66 z m 0,-157 v 66 h 128 v -66 z m 0,-157 v 66 h 128 v -66 z m 0,-157 v 66 h 128 v -66 z m 3072,537 v -66 h -128 v 66 z m 0,-157 v -66 h -128 v 66 z m 0,-157 v -66 h -128 v 66 z m 0,-157 v -66 h -128 v 66 z M 1035,542 v 66 h 128 v -66 z m 0,-158 v 66 h 128 v -66 z m 0,-157 v 66 h 128 v -66 z m 3212,381 v -66 h -128 v 66 z m 0,-158 v -66 h -128 v 66 z m 0,-157 v -66 h -128 v 66 z m -140,315 v -66 h -96 v -13 h 26 v -66 h -26 v -13 h 96 v -66 h -96 v -12 h 26 v -66 h -28 c -1,-4 -3,-9 -4,-13 h 102 v -66 h -128 v 25 c -4,-4 -8,-8 -12,-11 v -14 h -23 c -14,-6 -30,-10 -47,-10 v 0 c -16,0 -32,4 -46,10 h -12 v 6 c -4,3 -9,6 -13,9 v -15 h -127 v 66 h 91 c -1,4 -3,9 -4,13 h -17 v 66 h 14 v 12 h -84 v 66 h 84 v 13 h -14 v 66 h 14 v 13 h -84 v 66 h 84 v 12 h -14 v 66 h 127 v -61 h 13 v 61 h 128 v -66 h -26 v -12 z m -70,-393 v -66 h -128 v 66 z m -141,0 v -66 h -127 v 66 z m -140,471 v -66 h -127 v 66 z m 0,-157 v -66 h -127 v 66 z m 0,-157 v -66 h -127 v 66 z m 0,-157 v -66 h -127 v 66 z m -70,393 v -66 h -127 v 66 z m 0,-158 v -66 h -127 v 66 z m 0,-157 v -66 h -127 v 66 z m -70,393 v -66 h -127 v 66 z m 0,-157 v -66 h -127 v 66 z m -70,79 v -66 h -127 v 66 z m 0,-158 v -66 h -127 v 66 z m -70,236 v -66 h -128 v 66 z m 0,-157 v -66 h -128 v 66 z m -70,79 v -66 h -128 v 66 z m 0,-158 v -66 h -128 v 66 z m -70,236 v -66 h -128 v 66 z m 0,-157 v -66 h -128 v 66 z m -70,79 v -66 h -128 v 66 z m 0,-158 v -66 h -128 v 66 z m -70,236 v -66 h -128 v 66 z m 0,-157 v -66 h -128 v 66 z m -71,79 v -66 h -127 v 66 z m 0,-158 v -66 h -127 v 66 z m -70,236 v -66 h -127 v 66 z m 0,-157 v -66 h -127 v 66 z m -70,79 v -66 h -127 v 66 z m 0,-158 v -66 h -127 v 66 z m 0,-157 v -66 h -127 v 66 z m -70,393 v -66 h -127 v 66 z m 0,-157 v -66 h -127 v 66 z m 0,-157 v -66 h -127 v 66 z m 0,-157 v -66 h -127 v 66 z m -70,393 v -66 h -90 v -13 h 20 v -66 h -20 v -13 h 90 v -66 h -90 v -12 h 20 v -66 h -23 c -1,-4 -2,-9 -3,-13 h 96 v -66 h -127 v 20 c -4,-4 -9,-7 -13,-10 v -10 h -17 c -14,-6 -30,-10 -47,-10 v 0 c -16,0 -32,4 -46,10 h -18 v 10 c -4,3 -8,6 -12,10 v -20 h -128 v 66 h 97 c -2,4 -3,9 -4,13 h -23 v 66 h 20 v 12 h -90 v 66 h 90 v 13 h -20 v 66 h 20 v 13 h -90 v 66 h 90 v 12 h -20 v 66 h 128 v -61 h 12 v 61 h 128 v -66 h -20 v -12 z m -70,-393 v -66 h -128 v 66 z m -140,0 v -66 h -128 v 66 z m -140,471 v -66 h -128 v 66 z m 0,-157 v -66 h -128 v 66 z m 0,-157 v -66 h -128 v 66 z m 0,-157 v -66 h -128 v 66 z m -71,393 v -66 h -127 v 66 z m 0,-158 v -66 h -127 v 66 z m 0,-157 v -66 h -127 v 66 z m -70,393 v -66 h -127 v 66 z m 0,-157 v -66 h -127 v 66 z m -70,79 v -66 h -127 v 66 z m 0,-158 v -66 h -127 v 66 z m -70,236 v -66 h -127 v 66 z m 0,-157 v -66 h -127 v 66 z m -70,79 v -66 h -127 v 66 z m 0,-158 v -66 h -127 v 66 z m -70,236 v -66 h -127 v 66 z m 0,-157 v -66 h -127 v 66 z m -70,79 v -66 h -128 v 66 z m 0,-158 v -66 h -128 v 66 z m -70,236 v -66 h -128 v 66 z m 0,-157 v -66 h -128 v 66 z m -70,79 v -66 h -128 v 66 z m 0,-158 v -66 h -128 v 66 z m -70,236 v -66 h -128 v 66 z m 0,-157 v -66 h -128 v 66 z m -70,79 v -66 h -128 v 66 z m 0,-158 v -66 h -128 v 66 z m 0,-157 v -66 h -128 v 66 z m -71,393 v -66 h -127 v 66 z m 0,-157 v -66 h -127 v 66 z m 0,-157 v -66 h -127 v 66 z m 0,-157 v -66 h -127 v 66 z m -70,393 v -66 h -84 v -13 h 14 v -66 h -14 v -13 h 84 v -66 h -84 v -12 h 14 v -66 h -17 c -1,-4 -2,-9 -4,-13 h 91 v -66 h -127 v 15 c -4,-3 -8,-6 -13,-9 v -6 h -11 c -15,-6 -30,-10 -47,-10 v 0 c -17,0 -32,4 -47,10 h -22 v 14 c -5,3 -9,7 -13,11 v -25 h -128 v 66 h 103 c -2,4 -3,9 -4,13 h -28 v 66 h 25 v 12 h -96 v 66 h 96 v 13 h -25 v 66 h 25 v 13 h -96 v 66 h 96 v 12 h -25 v 66 h 127 v -61 h 13 v 61 h 127 v -66 h -14 v -12 z m -70,-393 v -66 h -127 v 66 z m -140,0 v -66 h -127 v 66 z"
   id="path2" />
    </g>
    <path
   class="fil2"
   d="M 2515,638 V 331 c 0,-69 56,-126 126,-126 70,0 127,57 127,126 v 307 z m 12,-13 h 228 V 331 c 0,-62 -51,-114 -114,-114 v 0 c -63,0 -114,52 -114,114 z m 1256,0 h 228 V 331 c 0,-62 -51,-114 -114,-114 v 0 c -62,0 -114,52 -114,114 z m -2512,0 h 228 V 331 c 0,-62 -51,-114 -114,-114 v 0 c -63,0 -114,52 -114,114 z m 2500,13 V 331 c 0,-69 57,-126 126,-126 70,0 127,57 127,126 v 307 z m -2513,0 V 331 c 0,-69 57,-126 127,-126 70,0 127,57 127,126 v 307 z"
   id="path3" />
    <path
   class="fil3"
   d="m 3396,96 v 276 h 99 V 0 Z m -1219,0 v 276 h 100 V 0 Z m -291,0 v 276 h -99 V 0 Z m 1219,0 v 276 h -99 V 0 Z"
   id="path4" />
   </g>
   <path
   class="fil0"
   d="m 1881,4185 c -140,0 -217,0 -357,0 -142,-82 -339,-212 -489,-367 -217,239 -431,480 -769,636 98,-110 195,-223 267,-374 -123,83 -269,136 -441,158 132,-89 254,-188 370,-295 -156,-12 -311,-43 -462,-178 107,24 212,38 312,37 -105,-49 -205,-121 -296,-230 101,34 202,49 303,50 -96,-100 -190,-202 -275,-326 64,14 129,37 198,73 -153,-285 -112,-325 -122,-676 41,22 81,55 122,101 -17,-110 -40,-218 -66,-324 41,45 81,102 118,178 11,-105 12,-216 4,-333 35,35 63,81 87,132 15,-113 15,-228 0,-347 42,25 79,63 115,105 -30,-215 -127,-369 -157,-556 46,24 89,64 132,109 -60,-150 -129,-299 -209,-447 48,28 95,63 140,110 -36,-105 -85,-195 -140,-279 90,43 175,104 258,174 -95,-146 -208,-259 -324,-365 33,-5 65,-2 98,9 -44,-86 -105,-145 -167,-201 200,0 500,204 581,508 147,553 33,1194 98,1744 73,615 654,939 1071,1174 z"
   id="path5"
   style="fill:#ffffff;fill-opacity:1" />
   <path
   class="fil0"
   d="m 3401,4185 c 140,0 217,0 357,0 143,-82 340,-212 490,-367 217,239 431,480 768,636 -98,-110 -194,-223 -267,-374 123,83 270,136 441,158 -132,-89 -254,-188 -369,-295 155,-12 310,-43 461,-178 -107,24 -211,38 -311,37 105,-49 205,-121 296,-230 -101,34 -202,49 -303,50 95,-100 189,-202 275,-326 -64,14 -130,37 -199,73 153,-285 112,-325 122,-676 -40,22 -81,55 -122,101 17,-110 40,-218 66,-324 -41,45 -81,102 -118,178 -10,-105 -12,-216 -4,-333 -35,35 -63,81 -87,132 -15,-113 -15,-228 0,-347 -42,25 -79,63 -115,105 30,-215 128,-369 157,-556 -45,24 -89,64 -132,109 60,-150 130,-299 209,-447 -48,28 -94,63 -139,110 36,-105 84,-195 139,-279 -90,43 -175,104 -258,174 95,-146 208,-259 324,-365 -32,-5 -65,-2 -98,9 45,-86 105,-145 168,-201 -201,0 -501,204 -581,508 -147,553 -34,1194 -99,1744 -72,615 -653,939 -1071,1174 z"
   id="path6"
   style="fill:#ffffff;fill-opacity:1" />
   <path
   class="fil0"
   d="m 670,4734 1742,-45 229,147 230,-147 1741,45 V 4146 H 3284 c -209,-1 -503,150 -643,274 -140,-124 -434,-275 -643,-274 H 670 Z"
   id="path7"
   style="fill:#ffffff;fill-opacity:1" />
   <path
   class="fil4"
   d="m 670,4255 c 233,0 455,0 677,-1 228,0 457,-1 698,-1 145,0 356,104 498,273 -133,-94 -341,-218 -498,-218 0,-1 -639,1 -698,1 -222,1 -444,1 -677,1 z m 3942,0 c -233,0 -455,0 -676,-1 -229,0 -458,-1 -699,-1 -144,0 -356,104 -497,273 132,-94 340,-218 497,-218 0,-1 639,1 699,1 221,1 443,1 676,1 z m 0,288 c -233,0 -455,-1 -676,-1 -229,-1 -432,-1 -674,-1 -76,0 -164,25 -257,83 82,-23 125,-28 257,-28 0,-1 614,1 674,1 221,0 443,1 676,1 z m 0,-143 c -233,0 -455,-1 -676,-1 -229,-1 -458,-1 -699,-1 -144,0 -356,104 -497,273 132,-94 340,-218 497,-218 0,-1 639,1 699,1 221,0 443,1 676,1 z M 670,4543 c 233,0 455,-1 677,-1 228,-1 432,-1 673,-1 76,0 164,25 258,83 -83,-23 -126,-28 -258,-28 0,-1 -614,1 -673,1 -222,0 -444,1 -677,1 z m 0,-143 c 233,0 455,-1 677,-1 228,-1 457,-1 698,-1 145,0 356,104 498,273 -133,-94 -341,-218 -498,-218 0,-1 -639,1 -698,1 -222,0 -444,1 -677,1 z"
   id="path8" />
   <polygon
   class="fil5"
   points="2439,4644 2641,4779 2843,4644 4811,4710 4811,4921 2985,4803 2903,4893 2641,4893 2380,4893 2297,4803 471,4921 471,4710 "
   id="polygon8" />
   <path
   class="fil6"
   d="m 2641,4411 c 543,-308 995,-828 1357,-1434 408,-680 580,-1356 551,-2224 -636,0 -1272,0 -1908,0 -636,0 -1272,0 -1907,0 -30,868 142,1544 550,2224 363,606 814,1126 1357,1434 z"
   id="path9" />
   <path
   class="fil7"
   d="m 4478,848 c -612,0 -1224,0 -1837,0 -612,0 -1225,0 -1837,0 -14,801 154,1432 537,2070 349,583 781,1086 1300,1389 519,-303 952,-806 1300,-1389 383,-638 551,-1269 537,-2070 z"
   id="path10" />
   <path
   class="fil6"
   d="m 2641,1036 h -999 v 311 h 766 c 0,204 0,407 0,611 h -45 c -177,0 -322,-190 -322,-421 v -65 h -399 v 175 c 0,501 453,717 766,713 0,81 0,162 0,243 -141,10 -234,65 -326,171 l -167,-219 -219,285 219,286 168,-221 c 65,106 185,190 325,200 0,81 0,211 0,293 -69,47 -151,121 -190,206 43,102 163,192 255,178 16,102 87,194 168,236 81,-42 153,-134 168,-236 92,14 212,-76 255,-178 -39,-85 -121,-159 -190,-206 0,-82 0,-212 0,-293 140,-10 260,-94 325,-200 l 169,221 218,-286 -218,-285 -168,219 c -91,-106 -185,-161 -326,-171 0,-81 0,-162 0,-243 313,4 766,-212 766,-713 v -175 h -399 v 65 c 0,231 -144,421 -321,421 h -46 c 0,-204 0,-407 0,-611 h 766 v -311 z"
   id="path11" />
   <path
   class="fil8"
   d="m 1915,2729 -86,111 86,112 85,-112 z m -114,99 104,-137 10,-12 9,12 104,137 10,12 -10,13 -104,137 -9,12 -10,-12 -104,-137 -10,-13 z m 365,15 c 27,38 62,69 100,92 47,28 99,44 147,47 l 76,6 h 13 v 17 100 293 63 10 l -7,5 -43,30 c -21,14 -45,33 -69,55 -14,13 -28,27 -41,42 63,66 108,59 183,48 l 11,-2 12,-2 3,16 4,27 c 12,86 20,138 86,191 66,-53 74,-105 87,-191 l 4,-27 2,-16 12,2 11,2 c 75,11 121,18 184,-48 -13,-15 -28,-29 -42,-42 -24,-22 -48,-41 -69,-55 l -42,-30 -8,-5 v -10 -63 -293 -100 -17 h 13 l 76,-6 c 49,-3 101,-19 148,-47 38,-23 72,-54 99,-92 -35,-37 -70,-64 -107,-83 -42,-20 -87,-30 -140,-34 l -76,-5 -13,-1 v -17 -100 -243 -107 -18 h 14 l 81,2 h 9 v 0 c 133,0 299,-45 431,-141 131,-94 230,-240 231,-443 v -6 0 -52 h -213 c -11,134 -60,254 -132,341 -74,90 -173,145 -281,145 h -126 -14 v -18 -105 -611 -105 -18 h 14 752 v -65 H 1736 v 65 h 752 14 v 18 105 611 105 18 h -14 -125 c -109,0 -208,-55 -282,-145 -72,-87 -120,-207 -131,-341 h -214 v 52 0 6 c 2,203 100,349 231,443 133,96 298,141 431,141 v 0 h 9 l 81,-2 h 14 v 18 107 243 100 17 l -13,1 -76,5 c -53,4 -98,14 -139,34 -38,19 -73,46 -108,83 z m 89,124 c -46,-28 -88,-66 -119,-115 l -8,-14 10,-11 c 41,-45 82,-78 126,-99 45,-22 92,-33 148,-37 l 63,-4 v -84 -243 -89 l -68,1 v 0 h -9 v 0 c -137,0 -307,-46 -444,-145 -138,-100 -243,-255 -245,-473 v 0 -6 -1 -69 -18 h 14 239 12 l 1,17 c 8,131 54,249 124,333 70,84 162,136 264,136 h 112 v -88 -611 -88 h -752 -14 v -17 -101 -17 h 14 1837 13 v 17 101 17 h -13 -753 v 88 611 88 h 113 c 101,0 194,-52 263,-136 70,-84 116,-202 124,-333 l 1,-17 h 13 239 13 v 18 69 1 6 0 c -2,218 -106,373 -245,473 -137,99 -307,145 -444,145 v 0 h -9 v 0 l -68,-1 v 89 243 84 l 64,4 c 55,4 103,15 147,37 44,21 85,54 126,99 l 10,11 -8,14 c -31,49 -73,87 -118,115 -50,30 -106,47 -157,50 l -64,5 v 83 293 52 l 36,25 c 21,15 46,34 71,57 20,18 39,38 56,59 l 11,13 -11,13 c -78,89 -129,82 -215,69 l -1,11 c -15,98 -23,157 -106,219 l -7,5 -7,-5 c -82,-62 -91,-121 -106,-219 l -1,-11 c -86,13 -136,20 -214,-69 l -11,-13 10,-13 c 17,-21 36,-41 56,-59 25,-23 50,-42 71,-57 l 36,-25 v -52 -293 -83 l -63,-5 c -52,-3 -107,-20 -157,-50 z m 1027,-127 86,112 85,-112 -85,-111 z m 76,150 -104,-137 -10,-13 10,-12 104,-137 10,-12 9,12 105,137 9,12 -9,13 -105,137 -9,12 z"
   id="path12" />
  </g>
 </g></g><path
       d="m 62.751685,137.57125 q 0.03505,1.17305 0.640288,1.94775 0.605243,0.77471 1.767254,1.13814 0.318359,0.0996 0.696427,0.14791 l -0.151843,0.4855 q -1.296396,-0.0734 -2.243515,-0.36965 -1.48037,-0.463 -2.42382,-1.55318 -0.935491,-1.0877 -1.086352,-2.67268 -1.828469,-1.02622 -2.559811,-2.90634 -0.723383,-1.87763 -0.0712,-3.96288 0.756724,-2.41953 2.880691,-3.51148 2.126455,-1.09991 4.625574,-0.3183 2.491161,0.77913 3.60401,2.89216 1.112849,2.11303 0.358613,4.5246 -0.657156,2.10117 -2.408033,3.25738 -1.750876,1.15621 -3.628278,0.90107 z m 1.876548,-10.97281 q -1.432616,-0.44806 -2.678081,0.79632 -1.043445,1.04544 -1.765321,3.35355 -0.866251,2.76972 -0.305486,4.41301 0.393232,1.14527 1.595038,1.52114 1.209765,0.37837 2.172539,-0.32533 1.389677,-1.00706 2.213611,-3.64148 0.811488,-2.59463 0.562073,-3.94831 -0.306044,-1.70342 -1.794373,-2.1689 z m 11.17969,10.92669 -3.896669,-0.87844 -0.705772,0.96929 q -0.348818,0.48556 -0.427677,0.83536 -0.104532,0.4637 0.220162,0.7677 0.190303,0.17968 1.037943,0.43915 l -0.06785,0.301 -3.668889,-0.82709 0.06785,-0.301 q 0.614028,0.0444 1.086235,-0.26803 0.474041,-0.32056 1.319613,-1.45494 l 5.929771,-7.91264 0.154565,0.0349 1.93871,9.94291 q 0.279693,1.4137 0.570578,1.82977 0.219739,0.31453 0.71494,0.46891 l -0.06786,0.301 -5.336565,-1.20305 0.06785,-0.30099 0.219646,0.0495 q 0.642665,0.14488 0.943332,0.0246 0.208312,-0.0898 0.26333,-0.33387 0.03301,-0.14643 0.01904,-0.312 2.36e-4,-0.0769 -0.106507,-0.66514 z m -0.140881,-0.66434 -0.786836,-4.1695 -2.548518,3.41759 z m 10.293145,0.62537 -0.476094,3.13292 q -0.137816,0.90689 -0.06697,1.16227 0.08034,0.24839 0.339357,0.43114 0.259014,0.18276 1.025753,0.29927 l -0.04636,0.30505 -5.721688,-0.8695 0.04636,-0.30504 q 0.774983,0.11777 1.068351,0.019 0.302865,-0.10581 0.445124,-0.32037 0.150504,-0.2133 0.28832,-1.1202 l 1.102532,-7.25516 q 0.137817,-0.9069 0.05747,-1.15529 -0.07085,-0.25537 -0.329859,-0.43813 -0.259015,-0.18275 -1.025754,-0.29927 l 0.04636,-0.30505 5.194039,0.78932 q 2.028149,0.3082 2.925425,0.73134 0.897275,0.42315 1.375615,1.27185 0.479593,0.84045 0.325489,1.85453 -0.187932,1.23667 -1.20112,1.90933 -0.64655,0.42471 -1.707708,0.52493 l 2.112639,4.19267 q 0.416142,0.81394 0.61118,1.02915 0.299186,0.30695 0.740631,0.39933 l -0.04636,0.30505 -3.520404,-0.53498 -2.828571,-5.64261 z m 0.833163,-5.48259 -0.744209,4.89723 0.469937,0.0714 q 1.145986,0.17415 1.746179,0.0545 0.601446,-0.1279 1.005672,-0.62318 0.413723,-0.50227 0.54778,-1.38443 0.194196,-1.2779 -0.31494,-1.97945 -0.500891,-0.7003 -1.828257,-0.90201 z m 14.26884,5.44821 3.55338,5.28975 q 0.75267,1.11665 1.32839,1.54087 0.41844,0.30241 0.90878,0.34302 l -0.0255,0.30749 -5.86737,-0.48584 0.0255,-0.3075 q 0.56095,-0.004 0.72917,-0.11534 0.17654,-0.1109 0.19168,-0.29373 0.0289,-0.34905 -0.65586,-1.37641 l -2.31556,-3.4635 -0.444439,0.31464 -0.254619,3.07496 q -0.07294,0.88094 0.0089,1.10528 0.08184,0.22433 0.351326,0.40563 0.270177,0.17299 0.893481,0.22461 l -0.02546,0.30749 -5.684531,-0.4707 0.02546,-0.30749 0.373983,0.031 q 0.490332,0.0406 0.803969,-0.10915 0.225713,-0.0985 0.36546,-0.37139 0.107934,-0.19188 0.178126,-1.03958 l 0.613838,-7.41316 q 0.07157,-0.86431 -0.002,-1.08796 -0.07353,-0.22365 -0.343015,-0.40495 -0.26049,-0.18892 -0.734201,-0.22815 l -0.373983,-0.031 0.02546,-0.3075 5.609738,0.46451 -0.0255,0.30749 q -0.573435,-0.0475 -0.886384,0.094 -0.225713,0.0985 -0.373083,0.36239 -0.116932,0.19951 -0.187813,1.05551 l -0.290403,3.50713 4.460373,-3.03632 q 0.93112,-0.63416 0.96621,-1.058 0.0262,-0.31581 -0.31607,-0.52824 -0.17526,-0.10655 -0.89623,-0.19136 l 0.0255,-0.30749 4.39637,0.36403 -0.0255,0.3075 q -0.5935,-0.007 -0.94869,0.13901 -0.3462,0.13868 -1.64076,1.01888 z m 6.68323,-3.8279 5.83648,0.10435 -0.006,0.3085 -0.29183,-0.005 q -0.65868,-0.0118 -0.91135,0.12549 -0.24419,0.12908 -0.3569,0.36894 -0.10438,0.24001 -0.12167,1.2072 l -0.099,5.53631 q -0.0271,1.51749 0.18919,2.01345 0.22466,0.4961 0.74413,0.83067 0.51947,0.33456 1.3199,0.34888 0.91717,0.0164 1.56648,-0.38068 0.65781,-0.40526 0.98761,-1.12499 0.33815,-0.71958 0.37035,-2.52055 l 0.0824,-4.61082 q 0.0136,-0.75874 -0.13903,-1.08675 -0.15261,-0.32801 -0.39217,-0.4574 -0.37177,-0.19847 -1.05548,-0.2107 l 0.006,-0.3085 3.91044,0.0699 -0.006,0.3085 -0.23346,-0.004 q -0.47526,-0.008 -0.79553,0.17761 -0.32026,0.18611 -0.46886,0.56711 -0.11316,0.26487 -0.12554,0.95691 l -0.0768,4.29399 q -0.0356,1.99274 -0.31824,2.87178 -0.27427,0.87918 -1.30476,1.60306 -1.03048,0.72388 -2.78976,0.69243 -1.46746,-0.0262 -2.26088,-0.43243 -1.08272,-0.55315 -1.51805,-1.39498 -0.43534,-0.84183 -0.41015,-2.25092 l 0.099,-5.53632 q 0.0174,-0.97553 -0.0868,-1.21092 -0.10407,-0.24374 -0.36834,-0.39025 -0.26428,-0.14652 -0.98148,-0.151 z m 27.51867,6.74067 -0.17543,3.9883 -10.02057,0.62991 -0.0194,-0.30794 0.37452,-0.0236 q 0.49104,-0.0309 0.77967,-0.22448 0.20907,-0.13012 0.3078,-0.42041 0.079,-0.2055 0.0256,-1.05442 l -0.46668,-7.42388 q -0.0544,-0.86556 -0.15956,-1.0762 -0.10516,-0.21064 -0.39807,-0.35098 -0.28511,-0.14919 -0.75951,-0.11937 l -0.37452,0.0236 -0.0194,-0.30795 6.01734,-0.37826 0.0194,0.30794 -0.49104,0.0309 q -0.49104,0.0309 -0.77967,0.22448 -0.20907,0.13012 -0.31612,0.42094 -0.079,0.2055 -0.0256,1.05442 l 0.45203,7.19084 q 0.0544,0.86557 0.16946,1.10065 0.11452,0.22676 0.41314,0.32496 0.21277,0.0618 1.01176,0.0116 l 0.94047,-0.0591 q 0.89885,-0.0565 1.47821,-0.41043 0.57935,-0.35394 0.96923,-1.0636 0.39821,-0.7102 0.70567,-2.06642 z m 4.72232,-7.25421 0.54337,4.57104 0.22358,-0.0266 q 1.06823,-0.12698 1.46879,-0.85482 0.40056,-0.72785 0.37752,-2.05197 l 0.31467,-0.0374 0.6989,5.87941 -0.31467,0.0374 q -0.21356,-0.94877 -0.60936,-1.52316 -0.38751,-0.57538 -0.83444,-0.7322 -0.44792,-0.1651 -1.25116,-0.0696 l 0.37602,3.16329 q 0.11025,0.92746 0.20938,1.12562 0.10742,0.19718 0.33847,0.30408 0.23106,0.1069 0.71135,0.0498 l 0.67075,-0.0797 q 1.57336,-0.18703 2.43075,-1.02796 0.86568,-0.84191 1.10254,-2.38169 l 0.30639,-0.0364 -0.0809,3.6291 -9.70516,1.15367 -0.0364,-0.3064 0.37264,-0.0443 q 0.48857,-0.0581 0.76601,-0.26741 0.20152,-0.14153 0.28398,-0.43686 0.0675,-0.20957 -0.0329,-1.05422 l -0.87805,-7.38652 q -0.0906,-0.76184 -0.15263,-0.93082 -0.11726,-0.27999 -0.35955,-0.41074 -0.34223,-0.19446 -0.88877,-0.12949 l -0.37264,0.0443 -0.0364,-0.30639 9.39877,-1.11725 0.39473,3.32063 -0.31467,0.0374 q -0.38485,-1.18874 -0.88673,-1.66654 -0.4936,-0.47879 -1.3181,-0.63272 -0.48144,-0.0939 -1.7567,0.0577 z m 16.75225,-3.22999 -4.69312,11.66554 2.11886,-0.37336 q 1.50291,-0.26483 2.06915,-0.55936 0.9252,-0.46787 1.49256,-1.38073 0.56592,-0.92108 0.6025,-2.29928 l 0.32029,-0.0564 0.2574,4.10378 -10.20009,1.79735 4.69845,-11.68342 -1.65074,0.29088 q -0.96088,0.16932 -1.25462,0.28035 -0.55607,0.20806 -1.00881,0.61808 -0.44598,0.40035 -0.69008,0.9853 -0.23589,0.58349 -0.28296,1.42161 l -0.30387,0.0536 -0.27065,-3.31396 z m 6.68301,4.51709 0.82063,3.40495 q 0.2032,0.84313 0.34318,1.03242 0.14808,0.18734 0.45469,0.285 0.31276,0.0876 0.77486,-0.0238 l 0.36482,-0.0879 0.0723,0.29996 -5.74788,1.38529 -0.0723,-0.29996 0.36482,-0.0879 q 0.47832,-0.11528 0.72914,-0.35587 0.18343,-0.1643 0.23049,-0.46729 0.0423,-0.21606 -0.15701,-1.04298 l -1.74285,-7.23147 q -0.2032,-0.84313 -0.34318,-1.03242 -0.13997,-0.18929 -0.45274,-0.2769 -0.30661,-0.0977 -0.76871,0.0137 l -0.36481,0.0879 -0.0723,-0.29996 5.74789,-1.3853 0.0723,0.29996 -0.36481,0.0879 q -0.47832,0.11528 -0.72914,0.35586 -0.18343,0.1643 -0.2386,0.46925 -0.0423,0.21606 0.15701,1.04298 l 0.75028,3.1131 3.88327,-0.9359 -0.75028,-3.1131 q -0.20321,-0.84314 -0.34318,-1.03243 -0.13998,-0.18929 -0.45274,-0.27689 -0.31472,-0.0957 -0.77682,0.0157 l -0.35671,0.086 -0.0723,-0.29996 5.73978,-1.38333 0.0723,0.29996 -0.35671,0.086 q -0.48642,0.11723 -0.72914,0.35586 -0.18343,0.1643 -0.2386,0.46925 -0.0423,0.21606 0.15701,1.04298 l 1.74285,7.23147 q 0.2032,0.84313 0.34318,1.03242 0.13998,0.18929 0.45469,0.285 0.31277,0.0876 0.77487,-0.0238 l 0.35671,-0.086 0.0723,0.29996 -5.73978,1.38334 -0.0723,-0.29996 0.35671,-0.086 q 0.48642,-0.11723 0.72913,-0.35586 0.18343,-0.1643 0.23861,-0.46925 0.0423,-0.21606 -0.15701,-1.04298 l -0.82063,-3.40495 z m 11.415,-8.4499 1.3644,4.39636 0.21504,-0.0667 q 1.02741,-0.31886 1.28914,-1.10734 0.26172,-0.78848 -0.001,-2.0864 l 0.30264,-0.0939 1.75494,5.65474 -0.30265,0.0939 q -0.38229,-0.89421 -0.87581,-1.38718 -0.48556,-0.49545 -0.95354,-0.5685 -0.47045,-0.081 -1.243,0.15875 l 0.94421,3.04241 q 0.27683,0.89201 0.41031,1.06888 0.14143,0.17439 0.38806,0.23756 0.24662,0.0632 0.70856,-0.0802 l 0.64511,-0.20021 q 1.51325,-0.46963 2.20368,-1.45228 0.69839,-0.98512 0.6517,-2.5423 l 0.29468,-0.0915 0.57949,3.58344 -9.3343,2.89689 -0.0915,-0.29469 0.3584,-0.11122 q 0.4699,-0.14584 0.70472,-0.40207 0.17247,-0.17577 0.19993,-0.48116 0.0283,-0.21834 -0.22383,-1.03071 l -2.2048,-7.10427 q -0.2274,-0.73273 -0.31913,-0.88762 -0.16615,-0.25404 -0.42815,-0.33862 -0.37186,-0.12908 -0.89751,0.0341 l -0.3584,0.11123 -0.0915,-0.29468 9.03963,-2.80543 0.99117,3.19373 -0.30265,0.0939 q -0.59432,-1.09909 -1.17462,-1.47781 -0.57235,-0.38119 -1.41108,-0.38284 -0.4905,-0.005 -1.71702,0.37571 z m 1.31933,-4.58312 q 0.44601,-0.13842 0.84506,0.0783 0.40701,0.21421 0.54295,0.65225 0.13595,0.43805 -0.0783,0.84506 -0.21421,0.40701 -0.65225,0.54296 -0.43805,0.13594 -0.84506,-0.0783 -0.40701,-0.21422 -0.54295,-0.65226 -0.13595,-0.43804 0.0783,-0.84506 0.21422,-0.40701 0.65226,-0.54295 z m -2.97869,0.92443 q 0.44601,-0.13842 0.84505,0.0783 0.40701,0.21421 0.54296,0.65226 0.13594,0.43804 -0.0783,0.84505 -0.21421,0.40701 -0.65226,0.54296 -0.43804,0.13594 -0.84505,-0.0783 -0.40701,-0.21422 -0.54296,-0.65226 -0.13594,-0.43804 0.0783,-0.84505 0.21421,-0.40701 0.65226,-0.54296 z"
       id="text1"
       style="font-weight:bold;font-size:17.0786px;line-height:1;font-family:'Times New Roman';-inkscape-font-specification:'Times New Roman,  Bold';text-align:center;letter-spacing:0.50208px;text-anchor:middle;fill:#ff7900;stroke:#d4b334;stroke-width:0.597626;stroke-linecap:square"
       transform="matrix(1.0800908,0,0,1.0500661,-11.42248,-5.7985164)"
       aria-label="QARKU LEZHË" /><path
       style="fill:none;fill-opacity:1;stroke:none;stroke-width:0.64022;stroke-linecap:square;stroke-opacity:1"
       d="m 31.470667,123.58086 c 43.771372,27.47611 120.169733,29.79522 177.464053,0"
       id="path13"
       sodipodi:nodetypes="cc" /></g></svg>
