<?xml version="1.0" encoding="UTF-8" standalone="no"?>
<!-- Created with Inkscape (http://www.inkscape.org/) -->

<svg
   width="238.125mm"
   height="170.08928mm"
   viewBox="0 0 238.125 170.08928"
   version="1.1"
   id="svg1"
   xml:space="preserve"
   inkscape:version="1.4.2 (f4327f4, 2025-05-13)"
   sodipodi:docname="Flag of Lezhë.svg"
   xmlns:inkscape="http://www.inkscape.org/namespaces/inkscape"
   xmlns:sodipodi="http://sodipodi.sourceforge.net/DTD/sodipodi-0.dtd"
   xmlns="http://www.w3.org/2000/svg"
   xmlns:svg="http://www.w3.org/2000/svg"><sodipodi:namedview
     id="namedview1"
     pagecolor="#ffffff"
     bordercolor="#999999"
     borderopacity="1"
     inkscape:showpageshadow="2"
     inkscape:pageopacity="0"
     inkscape:pagecheckerboard="0"
     inkscape:deskcolor="#d1d1d1"
     inkscape:document-units="mm"
     inkscape:zoom="1.2677778"
     inkscape:cx="449.99998"
     inkscape:cy="321.42856"
     inkscape:window-width="1920"
     inkscape:window-height="1017"
     inkscape:window-x="-8"
     inkscape:window-y="-8"
     inkscape:window-maximized="1"
     inkscape:current-layer="layer1" /><defs
     id="defs1"><style
       type="text/css"
       id="style1">
   <![CDATA[
    .fil5 {fill:#0B0E13}
    .fil3 {fill:#1F2124}
    .fil2 {fill:#8F8880}
    .fil7 {fill:#C31D11}
    .fil0 {fill:#C3BAB1}
    .fil6 {fill:#F0E100}
    .fil4 {fill:#0B0E13;fill-rule:nonzero}
    .fil8 {fill:#7D750C;fill-rule:nonzero}
    .fil1 {fill:#8F8880;fill-rule:nonzero}
   ]]>
  </style></defs><g
     inkscape:label="Capa 1"
     inkscape:groupmode="layer"
     id="layer1"><path
       style="fill:#5383d7;fill-opacity:1"
       d="M 0,85.04464 V 0 H 119.0625 238.125 v 85.04464 85.04464 H 119.0625 0 Z"
       id="path14" /><g
       style="clip-rule:evenodd;fill-rule:evenodd;image-rendering:optimizeQuality;shape-rendering:geometricPrecision;text-rendering:geometricPrecision"
       id="g1"
       transform="matrix(0.01764883,0,0,0.01764883,72.45194,41.619693)"><g
         id="Layer_x0020_1"
         inkscape:label="Layer 1"
         inkscape:groupmode="layer">
  <metadata
   id="CorelCorpID_0Corel-Layer" />
  <g
   id="_620246624">
   <g
   id="g4">
    <g
   id="g2">
     <path
   class="fil0"
   d="M 983,756 H 2641 4300 V 0 h -805 v 282 78 12 H 3006 V 360 282 0 h -365 -364 v 282 78 12 H 1787 V 360 282 0 H 983 Z M 3783,625 h 228 V 331 c 0,-62 -51,-114 -114,-114 v 0 c -62,0 -114,52 -114,114 z m -2512,0 h 228 V 331 c 0,-62 -51,-114 -114,-114 v 0 c -63,0 -114,52 -114,114 z m 1256,0 h 228 V 331 c 0,-62 -51,-114 -114,-114 v 0 c -63,0 -114,52 -114,114 z"
   id="path1"
   style="fill:#c8c8c8;fill-opacity:1" />
     <path
   class="fil1"
   d="m 4300,70 h -40 v 66 h 40 v 13 h -110 v 66 h 110 v 12 h -40 v 66 h 40 v 13 h -110 v 66 h 110 v 12 h -40 v 66 h 40 v 13 h -110 v 66 h 110 v 13 h -40 v 66 h 40 v 12 h -110 v 66 h 110 v 13 h -40 v 57 h -13 v -57 h -128 v 57 h -12 v -57 h -128 v 57 h -12 v -57 h -128 v 57 h -13 v -57 h -127 v 57 h -13 v -57 h -127 v 57 h -13 v -57 h -127 v 57 h -13 v -57 h -128 v 57 h -12 v -57 h -128 v 57 h -13 v -57 h -127 v 57 h -13 v -57 h -127 v 57 h -13 v -57 h -127 v 57 h -13 v -57 h -128 v 57 h -12 v -57 h -128 v 57 h -13 v -57 h -127 v 57 h -13 v -57 h -127 v 57 h -13 v -57 h -127 v 57 h -13 v -57 h -128 v 57 h -12 v -57 h -128 v 57 h -12 v -57 h -128 v 57 h -13 v -57 h -127 v 57 h -13 v -57 h -127 v 57 h -13 v -57 h -128 v 57 h -12 v -57 h -128 v 57 h -12 v -57 h -40 v -13 h 110 V 620 H 983 v -12 h 40 v -66 h -40 v -13 h 110 V 463 H 983 v -13 h 40 v -66 h -40 v -12 h 110 V 306 H 983 v -13 h 40 v -66 h -40 v -12 h 110 V 149 H 983 v -13 h 40 V 70 H 983 V 57 h 110 V 0 h 12 v 57 h 128 V 0 h 13 v 57 h 127 V 0 h 13 v 57 h 127 V 0 h 13 v 57 h 127 V 0 h 13 v 57 h 121 v 13 h -51 v 66 h 51 v 13 h -121 v 66 h 121 v 12 h -51 v 66 h 51 v 13 h -121 v 66 h 121 7 12 128 13 127 13 127 13 50 77 v -66 h -77 v -13 h 7 v -66 h -7 v -12 h 77 v -66 h -77 v -13 h 7 V 70 h -7 V 57 h 77 V 0 h 13 v 57 h 128 V 0 h 12 v 57 h 128 V 0 h 12 v 57 h 128 V 0 h 13 v 57 h 127 V 0 h 13 v 57 h 78 v 13 h -8 v 66 h 8 v 13 h -78 v 66 h 78 v 12 h -8 v 66 h 8 v 13 h -78 v 66 h 78 49 13 128 12 128 12 128 13 6 121 v -66 h -121 v -13 h 51 v -66 h -51 v -12 h 121 v -66 h -121 v -13 h 51 V 70 h -51 V 57 h 121 V 0 h 13 v 57 h 127 V 0 h 13 v 57 h 127 V 0 h 13 v 57 h 128 V 0 h 12 v 57 h 128 V 0 h 13 v 57 h 110 z m -53,0 h -128 v 66 h 128 z m -140,0 h -128 v 66 h 128 z m -140,0 h -128 v 66 h 128 z m -141,0 h -127 v 66 h 127 z m -140,0 h -127 v 66 h 127 z m -701,0 h -127 v 66 h 127 z m -140,0 h -127 v 66 h 127 z m -140,0 h -128 v 66 h 128 z m -140,0 h -128 v 66 h 128 z m -141,0 h -127 v 66 h 127 z m -700,0 h -128 v 66 h 128 z m -141,0 h -127 v 66 h 127 z m -140,0 h -127 v 66 h 127 z m -140,0 h -128 v 66 h 128 z m -140,0 h -128 v 66 h 128 z m -58,550 v 66 h 128 v -66 z m 0,-157 v 66 h 128 v -66 z m 0,-157 v 66 h 128 v -66 z m 0,-157 v 66 h 128 v -66 z m 3072,537 v -66 h -128 v 66 z m 0,-157 v -66 h -128 v 66 z m 0,-157 v -66 h -128 v 66 z m 0,-157 v -66 h -128 v 66 z M 1035,542 v 66 h 128 v -66 z m 0,-158 v 66 h 128 v -66 z m 0,-157 v 66 h 128 v -66 z m 3212,381 v -66 h -128 v 66 z m 0,-158 v -66 h -128 v 66 z m 0,-157 v -66 h -128 v 66 z m -140,315 v -66 h -96 v -13 h 26 v -66 h -26 v -13 h 96 v -66 h -96 v -12 h 26 v -66 h -28 c -1,-4 -3,-9 -4,-13 h 102 v -66 h -128 v 25 c -4,-4 -8,-8 -12,-11 v -14 h -23 c -14,-6 -30,-10 -47,-10 v 0 c -16,0 -32,4 -46,10 h -12 v 6 c -4,3 -9,6 -13,9 v -15 h -127 v 66 h 91 c -1,4 -3,9 -4,13 h -17 v 66 h 14 v 12 h -84 v 66 h 84 v 13 h -14 v 66 h 14 v 13 h -84 v 66 h 84 v 12 h -14 v 66 h 127 v -61 h 13 v 61 h 128 v -66 h -26 v -12 z m -70,-393 v -66 h -128 v 66 z m -141,0 v -66 h -127 v 66 z m -140,471 v -66 h -127 v 66 z m 0,-157 v -66 h -127 v 66 z m 0,-157 v -66 h -127 v 66 z m 0,-157 v -66 h -127 v 66 z m -70,393 v -66 h -127 v 66 z m 0,-158 v -66 h -127 v 66 z m 0,-157 v -66 h -127 v 66 z m -70,393 v -66 h -127 v 66 z m 0,-157 v -66 h -127 v 66 z m -70,79 v -66 h -127 v 66 z m 0,-158 v -66 h -127 v 66 z m -70,236 v -66 h -128 v 66 z m 0,-157 v -66 h -128 v 66 z m -70,79 v -66 h -128 v 66 z m 0,-158 v -66 h -128 v 66 z m -70,236 v -66 h -128 v 66 z m 0,-157 v -66 h -128 v 66 z m -70,79 v -66 h -128 v 66 z m 0,-158 v -66 h -128 v 66 z m -70,236 v -66 h -128 v 66 z m 0,-157 v -66 h -128 v 66 z m -71,79 v -66 h -127 v 66 z m 0,-158 v -66 h -127 v 66 z m -70,236 v -66 h -127 v 66 z m 0,-157 v -66 h -127 v 66 z m -70,79 v -66 h -127 v 66 z m 0,-158 v -66 h -127 v 66 z m 0,-157 v -66 h -127 v 66 z m -70,393 v -66 h -127 v 66 z m 0,-157 v -66 h -127 v 66 z m 0,-157 v -66 h -127 v 66 z m 0,-157 v -66 h -127 v 66 z m -70,393 v -66 h -90 v -13 h 20 v -66 h -20 v -13 h 90 v -66 h -90 v -12 h 20 v -66 h -23 c -1,-4 -2,-9 -3,-13 h 96 v -66 h -127 v 20 c -4,-4 -9,-7 -13,-10 v -10 h -17 c -14,-6 -30,-10 -47,-10 v 0 c -16,0 -32,4 -46,10 h -18 v 10 c -4,3 -8,6 -12,10 v -20 h -128 v 66 h 97 c -2,4 -3,9 -4,13 h -23 v 66 h 20 v 12 h -90 v 66 h 90 v 13 h -20 v 66 h 20 v 13 h -90 v 66 h 90 v 12 h -20 v 66 h 128 v -61 h 12 v 61 h 128 v -66 h -20 v -12 z m -70,-393 v -66 h -128 v 66 z m -140,0 v -66 h -128 v 66 z m -140,471 v -66 h -128 v 66 z m 0,-157 v -66 h -128 v 66 z m 0,-157 v -66 h -128 v 66 z m 0,-157 v -66 h -128 v 66 z m -71,393 v -66 h -127 v 66 z m 0,-158 v -66 h -127 v 66 z m 0,-157 v -66 h -127 v 66 z m -70,393 v -66 h -127 v 66 z m 0,-157 v -66 h -127 v 66 z m -70,79 v -66 h -127 v 66 z m 0,-158 v -66 h -127 v 66 z m -70,236 v -66 h -127 v 66 z m 0,-157 v -66 h -127 v 66 z m -70,79 v -66 h -127 v 66 z m 0,-158 v -66 h -127 v 66 z m -70,236 v -66 h -127 v 66 z m 0,-157 v -66 h -127 v 66 z m -70,79 v -66 h -128 v 66 z m 0,-158 v -66 h -128 v 66 z m -70,236 v -66 h -128 v 66 z m 0,-157 v -66 h -128 v 66 z m -70,79 v -66 h -128 v 66 z m 0,-158 v -66 h -128 v 66 z m -70,236 v -66 h -128 v 66 z m 0,-157 v -66 h -128 v 66 z m -70,79 v -66 h -128 v 66 z m 0,-158 v -66 h -128 v 66 z m 0,-157 v -66 h -128 v 66 z m -71,393 v -66 h -127 v 66 z m 0,-157 v -66 h -127 v 66 z m 0,-157 v -66 h -127 v 66 z m 0,-157 v -66 h -127 v 66 z m -70,393 v -66 h -84 v -13 h 14 v -66 h -14 v -13 h 84 v -66 h -84 v -12 h 14 v -66 h -17 c -1,-4 -2,-9 -4,-13 h 91 v -66 h -127 v 15 c -4,-3 -8,-6 -13,-9 v -6 h -11 c -15,-6 -30,-10 -47,-10 v 0 c -17,0 -32,4 -47,10 h -22 v 14 c -5,3 -9,7 -13,11 v -25 h -128 v 66 h 103 c -2,4 -3,9 -4,13 h -28 v 66 h 25 v 12 h -96 v 66 h 96 v 13 h -25 v 66 h 25 v 13 h -96 v 66 h 96 v 12 h -25 v 66 h 127 v -61 h 13 v 61 h 127 v -66 h -14 v -12 z m -70,-393 v -66 h -127 v 66 z m -140,0 v -66 h -127 v 66 z"
   id="path2" />
    </g>
    <path
   class="fil2"
   d="M 2515,638 V 331 c 0,-69 56,-126 126,-126 70,0 127,57 127,126 v 307 z m 12,-13 h 228 V 331 c 0,-62 -51,-114 -114,-114 v 0 c -63,0 -114,52 -114,114 z m 1256,0 h 228 V 331 c 0,-62 -51,-114 -114,-114 v 0 c -62,0 -114,52 -114,114 z m -2512,0 h 228 V 331 c 0,-62 -51,-114 -114,-114 v 0 c -63,0 -114,52 -114,114 z m 2500,13 V 331 c 0,-69 57,-126 126,-126 70,0 127,57 127,126 v 307 z m -2513,0 V 331 c 0,-69 57,-126 127,-126 70,0 127,57 127,126 v 307 z"
   id="path3" />
    <path
   class="fil3"
   d="m 3396,96 v 276 h 99 V 0 Z m -1219,0 v 276 h 100 V 0 Z m -291,0 v 276 h -99 V 0 Z m 1219,0 v 276 h -99 V 0 Z"
   id="path4" />
   </g>
   <path
   class="fil0"
   d="m 1881,4185 c -140,0 -217,0 -357,0 -142,-82 -339,-212 -489,-367 -217,239 -431,480 -769,636 98,-110 195,-223 267,-374 -123,83 -269,136 -441,158 132,-89 254,-188 370,-295 -156,-12 -311,-43 -462,-178 107,24 212,38 312,37 -105,-49 -205,-121 -296,-230 101,34 202,49 303,50 -96,-100 -190,-202 -275,-326 64,14 129,37 198,73 -153,-285 -112,-325 -122,-676 41,22 81,55 122,101 -17,-110 -40,-218 -66,-324 41,45 81,102 118,178 11,-105 12,-216 4,-333 35,35 63,81 87,132 15,-113 15,-228 0,-347 42,25 79,63 115,105 -30,-215 -127,-369 -157,-556 46,24 89,64 132,109 -60,-150 -129,-299 -209,-447 48,28 95,63 140,110 -36,-105 -85,-195 -140,-279 90,43 175,104 258,174 -95,-146 -208,-259 -324,-365 33,-5 65,-2 98,9 -44,-86 -105,-145 -167,-201 200,0 500,204 581,508 147,553 33,1194 98,1744 73,615 654,939 1071,1174 z"
   id="path5"
   style="fill:#ffffff;fill-opacity:1" />
   <path
   class="fil0"
   d="m 3401,4185 c 140,0 217,0 357,0 143,-82 340,-212 490,-367 217,239 431,480 768,636 -98,-110 -194,-223 -267,-374 123,83 270,136 441,158 -132,-89 -254,-188 -369,-295 155,-12 310,-43 461,-178 -107,24 -211,38 -311,37 105,-49 205,-121 296,-230 -101,34 -202,49 -303,50 95,-100 189,-202 275,-326 -64,14 -130,37 -199,73 153,-285 112,-325 122,-676 -40,22 -81,55 -122,101 17,-110 40,-218 66,-324 -41,45 -81,102 -118,178 -10,-105 -12,-216 -4,-333 -35,35 -63,81 -87,132 -15,-113 -15,-228 0,-347 -42,25 -79,63 -115,105 30,-215 128,-369 157,-556 -45,24 -89,64 -132,109 60,-150 130,-299 209,-447 -48,28 -94,63 -139,110 36,-105 84,-195 139,-279 -90,43 -175,104 -258,174 95,-146 208,-259 324,-365 -32,-5 -65,-2 -98,9 45,-86 105,-145 168,-201 -201,0 -501,204 -581,508 -147,553 -34,1194 -99,1744 -72,615 -653,939 -1071,1174 z"
   id="path6"
   style="fill:#ffffff;fill-opacity:1" />
   <path
   class="fil0"
   d="m 670,4734 1742,-45 229,147 230,-147 1741,45 V 4146 H 3284 c -209,-1 -503,150 -643,274 -140,-124 -434,-275 -643,-274 H 670 Z"
   id="path7"
   style="fill:#ffffff;fill-opacity:1" />
   <path
   class="fil4"
   d="m 670,4255 c 233,0 455,0 677,-1 228,0 457,-1 698,-1 145,0 356,104 498,273 -133,-94 -341,-218 -498,-218 0,-1 -639,1 -698,1 -222,1 -444,1 -677,1 z m 3942,0 c -233,0 -455,0 -676,-1 -229,0 -458,-1 -699,-1 -144,0 -356,104 -497,273 132,-94 340,-218 497,-218 0,-1 639,1 699,1 221,1 443,1 676,1 z m 0,288 c -233,0 -455,-1 -676,-1 -229,-1 -432,-1 -674,-1 -76,0 -164,25 -257,83 82,-23 125,-28 257,-28 0,-1 614,1 674,1 221,0 443,1 676,1 z m 0,-143 c -233,0 -455,-1 -676,-1 -229,-1 -458,-1 -699,-1 -144,0 -356,104 -497,273 132,-94 340,-218 497,-218 0,-1 639,1 699,1 221,0 443,1 676,1 z M 670,4543 c 233,0 455,-1 677,-1 228,-1 432,-1 673,-1 76,0 164,25 258,83 -83,-23 -126,-28 -258,-28 0,-1 -614,1 -673,1 -222,0 -444,1 -677,1 z m 0,-143 c 233,0 455,-1 677,-1 228,-1 457,-1 698,-1 145,0 356,104 498,273 -133,-94 -341,-218 -498,-218 0,-1 -639,1 -698,1 -222,0 -444,1 -677,1 z"
   id="path8" />
   <polygon
   class="fil5"
   points="2439,4644 2641,4779 2843,4644 4811,4710 4811,4921 2985,4803 2903,4893 2641,4893 2380,4893 2297,4803 471,4921 471,4710 "
   id="polygon8" />
   <path
   class="fil6"
   d="m 2641,4411 c 543,-308 995,-828 1357,-1434 408,-680 580,-1356 551,-2224 -636,0 -1272,0 -1908,0 -636,0 -1272,0 -1907,0 -30,868 142,1544 550,2224 363,606 814,1126 1357,1434 z"
   id="path9" />
   <path
   class="fil7"
   d="m 4478,848 c -612,0 -1224,0 -1837,0 -612,0 -1225,0 -1837,0 -14,801 154,1432 537,2070 349,583 781,1086 1300,1389 519,-303 952,-806 1300,-1389 383,-638 551,-1269 537,-2070 z"
   id="path10" />
   <path
   class="fil6"
   d="m 2641,1036 h -999 v 311 h 766 c 0,204 0,407 0,611 h -45 c -177,0 -322,-190 -322,-421 v -65 h -399 v 175 c 0,501 453,717 766,713 0,81 0,162 0,243 -141,10 -234,65 -326,171 l -167,-219 -219,285 219,286 168,-221 c 65,106 185,190 325,200 0,81 0,211 0,293 -69,47 -151,121 -190,206 43,102 163,192 255,178 16,102 87,194 168,236 81,-42 153,-134 168,-236 92,14 212,-76 255,-178 -39,-85 -121,-159 -190,-206 0,-82 0,-212 0,-293 140,-10 260,-94 325,-200 l 169,221 218,-286 -218,-285 -168,219 c -91,-106 -185,-161 -326,-171 0,-81 0,-162 0,-243 313,4 766,-212 766,-713 v -175 h -399 v 65 c 0,231 -144,421 -321,421 h -46 c 0,-204 0,-407 0,-611 h 766 v -311 z"
   id="path11" />
   <path
   class="fil8"
   d="m 1915,2729 -86,111 86,112 85,-112 z m -114,99 104,-137 10,-12 9,12 104,137 10,12 -10,13 -104,137 -9,12 -10,-12 -104,-137 -10,-13 z m 365,15 c 27,38 62,69 100,92 47,28 99,44 147,47 l 76,6 h 13 v 17 100 293 63 10 l -7,5 -43,30 c -21,14 -45,33 -69,55 -14,13 -28,27 -41,42 63,66 108,59 183,48 l 11,-2 12,-2 3,16 4,27 c 12,86 20,138 86,191 66,-53 74,-105 87,-191 l 4,-27 2,-16 12,2 11,2 c 75,11 121,18 184,-48 -13,-15 -28,-29 -42,-42 -24,-22 -48,-41 -69,-55 l -42,-30 -8,-5 v -10 -63 -293 -100 -17 h 13 l 76,-6 c 49,-3 101,-19 148,-47 38,-23 72,-54 99,-92 -35,-37 -70,-64 -107,-83 -42,-20 -87,-30 -140,-34 l -76,-5 -13,-1 v -17 -100 -243 -107 -18 h 14 l 81,2 h 9 v 0 c 133,0 299,-45 431,-141 131,-94 230,-240 231,-443 v -6 0 -52 h -213 c -11,134 -60,254 -132,341 -74,90 -173,145 -281,145 h -126 -14 v -18 -105 -611 -105 -18 h 14 752 v -65 H 1736 v 65 h 752 14 v 18 105 611 105 18 h -14 -125 c -109,0 -208,-55 -282,-145 -72,-87 -120,-207 -131,-341 h -214 v 52 0 6 c 2,203 100,349 231,443 133,96 298,141 431,141 v 0 h 9 l 81,-2 h 14 v 18 107 243 100 17 l -13,1 -76,5 c -53,4 -98,14 -139,34 -38,19 -73,46 -108,83 z m 89,124 c -46,-28 -88,-66 -119,-115 l -8,-14 10,-11 c 41,-45 82,-78 126,-99 45,-22 92,-33 148,-37 l 63,-4 v -84 -243 -89 l -68,1 v 0 h -9 v 0 c -137,0 -307,-46 -444,-145 -138,-100 -243,-255 -245,-473 v 0 -6 -1 -69 -18 h 14 239 12 l 1,17 c 8,131 54,249 124,333 70,84 162,136 264,136 h 112 v -88 -611 -88 h -752 -14 v -17 -101 -17 h 14 1837 13 v 17 101 17 h -13 -753 v 88 611 88 h 113 c 101,0 194,-52 263,-136 70,-84 116,-202 124,-333 l 1,-17 h 13 239 13 v 18 69 1 6 0 c -2,218 -106,373 -245,473 -137,99 -307,145 -444,145 v 0 h -9 v 0 l -68,-1 v 89 243 84 l 64,4 c 55,4 103,15 147,37 44,21 85,54 126,99 l 10,11 -8,14 c -31,49 -73,87 -118,115 -50,30 -106,47 -157,50 l -64,5 v 83 293 52 l 36,25 c 21,15 46,34 71,57 20,18 39,38 56,59 l 11,13 -11,13 c -78,89 -129,82 -215,69 l -1,11 c -15,98 -23,157 -106,219 l -7,5 -7,-5 c -82,-62 -91,-121 -106,-219 l -1,-11 c -86,13 -136,20 -214,-69 l -11,-13 10,-13 c 17,-21 36,-41 56,-59 25,-23 50,-42 71,-57 l 36,-25 v -52 -293 -83 l -63,-5 c -52,-3 -107,-20 -157,-50 z m 1027,-127 86,112 85,-112 -85,-111 z m 76,150 -104,-137 -10,-13 10,-12 104,-137 10,-12 9,12 105,137 9,12 -9,13 -105,137 -9,12 z"
   id="path12" />
  </g>
 </g></g><path
       style="fill:none;fill-opacity:1;stroke:none;stroke-width:0.64022;stroke-linecap:square;stroke-opacity:1"
       d="m 31.470667,123.58086 c 43.771372,27.47611 120.169733,29.79522 177.464053,0"
       id="path13"
       sodipodi:nodetypes="cc" /></g></svg>
