<?xml version="1.0" encoding="utf-8"?>
<!-- Generator: Adobe Illustrator 12.0.0, SVG Export Plug-In . SVG Version: 6.00 Build 51448)  -->
<!DOCTYPE svg PUBLIC "-//W3C//DTD SVG 1.1//EN" "http://www.w3.org/Graphics/SVG/1.1/DTD/svg11.dtd" [
	<!ENTITY ns_svg "http://www.w3.org/2000/svg">
	<!ENTITY ns_xlink "http://www.w3.org/1999/xlink">
]>
<svg  version="1.1" id="Capa_1" xmlns="&ns_svg;" xmlns:xlink="&ns_xlink;" width="1566.469" height="896.389"
	 viewBox="0 0 1566.469 896.389" overflow="visible" enable-background="new 0 0 1566.469 896.389" xml:space="preserve">
<rect fill="#036847" width="522.149" height="896.389"/>
<rect x="522.149" fill="#FFFFFF" width="522.152" height="896.389"/>
<rect x="1044.319" fill="#CD1426" width="522.149" height="896.389"/>
<path fill-rule="evenodd" clip-rule="evenodd" fill="#DDB427" d="M830.075,624.874c0,1.221-1.222,0,0,2.46
	c-3.667-1.239-3.667-1.239-6.128-1.239c0-1.221,0-1.221,0-2.446C825.169,622.416,826.408,622.416,830.075,624.874"/>
<path fill-rule="evenodd" clip-rule="evenodd" fill="#DDB427" d="M760.095,628.559c0,1.233,1.235,0,1.235,2.457
	c2.446-1.224,2.446-1.224,6.131-1.224c0-2.458,0-2.458,0-3.697C764.984,624.874,763.776,624.874,760.095,628.559"/>
<g>
	<path fill-rule="evenodd" clip-rule="evenodd" fill="#DDB428" stroke="#DDB428" d="M784.647,604.001c2.46,0,3.694,0,4.906,0
		c0,6.14,1.238,12.27,2.458,18.415c-1.22,0-3.67,0-4.904,0C785.872,616.271,784.647,610.141,784.647,604.001"/>
	<path fill-rule="evenodd" clip-rule="evenodd" fill="#DDB428" stroke="#DDB428" d="M784.647,623.648
		c1.225,2.446,2.46,2.446,4.906,2.446c-6.144,4.921-18.413,11.063-19.635,19.668c-1.223-1.237-2.458-3.7-3.698-4.921
		C767.461,633.476,778.507,628.559,784.647,623.648"/>
	<path fill-rule="evenodd" clip-rule="evenodd" fill="#DDB428" stroke="#DDB428" d="M815.359,642.063c0,1.223-4.935,0-3.697,2.463
		c-7.365-1.24-6.141-6.127-14.729-4.907c0-2.46,2.46-2.46,3.668-3.696C806.759,634.699,807.98,638.398,815.359,642.063"/>
</g>
<g>
	<path fill-rule="evenodd" clip-rule="evenodd" fill="#DDB428" stroke="#DDB428" d="M798.155,624.874c1.237,1.221,2.445,0,4.906,0
		c-3.669,7.379-15.954,14.744-18.414,22.109c-1.237-1.221-1.237-3.698-2.441-4.921C783.41,634.699,792.012,629.792,798.155,624.874"
		/>
	<path fill-rule="evenodd" clip-rule="evenodd" fill="#DDB428" stroke="#DDB428" d="M828.854,634.699
		c0,2.459-3.685,1.223-3.685,3.699c-7.364-1.24-12.27-8.606-20.872-7.383c1.225-2.457,1.225-2.457,2.462-4.921
		C812.899,624.874,821.487,631.016,828.854,634.699"/>
	<path fill-rule="evenodd" clip-rule="evenodd" fill="#DDB428" stroke="#DDB428" d="M804.297,604.001c-1.235,0-3.696,0-4.904,0
		c0,6.14,0,12.27-2.46,18.415c1.223,0,3.668,0,4.893,0C804.297,616.271,804.297,610.141,804.297,604.001"/>
</g>
<g>
	<g>
		<path fill-rule="evenodd" clip-rule="evenodd" fill="#DDB428" stroke="#DDB428" d="M756.396,561.015
			c-2.444,0-3.669-2.454-3.669-4.899c0-2.464,2.445-3.682,3.669-2.464c1.238,0,3.698,0,2.46,2.464c0,1.221,3.683,1.221,3.683,0
			c0-3.682-2.444-6.144-4.904-6.144c-3.683-1.222-7.364,0-8.604,4.904c0,1.239,1.239,4.919,1.239,6.139
			c-1.239,9.816-1.239,13.512,2.457,22.116c0,1.22,0,0,0,1.22c-1.236,1.237-1.236,4.907,0,7.366
			c2.445,3.681,6.129,3.681,8.603,2.475c3.654,0,4.891-4.934,3.654-8.604c0-1.237-2.445,0-2.445,1.226
			c1.237,2.444,0,3.678-1.209,3.678c-2.474,1.226-4.934,1.226-6.157-1.233c0-2.444,1.224-4.907,3.684-6.127
			C755.173,579.447,752.728,568.383,756.396,561.015"/>
		<path fill-rule="evenodd" clip-rule="evenodd" fill="#DDB428" stroke="#DDB428" d="M827.617,559.795
			c1.236-1.234,2.458-4.919,2.458-7.361c-1.222-2.462-3.667-2.462-4.906-1.239c-1.222,0-2.443,1.239-2.443,3.682
			c1.222,1.239-2.475,2.46-3.697,0c-1.224-2.442,2.459-7.363,4.919-7.363c3.67-1.223,8.604,0,9.825,3.682
			c1.225,2.457,0,6.142-1.222,7.366c2.446,8.617,3.682,11.063,0,19.648c2.446,0,1.222,0,2.446,1.238
			c0,1.206,1.235,3.684,1.235,6.141c-1.235,4.903-6.157,4.903-8.615,4.903c-3.67,0-6.13-3.678-4.892-7.36
			c0-2.478,2.443-2.478,2.443,0c0,2.457,1.239,2.457,2.448,3.683c2.458,0,3.694-1.226,3.694-3.683c0-2.478-1.236-4.922-2.458-4.922
			C830.075,574.526,832.551,564.701,827.617,559.795"/>
		<path fill-rule="evenodd" clip-rule="evenodd" fill="#DDB428" stroke="#DDB428" d="M787.107,554.876
			c-7.364-1.225-14.742,0-22.123,1.239c0-1.239,0-2.464,0-4.921c7.381-1.223,14.759-1.223,22.123-1.223
			C787.107,551.194,787.107,553.651,787.107,554.876"/>
		<path fill-rule="evenodd" clip-rule="evenodd" fill="#DDB428" stroke="#DDB428" d="M767.461,590.491
			c13.507,8.593,47.898,2.463,54.026,0c0,0,4.921,0,3.682,2.463c-8.604,7.364-56.473,7.364-58.948,2.443
			C766.221,595.397,767.461,591.717,767.461,590.491"/>
		<path fill-rule="evenodd" clip-rule="evenodd" fill="#DDB428" stroke="#DDB428" d="M774.822,559.795
			c12.285,13.509,7.384,20.858,19.651,31.922c-1.24,0-2.462,0-2.462,0c-14.728-12.27-11.044-22.094-23.315-33.156
			C769.919,557.336,773.588,557.336,774.822,559.795"/>
		<path fill-rule="evenodd" clip-rule="evenodd" fill="#DDB428" stroke="#DDB428" d="M785.872,557.336
			c11.061,13.495,7.361,22.111,19.649,34.381c-1.225,0-2.46,1.237-4.921-1.226c-12.259-13.504-8.589-22.108-20.857-33.155
			C780.968,557.336,783.41,557.336,785.872,557.336"/>
		<path fill-rule="evenodd" clip-rule="evenodd" fill="#DDB428" stroke="#DDB428" d="M800.601,567.178
			c4.921,2.445,2.461,13.476,14.759,23.313c-1.237,0-2.46,1.226-3.697-1.233c-9.837-8.604-7.365-12.271-14.729-22.08
			C798.155,565.938,799.393,565.938,800.601,567.178"/>
		<path fill-rule="evenodd" clip-rule="evenodd" fill="#DDB428" stroke="#DDB428" d="M864.454,578.209v3.683
			c4.935,0,7.379-2.444,7.379-7.365c1.224-4.903-1.234-7.349-4.903-8.589c-3.684,0-7.366,1.24-8.602,6.13
			c-1.236,3.694,2.461,8.586,6.126,9.824V578.209c-1.208-1.222-2.446-2.447-2.446-4.905c0-3.681,2.446-3.681,3.683-3.681
			c2.463,1.208,3.698,2.444,2.463,4.903C868.153,576.987,866.93,578.209,864.454,578.209"/>
		<path fill-rule="evenodd" clip-rule="evenodd" fill="#DDB428" stroke="#DDB428" d="M887.8,547.513
			c-6.153-1.223-9.819-2.461-15.967,1.237c-4.903,2.444-2.444,7.365,1.224,8.586c6.161,2.459,9.826,1.225,17.206-3.685
			c-4.923-1.218-9.828-1.218-13.508-1.218c0,0-1.236,2.442,0,3.682c-1.236,0-2.475,0-2.475-1.239
			c-3.682-8.586,8.603-4.904,14.744-4.904C889.024,549.972,889.024,547.513,887.8,547.513"/>
		<path fill-rule="evenodd" clip-rule="evenodd" fill="#DDB428" stroke="#DDB428" d="M838.679,557.336
			c8.587-1.221,18.413-2.46,27.012-4.902v1.218c-8.599,3.685-18.425,4.909-27.012,6.144V557.336"/>
		<path fill-rule="evenodd" clip-rule="evenodd" fill="#DDB428" stroke="#DDB428" d="M841.139,583.131
			c4.904-2.478,9.826-4.922,14.729-4.922c0-1.222,0-2.447,0-2.447c-3.668-1.235-9.824,1.226-15.953,3.686L841.139,583.131"/>
		<path fill-rule="evenodd" clip-rule="evenodd" fill="#DDB428" stroke="#DDB428" d="M855.867,568.383
			c-8.602,0,4.922-7.368,12.286-9.822l-1.224-1.225c-11.063,2.459-29.486,12.287-11.063,14.731
			C857.092,572.067,855.867,568.383,855.867,568.383"/>
		<path fill-rule="evenodd" clip-rule="evenodd" fill="#DDB428" stroke="#DDB428" d="M709.747,588.035
			c4.904-3.685,9.811-4.904,15.966-4.904c4.906,1.22,4.906,7.36,2.432,9.823c-6.128,3.684-9.811,4.904-18.397,1.237
			c3.681-1.237,9.811-3.7,13.506-6.156c-1.236,1.223,1.222,2.456,1.222,3.682c0,0,1.238,0,1.238-1.226
			c1.223-9.838-9.823-2.456-15.966,0V588.035"/>
		<path fill-rule="evenodd" clip-rule="evenodd" fill="#DDB428" stroke="#DDB428" d="M722.017,545.052v3.698
			c4.919,0,7.366-1.237,7.366-7.378c1.236-4.908-1.238-7.367-4.908-8.592c-3.681,0-7.363,1.225-8.585,4.906
			c-1.238,4.918,2.444,9.826,6.127,11.063V545.052c-1.223-1.237-2.459-2.447-2.459-4.893c0-3.695,2.459-3.695,4.917-3.695
			c1.238,1.223,2.461,2.463,2.461,4.908C725.713,543.814,724.475,545.052,722.017,545.052"/>
		<path fill-rule="evenodd" clip-rule="evenodd" fill="#DDB428" stroke="#DDB428" d="M691.318,573.304v3.684
			c4.922,0,7.383-1.226,7.383-7.364c0-3.686-1.24-7.382-4.924-8.608c-3.682,0-7.365,1.227-8.6,6.163
			c-1.239,4.89,2.459,8.584,6.141,9.81V573.304c-1.223,0-2.445-2.473-2.445-4.921c0-2.445,2.445-3.682,3.668-2.445
			c2.461,0,3.699,1.24,2.461,3.686C695.002,572.067,693.777,573.304,691.318,573.304"/>
		<path fill-rule="evenodd" clip-rule="evenodd" fill="#DDB428" stroke="#DDB428" d="M665.527,536.464c6.142,0,9.823,0,15.968,3.695
			c3.683,4.893,0,9.813-3.683,9.813c-7.365,0-11.049-1.222-15.953-8.6c3.668,0,9.81,2.442,13.491,2.442c0,0,1.238,2.476,0,3.698
			c0,0,1.238,0,2.462-1.223c4.919-7.363-8.588-7.363-14.744-7.363C663.068,538.927,664.304,536.464,665.527,536.464"/>
		<path fill-rule="evenodd" clip-rule="evenodd" fill="#DDB428" stroke="#DDB428" d="M722.017,551.194
			c1.236,6.142-29.476-9.822-35.604-8.59c-1.234,1.21,0,2.447,0,2.447c11.049,1.238,39.301,18.427,39.301,7.382
			C725.713,551.194,722.017,552.434,722.017,551.194"/>
		<path fill-rule="evenodd" clip-rule="evenodd" fill="#DDB428" stroke="#DDB428" d="M745.349,558.561
			c-6.143-2.445-12.269-7.366-15.966-9.811c0,0,0,1.222-1.238,1.222c1.238,4.904,9.824,11.043,17.204,11.043
			C745.349,561.015,744.125,558.561,745.349,558.561"/>
		<path fill-rule="evenodd" clip-rule="evenodd" fill="#DDB428" stroke="#DDB428" d="M747.81,591.717
			c-4.907-3.682-9.841-3.682-14.729-2.459c0-1.223,0-2.444-1.239-2.444c4.921-3.683,11.062-3.683,15.969,1.222
			C747.81,588.035,747.81,590.491,747.81,591.717"/>
		<path fill-rule="evenodd" clip-rule="evenodd" fill="#DDB428" stroke="#DDB428" d="M699.922,561.015
			c1.206-3.679-6.145-7.363-15.983-9.82c0-1.223,1.239-1.223,1.239-2.444c11.063,2.444,27.014,11.045,15.95,14.729
			C701.128,564.701,699.922,561.015,699.922,561.015"/>
		<path fill-rule="evenodd" clip-rule="evenodd" fill="#DDB428" stroke="#DDB428" d="M729.383,581.892
			c12.283-8.588-18.43-12.269-27.015-12.269c1.236,0,0-1.24,0-2.445c12.283-1.24,45.441,3.653,29.473,17.173
			C731.841,584.351,730.619,580.653,729.383,581.892"/>
	</g>
	<path fill-rule="evenodd" clip-rule="evenodd" fill="#DDB428" stroke="#DDB428" d="M792.012,500.847c0,2.458,0,6.143,1.222,9.825
		c-1.222,0-3.68,0-4.892,0c-2.47,1.237-3.694,3.684-1.234,6.128l-1.235-1.208c-3.666,0-6.129-4.92-2.462-11.064
		C784.647,503.305,790.792,499.624,792.012,500.847"/>
	<path fill-rule="evenodd" clip-rule="evenodd" fill="#DDB428" stroke="#DDB428" d="M800.601,513.134
		c0,3.666,2.461,6.142,3.696,8.599c-2.472,1.224-4.904,7.366,0,8.59h-2.472c-3.67,1.223-8.592-2.46-7.352-8.59
		C794.474,519.275,798.155,514.355,800.601,513.134"/>
	<path fill-rule="evenodd" clip-rule="evenodd" fill="#DDB428" stroke="#DDB428" d="M860.789,505.769
		c-2.461,1.221-3.697,3.683-4.922,6.141c2.461,2.446,6.141,8.588,1.225,9.823h2.472c3.683,1.224,7.366-2.457,7.366-8.599
		C866.93,510.672,862.008,505.769,860.789,505.769"/>
</g>
<g>
	<path fill-rule="evenodd" clip-rule="evenodd" fill="#DDB427" stroke="#DDB427" d="M663.068,320.332c0-1.223,0-3.684-1.209-3.684
		c-4.934,2.461-13.521,9.824-13.521,14.744c0,11.049,4.918,25.778,11.061,28.25c2.461,1.207,11.049,0,13.508-1.234
		c0-1.237-1.237-3.697-1.237-4.918c-1.222,0-7.365,2.458-8.601,1.221c-7.352-1.221-7.352-14.73-6.143-20.871l6.143-12.272
		c-2.445,2.445-6.143,4.905-7.352,4.905C654.479,322.79,661.859,317.873,663.068,320.332"/>
	<path fill-rule="evenodd" clip-rule="evenodd" fill="#DDB427" stroke="#DDB427" d="M676.589,343.662c0,4.923-13.521,6.145-14.729,0
		C666.764,346.125,672.906,346.125,676.589,343.662"/>
	<path fill-rule="evenodd" clip-rule="evenodd" fill="#DDB427" stroke="#DDB427" d="M698.701,348.585
		c11.046-3.698,19.633,18.411,11.046,27.013C712.191,366.996,709.747,351.027,698.701,348.585"/>
	<path fill-rule="evenodd" clip-rule="evenodd" fill="#DDB427" stroke="#DDB427" d="M691.318,352.266
		c0-1.238,1.223-2.459,1.223-1.238c0,0,1.236,0,2.461,0c4.92,1.238,11.062,9.822,12.283,20.889
		c1.225,8.585-22.107,29.459-29.473,39.286c-3.697,8.601,3.683,18.424,1.238,17.19c-15.982-9.822-3.7-24.557-2.462-25.779
		c17.188-20.887,34.364-30.697,20.872-45.442c0,0-4.92-1.223-6.143-1.223C691.318,354.711,691.318,352.266,691.318,352.266"/>
	<path fill-rule="evenodd" clip-rule="evenodd" fill="#DDB427" stroke="#DDB427" d="M722.017,454.184
		c1.236,0,4.919-4.906,4.919-6.128c0,0,0,0,1.209-2.476c3.696-4.892,1.238-15.954-6.128-19.635c-7.365-6.143-22.095,0-33.144-2.461
		c-6.142-3.682-7.378-13.51-7.378-12.282c-3.683,14.743,9.823,15.966,11.046,15.966c19.65,2.458,33.172-4.902,33.172,14.732
		c0,0-1.238,1.234-1.238,2.458c-2.458,2.458-6.141,7.38-6.141,7.38C717.111,451.738,722.017,452.959,722.017,454.184"/>
	<path fill-rule="evenodd" clip-rule="evenodd" fill="#DDB427" stroke="#DDB427" d="M747.81,320.332
		c-3.685-3.684-11.048-4.904-15.969-6.127l-1.222,1.223c2.461,1.221,12.283,3.682,15.952,7.362
		C747.81,322.79,747.81,321.567,747.81,320.332"/>
	<path fill-rule="evenodd" clip-rule="evenodd" fill="#DDB427" stroke="#DDB427" d="M750.271,347.345c0-6.128,0-9.825,0-12.267
		c0,0-1.239,1.207-2.461,1.207c1.222,1.234,1.222,8.602,0,11.06H750.271"/>
	<path fill-rule="evenodd" clip-rule="evenodd" fill="#DDB427" stroke="#DDB427" d="M742.902,407.533
		c-2.458-17.205-1.236-18.428-1.236-25.807c0,0,2.459,0,3.683,0c-2.446,3.696,0,24.568,2.461,29.476
		C747.81,411.202,745.349,409.975,742.902,407.533"/>
	<path fill-rule="evenodd" clip-rule="evenodd" fill="#DDB427" stroke="#DDB427" d="M764.984,405.061
		c-3.654-17.193-2.445-17.193-1.208-24.56c0,0,1.208,0,3.685,0c-3.685,2.464-2.477,17.188,0,20.874
		C767.461,401.375,767.461,407.533,764.984,405.061"/>
	<path fill-rule="evenodd" clip-rule="evenodd" fill="#DDB427" stroke="#DDB427" d="M780.968,392.788
		c-1.225-12.287-1.225-11.062-1.225-15.97c0,0,0-1.221,2.463-1.221c-2.463,2.445,1.204,8.587,2.441,15.953
		C784.647,394.023,784.647,395.248,780.968,392.788"/>
	<path fill-rule="evenodd" clip-rule="evenodd" fill="#DDB427" stroke="#DDB427" d="M793.233,373.142
		c-2.441-4.91-2.441-4.91-3.68-6.146c0,0,0,0-1.212,1.235c2.45,0,2.45,2.446,3.67,6.128
		C792.012,375.598,792.012,375.598,793.233,373.142"/>
	<path fill-rule="evenodd" clip-rule="evenodd" fill="#DDB427" stroke="#DDB427" d="M739.206,373.142
		c2.46-6.146,3.696-9.829,4.919-13.499c0,0-1.223,0-2.459,0c0,1.207-3.697,9.813-3.697,12.273L739.206,373.142"/>
	<path fill-rule="evenodd" clip-rule="evenodd" fill="#DDB427" stroke="#DDB427" d="M729.383,371.916
		c2.458-4.92,3.697-8.604,6.14-12.273h-2.442c0,1.207-4.936,8.589-6.145,12.273H729.383"/>
	<path fill-rule="evenodd" clip-rule="evenodd" fill="#DDB427" stroke="#DDB427" d="M756.396,371.916
		c1.238-7.381,1.238-13.508,2.46-18.426l-2.46,2.458c0,2.46-2.444,12.283-2.444,17.193L756.396,371.916"/>
	<path fill-rule="evenodd" clip-rule="evenodd" fill="#DDB427" stroke="#DDB427" d="M766.221,338.756
		c-2.444-7.363-3.682-12.283-4.891-15.966c0,0-1.235,1.223-1.235,2.46c1.235,2.447,3.682,9.828,4.89,13.506
		C764.984,339.98,766.221,338.756,766.221,338.756"/>
	<path fill-rule="evenodd" clip-rule="evenodd" fill="#DDB427" stroke="#DDB427" d="M776.046,366.996
		c0-9.825-1.224-15.969-1.224-22.109l-1.234,2.458c0,3.683,0,14.745,0,19.651H776.046"/>
	<path fill-rule="evenodd" clip-rule="evenodd" fill="#DDB427" stroke="#DDB427" d="M820.251,317.873
		c8.603,3.694,13.521,6.14,18.428,9.824c0,0-1.235-2.447,0-3.685c-3.682-1.223-13.51-4.903-18.428-8.585V317.873"/>
	<path fill-rule="evenodd" clip-rule="evenodd" fill="#DDB427" stroke="#DDB427" d="M855.867,303.141
		c7.379-2.459,51.588,45.444,58.95,58.949c0,0,2.46-1.24,2.46-2.447c-2.46-7.377-49.124-60.184-58.949-58.961L855.867,303.141"/>
	<path fill-rule="evenodd" clip-rule="evenodd" fill="#DDB427" stroke="#DDB427" d="M843.584,344.887
		c3.682-1.225,22.106,14.756,25.805,20.887c0,0,3.668,0,2.444-1.238c-1.234-3.686-22.094-23.318-27.012-23.318L843.584,344.887"/>
	<path fill-rule="evenodd" clip-rule="evenodd" fill="#DDB427" stroke="#DDB427" d="M836.232,362.09
		c2.446,1.223,11.033,8.588,15.967,12.27c0,0,3.668,0,1.223-1.218c-1.223-2.464-12.283-14.733-15.979-14.733L836.232,362.09"/>
	<path fill-rule="evenodd" clip-rule="evenodd" fill="#DDB427" stroke="#DDB427" d="M826.408,376.818
		c1.209,1.225,2.445,2.463,7.364,7.366c0,0,3.671,0,2.46-1.22c-2.46-3.684-6.157-8.605-8.615-8.605L826.408,376.818"/>
	<path fill-rule="evenodd" clip-rule="evenodd" fill="#DDB427" stroke="#DDB427" d="M812.899,390.328
		c1.223,1.223,2.46,3.695,4.905,6.143c0,0,1.224-1.223,2.446-2.447c-2.446-2.473-3.687-3.695-6.129-6.156L812.899,390.328"/>
	<path fill-rule="evenodd" clip-rule="evenodd" fill="#DDB427" stroke="#DDB427" d="M793.233,400.151
		c2.477,1.224,9.828,12.286,12.288,15.966c0,0,1.237-1.232,1.237-2.444c-1.237-2.471-9.826-15.983-12.285-18.425L793.233,400.151"/>
	<path fill-rule="evenodd" clip-rule="evenodd" fill="#DDB427" stroke="#DDB427" d="M779.743,412.438
		c2.463,0,9.811,14.73,13.49,18.427c0,0,0-1.238,1.24-2.472c-2.462-3.684-9.826-15.955-12.268-18.418L779.743,412.438"/>
	<path fill-rule="evenodd" clip-rule="evenodd" fill="#DDB427" stroke="#DDB427" d="M807.98,433.311
		c2.444,1.236,9.824,13.506,11.048,19.648c0,0,0-1.221,1.223-2.46c-1.223-3.683-7.352-18.409-9.826-19.635
		C807.98,429.626,806.759,433.311,807.98,433.311"/>
	<path fill-rule="evenodd" clip-rule="evenodd" fill="#DDB427" stroke="#DDB427" d="M790.792,445.58
		c1.22,0,11.033,11.063,12.27,15.982c0,0,1.235,0,2.46-1.238c-1.225-3.682-9.812-15.966-12.288-17.189
		C790.792,441.9,788.342,443.135,790.792,445.58"/>
	<path fill-rule="evenodd" clip-rule="evenodd" fill="#DDB427" stroke="#DDB427" d="M811.662,477.516
		c1.237,0,6.143,6.145,7.366,9.823c0,0,1.223,0,2.459-1.222c-1.236-2.457-4.923-8.602-6.128-9.824
		C814.122,475.069,810.425,476.293,811.662,477.516"/>
	<path fill-rule="evenodd" clip-rule="evenodd" fill="#DDB427" stroke="#DDB427" d="M800.601,478.75c1.225,0,4.921,4.91,6.158,8.589
		c0,0,1.222,0,2.46-1.222c-1.238-1.224-6.157-8.602-7.394-8.602C800.601,476.293,800.601,477.516,800.601,478.75"/>
	<path fill-rule="evenodd" clip-rule="evenodd" fill="#DDB427" stroke="#DDB427" d="M774.822,451.738
		c2.462,2.445,12.285,11.033,17.189,17.174c0,0,0,1.237,1.222,0c-4.892-7.35-13.49-15.953-15.949-17.174
		C772.365,445.58,772.365,446.816,774.822,451.738"/>
	<path fill-rule="evenodd" clip-rule="evenodd" fill="#DDB427" stroke="#DDB427" d="M820.251,413.673
		c1.236,0,7.366,13.495,9.824,23.319c0,0,1.236-1.235,1.236-2.445c0-4.921-8.586-23.345-11.061-24.572
		C820.251,409.975,820.251,412.438,820.251,413.673"/>
	<path fill-rule="evenodd" clip-rule="evenodd" fill="#DDB427" stroke="#DDB427" d="M761.33,419.803
		c2.446,1.235,11.035,14.744,14.716,18.429c0,0,1.238,0,1.238-2.475c-1.238-2.446-11.063-14.719-13.508-15.954H761.33"/>
	<path fill-rule="evenodd" clip-rule="evenodd" fill="#DDB427" stroke="#DDB427" d="M825.169,338.756
		c4.906,3.686,8.604,6.131,8.604,6.131c0,1.238,1.225-1.225,1.225-2.445c-1.225,0-7.38-3.686-9.828-4.922V338.756"/>
	<path fill-rule="evenodd" clip-rule="evenodd" fill="#DDB427" stroke="#DDB427" d="M819.028,358.408
		c4.919,3.682,4.919,3.682,4.919,3.682c-1.222,0,1.222-1.24,1.222-2.447c-1.222-1.234-2.443-2.472-4.918-3.694L819.028,358.408"/>
	<path fill-rule="evenodd" clip-rule="evenodd" fill="#DDB427" stroke="#DDB427" d="M807.98,373.142
		c4.919,3.677,3.682,3.677,3.682,3.677s2.46-1.221,2.46-2.459c-1.223-1.218-2.46-1.218-4.903-3.682L807.98,373.142"/>
	<path fill-rule="evenodd" clip-rule="evenodd" fill="#DDB427" stroke="#DDB427" d="M776.046,331.393
		c-4.905-7.38-8.585-12.283-11.062-17.188c0,0,0,2.443-1.208,2.443c2.444,1.225,8.589,12.287,11.046,15.982L776.046,331.393"/>
	<path fill-rule="evenodd" clip-rule="evenodd" fill="#DDB427" stroke="#DDB427" d="M671.669,319.109
		c1.237,0,1.237-2.461,2.446-2.461c1.235,3.684,2.474,8.602-1.209,12.287C674.115,325.25,672.906,322.79,671.669,319.109"/>
	<path fill-rule="evenodd" clip-rule="evenodd" fill="#DDB427" stroke="#DDB427" d="M679.051,328.936
		c3.681,3.695-17.191,17.189-19.652,11.045c-1.236-1.225,2.461-12.283,6.129-18.413c1.236-3.694,0-6.14-1.224-6.14
		c-1.235,0,3.683-3.685,3.683-3.685c4.92-3.696,6.129,2.462,4.92,3.685c-6.143,6.14-3.682,7.362-3.682,7.362
		c2.444-1.223,0,6.146-3.697,9.841c-1.224,0-2.459,2.447-1.224,3.654C669.225,336.285,676.589,332.631,679.051,328.936"/>
	<path fill-rule="evenodd" clip-rule="evenodd" fill="#DDB427" stroke="#DDB427" d="M693.777,338.756
		c-2.459,1.225-3.682-1.236-3.682,0c0,2.461-2.459,3.686-7.364,2.461c-2.46,1.225-4.919,3.67-4.919,4.908
		c-4.906,8.586,1.238,20.871,17.189,17.188c-12.271-9.822-4.906-18.426,9.825-17.188c0-1.238,6.126-3.684,6.126-4.908
		c-1.206,0-7.349-1.236-9.825-1.236c-1.206,0,1.24,3.682,0,3.682c-8.587,0-22.077,4.923-14.716,15.98c0,0-9.823-1.234-6.141-11.058
		c0-2.46,1.224-4.923,3.667-4.923c1.239,0,6.157,0,6.157,0L693.777,338.756"/>
	<path fill-rule="evenodd" clip-rule="evenodd" fill="#DDB427" stroke="#DDB427" d="M687.637,335.078
		c25.791,3.678,23.316,1.207,27.015,1.207c2.46,0,7.365,0,11.062,4.932c1.223,2.445-9.823,9.811-17.203,9.811
		c6.142-4.902,12.284-7.365,11.048-9.811c-2.446,0-6.13-1.236-8.604,0c-2.443,1.225-7.349,0-11.031-1.236c-1.221,0-3.682,0-6.145,0
		c-1.236,0-4.904-1.225-7.365-1.225C685.178,338.756,686.412,338.756,687.637,335.078"/>
	<path fill-rule="evenodd" clip-rule="evenodd" fill="#DDB427" stroke="#DDB427" d="M701.128,305.615
		c0,2.432-1.206,12.258-3.667,13.494c-3.684,3.681-8.588,3.681-8.588,12.283c3.668,2.447,6.129,2.447,9.828,1.238v-2.475
		c-7.383,0-8.605,0-6.16-3.684c0-1.223,4.92-2.46,7.381-8.6c0,3.694-3.682,12.283-3.682,12.283c1.221,0,1.221,0,2.461,0
		c0,0,1.221-6.144,2.427-9.824c1.24,0,2.477-1.223,2.477-1.223C704.827,316.648,703.604,310.51,701.128,305.615"/>
	<path fill-rule="evenodd" clip-rule="evenodd" fill="#DDB427" stroke="#DDB427" d="M702.368,324.013c1.236,0,0-4.903,1.236-3.681
		c4.905,3.681,4.905,9.824-3.683,13.508C704.827,328.936,706.063,325.25,702.368,324.013"/>
	<path fill-rule="evenodd" clip-rule="evenodd" fill="#DDB427" stroke="#DDB427" d="M712.191,309.268
		c-1.238,0,1.236-1.221,1.236-2.443c0-4.906-6.143-9.824-6.143-8.588c0,4.904,0,9.811-1.222,15.969c0,0,2.446,0,2.446-1.239
		c2.443-3.698,1.237-4.919,1.237-8.589C709.747,304.377,712.191,305.615,712.191,309.268"/>
	<path fill-rule="evenodd" clip-rule="evenodd" fill="#DDB427" stroke="#DDB427" d="M728.145,308.047
		c0-1.223,1.238,3.696,2.475,2.463c8.587-11.051,2.461-17.193-2.475-18.418c-3.67,0,0,6.145-4.892,11.049c0,0,0,3.684,1.222,2.475
		c2.461-2.475,3.67-3.697,4.908-6.156C729.383,298.236,731.841,301.918,728.145,308.047"/>
	<path fill-rule="evenodd" clip-rule="evenodd" fill="#DDB427" stroke="#DDB427" d="M704.827,319.109c0,0,1.236,2.458,2.458,2.458
		c11.049-7.362,17.189-15.952,8.604-28.251C717.111,305.615,717.111,311.743,704.827,319.109"/>
	<path fill-rule="evenodd" clip-rule="evenodd" fill="#DDB427" stroke="#DDB427" d="M709.747,327.697c0-1.225-2.462,2.459,0,2.459
		c6.143,0,22.094-14.729,17.188-18.413l-1.223-1.233c-3.696,0-11.062,8.6-17.203,12.28c1.237,0,0,2.46,1.237,2.46
		c4.904-2.46,12.27-11.045,14.728-11.045C725.713,315.428,714.651,325.25,709.747,327.697"/>
	<path fill-rule="evenodd" clip-rule="evenodd" fill="#DDB427" stroke="#DDB427" d="M737.969,304.377
		c0,1.238-2.446-2.459-1.207-2.459c4.904,0,15.966,6.129,20.873,4.906c1.222,0,4.904,1.223,4.904,2.443
		c0,1.242-3.683,7.381-3.683,7.381c-4.904,0-15.954-6.139-23.334-7.381c1.239,0-1.206-2.443,1.239-2.443
		c4.904,1.223,18.411,7.381,19.635,6.142c0,0,1.238,0,1.238-1.223C753.952,309.268,742.902,304.377,737.969,304.377"/>
	<path fill-rule="evenodd" clip-rule="evenodd" fill="#DDB427" stroke="#DDB427" d="M777.284,303.141
		c0,1.236-2.462-1.223-1.238-2.459c0-2.445,7.364,0,7.364,0c1.237,0,1.237,0,2.462,0c0,1.236,4.92,8.586,3.682,9.828
		c-1.212,2.456-4.906,0-7.348,1.233c0,0-2.463-2.476-1.238-2.476c2.442,0,6.14,0,6.14-1.221c0,0-2.46-4.906-3.697-4.906
		C780.968,301.918,779.743,303.141,777.284,303.141"/>
	<path fill-rule="evenodd" clip-rule="evenodd" fill="#DDB427" stroke="#DDB427" d="M825.169,284.726
		c1.239,0-1.222-1.235-2.443-1.235c-2.475,0,1.222,7.367,1.222,7.367c0,1.234,1.222,1.234,2.461,2.459c0,0,7.364,2.459,8.589,2.459
		c1.235-1.221,0-4.918,1.235-8.586c0,1.221-4.921-1.236-4.921-1.236c1.239,3.681,1.239,6.139,0,6.139c0,0-3.694,0-3.694-1.234
		C826.408,288.41,825.169,287.189,825.169,284.726"/>
	<path fill-rule="evenodd" clip-rule="evenodd" fill="#DDB427" stroke="#DDB427" d="M805.521,281.045
		c1.237,0-3.696-1.234-4.921-1.234c-1.208,1.234,8.618,7.379,7.38,8.6c0,0,1.238,1.224,2.444,1.224c0,0,8.604,2.458,9.826,1.224
		c1.236-2.447-1.223-6.132-2.446-8.602c0,0-3.683-1.211-3.683,0c1.237,2.47,2.442,3.697,1.237,4.934c-1.237,0-3.697,0-4.935,0
		C809.219,284.726,805.521,282.256,805.521,281.045"/>
	<path fill-rule="evenodd" clip-rule="evenodd" fill="#DDB427" stroke="#DDB427" d="M784.647,316.648c0,1.225-1.237-2.443,0-2.443
		c2.46,0,4.906,0,6.145,0c0,0,1.22,0,1.22,1.223c1.222,2.445,4.921,11.045,2.462,13.508c-2.462,2.457-6.132,0-8.602,0
		c0,1.221-2.462-1.238,0-2.463c2.47,0,6.14,0,6.14-1.223c1.222-1.237-1.22-6.141-2.458-7.377
		C787.107,316.648,785.872,316.648,784.647,316.648"/>
	<path fill-rule="evenodd" clip-rule="evenodd" fill="#DDB427" stroke="#DDB427" d="M785.872,335.078
		c1.235,1.207,1.235-2.447,1.235-2.447c2.446-1.238,6.126,0,7.366,0c2.459,0,2.459,2.447,3.682,3.654c0,3.695,0,3.695-1.223,6.156
		c-2.459,3.684-3.699,6.144-6.141,7.365c0,0-1.238-3.682,0-4.92c2.441-2.445,2.441-4.906,2.441-4.906
		c1.24-3.695,0-4.902-1.222-4.902C789.554,335.078,788.342,335.078,785.872,335.078"/>
	<path fill-rule="evenodd" clip-rule="evenodd" fill="#DDB427" stroke="#DDB427" d="M758.856,295.775
		c2.474,0-3.684-2.459-3.684-2.459c0-1.225,11.048,1.238,9.812-1.225c-1.208-1.234,1.236-1.234,3.712,0
		c1.223,1.225,7.35,3.684,7.35,4.908c0,2.459-2.458,2.459-6.127,2.459c1.222,0-2.458,0-2.458-1.223c-1.24-1.236,6.127,0,4.904-1.236
		c0,0-3.669-2.445-4.904-2.445C764.984,294.555,760.095,294.555,758.856,295.775"/>
	<path fill-rule="evenodd" clip-rule="evenodd" fill="#DDB427" stroke="#DDB427" d="M733.08,312.966c0,1.239,0-1.223,1.236-2.456
		c2.445,0,23.318,8.6,20.856,12.28c0,0-1.221,3.683-3.682,6.146c-3.682,3.695-14.729-7.368-20.872-9.826
		c1.222,1.223-1.236-1.236,0-1.236c6.143,0,17.19,6.14,19.651,7.377c1.221,1.223,2.457-2.46,1.221-3.683
		C749.031,317.873,739.206,312.966,733.08,312.966"/>
	<path fill-rule="evenodd" clip-rule="evenodd" fill="#DDB427" stroke="#DDB427" d="M731.841,324.013c0,0-1.222-1.223,0-2.445
		c2.476,0,17.19,7.368,14.73,11.063c0,0-2.446,3.654-4.905,6.125c-2.46,0-4.904-6.125-8.586-8.6c1.236,0,0-4.906,1.236-2.459
		c1.206,2.459,4.89,4.934,6.128,6.143c1.222,0,2.458-2.447,2.458-2.447C739.206,328.936,736.762,326.473,731.841,324.013"/>
	<path fill-rule="evenodd" clip-rule="evenodd" fill="#DDB427" stroke="#DDB427" d="M730.619,333.84c0,0,0-1.209,1.222-1.209
		c2.476,0,7.365,7.35,4.921,8.586c0,0-2.445,3.67-4.921,3.67c-2.458,0-2.458-6.131-4.905-8.602c1.209,1.234,2.447-3.654,2.447-1.207
		c1.236,2.441,1.236,2.441,2.458,4.902c1.239,1.236,1.239,0,1.239-1.225C733.08,335.078,733.08,336.285,730.619,333.84"/>
	<path fill-rule="evenodd" clip-rule="evenodd" fill="#DDB427" stroke="#DDB427" d="M749.031,287.189c1.239,0,0-1.236,0-1.236
		c1.239-1.228,8.604-2.463,8.604,0c0,0,1.222,3.681,0,4.904c0,1.234-4.907,0-7.364,0c1.221,0-2.461-3.668,0-2.447
		c1.221,1.224,1.221,0,4.902,0c0,0,0,0-1.221-1.221C751.491,285.953,752.728,285.953,749.031,287.189"/>
	<path fill-rule="evenodd" clip-rule="evenodd" fill="#DDB427" stroke="#DDB427" d="M737.969,343.662
		c-1.207,1.225,1.237-2.445,2.476-2.445c1.222,2.445,2.458,9.811-4.922,15.954c-1.206,1.237-6.14,1.237-7.378-1.223
		c-1.209-2.458,1.238-6.142,4.936-9.823c0,0,3.682-3.684,2.442-1.238c-1.206,2.458-2.442,4.92-3.682,8.604
		c0,0,1.239,1.221,3.682-1.225C736.762,348.585,736.762,349.807,737.969,343.662"/>
	<path fill-rule="evenodd" clip-rule="evenodd" fill="#DDB427" stroke="#DDB427" d="M752.728,332.631
		c-1.236,0,2.445-4.934,2.445-3.695c1.224,4.904,2.462,18.409-1.221,24.555c-1.225,1.221-9.827,3.681-11.05,0
		c-1.236-2.463,0-8.604,1.223-14.734c0,1.225,3.685-2.471,2.446,0c-1.223,2.461-1.223,7.369,0,11.051c0,0,3.699,2.459,4.92-1.222
		C753.952,344.887,752.728,337.52,752.728,332.631"/>
	<path fill-rule="evenodd" clip-rule="evenodd" fill="#DDB427" stroke="#DDB427" d="M737.969,382.965
		c1.237,1.22-2.446-1.238-2.446,1.22c-3.682,9.839-1.206,23.349,4.922,31.933c1.222,3.686,11.047,6.148,14.729,2.453
		c2.462-3.686-1.221-13.51-2.445-23.322c0,1.223,0-7.381,0-9.825c-1.236-2.458-3.696,0-3.696,1.239
		c-1.222,0-1.222,7.361-1.222,8.586c0,7.365,4.918,9.813,2.461,19.637c0,0-6.146,0-8.604-2.447
		C736.762,405.061,737.969,392.788,737.969,382.965"/>
	<path fill-rule="evenodd" clip-rule="evenodd" fill="#DDB427" stroke="#DDB427" d="M724.475,380.501
		c1.238-1.22,0-6.142-3.681,1.226c-6.143,11.062,4.919,20.887,4.919,31.946c0,3.668,6.128,8.593,8.604,2.444
		c3.652-4.915-2.476-12.281-3.697-22.094c0,0,1.222-9.839,1.222-11.059c0-2.464-2.458-2.464-3.696-1.238l-1.209,9.824
		c-1.223,8.601,4.905,12.285,3.684,22.122c0,0-2.475,1.212-2.475-2.471C728.145,403.836,714.651,395.248,724.475,380.501"/>
	<path fill-rule="evenodd" clip-rule="evenodd" fill="#DDB427" stroke="#DDB427" d="M760.095,380.501
		c1.235,1.226-2.46-1.22-3.698,1.226c-2.444,9.824,0,22.109,6.143,30.711c1.237,2.447,9.826,2.447,11.049-2.463
		c1.234-4.914,0-8.6-1.223-17.187c0,0,0-9.823,0-12.287c-1.225-1.22-3.669,0-3.669,0s0,7.366,0,9.827
		c-1.235,6.143,1.223,13.508,1.223,18.41c0,0-4.935,2.464-6.143,0C758.856,401.375,758.856,389.105,760.095,380.501"/>
	<path fill-rule="evenodd" clip-rule="evenodd" fill="#DDB427" stroke="#DDB427" d="M778.507,378.043c0,0-2.461-1.225-3.685,0
		c-2.457,8.619-1.234,19.646,4.921,27.018c2.463,1.234,8.599-1.225,9.811-4.909c2.458-4.903,2.458-6.128,0-12.284
		c0,0-3.682-12.27-4.906-14.726c-1.237-1.226-2.441,1.218-2.441,1.218s2.441,8.605,3.666,9.825c1.235,6.144,2.47,7.366,1.235,12.286
		c-1.235,1.219-4.901,4.904-4.901,2.459C778.507,391.551,777.284,384.185,778.507,378.043"/>
	<path fill-rule="evenodd" clip-rule="evenodd" fill="#DDB427" stroke="#DDB427" d="M794.474,392.788
		c1.236,1.235,0-3.683,1.236-3.683c7.352,8.584,14.715,18.428,18.412,28.235c1.237,2.462-1.223,9.827-4.903,11.052
		c-6.157,0-17.207-17.19-19.665-23.332c0-1.225,2.458-2.447,2.458-2.447c1.222,0,13.51,19.652,15.969,20.871
		c1.238,0,3.682-3.682,2.444-7.367C807.98,408.738,800.601,398.93,794.474,392.788"/>
	<path fill-rule="evenodd" clip-rule="evenodd" fill="#DDB427" stroke="#DDB427" d="M784.647,408.738l2.46-3.678
		c6.126,11.057,13.493,18.424,15.954,28.25c0,3.682-2.461,7.378-6.129,7.378c-6.141,1.212-19.648-18.423-23.345-24.571
		c-1.223-1.232,0-1.232,2.458-2.444c1.238,0,14.746,20.874,17.188,22.084c0,0,7.367,0,6.159-4.893
		C796.933,423.484,789.554,413.673,784.647,408.738"/>
	<path fill-rule="evenodd" clip-rule="evenodd" fill="#DDB427" stroke="#DDB427" d="M767.461,418.57
		c0,1.232,1.235-3.686,1.235-2.453c8.588,8.592,14.714,14.747,17.176,24.571c0,3.67,0,6.128-3.666,6.128
		c-6.16,1.239-23.35-17.19-25.81-23.332c0,0,0-1.219,2.46-2.446c0,0,17.189,22.097,19.65,22.097c0,0,6.141,0,3.699-4.903
		C778.507,432.09,772.365,423.484,767.461,418.57"/>
	<path fill-rule="evenodd" clip-rule="evenodd" fill="#DDB427" stroke="#DDB427" d="M742.902,434.547c0,0,1.223,1.21,2.446,2.445
		c0,0,1.223-1.235-1.224,2.46c-1.223,0-1.223,0-2.459,0c-2.46,0-6.144-8.588-4.904-13.507c0,0,1.207,2.447,2.444,3.681
		c0,0,0,4.921,1.238,6.131c0,0,1.222,0,1.222-1.21C742.902,433.311,741.666,434.547,742.902,434.547"/>
	<path fill-rule="evenodd" clip-rule="evenodd" fill="#DDB427" stroke="#DDB427" d="M749.031,424.709c0,1.236,1.239-1.225,2.46,0
		c7.365,8.602,9.839,12.283,15.97,18.426c4.904,4.921,2.458,6.143-1.24,4.921c-13.493-3.697-27.015-24.571-31.904-28.253
		c0,0,1.206,0,4.89,0c0,0,20.889,23.332,24.57,23.332c0,0,3.685,3.682,0-1.234C758.856,436.992,753.952,430.864,749.031,424.709"/>
	<path fill-rule="evenodd" clip-rule="evenodd" fill="#DDB427" stroke="#DDB427" d="M817.805,418.57c1.224,0-1.24,1.232,0,3.695
		c3.683,6.127,9.813,22.093,11.049,29.473c1.222,7.361,3.697,6.144,4.919,3.666c6.142-15.952-2.461-44.202-8.604-49.109
		c0,0,0,0-2.443,1.238c0,0,13.507,19.635,9.825,40.522c0,0,0,2.443-1.239-1.239C827.617,439.452,821.487,423.484,817.805,418.57"/>
	<path fill-rule="evenodd" clip-rule="evenodd" fill="#DDB427" stroke="#DDB427" d="M806.759,436.992
		c0,1.239-2.462,1.239-2.462,2.46c4.922,8.604,8.603,17.19,13.508,23.319c6.143,6.141,7.364,1.237,7.364-1.209
		c3.685-15.982-4.918-28.252-8.604-35.617c0,0-1.205,1.223-2.442,2.447c0,0,11.047,13.508,8.604,30.707c0,0-1.238,2.463-3.697,0
		C812.899,452.959,810.425,446.816,806.759,436.992"/>
	<path fill-rule="evenodd" clip-rule="evenodd" fill="#DDB427" stroke="#DDB427" d="M789.554,446.816c0,0-3.682,1.239-2.446,2.461
		c6.126,7.365,12.285,17.188,19.651,22.096c6.141,4.92,7.363,0,6.141-2.461c-3.681-17.174-6.141-18.413-11.074-27.012
		c0,0-2.433,0-3.67,2.458c0,0,8.604,4.919,12.27,22.107c0,0-1.206,2.446-3.666,1.239
		C799.393,462.771,794.474,455.404,789.554,446.816"/>
	<path fill-rule="evenodd" clip-rule="evenodd" fill="#DDB427" stroke="#DDB427" d="M809.219,477.516c0,0-7.394-3.682-4.922-1.223
		c6.128,6.127,9.825,13.492,15.954,18.429c6.157,4.902,7.366,0,7.366-2.463c-1.209-7.365-3.67-13.509-9.813-22.109
		c0,0,0,2.459-1.24,4.92c0,0,3.687,6.126,7.383,14.716c0,0-1.222,2.474-2.46,1.239C815.359,487.339,814.122,484.894,809.219,477.516
		"/>
	<path fill-rule="evenodd" clip-rule="evenodd" fill="#DDB427" stroke="#DDB427" d="M822.726,468.912
		c1.222,1.237-2.475-1.207-1.238,0c1.238,4.922,6.13,13.508,11.063,18.427c3.682,3.686,3.682,1.238,3.682-1.222
		c-2.46-11.048-4.921-13.509-7.379-20.872c0,0-1.236,1.221-2.445,2.46c0,0,2.445,2.444,6.143,13.49c0,0,0,3.698-1.239,1.225
		C827.617,477.516,826.408,476.293,822.726,468.912"/>
	<path fill-rule="evenodd" clip-rule="evenodd" fill="#DDB427" stroke="#DDB427" d="M773.588,451.738c0,1.221-6.127,0-4.892,1.221
		c8.588,6.141,18.411,18.414,24.537,24.557c4.922,2.46,6.159-1.223,6.159-3.682c-1.237-4.922-4.919-11.063-14.745-23.335
		c0,0-2.441,0-2.441,1.239c0,0,4.901,2.445,13.504,18.411c0,0-1.236,3.685-2.477,2.459
		C787.107,467.705,780.968,460.324,773.588,451.738"/>
	<path fill-rule="evenodd" clip-rule="evenodd" fill="#DDB427" stroke="#DDB427" d="M788.342,369.456c0,1.222-1.234,0-1.234,1.222
		c0,3.682,1.234,9.823,4.904,13.507c1.222,0,3.698,0,4.921-1.22c1.223-2.464,2.46-4.922,1.223-7.367
		c1.237-1.238-3.682-12.285-4.922-12.285c-1.222,0-1.222,1.223-1.222,3.684c0,0,2.462,6.146,2.462,7.363
		c1.236,2.459,1.236,2.459,0,4.922c0,0-1.24,1.22-1.24,0C790.792,376.818,788.342,373.142,788.342,369.456"/>
	<path fill-rule="evenodd" clip-rule="evenodd" fill="#DDB427" stroke="#DDB427" d="M799.393,382.965l-1.237,3.697
		c6.142,7.361,17.204,25.775,18.409,23.313c1.24-2.441,1.24-6.139,0-9.823c0,0-13.503-23.333-14.739-23.333
		c-1.225,0-1.225,2.463,0,3.683c1.236,3.684,12.297,17.188,11.074,19.65l-1.237,1.224
		C809.219,397.689,799.393,385.423,799.393,382.965"/>
	<path fill-rule="evenodd" clip-rule="evenodd" fill="#DDB427" stroke="#DDB427" d="M745.349,359.643c-1.224,0,2.461-1.234,2.461,0
		c0,3.67,0,13.499-4.907,19.639c-2.458,1.22-8.586,2.445-11.062-1.238c-1.222-3.684,3.682-17.193,8.604-23.332
		c0,1.237,1.222,2.46,0,4.932c-2.476,2.447-6.128,12.273-4.922,15.955c0,0,3.684,2.445,4.922-1.238
		C742.902,371.916,745.349,365.773,745.349,359.643"/>
	<path fill-rule="evenodd" clip-rule="evenodd" fill="#DDB427" stroke="#DDB427" d="M761.33,352.266c0,1.225,3.654-1.238,3.654,0
		c0,4.905,1.236,18.412-3.654,25.777c-1.235,2.458-12.299,4.922-14.759,1.238c-1.223-2.463,2.46-13.508,3.699-20.873
		c0,1.234,2.457-2.46,2.457,0c-1.236,4.904-3.696,13.508-2.457,17.189c0,1.221,7.364,1.221,8.586-1.238
		C761.33,369.456,762.539,359.643,761.33,352.266"/>
	<path fill-rule="evenodd" clip-rule="evenodd" fill="#DDB427" stroke="#DDB427" d="M761.33,320.332c0,1.235,0-4.904,1.209-2.459
		c6.157,8.6,12.283,19.646,9.826,25.789c-1.225,2.463-8.589,8.604-12.271,4.923c-1.238-2.46-2.46-13.507-2.46-20.888
		c0,1.238,0-3.685,1.222-1.225c1.238,4.92,2.474,12.283,3.683,17.189c1.237,0,4.922-1.221,6.157-4.906
		C769.919,333.84,764.984,326.473,761.33,320.332"/>
	<path fill-rule="evenodd" clip-rule="evenodd" fill="#DDB427" stroke="#DDB427" d="M815.359,297c1.205,0-4.935-3.684-2.46-3.684
		c8.588,2.459,30.685,9.824,33.144,13.508c1.223,2.443,2.459,12.285-2.459,11.049c-2.445,0-20.858-8.605-27.02-13.496
		c1.24,0-1.205-3.695,0-2.459c4.923,1.223,20.879,9.825,24.574,11.048c0,0,1.236-3.698,0-6.142
		C838.679,303.141,821.487,298.236,815.359,297"/>
	<path fill-rule="evenodd" clip-rule="evenodd" fill="#DDB427" stroke="#DDB427" d="M850.965,319.109
		c0,1.223-3.699-4.904,1.234-3.682c9.809,2.445,46.652,40.521,47.877,45.422c1.233,7.382-4.909,12.292-9.813,6.146
		c-13.508-13.506-31.935-33.156-40.523-36.84c1.226,1.236-1.237-3.684,1.226-6.144c1.234-2.445,38.06,36.837,40.507,39.3
		c0,0,3.695,1.223,3.695-2.463C893.945,357.171,857.092,322.79,850.965,319.109"/>
	<path fill-rule="evenodd" clip-rule="evenodd" fill="#DDB427" stroke="#DDB427" d="M847.266,337.52c0,0-1.223-4.889,1.236-3.68
		c8.59,2.445,33.145,30.695,33.145,33.156c0,6.146-8.59,8.602-11.048,6.146c-11.035-8.606-20.859-18.431-27.015-22.114
		c0-2.442,0,3.684,0-4.902c1.237-2.463,25.805,22.106,27.015,23.331c0,0,7.382,1.222,7.382-3.683
		C877.98,363.313,852.199,339.98,847.266,337.52"/>
	<path fill-rule="evenodd" clip-rule="evenodd" fill="#DDB427" stroke="#DDB427" d="M839.914,355.948l1.225-3.683
		c8.601,2.445,22.107,19.65,22.107,23.332c0,6.129-8.616,8.587-11.047,6.129c-11.061-8.585-12.285-9.811-19.648-12.271
		c2.446-2.46,2.446-2.46,2.446-4.921c0-1.223,15.968,11.063,17.202,13.508c0,0,7.364,0,7.364-4.901
		C858.328,371.916,844.821,358.408,839.914,355.948"/>
	<path fill-rule="evenodd" clip-rule="evenodd" fill="#DDB427" stroke="#DDB427" d="M830.075,371.916c0,1.226,0-2.46,1.236-2.46
		c8.603,3.686,13.51,13.509,13.51,15.967c0,6.128-9.824,7.365-12.271,4.905c-9.825-7.363-3.697-3.666-11.063-7.363
		c1.238-1.238,1.238,0,2.46-2.464c0-2.458,8.604,4.922,11.05,7.366c0,0,4.917,0,6.142-3.683
		C841.139,381.727,833.772,374.359,830.075,371.916"/>
	<path fill-rule="evenodd" clip-rule="evenodd" fill="#DDB427" stroke="#DDB427" d="M864.454,299.459
		c0,1.223,3.699-4.904,3.699-3.684c45.441,27.015,52.807,67.537,68.76,76.141c6.143,3.682-18.426,1.226-24.555-3.685
		c-15.954-12.283-38.078-47.899-60.159-57.722c1.223,1.233-2.46-6.133-2.46-6.133c33.144,12.271,56.488,56.473,65.078,61.396
		c0,0,9.825,4.904,8.604,0C916.043,348.585,881.646,303.141,864.454,299.459"/>
	<path fill-rule="evenodd" clip-rule="evenodd" fill="#DDB427" stroke="#DDB427" d="M820.251,312.966
		c0,1.239-2.446-2.456-1.223-2.456c11.047,2.456,24.556,9.822,27.015,13.503c1.223,1.237,1.223,11.065-3.668,11.065
		c-1.236-1.238-12.3-2.447-18.428-7.381c1.222,0,0-1.225-1.222-4.907c0-1.223,14.718,8.603,18.413,7.366
		c0,0,2.445-3.684,1.236-6.144C839.914,320.332,826.408,315.428,820.251,312.966"/>
	<path fill-rule="evenodd" clip-rule="evenodd" fill="#DDB427" stroke="#DDB427" d="M825.169,333.84c0,0-1.222-3.684,0-2.447
		c7.382,1.238,13.51,6.127,14.745,9.824c1.225,1.225,0,12.273-3.682,11.049c-6.157-3.681-7.379-1.238-12.285-6.141
		c0-2.463,0-1.238,0-4.908c0-1.236,9.825,7.368,12.285,6.128c0,0,1.211-3.683,0-6.128
		C834.997,338.756,828.854,335.078,825.169,333.84"/>
	<path fill-rule="evenodd" clip-rule="evenodd" fill="#DDB427" stroke="#DDB427" d="M815.359,360.85
		c1.205,0-1.237,2.463-1.237,2.463c4.906,4.919,8.604,7.365,12.286,6.144c1.209,0,7.364-8.606,6.143-11.048
		c-1.239-1.237-3.697-4.918-11.063-7.381c0,1.238-1.236,4.921,0,3.684c0,0,6.13,1.237,7.366,4.932c0,0-2.445,6.131-3.685,6.131
		C822.726,365.773,819.028,363.313,815.359,360.85"/>
	<path fill-rule="evenodd" clip-rule="evenodd" fill="#DDB427" stroke="#DDB427" d="M805.521,374.359c1.237,0-1.225,1.238,0,2.459
		c3.697,4.908,4.903,7.366,8.601,7.366c0,0,8.604-8.587,7.365-11.043c0,0-1.236-3.686-8.588-7.368c0,1.223-2.475,4.904-1.237,3.683
		c0-1.225,6.143,1.222,7.366,4.903c0,0-3.669,4.922-6.129,4.922C810.425,380.501,809.219,376.818,805.521,374.359"/>
	<path fill-rule="evenodd" clip-rule="evenodd" fill="#DDB427" stroke="#DDB427" d="M777.284,343.662c0,1.225,2.459-2.445,3.684,0
		c3.68,8.604,1.238,19.65-1.225,25.794c-1.236,3.686-8.603,9.825-11.047,3.686c-1.235-2.464-1.235-14.733,0-23.335
		c0,1.221,2.444-2.462,2.444,0c0,4.904-1.222,22.109,1.225,20.871c1.223,0,3.681-1.222,6.142-4.904
		C779.743,360.85,778.507,351.027,777.284,343.662"/>
	<path fill-rule="evenodd" clip-rule="evenodd" fill="#DDB427" stroke="#DDB427" d="M838.679,443.135
		c2.46,1.224,0,3.682,1.235,4.921c9.825,7.349,49.11,35.604,57.7,38.062c3.695,1.222,22.105-4.922,15.98-9.824
		c-2.475-2.459-65.093-40.536-74.916-44.203c2.46,1.221,0,2.457,1.235,3.667c4.907,2.475,71.206,41.759,69.984,42.993
		c-1.211,0-7.367,4.91-12.284,2.445C891.472,479.976,846.043,449.277,838.679,443.135"/>
	<path fill-rule="evenodd" clip-rule="evenodd" fill="#DDB427" stroke="#DDB427" d="M837.443,455.404
		c1.235,0-2.446,1.238-1.211,2.478c8.589,7.363,36.824,31.903,42.985,33.143c2.429,1.234,17.187,1.234,13.491-3.686
		c-2.446-1.222-7.369-2.445-3.685-1.222c1.238,0-6.142,2.46-9.807,1.222C874.28,484.894,842.375,460.324,837.443,455.404"/>
	<path fill-rule="evenodd" clip-rule="evenodd" fill="#DDB427" stroke="#DDB427" d="M832.551,462.771c0,0-4.934,0-1.239,2.474
		c6.132,4.904,29.478,27.014,34.379,29.477c1.239,0,12.29,0,11.064-1.24c-1.236-1.223-3.698-1.223-3.698-2.457
		c0,0-3.668,1.234-7.366,0C863.246,489.785,836.232,466.466,832.551,462.771"/>
	<path fill-rule="evenodd" clip-rule="evenodd" fill="#DDB427" stroke="#DDB427" d="M838.679,450.499
		c1.235,0-2.446,1.239,1.235,3.685c4.907,4.916,41.732,29.477,40.521,29.477c0-1.24,4.905,0,3.671,0
		C881.646,482.42,843.584,455.404,838.679,450.499"/>
	<path fill-rule="evenodd" clip-rule="evenodd" fill="#DDB427" stroke="#DDB427" d="M834.997,459.1c0,0-2.446,0-1.225,2.463
		c3.671,4.903,31.918,27.015,33.157,27.015c0-1.238,3.669,0,2.459,0C866.93,487.339,837.443,462.771,834.997,459.1"/>
	<path fill-rule="evenodd" clip-rule="evenodd" fill="#DDB427" stroke="#DDB427" d="M834.997,471.373c0,0,0,3.696,1.235,4.92
		c7.352,11.046,18.397,17.188,19.635,18.429c4.922,1.205,4.922-1.24,3.696-1.24C853.422,488.577,855.867,493.481,834.997,471.373"/>
	<path fill-rule="evenodd" clip-rule="evenodd" fill="#DDB427" stroke="#DDB427" d="M838.679,436.992
		c1.235,1.239-2.446,1.239,2.46,4.908c3.683,4.916,55.266,36.85,55.266,36.85c0-1.234,4.905-1.234,4.905-1.234
		C898.852,476.293,843.584,441.9,838.679,436.992"/>
	<path fill-rule="evenodd" clip-rule="evenodd" fill="#DDB427" stroke="#DDB427" d="M764.984,314.205c0,0-2.445-6.158,1.236-3.695
		c6.145,6.139,18.427,15.963,18.427,23.33c-1.237,2.445-9.825,9.822-9.825,7.377c0-3.697,0-2.461,0-3.697
		c0,0,4.921-2.441,4.921-6.127C779.743,327.697,769.919,317.873,764.984,314.205"/>
	<path fill-rule="evenodd" clip-rule="evenodd" fill="#DDB427" stroke="#DDB427" d="M730.619,359.643c1.222,1.207,0-2.472-1.236,0
		c-4.908,4.893-9.825,11.035-7.366,14.717c1.236,3.684,8.603,4.922,8.603,3.684c0-2.445,0-2.445-1.236-2.445
		c0,0-3.67-1.238-4.908-2.456C724.475,370.678,728.145,363.313,730.619,359.643"/>
	<path fill-rule="evenodd" clip-rule="evenodd" fill="#DDB427" stroke="#DDB427" d="M799.393,479.976c0,0-3.683,1.22-1.237,3.685
		c2.445,3.679,6.142,8.599,8.604,11.062c2.46,1.205,4.903-2.463,4.903-2.463c0-2.474,0-2.474-1.237-2.474c0,0-2.444,1.239-3.666,0
		C805.521,488.577,801.825,483.66,799.393,479.976"/>
	<path fill-rule="evenodd" clip-rule="evenodd" fill="#DDB427" stroke="#DDB427" d="M783.41,339.98
		c-1.204,1.236,0-4.902,1.237-1.225c2.46,8.589,7.364,24.557,1.225,29.476c-2.462,1.225-3.666,2.446-2.462,0
		c0-1.235,0-3.696,0-3.696s0,1.238,1.237-1.223C787.107,359.643,784.647,347.345,783.41,339.98"/>
	<path fill-rule="evenodd" clip-rule="evenodd" fill="#DDB427" stroke="#DDB427" d="M784.647,322.79c-1.237,0,0,2.46-1.237,3.683
		c0,0-2.442-1.223-2.442-3.683c-7.38-28.235-38.065-20.872-38.065-27.015c0-7.365,0-11.05,2.446-15.965
		c0-1.227,4.922-1.227,9.824-2.446c4.922,0,0,4.892-1.221,3.681c-1.225,0-4.921,0-6.143,2.445c-1.238,2.463-2.461,7.367,0,9.826
		C749.031,295.775,776.046,292.092,784.647,322.79"/>
	<path fill-rule="evenodd" clip-rule="evenodd" fill="#DDB427" stroke="#DDB427" d="M801.825,314.205
		c2.472,0,6.155,18.426,6.155,24.551c-1.222,1.225-9.825,18.415-15.969,20.887v-7.377c4.921-1.238,9.813-11.049,9.813-14.746
		c0-12.27-1.225-14.729-4.893-22.092c-9.825-27.018-34.394-23.336-36.838-29.475c-2.46-6.143,0-9.827,2.444-14.748
		c0-1.221,49.123-9.824,92.091,15.984c2.462,1.221,8.616,3.668,14.759,2.444c1.21,0-8.6,8.603-14.759,9.825
		c-2.431,1.223-9.809,3.682-15.951,0c0,0-1.235-4.904-1.235-6.143c1.235-1.225,6.141,0,4.932,0c-1.236,0,0,3.684,1.209,3.684
		c3.682,0,12.283-2.445,12.283-2.445c-31.92-24.57-89.646-22.11-89.646-19.65c-1.236,3.68-2.444,7.352,0,8.586
		C767.461,285.953,794.474,284.726,801.825,314.205"/>
	<path fill-rule="evenodd" clip-rule="evenodd" fill="#DDB427" stroke="#DDB427" d="M719.558,332.631c0,0,0,2.447,2.459,2.447
		c6.128-2.447,12.3-6.143,8.603-11.065c-1.236,0-6.145-1.223-7.366,0c-2.459,2.46-11.062,6.144-17.189,9.827
		c1.222,0-3.695,2.445,1.222,2.445c6.143-1.207,20.859-13.495,20.859-8.588C726.936,328.936,725.713,328.936,719.558,332.631"/>
	<path fill-rule="evenodd" clip-rule="evenodd" fill="#DDB427" stroke="#DDB427" d="M778.507,304.377h3.699l1.204,2.447
		c-1.204,0-2.442,1.223-3.667,0L778.507,304.377"/>
	<path fill-rule="evenodd" clip-rule="evenodd" fill="#DDB427" stroke="#DDB427" d="M784.647,284.726h4.906l3.68,2.464
		c-2.441,0-3.68,0-6.126,0L784.647,284.726"/>
	<path fill-rule="evenodd" clip-rule="evenodd" fill="#DDB427" stroke="#DDB427" d="M784.647,319.109h3.694l1.212,4.903
		c-1.212,0-2.446,0-3.682-1.223L784.647,319.109"/>
	<path fill-rule="evenodd" clip-rule="evenodd" fill="#DDB427" stroke="#DDB427" d="M788.342,337.52h2.45l1.22,2.461
		c-1.22,0-1.22,1.236-2.458,1.236L788.342,337.52"/>
	<path fill-rule="evenodd" clip-rule="evenodd" fill="#DDB427" stroke="#DDB427" d="M798.155,358.408
		c3.67,2.441,7.366,4.904,9.825,8.588c0,1.235-2.459,3.682-4.919,6.146c-1.236-1.226-1.236-2.464-2.461-3.686
		c1.225-1.225,1.225-1.225,2.461-2.46c-1.236-2.461-3.669-3.684-7.352-6.146C796.933,360.85,798.155,359.643,798.155,358.408"/>
	<path fill-rule="evenodd" clip-rule="evenodd" fill="#DDB427" stroke="#DDB427" d="M819.028,385.423
		c4.919,1.239,8.589,6.128,11.047,8.601c0,2.447-2.458,3.666-4.906,6.128c-6.141,9.823-3.682,2.462-3.682-1.222
		c0-1.24,2.46-4.906,3.682-4.906c-2.443-2.473-4.918-4.918-7.364-6.156C817.805,386.662,819.028,385.423,819.028,385.423"/>
	<path fill-rule="evenodd" clip-rule="evenodd" fill="#DDB427" stroke="#DDB427" d="M806.759,347.345
		c2.46,2.462,6.141,3.683,9.806,4.921h1.24c-2.445,4.905-4.905,8.584-8.586,12.27c-3.697-2.445-6.157-4.893-8.618-7.364
		c0-1.223,1.225-1.223,1.225-2.46c1.236,2.46,4.934,3.697,7.394,4.932c0-1.234,1.206-2.472,2.443-4.932
		c-2.443-1.221-4.903-3.684-6.141-4.904C805.521,348.585,805.521,348.585,806.759,347.345"/>
	<path fill-rule="evenodd" clip-rule="evenodd" fill="#DDB427" stroke="#DDB427" d="M809.219,330.156
		c3.681,1.236,6.141,3.684,9.81,2.475c1.223,0,1.223,0,1.223-1.238c1.236,6.127,1.236,14.732-1.223,17.192
		c-3.669,0-6.129-1.24-9.81-2.46c0-1.238,0-3.684,1.206-4.908c2.475,1.225,3.697,2.445,6.14,2.445c0-2.445,0-4.906,0-7.377
		c-2.442,0-4.902-1.207-7.346-2.445C810.425,332.631,809.219,332.631,809.219,330.156"/>
	<path fill-rule="evenodd" clip-rule="evenodd" fill="#DDB427" stroke="#DDB427" d="M805.521,310.51
		c3.697,1.233,6.141,2.456,8.601,1.233c1.237,0,1.237-1.233,1.237-1.233c2.445,6.139,4.892,14.74,4.892,18.426
		c-3.687,1.221-8.589-1.238-12.271-1.238c0-2.447,0-3.685,0-4.907c2.444,0,4.919,1.223,7.379,0
		c-1.237-2.458-1.237-6.142-1.237-7.362c-3.697,0-4.903-1.223-7.363-1.223C806.759,312.966,805.521,312.966,805.521,310.51"/>
	<path fill-rule="evenodd" clip-rule="evenodd" fill="#DDB427" stroke="#DDB427" d="M769.919,278.584c3.669-1.22,14.729,0,18.423,0
		c0-1.22,2.45,0,3.67-1.22c4.921,3.681,12.285,11.046,14.747,14.728c-2.462,3.684-7.366,0-11.049,1.225
		c-2.477-2.459-2.477-2.459-2.477-2.459c2.477-1.224,4.922,0,7.367-1.224c-2.445-1.224-7.367-4.908-7.367-7.378
		c-2.441,0-17.188-1.211-19.646,0C772.365,281.045,771.141,279.811,769.919,278.584"/>
	<path fill-rule="evenodd" clip-rule="evenodd" fill="#DDB427" stroke="#DDB427" d="M798.155,295.775c3.67,0,4.906,0,8.604,0
		c1.222-1.221,1.222-1.221,1.222-2.459c3.682,4.92,6.142,11.061,6.142,14.73c-3.697,1.221-6.142,0-9.825-1.223
		c0-1.209-1.235-2.447-1.235-3.684c2.46,1.236,4.919,1.236,6.157,0c0-1.223-1.238-3.682-1.238-4.904c-2.459,0-4.919,0-7.38,1.223
		C800.601,298.236,798.155,297,798.155,295.775"/>
	<path fill-rule="evenodd" clip-rule="evenodd" fill="#DDB427" stroke="#DDB427" d="M698.701,366.996c0,1.235,1.221-1.223,0-3.684
		c0,0-1.24,2.461-2.461,3.684c-8.604,9.822-23.334,12.285-29.477,28.252c-4.904,11.047-4.904,23.322,0,34.378
		c6.143,13.509,33.158,8.605,46.664,8.605c3.684,0,1.224,6.127,1.224,8.585c1.238,0,3.683-4.916,3.683-4.916
		c2.46-6.144-2.444-8.59-3.683-8.59c-23.333,3.682-36.839,2.446-41.745-7.365c-8.603-13.508-6.143-22.109-1.237-29.475
		C682.731,380.501,686.412,385.423,698.701,366.996"/>
	<path fill-rule="evenodd" clip-rule="evenodd" fill="#DDB427" stroke="#DDB427" d="M932.01,378.043
		c0,4.922,3.693,11.063,4.903,17.205c1.237,2.441,2.458,6.127,2.458,8.588c-3.668,27.028,0,73.68-6.125,77.359
		c0-1.22-1.236-2.445-1.236-3.68c1.236-22.111-8.589-44.205-9.828-65.078c0-2.463-1.222-4.904-1.222-6.143
		c-4.917-7.365-13.505-7.365-18.429-34.379c0,0,2.461-3.685,2.461-2.46c1.235,2.46,2.463,0,2.463,2.46
		c2.443,20.872,12.265,22.107,17.188,30.697c0,1.223,2.446,3.682,2.446,7.361c-1.223,7.366,4.921,33.16,4.921,39.303
		c1.236,2.461,2.459,3.682,2.459,1.222c-1.223-17.188,0-29.461,0-42.966c0-1.238,0-3.697,0-4.92c0-4.924-3.685-9.825-7.38-25.795
		L932.01,378.043"/>
	<path fill-rule="evenodd" clip-rule="evenodd" fill="#DDB427" stroke="#DDB427" d="M918.487,409.975
		c3.694,27.018,6.155,33.16,3.694,61.398c0-1.224-1.222-2.461-1.222-3.668c-1.24-19.649-12.272-35.615-15.968-56.503
		c0,0,1.235-4.907-2.461-8.589c-4.917-6.143-9.822-7.365-20.885-27.016c1.236-1.238,4.932-7.366,4.932-1.238
		c2.446,14.746,14.731,18.429,20.877,25.792c0,1.224,1.232,6.144,1.232,9.823c1.211,6.143,7.355,23.336,7.355,28.257
		c0,2.457,2.444,3.669,2.444,1.221c0-17.187-3.67-20.882-6.129-34.392C911.12,402.613,917.277,407.533,918.487,409.975"/>
	<path fill-rule="evenodd" clip-rule="evenodd" fill="#DDB427" stroke="#DDB427" d="M898.852,405.061
		c6.141,20.885,11.047,30.696,9.836,58.948c0-1.237-1.232,1.236-2.46-3.685c-1.235-15.966-12.282-25.777-17.203-50.35
		c0-3.68-2.446-2.441-3.685-4.914c-7.359-9.813-8.585-2.447-20.886-22.096c1.236-1.238,0-7.367,3.699-3.684
		c9.827,15.967,13.493,13.507,18.425,20.87c1.222,1.224,2.446,1.224,4.894,3.685c4.933,7.366,4.933,20.873,9.838,29.475
		c1.222,2.446,2.462,3.682,2.462,1.236c-2.462-17.206-4.92-14.744-8.604-31.934C895.167,400.151,898.852,403.836,898.852,405.061"/>
	<path fill-rule="evenodd" clip-rule="evenodd" fill="#DDB427" stroke="#DDB427" d="M882.883,406.295
		c4.917,14.743,4.917,14.743,7.38,35.605c-2.463,0-2.463-1.212-3.685-2.448c-2.473-14.743-6.144-14.743-12.298-25.779
		c0-1.235-3.682-4.935-6.127-4.935c-7.364-4.902-9.825-2.443-20.888-15.95c0-1.237,1.236-7.365,3.699-3.683
		c4.902,9.824,6.127,7.365,11.043,11.046c1.238,0,6.146,1.224,7.381,2.462c6.13,2.447,12.258,13.504,13.494,19.652
		c0,0,2.457,1.219,1.223-2.463c-4.888-12.27,0-6.13-6.125-15.967C876.755,402.613,882.883,405.061,882.883,406.295"/>
	<path fill-rule="evenodd" clip-rule="evenodd" fill="#DDB427" stroke="#DDB427" d="M863.246,408.738
		c7.353,9.832,7.353,9.832,12.272,25.809c-2.462,0-2.462-1.236-3.686-1.236c-7.379-11.045-9.825-11.045-14.741-18.426
		c0-1.212-2.462-3.683-3.67-3.683c-6.156-2.464-12.283-2.464-22.11-9.827c0-1.224,2.461-6.127,3.686-3.686
		c6.142,7.371,8.587,4.924,12.269,7.371c1.236,0,3.699,0,3.699,0c6.127,1.234,11.043,11.057,14.726,15.978c0,0,2.463,0,1.239-2.468
		c-6.141-9.832-1.239-2.453-7.366-9.832C859.563,408.738,863.246,407.533,863.246,408.738"/>
	<path fill-rule="evenodd" clip-rule="evenodd" fill="#DDB427" stroke="#DDB427" d="M919.72,378.043
		c1.24,4.922,4.923,12.285,4.923,14.745c-2.461,0-11.048-12.287-12.284-19.646C911.12,373.142,919.72,375.598,919.72,378.043"/>
	<path fill-rule="evenodd" clip-rule="evenodd" fill="#DDB427" stroke="#DDB427" d="M896.404,373.142
		c1.21,3.677,3.672,12.281,7.367,19.646c-2.462,0-12.3-13.507-12.3-20.872C890.263,371.916,896.404,371.916,896.404,373.142"/>
	<path fill-rule="evenodd" clip-rule="evenodd" fill="#DDB427" stroke="#DDB427" d="M877.98,376.818
		c2.454,3.683,6.125,11.049,9.819,18.43c-4.917-1.225-11.045-11.063-14.743-17.205C871.833,378.043,876.755,376.818,877.98,376.818"
		/>
	<path fill-rule="evenodd" clip-rule="evenodd" fill="#DDB427" stroke="#DDB427" d="M859.563,385.423
		c1.226,3.683,3.683,7.365,9.825,12.267c-3.698,0-12.297-7.361-14.759-12.267H859.563"/>
	<path fill-rule="evenodd" clip-rule="evenodd" fill="#DDB427" stroke="#DDB427" d="M842.375,394.023
		c1.209,1.225,2.446,3.666,6.127,7.352c-2.459-1.224-8.588-3.686-9.823-6.127L842.375,394.023"/>
	<path fill-rule="evenodd" clip-rule="evenodd" fill="#DDB427" stroke="#DDB427" d="M767.461,454.184
		c0,6.141,1.235,8.588,1.235,8.588c1.223,6.141,2.444,8.602,4.892,13.521c1.234,1.223,2.458,1.223,4.919,1.223
		s1.236-7.366,1.236-11.05c0,0-1.236-1.221-2.459-1.221c0,1.221,1.223,6.128,0,8.589h-1.238c-2.458-1.226-2.458-4.922-3.681-4.922
		c-1.225-3.667-2.446-7.35-3.669-11.03C768.696,457.882,766.221,454.184,767.461,454.184"/>
	<path fill-rule="evenodd" clip-rule="evenodd" fill="#DDB427" stroke="#DDB427" d="M750.271,467.705
		c-3.699,0-11.064-1.239-12.302-1.239c-3.652,0-4.889,0-7.35,1.239c-1.236,1.207-3.684,2.444-1.236,3.668
		c1.236,1.235,11.062,1.235,15.966,2.461v-1.226c0-1.235-8.587-2.459-11.032-2.459c0,0-1.236,0-1.236-1.237
		c1.236-1.207,1.236-1.207,2.442-1.207c1.239,0,8.603,0,12.287,2.444L750.271,467.705"/>
	<path fill-rule="evenodd" clip-rule="evenodd" fill="#DDB427" stroke="#DDB427" d="M750.271,455.404c-1.239-1.221-4.922,0-4.922,0
		c-2.446,1.238-1.224,0-3.683,1.238c-1.222,0-2.46,1.239-2.46,6.129c1.238,2.474,8.604,1.237,13.521,3.694
		c0-1.221,1.225-1.221,1.225-1.221c0-1.236-8.604-2.474-9.827-3.683c-1.223-1.238-1.223,0,0-2.463v-1.218c2.446,0,2.446,0,7.366,0
		C751.491,456.643,751.491,454.184,750.271,455.404"/>
	<path fill-rule="evenodd" clip-rule="evenodd" fill="#DDB427" stroke="#DDB427" d="M749.031,451.738
		c-1.222,0-6.129-2.461-6.129-2.461c-2.458-2.461-1.236-1.222-2.458-2.461c0-1.236-2.476-4.916-2.476-4.916
		c2.476-2.448,4.934,1.234,8.603,1.234v1.224c0,1.222-1.223,0-2.446,0c-2.459-1.224-1.223,0-1.223,1.222l1.223,1.236
		c1.224,1.239,1.224,1.239,4.906,2.461V451.738"/>
	<path fill-rule="evenodd" clip-rule="evenodd" fill="#DDB427" stroke="#DDB427" d="M764.984,462.771
		c-2.445,0-6.128,2.474-6.128,2.474c-4.904,3.667-7.365,4.904-9.825,8.589c-1.222,1.235-2.46,4.916,1.239,6.142
		c0,1.22,14.714-3.683,18.426-3.683c0-1.224-1.235-2.459-1.235-3.685c-1.24,0-12.288,4.907-14.733,3.685v-1.224
		c0-3.696,2.445-3.696,2.445-4.92c3.684-2.444,6.157-3.684,9.812-4.904C764.984,465.245,764.984,461.563,764.984,462.771"/>
	<path fill-rule="evenodd" clip-rule="evenodd" fill="#DDB427" stroke="#DDB427" d="M749.031,440.688c0,3.67,2.46,9.811,2.46,9.811
		c2.461,4.905,3.682,4.905,6.144,8.601c1.222,1.225,2.46,1.225,4.904,1.225c2.445,0,1.237-6.141,1.237-8.586
		c-1.237,0-1.237-1.239-2.446-1.239c0,0,0,2.46,0,6.144c0,0,1.209,1.239-1.235,0c-2.46,0-3.698-2.459-3.698-2.459
		c-1.224-2.445-3.669-7.367-3.669-11.049L749.031,440.688"/>
	<path fill-rule="evenodd" clip-rule="evenodd" fill="#DDB427" stroke="#DDB427" d="M774.822,467.705c0-1.239,0-3.696,0-6.143
		c-1.234,0-2.457-1.238-2.457-1.238v2.447c0,0,0,2.474,1.223,2.474L774.822,467.705"/>
	<path fill-rule="evenodd" clip-rule="evenodd" fill="#DDB427" stroke="#DDB427" d="M757.635,473.834
		c1.222-1.226,7.35-3.685,8.586-3.685c0-1.237,0-1.237,0-1.237c-1.236-1.207-2.444,0-3.682,0c0,0-2.444,1.237-2.444,2.461
		C758.856,471.373,757.635,473.834,757.635,473.834"/>
	<path fill-rule="evenodd" clip-rule="evenodd" fill="#DDB427" stroke="#DDB427" d="M756.396,462.771
		c-8.587,1.237-7.365-2.447-9.825-2.447c0-1.225,0-1.225,0-1.225c2.46,0,3.699,1.225,6.156,1.225c0,0,0,0,3.669,1.238
		C757.635,461.563,756.396,462.771,756.396,462.771"/>
	<path fill-rule="evenodd" clip-rule="evenodd" fill="#DDB427" stroke="#DDB427" d="M707.285,452.959
		c-1.222-2.46-1.222-2.46-1.222-4.903c1.222-2.476,4.89-6.155,6.128-6.155c0,1.234-1.238,2.458,0,6.155
		c0,1.222,2.46,1.222,1.236,3.683C710.953,455.404,707.285,455.404,707.285,452.959"/>
	<path fill-rule="evenodd" clip-rule="evenodd" fill="#DDB427" stroke="#DDB427" d="M707.285,468.912
		c1.225,1.237,2.462,1.237,3.668,2.461c2.475,0,3.698-2.461,3.698-2.461c0-1.207-3.698,0-3.698-2.446c-1.206,0-3.668,0-4.89,0
		C703.604,468.912,706.063,468.912,707.285,468.912"/>
	<path fill-rule="evenodd" clip-rule="evenodd" fill="#DDB427" stroke="#DDB427" d="M702.368,471.373
		c1.236,1.235,1.236,1.235,2.459,1.235c1.236,1.226,3.683-1.235,3.683-1.235c-1.225,0-3.683,0-3.683-1.224
		c0,0-2.459-1.237-3.699-1.237C699.922,470.149,701.128,471.373,702.368,471.373"/>
	<path fill-rule="evenodd" clip-rule="evenodd" fill="#DDB427" stroke="#DDB427" d="M697.461,473.834
		c1.24,1.235,1.24,1.235,1.24,1.235c1.221,0,3.667-1.235,3.667-1.235c-1.24,0-2.446,0-3.667-1.226c0,0-1.24-1.235-2.461,0
		C695.002,472.608,696.24,473.834,697.461,473.834"/>
	<path fill-rule="evenodd" clip-rule="evenodd" fill="#DDB427" stroke="#DDB427" d="M701.128,462.771
		c-3.667-4.89,1.24-6.129-3.667-13.494c0-3.697,0-2.461,1.24-3.697c1.221-1.222,4.903-1.222,7.362-2.445
		c-1.236,1.224-6.142,7.364,1.222,14.747c0,0-1.222,2.442,0,7.363c-1.222,0-2.458,0-2.458,0
		C702.368,465.245,701.128,464.009,701.128,462.771"/>
	<path fill-rule="evenodd" clip-rule="evenodd" fill="#DDB427" stroke="#DDB427" d="M701.128,468.912c0-1.207,0-2.446,0-2.446
		c-2.427-1.221-4.888-4.903-3.667-12.282c-1.221-2.445-1.221-4.906-2.459-4.906c-1.225,0-3.684,3.682-3.684,4.906
		c2.459,1.221,2.459,3.698,3.684,9.825c0,0,0,1.236,2.459,4.903C698.701,468.912,699.922,468.912,701.128,468.912"/>
	<path fill-rule="evenodd" clip-rule="evenodd" fill="#DDB427" stroke="#DDB427" d="M696.24,471.373
		c-1.238-1.224,0-1.224-1.238-2.461c-1.225-2.446-2.461-3.667-2.461-9.813c-1.223-1.218-1.223-2.457-2.445-2.457
		c-1.223-1.238-2.459,2.457-2.459,3.682c2.459,1.238,7.365,7.381,2.459,7.381c-1.223,0,2.445,1.207,3.682,2.444
		C695.002,471.373,695.002,471.373,696.24,471.373"/>
	<path fill-rule="evenodd" clip-rule="evenodd" fill="#DDB427" stroke="#DDB427" d="M758.856,451.738
		c-1.222-1.239-1.222-2.461-1.222-4.922c0,0-1.238-1.236-2.462-1.236v2.476l1.224,1.222
		C756.396,450.499,758.856,451.738,758.856,451.738"/>
	<path fill-rule="evenodd" clip-rule="evenodd" fill="#DDB427" stroke="#DDB427" d="M733.08,446.816
		c1.236,1.239,2.442,1.239,2.442,4.922c-1.206,3.666-6.14,6.144-12.27,12.271c-1.236,1.236-2.459,1.236-3.695,1.236
		c-2.446-2.474-4.906-2.474-4.906-4.921V459.1c2.46-1.218,4.906,1.225,7.365,1.225l-1.223-3.682c0-1.238-2.46-2.459-4.904-2.459
		c-1.238,1.221-4.937,2.459-6.143,4.916c-1.237,1.225,0,4.909,1.206,4.909c1.238,1.236,6.158,4.903,8.604,4.903
		c1.236,0,3.695,1.237,7.378-1.207c1.209-3.696,9.826-6.143,12.271-14.746c0-2.46,0-2.46,0-4.903
		c-1.237-1.239-3.684-3.697-4.89-3.697L733.08,446.816"/>
	<path fill-rule="evenodd" clip-rule="evenodd" fill="#DDB427" stroke="#DDB427" d="M644.654,391.551
		c7.379,2.473,12.271,9.824,12.271,12.285c2.473,8.602-4.893,18.43-2.447,24.557c3.684,8.6,11.049,6.154,18.428,14.742
		c7.365,8.604,0,12.27,12.271,18.428c0,0,1.234,1.209,2.459,2.446c-12.286,0-13.521-7.366-15.968-17.192
		c-3.683-8.585-14.743-6.128-19.636-17.19c-1.236-9.823,3.684-14.741,2.445-23.331c1.238-6.144-9.824-12.271-11.047-12.271
		S644.654,392.788,644.654,391.551"/>
	<path fill-rule="evenodd" clip-rule="evenodd" fill="#DDB427" stroke="#DDB427" d="M639.75,397.689
		c6.143,2.462,8.588,6.146,8.588,8.605c2.459,8.59-6.129,17.189-3.684,24.569c2.445,7.367,9.824,8.588,19.649,17.191
		c8.603,7.349-1.235,28.237,25.792,23.317c1.223,1.235,3.682,3.696,3.682,4.92c-25.791,8.601-28.25-14.73-30.709-25.794
		c-7.352-6.141-15.969-6.141-22.096-17.188c-2.461-13.508,6.127-15.97,4.92-24.572c0-4.902-3.684-8.587-6.143-8.587
		C638.512,400.151,639.75,397.689,639.75,397.689"/>
	<path fill-rule="evenodd" clip-rule="evenodd" fill="#DDB427" stroke="#DDB427" d="M642.209,390.328
		c-2.459,2.46-6.158,4.92-4.92,11.047l1.223,2.461c-1.223,0-3.668,0-4.904-1.223c0-6.143-2.461-7.365,3.682-13.508
		C639.75,387.867,640.973,389.105,642.209,390.328"/>
	<path fill-rule="evenodd" clip-rule="evenodd" fill="#DDB427" stroke="#DDB427" d="M634.844,387.867
		c-2.46,2.461-6.143,4.921-4.934,11.063l1.236,2.445c-1.236,0-3.682,0-4.904-1.224c0-6.128-2.459-7.363,3.668-13.489
		C632.384,386.662,633.607,387.867,634.844,387.867"/>
	<path fill-rule="evenodd" clip-rule="evenodd" fill="#DDB427" stroke="#DDB427" d="M627.465,386.662
		c-2.444,2.443-6.143,4.889-3.682,9.809v3.681c-1.237,1.224-2.461,0-3.698-1.222c-2.445-3.682-3.669-4.906-3.669-7.379
		c0-2.445,3.669-3.684,6.13-6.128C625.021,384.185,626.242,385.423,627.465,386.662"/>
	<path fill-rule="evenodd" clip-rule="evenodd" fill="#DDB427" stroke="#DDB427" d="M801.825,498.39c-2.433,0-4.893,0-6.115,1.234
		c0,0-2.477,11.048,1.223,11.048c1.223-1.221,2.46,0,3.668-2.459c0,0,0-6.128,1.225-6.128c0,0,4.934-1.238,6.155-1.238
		c2.444,0,4.919-1.223,4.919-1.223c1.223,0,2.46,0,3.665,0c-3.665,2.461-7.346,8.589-11.043,8.589c0,0-3.696,2.459-3.696,3.696
		c0,2.446,2.472,4.891,4.934,7.366c1.222,1.222,4.903,1.222,7.363-3.684c2.442-1.236,8.604-11.064,11.047-11.064
		c0,0,3.685-1.223,4.906,0c4.922,0,4.922,3.686,6.157,3.686c0,2.459,1.211,3.696,6.143,4.921c9.824-1.225,9.824,1.222,13.492-6.145
		c3.696-3.685,1.225-3.685,1.225-6.143c-1.225-1.223-3.67-3.681-6.127-3.681c-7.381,0-11.051-1.239-12.286-4.907
		c0,0-2.446-1.234-3.682-1.234c2.446,3.697,3.682,6.142,7.378,7.365c1.209,1.234,6.127,0,6.127,3.695
		c-1.236,3.684-3.681,4.904-3.681,4.904c-3.683,0-3.683-3.685-4.907-4.904c-1.235,0-8.603-4.919-8.603-6.158
		c0,0-2.458,3.697-6.143,3.697c-2.443,0-12.27,11.048-13.507,13.51c-2.443,0-3.682-1.225-2.443-2.462
		c1.206-1.221,8.586-8.587,9.81-9.825c1.223-1.223,0-2.457,0-3.681c0,0-1.224-1.239-2.464-1.239
		C811.662,495.927,803.062,499.624,801.825,498.39"/>
	<path fill-rule="evenodd" clip-rule="evenodd" fill="#DDB427" stroke="#DDB427" d="M887.8,504.527v-6.138l-4.917,4.915
		l-1.236,2.464l-6.128,3.683l-2.462-4.924v7.382c0,2.446-2.458,7.366-3.668,9.823c-2.459,6.13-8.6,6.13-12.297,3.683l-1.225,3.684
		c19.651,3.682,13.521-11.063,22.113-15.965c0,0,0-1.225,1.237-2.462c3.665-2.459,12.254-3.683,14.728-2.459
		c1.222,1.238,1.222-2.444,2.459-2.444C896.404,504.527,889.024,504.527,887.8,504.527"/>
	<path fill-rule="evenodd" clip-rule="evenodd" fill="#DDB427" stroke="#DDB427" d="M906.228,525.415l6.131,1.226
		c-2.46,1.222-4.903,1.222-8.587,2.458c-2.462,2.446-2.462,3.682-9.826,6.126l4.906,4.935c-3.685-1.232-7.38-2.473-9.827-2.473
		c-3.685,4.918-23.334,1.24-23.334,2.473v6.131c0,1.223-3.683-6.131-7.362-7.363c-3.698-1.24-9.826-2.463-9.826-1.24l2.463-3.682
		c15.965,1.22,23.315,4.922,39.298,0c6.142-3.683,12.269-9.825,12.269-12.272c0-1.235,2.461-1.235,3.696-1.235
		C907.455,520.497,907.455,524.18,906.228,525.415"/>
	<path fill-rule="evenodd" clip-rule="evenodd" fill="#DDB427" stroke="#DDB427" d="M880.435,529.099
		c-2.454,0-6.154-1.236-7.378-1.236c-3.668,3.683,1.224,4.918,2.462,3.683L880.435,529.099"/>
	<path fill-rule="evenodd" clip-rule="evenodd" fill="#DDB427" stroke="#DDB427" d="M881.646,515.592
		c-1.212,2.444-3.666,3.684-4.892,4.905c0,4.918,4.892,2.459,4.892,1.235V515.592"/>
	<path fill-rule="evenodd" clip-rule="evenodd" fill="#DDB427" stroke="#DDB427" d="M891.472,516.8
		c-1.209,2.476-4.894,3.697-6.132,4.933c0,4.908,4.923,2.447,4.923,1.224L891.472,516.8"/>
	<path fill-rule="evenodd" clip-rule="evenodd" fill="#DDB427" stroke="#DDB427" d="M891.472,527.862
		c-2.447,0-4.894-1.222-6.132-1.222c-2.457,3.682,1.238,4.904,2.46,3.682L891.472,527.862"/>
	<path fill-rule="evenodd" clip-rule="evenodd" fill="#DDB427" stroke="#DDB427" d="M637.289,493.481
		c-2.445,0-2.445-1.223-4.905-1.223c1.224,4.907,2.46,6.131,6.128,4.907c2.461,2.458,2.461,4.919,8.588,8.603
		c-1.207,1.221-3.668,2.444-4.891,2.444c2.445,2.459,7.352,2.459,8.588,1.238c1.236,2.458,4.92,3.683,8.602,4.904
		c1.225,0-4.92,4.92-3.682,4.92c3.682,0,6.143-1.239,7.352-3.684c1.235,0,13.521,1.208,13.521,1.208c0-1.208,0-1.208,0-3.666
		c-14.729-2.462-11.062,1.222-24.556-8.606c-6.141-3.681-9.824-11.046-9.824-13.503c0-3.686,9.824-12.274,12.27-12.274
		c3.684-1.234,6.145,1.226,12.285,4.91c4.905,3.679,9.825,14.729,11.049,19.645l3.683-2.458c-1.224-3.681-1.224-6.125-2.444-7.365
		c-1.238-1.223,3.681-4.904,1.221-11.062c-1.221,2.474-2.459,3.697-3.683,4.919c-3.683-3.679-8.603-8.589-15.966-12.27
		c1.236-3.696-1.225-6.157-6.145-8.604l1.238,8.604C647.1,473.834,634.844,491.024,637.289,493.481"/>
	<path fill-rule="evenodd" clip-rule="evenodd" fill="#DDB427" stroke="#DDB427" d="M665.527,503.305c2.459,0,6.142,0,7.379,1.223
		c2.444,3.686-2.459,3.686-3.682,2.462L665.527,503.305"/>
	<path fill-rule="evenodd" clip-rule="evenodd" fill="#DDB427" stroke="#DDB427" d="M665.527,488.577
		c2.459,2.447,4.92,4.904,4.92,6.145c-1.223,4.902-4.92,1.205-4.92,0V488.577"/>
	<path fill-rule="evenodd" clip-rule="evenodd" fill="#DDB427" stroke="#DDB427" d="M655.717,484.894
		c1.209,2.445,4.906,3.684,4.906,6.131c-1.225,4.902-4.906,1.234-4.906,0V484.894"/>
	<path fill-rule="evenodd" clip-rule="evenodd" fill="#DDB427" stroke="#DDB427" d="M653.256,495.927
		c2.461,1.239,4.906,2.463,6.143,2.463c1.225,3.695-2.473,3.695-3.682,2.457L653.256,495.927"/>
	<path fill-rule="evenodd" clip-rule="evenodd" fill="#DDB427" stroke="#DDB427" d="M741.666,537.687
		c-1.222,2.473-1.222,2.473-3.697,3.686c3.697,0,6.156,0,9.841-2.445c3.682,0,9.825,0,13.521,0c0,2.445-1.235,2.445-2.474,4.888
		c3.683,0,7.364-1.21,7.364-3.655c2.476,1.213,8.602,0,11.063-1.232c2.459-1.24,1.223,4.888,1.223,4.888
		c3.699-2.442,6.141-3.655,4.903-7.351l6.144-1.239c0-1.22,1.238-3.68,0-6.126c-15.966,7.365-22.093,6.126-35.602,4.906
		c-2.461,0-12.286-1.225-14.746-3.683c-6.126-3.682-2.444-17.188,0-19.65c2.46-3.683,4.919-6.145,14.746-6.145
		c6.143,0,18.413,7.382,23.332,11.064l1.223-3.683c-3.685-3.696-6.142-4.92-7.366-6.141c-1.222,0,0-6.145-6.156-9.842
		c0,2.463,0,4.92,0,7.378c-2.445-1.22-8.588-2.458-11.032-2.458c0-3.681-6.143-6.125-9.827-6.125c0,0,2.446,6.125,1.224,6.125
		c-1.224,0-3.683,1.238-4.904,1.238c-3.683-1.238-2.476-2.461-8.604-1.238l3.682,6.143
		C730.619,513.134,726.936,536.464,741.666,537.687"/>
	<path fill-rule="evenodd" clip-rule="evenodd" fill="#DDB427" stroke="#DDB427" d="M763.776,519.275c3.685,0,6.143,0,8.589,0
		c2.457,3.681-2.446,4.904-3.669,3.681L763.776,519.275"/>
	<path fill-rule="evenodd" clip-rule="evenodd" fill="#DDB427" stroke="#DDB427" d="M777.284,522.956
		c3.684-1.224,6.126-2.459,8.588-2.459c3.682,2.459-1.225,4.918-2.462,4.918L777.284,522.956"/>
	<path fill-rule="evenodd" clip-rule="evenodd" fill="#DDB427" stroke="#DDB427" d="M758.856,509.451
		c2.474,1.221,6.128,1.221,7.364,2.458c2.476,4.891-3.682,4.891-3.682,2.446L758.856,509.451"/>
	<path fill-rule="evenodd" clip-rule="evenodd" fill="#DDB427" stroke="#DDB427" d="M746.571,516.8
		c2.46-1.208,6.156-2.444,8.602-2.444c3.684,2.444-1.221,4.92-2.445,4.92L746.571,516.8"/>
	<path fill-rule="evenodd" clip-rule="evenodd" fill="#DDB427" stroke="#DDB427" d="M753.952,527.862
		c2.444-1.222,4.904-2.447,7.378-2.447c3.654,2.447,0,4.907-2.474,4.907L753.952,527.862"/>
	<path fill-rule="evenodd" clip-rule="evenodd" fill="#DDB427" stroke="#DDB427" d="M682.731,521.732
		c-1.236,3.683-2.46,6.13-6.143,4.908c3.683,3.682,6.143,1.222,9.823-1.226c3.684,1.226,7.365,3.684,14.716,3.684
		c-1.206,2.446-2.427,3.682-3.667,6.126c4.907-1.22,8.603-2.444,8.603-4.902c2.446,2.458,22.081-2.46,22.081-3.682
		c-1.209-1.226,0-2.461-1.209-4.908c-14.744,4.908-11.046,4.908-27.014,3.683c-6.145,0-13.51-4.918-14.744-7.379
		c-1.239-2.444,2.459-15.951,4.918-17.189c2.445-2.457,9.826,0,8.605-1.223l1.221-4.902c-2.461,1.205-3.682,1.205-7.381,1.205
		c-1.223-3.668-1.223-3.668-7.363-3.668c2.459,1.223,2.459,3.668,3.695,4.907C681.495,500.847,679.051,521.732,682.731,521.732"/>
	<path fill-rule="evenodd" clip-rule="evenodd" fill="#DDB427" stroke="#DDB427" d="M718.334,516.8c2.46,0,6.141-2.444,8.602-1.208
		c3.684,2.444-1.223,4.905-2.461,3.684L718.334,516.8"/>
	<path fill-rule="evenodd" clip-rule="evenodd" fill="#DDB427" stroke="#DDB427" d="M720.794,502.085
		c2.459,1.22,11.047,6.128,11.047,8.587c-1.222,1.237-1.222,2.462-2.458,2.462c-2.447-2.462-6.13-6.145-9.825-6.145L720.794,502.085
		"/>
	<path fill-rule="evenodd" clip-rule="evenodd" fill="#DDB427" stroke="#DDB427" d="M692.541,510.672
		c2.461,0,4.92-2.459,7.381-1.221c3.683,2.458-1.221,4.904-2.461,3.683L692.541,510.672"/>
	<path fill-rule="evenodd" clip-rule="evenodd" fill="#DDB427" stroke="#DDB427" d="M701.128,519.275
		c2.477,1.222,4.936,0,6.157,1.222c3.668,2.459-1.222,3.683-2.458,2.459L701.128,519.275"/>
	<path fill-rule="evenodd" clip-rule="evenodd" fill="#DDB427" stroke="#DDB427" d="M709.747,494.722v-2.463
		c-4.92-1.234-7.379,1.223-7.379,7.365c0,6.145,1.236,9.827,4.917,11.048c3.668,2.462,8.604,1.237,9.826-7.367
		c2.446-8.583-1.222-9.823-7.364-11.046V494.722c1.206,1.205,3.681,3.668,2.444,7.363c0,2.442-2.444,4.904-4.906,4.904
		c-1.222,0-2.458-3.685-1.222-6.143C706.063,497.166,707.285,494.722,709.747,494.722"/>
	<path fill-rule="evenodd" clip-rule="evenodd" fill="#DDB427" stroke="#DDB427" d="M702.368,486.117
		c1.236-2.457,2.459-2.457,4.917-2.457c1.225,2.457,1.225,4.917,0,6.125c0,0-1.222,0-1.222,1.239
		C703.604,489.785,702.368,487.339,702.368,486.117"/>
	<path fill-rule="evenodd" clip-rule="evenodd" fill="#DDB427" stroke="#DDB427" d="M710.953,483.66c1.238-1.24,3.698-1.24,4.937,0
		c0,2.457,0,3.679-1.238,6.125c-1.224,0-1.224,0-2.46,0C710.953,487.339,710.953,484.894,710.953,483.66"/>
	<path fill-rule="evenodd" clip-rule="evenodd" fill="#DDB427" stroke="#DDB427" d="M718.334,484.894
		c2.46,0,3.683,1.224,4.919,3.684c-1.236,1.208-2.459,3.682-4.919,3.682c0,0-1.223,0-1.223-1.234
		C717.111,489.785,717.111,487.339,718.334,484.894"/>
	<path fill-rule="evenodd" clip-rule="evenodd" fill="#DDB427" stroke="#DDB427" d="M909.898,505.769l3.696-2.464
		c-2.475-2.458-7.367-2.458-12.285,1.223c-3.695,2.462-6.143,7.382-3.695,11.064c1.237,2.444,7.378,2.444,11.073,0
		c4.907-3.683,6.13-9.823,4.907-12.287L909.898,505.769c1.222,1.221,0,4.903-2.443,7.365c-2.463,1.222-6.146,1.222-7.379,0
		c-1.225-2.462,0-4.921,2.455-7.365C904.992,504.527,908.688,504.527,909.898,505.769"/>
	<path fill-rule="evenodd" clip-rule="evenodd" fill="#DDB427" stroke="#DDB427" d="M912.358,492.259c1.236,0,2.459,0,3.685,2.463
		c-1.226,1.205-2.448,2.444-3.685,3.668c-1.238,0-1.238-1.224-1.238-1.224C909.898,495.927,911.12,493.481,912.358,492.259"/>
	<path fill-rule="evenodd" clip-rule="evenodd" fill="#DDB427" stroke="#DDB427" d="M918.487,495.927
		c1.232,0,2.473,1.239,3.694,3.697c-1.222,1.223-3.694,2.461-4.904,2.461c-1.234,0-1.234,0-1.234-1.238
		C916.043,499.624,916.043,497.166,918.487,495.927"/>
	<path fill-rule="evenodd" clip-rule="evenodd" fill="#DDB427" stroke="#DDB427" d="M924.643,503.305
		c1.224,1.223,1.224,2.464,0,4.908c-2.461,0-3.683,0-6.155-1.224v-1.221C920.96,504.527,922.182,503.305,924.643,503.305"/>
	<path fill-rule="evenodd" clip-rule="evenodd" fill="#DDB427" stroke="#DDB427" d="M925.866,489.785
		c-1.224,1.239-3.685,2.474-4.906,3.696c1.222,1.24,2.461,2.445,3.683,3.685c1.224-1.239,2.446-2.444,3.681-3.685
		c1.224,1.24,3.687,0,4.923-2.457c1.223-1.239,0-3.686-1.236-4.907c-2.463-1.224-4.921-1.224-4.921,1.222
		C925.866,488.577,925.866,489.785,925.866,489.785"/>
	<path fill-rule="evenodd" clip-rule="evenodd" fill="#DDB427" stroke="#DDB427" d="M634.844,462.771l-1.236-2.447
		c3.682-2.442,7.365-2.442,11.047,2.447c2.445,4.934,3.684,8.602,1.238,12.298c-2.461,3.681-7.381,4.906-13.509,0
		c-6.142-6.157-3.683-11.061,1.224-14.745L634.844,462.771c-1.236,1.237-1.236,4.934,1.207,7.378
		c2.461,2.459,6.158,3.685,7.381,1.224c1.223-1.224,0-3.668-1.223-6.128C639.75,462.771,637.289,461.563,634.844,462.771"/>
	<path fill-rule="evenodd" clip-rule="evenodd" fill="#DDB427" stroke="#DDB427" d="M639.75,449.277
		c-1.238-1.222-3.699-1.222-4.906,0c0,2.461,0,4.906,2.445,6.127h1.223C639.75,454.184,640.973,451.738,639.75,449.277"/>
	<path fill-rule="evenodd" clip-rule="evenodd" fill="#DDB427" stroke="#DDB427" d="M631.146,451.738c-2.445,0-3.682,0-4.904,2.445
		c0,2.459,2.459,3.698,3.668,4.916c1.236-1.218,1.236-1.218,2.474-1.218C632.384,455.404,631.146,452.959,631.146,451.738"/>
	<path fill-rule="evenodd" clip-rule="evenodd" fill="#DDB427" stroke="#DDB427" d="M621.322,456.643
		c-1.237,1.239-2.461,2.457-1.237,4.92c1.237,1.209,3.698,1.209,6.157,1.209v-1.209C625.021,459.1,623.783,457.882,621.322,456.643"
		/>
	<path fill-rule="evenodd" clip-rule="evenodd" fill="#DDB427" stroke="#DDB427" d="M625.021,444.358
		c1.222,0,2.444,2.458,2.444,3.697c0,1.222-1.223,2.443-2.444,2.443c-2.475-1.222-2.475-2.443-3.698-3.683
		c-1.237,0-3.683-2.458-3.683-3.682c-1.224-2.446,0-4.903,2.445-4.903c1.237,0,3.698,1.221,4.936,2.457
		C625.021,441.9,625.021,443.135,625.021,444.358"/>
	<path fill-rule="evenodd" clip-rule="evenodd" fill="#DDB427" stroke="#DDB427" d="M805.521,538.927
		c-1.225,3.678-3.696,4.888-4.921,7.363c1.225,4.904,6.158,1.223,6.158,0L805.521,538.927"/>
	<path fill-rule="evenodd" clip-rule="evenodd" fill="#DDB427" stroke="#DDB427" d="M821.487,525.415
		c-2.459,1.226-7.365,2.447-8.588,3.684c-1.237,4.906,3.665,3.682,4.905,2.446L821.487,525.415"/>
	<path fill-rule="evenodd" clip-rule="evenodd" fill="#DDB427" stroke="#DDB427" d="M838.679,514.355c-3.682,0-7.367,0-9.825,0
		c-2.445,4.92,3.697,6.142,4.919,4.92L838.679,514.355"/>
	<path fill-rule="evenodd" clip-rule="evenodd" fill="#DDB427" stroke="#DDB427" d="M837.443,526.641
		c-3.671,0-7.368-1.226-9.826-1.226c-4.892,4.907,1.236,6.13,3.694,4.907L837.443,526.641"/>
	<path fill-rule="evenodd" clip-rule="evenodd" fill="#DDB427" stroke="#DDB427" d="M825.169,511.909
		c-2.443,2.446-6.141,2.446-7.364,3.683c-1.24,6.141,3.683,3.684,4.921,2.444L825.169,511.909"/>
	<path fill-rule="evenodd" clip-rule="evenodd" fill="#DDB427" stroke="#DDB427" d="M832.551,505.769c-2.476,1.221-4.934,0-4.934,0
		c-2.448,2.444,0,3.683,1.236,2.444L832.551,505.769"/>
	<path fill-rule="evenodd" clip-rule="evenodd" fill="#DDB427" stroke="#DDB427" d="M796.933,532.78l-4.921-3.682
		c-3.67,9.828-1.22,22.096,0,33.143c6.144,0,14.747,0,20.888,0c0-18.427,7.352-18.427,19.651-22.082
		c2.446,1.213,13.492,1.213,13.492,1.213c0-1.213-3.668-2.445-3.668-3.686c-1.236-2.462,4.891-4.906,6.127-6.142
		c6.128-4.904,7.365-12.27,6.128-17.189c-2.431,0-4.891,1.236-6.128,1.236c1.237,7.364,1.237,9.823-12.27,18.413
		c-3.682,2.459-17.204,6.154-19.668,8.6c-7.346,3.686-6.14,8.59-7.346,15.956c0,0-13.509,0-13.509-1.225
		C795.71,548.75,792.012,541.372,796.933,532.78"/>
	<path fill-rule="evenodd" clip-rule="evenodd" fill="#DDB427" stroke="#DDB427" d="M825.169,621.205
		c-1.222,1.211-3.682,0-2.443,2.443c-8.604-1.232-7.366-4.901-15.967-3.682c1.222-2.458,1.222-3.696,2.46-4.917
		C816.564,613.825,816.564,617.509,825.169,621.205"/>
	<path fill-rule="evenodd" clip-rule="evenodd" fill="#DDB427" stroke="#DDB427" d="M766.221,623.648c0,1.226,3.698,0,2.476,2.446
		c8.588-1.221,6.126-6.128,14.714-6.128c-1.204-2.458,0-2.458,0-4.917C776.046,615.05,773.588,618.747,766.221,623.648"/>
	<path fill-rule="evenodd" clip-rule="evenodd" fill="#DDB427" stroke="#DDB427" d="M782.206,605.226c0,1.236,0,2.446,0,3.683
		c-6.16,0-18.43,7.362-22.111,11.059c-1.238-1.22-4.922-7.361-6.143-9.826l-1.225,3.685h-7.379l-11.032-9.824l2.445,9.824
		l-3.682,1.225l-14.746-9.824l4.919,8.6h-6.142l-14.743-4.917l4.917,4.917l-12.283,3.684l23.332-1.238l-6.143,9.824l9.825-7.348
		h12.3l-7.381,12.269l12.271-12.269h8.604l-2.461,9.812l9.824-12.288l2.462-1.221l1.222,4.917l-13.508,13.509h-4.904l3.681-11.06
		l-4.919,1.232l-9.823,11.051l-6.13-1.224l-1.236-3.684l7.366-7.376l-6.13,1.232l-9.825,6.144l-7.364-1.233l6.128-8.592
		l-9.823,1.238l-1.24,1.211h-13.491l1.236-4.907l11.049-6.144l-2.461-3.693l6.144-2.446l14.729,4.915l-6.143-8.583h8.603
		l12.286,8.583l-2.461-12.282h6.143l9.81,12.282l2.46-4.915h4.921l6.143,4.915C764.984,607.672,776.046,606.462,782.206,605.226"/>
	<polyline fill-rule="evenodd" clip-rule="evenodd" fill="#DDB427" stroke="#DDB427" points="696.24,604.001 681.495,594.191 
		680.271,581.892 676.589,580.653 675.351,586.813 672.906,583.131 671.669,570.831 663.068,564.701 661.859,576.987 
		658.162,570.831 656.926,558.561 652.033,553.651 650.797,563.479 643.432,554.876 639.75,558.561 642.209,563.479 
		643.432,565.938 634.844,567.178 632.384,569.623 638.512,570.831 647.1,578.209 632.384,576.987 638.512,583.131 654.479,586.813 
		655.717,589.258 640.973,592.954 650.797,600.318 665.527,597.858 665.527,602.78 685.178,601.558 681.495,597.858 
		669.225,597.858 669.225,594.191 653.256,596.638 650.797,594.191 660.623,592.954 663.068,589.258 655.717,583.131 
		643.432,580.653 653.256,580.653 653.256,574.526 640.973,569.623 647.1,568.383 645.893,563.479 653.256,572.067 654.479,562.241 
		655.717,575.762 665.527,585.588 665.527,572.067 669.225,575.762 670.447,589.258 675.351,594.191 677.813,588.035 
		679.051,595.397 693.777,606.462 696.24,604.001 	"/>
	<path fill-rule="evenodd" clip-rule="evenodd" fill="#DDB427" stroke="#DDB427" d="M698.701,602.78
		c-2.461-3.696-3.699-7.383-1.24-9.826c1.24-1.237,1.24-2.463,0-3.696c-2.459,0-4.92,0-8.588,2.459
		c-1.236,1.237-2.461,2.475,0,3.681C693.777,596.638,695.002,602.78,698.701,602.78"/>
	<path fill-rule="evenodd" clip-rule="evenodd" fill="#DDB427" stroke="#DDB427" d="M691.318,608.908c-3.682,0-8.587,0-8.587,4.917
		c-1.236,0-1.236,1.225-3.681,1.225c-1.238-2.444-2.462-4.909-2.462-8.588c0-2.461,2.462-3.682,3.683-2.461
		C683.938,607.672,688.873,605.226,691.318,608.908"/>
	<path fill-rule="evenodd" clip-rule="evenodd" fill="#DDB427" stroke="#DDB427" d="M691.318,589.258
		c1.223,0,3.684-1.223,3.684-3.67c0-1.237-2.461-2.457-3.684-2.457s-3.682,1.22-3.682,2.457
		C687.637,588.035,690.096,589.258,691.318,589.258"/>
	<path fill-rule="evenodd" clip-rule="evenodd" fill="#DDB427" stroke="#DDB427" d="M670.447,612.605
		c-1.223-1.24,0-3.697,1.222-4.934c1.237,0,3.682,0,3.682,1.236c1.238,2.457,1.238,3.697,0,4.917
		C672.906,615.05,671.669,613.825,670.447,612.605"/>
	<path fill-rule="evenodd" clip-rule="evenodd" fill="#DDB427" stroke="#DDB427" d="M636.051,558.561
		c-1.207-3.685-1.207-8.589,2.461-9.811c1.238-1.237,1.238-1.237,1.238-3.698c-2.461,0-4.906-1.237-9.84,0
		c-1.209,0-2.445,2.461-1.209,3.698C633.607,551.194,632.384,556.115,636.051,558.561"/>
	<path fill-rule="evenodd" clip-rule="evenodd" fill="#DDB427" stroke="#DDB427" d="M629.91,565.938
		c-3.668-1.236-7.364-2.459-9.825,1.24c0,1.205-1.224,1.205-2.445,0c-1.224-2.477-1.224-4.937,0-8.617
		c1.222-1.225,2.445-2.445,3.683-1.225C623.783,562.241,628.701,562.241,629.91,565.938"/>
	<path fill-rule="evenodd" clip-rule="evenodd" fill="#DDB427" stroke="#DDB427" d="M636.051,536.464
		c-2.443,0-3.667,1.223-4.904,2.463c0,1.232,0,3.678,2.461,3.678c1.236,1.21,3.682,0,3.682-1.232
		C638.512,538.927,637.289,537.687,636.051,536.464"/>
	<path fill-rule="evenodd" clip-rule="evenodd" fill="#DDB427" stroke="#DDB427" d="M609.037,562.241
		c0-1.227,1.237-2.446,2.461-3.681c2.459,0,3.695,1.234,3.695,2.454c1.223,2.464,0,3.687-2.473,3.687
		C611.498,565.938,609.037,564.701,609.037,562.241"/>
	<polyline fill-rule="evenodd" clip-rule="evenodd" fill="#DDB427" stroke="#DDB427" points="638.512,564.701 637.289,561.015 
		633.607,559.795 625.021,549.972 626.242,531.545 623.783,527.862 618.861,534.005 618.861,513.134 612.721,511.909 
		609.037,524.18 606.593,521.732 606.593,509.451 602.896,508.213 600.45,515.592 593.056,508.213 590.626,509.451 591.848,511.909 
		584.482,513.134 590.626,519.275 579.578,520.497 584.482,525.415 596.767,529.099 600.45,531.545 586.943,530.322 
		589.402,536.464 596.767,540.159 605.37,541.372 609.037,543.814 600.45,543.814 600.45,546.29 607.829,549.972 625.021,557.336 
		621.322,551.194 609.037,546.29 615.193,545.052 610.274,538.927 593.056,534.005 607.829,534.005 600.45,525.415 586.943,522.956 
		596.767,522.956 590.626,515.592 595.53,516.8 594.308,513.134 600.45,520.497 602.896,514.355 602.896,525.415 611.498,531.545 
		615.193,516.8 615.193,534.005 616.416,540.159 622.546,535.225 621.322,551.194 625.021,557.336 631.146,563.479 638.512,564.701 
			"/>
	<path fill-rule="evenodd" clip-rule="evenodd" fill="#DDB427" stroke="#DDB427" d="M598.004,503.305
		c1.223-3.681,2.446-7.378,6.129-7.378c1.237-1.205,1.237-1.205,1.237-2.445c-2.474-2.457-3.683-3.696-7.366-4.904
		c-2.474,0-3.696,1.208-3.696,3.682C598.004,495.927,595.53,500.847,598.004,503.305"/>
	<path fill-rule="evenodd" clip-rule="evenodd" fill="#DDB427" stroke="#DDB427" d="M586.943,506.989
		c-2.461-2.462-6.129-4.904-9.825-2.462c-1.251,0-2.489,0-2.489-1.223c0-2.458,0-4.915,3.697-8.583
		c1.252-1.24,3.682-1.24,3.682,1.205C582.008,500.847,586.943,503.305,586.943,506.989"/>
	<path fill-rule="evenodd" clip-rule="evenodd" fill="#DDB427" stroke="#DDB427" d="M605.37,483.66c-1.237-1.24-3.683-1.24-4.92,0
		c-1.224,1.233-1.224,3.679,1.237,4.917c1.209,1.208,2.445,1.208,3.683,0C606.593,486.117,606.593,484.894,605.37,483.66"/>
	<path fill-rule="evenodd" clip-rule="evenodd" fill="#DDB427" stroke="#DDB427" d="M568.529,494.722
		c1.224-1.24,2.432-2.463,3.684-1.24c2.416,0,3.654,1.24,2.416,3.685c0,1.224-1.193,2.458-3.668,2.458
		C569.753,498.39,568.529,497.166,568.529,494.722"/>
	<polyline fill-rule="evenodd" clip-rule="evenodd" fill="#DDB427" stroke="#DDB427" points="594.308,506.989 588.181,491.024 
		590.626,486.117 590.626,482.42 586.943,482.42 595.53,476.293 595.53,467.705 585.691,471.373 586.943,467.705 596.767,459.1 
		598.004,452.959 586.943,457.882 588.181,454.184 593.056,449.277 590.626,441.9 588.181,443.135 583.261,448.056 582.008,443.135 
		575.867,446.816 575.867,460.324 569.753,452.959 567.279,460.324 574.629,473.834 564.818,471.373 564.818,478.75 
		570.961,479.976 577.118,484.894 575.867,487.339 584.482,494.722 585.691,489.785 579.578,487.339 580.814,483.66 
		569.753,476.293 578.326,478.75 578.326,472.608 570.961,459.1 578.326,466.466 579.578,448.056 582.008,451.738 589.402,448.056 
		583.261,456.643 582.008,464.009 590.626,459.1 580.814,470.149 583.261,475.069 591.848,473.834 583.261,481.195 584.482,486.117 
		588.181,486.117 585.691,489.785 585.691,494.722 590.626,506.989 594.308,506.989 	"/>
	<path fill-rule="evenodd" clip-rule="evenodd" fill="#DDB427" stroke="#DDB427" d="M806.759,605.226
		c6.141,0,19.649,3.683,25.792,6.14c7.363,2.46,25.777-14.728,52.789-15.968c0,0,2.46,0,2.46,1.24
		c-14.743,0-23.346,11.034-45.425,15.968c-1.236,2.444,0,1.22,1.209,2.444c15.979,2.459,24.569-8.588,41.756-15.966
		c0,0,2.46-1.226,6.132,0c-7.366,7.378-29.464,20.883-47.888,20.883c-6.141,0-28.225-9.826-36.825-9.826
		C806.759,607.672,806.759,607.672,806.759,605.226"/>
	<path fill-rule="evenodd" clip-rule="evenodd" fill="#DDB427" stroke="#DDB427" d="M876.755,588.035
		c-1.236-1.222-3.698-1.222-4.922-1.222c-6.143,1.222-12.27,3.678-17.203,4.903c-8.587,2.475-12.255,8.602-20.857,14.745
		c-2.461,0-4.919,0-7.364,0c0,1.21,2.445,2.446,2.445,2.446c2.458,1.232,6.144,1.232,7.379,0
		c14.732-8.59,28.222-13.511,42.985-15.954c-1.237-1.237-2.463-1.237-2.463-1.237c-2.475-1.226-11.064,1.237-33.171,11.063
		c0-1.223,0-1.223,0-1.223c6.155-3.699,7.381-6.16,12.283-7.366C862.008,592.954,871.833,588.035,876.755,588.035"/>
	<path fill-rule="evenodd" clip-rule="evenodd" fill="#DDB427" stroke="#DDB427" d="M887.8,611.365c-1.222,0-2.46-1.225-3.694-1.225
		c-7.351,1.225-9.825,7.368-28.238,11.064c0,0-2.445,1.211-6.128,2.443c-2.474,0-6.155,0-7.364,0c0,1.226,1.209,1.226,3.668,2.446
		c1.223,1.239,2.459,1.239,3.696,2.464c15.951,3.694,30.695-11.05,45.428-13.509c-1.222-1.225-1.222-1.225-2.458-1.225
		c-9.826-2.46-29.463,13.509-35.617,11.049c0,0-1.225-1.226,1.236-1.226C864.454,622.416,876.755,613.825,887.8,611.365"/>
	<path fill-rule="evenodd" clip-rule="evenodd" fill="#DDB427" stroke="#DDB427" d="M903.771,596.638
		c-1.24-1.24-2.462-1.24-4.92-1.24c-1.237,0-1.237,2.461-1.237,3.687c1.237,1.234,2.462,1.234,4.917,1.234
		c0,2.462,2.461,3.683,3.696,3.683c2.46,0,4.893-1.221,4.893-3.683c0-2.46-2.433-3.681-3.665-3.681
		C906.228,596.638,904.992,596.638,903.771,596.638"/>
	<path fill-rule="evenodd" clip-rule="evenodd" fill="#DDB427" stroke="#DDB427" d="M889.024,580.653c0,1.238,0,3.697,0,4.935
		c1.238,0,1.238,2.447,1.238,2.447c1.209,0,2.446-2.447,2.446-2.447c1.236-2.457,0-3.696,0-4.935
		c2.458-1.206,2.458-3.666,1.236-6.127c-1.236-1.223-3.683-2.459-4.921-1.223c-2.446,1.223-3.685,3.684-2.446,4.905
		C886.578,579.447,887.8,580.653,889.024,580.653"/>
	<path fill-rule="evenodd" clip-rule="evenodd" fill="#DDB427" stroke="#DDB427" d="M891.472,592.954
		c2.474-6.141,4.933-7.366,12.3-9.823c15.948-24.57,24.552-25.795,36.836-40.526c0,4.908-1.236,6.146-2.457,6.146
		c-6.141,9.811-11.062,6.126-28.252,29.459c0,2.444,1.222,1.238,2.46,1.238c15.965-13.51,25.792-22.111,31.932-33.157
		c1.208,2.46,1.208,6.144-3.683,12.271c-7.361,8.617-14.741,14.743-25.79,22.093c-4.919,6.16-19.65,7.382-19.65,14.744
		C893.945,594.191,893.945,594.191,891.472,592.954"/>
	<path fill-rule="evenodd" clip-rule="evenodd" fill="#DDB427" stroke="#DDB427" d="M924.643,538.927
		c-6.155,9.823-12.284,13.507-14.744,14.725c-11.047,8.59-6.127,17.18-8.589,25.796c2.462-1.238,1.222-3.686,4.918-4.921
		c8.59-13.512,6.131-8.589,15.954-18.411c1.239-1.239,3.685-8.603,1.239-7.365c-14.733,19.633-17.193,18.428-17.193,20.873
		c0,0-3.696,2.444-1.235-1.24c1.235-11.047,7.366-12.268,7.366-12.268c6.129-4.921,7.361-6.144,11.063-9.825
		C924.643,543.814,924.643,540.159,924.643,538.927"/>
	<path fill-rule="evenodd" clip-rule="evenodd" fill="#DDB427" stroke="#DDB427" d="M947.975,557.336
		c-8.604,11.047-24.554,23.317-27.015,25.795c-1.24,0-1.24,1.22-2.473,1.22c-2.444,2.463-7.367,3.685-8.589,3.685
		c0,1.223,3.696,1.223,6.145,1.223c2.444,0,2.444,0,3.677,0c6.146,1.233,12.29-2.444,18.431-7.366
		c4.905-4.904,9.824-9.824,13.507-15.954c0,0,1.221-3.696,0-6.143c-8.602,14.731-17.188,18.414-24.568,25.793
		c-2.446,0-4.907,0-2.446-2.457c13.508-8.604,14.729-11.063,20.855-20.89C946.736,561.015,946.736,557.336,947.975,557.336"/>
	<path fill-rule="evenodd" clip-rule="evenodd" fill="#DDB427" stroke="#DDB427" d="M960.259,541.372c-1.223,0-2.458,0-4.935,0
		c0,1.232,0,2.442,0,3.68c2.477,1.238,3.712,1.238,4.935,0c1.223,2.461,3.671,2.461,6.13,1.238c1.237-1.238,2.474-2.476,2.474-4.918
		c-1.236-2.445-3.698-2.445-6.142-2.445C962.721,540.159,961.481,540.159,960.259,541.372"/>
	<path fill-rule="evenodd" clip-rule="evenodd" fill="#DDB427" stroke="#DDB427" d="M936.913,531.545
		c1.237,2.46,1.237,3.68,3.694,4.919l1.228,1.223c1.221,0,1.221-2.462,1.221-3.682c0-1.225-1.221-2.46-2.448-3.683
		c2.448-1.224,1.228-4.907-1.236-6.143c-1.221-1.224-3.668-1.224-4.902,1.235c-1.223,1.226-1.223,3.684,0,4.907
		C935.703,531.545,936.913,531.545,936.913,531.545"/>
	<path fill-rule="evenodd" clip-rule="evenodd" fill="#DDB427" stroke="#DDB427" d="M945.498,543.814
		c0-6.128,2.477-8.59,7.38-13.492c3.685-29.476,15.984-45.429,18.433-45.429c-8.59,13.496-1.24,7.365-13.51,34.382
		c-1.238,6.14,2.458,2.457,2.458,2.457c7.367-7.377,11.052-27.011,14.731-42.982c2.46,2.445,3.68,8.589,2.46,14.731
		c-3.695,11.046-4.935,23.318-13.521,30.698c-3.671,7.365-17.193,14.747-13.497,20.872
		C947.975,545.052,947.975,545.052,945.498,543.814"/>
	<path fill-rule="evenodd" clip-rule="evenodd" fill="#DDB427" stroke="#DDB427" d="M956.563,483.66
		c-7.351,13.506-18.412,28.249-6.13,42.98c1.225-2.461,1.225-3.685,0-8.604c6.13-13.509,12.288-33.143,11.049-31.919
		c-3.681,7.364-7.382,17.188-12.27,28.238c0-1.222-2.476,3.681-1.237,0C947.975,500.847,955.324,494.722,956.563,483.66"/>
	<path fill-rule="evenodd" clip-rule="evenodd" fill="#DDB427" stroke="#DDB427" d="M986.052,492.259
		c-11.062,4.907-6.157,12.269-17.189,30.697c-2.474,1.224-4.933,7.366-8.604,9.824c1.223,1.225,3.671-1.235,6.13-1.235
		c2.474-1.223,7.366-3.683,8.602-4.904c4.904-7.365,14.731-25.794,13.506-34.382c-4.919,15.954-12.271,28.238-13.506,29.474
		c-6.128,4.908-7.364,7.366-2.475,0C981.115,508.213,979.895,498.39,986.052,492.259"/>
	<path fill-rule="evenodd" clip-rule="evenodd" fill="#DDB427" stroke="#DDB427" d="M986.052,471.373
		c-1.239,1.235-3.713,1.235-4.937,2.461c0,1.235,0,2.459,1.224,3.682c2.474,0,3.713-1.223,4.936-1.223
		c1.222,1.223,3.668,0,6.129-1.224c1.235-1.235,1.235-3.696,0-4.92c-1.225-2.444-3.682-2.444-6.129-1.237
		C987.274,470.149,986.052,471.373,986.052,471.373"/>
	<path fill-rule="evenodd" clip-rule="evenodd" fill="#DDB427" stroke="#DDB427" d="M963.93,470.149
		c0,1.224,1.234,2.459,3.696,3.685c0,0,1.236,1.235,2.444,1.235c0-1.235,0-3.696,0-4.92c-1.208-1.237-2.444-1.237-3.682-2.444
		c1.237-2.46-1.225-3.696-2.459-4.934c-2.448,0-4.894,0-6.129,2.474c0,1.221,1.235,3.667,2.458,4.904
		C961.481,470.149,962.721,470.149,963.93,470.149"/>
	<path fill-rule="evenodd" clip-rule="evenodd" fill="#DDB427" stroke="#DDB427" d="M972.516,476.293
		c2.475-7.381,1.239-8.588,3.71-14.73c-6.155-25.806,1.225-46.678,3.669-46.678c2.444,13.508-6.14,20.872-2.444,34.393
		c0,6.127,2.444,3.682,4.889,2.461c-1.224-34.397,2.474-13.507,1.238-36.854c6.145,1.232,3.697,34.393,0,40.52
		c-1.238,6.158-7.352,8.604-8.587,19.665C973.755,476.293,974.99,476.293,972.516,476.293"/>
	<path fill-rule="evenodd" clip-rule="evenodd" fill="#DDB427" stroke="#DDB427" d="M961.481,418.57
		c0,27.01-4.919,23.33,9.829,40.529c1.205-2.457,0-4.916-1.24-8.601c-2.444-11.047,1.24-20.873-2.444-23.331
		c1.236,7.379-1.237,11.063,0,20.888c0,0-2.462,2.443-2.462-1.239C960.259,435.757,966.389,432.09,961.481,418.57"/>
	<path fill-rule="evenodd" clip-rule="evenodd" fill="#DDB427" stroke="#DDB427" d="M992.179,422.266
		c-3.683,8.599-1.236,14.727-4.904,31.918c-1.223,1.221-7.38,9.825-6.159,13.521c2.462-3.696,3.697-6.143,6.159-7.381
		c2.447-1.225,6.129-2.442,7.364-3.682c4.891-8.587,4.891-28.25,1.237-34.377c1.206,22.093-2.473,28.233-3.697,29.473
		c-4.904,6.144-2.457,2.445-1.236,1.221C994.639,439.452,993.403,429.626,992.179,422.266"/>
</g>
</svg>
