<?xml version="1.0" encoding="utf-8"?>
<svg xmlns="http://www.w3.org/2000/svg" width="1000" height="600">
  <defs>
    <linearGradient id="A" gradientUnits="userSpaceOnUse" x1="498.738" y1="289.055" x2="500.626" y2="283.42">
      <stop stop-color="#510000" offset="0"/>
      <stop stop-color="#8a0000" offset="0.3"/>
      <stop stop-color="#a00" offset="1"/>
    </linearGradient>
    <linearGradient id="B" gradientUnits="userSpaceOnUse" x1="501.444" y1="291.373" x2="502.927" y2="287.449">
      <stop stop-color="#ff2a2a" offset="0"/>
      <stop stop-color="red" offset="1"/>
    </linearGradient>
    <linearGradient id="C" gradientUnits="userSpaceOnUse" x1="484.764" y1="311.709" x2="484.764" y2="317.647">
      <stop stop-color="#f5f549" offset="0"/>
      <stop stop-color="#97c924" offset="1"/>
    </linearGradient>
    <linearGradient id="D" gradientUnits="userSpaceOnUse">
      <stop stop-color="#025" offset="0"/>
      <stop stop-color="#04a" offset="0.5"/>
      <stop stop-color="#025" offset="1"/>
    </linearGradient>
    <linearGradient id="E" x1="444.509" y1="317.486" x2="634.411" y2="317.486" href="#D"/>
    <clipPath id="F">
      <path d="M500 226.375l-63.702 110.332H563.7z"/>
    </clipPath>
  </defs>
  <path fill="#0067c6" d="M0 0h1000v600H0z"/>
  <path fill="#fff" d="M0 200h1000v200H0z"/>
  <g clip-path="url(#F)">
    <path fill="#fff" d="M500.001 226.408l-31.479 54.535-15.42 26.702H546.9l-14.714-25.484-32.184-55.753z"/>
    <g id="G">
      <g id="H">
        <path fill="#17c0eb" stroke="#17c0eb" stroke-width=".129" opacity=".62" d="M500.001 226.408l-2.357 4.082 2.357 54.977 2.357-54.977z"/>
        <path fill="#fff" d="M500.001 277.475l-.134.003.134 3.111.134-3.111-.134-.003z"/>
      </g>
      <g transform="matrix(0.30901700258255005, 0.9510565400123596, -0.9510565400123596, 0.30901700258255005, 616.9874877929688, -278.2763671875)">
        <path fill="#17c0eb" stroke="#17c0eb" stroke-width=".129" opacity=".62" d="M500.001 226.408l-2.357 4.082 2.357 54.977 2.357-54.977z"/>
        <path fill="#fff" d="M500.001 277.475l-.134.003.134 3.111.134-3.111-.134-.003z"/>
      </g>
      <g transform="matrix(-0.80901700258255, 0.5877852439880371, -0.5877852439880371, -0.80901700258255, 1072.3035888671875, 222.52145385742188)">
        <path fill="#17c0eb" stroke="#17c0eb" stroke-width=".129" opacity=".62" d="M500.001 226.408l-2.357 4.082 2.357 54.977 2.357-54.977z"/>
        <path fill="#fff" d="M500.001 277.475l-.134.003.134 3.111.134-3.111-.134-.003z"/>
      </g>
      <g transform="matrix(-0.80901700258255, -0.5877852439880371, 0.5877852439880371, -0.80901700258255, 736.717041015625, 810.307861328125)">
        <path fill="#17c0eb" stroke="#17c0eb" stroke-width=".129" opacity=".62" d="M500.001 226.408l-2.357 4.082 2.357 54.977 2.357-54.977z"/>
        <path fill="#fff" d="M500.001 277.475l-.134.003.134 3.111.134-3.111-.134-.003z"/>
      </g>
      <g transform="matrix(0.30901700258255005, -0.9510565400123596, 0.9510565400123596, 0.30901700258255005, 73.99694061279297, 672.7820434570312)">
        <path fill="#17c0eb" stroke="#17c0eb" stroke-width=".129" opacity=".62" d="M500.001 226.408l-2.357 4.082 2.357 54.977 2.357-54.977z"/>
        <path fill="#fff" d="M500.001 277.475l-.134.003.134 3.111.134-3.111-.134-.003z"/>
      </g>
    </g>
    <g transform="matrix(0.9902680516242981, 0.13917310535907745, -0.13917310535907745, 0.9902680516242981, 44.595306396484375, -66.80854797363281)">
      <g>
        <path fill="#17c0eb" stroke="#17c0eb" stroke-width=".129" opacity=".62" d="M500.001 226.408l-2.357 4.082 2.357 54.977 2.357-54.977z"/>
        <path fill="#fff" d="M500.001 277.475l-.134.003.134 3.111.134-3.111-.134-.003z"/>
      </g>
      <g transform="matrix(0.30901700258255005, 0.9510565400123596, -0.9510565400123596, 0.30901700258255005, 616.9874877929688, -278.2763671875)">
        <path fill="#17c0eb" stroke="#17c0eb" stroke-width=".129" opacity=".62" d="M500.001 226.408l-2.357 4.082 2.357 54.977 2.357-54.977z"/>
        <path fill="#fff" d="M500.001 277.475l-.134.003.134 3.111.134-3.111-.134-.003z"/>
      </g>
      <g transform="matrix(-0.80901700258255, 0.5877852439880371, -0.5877852439880371, -0.80901700258255, 1072.3035888671875, 222.52145385742188)">
        <path fill="#17c0eb" stroke="#17c0eb" stroke-width=".129" opacity=".62" d="M500.001 226.408l-2.357 4.082 2.357 54.977 2.357-54.977z"/>
        <path fill="#fff" d="M500.001 277.475l-.134.003.134 3.111.134-3.111-.134-.003z"/>
      </g>
      <g transform="matrix(-0.80901700258255, -0.5877852439880371, 0.5877852439880371, -0.80901700258255, 736.717041015625, 810.307861328125)">
        <path fill="#17c0eb" stroke="#17c0eb" stroke-width=".129" opacity=".62" d="M500.001 226.408l-2.357 4.082 2.357 54.977 2.357-54.977z"/>
        <path fill="#fff" d="M500.001 277.475l-.134.003.134 3.111.134-3.111-.134-.003z"/>
      </g>
      <g transform="matrix(0.30901700258255005, -0.9510565400123596, 0.9510565400123596, 0.30901700258255005, 73.99694061279297, 672.7820434570312)">
        <path fill="#17c0eb" stroke="#17c0eb" stroke-width=".129" opacity=".62" d="M500.001 226.408l-2.357 4.082 2.357 54.977 2.357-54.977z"/>
        <path fill="#fff" d="M500.001 277.475l-.134.003.134 3.111.134-3.111-.134-.003z"/>
      </g>
    </g>
    <g transform="matrix(0.9612616896629333, 0.27563735842704773, -0.27563735842704773, 0.9612616896629333, 98.0545654296875, -126.76044464111328)">
      <g>
        <path fill="#17c0eb" stroke="#17c0eb" stroke-width=".129" opacity=".62" d="M500.001 226.408l-2.357 4.082 2.357 54.977 2.357-54.977z"/>
        <path fill="#fff" d="M500.001 277.475l-.134.003.134 3.111.134-3.111-.134-.003z"/>
      </g>
      <g transform="matrix(0.30901700258255005, 0.9510565400123596, -0.9510565400123596, 0.30901700258255005, 616.9874877929688, -278.2763671875)">
        <path fill="#17c0eb" stroke="#17c0eb" stroke-width=".129" opacity=".62" d="M500.001 226.408l-2.357 4.082 2.357 54.977 2.357-54.977z"/>
        <path fill="#fff" d="M500.001 277.475l-.134.003.134 3.111.134-3.111-.134-.003z"/>
      </g>
      <g transform="matrix(-0.80901700258255, 0.5877852439880371, -0.5877852439880371, -0.80901700258255, 1072.3035888671875, 222.52145385742188)">
        <path fill="#17c0eb" stroke="#17c0eb" stroke-width=".129" opacity=".62" d="M500.001 226.408l-2.357 4.082 2.357 54.977 2.357-54.977z"/>
        <path fill="#fff" d="M500.001 277.475l-.134.003.134 3.111.134-3.111-.134-.003z"/>
      </g>
      <g transform="matrix(-0.80901700258255, -0.5877852439880371, 0.5877852439880371, -0.80901700258255, 736.717041015625, 810.307861328125)">
        <path fill="#17c0eb" stroke="#17c0eb" stroke-width=".129" opacity=".62" d="M500.001 226.408l-2.357 4.082 2.357 54.977 2.357-54.977z"/>
        <path fill="#fff" d="M500.001 277.475l-.134.003.134 3.111.134-3.111-.134-.003z"/>
      </g>
      <g transform="matrix(0.30901700258255005, -0.9510565400123596, 0.9510565400123596, 0.30901700258255005, 73.99694061279297, 672.7820434570312)">
        <path fill="#17c0eb" stroke="#17c0eb" stroke-width=".129" opacity=".62" d="M500.001 226.408l-2.357 4.082 2.357 54.977 2.357-54.977z"/>
        <path fill="#fff" d="M500.001 277.475l-.134.003.134 3.111.134-3.111-.134-.003z"/>
      </g>
    </g>
    <g transform="matrix(0.9135454297065735, 0.4067366421222687, -0.4067366421222687, 0.9135454297065735, 159.33724975585938, -178.68881225585938)">
      <g>
        <path fill="#17c0eb" stroke="#17c0eb" stroke-width=".129" opacity=".62" d="M500.001 226.408l-2.357 4.082 2.357 54.977 2.357-54.977z"/>
        <path fill="#fff" d="M500.001 277.475l-.134.003.134 3.111.134-3.111-.134-.003z"/>
      </g>
      <g transform="matrix(0.30901700258255005, 0.9510565400123596, -0.9510565400123596, 0.30901700258255005, 616.9874877929688, -278.2763671875)">
        <path fill="#17c0eb" stroke="#17c0eb" stroke-width=".129" opacity=".62" d="M500.001 226.408l-2.357 4.082 2.357 54.977 2.357-54.977z"/>
        <path fill="#fff" d="M500.001 277.475l-.134.003.134 3.111.134-3.111-.134-.003z"/>
      </g>
      <g transform="matrix(-0.80901700258255, 0.5877852439880371, -0.5877852439880371, -0.80901700258255, 1072.3035888671875, 222.52145385742188)">
        <path fill="#17c0eb" stroke="#17c0eb" stroke-width=".129" opacity=".62" d="M500.001 226.408l-2.357 4.082 2.357 54.977 2.357-54.977z"/>
        <path fill="#fff" d="M500.001 277.475l-.134.003.134 3.111.134-3.111-.134-.003z"/>
      </g>
      <g transform="matrix(-0.80901700258255, -0.5877852439880371, 0.5877852439880371, -0.80901700258255, 736.717041015625, 810.307861328125)">
        <path fill="#17c0eb" stroke="#17c0eb" stroke-width=".129" opacity=".62" d="M500.001 226.408l-2.357 4.082 2.357 54.977 2.357-54.977z"/>
        <path fill="#fff" d="M500.001 277.475l-.134.003.134 3.111.134-3.111-.134-.003z"/>
      </g>
      <g transform="matrix(0.30901700258255005, -0.9510565400123596, 0.9510565400123596, 0.30901700258255005, 73.99694061279297, 672.7820434570312)">
        <path fill="#17c0eb" stroke="#17c0eb" stroke-width=".129" opacity=".62" d="M500.001 226.408l-2.357 4.082 2.357 54.977 2.357-54.977z"/>
        <path fill="#fff" d="M500.001 277.475l-.134.003.134 3.111.134-3.111-.134-.003z"/>
      </g>
    </g>
    <g transform="matrix(0.8480480909347534, 0.5299192667007446, -0.5299192667007446, 0.8480480909347534, 227.25057983398438, -221.58291625976562)">
      <g>
        <path fill="#17c0eb" stroke="#17c0eb" stroke-width=".129" opacity=".62" d="M500.001 226.408l-2.357 4.082 2.357 54.977 2.357-54.977z"/>
        <path fill="#fff" d="M500.001 277.475l-.134.003.134 3.111.134-3.111-.134-.003z"/>
      </g>
      <g transform="matrix(0.30901700258255005, 0.9510565400123596, -0.9510565400123596, 0.30901700258255005, 616.9874877929688, -278.2763671875)">
        <path fill="#17c0eb" stroke="#17c0eb" stroke-width=".129" opacity=".62" d="M500.001 226.408l-2.357 4.082 2.357 54.977 2.357-54.977z"/>
        <path fill="#fff" d="M500.001 277.475l-.134.003.134 3.111.134-3.111-.134-.003z"/>
      </g>
      <g transform="matrix(-0.80901700258255, 0.5877852439880371, -0.5877852439880371, -0.80901700258255, 1072.3035888671875, 222.52145385742188)">
        <path fill="#17c0eb" stroke="#17c0eb" stroke-width=".129" opacity=".62" d="M500.001 226.408l-2.357 4.082 2.357 54.977 2.357-54.977z"/>
        <path fill="#fff" d="M500.001 277.475l-.134.003.134 3.111.134-3.111-.134-.003z"/>
      </g>
      <g transform="matrix(-0.80901700258255, -0.5877852439880371, 0.5877852439880371, -0.80901700258255, 736.717041015625, 810.307861328125)">
        <path fill="#17c0eb" stroke="#17c0eb" stroke-width=".129" opacity=".62" d="M500.001 226.408l-2.357 4.082 2.357 54.977 2.357-54.977z"/>
        <path fill="#fff" d="M500.001 277.475l-.134.003.134 3.111.134-3.111-.134-.003z"/>
      </g>
      <g transform="matrix(0.30901700258255005, -0.9510565400123596, 0.9510565400123596, 0.30901700258255005, 73.99694061279297, 672.7820434570312)">
        <path fill="#17c0eb" stroke="#17c0eb" stroke-width=".129" opacity=".62" d="M500.001 226.408l-2.357 4.082 2.357 54.977 2.357-54.977z"/>
        <path fill="#fff" d="M500.001 277.475l-.134.003.134 3.111.134-3.111-.134-.003z"/>
      </g>
    </g>
    <g transform="matrix(0.7660444378852844, 0.6427876353263855, -0.6427876353263855, 0.7660444378852844, 300.47265625, -254.6078643798828)">
      <g>
        <path fill="#17c0eb" stroke="#17c0eb" stroke-width=".129" opacity=".62" d="M500.001 226.408l-2.357 4.082 2.357 54.977 2.357-54.977z"/>
        <path fill="#fff" d="M500.001 277.475l-.134.003.134 3.111.134-3.111-.134-.003z"/>
      </g>
      <g transform="matrix(0.30901700258255005, 0.9510565400123596, -0.9510565400123596, 0.30901700258255005, 616.9874877929688, -278.2763671875)">
        <path fill="#17c0eb" stroke="#17c0eb" stroke-width=".129" opacity=".62" d="M500.001 226.408l-2.357 4.082 2.357 54.977 2.357-54.977z"/>
        <path fill="#fff" d="M500.001 277.475l-.134.003.134 3.111.134-3.111-.134-.003z"/>
      </g>
      <g transform="matrix(-0.80901700258255, 0.5877852439880371, -0.5877852439880371, -0.80901700258255, 1072.3035888671875, 222.52145385742188)">
        <path fill="#17c0eb" stroke="#17c0eb" stroke-width=".129" opacity=".62" d="M500.001 226.408l-2.357 4.082 2.357 54.977 2.357-54.977z"/>
        <path fill="#fff" d="M500.001 277.475l-.134.003.134 3.111.134-3.111-.134-.003z"/>
      </g>
      <g transform="matrix(-0.80901700258255, -0.5877852439880371, 0.5877852439880371, -0.80901700258255, 736.717041015625, 810.307861328125)">
        <path fill="#17c0eb" stroke="#17c0eb" stroke-width=".129" opacity=".62" d="M500.001 226.408l-2.357 4.082 2.357 54.977 2.357-54.977z"/>
        <path fill="#fff" d="M500.001 277.475l-.134.003.134 3.111.134-3.111-.134-.003z"/>
      </g>
      <g transform="matrix(0.30901700258255005, -0.9510565400123596, 0.9510565400123596, 0.30901700258255005, 73.99694061279297, 672.7820434570312)">
        <path fill="#17c0eb" stroke="#17c0eb" stroke-width=".129" opacity=".62" d="M500.001 226.408l-2.357 4.082 2.357 54.977 2.357-54.977z"/>
        <path fill="#fff" d="M500.001 277.475l-.134.003.134 3.111.134-3.111-.134-.003z"/>
      </g>
    </g>
    <g transform="matrix(0.6691306233406067, 0.7431448101997375, -0.7431448101997375, 0.6691306233406067, 377.578369140625, -277.120849609375)">
      <g>
        <path fill="#17c0eb" stroke="#17c0eb" stroke-width=".129" opacity=".62" d="M500.001 226.408l-2.357 4.082 2.357 54.977 2.357-54.977z"/>
        <path fill="#fff" d="M500.001 277.475l-.134.003.134 3.111.134-3.111-.134-.003z"/>
      </g>
      <g transform="matrix(0.30901700258255005, 0.9510565400123596, -0.9510565400123596, 0.30901700258255005, 616.9874877929688, -278.2763671875)">
        <path fill="#17c0eb" stroke="#17c0eb" stroke-width=".129" opacity=".62" d="M500.001 226.408l-2.357 4.082 2.357 54.977 2.357-54.977z"/>
        <path fill="#fff" d="M500.001 277.475l-.134.003.134 3.111.134-3.111-.134-.003z"/>
      </g>
      <g transform="matrix(-0.80901700258255, 0.5877852439880371, -0.5877852439880371, -0.80901700258255, 1072.3035888671875, 222.52145385742188)">
        <path fill="#17c0eb" stroke="#17c0eb" stroke-width=".129" opacity=".62" d="M500.001 226.408l-2.357 4.082 2.357 54.977 2.357-54.977z"/>
        <path fill="#fff" d="M500.001 277.475l-.134.003.134 3.111.134-3.111-.134-.003z"/>
      </g>
      <g transform="matrix(-0.80901700258255, -0.5877852439880371, 0.5877852439880371, -0.80901700258255, 736.717041015625, 810.307861328125)">
        <path fill="#17c0eb" stroke="#17c0eb" stroke-width=".129" opacity=".62" d="M500.001 226.408l-2.357 4.082 2.357 54.977 2.357-54.977z"/>
        <path fill="#fff" d="M500.001 277.475l-.134.003.134 3.111.134-3.111-.134-.003z"/>
      </g>
      <g transform="matrix(0.30901700258255005, -0.9510565400123596, 0.9510565400123596, 0.30901700258255005, 73.99694061279297, 672.7820434570312)">
        <path fill="#17c0eb" stroke="#17c0eb" stroke-width=".129" opacity=".62" d="M500.001 226.408l-2.357 4.082 2.357 54.977 2.357-54.977z"/>
        <path fill="#fff" d="M500.001 277.475l-.134.003.134 3.111.134-3.111-.134-.003z"/>
      </g>
    </g>
    <g transform="matrix(0.5591928958892822, 0.8290375471115112, -0.8290375471115112, 0.5591928958892822, 457.0668640136719, -288.6837463378906)">
      <g>
        <path fill="#17c0eb" stroke="#17c0eb" stroke-width=".129" opacity=".62" d="M500.001 226.408l-2.357 4.082 2.357 54.977 2.357-54.977z"/>
        <path fill="#fff" d="M500.001 277.475l-.134.003.134 3.111.134-3.111-.134-.003z"/>
      </g>
      <g transform="matrix(0.30901700258255005, 0.9510565400123596, -0.9510565400123596, 0.30901700258255005, 616.9874877929688, -278.2763671875)">
        <path fill="#17c0eb" stroke="#17c0eb" stroke-width=".129" opacity=".62" d="M500.001 226.408l-2.357 4.082 2.357 54.977 2.357-54.977z"/>
        <path fill="#fff" d="M500.001 277.475l-.134.003.134 3.111.134-3.111-.134-.003z"/>
      </g>
      <g transform="matrix(-0.80901700258255, 0.5877852439880371, -0.5877852439880371, -0.80901700258255, 1072.3035888671875, 222.52145385742188)">
        <path fill="#17c0eb" stroke="#17c0eb" stroke-width=".129" opacity=".62" d="M500.001 226.408l-2.357 4.082 2.357 54.977 2.357-54.977z"/>
        <path fill="#fff" d="M500.001 277.475l-.134.003.134 3.111.134-3.111-.134-.003z"/>
      </g>
      <g transform="matrix(-0.80901700258255, -0.5877852439880371, 0.5877852439880371, -0.80901700258255, 736.717041015625, 810.307861328125)">
        <path fill="#17c0eb" stroke="#17c0eb" stroke-width=".129" opacity=".62" d="M500.001 226.408l-2.357 4.082 2.357 54.977 2.357-54.977z"/>
        <path fill="#fff" d="M500.001 277.475l-.134.003.134 3.111.134-3.111-.134-.003z"/>
      </g>
      <g transform="matrix(0.30901700258255005, -0.9510565400123596, 0.9510565400123596, 0.30901700258255005, 73.99694061279297, 672.7820434570312)">
        <path fill="#17c0eb" stroke="#17c0eb" stroke-width=".129" opacity=".62" d="M500.001 226.408l-2.357 4.082 2.357 54.977 2.357-54.977z"/>
        <path fill="#fff" d="M500.001 277.475l-.134.003.134 3.111.134-3.111-.134-.003z"/>
      </g>
    </g>
    <g transform="matrix(0.4383711516857147, 0.8987940549850464, -0.8987940549850464, 0.4383711516857147, 537.3910522460938, -289.0714111328125)">
      <g>
        <path fill="#17c0eb" stroke="#17c0eb" stroke-width=".129" opacity=".62" d="M500.001 226.408l-2.357 4.082 2.357 54.977 2.357-54.977z"/>
        <path fill="#fff" d="M500.001 277.475l-.134.003.134 3.111.134-3.111-.134-.003z"/>
      </g>
      <g transform="matrix(0.30901700258255005, 0.9510565400123596, -0.9510565400123596, 0.30901700258255005, 616.9874877929688, -278.2763671875)">
        <path fill="#17c0eb" stroke="#17c0eb" stroke-width=".129" opacity=".62" d="M500.001 226.408l-2.357 4.082 2.357 54.977 2.357-54.977z"/>
        <path fill="#fff" d="M500.001 277.475l-.134.003.134 3.111.134-3.111-.134-.003z"/>
      </g>
      <g transform="matrix(-0.80901700258255, 0.5877852439880371, -0.5877852439880371, -0.80901700258255, 1072.3035888671875, 222.52145385742188)">
        <path fill="#17c0eb" stroke="#17c0eb" stroke-width=".129" opacity=".62" d="M500.001 226.408l-2.357 4.082 2.357 54.977 2.357-54.977z"/>
        <path fill="#fff" d="M500.001 277.475l-.134.003.134 3.111.134-3.111-.134-.003z"/>
      </g>
      <g transform="matrix(-0.80901700258255, -0.5877852439880371, 0.5877852439880371, -0.80901700258255, 736.717041015625, 810.307861328125)">
        <path fill="#17c0eb" stroke="#17c0eb" stroke-width=".129" opacity=".62" d="M500.001 226.408l-2.357 4.082 2.357 54.977 2.357-54.977z"/>
        <path fill="#fff" d="M500.001 277.475l-.134.003.134 3.111.134-3.111-.134-.003z"/>
      </g>
      <g transform="matrix(0.30901700258255005, -0.9510565400123596, 0.9510565400123596, 0.30901700258255005, 73.99694061279297, 672.7820434570312)">
        <path fill="#17c0eb" stroke="#17c0eb" stroke-width=".129" opacity=".62" d="M500.001 226.408l-2.357 4.082 2.357 54.977 2.357-54.977z"/>
        <path fill="#fff" d="M500.001 277.475l-.134.003.134 3.111.134-3.111-.134-.003z"/>
      </g>
    </g>
    <path fill="red" d="M500 265.844a44.236 44.236 0 0 0-28.969 10.75L456.375 302a44.728 44.728 0 0 0-.75 8.25h5.031c0-21.726 17.618-39.344 39.344-39.344s39.344 17.618 39.344 39.344h5.031a44.85 44.85 0 0 0-.75-8.25l-14.656-25.406A44.249 44.249 0 0 0 500 265.844z"/>
    <path fill="#f60" d="M500 266.656c-11.764 0-22.44 4.675-30.281 12.25l-12.031 20.844a43.596 43.596 0 0 0-1.281 10.5h4.25c0-21.726 17.617-39.344 39.343-39.344s39.344 17.618 39.344 39.344h4.25c0-3.625-.447-7.164-1.281-10.531l-12.031-20.813c-7.841-7.574-18.518-12.25-30.282-12.25z"/>
    <path fill="#ff0" d="M500 267.469c-12.702 0-24.1 5.522-31.938 14.313l-8.718 15.093a42.733 42.733 0 0 0-2.125 13.375h3.437c0-21.726 17.618-39.344 39.344-39.344s39.344 17.618 39.344 39.344h3.437c0-4.673-.74-9.165-2.125-13.375l-8.719-15.095c-7.836-8.788-19.237-14.312-31.938-14.312z"/>
    <path fill="#0f0" d="M500 268.25c-14.55 0-27.372 7.414-34.906 18.656l-2.813 4.875a41.818 41.818 0 0 0-4.282 18.47h2.657c0-21.727 17.617-39.345 39.343-39.345s39.344 17.618 39.344 39.344H542a41.824 41.824 0 0 0-4.28-18.437l-2.845-4.937c-7.536-11.227-20.337-18.625-34.875-18.625z"/>
    <path fill="#0cf" d="M500 269.062c-22.747 0-41.188 18.44-41.188 41.188h1.844c0-21.727 17.618-39.344 39.344-39.344s39.344 17.617 39.344 39.344h1.844c0-22.748-18.44-41.188-41.188-41.188z"/>
    <path fill="#00f" d="M500 269.844c-22.306 0-40.375 18.1-40.375 40.406h1.344c0-21.56 17.472-39.031 39.031-39.031s39.031 17.472 39.031 39.031h1.375c0-22.306-18.1-40.406-40.406-40.406z"/>
    <path fill="purple" d="M500.001 270.657c-21.864 0-39.589 17.725-39.589 39.589l.007.733h.801a35.827 35.827 0 0 1-.007-.733c0-21.422 17.366-38.788 38.788-38.788s38.788 17.366 38.788 38.788l-.007.733h.797l.007-.733c0-21.864-17.721-39.589-39.585-39.589z"/>
    <path fill="#510000" d="M500.395 288.134c-.644-.124-1.226-.484-1.775-.61-.756.725-.835 1.457-.731 2.08.262.14.31.353.878.86s.496.773.462 1.965c-.015.503.07 1.581.579 1.682.548.11.932-.346 1.09-1.16.152-.79.417-1.216.698-1.702.306-1.852-.193-2.508-1.201-3.115z"/>
    <path fill="red" d="M497.168 283.524c-.595.015-1.528 1.012-1.943.475-.239-.308-.279-.902-.037-1.4.559-1.151 1.124-1.716 2.167-2.33 2.378-1.401 3.89-.95 5.074 1.063 1.098 1.772 2.152 3.73 2.246 5.371.03.501.283 1.408-.156 1.86-1.348 1.39-4.596-1.435-6.497-.988-.64.15-1.377.617-1.98.218-.47-.31-.078-.997.272-1.294.612-.52 1.501-2.365 1.38-3.165-.067-.446-.08.179-.526.19z"/>
    <path fill="url(#A)" d="M496.927 282.548c-1.083.445-.966 1.076-1.51 1.59.154.058.766.31 1.364-.301.258-.214.548-.293.677-.362-.305.221-.523.554-.684.684-.404.329-1.034 1.083-1.34 1.846s-.43 1.673-.376 1.782.426.78 1.566 1.232c2.03.807 2.417 2.439 4.477 2.439 1.614 0 1.355-1.056 2.646-.832 1.12.194 1.714-.696.636-1.232-1.371-.468-4.092-.192-5.372.033-.414-4.083-.056-2.65-.152-4.405s-.623-1.86.072-3.281c-.578.872-1.277.734-2.004.807z"/>
    <path fill="#ff2a2a" d="M500.938 279.795c-.04.223-.077.516-.056.6l.278.994c.115.336.162.58.24.928.082.36.401.5.694.722.37.28.084 1.037.315 1.069.184.025.488-1.072.49-1.247a3.8 3.8 0 0 0-.037-.647 15.3 15.3 0 0 0-.426-.872 3.652 3.652 0 0 0-.203-.337 4.204 4.204 0 0 0-.786-.863l-.056-.047-.259-.187-.194-.113z"/>
    <path fill="url(#B)" d="M501.249 287.398c-.718-.188-1.426-.543-2.037-.725-1.2-.359-2.48-1.134-3.366-.814-.317.14-.289.456-.39.91-.042.533-.596 1.32-.136 1.062.685-.383 2.49.733 3.095 1.106.287.177.892.524 1.082 1.022s.092 1.756.041 2.296c-.053.566.119 1.835.686 1.987.611.163 1.078-.323 1.316-1.23.23-.881.405-1.387.757-1.915s.756-.756 1.32-.863 1.382.462 1.382-.203c0-.437-.384-.855-.22-1.454.128-.472-.402-.378-.842-.572-1.036-.319-1.97-.42-2.688-.607z"/>
    <path fill="#910000" d="M498.363 288.902c-.327-.178-2.315-1.478-3.043-1.071-.23.128-.317-.016-.32-.257s.109-.594.184-.866.195-.792.516-1.062c.687-.58 2.269.575 3.108.886l-.445 2.37z"/>
    <path fill="#ff3a3a" d="M501.763 291.361c.916-1.603 1.508-1.397 2.613-1.374.369.008.477-.329.393-.667-.278.624-1.662-.07-2.415.263-1.573.692-1.28 3.77-2.027 4.07.776.651 1.124-1.746 1.436-2.292z"/>
    <g fill="url(#E)">
      <path fill="#fff" d="M453.103 307.645l-9.955 17.237h113.708l-9.956-17.237h-93.797z"/>
      <g id="I">
        <path id="J" d="M449.705 321.364c-1.658 0-3.197.167-4.71.353l-.486.846 7.14-.709c3.293.08 6.283.83 9.786.83h4.526c3.5 0 6.489-.75 9.783-.83 3.295.08 6.304.83 9.803.83h4.53c3.5 0 6.474-.75 9.765-.83 3.293.08 6.27.83 9.769.83h4.543c3.5 0 6.49-.75 9.787-.83 3.296.08 6.28.83 9.782.83h4.53c3.499 0 6.475-.75 9.765-.83 2.55.062 4.92.518 7.486.724l-.515-.893-4.368-.321c-1.529-.02-3.036.03-4.547 0-3.5 0-6.474.748-9.765.829-3.296-.08-6.283-.829-9.786-.829-1.513-.02-3.03.031-4.526 0-3.5 0-6.493.749-9.786.829-3.294-.08-6.284-.829-9.783-.829-1.522-.02-3.042.03-4.547 0-3.5 0-6.476.749-9.765.829-3.294-.08-6.27-.829-9.769-.829-1.522-.021-3.026.031-4.526 0-3.502 0-6.49.749-9.786.829-3.294-.08-6.283-.829-9.783-.829-1.52-.02-3.043.031-4.547 0z"/>
        <path d="M449.705 321.364c-1.658 0-3.197.167-4.71.353l-.486.846 7.14-.709c3.293.08 6.283.83 9.786.83h4.526c3.5 0 6.489-.75 9.783-.83 3.295.08 6.304.83 9.803.83h4.53c3.5 0 6.474-.75 9.765-.83 3.293.08 6.27.83 9.769.83h4.543c3.5 0 6.49-.75 9.787-.83 3.296.08 6.28.83 9.782.83h4.53c3.499 0 6.475-.75 9.765-.83 2.55.062 4.92.518 7.486.724l-.515-.893-4.368-.321c-1.529-.02-3.036.03-4.547 0-3.5 0-6.474.748-9.765.829-3.296-.08-6.283-.829-9.786-.829-1.513-.02-3.03.031-4.526 0-3.5 0-6.493.749-9.786.829-3.294-.08-6.284-.829-9.783-.829-1.522-.02-3.042.03-4.547 0-3.5 0-6.476.749-9.765.829-3.294-.08-6.27-.829-9.769-.829-1.522-.021-3.026.031-4.526 0-3.502 0-6.49.749-9.786.829-3.294-.08-6.283-.829-9.783-.829-1.52-.02-3.043.031-4.547 0z" transform="matrix(1, 0, 0, 1, 0, -1.1130000352859497)"/>
        <path d="M449.705 321.364c-1.658 0-3.197.167-4.71.353l-.486.846 7.14-.709c3.293.08 6.283.83 9.786.83h4.526c3.5 0 6.489-.75 9.783-.83 3.295.08 6.304.83 9.803.83h4.53c3.5 0 6.474-.75 9.765-.83 3.293.08 6.27.83 9.769.83h4.543c3.5 0 6.49-.75 9.787-.83 3.296.08 6.28.83 9.782.83h4.53c3.499 0 6.475-.75 9.765-.83 2.55.062 4.92.518 7.486.724l-.515-.893-4.368-.321c-1.529-.02-3.036.03-4.547 0-3.5 0-6.474.748-9.765.829-3.296-.08-6.283-.829-9.786-.829-1.513-.02-3.03.031-4.526 0-3.5 0-6.493.749-9.786.829-3.294-.08-6.284-.829-9.783-.829-1.522-.02-3.042.03-4.547 0-3.5 0-6.476.749-9.765.829-3.294-.08-6.27-.829-9.769-.829-1.522-.021-3.026.031-4.526 0-3.502 0-6.49.749-9.786.829-3.294-.08-6.283-.829-9.783-.829-1.52-.02-3.043.031-4.547 0z" transform="matrix(1, 0, 0, 1, 0, -2.2300000190734863)"/>
      </g>
      <g transform="matrix(1, 0, 0, 1, 0, -3.3440001010894775)">
        <path d="M449.705 321.364c-1.658 0-3.197.167-4.71.353l-.486.846 7.14-.709c3.293.08 6.283.83 9.786.83h4.526c3.5 0 6.489-.75 9.783-.83 3.295.08 6.304.83 9.803.83h4.53c3.5 0 6.474-.75 9.765-.83 3.293.08 6.27.83 9.769.83h4.543c3.5 0 6.49-.75 9.787-.83 3.296.08 6.28.83 9.782.83h4.53c3.499 0 6.475-.75 9.765-.83 2.55.062 4.92.518 7.486.724l-.515-.893-4.368-.321c-1.529-.02-3.036.03-4.547 0-3.5 0-6.474.748-9.765.829-3.296-.08-6.283-.829-9.786-.829-1.513-.02-3.03.031-4.526 0-3.5 0-6.493.749-9.786.829-3.294-.08-6.284-.829-9.783-.829-1.522-.02-3.042.03-4.547 0-3.5 0-6.476.749-9.765.829-3.294-.08-6.27-.829-9.769-.829-1.522-.021-3.026.031-4.526 0-3.502 0-6.49.749-9.786.829-3.294-.08-6.283-.829-9.783-.829-1.52-.02-3.043.031-4.547 0z"/>
        <path d="M449.705 321.364c-1.658 0-3.197.167-4.71.353l-.486.846 7.14-.709c3.293.08 6.283.83 9.786.83h4.526c3.5 0 6.489-.75 9.783-.83 3.295.08 6.304.83 9.803.83h4.53c3.5 0 6.474-.75 9.765-.83 3.293.08 6.27.83 9.769.83h4.543c3.5 0 6.49-.75 9.787-.83 3.296.08 6.28.83 9.782.83h4.53c3.499 0 6.475-.75 9.765-.83 2.55.062 4.92.518 7.486.724l-.515-.893-4.368-.321c-1.529-.02-3.036.03-4.547 0-3.5 0-6.474.748-9.765.829-3.296-.08-6.283-.829-9.786-.829-1.513-.02-3.03.031-4.526 0-3.5 0-6.493.749-9.786.829-3.294-.08-6.284-.829-9.783-.829-1.522-.02-3.042.03-4.547 0-3.5 0-6.476.749-9.765.829-3.294-.08-6.27-.829-9.769-.829-1.522-.021-3.026.031-4.526 0-3.502 0-6.49.749-9.786.829-3.294-.08-6.283-.829-9.783-.829-1.52-.02-3.043.031-4.547 0z" transform="matrix(1, 0, 0, 1, 0, -1.1130000352859497)"/>
        <path d="M449.705 321.364c-1.658 0-3.197.167-4.71.353l-.486.846 7.14-.709c3.293.08 6.283.83 9.786.83h4.526c3.5 0 6.489-.75 9.783-.83 3.295.08 6.304.83 9.803.83h4.53c3.5 0 6.474-.75 9.765-.83 3.293.08 6.27.83 9.769.83h4.543c3.5 0 6.49-.75 9.787-.83 3.296.08 6.28.83 9.782.83h4.53c3.499 0 6.475-.75 9.765-.83 2.55.062 4.92.518 7.486.724l-.515-.893-4.368-.321c-1.529-.02-3.036.03-4.547 0-3.5 0-6.474.748-9.765.829-3.296-.08-6.283-.829-9.786-.829-1.513-.02-3.03.031-4.526 0-3.5 0-6.493.749-9.786.829-3.294-.08-6.284-.829-9.783-.829-1.522-.02-3.042.03-4.547 0-3.5 0-6.476.749-9.765.829-3.294-.08-6.27-.829-9.769-.829-1.522-.021-3.026.031-4.526 0-3.502 0-6.49.749-9.786.829-3.294-.08-6.283-.829-9.783-.829-1.52-.02-3.043.031-4.547 0z" transform="matrix(1, 0, 0, 1, 0, -2.2300000190734863)"/>
      </g>
      <g transform="matrix(1, 0, 0, 1, 0, -6.690999984741211)">
        <path d="M449.705 321.364c-1.658 0-3.197.167-4.71.353l-.486.846 7.14-.709c3.293.08 6.283.83 9.786.83h4.526c3.5 0 6.489-.75 9.783-.83 3.295.08 6.304.83 9.803.83h4.53c3.5 0 6.474-.75 9.765-.83 3.293.08 6.27.83 9.769.83h4.543c3.5 0 6.49-.75 9.787-.83 3.296.08 6.28.83 9.782.83h4.53c3.499 0 6.475-.75 9.765-.83 2.55.062 4.92.518 7.486.724l-.515-.893-4.368-.321c-1.529-.02-3.036.03-4.547 0-3.5 0-6.474.748-9.765.829-3.296-.08-6.283-.829-9.786-.829-1.513-.02-3.03.031-4.526 0-3.5 0-6.493.749-9.786.829-3.294-.08-6.284-.829-9.783-.829-1.522-.02-3.042.03-4.547 0-3.5 0-6.476.749-9.765.829-3.294-.08-6.27-.829-9.769-.829-1.522-.021-3.026.031-4.526 0-3.502 0-6.49.749-9.786.829-3.294-.08-6.283-.829-9.783-.829-1.52-.02-3.043.031-4.547 0z"/>
        <path d="M449.705 321.364c-1.658 0-3.197.167-4.71.353l-.486.846 7.14-.709c3.293.08 6.283.83 9.786.83h4.526c3.5 0 6.489-.75 9.783-.83 3.295.08 6.304.83 9.803.83h4.53c3.5 0 6.474-.75 9.765-.83 3.293.08 6.27.83 9.769.83h4.543c3.5 0 6.49-.75 9.787-.83 3.296.08 6.28.83 9.782.83h4.53c3.499 0 6.475-.75 9.765-.83 2.55.062 4.92.518 7.486.724l-.515-.893-4.368-.321c-1.529-.02-3.036.03-4.547 0-3.5 0-6.474.748-9.765.829-3.296-.08-6.283-.829-9.786-.829-1.513-.02-3.03.031-4.526 0-3.5 0-6.493.749-9.786.829-3.294-.08-6.284-.829-9.783-.829-1.522-.02-3.042.03-4.547 0-3.5 0-6.476.749-9.765.829-3.294-.08-6.27-.829-9.769-.829-1.522-.021-3.026.031-4.526 0-3.502 0-6.49.749-9.786.829-3.294-.08-6.283-.829-9.783-.829-1.52-.02-3.043.031-4.547 0z" transform="matrix(1, 0, 0, 1, 0, -1.1130000352859497)"/>
        <path d="M449.705 321.364c-1.658 0-3.197.167-4.71.353l-.486.846 7.14-.709c3.293.08 6.283.83 9.786.83h4.526c3.5 0 6.489-.75 9.783-.83 3.295.08 6.304.83 9.803.83h4.53c3.5 0 6.474-.75 9.765-.83 3.293.08 6.27.83 9.769.83h4.543c3.5 0 6.49-.75 9.787-.83 3.296.08 6.28.83 9.782.83h4.53c3.499 0 6.475-.75 9.765-.83 2.55.062 4.92.518 7.486.724l-.515-.893-4.368-.321c-1.529-.02-3.036.03-4.547 0-3.5 0-6.474.748-9.765.829-3.296-.08-6.283-.829-9.786-.829-1.513-.02-3.03.031-4.526 0-3.5 0-6.493.749-9.786.829-3.294-.08-6.284-.829-9.783-.829-1.522-.02-3.042.03-4.547 0-3.5 0-6.476.749-9.765.829-3.294-.08-6.27-.829-9.769-.829-1.522-.021-3.026.031-4.526 0-3.502 0-6.49.749-9.786.829-3.294-.08-6.283-.829-9.783-.829-1.52-.02-3.043.031-4.547 0z" transform="matrix(1, 0, 0, 1, 0, -2.2300000190734863)"/>
      </g>
      <path d="M453.23 307.458l-.123.215h93.79l-.124-.215H453.23zm-.219.377l-.127.22h94.235l-.127-.22h-93.98zm-.2.346l-.205.356h94.792l-.205-.356H452.81zm-.318.55l-.25.434h95.518l-.25-.433h-95.018zm-.399.692l-.25.434h96.316l-.25-.434h-95.816zm-.399.691l-.247.43h97.107l-.247-.43h-96.613zm-.398.692l-.25.43h97.91l-.25-.43h-97.41zm-.43.744l-.304.53h98.877l-.303-.53h-98.27zm6.49.737c3.45.662 3.782 0 3.782 0zm81.503 0s.331.662 3.782 0z"/>
    </g>
    <g fill="#ccd11e">
      <g id="K">
        <path fill="url(#C)" d="M530.631 297.043c-1.709 0-2.232.862-2.232.862-2.736 10.576-11.807 21.333-22.6 21.333h-8.08v10.768h61.514l-6.187-10.954c-9.707-1.449-17.64-11.373-20.166-21.147 0 0-.54-.862-2.25-.862z"/>
        <path fill="#97c924" d="M530.631 297.465c-.784 0-1.26.18-1.538.355-.264.165-.315.276-.321.288 0 .007-.015.01-.018.016-1.4 5.323-4.352 10.669-8.334 14.707-4.012 4.07-9.07 6.83-14.605 6.83h-7.674v9.922h60.855l-5.68-10.058c-4.687-.612-8.973-3.163-12.458-6.694-3.986-4.038-6.932-9.384-8.334-14.707l-.017-.016c-.007-.012-.07-.105-.338-.271-.283-.176-.754-.372-1.538-.372z"/>
        <path fill="#ede71f" d="M530.63 297.465c.147 0 .28.021.406.034V308.3c-.029 2.34-.83 4.223-2.012 6.441-.547 1.554-.986.963-2.35 2.857-1.83.654-3.186.909-5.138 1.216-2.517.398-8.121.75-10.887.136 3.641-1.068 6.961-3.27 9.771-6.12a30.57 30.57 0 0 0 2.13-2.4 33.663 33.663 0 0 0 3.01-4.48c.352-.626.686-1.248.997-1.893.467-.966.883-1.95 1.25-2.94.124-.331.245-.667.356-.998.222-.664.417-1.33.592-1.995.002-.006.015-.01.016-.017s.058-.122.321-.287a2.23 2.23 0 0 1 .575-.237h.017c.252-.067.554-.118.946-.118z"/>
        <path fill="#c6cb24" d="M529.938 298.902c-.412 6.034-2.277 13.192-6.644 17.81-1.607 1.337-3.66 2.55-5.646 2.255 6.77-5.51 10.885-13.947 12.29-20.065z"/>
        <path fill="#9ecb34" d="M524.494 309.281c-1.002 2.721-4.788 6.746-8.84 10.045-1.15.035-1.76.101-2.804.038 2.468-.225 8.221-5.083 11.644-10.083z"/>
      </g>
      <g transform="matrix(1, 0, 0, 1, -15.340999603271484, 0)">
        <path fill="url(#C)" d="M530.631 297.043c-1.709 0-2.232.862-2.232.862-2.736 10.576-11.807 21.333-22.6 21.333h-8.08v10.768h61.514l-6.187-10.954c-9.707-1.449-17.64-11.373-20.166-21.147 0 0-.54-.862-2.25-.862z"/>
        <path fill="#97c924" d="M530.631 297.465c-.784 0-1.26.18-1.538.355-.264.165-.315.276-.321.288 0 .007-.015.01-.018.016-1.4 5.323-4.352 10.669-8.334 14.707-4.012 4.07-9.07 6.83-14.605 6.83h-7.674v9.922h60.855l-5.68-10.058c-4.687-.612-8.973-3.163-12.458-6.694-3.986-4.038-6.932-9.384-8.334-14.707l-.017-.016c-.007-.012-.07-.105-.338-.271-.283-.176-.754-.372-1.538-.372z"/>
        <path fill="#ede71f" d="M530.63 297.465c.147 0 .28.021.406.034V308.3c-.029 2.34-.83 4.223-2.012 6.441-.547 1.554-.986.963-2.35 2.857-1.83.654-3.186.909-5.138 1.216-2.517.398-8.121.75-10.887.136 3.641-1.068 6.961-3.27 9.771-6.12a30.57 30.57 0 0 0 2.13-2.4 33.663 33.663 0 0 0 3.01-4.48c.352-.626.686-1.248.997-1.893.467-.966.883-1.95 1.25-2.94.124-.331.245-.667.356-.998.222-.664.417-1.33.592-1.995.002-.006.015-.01.016-.017s.058-.122.321-.287a2.23 2.23 0 0 1 .575-.237h.017c.252-.067.554-.118.946-.118z"/>
        <path fill="#c6cb24" d="M529.938 298.902c-.412 6.034-2.277 13.192-6.644 17.81-1.607 1.337-3.66 2.55-5.646 2.255 6.77-5.51 10.885-13.947 12.29-20.065z"/>
        <path fill="#9ecb34" d="M524.494 309.281c-1.002 2.721-4.788 6.746-8.84 10.045-1.15.035-1.76.101-2.804.038 2.468-.225 8.221-5.083 11.644-10.083z"/>
      </g>
      <g fill="#c6cb24">
        <path fill="url(#C)" d="M502.218 297.911c2.735 10.575 11.79 21.333 22.583 21.333h8.089v10.768h-65.812l-.017-10.768h8.072c10.792 0 19.863-10.758 22.6-21.333 0 0 .534-.866 2.243-.866s2.243.866 2.243.866z"/>
        <path fill="#97c924" d="M499.975 297.465c.784 0 1.255.196 1.538.372.269.166.332.259.339.27l.017.017c1.401 5.323 4.348 10.669 8.333 14.707 4.017 4.07 9.087 6.83 14.623 6.83h7.64v9.922h-64.98v-9.923h7.675c5.535 0 10.593-2.76 14.605-6.83 3.982-4.037 6.934-9.383 8.334-14.706.003-.007.015-.01.017-.016.006-.012.057-.123.32-.288.28-.174.755-.355 1.539-.355z"/>
        <path fill="#ede71f" d="M499.263 297.53a3.4 3.4 0 0 0-.242.055h-.018a2.184 2.184 0 0 0-.572.236c-.264.165-.314.274-.32.286-.003.006-.017.01-.018.017l-.593 1.997-.356.995-1.249 2.942a34.21 34.21 0 0 1-.998 1.894 33.634 33.634 0 0 1-3.01 4.477 30.73 30.73 0 0 1-2.13 2.403c-2.81 2.85-6.128 5.05-9.769 6.117 2.765.615 4.032-.056 6.549-.454 1.952-.308 4.21-.563 6.043-1.217 1.364-1.894.899-1.3 1.446-2.854 1.181-2.218 2.906-4.222 3.334-6.681 1.619-3.022 1.903-8.614 1.903-10.213z"/>
        <path d="M499.275 298.902c-.412 6.034-2.277 13.192-6.644 17.81-1.606 1.337-3.66 2.55-5.646 2.255 6.77-5.51 10.885-13.947 12.29-20.065z"/>
        <path fill="#9ecb34" d="M493.832 309.281c-1.002 2.721-4.788 6.747-8.84 10.045-1.15.035-1.76.101-2.804.038 2.467-.225 8.222-5.083 11.644-10.083z"/>
        <path fill="#ede71f" d="M500.951 297.584h.018a2.21 2.21 0 0 1 .571.236c.264.165.315.274.321.286.002.006.016.011.018.018l.592 1.996.357.995 1.249 2.942.998 1.895a33.634 33.634 0 0 0 3.01 4.477 30.73 30.73 0 0 0 2.13 2.402c2.81 2.85 6.128 5.445 9.768 6.512-7.245.028-10.389-.63-13.022-4.016s-3.606-4.868-4.14-6.937-2.026-6.57-1.87-10.806z"/>
        <path d="M501.476 298.902c.412 6.034 2.22 12.006 6.587 16.625 1.607 1.337 3.66 2.55 5.646 2.255-7.335-5.002-10.829-12.762-12.233-18.88z"/>
      </g>
      <g id="L">
        <path fill="url(#C)" d="M484.749 297.043c-1.71 0-2.248.862-2.248.862-2.523 9.747-11.825 22.318-21.497 23.811l-4.79 8.29h49.015v-11.348c-8.825-2.371-15.89-11.63-18.248-20.753 0 0-.523-.862-2.232-.862z"/>
        <path fill="#97c924" d="M484.749 297.465c-.784 0-1.255.196-1.538.372-.269.166-.332.259-.338.27l-.017.017c-1.402 5.323-4.678 10.705-8.08 14.99s-9.72 8.617-14.042 9.076l-4.282 7.393h48.06V318.89c-3.554-1.091-6.8-3.267-9.552-6.06-3.982-4.037-6.934-9.383-8.334-14.706-.002-.007-.015-.01-.017-.016-.006-.012-.058-.123-.321-.288-.28-.174-.755-.355-1.539-.355z"/>
        <path fill="#93bc30" d="M483.445 298.903c-.617 9.043-5.653 20.454-11.34 22.42-1.855.64-5.099.864-6.227 1.008 9.948-4.731 15.828-15.853 17.567-23.428z"/>
        <path fill="#ede71f" d="M484.746 297.465c-.147 0-.28.021-.406.034V308.3c.03 2.34.831 4.223 2.012 6.441.069.194.136.354.203.49.41 1.086.713 1.463 2.282 2.654 4.987 3.787 11.17 4.353 14.808 4.04-1.14-.898-2.358-1.715-3.431-2.467 1.711-.056 3.35-.25 4.513-.508-3.64-1.067-6.96-3.27-9.77-6.12a30.523 30.523 0 0 1-1.403-1.554l-.592-.812c-1.118-1.4-2.263-2.947-3.145-4.513a34.164 34.164 0 0 1-.997-1.894 34.023 34.023 0 0 1-1.606-3.938 31.676 31.676 0 0 1-.592-1.995c-.002-.006-.015-.01-.017-.017s-.057-.122-.321-.287a2.207 2.207 0 0 0-.575-.237h-.017a3.614 3.614 0 0 0-.946-.118z"/>
        <path d="M485.446 298.902c.412 6.034 2.277 13.192 6.644 17.81 1.606 1.337 3.66 2.55 5.646 2.255-6.77-5.51-10.886-13.947-12.29-20.065z"/>
        <path fill="#9ecb34" d="M489.613 307.247c2.369 5.837 8.37 11.29 14.543 14.954 1.15.035 1.492.003 2.537-.06-4.419-2.371-11.539-5.754-17.08-14.894z"/>
      </g>
      <g transform="matrix(1, 0, 0, 1, -15.430000305175781, 0)" fill="#c6cb24">
        <path fill="url(#C)" d="M484.749 297.043c-1.71 0-2.248.862-2.248.862-2.523 9.747-11.825 22.318-21.497 23.811l-4.79 8.29h49.015v-11.348c-8.825-2.371-15.89-11.63-18.248-20.753 0 0-.523-.862-2.232-.862z"/>
        <path fill="#97c924" d="M484.749 297.465c-.784 0-1.255.196-1.538.372-.269.166-.332.259-.338.27l-.017.017c-1.402 5.323-4.678 10.705-8.08 14.99s-9.72 8.617-14.042 9.076l-4.282 7.393h48.06V318.89c-3.554-1.091-6.8-3.267-9.552-6.06-3.982-4.037-6.934-9.383-8.334-14.706-.002-.007-.015-.01-.017-.016-.006-.012-.058-.123-.321-.288-.28-.174-.755-.355-1.539-.355z"/>
        <path fill="#93bc30" d="M483.445 298.903c-.617 9.043-5.653 20.454-11.34 22.42-1.855.64-5.099.864-6.227 1.008 9.948-4.731 15.828-15.853 17.567-23.428z"/>
        <path fill="#ede71f" d="M484.746 297.465c-.147 0-.28.021-.406.034V308.3c.03 2.34.831 4.223 2.012 6.441.069.194.136.354.203.49.41 1.086.713 1.463 2.282 2.654 4.987 3.787 11.17 4.353 14.808 4.04-1.14-.898-2.358-1.715-3.431-2.467 1.711-.056 3.35-.25 4.513-.508-3.64-1.067-6.96-3.27-9.77-6.12a30.523 30.523 0 0 1-1.403-1.554l-.592-.812c-1.118-1.4-2.263-2.947-3.145-4.513a34.164 34.164 0 0 1-.997-1.894 34.023 34.023 0 0 1-1.606-3.938 31.676 31.676 0 0 1-.592-1.995c-.002-.006-.015-.01-.017-.017s-.057-.122-.321-.287a2.207 2.207 0 0 0-.575-.237h-.017a3.614 3.614 0 0 0-.946-.118z"/>
        <path d="M485.446 298.902c.412 6.034 2.277 13.192 6.644 17.81 1.606 1.337 3.66 2.55 5.646 2.255-6.77-5.51-10.886-13.947-12.29-20.065z"/>
        <path fill="#9ecb34" d="M489.613 307.247c2.369 5.837 8.37 11.29 14.543 14.954 1.15.035 1.492.003 2.537-.06-4.419-2.371-11.539-5.754-17.08-14.894z"/>
      </g>
    </g>
    <path fill="#fff" d="M556.5 324.692c-.574.203-4.421-.19-6.433-.044l-1.28.336c-1.123-.008-2.238.024-3.33 0-3.602 0-6.649.948-10.075.948-3.433 0-6.47-.948-10.075-.948-1.12-.008-2.234.025-3.33 0-3.602 0-6.647.948-10.076.948s-6.473-.948-10.075-.948c-1.131-.007-2.242.023-3.348 0-3.602 0-6.632.948-10.058.948s-6.456-.948-10.058-.948c-.267 0-.516.009-.776.017l-.557-.017c-.12 0-.222-.003-.34 0-.116-.003-.236 0-.355 0-.181 0-.345.013-.523.017l-.78-.017c-3.605 0-6.642.949-10.075.948s-6.473-.948-10.075-.948c-.262 0-.522.01-.776.017-.18-.004-.339-.017-.522-.017-.124 0-.252-.003-.374 0-.117-.003-.237 0-.356 0-.181 0-.362.013-.54.017l-.776-.017c-2.88 0-6.218.607-8.936.85l-6.273 10.858 62.972-.007 64.375.007z"/>
    <path fill="url(#D)" d="M547.993 323.111l-.596.007c-3.24.095-5.564 1.115-11.2 1.115s-6.219-1.019-12.584-.879c-5.947.131-8.443 1.262-11.67 1.217s-8.473-.697-12.51-.275-8.828 1.284-11.973 1.291c-3.909-.017-7.82-.73-11.906-.324s-5.997 1.5-11.063 1.485c-4.356-.013-9.083-.698-12.746-.695-3.435.003-7.267.957-10.086 1.443l-.843 1.464c2.247-.26 8.551-1.218 10.802-1.277 2.344-.061 10.717.483 15.335.325s5.158-1.172 10.618-1.172c3.801 0 6.666.399 10.566.399 2.434 0 4.643-1.242 8.343-1.242l2.794-.091c3.119-.515 8.384.045 12.048.232 3.315.173 5.457-.615 8.914-.73l4.474-.148c3.46-.115 6.422.64 9.68.624 3.25-.2 6.403-.922 9.86-1.037l4.49-.148c2.287-.076 5.837.078 8.273.501l-.84-1.45c-2.379-.076-5.311-.635-8.18-.635z"/>
    <g id="M">
      <path id="N" fill="url(#D)" d="M450.312 334.748c-3.457 0-6.402.853-9.652.945-1.21-.033-2.367-.183-3.535-.345l-.49.85 1.488.063h4.474c3.457 0 6.382-.852 9.634-.945 3.254.092 6.206.945 9.666.945h4.474c3.457 0 6.412-.853 9.666-.945 3.256.092 6.23.945 9.687.945h4.47c3.457 0 6.401-.853 9.652-.945 3.253.092 6.191.945 9.649.945h4.49c3.458 0 6.41-.853 9.667-.945 3.257.092 6.21.945 9.67.945h4.47c3.456 0 6.4-.853 9.651-.945 3.253.092 6.21.945 9.666.945h4.474l1.778-.077-.463-.797-3.235.306c-3.254-.092-6.195-.945-9.652-.945-1.51-.02-2.997.03-4.49 0-3.458 0-6.397.853-9.649.945-3.257-.091-6.206-.945-9.666-.945-1.496-.02-2.993.03-4.473 0-3.458 0-6.413.853-9.667.945-3.254-.092-6.209-.945-9.666-.945-1.503-.02-3.003.03-4.49 0-3.458 0-6.4.853-9.65.945-3.253-.092-6.194-.945-9.651-.945-1.506-.02-2.99.03-4.474 0-3.46 0-6.409.854-9.666.945-3.254-.092-6.208-.945-9.666-.945-1.502-.02-3.006.03-4.49 0z"/>
      <path fill="url(#D)" d="M450.312 334.748c-3.457 0-6.402.853-9.652.945-1.21-.033-2.367-.183-3.535-.345l-.49.85 1.488.063h4.474c3.457 0 6.382-.852 9.634-.945 3.254.092 6.206.945 9.666.945h4.474c3.457 0 6.412-.853 9.666-.945 3.256.092 6.23.945 9.687.945h4.47c3.457 0 6.401-.853 9.652-.945 3.253.092 6.191.945 9.649.945h4.49c3.458 0 6.41-.853 9.667-.945 3.257.092 6.21.945 9.67.945h4.47c3.456 0 6.4-.853 9.651-.945 3.253.092 6.21.945 9.666.945h4.474l1.778-.077-.463-.797-3.235.306c-3.254-.092-6.195-.945-9.652-.945-1.51-.02-2.997.03-4.49 0-3.458 0-6.397.853-9.649.945-3.257-.091-6.206-.945-9.666-.945-1.496-.02-2.993.03-4.473 0-3.458 0-6.413.853-9.667.945-3.254-.092-6.209-.945-9.666-.945-1.503-.02-3.003.03-4.49 0-3.458 0-6.4.853-9.65.945-3.253-.092-6.194-.945-9.651-.945-1.506-.02-2.99.03-4.474 0-3.46 0-6.409.854-9.666.945-3.254-.092-6.208-.945-9.666-.945-1.502-.02-3.006.03-4.49 0z" transform="matrix(1, 0, 0, 1, 0, -1.2890000343322754)"/>
      <path fill="url(#D)" d="M450.312 334.748c-3.457 0-6.402.853-9.652.945-1.21-.033-2.367-.183-3.535-.345l-.49.85 1.488.063h4.474c3.457 0 6.382-.852 9.634-.945 3.254.092 6.206.945 9.666.945h4.474c3.457 0 6.412-.853 9.666-.945 3.256.092 6.23.945 9.687.945h4.47c3.457 0 6.401-.853 9.652-.945 3.253.092 6.191.945 9.649.945h4.49c3.458 0 6.41-.853 9.667-.945 3.257.092 6.21.945 9.67.945h4.47c3.456 0 6.4-.853 9.651-.945 3.253.092 6.21.945 9.666.945h4.474l1.778-.077-.463-.797-3.235.306c-3.254-.092-6.195-.945-9.652-.945-1.51-.02-2.997.03-4.49 0-3.458 0-6.397.853-9.649.945-3.257-.091-6.206-.945-9.666-.945-1.496-.02-2.993.03-4.473 0-3.458 0-6.413.853-9.667.945-3.254-.092-6.209-.945-9.666-.945-1.503-.02-3.003.03-4.49 0-3.458 0-6.4.853-9.65.945-3.253-.092-6.194-.945-9.651-.945-1.506-.02-2.99.03-4.474 0-3.46 0-6.409.854-9.666.945-3.254-.092-6.208-.945-9.666-.945-1.502-.02-3.006.03-4.49 0z" transform="matrix(1, 0, 0, 1, 0, -2.575000047683716)"/>
    </g>
    <g transform="matrix(1, 0, 0, 1, 0, -3.867000102996826)">
      <path fill="url(#D)" d="M450.312 334.748c-3.457 0-6.402.853-9.652.945-1.21-.033-2.367-.183-3.535-.345l-.49.85 1.488.063h4.474c3.457 0 6.382-.852 9.634-.945 3.254.092 6.206.945 9.666.945h4.474c3.457 0 6.412-.853 9.666-.945 3.256.092 6.23.945 9.687.945h4.47c3.457 0 6.401-.853 9.652-.945 3.253.092 6.191.945 9.649.945h4.49c3.458 0 6.41-.853 9.667-.945 3.257.092 6.21.945 9.67.945h4.47c3.456 0 6.4-.853 9.651-.945 3.253.092 6.21.945 9.666.945h4.474l1.778-.077-.463-.797-3.235.306c-3.254-.092-6.195-.945-9.652-.945-1.51-.02-2.997.03-4.49 0-3.458 0-6.397.853-9.649.945-3.257-.091-6.206-.945-9.666-.945-1.496-.02-2.993.03-4.473 0-3.458 0-6.413.853-9.667.945-3.254-.092-6.209-.945-9.666-.945-1.503-.02-3.003.03-4.49 0-3.458 0-6.4.853-9.65.945-3.253-.092-6.194-.945-9.651-.945-1.506-.02-2.99.03-4.474 0-3.46 0-6.409.854-9.666.945-3.254-.092-6.208-.945-9.666-.945-1.502-.02-3.006.03-4.49 0z"/>
      <path fill="url(#D)" d="M450.312 334.748c-3.457 0-6.402.853-9.652.945-1.21-.033-2.367-.183-3.535-.345l-.49.85 1.488.063h4.474c3.457 0 6.382-.852 9.634-.945 3.254.092 6.206.945 9.666.945h4.474c3.457 0 6.412-.853 9.666-.945 3.256.092 6.23.945 9.687.945h4.47c3.457 0 6.401-.853 9.652-.945 3.253.092 6.191.945 9.649.945h4.49c3.458 0 6.41-.853 9.667-.945 3.257.092 6.21.945 9.67.945h4.47c3.456 0 6.4-.853 9.651-.945 3.253.092 6.21.945 9.666.945h4.474l1.778-.077-.463-.797-3.235.306c-3.254-.092-6.195-.945-9.652-.945-1.51-.02-2.997.03-4.49 0-3.458 0-6.397.853-9.649.945-3.257-.091-6.206-.945-9.666-.945-1.496-.02-2.993.03-4.473 0-3.458 0-6.413.853-9.667.945-3.254-.092-6.209-.945-9.666-.945-1.503-.02-3.003.03-4.49 0-3.458 0-6.4.853-9.65.945-3.253-.092-6.194-.945-9.651-.945-1.506-.02-2.99.03-4.474 0-3.46 0-6.409.854-9.666.945-3.254-.092-6.208-.945-9.666-.945-1.502-.02-3.006.03-4.49 0z" transform="matrix(1, 0, 0, 1, 0, -1.2890000343322754)"/>
      <path fill="url(#D)" d="M450.312 334.748c-3.457 0-6.402.853-9.652.945-1.21-.033-2.367-.183-3.535-.345l-.49.85 1.488.063h4.474c3.457 0 6.382-.852 9.634-.945 3.254.092 6.206.945 9.666.945h4.474c3.457 0 6.412-.853 9.666-.945 3.256.092 6.23.945 9.687.945h4.47c3.457 0 6.401-.853 9.652-.945 3.253.092 6.191.945 9.649.945h4.49c3.458 0 6.41-.853 9.667-.945 3.257.092 6.21.945 9.67.945h4.47c3.456 0 6.4-.853 9.651-.945 3.253.092 6.21.945 9.666.945h4.474l1.778-.077-.463-.797-3.235.306c-3.254-.092-6.195-.945-9.652-.945-1.51-.02-2.997.03-4.49 0-3.458 0-6.397.853-9.649.945-3.257-.091-6.206-.945-9.666-.945-1.496-.02-2.993.03-4.473 0-3.458 0-6.413.853-9.667.945-3.254-.092-6.209-.945-9.666-.945-1.503-.02-3.003.03-4.49 0-3.458 0-6.4.853-9.65.945-3.253-.092-6.194-.945-9.651-.945-1.506-.02-2.99.03-4.474 0-3.46 0-6.409.854-9.666.945-3.254-.092-6.208-.945-9.666-.945-1.502-.02-3.006.03-4.49 0z" transform="matrix(1, 0, 0, 1, 0, -2.575000047683716)"/>
    </g>
    <g transform="matrix(1, 0, 0, 1, 0, -7.729000091552734)">
      <path fill="url(#D)" d="M450.312 334.748c-3.457 0-6.402.853-9.652.945-1.21-.033-2.367-.183-3.535-.345l-.49.85 1.488.063h4.474c3.457 0 6.382-.852 9.634-.945 3.254.092 6.206.945 9.666.945h4.474c3.457 0 6.412-.853 9.666-.945 3.256.092 6.23.945 9.687.945h4.47c3.457 0 6.401-.853 9.652-.945 3.253.092 6.191.945 9.649.945h4.49c3.458 0 6.41-.853 9.667-.945 3.257.092 6.21.945 9.67.945h4.47c3.456 0 6.4-.853 9.651-.945 3.253.092 6.21.945 9.666.945h4.474l1.778-.077-.463-.797-3.235.306c-3.254-.092-6.195-.945-9.652-.945-1.51-.02-2.997.03-4.49 0-3.458 0-6.397.853-9.649.945-3.257-.091-6.206-.945-9.666-.945-1.496-.02-2.993.03-4.473 0-3.458 0-6.413.853-9.667.945-3.254-.092-6.209-.945-9.666-.945-1.503-.02-3.003.03-4.49 0-3.458 0-6.4.853-9.65.945-3.253-.092-6.194-.945-9.651-.945-1.506-.02-2.99.03-4.474 0-3.46 0-6.409.854-9.666.945-3.254-.092-6.208-.945-9.666-.945-1.502-.02-3.006.03-4.49 0z"/>
      <path fill="url(#D)" d="M450.312 334.748c-3.457 0-6.402.853-9.652.945-1.21-.033-2.367-.183-3.535-.345l-.49.85 1.488.063h4.474c3.457 0 6.382-.852 9.634-.945 3.254.092 6.206.945 9.666.945h4.474c3.457 0 6.412-.853 9.666-.945 3.256.092 6.23.945 9.687.945h4.47c3.457 0 6.401-.853 9.652-.945 3.253.092 6.191.945 9.649.945h4.49c3.458 0 6.41-.853 9.667-.945 3.257.092 6.21.945 9.67.945h4.47c3.456 0 6.4-.853 9.651-.945 3.253.092 6.21.945 9.666.945h4.474l1.778-.077-.463-.797-3.235.306c-3.254-.092-6.195-.945-9.652-.945-1.51-.02-2.997.03-4.49 0-3.458 0-6.397.853-9.649.945-3.257-.091-6.206-.945-9.666-.945-1.496-.02-2.993.03-4.473 0-3.458 0-6.413.853-9.667.945-3.254-.092-6.209-.945-9.666-.945-1.503-.02-3.003.03-4.49 0-3.458 0-6.4.853-9.65.945-3.253-.092-6.194-.945-9.651-.945-1.506-.02-2.99.03-4.474 0-3.46 0-6.409.854-9.666.945-3.254-.092-6.208-.945-9.666-.945-1.502-.02-3.006.03-4.49 0z" transform="matrix(1, 0, 0, 1, 0, -1.2890000343322754)"/>
      <path fill="url(#D)" d="M450.312 334.748c-3.457 0-6.402.853-9.652.945-1.21-.033-2.367-.183-3.535-.345l-.49.85 1.488.063h4.474c3.457 0 6.382-.852 9.634-.945 3.254.092 6.206.945 9.666.945h4.474c3.457 0 6.412-.853 9.666-.945 3.256.092 6.23.945 9.687.945h4.47c3.457 0 6.401-.853 9.652-.945 3.253.092 6.191.945 9.649.945h4.49c3.458 0 6.41-.853 9.667-.945 3.257.092 6.21.945 9.67.945h4.47c3.456 0 6.4-.853 9.651-.945 3.253.092 6.21.945 9.666.945h4.474l1.778-.077-.463-.797-3.235.306c-3.254-.092-6.195-.945-9.652-.945-1.51-.02-2.997.03-4.49 0-3.458 0-6.397.853-9.649.945-3.257-.091-6.206-.945-9.666-.945-1.496-.02-2.993.03-4.473 0-3.458 0-6.413.853-9.667.945-3.254-.092-6.209-.945-9.666-.945-1.503-.02-3.003.03-4.49 0-3.458 0-6.4.853-9.65.945-3.253-.092-6.194-.945-9.651-.945-1.506-.02-2.99.03-4.474 0-3.46 0-6.409.854-9.666.945-3.254-.092-6.208-.945-9.666-.945-1.502-.02-3.006.03-4.49 0z" transform="matrix(1, 0, 0, 1, 0, -2.575000047683716)"/>
    </g>
    <path fill="#97c924" d="M443.846 324.705l-2.427 4.191c2.839-.47 7.102-1.703 10.634-1.706 3.663-.003 8.082.903 12.438.916 5.066.014 6.976-1.079 11.063-1.485s7.998.527 11.906.545c3.145-.007 7.936-1.09 11.973-1.512s7.737.293 12.603.369 5.63-1.18 11.576-1.31c6.366-.141 6.947.877 12.584.877 4.242.229 7.883-.854 11.666-1.121s5.539.043 8.305.109l-1.838-3.253c-.03 0-.06.003-.092.004l-101.246 2.226z"/>
    <path fill="#fff" d="M550.067 324.648l3.847.276a91.39 91.39 0 0 0 2.955.253l-.37-.485c-.573.203-4.42-.19-6.432-.044z"/>
  </g>
  <path fill="#c8a400" d="M500 224.874l-32.142 55.686L435 337.459l64.298-.007 65.702.007-32.153-55.683L500 224.874zm0 3.002l31.55 54.652 30.85 53.428-63.102-.004-61.701.004 31.56-54.645z"/>
</svg>