<?xml version="1.0" encoding="UTF-8" standalone="no"?>
<!-- Created with Inkscape (http://www.inkscape.org/) -->

<svg
   width="200mm"
   height="140mm"
   viewBox="0 0 200 140"
   version="1.1"
   id="svg1"
   xml:space="preserve"
   inkscape:version="1.3.2 (091e20e, 2023-11-25, custom)"
   sodipodi:docname="Bandeira do Cruzeiro.svg"
   xmlns:inkscape="http://www.inkscape.org/namespaces/inkscape"
   xmlns:sodipodi="http://sodipodi.sourceforge.net/DTD/sodipodi-0.dtd"
   xmlns="http://www.w3.org/2000/svg"
   xmlns:svg="http://www.w3.org/2000/svg"><sodipodi:namedview
     id="namedview1"
     pagecolor="#ffffff"
     bordercolor="#666666"
     borderopacity="1.0"
     inkscape:showpageshadow="2"
     inkscape:pageopacity="0.0"
     inkscape:pagecheckerboard="0"
     inkscape:deskcolor="#d1d1d1"
     inkscape:document-units="mm"
     inkscape:zoom="1.4627806"
     inkscape:cx="242.00485"
     inkscape:cy="319.5968"
     inkscape:window-width="1920"
     inkscape:window-height="1017"
     inkscape:window-x="-8"
     inkscape:window-y="-8"
     inkscape:window-maximized="1"
     inkscape:current-layer="layer1" /><defs
     id="defs1" /><g
     inkscape:label="Camada 1"
     inkscape:groupmode="layer"
     id="layer1"
     transform="translate(-20.90209,-84.137505)"><rect
       style="fill:#1c3264;fill-opacity:1;fill-rule:evenodd;stroke-width:0.973948;stroke-dasharray:none"
       id="rect1-9-2"
       width="200"
       height="140"
       x="20.90209"
       y="84.137505" /><g
       id="g2"><path
         sodipodi:type="star"
         style="fill:#ffffff;fill-opacity:1;fill-rule:evenodd;stroke:none;stroke-width:0.998;stroke-dasharray:none"
         id="path1"
         inkscape:flatsided="false"
         sodipodi:sides="5"
         sodipodi:cx="391.55325"
         sodipodi:cy="225.26398"
         sodipodi:r1="18.624985"
         sodipodi:r2="7.4499931"
         sodipodi:arg1="-1.5707963"
         sodipodi:arg2="-0.9424778"
         inkscape:rounded="0"
         inkscape:randomized="0"
         d="m 391.55325,206.63899 4.379,12.59782 13.33442,0.27173 -10.62805,8.05761 3.86212,12.76576 -10.94749,-7.61794 -10.94749,7.61794 3.86213,-12.76576 -10.62805,-8.05761 13.33442,-0.27173 z"
         transform="matrix(0.28227197,0,0,0.28227197,10.377582,91.053827)"
         inkscape:transform-center-y="-0.50202777" /><path
         sodipodi:type="star"
         style="fill:#ffffff;fill-opacity:1;fill-rule:evenodd;stroke:none;stroke-width:0.998;stroke-dasharray:none"
         id="path1-6"
         inkscape:flatsided="false"
         sodipodi:sides="5"
         sodipodi:cx="391.55325"
         sodipodi:cy="225.26398"
         sodipodi:r1="18.624985"
         sodipodi:r2="7.4499931"
         sodipodi:arg1="-1.5707963"
         sodipodi:arg2="-0.9424778"
         inkscape:rounded="0"
         inkscape:randomized="0"
         d="m 391.55325,206.63899 4.379,12.59782 13.33442,0.27173 -10.62805,8.05761 3.86212,12.76576 -10.94749,-7.61794 -10.94749,7.61794 3.86213,-12.76576 -10.62805,-8.05761 13.33442,-0.27173 z"
         transform="matrix(0.28227197,0,0,0.28227197,10.377582,76.237151)"
         inkscape:transform-center-y="-0.50202777" /><path
         sodipodi:type="star"
         style="fill:#ffffff;fill-opacity:1;fill-rule:evenodd;stroke:none;stroke-width:0.998;stroke-dasharray:none"
         id="path1-9"
         inkscape:flatsided="false"
         sodipodi:sides="5"
         sodipodi:cx="391.55325"
         sodipodi:cy="225.26398"
         sodipodi:r1="18.624985"
         sodipodi:r2="7.4499931"
         sodipodi:arg1="-1.5707963"
         sodipodi:arg2="-0.9424778"
         inkscape:rounded="0"
         inkscape:randomized="0"
         d="m 391.55325,206.63899 4.379,12.59782 13.33442,0.27173 -10.62805,8.05761 3.86212,12.76576 -10.94749,-7.61794 -10.94749,7.61794 3.86213,-12.76576 -10.62805,-8.05761 13.33442,-0.27173 z"
         transform="matrix(0.28227197,0,0,0.28227197,25.194258,91.053827)"
         inkscape:transform-center-y="-0.50202777" /><path
         sodipodi:type="star"
         style="fill:#ffffff;fill-opacity:1;fill-rule:evenodd;stroke:none;stroke-width:0.998;stroke-dasharray:none"
         id="path1-9-1"
         inkscape:flatsided="false"
         sodipodi:sides="5"
         sodipodi:cx="391.55325"
         sodipodi:cy="225.26398"
         sodipodi:r1="18.624985"
         sodipodi:r2="7.4499931"
         sodipodi:arg1="-1.5707963"
         sodipodi:arg2="-0.9424778"
         inkscape:rounded="0"
         inkscape:randomized="0"
         d="m 391.55325,206.63899 4.379,12.59782 13.33442,0.27173 -10.62805,8.05761 3.86212,12.76576 -10.94749,-7.61794 -10.94749,7.61794 3.86213,-12.76576 -10.62805,-8.05761 13.33442,-0.27173 z"
         transform="matrix(0.28227197,0,0,0.28227197,40.036733,91.053827)"
         inkscape:transform-center-y="-0.50202777" /><path
         sodipodi:type="star"
         style="fill:#ffffff;fill-opacity:1;fill-rule:evenodd;stroke:none;stroke-width:0.998;stroke-dasharray:none"
         id="path1-9-8"
         inkscape:flatsided="false"
         sodipodi:sides="5"
         sodipodi:cx="391.55325"
         sodipodi:cy="225.26398"
         sodipodi:r1="18.624985"
         sodipodi:r2="7.4499931"
         sodipodi:arg1="-1.5707963"
         sodipodi:arg2="-0.9424778"
         inkscape:rounded="0"
         inkscape:randomized="0"
         d="m 391.55325,206.63899 4.379,12.59782 13.33442,0.27173 -10.62805,8.05761 3.86212,12.76576 -10.94749,-7.61794 -10.94749,7.61794 3.86213,-12.76576 -10.62805,-8.05761 13.33442,-0.27173 z"
         transform="matrix(0.28227197,0,0,0.28227197,54.853409,91.053827)"
         inkscape:transform-center-y="-0.50202777" /><path
         sodipodi:type="star"
         style="fill:#ffffff;fill-opacity:1;fill-rule:evenodd;stroke:none;stroke-width:0.998;stroke-dasharray:none"
         id="path1-9-1-2"
         inkscape:flatsided="false"
         sodipodi:sides="5"
         sodipodi:cx="391.55325"
         sodipodi:cy="225.26398"
         sodipodi:r1="18.624985"
         sodipodi:r2="7.4499931"
         sodipodi:arg1="-1.5707963"
         sodipodi:arg2="-0.9424778"
         inkscape:rounded="0"
         inkscape:randomized="0"
         d="m 391.55325,206.63899 4.379,12.59782 13.33442,0.27173 -10.62805,8.05761 3.86212,12.76576 -10.94749,-7.61794 -10.94749,7.61794 3.86213,-12.76576 -10.62805,-8.05761 13.33442,-0.27173 z"
         transform="matrix(0.28227197,0,0,0.28227197,69.695884,91.053827)"
         inkscape:transform-center-y="-0.50202777" /><path
         sodipodi:type="star"
         style="fill:#ffffff;fill-opacity:1;fill-rule:evenodd;stroke:none;stroke-width:0.998;stroke-dasharray:none"
         id="path1-9-1-4"
         inkscape:flatsided="false"
         sodipodi:sides="5"
         sodipodi:cx="391.55325"
         sodipodi:cy="225.26398"
         sodipodi:r1="18.624985"
         sodipodi:r2="7.4499931"
         sodipodi:arg1="-1.5707963"
         sodipodi:arg2="-0.9424778"
         inkscape:rounded="0"
         inkscape:randomized="0"
         d="m 391.55325,206.63899 4.379,12.59782 13.33442,0.27173 -10.62805,8.05761 3.86212,12.76576 -10.94749,-7.61794 -10.94749,7.61794 3.86213,-12.76576 -10.62805,-8.05761 13.33442,-0.27173 z"
         transform="matrix(0.28227197,0,0,0.28227197,84.538359,91.053827)"
         inkscape:transform-center-y="-0.50202777" /><path
         sodipodi:type="star"
         style="fill:#ffffff;fill-opacity:1;fill-rule:evenodd;stroke:none;stroke-width:0.998;stroke-dasharray:none"
         id="path1-9-8-9"
         inkscape:flatsided="false"
         sodipodi:sides="5"
         sodipodi:cx="391.55325"
         sodipodi:cy="225.26398"
         sodipodi:r1="18.624985"
         sodipodi:r2="7.4499931"
         sodipodi:arg1="-1.5707963"
         sodipodi:arg2="-0.9424778"
         inkscape:rounded="0"
         inkscape:randomized="0"
         d="m 391.55325,206.63899 4.379,12.59782 13.33442,0.27173 -10.62805,8.05761 3.86212,12.76576 -10.94749,-7.61794 -10.94749,7.61794 3.86213,-12.76576 -10.62805,-8.05761 13.33442,-0.27173 z"
         transform="matrix(0.28227197,0,0,0.28227197,99.355035,91.053827)"
         inkscape:transform-center-y="-0.50202777" /><path
         sodipodi:type="star"
         style="fill:#ffffff;fill-opacity:1;fill-rule:evenodd;stroke:none;stroke-width:0.998;stroke-dasharray:none"
         id="path1-8"
         inkscape:flatsided="false"
         sodipodi:sides="5"
         sodipodi:cx="391.55325"
         sodipodi:cy="225.26398"
         sodipodi:r1="18.624985"
         sodipodi:r2="7.4499931"
         sodipodi:arg1="-1.5707963"
         sodipodi:arg2="-0.9424778"
         inkscape:rounded="0"
         inkscape:randomized="0"
         d="m 391.55325,206.63899 4.379,12.59782 13.33442,0.27173 -10.62805,8.05761 3.86212,12.76576 -10.94749,-7.61794 -10.94749,7.61794 3.86213,-12.76576 -10.62805,-8.05761 13.33442,-0.27173 z"
         transform="matrix(0.28227197,0,0,0.28227197,-78.599873,91.053827)"
         inkscape:transform-center-y="-0.50202777" /><path
         sodipodi:type="star"
         style="fill:#ffffff;fill-opacity:1;fill-rule:evenodd;stroke:none;stroke-width:0.998;stroke-dasharray:none"
         id="path1-9-4"
         inkscape:flatsided="false"
         sodipodi:sides="5"
         sodipodi:cx="391.55325"
         sodipodi:cy="225.26398"
         sodipodi:r1="18.624985"
         sodipodi:r2="7.4499931"
         sodipodi:arg1="-1.5707963"
         sodipodi:arg2="-0.9424778"
         inkscape:rounded="0"
         inkscape:randomized="0"
         d="m 391.55325,206.63899 4.379,12.59782 13.33442,0.27173 -10.62805,8.05761 3.86212,12.76576 -10.94749,-7.61794 -10.94749,7.61794 3.86213,-12.76576 -10.62805,-8.05761 13.33442,-0.27173 z"
         transform="matrix(0.28227197,0,0,0.28227197,-63.783197,91.053827)"
         inkscape:transform-center-y="-0.50202777" /><path
         sodipodi:type="star"
         style="fill:#ffffff;fill-opacity:1;fill-rule:evenodd;stroke:none;stroke-width:0.998;stroke-dasharray:none"
         id="path1-9-1-26"
         inkscape:flatsided="false"
         sodipodi:sides="5"
         sodipodi:cx="391.55325"
         sodipodi:cy="225.26398"
         sodipodi:r1="18.624985"
         sodipodi:r2="7.4499931"
         sodipodi:arg1="-1.5707963"
         sodipodi:arg2="-0.9424778"
         inkscape:rounded="0"
         inkscape:randomized="0"
         d="m 391.55325,206.63899 4.379,12.59782 13.33442,0.27173 -10.62805,8.05761 3.86212,12.76576 -10.94749,-7.61794 -10.94749,7.61794 3.86213,-12.76576 -10.62805,-8.05761 13.33442,-0.27173 z"
         transform="matrix(0.28227197,0,0,0.28227197,-48.940722,91.053827)"
         inkscape:transform-center-y="-0.50202777" /><path
         sodipodi:type="star"
         style="fill:#ffffff;fill-opacity:1;fill-rule:evenodd;stroke:none;stroke-width:0.998;stroke-dasharray:none"
         id="path1-9-8-6"
         inkscape:flatsided="false"
         sodipodi:sides="5"
         sodipodi:cx="391.55325"
         sodipodi:cy="225.26398"
         sodipodi:r1="18.624985"
         sodipodi:r2="7.4499931"
         sodipodi:arg1="-1.5707963"
         sodipodi:arg2="-0.9424778"
         inkscape:rounded="0"
         inkscape:randomized="0"
         d="m 391.55325,206.63899 4.379,12.59782 13.33442,0.27173 -10.62805,8.05761 3.86212,12.76576 -10.94749,-7.61794 -10.94749,7.61794 3.86213,-12.76576 -10.62805,-8.05761 13.33442,-0.27173 z"
         transform="matrix(0.28227197,0,0,0.28227197,-34.124046,91.053827)"
         inkscape:transform-center-y="-0.50202777" /><path
         sodipodi:type="star"
         style="fill:#ffffff;fill-opacity:1;fill-rule:evenodd;stroke:none;stroke-width:0.998;stroke-dasharray:none"
         id="path1-9-1-2-6"
         inkscape:flatsided="false"
         sodipodi:sides="5"
         sodipodi:cx="391.55325"
         sodipodi:cy="225.26398"
         sodipodi:r1="18.624985"
         sodipodi:r2="7.4499931"
         sodipodi:arg1="-1.5707963"
         sodipodi:arg2="-0.9424778"
         inkscape:rounded="0"
         inkscape:randomized="0"
         d="m 391.55325,206.63899 4.379,12.59782 13.33442,0.27173 -10.62805,8.05761 3.86212,12.76576 -10.94749,-7.61794 -10.94749,7.61794 3.86213,-12.76576 -10.62805,-8.05761 13.33442,-0.27173 z"
         transform="matrix(0.28227197,0,0,0.28227197,-19.281571,91.053827)"
         inkscape:transform-center-y="-0.50202777" /><path
         sodipodi:type="star"
         style="fill:#ffffff;fill-opacity:1;fill-rule:evenodd;stroke:none;stroke-width:0.998;stroke-dasharray:none"
         id="path1-9-1-4-4"
         inkscape:flatsided="false"
         sodipodi:sides="5"
         sodipodi:cx="391.55325"
         sodipodi:cy="225.26398"
         sodipodi:r1="18.624985"
         sodipodi:r2="7.4499931"
         sodipodi:arg1="-1.5707963"
         sodipodi:arg2="-0.9424778"
         inkscape:rounded="0"
         inkscape:randomized="0"
         d="m 391.55325,206.63899 4.379,12.59782 13.33442,0.27173 -10.62805,8.05761 3.86212,12.76576 -10.94749,-7.61794 -10.94749,7.61794 3.86213,-12.76576 -10.62805,-8.05761 13.33442,-0.27173 z"
         transform="matrix(0.28227197,0,0,0.28227197,-4.4390959,91.053827)"
         inkscape:transform-center-y="-0.50202777" /><path
         sodipodi:type="star"
         style="fill:#ffffff;fill-opacity:1;fill-rule:evenodd;stroke:none;stroke-width:0.998;stroke-dasharray:none"
         id="path1-9-7"
         inkscape:flatsided="false"
         sodipodi:sides="5"
         sodipodi:cx="391.55325"
         sodipodi:cy="225.26398"
         sodipodi:r1="18.624985"
         sodipodi:r2="7.4499931"
         sodipodi:arg1="-1.5707963"
         sodipodi:arg2="-0.9424778"
         inkscape:rounded="0"
         inkscape:randomized="0"
         d="m 391.55325,206.63899 4.379,12.59782 13.33442,0.27173 -10.62805,8.05761 3.86212,12.76576 -10.94749,-7.61794 -10.94749,7.61794 3.86213,-12.76576 -10.62805,-8.05761 13.33442,-0.27173 z"
         transform="matrix(0.28227197,0,0,0.28227197,10.377582,61.420475)"
         inkscape:transform-center-y="-0.50202777" /><path
         sodipodi:type="star"
         style="fill:#ffffff;fill-opacity:1;fill-rule:evenodd;stroke:none;stroke-width:0.998;stroke-dasharray:none"
         id="path1-9-2"
         inkscape:flatsided="false"
         sodipodi:sides="5"
         sodipodi:cx="391.55325"
         sodipodi:cy="225.26398"
         sodipodi:r1="18.624985"
         sodipodi:r2="7.4499931"
         sodipodi:arg1="-1.5707963"
         sodipodi:arg2="-0.9424778"
         inkscape:rounded="0"
         inkscape:randomized="0"
         d="m 391.55325,206.63899 4.379,12.59782 13.33442,0.27173 -10.62805,8.05761 3.86212,12.76576 -10.94749,-7.61794 -10.94749,7.61794 3.86213,-12.76576 -10.62805,-8.05761 13.33442,-0.27173 z"
         transform="matrix(0.28227197,0,0,0.28227197,10.377582,46.603808)"
         inkscape:transform-center-y="-0.50202777" /><path
         sodipodi:type="star"
         style="fill:#ffffff;fill-opacity:1;fill-rule:evenodd;stroke:none;stroke-width:0.998;stroke-dasharray:none"
         id="path1-9-7-6"
         inkscape:flatsided="false"
         sodipodi:sides="5"
         sodipodi:cx="391.55325"
         sodipodi:cy="225.26398"
         sodipodi:r1="18.624985"
         sodipodi:r2="7.4499931"
         sodipodi:arg1="-1.5707963"
         sodipodi:arg2="-0.9424778"
         inkscape:rounded="0"
         inkscape:randomized="0"
         d="m 391.55325,206.63899 4.379,12.59782 13.33442,0.27173 -10.62805,8.05761 3.86212,12.76576 -10.94749,-7.61794 -10.94749,7.61794 3.86213,-12.76576 -10.62805,-8.05761 13.33442,-0.27173 z"
         transform="matrix(0.28227197,0,0,0.28227197,10.377582,31.787127)"
         inkscape:transform-center-y="-0.50202777" /><path
         sodipodi:type="star"
         style="fill:#ffffff;fill-opacity:1;fill-rule:evenodd;stroke:none;stroke-width:0.998;stroke-dasharray:none"
         id="path1-7"
         inkscape:flatsided="false"
         sodipodi:sides="5"
         sodipodi:cx="391.55325"
         sodipodi:cy="225.26398"
         sodipodi:r1="18.624985"
         sodipodi:r2="7.4499931"
         sodipodi:arg1="-1.5707963"
         sodipodi:arg2="-0.9424778"
         inkscape:rounded="0"
         inkscape:randomized="0"
         d="m 391.55325,206.63899 4.379,12.59782 13.33442,0.27173 -10.62805,8.05761 3.86212,12.76576 -10.94749,-7.61794 -10.94749,7.61794 3.86213,-12.76576 -10.62805,-8.05761 13.33442,-0.27173 z"
         transform="matrix(0.28227197,0,0,0.28227197,10.377582,150.08738)"
         inkscape:transform-center-y="-0.50202777" /><path
         sodipodi:type="star"
         style="fill:#ffffff;fill-opacity:1;fill-rule:evenodd;stroke:none;stroke-width:0.998;stroke-dasharray:none"
         id="path1-9-3"
         inkscape:flatsided="false"
         sodipodi:sides="5"
         sodipodi:cx="391.55325"
         sodipodi:cy="225.26398"
         sodipodi:r1="18.624985"
         sodipodi:r2="7.4499931"
         sodipodi:arg1="-1.5707963"
         sodipodi:arg2="-0.9424778"
         inkscape:rounded="0"
         inkscape:randomized="0"
         d="m 391.55325,206.63899 4.379,12.59782 13.33442,0.27173 -10.62805,8.05761 3.86212,12.76576 -10.94749,-7.61794 -10.94749,7.61794 3.86213,-12.76576 -10.62805,-8.05761 13.33442,-0.27173 z"
         transform="matrix(0.28227197,0,0,0.28227197,10.377582,135.2707)"
         inkscape:transform-center-y="-0.50202777" /><path
         sodipodi:type="star"
         style="fill:#ffffff;fill-opacity:1;fill-rule:evenodd;stroke:none;stroke-width:0.998;stroke-dasharray:none"
         id="path1-9-7-2"
         inkscape:flatsided="false"
         sodipodi:sides="5"
         sodipodi:cx="391.55325"
         sodipodi:cy="225.26398"
         sodipodi:r1="18.624985"
         sodipodi:r2="7.4499931"
         sodipodi:arg1="-1.5707963"
         sodipodi:arg2="-0.9424778"
         inkscape:rounded="0"
         inkscape:randomized="0"
         d="m 391.55325,206.63899 4.379,12.59782 13.33442,0.27173 -10.62805,8.05761 3.86212,12.76576 -10.94749,-7.61794 -10.94749,7.61794 3.86213,-12.76576 -10.62805,-8.05761 13.33442,-0.27173 z"
         transform="matrix(0.28227197,0,0,0.28227197,10.377582,120.45402)"
         inkscape:transform-center-y="-0.50202777" /><path
         sodipodi:type="star"
         style="fill:#ffffff;fill-opacity:1;fill-rule:evenodd;stroke:none;stroke-width:0.998;stroke-dasharray:none"
         id="path1-9-2-2"
         inkscape:flatsided="false"
         sodipodi:sides="5"
         sodipodi:cx="391.55325"
         sodipodi:cy="225.26398"
         sodipodi:r1="18.624985"
         sodipodi:r2="7.4499931"
         sodipodi:arg1="-1.5707963"
         sodipodi:arg2="-0.9424778"
         inkscape:rounded="0"
         inkscape:randomized="0"
         d="m 391.55325,206.63899 4.379,12.59782 13.33442,0.27173 -10.62805,8.05761 3.86212,12.76576 -10.94749,-7.61794 -10.94749,7.61794 3.86213,-12.76576 -10.62805,-8.05761 13.33442,-0.27173 z"
         transform="matrix(0.28227197,0,0,0.28227197,10.377582,105.63735)"
         inkscape:transform-center-y="-0.50202777" /></g></g></svg>
