<svg xmlns="http://www.w3.org/2000/svg" xml:space="preserve" width="934.38538" height="623.20642" x="0px" y="0px" viewBox="0 0 934.38538 623.20642"><path fill="#395c98" fill-rule="evenodd" d="M933.96 622.781H.425V.425H933.96z" clip-rule="evenodd"/><path fill="none" stroke="#1d1d1b" stroke-miterlimit="22.9256" stroke-width="0.8504" d="M933.96 622.781H.425V.425H933.96z"/><path fill="#312783" fill-rule="evenodd" stroke="#312783" stroke-miterlimit="22.9256" stroke-width="0.4858" d="m220.98 264.52 61.3 85.561c-4.324 4.138-7.417 9.327-9.278 15.57z" clip-rule="evenodd"/><path fill="#312783" fill-rule="evenodd" stroke="#312783" stroke-miterlimit="22.9256" stroke-width="0.4701" d="m241.313 247.856 57.412 88.683c-5.636 3.726-11.726 7.058-15.064 12.371zM262.57 235.64l54.433 94.406c-5.419.806-11.759 3.04-17.16 5.951zM285.412 227.262l48.68 100.078c-5.19.446-10.38.644-15.573 2.148zM309.153 221.587l45.24 105.414-18.59.275zM329.293 212.256c12.075 33.53 24.155 67.058 36.233 100.587l-9.325 14.391c-8.966-38.329-17.94-76.65-26.908-114.978z" clip-rule="evenodd"/><path fill="#312783" fill-rule="evenodd" stroke="#312783" stroke-miterlimit="22.9256" stroke-width="0.47" d="M343.654 194.846c10.702 34.837 21.403 69.678 32.106 104.513-3.345 4.114-6.69 8.23-10.046 12.344-7.356-38.95-14.706-77.908-22.06-116.857zM360.047 178.714c9.334 36.143 18.651 72.285 27.986 108.435-3.589 3.431-7.175 6.87-10.764 10.3-5.737-39.58-11.477-79.159-17.222-118.735zM378.466 164.233c7.957 37.448 15.9 74.905 23.85 112.354-3.823 2.753-7.654 5.511-11.474 8.264-4.13-40.204-8.252-80.414-12.376-120.618zM398.838 151.828c6.583 38.765 13.148 77.52 19.721 116.282-4.064 2.071-8.13 4.146-12.195 6.217l-7.526-122.499zM420.914 141.943c5.197 40.07 10.396 80.14 15.596 120.21l-12.922 4.181c-.89-41.464-1.776-82.926-2.674-124.39zM444.288 135.102c3.823 41.376 7.64 82.746 11.461 124.122-4.543.716-9.084 1.426-13.635 2.144.73-42.092 1.454-84.18 2.174-126.266z" clip-rule="evenodd"/><path fill="#312783" fill-rule="evenodd" stroke="#312783" stroke-miterlimit="22.9256" stroke-width="0.4808" d="m468.34 131.377 7.335 128.046-14.35.097z" clip-rule="evenodd"/><path fill="#312783" fill-rule="evenodd" stroke="#312783" stroke-miterlimit="22.9256" stroke-width="0.4858" d="m715.832 264.52-61.3 85.561c4.322 4.138 7.417 9.327 9.278 15.57z" clip-rule="evenodd"/><path fill="#312783" fill-rule="evenodd" stroke="#312783" stroke-miterlimit="22.9256" stroke-width="0.4701" d="m695.497 247.856-57.41 88.683c5.636 3.726 11.725 7.058 15.063 12.371zM674.24 235.64l-54.434 94.406c5.42.806 11.76 3.04 17.162 5.951zM651.397 227.262 602.718 327.34c5.19.446 10.381.644 15.573 2.148zM627.657 221.587l-45.24 105.414 18.59.275zM607.52 212.256l-36.236 100.587c3.111 4.798 6.217 9.592 9.327 14.391 8.966-38.329 17.942-76.65 26.908-114.978z" clip-rule="evenodd"/><path fill="#312783" fill-rule="evenodd" stroke="#312783" stroke-miterlimit="22.9256" stroke-width="0.47" d="M593.16 194.846c-10.705 34.837-21.405 69.678-32.109 104.513 3.348 4.114 6.691 8.23 10.046 12.344 7.356-38.95 14.705-77.908 22.062-116.857zM576.764 178.714c-9.336 36.143-18.652 72.285-27.987 108.435 3.59 3.431 7.178 6.87 10.767 10.3 5.737-39.58 11.474-79.159 17.22-118.735zM558.346 164.233c-7.959 37.448-15.902 74.905-23.85 112.354 3.82 2.753 7.651 5.511 11.475 8.264 4.127-40.204 8.248-80.414 12.375-120.618zM537.974 151.828c-6.583 38.765-13.15 77.52-19.724 116.282l12.195 6.217 7.53-122.499zM515.896 141.943c-5.199 40.07-10.396 80.14-15.596 120.21l12.922 4.181c.893-41.464 1.776-82.929 2.674-124.39zM492.522 135.102c-3.823 41.376-7.639 82.746-11.46 124.122 4.542.716 9.083 1.426 13.634 2.144-.728-42.094-1.454-84.18-2.174-126.266z" clip-rule="evenodd"/><path fill="#312783" fill-rule="evenodd" stroke="#312783" stroke-miterlimit="22.9256" stroke-width="0.4808" d="m468.471 131.377-7.337 128.046 14.351.097z" clip-rule="evenodd"/><path fill="#fc0" fill-rule="evenodd" stroke="#e1a000" stroke-miterlimit="22.9256" stroke-width="0.4858" d="m218.55 260.603 61.3 85.563c-4.325 4.134-7.417 9.322-9.277 15.57z" clip-rule="evenodd"/><path fill="#fc0" fill-rule="evenodd" stroke="#e1a000" stroke-miterlimit="22.9256" stroke-width="0.4701" d="m238.884 243.937 57.413 88.686c-5.637 3.728-11.726 7.055-15.065 12.372zM260.14 231.72l54.432 94.407c-5.416.806-11.756 3.044-17.158 5.951zM282.982 223.345l48.681 100.075c-5.19.451-10.382.644-15.572 2.15zM306.725 217.667l45.24 105.42-18.589.274zM326.862 208.34c12.08 33.527 24.155 67.055 36.234 100.583-3.11 4.8-6.214 9.592-9.327 14.391-8.966-38.326-17.94-76.648-26.907-114.975z" clip-rule="evenodd"/><path fill="#fc0" fill-rule="evenodd" stroke="#e1a000" stroke-miterlimit="22.9256" stroke-width="0.47" d="M341.223 190.93c10.703 34.834 21.405 69.675 32.107 104.512-3.346 4.112-6.69 8.23-10.044 12.344-7.359-38.952-14.706-77.908-22.063-116.857zM357.616 174.797c9.335 36.142 18.654 72.283 27.987 108.433-3.587 3.433-7.176 6.87-10.765 10.3-5.739-39.58-11.476-79.159-17.222-118.733zM376.034 160.314c7.96 37.45 15.901 74.905 23.854 112.354-3.823 2.755-7.655 5.511-11.478 8.264-4.128-40.203-8.247-80.412-12.376-120.618zM396.407 147.91c6.583 38.764 13.15 77.52 19.726 116.28-4.064 2.071-8.13 4.148-12.198 6.22l-7.528-122.5zM418.484 138.024c5.2 40.07 10.397 80.142 15.595 120.21l-12.92 4.181c-.893-41.462-1.777-82.927-2.675-124.39zM441.86 131.184c3.822 41.374 7.636 82.744 11.46 124.121-4.543.716-9.086 1.428-13.635 2.144.727-42.092 1.454-84.18 2.174-126.265z" clip-rule="evenodd"/><path fill="#fc0" fill-rule="evenodd" stroke="#e1a000" stroke-miterlimit="22.9256" stroke-width="0.4808" d="m465.91 127.457 7.336 128.047-14.35.1z" clip-rule="evenodd"/><path fill="#fc0" fill-rule="evenodd" stroke="#e1a000" stroke-miterlimit="22.9256" stroke-width="0.4858" d="m713.402 260.603-61.299 85.563c4.321 4.134 7.414 9.322 9.274 15.57z" clip-rule="evenodd"/><path fill="#fc0" fill-rule="evenodd" stroke="#e1a000" stroke-miterlimit="22.9256" stroke-width="0.4701" d="m693.068 243.937-57.412 88.686c5.637 3.728 11.726 7.055 15.064 12.372zM671.811 231.72l-54.435 94.407c5.42.806 11.76 3.044 17.16 5.951zM648.968 223.345l-48.68 100.075c5.19.451 10.383.644 15.573 2.15zM625.227 217.667l-45.24 105.42 18.592.274zM605.09 208.34c-12.08 33.527-24.158 67.055-36.236 100.583l9.328 14.391c8.967-38.326 17.942-76.648 26.907-114.975z" clip-rule="evenodd"/><path fill="#fc0" fill-rule="evenodd" stroke="#e1a000" stroke-miterlimit="22.9256" stroke-width="0.47" d="M590.73 190.93c-10.704 34.834-21.405 69.675-32.108 104.512 3.347 4.112 6.691 8.23 10.047 12.344 7.356-38.952 14.704-77.908 22.06-116.857zM574.335 174.797c-9.334 36.142-18.652 72.283-27.985 108.433 3.587 3.433 7.176 6.87 10.763 10.3 5.738-39.58 11.476-79.159 17.222-118.733zM555.916 160.314c-7.956 37.45-15.9 74.905-23.85 112.354 3.821 2.755 7.653 5.511 11.476 8.264 4.128-40.203 8.248-80.412 12.374-120.618zM535.545 147.91c-6.582 38.764-13.15 77.52-19.724 116.28 4.065 2.071 8.131 4.148 12.196 6.22 2.51-40.834 5.017-81.665 7.528-122.5zM513.466 138.026c-5.199 40.068-10.396 80.14-15.596 120.208l12.922 4.181c.893-41.462 1.777-82.927 2.674-124.389zM490.092 131.184c-3.823 41.374-7.637 82.744-11.46 124.121 4.542.716 9.085 1.428 13.634 2.144-.725-42.092-1.453-84.18-2.174-126.265z" clip-rule="evenodd"/><path fill="#fc0" fill-rule="evenodd" stroke="#e1a000" stroke-miterlimit="22.9256" stroke-width="0.4808" d="m466.042 127.457-7.337 128.05 14.35.096z" clip-rule="evenodd"/><path fill="#e30613" fill-rule="evenodd" d="M933.96 622.781H.425V498.31H933.96z" clip-rule="evenodd"/></svg>