<svg xmlns="http://www.w3.org/2000/svg" width="900" height="600" viewBox="0 0 900 599.99998" xml:space="preserve">
  <path style="fill:#008033;fill-opacity:1;fill-rule:evenodd" d="M0 190.84802h900v199.9818H0z" transform="translate(0 -190.84803)"/>
  <path style="fill:#fff;fill-rule:evenodd" d="M0 390.8298h900v199.9818H0z" transform="translate(0 -190.84803)"/>
  <path style="fill:#00247d;fill-opacity:1;fill-rule:evenodd" d="M0 590.81158h900v200.03641H0z" transform="translate(0 -190.84803)"/>
  <g style="fill:#cf142b;fill-opacity:1">
    <path style="fill:#cf142b;fill-opacity:1;fill-rule:evenodd" d="M513.72 327.096c3.096-11.88 14.4-31.968 39.6-51.12 7.2 19.944 27.936 40.752 43.488 60.696l-83.088-9.576zm0 0z" transform="matrix(.7615 0 0 .75868 .01075588 2.1820332)"/>
    <path style="fill:#cf142b;fill-opacity:1;stroke:#000;stroke-width:1.00010002;stroke-linecap:round;stroke-linejoin:round" d="M513.72 327.096c3.096-11.88 14.4-31.968 39.6-51.12 7.2 19.944 27.936 40.752 43.488 60.696m-83.088-9.576h0z" transform="matrix(.7615 0 0 .75868 .01075588 2.1820332)"/>
  </g>
  <g style="fill:#cf142b;fill-opacity:1">
    <path style="fill:#cf142b;fill-opacity:1;fill-rule:evenodd" d="M719.136 431.28c-45.648 17.712-24.12 49.968-81.576 19.584-.36-2.232-8.208-17.496-8.208-17.496l2.52-10.08 87.264 7.992zm0 0z" transform="matrix(.7615 0 0 .75868 .01075588 2.1820332)"/>
    <path style="fill:#cf142b;fill-opacity:1;stroke:#000;stroke-width:1.00010002;stroke-linecap:round;stroke-linejoin:round" d="M719.136 431.28c-45.648 17.712-24.12 49.968-81.576 19.584-.36-2.232-8.208-17.496-8.208-17.496l2.52-10.08m87.264 7.992h0z" transform="matrix(.7615 0 0 .75868 .01075588 2.1820332)"/>
  </g>
  <g style="fill:#cf142b;fill-opacity:1">
    <path style="fill:#cf142b;fill-opacity:1;fill-rule:evenodd" d="M548.28 481.392c25.344 17.856 40.176 19.44 56.592 22.464.36-29.592 2.52-36.936 5.184-39.168l-61.776 16.704zm0 0z" transform="matrix(.7615 0 0 .75868 .01075588 2.1820332)"/>
    <path style="fill:#cf142b;fill-opacity:1;stroke:#000;stroke-width:1.00010002;stroke-linecap:round;stroke-linejoin:round" d="M548.28 481.392c25.344 17.856 40.176 19.44 56.592 22.464.36-29.592 2.52-36.936 5.184-39.168m-61.776 16.704h0z" transform="matrix(.7615 0 0 .75868 .01075588 2.1820332)"/>
  </g>
  <g style="fill:#cf142b;fill-opacity:1">
    <path style="fill:#cf142b;fill-opacity:1;fill-rule:evenodd" d="M352.44 371.736c65.448-49.104 142.416-44.784 202.752-43.632 55.296 5.76 153.36 50.256 175.68 50.328 10.872.792 24.48-1.152 30.384-5.4 28.224-31.464 52.632-32.256 77.76-39.096-.792 11.232-36.144 50.472-44.28 70.992 7.776 30.24 32.616 43.416 40.392 67.824-33.912.144-58.104-24.48-85.896-37.872-129.24-23.76-117.144 75.672-284.472 39.024L352.44 371.736zm0 0z" transform="matrix(.7615 0 0 .75868 .01075588 2.1820332)"/>
    <path style="fill:#cf142b;fill-opacity:1;stroke:#000;stroke-width:1.00010002;stroke-linecap:round;stroke-linejoin:round" d="M352.44 371.736c65.448-49.104 142.416-44.784 202.752-43.632 55.296 5.76 153.36 50.256 175.68 50.328 10.872.792 24.48-1.152 30.384-5.4 28.224-31.464 52.632-32.256 77.76-39.096-.792 11.232-36.144 50.472-44.28 70.992 7.776 30.24 32.616 43.416 40.392 67.824-33.912.144-58.104-24.48-85.896-37.872-129.24-23.76-117.144 75.672-284.472 39.024M352.44 371.736h0z" transform="matrix(.7615 0 0 .75868 .01075588 2.1820332)"/>
  </g>
  <g style="fill:#cf142b;fill-opacity:1">
    <path style="fill:#cf142b;fill-opacity:1;fill-rule:evenodd" d="M431.928 430.992c26.064 28.008 43.056 53.136 43.992 77.472-8.712 5.688-39.888-31.248-66.528-64.656l22.536-12.816zm0 0z" transform="matrix(.7615 0 0 .75868 .01075588 2.1820332)"/>
    <path style="fill:#cf142b;fill-opacity:1;stroke:#000;stroke-width:1.00010002;stroke-linecap:round;stroke-linejoin:round" d="M431.928 430.992c26.064 28.008 43.056 53.136 43.992 77.472-8.712 5.688-39.888-31.248-66.528-64.656m22.536-12.816h0z" transform="matrix(.7615 0 0 .75868 .01075588 2.1820332)"/>
  </g>
  <g style="fill:#cf142b;fill-opacity:1">
    <path style="fill:#cf142b;fill-opacity:1;fill-rule:evenodd" d="M436.392 381.888c1.296 6.552 1.944 12.528 2.16 18v5.904c-1.872 49.968-50.256 50.472-89.784 6.12-.576-2.376-.936-4.32-1.08-5.976v-3.456c.792-6.408 7.056-4.248 11.88-4.104l76.824-16.488zm0 0z" transform="matrix(.7615 0 0 .75868 .01075588 2.1820332)"/>
    <path style="fill:#cf142b;fill-opacity:1;stroke:#000;stroke-width:1.00010002;stroke-linecap:round;stroke-linejoin:round" d="M436.392 381.888c14.04 72.864-42.552 80.568-87.624 30.024-4.536-17.424 4.392-13.752 10.8-13.536m76.824-16.488h0z" transform="matrix(.7615 0 0 .75868 .01075588 2.1820332)"/>
  </g>
  <g style="fill:#cf142b;fill-opacity:1">
    <path style="fill:#cf142b;fill-opacity:1;fill-rule:evenodd" d="M420.048 377.28c.936 5.976 1.512 11.52 1.656 16.704v3.816c-.504 19.08-7.776 31.248-24.84 33.624l23.184-54.144zm0 0z" transform="matrix(.7615 0 0 .75868 .01075588 2.1820332)"/>
    <path style="fill:#cf142b;fill-opacity:1;stroke:#000;stroke-width:1.00010002;stroke-linecap:round;stroke-linejoin:round" d="M420.048 377.28c4.896 30.672-.576 51.048-23.184 54.144m23.184-54.144h0z" transform="matrix(.7615 0 0 .75868 .01075588 2.1820332)"/>
  </g>
  <g style="fill:#cf142b;fill-opacity:1">
    <path style="fill:#cf142b;fill-opacity:1;fill-rule:evenodd" d="M391.68 410.688c-21.312 4.752-46.944-24.624-48.744-36.072v-2.232c1.008-4.464 9-2.952 28.152 11.808l20.592 26.496zm0 0z" transform="matrix(.7615 0 0 .75868 .01075588 2.1820332)"/>
    <path style="fill:#cf142b;fill-opacity:1;stroke:#000;stroke-width:1.00010002;stroke-linecap:round;stroke-linejoin:round" d="M391.68 410.688c-33.984 7.56-79.056-71.712-20.592-26.496m20.592 26.496h0z" transform="matrix(.7615 0 0 .75868 .01075588 2.1820332)"/>
  </g>
  <path style="fill:#fff;fill-rule:evenodd;stroke:#000;stroke-width:.76016366;stroke-linecap:round;stroke-linejoin:round" d="M306.59762 478.39353c0 4.31537-3.7283 7.81136-8.33384 7.81136-4.55072 0-8.27901-3.49599-8.27901-7.81136 0-4.31536 3.72829-7.75673 8.27901-7.75673 4.60554 0 8.33384 3.44137 8.33384 7.75673z" transform="translate(.01075588 -188.6659868)"/>
  <path style="fill-rule:evenodd;stroke:#000;stroke-width:.76016366;stroke-linecap:round;stroke-linejoin:round" d="M302.86932 477.08253c0 2.13038-1.42552 3.98762-3.28967 4.31537-1.91898.32775-3.78313-.92862-4.38623-2.94974-.60311-2.02112.21931-4.26075 1.9738-5.24399 1.69967-.98325 3.78313-.437 4.93451 1.31099l-3.18002 2.56737h3.94761z" transform="translate(.01075588 -188.6659868)"/>
  <path style="fill:none;stroke:#000;stroke-width:.76016366;stroke-linecap:round;stroke-linejoin:round" d="M605.35485 498.16775c-11.84283-.437-23.68565-2.89512-38.43436-.98325M618.29424 476.86404c-4.60555.0546-14.74871 6.33648-24.23394 11.58048M629.47913 460.69506c-10.19799.98325-24.72739 8.63074-39.96954 19.00947M630.795 538.69943c-12.1718-1.58412-26.48188-9.23161-38.65367-14.4756M614.94973 518.43359c-6.74383-1.47487-14.25525-3.05899-21.05391-4.53387M426.56107 410.71327c-8.33384 9.01311-15.62595 18.46322-20.94426 28.84195M433.52421 420.87351c-5.42796 5.40786-10.14316 11.90823-13.48766 18.68171M440.32287 429.94124c-3.50899 4.64312-5.04417 8.02986-6.52452 11.36198" transform="translate(.01075588 -188.6659868)"/>
  <path style="fill:#df0024;fill-rule:evenodd" d="m434.664 456.624 41.04 51.12-41.04-51.12zm0 0z" transform="matrix(.7615 0 0 .75868 .01075588 2.1820332)"/>
  <path style="fill:none;stroke:#000;stroke-width:1.00010002;stroke-linecap:round;stroke-linejoin:round" d="m434.664 456.624 41.04 51.12m-41.04-51.12h0z" transform="matrix(.7615 0 0 .75868 .01075588 2.1820332)"/>
  <path style="fill:none;stroke:#000;stroke-width:.76016366;stroke-linecap:round;stroke-linejoin:round" d="M442.29667 560.87714c5.59245 2.45812 11.73318 4.1515 18.31252 5.24399M454.08469 554.75916l7.18246 2.622M508.36429 532.03522l11.73318 6.99194M518.17847 527.66522l8.88214 3.71448" transform="translate(.01075588 -188.6659868)"/>
</svg>
