<?xml version="1.0" encoding="UTF-8" standalone="no"?>
<!-- Created with Inkscape (http://www.inkscape.org/) -->

<svg
   xmlns:dc="http://purl.org/dc/elements/1.1/"
   xmlns:cc="http://creativecommons.org/ns#"
   xmlns:rdf="http://www.w3.org/1999/02/22-rdf-syntax-ns#"
   xmlns:svg="http://www.w3.org/2000/svg"
   xmlns="http://www.w3.org/2000/svg"
   xmlns:sodipodi="http://sodipodi.sourceforge.net/DTD/sodipodi-0.dtd"
   xmlns:inkscape="http://www.inkscape.org/namespaces/inkscape"
   id="svg2"
   version="1.1"
   inkscape:version="0.48.1 "
   width="780"
   height="420"
   sodipodi:docname="Coat of arms of Bogovinje Municipality.svg">
  <metadata
     id="metadata8">
    <rdf:RDF>
      <cc:Work
         rdf:about="">
        <dc:format>image/svg+xml</dc:format>
        <dc:type
           rdf:resource="http://purl.org/dc/dcmitype/StillImage" />
        <dc:title></dc:title>
      </cc:Work>
    </rdf:RDF>
  </metadata>
  <defs
     id="defs6" />
  <sodipodi:namedview
     pagecolor="#ffffff"
     bordercolor="#666666"
     borderopacity="1"
     objecttolerance="10"
     gridtolerance="10"
     guidetolerance="10"
     inkscape:pageopacity="0"
     inkscape:pageshadow="2"
     inkscape:window-width="1280"
     inkscape:window-height="738"
     id="namedview4"
     showgrid="false"
     inkscape:zoom="0.72872054"
     inkscape:cx="326.89111"
     inkscape:cy="287.51441"
     inkscape:window-x="-8"
     inkscape:window-y="-8"
     inkscape:window-maximized="1"
     inkscape:current-layer="svg2" />
  <g
     id="g2994"
     transform="matrix(1,0,0,1.0131579,795.91554,15.868881)">
    <rect
       ry="0.9754523"
       y="-15.577973"
       x="-797.28784"
       height="417.16953"
       width="782.19287"
       id="rect2988"
       style="fill:#ec3237;fill-opacity:1;fill-rule:nonzero;stroke:none" />
    <path
       inkscape:connector-curvature="0"
       id="path2992"
       d="m -445.98716,44.801827 c -11.89299,0 -23.78598,0 -35.67897,0 -2.28712,0 -4.57423,0 -6.86134,0 -0.45743,0 -1.04882,0.32345 -1.37227,0 -0.32345,-0.32344 0.32345,-1.04882 0,-1.37227 -0.32345,-0.32344 -0.91485,0 -1.37227,0 -0.45742,0 -0.91484,0 -1.37227,0 -5.48907,0 -10.97814,0 -16.46722,0 -3.65938,0 -7.31876,0 -10.97814,0 -0.45742,0 -0.91485,0 -1.37227,0 -0.45742,0 -1.37227,0.45743 -1.37227,0 0,-0.45742 1.37227,-0.45742 1.37227,0 0,0.6469 -0.79367,1.08297 -1.37227,1.37227 -0.40913,0.20457 -1.04882,-0.32344 -1.37226,0 -0.32345,0.32345 0,0.91485 0,1.37227 0,0.45742 0,0.91485 0,1.37227 0,7.77619 0,-9.14846 0,-1.37227 0,3.65938 0,7.31876 0,10.97815 0,4.57422 0,9.14845 0,13.72268 0,0.71759 -0.18042,5.12824 0,5.48907 0.28929,0.5786 1.08296,0.79367 1.37226,1.37227 0.20457,0.40913 0,0.91484 0,1.37227 0,0.45742 0,0.91484 0,1.37227 0,2.28711 0,4.57422 0,6.86134 0,5.03165 0,10.0633 0,15.094953 0,0.71758 0.18042,5.12824 0,5.48907 -0.2893,0.5786 -1.08297,0.79367 -1.37226,1.37227 -0.20882,0.41762 0,3.49879 0,4.1168 0,9.60588 0,19.21176 0,28.81763 0,0.33281 0.0441,4.07268 0,4.11681 -0.32345,0.32344 -1.04883,-0.32345 -1.37227,0 -0.32345,0.32344 0,0.91484 0,1.37227 0,3.65938 0,7.31876 0,10.97814 0,0.45742 0,0.91485 0,1.37227 0,0.45742 0.32344,1.04882 0,1.37227 -0.32345,0.32344 -1.04882,-0.32345 -1.37227,0 -0.32345,0.32344 0,0.91484 0,1.37227 0,3.20195 0,6.40391 0,9.60587 0,12.35042 0,24.70083 0,37.05124 0,3.65938 0,7.31877 0,10.97815 0,0.71759 -0.18041,5.12824 0,5.48907 1.69571,3.39143 1.37227,-0.47368 1.37227,2.74454 0,0.71758 -0.18042,5.12824 0,5.48907 0.2893,0.5786 1.08297,0.79367 1.37227,1.37227 0.41663,0.83327 -0.41664,7.40034 0,8.23361 0.28929,0.5786 1.08296,0.79367 1.37226,1.37227 0.41664,0.83327 -0.41663,7.40033 0,8.2336 0.2893,0.5786 1.08297,0.79367 1.37227,1.37227 0.54891,1.09782 -0.54891,3.01899 0,4.11681 0.2893,0.5786 1.08297,0.79367 1.37227,1.37227 0.43125,0.8625 -0.43125,4.62657 0,5.48907 0.2893,0.5786 1.08297,0.79367 1.37227,1.37227 0.43125,0.8625 -0.43125,4.62657 0,5.48907 0.2893,0.5786 1.08297,0.79367 1.37227,1.37227 0.40913,0.81826 -0.6469,2.09764 0,2.74453 0.32344,0.32345 1.04882,-0.32344 1.37226,0 0.6469,0.6469 -0.40913,1.92628 0,2.74454 0.2893,0.5786 1.08297,0.79367 1.37227,1.37227 0.40913,0.81826 -0.40913,1.92627 0,2.74453 0.2893,0.5786 1.08297,0.79367 1.37227,1.37227 0.20457,0.40913 -0.32345,1.04882 0,1.37227 0.32345,0.32345 1.04882,-0.32345 1.37227,0 2.83927,2.83927 -4.33878,-0.11099 1.37227,2.74454 0.40913,0.20456 1.04882,-0.32345 1.37226,0 0.6469,0.64689 -0.28929,1.87663 0,2.74453 3.31331,9.93991 -0.39563,-2.16353 2.74454,4.11681 0.20457,0.40913 -0.32345,1.04882 0,1.37227 0.72325,0.72324 2.02129,0.64901 2.74454,1.37226 0.72325,0.72325 0.8049,1.8935 1.37227,2.74454 0.78942,1.18413 3.04494,3.04494 4.1168,4.1168 0.45742,0.45743 1.08297,0.79367 1.37227,1.37227 0.20456,0.40913 -0.32345,1.04882 0,1.37227 0.32344,0.32345 1.04882,-0.32345 1.37227,0 0.32344,0.32345 -0.32345,1.04882 0,1.37227 0.32344,0.32345 1.04882,-0.32345 1.37226,0 0.32345,0.32345 -0.20456,0.96314 0,1.37227 0.82337,1.64672 3.29345,2.47008 4.11681,4.1168 0.20456,0.40913 -0.32345,1.04882 0,1.37227 0.32345,0.32345 1.04882,-0.32345 1.37227,0 0.32344,0.32345 -0.32345,1.04882 0,1.37227 0.32344,0.32344 1.04882,-0.32345 1.37227,0 0.64689,0.64689 -0.6469,2.09764 0,2.74453 0.32344,0.32345 1.04882,-0.32344 1.37226,0 0.32345,0.32345 -0.32344,1.04883 0,1.37227 0.32345,0.32345 1.04882,-0.32344 1.37227,0 0.32345,0.32345 -0.32345,1.04882 0,1.37227 0.32345,0.32345 1.04882,-0.32345 1.37227,0 2.83927,2.83927 -4.33878,-0.11099 1.37227,2.74454 0.40913,0.20456 0.96313,-0.20457 1.37227,0 0.5786,0.2893 0.79367,1.08297 1.37226,1.37227 0.40914,0.20456 0.91485,0 1.37227,0 0.45743,0.45742 0.79367,1.08296 1.37227,1.37226 0.40913,0.20457 1.04882,-0.32344 1.37227,0 0.32345,0.32345 -0.32345,1.04882 0,1.37227 0.46031,0.46031 2.28422,-0.46031 2.74454,0 0.32344,0.32345 -0.20457,0.96314 0,1.37227 0.28929,0.5786 1.08296,0.79367 1.37226,1.37227 0.20457,0.40913 -0.32344,1.04882 0,1.37227 0.32345,0.32344 1.04882,-0.32345 1.37227,0 0.32345,0.32344 -0.32345,1.04882 0,1.37226 0.64689,0.6469 1.92628,-0.40913 2.74454,0 0.5786,0.2893 0.79367,1.08297 1.37227,1.37227 0.40913,0.20457 1.04882,-0.32344 1.37226,0 0.32345,0.32345 -0.32344,1.04882 0,1.37227 0.32345,0.32345 1.04883,-0.32345 1.37227,0 0.32345,0.32345 -0.32344,1.04882 0,1.37227 0.32345,0.32345 0.96314,-0.20457 1.37227,0 0.5786,0.2893 0.79367,1.08297 1.37227,1.37227 0.40913,0.20456 1.04882,-0.32345 1.37227,0 0.32344,0.32344 -0.32345,1.04882 0,1.37227 0.32344,0.32344 0.96313,-0.20457 1.37227,0 0.57859,0.28929 0.79366,1.08296 1.37226,1.37226 0.40913,0.20457 1.04882,-0.32344 1.37227,0 0.32345,0.32345 -0.32345,1.04882 0,1.37227 0.32345,0.32345 1.04882,-0.32345 1.37227,0 0.32345,0.32345 -0.32345,1.04882 0,1.37227 0.48169,0.48169 5.91347,-0.47394 6.86134,0 0.5786,0.2893 0.79367,1.08297 1.37227,1.37227 1.09781,0.54891 3.01899,-0.54891 4.1168,0 0.5786,0.2893 0.79367,1.08297 1.37227,1.37227 0.41763,0.20881 3.49879,0 4.11681,0 3.65938,0 7.31876,0 10.97814,0 0.45743,0 0.91485,0 1.37227,0 0.45742,0 1.04882,-0.32345 1.37227,0 0.32345,0.32344 -0.32345,1.04882 0,1.37226 0.32345,0.32345 1.04882,-0.32344 1.37227,0 0.32344,0.32345 -0.32345,1.04883 0,1.37227 0.68613,0.68614 3.43067,-0.68613 4.1168,0 0.32345,0.32345 -0.32345,1.04882 0,1.37227 0.28054,0.28054 3.57271,-0.27205 4.11681,0 0.5786,0.2893 0.79367,1.08297 1.37226,1.37227 0.36083,0.18041 4.77149,0 5.48908,0 0.95446,0 6.36508,0.24813 6.86134,0 2.52636,-1.26318 0.21817,-2.85362 2.74453,-4.11681 0.40914,-0.20456 0.96314,0.20457 1.37227,0 0.5786,-0.2893 0.79367,-1.08296 1.37227,-1.37226 0.81826,-0.40914 2.09764,0.64689 2.74454,0 0.32344,-0.32345 -0.32345,-1.04883 0,-1.37227 0.64689,-0.6469 1.87663,0.2893 2.74453,0 0.97034,-0.32345 1.7742,-1.04882 2.74454,-1.37227 0.8637,-0.2879 5.62443,0 6.86134,0 0.45742,0 0.91485,0 1.37227,0 0.45742,0 0.99167,0.25373 1.37227,0 1.07649,-0.71766 1.66804,-2.02687 2.74453,-2.74454 0.3806,-0.25373 0.96314,0.20457 1.37227,0 0.5786,-0.2893 0.91485,-0.91484 1.37227,-1.37226 0.91484,0 1.87664,0.28929 2.74454,0 0.61369,-0.20457 0.79366,-1.08297 1.37226,-1.37227 0.81827,-0.40913 1.92628,0.40913 2.74454,0 0.5786,-0.2893 0.79367,-1.08297 1.37227,-1.37227 0.40913,-0.20457 0.91484,0 1.37227,0 0.91484,0 1.87663,0.2893 2.74453,0 1.2274,-0.40913 1.58734,-2.16594 2.74454,-2.74454 0.40913,-0.20456 0.96314,0.20457 1.37227,0 1.1572,-0.5786 1.58734,-2.16593 2.74453,-2.74453 0.40913,-0.20457 1.04883,0.32344 1.37227,0 0.32345,-0.32345 -0.32344,-1.04883 0,-1.37227 2.83927,-2.83927 -0.11099,4.33878 2.74454,-1.37227 0.94642,-1.89285 -1.66189,-1.22746 1.37227,-2.74454 0.40913,-0.20456 1.04882,0.32345 1.37226,0 0.32345,-0.32344 -0.32344,-1.04882 0,-1.37226 0.32345,-0.32345 1.04883,0.32344 1.37227,0 0.32345,-0.32345 -0.32344,-1.04883 0,-1.37227 0.6469,-0.6469 1.92628,0.40913 2.74454,0 0.5786,-0.2893 0.79367,-1.08297 1.37227,-1.37227 0.81826,-0.40913 2.09764,0.64689 2.74453,0 0.32345,-0.32345 -0.32344,-1.04882 0,-1.37227 0.32345,-0.32345 1.04882,0.32345 1.37227,0 0.72325,-0.72325 0.80491,-1.89349 1.37227,-2.74454 0.71766,-1.07649 2.16594,-1.58733 2.74454,-2.74453 0.20456,-0.40913 -0.20457,-0.96314 0,-1.37227 0.2893,-0.5786 1.08296,-0.79367 1.37226,-1.37227 0.54891,-1.09781 -0.5489,-3.01899 0,-4.1168 0.2893,-0.5786 1.01344,-0.83402 1.37227,-1.37227 0.56737,-0.85105 0.64902,-2.02129 1.37227,-2.74454 3.33297,-3.33296 2.01507,0.40807 4.11681,-2.74453 0.56736,-0.85105 1.04882,-1.7742 1.37226,-2.74454 0.14465,-0.43395 -0.32344,-1.04882 0,-1.37227 0.32345,-0.32344 1.04882,0.32345 1.37227,0 0.64689,-0.64689 -0.40913,-1.92627 0,-2.74453 0.2893,-0.5786 1.01344,-0.83402 1.37227,-1.37227 0.56736,-0.85105 0.8049,-1.89349 1.37227,-2.74454 0.35883,-0.53825 1.08297,-0.79367 1.37227,-1.37227 0.20456,-0.40913 -0.32345,-1.04882 0,-1.37227 0.32344,-0.32344 1.04882,0.32345 1.37226,0 0.37549,-0.37548 -0.37222,-4.74463 0,-5.48907 0.5786,-1.1572 2.33541,-1.51714 2.74454,-2.74453 0.2893,-0.8679 0,-1.8297 0,-2.74454 0,-0.45742 -0.20457,-0.96314 0,-1.37227 0.2893,-0.5786 1.08297,-0.79367 1.37227,-1.37227 0.27205,-0.54409 -0.28054,-3.83626 0,-4.1168 0.32345,-0.32345 1.04882,0.32345 1.37227,0 0.32344,-0.32345 -0.32345,-1.04882 0,-1.37227 0.72325,-0.72325 1.86747,-0.84603 2.74453,-1.37227 1.41423,-0.84854 2.9506,-1.57833 4.11681,-2.74453 0.72325,-0.72325 0.64902,-2.02129 1.37227,-2.74454 0.32344,-0.32345 1.04882,0.32345 1.37226,0 0.32345,-0.32345 0,-0.91485 0,-1.37227 0,-0.97267 -0.1774,-7.87881 0,-8.23361 0.2893,-0.5786 1.08297,-0.79367 1.37227,-1.37227 0.37222,-0.74443 -0.37548,-5.11359 0,-5.48907 0.32345,-0.32345 1.04882,0.32345 1.37227,0 0.32345,-0.32345 0,-0.91484 0,-1.37227 0,-2.28711 0,-4.57422 0,-6.86134 0,-1.3273 -0.2035,-7.82661 0,-8.23361 0.2893,-0.5786 1.08297,-0.79367 1.37227,-1.37226 0.20881,-0.41763 0,-3.4988 0,-4.11681 0,-3.65938 0,-7.31876 0,-10.97814 0,-8.23361 0,-16.46722 0,-24.70083 0,-8.23361 0,-16.46722 0,-24.70083 0,-2.74453 0,-5.48907 0,-8.23361 0,-0.61801 -0.20882,-3.69917 0,-4.1168 0.2893,-0.5786 1.08297,-0.79367 1.37227,-1.37227 0.20881,-0.41763 0,-3.49879 0,-4.1168 0,-3.65939 0,-7.31877 0,-10.97815 0,-10.52072 0,-21.04145 0,-31.56217 0,-10.520723 0,-21.041443 0,-31.562173 0,-0.33281 -0.0441,-4.07267 0,-4.1168 0.32344,-0.32345 1.04882,0.32345 1.37226,0 0.32345,-0.32345 0,-0.91485 0,-1.37227 0,-0.45742 0,-0.91484 0,-1.37227 0,-4.1168 0,-8.23361 0,-12.35041 0,-3.21821 0.32345,0.64689 -1.37226,-2.74454 -0.20457,-0.40913 0,-0.91484 0,-1.37226 0,-0.45743 0,-0.91485 0,-1.37227 0,-0.45743 -0.45743,-1.37227 0,-1.37227 0.45742,0 0.45742,1.37227 0,1.37227 -2.85553,0 -0.55216,-1.92443 -1.37227,-2.74454 -0.32345,-0.32345 -0.96314,0.20457 -1.37227,0 -0.5786,-0.2893 -0.79367,-1.08297 -1.37227,-1.37227 -0.94787,-0.47393 -6.37965,0.4817 -6.86134,0 -0.32345,-0.32344 0.32345,-1.04882 0,-1.37227 -0.0622,-0.0622 -6.21432,0 -6.86134,0 -5.03165,0 -10.0633,0 -15.09495,0 -0.94758,0 -5.07185,-0.2086 -5.48907,0 -0.5786,0.2893 -0.75857,1.16771 -1.37227,1.37227 -1.13654,0.37885 -5.98866,-0.43634 -6.86134,0 -0.5786,0.2893 -0.79367,1.08297 -1.37227,1.37227 -0.36083,0.18041 -4.77148,0 -5.48907,0 -3.65938,0 -7.31877,0 -10.97815,0 -13.26526,0 -26.53052,0 -39.79577,0 -3.20196,0 -6.40392,0 -9.60588,0 -1.37227,0 -2.81496,0.43395 -4.11681,0 -0.61369,-0.20456 -0.79366,-1.08297 -1.37226,-1.37227 -0.3548,-0.1774 -7.26095,0 -8.23361,0 -0.45743,0 -0.96314,0.20457 -1.37227,0 -0.5786,-0.2893 -0.79367,-1.08297 -1.37227,-1.37227 -0.36083,-0.18041 -4.77149,0 -5.48907,0 -2.74454,0 -5.48908,0 -8.23361,0 -0.91485,0 -1.84214,-0.1504 -2.74454,0 -2.30067,0.38345 -4.57423,0.91485 -6.86134,1.37227 z"
       style="fill:#ffffff;stroke:#000000;stroke-width:1px;stroke-linecap:butt;stroke-linejoin:miter;stroke-opacity:1" />
    <g
       transform="translate(-534.69942,35.921557)"
       id="g3067">
      <g
         id="g3060"
         transform="translate(368.53799,18.818961)">
        <rect
           ry="0.98507845"
           y="69.721169"
           x="-299.96231"
           height="156.91188"
           width="102.02045"
           id="rect3058"
           style="fill:#00ffff;fill-opacity:1;fill-rule:nonzero;stroke:none" />
        <g
           transform="translate(-368.88123,-18.505747)"
           id="g2987">
          <path
             inkscape:connector-curvature="0"
             id="path2997"
             d="M 103.09384,318.80196 C 77.844578,313.96991 59.289474,304.8723 42.292704,288.99102 25.105213,272.93154 12.860297,251.50189 6.5334481,226.40927 1.2214079,205.34143 1.1527094,203.70794 1.1330504,97.999822 L 1.1148235,-0.00781103 124.73329,0.24545808 248.35177,0.49872718 248.31709,97.754345 c -0.0374,104.840205 -0.11106,106.548855 -5.51492,127.926575 -11.8061,46.70493 -42.85123,79.4157 -86.05402,90.67101 -10.6333,2.77022 -13.67886,3.12776 -29.27883,3.43733 -11.75022,0.23317 -19.67539,-0.0878 -24.37548,-0.9873 z m 48.45056,-15.39995 c 46.26801,-12.38941 74.52324,-47.10112 82.54706,-101.40959 1.02866,-6.96228 1.32638,-29.01713 1.32638,-98.25311 l 0,-89.275674 -110.93327,0 -110.93328,0 -0.296211,80.298229 c -0.185541,50.297395 0.100595,85.665985 0.765856,94.665215 2.773963,37.52457 13.203853,63.84311 33.780048,85.23978 15.303822,15.91405 33.93041,25.91987 56.122767,30.14797 10.74268,2.04669 37.68637,1.24732 47.62065,-1.41282 z m -40.14572,-2.19827 C 95.85719,299.38498 78.622186,293.02615 66.06911,284.47945 42.370224,268.34417 27.360279,243.15054 20.348875,207.73974 c -1.549949,-7.82795 -1.7659,-18.13224 -2.069833,-98.76359 l -0.339338,-90.023793 106.544426,0 106.54444,0 -0.36217,91.021283 c -0.35358,88.8687 -0.41302,91.25584 -2.51353,100.93958 -5.57008,25.67924 -14.66049,44.32576 -29.21312,59.92285 -21.32007,22.85023 -54.22863,34.26609 -87.54107,30.36767 z m 3.52315,-79.86585 c 6.34509,-6.09295 13.09879,-13.61156 15.0082,-16.70802 1.9094,-3.09647 5.02133,-6.75211 6.91537,-8.12367 2.59389,-1.87835 3.73153,-3.67853 4.61003,-7.2949 1.09068,-4.48984 1.01372,-4.97216 -1.18659,-7.43819 -1.29409,-1.45035 -3.32587,-3.44736 -4.51507,-4.43779 -3.03646,-2.52895 -3.95112,-7.39269 -1.83179,-9.74059 2.39655,-2.65501 6.48126,-16.26004 6.48126,-21.58724 0,-4.71597 -2.84194,-10.75999 -11.16605,-23.74707 -2.57242,-4.01342 -3.46705,-6.2441 -2.78035,-6.93258 2.99515,-3.00291 -0.60772,-9.17883 -8.55122,-14.65826 -3.11924,-2.151648 -6.6967,-3.423296 -12.57067,-4.468384 -10.070735,-1.79177 -14.033485,-1.221947 -13.146601,1.890416 0.337974,1.186056 2.034547,3.417648 3.770162,4.959088 1.735615,1.54143 5.523639,4.90797 8.417839,7.4812 6.38761,5.67922 9.29691,7.05686 15.13363,7.16623 4.11793,0.0772 4.74179,0.4445 7.77583,4.57852 6.34886,8.65061 11.34885,19.59321 11.39313,24.93419 0.0459,5.53628 -3.43635,17.70461 -5.72251,19.99668 -0.82909,0.83126 -1.50745,3.21693 -1.50745,5.30151 0,3.19942 0.53421,4.15714 3.42754,6.14481 1.88515,1.29507 3.89343,3.37985 4.46287,4.63285 1.54891,3.40831 -1.20531,9.42229 -5.65156,12.34045 -2.09174,1.37285 -4.58982,4.33996 -5.91919,7.03056 -1.52533,3.08719 -6.4753,8.59867 -14.6954,16.3624 -11.01578,10.4042 -13.365448,13.39587 -10.52114,13.39587 0.45825,0 6.02464,-4.98514 12.36973,-11.07808 z"
             style="fill:#ec3237;fill-opacity:1" />
          <path
             inkscape:connector-curvature="0"
             id="path2991"
             d="M 106.88196,319.9305 C 79.851408,315.95817 54.391515,303.07151 37.475271,284.79995 17.766081,263.51167 5.7541576,235.35124 2.0668613,201.78941 1.3858589,195.59092 1,157.34361 1,96.039414 L 1,0 125,0 249,0 248.992,96.75 c -0.008,96.51614 -0.291,106.07827 -3.61448,122.20948 C 232.38331,282.0286 185.38317,321.49158 124,320.87216 c -6.325,-0.0638 -14.02812,-0.48757 -17.11804,-0.94166 z m 42.6052,-6.41706 c 23.02314,-4.9697 41.66361,-14.87673 57.49518,-30.5575 20.0528,-19.86178 32.50364,-48.86007 35.9859,-83.81189 C 243.59419,192.86128 244,152.8411 244,97.394045 L 244,6 124.95403,6 5.9080527,6 6.2532962,103.25 c 0.3712548,104.57698 0.2988986,103.01928 5.7174298,123.08613 6.165015,22.83135 16.24823,41.23951 30.802059,56.23298 C 58.40181,298.67025 81.77805,310.62932 104,313.89239 c 4.125,0.60572 8.625,1.29878 10,1.54013 4.85776,0.85269 28.59268,-0.43085 35.48716,-1.91908 z m 2.68715,-41.82789 c -3.28204,-3.49357 -2.83924,-8.22488 1.35226,-14.4489 3.55426,-5.27777 4.76097,-5.97294 7.43367,-4.28239 1.25318,0.79267 1.20384,1.20695 -0.34796,2.92168 -1.8652,2.06102 -1.46913,4.12406 0.79175,4.12406 4.24427,0 6.33539,8.42049 3.00501,12.10051 -2.55197,2.8199 -9.41439,2.58715 -12.23473,-0.41496 z m 8.67421,-4.11945 c 0.42543,-2.2299 -2.37857,-4.68367 -4.44572,-3.89043 -1.45741,0.55926 -1.93249,4.46131 -0.69395,5.69985 1.33516,1.33516 4.77047,0.12576 5.13967,-1.80942 z m -44.10437,4.84472 c -0.37044,-0.37045 -0.0144,-1.61456 0.79116,-2.76469 1.9317,-2.75789 1.85112,-3.38871 -0.52939,-4.14425 C 113.71147,264.45626 112,262.05129 112,258.46753 112,253.98153 115.19413,251 120,251 c 5.01454,0 8,2.95782 8,7.92594 0,6.74753 -8.18604,16.55468 -11.25585,13.48488 z m 6.05995,-13.54162 c 0.32397,-2.78461 -1.63497,-4.25507 -4.3041,-3.23083 -3.08127,1.1824 -0.8272,6.75783 2.47919,6.13227 0.83644,-0.15826 1.65765,-1.46391 1.82491,-2.90144 z m 13.67022,11.18046 C 138.3682,266.3873 138.37066,266 136.5,266 c -2.64608,0 -5.5,-3.81129 -5.5,-7.34501 0,-4.44271 3.00084,-7.10954 8,-7.10954 8.38327,0 10.64114,7.66359 4.89575,16.617 -2.54824,3.97109 -3.6275,4.83755 -6.02568,4.83755 -2.91319,0 -2.91713,-0.008 -1.39575,-2.95034 z M 141.5,258.9863 c 0,-1.98173 -0.50457,-2.4863 -2.4863,-2.4863 -2.80935,0 -4.09328,3.19169 -1.86209,4.62892 2.30946,1.48765 4.34839,0.483 4.34839,-2.14262 z M 99,264 c 0,-7.46874 -0.139919,-8 -2.106989,-8 -1.510455,0 -1.935137,-0.44784 -1.5,-1.58179 C 95.726855,253.54823 96,252.42323 96,251.91821 96,251.4132 97.8,251 100,251 l 4,0 0,10.5 0,10.5 -2.5,0 C 99.041667,272 99,271.86667 99,264 z M 78,209.79832 c -5.775,-2.73749 -10.573194,-5.04949 -10.662654,-5.13779 -0.08946,-0.0883 -0.93169,-3.31053 -1.871623,-7.16053 -2.759236,-11.30192 -5.288214,-16.3021 -8.614779,-17.03274 -2.958846,-0.64987 -3.169669,-1.38416 -1.982629,-6.9054 L 55.5,170.62373 l 13,-0.1466 c 13.6895,-0.15437 20.095538,1.21491 30.487973,6.51673 2.202027,1.12339 8.124007,3.1452 13.159957,4.49291 5.03594,1.34771 10.11968,3.35546 11.29719,4.46167 1.1775,1.10621 3.58406,2.51437 5.3479,3.12925 1.76384,0.61488 3.20407,1.41144 3.20052,1.77014 -0.004,0.35869 -1.80218,2.74711 -3.99695,5.30759 -3.09038,3.6053 -5.73934,5.37488 -11.74355,7.845 -4.26417,1.75428 -9.55304,4.21115 -11.75304,5.45972 -3.93608,2.23384 -8.579333,3.89779 -13.5,4.83784 -1.662686,0.31764 -6.016719,-1.18941 -13,-4.49966 z m 64.5,0.26271 c -4.95,-0.30857 -9,-0.86659 -9,-1.24006 0,-0.37346 2.30973,-3.74846 5.13273,-7.5 2.82301,-3.75153 5.72961,-8.51871 6.45912,-10.59373 1.2141,-3.45337 2.21873,-4.20231 11.86727,-8.84693 5.79748,-2.7908 12.21159,-5.67968 14.25357,-6.41972 2.04198,-0.74005 5.04221,-2.3285 6.66718,-3.52989 3.33738,-2.46744 6.96179,-2.21345 14.49528,1.01578 5.02657,2.15464 6.22996,4.53457 7.18176,14.20332 0.84651,8.599 -0.0986,10.38017 -5.30815,10.00403 -3.33314,-0.24066 -5.15901,0.54111 -12.07424,5.16974 -6.15563,4.1202 -9.89175,5.84723 -15.28356,7.06485 -7.24231,1.63552 -8.42207,1.66806 -24.39096,0.67261 z m -25.15909,-31.79512 c -4.73593,-0.33426 -5.55616,-0.78872 -10,-5.54064 -4.69771,-5.02339 -5.1663,-5.25772 -15.84091,-7.92184 -6.05,-1.50994 -13.550696,-2.75841 -16.668213,-2.77438 -3.117516,-0.016 -6.400892,-0.31021 -7.29639,-0.65384 -2.016188,-0.77368 -6.035127,-8.62221 -6.925507,-13.52473 -0.779168,-4.29017 -2.295872,-5.76474 -7.026962,-6.83178 -2.442301,-0.55083 -4.069684,-0.36606 -5.480685,0.62224 -1.78496,1.25023 -2.124684,1.18565 -3.071772,-0.584 -2.446335,-4.57102 3.620849,-20.17672 8.438813,-21.70588 1.095618,-0.34774 3.145857,-1.48531 4.556087,-2.52794 2.405708,-1.77862 2.9513,-1.80535 8.834608,-0.43286 3.448805,0.80455 7.703685,1.24115 9.455288,0.97022 1.94027,-0.3001 6.225188,0.51012 10.96563,2.07347 C 91.56039,120.84528 96.215958,122 97.626605,122 c 1.410646,0 3.759245,0.66428 5.219105,1.47618 4.66859,2.59644 14.09288,4.49767 16.93617,3.41665 1.40966,-0.53595 3.07748,-0.77704 3.70628,-0.53575 0.62879,0.24129 3.68171,4.96541 6.78427,10.49803 l 5.64101,10.05933 -1.36341,6.51643 c -0.74988,3.58404 -2.25352,7.64801 -3.34142,9.03106 -1.0879,1.38304 -2.27772,4.51323 -2.64403,6.95597 -0.6229,4.15379 -3.86679,9.81228 -5.38716,9.39712 -0.37258,-0.10174 -2.99901,-0.34884 -5.83651,-0.54911 z M 141.5,174.94374 c -0.55,-0.52595 -2.11196,-1.80313 -3.47103,-2.83819 l -2.47104,-1.88193 4.1774,-9.58691 c 2.41194,-5.5353 5.44828,-10.75964 7.18457,-12.36181 1.67423,-1.54491 4.6298,-6.54257 6.66786,-11.2749 2.01337,-4.675 3.84013,-8.69785 4.05946,-8.93967 0.21933,-0.24181 1.07575,0.52684 1.90315,1.70812 1.60308,2.28871 4.44963,2.02512 4.44963,-0.41204 0,-2.57148 10.19832,-14.35593 12.42944,-14.36257 1.13881,-0.003 3.3595,-0.67839 4.93487,-1.5 3.88052,-2.02383 4.79914,-1.93582 15.14234,1.45082 C 209.2051,119.10246 210,120.20524 210,133.66417 l 0,10.55265 -2.61666,-0.65674 c -8.10127,-2.03329 -8.07136,-2.03993 -9.41103,2.08721 C 196.50287,150.17421 188.21754,167 187.45785,167 c -0.28715,0 -2.15148,-0.68081 -4.14297,-1.5129 -1.99148,-0.8321 -5.46453,-1.48581 -7.71788,-1.45269 -2.25335,0.0331 -4.8874,0.0112 -5.85345,-0.0488 -0.96605,-0.0599 -3.66605,1.4101 -6,3.26674 -4.07802,3.24403 -16.70884,8.80131 -19.76831,8.69762 -0.81138,-0.0275 -1.92524,-0.48032 -2.47524,-1.00626 z m -2.43442,-44.74067 c -4.07207,-5.59183 -4.26971,-6.19755 -4.58329,-14.04624 -0.28347,-7.09547 -0.78456,-9.03497 -3.71298,-14.37164 -2.9205,-5.32223 -4.26272,-6.650706 -9.77628,-9.6762 -5.76327,-3.162516 -7.37529,-3.561098 -16.41207,-4.057984 L 94.559897,87.5 98.029949,84.247388 c 4.640561,-4.349776 6.465281,-4.789601 9.609611,-2.316268 3.8488,3.027465 20.10998,3.022947 25.7635,-0.0072 4.44227,-2.380915 3.26643,-3.16421 12.49851,8.326039 3.4248,4.2625 6.67034,7.75 7.21233,7.75 2.75212,0 7.40971,-3.705662 11.30044,-8.990834 4.95783,-6.734747 4.47398,-6.822179 11.96525,2.162094 3.93835,4.723257 5.42731,5.789269 8.9074,6.377227 3.99049,0.674188 6.6127,2.663184 6.68121,5.067814 0.0205,0.71798 -3.51612,1.28715 -9.9112,1.5951 -9.32311,0.44893 -10.36738,0.72254 -16.75,4.38856 -5.72979,3.29106 -7.28175,4.79037 -9.807,9.47434 -1.65,3.06051 -4.0125,6.8315 -5.25,8.37999 -1.2375,1.54848 -2.25,3.3513 -2.25,4.00625 0,0.65496 -1.05274,2.17983 -2.33941,3.3886 l -2.33942,2.19776 -4.25559,-5.84383 z M 98.393445,115.47409 C 96.684839,114.72457 90.65916,113.7926 85.003047,113.40304 L 74.719205,112.69475 73.30424,109.0926 c -1.121355,-2.85469 -2.75887,-4.32019 -7.891496,-7.06251 C 61.850652,100.1269 59.063065,98.028835 59.218106,97.367732 59.582224,95.815118 70.873364,84 71.993005,84 c 1.964008,0 8.994297,9.592294 9.000539,12.280551 0.0045,1.930842 1.11263,3.764389 3.626248,5.999999 3.775743,3.35815 10.097328,7.15071 13.326768,7.99522 1.800922,0.47096 5.93304,6.81133 4.32912,6.64266 -0.42662,-0.0449 -2.17363,-0.69482 -3.882235,-1.44434 z"
             style="fill:#000000" />
          <path
             inkscape:connector-curvature="0"
             id="path2989"
             d="M 106.8625,319.92807 C 67.186179,314.10037 35.357323,291.32471 17.523357,256 11.956629,244.97368 6.7439156,230.15646 7.4466117,227.35669 7.7490839,226.15155 7.522952,225.00765 6.9440963,224.8147 5.5570404,224.35235 4.2144047,218.13783 2.4554836,204.03874 1.2932708,194.72271 1.014439,173.9613 1.007989,96.260364 L 1,0.02072759 124.75,0.26036379 248.5,0.5 248.78484,96 c 0.18175,60.9344 -0.09,99.04539 -0.75067,105.29543 -4.38989,41.52582 -21.44972,74.79813 -48.99306,95.55266 -15.44798,11.6404 -36.98115,20.4621 -56.36347,23.09095 -8.954,1.21445 -27.51094,1.20876 -35.81514,-0.011 z M 155.5,313.78109 c 7.15,-1.67216 14.21515,-3.65697 15.70034,-4.41069 1.48519,-0.75372 3.62269,-1.3704 4.75,-1.3704 1.12731,0 2.05317,-0.5625 2.05746,-1.25 0.004,-0.6875 1.01679,-1.74656 2.25,-2.35347 9.46022,-4.65575 15.25137,-8.46144 21.62867,-14.21343 4.06256,-3.66421 7.93391,-7.1169 8.603,-7.67265 C 213.07941,280.35923 222,268.83099 222,267.63518 c 0,-0.69355 1.35,-2.55438 3,-4.13518 1.65,-1.5808 3,-3.28319 3,-3.78309 0,-0.4999 1.575,-4.22791 3.5,-8.28446 1.925,-4.05655 3.5,-7.84446 3.5,-8.41757 0,-0.57311 0.38968,-1.82341 0.86596,-2.77845 1.64129,-3.29114 3.31668,-8.75416 4.67268,-15.23643 0.74785,-3.575 1.93281,-8.075 2.63325,-10 1.64713,-4.52675 2.4981,-207.8795868 0.88255,-210.8982812 C 243.19023,2.4869343 242.47267,2.331166 239.2689,3.062873 237.196,3.5362991 184.00027,3.9380524 121.05617,3.955658 56.814294,3.9736267 6.2274986,4.3725014 5.73504,4.86496 4.8669298,5.7330702 4.5896937,198.52709 5.4545434,199.92645 c 0.2438851,0.39461 0.5264845,2.7101 0.6279988,5.14552 0.4499067,10.79367 6.1924088,31.25292 12.5183018,44.5999 C 20.47038,253.6164 22,257.51937 22,258.34514 c 0,0.82578 1.125,2.8384 2.5,4.47249 1.375,1.6341 2.5,3.73575 2.5,4.67035 0,0.93459 0.9,1.93461 2,2.22227 1.1,0.28766 2,0.90487 2,1.37159 0,0.46671 1.35,2.38613 3,4.26538 1.65,1.87924 3,3.7784 3,4.22034 0,1.1757 4.18111,5.43244 5.335923,5.43244 0.543012,0 2.37707,1.55496 4.075686,3.45546 4.437652,4.96508 17.222288,14.27497 21.467365,15.63272 1.991564,0.63699 4.521026,1.95524 5.621026,2.92944 1.1,0.97421 4.025,2.10018 6.5,2.50218 2.475,0.40199 5.387628,1.34948 6.472506,2.10554 1.084879,0.75607 3.201205,1.37466 4.702947,1.37466 1.501743,0 3.764115,0.47063 5.027494,1.04584 4.095823,1.86481 24.012513,3.68396 35.297053,3.22395 7.3666,-0.30029 15.29402,-1.45264 24,-3.4887 z m 2.01008,-41.76478 c -0.34546,-0.55897 0.0734,-1.01631 0.9309,-1.01631 1.75653,0 2.01516,0.60006 0.62812,1.45729 -0.512,0.31644 -1.21356,0.11799 -1.55902,-0.44098 z M 101,264.32874 c 0,-4.80435 -0.46314,-7.18302 -1.654988,-8.5 C 97.792874,254.11365 97.817297,254 99.738024,254 c 1.126396,0 2.321146,0.7118 2.654986,1.58179 C 103.40698,258.22414 103.08132,271 102,271 c -0.56674,0 -1,-2.89042 -1,-6.67126 z m 61.61241,4.14005 c 1.92124,-2.93218 2.55208,-2.8138 1.7313,0.32488 -0.31734,1.21348 -1.20986,2.20633 -1.98339,2.20633 -1.14217,0 -1.09481,-0.47559 0.25209,-2.53121 z m -9.86241,0.95425 c -0.4125,-0.416 -0.75,-1.67137 -0.75,-2.78971 0,-1.47178 0.30207,-1.73126 1.09378,-0.93955 0.60158,0.60158 0.93908,1.85695 0.75,2.78971 -0.18908,0.93276 -0.68128,1.35556 -1.09378,0.93955 z m -13.06235,-2.79462 c -0.29744,-0.77512 0.74321,-2.31018 2.39301,-3.52994 3.22939,-2.38759 3.7851,-1.34943 1.30433,2.4367 -1.82033,2.77817 -2.92538,3.10492 -3.69734,1.09324 z M 121.25,266.30163 c -2.15338,-0.80674 -1.36385,-3.04671 1.25,-3.54638 1.375,-0.26285 2.5,-0.17632 2.5,0.19229 0,1.48537 -2.57956,3.79259 -3.75,3.35409 z m 31.75,-3.9105 c 0,-1.10488 0.675,-2.88238 1.5,-3.95 1.48484,-1.92151 1.51516,-1.92151 3,0 1.97753,2.5591 1.89326,3.55887 -0.3,3.55887 -0.99,0 -2.34,0.54 -3,1.2 -0.93333,0.93333 -1.2,0.75358 -1.2,-0.80887 z m -39.03517,-2.93351 c -0.87634,-1.05593 -0.95595,-1.8665 -0.25241,-2.57004 0.70353,-0.70353 1.1826,-0.21708 1.51894,1.54239 0.57297,2.9973 0.45056,3.09663 -1.26653,1.02765 z M 133,257.2 c 0,-2.73835 8.97025,-4.67519 10.46339,-2.25923 0.34245,0.55409 -0.79481,0.71743 -2.76695,0.39739 -2.31339,-0.37541 -3.84375,-0.048 -4.95098,1.05924 C 133.99124,258.15161 133,258.44139 133,257.2 z m 24.5,-2.2 c 0.33992,-0.55 1.06803,-1 1.61803,-1 0.55,0 0.72189,0.45 0.38197,1 -0.33992,0.55 -1.06803,1 -1.61803,1 -0.55,0 -0.72189,-0.45 -0.38197,-1 z M 85,210.82714 c -2.475,-1.1459 -4.65,-2.47579 -4.833333,-2.9553 C 79.983333,207.39233 78.573317,207 77.033298,207 c -1.917745,0 -2.957855,-0.6035 -3.300892,-1.91528 -0.275471,-1.0534 -1.531331,-2.0659 -2.7908,-2.25 -1.869244,-0.27323 -2.642832,-1.52888 -4.210772,-6.83472 -1.056456,-3.575 -2.514929,-8.075 -3.241052,-10 -0.726122,-1.925 -1.569251,-4.2875 -1.873618,-5.25 -0.304367,-0.9625 -1.44096,-1.75 -2.525762,-1.75 -2.603806,0 -3.302322,-1.31247 -2.217245,-4.16608 0.870281,-2.28873 1.149743,-2.33337 14.433424,-2.30563 11.386448,0.0238 13.849253,0.30276 15.44843,1.75 C 87.80137,175.22523 89.833826,176 91.27158,176 c 1.437755,0 4.241351,0.9601 6.230214,2.13356 1.988863,1.17346 7.077086,3.14005 11.307156,4.37021 7.87078,2.28892 22.14871,9.46416 18.87366,9.48478 -1.31137,0.008 -1.65388,0.52661 -1.23014,1.86169 0.43206,1.3613 -0.42317,2.55045 -3.23637,4.5 -2.10298,1.45737 -4.53181,2.64976 -5.39741,2.64976 -0.86559,0 -2.134,0.675 -2.81869,1.5 -0.68469,0.825 -2.4698,1.5 -3.96691,1.5 -1.4971,0 -4.0295,1.13663 -5.62755,2.52584 -1.59805,1.38922 -4.03054,2.77423 -5.40554,3.0778 -1.375,0.30357 -3.4,0.93866 -4.5,1.41131 -4.309867,1.85184 -6.166315,1.81864 -10.5,-0.18781 z m 53.06552,-3.16162 C 137.02543,206.62543 142.36419,198 144.04804,198 144.57162,198 145,197.1551 145,196.12244 c 0,-1.03265 0.675,-2.43775 1.5,-3.12244 0.825,-0.68469 1.5,-1.79504 1.5,-2.46746 0,-1.74347 3.33785,-4.53254 5.42437,-4.53254 0.97179,0 2.96136,-0.83754 4.42126,-1.86119 1.4599,-1.02366 4.30587,-2.39668 6.32438,-3.05116 2.0185,-0.65447 4.2111,-1.84194 4.87244,-2.6388 0.66134,-0.79687 1.98454,-1.44885 2.94045,-1.44885 0.9559,0 3.46195,-1.1699 5.56899,-2.59978 4.43769,-3.0115 8.81333,-2.8313 13.09852,0.53943 1.44062,1.13319 3.19633,2.06035 3.90158,2.06035 0.73076,0 1.74803,2.17172 2.36515,5.04922 2.16804,10.10926 1.15551,12.95078 -4.61483,12.95078 -2.15963,0 -4.94094,1.18056 -8.05931,3.42089 -2.6189,1.88149 -7.90744,4.91899 -11.75232,6.75 -6.79804,3.23737 -7.35546,3.33083 -20.22822,3.39157 -7.28064,0.0344 -13.66927,-0.36927 -14.19694,-0.89694 z M 111.89021,174.75 c -1.44634,-2.75749 -8.5813,-9.51728 -10.78254,-10.21556 -0.88422,-0.28049 -3.653914,-0.71693 -6.154878,-0.96986 -2.500964,-0.25294 -5.765514,-0.92308 -7.254556,-1.48921 -1.489042,-0.56613 -6.279967,-1.32728 -10.646502,-1.69143 l -7.939153,-0.6621 -3.556291,-5.76165 C 63.600331,150.79129 62,147.03925 62,145.62233 c 0,-3.57176 -4.143885,-6.05722 -10.436523,-6.25973 -4.399557,-0.14158 -5.107358,-0.4534 -5.398142,-2.37811 -0.184066,-1.21834 0.153434,-2.70326 0.75,-3.29983 C 47.511901,133.0881 48,131.63385 48,130.45301 c 0,-1.18084 0.9,-3.1847 2,-4.45301 1.1,-1.26831 2,-2.64702 2,-3.0638 0,-0.41678 1.956073,-1.70471 4.346828,-2.86205 3.881818,-1.87916 5.459731,-2.03805 14.75,-1.48529 7.434458,0.44234 12.16404,1.30273 16.573727,3.01505 3.393806,1.31785 7.691306,2.39609 9.55,2.39609 1.858695,0 3.806945,0.40018 4.329445,0.88929 1.61143,1.50844 12.02218,4.10873 16.60391,4.14715 3.80357,0.0319 4.68937,0.4889 7.09609,3.66103 1.5125,1.99352 2.75,4.45212 2.75,5.46356 0,1.01143 0.675,1.83897 1.5,1.83897 0.93333,0 1.5,0.94444 1.5,2.5 0,1.46667 0.51667,2.39667 1.25,2.25 1.28311,-0.25662 1.32223,2.16306 0.17784,11 -0.43374,3.3493 -0.96126,4.25 -2.48911,4.25 -1.41381,0 -1.93873,0.69366 -1.93873,2.56193 0,3.38122 -4.63215,13.08294 -6.60868,13.8414 -3.69383,1.41746 -8.31195,0.61384 -9.50111,-1.65333 z m 29.29785,-2.70951 c -2.54243,-3.43882 -2.71574,-5.75837 -0.6358,-8.50959 0.81876,-1.08301 1.94351,-3.65834 2.49945,-5.72295 0.62544,-2.3227 2.2771,-4.7197 4.33221,-6.28721 2.19507,-1.67426 4.27469,-4.82025 6.13249,-9.27705 3.51533,-8.43317 4.29189,-9.43931 6.69644,-8.67614 C 162.28489,134.2252 166,131.58418 166,129.45355 166,127.43063 175.29144,117 177.09342,117 c 0.91428,0 3.19217,-0.63921 5.06196,-1.42046 2.65521,-1.10941 4.37898,-1.18926 7.87213,-0.36465 6.68173,1.57732 14.73571,4.79488 16.09154,6.42855 0.67853,0.81758 1.31831,5.32593 1.47608,10.40151 l 0.27847,8.95847 -3.96232,-0.6336 C 199.49341,139.66338 196,141.78472 196,145.17388 c 0,1.84829 -5.23978,12.45116 -7.05505,14.27612 -0.51972,0.5225 -0.94495,1.73344 -0.94495,2.69098 0,2.80422 -1.51687,2.99504 -6.57453,0.82707 -3.07824,-1.31948 -5.09793,-1.69559 -5.72703,-1.06649 -0.53451,0.53451 -3.11388,0.71814 -5.73195,0.40807 -4.1919,-0.49647 -4.90105,-0.30042 -5.94083,1.64243 -1.32043,2.46724 -12.27867,8.04593 -15.80704,8.04715 -1.25477,4.3e-4 -2.54041,0.67579 -2.85699,1.50079 -0.83488,2.17564 -1.71303,1.86855 -4.17357,-1.45951 z M 141.2,130.8 c -0.66,-0.66 -1.2,-1.72431 -1.2,-2.36514 0,-0.64083 -0.95772,-2.38268 -2.12826,-3.87079 -1.78716,-2.27201 -1.9467,-3.10414 -0.9954,-5.19201 0.77689,-1.70509 0.81719,-3.07618 0.12826,-4.36347 -0.55253,-1.03241 -1.009,-3.14419 -1.01437,-4.69285 -0.0127,-3.65452 -4.03767,-12.034859 -7.5266,-15.670928 -1.5068,-1.570354 -5.92734,-4.382854 -9.82342,-6.25 L 111.55642,85 l 4.97179,0.03544 c 2.73449,0.01949 6.09679,0.65985 7.47179,1.423024 2.18865,1.21478 2.73102,1.179232 4.35499,-0.285436 1.02024,-0.920163 2.14524,-1.549477 2.5,-1.398477 0.35475,0.151 1.91469,-0.0043 3.46652,-0.345161 3.16954,-0.696147 6.27351,1.915018 13.15998,11.070615 3.51034,4.667015 5.30216,6.447715 6.52516,6.484685 1.02592,0.031 9.81226,-8.603386 12.56136,-12.344131 l 2.83632,-3.859445 1.89074,2.359445 c 5.15001,6.426685 9.13087,9.994634 11.73165,10.514791 1.57908,0.315815 3.63879,1.42255 4.57715,2.45943 1.64138,1.8137 1.56991,1.88522 -1.88378,1.88522 -1.97444,0 -4.72825,-0.43281 -6.11959,-0.96179 -1.39133,-0.52898 -2.76065,-0.58808 -3.04294,-0.13135 -0.28228,0.45674 -2.25552,1.10904 -4.38498,1.44955 -2.12947,0.34052 -5.02292,1.52464 -6.4299,2.63137 -1.40697,1.10671 -2.96291,2.01223 -3.45763,2.01223 -2.01732,0 -7.21127,5.38758 -7.80646,8.09749 -0.35079,1.59711 -2.22712,4.80613 -4.16962,7.13116 -1.94251,2.32503 -3.92055,5.24972 -4.39565,6.49933 -0.94941,2.49714 -2.85482,2.93051 -4.71332,1.07201 z m 0.8,-8.35902 c 0,-0.85746 -0.45,-1.2809 -1,-0.94098 -0.55,0.33992 -1,1.04148 -1,1.55902 0,0.51754 0.45,0.94098 1,0.94098 0.55,0 1,-0.70156 1,-1.55902 z M 90.144518,112.20051 c -0.517793,-0.16472 -3.756483,-0.61472 -7.197088,-1 -5.937991,-0.66494 -6.353212,-0.88873 -8.177041,-4.40709 -1.056768,-2.03861 -2.899919,-4.01685 -4.095892,-4.39609 -1.195974,-0.37923 -3.917641,-1.78954 -6.04815,-3.134024 l -3.873653,-2.444512 5.147208,-4.909397 C 68.730867,89.209229 71.448697,87 71.939526,87 73.634176,87 79,94.795169 79,97.257062 79,100.8849 87.671551,108.65237 93.445751,110.19673 95.950588,110.86668 98,111.73949 98,112.13632 c 0,0.67619 -5.783109,0.72345 -7.855482,0.0642 z M 101.57003,85.113307 c -0.30141,-0.487681 0.15976,-1.474086 1.0248,-2.192011 1.67275,-1.388254 4.41867,-0.380784 5.17898,1.900147 0.46177,1.385308 -5.35876,1.659141 -6.20378,0.291864 z"
             style="fill:#000000" />
        </g>
      </g>
    </g>
  </g>
</svg>
