<?xml version="1.0" encoding="UTF-8" standalone="no"?>
<!-- Created with Inkscape (http://www.inkscape.org/) -->

<svg
   xmlns:dc="http://purl.org/dc/elements/1.1/"
   xmlns:cc="http://creativecommons.org/ns#"
   xmlns:rdf="http://www.w3.org/1999/02/22-rdf-syntax-ns#"
   xmlns:svg="http://www.w3.org/2000/svg"
   xmlns="http://www.w3.org/2000/svg"
   xmlns:sodipodi="http://sodipodi.sourceforge.net/DTD/sodipodi-0.dtd"
   xmlns:inkscape="http://www.inkscape.org/namespaces/inkscape"
   id="svg2"
   version="1.1"
   inkscape:version="0.48.2 r9819"
   width="432"
   height="216"
   sodipodi:docname="Mk-jegu.gif">
  <metadata
     id="metadata8">
    <rdf:RDF>
      <cc:Work
         rdf:about="">
        <dc:format>image/svg+xml</dc:format>
        <dc:type
           rdf:resource="http://purl.org/dc/dcmitype/StillImage" />
        <dc:title></dc:title>
      </cc:Work>
    </rdf:RDF>
  </metadata>
  <defs
     id="defs6" />
  <sodipodi:namedview
     pagecolor="#ffffff"
     bordercolor="#666666"
     borderopacity="1"
     objecttolerance="10"
     gridtolerance="10"
     guidetolerance="10"
     inkscape:pageopacity="0"
     inkscape:pageshadow="2"
     inkscape:window-width="1366"
     inkscape:window-height="706"
     id="namedview4"
     showgrid="false"
     inkscape:zoom="0.72904215"
     inkscape:cx="214.65839"
     inkscape:cy="166.16358"
     inkscape:window-x="-8"
     inkscape:window-y="-8"
     inkscape:window-maximized="1"
     inkscape:current-layer="svg2" />
  <rect
     style="fill:#ff0000;fill-opacity:1;stroke:none"
     id="rect3977"
     width="455.39206"
     height="235.92601"
     x="-8.2299767"
     y="-4.8377123" />
  <path
     sodipodi:type="star"
     style="fill:#ffff00;fill-opacity:1;stroke:none"
     id="path2987"
     sodipodi:sides="5"
     sodipodi:cx="-111.35404"
     sodipodi:cy="144.89441"
     sodipodi:r1="20.124224"
     sodipodi:r2="7.6807842"
     sodipodi:arg1="0.92729522"
     sodipodi:arg2="1.5556137"
     inkscape:flatsided="false"
     inkscape:rounded="0"
     inkscape:randomized="0"
     d="m -99.279508,160.99379 -11.957922,-8.41948 -11.6968,8.77865 4.3122,-13.97443 -11.96349,-8.41156 14.62301,-0.21719 4.30294,-13.97728 4.72532,13.8402 14.622864,-0.22687 -11.702604,8.7709 z"
     inkscape:transform-center-x="0.057332169"
     inkscape:transform-center-y="-1.2003197"
     transform="matrix(0.60721159,0,0,0.6553116,95.347192,35.602619)" />
  <path
     sodipodi:type="star"
     style="fill:#ffff00;fill-opacity:1;stroke:none"
     id="path2987-1"
     sodipodi:sides="5"
     sodipodi:cx="-111.35404"
     sodipodi:cy="144.89441"
     sodipodi:r1="20.124224"
     sodipodi:r2="7.6807842"
     sodipodi:arg1="0.92729522"
     sodipodi:arg2="1.5556137"
     inkscape:flatsided="false"
     inkscape:rounded="0"
     inkscape:randomized="0"
     d="m -99.279508,160.99379 -11.957922,-8.41948 -11.6968,8.77865 4.3122,-13.97443 -11.96349,-8.41156 14.62301,-0.21719 4.30294,-13.97728 4.72532,13.8402 14.622864,-0.22687 -11.702604,8.7709 z"
     inkscape:transform-center-x="0.057332169"
     inkscape:transform-center-y="-1.2003197"
     transform="matrix(0.60721159,0,0,0.6553116,157.87462,39.806807)" />
  <path
     sodipodi:type="star"
     style="fill:#ffff00;fill-opacity:1;stroke:none"
     id="path2987-7"
     sodipodi:sides="5"
     sodipodi:cx="-111.35404"
     sodipodi:cy="144.89441"
     sodipodi:r1="20.124224"
     sodipodi:r2="7.6807842"
     sodipodi:arg1="0.92729522"
     sodipodi:arg2="1.5556137"
     inkscape:flatsided="false"
     inkscape:rounded="0"
     inkscape:randomized="0"
     d="m -99.279508,160.99379 -11.957922,-8.41948 -11.6968,8.77865 4.3122,-13.97443 -11.96349,-8.41156 14.62301,-0.21719 4.30294,-13.97728 4.72532,13.8402 14.622864,-0.22687 -11.702604,8.7709 z"
     inkscape:transform-center-x="0.057332169"
     inkscape:transform-center-y="-1.2003197"
     transform="matrix(0.60721159,0,0,0.6553116,217.03925,57.265224)" />
  <path
     sodipodi:type="star"
     style="fill:#ffff00;fill-opacity:1;stroke:none"
     id="path2987-4"
     sodipodi:sides="5"
     sodipodi:cx="-111.35404"
     sodipodi:cy="144.89441"
     sodipodi:r1="20.124224"
     sodipodi:r2="7.6807842"
     sodipodi:arg1="0.92729522"
     sodipodi:arg2="1.5556137"
     inkscape:flatsided="false"
     inkscape:rounded="0"
     inkscape:randomized="0"
     d="m -99.279508,160.99379 -11.957922,-8.41948 -11.6968,8.77865 4.3122,-13.97443 -11.96349,-8.41156 14.62301,-0.21719 4.30294,-13.97728 4.72532,13.8402 14.622864,-0.22687 -11.702604,8.7709 z"
     inkscape:transform-center-x="0.057332169"
     inkscape:transform-center-y="-1.2003197"
     transform="matrix(0.60721159,0,0,0.6553116,247.59148,21.378477)" />
  <path
     sodipodi:type="star"
     style="fill:#ffff00;fill-opacity:1;stroke:none"
     id="path2987-0"
     sodipodi:sides="5"
     sodipodi:cx="-111.35404"
     sodipodi:cy="144.89441"
     sodipodi:r1="20.124224"
     sodipodi:r2="7.6807842"
     sodipodi:arg1="0.92729522"
     sodipodi:arg2="1.5556137"
     inkscape:flatsided="false"
     inkscape:rounded="0"
     inkscape:randomized="0"
     d="m -99.279508,160.99379 -11.957922,-8.41948 -11.6968,8.77865 4.3122,-13.97443 -11.96349,-8.41156 14.62301,-0.21719 4.30294,-13.97728 4.72532,13.8402 14.622864,-0.22687 -11.702604,8.7709 z"
     inkscape:transform-center-x="0.057332169"
     inkscape:transform-center-y="-1.2003197"
     transform="matrix(0.60721159,0,0,0.6553116,287.84284,-11.113577)" />
  <path
     sodipodi:type="star"
     style="fill:#ffff00;fill-opacity:1;stroke:none"
     id="path2987-9"
     sodipodi:sides="5"
     sodipodi:cx="-111.35404"
     sodipodi:cy="144.89441"
     sodipodi:r1="20.124224"
     sodipodi:r2="7.6807842"
     sodipodi:arg1="0.92729522"
     sodipodi:arg2="1.5556137"
     inkscape:flatsided="false"
     inkscape:rounded="0"
     inkscape:randomized="0"
     d="m -99.279508,160.99379 -11.957922,-8.41948 -11.6968,8.77865 4.3122,-13.97443 -11.96349,-8.41156 14.62301,-0.21719 4.30294,-13.97728 4.72532,13.8402 14.622864,-0.22687 -11.702604,8.7709 z"
     inkscape:transform-center-x="0.057332169"
     inkscape:transform-center-y="-1.2003197"
     transform="matrix(0.60721159,0,0,0.6553116,317.91011,-40.210939)" />
  <path
     sodipodi:type="star"
     style="fill:#ffff00;fill-opacity:1;stroke:none"
     id="path2987-48"
     sodipodi:sides="5"
     sodipodi:cx="-111.35404"
     sodipodi:cy="144.89441"
     sodipodi:r1="20.124224"
     sodipodi:r2="7.6807842"
     sodipodi:arg1="0.92729522"
     sodipodi:arg2="1.5556137"
     inkscape:flatsided="false"
     inkscape:rounded="0"
     inkscape:randomized="0"
     d="m -99.279508,160.99379 -11.957922,-8.41948 -11.6968,8.77865 4.3122,-13.97443 -11.96349,-8.41156 14.62301,-0.21719 4.30294,-13.97728 4.72532,13.8402 14.622864,-0.22687 -11.702604,8.7709 z"
     inkscape:transform-center-x="0.057332169"
     inkscape:transform-center-y="-1.2003197"
     transform="matrix(0.60721159,0,0,0.6553116,325.66941,-70.763169)" />
  <path
     sodipodi:type="star"
     style="fill:#ffff00;fill-opacity:1;stroke:none"
     id="path2987-8"
     sodipodi:sides="5"
     sodipodi:cx="-111.35404"
     sodipodi:cy="144.89441"
     sodipodi:r1="20.124224"
     sodipodi:r2="7.6807842"
     sodipodi:arg1="0.92729522"
     sodipodi:arg2="1.5556137"
     inkscape:flatsided="false"
     inkscape:rounded="0"
     inkscape:randomized="0"
     d="m -99.279508,160.99379 -11.957922,-8.41948 -11.6968,8.77865 4.3122,-13.97443 -11.96349,-8.41156 14.62301,-0.21719 4.30294,-13.97728 4.72532,13.8402 14.622864,-0.22687 -11.702604,8.7709 z"
     inkscape:transform-center-x="0.057332169"
     inkscape:transform-center-y="-1.2003197"
     transform="matrix(0.60721159,0,0,0.6553116,389.6836,-35.361379)" />
  <path
     sodipodi:type="star"
     style="fill:#ffff00;fill-opacity:1;stroke:none"
     id="path2987-2"
     sodipodi:sides="5"
     sodipodi:cx="-111.35404"
     sodipodi:cy="144.89441"
     sodipodi:r1="20.124224"
     sodipodi:r2="7.6807842"
     sodipodi:arg1="0.92729522"
     sodipodi:arg2="1.5556137"
     inkscape:flatsided="false"
     inkscape:rounded="0"
     inkscape:randomized="0"
     d="m -99.279508,160.99379 -11.957922,-8.41948 -11.6968,8.77865 4.3122,-13.97443 -11.96349,-8.41156 14.62301,-0.21719 4.30294,-13.97728 4.72532,13.8402 14.622864,-0.22687 -11.702604,8.7709 z"
     inkscape:transform-center-x="0.057332169"
     inkscape:transform-center-y="-1.2003197"
     transform="matrix(0.60721159,0,0,0.6553116,362.52606,18.953697)" />
  <path
     sodipodi:type="star"
     style="fill:#ffff00;fill-opacity:1;stroke:none"
     id="path2987-45"
     sodipodi:sides="5"
     sodipodi:cx="-111.35404"
     sodipodi:cy="144.89441"
     sodipodi:r1="20.124224"
     sodipodi:r2="7.6807842"
     sodipodi:arg1="0.92729522"
     sodipodi:arg2="1.5556137"
     inkscape:flatsided="false"
     inkscape:rounded="0"
     inkscape:randomized="0"
     d="m -99.279508,160.99379 -11.957922,-8.41948 -11.6968,8.77865 4.3122,-13.97443 -11.96349,-8.41156 14.62301,-0.21719 4.30294,-13.97728 4.72532,13.8402 14.622864,-0.22687 -11.702604,8.7709 z"
     inkscape:transform-center-x="0.057332169"
     inkscape:transform-center-y="-1.2003197"
     transform="matrix(0.60721159,0,0,0.6553116,321.78976,63.084697)" />
  <path
     sodipodi:type="star"
     style="fill:#ffff00;fill-opacity:1;stroke:none"
     id="path2987-5"
     sodipodi:sides="5"
     sodipodi:cx="-111.35404"
     sodipodi:cy="144.89441"
     sodipodi:r1="20.124224"
     sodipodi:r2="7.6807842"
     sodipodi:arg1="0.92729522"
     sodipodi:arg2="1.5556137"
     inkscape:flatsided="false"
     inkscape:rounded="0"
     inkscape:randomized="0"
     d="m -99.279508,160.99379 -11.957922,-8.41948 -11.6968,8.77865 4.3122,-13.97443 -11.96349,-8.41156 14.62301,-0.21719 4.30294,-13.97728 4.72532,13.8402 14.622864,-0.22687 -11.702604,8.7709 z"
     inkscape:transform-center-x="0.057332169"
     inkscape:transform-center-y="-1.2003197"
     transform="matrix(0.60721159,0,0,0.6553116,285.90301,91.697103)" />
  <g
     id="g3932"
     transform="matrix(0.4806815,0,0,0.48305424,41.224599,22.610952)">
    <text
       sodipodi:linespacing="125%"
       id="text4258"
       y="191.72183"
       x="-113.62186"
       style="font-size:40px;font-style:normal;font-weight:normal;line-height:125%;letter-spacing:0px;word-spacing:0px;fill:#000000;fill-opacity:1;stroke:none;font-family:Sans"
       xml:space="preserve"><tspan
         y="191.72183"
         x="-113.62186"
         id="tspan4260"
         sodipodi:role="line" /></text>
    <g
       transform="translate(4.0687783,-4.179286)"
       id="g4316">
      <path
         style="fill:#ffffff;fill-opacity:1;stroke:#000000;stroke-width:0.89365685;stroke-linecap:butt;stroke-linejoin:miter;stroke-miterlimit:4;stroke-opacity:1;stroke-dasharray:none"
         id="path3201"
         d="m -2.2282768,6.2785212 104.4452068,0 0,120.2735488 c 0,27.96155 -26.837587,46.96096 -52.892247,46.75062 -24.31618,-0.19631 -51.7887198,-16.61601 -51.7414798,-46.75062 l 0.18852,-120.2735488 z"
         inkscape:connector-curvature="0" />
      <path
         style="fill:#aade89;fill-opacity:1;stroke:#aade89;stroke-width:2.48200011;stroke-linecap:round;stroke-linejoin:round;stroke-miterlimit:4;stroke-opacity:1;stroke-dasharray:none;stroke-dashoffset:0"
         d="m 44.390323,164.37327 c -18.43382,-2.76856 -32.48595,-14.34402 -36.8101998,-30.32247 -0.9135,-3.37543 -1.62054,-12.75866 -0.96105,-12.75409 0.20788,10e-4 0.95161,0.30288 1.65274,0.66987 2.6404798,1.38211 13.6021498,2.89197 24.4331098,3.36542 9.55492,0.41767 12.71223,1.14872 26.47657,6.1304 3.72531,1.34829 3.77799,1.35423 11.04802,1.24657 7.27432,-0.10773 21.4457,0.74106 22.09155,1.32317 0.46902,0.42274 -1.47054,5.42053 -3.34554,8.62063 -3.20327,5.46708 -6.83239,9.38764 -12.291,13.27801 -5.16566,3.68159 -9.63195,5.72758 -16.35956,7.49427 -3.12259,0.81999 -12.91036,1.40243 -15.93464,0.94822 z"
         id="path3950"
         inkscape:connector-curvature="0" />
      <path
         style="fill:#afe8ef;fill-opacity:1;stroke:#afe8ef;stroke-width:4.95499992;stroke-linecap:round;stroke-linejoin:round;stroke-miterlimit:4;stroke-opacity:1;stroke-dasharray:none;stroke-dashoffset:0"
         d="m 6.3996532,63.332552 0,-49.291149 43.9795998,0 43.9796,0 0,36.129031 0,36.129034 -1.0721,0.40761 c -0.58965,0.22418 -2.12309,1.07992 -3.40763,1.90164 -1.28455,0.82171 -2.40823,1.49403 -2.49706,1.49403 -0.0888,0 -1.10537,-0.63517 -2.25897,-1.41149 -3.59649,-2.42025 -7.62921,-3.47514 -13.28519,-3.47514 -4.61272,0 -5.04144,0.075 -7.64863,1.33791 -1.5191,0.73584 -3.41654,1.80209 -4.21653,2.36944 -1.41935,1.0066 -1.51696,1.01699 -4.03677,0.42969 -3.7771,-0.88034 -6.73143,-0.53996 -10.07952,1.16129 l -2.82311,1.4345 -2.06352,-1.3225 c -3.2741,-2.09836 -5.40714,-2.50083 -8.77307,-1.65533 -1.54738,0.38869 -3.00641,0.7067 -3.24229,0.7067 -1.28077,0 -1.72221,-3.57931 -2.80372,-22.73341 -0.72039,-12.758618 -1.10698,-15.940392 -2.12567,-17.495104 -0.57492,-0.877441 -0.97927,-0.989082 -3.58238,-0.989082 -2.0412,0 -3.12825,0.193925 -3.57145,0.63713 -0.83439,0.83439 -0.94827,2.010763 -2.18022,22.521216 -0.57554,9.58203 -1.35014,22.48407 -1.72134,28.671222 -0.37409,6.23543 -0.87549,11.49104 -1.12495,11.79163 -0.27156,0.3272 -1.44061,0.54228 -2.9475698,0.54228 l -2.49751,0 0,-49.291148 z"
         id="path3952"
         inkscape:connector-curvature="0" />
      <path
         style="fill:#ffffff;fill-opacity:1;stroke:#ffffff;stroke-width:2.56900001;stroke-linecap:round;stroke-linejoin:round;stroke-miterlimit:4;stroke-opacity:1;stroke-dasharray:none;stroke-dashoffset:0"
         d="m 25.353953,116.90632 c -0.57875,-0.12939 -3.22259,-0.97151 -5.8752,-1.87138 l -4.82293,-1.63612 -0.0568,-0.6966 c -0.0312,-0.38313 0.067,-1.96154 0.21833,-3.50759 0.41634,-4.25446 0.7234,-8.79893 1.68306,-24.908762 1.50059,-25.190634 1.94369,-31.755767 2.21672,-32.843574 0.0976,-0.388788 0.15897,-0.401578 1.69561,-0.353241 l 1.59436,0.05015 0.22738,0.786782 c 0.38451,1.330476 0.72358,5.250601 1.45649,16.838833 1.04423,16.51057 2.29735,19.51037 2.2598,21.36457 -0.0207,1.02177 1.08428,2.47247 2.68639,1.85009 1.3945,-0.54172 3.34424,-1.61706 5.66668,-1.40831 5.48665,0.49316 7.17105,3.7271 9.19736,2.98498 3.00496,-1.10055 5.49912,-2.25686 7.73342,-2.35533 7.99099,-0.35217 11.16322,1.83356 11.50169,5.41886 0.79176,8.387132 -35.07052,19.937562 -35.78641,20.415572 -0.24357,0.16264 -0.31925,0.15652 -1.596,-0.12893 z"
         id="path3954"
         inkscape:connector-curvature="0"
         sodipodi:nodetypes="cscccscscssssssssccc" />
      <path
         style="fill:#7680bb;fill-opacity:1;stroke:#7680bb;stroke-width:0.89999998;stroke-linecap:round;stroke-linejoin:round;stroke-miterlimit:4;stroke-opacity:1;stroke-dasharray:none;stroke-dashoffset:0"
         d="m 82.303133,130.3764 c -0.95022,-0.0675 -2.81518,-0.26067 -4.14435,-0.42924 -2.90081,-0.36789 -6.12518,-0.39508 -9.75222,-0.0822 -1.40468,0.12115 -3.03168,0.22167 -3.61556,0.22336 -1.99468,0.006 -3.9078,-0.49397 -6.07448,-1.58682 -1.83357,-0.92482 -3.17567,-1.31691 -7.6619,-2.23836 -2.18965,-0.44974 -5.13046,-1.05653 -6.53514,-1.34842 -3.60945,-0.75004 -6.88636,-1.22671 -10.36609,-1.50789 -4.0245,-0.32521 -7.35312,-0.71592 -12.84494,-1.50771 -2.52017,-0.36335 -6.30604,-0.90479 -8.41306,-1.20319 -5.7693898,-0.81708 -5.7761698,-0.8183 -6.2856798,-1.12815 l -0.47482,-0.28875 0,-1.97305 0,-1.97305 2.89199,0.073 c 3.1543998,0.0796 4.8462998,0.35499 9.8438898,1.60241 8.35543,2.08555 12.61068,2.65436 21.44218,2.86623 7.41955,0.17799 9.61397,0.53106 14.51173,2.33485 5.76884,2.1246 7.28486,2.53579 10.23917,2.77716 2.14045,0.17488 3.59248,0.0987 7.77459,-0.40804 6.62469,-0.80266 18.58155,-0.58058 21.08208,0.39156 0.42309,0.16449 0.42457,0.16983 0.32823,1.17852 -0.12275,1.28513 -0.36466,3.27059 -0.47582,3.90526 l -0.0855,0.48826 -4.8283,-0.0215 c -2.65557,-0.0118 -5.60576,-0.0767 -6.55599,-0.14422 z"
         id="path3948"
         inkscape:connector-curvature="0" />
      <path
         style="fill:#fded9f;fill-opacity:1;stroke:#fded9f;stroke-width:2;stroke-miterlimit:4;stroke-opacity:1;stroke-dasharray:none"
         d="m 58.379443,120.49669 c -5.63992,-2.03982 -12.93012,-3.15189 -20.71828,-3.16043 l -4.70112,-0.005 7.52767,-7.59237 c 10.29491,-10.383392 20.45782,-19.053952 24.66803,-21.045702 3.08494,-1.45941 4.08174,-1.62531 8.259,-1.37459 3.51099,0.21073 5.61111,0.72449 8.04827,1.96887 1.81371,0.92605 3.27706,1.89096 3.25189,2.14424 -0.053,0.53358 -11.48234,9.030442 -13.68337,10.172582 -1.01987,0.52923 -1.27852,0.97056 -0.83106,1.41803 0.83578,0.83577 7.15258,-2.65142 13.05953,-7.209512 5.04422,-3.89237 7.19317,-5.29815 9.3561,-6.1205 l 1.56643,-0.59555 0,16.344092 0,16.34409 -5.81015,-0.15134 c -3.19558,-0.0832 -10.04999,0.0614 -15.23202,0.32145 l -9.42186,0.47279 -5.33906,-1.931 z"
         id="path3946"
         inkscape:connector-curvature="0" />
      <path
         style="fill:#5e645d"
         d="m 0.60460322,7.9510882 0,0.8125 c 0.37122,-0.278658 0.74423998,-0.549934 1.12499998,-0.8125 z M 20.073353,48.513588 c -3.46291,0.125615 -3.43343,0.558326 -3.9375,3.65625 -0.0174,1.986602 -0.83157,14.58348 -1.75,28.03125 -0.91841,13.44776 -1.67368,26.332772 -1.6875,28.625002 -0.0223,3.70279 -0.33892,4.15625 -2.9062498,4.15625 -1.92292,-0.13425 -3.8871,0.2303 -5.4375,-0.0625 -0.0982,0.18218 0.85625,2.19598 0.75,2.375 l 0.0312,5.90625 c 0.0855,0.0344 0.17036,0.075 0.25,0.125 1.32473,1.07424 -1.8225,-1.44256 1.96875,0 0.36033,-0.0776 1.00166,0.31551 2.28125,1.125 25.8458698,5.40303 26.6046198,-0.86072 48.5312498,8.46875 4.28038,1.8281 6.73115,2.15652 11.125,1.59375 3.09666,-0.39659 7.47427,-0.36953 9.6875,0.0312 l 14.61471,1.16954 c 0.32339,-0.97473 0.36344,-2.2211 0.73664,-3.13836 -2.42367,-0.19325 -9.58447,0.50409 -16.59639,-0.60987 -4.54376,-0.72185 -9.12124,0.0114 -12.04784,0.20238 -3.02601,0.19748 -5.37633,-0.68759 -6.42587,-1.31119 -3.21588,-1.91076 -7.81949,-2.32365 -12.03511,-3.29042 -4.58084,-1.05053 -9.11293,-1.84565 -12.65239,-2.05333 -9.09722,-0.53378 -23.06258,-3.17231 -25.5937498,-3.28125 -3.44641,-0.14833 -3.92455,-2.12907 -4.28475,-2.75602 -1.46373,-2.54774 -1.54708,-2.24599 5.1285,-2.21273 2.1700598,0.0332 5.8144098,0.81045 11.5937498,2.28125 5.82723,1.48297 12.32232,2.28964 17.96875,2.21875 6.65583,-0.0836 10.53695,0.48887 15.5625,2.375 5.45733,2.04819 8.85346,3.78686 17.90625,2.375 5.68426,-0.88651 21.05648,-0.85366 22.31571,0.99993 -0.0405,-0.56823 -0.0494,-1.09608 0.0312,-1.6875 0.0126,-0.49656 -0.0157,-0.95026 -0.0937,-1.40625 -5.20007,-0.54056 -10.10926,-1.372 -17.06571,-0.15618 -10.18139,1.18074 -15.03775,0.77247 -20.4375,-1.71875 -3.68201,-1.69872 -7.86046,-2.47298 -14.40625,-2.6875 -5.0648,-0.16597 -9.72253,-0.3094 -10.34375,-0.34375 -1.62224,-0.0897 20.79391,-21.692372 27.46875,-26.468752 14.33333,-10.77788 24.94664,1.10397 26.52334,0.74408 3.67572,-0.83901 -12.01618,-11.16012 -23.52324,-4.61903 -2.04521,1.17791 -4.21657,2.35054 -4.75,3.0625 -4.67391,-1.11737 -7.79097,-2.83482 -13.375,1 -2.17372,1.12321 -2.21998,1.02986 -4,-0.1875 -3.617,-2.47369 -5.70821,-3.16362 -10.40625,-1.5 -2.79176,0.98859 -2.94957,0.87995 -3.5625,-3.5625 -0.353,-2.55858 -0.9184,-11.1786 -1.3125,-19.125 -0.9105,-18.35874 -0.95257,-18.521172 -5.84375,-18.34375 z m 0.1875,1.25 c 0.25496,-0.0155 0.85702,0.02338 1.16405,0.04004 1.54203,-0.02818 1.58415,0.86603 2.0547,4.491212 0.7206,5.551693 4.20949,55.55286 4.1875,60.09375 -0.0173,3.56618 -6.1e-4,3.57889 -7.5,1 l -5.71875,-1.96875 0.0312,-5.5 c 0.0388,-6.32467 2.03097,-34.425172 2.65625,-48.28125 0.16853,-6.32828 0.5045,-8.615 0.80651,-9.431365 0.81186,-0.536402 1.55661,-0.444821 2.31854,-0.443637 z m 14.34375,40.0625 c 2.76435,-0.12275 5.51731,0.93936 6.96875,3.125 0.93716,1.27314 0.66366,3.14995 1.0625,6 0.18414,1.315822 0.10159,2.435882 0.34456,3.386852 0.1427,0.55852 -2.00606,3.94044 -6.56331,8.23815 -3.39139,3.19824 -6.81913,6.5372 -7.10782,6.5372 -0.0422,0.41086 -0.40226,-5.57926 -0.92343,-12.6622 -0.11673,-3.86946 -0.24317,-6.956752 -0.15625,-9.187502 0.0512,-1.31324 0.004,-2.38973 0.40625,-3.03125 1.63653,-1.49904 3.81869,-2.31077 5.96875,-2.40625 z m 16.75,0.59375 c 0.51366,0.007 1.06932,0.0849 1.65625,0.1875 l 3.53125,0.71875 -5.59375,5.3125 c -3.07694,2.91837 -5.84367,5.051802 -6.15625,4.750002 -0.25687,0.22803 -0.56526,0.0913 -0.59465,-4.857822 -0.045,-1.03209 -0.29267,-2.05861 0.19833,-2.60279 2.46185,-2.72846 4.75877,-3.50814 6.95887,-3.50814 z m 44.40501,-4.20463 c -2.55272,-0.4398 -16.2995,9.47653 -18.62376,11.64213 -3.26828,3.045172 -6.875,4.480412 -6.875,4.718752 0,1.2013 2.58764,0.0636 7.90625,-3.468752 5.71694,-3.76266 10.0164,-9.29718 17.59251,-10.73588 3.4e-4,-0.0218 -3.5e-4,-0.0407 0,-0.0625 -5e-5,-0.70013 6e-5,-1.39362 0,-2.09375 z"
         id="path2991"
         inkscape:connector-curvature="0"
         sodipodi:nodetypes="ccccccssccccccccccccssssssscssssccccssscscccsssssccssccccccccssssccsccscccccsssccccccc" />
      <path
         style="fill:none;stroke:#5e645d;stroke-width:1.0847975px;stroke-linecap:butt;stroke-linejoin:miter;stroke-opacity:1"
         d="m 17.195493,55.378022 6.49128,0"
         id="path3956"
         inkscape:connector-type="polyline"
         inkscape:connector-curvature="0" />
      <path
         style="fill:none;stroke:#5e645d;stroke-width:1.0847975px;stroke-linecap:butt;stroke-linejoin:miter;stroke-opacity:1"
         d="m 16.729493,61.243419 7.55229,0"
         id="path3956-4"
         inkscape:connector-type="polyline"
         inkscape:connector-curvature="0"
         sodipodi:nodetypes="cc" />
      <path
         style="fill:none;stroke:#000000;stroke-width:4.3119998;stroke-linecap:butt;stroke-linejoin:miter;stroke-miterlimit:4;stroke-opacity:1;stroke-dasharray:none"
         id="path3201-7"
         d="m 4.0095032,11.56121 92.5471798,0 0,111.98418 c 0,26.03443 -23.78034,43.72437 -46.86696,43.52853 C 28.143563,166.89114 3.8005932,151.6031 3.8424532,123.54539 l 0.16705,-111.98418 z"
         inkscape:connector-curvature="0" />
      <path
         style="fill:none;stroke:#5e645d;stroke-width:1.0847975px;stroke-linecap:butt;stroke-linejoin:miter;stroke-opacity:1"
         d="m 16.145153,66.356838 8.70172,0"
         id="path3956-1"
         inkscape:connector-type="polyline"
         inkscape:connector-curvature="0"
         sodipodi:nodetypes="cc" />
      <path
         style="fill:none;stroke:#5e645d;stroke-width:1.0847975px;stroke-linecap:butt;stroke-linejoin:miter;stroke-opacity:1"
         d="m 16.145153,71.169468 9.17328,0"
         id="path3956-13"
         inkscape:connector-type="polyline"
         inkscape:connector-curvature="0"
         sodipodi:nodetypes="cc" />
      <path
         style="fill:none;stroke:#5e645d;stroke-width:1.0847975px;stroke-linecap:butt;stroke-linejoin:miter;stroke-opacity:1"
         d="m 15.933733,76.282898 9.79221,0.0295"
         id="path3956-8"
         inkscape:connector-type="polyline"
         inkscape:connector-curvature="0"
         sodipodi:nodetypes="cc" />
      <path
         style="fill:none;stroke:#5e645d;stroke-width:1.0847975px;stroke-linecap:butt;stroke-linejoin:miter;stroke-opacity:1"
         d="m 15.668473,81.546718 10.35219,0.0295"
         id="path3956-7"
         inkscape:connector-type="polyline"
         inkscape:connector-curvature="0"
         sodipodi:nodetypes="cc" />
      <path
         style="fill:none;stroke:#5e645d;stroke-width:1.0847975px;stroke-linecap:butt;stroke-linejoin:miter;stroke-opacity:1"
         d="m 15.118733,86.689608 11.29531,-0.0295"
         id="path3956-42"
         inkscape:connector-type="polyline"
         inkscape:connector-curvature="0"
         sodipodi:nodetypes="cc" />
      <path
         style="fill:none;stroke:#5e645d;stroke-width:1.0847975px;stroke-linecap:butt;stroke-linejoin:miter;stroke-opacity:1"
         d="m 14.607463,91.953428 42.5952,3e-5"
         id="path3956-77"
         inkscape:connector-type="polyline"
         inkscape:connector-curvature="0"
         sodipodi:nodetypes="cccc" />
      <path
         style="fill:#000000;fill-opacity:1;stroke:#5e645d;stroke-width:1;stroke-miterlimit:4;stroke-opacity:1;stroke-dasharray:none"
         d="m 11.037535,122.72336 c 3.378826,0.73646 4.727187,0.71208 5.274464,0.97482 0.131527,0.0632 0.03214,0.29944 0.133164,0.80894 3.362734,41.98278 61.763491,42.04103 68.354915,3.81557 l 0.410787,-49.810988 0.2136,-51.428327 c 4.227755,-0.572474 1.87585,-0.542482 6.130485,-0.542482 l -0.29238,50.337974 c -0.24822,42.734183 -0.46652,51.065073 -1.44518,55.151513 -3.3493,13.98526 -16.030364,25.71634 -30.451254,28.69506 -21.572492,3.06536 -46.365503,-6.78411 -48.328601,-38.00208 z"
         id="path4083"
         inkscape:connector-curvature="0"
         sodipodi:nodetypes="cscccccsscc" />
      <path
         style="fill:none;stroke:#5e645d;stroke-width:1.0847975px;stroke-linecap:butt;stroke-linejoin:miter;stroke-opacity:1"
         d="m 14.548523,97.096328 37.40801,0.0295"
         id="path3956-9"
         inkscape:connector-type="polyline"
         inkscape:connector-curvature="0"
         sodipodi:nodetypes="cc" />
      <path
         style="fill:none;stroke:#5e645d;stroke-width:1.0847975px;stroke-linecap:butt;stroke-linejoin:miter;stroke-opacity:1"
         d="m 14.406273,102.27173 29.57319,0.11286"
         id="path3956-3"
         inkscape:connector-type="polyline"
         inkscape:connector-curvature="0"
         sodipodi:nodetypes="cc" />
      <path
         style="fill:none;stroke:#5e645d;stroke-width:1.0847975px;stroke-linecap:butt;stroke-linejoin:miter;stroke-opacity:1"
         d="m 13.875763,107.71541 26.51917,0"
         id="path3956-19"
         inkscape:connector-type="polyline"
         inkscape:connector-curvature="0"
         sodipodi:nodetypes="cc" />
      <path
         style="fill:none;stroke:#5e645d;stroke-width:1.0847975px;stroke-linecap:butt;stroke-linejoin:miter;stroke-opacity:1"
         d="m 13.329903,112.61949 21.90658,0.059"
         id="path3956-86"
         inkscape:connector-type="polyline"
         inkscape:connector-curvature="0"
         sodipodi:nodetypes="cc" />
      <rect
         style="fill:#000000;fill-opacity:1;stroke:#5e645d;stroke-width:1;stroke-linecap:square;stroke-linejoin:miter;stroke-miterlimit:4;stroke-opacity:1;stroke-dasharray:none;stroke-dashoffset:0"
         id="rect4089"
         width="80.246071"
         height="5.7540221"
         x="11.268533"
         y="25.175182" />
      <rect
         style="fill:#000000;fill-opacity:1;stroke:none"
         id="rect4091"
         width="5.1244307"
         height="3.4188912"
         x="85.900597"
         y="29.687389" />
      <path
         transform="matrix(0.4322833,0,0,0.4468488,97.514247,32.833057)"
         sodipodi:type="star"
         style="fill:#fded43;fill-opacity:1;stroke:#5e645d;stroke-opacity:1"
         id="path4093-0"
         sodipodi:sides="5"
         sodipodi:cx="-189.50462"
         sodipodi:cy="16.285751"
         sodipodi:r1="10.606602"
         sodipodi:r2="4.0482068"
         sodipodi:arg1="0.92729522"
         sodipodi:arg2="1.5681234"
         inkscape:flatsided="false"
         inkscape:rounded="0"
         inkscape:randomized="0"
         d="m -183.14066,24.771033 -6.35314,-4.437089 -6.11423,4.62639 2.25669,-7.413331 -6.28936,-4.385346 7.74785,-0.144602 2.2272,-7.3366829 2.53174,7.3239629 7.66584,-0.148974 -6.18315,4.67106 z"
         inkscape:transform-center-x="0.021514621"
         inkscape:transform-center-y="-0.43138752" />
      <path
         style="fill:#ffffff;fill-opacity:1;stroke:#5e645d;stroke-width:0.06101878;stroke-miterlimit:4;stroke-opacity:1;stroke-dasharray:none"
         d="m 20.051103,47.367774 c 0,-0.01744 0.105686,-0.338896 0.234859,-0.71431 0.602363,-1.750651 1.075182,-3.828616 1.738585,-7.640809 0.325993,-1.873295 0.397702,-2.214914 0.58054,-2.765698 0.424779,-1.27961 1.214124,-2.349929 2.228481,-3.021732 0.248918,-0.164855 0.748147,-0.413927 0.79402,-0.396148 0.02102,0.0082 -0.07128,0.180081 -0.205119,0.382073 -0.679955,1.026188 -1.226443,2.234523 -1.548674,3.424249 -0.230191,0.849911 -0.346911,1.515825 -0.483251,2.757067 -0.393229,3.579945 -1.162166,5.854237 -2.453418,7.256504 -0.387637,0.420961 -0.886023,0.825288 -0.886023,0.718804 z"
         id="path4296"
         inkscape:connector-curvature="0" />
      <path
         transform="matrix(0.4322833,0,0,0.4468488,107.94057,32.681255)"
         sodipodi:type="star"
         style="fill:#fded43;fill-opacity:1;stroke:#5e645d;stroke-opacity:1"
         id="path4093-0-9"
         sodipodi:sides="5"
         sodipodi:cx="-189.50462"
         sodipodi:cy="16.285751"
         sodipodi:r1="10.606602"
         sodipodi:r2="4.0482068"
         sodipodi:arg1="0.92729522"
         sodipodi:arg2="1.5681234"
         inkscape:flatsided="false"
         inkscape:rounded="0"
         inkscape:randomized="0"
         d="m -183.14066,24.771033 -6.35314,-4.437089 -6.11423,4.62639 2.25669,-7.413331 -6.28936,-4.385346 7.74785,-0.144602 2.2272,-7.3366829 2.53174,7.3239629 7.66584,-0.148974 -6.18315,4.67106 z"
         inkscape:transform-center-x="0.021512507"
         inkscape:transform-center-y="-0.43138768" />
      <path
         transform="matrix(0.4322833,0,0,0.4468488,118.72972,32.681255)"
         sodipodi:type="star"
         style="fill:#fded43;fill-opacity:1;stroke:#5e645d;stroke-opacity:1"
         id="path4093-0-0"
         sodipodi:sides="5"
         sodipodi:cx="-189.50462"
         sodipodi:cy="16.285751"
         sodipodi:r1="10.606602"
         sodipodi:r2="4.0482068"
         sodipodi:arg1="0.92729522"
         sodipodi:arg2="1.5681234"
         inkscape:flatsided="false"
         inkscape:rounded="0"
         inkscape:randomized="0"
         d="m -183.14066,24.771033 -6.35314,-4.437089 -6.11423,4.62639 2.25669,-7.413331 -6.28936,-4.385346 7.74785,-0.144602 2.2272,-7.3366829 2.53174,7.3239629 7.66584,-0.148974 -6.18315,4.67106 z"
         inkscape:transform-center-x="0.021521678"
         inkscape:transform-center-y="-0.43138768" />
      <path
         transform="matrix(0.4322833,0,0,0.4468488,129.36022,35.009513)"
         sodipodi:type="star"
         style="fill:#fded43;fill-opacity:1;stroke:#5e645d;stroke-opacity:1"
         id="path4093-0-06"
         sodipodi:sides="5"
         sodipodi:cx="-189.50462"
         sodipodi:cy="16.285751"
         sodipodi:r1="10.606602"
         sodipodi:r2="4.0482068"
         sodipodi:arg1="0.92729522"
         sodipodi:arg2="1.5681234"
         inkscape:flatsided="false"
         inkscape:rounded="0"
         inkscape:randomized="0"
         d="m -183.14066,24.771033 -6.35314,-4.437089 -6.11423,4.62639 2.25669,-7.413331 -6.28936,-4.385346 7.74785,-0.144602 2.2272,-7.3366829 2.53174,7.3239629 7.66584,-0.148974 -6.18315,4.67106 z"
         inkscape:transform-center-x="0.021515638"
         inkscape:transform-center-y="-0.43138768" />
      <path
         transform="matrix(0.4322833,0,0,0.4468488,138.40407,40.663853)"
         sodipodi:type="star"
         style="fill:#fded43;fill-opacity:1;stroke:#5e645d;stroke-opacity:1"
         id="path4093-0-1"
         sodipodi:sides="5"
         sodipodi:cx="-189.50462"
         sodipodi:cy="16.285751"
         sodipodi:r1="10.606602"
         sodipodi:r2="4.0482068"
         sodipodi:arg1="0.92729522"
         sodipodi:arg2="1.5681234"
         inkscape:flatsided="false"
         inkscape:rounded="0"
         inkscape:randomized="0"
         d="m -183.14066,24.771033 -6.35314,-4.437089 -6.11423,4.62639 2.25669,-7.413331 -6.28936,-4.385346 7.74785,-0.144602 2.2272,-7.3366829 2.53174,7.3239629 7.66584,-0.148974 -6.18315,4.67106 z"
         inkscape:transform-center-x="0.021518228"
         inkscape:transform-center-y="-0.43138626" />
      <path
         transform="matrix(0.4322833,0,0,0.4468488,145.22663,48.480145)"
         sodipodi:type="star"
         style="fill:#fded43;fill-opacity:1;stroke:#5e645d;stroke-opacity:1"
         id="path4093-0-3"
         sodipodi:sides="5"
         sodipodi:cx="-189.50462"
         sodipodi:cy="16.285751"
         sodipodi:r1="10.606602"
         sodipodi:r2="4.0482068"
         sodipodi:arg1="0.92729522"
         sodipodi:arg2="1.5681234"
         inkscape:flatsided="false"
         inkscape:rounded="0"
         inkscape:randomized="0"
         d="m -183.14066,24.771033 -6.35314,-4.437089 -6.11423,4.62639 2.25669,-7.413331 -6.28936,-4.385346 7.74785,-0.144602 2.2272,-7.3366829 2.53174,7.3239629 7.66584,-0.148974 -6.18315,4.67106 z"
         inkscape:transform-center-x="0.021519345"
         inkscape:transform-center-y="-0.43138669" />
      <path
         transform="matrix(0.4322833,0,0,0.4468488,150.30388,58.458388)"
         sodipodi:type="star"
         style="fill:#fded43;fill-opacity:1;stroke:#5e645d;stroke-opacity:1"
         id="path4093-0-8"
         sodipodi:sides="5"
         sodipodi:cx="-189.50462"
         sodipodi:cy="16.285751"
         sodipodi:r1="10.606602"
         sodipodi:r2="4.0482068"
         sodipodi:arg1="0.92729522"
         sodipodi:arg2="1.5681234"
         inkscape:flatsided="false"
         inkscape:rounded="0"
         inkscape:randomized="0"
         d="m -183.14066,24.771033 -6.35314,-4.437089 -6.11423,4.62639 2.25669,-7.413331 -6.28936,-4.385346 7.74785,-0.144602 2.2272,-7.3366829 2.53174,7.3239629 7.66584,-0.148974 -6.18315,4.67106 z"
         inkscape:transform-center-x="0.021513136"
         inkscape:transform-center-y="-0.43138772" />
      <path
         transform="matrix(0.4322833,0,0,0.4468488,153.3185,68.602939)"
         sodipodi:type="star"
         style="fill:#fded43;fill-opacity:1;stroke:#5e645d;stroke-opacity:1"
         id="path4093-0-93"
         sodipodi:sides="5"
         sodipodi:cx="-189.50462"
         sodipodi:cy="16.285751"
         sodipodi:r1="10.606602"
         sodipodi:r2="4.0482068"
         sodipodi:arg1="0.92729522"
         sodipodi:arg2="1.5681234"
         inkscape:flatsided="false"
         inkscape:rounded="0"
         inkscape:randomized="0"
         d="m -183.14066,24.771033 -6.35314,-4.437089 -6.11423,4.62639 2.25669,-7.413331 -6.28936,-4.385346 7.74785,-0.144602 2.2272,-7.3366829 2.53174,7.3239629 7.66584,-0.148974 -6.18315,4.67106 z"
         inkscape:transform-center-x="0.021510666"
         inkscape:transform-center-y="-0.43138602" />
      <path
         transform="matrix(0.4322833,0,0,0.4468488,154.27049,78.747489)"
         sodipodi:type="star"
         style="fill:#fded43;fill-opacity:1;stroke:#5e645d;stroke-opacity:1"
         id="path4093-0-4"
         sodipodi:sides="5"
         sodipodi:cx="-189.50462"
         sodipodi:cy="16.285751"
         sodipodi:r1="10.606602"
         sodipodi:r2="4.0482068"
         sodipodi:arg1="0.92729522"
         sodipodi:arg2="1.5681234"
         inkscape:flatsided="false"
         inkscape:rounded="0"
         inkscape:randomized="0"
         d="m -183.14066,24.771033 -6.35314,-4.437089 -6.11423,4.62639 2.25669,-7.413331 -6.28936,-4.385346 7.74785,-0.144602 2.2272,-7.3366829 2.53174,7.3239629 7.66584,-0.148974 -6.18315,4.67106 z"
         inkscape:transform-center-x="0.021511934"
         inkscape:transform-center-y="-0.43138644" />
      <path
         transform="matrix(0.4322833,0,0,0.4468488,154.74648,88.725734)"
         sodipodi:type="star"
         style="fill:#fded43;fill-opacity:1;stroke:#5e645d;stroke-opacity:1"
         id="path4093-0-46"
         sodipodi:sides="5"
         sodipodi:cx="-189.50462"
         sodipodi:cy="16.285751"
         sodipodi:r1="10.606602"
         sodipodi:r2="4.0482068"
         sodipodi:arg1="0.92729522"
         sodipodi:arg2="1.5681234"
         inkscape:flatsided="false"
         inkscape:rounded="0"
         inkscape:randomized="0"
         d="m -183.14066,24.771033 -6.35314,-4.437089 -6.11423,4.62639 2.25669,-7.413331 -6.28936,-4.385346 7.74785,-0.144602 2.2272,-7.3366829 2.53174,7.3239629 7.66584,-0.148974 -6.18315,4.67106 z"
         inkscape:transform-center-x="0.021506826"
         inkscape:transform-center-y="-0.4313866" />
      <path
         transform="matrix(0.4322833,0,0,0.4468488,155.22246,98.703983)"
         sodipodi:type="star"
         style="fill:#fded43;fill-opacity:1;stroke:#5e645d;stroke-opacity:1"
         id="path4093-0-066"
         sodipodi:sides="5"
         sodipodi:cx="-189.50462"
         sodipodi:cy="16.285751"
         sodipodi:r1="10.606602"
         sodipodi:r2="4.0482068"
         sodipodi:arg1="0.92729522"
         sodipodi:arg2="1.5681234"
         inkscape:flatsided="false"
         inkscape:rounded="0"
         inkscape:randomized="0"
         d="m -183.14066,24.771033 -6.35314,-4.437089 -6.11423,4.62639 2.25669,-7.413331 -6.28936,-4.385346 7.74785,-0.144602 2.2272,-7.3366829 2.53174,7.3239629 7.66584,-0.148974 -6.18315,4.67106 z"
         inkscape:transform-center-x="0.021522459"
         inkscape:transform-center-y="-0.43138276" />
      <g
         id="g4270"
         style="fill:#000000;stroke:none"
         transform="matrix(0.43280554,0,0,0.42074069,77.761661,74.048977)">
        <path
           inkscape:connector-curvature="0"
           id="path4262"
           d="m -102.22393,167.49508 -0.0298,-11.20421 -0.87574,0.70253 c -1.3887,1.11406 -3.83158,2.54314 -5.63389,3.29584 l -0.43786,0.18286 0,-1.62706 0,-1.62707 0.72214,-0.36453 c 2.82079,-1.42393 5.72534,-3.88564 6.9995,-5.93231 l 0.51026,-0.81963 1.080069,-0.005 1.080072,-0.005 0,14.30366 0,14.30366 -1.692501,0 -1.6925,0 -0.0298,-11.20421 z"
           style="fill:#000000;fill-opacity:1;stroke:none" />
        <path
           inkscape:connector-curvature="0"
           id="path4264"
           d="m -82.870788,178.99954 c -3.031468,-0.60019 -5.049428,-2.40855 -5.876032,-5.26569 -0.336114,-1.16177 -0.393683,-1.57181 -0.221997,-1.58118 0.07867,-0.004 0.814745,-0.0721 1.635722,-0.1506 l 1.492684,-0.14279 0.06481,0.29655 c 0.426124,1.9499 1.292096,3.19735 2.639259,3.80192 0.949511,0.42612 2.469359,0.52807 3.593346,0.24106 3.077476,-0.78585 4.980308,-4.31067 5.205678,-9.64303 l 0.06169,-1.45956 -0.321724,0.40867 c -1.115205,1.41661 -2.644957,2.54565 -4.108722,3.03247 -1.969013,0.65485 -4.237761,0.52183 -6.002,-0.35191 -2.585328,-1.28037 -4.292308,-3.63035 -4.762249,-6.55612 -0.211254,-1.31523 -0.09201,-3.99926 0.226329,-5.0944 0.712719,-2.45188 2.380565,-4.51374 4.497157,-5.55956 2.431412,-1.20139 5.577285,-1.2084 8.050348,-0.0179 2.247621,1.08194 4.095896,3.24429 4.90603,5.73971 1.174035,3.61633 1.121366,11.1487 -0.105693,15.11541 -1.137384,3.67681 -3.541494,6.19645 -6.696886,7.01869 -1.164268,0.30338 -3.192414,0.38318 -4.277745,0.1683 z m 4.52168,-13.37492 c 1.51279,-0.56819 2.739525,-1.88166 3.258053,-3.48839 0.354306,-1.09787 0.436966,-3.40283 0.165749,-4.6219 -0.55314,-2.48626 -2.392954,-4.34285 -4.562428,-4.60403 -1.858871,-0.22379 -3.312992,0.29092 -4.655827,1.64798 -1.395434,1.41023 -1.934527,2.84959 -1.935141,5.16677 -5.48e-4,2.07916 0.470874,3.34888 1.702336,4.58503 0.765114,0.76802 1.781622,1.3397 2.744255,1.54336 0.828095,0.17519 2.521597,0.0572 3.283003,-0.22882 l 0,0 z"
           style="fill:#000000;fill-opacity:1;stroke:none" />
        <path
           inkscape:connector-curvature="0"
           id="path4266"
           d="m -60.408847,179.04129 c -2.721421,-0.3998 -4.921491,-2.14943 -5.862603,-4.66229 -0.299204,-0.7989 -0.601579,-2.08332 -0.511628,-2.17327 0.02914,-0.0291 0.769349,-0.11934 1.644904,-0.20044 1.341616,-0.12427 1.591919,-0.12231 1.591919,0.0125 0,0.088 0.133796,0.56327 0.297325,1.05624 0.731889,2.20637 2.211724,3.29217 4.482023,3.28861 3.243826,-0.005 5.294217,-2.11314 6.271011,-6.44737 0.292577,-1.29822 0.51341,-3.56285 0.421074,-4.31808 l -0.05296,-0.43317 -0.520117,0.69191 c -0.695086,0.92467 -1.627588,1.65477 -2.899984,2.27055 -1.335451,0.64628 -2.049072,0.80955 -3.502937,0.80142 -1.960175,-0.011 -3.622377,-0.61093 -5.113877,-1.84587 -2.710623,-2.24435 -3.822308,-6.17224 -2.882236,-10.18373 0.78512,-3.35028 3.282218,-5.89184 6.501224,-6.61698 1.037234,-0.23366 3.081573,-0.24495 4.129467,-0.0228 2.311704,0.49005 4.494666,2.03916 5.78033,4.10192 1.503909,2.41292 1.988784,5.08113 1.884823,10.37195 -0.07334,3.73216 -0.266393,5.1859 -0.978703,7.36973 -1.04012,3.18884 -3.068802,5.47141 -5.731505,6.44878 -1.509453,0.55406 -3.3037,0.73191 -4.94755,0.49042 l 0,0 z m 3.741585,-13.2493 c 1.028175,-0.24236 1.76174,-0.66917 2.524481,-1.46882 1.218182,-1.27714 1.77417,-3.07922 1.652793,-5.35709 -0.10862,-2.03846 -0.649241,-3.37901 -1.849584,-4.58632 -1.147989,-1.15465 -2.7242,-1.68481 -4.403509,-1.48112 -2.144478,0.26012 -4.240259,2.25499 -4.849293,4.6158 -0.463201,1.79551 -0.317883,3.85903 0.37328,5.3006 0.392267,0.81816 1.752247,2.20249 2.52873,2.57401 1.21169,0.57974 2.658321,0.72463 4.023102,0.40294 l 0,0 z"
           style="fill:#000000;fill-opacity:1;stroke:none" />
        <path
           inkscape:connector-curvature="0"
           id="path4268"
           d="m -37.021563,179.04342 c -0.895218,-0.16031 -2.318473,-0.65745 -2.996635,-1.04672 -1.61063,-0.92451 -2.805527,-2.23097 -3.682561,-4.02638 -1.169462,-2.39404 -1.573383,-4.98595 -1.482397,-9.51234 0.08583,-4.26981 0.5317,-6.61954 1.720942,-9.06933 1.337728,-2.75566 3.486003,-4.52297 6.228995,-5.12438 1.298824,-0.28477 3.899109,-0.19287 4.977343,0.1759 2.103808,0.71955 3.515471,1.93729 4.43717,3.82764 0.326739,0.67012 0.819755,2.26901 0.819755,2.65853 0,0.0965 -0.380477,0.16616 -1.196837,0.21923 -0.65826,0.0428 -1.411991,0.10686 -1.67496,0.14235 l -0.478123,0.0645 -0.150089,-0.56518 c -0.593373,-2.23439 -1.929844,-3.55139 -3.968269,-3.91045 -2.985661,-0.52591 -5.833977,1.86243 -6.833571,5.73003 -0.286921,1.11014 -0.522882,3.06983 -0.52127,4.32921 l 0.0014,1.10927 0.255749,-0.3503 c 1.012787,-1.38719 2.496457,-2.48876 4.115523,-3.05561 0.856938,-0.30003 1.074002,-0.32711 2.627202,-0.32781 1.544255,-6.9e-4 1.76837,0.0267 2.549507,0.31109 1.286576,0.46846 2.071729,0.98298 3.173834,2.07984 1.810217,1.80159 2.5799,3.80462 2.5799,6.71396 0,4.6474 -2.454144,8.25208 -6.410299,9.41553 -0.913168,0.26855 -3.132848,0.3832 -4.092329,0.21138 l 0,0 z m 3.650668,-3.12547 c 1.533785,-0.71774 2.736195,-2.25465 3.178413,-4.06261 0.271248,-1.10897 0.26763,-3.34976 -0.0071,-4.36545 -0.632496,-2.33879 -2.290088,-3.88018 -4.531151,-4.2135 -2.836668,-0.4219 -5.443054,1.24413 -6.310132,4.03351 -0.326058,1.04892 -0.350025,3.00781 -0.05078,4.14999 0.350535,1.33792 1.039877,2.57317 1.86496,3.34188 1.256828,1.17096 2.347403,1.58419 4.012302,1.52029 0.898392,-0.0345 1.190283,-0.0985 1.843432,-0.40411 l 4e-6,0 z"
           style="fill:#000000;fill-opacity:1;stroke:none" />
      </g>
    </g>
  </g>
</svg>
