<?xml version="1.0" encoding="UTF-8"?>
<svg width="1e3" height="600" version="1.1" xmlns="http://www.w3.org/2000/svg" xmlns:cc="http://creativecommons.org/ns#" xmlns:dc="http://purl.org/dc/elements/1.1/" xmlns:rdf="http://www.w3.org/1999/02/22-rdf-syntax-ns#">
 <metadata>
  <rdf:RDF>
   <cc:Work rdf:about="">
    <dc:format>image/svg+xml</dc:format>
    <dc:type rdf:resource="http://purl.org/dc/dcmitype/StillImage"/>
   </cc:Work>
  </rdf:RDF>
 </metadata>
 <defs>
  <filter id="filter5728-0" x="-.02948346" y="-.08115484" width="1.058967" height="1.159644" color-interpolation-filters="sRGB">
   <feGaussianBlur stdDeviation="3.2896318"/>
  </filter>
 </defs>
 <path d="m0 600v-600h1e3v600z" fill="#005eb8"/>
 <rect x="500" width="500" height="600" fill="#78be20"/>
 <g transform="matrix(-.5 0 0 -.5 999.9756 609.7267)">
  <g transform="rotate(144 1e3 610)">
   <path d="m1182.582 358.6967 100.599-138.4626" fill="none" stroke="#003100" stroke-width="5"/>
   <path d="m1197.538 335.1538c0.1483-0.12071 18.8711-25.82757 41.6069-57.12589l41.334-56.90829-38.1706 12.30144c-20.9943 6.76469-38.2046 12.3672-38.2454 12.44983-0.041 0.0809 0.4522 2.31911 1.0966 4.97339 3.7747 15.5455 4.3575 30.96826 1.8006 47.64174-1.6274 10.6107-4.641 22.2839-8.3948 32.51545-1.3961 3.80542-1.5967 4.61343-1.0303 4.15107z" fill="#658d1b"/>
   <path d="m1285 305v-87l-82.7418 26.88442" fill="none" stroke="#003100" stroke-linecap="square" stroke-width="5"/>
   <path d="m1200.001 337.6512c0.069-0.17816 18.732-25.92861 41.4728-57.22322l41.3466-56.89928 0.096 40.10383c0.054 22.0571 0.044 40.15646-0.022 40.22082-0.064 0.0643-2.3453 0.28658-5.0689 0.49384-15.951 1.21389-30.799 5.42546-45.8663 13.00976-9.5884 4.82647-19.7591 11.29993-28.3299 18.03169-3.1878 2.50368-3.8943 2.94415-3.6295 2.26256z" fill="#78be20"/>
  </g>
  <g transform="rotate(216 1e3 610)">
   <path d="m1182.582 358.6967 100.599-138.4626" fill="none" stroke="#003100" stroke-width="5"/>
   <path d="m1197.538 335.1538c0.1483-0.12071 18.8711-25.82757 41.6069-57.12589l41.334-56.90829-38.1706 12.30144c-20.9943 6.76469-38.2046 12.3672-38.2454 12.44983-0.041 0.0809 0.4522 2.31911 1.0966 4.97339 3.7747 15.5455 4.3575 30.96826 1.8006 47.64174-1.6274 10.6107-4.641 22.2839-8.3948 32.51545-1.3961 3.80542-1.5967 4.61343-1.0303 4.15107z" fill="#658d1b"/>
   <path d="m1285 305v-87l-82.7418 26.88442" fill="none" stroke="#003100" stroke-linecap="square" stroke-width="5"/>
   <path d="m1200.001 337.6512c0.069-0.17816 18.732-25.92861 41.4728-57.22322l41.3466-56.89928 0.096 40.10383c0.054 22.0571 0.044 40.15646-0.022 40.22082-0.064 0.0643-2.3453 0.28658-5.0689 0.49384-15.951 1.21389-30.799 5.42546-45.8663 13.00976-9.5884 4.82647-19.7591 11.29993-28.3299 18.03169-3.1878 2.50368-3.8943 2.94415-3.6295 2.26256z" fill="#78be20"/>
  </g>
  <g transform="rotate(-72 1e3 610)">
   <path d="m1182.582 358.6967 100.599-138.4626" fill="none" stroke="#003100" stroke-width="5"/>
   <path d="m1197.538 335.1538c0.1483-0.12071 18.8711-25.82757 41.6069-57.12589l41.334-56.90829-38.1706 12.30144c-20.9943 6.76469-38.2046 12.3672-38.2454 12.44983-0.041 0.0809 0.4522 2.31911 1.0966 4.97339 3.7747 15.5455 4.3575 30.96826 1.8006 47.64174-1.6274 10.6107-4.641 22.2839-8.3948 32.51545-1.3961 3.80542-1.5967 4.61343-1.0303 4.15107z" fill="#658d1b"/>
   <path d="m1285 305v-87l-82.7418 26.88442" fill="none" stroke="#003100" stroke-linecap="square" stroke-width="5"/>
   <path d="m1200.001 337.6512c0.069-0.17816 18.732-25.92861 41.4728-57.22322l41.3466-56.89928 0.096 40.10383c0.054 22.0571 0.044 40.15646-0.022 40.22082-0.064 0.0643-2.3453 0.28658-5.0689 0.49384-15.951 1.21389-30.799 5.42546-45.8663 13.00976-9.5884 4.82647-19.7591 11.29993-28.3299 18.03169-3.1878 2.50368-3.8943 2.94415-3.6295 2.26256z" fill="#78be20"/>
  </g>
  <path d="m830 550 170-120 170 120-70 200h-205z" fill="#ffffff"/>
  <path d="m1182.582 358.6967 100.599-138.4626" fill="none" stroke="#003100" stroke-width="5"/>
  <path d="m1197.538 335.1538c0.1483-0.12071 18.8711-25.82757 41.6069-57.12589l41.334-56.90829-38.1706 12.30144c-20.9943 6.76469-38.2046 12.3672-38.2454 12.44983-0.041 0.0809 0.4522 2.31911 1.0966 4.97339 3.7747 15.5455 4.3575 30.96826 1.8006 47.64174-1.6274 10.6107-4.641 22.2839-8.3948 32.51545-1.3961 3.80542-1.5967 4.61343-1.0303 4.15107z" fill="#658d1b"/>
  <path d="m1285 305v-87l-82.7418 26.88442" fill="none" stroke="#003100" stroke-linecap="square" stroke-width="5"/>
  <path d="m1200.001 337.6512c0.069-0.17816 18.732-25.92861 41.4728-57.22322l41.3466-56.89928 0.096 40.10383c0.054 22.0571 0.044 40.15646-0.022 40.22082-0.064 0.0643-2.3453 0.28658-5.0689 0.49384-15.951 1.21389-30.799 5.42546-45.8663 13.00976-9.5884 4.82647-19.7591 11.29993-28.3299 18.03169-3.1878 2.50368-3.8943 2.94415-3.6295 2.26256z" fill="#78be20"/>
  <g transform="rotate(72 1e3 610.0001)">
   <path d="m1182.582 358.6967 100.599-138.4626" fill="none" stroke="#003100" stroke-width="5"/>
   <path d="m1197.538 335.1538c0.1483-0.12071 18.8711-25.82757 41.6069-57.12589l41.334-56.90829-38.1706 12.30144c-20.9943 6.76469-38.2046 12.3672-38.2454 12.44983-0.041 0.0809 0.4522 2.31911 1.0966 4.97339 3.7747 15.5455 4.3575 30.96826 1.8006 47.64174-1.6274 10.6107-4.641 22.2839-8.3948 32.51545-1.3961 3.80542-1.5967 4.61343-1.0303 4.15107z" fill="#658d1b"/>
   <path d="m1285 305v-87l-82.7418 26.88442" fill="none" stroke="#003100" stroke-linecap="square" stroke-width="5"/>
   <path d="m1200.001 337.6512c0.069-0.17816 18.732-25.92861 41.4728-57.22322l41.3466-56.89928 0.096 40.10383c0.054 22.0571 0.044 40.15646-0.022 40.22082-0.064 0.0643-2.3453 0.28658-5.0689 0.49384-15.951 1.21389-30.799 5.42546-45.8663 13.00976-9.5884 4.82647-19.7591 11.29993-28.3299 18.03169-3.1878 2.50368-3.8943 2.94415-3.6295 2.26256z" fill="#78be20"/>
  </g>
  <g fill="#ffffff" stroke="#6a5000" stroke-width="10">
   <path d="m840 390c-130-180 50-245 160-245s290 65 160 245"/>
   <path d="m741.3248 694.1853c-211.3624 68.0143-217.558-123.262-183.5661-227.8782 33.99187-104.6162 151.4336-255.7203 282.4516-76.4599"/>
   <path d="m1000.13 882.0294c-0.62915 222.0351-184.4583 168.8199-273.4501 104.1635-88.99187-64.65638-196.4089-223.0438 14.56466-292.2548"/>
   <path d="m1258.756 693.9381c210.9735 69.21099 103.5565 227.5984 14.5646 292.2548-88.9918 64.6564-272.8209 117.8716-273.4501-104.1635"/>
   <path d="m1159.79 389.8472c131.018-179.2603 248.4597-28.15625 282.4516 76.45994 33.9919 104.6162 27.7963 295.8925-183.5662 227.8782"/>
  </g>
  <g transform="matrix(-.5811606 0 0 -.5811606 1581.117 960.8693)">
   <path d="m1182.582 358.6967 100.599-138.4626" fill="none" stroke="#003100" stroke-width="5"/>
   <path d="m1197.538 335.1538c0.1483-0.12071 18.8711-25.82757 41.6069-57.12589l41.334-56.90829-38.1706 12.30144c-20.9943 6.76469-38.2046 12.3672-38.2454 12.44983-0.041 0.0809 0.4522 2.31911 1.0966 4.97339 3.7747 15.5455 4.3575 30.96826 1.8006 47.64174-1.6274 10.6107-4.641 22.2839-8.3948 32.51545-1.3961 3.80542-1.5967 4.61343-1.0303 4.15107z" fill="#658d1b"/>
   <path d="m1285 305v-87l-82.7418 26.88442" fill="none" stroke="#003100" stroke-linecap="square" stroke-width="5"/>
   <path d="m1200.001 337.6512c0.069-0.17816 18.732-25.92861 41.4728-57.22322l41.3466-56.89928 0.096 40.10383c0.054 22.0571 0.044 40.15646-0.022 40.22082-0.064 0.0643-2.3453 0.28658-5.0689 0.49384-15.951 1.21389-30.799 5.42546-45.8663 13.00976-9.5884 4.82647-19.7591 11.29993-28.3299 18.03169-3.1878 2.50368-3.8943 2.94415-3.6295 2.26256z" fill="#78be20"/>
  </g>
  <path d="m1105 245c-30 0-63.0005 20-105 20-41.99953 0-75-20-105-20s-45 20-5 80c-95-70-35-117 5-117s63.00047 17 105 17c41.9995 0 65-17 105-17s100 47 5 117c40-60 25-80-5-80z" fill="#c0b661" filter="url(#filter5728-0)" stroke="#d1d159" stroke-width="3.2"/>
  <g transform="matrix(.4701688 -.3415976 .3415976 .4701688 321.4132 661.1559)">
   <path d="m1182.582 358.6967 100.599-138.4626" fill="none" stroke="#003100" stroke-width="5"/>
   <path d="m1197.538 335.1538c0.1483-0.12071 18.8711-25.82757 41.6069-57.12589l41.334-56.90829-38.1706 12.30144c-20.9943 6.76469-38.2046 12.3672-38.2454 12.44983-0.041 0.0809 0.4522 2.31911 1.0966 4.97339 3.7747 15.5455 4.3575 30.96826 1.8006 47.64174-1.6274 10.6107-4.641 22.2839-8.3948 32.51545-1.3961 3.80542-1.5967 4.61343-1.0303 4.15107z" fill="#658d1b"/>
   <path d="m1285 305v-87l-82.7418 26.88442" fill="none" stroke="#003100" stroke-linecap="square" stroke-width="5"/>
   <path d="m1200.001 337.6512c0.069-0.17816 18.732-25.92861 41.4728-57.22322l41.3466-56.89928 0.096 40.10383c0.054 22.0571 0.044 40.15646-0.022 40.22082-0.064 0.0643-2.3453 0.28658-5.0689 0.49384-15.951 1.21389-30.799 5.42546-45.8663 13.00976-9.5884 4.82647-19.7591 11.29993-28.3299 18.03169-3.1878 2.50368-3.8943 2.94415-3.6295 2.26256z" fill="#78be20"/>
  </g>
  <path d="m890 325c-95-70-35-117 5-117s63.00047 17 105 17c41.9995 0 65-17 105-17s100 47 5 117" fill="none" stroke="#6a5000" stroke-width="10"/>
  <g transform="rotate(-72 1e3 610)">
   <path d="m1105 245c-30 0-63.0005 20-105 20-41.99953 0-75-20-105-20s-45 20-5 80c-95-70-35-117 5-117s63.00047 17 105 17c41.9995 0 65-17 105-17s100 47 5 117c40-60 25-80-5-80z" fill="#c0b661" filter="url(#filter5728-0)" stroke="#d1d159" stroke-width="3.2"/>
   <path d="m890 325c-95-70-35-117 5-117s63.00047 17 105 17c41.9995 0 65-17 105-17s100 47 5 117" fill="none" stroke="#6a5000" stroke-width="10"/>
  </g>
  <g transform="rotate(216 1e3 610)">
   <path d="m1105 245c-30 0-63.0005 20-105 20-41.99953 0-75-20-105-20s-45 20-5 80c-95-70-35-117 5-117s63.00047 17 105 17c41.9995 0 65-17 105-17s100 47 5 117c40-60 25-80-5-80z" fill="#c0b661" filter="url(#filter5728-0)" stroke="#d1d159" stroke-width="3.2"/>
   <path d="m890 325c-95-70-35-117 5-117s63.00047 17 105 17c41.9995 0 65-17 105-17s100 47 5 117" fill="none" stroke="#6a5000" stroke-width="10"/>
  </g>
  <g transform="matrix(-.1795885 .5527166 -.5527166 -.1795885 1516.702 163.1938)">
   <path d="m1182.582 358.6967 100.599-138.4626" fill="none" stroke="#003100" stroke-width="5"/>
   <path d="m1197.538 335.1538c0.1483-0.12071 18.8711-25.82757 41.6069-57.12589l41.334-56.90829-38.1706 12.30144c-20.9943 6.76469-38.2046 12.3672-38.2454 12.44983-0.041 0.0809 0.4522 2.31911 1.0966 4.97339 3.7747 15.5455 4.3575 30.96826 1.8006 47.64174-1.6274 10.6107-4.641 22.2839-8.3948 32.51545-1.3961 3.80542-1.5967 4.61343-1.0303 4.15107z" fill="#658d1b"/>
   <path d="m1285 305v-87l-82.7418 26.88442" fill="none" stroke="#003100" stroke-linecap="square" stroke-width="5"/>
   <path d="m1200.001 337.6512c0.069-0.17816 18.732-25.92861 41.4728-57.22322l41.3466-56.89928 0.096 40.10383c0.054 22.0571 0.044 40.15646-0.022 40.22082-0.064 0.0643-2.3453 0.28658-5.0689 0.49384-15.951 1.21389-30.799 5.42546-45.8663 13.00976-9.5884 4.82647-19.7591 11.29993-28.3299 18.03169-3.1878 2.50368-3.8943 2.94415-3.6295 2.26256z" fill="#78be20"/>
  </g>
  <g transform="rotate(144 1e3 610)">
   <path d="m1105 245c-30 0-63.0005 20-105 20-41.99953 0-75-20-105-20s-45 20-5 80c-95-70-35-117 5-117s63.00047 17 105 17c41.9995 0 65-17 105-17s100 47 5 117c40-60 25-80-5-80z" fill="#c0b661" filter="url(#filter5728-0)" stroke="#d1d159" stroke-width="3.2"/>
   <path d="m890 325c-95-70-35-117 5-117s63.00047 17 105 17c41.9995 0 65-17 105-17s100 47 5 117" fill="none" stroke="#6a5000" stroke-width="10"/>
  </g>
  <g transform="matrix(.4701688 .3415976 -.3415976 .4701688 738.1623 -22.03926)">
   <path d="m1182.582 358.6967 100.599-138.4626" fill="none" stroke="#003100" stroke-width="5"/>
   <path d="m1197.538 335.1538c0.1483-0.12071 18.8711-25.82757 41.6069-57.12589l41.334-56.90829-38.1706 12.30144c-20.9943 6.76469-38.2046 12.3672-38.2454 12.44983-0.041 0.0809 0.4522 2.31911 1.0966 4.97339 3.7747 15.5455 4.3575 30.96826 1.8006 47.64174-1.6274 10.6107-4.641 22.2839-8.3948 32.51545-1.3961 3.80542-1.5967 4.61343-1.0303 4.15107z" fill="#658d1b"/>
   <path d="m1285 305v-87l-82.7418 26.88442" fill="none" stroke="#003100" stroke-linecap="square" stroke-width="5"/>
   <path d="m1200.001 337.6512c0.069-0.17816 18.732-25.92861 41.4728-57.22322l41.3466-56.89928 0.096 40.10383c0.054 22.0571 0.044 40.15646-0.022 40.22082-0.064 0.0643-2.3453 0.28658-5.0689 0.49384-15.951 1.21389-30.799 5.42546-45.8663 13.00976-9.5884 4.82647-19.7591 11.29993-28.3299 18.03169-3.1878 2.50368-3.8943 2.94415-3.6295 2.26256z" fill="#78be20"/>
  </g>
  <g transform="rotate(72 1e3 610)">
   <path d="m1105 245c-30 0-63.0005 20-105 20-41.99953 0-75-20-105-20s-45 20-5 80c-95-70-35-117 5-117s63.00047 17 105 17c41.9995 0 65-17 105-17s100 47 5 117c40-60 25-80-5-80z" fill="#c0b661" filter="url(#filter5728-0)" stroke="#d1d159" stroke-width="3.2"/>
   <path d="m890 325c-95-70-35-117 5-117s63.00047 17 105 17c41.9995 0 65-17 105-17s100 47 5 117" fill="none" stroke="#6a5000" stroke-width="10"/>
  </g>
  <g transform="matrix(-.1795885 -.5527166 .5527166 -.1795885 842.3879 1268.627)">
   <path d="m1182.582 358.6967 100.599-138.4626" fill="none" stroke="#003100" stroke-width="5"/>
   <path d="m1197.538 335.1538c0.1483-0.12071 18.8711-25.82757 41.6069-57.12589l41.334-56.90829-38.1706 12.30144c-20.9943 6.76469-38.2046 12.3672-38.2454 12.44983-0.041 0.0809 0.4522 2.31911 1.0966 4.97339 3.7747 15.5455 4.3575 30.96826 1.8006 47.64174-1.6274 10.6107-4.641 22.2839-8.3948 32.51545-1.3961 3.80542-1.5967 4.61343-1.0303 4.15107z" fill="#658d1b"/>
   <path d="m1285 305v-87l-82.7418 26.88442" fill="none" stroke="#003100" stroke-linecap="square" stroke-width="5"/>
   <path d="m1200.001 337.6512c0.069-0.17816 18.732-25.92861 41.4728-57.22322l41.3466-56.89928 0.096 40.10383c0.054 22.0571 0.044 40.15646-0.022 40.22082-0.064 0.0643-2.3453 0.28658-5.0689 0.49384-15.951 1.21389-30.799 5.42546-45.8663 13.00976-9.5884 4.82647-19.7591 11.29993-28.3299 18.03169-3.1878 2.50368-3.8943 2.94415-3.6295 2.26256z" fill="#78be20"/>
  </g>
  <g fill="#ffffff" stroke="#6a5000" stroke-width="5.81161">
   <path d="m907.0931 734.3055c-76.14248 104.1791-144.395 16.36335-164.1497-44.43547-19.75473-60.79883-16.15409-171.9611 106.6814-132.4338"/>
   <path d="m1092.942 734.2167c75.5509 104.6089-29.058 142.3844-92.98565 142.3844-63.92767 0-168.5366-37.77544-92.98571-142.3844"/>
   <path d="m1150.288 557.4361c122.8355-39.52721 126.4362 71.63502 106.6815 132.4338-19.7548 60.79882-88.0073 148.6146-164.1498 44.43548"/>
   <path d="m999.881 448.2686c0.3656-129.038 107.1999-98.11146 158.9185-60.5357 51.7185 37.57569 114.145 129.6242-8.4645 169.847"/>
   <path d="m849.578 557.5798c-122.6095-40.22273-60.18293-132.2713-8.46439-169.847 51.71854-37.57574 158.5528-68.50236 158.9184 60.53578"/>
  </g>
  <path d="m999.9999 442v110" fill="none" stroke="#6a5000" stroke-width="5.812"/>
  <path transform="matrix(-.1795885 -.5527166 .5527166 -.1795885 842.3879 1268.627)" d="m1105 245c-30 0-63.0005 20-105 20-41.99953 0-75-20-105-20s-45 20-5 80c-95-70-35-117 5-117s63.00047 17 105 17c41.9995 0 65-17 105-17s100 47 5 117c40-60 25-80-5-80z" fill="#c0b661" filter="url(#filter5728-0)" stroke="#d1d159" stroke-width="3.2"/>
  <path d="m862.1871 718.3429c-21.62925 65.07927-58.38224 40.35693-65.56578 18.24827s-1.91798-37.87441-9.46061-61.08824c-7.54263-23.21382-21.06944-32.87358-28.25298-54.98224s8.01883-63.71231 63.7699-23.77544" fill="none" stroke="#6a5000" stroke-width="5.81161"/>
  <g transform="matrix(-.5811606 0 0 -.5811606 1581.117 960.8693)">
   <path d="m1105 245c-30 0-63.0005 20-105 20-41.99953 0-75-20-105-20s-45 20-5 80c-95-70-35-117 5-117s63.00047 17 105 17c41.9995 0 65-17 105-17s100 47 5 117c40-60 25-80-5-80z" fill="#c0b661" filter="url(#filter5728-0)" stroke="#d1d159" stroke-width="3.2"/>
   <path d="m890 325c-95-70-35-117 5-117s63.00047 17 105 17c41.9995 0 65-17 105-17s100 47 5 117" fill="none" stroke="#6a5000" stroke-width="10"/>
  </g>
  <g transform="matrix(-.1795885 .5527166 -.5527166 -.1795885 1516.702 163.1938)">
   <path d="m1105 245c-30 0-63.0005 20-105 20-41.99953 0-75-20-105-20s-45 20-5 80c-95-70-35-117 5-117s63.00047 17 105 17c41.9995 0 65-17 105-17s100 47 5 117c40-60 25-80-5-80z" fill="#c0b661" filter="url(#filter5728-0)" stroke="#d1d159" stroke-width="3.2"/>
   <path d="m890 325c-95-70-35-117 5-117s63.00047 17 105 17c41.9995 0 65-17 105-17s100 47 5 117" fill="none" stroke="#6a5000" stroke-width="10"/>
  </g>
  <g transform="matrix(.4701688 .3415976 -.3415976 .4701688 738.1623 -22.03925)">
   <path d="m1105 245c-30 0-63.0005 20-105 20-41.99953 0-75-20-105-20s-45 20-5 80c-95-70-35-117 5-117s63.00047 17 105 17c41.9995 0 65-17 105-17s100 47 5 117c40-60 25-80-5-80z" fill="#c0b661" filter="url(#filter5728-0)" stroke="#d1d159" stroke-width="3.2"/>
   <path d="m890 325c-95-70-35-117 5-117s63.00047 17 105 17c41.9995 0 65-17 105-17s100 47 5 117" fill="none" stroke="#6a5000" stroke-width="10"/>
  </g>
  <g transform="matrix(.4701688 -.3415976 .3415976 .4701688 321.4132 661.156)">
   <path d="m1105 245c-30 0-63.0005 20-105 20-41.99953 0-75-20-105-20s-45 20-5 80c-95-70-35-117 5-117s63.00047 17 105 17c41.9995 0 65-17 105-17s100 47 5 117c40-60 25-80-5-80z" fill="#c0b661" filter="url(#filter5728-0)" stroke="#d1d159" stroke-width="3.2"/>
   <path d="m890 325c-95-70-35-117 5-117s63.00047 17 105 17c41.9995 0 65-17 105-17s100 47 5 117" fill="none" stroke="#6a5000" stroke-width="10"/>
  </g>
  <g fill="none" stroke="#6a5000" stroke-width="5.812">
   <path d="m835.1739 552.9627 104.6162 33.99187"/>
   <path d="m898.729 745.623 64.65638-88.99186"/>
   <path d="m1099.624 743.6231-64.6563-88.99187"/>
   <path d="m1158.041 555.0841-104.6162 33.9918"/>
   <path d="m1e3 734v-54"/>
   <path d="m1117.931 648.3181-51.357-16.68692"/>
   <path d="m1072.885 509.6819-31.7404 43.68687"/>
   <path d="m927.1146 509.6819 31.74036 43.6869"/>
   <path d="m882.069 648.3181 51.35703-16.68688"/>
  </g>
  <ellipse transform="matrix(1.025532 0 0 1.059717 -17.8409 -25.83008)" cx="992.5" cy="600" rx="77.49642" ry="75" fill="#ffcd00" stroke="#6a5000" stroke-width="4.79623"/>
  <g fill="none" stroke="#6a5000" stroke-width="2">
   <path d="m925.7538 634.7487 49.49747 49.49747"/>
   <path d="m1024.749 535.7538 49.4975 49.49747"/>
   <path d="m992.9289 532.2182 84.85277 84.85282"/>
   <path d="m968.1802 535.7538 106.066 106.066"/>
   <path d="m922.2182 602.9289 84.85285 84.85282"/>
   <path d="m925.7538 578.1802 106.066 106.066"/>
   <path d="m936.3604 560.5025 113.1371 113.1371"/>
   <path d="m1063.64 659.4975-113.1371-113.1371"/>
   <path d="m1024.749 684.2462 49.4975-49.49747"/>
   <path d="m925.7538 585.2513 49.49749-49.49751"/>
   <path d="m922.2182 617.0711 84.85286-84.8528"/>
   <path d="m925.7538 641.8198 106.066-106.066"/>
   <path d="m992.9289 687.7817 84.85278-84.85283"/>
   <path d="m968.1802 684.2462 106.066-106.066"/>
   <path d="m950.5025 673.6396 113.1371-113.1371"/>
   <path d="m1049.498 546.3604-113.1371 113.1371"/>
  </g>
 </g>
</svg>
