<svg xmlns="http://www.w3.org/2000/svg" width="1000" height="600">
  <path style="fill:#fff;fill-opacity:1;stroke:none" d="M0-1.6h1011.2v601.59998H0z"/>
  <path style="fill:#d81e05;fill-opacity:1;stroke:none" d="M.00002676 350.39999h1001.6v150.39999h-1001.6zM.00002676 100.8h1001.6V248h-1001.6z"/>
  <path style="fill:#fcd116;fill-opacity:1;stroke:#d81e05;stroke-width:2;stroke-miterlimit:4;stroke-opacity:1;stroke-dasharray:none;stroke-dashoffset:0" d="M280.19106 26.892046a8.7504463 8.485281 0 1 1-17.50089 0 8.7504463 8.485281 0 1 1 17.50089 0z" transform="translate(-5.30181 -2.8614752) scale(1.66666)"/>
  <path style="fill:#fcd116;fill-opacity:1;stroke:#d81e05;stroke-width:2;stroke-miterlimit:4;stroke-opacity:1;stroke-dasharray:none;stroke-dashoffset:0" d="M280.19106 26.892046a8.7504463 8.485281 0 1 1-17.50089 0 8.7504463 8.485281 0 1 1 17.50089 0z" transform="translate(-15.76105 39.859388) scale(1.66666)"/>
  <path style="fill:#fcd116;fill-opacity:1;stroke:#d81e05;stroke-width:2;stroke-miterlimit:4;stroke-opacity:1;stroke-dasharray:none;stroke-dashoffset:0" d="M280.19106 26.892046a8.7504463 8.485281 0 1 1-17.50089 0 8.7504463 8.485281 0 1 1 17.50089 0z" transform="translate(100.32185 -2.5668514) scale(1.66666)"/>
  <path style="fill:#fcd116;fill-opacity:1;stroke:#d81e05;stroke-width:2;stroke-miterlimit:4;stroke-opacity:1;stroke-dasharray:none;stroke-dashoffset:0" d="M280.19106 26.892046a8.7504463 8.485281 0 1 1-17.50089 0 8.7504463 8.485281 0 1 1 17.50089 0z" transform="translate(110.63379 39.270134) scale(1.66666)"/>
  <path style="fill:#fcd116;fill-opacity:1;stroke:#d81e05;stroke-width:2;stroke-miterlimit:4;stroke-opacity:1;stroke-dasharray:none;stroke-dashoffset:0" d="M280.19106 26.892046a8.7504463 8.485281 0 1 1-17.50089 0 8.7504463 8.485281 0 1 1 17.50089 0z" transform="translate(-92.95323 166.54885) scale(1.66666)"/>
  <g style="fill:#fcd116;fill-opacity:1;stroke:#d81e05;stroke-opacity:1;stroke-width:1.500006;stroke-miterlimit:4;stroke-dasharray:none">
    <path d="M295.12326 9.8331019c-1.72853-.01617-5.57866 4.9288221-5.42328 7.9042851.16229 3.107534 3.73024 8.152125 5.3349 8.142262.69147-.0042 2.07904-1.976405 3.30178-3.458197 1.22274-1.481793 1.64723-3.628561 1.56151-5.044134-.0979-1.616834.29295-2.294833-.7635-3.874233-1.09913-1.643225-3.20662-3.6624546-4.01141-3.6699831zM304.92801 9.8772959c1.72853-.01617 5.57866 4.9288221 5.42328 7.9042851-.16229 3.107535-4.07399 9.683376-5.67865 9.673513-.69147-.0042-1.73529-3.507655-2.95803-4.989447-1.22274-1.481793-1.64723-3.628562-1.56151-5.044135.0979-1.616834-.29295-2.294833.7635-3.874233 1.09913-1.643225 3.20662-3.6624546 4.01141-3.6699831z" style="fill:#fcd116;fill-opacity:1;stroke:#d81e05;stroke-width:1.500006;stroke-linecap:butt;stroke-linejoin:miter;stroke-miterlimit:4;stroke-opacity:1;stroke-dasharray:none" transform="translate(.00147 .674044) scale(1.66666)"/>
    <path d="M299.99005 18.716121c-1.72853-.01617-5.57866 4.928822-5.42328 7.904285.16229 3.107533 3.81863 9.694859 5.42329 9.684996 1.38295-.0085 5.46188-6.900104 5.5262-9.735706.0693-3.056892-3.91664-7.838518-5.52621-7.853575zM287.25 12.249996c-1.65673-.05873-5.54157 6.712228-5.32575 9.319167.38177 4.611529 4.46211 7.05015 6.32575 7.055833 2.80712.0086 3.94815-4.448714 4.03905-8.07844.15346-6.127619-3.42696-8.239416-5.03905-8.29656zM312.60472 12.312679c1.65673-.05873 5.54157 6.712228 5.32575 9.319168-.38177 4.611529-4.21211 6.80015-6.07575 6.805833-2.80712.0086-4.19815-4.198714-4.28905-7.828441-.15346-6.127619 3.42696-8.239416 5.03905-8.29656z" style="fill:#fcd116;fill-opacity:1;stroke:#d81e05;stroke-width:1.500006;stroke-linecap:butt;stroke-linejoin:miter;stroke-miterlimit:4;stroke-opacity:1;stroke-dasharray:none" transform="translate(.00147 .674044) scale(1.66666)"/>
    <path d="M286.25 27.249996c-.20059 2.929974 3.62492 7.50094 4.5 7.5.92397-.000992 3.82494-2.667506 3.75-6.5-.0544-2.781167-2.97351-7.413481-4.375-7.5-1.23336-.07614-3.7059 4.029943-3.875 6.5zM314.24715 27.249996c.20059 2.929974-3.62492 7.50094-4.5 7.5-.92397-.000992-3.94994-2.167506-3.875-6 .0544-2.781167 3.09851-7.913481 4.5-8 1.23336-.07614 3.7059 4.029943 3.875 6.5zM285.5 29.624996c-.099-3.59117-2.22904-7.742058-3.29849-7.82886-3.32942-.27023-6.23807 8.989324-6.32651 10.20386-.1612 2.213806.86217 14.441482 5.82072 6.712281.95209-1.484083 3.91274-5.153256 3.80428-9.087281zM314.43496 29.624996c.099-3.59117 2.22904-7.742058 3.29849-7.82886 3.32942-.27023 6.14625 8.999524 6.32651 10.20386.33798 2.258-2.54697 7.463547-3.78779 7.507776-1.76211.06281-5.94567-5.948751-5.83721-9.882776z" style="fill:#fcd116;fill-opacity:1;stroke:#d81e05;stroke-width:1.500006;stroke-linecap:butt;stroke-linejoin:miter;stroke-miterlimit:4;stroke-opacity:1;stroke-dasharray:none" transform="translate(.00147 .674044) scale(1.66666)"/>
    <path d="M280.01224 42.624997c.003-1.719093.98205-5.286153 1.41856-7.076337.89446-3.668294 3.61422-6.350047 4.58353-6.376054 1.25071-.03356 3.76838 3.66445 4.82422 7.422373 1.05584 3.757924-.22138 6.933477-1.07631 7.530018-2.10113 1.466087-3.66769 2.024021-5.47682 1.651943-2.35174-.483675-4.27715-.843711-4.27318-3.151943z" style="fill:#fcd116;fill-opacity:1;stroke:#d81e05;stroke-width:1.500006;stroke-linecap:butt;stroke-linejoin:miter;stroke-miterlimit:4;stroke-opacity:1;stroke-dasharray:none" transform="translate(.00147 .674044) scale(1.66666)"/>
    <path d="M281 41.249996c-1.46937-2.857712-4.0934-7.96411-5.75-8-.7835-.01698-3.17944 6.59418-2.54556 11.1931.60511 4.390137 1.18374 7.320074 2.79556 8.9319 1.31747 1.317475 5.25943.420099 6.29169-1.082413.88112-1.282511 1.23809-7.094946-.79169-11.042587z" style="fill:#fcd116;fill-opacity:1;stroke:#d81e05;stroke-width:1.500006;stroke-linecap:butt;stroke-linejoin:miter;stroke-miterlimit:4;stroke-opacity:1;stroke-dasharray:none" transform="translate(.00147 .674044) scale(1.66666)"/>
    <path d="M275.70153 62.624996c-.67745-.218446-2.12229-1.200737-3-3.125-2.78589-6.107686-.46737-12.46167-.46737-12.46167 1.56622-.488925 3.79358 3.101502 6.46737 7.46167 1.46466 2.388433 3.83629 6.22509 3.71458 7.446536-.1217 1.221446-1.23674 1.70268-1.74543 2.130267-1.01737.855174-4.23279-.54442-4.96915-1.451803zM319.875 42.624996c-.003-1.719093-.91621-5.105357-1.41856-7.076336-.91775-3.600797-3.61422-6.350047-4.58353-6.376054-1.25071-.03356-3.76838 3.66445-4.82422 7.422373-1.05584 3.757923.22138 6.933476 1.07631 7.530017 2.10113 1.466087 3.66769 2.024021 5.47682 1.651943 2.35174-.483675 4.27715-.843711 4.27318-3.151943zM300 40.124996c.41412-4.109615-.5668-6.191804-2.75-9.125-.62484-.839496-1.55985-2.31576-2.625-2.125-3.04789.545853-8.31506 16.184933-7.25 17.25 1.40529 1.405285 4.18925 3.878938 6.25 3.5 2.42845-.446551 6.20306-8.101267 6.375-9.5z" style="fill:#fcd116;fill-opacity:1;stroke:#d81e05;stroke-width:1.500006;stroke-linecap:butt;stroke-linejoin:miter;stroke-miterlimit:4;stroke-opacity:1;stroke-dasharray:none" transform="translate(.00147 .674044) scale(1.66666)"/>
    <path d="M300.05024 40.124996c-.41412-4.109615.5668-6.191804 2.75-9.125.62484-.839496 1.58883-2.436917 2.625-2.125 3.26664.983353 8.31506 16.184933 7.25 17.25-1.40529 1.405285-4.18925 3.878938-6.25 3.5-2.42845-.446551-6.20306-8.101267-6.375-9.5zM318.79627 41.249996c1.46937-2.857712 4.0934-7.96411 5.75-8 .7835-.01698 3.17944 6.59418 2.54556 11.1931-.60511 4.390137-1.18374 7.320074-2.79556 8.9319-1.31747 1.317475-5.25943.420099-6.29169-1.082413-.88113-1.282511-1.2381-7.094946.79169-11.042587z" style="fill:#fcd116;fill-opacity:1;stroke:#d81e05;stroke-width:1.500006;stroke-linecap:butt;stroke-linejoin:miter;stroke-miterlimit:4;stroke-opacity:1;stroke-dasharray:none" transform="translate(.00147 .674044) scale(1.66666)"/>
    <path d="M323.80697 62.624996c.67745-.218446 2.12229-1.200737 3-3.125 2.78589-6.107686.46737-12.46167.46737-12.46167-1.56622-.488925-3.79358 3.101502-6.46737 7.46167-1.46466 2.388433-3.83629 6.22509-3.71458 7.446536.1217 1.221446 1.23674 1.70268 1.74543 2.130267 1.01737.855174 4.23279-.54442 4.96915-1.451803zM300.05785 39.016422c-2.10357-.01103-5.92012 5.880083-6.67328 9.404285-.25942 1.21388-.38955 3.527182-.22268 5.094338.16309 1.531682 4.82254.91222 6.55758.954174 1.63893.03963 7.37017.480033 7.41334-1.323399.0244-1.019512-.22958-4.330875-.42375-5.025823-1.05237-3.766446-4.29162-9.091202-6.65121-9.103575z" style="fill:#fcd116;fill-opacity:1;stroke:#d81e05;stroke-width:1.500006;stroke-linecap:butt;stroke-linejoin:miter;stroke-miterlimit:4;stroke-opacity:1;stroke-dasharray:none" transform="translate(.00147 .674044) scale(1.66666)"/>
    <path d="M295.5798 55.395481c.33689-3.435737-10.19223-14.862224-11.625-14.75-1.59057.124584-5.75715 7.742849-5.25 11.875.44485 3.624545 2.09885 10.39523 5.61151 11.546312 3.51266 1.151081 10.96112-2.742918 11.26349-8.671312zM304.2952 55.395481c-.33689-3.435737 10.19223-14.862224 11.625-14.75 1.59057.124584 5.75715 7.742849 5.25 11.875-.44485 3.624545-2.09885 10.39523-5.61151 11.546312-3.51266 1.151081-8.88399-3.317442-11.26349-8.671312z" style="fill:#fcd116;fill-opacity:1;stroke:#d81e05;stroke-width:1.500006;stroke-linecap:butt;stroke-linejoin:miter;stroke-miterlimit:4;stroke-opacity:1;stroke-dasharray:none" transform="translate(.00147 .674044) scale(1.66666)"/>
    <path d="M284.375 51.999997c2.02472-.315862 12.40775 10.214917 11.25 15-1.31349 5.428756-3.59641 8.633718-5.58761 8.416121-1.50266-.16421-6.172-7.202749-7.34989-8.978621-3.66306-5.522681.38083-14.233656 1.6875-14.4375zM315.45218 51.999997c-2.02472-.315862-12.40775 10.214917-11.25 15 1.31349 5.428756 3.59641 8.633718 5.58761 8.416121 1.50266-.16421 6.172-7.202749 7.34989-8.978621 3.66306-5.522681-.38083-14.233656-1.6875-14.4375z" style="fill:#fcd116;fill-opacity:1;stroke:#d81e05;stroke-width:1.500006;stroke-linecap:butt;stroke-linejoin:miter;stroke-miterlimit:4;stroke-opacity:1;stroke-dasharray:none" transform="translate(.00147 .674044) scale(1.66666)"/>
    <path d="M300.35204 50.099199c-2.61232-.0051-7.07866 8.053822-6.92328 11.029285.16229 3.107533-.7208 11.309681 6.5849 11.298511 7.57031-.01157 6.80027-8.763619 6.86459-11.599221.0693-3.056892-4.04612-10.72373-6.52621-10.728575zM316.62112 73.749997c2.06699.906043 4.14705-.479655 5.375-1.875 5.795-6.585 5.51489-12.118709 4.875-12.625001-.89165-.705491-4.75456 1.437628-5.875 2.375001-2.17851 1.822569-9.0681 11.059763-9.95265 13.488342-.88454 2.42858 4.23597-1.951455 5.57765-1.363342zM283.75 73.749996c-2.06699.906043-4.14705-.479655-5.375-1.875-5.795-6.585-5.51489-12.118709-4.875-12.625.89165-.705491 4.75456 1.437627 5.875 2.375 2.17851 1.822569 9.0681 11.559763 9.95265 13.988342.88454 2.42858-4.23597-2.451455-5.57765-1.863342z" style="fill:#fcd116;fill-opacity:1;stroke:#d81e05;stroke-width:1.500006;stroke-linecap:butt;stroke-linejoin:miter;stroke-miterlimit:4;stroke-opacity:1;stroke-dasharray:none" transform="translate(.00147 .674044) scale(1.66666)"/>
    <path d="M280.4491 73.534879c2.16051 5.125087 9.50493 13.463975 19.94544 13.301146 10.20977-.15923 19.42399-13.227922 19.42399-13.227922-2.34022-1.95135-6.72326-1.223921-8.06853-.233107-.94731.697714-2.47034 1.530588-3.75 5.625004.68306-2.375815 2.30973-16.886105.375-17.250004-1.04019-.195647-5.57062 3.80546-6.75 7.109835C301.5559 69.053282 300 72 300 72s-1.4284-2.731813-1.625-3.125004c-1.75107-2.951573-5.66425-6.942121-6.625-6.75-1.6213.324211-1.82036 9.195372.25 16.875004-.47018-1.478036-1.80711-4.620651-3-5.500004-1.07747-.794271-5.81337-2.78348-8.5509.03488z" style="fill:#fcd116;fill-opacity:1;stroke:#d81e05;stroke-width:1.500006;stroke-linecap:round;stroke-linejoin:miter;stroke-miterlimit:4;stroke-opacity:1;stroke-dasharray:none" transform="translate(.00147 .674044) scale(1.66666)"/>
  </g>
  <g style="fill:#fcd116;fill-opacity:1;stroke:#d81e05;stroke-opacity:1">
    <path transform="translate(-1.50562408 83.4641295) scale(1.66666)" d="M280.19106 26.892046c0 4.686291-3.91771 8.485281-8.75045 8.485281-4.83274 0-8.75044-3.79899-8.75044-8.485281 0-4.686291 3.9177-8.485281 8.75044-8.485281 4.83274 0 8.75045 3.79899 8.75045 8.485281z" style="fill:#fcd116;fill-opacity:1;stroke:#d81e05;stroke-width:2;stroke-miterlimit:4;stroke-opacity:1;stroke-dasharray:none;stroke-dashoffset:0"/>
    <path transform="translate(98.37280863 83.4641295) scale(1.66666)" d="M280.19106 26.892046c0 4.686291-3.91771 8.485281-8.75045 8.485281-4.83274 0-8.75044-3.79899-8.75044-8.485281 0-4.686291 3.9177-8.485281 8.75044-8.485281 4.83274 0 8.75045 3.79899 8.75045 8.485281z" style="fill:#fcd116;fill-opacity:1;stroke:#d81e05;stroke-width:2;stroke-miterlimit:4;stroke-opacity:1;stroke-dasharray:none;stroke-dashoffset:0"/>
  </g>
  <g style="fill:#fcd116;fill-opacity:1;stroke:#d81e05;stroke-opacity:1">
    <path transform="translate(-36.71352112 83.16950402) scale(1.66666)" d="M280.19106 26.892046c0 4.686291-3.91771 8.485281-8.75045 8.485281-4.83274 0-8.75044-3.79899-8.75044-8.485281 0-4.686291 3.9177-8.485281 8.75044-8.485281 4.83274 0 8.75045 3.79899 8.75045 8.485281z" style="fill:#fcd116;fill-opacity:1;stroke:#d81e05;stroke-width:2;stroke-miterlimit:4;stroke-opacity:1;stroke-dasharray:none;stroke-dashoffset:0"/>
    <path transform="translate(133.5806927 83.16950402) scale(1.66666)" d="M280.19106 26.892046c0 4.686291-3.91771 8.485281-8.75045 8.485281-4.83274 0-8.75044-3.79899-8.75044-8.485281 0-4.686291 3.9177-8.485281 8.75044-8.485281 4.83274 0 8.75045 3.79899 8.75045 8.485281z" style="fill:#fcd116;fill-opacity:1;stroke:#d81e05;stroke-width:2;stroke-miterlimit:4;stroke-opacity:1;stroke-dasharray:none;stroke-dashoffset:0"/>
  </g>
  <g style="fill:#fcd116;fill-opacity:1;stroke:#d81e05;stroke-opacity:1">
    <path transform="translate(-87.97855273 41.921774) scale(1.66666)" d="M280.19106 26.892046c0 4.686291-3.91771 8.485281-8.75045 8.485281-4.83274 0-8.75044-3.79899-8.75044-8.485281 0-4.686291 3.9177-8.485281 8.75044-8.485281 4.83274 0 8.75045 3.79899 8.75045 8.485281z" style="fill:#fcd116;fill-opacity:1;stroke:#d81e05;stroke-width:2;stroke-miterlimit:4;stroke-opacity:1;stroke-dasharray:none;stroke-dashoffset:0"/>
    <path transform="translate(184.84574597 41.921774) scale(1.66666)" d="M280.19106 26.892046c0 4.686291-3.91771 8.485281-8.75045 8.485281-4.83274 0-8.75044-3.79899-8.75044-8.485281 0-4.686291 3.9177-8.485281 8.75044-8.485281 4.83274 0 8.75045 3.79899 8.75045 8.485281z" style="fill:#fcd116;fill-opacity:1;stroke:#d81e05;stroke-width:2;stroke-miterlimit:4;stroke-opacity:1;stroke-dasharray:none;stroke-dashoffset:0"/>
  </g>
  <path style="fill:#fcd116;fill-opacity:1;stroke:#d81e05;stroke-width:2;stroke-miterlimit:4;stroke-opacity:1;stroke-dasharray:none;stroke-dashoffset:0" d="M280.19106 26.892046a8.7504463 8.485281 0 1 1-17.50089 0 8.7504463 8.485281 0 1 1 17.50089 0z" transform="translate(189.00449 166.54885) scale(1.66666)"/>
  <g style="fill:#fcd116;fill-opacity:1;stroke:#d81e05;stroke-opacity:1">
    <path transform="matrix(.39893 0 0 .41625 305.84133555 142.99245972)" d="M183.00702 233.63239c0 12.02985-10.50611 21.78197-23.46605 21.78197s-23.46605-9.75212-23.46605-21.78197c0-12.02986 10.50611-21.78198 23.46605-21.78198s23.46605 9.75212 23.46605 21.78198z" style="fill:#fcd116;fill-opacity:1;stroke:#d81e05;stroke-width:2;stroke-miterlimit:4;stroke-opacity:1;stroke-dasharray:none;stroke-dashoffset:0"/>
    <path transform="matrix(.39893 0 0 .41625 568.53181812 142.99245972)" d="M183.00702 233.63239c0 12.02985-10.50611 21.78197-23.46605 21.78197s-23.46605-9.75212-23.46605-21.78197c0-12.02986 10.50611-21.78198 23.46605-21.78198s23.46605 9.75212 23.46605 21.78198z" style="fill:#fcd116;fill-opacity:1;stroke:#d81e05;stroke-width:2;stroke-miterlimit:4;stroke-opacity:1;stroke-dasharray:none;stroke-dashoffset:0"/>
  </g>
  <g style="fill:#fcd116;fill-opacity:1;stroke:#d81e05;stroke-opacity:1">
    <path transform="matrix(.39893 0 0 .41625 256.87508688 125.60948426)" d="M183.00702 233.63239c0 12.02985-10.50611 21.78197-23.46605 21.78197s-23.46605-9.75212-23.46605-21.78197c0-12.02986 10.50611-21.78198 23.46605-21.78198s23.46605 9.75212 23.46605 21.78198z" style="fill:#fcd116;fill-opacity:1;stroke:#d81e05;stroke-width:2;stroke-miterlimit:4;stroke-opacity:1;stroke-dasharray:none;stroke-dashoffset:0"/>
    <path transform="matrix(.39893 0 0 .41625 617.49809438 125.60948426)" d="M183.00702 233.63239c0 12.02985-10.50611 21.78197-23.46605 21.78197s-23.46605-9.75212-23.46605-21.78197c0-12.02986 10.50611-21.78198 23.46605-21.78198s23.46605 9.75212 23.46605 21.78198z" style="fill:#fcd116;fill-opacity:1;stroke:#d81e05;stroke-width:2;stroke-miterlimit:4;stroke-opacity:1;stroke-dasharray:none;stroke-dashoffset:0"/>
  </g>
  <g style="fill:#fcd116;fill-opacity:1;stroke:#d81e05;stroke-opacity:1">
    <path transform="matrix(.39893 0 0 .41625 219.89942301 130.61813589)" d="M183.00702 233.63239c0 12.02985-10.50611 21.78197-23.46605 21.78197s-23.46605-9.75212-23.46605-21.78197c0-12.02986 10.50611-21.78198 23.46605-21.78198s23.46605 9.75212 23.46605 21.78198z" style="fill:#fcd116;fill-opacity:1;stroke:#d81e05;stroke-width:2;stroke-miterlimit:4;stroke-opacity:1;stroke-dasharray:none;stroke-dashoffset:0"/>
    <path transform="matrix(.39893 0 0 .41625 654.4737347 130.61813589)" d="M183.00702 233.63239c0 12.02985-10.50611 21.78197-23.46605 21.78197s-23.46605-9.75212-23.46605-21.78197c0-12.02986 10.50611-21.78198 23.46605-21.78198s23.46605 9.75212 23.46605 21.78198z" style="fill:#fcd116;fill-opacity:1;stroke:#d81e05;stroke-width:2;stroke-miterlimit:4;stroke-opacity:1;stroke-dasharray:none;stroke-dashoffset:0"/>
  </g>
  <g style="fill:#fcd116;fill-opacity:1;stroke:#d81e05;stroke-opacity:1">
    <path transform="translate(-155.00612354 128.24738204) scale(1.66666)" d="M280.19106 26.892046c0 4.686291-3.91771 8.485281-8.75045 8.485281-4.83274 0-8.75044-3.79899-8.75044-8.485281 0-4.686291 3.9177-8.485281 8.75044-8.485281 4.83274 0 8.75045 3.79899 8.75045 8.485281z" style="fill:#fcd116;fill-opacity:1;stroke:#d81e05;stroke-width:2;stroke-miterlimit:4;stroke-opacity:1;stroke-dasharray:none;stroke-dashoffset:0"/>
    <path transform="translate(251.8732906 128.24738204) scale(1.66666)" d="M280.19106 26.892046c0 4.686291-3.91771 8.485281-8.75045 8.485281-4.83274 0-8.75044-3.79899-8.75044-8.485281 0-4.686291 3.9177-8.485281 8.75044-8.485281 4.83274 0 8.75045 3.79899 8.75045 8.485281z" style="fill:#fcd116;fill-opacity:1;stroke:#d81e05;stroke-width:2;stroke-miterlimit:4;stroke-opacity:1;stroke-dasharray:none;stroke-dashoffset:0"/>
  </g>
  <g style="fill:#fcd116;fill-opacity:1;stroke:#d81e05;stroke-opacity:1">
    <path transform="translate(-137.03389543 298.83620135) scale(1.66666)" d="M280.19106 26.892046c0 4.686291-3.91771 8.485281-8.75045 8.485281-4.83274 0-8.75044-3.79899-8.75044-8.485281 0-4.686291 3.9177-8.485281 8.75044-8.485281 4.83274 0 8.75045 3.79899 8.75045 8.485281z" style="fill:#fcd116;fill-opacity:1;stroke:#d81e05;stroke-width:2;stroke-miterlimit:4;stroke-opacity:1;stroke-dasharray:none;stroke-dashoffset:0"/>
    <path transform="translate(233.9010625 298.83620135) scale(1.66666)" d="M280.19106 26.892046c0 4.686291-3.91771 8.485281-8.75045 8.485281-4.83274 0-8.75044-3.79899-8.75044-8.485281 0-4.686291 3.9177-8.485281 8.75044-8.485281 4.83274 0 8.75045 3.79899 8.75045 8.485281z" style="fill:#fcd116;fill-opacity:1;stroke:#d81e05;stroke-width:2;stroke-miterlimit:4;stroke-opacity:1;stroke-dasharray:none;stroke-dashoffset:0"/>
  </g>
  <g style="fill:#fcd116;fill-opacity:1;stroke:#d81e05;stroke-opacity:1">
    <g style="fill:#fcd116;fill-opacity:1;stroke:#d81e05;stroke-opacity:1">
      <path style="fill:#fcd116;fill-opacity:1;stroke:#d81e05;stroke-width:2;stroke-miterlimit:4;stroke-opacity:1;stroke-dasharray:none;stroke-dashoffset:0" d="M183.00702 233.63239c0 12.02985-10.50611 21.78197-23.46605 21.78197s-23.46605-9.75212-23.46605-21.78197c0-12.02986 10.50611-21.78198 23.46605-21.78198s23.46605 9.75212 23.46605 21.78198z" transform="matrix(.39893 0 0 .41625 257.13289293 292.51547663)"/>
      <path style="fill:#fcd116;fill-opacity:1;stroke:#d81e05;stroke-width:2;stroke-miterlimit:4;stroke-opacity:1;stroke-dasharray:none;stroke-dashoffset:0" d="M183.00702 233.63239c0 12.02985-10.50611 21.78197-23.46605 21.78197s-23.46605-9.75212-23.46605-21.78197c0-12.02986 10.50611-21.78198 23.46605-21.78198s23.46605 9.75212 23.46605 21.78198z" transform="matrix(.39893 0 0 .41625 279.37720395 278.52071594)"/>
      <path style="fill:#fcd116;fill-opacity:1;stroke:#d81e05;stroke-width:2;stroke-miterlimit:4;stroke-opacity:1;stroke-dasharray:none;stroke-dashoffset:0" d="M183.00702 233.63239c0 12.02985-10.50611 21.78197-23.46605 21.78197s-23.46605-9.75212-23.46605-21.78197c0-12.02986 10.50611-21.78198 23.46605-21.78198s23.46605 9.75212 23.46605 21.78198z" transform="matrix(.39893 0 0 .41625 304.42047045 270.86041325)"/>
      <path style="fill:#fcd116;fill-opacity:1;stroke:#d81e05;stroke-width:2;stroke-miterlimit:4;stroke-opacity:1;stroke-dasharray:none;stroke-dashoffset:0" d="M183.00702 233.63239c0 12.02985-10.50611 21.78197-23.46605 21.78197s-23.46605-9.75212-23.46605-21.78197c0-12.02986 10.50611-21.78198 23.46605-21.78198s23.46605 9.75212 23.46605 21.78198z" transform="matrix(.39893 0 0 .41625 330.64223222 272.62817285)"/>
    </g>
    <g style="fill:#fcd116;fill-opacity:1;stroke:#d81e05;stroke-opacity:1">
      <path transform="matrix(-.39893 0 0 .41625 744.53274347 292.51547663)" d="M183.00702 233.63239c0 12.02985-10.50611 21.78197-23.46605 21.78197s-23.46605-9.75212-23.46605-21.78197c0-12.02986 10.50611-21.78198 23.46605-21.78198s23.46605 9.75212 23.46605 21.78198z" style="fill:#fcd116;fill-opacity:1;stroke:#d81e05;stroke-width:2;stroke-miterlimit:4;stroke-opacity:1;stroke-dasharray:none;stroke-dashoffset:0"/>
      <path transform="matrix(-.39893 0 0 .41625 722.28843245 278.52071594)" d="M183.00702 233.63239c0 12.02985-10.50611 21.78197-23.46605 21.78197s-23.46605-9.75212-23.46605-21.78197c0-12.02986 10.50611-21.78198 23.46605-21.78198s23.46605 9.75212 23.46605 21.78198z" style="fill:#fcd116;fill-opacity:1;stroke:#d81e05;stroke-width:2;stroke-miterlimit:4;stroke-opacity:1;stroke-dasharray:none;stroke-dashoffset:0"/>
      <path transform="matrix(-.39893 0 0 .41625 697.24516596 270.86041325)" d="M183.00702 233.63239c0 12.02985-10.50611 21.78197-23.46605 21.78197s-23.46605-9.75212-23.46605-21.78197c0-12.02986 10.50611-21.78198 23.46605-21.78198s23.46605 9.75212 23.46605 21.78198z" style="fill:#fcd116;fill-opacity:1;stroke:#d81e05;stroke-width:2;stroke-miterlimit:4;stroke-opacity:1;stroke-dasharray:none;stroke-dashoffset:0"/>
      <path transform="matrix(-.39893 0 0 .41625 671.02340418 272.62817285)" d="M183.00702 233.63239c0 12.02985-10.50611 21.78197-23.46605 21.78197s-23.46605-9.75212-23.46605-21.78197c0-12.02986 10.50611-21.78198 23.46605-21.78198s23.46605 9.75212 23.46605 21.78198z" style="fill:#fcd116;fill-opacity:1;stroke:#d81e05;stroke-width:2;stroke-miterlimit:4;stroke-opacity:1;stroke-dasharray:none;stroke-dashoffset:0"/>
    </g>
  </g>
  <path style="fill:#fcd116;fill-opacity:1;stroke:#d81e05;stroke-width:2.5;stroke-linecap:butt;stroke-linejoin:miter;stroke-miterlimit:4;stroke-opacity:1;stroke-dasharray:none" d="M439.73177 512.03522c-1.13908-2.87144-11.4415-7.12-14.58404-3.97744-4.1295 4.1295-13.81268 14.73132-20.77118 14.73132-1.85928 0-8.26692-1.06592-11.49042-.88388 1.36776 2.73552.3598 4.92652 2.357 6.92372 1.73496 1.73498 7.12884 6.8939 9.42806 7.6603 9.05448 3.01816 18.63546 2.80106 24.74864.73658 3.08296-1.04116 10.75386-5.3241 19.15072-5.00868-5.00864 1.82204-10.06208 5.47292-10.90118 5.89256-1.75278 3.60168-1.26914 2.93756-.88386 10.1646.29166 5.4712 1.34634 7.25944 3.83014 12.22702 1.64412 3.28826 1.62044 6.5105 1.47312 8.54416-.0284.39124 27.16176-15.72744 31.37774-20.77118 1.84262 1.97554 27.10566 34.91328 27.10566 34.91328s14.97148-18.09602 18.41416-22.68628c2.77286-4.58124 6.86166-8.15214 8.98612-12.52162 2.77772 2.77772 24.89876 18.43128 26.95836 18.41416.42568-.004 1.75388 1.6711 5.59788 2.35702 0-6.82582 5.67404-24.14338 6.06494-27.87926.40234-3.84522-2.83968-6.0028-13.28328-8.80176-.0716-.02 6.56382 1.29318 9.86998 2.94626 4.92392 2.46198 13.56826 3.67354 19.59268 3.97746 10.42888.52612 26.1926-6.65978 25.92714-17.08834-7.9058.0982-15.22184.54074-17.23566-1.47312-5.55528-5.5553-10.78582-16.1239-31.37774-9.28076"/>
  <path style="fill:#fcd116;fill-opacity:1;stroke:#d81e05;stroke-width:1.9999921300000001;stroke-linecap:butt;stroke-linejoin:miter;stroke-miterlimit:4;stroke-opacity:1;stroke-dasharray:none" d="M510.29481 259.09826c40.49526-52.06121 53.01186-58.31897 83.67398-85.44172l9.57538 6.48177s-38.00684 39.18535-47.72952 49.49729c0 0-24.15938 32.70354-50.52846 81.31694 0 0-1.47314-.29462-8.24956-.29462-3.71814-7.24832 1.17414-.1202-18.56148-30.78848 0 0-28.13684-54.21132-77.19222-99.14185l.1474-.14734c.1474-.14734.1474 0 .1474 0l6.18716-7.21835c67.29322 55.57488 82.97908 85.90656 83.67398 87.20948"/>
  <path style="fill:#fcd116;fill-opacity:1;stroke:#d81e05;stroke-width:2.5;stroke-linecap:butt;stroke-linejoin:miter;stroke-miterlimit:4;stroke-opacity:1;stroke-dasharray:none" d="M569.18733 515.71806c-11.93238-6.33448-22.0306-7.67488-38.15416-27.25296-11.54312-14.01628-7.00752-44.94786 2.50434-55.38982 11.18584-12.27966 20.13282-21.26222 46.25638-21.94968l5.3886-14.3831c-11.6757-6.3793-44.02852 1.75394-56.06842 13.79384-2.52472 2.52472-15.5904 22.13316-18.5615 20.34712-3.11898-1.87496 13.0677-18.42982 14.10634-31.10838 1.25518-15.322-14.24226-9.16046-7.0353-20.17454 29.06984-34.47132 61.38056-65.70174 100.76234-83.08472l2.25706-18.74454c-45.93658 15.29148-66.56078 27.3538-103.4349 66.81184 8.39522-48.33052 25.1597-108.90824 87.88502-160.36319l-3.75866-1.42996c-64.1748 54.66887-77.53592 78.29701-90.00844 111.25837l-2.41804-150.048-15.7015.33037-1.76776 139.22157-.0952-.1474c-36.839-68.21381-61.62624-83.47423-87.40886-105.32896l-7.29728 5.77049c62.72532 51.45495 79.4898 112.03269 87.88502 160.36319-36.87412-39.45804-57.49832-51.52036-103.4349-66.81184l1.92862 19.11806c39.38176 17.38298 71.69248 48.6134 100.76232 83.08472 7.20698 11.01408-8.29046 4.85254-7.03528 20.17454 1.03862 12.67856 17.2253 29.23342 14.10632 31.10838-2.97108 1.78604-16.03676-17.8224-18.5615-20.34712-12.0399-12.0399-44.39272-20.17314-56.06842-13.79384l5.68728 14.3831c26.12356.68746 35.07052 9.67002 46.25638 21.94968 9.51186 10.44196 14.04746 41.37354 2.50432 55.38982-6.85746 8.23928-17.20908 18.84202-30.45716 23.66474-2.87662 1.32236-4.7139 2.0046-7.69698 3.58822"/>
  <g style="fill:#fcd116;fill-opacity:1;stroke:#d81e05;stroke-opacity:1">
    <g style="fill:#fcd116;fill-opacity:1;stroke:#d81e05;stroke-opacity:1">
      <path style="fill:#fcd116;fill-opacity:1;stroke:#d81e05;stroke-width:2;stroke-miterlimit:4;stroke-opacity:1;stroke-dasharray:none;stroke-dashoffset:0" d="M280.19106 26.892046c0 4.686291-3.91771 8.485281-8.75045 8.485281-4.83274 0-8.75044-3.79899-8.75044-8.485281 0-4.686291 3.9177-8.485281 8.75044-8.485281 4.83274 0 8.75045 3.79899 8.75045 8.485281z" transform="translate(-39.291501 415.21373583) scale(1.66666)"/>
      <path style="fill:#fcd116;fill-opacity:1;stroke:#d81e05;stroke-width:2;stroke-miterlimit:4;stroke-opacity:1;stroke-dasharray:none;stroke-dashoffset:0" d="M280.19106 26.892046c0 4.686291-3.91771 8.485281-8.75045 8.485281-4.83274 0-8.75044-3.79899-8.75044-8.485281 0-4.686291 3.9177-8.485281 8.75044-8.485281 4.83274 0 8.75045 3.79899 8.75045 8.485281z" transform="translate(-55.49596785 441.43551428) scale(1.66666)"/>
      <path style="fill:#fcd116;fill-opacity:1;stroke:#d81e05;stroke-width:2;stroke-miterlimit:4;stroke-opacity:1;stroke-dasharray:none;stroke-dashoffset:0" d="M280.19106 26.892046c0 4.686291-3.91771 8.485281-8.75045 8.485281-4.83274 0-8.75044-3.79899-8.75044-8.485281 0-4.686291 3.9177-8.485281 8.75044-8.485281 4.83274 0 8.75045 3.79899 8.75045 8.485281z" transform="translate(-83.78012638 428.76656496) scale(1.66666)"/>
    </g>
    <g style="fill:#fcd116;fill-opacity:1;stroke:#d81e05;stroke-opacity:1">
      <path style="fill:#fcd116;fill-opacity:1;stroke:#d81e05;stroke-width:2;stroke-miterlimit:4;stroke-opacity:1;stroke-dasharray:none;stroke-dashoffset:0" d="M280.19106 26.892046c0 4.686291-3.91771 8.485281-8.75045 8.485281-4.83274 0-8.75044-3.79899-8.75044-8.485281 0-4.686291 3.9177-8.485281 8.75044-8.485281 4.83274 0 8.75045 3.79899 8.75045 8.485281z" transform="matrix(-1.66666 0 0 1.66666 1040.95709465 415.21373583)"/>
      <path style="fill:#fcd116;fill-opacity:1;stroke:#d81e05;stroke-width:2;stroke-miterlimit:4;stroke-opacity:1;stroke-dasharray:none;stroke-dashoffset:0" d="M280.19106 26.892046c0 4.686291-3.91771 8.485281-8.75045 8.485281-4.83274 0-8.75044-3.79899-8.75044-8.485281 0-4.686291 3.9177-8.485281 8.75044-8.485281 4.83274 0 8.75045 3.79899 8.75045 8.485281z" transform="matrix(-1.66666 0 0 1.66666 1057.1615615 441.43551428)"/>
      <path style="fill:#fcd116;fill-opacity:1;stroke:#d81e05;stroke-width:2;stroke-miterlimit:4;stroke-opacity:1;stroke-dasharray:none;stroke-dashoffset:0" d="M280.19106 26.892046c0 4.686291-3.91771 8.485281-8.75045 8.485281-4.83274 0-8.75044-3.79899-8.75044-8.485281 0-4.686291 3.9177-8.485281 8.75044-8.485281 4.83274 0 8.75045 3.79899 8.75045 8.485281z" transform="matrix(-1.66666 0 0 1.66666 1085.44572003 428.76656496)"/>
    </g>
  </g>
  <path d="M296.10097 292.23387c-4.30157 14.08321-10.72445 23.92377-19.79899 33.76434M303.70237 292.23387c4.30157 14.08321 10.72445 23.92377 19.79899 33.76434" style="fill:none;stroke:#d81e05;stroke-width:1.5;stroke-linecap:butt;stroke-linejoin:miter;stroke-miterlimit:4;stroke-opacity:1;stroke-dasharray:none" transform="translate(.99869 .674044) scale(1.66666)"/>
  <g style="fill:#fcd116;fill-opacity:1;stroke:#d81e05;stroke-opacity:1">
    <path transform="translate(-182.3119611 279.3908458) scale(1.66666)" d="M280.19106 26.892046c0 4.686291-3.91771 8.485281-8.75045 8.485281-4.83274 0-8.75044-3.79899-8.75044-8.485281 0-4.686291 3.9177-8.485281 8.75044-8.485281 4.83274 0 8.75045 3.79899 8.75045 8.485281z" style="fill:#fcd116;fill-opacity:1;stroke:#d81e05;stroke-width:2;stroke-miterlimit:4;stroke-opacity:1;stroke-dasharray:none;stroke-dashoffset:0"/>
    <path transform="translate(279.17914294 279.3908458) scale(1.66666)" d="M280.19106 26.892046c0 4.686291-3.91771 8.485281-8.75045 8.485281-4.83274 0-8.75044-3.79899-8.75044-8.485281 0-4.686291 3.9177-8.485281 8.75044-8.485281 4.83274 0 8.75045 3.79899 8.75045 8.485281z" style="fill:#fcd116;fill-opacity:1;stroke:#d81e05;stroke-width:2;stroke-miterlimit:4;stroke-opacity:1;stroke-dasharray:none;stroke-dashoffset:0"/>
  </g>
  <path style="fill:none;stroke:#d81e05;stroke-width:1.99999213;stroke-linecap:butt;stroke-linejoin:miter;stroke-miterlimit:4;stroke-opacity:1;stroke-dasharray:none" d="M382.57419 279.28018c47.77862 22.83356 100.12396 73.0674 110.6323 95.45904M618.49649 287.67702c-47.77862 22.83356-95.55724 68.35338-106.06558 90.745"/>
  <g style="fill:#fcd116;fill-opacity:1;stroke:#d81e05;stroke-opacity:1;stroke-width:1.500006;stroke-miterlimit:4;stroke-dasharray:none">
    <g style="fill:#fcd116;fill-opacity:1;stroke:#d81e05;stroke-opacity:1;stroke-width:1.500006;stroke-miterlimit:4;stroke-dasharray:none">
      <g style="fill:#fcd116;fill-opacity:1;stroke:#d81e05;stroke-opacity:1;stroke-width:1.500006;stroke-miterlimit:4;stroke-dasharray:none">
        <path d="M295.12326 9.8331019c-1.72853-.01617-5.57866 4.9288221-5.42328 7.9042851.16229 3.107534 3.73024 8.152125 5.3349 8.142262.69147-.0042 2.07904-1.976405 3.30178-3.458197 1.22274-1.481793 1.64723-3.628561 1.56151-5.044134-.0979-1.616834.29295-2.294833-.7635-3.874233-1.09913-1.643225-3.20662-3.6624546-4.01141-3.6699831zM304.92801 9.8772959c1.72853-.01617 5.57866 4.9288221 5.42328 7.9042851-.16229 3.107535-4.07399 9.683376-5.67865 9.673513-.69147-.0042-1.73529-3.507655-2.95803-4.989447-1.22274-1.481793-1.64723-3.628562-1.56151-5.044135.0979-1.616834-.29295-2.294833.7635-3.874233 1.09913-1.643225 3.20662-3.6624546 4.01141-3.6699831z" style="fill:#fcd116;fill-opacity:1;stroke:#d81e05;stroke-width:1.500006;stroke-linecap:butt;stroke-linejoin:miter;stroke-miterlimit:4;stroke-opacity:1;stroke-dasharray:none" transform="rotate(-60 481.48374845 241.85157845) scale(1.66666)"/>
        <path d="M299.99005 18.716121c-1.72853-.01617-5.57866 4.928822-5.42328 7.904285.16229 3.107533 3.81863 9.694859 5.42329 9.684996 1.38295-.0085 5.46188-6.900104 5.5262-9.735706.0693-3.056892-3.91664-7.838518-5.52621-7.853575zM287.25 12.249996c-1.65673-.05873-5.54157 6.712228-5.32575 9.319167.38177 4.611529 4.46211 7.05015 6.32575 7.055833 2.80712.0086 3.94815-4.448714 4.03905-8.07844.15346-6.127619-3.42696-8.239416-5.03905-8.29656zM312.60472 12.312679c1.65673-.05873 5.54157 6.712228 5.32575 9.319168-.38177 4.611529-4.21211 6.80015-6.07575 6.805833-2.80712.0086-4.19815-4.198714-4.28905-7.828441-.15346-6.127619 3.42696-8.239416 5.03905-8.29656z" style="fill:#fcd116;fill-opacity:1;stroke:#d81e05;stroke-width:1.500006;stroke-linecap:butt;stroke-linejoin:miter;stroke-miterlimit:4;stroke-opacity:1;stroke-dasharray:none" transform="rotate(-60 481.48374845 241.85157845) scale(1.66666)"/>
        <path d="M286.25 27.249996c-.20059 2.929974 3.62492 7.50094 4.5 7.5.92397-.000992 3.82494-2.667506 3.75-6.5-.0544-2.781167-2.97351-7.413481-4.375-7.5-1.23336-.07614-3.7059 4.029943-3.875 6.5zM314.24715 27.249996c.20059 2.929974-3.62492 7.50094-4.5 7.5-.92397-.000992-3.94994-2.167506-3.875-6 .0544-2.781167 3.09851-7.913481 4.5-8 1.23336-.07614 3.7059 4.029943 3.875 6.5zM285.5 29.624996c-.099-3.59117-2.22904-7.742058-3.29849-7.82886-3.32942-.27023-6.23807 8.989324-6.32651 10.20386-.1612 2.213806.86217 14.441482 5.82072 6.712281.95209-1.484083 3.91274-5.153256 3.80428-9.087281zM314.43496 29.624996c.099-3.59117 2.22904-7.742058 3.29849-7.82886 3.32942-.27023 6.14625 8.999524 6.32651 10.20386.33798 2.258-2.54697 7.463547-3.78779 7.507776-1.76211.06281-5.94567-5.948751-5.83721-9.882776z" style="fill:#fcd116;fill-opacity:1;stroke:#d81e05;stroke-width:1.500006;stroke-linecap:butt;stroke-linejoin:miter;stroke-miterlimit:4;stroke-opacity:1;stroke-dasharray:none" transform="rotate(-60 481.48374845 241.85157845) scale(1.66666)"/>
        <path d="M280.01224 42.624997c.003-1.719093.98205-5.286153 1.41856-7.076337.89446-3.668294 3.61422-6.350047 4.58353-6.376054 1.25071-.03356 3.76838 3.66445 4.82422 7.422373 1.05584 3.757924-.22138 6.933477-1.07631 7.530018-2.10113 1.466087-3.66769 2.024021-5.47682 1.651943-2.35174-.483675-4.27715-.843711-4.27318-3.151943z" style="fill:#fcd116;fill-opacity:1;stroke:#d81e05;stroke-width:1.500006;stroke-linecap:butt;stroke-linejoin:miter;stroke-miterlimit:4;stroke-opacity:1;stroke-dasharray:none" transform="rotate(-60 481.48374845 241.85157845) scale(1.66666)"/>
        <path d="M281 41.249996c-1.46937-2.857712-4.0934-7.96411-5.75-8-.7835-.01698-3.17944 6.59418-2.54556 11.1931.60511 4.390137 1.18374 7.320074 2.79556 8.9319 1.31747 1.317475 5.25943.420099 6.29169-1.082413.88112-1.282511 1.23809-7.094946-.79169-11.042587z" style="fill:#fcd116;fill-opacity:1;stroke:#d81e05;stroke-width:1.500006;stroke-linecap:butt;stroke-linejoin:miter;stroke-miterlimit:4;stroke-opacity:1;stroke-dasharray:none" transform="rotate(-60 481.48374845 241.85157845) scale(1.66666)"/>
        <path d="M275.70153 62.624996c-.67745-.218446-2.12229-1.200737-3-3.125-2.78589-6.107686-.46737-12.46167-.46737-12.46167 1.56622-.488925 3.79358 3.101502 6.46737 7.46167 1.46466 2.388433 3.83629 6.22509 3.71458 7.446536-.1217 1.221446-1.23674 1.70268-1.74543 2.130267-1.01737.855174-4.23279-.54442-4.96915-1.451803zM319.875 42.624996c-.003-1.719093-.91621-5.105357-1.41856-7.076336-.91775-3.600797-3.61422-6.350047-4.58353-6.376054-1.25071-.03356-3.76838 3.66445-4.82422 7.422373-1.05584 3.757923.22138 6.933476 1.07631 7.530017 2.10113 1.466087 3.66769 2.024021 5.47682 1.651943 2.35174-.483675 4.27715-.843711 4.27318-3.151943zM300 40.124996c.41412-4.109615-.5668-6.191804-2.75-9.125-.62484-.839496-1.55985-2.31576-2.625-2.125-3.04789.545853-8.31506 16.184933-7.25 17.25 1.40529 1.405285 4.18925 3.878938 6.25 3.5 2.42845-.446551 6.20306-8.101267 6.375-9.5z" style="fill:#fcd116;fill-opacity:1;stroke:#d81e05;stroke-width:1.500006;stroke-linecap:butt;stroke-linejoin:miter;stroke-miterlimit:4;stroke-opacity:1;stroke-dasharray:none" transform="rotate(-60 481.48374845 241.85157845) scale(1.66666)"/>
        <path d="M300.05024 40.124996c-.41412-4.109615.5668-6.191804 2.75-9.125.62484-.839496 1.58883-2.436917 2.625-2.125 3.26664.983353 8.31506 16.184933 7.25 17.25-1.40529 1.405285-4.18925 3.878938-6.25 3.5-2.42845-.446551-6.20306-8.101267-6.375-9.5zM318.79627 41.249996c1.46937-2.857712 4.0934-7.96411 5.75-8 .7835-.01698 3.17944 6.59418 2.54556 11.1931-.60511 4.390137-1.18374 7.320074-2.79556 8.9319-1.31747 1.317475-5.25943.420099-6.29169-1.082413-.88113-1.282511-1.2381-7.094946.79169-11.042587z" style="fill:#fcd116;fill-opacity:1;stroke:#d81e05;stroke-width:1.500006;stroke-linecap:butt;stroke-linejoin:miter;stroke-miterlimit:4;stroke-opacity:1;stroke-dasharray:none" transform="rotate(-60 481.48374845 241.85157845) scale(1.66666)"/>
        <path d="M323.80697 62.624996c.67745-.218446 2.12229-1.200737 3-3.125 2.78589-6.107686.46737-12.46167.46737-12.46167-1.56622-.488925-3.79358 3.101502-6.46737 7.46167-1.46466 2.388433-3.83629 6.22509-3.71458 7.446536.1217 1.221446 1.23674 1.70268 1.74543 2.130267 1.01737.855174 4.23279-.54442 4.96915-1.451803zM300.05785 39.016422c-2.10357-.01103-5.92012 5.880083-6.67328 9.404285-.25942 1.21388-.38955 3.527182-.22268 5.094338.16309 1.531682 4.82254.91222 6.55758.954174 1.63893.03963 7.37017.480033 7.41334-1.323399.0244-1.019512-.22958-4.330875-.42375-5.025823-1.05237-3.766446-4.29162-9.091202-6.65121-9.103575z" style="fill:#fcd116;fill-opacity:1;stroke:#d81e05;stroke-width:1.500006;stroke-linecap:butt;stroke-linejoin:miter;stroke-miterlimit:4;stroke-opacity:1;stroke-dasharray:none" transform="rotate(-60 481.48374845 241.85157845) scale(1.66666)"/>
        <path d="M295.5798 55.395481c.33689-3.435737-10.19223-14.862224-11.625-14.75-1.59057.124584-5.75715 7.742849-5.25 11.875.44485 3.624545 2.09885 10.39523 5.61151 11.546312 3.51266 1.151081 10.96112-2.742918 11.26349-8.671312zM304.2952 55.395481c-.33689-3.435737 10.19223-14.862224 11.625-14.75 1.59057.124584 5.75715 7.742849 5.25 11.875-.44485 3.624545-2.09885 10.39523-5.61151 11.546312-3.51266 1.151081-8.88399-3.317442-11.26349-8.671312z" style="fill:#fcd116;fill-opacity:1;stroke:#d81e05;stroke-width:1.500006;stroke-linecap:butt;stroke-linejoin:miter;stroke-miterlimit:4;stroke-opacity:1;stroke-dasharray:none" transform="rotate(-60 481.48374845 241.85157845) scale(1.66666)"/>
        <path d="M284.375 51.999997c2.02472-.315862 12.40775 10.214917 11.25 15-1.31349 5.428756-3.59641 8.633718-5.58761 8.416121-1.50266-.16421-6.172-7.202749-7.34989-8.978621-3.66306-5.522681.38083-14.233656 1.6875-14.4375zM315.45218 51.999997c-2.02472-.315862-12.40775 10.214917-11.25 15 1.31349 5.428756 3.59641 8.633718 5.58761 8.416121 1.50266-.16421 6.172-7.202749 7.34989-8.978621 3.66306-5.522681-.38083-14.233656-1.6875-14.4375z" style="fill:#fcd116;fill-opacity:1;stroke:#d81e05;stroke-width:1.500006;stroke-linecap:butt;stroke-linejoin:miter;stroke-miterlimit:4;stroke-opacity:1;stroke-dasharray:none" transform="rotate(-60 481.48374845 241.85157845) scale(1.66666)"/>
        <path d="M300.35204 50.099199c-2.61232-.0051-7.07866 8.053822-6.92328 11.029285.16229 3.107533-.7208 11.309681 6.5849 11.298511 7.57031-.01157 6.80027-8.763619 6.86459-11.599221.0693-3.056892-4.04612-10.72373-6.52621-10.728575zM316.62112 73.749997c2.06699.906043 4.14705-.479655 5.375-1.875 5.795-6.585 5.51489-12.118709 4.875-12.625001-.89165-.705491-4.75456 1.437628-5.875 2.375001-2.17851 1.822569-9.0681 11.059763-9.95265 13.488342-.88454 2.42858 4.23597-1.951455 5.57765-1.363342zM283.75 73.749996c-2.06699.906043-4.14705-.479655-5.375-1.875-5.795-6.585-5.51489-12.118709-4.875-12.625.89165-.705491 4.75456 1.437627 5.875 2.375 2.17851 1.822569 9.0681 11.559763 9.95265 13.988342.88454 2.42858-4.23597-2.451455-5.57765-1.863342z" style="fill:#fcd116;fill-opacity:1;stroke:#d81e05;stroke-width:1.500006;stroke-linecap:butt;stroke-linejoin:miter;stroke-miterlimit:4;stroke-opacity:1;stroke-dasharray:none" transform="rotate(-60 481.48374845 241.85157845) scale(1.66666)"/>
        <path d="M280.4491 73.534879c2.16051 5.125087 9.50493 13.463975 19.94544 13.301146 10.20977-.15923 19.42399-13.227922 19.42399-13.227922-2.34022-1.95135-6.72326-1.223921-8.06853-.233107-.94731.697714-2.47034 1.530588-3.75 5.625004.68306-2.375815 2.30973-16.886105.375-17.250004-1.04019-.195647-5.57062 3.80546-6.75 7.109835C301.5559 69.053282 300 72 300 72s-1.4284-2.731813-1.625-3.125004c-1.75107-2.951573-5.66425-6.942121-6.625-6.75-1.6213.324211-1.82036 9.195372.25 16.875004-.47018-1.478036-1.80711-4.620651-3-5.500004-1.07747-.794271-5.81337-2.78348-8.5509.03488z" style="fill:#fcd116;fill-opacity:1;stroke:#d81e05;stroke-width:1.500006;stroke-linecap:round;stroke-linejoin:miter;stroke-miterlimit:4;stroke-opacity:1;stroke-dasharray:none" transform="rotate(-60 481.48374845 241.85157845) scale(1.66666)"/>
      </g>
      <g style="fill:#fcd116;fill-opacity:1;stroke:#d81e05;stroke-opacity:1;stroke-width:1.500006;stroke-miterlimit:4;stroke-dasharray:none">
        <path d="M295.12326 9.8331019c-1.72853-.01617-5.57866 4.9288221-5.42328 7.9042851.16229 3.107534 3.73024 8.152125 5.3349 8.142262.69147-.0042 2.07904-1.976405 3.30178-3.458197 1.22274-1.481793 1.64723-3.628561 1.56151-5.044134-.0979-1.616834.29295-2.294833-.7635-3.874233-1.09913-1.643225-3.20662-3.6624546-4.01141-3.6699831zM304.92801 9.8772959c1.72853-.01617 5.57866 4.9288221 5.42328 7.9042851-.16229 3.107535-4.07399 9.683376-5.67865 9.673513-.69147-.0042-1.73529-3.507655-2.95803-4.989447-1.22274-1.481793-1.64723-3.628562-1.56151-5.044135.0979-1.616834-.29295-2.294833.7635-3.874233 1.09913-1.643225 3.20662-3.6624546 4.01141-3.6699831z" style="fill:#fcd116;fill-opacity:1;stroke:#d81e05;stroke-width:1.500006;stroke-linecap:butt;stroke-linejoin:miter;stroke-miterlimit:4;stroke-opacity:1;stroke-dasharray:none" transform="rotate(-79.9999999 529.34080387 286.80730373) scale(1.66666)"/>
        <path d="M299.99005 18.716121c-1.72853-.01617-5.57866 4.928822-5.42328 7.904285.16229 3.107533 3.81863 9.694859 5.42329 9.684996 1.38295-.0085 5.46188-6.900104 5.5262-9.735706.0693-3.056892-3.91664-7.838518-5.52621-7.853575zM287.25 12.249996c-1.65673-.05873-5.54157 6.712228-5.32575 9.319167.38177 4.611529 4.46211 7.05015 6.32575 7.055833 2.80712.0086 3.94815-4.448714 4.03905-8.07844.15346-6.127619-3.42696-8.239416-5.03905-8.29656zM312.60472 12.312679c1.65673-.05873 5.54157 6.712228 5.32575 9.319168-.38177 4.611529-4.21211 6.80015-6.07575 6.805833-2.80712.0086-4.19815-4.198714-4.28905-7.828441-.15346-6.127619 3.42696-8.239416 5.03905-8.29656z" style="fill:#fcd116;fill-opacity:1;stroke:#d81e05;stroke-width:1.500006;stroke-linecap:butt;stroke-linejoin:miter;stroke-miterlimit:4;stroke-opacity:1;stroke-dasharray:none" transform="rotate(-79.9999999 529.34080387 286.80730373) scale(1.66666)"/>
        <path d="M286.25 27.249996c-.20059 2.929974 3.62492 7.50094 4.5 7.5.92397-.000992 3.82494-2.667506 3.75-6.5-.0544-2.781167-2.97351-7.413481-4.375-7.5-1.23336-.07614-3.7059 4.029943-3.875 6.5zM314.24715 27.249996c.20059 2.929974-3.62492 7.50094-4.5 7.5-.92397-.000992-3.94994-2.167506-3.875-6 .0544-2.781167 3.09851-7.913481 4.5-8 1.23336-.07614 3.7059 4.029943 3.875 6.5zM285.5 29.624996c-.099-3.59117-2.22904-7.742058-3.29849-7.82886-3.32942-.27023-6.23807 8.989324-6.32651 10.20386-.1612 2.213806.86217 14.441482 5.82072 6.712281.95209-1.484083 3.91274-5.153256 3.80428-9.087281zM314.43496 29.624996c.099-3.59117 2.22904-7.742058 3.29849-7.82886 3.32942-.27023 6.14625 8.999524 6.32651 10.20386.33798 2.258-2.54697 7.463547-3.78779 7.507776-1.76211.06281-5.94567-5.948751-5.83721-9.882776z" style="fill:#fcd116;fill-opacity:1;stroke:#d81e05;stroke-width:1.500006;stroke-linecap:butt;stroke-linejoin:miter;stroke-miterlimit:4;stroke-opacity:1;stroke-dasharray:none" transform="rotate(-79.9999999 529.34080387 286.80730373) scale(1.66666)"/>
        <path d="M280.01224 42.624997c.003-1.719093.98205-5.286153 1.41856-7.076337.89446-3.668294 3.61422-6.350047 4.58353-6.376054 1.25071-.03356 3.76838 3.66445 4.82422 7.422373 1.05584 3.757924-.22138 6.933477-1.07631 7.530018-2.10113 1.466087-3.66769 2.024021-5.47682 1.651943-2.35174-.483675-4.27715-.843711-4.27318-3.151943z" style="fill:#fcd116;fill-opacity:1;stroke:#d81e05;stroke-width:1.500006;stroke-linecap:butt;stroke-linejoin:miter;stroke-miterlimit:4;stroke-opacity:1;stroke-dasharray:none" transform="rotate(-79.9999999 529.34080387 286.80730373) scale(1.66666)"/>
        <path d="M281 41.249996c-1.46937-2.857712-4.0934-7.96411-5.75-8-.7835-.01698-3.17944 6.59418-2.54556 11.1931.60511 4.390137 1.18374 7.320074 2.79556 8.9319 1.31747 1.317475 5.25943.420099 6.29169-1.082413.88112-1.282511 1.23809-7.094946-.79169-11.042587z" style="fill:#fcd116;fill-opacity:1;stroke:#d81e05;stroke-width:1.500006;stroke-linecap:butt;stroke-linejoin:miter;stroke-miterlimit:4;stroke-opacity:1;stroke-dasharray:none" transform="rotate(-79.9999999 529.34080387 286.80730373) scale(1.66666)"/>
        <path d="M275.70153 62.624996c-.67745-.218446-2.12229-1.200737-3-3.125-2.78589-6.107686-.46737-12.46167-.46737-12.46167 1.56622-.488925 3.79358 3.101502 6.46737 7.46167 1.46466 2.388433 3.83629 6.22509 3.71458 7.446536-.1217 1.221446-1.23674 1.70268-1.74543 2.130267-1.01737.855174-4.23279-.54442-4.96915-1.451803zM319.875 42.624996c-.003-1.719093-.91621-5.105357-1.41856-7.076336-.91775-3.600797-3.61422-6.350047-4.58353-6.376054-1.25071-.03356-3.76838 3.66445-4.82422 7.422373-1.05584 3.757923.22138 6.933476 1.07631 7.530017 2.10113 1.466087 3.66769 2.024021 5.47682 1.651943 2.35174-.483675 4.27715-.843711 4.27318-3.151943zM300 40.124996c.41412-4.109615-.5668-6.191804-2.75-9.125-.62484-.839496-1.55985-2.31576-2.625-2.125-3.04789.545853-8.31506 16.184933-7.25 17.25 1.40529 1.405285 4.18925 3.878938 6.25 3.5 2.42845-.446551 6.20306-8.101267 6.375-9.5z" style="fill:#fcd116;fill-opacity:1;stroke:#d81e05;stroke-width:1.500006;stroke-linecap:butt;stroke-linejoin:miter;stroke-miterlimit:4;stroke-opacity:1;stroke-dasharray:none" transform="rotate(-79.9999999 529.34080387 286.80730373) scale(1.66666)"/>
        <path d="M300.05024 40.124996c-.41412-4.109615.5668-6.191804 2.75-9.125.62484-.839496 1.58883-2.436917 2.625-2.125 3.26664.983353 8.31506 16.184933 7.25 17.25-1.40529 1.405285-4.18925 3.878938-6.25 3.5-2.42845-.446551-6.20306-8.101267-6.375-9.5zM318.79627 41.249996c1.46937-2.857712 4.0934-7.96411 5.75-8 .7835-.01698 3.17944 6.59418 2.54556 11.1931-.60511 4.390137-1.18374 7.320074-2.79556 8.9319-1.31747 1.317475-5.25943.420099-6.29169-1.082413-.88113-1.282511-1.2381-7.094946.79169-11.042587z" style="fill:#fcd116;fill-opacity:1;stroke:#d81e05;stroke-width:1.500006;stroke-linecap:butt;stroke-linejoin:miter;stroke-miterlimit:4;stroke-opacity:1;stroke-dasharray:none" transform="rotate(-79.9999999 529.34080387 286.80730373) scale(1.66666)"/>
        <path d="M323.80697 62.624996c.67745-.218446 2.12229-1.200737 3-3.125 2.78589-6.107686.46737-12.46167.46737-12.46167-1.56622-.488925-3.79358 3.101502-6.46737 7.46167-1.46466 2.388433-3.83629 6.22509-3.71458 7.446536.1217 1.221446 1.23674 1.70268 1.74543 2.130267 1.01737.855174 4.23279-.54442 4.96915-1.451803zM300.05785 39.016422c-2.10357-.01103-5.92012 5.880083-6.67328 9.404285-.25942 1.21388-.38955 3.527182-.22268 5.094338.16309 1.531682 4.82254.91222 6.55758.954174 1.63893.03963 7.37017.480033 7.41334-1.323399.0244-1.019512-.22958-4.330875-.42375-5.025823-1.05237-3.766446-4.29162-9.091202-6.65121-9.103575z" style="fill:#fcd116;fill-opacity:1;stroke:#d81e05;stroke-width:1.500006;stroke-linecap:butt;stroke-linejoin:miter;stroke-miterlimit:4;stroke-opacity:1;stroke-dasharray:none" transform="rotate(-79.9999999 529.34080387 286.80730373) scale(1.66666)"/>
        <path d="M295.5798 55.395481c.33689-3.435737-10.19223-14.862224-11.625-14.75-1.59057.124584-5.75715 7.742849-5.25 11.875.44485 3.624545 2.09885 10.39523 5.61151 11.546312 3.51266 1.151081 10.96112-2.742918 11.26349-8.671312zM304.2952 55.395481c-.33689-3.435737 10.19223-14.862224 11.625-14.75 1.59057.124584 5.75715 7.742849 5.25 11.875-.44485 3.624545-2.09885 10.39523-5.61151 11.546312-3.51266 1.151081-8.88399-3.317442-11.26349-8.671312z" style="fill:#fcd116;fill-opacity:1;stroke:#d81e05;stroke-width:1.500006;stroke-linecap:butt;stroke-linejoin:miter;stroke-miterlimit:4;stroke-opacity:1;stroke-dasharray:none" transform="rotate(-79.9999999 529.34080387 286.80730373) scale(1.66666)"/>
        <path d="M284.375 51.999997c2.02472-.315862 12.40775 10.214917 11.25 15-1.31349 5.428756-3.59641 8.633718-5.58761 8.416121-1.50266-.16421-6.172-7.202749-7.34989-8.978621-3.66306-5.522681.38083-14.233656 1.6875-14.4375zM315.45218 51.999997c-2.02472-.315862-12.40775 10.214917-11.25 15 1.31349 5.428756 3.59641 8.633718 5.58761 8.416121 1.50266-.16421 6.172-7.202749 7.34989-8.978621 3.66306-5.522681-.38083-14.233656-1.6875-14.4375z" style="fill:#fcd116;fill-opacity:1;stroke:#d81e05;stroke-width:1.500006;stroke-linecap:butt;stroke-linejoin:miter;stroke-miterlimit:4;stroke-opacity:1;stroke-dasharray:none" transform="rotate(-79.9999999 529.34080387 286.80730373) scale(1.66666)"/>
        <path d="M300.35204 50.099199c-2.61232-.0051-7.07866 8.053822-6.92328 11.029285.16229 3.107533-.7208 11.309681 6.5849 11.298511 7.57031-.01157 6.80027-8.763619 6.86459-11.599221.0693-3.056892-4.04612-10.72373-6.52621-10.728575zM316.62112 73.749997c2.06699.906043 4.14705-.479655 5.375-1.875 5.795-6.585 5.51489-12.118709 4.875-12.625001-.89165-.705491-4.75456 1.437628-5.875 2.375001-2.17851 1.822569-9.0681 11.059763-9.95265 13.488342-.88454 2.42858 4.23597-1.951455 5.57765-1.363342zM283.75 73.749996c-2.06699.906043-4.14705-.479655-5.375-1.875-5.795-6.585-5.51489-12.118709-4.875-12.625.89165-.705491 4.75456 1.437627 5.875 2.375 2.17851 1.822569 9.0681 11.559763 9.95265 13.988342.88454 2.42858-4.23597-2.451455-5.57765-1.863342z" style="fill:#fcd116;fill-opacity:1;stroke:#d81e05;stroke-width:1.500006;stroke-linecap:butt;stroke-linejoin:miter;stroke-miterlimit:4;stroke-opacity:1;stroke-dasharray:none" transform="rotate(-79.9999999 529.34080387 286.80730373) scale(1.66666)"/>
        <path d="M280.4491 73.534879c2.16051 5.125087 9.50493 13.463975 19.94544 13.301146 10.20977-.15923 19.42399-13.227922 19.42399-13.227922-2.34022-1.95135-6.72326-1.223921-8.06853-.233107-.94731.697714-2.47034 1.530588-3.75 5.625004.68306-2.375815 2.30973-16.886105.375-17.250004-1.04019-.195647-5.57062 3.80546-6.75 7.109835C301.5559 69.053282 300 72 300 72s-1.4284-2.731813-1.625-3.125004c-1.75107-2.951573-5.66425-6.942121-6.625-6.75-1.6213.324211-1.82036 9.195372.25 16.875004-.47018-1.478036-1.80711-4.620651-3-5.500004-1.07747-.794271-5.81337-2.78348-8.5509.03488z" style="fill:#fcd116;fill-opacity:1;stroke:#d81e05;stroke-width:1.500006;stroke-linecap:round;stroke-linejoin:miter;stroke-miterlimit:4;stroke-opacity:1;stroke-dasharray:none" transform="rotate(-79.9999999 529.34080387 286.80730373) scale(1.66666)"/>
      </g>
      <g style="fill:#fcd116;fill-opacity:1;stroke:#d81e05;stroke-opacity:1;stroke-width:1.76471295;stroke-miterlimit:4;stroke-dasharray:none">
        <path d="M295.12326 9.8331019c-1.72853-.01617-5.57866 4.9288221-5.42328 7.9042851.16229 3.107534 3.73024 8.152125 5.3349 8.142262.69147-.0042 2.07904-1.976405 3.30178-3.458197 1.22274-1.481793 1.64723-3.628561 1.56151-5.044134-.0979-1.616834.29295-2.294833-.7635-3.874233-1.09913-1.643225-3.20662-3.6624546-4.01141-3.6699831zM304.92801 9.8772959c1.72853-.01617 5.57866 4.9288221 5.42328 7.9042851-.16229 3.107535-4.07399 9.683376-5.67865 9.673513-.69147-.0042-1.73529-3.507655-2.95803-4.989447-1.22274-1.481793-1.64723-3.628562-1.56151-5.044135.0979-1.616834-.29295-2.294833.7635-3.874233 1.09913-1.643225 3.20662-3.6624546 4.01141-3.6699831z" style="fill:#fcd116;fill-opacity:1;stroke:#d81e05;stroke-width:1.76471295;stroke-linecap:butt;stroke-linejoin:miter;stroke-miterlimit:4;stroke-opacity:1;stroke-dasharray:none" transform="rotate(-105.0000103 531.53020704 264.68943283) scale(1.41666)"/>
        <path d="M299.99005 18.716121c-1.72853-.01617-5.57866 4.928822-5.42328 7.904285.16229 3.107533 3.81863 9.694859 5.42329 9.684996 1.38295-.0085 5.46188-6.900104 5.5262-9.735706.0693-3.056892-3.91664-7.838518-5.52621-7.853575zM287.25 12.249996c-1.65673-.05873-5.54157 6.712228-5.32575 9.319167.38177 4.611529 4.46211 7.05015 6.32575 7.055833 2.80712.0086 3.94815-4.448714 4.03905-8.07844.15346-6.127619-3.42696-8.239416-5.03905-8.29656zM312.60472 12.312679c1.65673-.05873 5.54157 6.712228 5.32575 9.319168-.38177 4.611529-4.21211 6.80015-6.07575 6.805833-2.80712.0086-4.19815-4.198714-4.28905-7.828441-.15346-6.127619 3.42696-8.239416 5.03905-8.29656z" style="fill:#fcd116;fill-opacity:1;stroke:#d81e05;stroke-width:1.76471295;stroke-linecap:butt;stroke-linejoin:miter;stroke-miterlimit:4;stroke-opacity:1;stroke-dasharray:none" transform="rotate(-105.0000103 531.53020704 264.68943283) scale(1.41666)"/>
        <path d="M286.25 27.249996c-.20059 2.929974 3.62492 7.50094 4.5 7.5.92397-.000992 3.82494-2.667506 3.75-6.5-.0544-2.781167-2.97351-7.413481-4.375-7.5-1.23336-.07614-3.7059 4.029943-3.875 6.5zM314.24715 27.249996c.20059 2.929974-3.62492 7.50094-4.5 7.5-.92397-.000992-3.94994-2.167506-3.875-6 .0544-2.781167 3.09851-7.913481 4.5-8 1.23336-.07614 3.7059 4.029943 3.875 6.5zM285.5 29.624996c-.099-3.59117-2.22904-7.742058-3.29849-7.82886-3.32942-.27023-6.23807 8.989324-6.32651 10.20386-.1612 2.213806.86217 14.441482 5.82072 6.712281.95209-1.484083 3.91274-5.153256 3.80428-9.087281zM314.43496 29.624996c.099-3.59117 2.22904-7.742058 3.29849-7.82886 3.32942-.27023 6.14625 8.999524 6.32651 10.20386.33798 2.258-2.54697 7.463547-3.78779 7.507776-1.76211.06281-5.94567-5.948751-5.83721-9.882776z" style="fill:#fcd116;fill-opacity:1;stroke:#d81e05;stroke-width:1.76471295;stroke-linecap:butt;stroke-linejoin:miter;stroke-miterlimit:4;stroke-opacity:1;stroke-dasharray:none" transform="rotate(-105.0000103 531.53020704 264.68943283) scale(1.41666)"/>
        <path d="M280.01224 42.624997c.003-1.719093.98205-5.286153 1.41856-7.076337.89446-3.668294 3.61422-6.350047 4.58353-6.376054 1.25071-.03356 3.76838 3.66445 4.82422 7.422373 1.05584 3.757924-.22138 6.933477-1.07631 7.530018-2.10113 1.466087-3.66769 2.024021-5.47682 1.651943-2.35174-.483675-4.27715-.843711-4.27318-3.151943z" style="fill:#fcd116;fill-opacity:1;stroke:#d81e05;stroke-width:1.76471295;stroke-linecap:butt;stroke-linejoin:miter;stroke-miterlimit:4;stroke-opacity:1;stroke-dasharray:none" transform="rotate(-105.0000103 531.53020704 264.68943283) scale(1.41666)"/>
        <path d="M281 41.249996c-1.46937-2.857712-4.0934-7.96411-5.75-8-.7835-.01698-3.17944 6.59418-2.54556 11.1931.60511 4.390137 1.18374 7.320074 2.79556 8.9319 1.31747 1.317475 5.25943.420099 6.29169-1.082413.88112-1.282511 1.23809-7.094946-.79169-11.042587z" style="fill:#fcd116;fill-opacity:1;stroke:#d81e05;stroke-width:1.76471295;stroke-linecap:butt;stroke-linejoin:miter;stroke-miterlimit:4;stroke-opacity:1;stroke-dasharray:none" transform="rotate(-105.0000103 531.53020704 264.68943283) scale(1.41666)"/>
        <path d="M275.70153 62.624996c-.67745-.218446-2.12229-1.200737-3-3.125-2.78589-6.107686-.46737-12.46167-.46737-12.46167 1.56622-.488925 3.79358 3.101502 6.46737 7.46167 1.46466 2.388433 3.83629 6.22509 3.71458 7.446536-.1217 1.221446-1.23674 1.70268-1.74543 2.130267-1.01737.855174-4.23279-.54442-4.96915-1.451803zM319.875 42.624996c-.003-1.719093-.91621-5.105357-1.41856-7.076336-.91775-3.600797-3.61422-6.350047-4.58353-6.376054-1.25071-.03356-3.76838 3.66445-4.82422 7.422373-1.05584 3.757923.22138 6.933476 1.07631 7.530017 2.10113 1.466087 3.66769 2.024021 5.47682 1.651943 2.35174-.483675 4.27715-.843711 4.27318-3.151943zM300 40.124996c.41412-4.109615-.5668-6.191804-2.75-9.125-.62484-.839496-1.55985-2.31576-2.625-2.125-3.04789.545853-8.31506 16.184933-7.25 17.25 1.40529 1.405285 4.18925 3.878938 6.25 3.5 2.42845-.446551 6.20306-8.101267 6.375-9.5z" style="fill:#fcd116;fill-opacity:1;stroke:#d81e05;stroke-width:1.76471295;stroke-linecap:butt;stroke-linejoin:miter;stroke-miterlimit:4;stroke-opacity:1;stroke-dasharray:none" transform="rotate(-105.0000103 531.53020704 264.68943283) scale(1.41666)"/>
        <path d="M300.05024 40.124996c-.41412-4.109615.5668-6.191804 2.75-9.125.62484-.839496 1.58883-2.436917 2.625-2.125 3.26664.983353 8.31506 16.184933 7.25 17.25-1.40529 1.405285-4.18925 3.878938-6.25 3.5-2.42845-.446551-6.20306-8.101267-6.375-9.5zM318.79627 41.249996c1.46937-2.857712 4.0934-7.96411 5.75-8 .7835-.01698 3.17944 6.59418 2.54556 11.1931-.60511 4.390137-1.18374 7.320074-2.79556 8.9319-1.31747 1.317475-5.25943.420099-6.29169-1.082413-.88113-1.282511-1.2381-7.094946.79169-11.042587z" style="fill:#fcd116;fill-opacity:1;stroke:#d81e05;stroke-width:1.76471295;stroke-linecap:butt;stroke-linejoin:miter;stroke-miterlimit:4;stroke-opacity:1;stroke-dasharray:none" transform="rotate(-105.0000103 531.53020704 264.68943283) scale(1.41666)"/>
        <path d="M323.80697 62.624996c.67745-.218446 2.12229-1.200737 3-3.125 2.78589-6.107686.46737-12.46167.46737-12.46167-1.56622-.488925-3.79358 3.101502-6.46737 7.46167-1.46466 2.388433-3.83629 6.22509-3.71458 7.446536.1217 1.221446 1.23674 1.70268 1.74543 2.130267 1.01737.855174 4.23279-.54442 4.96915-1.451803zM300.05785 39.016422c-2.10357-.01103-5.92012 5.880083-6.67328 9.404285-.25942 1.21388-.38955 3.527182-.22268 5.094338.16309 1.531682 4.82254.91222 6.55758.954174 1.63893.03963 7.37017.480033 7.41334-1.323399.0244-1.019512-.22958-4.330875-.42375-5.025823-1.05237-3.766446-4.29162-9.091202-6.65121-9.103575z" style="fill:#fcd116;fill-opacity:1;stroke:#d81e05;stroke-width:1.76471295;stroke-linecap:butt;stroke-linejoin:miter;stroke-miterlimit:4;stroke-opacity:1;stroke-dasharray:none" transform="rotate(-105.0000103 531.53020704 264.68943283) scale(1.41666)"/>
        <path d="M295.5798 55.395481c.33689-3.435737-10.19223-14.862224-11.625-14.75-1.59057.124584-5.75715 7.742849-5.25 11.875.44485 3.624545 2.09885 10.39523 5.61151 11.546312 3.51266 1.151081 10.96112-2.742918 11.26349-8.671312zM304.2952 55.395481c-.33689-3.435737 10.19223-14.862224 11.625-14.75 1.59057.124584 5.75715 7.742849 5.25 11.875-.44485 3.624545-2.09885 10.39523-5.61151 11.546312-3.51266 1.151081-8.88399-3.317442-11.26349-8.671312z" style="fill:#fcd116;fill-opacity:1;stroke:#d81e05;stroke-width:1.76471295;stroke-linecap:butt;stroke-linejoin:miter;stroke-miterlimit:4;stroke-opacity:1;stroke-dasharray:none" transform="rotate(-105.0000103 531.53020704 264.68943283) scale(1.41666)"/>
        <path d="M284.375 51.999997c2.02472-.315862 12.40775 10.214917 11.25 15-1.31349 5.428756-3.59641 8.633718-5.58761 8.416121-1.50266-.16421-6.172-7.202749-7.34989-8.978621-3.66306-5.522681.38083-14.233656 1.6875-14.4375zM315.45218 51.999997c-2.02472-.315862-12.40775 10.214917-11.25 15 1.31349 5.428756 3.59641 8.633718 5.58761 8.416121 1.50266-.16421 6.172-7.202749 7.34989-8.978621 3.66306-5.522681-.38083-14.233656-1.6875-14.4375z" style="fill:#fcd116;fill-opacity:1;stroke:#d81e05;stroke-width:1.76471295;stroke-linecap:butt;stroke-linejoin:miter;stroke-miterlimit:4;stroke-opacity:1;stroke-dasharray:none" transform="rotate(-105.0000103 531.53020704 264.68943283) scale(1.41666)"/>
        <path d="M300.35204 50.099199c-2.61232-.0051-7.07866 8.053822-6.92328 11.029285.16229 3.107533-.7208 11.309681 6.5849 11.298511 7.57031-.01157 6.80027-8.763619 6.86459-11.599221.0693-3.056892-4.04612-10.72373-6.52621-10.728575zM316.62112 73.749997c2.06699.906043 4.14705-.479655 5.375-1.875 5.795-6.585 5.51489-12.118709 4.875-12.625001-.89165-.705491-4.75456 1.437628-5.875 2.375001-2.17851 1.822569-9.0681 11.059763-9.95265 13.488342-.88454 2.42858 4.23597-1.951455 5.57765-1.363342zM283.75 73.749996c-2.06699.906043-4.14705-.479655-5.375-1.875-5.795-6.585-5.51489-12.118709-4.875-12.625.89165-.705491 4.75456 1.437627 5.875 2.375 2.17851 1.822569 9.0681 11.559763 9.95265 13.988342.88454 2.42858-4.23597-2.451455-5.57765-1.863342z" style="fill:#fcd116;fill-opacity:1;stroke:#d81e05;stroke-width:1.76471295;stroke-linecap:butt;stroke-linejoin:miter;stroke-miterlimit:4;stroke-opacity:1;stroke-dasharray:none" transform="rotate(-105.0000103 531.53020704 264.68943283) scale(1.41666)"/>
        <path d="M280.4491 73.534879c2.16051 5.125087 9.50493 13.463975 19.94544 13.301146 10.20977-.15923 19.42399-13.227922 19.42399-13.227922-2.34022-1.95135-6.72326-1.223921-8.06853-.233107-.94731.697714-2.47034 1.530588-3.75 5.625004.68306-2.375815 2.30973-16.886105.375-17.250004-1.04019-.195647-5.57062 3.80546-6.75 7.109835C301.5559 69.053282 300 72 300 72s-1.4284-2.731813-1.625-3.125004c-1.75107-2.951573-5.66425-6.942121-6.625-6.75-1.6213.324211-1.82036 9.195372.25 16.875004-.47018-1.478036-1.80711-4.620651-3-5.500004-1.07747-.794271-5.81337-2.78348-8.5509.03488z" style="fill:#fcd116;fill-opacity:1;stroke:#d81e05;stroke-width:1.76471295;stroke-linecap:round;stroke-linejoin:miter;stroke-miterlimit:4;stroke-opacity:1;stroke-dasharray:none" transform="rotate(-105.0000103 531.53020704 264.68943283) scale(1.41666)"/>
      </g>
    </g>
    <g style="fill:#fcd116;fill-opacity:1;stroke:#d81e05;stroke-opacity:1;stroke-width:1.500006;stroke-miterlimit:4;stroke-dasharray:none">
      <g style="fill:#fcd116;fill-opacity:1;stroke:#d81e05;stroke-opacity:1;stroke-width:1.500006;stroke-miterlimit:4;stroke-dasharray:none">
        <path d="M295.12326 9.8331019c-1.72853-.01617-5.57866 4.9288221-5.42328 7.9042851.16229 3.107534 3.73024 8.152125 5.3349 8.142262.69147-.0042 2.07904-1.976405 3.30178-3.458197 1.22274-1.481793 1.64723-3.628561 1.56151-5.044134-.0979-1.616834.29295-2.294833-.7635-3.874233-1.09913-1.643225-3.20662-3.6624546-4.01141-3.6699831zM304.92801 9.8772959c1.72853-.01617 5.57866 4.9288221 5.42328 7.9042851-.16229 3.107535-4.07399 9.683376-5.67865 9.673513-.69147-.0042-1.73529-3.507655-2.95803-4.989447-1.22274-1.481793-1.64723-3.628562-1.56151-5.044135.0979-1.616834-.29295-2.294833.7635-3.874233 1.09913-1.643225 3.20662-3.6624546 4.01141-3.6699831z" style="fill:#fcd116;fill-opacity:1;stroke:#d81e05;stroke-width:1.500006;stroke-linecap:butt;stroke-linejoin:miter;stroke-miterlimit:4;stroke-opacity:1;stroke-dasharray:none" transform="scale(-1.66666 1.66666) rotate(-60 -11.60948312 665.59433492)"/>
        <path d="M299.99005 18.716121c-1.72853-.01617-5.57866 4.928822-5.42328 7.904285.16229 3.107533 3.81863 9.694859 5.42329 9.684996 1.38295-.0085 5.46188-6.900104 5.5262-9.735706.0693-3.056892-3.91664-7.838518-5.52621-7.853575zM287.25 12.249996c-1.65673-.05873-5.54157 6.712228-5.32575 9.319167.38177 4.611529 4.46211 7.05015 6.32575 7.055833 2.80712.0086 3.94815-4.448714 4.03905-8.07844.15346-6.127619-3.42696-8.239416-5.03905-8.29656zM312.60472 12.312679c1.65673-.05873 5.54157 6.712228 5.32575 9.319168-.38177 4.611529-4.21211 6.80015-6.07575 6.805833-2.80712.0086-4.19815-4.198714-4.28905-7.828441-.15346-6.127619 3.42696-8.239416 5.03905-8.29656z" style="fill:#fcd116;fill-opacity:1;stroke:#d81e05;stroke-width:1.500006;stroke-linecap:butt;stroke-linejoin:miter;stroke-miterlimit:4;stroke-opacity:1;stroke-dasharray:none" transform="scale(-1.66666 1.66666) rotate(-60 -11.60948312 665.59433492)"/>
        <path d="M286.25 27.249996c-.20059 2.929974 3.62492 7.50094 4.5 7.5.92397-.000992 3.82494-2.667506 3.75-6.5-.0544-2.781167-2.97351-7.413481-4.375-7.5-1.23336-.07614-3.7059 4.029943-3.875 6.5zM314.24715 27.249996c.20059 2.929974-3.62492 7.50094-4.5 7.5-.92397-.000992-3.94994-2.167506-3.875-6 .0544-2.781167 3.09851-7.913481 4.5-8 1.23336-.07614 3.7059 4.029943 3.875 6.5zM285.5 29.624996c-.099-3.59117-2.22904-7.742058-3.29849-7.82886-3.32942-.27023-6.23807 8.989324-6.32651 10.20386-.1612 2.213806.86217 14.441482 5.82072 6.712281.95209-1.484083 3.91274-5.153256 3.80428-9.087281zM314.43496 29.624996c.099-3.59117 2.22904-7.742058 3.29849-7.82886 3.32942-.27023 6.14625 8.999524 6.32651 10.20386.33798 2.258-2.54697 7.463547-3.78779 7.507776-1.76211.06281-5.94567-5.948751-5.83721-9.882776z" style="fill:#fcd116;fill-opacity:1;stroke:#d81e05;stroke-width:1.500006;stroke-linecap:butt;stroke-linejoin:miter;stroke-miterlimit:4;stroke-opacity:1;stroke-dasharray:none" transform="scale(-1.66666 1.66666) rotate(-60 -11.60948312 665.59433492)"/>
        <path d="M280.01224 42.624997c.003-1.719093.98205-5.286153 1.41856-7.076337.89446-3.668294 3.61422-6.350047 4.58353-6.376054 1.25071-.03356 3.76838 3.66445 4.82422 7.422373 1.05584 3.757924-.22138 6.933477-1.07631 7.530018-2.10113 1.466087-3.66769 2.024021-5.47682 1.651943-2.35174-.483675-4.27715-.843711-4.27318-3.151943z" style="fill:#fcd116;fill-opacity:1;stroke:#d81e05;stroke-width:1.500006;stroke-linecap:butt;stroke-linejoin:miter;stroke-miterlimit:4;stroke-opacity:1;stroke-dasharray:none" transform="scale(-1.66666 1.66666) rotate(-60 -11.60948312 665.59433492)"/>
        <path d="M281 41.249996c-1.46937-2.857712-4.0934-7.96411-5.75-8-.7835-.01698-3.17944 6.59418-2.54556 11.1931.60511 4.390137 1.18374 7.320074 2.79556 8.9319 1.31747 1.317475 5.25943.420099 6.29169-1.082413.88112-1.282511 1.23809-7.094946-.79169-11.042587z" style="fill:#fcd116;fill-opacity:1;stroke:#d81e05;stroke-width:1.500006;stroke-linecap:butt;stroke-linejoin:miter;stroke-miterlimit:4;stroke-opacity:1;stroke-dasharray:none" transform="scale(-1.66666 1.66666) rotate(-60 -11.60948312 665.59433492)"/>
        <path d="M275.70153 62.624996c-.67745-.218446-2.12229-1.200737-3-3.125-2.78589-6.107686-.46737-12.46167-.46737-12.46167 1.56622-.488925 3.79358 3.101502 6.46737 7.46167 1.46466 2.388433 3.83629 6.22509 3.71458 7.446536-.1217 1.221446-1.23674 1.70268-1.74543 2.130267-1.01737.855174-4.23279-.54442-4.96915-1.451803zM319.875 42.624996c-.003-1.719093-.91621-5.105357-1.41856-7.076336-.91775-3.600797-3.61422-6.350047-4.58353-6.376054-1.25071-.03356-3.76838 3.66445-4.82422 7.422373-1.05584 3.757923.22138 6.933476 1.07631 7.530017 2.10113 1.466087 3.66769 2.024021 5.47682 1.651943 2.35174-.483675 4.27715-.843711 4.27318-3.151943zM300 40.124996c.41412-4.109615-.5668-6.191804-2.75-9.125-.62484-.839496-1.55985-2.31576-2.625-2.125-3.04789.545853-8.31506 16.184933-7.25 17.25 1.40529 1.405285 4.18925 3.878938 6.25 3.5 2.42845-.446551 6.20306-8.101267 6.375-9.5z" style="fill:#fcd116;fill-opacity:1;stroke:#d81e05;stroke-width:1.500006;stroke-linecap:butt;stroke-linejoin:miter;stroke-miterlimit:4;stroke-opacity:1;stroke-dasharray:none" transform="scale(-1.66666 1.66666) rotate(-60 -11.60948312 665.59433492)"/>
        <path d="M300.05024 40.124996c-.41412-4.109615.5668-6.191804 2.75-9.125.62484-.839496 1.58883-2.436917 2.625-2.125 3.26664.983353 8.31506 16.184933 7.25 17.25-1.40529 1.405285-4.18925 3.878938-6.25 3.5-2.42845-.446551-6.20306-8.101267-6.375-9.5zM318.79627 41.249996c1.46937-2.857712 4.0934-7.96411 5.75-8 .7835-.01698 3.17944 6.59418 2.54556 11.1931-.60511 4.390137-1.18374 7.320074-2.79556 8.9319-1.31747 1.317475-5.25943.420099-6.29169-1.082413-.88113-1.282511-1.2381-7.094946.79169-11.042587z" style="fill:#fcd116;fill-opacity:1;stroke:#d81e05;stroke-width:1.500006;stroke-linecap:butt;stroke-linejoin:miter;stroke-miterlimit:4;stroke-opacity:1;stroke-dasharray:none" transform="scale(-1.66666 1.66666) rotate(-60 -11.60948312 665.59433492)"/>
        <path d="M323.80697 62.624996c.67745-.218446 2.12229-1.200737 3-3.125 2.78589-6.107686.46737-12.46167.46737-12.46167-1.56622-.488925-3.79358 3.101502-6.46737 7.46167-1.46466 2.388433-3.83629 6.22509-3.71458 7.446536.1217 1.221446 1.23674 1.70268 1.74543 2.130267 1.01737.855174 4.23279-.54442 4.96915-1.451803zM300.05785 39.016422c-2.10357-.01103-5.92012 5.880083-6.67328 9.404285-.25942 1.21388-.38955 3.527182-.22268 5.094338.16309 1.531682 4.82254.91222 6.55758.954174 1.63893.03963 7.37017.480033 7.41334-1.323399.0244-1.019512-.22958-4.330875-.42375-5.025823-1.05237-3.766446-4.29162-9.091202-6.65121-9.103575z" style="fill:#fcd116;fill-opacity:1;stroke:#d81e05;stroke-width:1.500006;stroke-linecap:butt;stroke-linejoin:miter;stroke-miterlimit:4;stroke-opacity:1;stroke-dasharray:none" transform="scale(-1.66666 1.66666) rotate(-60 -11.60948312 665.59433492)"/>
        <path d="M295.5798 55.395481c.33689-3.435737-10.19223-14.862224-11.625-14.75-1.59057.124584-5.75715 7.742849-5.25 11.875.44485 3.624545 2.09885 10.39523 5.61151 11.546312 3.51266 1.151081 10.96112-2.742918 11.26349-8.671312zM304.2952 55.395481c-.33689-3.435737 10.19223-14.862224 11.625-14.75 1.59057.124584 5.75715 7.742849 5.25 11.875-.44485 3.624545-2.09885 10.39523-5.61151 11.546312-3.51266 1.151081-8.88399-3.317442-11.26349-8.671312z" style="fill:#fcd116;fill-opacity:1;stroke:#d81e05;stroke-width:1.500006;stroke-linecap:butt;stroke-linejoin:miter;stroke-miterlimit:4;stroke-opacity:1;stroke-dasharray:none" transform="scale(-1.66666 1.66666) rotate(-60 -11.60948312 665.59433492)"/>
        <path d="M284.375 51.999997c2.02472-.315862 12.40775 10.214917 11.25 15-1.31349 5.428756-3.59641 8.633718-5.58761 8.416121-1.50266-.16421-6.172-7.202749-7.34989-8.978621-3.66306-5.522681.38083-14.233656 1.6875-14.4375zM315.45218 51.999997c-2.02472-.315862-12.40775 10.214917-11.25 15 1.31349 5.428756 3.59641 8.633718 5.58761 8.416121 1.50266-.16421 6.172-7.202749 7.34989-8.978621 3.66306-5.522681-.38083-14.233656-1.6875-14.4375z" style="fill:#fcd116;fill-opacity:1;stroke:#d81e05;stroke-width:1.500006;stroke-linecap:butt;stroke-linejoin:miter;stroke-miterlimit:4;stroke-opacity:1;stroke-dasharray:none" transform="scale(-1.66666 1.66666) rotate(-60 -11.60948312 665.59433492)"/>
        <path d="M300.35204 50.099199c-2.61232-.0051-7.07866 8.053822-6.92328 11.029285.16229 3.107533-.7208 11.309681 6.5849 11.298511 7.57031-.01157 6.80027-8.763619 6.86459-11.599221.0693-3.056892-4.04612-10.72373-6.52621-10.728575zM316.62112 73.749997c2.06699.906043 4.14705-.479655 5.375-1.875 5.795-6.585 5.51489-12.118709 4.875-12.625001-.89165-.705491-4.75456 1.437628-5.875 2.375001-2.17851 1.822569-9.0681 11.059763-9.95265 13.488342-.88454 2.42858 4.23597-1.951455 5.57765-1.363342zM283.75 73.749996c-2.06699.906043-4.14705-.479655-5.375-1.875-5.795-6.585-5.51489-12.118709-4.875-12.625.89165-.705491 4.75456 1.437627 5.875 2.375 2.17851 1.822569 9.0681 11.559763 9.95265 13.988342.88454 2.42858-4.23597-2.451455-5.57765-1.863342z" style="fill:#fcd116;fill-opacity:1;stroke:#d81e05;stroke-width:1.500006;stroke-linecap:butt;stroke-linejoin:miter;stroke-miterlimit:4;stroke-opacity:1;stroke-dasharray:none" transform="scale(-1.66666 1.66666) rotate(-60 -11.60948312 665.59433492)"/>
        <path d="M280.4491 73.534879c2.16051 5.125087 9.50493 13.463975 19.94544 13.301146 10.20977-.15923 19.42399-13.227922 19.42399-13.227922-2.34022-1.95135-6.72326-1.223921-8.06853-.233107-.94731.697714-2.47034 1.530588-3.75 5.625004.68306-2.375815 2.30973-16.886105.375-17.250004-1.04019-.195647-5.57062 3.80546-6.75 7.109835C301.5559 69.053282 300 72 300 72s-1.4284-2.731813-1.625-3.125004c-1.75107-2.951573-5.66425-6.942121-6.625-6.75-1.6213.324211-1.82036 9.195372.25 16.875004-.47018-1.478036-1.80711-4.620651-3-5.500004-1.07747-.794271-5.81337-2.78348-8.5509.03488z" style="fill:#fcd116;fill-opacity:1;stroke:#d81e05;stroke-width:1.500006;stroke-linecap:round;stroke-linejoin:miter;stroke-miterlimit:4;stroke-opacity:1;stroke-dasharray:none" transform="scale(-1.66666 1.66666) rotate(-60 -11.60948312 665.59433492)"/>
      </g>
      <g style="fill:#fcd116;fill-opacity:1;stroke:#d81e05;stroke-opacity:1;stroke-width:1.500006;stroke-miterlimit:4;stroke-dasharray:none">
        <path d="M295.12326 9.8331019c-1.72853-.01617-5.57866 4.9288221-5.42328 7.9042851.16229 3.107534 3.73024 8.152125 5.3349 8.142262.69147-.0042 2.07904-1.976405 3.30178-3.458197 1.22274-1.481793 1.64723-3.628561 1.56151-5.044134-.0979-1.616834.29295-2.294833-.7635-3.874233-1.09913-1.643225-3.20662-3.6624546-4.01141-3.6699831zM304.92801 9.8772959c1.72853-.01617 5.57866 4.9288221 5.42328 7.9042851-.16229 3.107535-4.07399 9.683376-5.67865 9.673513-.69147-.0042-1.73529-3.507655-2.95803-4.989447-1.22274-1.481793-1.64723-3.628562-1.56151-5.044135.0979-1.616834-.29295-2.294833.7635-3.874233 1.09913-1.643225 3.20662-3.6624546 4.01141-3.6699831z" style="fill:#fcd116;fill-opacity:1;stroke:#d81e05;stroke-width:1.500006;stroke-linecap:butt;stroke-linejoin:miter;stroke-miterlimit:4;stroke-opacity:1;stroke-dasharray:none" transform="matrix(-.28941 -1.64134 -1.64134 .28941 846.69393764 758.30266347)"/>
        <path d="M299.99005 18.716121c-1.72853-.01617-5.57866 4.928822-5.42328 7.904285.16229 3.107533 3.81863 9.694859 5.42329 9.684996 1.38295-.0085 5.46188-6.900104 5.5262-9.735706.0693-3.056892-3.91664-7.838518-5.52621-7.853575zM287.25 12.249996c-1.65673-.05873-5.54157 6.712228-5.32575 9.319167.38177 4.611529 4.46211 7.05015 6.32575 7.055833 2.80712.0086 3.94815-4.448714 4.03905-8.07844.15346-6.127619-3.42696-8.239416-5.03905-8.29656zM312.60472 12.312679c1.65673-.05873 5.54157 6.712228 5.32575 9.319168-.38177 4.611529-4.21211 6.80015-6.07575 6.805833-2.80712.0086-4.19815-4.198714-4.28905-7.828441-.15346-6.127619 3.42696-8.239416 5.03905-8.29656z" style="fill:#fcd116;fill-opacity:1;stroke:#d81e05;stroke-width:1.500006;stroke-linecap:butt;stroke-linejoin:miter;stroke-miterlimit:4;stroke-opacity:1;stroke-dasharray:none" transform="matrix(-.28941 -1.64134 -1.64134 .28941 846.69393764 758.30266347)"/>
        <path d="M286.25 27.249996c-.20059 2.929974 3.62492 7.50094 4.5 7.5.92397-.000992 3.82494-2.667506 3.75-6.5-.0544-2.781167-2.97351-7.413481-4.375-7.5-1.23336-.07614-3.7059 4.029943-3.875 6.5zM314.24715 27.249996c.20059 2.929974-3.62492 7.50094-4.5 7.5-.92397-.000992-3.94994-2.167506-3.875-6 .0544-2.781167 3.09851-7.913481 4.5-8 1.23336-.07614 3.7059 4.029943 3.875 6.5zM285.5 29.624996c-.099-3.59117-2.22904-7.742058-3.29849-7.82886-3.32942-.27023-6.23807 8.989324-6.32651 10.20386-.1612 2.213806.86217 14.441482 5.82072 6.712281.95209-1.484083 3.91274-5.153256 3.80428-9.087281zM314.43496 29.624996c.099-3.59117 2.22904-7.742058 3.29849-7.82886 3.32942-.27023 6.14625 8.999524 6.32651 10.20386.33798 2.258-2.54697 7.463547-3.78779 7.507776-1.76211.06281-5.94567-5.948751-5.83721-9.882776z" style="fill:#fcd116;fill-opacity:1;stroke:#d81e05;stroke-width:1.500006;stroke-linecap:butt;stroke-linejoin:miter;stroke-miterlimit:4;stroke-opacity:1;stroke-dasharray:none" transform="matrix(-.28941 -1.64134 -1.64134 .28941 846.69393764 758.30266347)"/>
        <path d="M280.01224 42.624997c.003-1.719093.98205-5.286153 1.41856-7.076337.89446-3.668294 3.61422-6.350047 4.58353-6.376054 1.25071-.03356 3.76838 3.66445 4.82422 7.422373 1.05584 3.757924-.22138 6.933477-1.07631 7.530018-2.10113 1.466087-3.66769 2.024021-5.47682 1.651943-2.35174-.483675-4.27715-.843711-4.27318-3.151943z" style="fill:#fcd116;fill-opacity:1;stroke:#d81e05;stroke-width:1.500006;stroke-linecap:butt;stroke-linejoin:miter;stroke-miterlimit:4;stroke-opacity:1;stroke-dasharray:none" transform="matrix(-.28941 -1.64134 -1.64134 .28941 846.69393764 758.30266347)"/>
        <path d="M281 41.249996c-1.46937-2.857712-4.0934-7.96411-5.75-8-.7835-.01698-3.17944 6.59418-2.54556 11.1931.60511 4.390137 1.18374 7.320074 2.79556 8.9319 1.31747 1.317475 5.25943.420099 6.29169-1.082413.88112-1.282511 1.23809-7.094946-.79169-11.042587z" style="fill:#fcd116;fill-opacity:1;stroke:#d81e05;stroke-width:1.500006;stroke-linecap:butt;stroke-linejoin:miter;stroke-miterlimit:4;stroke-opacity:1;stroke-dasharray:none" transform="matrix(-.28941 -1.64134 -1.64134 .28941 846.69393764 758.30266347)"/>
        <path d="M275.70153 62.624996c-.67745-.218446-2.12229-1.200737-3-3.125-2.78589-6.107686-.46737-12.46167-.46737-12.46167 1.56622-.488925 3.79358 3.101502 6.46737 7.46167 1.46466 2.388433 3.83629 6.22509 3.71458 7.446536-.1217 1.221446-1.23674 1.70268-1.74543 2.130267-1.01737.855174-4.23279-.54442-4.96915-1.451803zM319.875 42.624996c-.003-1.719093-.91621-5.105357-1.41856-7.076336-.91775-3.600797-3.61422-6.350047-4.58353-6.376054-1.25071-.03356-3.76838 3.66445-4.82422 7.422373-1.05584 3.757923.22138 6.933476 1.07631 7.530017 2.10113 1.466087 3.66769 2.024021 5.47682 1.651943 2.35174-.483675 4.27715-.843711 4.27318-3.151943zM300 40.124996c.41412-4.109615-.5668-6.191804-2.75-9.125-.62484-.839496-1.55985-2.31576-2.625-2.125-3.04789.545853-8.31506 16.184933-7.25 17.25 1.40529 1.405285 4.18925 3.878938 6.25 3.5 2.42845-.446551 6.20306-8.101267 6.375-9.5z" style="fill:#fcd116;fill-opacity:1;stroke:#d81e05;stroke-width:1.500006;stroke-linecap:butt;stroke-linejoin:miter;stroke-miterlimit:4;stroke-opacity:1;stroke-dasharray:none" transform="matrix(-.28941 -1.64134 -1.64134 .28941 846.69393764 758.30266347)"/>
        <path d="M300.05024 40.124996c-.41412-4.109615.5668-6.191804 2.75-9.125.62484-.839496 1.58883-2.436917 2.625-2.125 3.26664.983353 8.31506 16.184933 7.25 17.25-1.40529 1.405285-4.18925 3.878938-6.25 3.5-2.42845-.446551-6.20306-8.101267-6.375-9.5zM318.79627 41.249996c1.46937-2.857712 4.0934-7.96411 5.75-8 .7835-.01698 3.17944 6.59418 2.54556 11.1931-.60511 4.390137-1.18374 7.320074-2.79556 8.9319-1.31747 1.317475-5.25943.420099-6.29169-1.082413-.88113-1.282511-1.2381-7.094946.79169-11.042587z" style="fill:#fcd116;fill-opacity:1;stroke:#d81e05;stroke-width:1.500006;stroke-linecap:butt;stroke-linejoin:miter;stroke-miterlimit:4;stroke-opacity:1;stroke-dasharray:none" transform="matrix(-.28941 -1.64134 -1.64134 .28941 846.69393764 758.30266347)"/>
        <path d="M323.80697 62.624996c.67745-.218446 2.12229-1.200737 3-3.125 2.78589-6.107686.46737-12.46167.46737-12.46167-1.56622-.488925-3.79358 3.101502-6.46737 7.46167-1.46466 2.388433-3.83629 6.22509-3.71458 7.446536.1217 1.221446 1.23674 1.70268 1.74543 2.130267 1.01737.855174 4.23279-.54442 4.96915-1.451803zM300.05785 39.016422c-2.10357-.01103-5.92012 5.880083-6.67328 9.404285-.25942 1.21388-.38955 3.527182-.22268 5.094338.16309 1.531682 4.82254.91222 6.55758.954174 1.63893.03963 7.37017.480033 7.41334-1.323399.0244-1.019512-.22958-4.330875-.42375-5.025823-1.05237-3.766446-4.29162-9.091202-6.65121-9.103575z" style="fill:#fcd116;fill-opacity:1;stroke:#d81e05;stroke-width:1.500006;stroke-linecap:butt;stroke-linejoin:miter;stroke-miterlimit:4;stroke-opacity:1;stroke-dasharray:none" transform="matrix(-.28941 -1.64134 -1.64134 .28941 846.69393764 758.30266347)"/>
        <path d="M295.5798 55.395481c.33689-3.435737-10.19223-14.862224-11.625-14.75-1.59057.124584-5.75715 7.742849-5.25 11.875.44485 3.624545 2.09885 10.39523 5.61151 11.546312 3.51266 1.151081 10.96112-2.742918 11.26349-8.671312zM304.2952 55.395481c-.33689-3.435737 10.19223-14.862224 11.625-14.75 1.59057.124584 5.75715 7.742849 5.25 11.875-.44485 3.624545-2.09885 10.39523-5.61151 11.546312-3.51266 1.151081-8.88399-3.317442-11.26349-8.671312z" style="fill:#fcd116;fill-opacity:1;stroke:#d81e05;stroke-width:1.500006;stroke-linecap:butt;stroke-linejoin:miter;stroke-miterlimit:4;stroke-opacity:1;stroke-dasharray:none" transform="matrix(-.28941 -1.64134 -1.64134 .28941 846.69393764 758.30266347)"/>
        <path d="M284.375 51.999997c2.02472-.315862 12.40775 10.214917 11.25 15-1.31349 5.428756-3.59641 8.633718-5.58761 8.416121-1.50266-.16421-6.172-7.202749-7.34989-8.978621-3.66306-5.522681.38083-14.233656 1.6875-14.4375zM315.45218 51.999997c-2.02472-.315862-12.40775 10.214917-11.25 15 1.31349 5.428756 3.59641 8.633718 5.58761 8.416121 1.50266-.16421 6.172-7.202749 7.34989-8.978621 3.66306-5.522681-.38083-14.233656-1.6875-14.4375z" style="fill:#fcd116;fill-opacity:1;stroke:#d81e05;stroke-width:1.500006;stroke-linecap:butt;stroke-linejoin:miter;stroke-miterlimit:4;stroke-opacity:1;stroke-dasharray:none" transform="matrix(-.28941 -1.64134 -1.64134 .28941 846.69393764 758.30266347)"/>
        <path d="M300.35204 50.099199c-2.61232-.0051-7.07866 8.053822-6.92328 11.029285.16229 3.107533-.7208 11.309681 6.5849 11.298511 7.57031-.01157 6.80027-8.763619 6.86459-11.599221.0693-3.056892-4.04612-10.72373-6.52621-10.728575zM316.62112 73.749997c2.06699.906043 4.14705-.479655 5.375-1.875 5.795-6.585 5.51489-12.118709 4.875-12.625001-.89165-.705491-4.75456 1.437628-5.875 2.375001-2.17851 1.822569-9.0681 11.059763-9.95265 13.488342-.88454 2.42858 4.23597-1.951455 5.57765-1.363342zM283.75 73.749996c-2.06699.906043-4.14705-.479655-5.375-1.875-5.795-6.585-5.51489-12.118709-4.875-12.625.89165-.705491 4.75456 1.437627 5.875 2.375 2.17851 1.822569 9.0681 11.559763 9.95265 13.988342.88454 2.42858-4.23597-2.451455-5.57765-1.863342z" style="fill:#fcd116;fill-opacity:1;stroke:#d81e05;stroke-width:1.500006;stroke-linecap:butt;stroke-linejoin:miter;stroke-miterlimit:4;stroke-opacity:1;stroke-dasharray:none" transform="matrix(-.28941 -1.64134 -1.64134 .28941 846.69393764 758.30266347)"/>
        <path d="M280.4491 73.534879c2.16051 5.125087 9.50493 13.463975 19.94544 13.301146 10.20977-.15923 19.42399-13.227922 19.42399-13.227922-2.34022-1.95135-6.72326-1.223921-8.06853-.233107-.94731.697714-2.47034 1.530588-3.75 5.625004.68306-2.375815 2.30973-16.886105.375-17.250004-1.04019-.195647-5.57062 3.80546-6.75 7.109835C301.5559 69.053282 300 72 300 72s-1.4284-2.731813-1.625-3.125004c-1.75107-2.951573-5.66425-6.942121-6.625-6.75-1.6213.324211-1.82036 9.195372.25 16.875004-.47018-1.478036-1.80711-4.620651-3-5.500004-1.07747-.794271-5.81337-2.78348-8.5509.03488z" style="fill:#fcd116;fill-opacity:1;stroke:#d81e05;stroke-width:1.500006;stroke-linecap:round;stroke-linejoin:miter;stroke-miterlimit:4;stroke-opacity:1;stroke-dasharray:none" transform="matrix(-.28941 -1.64134 -1.64134 .28941 846.69393764 758.30266347)"/>
      </g>
      <g style="fill:#fcd116;fill-opacity:1;stroke:#d81e05;stroke-opacity:1;stroke-width:1.76471295;stroke-miterlimit:4;stroke-dasharray:none">
        <path d="M295.12326 9.8331019c-1.72853-.01617-5.57866 4.9288221-5.42328 7.9042851.16229 3.107534 3.73024 8.152125 5.3349 8.142262.69147-.0042 2.07904-1.976405 3.30178-3.458197 1.22274-1.481793 1.64723-3.628561 1.56151-5.044134-.0979-1.616834.29295-2.294833-.7635-3.874233-1.09913-1.643225-3.20662-3.6624546-4.01141-3.6699831zM304.92801 9.8772959c1.72853-.01617 5.57866 4.9288221 5.42328 7.9042851-.16229 3.107535-4.07399 9.683376-5.67865 9.673513-.69147-.0042-1.73529-3.507655-2.95803-4.989447-1.22274-1.481793-1.64723-3.628562-1.56151-5.044135.0979-1.616834-.29295-2.294833.7635-3.874233 1.09913-1.643225 3.20662-3.6624546 4.01141-3.6699831z" style="fill:#fcd116;fill-opacity:1;stroke:#d81e05;stroke-width:1.76471295;stroke-linecap:butt;stroke-linejoin:miter;stroke-miterlimit:4;stroke-opacity:1;stroke-dasharray:none" transform="matrix(.36666 -1.36839 -1.36839 -.36666 588.23571814 846.61526022)"/>
        <path d="M299.99005 18.716121c-1.72853-.01617-5.57866 4.928822-5.42328 7.904285.16229 3.107533 3.81863 9.694859 5.42329 9.684996 1.38295-.0085 5.46188-6.900104 5.5262-9.735706.0693-3.056892-3.91664-7.838518-5.52621-7.853575zM287.25 12.249996c-1.65673-.05873-5.54157 6.712228-5.32575 9.319167.38177 4.611529 4.46211 7.05015 6.32575 7.055833 2.80712.0086 3.94815-4.448714 4.03905-8.07844.15346-6.127619-3.42696-8.239416-5.03905-8.29656zM312.60472 12.312679c1.65673-.05873 5.54157 6.712228 5.32575 9.319168-.38177 4.611529-4.21211 6.80015-6.07575 6.805833-2.80712.0086-4.19815-4.198714-4.28905-7.828441-.15346-6.127619 3.42696-8.239416 5.03905-8.29656z" style="fill:#fcd116;fill-opacity:1;stroke:#d81e05;stroke-width:1.76471295;stroke-linecap:butt;stroke-linejoin:miter;stroke-miterlimit:4;stroke-opacity:1;stroke-dasharray:none" transform="matrix(.36666 -1.36839 -1.36839 -.36666 588.23571814 846.61526022)"/>
        <path d="M286.25 27.249996c-.20059 2.929974 3.62492 7.50094 4.5 7.5.92397-.000992 3.82494-2.667506 3.75-6.5-.0544-2.781167-2.97351-7.413481-4.375-7.5-1.23336-.07614-3.7059 4.029943-3.875 6.5zM314.24715 27.249996c.20059 2.929974-3.62492 7.50094-4.5 7.5-.92397-.000992-3.94994-2.167506-3.875-6 .0544-2.781167 3.09851-7.913481 4.5-8 1.23336-.07614 3.7059 4.029943 3.875 6.5zM285.5 29.624996c-.099-3.59117-2.22904-7.742058-3.29849-7.82886-3.32942-.27023-6.23807 8.989324-6.32651 10.20386-.1612 2.213806.86217 14.441482 5.82072 6.712281.95209-1.484083 3.91274-5.153256 3.80428-9.087281zM314.43496 29.624996c.099-3.59117 2.22904-7.742058 3.29849-7.82886 3.32942-.27023 6.14625 8.999524 6.32651 10.20386.33798 2.258-2.54697 7.463547-3.78779 7.507776-1.76211.06281-5.94567-5.948751-5.83721-9.882776z" style="fill:#fcd116;fill-opacity:1;stroke:#d81e05;stroke-width:1.76471295;stroke-linecap:butt;stroke-linejoin:miter;stroke-miterlimit:4;stroke-opacity:1;stroke-dasharray:none" transform="matrix(.36666 -1.36839 -1.36839 -.36666 588.23571814 846.61526022)"/>
        <path d="M280.01224 42.624997c.003-1.719093.98205-5.286153 1.41856-7.076337.89446-3.668294 3.61422-6.350047 4.58353-6.376054 1.25071-.03356 3.76838 3.66445 4.82422 7.422373 1.05584 3.757924-.22138 6.933477-1.07631 7.530018-2.10113 1.466087-3.66769 2.024021-5.47682 1.651943-2.35174-.483675-4.27715-.843711-4.27318-3.151943z" style="fill:#fcd116;fill-opacity:1;stroke:#d81e05;stroke-width:1.76471295;stroke-linecap:butt;stroke-linejoin:miter;stroke-miterlimit:4;stroke-opacity:1;stroke-dasharray:none" transform="matrix(.36666 -1.36839 -1.36839 -.36666 588.23571814 846.61526022)"/>
        <path d="M281 41.249996c-1.46937-2.857712-4.0934-7.96411-5.75-8-.7835-.01698-3.17944 6.59418-2.54556 11.1931.60511 4.390137 1.18374 7.320074 2.79556 8.9319 1.31747 1.317475 5.25943.420099 6.29169-1.082413.88112-1.282511 1.23809-7.094946-.79169-11.042587z" style="fill:#fcd116;fill-opacity:1;stroke:#d81e05;stroke-width:1.76471295;stroke-linecap:butt;stroke-linejoin:miter;stroke-miterlimit:4;stroke-opacity:1;stroke-dasharray:none" transform="matrix(.36666 -1.36839 -1.36839 -.36666 588.23571814 846.61526022)"/>
        <path d="M275.70153 62.624996c-.67745-.218446-2.12229-1.200737-3-3.125-2.78589-6.107686-.46737-12.46167-.46737-12.46167 1.56622-.488925 3.79358 3.101502 6.46737 7.46167 1.46466 2.388433 3.83629 6.22509 3.71458 7.446536-.1217 1.221446-1.23674 1.70268-1.74543 2.130267-1.01737.855174-4.23279-.54442-4.96915-1.451803zM319.875 42.624996c-.003-1.719093-.91621-5.105357-1.41856-7.076336-.91775-3.600797-3.61422-6.350047-4.58353-6.376054-1.25071-.03356-3.76838 3.66445-4.82422 7.422373-1.05584 3.757923.22138 6.933476 1.07631 7.530017 2.10113 1.466087 3.66769 2.024021 5.47682 1.651943 2.35174-.483675 4.27715-.843711 4.27318-3.151943zM300 40.124996c.41412-4.109615-.5668-6.191804-2.75-9.125-.62484-.839496-1.55985-2.31576-2.625-2.125-3.04789.545853-8.31506 16.184933-7.25 17.25 1.40529 1.405285 4.18925 3.878938 6.25 3.5 2.42845-.446551 6.20306-8.101267 6.375-9.5z" style="fill:#fcd116;fill-opacity:1;stroke:#d81e05;stroke-width:1.76471295;stroke-linecap:butt;stroke-linejoin:miter;stroke-miterlimit:4;stroke-opacity:1;stroke-dasharray:none" transform="matrix(.36666 -1.36839 -1.36839 -.36666 588.23571814 846.61526022)"/>
        <path d="M300.05024 40.124996c-.41412-4.109615.5668-6.191804 2.75-9.125.62484-.839496 1.58883-2.436917 2.625-2.125 3.26664.983353 8.31506 16.184933 7.25 17.25-1.40529 1.405285-4.18925 3.878938-6.25 3.5-2.42845-.446551-6.20306-8.101267-6.375-9.5zM318.79627 41.249996c1.46937-2.857712 4.0934-7.96411 5.75-8 .7835-.01698 3.17944 6.59418 2.54556 11.1931-.60511 4.390137-1.18374 7.320074-2.79556 8.9319-1.31747 1.317475-5.25943.420099-6.29169-1.082413-.88113-1.282511-1.2381-7.094946.79169-11.042587z" style="fill:#fcd116;fill-opacity:1;stroke:#d81e05;stroke-width:1.76471295;stroke-linecap:butt;stroke-linejoin:miter;stroke-miterlimit:4;stroke-opacity:1;stroke-dasharray:none" transform="matrix(.36666 -1.36839 -1.36839 -.36666 588.23571814 846.61526022)"/>
        <path d="M323.80697 62.624996c.67745-.218446 2.12229-1.200737 3-3.125 2.78589-6.107686.46737-12.46167.46737-12.46167-1.56622-.488925-3.79358 3.101502-6.46737 7.46167-1.46466 2.388433-3.83629 6.22509-3.71458 7.446536.1217 1.221446 1.23674 1.70268 1.74543 2.130267 1.01737.855174 4.23279-.54442 4.96915-1.451803zM300.05785 39.016422c-2.10357-.01103-5.92012 5.880083-6.67328 9.404285-.25942 1.21388-.38955 3.527182-.22268 5.094338.16309 1.531682 4.82254.91222 6.55758.954174 1.63893.03963 7.37017.480033 7.41334-1.323399.0244-1.019512-.22958-4.330875-.42375-5.025823-1.05237-3.766446-4.29162-9.091202-6.65121-9.103575z" style="fill:#fcd116;fill-opacity:1;stroke:#d81e05;stroke-width:1.76471295;stroke-linecap:butt;stroke-linejoin:miter;stroke-miterlimit:4;stroke-opacity:1;stroke-dasharray:none" transform="matrix(.36666 -1.36839 -1.36839 -.36666 588.23571814 846.61526022)"/>
        <path d="M295.5798 55.395481c.33689-3.435737-10.19223-14.862224-11.625-14.75-1.59057.124584-5.75715 7.742849-5.25 11.875.44485 3.624545 2.09885 10.39523 5.61151 11.546312 3.51266 1.151081 10.96112-2.742918 11.26349-8.671312zM304.2952 55.395481c-.33689-3.435737 10.19223-14.862224 11.625-14.75 1.59057.124584 5.75715 7.742849 5.25 11.875-.44485 3.624545-2.09885 10.39523-5.61151 11.546312-3.51266 1.151081-8.88399-3.317442-11.26349-8.671312z" style="fill:#fcd116;fill-opacity:1;stroke:#d81e05;stroke-width:1.76471295;stroke-linecap:butt;stroke-linejoin:miter;stroke-miterlimit:4;stroke-opacity:1;stroke-dasharray:none" transform="matrix(.36666 -1.36839 -1.36839 -.36666 588.23571814 846.61526022)"/>
        <path d="M284.375 51.999997c2.02472-.315862 12.40775 10.214917 11.25 15-1.31349 5.428756-3.59641 8.633718-5.58761 8.416121-1.50266-.16421-6.172-7.202749-7.34989-8.978621-3.66306-5.522681.38083-14.233656 1.6875-14.4375zM315.45218 51.999997c-2.02472-.315862-12.40775 10.214917-11.25 15 1.31349 5.428756 3.59641 8.633718 5.58761 8.416121 1.50266-.16421 6.172-7.202749 7.34989-8.978621 3.66306-5.522681-.38083-14.233656-1.6875-14.4375z" style="fill:#fcd116;fill-opacity:1;stroke:#d81e05;stroke-width:1.76471295;stroke-linecap:butt;stroke-linejoin:miter;stroke-miterlimit:4;stroke-opacity:1;stroke-dasharray:none" transform="matrix(.36666 -1.36839 -1.36839 -.36666 588.23571814 846.61526022)"/>
        <path d="M300.35204 50.099199c-2.61232-.0051-7.07866 8.053822-6.92328 11.029285.16229 3.107533-.7208 11.309681 6.5849 11.298511 7.57031-.01157 6.80027-8.763619 6.86459-11.599221.0693-3.056892-4.04612-10.72373-6.52621-10.728575zM316.62112 73.749997c2.06699.906043 4.14705-.479655 5.375-1.875 5.795-6.585 5.51489-12.118709 4.875-12.625001-.89165-.705491-4.75456 1.437628-5.875 2.375001-2.17851 1.822569-9.0681 11.059763-9.95265 13.488342-.88454 2.42858 4.23597-1.951455 5.57765-1.363342zM283.75 73.749996c-2.06699.906043-4.14705-.479655-5.375-1.875-5.795-6.585-5.51489-12.118709-4.875-12.625.89165-.705491 4.75456 1.437627 5.875 2.375 2.17851 1.822569 9.0681 11.559763 9.95265 13.988342.88454 2.42858-4.23597-2.451455-5.57765-1.863342z" style="fill:#fcd116;fill-opacity:1;stroke:#d81e05;stroke-width:1.76471295;stroke-linecap:butt;stroke-linejoin:miter;stroke-miterlimit:4;stroke-opacity:1;stroke-dasharray:none" transform="matrix(.36666 -1.36839 -1.36839 -.36666 588.23571814 846.61526022)"/>
        <path d="M280.4491 73.534879c2.16051 5.125087 9.50493 13.463975 19.94544 13.301146 10.20977-.15923 19.42399-13.227922 19.42399-13.227922-2.34022-1.95135-6.72326-1.223921-8.06853-.233107-.94731.697714-2.47034 1.530588-3.75 5.625004.68306-2.375815 2.30973-16.886105.375-17.250004-1.04019-.195647-5.57062 3.80546-6.75 7.109835C301.5559 69.053282 300 72 300 72s-1.4284-2.731813-1.625-3.125004c-1.75107-2.951573-5.66425-6.942121-6.625-6.75-1.6213.324211-1.82036 9.195372.25 16.875004-.47018-1.478036-1.80711-4.620651-3-5.500004-1.07747-.794271-5.81337-2.78348-8.5509.03488z" style="fill:#fcd116;fill-opacity:1;stroke:#d81e05;stroke-width:1.76471295;stroke-linecap:round;stroke-linejoin:miter;stroke-miterlimit:4;stroke-opacity:1;stroke-dasharray:none" transform="matrix(.36666 -1.36839 -1.36839 -.36666 588.23571814 846.61526022)"/>
      </g>
    </g>
  </g>
</svg>
