<?xml version="1.0" encoding="UTF-8"?>
<svg width="900" height="540" version="1.1" viewBox="0 0 900 540" xmlns="http://www.w3.org/2000/svg" xmlns:cc="http://creativecommons.org/ns#" xmlns:dc="http://purl.org/dc/elements/1.1/" xmlns:rdf="http://www.w3.org/1999/02/22-rdf-syntax-ns#">
	<metadata>
		<rdf:RDF>
			<cc:Work rdf:about="">
				<dc:format>image/svg+xml</dc:format>
				<dc:type rdf:resource="http://purl.org/dc/dcmitype/StillImage"/>
			</cc:Work>
		</rdf:RDF>
	</metadata>
	<rect x="0" y="0" width="900" height="540" style="fill:#0067c6;"/>
	<g>
		<polygon points="0 0 0 84 760 540 900 540 900 456 140 0" fill="#ffc726"/>
		<polygon points="0 0 0 42 830 540 900 540 900 498 70 0" fill="#0067c6"/>
	</g>
	<g transform="matrix(-1,0,0,1,900,0)">
		<polygon points="0 84 760 540 900 540 900 456 140 0 0 0" fill="#ffc726"/>
		<polygon points="0 42 830 540 900 540 900 498 70 0 0 0" fill="#0067c6"/>
	</g>
	<g>
		<polygon transform="matrix(1.2435 0 0 1.2435 92.5 270)" points="0 0 287.5 172.5 575 0 287.5 -172.5" fill="#ffc726"/>
		<polygon transform="translate(162.5,270)" points="287.5 172.5 575 0 287.5 -172.5 0 0" fill="#0067c6"/>
	</g>
	<g transform="translate(804.6 499.48)">
		<g transform="translate(125.4 -499.32)" fill-rule="evenodd" stroke="#001d4f">
			<g fill="#ffc726" stroke-linecap="round" stroke-linejoin="round" stroke-width="1.4">
				<path d="m-486.84 294.37s-9.9775-10.246-15.556-14.231c-16.216-11.582-42.358-6.0504-54.094-0.0884-2.3905 1.2144-6.2358 2.3308-8.5295 2.2981-1.221-0.0174-1.602 1.3465-0.22098 2.2981 2.556 1.7612 5.8273 4.3821 5.8336 4.9497 0.0111 0.99325-4.3875 2.5395-8.2201 4.6846-0.46278 0.25901-0.43299 1.2848 0 1.591 3.9843 2.8179 8.0331 2.2605 9.6785 0.57453l-3.0494 2.5191c-2.8579 18.09 13.464 18.679 16.352 37.3-4.9156 1.3511-9.1215 0.90373-12.839 0.44938-3.0808-0.37656-6.9968-0.76317-11.026-4.4269-2.7344-2.4863-0.0926-8.837-0.17678-12.816-0.0341-1.6126-3.8891-6.0104-10.076-0.53032-0.91279 1.0007-0.75621 4.226 0.22097 6.4966-0.0442 3.7123-5.2591 2.961-5.2591 2.961-1.7088-0.26516-0.89862 1.9004-0.0884 4.2426-2.0624 3.3882-2.357 5.8042-2.6516 10.607 0.29463 2.357 5.0971 2.2392 7.955 1.591 1.0901-0.2357 3.105-1.1056 3.5355 0.0884 0.92387 2.562-4.3491 6.1756-4.2426 8.5736 0.14587 3.2867 5.0485 6.318 7.6898 6.1872 5.9515-0.29463 7.6553-7.7927 11.756-7.7782 3.5504 0.0126 2.9288 3.8938 1.591 7.513-0.22842 0.61794 1.6923 0.84972 2.2097 0.44195 4.17-3.2861 5.3917-6.0104 5.3917-6.0104 0.32409 1.591 0.41766 2.915-1e-5 5.0823-0.12741 0.66114 0.87308 0.73602 1.5026 0.30936 3.8159-2.5862 5.3033-6.0988 5.3033-6.0988-0.29463 1.6499-0.91623 3.2192-0.88388 4.2868 0.0323 1.0676 0.42727 1.9517 1.5026 1.0606 0.98761-0.81838 2.6811-2.1213 4.2426-5.8778-0.63345 2.6664-0.0933 3.6886-0.22097 4.9498-0.11952 1.1807 0.53748 1.3501 1.6352 0.83968 1.0977-0.51044 2.961-2.2686 4.5962-6.2314 0.2357 1.3111-0.56451 3.3932-0.7955 4.7288-0.231 1.3356 0.87322 1.799 2.2981 0.88388 2.3322-1.4979 2.9463-2.3276 3.8891-6.2314-0.17678 1.5321-0.1539 3.1765-0.0884 4.1101 0.0655 0.93353 0.31105 1.1571 1.5026 0.39775 3.321-2.1164 4.552-5.4948 3.6681-10.739 3.2036 0.83627 6.0927 0.0468 8.1178-1.3826 0.49658-0.35049 0.87525-0.96315-0.0302-1.4017-9.5459-3.9775-17.098-11.396-16.794-19.711 0.42891-11.735 18.827-16.293 29.698-5.5685"/>
				<path d="m-583.89 332.64c-1.9481-1.2796-3.0066-4.0352-3.0494-7.2036-0.0406-3.008 5.0676-9.0156 13.656-0.75131"/>
			</g>
			<g fill="#dc241f" stroke-width="1px">
				<path d="m-585.53 321.95c-3.4766-1.3111-5.7875-0.28754-8.3969 3.1378-0.4033 0.5294 0.40403 1.3079 1.0165 1.1932 1.9428-0.36391 3.2262 0.19152 5.3917 0.83969-0.32409-1.7825 0.54506-3.8744 1.9887-5.1707z" stroke-linecap="round" stroke-linejoin="round"/>
				<path d="m-574.79 315.94c-0.4714-2.4454-3.402-3.8901-6.0104-4.1542-2.1618-0.21892-2.9656 1.9469-2.2981 1.9887 2.5617 0.16037 3.6828 2.9021 4.0217 4.552 1.265-1.5107 2.5741-2.064 4.2868-2.3865z" stroke-linecap="round" stroke-linejoin="round"/>
				<path d="m-586.37 337.06c-3.4324-0.94281-6.5439 1.562-8.0433 5.2591-0.51834 1.2781 0.81732 4.706 1.5468 3.5355 1.3492-2.1648 1.753-3.4324 5.8336-3.403-0.0442-2.0624 0.0884-3.5061 0.66291-5.3917z"/>
				<path d="m-577.88 357.3c-1.7385 2.0771-2.0682 3.6722-4.773 3.5355-0.69165-0.0349-2.3276 0.90688-1.8562 1.4142 2.9276 3.1509 7.8666 1.4142 11.27-2.2539-1.8267-0.5156-3.2114-1.208-4.6404-2.6958z"/>
			</g>
		</g>
		<path d="m-368.07-160.08c-0.47238-2.5832-0.32916-5.4465 0.70448-8.6364" fill="none" stroke="#001d4f" stroke-linecap="round" stroke-linejoin="round" stroke-width="1px"/>
		<path d="m-387.35-300.32s-8.4375 6.8125-9.1832 11.135l-6.364 31.997c1.5615 14.997 10.545 18.944 25.102 26.34 12.757 6.4818 18.974 21.449 18.65 22.981-13.789 3.2114-20.948 18.355-19.136 27.179 3.1038 7.6314 3.3015 11.738 1.1048 15.512-1.0447 1.795 0.27679 2.9417 1.591 2.0329 1.2267-0.84822 2.1508-2.6516 3.5355-4.2426 0.17678 3.3588-0.91201 6.1364-2.9168 9.2808-0.79545 1.2476 0.67173 1.5054 1.9445 1.2374 1.6367-0.34457 3.4433-1.8528 4.9691-3.2669 1.2793 7.1433 7.2045 12.12 12.092 15.946 6.2394 4.8843 18.328 9.384 25.543 11.981-5.3328 5.6274-9.2513 11.343-10.165 18.208-0.31837 2.3929-1.6499 5.3328-2.4749 6.8059-1.5026 2.3276-6.5408 1.9151-7.6898 0.0884l-6.3778-0.89814-5.1873 8.0386 5.1429 11.104 2.2679 0.22883c1.974-0.97227 3.736-2.4963 5.8595-3.0731 0.50623-0.13749 1.2549 0.60588 1.2999 1.1285 0.20761 2.4135-0.70313 4.176-0.37408 6.576 1.1006 8.0275 10.31 4.8335 12.311-0.72672 1.3844-3.846 2.0475-7.6405 3.8842-11.064 1.262-2.3525 3.3757-4.1355 5.1729-6.1095 2.4415 1.4155 1.6184 3.7511 2.3088 4.8247 0.3032 0.47149 1.3315 0.69588 1.6169 0.2134 1.6729-2.8281 2.3236-7.621 0.97763-12.275 1.745 1.0477 1.7517 3.4917 2.5633 4.5962 0.28399 0.38651 1.2029 0.16542 1.4142-0.26516 1.1214-2.2853 2.1625-5.9715 0.46246-11.106 1.5906 0.97539 2.244 2.2852 2.6311 3.5043 0.0631 0.1986 0.45166 0.21288 0.61872 0.0884 1.508-1.1236 2.804-5.597-0.17678-9.1924 1.0901 0.76603 2.0883 1.6834 3.2704 2.2981 0.33982 0.1767 0.86091 0.3612 1.149-2e-5 1.265-1.2987-0.16529-4.787-1.5026-6.7175 1.4437-0.82496 2.0369 1.6492 3.2704 1.7678 0.62213 0.0598 1.3298-0.70084 1.3258-1.3258-0.0193-2.7191-1.7678-5.8631-5.0381-7.2478 3.8302-1.7383 6.5911-4.2887 8.0433-8.4853 0.17923-0.5179-0.78934-1.0842-1.3258-0.97227-15.321 3.1966-28.785-6.3345-26.87-23.6 5.4801-8.0728 9.2808-14.378 12.728-23.953 14.761 1.1785 20.982-4.9147 21.478-11.206 5.7136 0.37805 12.514-2.1314 15.641-9.4277 0.20679-0.48257-0.39616-1.1521-1.2852-1.0898-0.29633 0.0208-0.62429 0.12211-0.96484 0.33984-3.6618 2.3411-6.6458 2.4375-11.562 3.25l-2e-3 -1.6571c-7.6e-4 -0.78469 0.94109-3.2712 2.1266-3.3429 6.2724-0.37934 13.324-3.9302 10.5-14.312-0.0659-0.24234-0.30472-0.31084-0.5957-0.27344-0.48498 0.0624-1.1161 0.42105-1.3418 0.77344-1.6001 2.498-2.2962 3.8542-4.125 5.0625-1.8971 1.2534-4.2917 1.4583-6.7025 1.6234l-0.11002-1.4984c-0.0715-0.97388 1.0229-1.8038 1.875-2.3125 6.1712-3.6842 8.406-6.9771 8-12.125-0.0262-0.33244-0.41284-0.43994-0.84961-0.40234s-0.92368 0.22025-1.1504 0.46484c-2.0594 2.2218-4.2917 3.25-7.852 4.0317-0.18573-14.319-0.39187-32.871-0.71734-45.225-3e-3 -0.12208-7e-3 -0.24492-0.01-0.36842 0.57665 9.9e-4 1.1758-0.0393 1.8972-0.56491-0.0473-1.6339 0.88044-8.0967 0.17173-8.0887l-2.414 0.0272-0.055-4.2799c6.0837 0.30166 8.0704-2.3749 9.917-7.5317 0.15864-0.44301-0.34426-0.83748-0.98828-0.89258-0.38642-0.0331-0.82367 0.0563-1.1992 0.33008-2.4066 1.7544-5.4583 1.625-8.0437 0.18673-0.3232-6.6762-0.5865-12.467-0.69001-14.969-0.17678-4.2721 1.6933-12.253 7.6898-13.347 2.4362-0.44451 4.9852 1.0902 5.3033 4.773 0.46004 5.326 3.0269 9.0705 9.2808 12.816 0.36453 0.21834 0.92964-0.2962 0.68501-0.95018-0.9949-2.6596-1.149-5.9515-1.2153-10.805 5.539 7.4836 10.138 10.131 19.158 7.8224 0.69974-0.17907 1.3829-1.8469-0.57452-2.3865-4.9406-1.3619-9.6712-4.9354-14.474-8.8388 10.724 5.2296 22.822 2.5503 24.793-5.5243 0.11629-0.47637-0.75277-0.86999-1.2374-0.79549-9.8067 1.5065-22.775 0.4714-29.964-3.4472 3.6828-2.2686 5.144-6.6524 2.4528-9.9879-0.70883-0.87851-2.0551-0.0216-2.1434 0.19889-1.6195 4.0458-2.577 5.0805-8.6179 6.1651-17.869 3.2083-17.617 12.492-17.854 16.705-2.3074 40.902-1.5123 29.813-1.2374 44.724l0.37619 20.409c-2.3958 0.10417-6.3748-1.3646-8.0625-4.25-0.20474-0.35005-0.86406-0.71209-1.3281-0.77539-0.27844-0.038-0.48638 0.0321-0.48438 0.27539 0.0549 7.3464 4.542 10.937 10 14.812v3.875c-4.8542-0.0833-8.5176-2.5362-12.062-8.875-0.16054-0.28707-0.80041-0.59397-1.3223-0.54297-0.52183 0.051-0.9257 0.45979-0.61523 1.6055 2.6314 9.7105 8.5467 13.446 14.312 17.438l0.24697 21.082c0.0964 8.2272-11.667 10.253-11.667 10.253-2.4749-2.6517 0.79405-13.401-15.998-31.024-3.95-4.1454-10.534-14-13.009-22.917-2.2596-8.1382-3.9281-16.289-6.3477-30.204" fill="#ffc726" fill-rule="evenodd" stroke="#001d4f" stroke-linecap="round" stroke-linejoin="round" stroke-width="1.4"/>
		<g transform="translate(125.4 -499.32)" fill-rule="evenodd" stroke="#001d4f">
			<g fill="#ffc726" stroke-linecap="round" stroke-linejoin="round">
				<path d="m-518.56 186.56-16.562-0.1875c-5.3333-0.3125-8.6091 0.24033-13.125 0.125-4.6449-0.11863-9.0712-0.21987-13.5-1.625-1.1207-0.35556-1.5314-1.2976-1.9375-2.8125-0.47631-1.7771 2.5013-8.769 1.4503-10.821-2.146-4.1894-8.908-3.3438-10.181-1.4852-1.1082 1.6178-9.1817 11.497-7.6823 13.529 5.9894 8.1178 10.101 17.616 12.413 18.215 2.2888 0.59286 6.2783 1.3915 6.3125 3.6875 0.0243 1.6298-3.8734 3.8642-5.125 6.25-0.2751 0.52442 0.53307 1.3927 1.125 1.375 5.1426-0.15364 9.8711 0.79013 13.625-5.1875 0.32577 4.7501-1.8777 4.4065-2 6.75-0.0292 0.56019 1.1452 0.72817 1.625 0.4375 2.5463-1.5426 4.4662-2.4465 6.875-5.6875 1.0293 1.6843-3.3766 7.3148-1.5 7.375 3.4192 0.10973 5.5035-1.7907 8.5625-5.875 0.0654 4.1023-4.1631 7.2233-2 7.5 2.6488 0.33887 5.4985-2.856 8.25-4.5625-0.43954 2.858-2.6779 4.5706-1.8125 5.75 0.64664 0.88124-3.5066 0.74881 12.071 1.0196" stroke-width="1.4"/>
				<path d="m-572.06 179c1.0185-4.6581-0.39787-9.8957-4.0625-9.875-3.8075 0.0215-7.1249 3.8559-7.1875 7.5-0.0462 2.6861 1.9583 5.875 3.0625 8.6875" stroke-width="1.4"/>
				<path d="m-576.25 183.88c-1.2292-2.5625-1.7736-5.1146-4.5-5.25-3.3696-0.16728-6.9699 3.3168-7.1875 7.0625-0.19362 3.3329 3.5384 5.567 6.3125 5.4375 1.9931-0.093 4.3427 0.78076 4.3125 2.5625-0.0438 2.5825-3.5154 5.9849-3.375 7.3125 0.30802 2.9117 3.2736 5.6293 6 5.5625 3.1982-0.0783 6.2843-3.6486 6.25-8.4375" stroke-width="1.4"/>
			</g>
			<g fill="#dc241f" stroke-width="1px">
				<path d="m-563.08 169.39c2.6664-4.773-1.3741-7.9779-4.9498-8.8388-1.0626-0.25584-1.5489 1.0378-0.97227 1.6352 1.2727 1.3186 2.0883 3.1902 0.57452 5.5685 2.2244-0.11785 4.0953 0.38301 5.3475 1.6352z" stroke-linecap="round" stroke-linejoin="round"/>
				<path d="m-578.94 169.3c-2.5043-3.4471-6.1174-2.2469-8.5295 1e-5 -0.50845 0.47364-0.1147 1.8288 0.66292 1.9003 2.0048 0.1845 3.3882 0.60399 3.9333 2.2981 1.2227-2.2392 2.0035-3.2409 3.9333-4.1984z" stroke-linecap="round" stroke-linejoin="round"/>
				<path d="m-586.72 181.41c-3.4324-0.66291-6.6064 0.37001-7.8666 6.4082-0.15513 0.74333 0.40556 2.081 0.88389 1.6352 1.7255-1.6081 3.1672-2.2097 5.3475-2.5191 0.16969-2.3106 0.46953-4.2266 1.6352-5.5243z" stroke-linecap="round" stroke-linejoin="round"/>
				<path d="m-580.09 203.88c-1.0208 1.5208-1.7955 2.2601-4.3438 2.0312-0.70951-0.0637-1.9388 0.42454-1 1.5312 4.5934 5.4148 8.2396 2.8542 10.062-0.53125-1.8958-0.375-3.5729-1.3438-4.7188-3.0312z"/>
			</g>
		</g>
		<g transform="translate(125.4 -499.32)" fill-rule="evenodd" stroke="#001d4f">
			<g fill="#ffc726" stroke-width="1.4">
				<path d="m-512.3 238.64c-0.60399 3.1083-2.2828 6.5625-5.0381 6.7617-2.2593 0.16332-2.0365-8.2605-2.2981-6.0104-0.49999 4.3004-1.3732 6.835-4.0659 8.7504-1.6707 1.1884-1.9483-7.051-2.5633-6.0104-0.61696 1.044-0.73807 6.1952-3.5797 8.3969-1.0464 0.81071-2.942-7.7482-3.403-5.7452-0.71305 3.0984-1.2329 7.7234-4.1984 8.5737-0.69555 0.19943-2.5794-6.9196-2.6516-5.0823-0.13985 3.5561 0.0551 6.4098-2.3423 7.3804-1.1635 0.47108-2.6192-7.2178-2.961-5.4359-0.72613 3.7856-2.473 9.1902-5.2149 9.6785-1.1704 0.20842-0.27266-4.8594-1.4142-7.292l-11.711 5.9662c-0.20159-0.69638 0.53067 5.372-2.3169 5.498l-16.965-13.067 1.2444-12.911c0.0975-1.0112 12.735 1.3879 12.735 1.3879 11.564-0.14732 21.051-13.995 46.89-23.909" stroke-linecap="round"/>
				<path d="m-569.04 239.48c-1.6826-0.20322-3.7602-2.1489-4.0217-3.8007-0.30823-1.9472-1.8782-5.1841-4.331-5.0823-2.3211 0.0963-4.39 2.578-6.0546 5.3033l0.57452 10.916"/>
				<path d="m-582.61 250.75c-1.9593-1.4584-3.4251-2.4333-5.5685-4.2868-1.8618-1.61-1.4305-5.4558-0.88388-7.4246 0.73162-2.6353 3.1844-3.3601 5.3033-3.1378 1.0609 0.11131 3.1672 2.4896 4.1101 4.0659" stroke-linecap="round" stroke-linejoin="round"/>
				<path d="m-578.24 249.91c-2.6369-2.136-7.7675 0.1797-7.6456 2.8726 0.12354 2.7292 0.14086 5.5175 5.5243 6.0546 1.1642 0.11615 4.1827-1.2956 5.2591 0.0884 1.4484 1.8623 0.18071 5.0356 0.44194 7.3804 0.59077 5.3026 9.9205 9.6379 11.579-0.53032 0.36794-2.256-0.38301-4.935-0.66291-7.2037" stroke-linecap="round" stroke-linejoin="round"/>
			</g>
			<g fill="#dc241f" stroke-width="1px">
				<path d="m-581.73 232.59c-1.4254-2.429-3.0881-3.5083-5.4712-3.0091-0.55297 0.036-0.97504-1.1599-0.40656-1.7197 2.8813-2.8375 7.513-2.4896 9.1924 2.3865-1.1785 0.58926-2.357 1.3111-3.3146 2.3423z"/>
				<path d="m-589.55 239.08c-3.2556-0.0442-6.4671 3.1378-6.5849 7.6898 0.0295 0.63345 0.58925 1.1785 1.0165 0.83969 1.812-1.8267 3.403-2.8579 5.4359-2.8284-0.30936-2.0329-0.22097-3.8007 0.13258-5.701z"/>
				<path d="m-586.15 252.96c-1.0754-0.0884-2.0099 0.0727-2.5633 0.61872-2.7782 2.7411-3.3817 4.5911-3.0936 8.1317 0.0385 0.47351 0.98692 1.1684 1.591 0.30936 1.627-2.3138 2.961-3.1083 5.4359-4.0659-1.0901-1.6646-1.6499-2.9758-1.37-4.994z"/>
				<path d="m-573.99 269.35s-2.2857 1.7481-4.4194 1.0165c-1.5341-0.52601-2.0678 0.56572-1.149 1.5026 1.9738 2.0128 3.349 3.0201 4.5962 2.9168 2.7859-0.23074 4.5962-0.58926 4.9056-2.74-1.4437-0.41248-2.7106-1.0901-3.9333-2.6958z"/>
			</g>
		</g>
		<path d="m-350.53-106.58c-1.2816-2.0035-1.7031-5.3468-2.7842-7.4688-1.6685-3.2747-10.125-0.35141-9.9879 3.6239 0.0435 1.2557-0.13568 2.9938 2.9168 4.8172-4.5815-0.60399-7.7285 1.9043-7.5572 5.4801 0.15477 3.2316 2.6958 5.9809 7.4688 5.9662" fill="#ffc726" fill-rule="evenodd" stroke="#001d4f" stroke-linecap="round" stroke-linejoin="round" stroke-width="1.4"/>
		<path d="m-354.91-88.633c-2.0035 0.97227-5.8837-0.3614-7.3362-3.9775-0.72634-1.8082 1.208-4.1395 3.6681-4.552" fill="#ffc726" fill-rule="evenodd" stroke="#001d4f" stroke-linecap="round" stroke-linejoin="round" stroke-width="1.4"/>
		<g transform="translate(125.4 -499.32)" fill="#dc241f" fill-rule="evenodd" stroke="#001d4f" stroke-width="1px">
			<path d="m-485.21 384.17s-2.9322-3.297-4.9056-3.3146c-1.7569-0.0157-3.5711 1.5097-4.4194 2.8726-0.30068 0.48309 0.10764 0.94308 0.61872 1.1932 0.64887 0.31762 1.3619-0.32268 2.0771-0.22097 1.2663 0.18007 3.2262 2.0771 3.2262 2.0771 1.1343-1.2227 2.0477-1.8709 3.403-2.6075z" stroke-linecap="round" stroke-linejoin="round"/>
			<path d="m-493.43 396.99c-0.41248-0.27989-1.4455-0.57341-1.9445-0.30936-4.3013 2.2758-5.2557 4.8013-4.8614 8.0433 0.071 0.58384 1.1344 1.4751 1.5026 1.0165 1.1562-1.4399 2.3501-3.3865 5.5685-3.8007-0.57453-1.7383-0.57453-3.2556-0.26517-4.9498z" stroke-linecap="round" stroke-linejoin="round"/>
			<path d="m-488.04 407.24c-3.786 2.9757-4.016 5.742-2.4749 9.9879 0.14611 0.40253 1.4753 0.70041 1.6352-0.0442 0.5566-2.592 2.422-4.354 5.3475-6.2314-2.2244-0.14731-3.2114-2.0624-4.5078-3.7123z" stroke-linecap="round" stroke-linejoin="round"/>
			<path d="m-471.99 419.31c-0.39775 5.981-5.3566 7.2123-5.1707 7.734 0.78306 2.1972 9.4471 1.6948 11.535-4.8614 0.21365-0.67099-0.20625-1.2227-0.75131-1.9003-1.8414 0.64818-3.727 0.36827-5.6126-0.97229z"/>
		</g>
		<path d="m-298.04-286.51c4.4583 0.29167 7.153 0.28336 10-1.5625 0.95378-0.61839 1.7985 0.93261 1.8125 1.625 0.11869 5.8823-3.75 7.5-10.562 9.0625" fill="#ffc726" fill-rule="evenodd" stroke="#001d4f" stroke-linecap="round" stroke-linejoin="round" stroke-width="1px"/>
		<path d="m-369.57-336.24c-4.2828-4.411-11.082-9.0849-12.83-9.5493l-10.377-2.7569c-1.2118-0.32196-1.8791 0.88608-1.2652 1.4154l14.059 12.121" fill="#dc241f" fill-rule="evenodd" stroke="#001d4f" stroke-linecap="round" stroke-linejoin="round" stroke-width="1px"/>
		<path d="m-376.82-353.35 0.1835 6.5304c0.0391 1.3929 0.636 1.301 1.355 0.32654l5.3365-7.232" fill="#fff" fill-rule="evenodd" stroke="#001d4f" stroke-linecap="round" stroke-linejoin="round" stroke-width="1px"/>
		<path d="m-372.14-353.83 0.0897 10.28c0.0122 1.3934 0.636 1.301 1.355 0.32654l5.3365-7.232" fill="#fff" fill-rule="evenodd" stroke="#001d4f" stroke-linecap="round" stroke-linejoin="round" stroke-width="1px"/>
		<path d="m-381.17-354.45c-1.2188-0.45833-2.2812-0.94792-3.375-1.875-0.76042-0.67708 0.0417-3.9167 2.625-4.9688l10.781 0.46875z" fill="#ffc726" fill-rule="evenodd" stroke="#001d4f" stroke-width="1px"/>
		<path d="m-342.23-283.57c-1.8125 3.4167-1.4515 8.8966 0.75 13.625 0.35273 0.75758-0.97714 0.89013-1.625 0.625-3.9216-1.6049-5.4792-4.2708-8.75-9.875-2.7221 2.1746-4.6762 6.7798-6.8125 12.188-4.75-2.7917-9-10.896-9.9375-21.125-4.9858 4.3808-8.4799 7.9195-10.875 14.312-7.875-2.8958-10.125-10.854-8-20.875-6.3044 3.3932-10.955 9.106-13.052 15.52-1.8493-10.415-1.3032-21.564 1.8018-30.27-4.3497-2.5986-8.8459-2.134-14.08 1.6313 2.8673-6.235 5.5945-10.34 12.704-11.006l57.572 0.11298z" fill="#ffc726" fill-rule="evenodd" stroke="#001d4f" stroke-linecap="round" stroke-linejoin="round" stroke-width="1.4"/>
		<path d="m-368.23-331.57c-2.7083 5.625-8.9333 10.798-15.25 10.75-13.672-0.10472-14.75-9.75-15.75-15.625-1.2083 0.60417-5.9551 5.7489-5.875 12.25 0.0794 6.4513 7 10.438 16.375 11.375-5.7917 4.4583-8.0833 11.542-7.1875 16.688 6.467-9.5371 14.695-11.393 21.688-14.438-5.625 9.7917-6.875 18.958-6.4375 26.375 5.2292-8.4583 11.458-14.229 19.312-18.25 0.9805 4.5888-1.9276 8.0454-1.6818 13.196 0.14593 3.0574 1.9031 8.3991 5.2443 11.554 0.54167-6.6042 3.8333-13.708 6.0625-16.75 3.8125 9.1458 6.0625 13.917 13.688 15.25-1.5614-8.3763-1.2934-15.442 0.39743-20.566 1.7557-5.3206 5.7932-10.744 3.2901-18.809 1.625 3.0833 1.9496 5.2382 2.625 8.875 0.13747 0.74023 1.5842 0.84162 1.875 0.125 3.2544-8.0212 0.0625-11.542-1.75-16.938 1.7292 1.3125 3.012 2.7384 4.625 5.3125 0.67225 1.0728 1.4379 0.96213 1.75 0.375 2.3218-4.3684 0.4375-10.479-4.125-16.375l4.25 3.875c0.26307 0.23986 0.99248-0.0191 1-0.375 0.12241-5.7941-2.6042-12.083-6.5-15.5" fill="#ffc726" fill-rule="evenodd" stroke="#001d4f" stroke-linecap="round" stroke-linejoin="round" stroke-width="1.4"/>
		<path d="m-365.45-362.79-15.406-2.3125c-0.73342-0.11009-1.7052-0.15718-2.1875 0.40625-0.74157 0.86639-0.99171 2.141-0.96875 3.2812 0.0117 0.57911 0.48537 1.3258 1.0625 1.375l6.5938 0.5625-7.5625 4.125c-0.45724 0.2494-0.26271 1.1128 0 1.5625 0.40976 0.70145 1.0454 1.4433 1.8438 1.5938 3.3134 0.62451 6.8348-0.20837 10.094 0.65625 1.5316 0.40634 2.7915 1.6931 3.6875 3 0.81638 1.1908 1.2269 2.7125 1.2188 4.1562-0.0183 3.2322-1.5356 5.4984-4.0625 7.5312-0.82292 0.66201-2.9127 0.54668-3.9688 0.53125-1.841-0.0269-4.8114-2.3319-10.031-3.3438-0.32612-0.0632-0.68779 0.32994-0.75 0.65625l-1.6562 8.6875c-0.12002 0.62952 0.73511 1.379 1.375 1.3438l19.844-1.0938c2.3643-0.13032 5.7843-0.77679 8.5938-1.6875 4.014-1.3012 5.8333-5.6354 5.125-8.9375 1.2188 1.125 2.25 2.75 2.25 2.75l1.6562-4.1562 2.5 3.25c1.2812-1.6875 2.0312-4.5312 2.0312-4.5312l2.2812 2.1562c0.65625-1.5625 1.0625-3.1875 1.0625-3.1875 0.8125 0.96875 1.6562 1.9062 2.5312 2.2188 0.11458-1.7083 0.38542-3.0729 0.8125-4.0938l2.0938 2.3125 1.1562-2.9062 4.4062-0.21875c1.7188-1.3438 2.6322-1.8637 3.4688-2.8438 1.2683-1.4859 4.4762-8.5393 6.1875-13.062 0.19372-0.51202-0.29158-1.6848-0.84375-1.6875-5.802-0.0285-11.667 1.2708-17.5 3.4375l1.5938-3.4375c0.18631-0.40183-0.46463-1.3872-0.90625-1.1875l-4.9062 2.2188-0.5-0.53125 1.2188-2.3438c0.16148-0.31053-1.328-0.59916-2.0938-0.625l-17.594-0.59375c-0.56257-0.019-1.474 0.38236-1.6875 0.8125z" fill="#ffc726" fill-rule="evenodd" stroke="#001d4f" stroke-linecap="round" stroke-width="1.4"/>
		<path d="m-365.45-362.79 19.424 2.6276c-3.2141 2.6327-6.4331 3.9842-8.3085 4.1101-1.8695 0.12549-2.9899 0.36887-5.0381 0.35355-2.7267-0.0204-3.4025-5.4305 0.54551-6.1818" fill="#001d4f" fill-rule="evenodd" stroke="#001d4f" stroke-width="1.4"/>
		<ellipse cx="-359.92" cy="-358.86" rx=".50823" ry=".7734" style="fill:#fff;"/>
		<ellipse transform="matrix(.9404 .34008 -.34008 .9404 0 0)" cx="-457.73" cy="-215.89" rx="1.0165" ry="2.0108" style="fill:#dc241f;"/>
		<path d="m-354.17-360.2 5.0625 0.5c-0.36159 0.71038-3.6657 2.7818-5.625 2.375 0.47917-1.0729 0.77083-1.8333 0.5625-2.875z" style="fill:#fff;"/>
		<path d="m-336.87-352.74c6.0658-1.5749 9.7584-4.4801 13.456-11.526" fill="none" stroke="#001d4f" stroke-linecap="round" stroke-width="1.4"/>
	</g>
</svg>
