<?xml version="1.0" encoding="UTF-8"?>
<!-- Created with Inkscape (http://www.inkscape.org/) -->
<svg id="svg1030" width="1e3" height="600" version="1.1" viewBox="0 0 1e3 600" xmlns="http://www.w3.org/2000/svg">
 <g id="g1036">
  <rect id="rect4336" width="1e3" height="600" style="fill:#f1aa00;stop-color:#000000;stroke-linecap:round;stroke-linejoin:round;stroke-width:3"/>
  <rect id="rect1149" width="360" height="600" style="fill:#00722a;stop-color:#000000;stroke-linecap:round;stroke-linejoin:round;stroke-width:3"/>
  <path id="path13761" d="m1e3 600v-280.065c-1.432 0-2.864-0.095-4.295-0.2835-1.432-0.1884-2.864-0.4703-4.296-0.842-1.431-0.3717-2.863-0.8327-4.295-1.3768-1.432-0.5444-2.863-1.1714-4.295-1.8729-1.432-0.7012-2.864-1.4766-4.296-2.3149-1.431-0.8387-2.863-1.7402-4.295-2.6923-1.432-0.9522-2.863-1.9542-4.295-2.9925s-2.864-2.1129-4.295-3.2082c-1.432-1.0952-2.864-2.2114-4.296-3.3326-1.431-1.1211-2.863-2.247-4.295-3.3622s-2.864-2.2194-4.295-3.297c-1.432-1.0772-2.864-2.1282-4.296-3.1375-1.431-1.0094-2.863-1.9772-4.295-2.8893-1.432-0.9126-2.863-1.7698-4.295-2.5592-1.432-0.7897-2.864-1.5122-4.296-2.1565-1.431-0.6443-2.863-1.2114-4.295-1.6923s-2.863-0.8762-4.295-1.1801c-1.432-0.3038-2.864-0.5165-4.295-0.6346-1.432-0.1181-2.864-0.1421-4.296-0.071-1.432 0.071-2.863 0.2366-4.295 0.4948-1.432 0.258-2.864 0.6084-4.295 1.0463-1.432 0.4377-2.864 0.9628-4.296 1.5682-1.431 0.605-2.863 1.2902-4.295 2.0453-1.432 0.7555-2.863 1.5808-4.295 2.465-1.432 0.8843-2.864 1.8264-4.296 2.8141-1.431 0.9877-2.863 2.0207-4.295 3.084s-2.863 2.1569-4.295 3.2654c-1.432 1.1089-2.864 2.2324-4.295 3.3552-1.432 1.1225-2.864 2.244-4.296 3.3489-1.432 1.1046-2.863 2.1925-4.295 3.2477-1.432 1.0553-2.864 2.0787-4.295 3.0548-1.432 0.9761-2.864 1.9055-4.296 2.7748-1.431 0.8693-2.863 1.6786-4.295 2.4161-1.432 0.7374-2.864 1.4037-4.295 1.9888-1.432 0.585-2.864 1.0892-4.296 1.5052-1.431 0.4156-2.863 0.7438-4.295 0.9784-1.432 0.2349-2.863 0.3773-4.295 0.4246-1.432 0.047-2.864-3e-4 -4.295-0.1417-1.432-0.1418-2.864-0.3774-4.296-0.7042s-2.863-0.7438-4.295-1.2463c-1.432-0.5026-2.864-1.0896-4.295-1.7532-1.432-0.6639-2.864-1.404-4.296-2.2104-1.431-0.8064-2.863-1.6786-4.295-2.6045-1.432-0.9261-2.864-1.9059-4.295-2.9252-1.432-1.0194-2.864-2.0786-4.296-3.1625-1.431-1.084-2.863-2.1925-4.295-3.3103-1.432-1.1176-2.863-2.2441-4.295-3.3639-1.432-1.1195-2.864-2.2321-4.295-3.322-1.432-1.0899-2.864-2.1568-4.296-3.1861-1.432-1.029-2.863-2.0204-4.295-2.9596-1.432-0.9391-2.864-1.8263-4.295-2.6487-1.432-0.8226-2.864-1.5807-4.296-2.2633-1.431-0.6826-2.863-1.2902-4.295-1.8134-1.432-0.5231-2.864-0.9628-4.295-1.3119-1.432-0.3491-2.864-0.6083-4.296-0.7734-1.431-0.165-2.863-0.2362-4.295-0.2126-1.432 0.024-2.863 0.1421-4.295 0.3541s-2.864 0.5165-4.296 0.9105c-1.431 0.394-2.863 0.8766-4.295 1.4413-1.432 0.5648-2.863 1.2114-4.295 1.9312s-2.864 1.5122-4.295 2.3662c-1.432 0.8543-2.864 1.7698-4.296 2.7342-1.431 0.9641-2.863 1.9771-4.295 3.0241-1.432 1.0473-2.864 2.1286-4.295 3.2288-1.432 1.1002-2.864 2.2194-4.296 3.3415-1.431 1.1222-2.863 2.2471-4.295 3.3593s-2.863 2.2114-4.295 3.282-2.864 2.1129-4.296 3.1113c-1.431 0.9987-2.863 1.9541-4.295 2.8527-1.432 0.8982-2.863 1.7398-4.295 2.5126-1.432 0.7724-2.864 1.4766-4.295 2.1012-1.432 0.625-2.864 1.1711-4.296 1.6307-1.432 0.4593-2.863 0.8327-4.295 1.1135-1.432 0.2809-2.864 0.4703-4.295 0.5648-1.432 0.094-2.864 0.094-4.296 0-1.431-0.095-2.863-0.2839-4.295-0.5648-1.432-0.2812-2.863-0.6539-4.295-1.1135s-2.864-1.0057-4.296-1.6307c-1.431-0.625-2.863-1.3285-4.295-2.1012-1.432-0.7728-2.863-1.6141-4.295-2.5126-1.432-0.8986-2.864-1.854-4.295-2.8527-1.432-0.9987-2.864-2.0407-4.296-3.1113s-2.863-2.1698-4.295-3.282-2.864-2.2371-4.295-3.3593c-1.432-1.1221-2.864-2.2413-4.296-3.3415-1.431-1.1002-2.863-2.1815-4.295-3.2288-1.432-1.047-2.864-2.06-4.295-3.0241-1.432-0.9644-2.864-1.8803-4.296-2.7342-1.431-0.854-2.863-1.6467-4.295-2.3662s-2.863-1.3664-4.295-1.9312c-1.432-0.5647-2.864-1.0476-4.295-1.4413-1.432-0.3937-2.864-0.6989-4.296-0.9105-1.432-0.2117-2.863-0.3305-4.295-0.3541-1.432-0.024-2.864 0.048-4.295 0.2126-1.432 0.1654-2.864 0.424-4.296 0.7734-1.431 0.3491-2.863 0.7884-4.295 1.3119s-2.864 1.1305-4.295 1.8134c-1.432 0.6826-2.864 1.4407-4.296 2.2633-1.431 0.8227-2.863 1.7096-4.295 2.6487-1.432 0.9395-2.863 1.9306-4.295 2.9596-1.432 1.0293-2.864 2.0962-4.296 3.1861-1.431 1.0899-2.863 2.2025-4.295 3.322-1.432 1.1198-2.863 2.2463-4.295 3.3639-1.432 1.1178-2.864 2.2263-4.295 3.3103-1.432 1.0839-2.864 2.1431-4.296 3.1625-1.431 1.0193-2.863 1.9991-4.295 2.9252-1.432 0.9259-2.864 1.7985-4.295 2.6045-1.432 0.8064-2.864 1.5468-4.296 2.2104-1.431 0.6636-2.863 1.251-4.295 1.7532-1.432 0.5021-2.863 0.9198-4.295 1.2463-1.432 0.3264-2.864 0.5624-4.296 0.7042-1.431 0.1414-2.863 0.1889-4.295 0.1417-1.432-0.048-2.863-0.1893-4.295-0.4246-1.432-0.235-2.864-0.5624-4.295-0.9784-1.432-0.4163-2.864-0.9202-4.296-1.5052-1.431-0.5851-2.863-1.251-4.295-1.9888s-2.864-1.5468-4.295-2.4161c-1.432-0.8693-2.864-1.7984-4.296-2.7748-1.431-0.9761-2.863-1.9991-4.295-3.0548-1.432-1.0552-2.863-2.1431-4.295-3.2477-1.432-1.1049-2.864-2.2264-4.296-3.3489-1.431-1.1228-2.863-2.2463-4.295-3.3552-1.432-1.1085-2.863-2.2024-4.295-3.2654-1.432-1.0633-2.864-2.0963-4.295-3.084-1.432-0.9874-2.864-1.9302-4.296-2.8141s-2.863-1.7095-4.295-2.465c-1.432-0.7551-2.864-1.4403-4.295-2.0453-1.432-0.6051-2.864-1.1305-4.296-1.5682-1.431-0.4379-2.863-0.7883-4.295-1.0463-1.432-0.2582-2.863-0.4239-4.295-0.4948-1.432-0.071-2.864-0.047-4.296 0.071-1.431 0.1181-2.863 0.3305-4.295 0.6346-1.432 0.3039-2.863 0.6989-4.295 1.1801s-2.864 1.0476-4.295 1.6923c-1.432 0.6446-2.864 1.3668-4.296 2.1565s-2.863 1.6466-4.295 2.5592c-1.432 0.9125-2.864 1.8799-4.295 2.8893-1.432 1.0093-2.864 2.06-4.296 3.1375-1.431 1.0776-2.863 2.1818-4.295 3.297s-2.864 2.2411-4.295 3.3622c-1.432 1.1212-2.864 2.2374-4.296 3.3326-1.431 1.0953-2.863 2.1699-4.295 3.2082s-2.863 2.0407-4.295 2.9925c-1.432 0.9517-2.864 1.8536-4.295 2.6923-1.432 0.8383-2.864 1.6137-4.296 2.3149-1.432 0.7015-2.863 1.3288-4.295 1.8729s-2.864 1.0054-4.295 1.3768c-1.432 0.3714-2.864 0.6536-4.296 0.842-1.431 0.1887-2.863 0.2835-4.295 0.2835v280.065" style="fill:#01267f;stop-color:#000000;stroke-linecap:round;stroke-linejoin:round;stroke-width:1.73065" title="cos(x)"/>
  <g id="g50139">
   <path id="path1405" d="m141.674 185.983c-10.55-15.278-22.715-23.636-28.853-36.876-0.981-2.118-2.727-5.907-1.262-7.197 1.85-1.856 6.181 0.828 10.089 2.538-6.655-6.109-18.771-26.724-17.215-32.337 1.546-1.126 6.498 0.743 11.322 3.034-7.428-8.514-15.6-19.5075-14.058-29.9383 3.265-0.9144 6.189 0.9757 10.324 3.4052-4.67-8.4696-6.443-16.1048-2.332-21.7265 4.63 0.2916 14.96 11.3594 20.968 18.557 12.021 14.4031 33.763 18.8326 49.344 27.2946 15.58-8.462 37.322-12.8915 49.344-27.2946 6.007-7.1976 16.337-18.2654 20.966-18.557 4.111 5.6217 2.338 13.2569-2.331 21.7265 4.134-2.4295 7.058-4.3196 10.323-3.4052 1.542 10.4308-6.63 21.4243-14.057 29.9383 4.823-2.291 9.775-4.16 11.321-3.034 1.556 5.613-10.559 26.228-17.214 32.337 3.908-1.71 8.239-4.394 10.089-2.538 1.464 1.29-0.28 5.079-1.262 7.197-6.138 13.24-18.303 21.598-28.853 36.876-6.293 1.284-32.116 2.567-38.326 2.591-6.21-0.024-32.034-1.307-38.327-2.591z" style="fill:#f1aa00;stroke-linecap:round;stroke-linejoin:round;stroke-width:3.00279;stroke:#0f4c2a"/>
   <path id="path7635-8-8-5" d="m151.452 183.457c-2.763-18.768-22.652-30.202-23.735-47.169 3.262 0.229 6.595 1.028 11.234 2.77-8.636-12.468-15.886-20.791-15.21-37.954 0.904-2.0465 6.323 0.624 10.797 2.561-14.426-14.1791-16.188-35.8485-12.615-35.9337 3.822-0.0911 6.727 1.4231 11.455 3.617-1.626-10.6923 0.37-21.5941 5.106-21.755 6.038-0.205 14.033 12.7702 21.737 23.6747 2.755-4.3868 2.793-6.3467 6.285-8.949 10.563 13.0234 13.495 48.418 13.495 48.418s2.931-35.3946 13.495-48.418c3.491 2.6023 3.529 4.5622 6.283 8.949 7.704-10.9045 15.7-23.8797 21.738-23.6747 4.736 0.1609 6.732 11.0627 5.106 21.755 4.729-2.1939 7.633-3.7081 11.455-3.617 3.574 0.0852 1.811 21.7546-12.615 35.9337 4.474-1.937 9.894-4.6075 10.798-2.561 0.676 17.163-6.575 25.486-15.211 37.954 4.639-1.742 7.973-2.541 11.234-2.77-1.083 16.967-20.973 28.401-23.736 47.169l-28.547 5.117z" style="fill:#f1aa00;stroke-linecap:round;stroke-linejoin:round;stroke-width:3.00279;stroke:#0f4c2a"/>
   <path id="path7635-8-84-8" d="m197.1 104.768s20.47-34.808 8.455-51.5225c-4.134 0.1895-10.04 7.0897-14.036 10.3901 6.487-12.017 2.027-37.1342-11.396-37.1342s-17.883 25.1172-11.396 37.1342c-3.997-3.3004-9.903-10.2006-14.037-10.3901-12.014 16.7145 8.456 51.5225 8.456 51.5225m12.935-5.8176" style="fill:#f1aa00;stroke-linecap:round;stroke-linejoin:round;stroke-width:3.00279;stroke:#0f4c2a"/>
   <path id="path7635-8-84-8-9-2" d="m183.706 145.993s35.943-31.157 24.819-56.0226c-4.134 0.1895-12.416 4.5701-16.412 7.8706 2.329-9.3493-3.249-24.5367-11.99-24.5367-8.742 0-14.319 15.1874-11.99 24.5367-3.997-3.3005-12.279-7.6811-16.413-7.8706-11.124 24.8656 24.82 56.0226 24.82 56.0226" style="fill:#f1aa00;stroke-linecap:round;stroke-linejoin:round;stroke-width:3.00279;stroke:#0f4c2a"/>
   <path id="path7635-8-6-4-7" d="m194.206 182.893c-1.128-30.58 21.207-35.559 13.124-53.042-7.485-0.635-12.977 6.264-16.973 9.564 7.972-10.239 0.345-29.642-10.208-29.642s-18.18 19.403-10.208 29.642c-3.996-3.301-9.489-10.199-16.973-9.564-8.083 17.483 14.252 22.462 13.124 53.042" style="fill:#f1aa00;stroke-linecap:round;stroke-linejoin:round;stroke-width:3.00279;stroke:#0f4c2a"/>
   <g id="g24204">
    <path id="path12711" d="m144.069 202.461c3.618 35.576 0.724 44.852-11.997 74.045-0.602 1.382 15.029 0.782 17.734 1.08 10.019-17.998 13.683-23.998 30.317-23.998 16.633 0 20.296 6 30.316 23.998 2.706-0.298 18.337 0.302 17.735-1.08-12.722-29.193-15.615-38.469-11.997-74.045" style="fill:#f1aa00;stroke-linecap:round;stroke-linejoin:round;stroke-width:3.00279;stroke:#0f4c2a"/>
    <path id="path12861" d="m155.338 202.156c5.585 32.321-2.791 52.946-11.145 77.134-0.226 0.655-0.234 1.596 0.764 1.65 6.795 0.371 15.179 1.476 19.918 1.476 2.004 0 3.708-3.346 3.949-5.492 2.101-18.725 2.281-22.706 11.299-23.706 9.017 1 9.197 4.981 11.299 23.706 0.241 2.146 1.945 5.492 3.949 5.492 4.737 0 13.121-1.105 19.917-1.476 0.998-0.055 0.99-0.995 0.764-1.65-8.355-24.188-16.73-44.813-11.145-77.134" style="fill:#f1aa00;stroke-linecap:round;stroke-linejoin:round;stroke-width:3.00279;stroke:#0f4c2a"/>
    <path id="path15818-1-8" d="m191.242 202.848c-0.469 59.499 9.439 75.708 9.534 82.643-4.477 0.848-18.263 4.151-20.548 4.675-2.286-0.524-16.072-3.827-20.549-4.675 0.095-6.935 10.003-23.144 9.534-82.643" style="fill:#f1aa00;stroke-linecap:round;stroke-linejoin:round;stroke-width:3.00279;stroke:#0f4c2a"/>
   </g>
   <g id="g15823">
    <path id="path4654-9-9-0-9" d="m221.383 194.981c1.593 0.047 2.659-4.641 2.789-7.084 0.176-3.302-1.029-5.627-2.556-5.83-11.201-1.49-25.637-1.262-41.411-1.262s-30.212-0.228-41.411 1.262c-1.527 0.203-2.733 2.528-2.557 5.83 0.13 2.443 1.196 7.132 2.789 7.084 13.067-0.387 25.611-0.736 41.179-0.736 15.567 0 28.111 0.349 41.178 0.736z" style="fill:#f1aa00;stroke-width:3.00279;stroke:#0f4c2a"/>
    <path id="path4654-9-9-0-9-1" d="m221.383 208.283c1.593 0.047 2.659-4.64 2.789-7.083 0.176-3.302-1.029-5.627-2.556-5.83-11.201-1.49-25.637-1.262-41.411-1.262s-30.212-0.228-41.411 1.262c-1.527 0.203-2.733 2.528-2.557 5.83 0.13 2.443 1.196 7.131 2.789 7.083 13.067-0.387 25.611-0.736 41.179-0.736 15.567 0 28.111 0.349 41.178 0.736z" style="fill:#f1aa00;stroke-width:3.00279;stroke:#0f4c2a"/>
   </g>
  </g>
 </g>
</svg>
